<?xml version="1.0" encoding="utf-8"?>
<!-- Generator: Adobe Illustrator 25.1.0, SVG Export Plug-In . SVG Version: 6.00 Build 0)  -->
<svg version="1.1" id="Layer_1" xmlns="http://www.w3.org/2000/svg" xmlns:xlink="http://www.w3.org/1999/xlink" x="0px" y="0px"
	 viewBox="0 0 250 250" style="enable-background:new 0 0 250 250;" xml:space="preserve">
<style type="text/css">
	.st0{fill:none;}
	.st1{display:none;fill:none;}
	.st2{fill:#1A1B2E;}
	.st3{fill:#FFFFFF;}
	.st4{fill:#E22531;}
</style>
<rect x="8" y="8" class="st0" width="234" height="234"/>
<rect x="8" y="34.8" class="st1" width="234" height="180.4"/>
<rect x="8" y="34.8" class="st0" width="234" height="180.4"/>
<g>
	<g transform="matrix(4.90128 0 0 -4.90128 -140.24 880.954)">
		<g>
			<path class="st2" d="M69.4,156.3c0.8-0.2,1.5-0.5,1.9-0.9c0.4-0.4,0.6-1,0.6-1.5c0-0.2-0.1-0.5-0.2-0.7l1,1l-1,1L69,158
				C69.3,157.3,69.3,156.7,69.4,156.3"/>
		</g>
		<g>
			<path class="st2" d="M50.6,144c-0.4,0.2-0.8,0.3-1.2,0.5c-0.1-0.2-0.2-0.5-0.2-0.7C49.7,143.8,50.1,143.9,50.6,144"/>
		</g>
		<g>
			<path class="st2" d="M36.9,154.2l-0.4,0.6c-0.1,0.1-0.1,0.2-0.2,0.3l-0.9-0.9l2.9-2.9l0.3,4.5L36.9,154.2z"/>
		</g>
		<g>
			<path class="st2" d="M63.9,149.7c-0.7-1.5-1.8-2.9-3-3.9c1.3-0.1,2.2-0.5,2.7-0.8l3,3l3,3C68.4,150.4,66.3,150,63.9,149.7"/>
		</g>
		<g>
			<path class="st2" d="M44.1,150.3c-0.6-0.2-1.3-0.4-2.1-0.6l-1.9-0.2l4.4-4.4c0.2,0.9,0.6,1.7,1.1,2.4
				C45,148.4,44.4,149.3,44.1,150.3"/>
		</g>
		<g>
			<path class="st2" d="M58.5,139.9c-1.2-0.2-2.5-0.5-3.8-0.9c-1-0.3-2.1-0.6-3.2-0.9l2.6-2.6L58.5,139.9z"/>
		</g>
		<g>
			<path class="st3" d="M71.8,153.1c0.1,0.2,0.2,0.5,0.2,0.7c0,0.6-0.2,1.1-0.6,1.5c-0.5,0.5-1.1,0.8-1.9,0.9c0,0.6-0.2,1.1-0.3,1.6
				l3.7-3.7L71.8,153.1z M63.7,145c-0.6,0.3-1.5,0.7-2.7,0.8c1.3,1,2.3,2.4,3,3.9c2.3,0.3,4.4,0.7,5.8,1.4L63.7,145z M57.3,164.5
				c1.1,0.2,1.9,0.4,2.5,0.5l0,0c1.4,0.2,1.9,0,1.9,0s-0.1,0.9-1.8,0.6c-0.6-0.1-1.3-0.1-5.6-1.3h-0.2h-0.1
				c-0.2-0.1-0.5-0.1-0.7-0.2c-0.4-0.1-0.8-0.2-1.2-0.3l-0.2-0.1c-0.5-0.1-0.9-0.2-1.4-0.2h-0.2c-0.8-0.1-1.5-0.2-2.2-0.2l0,0
				c-0.1,0-0.2,0-0.2,0c0,0,0,0-0.1,0s-0.2,0-0.2,0l0,0c-2.2,0.2-3.3,1.2-3.3,1.2l0,0l0,0l0,0l0,0l0,0h0.1h0.1c0,0,0.1,0,0.1,0.1
				c0.1,0.1,0.2,0.2,0.3,0.2l0.1,0.1c0.3,0.2,0.8,0.6,1.1,1c-0.2,0.6-0.3,1.3-0.4,1.7v0.1c0,0.1,0,0.2,0,0.2c0,0.1,0,0.1,0,0.1l0,0
				v0.1v0.6l0.6-0.2c0.1,0,0.2-0.1,0.2-0.1h0.1c0.1,0,0.1-0.1,0.2-0.1H47c0.1,0,0.2-0.1,0.2-0.1c0,0,0,0,0.1,0s0.1,0,0.2-0.1h0.1
				c0.2,0,0.3-0.1,0.4-0.1c0,0,0,0,0.1,0s0.1,0,0.2,0h0.1c0.1,0,0.2,0,0.2,0l0,0c0.1,0,0.2,0,0.2,0h0.1c0.1,0,0.1,0,0.2,0l0,0
				c0.1,0,0.2,0,0.2,0h0.1h0.1h0.1h0.2h0.1c0.1,0,0.2,0,0.3,0c0.1,0,0.2,0,0.2,0h0.1c0.1,0,0.2,0,0.2,0h0.1c0.1,0,0.2,0,0.2,0
				c0,0,0,0,0.1,0s0.2,0,0.2,0.1h0.1c0.1,0,0.2,0,0.2,0.1h0.1l0.2,0.1h0.1c0.1,0,0.2,0.1,0.2,0.1l0,0c0.1,0,0.2,0.1,0.2,0.1h0.1
				l0.2,0.1h0.1c0.1,0,0.2,0.1,0.2,0.1c0,0,0,0,0.1,0s0.2,0.1,0.3,0.1h0.1c0.1,0,0.2,0.1,0.2,0.1h0.1l0.2,0.1H54l0.2,0.1l0,0
				c0.2,0.1,0.3,0.1,0.5,0.2l0.2,0.1l0.5,0.2c0.1,0,0.2,0,0.2,0.1c0.1,0,0.1,0,0.2,0.1c1.3,0.3,2.5,0.6,3.8,0.6
				c0.9,0,1.7-0.2,2.3-0.7c0.2-0.1,0.2-0.2,0.4-0.3c0.2-0.3,0.5-0.6,0.6-1c0.1-0.1,0.2-0.2,0.3-0.3c0.1-0.1,0.1-0.1,0.2-0.2
				c0.2-0.3,0.5-0.7,0.5-1.4c0-0.3-0.1-0.6-0.2-1c-0.1-0.2-0.2-0.4-0.4-0.6c-0.1-0.1-0.1-0.1-0.2-0.2l4.1-4.1l-1.7-0.2l-0.1-0.4
				c0,0-0.1-0.4-0.2-1l-1.4,1.1c-0.5,0.8-1.1,1.5-1.8,2.2C60.3,163.2,58.9,164,57.3,164.5 M54.1,135.5l-2.6,2.6
				c1.1,0.2,2.2,0.6,3.2,0.9c1.4,0.4,2.5,0.8,3.8,0.9L54.1,135.5z M49.2,143.7c0,0.2,0.1,0.5,0.2,0.7c0.4-0.2,0.8-0.4,1.2-0.5
				C50.1,143.9,49.7,143.8,49.2,143.7 M47.6,162.8c-0.6-0.6-1.3-1.1-1.8-1.8c-0.1,0.2-0.2,0.3-0.4,0.5c-0.4,0.5-1,0.8-1.6,1.1l1,1
				C45.4,163.2,46.3,162.9,47.6,162.8L47.6,162.8z M44.5,145.2l-4.4,4.4l1.9,0.2c0.8,0.1,1.5,0.2,2.1,0.6c0.4-1,0.9-1.9,1.6-2.8
				C45,146.8,44.7,146,44.5,145.2 M54.1,172.9l2.5-2.5l0,0c-1-0.2-2-0.5-3-0.8c-1.3-0.4-2.5-0.7-3.7-0.9L54.1,172.9z M38.3,151.4
				l-2.9,2.9l0.9,0.9c0.1-0.1,0.1-0.2,0.2-0.3l0.4-0.6l1.7,1.7L38.3,151.4z M73.8,154.2l-0.5,0.5l-9.9,9.9c0.2,0.3,0.5,0.9,0.5,1.6
				l0,0c0,0.6-0.2,1.5-1,2.2c-0.2,0.6-0.7,1.2-1.4,1.6c-0.6,0.4-1.5,0.6-2.4,0.6c-0.6,0-1-0.1-1.6-0.1l-2.9,2.9l-0.5,0.5l-0.5-0.5
				l-4.7-4.7c-1.9,0-4,1.1-4,1.1s-0.1-1.9,0.5-3.7c-0.6-0.5-2-1.4-2-1.4s0.2-0.4,0.8-0.9l0,0l-1.1-1.1c-0.2,0.1-0.6,0.2-0.9,0.2
				c-2.9,0.4-5.8-1.6-6.3-4.3c-0.2-1.3-0.1-2.2,0.2-2.9l-1.1-1.1l-0.5-0.5l0.5-0.5l3.3-3.3l-0.1-1.2l1.1,0.2l5.1-5.1
				c0-0.2,0-0.3,0-0.6c-0.1-1.4,0.4-2.7,1.2-3.7c0.6-1.4,2-2.3,3.7-2.3c0.5,0,1,0,1.4,0.1l2.9-2.9l0.5-0.5l0.5,0.5l4.9,4.9
				c0.8,0,1.7-0.2,2.4-0.5l1.5-0.6l-0.1,1.7c0,0.1-0.1,1-0.4,2c0.6,0.6,1.4,1,1.4,1l0.6,0.4l-0.6,0.6c0,0-0.1,0.1-0.2,0.2l9.1,9.1
				L73.8,154.2z"/>
		</g>
		<g>
			<path class="st2" d="M39.5,159.3l-0.6-9.3l3.1,0.4c2.5,0.3,3.5,1.4,3.7,2.7c0.5,2.4-1.8,3-1.8,3s1.9,0.7,1.9,2.8
				c0,1.4-1.2,3.1-3.7,3.4c-2.6,0.4-5.2-1.4-5.7-3.7c-0.3-1.7,0.1-2.8,0.5-3.4l1.5,1.5c-0.9,2.5,1.2,4.1,3.2,3.7
				c1.4-0.2,1.9-1.1,1.9-1.9s-0.4-1.7-1.4-1.8c-0.2-0.1-0.6-0.1-0.6-0.1l-0.1-1.3c0,0,0.4,0,0.6,0c0.7-0.2,1.4-0.8,1.2-1.8
				c-0.2-0.9-0.7-1.4-1.7-1.4c-0.2,0-0.6-0.1-0.8-0.1l0.6,7.8L39.5,159.3z"/>
		</g>
		<g>
			<path class="st2" d="M68.8,155.8c0,0,0.3,2.1-1.5,4.1l-1.8-0.2c0,0-1.1-4.7-2-4.8c-1-0.2-0.6,2.2,0,4.1l-0.5,0.4l-2.2-0.3
				c0,0-0.2,0.3,0.2,1l-1.8-0.2c-0.2-0.6-0.2-1.6,0.4-2.2c-0.2-1.1-0.8-3.5-1.7-3.6c-1-0.2-0.2,2.6,0.4,4.8l-1.8-0.2l-0.2-0.6
				c-0.3,0.4-0.8,0.7-1.5,0.6c-1.3-0.2-2.3-1.4-2.7-2.9c-0.6-1.3-1.4-2.4-2.6-2.5c-2.2-0.2-1.9,2.9-0.6,3.2c0.9,0.1,0.8-1.3-0.3-1.2
				l0.1-1c1.6-0.4,2.4,0.8,2.5,1.7c0.2,1.1-0.7,2.2-2.5,2.1c-3.9-0.5-3.7-6.9,0.9-6.5c1.1,0.2,1.9,0.8,2.5,1.7c0.3-0.7,1-1.2,2.1-1
				c0.8,0.1,1.1,0.6,1.1,0.6l-0.2,1.3c-0.6-0.4-1.5,0-1.1,1.5c0.2,0.6,0.5,1.3,1.1,1.4c1,0.1,0.6-1.4,0.6-1.4
				c-0.3-1.8,0.3-3.2,2.2-2.9c2.3,0.3,3,4.9,3,4.9l0.7,0.1c-0.6-2.6-0.3-4.6,1.5-4.4c2.2,0.3,3.3,5.1,3.3,5.1
				c0.5-0.8,0.6-1.7,0.6-2.3c-0.6-0.2-1.1-0.3-1.5-0.6v-0.2c0-1.4,1.8-2.2,2.7-0.4l0,0c0.8,0.2,1.7,0,1.5-0.6
				c-0.4-2.2-8-1.4-14.7-2.3c-5.6-0.7-10.1-3.4-10.3-7.7c-0.1-1.5,0.4-2.5,1.1-3.3c0.4-1.2,1.7-2,3.2-2c1.8,0,3.6,0.6,5.3,1
				c2.6,0.8,5,1.5,7.6,0.5l0.6-0.2v0.6c0,0.1-0.1,1.2-0.5,2.2c0.6,0.7,1.8,1.4,1.8,1.4s-1.3,1.2-3.8,1.2c-1.9,0-4.1-0.6-6.1-1
				c-2.8-0.8-4.5-1-5.5-1.1c-0.2,3.7,4.3,6.1,9.6,6.7c4.6,0.5,9.4,0.7,11.7,2.2c0.8,0.5,1.4,1.1,1.4,2
				C71.3,155,70.1,155.8,68.8,155.8"/>
		</g>
		<g>
			<path class="st3" d="M50.2,141v0.5c0.2,0,0.4,0,0.6,0.1v-0.2c0.2,0,0.2,0,0.3,0.1l0,0v0.6l0,0c-0.1,0-0.2,0-0.3-0.1v-0.2
				l-0.2,0.2c-0.2,0-0.4-0.1-0.6-0.1c-0.1-0.1-0.2-0.2-0.2-0.2v-0.7c0.1-0.1,0.2-0.2,0.2-0.2c0.3,0,0.4,0,0.7,0.1v-0.5
				c-0.2,0-0.4-0.1-0.6-0.1v0.2c-0.1,0-0.2,0-0.3,0v-0.6c0.1,0,0.2,0,0.3,0v0.2c0.1-0.1,0.1-0.1,0.2-0.2c0.2,0,0.3,0,0.6,0.1
				c0.1,0.1,0.2,0.2,0.2,0.2v0.7c-0.1,0.1-0.2,0.1-0.2,0.2C50.7,141.1,50.5,141.1,50.2,141"/>
		</g>
		<g>
			<path class="st3" d="M54.5,141.3l-0.6-0.2v1.3c0.2,0.1,0.4,0.1,0.6,0.2V141.3z M53.7,142.7c-0.1-0.1-0.2-0.2-0.2-0.3v-1.5
				c0.1-0.1,0.2-0.1,0.2-0.2c0.4,0.1,0.6,0.2,0.9,0.2l0.2,0.3v1.5c-0.1,0.1-0.2,0.1-0.2,0.2C54.3,142.9,54.1,142.8,53.7,142.7"/>
		</g>
		<g>
			<path class="st3" d="M56.3,143h0.2c0-0.5,0-0.8,0-1.3c-0.2-0.1-0.3-0.1-0.6-0.2v1.3c0.1,0,0.1,0,0.2,0v0.3
				c-0.2-0.1-0.5-0.1-0.7-0.2v-0.2c0.1,0,0.1,0,0.2,0.1v-1.4l0.2-0.2c0.3,0.1,0.5,0.2,0.9,0.2l0.2,0.2v1.4c0.1,0,0.1,0,0.2,0v0.3
				c-0.2-0.1-0.5-0.1-0.7-0.2L56.3,143L56.3,143z"/>
		</g>
		<g>
			<path class="st3" d="M51.7,142.1v-0.3c0.1,0,0.2,0,0.2,0.1v-1.3c-0.1,0-0.2,0-0.2-0.1v-0.3c0.6,0.2,0.8,0.2,1.4,0.3v0.6l-0.3-0.1
				v-0.2c-0.2-0.1-0.2-0.1-0.4-0.1v0.6c0.2,0.1,0.3,0.1,0.6,0.2v0.2c-0.2-0.1-0.4-0.1-0.6-0.2v0.6c0.2,0.1,0.2,0.1,0.4,0.1v-0.2
				L53,142v0.6l0,0C52.4,142.3,52.2,142.2,51.7,142.1"/>
		</g>
		<g>
			<path class="st4" d="M46.7,141.1L46.7,141.1l0.1-0.2c0.1-0.4,0.6-1.8,2.5-1.8c1.7,0,3.4,0.5,5,1c2.5,0.7,5,1.5,7.6,0.6
				c-0.1,0.3-0.2,0.9-0.3,1.4c-0.1,0.2-0.1,0.2-0.2,0.4l-0.1,0.2l0.1,0.2c0.2,0.2,0.3,0.3,0.5,0.5c0.1,0.1,0.1,0.1,0.2,0.2l0,0
				c0.1,0.1,0.2,0.2,0.3,0.3l0,0c0.1,0.1,0.1,0.1,0.2,0.2l0,0l0.1,0.1c-2.2,1.1-6.1,0.2-9.3-0.7c-3.3-0.9-6.1-1.6-7.3-0.4l0,0
				c-0.2,0.3-0.4,0.6-0.5,1C45.6,143,45.8,141.9,46.7,141.1"/>
		</g>
		<g>
			<path class="st3" d="M58.7,142.1c-0.2,0-0.3,0-0.5,0v1.3c0.1,0,0.2,0,0.2,0v0.3c-0.3,0-0.6-0.1-0.9-0.1v-0.3c0.1,0,0.2,0,0.2,0
				v-1.2c-0.1,0-0.2,0-0.2,0v-0.3c0.6,0.1,0.9,0.1,1.4,0.1v0.6c-0.1,0-0.2,0-0.3,0V142.1z"/>
		</g>
		<g>
			<path class="st2" d="M56.7,170.4l-2.5,2.5l-4.2-4.2c1.2,0.2,2.5,0.5,3.7,0.9C54.6,169.9,55.6,170.2,56.7,170.4"/>
		</g>
		<g>
			<path class="st2" d="M43.8,162.5c0.6-0.2,1.1-0.6,1.6-1.1c0.2-0.2,0.2-0.3,0.4-0.5c0.2,0.2,0.4,0.4,0.6,0.6
				c0.4,0.4,0.8,0.8,1.3,1.1c-1.3,0.1-2.2,0.4-2.8,0.7L43.8,162.5z"/>
		</g>
		<g>
			<path class="st2" d="M62.6,164.4c0,0,0.1,0.1,0.2,0.2l0.1,0.1l0,0c0,0,0,0,0,0.1l0,0v0.1l0,0v0.1l0,0v0.1l0,0v0.1l0,0v0.1l0,0
				c0,0,0,0.1,0.1,0.1c0.2,0.3,0.2,0.6,0.2,1c0,0.6-0.2,1-0.5,1.4c-0.1,0.1-0.1,0.2-0.2,0.2c-0.1,0.1-0.2,0.2-0.3,0.3
				c-0.1,0.4-0.3,0.7-0.6,1c-0.1,0.1-0.2,0.2-0.4,0.3c-0.6,0.4-1.4,0.7-2.3,0.7c-1.3,0-2.5-0.2-3.8-0.6c-0.1,0-0.1,0-0.2-0.1
				c-0.1,0-0.2,0-0.2-0.1c-0.2-0.1-0.3-0.1-0.5-0.2l-0.2-0.1c-0.2-0.1-0.3-0.1-0.5-0.2l0,0l-0.2-0.1h-0.1c-0.1,0-0.2,0-0.2-0.1h-0.1
				l-0.2-0.1h-0.1c-0.1,0-0.2-0.1-0.3-0.1c0,0,0,0-0.1,0s-0.2-0.1-0.2-0.1h-0.1l-0.2-0.1h-0.1c-0.1,0-0.2-0.1-0.2-0.1l0,0
				c-0.1,0-0.2-0.1-0.2-0.1h-0.1l-0.2-0.1h-0.1c-0.1,0-0.2,0-0.2-0.1h-0.1c-0.1,0-0.2,0-0.2-0.1h-0.1c-0.1,0-0.2,0-0.2,0h-0.1
				c-0.1,0-0.2,0-0.2,0c-0.1,0-0.2,0-0.3,0h-0.1c-0.1,0-0.2,0-0.2,0h-0.1c-0.1,0-0.2,0-0.2,0h-0.1h-0.1h-0.1c-0.1,0-0.2,0-0.2,0l0,0
				h-0.2H48c-0.1,0-0.2,0-0.2,0l0,0c-0.1,0-0.2,0-0.2,0c0,0,0,0-0.1,0s-0.1,0-0.2,0c-0.1,0-0.2,0-0.2,0.1l0,0c-0.1,0-0.2,0-0.2,0.1
				h-0.1c-0.1,0-0.1,0-0.2,0.1c0,0,0,0-0.1,0s-0.2,0.1-0.2,0.1c0,0,0,0-0.1,0s-0.1,0-0.2,0.1h-0.1c-0.1,0-0.2,0.1-0.2,0.1l-0.6,0.2
				v-0.6V168l0,0V168v-0.2v-0.1c0.1-0.4,0.2-1,0.4-1.7c-0.3-0.3-0.7-0.7-1.1-1l-0.1-0.1c-0.2-0.1-0.2-0.2-0.4-0.2c0,0,0,0-0.1,0
				h-0.1l0,0l0,0l0,0l0,0l0,0c0,0,1.1-1,3.3-1.2l0,0c0.1,0,0.2,0,0.2,0h0.1c0.1,0,0.2,0,0.2,0l0,0c0.7,0,1.4,0.1,2.2,0.2h0.2
				c0.6,0.1,1,0.2,1.6,0.3c0.4,0.1,0.8,0.2,1.2,0.3c0.2,0.1,0.5,0.1,0.7,0.2h0.1h0.2c3.5,1,4.6,1.1,5.3,1.2c0.2,0,0.2,0,0.3,0.1
				c1.4,0.2,1.8-0.4,1.8-0.6l0,0c0,0-0.5,0.2-1.9,0l0,0c-0.6-0.1-1.4-0.2-2.5-0.5c1.6-0.5,3-1.4,4.3-2.5c0.6-0.6,1.3-1.4,1.8-2.2
				l1.4-1.1c0.2,0.6,0.2,1,0.2,1l0.1,0.4l1.7,0.2L62.6,164.4z"/>
		</g>
		<g>
			<path class="st3" d="M50.2,141v0.5c0.2,0,0.4,0,0.6,0.1v-0.2c0.2,0,0.2,0,0.3,0.1l0,0v0.6l0,0c-0.1,0-0.2,0-0.3-0.1v-0.2
				l-0.2,0.2c-0.2,0-0.4-0.1-0.6-0.1c-0.1-0.1-0.2-0.2-0.2-0.2v-0.7c0.1-0.1,0.2-0.2,0.2-0.2c0.3,0,0.4,0,0.7,0.1v-0.5
				c-0.2,0-0.4-0.1-0.6-0.1v0.2c-0.1,0-0.2,0-0.3,0v-0.6c0.1,0,0.2,0,0.3,0v0.2c0.1-0.1,0.1-0.1,0.2-0.2c0.2,0,0.3,0,0.6,0.1
				c0.1,0.1,0.2,0.2,0.2,0.2v0.7c-0.1,0.1-0.2,0.1-0.2,0.2C50.7,141.1,50.5,141.1,50.2,141"/>
		</g>
		<g>
			<path class="st3" d="M54.5,141.3l-0.6-0.2v1.3c0.2,0.1,0.4,0.1,0.6,0.2V141.3z M53.7,142.7c-0.1-0.1-0.2-0.2-0.2-0.3v-1.5
				c0.1-0.1,0.2-0.1,0.2-0.2c0.4,0.1,0.6,0.2,0.9,0.2l0.2,0.3v1.5c-0.1,0.1-0.2,0.1-0.2,0.2C54.3,142.9,54.1,142.8,53.7,142.7"/>
		</g>
		<g>
			<path class="st3" d="M56.3,143h0.2c0-0.5,0-0.8,0-1.3c-0.2-0.1-0.3-0.1-0.6-0.2v1.3c0.1,0,0.1,0,0.2,0v0.3
				c-0.2-0.1-0.5-0.1-0.7-0.2v-0.2c0.1,0,0.1,0,0.2,0.1v-1.4l0.2-0.2c0.3,0.1,0.5,0.2,0.9,0.2l0.2,0.2v1.4c0.1,0,0.1,0,0.2,0v0.3
				c-0.2-0.1-0.5-0.1-0.7-0.2L56.3,143L56.3,143z"/>
		</g>
		<g>
			<path class="st3" d="M51.7,142.1v-0.3c0.1,0,0.2,0,0.2,0.1v-1.3c-0.1,0-0.2,0-0.2-0.1v-0.3c0.6,0.2,0.8,0.2,1.4,0.3v0.6l-0.3-0.1
				v-0.2c-0.2-0.1-0.2-0.1-0.4-0.1v0.6c0.2,0.1,0.3,0.1,0.6,0.2v0.2c-0.2-0.1-0.4-0.1-0.6-0.2v0.6c0.2,0.1,0.2,0.1,0.4,0.1v-0.2
				L53,142v0.6l0,0C52.4,142.3,52.2,142.2,51.7,142.1"/>
		</g>
		<g>
			<path class="st3" d="M58.7,142.1c-0.2,0-0.3,0-0.5,0v1.3c0.1,0,0.2,0,0.2,0v0.3c-0.3,0-0.6-0.1-0.9-0.1v-0.3c0.1,0,0.2,0,0.2,0
				v-1.2c-0.1,0-0.2,0-0.2,0v-0.3c0.6,0.1,0.9,0.1,1.4,0.1v0.6c-0.1,0-0.2,0-0.3,0V142.1z"/>
		</g>
		<g>
			<path class="st4" d="M54.4,165.2c0.3,0.1,0.6,0.2,0.9,0.2l0.6,0.2c2.1,0.6,3.9,1,5.2,0.9c0.8-0.1,1.1-0.6,1.2-1
				c0.2,0.2,0.2,0.5,0.2,0.8c0,0.6-0.3,1-0.8,1.4l-0.1,0.1v0.1c0,0.2-0.1,0.2-0.2,0.4c-0.4,0.8-1.4,1.3-2.5,1.3c-1.7,0-3.4-0.5-5-1
				c-2.5-0.7-5-1.5-7.7-0.6c0.1-0.3,0.2-0.9,0.3-1.4c0.1-0.2,0.1-0.3,0.2-0.4l0.1-0.2l-0.1-0.2c-0.2-0.2-0.3-0.3-0.5-0.5
				c-0.1-0.1-0.1-0.1-0.2-0.2l0,0c-0.1-0.1-0.2-0.2-0.3-0.3l0,0c-0.1-0.1-0.1-0.1-0.2-0.2l0,0l-0.1-0.1
				C47.8,163.4,51.2,164.3,54.4,165.2"/>
		</g>
		<g>
			<path class="st3" d="M49.3,165.2c-0.2,0-0.3,0-0.5,0v1.3c0.2,0,0.3,0,0.5,0V165.2z M49.7,165.1v1.5c-0.1,0.1-0.2,0.1-0.2,0.2
				c-0.5-0.1-0.7-0.1-1.3-0.1v-0.3c0.1,0,0.2,0,0.2,0v-1.3c-0.1,0-0.2,0-0.2,0v-0.3c0.5,0,0.7,0,1.3,0.1
				C49.5,164.9,49.6,164.9,49.7,165.1"/>
		</g>
		<g>
			<path class="st3" d="M50.5,166.6c0.2,0.1,0.4,0.1,0.6,0.2v-1.3c-0.2-0.1-0.4-0.1-0.6-0.1V166.6z M51.3,165.1
				c0.1,0.1,0.2,0.2,0.2,0.2v1.5c-0.1,0.1-0.2,0.1-0.2,0.2c-0.3-0.1-0.6-0.2-0.9-0.2l-0.2-0.2v-1.5c0.1-0.1,0.2-0.1,0.2-0.2
				C50.8,165,50.9,165,51.3,165.1"/>
		</g>
		<g>
			<path class="st3" d="M52.4,167c0.2,0.1,0.4,0.1,0.6,0.2v-1.4c-0.2-0.1-0.4-0.1-0.6-0.2V167z M53.2,165.6l0.2,0.3v1.6
				c-0.1,0.1-0.2,0.1-0.2,0.2c-0.4-0.1-0.6-0.2-0.9-0.2l-0.2-0.2v-1.5l0.2-0.2C52.7,165.4,52.8,165.4,53.2,165.6"/>
		</g>
		<g>
			<path class="st3" d="M56.5,167.1l0.2,0.7l0.2-0.6C56.7,167.2,56.6,167.2,56.5,167.1z M57,166.5c0.2,0.1,0.2,0.1,0.5,0.1v0.3h-0.2
				c-0.2,0.6-0.3,1-0.5,1.6h-0.1l-0.3-0.1l-0.3-0.1V168l0.2,0.1c-0.2-0.5-0.2-1-0.4-1.4l-0.2-0.1v-0.3c0.2,0.1,0.2,0.1,0.5,0.1l0,0
				l0,0l0.2,0.4c0.2,0.1,0.3,0.1,0.5,0.1C56.9,166.8,57,166.7,57,166.5L57,166.5z"/>
		</g>
		<g>
			<path class="st3" d="M59.6,168.4v0.3c-0.3,0-0.5,0-0.7,0v-0.3c0.1,0,0.2,0,0.2,0v-0.8c-0.2,0.5-0.3,0.6-0.6,1.1
				c-0.2,0-0.3,0-0.6-0.1v-0.3c0.1,0,0.2,0,0.2,0c0-0.6,0-0.8,0-1.3c-0.1,0-0.2,0-0.2,0v-0.3c0.3,0.1,0.5,0.1,0.7,0.1v0.3
				c-0.1,0-0.1,0-0.2,0v0.9c0.2-0.5,0.3-0.6,0.6-1.1c0.2,0,0.3,0,0.6,0.1v0.3h-0.2v1.3C59.5,168.4,59.5,168.4,59.6,168.4"/>
		</g>
		<g>
			<path class="st3" d="M54.4,167v0.5c0.2,0.1,0.4,0.1,0.6,0.2v-0.2c0.1,0,0.2,0.1,0.3,0.1l0,0v0.6l0,0c-0.2,0-0.2-0.1-0.3-0.1v-0.2
				c-0.1,0.1-0.1,0.1-0.2,0.2c-0.2-0.1-0.3-0.1-0.6-0.2l-0.3-0.2c0-0.3,0-0.4,0-0.7c0.1-0.1,0.2-0.1,0.2-0.2l0.7,0.2v-0.5
				c-0.2-0.1-0.4-0.1-0.6-0.2v0.2l-0.3-0.1v-0.6l0.3,0.1c0,0.1,0,0.1,0,0.2c0.1-0.1,0.1-0.1,0.2-0.2c0.2,0.1,0.3,0.1,0.6,0.2
				l0.2,0.3v0.7l-0.2,0.2C54.8,167.2,54.7,167.1,54.4,167"/>
		</g>
		<g>
			<path class="st4" d="M37.7,154.2l0.9,0.9l0.1,0.8l-1.7-1.7l1.4-1.4l0.1,0.7L37.7,154.2z"/>
		</g>
		<g>
			<path class="st4" d="M54.1,137.8l-0.8,0.8c-0.2-0.1-0.4-0.1-0.6-0.2l1.4-1.4l2.5,2.5c-0.3-0.1-0.7-0.2-1-0.3L54.1,137.8z"/>
		</g>
		<g>
			<path class="st4" d="M66.5,150.1l-4.5-4.5c0.2-0.1,0.4-0.1,0.6-0.2l4.9,4.9C67.1,150.3,66.8,150.2,66.5,150.1"/>
		</g>
		<g>
			<path class="st4" d="M42.1,149.8L42.1,149.8l-0.6-0.1l3.4-3.4c0.1,0.2,0.2,0.3,0.2,0.5L42.1,149.8z"/>
		</g>
		<g>
			<path class="st4" d="M52.8,169.4l1.3,1.3l0.7-0.7c0.2,0.1,0.4,0.1,0.6,0.2l-1.3,1.3l-2.3-2.3C52.1,169.1,52.5,169.2,52.8,169.4"
				/>
		</g>
		<g>
			<path class="st4" d="M60.4,165.1c-0.2,0-0.4-0.1-0.6-0.1l0,0l5.2-5.2l0.1,0.3l0.3,0.1L60.4,165.1z"/>
		</g>
		<g>
			<path class="st4" d="M45.8,163.1l-1.1-1c0.2-0.1,0.3-0.2,0.4-0.3l1.3,1.3C46.2,162.9,46,163,45.8,163.1"/>
		</g>
		<g>
			<path class="st4" d="M59.1,160.9c0.1,0.2,0.2,0.2,0.2,0.4s0.2,0.2,0.2,0.4c-0.1,0-0.2-0.1-0.2-0.1s-0.2-0.1-0.2-0.1
				c-0.1-0.2-0.2-0.2-0.2-0.4s-0.2-0.2-0.2-0.4c0.1,0,0.2,0,0.2,0.1C59,160.9,59.1,160.9,59.1,160.9"/>
		</g>
		<g>
			<path class="st4" d="M59.4,161c0.2-0.1,0.2-0.2,0.4-0.2c0.2-0.1,0.3-0.2,0.4-0.2l-0.2-0.1l-0.2-0.1c-0.3,0.2-0.6,0.3-0.8,0.5h0.2
				h0.2C59.2,160.9,59.3,161,59.4,161"/>
		</g>
		<g>
			<path class="st4" d="M60.5,161.3c0.1,0.2,0.1,0.3,0.2,0.4c0.1,0.2,0.1,0.3,0.2,0.4c-0.1,0-0.2-0.1-0.2-0.1s-0.2-0.1-0.2-0.1
				c-0.1-0.2-0.1-0.2-0.2-0.4c-0.1-0.2-0.2-0.2-0.2-0.4c0.1,0,0.2,0.1,0.2,0.1C60.3,161.3,60.3,161.3,60.5,161.3"/>
		</g>
		<g>
			<path class="st4" d="M60.7,161.4c0.2-0.1,0.2-0.2,0.4-0.2c0.2-0.1,0.3-0.1,0.5-0.2c-0.1-0.1-0.2-0.1-0.2-0.2l-0.2-0.1
				c-0.3,0.2-0.6,0.2-0.9,0.4h0.2l0.2,0.1C60.5,161.4,60.6,161.4,60.7,161.4"/>
		</g>
		<g>
			<path class="st4" d="M57.8,160.8c0.2,0.2,0.4,0.5,0.6,0.7c-0.1,0-0.2,0-0.2,0H58h-0.1c-0.2-0.2-0.4-0.5-0.6-0.6
				c0.1,0,0.2,0,0.2,0L57.8,160.8z"/>
		</g>
		<g>
			<path class="st4" d="M58,160.8c0.2-0.2,0.5-0.4,0.7-0.6h-0.2h-0.2h-0.2h-0.2c-0.2,0.2-0.5,0.4-0.6,0.6c0.1,0,0.2,0,0.2,0
				C57.9,160.8,57.9,160.8,58,160.8"/>
		</g>
		<g>
			<path class="st4" d="M56.4,160.9c0.2,0.2,0.5,0.4,0.6,0.6c-0.2,0-0.3,0-0.5,0.1c-0.2-0.2-0.5-0.4-0.7-0.6
				C56.1,160.9,56.3,160.9,56.4,160.9"/>
		</g>
		<g>
			<path class="st4" d="M56.7,160.9c0.2-0.2,0.4-0.5,0.6-0.7c-0.2,0-0.4,0-0.6,0.1c-0.2,0.2-0.4,0.5-0.6,0.7
				C56.4,160.9,56.5,160.9,56.7,160.9"/>
		</g>
		<g>
			<path class="st4" d="M55.1,161.1c0.2,0.2,0.5,0.3,0.7,0.6c-0.2,0-0.3,0.1-0.5,0.1c-0.2-0.2-0.5-0.3-0.7-0.6
				C54.8,161.2,54.9,161.2,55.1,161.1"/>
		</g>
		<g>
			<path class="st4" d="M55.3,161.1c0.2-0.2,0.3-0.6,0.5-0.8c-0.2,0-0.3,0.1-0.6,0.1c-0.2,0.2-0.3,0.6-0.5,0.8
				C55,161.2,55.2,161.1,55.3,161.1"/>
		</g>
		<g>
			<path class="st4" d="M53.7,161.4l0.8,0.6l-0.5,0.1c-0.2-0.2-0.5-0.3-0.8-0.6C53.4,161.5,53.6,161.5,53.7,161.4"/>
		</g>
		<g>
			<path class="st4" d="M54,161.4l0.5-0.8l-0.5,0.1c-0.2,0.2-0.3,0.6-0.5,0.8L54,161.4z"/>
		</g>
		<g>
			<path class="st4" d="M52.4,161.7c0.2,0.2,0.5,0.4,0.7,0.6c-0.2,0-0.3,0.1-0.6,0.1c-0.2-0.2-0.5-0.4-0.7-0.6
				C52,161.7,52.2,161.7,52.4,161.7"/>
		</g>
		<g>
			<path class="st4" d="M52.6,161.7c0.2-0.2,0.3-0.5,0.5-0.8c-0.2,0-0.3,0.1-0.5,0.1c-0.2,0.2-0.3,0.5-0.5,0.8h0.2L52.6,161.7z"/>
		</g>
		<g>
			<path class="st4" d="M51,161.8c0.2,0.2,0.5,0.4,0.7,0.6h-0.2h-0.3c-0.2-0.2-0.3-0.3-0.5-0.5c-0.1-0.1-0.1-0.1-0.2-0.2
				c0.1,0,0.2,0,0.2,0H51L51,161.8z"/>
		</g>
		<g>
			<path class="st4" d="M51.3,161.8c0.2-0.2,0.4-0.5,0.6-0.7h-0.2c-0.1,0-0.2,0-0.2,0c-0.2,0.2-0.4,0.5-0.6,0.7
				C50.9,161.8,51.1,161.8,51.3,161.8"/>
		</g>
		<g>
			<path class="st4" d="M49.7,161.7c0.1,0.2,0.2,0.2,0.2,0.4s0.2,0.2,0.3,0.4c-0.1,0-0.2,0-0.3,0c-0.1,0-0.2,0-0.3,0
				c-0.1-0.2-0.2-0.2-0.2-0.4s-0.2-0.2-0.2-0.4C49.3,161.7,49.5,161.7,49.7,161.7"/>
		</g>
		<g>
			<path class="st4" d="M49.9,161.8c0.1-0.1,0.2-0.2,0.3-0.3c0.1-0.1,0.2-0.2,0.3-0.3c-0.2,0-0.3,0-0.5,0c-0.1,0.1-0.2,0.2-0.3,0.3
				c-0.1,0.1-0.2,0.2-0.3,0.2C49.6,161.7,49.7,161.7,49.9,161.8"/>
		</g>
		<g>
			<path class="st4" d="M48.4,161.4c0.1,0.3,0.2,0.6,0.4,0.9c-0.1,0-0.2-0.1-0.2-0.1s-0.2-0.1-0.2-0.1c-0.2-0.3-0.2-0.6-0.3-0.9
				c0.1,0,0.2,0.1,0.2,0.1L48.4,161.4L48.4,161.4z"/>
		</g>
		<g>
			<path class="st4" d="M48.5,161.5c0.1,0,0.2-0.1,0.2-0.1c0.1,0,0.2-0.1,0.2-0.1c0.2-0.1,0.2-0.2,0.4-0.2c-0.2,0-0.3-0.1-0.5-0.2
				c-0.2,0.1-0.4,0.2-0.6,0.3c-0.1,0-0.2,0.1-0.2,0.1c0.1,0,0.2,0.1,0.2,0.1C48.4,161.4,48.5,161.4,48.5,161.5"/>
		</g>
		<g>
			<path class="st4" d="M47.1,160.8c0.1,0.3,0.2,0.6,0.2,0.9c-0.2-0.2-0.6-0.6-0.6-0.6c0-0.2,0-0.1-0.1-0.2c0-0.2-0.1-0.3-0.1-0.5
				l0.2,0.2C47,160.7,47,160.7,47.1,160.8"/>
		</g>
		<g>
			<path class="st4" d="M47.3,160.9c0.1,0,0.2-0.1,0.2-0.1s0.2-0.1,0.2-0.1s0.2-0.1,0.2-0.1s0.2-0.1,0.2-0.1
				c-0.2-0.1-0.3-0.2-0.4-0.2c-0.2,0.1-0.6,0.2-0.9,0.2c0.1,0.1,0.2,0.1,0.2,0.2L47.3,160.9L47.3,160.9z"/>
		</g>
		<g>
			<path class="st4" d="M50.9,146c-0.2-0.2-0.4-0.5-0.6-0.7h0.2h0.2h0.2h0.2c0.2,0.2,0.4,0.5,0.6,0.8c-0.1,0-0.2,0-0.2-0.1
				C51,146,50.9,146,50.9,146"/>
		</g>
		<g>
			<path class="st4" d="M52.4,146.4c-0.2,0.2-0.6,0.3-0.8,0.5c0.2,0.1,0.3,0.1,0.5,0.2c0.2-0.2,0.6-0.3,0.8-0.5
				C52.8,146.5,52.6,146.4,52.4,146.4"/>
		</g>
		<g>
			<path class="st4" d="M52.2,146.4c-0.2-0.3-0.3-0.6-0.5-0.8c0.2,0.1,0.4,0.1,0.6,0.2c0.2,0.3,0.3,0.6,0.4,0.9
				C52.5,146.4,52.4,146.4,52.2,146.4"/>
		</g>
		<g>
			<path class="st4" d="M53.7,146.9c-0.3,0.2-0.6,0.2-0.8,0.4c0.2,0.1,0.3,0.2,0.5,0.2c0.2-0.2,0.6-0.2,0.9-0.4
				C54,147,53.9,147,53.7,146.9"/>
		</g>
		<g>
			<path class="st4" d="M53.5,146.8c-0.1-0.3-0.2-0.6-0.3-0.9c0.2,0.1,0.3,0.2,0.5,0.2c0.1,0.3,0.2,0.6,0.3,0.9
				C53.8,146.9,53.6,146.9,53.5,146.8"/>
		</g>
		<g>
			<path class="st4" d="M55,147.5l-0.9,0.4l0.5,0.2c0.3-0.2,0.6-0.2,0.9-0.4C55.3,147.6,55.2,147.5,55,147.5"/>
		</g>
		<g>
			<path class="st4" d="M54.8,147.3l-0.3-0.9l0.5,0.2c0.1,0.3,0.2,0.6,0.3,0.9L54.8,147.3z"/>
		</g>
		<g>
			<path class="st4" d="M56.3,148c-0.2,0.2-0.6,0.3-0.9,0.4c0.2,0.1,0.3,0.2,0.5,0.2c0.3-0.2,0.6-0.3,0.8-0.4
				C56.6,148,56.4,148,56.3,148"/>
		</g>
		<g>
			<path class="st4" d="M56,147.9c-0.1-0.3-0.2-0.6-0.3-0.9c0.2,0.1,0.3,0.2,0.5,0.2c0.1,0.3,0.2,0.6,0.3,0.9l-0.2-0.1L56,147.9z"/>
		</g>
		<g>
			<path class="st4" d="M57.6,148.4c-0.2,0.2-0.6,0.3-0.8,0.5l0.2,0.1l0.2,0.1c0.2-0.1,0.2-0.2,0.4-0.2c0.1-0.1,0.2-0.1,0.2-0.2
				c0.1-0.1,0.2-0.1,0.2-0.2c-0.1,0-0.2,0-0.2-0.1L57.6,148.4L57.6,148.4z"/>
		</g>
		<g>
			<path class="st4" d="M57.4,148.3c-0.2-0.2-0.3-0.6-0.4-0.8l0.2,0.1c0.1,0,0.2,0.1,0.2,0.1c0.2,0.2,0.3,0.6,0.5,0.8
				C57.7,148.4,57.5,148.4,57.4,148.3"/>
		</g>
		<g>
			<path class="st4" d="M59,148.5c-0.1,0.1-0.2,0.2-0.3,0.3c-0.1,0.1-0.2,0.2-0.4,0.3c0.1,0,0.2,0,0.3,0c0.1,0,0.2,0,0.3,0
				c0.2-0.2,0.5-0.5,0.6-0.7C59.3,148.5,59.1,148.5,59,148.5"/>
		</g>
		<g>
			<path class="st4" d="M58.7,148.5c-0.1-0.1-0.2-0.2-0.3-0.4c-0.1-0.2-0.2-0.2-0.2-0.4c0.2,0,0.3,0.1,0.5,0.1
				c0.2,0.2,0.4,0.5,0.6,0.7C59.1,148.5,58.9,148.5,58.7,148.5"/>
		</g>
		<g>
			<path class="st4" d="M60.3,148.4c-0.2,0.2-0.3,0.6-0.6,0.8c0.1,0,0.2,0,0.3,0c0.1,0,0.2,0,0.3-0.1c0.2-0.2,0.3-0.6,0.5-0.8
				c-0.1,0-0.2,0.1-0.2,0.1h-0.2H60.3z"/>
		</g>
		<g>
			<path class="st4" d="M60.2,148.4c-0.1-0.1-0.2-0.1-0.2-0.2c-0.1-0.1-0.1-0.1-0.2-0.2c-0.1-0.1-0.2-0.2-0.3-0.3
				c0.2,0,0.3,0,0.5-0.1c0.2,0.2,0.3,0.3,0.6,0.4c0.1,0.1,0.2,0.1,0.2,0.2c-0.1,0-0.2,0.1-0.2,0.1C60.3,148.4,60.3,148.4,60.2,148.4
				"/>
		</g>
		<g>
			<path class="st4" d="M61.7,148c-0.1,0.3-0.2,0.6-0.4,0.9c0.1,0,0.2-0.1,0.2-0.1l0.2-0.1c0.1-0.2,0.2-0.3,0.2-0.5
				c0.1-0.2,0.1-0.3,0.2-0.5l-0.2,0.1C61.8,148,61.8,148,61.7,148"/>
		</g>
		<g>
			<path class="st4" d="M61.5,148.1c-0.1,0-0.2-0.1-0.2-0.1S61.1,148,61,148s-0.2-0.1-0.2-0.1c-0.1-0.1-0.2-0.1-0.2-0.2
				c0.2-0.1,0.3-0.1,0.5-0.2c0.2,0.2,0.6,0.3,0.8,0.4c-0.1,0-0.2,0.1-0.2,0.1L61.5,148.1L61.5,148.1z"/>
		</g>
		<g>
			<path class="st4" d="M51,146.6c-0.1-0.1-0.2-0.2-0.3-0.2c0.1-0.1,0.2-0.2,0.3-0.2l0.2,0.1c0.1,0,0.2,0,0.2,0.1
				C51.4,146.3,51.2,146.4,51,146.6"/>
		</g>
	</g>
</g>
</svg>
