<?xml version="1.0" encoding="utf-8"?>
<!-- Generator: Adobe Illustrator 25.1.0, SVG Export Plug-In . SVG Version: 6.00 Build 0)  -->
<svg version="1.1" id="Layer_1" xmlns="http://www.w3.org/2000/svg" xmlns:xlink="http://www.w3.org/1999/xlink" x="0px" y="0px"
	 viewBox="0 0 250 250" style="enable-background:new 0 0 250 250;" xml:space="preserve">
<style type="text/css">
	.st0{fill:none;}
	.st1{clip-path:url(#SVGID_2_);}
	.st2{fill:#FC4E00;}
	.st3{clip-path:url(#SVGID_4_);}
	.st4{fill:#FFFFFF;}
	.st5{clip-path:url(#SVGID_6_);}
	.st6{clip-path:url(#SVGID_8_);}
	.st7{fill:#F3F3F4;}
	.st8{clip-path:url(#SVGID_10_);}
	.st9{clip-path:url(#SVGID_12_);}
	.st10{clip-path:url(#SVGID_14_);}
	.st11{clip-path:url(#SVGID_16_);}
	.st12{clip-path:url(#SVGID_18_);}
	.st13{clip-path:url(#SVGID_20_);}
	.st14{clip-path:url(#SVGID_22_);}
	.st15{clip-path:url(#SVGID_24_);}
	.st16{clip-path:url(#SVGID_26_);}
	.st17{clip-path:url(#SVGID_28_);}
	.st18{clip-path:url(#SVGID_30_);}
	.st19{clip-path:url(#SVGID_32_);}
	.st20{clip-path:url(#SVGID_34_);}
	.st21{clip-path:url(#SVGID_36_);}
	.st22{clip-path:url(#SVGID_38_);}
	.st23{clip-path:url(#SVGID_40_);}
	.st24{clip-path:url(#SVGID_42_);}
	.st25{clip-path:url(#SVGID_44_);}
	.st26{clip-path:url(#SVGID_46_);}
	.st27{fill:#EBBC95;}
	.st28{clip-path:url(#SVGID_48_);}
	.st29{clip-path:url(#SVGID_50_);}
	.st30{clip-path:url(#SVGID_52_);}
	.st31{clip-path:url(#SVGID_54_);}
	.st32{clip-path:url(#SVGID_56_);}
	.st33{clip-path:url(#SVGID_58_);}
	.st34{clip-path:url(#SVGID_60_);}
	.st35{clip-path:url(#SVGID_62_);}
	.st36{clip-path:url(#SVGID_64_);}
	.st37{clip-path:url(#SVGID_66_);}
	.st38{clip-path:url(#SVGID_68_);}
	.st39{clip-path:url(#SVGID_70_);}
	.st40{clip-path:url(#SVGID_72_);}
	.st41{clip-path:url(#SVGID_74_);}
	.st42{clip-path:url(#SVGID_76_);}
	.st43{clip-path:url(#SVGID_78_);}
	.st44{clip-path:url(#SVGID_80_);}
	.st45{clip-path:url(#SVGID_82_);}
	.st46{clip-path:url(#SVGID_84_);}
	.st47{clip-path:url(#SVGID_86_);}
	.st48{clip-path:url(#SVGID_88_);}
	.st49{clip-path:url(#SVGID_90_);}
	.st50{clip-path:url(#SVGID_92_);}
	.st51{clip-path:url(#SVGID_94_);}
	.st52{fill:#07111F;}
	.st53{display:none;fill:none;}
</style>
<g id="Layer_1_1_">
	<rect x="15.4" y="15.4" class="st0" width="219.2" height="219.2"/>
	<g>
		<g>
			<g>
				<defs>
					<rect id="SVGID_1_" x="15.4" y="30.9" width="219.2" height="188.1"/>
				</defs>
				<clipPath id="SVGID_2_">
					<use xlink:href="#SVGID_1_"  style="overflow:visible;"/>
				</clipPath>
				<g class="st1">
					<path class="st2" d="M124.9,33.1c-50.4,0-91.3,40.8-91.3,91.3s40.8,91.3,91.3,91.3s91.3-40.8,91.3-91.3
						C216.3,73.9,175.3,33.1,124.9,33.1"/>
				</g>
			</g>
		</g>
		<g>
			<g>
				<defs>
					<rect id="SVGID_3_" x="15.4" y="30.9" width="219.2" height="188.1"/>
				</defs>
				<clipPath id="SVGID_4_">
					<use xlink:href="#SVGID_3_"  style="overflow:visible;"/>
				</clipPath>
				<g class="st3">
					<path class="st4" d="M124.9,35.2c-49.1,0-89.1,40-89.1,89.1s40,89.1,89.1,89.1s89.1-40,89.1-89.1S174.1,35.2,124.9,35.2
						 M124.9,217.8c-51.5,0-93.4-41.9-93.4-93.4s41.9-93.5,93.4-93.5s93.5,41.9,93.5,93.5S176.4,217.8,124.9,217.8"/>
				</g>
			</g>
		</g>
		<g>
			<g>
				<defs>
					<rect id="SVGID_5_" x="15.4" y="30.9" width="219.2" height="188.1"/>
				</defs>
				<clipPath id="SVGID_6_">
					<use xlink:href="#SVGID_5_"  style="overflow:visible;"/>
				</clipPath>
				<g class="st5">
					<path class="st2" d="M124.9,33.1c-50.4,0-91.3,40.8-91.3,91.3s40.8,91.3,91.3,91.3s91.3-40.8,91.3-91.3
						C216.3,73.9,175.3,33.1,124.9,33.1"/>
				</g>
			</g>
		</g>
		<g>
			<g>
				<defs>
					<rect id="SVGID_7_" x="15.4" y="30.9" width="219.2" height="188.1"/>
				</defs>
				<clipPath id="SVGID_8_">
					<use xlink:href="#SVGID_7_"  style="overflow:visible;"/>
				</clipPath>
				<g class="st6">
					<path class="st7" d="M86.2,187.6c0.9,0.6,1.6,0.6,2.1-0.1l0.5-0.7c0.5-0.7,0.2-1.3-0.7-2l-3.9-2.5l-1.8,2.7L86.2,187.6z
						 M85.4,188.8l-3.9-2.5l-1.8,2.7l3.9,2.5c0.9,0.6,1.6,0.6,2.1-0.1l0.5-0.7C86.5,190.1,86.3,189.5,85.4,188.8 M87.8,189.6
						c0.3,0.7,0.2,1.4-0.3,2.1l-0.5,0.7c-0.5,0.7-1,1-1.8,1.1c-0.7,0.1-1.5-0.2-2.4-0.7l-5.5-3.6l6.1-9.3l5.5,3.6
						c0.9,0.6,1.5,1.2,1.7,2c0.2,0.7,0.1,1.4-0.4,2.1l-0.6,0.8C89.2,189.2,88.6,189.6,87.8,189.6"/>
				</g>
			</g>
		</g>
		<g>
			<g>
				<defs>
					<rect id="SVGID_9_" x="15.4" y="30.9" width="219.2" height="188.1"/>
				</defs>
				<clipPath id="SVGID_10_">
					<use xlink:href="#SVGID_9_"  style="overflow:visible;"/>
				</clipPath>
				<g class="st8">
					<path class="st7" d="M94.7,194.6l-2.5-1.1c-0.8-0.4-1.4-0.2-1.7,0.5l-0.1,0.3c-0.3,0.7-0.1,1.2,0.7,1.6l2.5,1.1
						c0.8,0.4,1.4,0.2,1.7-0.5l0.1-0.3C95.9,195.5,95.6,195,94.7,194.6 M90.2,197c-0.7-0.4-1.2-0.8-1.5-1.4
						c-0.3-0.7-0.2-1.2,0.1-1.9l0.3-0.6c0.3-0.7,0.7-1.1,1.4-1.3c0.7-0.2,1.3-0.2,2.1,0.2l4.1,1.9l0,0c0.4-0.8,0.1-1.4-0.7-1.8
						l-4.6-2.1l0.7-1.3l4.5,2.1c0.9,0.5,1.6,1,1.9,1.7c0.3,0.7,0.3,1.5-0.2,2.3l-1.2,2.6c-0.3,0.7-0.7,1.1-1.4,1.3
						c-0.6,0.2-1.2,0.1-2.1-0.3L90.2,197z"/>
				</g>
			</g>
		</g>
		<g>
			<g>
				<defs>
					<rect id="SVGID_11_" x="15.4" y="30.9" width="219.2" height="188.1"/>
				</defs>
				<clipPath id="SVGID_12_">
					<use xlink:href="#SVGID_11_"  style="overflow:visible;"/>
				</clipPath>
				<g class="st9">
					<path class="st7" d="M105,197.4c0.9,0.3,1.5,0.7,1.9,1c0.4,0.5,0.5,1.1,0.3,1.9l-0.2,0.6c-0.2,0.7-0.7,1.2-1.3,1.4
						c-0.5,0.1-1.2,0.1-2.1-0.2l-5.2-1.6l0.4-1.5l5.2,1.6c0.7,0.2,1.1,0.1,1.3-0.4l0.1-0.3c0.2-0.5-0.1-0.8-0.8-1.1l-2.7-0.8
						c-0.8-0.3-1.5-0.6-1.8-1c-0.4-0.5-0.5-1.1-0.3-1.9l0.2-0.6c0.2-0.7,0.7-1.2,1.3-1.4c0.5-0.2,1.2-0.1,2.1,0.2l5.1,1.5l-0.5,1.4
						l-5.1-1.5c-0.7-0.2-1.1-0.1-1.3,0.5l-0.1,0.3c-0.2,0.5,0.1,0.8,0.8,1L105,197.4z"/>
				</g>
			</g>
		</g>
		<g>
			<g>
				<defs>
					<rect id="SVGID_13_" x="15.4" y="30.9" width="219.2" height="188.1"/>
				</defs>
				<clipPath id="SVGID_14_">
					<use xlink:href="#SVGID_13_"  style="overflow:visible;"/>
				</clipPath>
				<g class="st10">
					<path class="st7" d="M112.4,199.7l2.7,0.5c0.8,0.2,1.4-0.2,1.5-0.8V199c0.1-0.7-0.3-1.2-1.1-1.3l-2.7-0.5
						c-0.8-0.2-1.4,0.2-1.5,0.9v0.3C111.1,199.1,111.5,199.6,112.4,199.7 M118.3,199.1l-0.1,0.6c-0.1,0.7-0.5,1.2-1,1.6
						c-0.6,0.4-1.2,0.5-2,0.4l-4.4-0.7v0.1c-0.1,0.8,0.3,1.4,1.2,1.5l5.2,0.8l-0.3,1.5l-5.2-0.8c-1-0.2-1.8-0.6-2.2-1.1
						c-0.5-0.6-0.7-1.4-0.5-2.3l0.5-2.8c0.1-0.7,0.5-1.2,1-1.6c0.6-0.4,1.2-0.5,2.1-0.4l3.6,0.6c0.8,0.1,1.4,0.5,1.8,1
						C118.3,197.8,118.4,198.5,118.3,199.1"/>
				</g>
			</g>
		</g>
		<g>
			<g>
				<defs>
					<rect id="SVGID_15_" x="15.4" y="30.9" width="219.2" height="188.1"/>
				</defs>
				<clipPath id="SVGID_16_">
					<use xlink:href="#SVGID_15_"  style="overflow:visible;"/>
				</clipPath>
				<g class="st11">
					<path class="st7" d="M121.6,201.7c0,0.7,0.1,1.1,0.3,1.4c0.3,0.4,0.7,0.6,1.3,0.6l2.1,0.1c0.6,0,1-0.2,1.4-0.6
						c0.3-0.3,0.4-0.7,0.4-1.4v-1.3c0-0.7-0.1-1.1-0.3-1.4c-0.3-0.4-0.7-0.6-1.3-0.6l-3.7-0.1L121.6,201.7z M119.9,201.7l0.2-7.7
						h1.7l-0.1,2.8l3.8,0.1c1,0,1.8,0.4,2.3,0.9c0.6,0.6,0.8,1.4,0.8,2.5v1.5c0,1-0.4,1.9-0.9,2.4c-0.6,0.6-1.4,0.8-2.4,0.8
						l-2.2-0.1c-1,0-1.9-0.4-2.4-0.9C120.1,203.7,119.9,202.9,119.9,201.7"/>
				</g>
			</g>
		</g>
		<g>
			<g>
				<defs>
					<rect id="SVGID_17_" x="15.4" y="30.9" width="219.2" height="188.1"/>
				</defs>
				<clipPath id="SVGID_18_">
					<use xlink:href="#SVGID_17_"  style="overflow:visible;"/>
				</clipPath>
				<g class="st12">
					<path class="st7" d="M136.4,200.6l-2.7,0.3c-0.8,0.1-1.3,0.6-1.2,1.3v0.3c0.1,0.7,0.6,1,1.5,0.9l2.7-0.3
						c0.9-0.1,1.3-0.6,1.2-1.3v-0.3C137.8,200.8,137.3,200.5,136.4,200.6 M133.8,204.9c-0.8,0.1-1.5-0.1-2-0.5
						c-0.6-0.4-0.8-0.9-0.9-1.7l-0.1-0.6c-0.1-0.7,0.1-1.3,0.5-1.9c0.4-0.5,1-0.8,1.8-0.9l4.5-0.6l0,0c-0.1-0.8-0.7-1.2-1.6-1.1
						l-5,0.6l-0.2-1.5l5-0.6c1-0.1,1.9,0.1,2.4,0.5c0.7,0.5,1,1.1,1.1,2.2l0.4,2.9c0.1,0.7-0.1,1.4-0.6,1.9c-0.4,0.5-1,0.7-1.9,0.8
						L133.8,204.9z"/>
				</g>
			</g>
		</g>
		<g>
			<g>
				<defs>
					<rect id="SVGID_19_" x="15.4" y="30.9" width="219.2" height="188.1"/>
				</defs>
				<clipPath id="SVGID_20_">
					<use xlink:href="#SVGID_19_"  style="overflow:visible;"/>
				</clipPath>
				<g class="st13">
					<path class="st7" d="M142.3,203.7l-2.4-10.9l1.7-0.4l2.4,10.9L142.3,203.7z"/>
				</g>
			</g>
		</g>
		<g>
			<g>
				<defs>
					<rect id="SVGID_21_" x="15.4" y="30.9" width="219.2" height="188.1"/>
				</defs>
				<clipPath id="SVGID_22_">
					<use xlink:href="#SVGID_21_"  style="overflow:visible;"/>
				</clipPath>
				<g class="st14">
					<path class="st7" d="M146.2,202.8l-3-10.7l1.7-0.5l3,10.7L146.2,202.8z"/>
				</g>
			</g>
		</g>
		<g>
			<g>
				<defs>
					<rect id="SVGID_23_" x="15.4" y="30.9" width="219.2" height="188.1"/>
				</defs>
				<clipPath id="SVGID_24_">
					<use xlink:href="#SVGID_23_"  style="overflow:visible;"/>
				</clipPath>
				<g class="st15">
					<path class="st7" d="M152.9,196.5l-1.2-2.5c-0.6-1.1-0.6-2.2-0.2-3.2c0.4-0.9,1.1-1.7,2.3-2.2l5.3-2.4l0.7,1.4l-5.3,2.4
						c-0.7,0.4-1.2,0.8-1.4,1.5c-0.2,0.7-0.1,1.3,0.3,2l1.1,2.4c0.3,0.7,0.7,1.2,1.4,1.5s1.4,0.3,2.2-0.1l5.3-2.4l0.7,1.4l-5.3,2.4
						c-1.2,0.6-2.3,0.7-3.3,0.3C154.2,198.4,153.4,197.6,152.9,196.5"/>
				</g>
			</g>
		</g>
		<g>
			<g>
				<defs>
					<rect id="SVGID_25_" x="15.4" y="30.9" width="219.2" height="188.1"/>
				</defs>
				<clipPath id="SVGID_26_">
					<use xlink:href="#SVGID_25_"  style="overflow:visible;"/>
				</clipPath>
				<g class="st16">
					<path class="st7" d="M166,194.7l-5.6-9.7l1.5-0.8l5.6,9.7L166,194.7z"/>
				</g>
			</g>
		</g>
		<g>
			<g>
				<defs>
					<rect id="SVGID_27_" x="15.4" y="30.9" width="219.2" height="188.1"/>
				</defs>
				<clipPath id="SVGID_28_">
					<use xlink:href="#SVGID_27_"  style="overflow:visible;"/>
				</clipPath>
				<g class="st17">
					<path class="st7" d="M172.3,190.8c-0.8,0.7-1.7,0.8-2.6,0.7c-0.8-0.2-1.6-0.7-2.2-1.6l-2.8-3.8l1.4-1l2.8,3.8
						c0.4,0.6,0.8,0.9,1.2,1c0.6,0.1,1,0,1.5-0.4l1.2-0.8c0.5-0.4,0.7-0.8,0.8-1.3c0-0.4-0.2-0.9-0.6-1.5l-2.8-3.8l1.4-1l2.8,3.8
						c0.7,0.9,0.9,1.8,0.7,2.6c-0.1,0.8-0.7,1.6-1.5,2.2L172.3,190.8z"/>
				</g>
			</g>
		</g>
		<g>
			<g>
				<defs>
					<rect id="SVGID_29_" x="15.4" y="30.9" width="219.2" height="188.1"/>
				</defs>
				<clipPath id="SVGID_30_">
					<use xlink:href="#SVGID_29_"  style="overflow:visible;"/>
				</clipPath>
				<g class="st18">
					<path class="st7" d="M177.2,182.5c0.5,0.5,0.8,0.7,1.2,0.7c0.5,0.1,0.9-0.1,1.3-0.5l1.5-1.4c0.5-0.4,0.7-0.8,0.6-1.3
						c-0.1-0.4-0.3-0.8-0.7-1.2l-0.9-0.9c-0.5-0.5-0.8-0.7-1.2-0.7c-0.5-0.1-0.9,0.1-1.4,0.6l-2.7,2.5L177.2,182.5z M176,183.7
						l-5.4-5.5l1.2-1.2l2,2l2.8-2.6c0.7-0.7,1.5-1,2.3-1s1.6,0.4,2.4,1.2l1,1.1c0.7,0.7,1.1,1.6,1.1,2.4c0,0.8-0.4,1.6-1.1,2.3
						l-1.6,1.6c-0.7,0.7-1.5,1-2.3,1C177.6,185,176.7,184.5,176,183.7"/>
				</g>
			</g>
		</g>
		<g>
			<g>
				<defs>
					<rect id="SVGID_31_" x="15.4" y="30.9" width="219.2" height="188.1"/>
				</defs>
				<clipPath id="SVGID_32_">
					<use xlink:href="#SVGID_31_"  style="overflow:visible;"/>
				</clipPath>
				<g class="st19">
					<path class="st7" d="M93.2,48.5l5,9.9l-1.6,0.7L94,54l-5.9,2.9l2.5,5.2L89,62.9L84.2,53l1.6-0.7l1.7,3.4l5.9-2.9l-1.7-3.4
						L93.2,48.5z"/>
				</g>
			</g>
		</g>
		<g>
			<g>
				<defs>
					<rect id="SVGID_33_" x="15.4" y="30.9" width="219.2" height="188.1"/>
				</defs>
				<clipPath id="SVGID_34_">
					<use xlink:href="#SVGID_33_"  style="overflow:visible;"/>
				</clipPath>
				<g class="st20">
					<path class="st7" d="M103.5,52.6l-2.6,0.8c-0.8,0.3-1.1,0.7-0.9,1.5l0.1,0.3c0.2,0.7,0.7,0.9,1.6,0.7l2.6-0.8
						c0.8-0.3,1.2-0.7,0.9-1.5l-0.1-0.3C104.9,52.5,104.4,52.3,103.5,52.6 M101.7,57.4c-0.7,0.3-1.5,0.2-2.1-0.1
						c-0.6-0.3-1-0.7-1.2-1.4l-0.2-0.6C98,54.6,98,54,98.4,53.4c0.3-0.6,0.8-1,1.6-1.2l4.3-1.4l0,0c-0.3-0.8-0.8-1.1-1.8-0.8
						l-4.8,1.5L97.3,50l4.8-1.5c1-0.3,1.9-0.3,2.5,0c0.7,0.3,1.2,0.9,1.5,1.9l0.8,2.8c0.2,0.7,0.2,1.4-0.2,2
						c-0.3,0.6-0.8,0.9-1.7,1.1L101.7,57.4z"/>
				</g>
			</g>
		</g>
		<g>
			<g>
				<defs>
					<rect id="SVGID_35_" x="15.4" y="30.9" width="219.2" height="188.1"/>
				</defs>
				<clipPath id="SVGID_36_">
					<use xlink:href="#SVGID_35_"  style="overflow:visible;"/>
				</clipPath>
				<g class="st21">
					<path class="st7" d="M110.9,46.4l1.7-0.3c1-0.2,2,0,2.7,0.5c0.7,0.6,1.1,1.3,1.3,2.4l0.8,4.7l-1.7,0.3l-0.7-4.6
						c-0.1-0.7-0.4-1.1-0.7-1.4c-0.4-0.4-0.9-0.5-1.6-0.4l-1.5,0.3c-0.6,0.1-1,0.4-1.3,0.8c-0.2,0.4-0.2,0.8-0.1,1.6l0.7,4.6
						l-1.7,0.3l-0.8-4.7c-0.2-1.1,0-2.1,0.5-2.7C109,47,109.8,46.6,110.9,46.4"/>
				</g>
			</g>
		</g>
		<g>
			<g>
				<defs>
					<rect id="SVGID_37_" x="15.4" y="30.9" width="219.2" height="188.1"/>
				</defs>
				<clipPath id="SVGID_38_">
					<use xlink:href="#SVGID_37_"  style="overflow:visible;"/>
				</clipPath>
				<g class="st22">
					<path class="st7" d="M124.8,52.3c-0.7,0.7-1.4,1.1-2.3,1.1h-1c-0.9,0-1.7-0.3-2.3-0.9c-0.6-0.6-0.8-1.4-0.8-2.4v-5h1.7v5.1
						c0,0.6,0.1,1,0.4,1.3c0.3,0.3,0.7,0.5,1.2,0.5h0.7c0.5,0,0.8-0.2,1.2-0.5c0.3-0.3,0.4-0.7,0.4-1.3v-5.1h1.7v5.1
						c0,0.6,0.1,1,0.4,1.3c0.3,0.3,0.7,0.5,1.2,0.5h0.7c0.5,0,0.8-0.2,1.2-0.5c0.3-0.3,0.4-0.7,0.4-1.3v-5.1h1.7v5
						c0,1-0.3,1.9-0.8,2.4c-0.6,0.7-1.3,0.9-2.3,0.9h-1C126.2,53.4,125.4,53,124.8,52.3"/>
				</g>
			</g>
		</g>
		<g>
			<g>
				<defs>
					<rect id="SVGID_39_" x="15.4" y="30.9" width="219.2" height="188.1"/>
				</defs>
				<clipPath id="SVGID_40_">
					<use xlink:href="#SVGID_39_"  style="overflow:visible;"/>
				</clipPath>
				<g class="st23">
					<path class="st7" d="M137,47.5c-0.7-0.1-1.1,0-1.5,0.4c-0.3,0.3-0.5,0.7-0.7,1.4l-0.7,4.6l-1.7-0.3l1.9-11l1.7,0.3l-0.6,3.3
						c0.6-0.3,1.2-0.3,1.8-0.2l1.7,0.3c1,0.2,1.9,0.7,2.3,1.3c0.5,0.7,0.7,1.6,0.5,2.7l-0.7,4.7l-1.7-0.3l0.7-4.6
						c0.1-0.7,0.1-1.2-0.2-1.6c-0.3-0.5-0.7-0.7-1.3-0.8L137,47.5z"/>
				</g>
			</g>
		</g>
		<g>
			<g>
				<defs>
					<rect id="SVGID_41_" x="15.4" y="30.9" width="219.2" height="188.1"/>
				</defs>
				<clipPath id="SVGID_42_">
					<use xlink:href="#SVGID_41_"  style="overflow:visible;"/>
				</clipPath>
				<g class="st24">
					<path class="st7" d="M148.5,53.2l-2.6-0.8c-0.8-0.3-1.4,0-1.6,0.7l-0.1,0.3c-0.2,0.7,0.1,1.2,0.9,1.5l2.6,0.8
						c0.8,0.3,1.4,0.1,1.6-0.7l0.1-0.3C149.7,54,149.4,53.5,148.5,53.2 M144.3,56.1c-0.7-0.3-1.3-0.7-1.6-1.2
						c-0.3-0.6-0.4-1.2-0.2-1.9l0.2-0.6c0.2-0.7,0.7-1.2,1.2-1.5c0.6-0.3,1.3-0.3,2.1-0.1l4.3,1.4l0,0c0.3-0.8-0.1-1.4-1-1.7
						l-4.8-1.5l0.5-1.4l4.8,1.5c1,0.3,1.7,0.8,2.1,1.5c0.4,0.7,0.5,1.4,0.1,2.3l-0.8,2.8c-0.2,0.7-0.7,1.2-1.3,1.5
						c-0.6,0.3-1.2,0.2-2.1,0L144.3,56.1z"/>
				</g>
			</g>
		</g>
		<g>
			<g>
				<defs>
					<rect id="SVGID_43_" x="15.4" y="30.9" width="219.2" height="188.1"/>
				</defs>
				<clipPath id="SVGID_44_">
					<use xlink:href="#SVGID_43_"  style="overflow:visible;"/>
				</clipPath>
				<g class="st25">
					<path class="st4" d="M186.7,124.4c0,34.1-27.6,61.8-61.8,61.8c-34.1,0-61.8-27.6-61.8-61.8c0-34.1,27.6-61.8,61.8-61.8
						C159.1,62.6,186.7,90.2,186.7,124.4"/>
				</g>
			</g>
		</g>
		<g>
			<g>
				<defs>
					<rect id="SVGID_45_" x="15.4" y="30.9" width="219.2" height="188.1"/>
				</defs>
				<clipPath id="SVGID_46_">
					<use xlink:href="#SVGID_45_"  style="overflow:visible;"/>
				</clipPath>
				<g class="st26">
					<path class="st27" d="M184.3,131.8c-0.1-0.1-0.1-0.1-0.2-0.2c-0.1,0-0.1-0.1-0.2-0.1c-0.5,0-0.6,0.6-0.7,0.9
						c-0.6,2.1-1.1,4-1.8,6v0.1v0.1c0.4,1.1,0.7,2.2,0.9,3.4c0,0.3,0.2,0.6,0.5,0.5c0.1,0,0.2-0.1,0.2-0.1c0.5-0.4,0.6-1.1,0.5-1.7
						c-0.1-0.9-0.4-2-0.7-2.8c0.5-1.6,0.9-3.2,1.4-4.8c0.1-0.3,0.1-0.6,0.1-0.8C184.5,132.2,184.4,132,184.3,131.8"/>
				</g>
			</g>
		</g>
		<g>
			<g>
				<defs>
					<rect id="SVGID_47_" x="15.4" y="30.9" width="219.2" height="188.1"/>
				</defs>
				<clipPath id="SVGID_48_">
					<use xlink:href="#SVGID_47_"  style="overflow:visible;"/>
				</clipPath>
				<g class="st28">
					<path class="st27" d="M180.2,134.3c-0.7-0.4-1,0.6-1.1,1c-0.7,2.2-1.4,4.3-2.1,6.4l-0.1,0.2l0.1,0.1c0.7,1,1.4,2.1,1.9,3.1
						c0.2,0.5,0.7,0.6,0.9,0.1c0.3-0.4,0.6-1.2,0.4-1.7c-0.4-0.9-0.8-1.8-1.4-2.6c0.6-1.7,1.1-3.4,1.6-5.1c0.1-0.4,0.2-0.7,0-1.1
						C180.5,134.6,180.4,134.4,180.2,134.3"/>
				</g>
			</g>
		</g>
		<g>
			<g>
				<defs>
					<rect id="SVGID_49_" x="15.4" y="30.9" width="219.2" height="188.1"/>
				</defs>
				<clipPath id="SVGID_50_">
					<use xlink:href="#SVGID_49_"  style="overflow:visible;"/>
				</clipPath>
				<g class="st29">
					<path class="st27" d="M173.4,144.5c0.6-1.8,1.2-3.6,1.7-5.2c0.2-0.6,0.2-1.2-0.5-1.5c-0.1-0.1-0.3-0.1-0.4-0.1
						c-0.6,0.1-0.8,0.7-0.9,1.2c-0.7,2.2-1.4,4.5-2.2,6.7l-0.1,0.2l0.2,0.1c1,0.8,2,1.8,2.8,2.8c0.1,0.1,0.2,0.2,0.4,0.3h0.3
						c0.7-0.2,1.2-1.4,0.7-2.1C174.9,146,174.2,145.2,173.4,144.5"/>
				</g>
			</g>
		</g>
		<g>
			<g>
				<defs>
					<rect id="SVGID_51_" x="15.4" y="30.9" width="219.2" height="188.1"/>
				</defs>
				<clipPath id="SVGID_52_">
					<use xlink:href="#SVGID_51_"  style="overflow:visible;"/>
				</clipPath>
				<g class="st30">
					<path class="st27" d="M169.9,150.7c-0.9-0.7-1.9-1.3-2.9-2c0.6-1.8,1.1-3.6,1.7-5.3c0.1-0.4,0.2-0.7,0-1.1
						c-0.2-0.3-0.6-0.5-0.9-0.4c-0.7,0.1-0.8,0.7-1,1.2c-0.7,2.2-1.3,4.5-2,6.7l-0.1,0.3l0.2,0.1c1.3,0.7,2.5,1.5,3.7,2.3
						c0.4,0.3,0.8,0.3,1.2-0.1C170.2,152.1,170.4,151.1,169.9,150.7"/>
				</g>
			</g>
		</g>
		<g>
			<g>
				<defs>
					<rect id="SVGID_53_" x="15.4" y="30.9" width="219.2" height="188.1"/>
				</defs>
				<clipPath id="SVGID_54_">
					<use xlink:href="#SVGID_53_"  style="overflow:visible;"/>
				</clipPath>
				<g class="st31">
					<path class="st27" d="M163.3,155.1c-1.1-0.6-2.3-1-3.6-1.5c0.5-1.8,0.9-3.6,1.4-5.3c0.1-0.3,0.2-0.7,0-0.9
						c-0.2-0.3-0.5-0.5-0.8-0.5c-0.7-0.1-1.2,0.7-1.4,1.4c-0.6,2.2-1.1,4.5-1.7,6.7l-0.1,0.3l0.3,0.1c1.5,0.6,3.1,1.2,4.6,1.8
						c0.4,0.2,0.8,0.1,1.1-0.1c0.2-0.2,0.4-0.5,0.5-0.7C163.9,155.8,163.8,155.3,163.3,155.1"/>
				</g>
			</g>
		</g>
		<g>
			<g>
				<defs>
					<rect id="SVGID_55_" x="15.4" y="30.9" width="219.2" height="188.1"/>
				</defs>
				<clipPath id="SVGID_56_">
					<use xlink:href="#SVGID_55_"  style="overflow:visible;"/>
				</clipPath>
				<g class="st32">
					<path class="st27" d="M156.8,160.1c-0.1-0.1-0.3-0.2-0.5-0.3c-1.3-0.5-2.7-0.8-4.1-1.1c0.3-1.7,0.6-3.4,0.9-5.1
						c0.2-0.7-0.2-1.3-0.9-1.3c-0.8,0-1.3,0.7-1.5,1.4c-0.3,1.2-0.5,2.5-0.7,3.7c-0.2,0.9-0.3,1.8-0.4,2.7v0.3l0.3,0.1
						c1.8,0.4,3.6,0.7,5.3,1.2c0.2,0.1,0.3,0.1,0.5,0.1c0.5,0,0.9-0.4,1.1-0.7C157,160.8,157,160.4,156.8,160.1"/>
				</g>
			</g>
		</g>
		<g>
			<g>
				<defs>
					<rect id="SVGID_57_" x="15.4" y="30.9" width="219.2" height="188.1"/>
				</defs>
				<clipPath id="SVGID_58_">
					<use xlink:href="#SVGID_57_"  style="overflow:visible;"/>
				</clipPath>
				<g class="st33">
					<path class="st27" d="M149.7,165L149.7,165c-0.2-0.2-0.4-0.2-0.6-0.3c-1.5-0.3-3-0.6-4.6-0.7c0.1-1.5,0.3-3.1,0.5-4.6
						c0.1-0.9-0.7-1.4-1.6-1.1c-0.6,0.2-0.9,0.7-0.9,1.4c-0.3,2-0.4,3.9-0.5,5.9v0.3h0.3c2,0.2,3.9,0.5,5.8,0.7
						c0.1,0,0.3,0.1,0.4,0.1c0.6,0,1-0.3,1.2-0.7C150,165.8,149.9,165.4,149.7,165"/>
				</g>
			</g>
		</g>
		<g>
			<g>
				<defs>
					<rect id="SVGID_59_" x="15.4" y="30.9" width="219.2" height="188.1"/>
				</defs>
				<clipPath id="SVGID_60_">
					<use xlink:href="#SVGID_59_"  style="overflow:visible;"/>
				</clipPath>
				<g class="st34">
					<path class="st27" d="M142.9,170.1c-0.2-0.3-0.5-0.4-0.7-0.4c-1.6-0.2-3.2-0.3-4.9-0.4c0-1.4-0.1-2.8-0.1-4.1
						c0-0.4-0.1-0.7-0.4-0.8c-0.2-0.1-0.5-0.2-0.7-0.1c-0.8,0.1-1.4,0.7-1.4,1.5c0,1.8,0.1,3.5,0.2,5.2v0.3h0.3
						c2.1,0.1,4.1,0.3,6.2,0.5c0.1,0,0.2,0,0.3,0c0.7,0,1.3-0.4,1.4-1C143,170.3,143,170.3,142.9,170.1"/>
				</g>
			</g>
		</g>
		<g>
			<g>
				<defs>
					<rect id="SVGID_61_" x="15.4" y="30.9" width="219.2" height="188.1"/>
				</defs>
				<clipPath id="SVGID_62_">
					<use xlink:href="#SVGID_61_"  style="overflow:visible;"/>
				</clipPath>
				<g class="st35">
					<path class="st27" d="M136.2,174.5c-0.2-0.1-0.5-0.2-0.7-0.2c-1.7,0-3.3-0.1-5-0.1c-0.3-1.2-0.5-2.3-0.6-3.6
						c-0.1-0.4-0.3-0.7-0.7-0.8s-0.8,0-1.3,0.2c-0.4,0.3-0.6,0.7-0.5,1.1c0.3,1.5,0.6,3,0.9,4.5l0.1,0.2h0.2c2.1,0,4.1,0.1,6.2,0.1
						c0.1,0,0.2,0,0.2,0c0.5,0,1-0.2,1.2-0.6c0.1-0.2,0.2-0.5,0.1-0.7C136.4,174.7,136.3,174.6,136.2,174.5"/>
				</g>
			</g>
		</g>
		<g>
			<g>
				<defs>
					<rect id="SVGID_63_" x="15.4" y="30.9" width="219.2" height="188.1"/>
				</defs>
				<clipPath id="SVGID_64_">
					<use xlink:href="#SVGID_63_"  style="overflow:visible;"/>
				</clipPath>
				<g class="st36">
					<path class="st27" d="M130.3,178.5c-0.2-0.2-0.6-0.2-0.7-0.2l-5-0.1c-0.4-0.9-0.7-1.9-1.1-2.8c-0.1-0.3-0.4-0.6-0.7-0.7
						c-0.2,0-0.4-0.1-0.6,0c-0.3,0-0.6,0.1-0.7,0.2c-0.4,0.3-0.4,0.7-0.3,1c0.4,1.2,0.9,2.4,1.5,3.6l0.1,0.2h0.2
						c1.3,0.1,2.6,0.1,3.9,0.1c0.7,0,1.4,0,2.2,0c0.4,0,0.7,0,1-0.2c0.2-0.1,0.3-0.3,0.4-0.5C130.6,178.9,130.5,178.6,130.3,178.5"
						/>
				</g>
			</g>
		</g>
		<g>
			<g>
				<defs>
					<rect id="SVGID_65_" x="15.4" y="30.9" width="219.2" height="188.1"/>
				</defs>
				<clipPath id="SVGID_66_">
					<use xlink:href="#SVGID_65_"  style="overflow:visible;"/>
				</clipPath>
				<g class="st37">
					<path class="st27" d="M125.4,181.8c-0.2-0.3-0.7-0.3-1-0.3c-1.6,0-3.2-0.1-4.8-0.2c-0.6-0.7-1-1.4-1.5-2.2
						c-0.3-0.5-0.9-0.5-1.3-0.5c-0.2,0-0.4,0.1-0.6,0.2c-0.3,0.2-0.4,0.7-0.2,0.9c0.7,0.9,1.3,1.9,2.1,2.7l0.1,0.1h0.1
						c1.9,0.1,3.7,0.1,5.6,0.1h0.1c0.1,0,0.1,0,0.2,0c0.4,0,0.7-0.1,0.9-0.3c0.1-0.1,0.2-0.2,0.2-0.3
						C125.5,182.1,125.5,181.9,125.4,181.8"/>
				</g>
			</g>
		</g>
		<g>
			<g>
				<defs>
					<rect id="SVGID_67_" x="15.4" y="30.9" width="219.2" height="188.1"/>
				</defs>
				<clipPath id="SVGID_68_">
					<use xlink:href="#SVGID_67_"  style="overflow:visible;"/>
				</clipPath>
				<g class="st38">
					<path class="st27" d="M120.9,183.7c-0.3-0.2-0.7-0.2-0.9-0.2c-1.5-0.1-2.9-0.2-4.4-0.3c-0.7-0.5-1.2-1-1.9-1.5
						c-0.4-0.3-0.8-0.4-1.3-0.4c-0.2,0-0.4,0.1-0.5,0.2c-0.3,0.2-0.2,0.7,0.1,0.8c0.7,0.7,1.6,1.3,2.4,1.8h0.1
						c1.8,0.2,3.6,0.4,5.3,0.5c0.1,0,0.2,0,0.3,0c0.3,0,0.8,0,0.8-0.4C121.1,183.9,121,183.8,120.9,183.7"/>
				</g>
			</g>
		</g>
		<g>
			<g>
				<defs>
					<rect id="SVGID_69_" x="15.4" y="30.9" width="219.2" height="188.1"/>
				</defs>
				<clipPath id="SVGID_70_">
					<use xlink:href="#SVGID_69_"  style="overflow:visible;"/>
				</clipPath>
				<g class="st39">
					<path class="st27" d="M85.6,98.1c-0.9-0.9-2.3,0.7-1.5,1.5c0.7,0.9,1.6,1.8,2.4,2.6c-0.7,1.5-1.4,2.9-2.2,4.4
						c-0.3,0.6-0.3,1.1,0.3,1.5c0.7,0.4,1.3-0.2,1.6-0.7c0.9-1.9,1.8-3.7,2.6-5.6l0.1-0.2l-0.2-0.2C87.7,100.3,86.6,99.2,85.6,98.1"
						/>
				</g>
			</g>
		</g>
		<g>
			<g>
				<defs>
					<rect id="SVGID_71_" x="15.4" y="30.9" width="219.2" height="188.1"/>
				</defs>
				<clipPath id="SVGID_72_">
					<use xlink:href="#SVGID_71_"  style="overflow:visible;"/>
				</clipPath>
				<g class="st40">
					<path class="st27" d="M91.8,95.6c-0.7-0.6-1.6-0.2-1.8,0.7c-0.1,0.6,0.3,0.9,0.7,1.2l0.9,0.7c0.2,0.1,2,1.4,2,1.4
						c-0.7,1.6-1.3,3.1-2,4.7c-0.3,0.6-0.1,1.3,0.6,1.5c0.7,0.3,1.3-0.3,1.6-0.9c0.8-2,1.7-3.9,2.4-6l0.1-0.2l-0.2-0.1
						C94.6,97.5,93.1,96.5,91.8,95.6"/>
				</g>
			</g>
		</g>
		<g>
			<g>
				<defs>
					<rect id="SVGID_73_" x="15.4" y="30.9" width="219.2" height="188.1"/>
				</defs>
				<clipPath id="SVGID_74_">
					<use xlink:href="#SVGID_73_"  style="overflow:visible;"/>
				</clipPath>
				<g class="st41">
					<path class="st27" d="M98.7,92.6c-0.6-0.3-1.1-0.3-1.5,0.2c-0.5,0.5-0.5,1.3,0.2,1.6c1.3,0.7,2.5,1.5,3.8,2.2
						c-0.6,1.6-1,3.3-1.6,4.9c-0.1,0.2-0.1,0.5-0.1,0.7c0,0.6,0.6,0.8,1.1,0.8c0.7,0,1.1-0.5,1.3-1.1c0.7-2.1,1.3-4.1,1.9-6.2
						l0.1-0.3l-0.2-0.1C102,94.4,100.4,93.4,98.7,92.6"/>
				</g>
			</g>
		</g>
		<g>
			<g>
				<defs>
					<rect id="SVGID_75_" x="15.4" y="30.9" width="219.2" height="188.1"/>
				</defs>
				<clipPath id="SVGID_76_">
					<use xlink:href="#SVGID_75_"  style="overflow:visible;"/>
				</clipPath>
				<g class="st42">
					<path class="st27" d="M112,91.4l-0.3-0.1c-1.9-0.7-3.8-1.5-5.7-2.2c-0.7-0.3-1.8,0-1.9,0.9s1.3,1.3,2,1.6
						c1,0.5,2.1,0.8,3.2,1.3c-0.3,1.7-0.7,3.3-1,5c-0.2,0.7,0.2,1.2,0.8,1.4h0.1c0.8,0.2,1.4-0.5,1.6-1.2c0.5-1.8,0.7-3.7,1.1-5.4
						L112,91.4z"/>
				</g>
			</g>
		</g>
		<g>
			<g>
				<defs>
					<rect id="SVGID_77_" x="15.4" y="30.9" width="219.2" height="188.1"/>
				</defs>
				<clipPath id="SVGID_78_">
					<use xlink:href="#SVGID_77_"  style="overflow:visible;"/>
				</clipPath>
				<g class="st43">
					<path class="st27" d="M111.6,86.7c0.1,0.1,0.3,0.2,0.5,0.3c1.6,0.6,3.2,1.1,4.9,1.6c-0.1,1.6-0.2,3.2-0.4,4.8
						c-0.1,0.7,0.4,1.2,1,1.3c0.8,0.1,1.4-0.5,1.5-1.3c0.2-2.1,0.3-4.1,0.3-6.2v-0.3l-0.2-0.1c-0.4-0.1-0.8-0.2-1.2-0.4
						c-1.6-0.5-3.3-0.9-4.9-1.4c-0.7-0.2-1.6-0.2-1.8,0.7C111.2,86.1,111.3,86.5,111.6,86.7"/>
				</g>
			</g>
		</g>
		<g>
			<g>
				<defs>
					<rect id="SVGID_79_" x="15.4" y="30.9" width="219.2" height="188.1"/>
				</defs>
				<clipPath id="SVGID_80_">
					<use xlink:href="#SVGID_79_"  style="overflow:visible;"/>
				</clipPath>
				<g class="st44">
					<path class="st27" d="M118.9,82.8c1.7,0.4,3.5,0.7,5.2,1.1c0.2,1.5,0.3,3,0.4,4.5c0,0.8,0.7,1.3,1.6,1.1c0.7-0.2,1-0.7,0.9-1.4
						c-0.1-2-0.4-3.9-0.7-5.8v-0.2H126c-2.2-0.5-4.2-0.8-6.4-1.3c-0.7-0.1-1.7,0-1.7,0.9C118,82.5,118.4,82.8,118.9,82.8"/>
				</g>
			</g>
		</g>
		<g>
			<g>
				<defs>
					<rect id="SVGID_81_" x="15.4" y="30.9" width="219.2" height="188.1"/>
				</defs>
				<clipPath id="SVGID_82_">
					<use xlink:href="#SVGID_81_"  style="overflow:visible;"/>
				</clipPath>
				<g class="st45">
					<path class="st27" d="M124.1,78.1c0,0.1,0.1,0.2,0.2,0.2c0.4,0.4,0.8,0.4,1.3,0.5c0.6,0.1,1,0.2,1.6,0.3c0.6,0.1,1,0.2,1.6,0.3
						c0.2,0,1.5,0.1,1.5,0.2c0.5,1.4,0.8,2.8,1.2,4.2c0.2,0.7,0.9,1,1.7,0.9c0.7-0.1,0.9-0.7,0.7-1.4c-0.5-1.8-1-3.6-1.7-5.2
						l-0.1-0.2h-0.2c-2.2-0.3-4.2-0.7-6.4-0.8c-0.4,0-0.8-0.1-1.2,0.2C123.9,77.3,123.9,77.8,124.1,78.1"/>
				</g>
			</g>
		</g>
		<g>
			<g>
				<defs>
					<rect id="SVGID_83_" x="15.4" y="30.9" width="219.2" height="188.1"/>
				</defs>
				<clipPath id="SVGID_84_">
					<use xlink:href="#SVGID_83_"  style="overflow:visible;"/>
				</clipPath>
				<g class="st46">
					<path class="st27" d="M129.1,74.2c0.3,0.3,0.7,0.4,0.9,0.5c1.6,0.2,3.3,0.4,5.1,0.6c0.7,1.2,1.4,2.4,1.9,3.7
						c0.3,0.7,1.2,0.9,1.9,0.7c0.6-0.3,0.6-0.8,0.3-1.2c-0.7-1.6-1.6-3.2-2.6-4.6l-0.1-0.1h-0.2c-2.1-0.2-4-0.4-6.1-0.5
						c-0.4,0-0.7-0.1-1,0.1C128.7,73.4,128.8,73.8,129.1,74.2"/>
				</g>
			</g>
		</g>
		<g>
			<g>
				<defs>
					<rect id="SVGID_85_" x="15.4" y="30.9" width="219.2" height="188.1"/>
				</defs>
				<clipPath id="SVGID_86_">
					<use xlink:href="#SVGID_85_"  style="overflow:visible;"/>
				</clipPath>
				<g class="st47">
					<path class="st27" d="M132.7,70.4c0.3,0.5,0.7,0.6,1.2,0.7c1.6,0.1,3.1,0.2,4.7,0.3c0.9,0.9,1.8,2,2.5,3.1
						c0.4,0.5,0.9,0.7,1.6,0.6c0.7-0.2,0.6-0.8,0.2-1.3c-1-1.3-2.1-2.5-3.3-3.7l-0.1-0.1h-0.1c-1.9-0.1-3.8-0.3-5.7-0.4
						C133.2,69.4,132.3,69.6,132.7,70.4"/>
				</g>
			</g>
		</g>
		<g>
			<g>
				<defs>
					<rect id="SVGID_87_" x="15.4" y="30.9" width="219.2" height="188.1"/>
				</defs>
				<clipPath id="SVGID_88_">
					<use xlink:href="#SVGID_87_"  style="overflow:visible;"/>
				</clipPath>
				<g class="st48">
					<path class="st27" d="M135.3,67.5L135.3,67.5c0.4,0.4,0.8,0.5,1.2,0.5c1.4,0.1,2.8,0.2,4.2,0.3c1,0.7,2.1,1.5,3,2.4
						c0.4,0.4,1.2,0.7,1.8,0.4c0.4-0.3,0-0.8-0.3-1c-1.2-1.1-2.5-2.1-3.9-2.9h-0.1c-1.7-0.1-3.4-0.3-5-0.4c-0.4-0.1-1.1-0.1-1,0.5
						C135.2,67.3,135.2,67.4,135.3,67.5"/>
				</g>
			</g>
		</g>
		<g>
			<g>
				<defs>
					<rect id="SVGID_89_" x="15.4" y="30.9" width="219.2" height="188.1"/>
				</defs>
				<clipPath id="SVGID_90_">
					<use xlink:href="#SVGID_89_"  style="overflow:visible;"/>
				</clipPath>
				<g class="st49">
					<path class="st27" d="M136.6,65.4c0.3,0.4,0.8,0.4,1.3,0.5c1.2,0.1,2.4,0.2,3.7,0.4c1.1,0.5,2.3,1.1,3.4,1.8
						c0.4,0.2,1.5,0.7,1.7,0.1c0.1-0.4-0.4-0.7-0.6-0.7c-1.3-0.7-2.7-1.5-4.2-2.1h-0.1c-1.4-0.2-2.7-0.4-4.1-0.5
						c-0.3,0-0.9-0.2-1,0.2C136.4,65.2,136.5,65.3,136.6,65.4"/>
				</g>
			</g>
		</g>
		<g>
			<g>
				<defs>
					<rect id="SVGID_91_" x="15.4" y="30.9" width="219.2" height="188.1"/>
				</defs>
				<clipPath id="SVGID_92_">
					<use xlink:href="#SVGID_91_"  style="overflow:visible;"/>
				</clipPath>
				<g class="st50">
					<path class="st4" d="M234.1,98.8c-1.5-7.7-5.2-14.1-8.8-20.4l-2.2-3.8l-4.9,1.5c-1.7,0.5-3.3,1-5,1.5c-2.1,0.6-3.5,1.9-4.2,3.9
						c-1,3-2.2,5.9-3.6,8.7c-0.2-0.6-0.5-1-0.7-1.5c-1.9-3.1-5.1-5.1-9-5.4c-4.4-0.4-8.6,0.7-12.5,3c-4.3,2.7-7.9,6.1-10.6,10.3
						l9.4-32.9l-6.7,1.9c-0.3,0.1-0.6,0.1-0.7,0.2l-2.4,0.7c-2,0.6-3.9,1.2-6,1.8c-1.9,0.6-3.2,1.9-3.7,3.7
						c-2.2,7.7-4.4,15.3-6.6,22.9l-7.1,2.2c-2.2,0.7-4.3,1.3-6.5,2c-1.6,0.5-2.4,1.7-2.8,2.3c0,0.1-0.1,0.1-0.1,0.2
						c-6.2-1.3-12,0-17,3.9c-2.7,2.2-5.1,4.7-7,7.6l1.2-6.2l-7.8,2.3c-2.2,0.7-4.3,1.3-6.4,2c-1.7,0.6-2.5,2-2.8,2.4
						c0,0,0,0.1-0.1,0.1c-4.8-1.3-9.5-0.7-14,2L81,93.1l-13.1,3.8c-6.7,2.1-13.5,4.1-20.2,6.2c-5.8,1.8-12.6,4.1-18.8,8.2
						c-5.7,3.7-9.3,7.6-11.5,12.5c-3.6,7.9-2.7,14.8,2.5,20.6c2.1,2.3,4.6,4.2,7.5,5.3l5.2,2.2c-2.1,6.6-5.5,11.4-10.4,14.9
						c-2.4,1.7-3.8,3.8-4.4,6.6c-0.1,0.7-0.3,1.3-0.6,2c-0.1,0.4-0.3,0.8-0.4,1.2l-1.1,5l5.9-0.3l10.4-3.2
						c8.8-2.7,17.7-5.4,26.5-8.2c6.4-2,11-5.2,14.1-9.7c0.6-0.8,1.1-1.7,1.6-2.5c0.9,0.7,1.9,1.1,2.9,1.5c3.5,1.2,7.4,1,10.7-0.7
						c2.8-1.4,5.2-3.6,7.4-6.6c2.3,2.1,5.8,2.7,9.6,1.8c2.1-0.6,3.9-1.5,5.5-2.7l0.1,0.5c0.4,1.3,0.8,2.8,1.7,4.3
						c3.1,5,9,7.2,15.3,6c5-1,9.1-3.9,12.3-8.8c2.2-3.4,3.9-7.4,5.2-12.5c2.1-1.1,4.1-2.2,6-3.8c0.7-0.6,1.3-1.2,1.9-1.8
						c3.7,2.3,8.3,2.4,12.8-0.1c3.2-1.8,5.3-4.3,6.8-6.8c1.9,1.1,4.3,1.9,7.6,1.8c2.3-0.1,4.7-0.5,7-1c6.3-1.7,11.7-5.4,17.1-11.6
						c0.8-0.9,1.6-1.9,2.3-2.9c0.2,0.2,0.4,0.4,0.6,0.6c3.3,3.4,7.6,4.6,12.8,3.8c4.6-0.7,8.6-3.1,11.2-6.8
						C234.1,107.8,235,103.3,234.1,98.8"/>
				</g>
			</g>
		</g>
		<g>
			<g>
				<defs>
					<rect id="SVGID_93_" x="15.4" y="30.9" width="219.2" height="188.1"/>
				</defs>
				<clipPath id="SVGID_94_">
					<use xlink:href="#SVGID_93_"  style="overflow:visible;"/>
				</clipPath>
				<g class="st51">
					<path class="st52" d="M182,106c4.6-1.2,8.4-3.1,11.2-6.7c0.9-1.2,1.6-2.5,1.7-4.1c0-1.6-1-2.7-2.6-2.3c-1,0.3-2.2,0.7-3,1.4
						C185.6,97.4,183.7,101.5,182,106 M139.2,111.5c-2.9-1.6-5.9-1.1-8.4,1.3c-4,3.8-6.2,8.6-7.3,14c-0.5,2.2-0.7,4.6-0.1,6.9
						c0.7,2.4,2.5,3.2,4.6,1.6c1-0.7,2-1.8,2.7-2.8c2.2-3.1,3.7-6.6,5-10.1C137,118.7,138.1,115.1,139.2,111.5 M99.1,123.6
						c-0.2-0.2-0.2-0.3-0.3-0.3c-0.1-0.1-0.3-0.1-0.4-0.2c-3-1.2-5.5-0.3-7.7,1.9c-3.7,3.6-5.8,8-7.2,12.8c-0.7,2.5-1.3,5.1-0.8,7.7
						c0.5,2.9,2.4,3.8,4.9,2.2c1.2-0.8,2.2-2.1,3.2-3.3c2.2-3.1,3.7-6.7,5-10.3C96.9,130.6,98,127.1,99.1,123.6 M176.8,69
						c-0.7,2.7-1.5,5.2-2.2,7.8c-4.3,15-8.5,29.9-12.8,44.9c-0.2,0.7-0.4,1.3-0.4,2.1c-0.1,1.1,0.6,1.6,1.7,1.3
						c1.9-0.4,2.8-1.8,3.7-3.3c2.2-3.7,3.3-7.9,4.4-12c2.2-8.6,6.7-15.6,14.3-20.3c3.1-2,6.5-2.7,10.1-2.4c5.7,0.5,8.7,5.8,6.1,11.3
						c-1.8,3.7-4.7,6.4-8.2,8.4c-3.7,2.2-7.7,3.6-11.9,4.3c-0.8,0.2-1.1,0.5-1.1,1.3c0.1,1.1,0,2.3,0.2,3.4c0.4,1.7,1.8,2.6,3.5,2.6
						c2.9,0.1,5.3-1.1,7.6-2.7c4.1-2.9,7.3-6.8,10.1-11.1c4.6-6.8,8-14.3,10.8-22c0.3-0.8,0.7-1.3,1.7-1.6c2.3-0.7,4.7-1.4,7-2.2
						c3.7,6.6,7.7,13,9.1,20.6c1.4,7.3-3.5,14.1-10.9,15.2c-3.7,0.6-6.9-0.1-9.6-2.8c-1.1-1.1-1.9-2.4-2.2-4.1
						c1.1,0.4,2.2,0.7,3.2,1.1c1.8,0.5,3.6,0.4,5.3-0.3c2.9-1.1,4.3-3.6,3.9-6.9c-0.6-4.4-2.4-8.4-4.4-12.6c-0.5,1.1-0.8,2.1-1.2,3
						c-3.3,8.1-7.3,15.6-13.1,22.3c-4.2,4.8-9.1,8.8-15.4,10.5c-2,0.6-4,0.8-6.2,0.9c-3.5,0.1-6.5-0.9-8.4-4.3
						c-0.4,0.7-0.6,1.4-0.8,2c-1.6,3.2-3.5,6.1-6.7,7.9c-3.7,2.1-8.5,2.1-11.3-2.1c-1.3,1.4-2.4,3.1-3.9,4.3
						c-1.8,1.4-3.7,2.5-5.7,3.6c-0.7,0.5-1.3,0.8-1.5,1.8c-1,4.1-2.4,8.2-4.8,11.8c-2.4,3.7-5.5,6.3-9.9,7.2
						c-4.7,0.9-9-0.6-11.3-4.3c-0.7-1-0.9-2.2-1.3-3.4c1.5,0.9,3.1,1.6,4.9,1.7c2.7,0.3,5-0.7,6.9-2.4c2.1-2,3.6-4.3,4.6-6.8
						c1.2-2.9,2.3-5.9,3.3-8.9c-1.2,1.7-2.2,3.4-3.6,5c-1.5,1.9-3.2,3.6-5.4,4.4c-3.7,1.5-8,0.1-10.1-3.4l-0.5-0.8
						c-0.7,1.5-1.3,2.9-2.2,4.2c-1.9,3.2-4.4,5.7-8.2,6.7c-2.9,0.7-5.6,0.1-7-1.9c-0.7-1-1-2.3-1.5-3.5c-0.8,1.4-1.8,3.1-2.8,4.6
						c-1.7,2.4-3.7,4.6-6.5,5.9c-4.1,2.1-10.3,1.1-12.6-4c-0.1-0.1-0.2-0.2-0.1-0.2c-1.3,2.3-2.4,4.9-3.9,7.1
						c-2.9,4.3-7.2,6.7-12.1,8.2c-12.1,3.8-24.3,7.5-36.4,11.2c-0.1,0-0.2,0-0.5,0c0.4-1.2,0.7-2.3,0.9-3.6c0.4-1.9,1.2-3.1,2.8-4.2
						c6.4-4.4,10-10.7,12.2-18c3.6-12.3,7-24.5,10.6-36.7c0.1-0.2,0.1-0.5,0.2-0.9c-1.6,0.5-3,0.9-4.4,1.4
						c-5.8,2.2-10.8,5.4-13.9,10.9c-3.6,6.3-3.8,12.8-0.5,19.3c0.1,0.1,0.1,0.2,0.3,0.6c-2.3-1-4.5-2.5-6.2-4.4
						c-4.5-5.1-4.5-10.8-1.9-16.6c2.2-4.7,5.8-8.1,10.1-10.9c5.5-3.6,11.6-5.8,17.9-7.8c9.6-2.9,19.2-5.8,28.8-8.8
						c0.2-0.1,0.3-0.1,0.7-0.2l3.5,16.9c-0.1,0.1-0.1,0.2-0.2,0.2c-1.8,0.7-1.7,0.7-2.7-0.9c-0.7-1-1.3-2-2-2.9
						c-2.1-2.9-5-3.9-8.4-3.1c-2.2,0.6-4.5,1.2-6.7,1.9c-0.3,0.1-0.7,0.5-0.7,0.7c-2.2,7.6-4.3,15.2-6.5,22.8c0,0.1,0,0.3,0,0.6
						c4.8-1.5,9.5-2.9,14.4-4.4c-0.6,2.1-1.1,3.9-1.7,5.7c-0.1,0.3-0.6,0.5-0.9,0.6c-4.2,1.3-8.3,2.5-12.6,3.8
						c-0.7,0.2-1.1,0.6-1.3,1.4c-1.1,3.7-2.2,7.5-3.6,11.1c-1.9,4.8-5,8.6-9.2,11.6c-0.2,0.1-0.4,0.4-0.5,0.6c2.2-0.7,4.3-1.3,6.5-2
						c3.7-1.1,7.6-2.3,11.3-3.5c7-2,11.8-6.4,14.2-13.2c1-2.9,1.8-5.9,2.7-8.8c2.2-6.4,5.6-11.8,11-16c5-3.9,10.4-5.2,16.6-2.4
						c0.6-0.9,1-1.9,1.6-2.8c0.2-0.3,0.4-0.7,0.7-0.7c2.6-0.8,5.3-1.7,8.1-2.5c-0.1,0.4-0.1,0.7-0.2,1c-2.4,8.5-4.9,17.1-7.3,25.5
						c-0.2,0.7-0.4,1.4-0.5,2.2c-0.1,1.2,0.6,1.8,1.8,1.5c1.8-0.5,2.8-1.9,3.7-3.4c2.2-3.7,3.4-7.8,4.3-12
						c1.7-7.5,5.1-13.9,11.1-18.6c4.7-3.7,9.8-4.5,15.6-2.8c0.3,0.1,0.6,0.2,0.9,0.3c0,0,0.1,0,0.2-0.1c0.4-0.8,0.8-1.7,1.4-2.5
						c0.2-0.3,0.4-0.6,0.7-0.7c2.6-0.8,5.2-1.6,8.1-2.4c-2.6,10.3-5.2,20.4-8,30.8c2.5-1.2,4.2-3,5.6-5.1c2.7-4,4.2-8.6,5.5-13.2
						c3.7-13.2,7.6-26.4,11.3-39.6c0.2-0.7,0.5-1,1.2-1.2c2.8-0.8,5.6-1.7,8.4-2.6C176.1,69.2,176.3,69.1,176.8,69"/>
				</g>
			</g>
		</g>
	</g>
</g>
<g id="레이어_1">
</g>
<rect x="8" y="34.8" class="st53" width="234" height="180.4"/>
</svg>
