<?xml version="1.0" encoding="utf-8"?>
<!-- Generator: Adobe Illustrator 25.1.0, SVG Export Plug-In . SVG Version: 6.00 Build 0)  -->
<svg version="1.1" xmlns="http://www.w3.org/2000/svg" xmlns:xlink="http://www.w3.org/1999/xlink" x="0px" y="0px"
	 viewBox="0 0 250 250" style="enable-background:new 0 0 250 250;" xml:space="preserve">
<style type="text/css">
	.st0{fill:none;}
	.st1{clip-path:url(#SVGID_2_);}
	.st2{fill:#FC4E00;}
	.st3{clip-path:url(#SVGID_4_);}
	.st4{fill:#FFFFFF;}
	.st5{clip-path:url(#SVGID_6_);}
	.st6{clip-path:url(#SVGID_8_);}
	.st7{fill:#F3F3F4;}
	.st8{clip-path:url(#SVGID_10_);}
	.st9{clip-path:url(#SVGID_12_);}
	.st10{clip-path:url(#SVGID_14_);}
	.st11{clip-path:url(#SVGID_16_);}
	.st12{clip-path:url(#SVGID_18_);}
	.st13{clip-path:url(#SVGID_20_);}
	.st14{clip-path:url(#SVGID_22_);}
	.st15{clip-path:url(#SVGID_24_);}
	.st16{clip-path:url(#SVGID_26_);}
	.st17{clip-path:url(#SVGID_28_);}
	.st18{clip-path:url(#SVGID_30_);}
	.st19{clip-path:url(#SVGID_32_);}
	.st20{clip-path:url(#SVGID_34_);}
	.st21{clip-path:url(#SVGID_36_);}
	.st22{clip-path:url(#SVGID_38_);}
	.st23{clip-path:url(#SVGID_40_);}
	.st24{clip-path:url(#SVGID_42_);}
	.st25{clip-path:url(#SVGID_44_);}
	.st26{clip-path:url(#SVGID_46_);}
	.st27{fill:#EBBC95;}
	.st28{clip-path:url(#SVGID_48_);}
	.st29{clip-path:url(#SVGID_50_);}
	.st30{clip-path:url(#SVGID_52_);}
	.st31{clip-path:url(#SVGID_54_);}
	.st32{clip-path:url(#SVGID_56_);}
	.st33{clip-path:url(#SVGID_58_);}
	.st34{clip-path:url(#SVGID_60_);}
	.st35{clip-path:url(#SVGID_62_);}
	.st36{clip-path:url(#SVGID_64_);}
	.st37{clip-path:url(#SVGID_66_);}
	.st38{clip-path:url(#SVGID_68_);}
	.st39{clip-path:url(#SVGID_70_);}
	.st40{clip-path:url(#SVGID_72_);}
	.st41{clip-path:url(#SVGID_74_);}
	.st42{clip-path:url(#SVGID_76_);}
	.st43{clip-path:url(#SVGID_78_);}
	.st44{clip-path:url(#SVGID_80_);}
	.st45{clip-path:url(#SVGID_82_);}
	.st46{clip-path:url(#SVGID_84_);}
	.st47{clip-path:url(#SVGID_86_);}
	.st48{clip-path:url(#SVGID_88_);}
	.st49{clip-path:url(#SVGID_90_);}
	.st50{clip-path:url(#SVGID_92_);}
	.st51{clip-path:url(#SVGID_94_);}
	.st52{fill:#07111F;}
</style>
<g id="Layer_1">
	<rect x="8" y="8" class="st0" width="234" height="234"/>
	<g>
		<g>
			<defs>
				<rect id="SVGID_1_" x="8" y="24.6" width="234" height="200.8"/>
			</defs>
			<clipPath id="SVGID_2_">
				<use xlink:href="#SVGID_1_"  style="overflow:visible;"/>
			</clipPath>
			<g class="st1">
				<path class="st2" d="M124.9,26.9c-53.8,0-97.4,43.6-97.4,97.4c0,53.8,43.6,97.4,97.4,97.4c53.8,0,97.4-43.6,97.4-97.4
					C222.4,70.5,178.7,26.9,124.9,26.9"/>
			</g>
		</g>
		<g>
			<defs>
				<rect id="SVGID_3_" x="8" y="24.6" width="234" height="200.8"/>
			</defs>
			<clipPath id="SVGID_4_">
				<use xlink:href="#SVGID_3_"  style="overflow:visible;"/>
			</clipPath>
			<g class="st3">
				<path class="st4" d="M124.9,29.2c-52.4,0-95.1,42.7-95.1,95.1c0,52.4,42.7,95.1,95.1,95.1s95.1-42.7,95.1-95.1
					C220,71.9,177.4,29.2,124.9,29.2 M124.9,224.1c-55,0-99.7-44.7-99.7-99.7s44.7-99.8,99.7-99.8c55,0,99.8,44.7,99.8,99.8
					S179.9,224.1,124.9,224.1"/>
			</g>
		</g>
		<g>
			<defs>
				<rect id="SVGID_5_" x="8" y="24.6" width="234" height="200.8"/>
			</defs>
			<clipPath id="SVGID_6_">
				<use xlink:href="#SVGID_5_"  style="overflow:visible;"/>
			</clipPath>
			<g class="st5">
				<path class="st2" d="M124.9,26.9c-53.8,0-97.4,43.6-97.4,97.4c0,53.8,43.6,97.4,97.4,97.4c53.8,0,97.4-43.6,97.4-97.4
					C222.4,70.5,178.7,26.9,124.9,26.9"/>
			</g>
		</g>
		<g>
			<defs>
				<rect id="SVGID_7_" x="8" y="24.6" width="234" height="200.8"/>
			</defs>
			<clipPath id="SVGID_8_">
				<use xlink:href="#SVGID_7_"  style="overflow:visible;"/>
			</clipPath>
			<g class="st6">
				<path class="st7" d="M83.6,191.8c1,0.6,1.7,0.6,2.2-0.1l0.5-0.7c0.5-0.7,0.2-1.4-0.7-2.1l-4.2-2.7l-1.9,2.9L83.6,191.8z
					 M82.7,193.1l-4.2-2.7l-1.9,2.9l4.2,2.7c1,0.6,1.7,0.6,2.2-0.1l0.5-0.7C83.9,194.5,83.7,193.8,82.7,193.1 M85.3,193.9
					c0.3,0.8,0.2,1.5-0.3,2.2l-0.5,0.8c-0.5,0.7-1.1,1.1-1.9,1.2c-0.8,0.1-1.6-0.2-2.6-0.8l-5.9-3.8l6.5-9.9l5.9,3.8
					c1,0.6,1.6,1.3,1.8,2.1c0.2,0.8,0.1,1.5-0.4,2.2l-0.6,0.9C86.8,193.5,86.1,193.9,85.3,193.9"/>
			</g>
		</g>
		<g>
			<defs>
				<rect id="SVGID_9_" x="8" y="24.6" width="234" height="200.8"/>
			</defs>
			<clipPath id="SVGID_10_">
				<use xlink:href="#SVGID_9_"  style="overflow:visible;"/>
			</clipPath>
			<g class="st8">
				<path class="st7" d="M92.7,199.3l-2.7-1.2c-0.9-0.4-1.5-0.2-1.8,0.5l-0.1,0.3c-0.3,0.7-0.1,1.3,0.8,1.7l2.7,1.2
					c0.9,0.4,1.5,0.2,1.8-0.5l0.1-0.3C93.9,200.3,93.6,199.7,92.7,199.3 M87.9,201.8c-0.8-0.4-1.3-0.9-1.6-1.5
					c-0.3-0.7-0.2-1.3,0.1-2l0.3-0.6c0.3-0.7,0.8-1.2,1.5-1.4c0.7-0.2,1.4-0.2,2.2,0.2l4.4,2l0,0c0.4-0.9,0.1-1.5-0.8-1.9l-4.9-2.2
					l0.7-1.4l4.8,2.2c1,0.5,1.7,1.1,2,1.8c0.3,0.7,0.3,1.6-0.2,2.5l-1.3,2.8c-0.3,0.7-0.8,1.2-1.5,1.4c-0.6,0.2-1.3,0.1-2.2-0.3
					L87.9,201.8z"/>
			</g>
		</g>
		<g>
			<defs>
				<rect id="SVGID_11_" x="8" y="24.6" width="234" height="200.8"/>
			</defs>
			<clipPath id="SVGID_12_">
				<use xlink:href="#SVGID_11_"  style="overflow:visible;"/>
			</clipPath>
			<g class="st9">
				<path class="st7" d="M103.7,202.3c1,0.3,1.6,0.7,2,1.1c0.4,0.5,0.5,1.2,0.3,2l-0.2,0.6c-0.2,0.8-0.7,1.3-1.4,1.5
					c-0.5,0.1-1.3,0.1-2.2-0.2l-5.6-1.7L97,204l5.6,1.7c0.8,0.2,1.2,0.1,1.4-0.4l0.1-0.3c0.2-0.5-0.1-0.9-0.9-1.2l-2.9-0.9
					c-0.9-0.3-1.6-0.6-1.9-1.1c-0.4-0.5-0.5-1.2-0.3-2l0.2-0.6c0.2-0.8,0.7-1.3,1.4-1.5c0.5-0.2,1.3-0.1,2.2,0.2l5.4,1.6l-0.5,1.5
					l-5.4-1.6c-0.8-0.2-1.2-0.1-1.4,0.5l-0.1,0.3c-0.2,0.5,0.1,0.9,0.9,1.1L103.7,202.3z"/>
			</g>
		</g>
		<g>
			<defs>
				<rect id="SVGID_13_" x="8" y="24.6" width="234" height="200.8"/>
			</defs>
			<clipPath id="SVGID_14_">
				<use xlink:href="#SVGID_13_"  style="overflow:visible;"/>
			</clipPath>
			<g class="st10">
				<path class="st7" d="M111.5,204.7l2.9,0.5c0.9,0.2,1.5-0.2,1.6-0.9l0-0.3c0.1-0.8-0.3-1.3-1.2-1.4l-2.9-0.5
					c-0.9-0.2-1.5,0.2-1.6,1l0,0.3C110.2,204.1,110.6,204.6,111.5,204.7 M117.9,204.1l-0.1,0.6c-0.1,0.8-0.5,1.3-1.1,1.7
					c-0.6,0.4-1.3,0.5-2.1,0.4l-4.7-0.8l0,0.1c-0.1,0.9,0.3,1.5,1.3,1.6l5.6,0.9l-0.3,1.6l-5.6-0.9c-1.1-0.2-1.9-0.6-2.4-1.2
					c-0.5-0.6-0.7-1.5-0.5-2.5l0.5-3c0.1-0.8,0.5-1.3,1.1-1.7c0.6-0.4,1.3-0.5,2.2-0.4l3.8,0.6c0.9,0.1,1.5,0.5,1.9,1.1
					C117.9,202.7,118,203.4,117.9,204.1"/>
			</g>
		</g>
		<g>
			<defs>
				<rect id="SVGID_15_" x="8" y="24.6" width="234" height="200.8"/>
			</defs>
			<clipPath id="SVGID_16_">
				<use xlink:href="#SVGID_15_"  style="overflow:visible;"/>
			</clipPath>
			<g class="st11">
				<path class="st7" d="M121.4,206.9c0,0.7,0.1,1.2,0.3,1.5c0.3,0.4,0.8,0.6,1.4,0.6l2.2,0.1c0.6,0,1.1-0.2,1.5-0.6
					c0.3-0.3,0.4-0.8,0.4-1.5l0-1.4c0-0.7-0.1-1.2-0.3-1.5c-0.3-0.4-0.8-0.6-1.4-0.6l-4-0.1L121.4,206.9z M119.6,206.9l0.2-8.2
					l1.8,0l-0.1,3l4.1,0.1c1.1,0,1.9,0.4,2.5,1c0.6,0.6,0.9,1.5,0.9,2.7l0,1.6c0,1.1-0.4,2-1,2.6c-0.6,0.6-1.5,0.9-2.6,0.9l-2.4-0.1
					c-1.1,0-2-0.4-2.6-1C119.8,209,119.6,208.1,119.6,206.9"/>
			</g>
		</g>
		<g>
			<defs>
				<rect id="SVGID_17_" x="8" y="24.6" width="234" height="200.8"/>
			</defs>
			<clipPath id="SVGID_18_">
				<use xlink:href="#SVGID_17_"  style="overflow:visible;"/>
			</clipPath>
			<g class="st12">
				<path class="st7" d="M137.2,205.7l-2.9,0.3c-0.9,0.1-1.4,0.6-1.3,1.4l0,0.3c0.1,0.8,0.6,1.1,1.6,1l2.9-0.3
					c1-0.1,1.4-0.6,1.3-1.4l0-0.3C138.7,205.9,138.1,205.6,137.2,205.7 M134.4,210.3c-0.9,0.1-1.6-0.1-2.1-0.5c-0.6-0.4-0.9-1-1-1.8
					l-0.1-0.6c-0.1-0.8,0.1-1.4,0.5-2c0.4-0.5,1.1-0.9,1.9-1l4.8-0.6l0,0c-0.1-0.9-0.7-1.3-1.7-1.2l-5.3,0.6l-0.2-1.6l5.3-0.6
					c1.1-0.1,2,0.1,2.6,0.5c0.7,0.5,1.1,1.2,1.2,2.3l0.4,3.1c0.1,0.8-0.1,1.5-0.6,2c-0.4,0.5-1.1,0.8-2,0.9L134.4,210.3z"/>
			</g>
		</g>
		<g>
			<defs>
				<rect id="SVGID_19_" x="8" y="24.6" width="234" height="200.8"/>
			</defs>
			<clipPath id="SVGID_20_">
				<use xlink:href="#SVGID_19_"  style="overflow:visible;"/>
			</clipPath>
			<g class="st13">
				<path class="st7" d="M143.5,209l-2.6-11.6l1.8-0.4l2.6,11.6L143.5,209z"/>
			</g>
		</g>
		<g>
			<defs>
				<rect id="SVGID_21_" x="8" y="24.6" width="234" height="200.8"/>
			</defs>
			<clipPath id="SVGID_22_">
				<use xlink:href="#SVGID_21_"  style="overflow:visible;"/>
			</clipPath>
			<g class="st14">
				<path class="st7" d="M147.6,208l-3.2-11.4l1.8-0.5l3.2,11.4L147.6,208z"/>
			</g>
		</g>
		<g>
			<defs>
				<rect id="SVGID_23_" x="8" y="24.6" width="234" height="200.8"/>
			</defs>
			<clipPath id="SVGID_24_">
				<use xlink:href="#SVGID_23_"  style="overflow:visible;"/>
			</clipPath>
			<g class="st15">
				<path class="st7" d="M154.8,201.3l-1.3-2.7c-0.6-1.2-0.6-2.3-0.2-3.4c0.4-1,1.2-1.8,2.5-2.4l5.7-2.6l0.7,1.5l-5.7,2.6
					c-0.8,0.4-1.3,0.9-1.5,1.6c-0.2,0.7-0.1,1.4,0.3,2.1l1.2,2.6c0.3,0.8,0.8,1.3,1.5,1.6c0.7,0.3,1.5,0.3,2.3-0.1l5.7-2.6l0.7,1.5
					l-5.7,2.6c-1.3,0.6-2.5,0.7-3.5,0.3C156.2,203.3,155.3,202.5,154.8,201.3"/>
			</g>
		</g>
		<g>
			<defs>
				<rect id="SVGID_25_" x="8" y="24.6" width="234" height="200.8"/>
			</defs>
			<clipPath id="SVGID_26_">
				<use xlink:href="#SVGID_25_"  style="overflow:visible;"/>
			</clipPath>
			<g class="st16">
				<path class="st7" d="M168.8,199.4l-6-10.3l1.6-0.9l6,10.3L168.8,199.4z"/>
			</g>
		</g>
		<g>
			<defs>
				<rect id="SVGID_27_" x="8" y="24.6" width="234" height="200.8"/>
			</defs>
			<clipPath id="SVGID_28_">
				<use xlink:href="#SVGID_27_"  style="overflow:visible;"/>
			</clipPath>
			<g class="st17">
				<path class="st7" d="M175.5,195.2c-0.9,0.7-1.8,0.9-2.8,0.7c-0.9-0.2-1.7-0.7-2.4-1.7l-3-4.1l1.5-1.1l3,4.1
					c0.4,0.6,0.9,1,1.3,1.1c0.6,0.1,1.1,0,1.6-0.4l1.3-0.9c0.5-0.4,0.8-0.9,0.9-1.4c0-0.4-0.2-1-0.6-1.6l-3-4.1l1.5-1.1l3,4.1
					c0.7,1,1,1.9,0.8,2.8c-0.1,0.9-0.7,1.7-1.6,2.4L175.5,195.2z"/>
			</g>
		</g>
		<g>
			<defs>
				<rect id="SVGID_29_" x="8" y="24.6" width="234" height="200.8"/>
			</defs>
			<clipPath id="SVGID_30_">
				<use xlink:href="#SVGID_29_"  style="overflow:visible;"/>
			</clipPath>
			<g class="st18">
				<path class="st7" d="M180.7,186.4c0.5,0.5,0.9,0.7,1.3,0.8c0.5,0.1,1-0.1,1.4-0.5l1.6-1.5c0.5-0.4,0.7-0.9,0.6-1.4
					c-0.1-0.4-0.3-0.9-0.8-1.3l-1-1c-0.5-0.5-0.9-0.8-1.3-0.8c-0.5-0.1-1,0.1-1.5,0.6l-2.9,2.7L180.7,186.4z M179.4,187.7l-5.8-5.9
					l1.3-1.3l2.1,2.1l3-2.8c0.8-0.7,1.6-1.1,2.5-1.1c0.9,0,1.7,0.4,2.6,1.3l1.1,1.2c0.8,0.8,1.2,1.7,1.2,2.6c0,0.9-0.4,1.7-1.2,2.5
					l-1.7,1.7c-0.8,0.7-1.6,1.1-2.5,1.1C181.1,189,180.2,188.5,179.4,187.7"/>
			</g>
		</g>
		<g>
			<defs>
				<rect id="SVGID_31_" x="8" y="24.6" width="234" height="200.8"/>
			</defs>
			<clipPath id="SVGID_32_">
				<use xlink:href="#SVGID_31_"  style="overflow:visible;"/>
			</clipPath>
			<g class="st19">
				<path class="st7" d="M91.1,43.4L96.4,54l-1.7,0.8l-2.8-5.6l-6.3,3.1l2.7,5.6l-1.7,0.8l-5.2-10.6l1.7-0.8l1.8,3.6l6.3-3.1
					l-1.8-3.6L91.1,43.4z"/>
			</g>
		</g>
		<g>
			<defs>
				<rect id="SVGID_33_" x="8" y="24.6" width="234" height="200.8"/>
			</defs>
			<clipPath id="SVGID_34_">
				<use xlink:href="#SVGID_33_"  style="overflow:visible;"/>
			</clipPath>
			<g class="st20">
				<path class="st7" d="M102,47.7l-2.8,0.9c-0.9,0.3-1.2,0.8-1,1.6l0.1,0.3c0.2,0.8,0.8,1,1.7,0.7l2.8-0.9c0.9-0.3,1.3-0.8,1-1.6
					l-0.1-0.3C103.5,47.6,103,47.4,102,47.7 M100.1,52.8c-0.8,0.3-1.6,0.2-2.2-0.1c-0.6-0.3-1.1-0.8-1.3-1.5l-0.2-0.6
					c-0.2-0.7-0.2-1.4,0.2-2c0.3-0.6,0.9-1.1,1.7-1.3l4.6-1.5l0,0c-0.3-0.9-0.9-1.2-1.9-0.9l-5.1,1.6L95.4,45l5.1-1.6
					c1.1-0.3,2-0.3,2.7,0c0.7,0.3,1.3,1,1.6,2l0.9,3c0.2,0.8,0.2,1.5-0.2,2.1c-0.3,0.6-0.9,1-1.8,1.2L100.1,52.8z"/>
			</g>
		</g>
		<g>
			<defs>
				<rect id="SVGID_35_" x="8" y="24.6" width="234" height="200.8"/>
			</defs>
			<clipPath id="SVGID_36_">
				<use xlink:href="#SVGID_35_"  style="overflow:visible;"/>
			</clipPath>
			<g class="st21">
				<path class="st7" d="M109.9,41.1l1.8-0.3c1.1-0.2,2.1,0,2.9,0.5c0.8,0.6,1.2,1.4,1.4,2.6l0.9,5l-1.8,0.3l-0.8-4.9
					c-0.1-0.7-0.4-1.2-0.7-1.5c-0.4-0.4-1-0.5-1.7-0.4l-1.6,0.3c-0.6,0.1-1.1,0.4-1.4,0.9c-0.2,0.4-0.2,0.9-0.1,1.7l0.8,4.9
					l-1.8,0.3l-0.9-5c-0.2-1.2,0-2.2,0.5-2.9C107.9,41.7,108.8,41.3,109.9,41.1"/>
			</g>
		</g>
		<g>
			<defs>
				<rect id="SVGID_37_" x="8" y="24.6" width="234" height="200.8"/>
			</defs>
			<clipPath id="SVGID_38_">
				<use xlink:href="#SVGID_37_"  style="overflow:visible;"/>
			</clipPath>
			<g class="st22">
				<path class="st7" d="M124.8,47.4c-0.7,0.8-1.5,1.2-2.5,1.2h-1.1c-1,0-1.8-0.3-2.5-1c-0.6-0.6-0.9-1.5-0.9-2.6l0-5.3l1.8,0l0,5.4
					c0,0.6,0.1,1.1,0.4,1.4c0.3,0.3,0.7,0.5,1.3,0.5l0.8,0c0.5,0,0.9-0.2,1.3-0.5c0.3-0.3,0.4-0.8,0.4-1.4l0-5.4l1.8,0l0,5.4
					c0,0.6,0.1,1.1,0.4,1.4c0.3,0.3,0.7,0.5,1.3,0.5h0.8c0.5,0,0.9-0.2,1.3-0.5c0.3-0.3,0.4-0.8,0.4-1.4l0-5.4l1.8,0l0,5.3
					c0,1.1-0.3,2-0.9,2.6c-0.6,0.7-1.4,1-2.5,1l-1.1,0C126.3,48.6,125.4,48.2,124.8,47.4"/>
			</g>
		</g>
		<g>
			<defs>
				<rect id="SVGID_39_" x="8" y="24.6" width="234" height="200.8"/>
			</defs>
			<clipPath id="SVGID_40_">
				<use xlink:href="#SVGID_39_"  style="overflow:visible;"/>
			</clipPath>
			<g class="st23">
				<path class="st7" d="M137.8,42.3c-0.7-0.1-1.2,0-1.6,0.4c-0.3,0.3-0.5,0.8-0.7,1.5l-0.8,4.9l-1.8-0.3l2-11.7l1.8,0.3l-0.6,3.5
					c0.6-0.3,1.3-0.3,1.9-0.2l1.8,0.3c1.1,0.2,2,0.7,2.5,1.4c0.5,0.8,0.7,1.7,0.5,2.9l-0.8,5l-1.8-0.3l0.8-4.9
					c0.1-0.7,0.1-1.3-0.2-1.7c-0.3-0.5-0.8-0.8-1.4-0.9L137.8,42.3z"/>
			</g>
		</g>
		<g>
			<defs>
				<rect id="SVGID_41_" x="8" y="24.6" width="234" height="200.8"/>
			</defs>
			<clipPath id="SVGID_42_">
				<use xlink:href="#SVGID_41_"  style="overflow:visible;"/>
			</clipPath>
			<g class="st24">
				<path class="st7" d="M150.1,48.4l-2.8-0.9c-0.9-0.3-1.5,0-1.7,0.7l-0.1,0.3c-0.2,0.8,0.1,1.3,1,1.6l2.8,0.9
					c0.9,0.3,1.5,0.1,1.7-0.7l0.1-0.3C151.4,49.2,151,48.7,150.1,48.4 M145.6,51.5c-0.8-0.3-1.4-0.7-1.7-1.3c-0.3-0.6-0.4-1.3-0.2-2
					l0.2-0.6c0.2-0.7,0.7-1.3,1.3-1.6c0.6-0.3,1.4-0.3,2.2-0.1l4.6,1.5l0,0c0.3-0.9-0.1-1.5-1.1-1.8l-5.1-1.6l0.5-1.5l5.1,1.6
					c1.1,0.3,1.8,0.9,2.2,1.6c0.4,0.7,0.5,1.5,0.1,2.5l-0.9,3c-0.2,0.8-0.7,1.3-1.4,1.6c-0.6,0.3-1.3,0.2-2.2,0L145.6,51.5z"/>
			</g>
		</g>
		<g>
			<defs>
				<rect id="SVGID_43_" x="8" y="24.6" width="234" height="200.8"/>
			</defs>
			<clipPath id="SVGID_44_">
				<use xlink:href="#SVGID_43_"  style="overflow:visible;"/>
			</clipPath>
			<g class="st25">
				<path class="st4" d="M190.9,124.4c0,36.4-29.5,66-66,66c-36.4,0-66-29.5-66-66c0-36.4,29.5-66,66-66
					C161.4,58.4,190.9,87.9,190.9,124.4"/>
			</g>
		</g>
		<g>
			<defs>
				<rect id="SVGID_45_" x="8" y="24.6" width="234" height="200.8"/>
			</defs>
			<clipPath id="SVGID_46_">
				<use xlink:href="#SVGID_45_"  style="overflow:visible;"/>
			</clipPath>
			<g class="st26">
				<path class="st27" d="M188.3,132.3c-0.1-0.1-0.1-0.1-0.2-0.2c-0.1,0-0.1-0.1-0.2-0.1c-0.5,0-0.6,0.6-0.7,1
					c-0.6,2.2-1.2,4.3-1.9,6.4l0,0.1l0,0.1c0.4,1.2,0.8,2.4,1,3.6c0,0.3,0.2,0.6,0.5,0.5c0.1,0,0.2-0.1,0.2-0.1
					c0.5-0.4,0.6-1.2,0.5-1.8c-0.1-1-0.4-2.1-0.7-3c0.5-1.7,1-3.4,1.5-5.1c0.1-0.3,0.1-0.6,0.1-0.9
					C188.5,132.7,188.4,132.5,188.3,132.3"/>
			</g>
		</g>
		<g>
			<defs>
				<rect id="SVGID_47_" x="8" y="24.6" width="234" height="200.8"/>
			</defs>
			<clipPath id="SVGID_48_">
				<use xlink:href="#SVGID_47_"  style="overflow:visible;"/>
			</clipPath>
			<g class="st28">
				<path class="st27" d="M183.9,134.9c-0.7-0.4-1.1,0.6-1.2,1.1c-0.7,2.3-1.5,4.6-2.2,6.8l-0.1,0.2l0.1,0.1c0.8,1.1,1.5,2.2,2,3.3
					c0.2,0.5,0.7,0.6,1,0.1c0.3-0.4,0.6-1.3,0.4-1.8c-0.4-1-0.9-1.9-1.5-2.8c0.6-1.8,1.2-3.6,1.7-5.4c0.1-0.4,0.2-0.8,0-1.2
					C184.2,135.2,184.1,135,183.9,134.9"/>
			</g>
		</g>
		<g>
			<defs>
				<rect id="SVGID_49_" x="8" y="24.6" width="234" height="200.8"/>
			</defs>
			<clipPath id="SVGID_50_">
				<use xlink:href="#SVGID_49_"  style="overflow:visible;"/>
			</clipPath>
			<g class="st29">
				<path class="st27" d="M176.7,145.8c0.6-1.9,1.3-3.8,1.8-5.6c0.2-0.6,0.2-1.3-0.5-1.6c-0.1-0.1-0.3-0.1-0.4-0.1
					c-0.6,0.1-0.9,0.8-1,1.3c-0.7,2.4-1.5,4.8-2.3,7.1l-0.1,0.2l0.2,0.1c1.1,0.9,2.1,1.9,3,3c0.1,0.1,0.2,0.2,0.4,0.3
					c0,0,0.3,0,0.3,0c0.8-0.2,1.3-1.5,0.7-2.2C178.3,147.4,177.5,146.6,176.7,145.8"/>
			</g>
		</g>
		<g>
			<defs>
				<rect id="SVGID_51_" x="8" y="24.6" width="234" height="200.8"/>
			</defs>
			<clipPath id="SVGID_52_">
				<use xlink:href="#SVGID_51_"  style="overflow:visible;"/>
			</clipPath>
			<g class="st30">
				<path class="st27" d="M172.9,152.4c-1-0.8-2-1.4-3.1-2.1c0.6-1.9,1.2-3.8,1.8-5.7c0.1-0.4,0.2-0.8,0-1.2c-0.2-0.3-0.6-0.5-1-0.4
					c-0.7,0.1-0.9,0.7-1.1,1.3c-0.7,2.4-1.4,4.8-2.1,7.2l-0.1,0.3l0.2,0.1c1.4,0.8,2.7,1.6,4,2.5c0.4,0.3,0.9,0.3,1.3-0.1
					C173.2,153.9,173.5,152.9,172.9,152.4"/>
			</g>
		</g>
		<g>
			<defs>
				<rect id="SVGID_53_" x="8" y="24.6" width="234" height="200.8"/>
			</defs>
			<clipPath id="SVGID_54_">
				<use xlink:href="#SVGID_53_"  style="overflow:visible;"/>
			</clipPath>
			<g class="st31">
				<path class="st27" d="M165.9,157.1c-1.2-0.6-2.5-1.1-3.8-1.6c0.5-1.9,1-3.8,1.5-5.7c0.1-0.3,0.2-0.7,0-1
					c-0.2-0.3-0.5-0.5-0.9-0.5c-0.8-0.1-1.3,0.8-1.5,1.5c-0.6,2.4-1.2,4.8-1.8,7.2l-0.1,0.3l0.3,0.1c1.6,0.6,3.3,1.3,4.9,1.9
					c0.4,0.2,0.9,0.1,1.2-0.1c0.2-0.2,0.4-0.5,0.5-0.8C166.5,157.9,166.4,157.3,165.9,157.1"/>
			</g>
		</g>
		<g>
			<defs>
				<rect id="SVGID_55_" x="8" y="24.6" width="234" height="200.8"/>
			</defs>
			<clipPath id="SVGID_56_">
				<use xlink:href="#SVGID_55_"  style="overflow:visible;"/>
			</clipPath>
			<g class="st32">
				<path class="st27" d="M158.9,162.5c-0.1-0.1-0.3-0.2-0.5-0.3c-1.4-0.5-2.9-0.9-4.4-1.2c0.3-1.8,0.6-3.6,1-5.4
					c0.2-0.7-0.2-1.4-1-1.4c-0.9,0-1.4,0.7-1.6,1.5c-0.3,1.3-0.5,2.7-0.8,4c-0.2,1-0.3,1.9-0.4,2.9l0,0.3l0.3,0.1
					c1.9,0.4,3.8,0.8,5.7,1.3c0.2,0.1,0.3,0.1,0.5,0.1c0.5,0,1-0.4,1.2-0.8C159.2,163.2,159.2,162.8,158.9,162.5"/>
			</g>
		</g>
		<g>
			<defs>
				<rect id="SVGID_57_" x="8" y="24.6" width="234" height="200.8"/>
			</defs>
			<clipPath id="SVGID_58_">
				<use xlink:href="#SVGID_57_"  style="overflow:visible;"/>
			</clipPath>
			<g class="st33">
				<path class="st27" d="M151.4,167.7L151.4,167.7c-0.2-0.2-0.4-0.2-0.6-0.3c-1.6-0.3-3.2-0.6-4.9-0.8c0.1-1.6,0.3-3.3,0.5-4.9
					c0.1-1-0.8-1.5-1.7-1.2c-0.6,0.2-1,0.8-1,1.5c-0.3,2.1-0.4,4.2-0.5,6.3l0,0.3l0.3,0c2.1,0.2,4.2,0.5,6.2,0.8
					c0.1,0,0.3,0.1,0.4,0.1c0.6,0,1.1-0.3,1.3-0.8C151.7,168.5,151.6,168.1,151.4,167.7"/>
			</g>
		</g>
		<g>
			<defs>
				<rect id="SVGID_59_" x="8" y="24.6" width="234" height="200.8"/>
			</defs>
			<clipPath id="SVGID_60_">
				<use xlink:href="#SVGID_59_"  style="overflow:visible;"/>
			</clipPath>
			<g class="st34">
				<path class="st27" d="M144.1,173.1c-0.2-0.3-0.5-0.4-0.8-0.4c-1.7-0.2-3.4-0.3-5.2-0.4c0-1.5-0.1-3-0.1-4.4
					c0-0.4-0.1-0.7-0.4-0.9c-0.2-0.1-0.5-0.2-0.7-0.1c-0.9,0.1-1.5,0.7-1.5,1.6c0,1.9,0.1,3.7,0.2,5.6l0,0.3l0.3,0
					c2.2,0.1,4.4,0.3,6.6,0.5c0.1,0,0.2,0,0.3,0c0.7,0,1.4-0.4,1.5-1.1C144.2,173.4,144.2,173.3,144.1,173.1"/>
			</g>
		</g>
		<g>
			<defs>
				<rect id="SVGID_61_" x="8" y="24.6" width="234" height="200.8"/>
			</defs>
			<clipPath id="SVGID_62_">
				<use xlink:href="#SVGID_61_"  style="overflow:visible;"/>
			</clipPath>
			<g class="st35">
				<path class="st27" d="M137,177.8c-0.2-0.1-0.5-0.2-0.7-0.2c-1.8,0-3.5-0.1-5.3-0.1c-0.3-1.3-0.5-2.5-0.6-3.8
					c-0.1-0.4-0.3-0.8-0.8-0.9c-0.5-0.1-0.9,0-1.4,0.2c-0.4,0.3-0.6,0.7-0.5,1.2c0.3,1.6,0.6,3.2,1,4.8l0.1,0.2l0.2,0
					c2.2,0,4.4,0.1,6.6,0.1c0.1,0,0.2,0,0.2,0c0.5,0,1.1-0.2,1.3-0.6c0.1-0.2,0.2-0.5,0.1-0.7C137.2,178,137.1,177.9,137,177.8"/>
			</g>
		</g>
		<g>
			<defs>
				<rect id="SVGID_63_" x="8" y="24.6" width="234" height="200.8"/>
			</defs>
			<clipPath id="SVGID_64_">
				<use xlink:href="#SVGID_63_"  style="overflow:visible;"/>
			</clipPath>
			<g class="st36">
				<path class="st27" d="M130.7,182.1c-0.2-0.2-0.6-0.2-0.8-0.2l-5.3-0.1c-0.4-1-0.8-2-1.2-3c-0.1-0.3-0.4-0.6-0.7-0.7
					c-0.2,0-0.4-0.1-0.6,0c-0.3,0-0.6,0.1-0.8,0.2c-0.4,0.3-0.4,0.7-0.3,1.1c0.4,1.3,1,2.6,1.6,3.8l0.1,0.2l0.2,0
					c1.4,0.1,2.8,0.1,4.2,0.1c0.8,0,1.5,0,2.3,0c0.4,0,0.8,0,1.1-0.2c0.2-0.1,0.3-0.3,0.4-0.5C131,182.5,130.9,182.2,130.7,182.1"/>
			</g>
		</g>
		<g>
			<defs>
				<rect id="SVGID_65_" x="8" y="24.6" width="234" height="200.8"/>
			</defs>
			<clipPath id="SVGID_66_">
				<use xlink:href="#SVGID_65_"  style="overflow:visible;"/>
			</clipPath>
			<g class="st37">
				<path class="st27" d="M125.4,185.6c-0.2-0.3-0.8-0.3-1.1-0.3c-1.7,0-3.4-0.1-5.1-0.2c-0.6-0.7-1.1-1.5-1.6-2.4
					c-0.3-0.5-1-0.5-1.4-0.5c-0.2,0-0.4,0.1-0.6,0.2c-0.3,0.2-0.4,0.7-0.2,1c0.7,1,1.4,2,2.2,2.9l0.1,0.1l0.1,0c2,0.1,4,0.1,6,0.1
					h0.1c0.1,0,0.1,0,0.2,0c0.4,0,0.8-0.1,1-0.3c0.1-0.1,0.2-0.2,0.2-0.3C125.5,185.9,125.5,185.7,125.4,185.6"/>
			</g>
		</g>
		<g>
			<defs>
				<rect id="SVGID_67_" x="8" y="24.6" width="234" height="200.8"/>
			</defs>
			<clipPath id="SVGID_68_">
				<use xlink:href="#SVGID_67_"  style="overflow:visible;"/>
			</clipPath>
			<g class="st38">
				<path class="st27" d="M120.6,187.7c-0.3-0.2-0.7-0.2-1-0.2c-1.6-0.1-3.1-0.2-4.7-0.3c-0.7-0.5-1.3-1.1-2-1.6
					c-0.4-0.3-0.9-0.4-1.4-0.4c-0.2,0-0.4,0.1-0.5,0.2c-0.3,0.2-0.2,0.7,0.1,0.9c0.8,0.7,1.7,1.4,2.6,1.9l0.1,0
					c1.9,0.2,3.8,0.4,5.7,0.5c0.1,0,0.2,0,0.3,0c0.3,0,0.9,0,0.9-0.4C120.8,187.9,120.7,187.8,120.6,187.7"/>
			</g>
		</g>
		<g>
			<defs>
				<rect id="SVGID_69_" x="8" y="24.6" width="234" height="200.8"/>
			</defs>
			<clipPath id="SVGID_70_">
				<use xlink:href="#SVGID_69_"  style="overflow:visible;"/>
			</clipPath>
			<g class="st39">
				<path class="st27" d="M82.9,96.3c-1-1-2.5,0.7-1.6,1.6c0.8,1,1.7,1.9,2.6,2.8c-0.8,1.6-1.5,3.1-2.3,4.7
					c-0.3,0.6-0.3,1.2,0.3,1.6c0.7,0.4,1.4-0.2,1.7-0.8c1-2,1.9-4,2.8-6l0.1-0.2l-0.2-0.2C85.2,98.6,84,97.5,82.9,96.3"/>
			</g>
		</g>
		<g>
			<defs>
				<rect id="SVGID_71_" x="8" y="24.6" width="234" height="200.8"/>
			</defs>
			<clipPath id="SVGID_72_">
				<use xlink:href="#SVGID_71_"  style="overflow:visible;"/>
			</clipPath>
			<g class="st40">
				<path class="st27" d="M89.6,93.6c-0.8-0.6-1.7-0.2-1.9,0.7c-0.1,0.6,0.3,1,0.7,1.3l1,0.8c0.2,0.1,2.1,1.5,2.1,1.5
					c-0.7,1.7-1.4,3.3-2.1,5c-0.3,0.6-0.1,1.4,0.6,1.6c0.8,0.3,1.4-0.3,1.7-1c0.9-2.1,1.8-4.2,2.6-6.4l0.1-0.2l-0.2-0.1
					C92.6,95.7,91,94.6,89.6,93.6"/>
			</g>
		</g>
		<g>
			<defs>
				<rect id="SVGID_73_" x="8" y="24.6" width="234" height="200.8"/>
			</defs>
			<clipPath id="SVGID_74_">
				<use xlink:href="#SVGID_73_"  style="overflow:visible;"/>
			</clipPath>
			<g class="st41">
				<path class="st27" d="M96.9,90.4c-0.6-0.3-1.2-0.3-1.6,0.2c-0.5,0.5-0.5,1.4,0.2,1.7c1.4,0.8,2.7,1.6,4.1,2.4
					c-0.6,1.7-1.1,3.5-1.7,5.2c-0.1,0.2-0.1,0.5-0.1,0.7c0,0.6,0.6,0.9,1.2,0.9c0.8,0,1.2-0.5,1.4-1.2c0.7-2.2,1.4-4.4,2-6.6
					l0.1-0.3l-0.2-0.1C100.5,92.3,98.7,91.3,96.9,90.4"/>
			</g>
		</g>
		<g>
			<defs>
				<rect id="SVGID_75_" x="8" y="24.6" width="234" height="200.8"/>
			</defs>
			<clipPath id="SVGID_76_">
				<use xlink:href="#SVGID_75_"  style="overflow:visible;"/>
			</clipPath>
			<g class="st42">
				<path class="st27" d="M111.1,89.1l-0.3-0.1c-2-0.8-4.1-1.6-6.1-2.4c-0.8-0.3-1.9,0-2,1c-0.1,1,1.4,1.4,2.1,1.7
					c1.1,0.5,2.2,0.9,3.4,1.4c-0.3,1.8-0.7,3.5-1.1,5.3c-0.2,0.7,0.2,1.3,0.9,1.5c0,0,0.1,0,0.1,0c0.9,0.2,1.5-0.5,1.7-1.3
					c0.5-1.9,0.8-3.9,1.2-5.8L111.1,89.1z"/>
			</g>
		</g>
		<g>
			<defs>
				<rect id="SVGID_77_" x="8" y="24.6" width="234" height="200.8"/>
			</defs>
			<clipPath id="SVGID_78_">
				<use xlink:href="#SVGID_77_"  style="overflow:visible;"/>
			</clipPath>
			<g class="st43">
				<path class="st27" d="M110.7,84.1c0.1,0.1,0.3,0.2,0.5,0.3c1.7,0.6,3.4,1.2,5.2,1.7c-0.1,1.7-0.2,3.4-0.4,5.1
					c-0.1,0.7,0.4,1.3,1.1,1.4c0.9,0.1,1.5-0.5,1.6-1.4c0.2-2.2,0.3-4.4,0.3-6.6l0-0.3l-0.2-0.1c-0.4-0.1-0.9-0.2-1.3-0.4
					c-1.7-0.5-3.5-1-5.2-1.5c-0.7-0.2-1.7-0.2-1.9,0.7C110.3,83.5,110.4,83.9,110.7,84.1"/>
			</g>
		</g>
		<g>
			<defs>
				<rect id="SVGID_79_" x="8" y="24.6" width="234" height="200.8"/>
			</defs>
			<clipPath id="SVGID_80_">
				<use xlink:href="#SVGID_79_"  style="overflow:visible;"/>
			</clipPath>
			<g class="st44">
				<path class="st27" d="M118.5,80c1.8,0.4,3.7,0.8,5.5,1.2c0.2,1.6,0.3,3.2,0.4,4.8c0,0.9,0.8,1.4,1.7,1.2c0.7-0.2,1.1-0.8,1-1.5
					c-0.1-2.1-0.4-4.2-0.8-6.2l0-0.2l-0.2,0c-2.3-0.5-4.5-0.9-6.8-1.4c-0.7-0.1-1.8,0-1.8,1C117.5,79.6,118,80,118.5,80"/>
			</g>
		</g>
		<g>
			<defs>
				<rect id="SVGID_81_" x="8" y="24.6" width="234" height="200.8"/>
			</defs>
			<clipPath id="SVGID_82_">
				<use xlink:href="#SVGID_81_"  style="overflow:visible;"/>
			</clipPath>
			<g class="st45">
				<path class="st27" d="M124,74.9c0,0.1,0.1,0.2,0.2,0.2c0.4,0.4,0.9,0.4,1.4,0.5c0.6,0.1,1.1,0.2,1.7,0.3
					c0.6,0.1,1.1,0.2,1.7,0.3c0.2,0,1.6,0.1,1.6,0.2c0.5,1.5,0.9,3,1.3,4.5c0.2,0.8,1,1.1,1.8,1c0.7-0.1,1-0.8,0.8-1.5
					c-0.5-1.9-1.1-3.8-1.8-5.6l-0.1-0.2l-0.2,0c-2.3-0.3-4.5-0.7-6.8-0.9c-0.4,0-0.9-0.1-1.3,0.2C123.8,74.1,123.8,74.6,124,74.9"/>
			</g>
		</g>
		<g>
			<defs>
				<rect id="SVGID_83_" x="8" y="24.6" width="234" height="200.8"/>
			</defs>
			<clipPath id="SVGID_84_">
				<use xlink:href="#SVGID_83_"  style="overflow:visible;"/>
			</clipPath>
			<g class="st46">
				<path class="st27" d="M129.4,70.8c0.3,0.3,0.7,0.4,1,0.5c1.7,0.2,3.5,0.4,5.4,0.6c0.8,1.3,1.5,2.6,2,3.9c0.3,0.7,1.3,1,2,0.7
					c0.6-0.3,0.6-0.9,0.3-1.3c-0.8-1.7-1.7-3.4-2.8-4.9l-0.1-0.1l-0.2,0c-2.2-0.2-4.3-0.4-6.5-0.5c-0.4,0-0.8-0.1-1.1,0.1
					C129,69.9,129.1,70.4,129.4,70.8"/>
			</g>
		</g>
		<g>
			<defs>
				<rect id="SVGID_85_" x="8" y="24.6" width="234" height="200.8"/>
			</defs>
			<clipPath id="SVGID_86_">
				<use xlink:href="#SVGID_85_"  style="overflow:visible;"/>
			</clipPath>
			<g class="st47">
				<path class="st27" d="M133.2,66.7c0.3,0.5,0.8,0.6,1.3,0.7c1.7,0.1,3.3,0.2,5,0.3c1,1,1.9,2.1,2.7,3.3c0.4,0.5,1,0.8,1.7,0.6
					c0.7-0.2,0.6-0.9,0.2-1.4c-1.1-1.4-2.2-2.7-3.5-4l-0.1-0.1l-0.1,0c-2-0.1-4.1-0.3-6.1-0.4C133.8,65.7,132.8,65.9,133.2,66.7"/>
			</g>
		</g>
		<g>
			<defs>
				<rect id="SVGID_87_" x="8" y="24.6" width="234" height="200.8"/>
			</defs>
			<clipPath id="SVGID_88_">
				<use xlink:href="#SVGID_87_"  style="overflow:visible;"/>
			</clipPath>
			<g class="st48">
				<path class="st27" d="M136,63.6c0,0,0.1,0.1,0.1,0.1c0.3,0.3,0.8,0.4,1.2,0.4c1.5,0.1,3,0.2,4.5,0.3c1.1,0.8,2.2,1.6,3.2,2.6
					c0.4,0.4,1.3,0.8,1.9,0.4c0.4-0.3,0-0.9-0.3-1.1c-1.3-1.2-2.7-2.2-4.2-3.1l-0.1,0c-1.8-0.1-3.6-0.3-5.3-0.4
					c-0.4-0.1-1.2-0.1-1.1,0.5C135.9,63.4,135.9,63.5,136,63.6"/>
			</g>
		</g>
		<g>
			<defs>
				<rect id="SVGID_89_" x="8" y="24.6" width="234" height="200.8"/>
			</defs>
			<clipPath id="SVGID_90_">
				<use xlink:href="#SVGID_89_"  style="overflow:visible;"/>
			</clipPath>
			<g class="st49">
				<path class="st27" d="M137.4,61.4c0.3,0.4,0.9,0.4,1.4,0.5c1.3,0.1,2.6,0.2,3.9,0.4c1.2,0.5,2.5,1.2,3.6,1.9
					c0.4,0.2,1.6,0.8,1.8,0.1c0.1-0.4-0.4-0.7-0.6-0.8c-1.4-0.8-2.9-1.6-4.5-2.2l-0.1,0c-1.5-0.2-2.9-0.4-4.4-0.5
					c-0.3,0-1-0.2-1.1,0.2C137.2,61.2,137.3,61.3,137.4,61.4"/>
			</g>
		</g>
		<g>
			<defs>
				<rect id="SVGID_91_" x="8" y="24.6" width="234" height="200.8"/>
			</defs>
			<clipPath id="SVGID_92_">
				<use xlink:href="#SVGID_91_"  style="overflow:visible;"/>
			</clipPath>
			<g class="st50">
				<path class="st4" d="M241.5,97c-1.6-8.2-5.6-15.1-9.4-21.8l-2.4-4.1l-5.2,1.6c-1.8,0.5-3.5,1.1-5.3,1.6c-2.2,0.6-3.7,2-4.5,4.2
					c-1.1,3.2-2.4,6.3-3.8,9.3c-0.2-0.6-0.5-1.1-0.8-1.6c-2-3.3-5.4-5.4-9.6-5.8c-4.7-0.4-9.2,0.7-13.3,3.2
					c-4.6,2.9-8.4,6.5-11.3,11l10-35.1l-7.2,2c-0.3,0.1-0.6,0.1-0.8,0.2l-2.6,0.8c-2.1,0.6-4.2,1.3-6.4,1.9c-2,0.6-3.4,2-4,4
					c-2.3,8.2-4.7,16.3-7,24.4l-7.6,2.3c-2.4,0.7-4.6,1.4-6.9,2.1c-1.7,0.5-2.6,1.8-3,2.5c0,0.1-0.1,0.1-0.1,0.2
					c-6.6-1.4-12.8,0-18.1,4.2c-2.9,2.3-5.4,5-7.5,8.1l1.3-6.6l-8.3,2.5c-2.3,0.7-4.6,1.4-6.8,2.1c-1.8,0.6-2.7,2.1-3,2.6
					c0,0,0,0.1-0.1,0.1c-5.1-1.4-10.1-0.7-14.9,2.1l-4.9-24.1l-14,4.1c-7.2,2.2-14.4,4.4-21.6,6.6c-6.2,1.9-13.4,4.4-20.1,8.7
					c-6.1,3.9-9.9,8.1-12.3,13.3c-3.8,8.4-2.9,15.8,2.7,22c2.2,2.5,4.9,4.5,8,5.7l5.6,2.3c-2.2,7-5.9,12.2-11.1,15.9
					c-2.6,1.8-4.1,4.1-4.7,7c-0.1,0.7-0.3,1.4-0.6,2.1c-0.1,0.4-0.3,0.9-0.4,1.3l-1.2,5.3l6.3-0.3l11.1-3.4
					c9.4-2.9,18.9-5.8,28.3-8.7c6.8-2.1,11.7-5.5,15-10.4c0.6-0.9,1.2-1.8,1.7-2.7c1,0.7,2,1.2,3.1,1.6c3.7,1.3,7.9,1.1,11.4-0.7
					c3-1.5,5.6-3.8,7.9-7c2.5,2.2,6.2,2.9,10.2,1.9c2.2-0.6,4.2-1.6,5.9-2.9l0.1,0.5c0.4,1.4,0.9,3,1.8,4.6
					c3.3,5.3,9.6,7.7,16.3,6.4c5.3-1.1,9.7-4.2,13.1-9.4c2.4-3.6,4.2-7.9,5.6-13.3c2.2-1.2,4.4-2.4,6.4-4.1c0.7-0.6,1.4-1.3,2-1.9
					c3.9,2.5,8.9,2.6,13.7-0.1c3.4-1.9,5.7-4.6,7.3-7.3c2,1.2,4.6,2,8.1,1.9c2.5-0.1,5-0.5,7.5-1.1c6.7-1.8,12.5-5.8,18.3-12.4
					c0.9-1,1.7-2,2.5-3.1c0.2,0.2,0.4,0.4,0.6,0.6c3.5,3.6,8.1,4.9,13.7,4.1c4.9-0.7,9.2-3.3,12-7.3
					C241.4,106.6,242.4,101.8,241.5,97"/>
			</g>
		</g>
		<g>
			<defs>
				<rect id="SVGID_93_" x="8" y="24.6" width="234" height="200.8"/>
			</defs>
			<clipPath id="SVGID_94_">
				<use xlink:href="#SVGID_93_"  style="overflow:visible;"/>
			</clipPath>
			<g class="st51">
				<path class="st52" d="M185.8,104.7c4.9-1.3,9-3.3,12-7.2c1-1.3,1.7-2.7,1.8-4.4c0-1.7-1.1-2.9-2.8-2.5c-1.1,0.3-2.3,0.8-3.2,1.5
					C189.7,95.5,187.7,99.9,185.8,104.7 M140.2,110.6c-3.1-1.7-6.3-1.2-9,1.4c-4.3,4.1-6.6,9.2-7.8,14.9c-0.5,2.4-0.8,4.9-0.1,7.4
					c0.7,2.6,2.7,3.4,4.9,1.7c1.1-0.8,2.1-1.9,2.9-3c2.4-3.3,4-7,5.3-10.8C137.8,118.3,139,114.4,140.2,110.6 M97.4,123.5
					c-0.2-0.2-0.2-0.3-0.3-0.3c-0.1-0.1-0.3-0.1-0.4-0.2c-3.2-1.3-5.9-0.3-8.2,2c-4,3.8-6.2,8.5-7.7,13.7c-0.8,2.7-1.4,5.4-0.9,8.2
					c0.5,3.1,2.6,4.1,5.2,2.3c1.3-0.9,2.4-2.2,3.4-3.5c2.4-3.3,3.9-7.1,5.3-11C95,131,96.2,127.2,97.4,123.5 M180.3,65.2
					c-0.8,2.9-1.6,5.6-2.3,8.3c-4.6,16-9.1,31.9-13.7,47.9c-0.2,0.7-0.4,1.4-0.4,2.2c-0.1,1.2,0.6,1.7,1.8,1.4c2-0.4,3-1.9,4-3.5
					c2.4-3.9,3.5-8.4,4.7-12.8c2.3-9.2,7.1-16.6,15.3-21.7c3.3-2.1,6.9-2.9,10.8-2.6c6.1,0.5,9.3,6.2,6.5,12.1c-1.9,4-5,6.8-8.8,9
					c-3.9,2.3-8.2,3.8-12.7,4.6c-0.9,0.2-1.2,0.5-1.2,1.4c0.1,1.2,0,2.5,0.2,3.6c0.4,1.8,1.9,2.8,3.7,2.8c3.1,0.1,5.7-1.2,8.1-2.9
					c4.4-3.1,7.8-7.3,10.8-11.8c4.9-7.3,8.5-15.3,11.5-23.5c0.3-0.9,0.8-1.4,1.8-1.7c2.5-0.7,5-1.5,7.5-2.3c4,7,8.2,13.9,9.7,22
					c1.5,7.8-3.7,15-11.6,16.2c-3.9,0.6-7.4-0.1-10.2-3c-1.2-1.2-2-2.6-2.3-4.4c1.2,0.4,2.3,0.8,3.4,1.2c1.9,0.5,3.8,0.4,5.7-0.3
					c3.1-1.2,4.6-3.8,4.2-7.4c-0.6-4.7-2.6-9-4.7-13.5c-0.5,1.2-0.9,2.2-1.3,3.2c-3.5,8.6-7.8,16.7-14,23.8
					c-4.5,5.1-9.7,9.4-16.4,11.2c-2.1,0.6-4.3,0.9-6.6,1c-3.7,0.1-6.9-1-9-4.6c-0.4,0.8-0.6,1.5-0.9,2.1c-1.7,3.4-3.7,6.5-7.2,8.4
					c-4,2.2-9.1,2.2-12.1-2.2c-1.4,1.5-2.6,3.3-4.2,4.6c-1.9,1.5-4,2.7-6.1,3.8c-0.8,0.5-1.4,0.9-1.6,1.9c-1.1,4.4-2.6,8.7-5.1,12.6
					c-2.6,3.9-5.9,6.7-10.6,7.7c-5,1-9.6-0.6-12.1-4.6c-0.7-1.1-1-2.3-1.4-3.6c1.6,1,3.3,1.7,5.2,1.8c2.9,0.3,5.3-0.7,7.4-2.6
					c2.2-2.1,3.8-4.6,4.9-7.3c1.3-3.1,2.5-6.3,3.5-9.5c-1.3,1.8-2.4,3.6-3.8,5.3c-1.6,2-3.4,3.8-5.8,4.7c-4,1.6-8.5,0.1-10.8-3.6
					l-0.5-0.9c-0.8,1.6-1.4,3.1-2.3,4.5c-2,3.4-4.7,6.1-8.7,7.2c-3.1,0.8-6,0.1-7.5-2c-0.8-1.1-1.1-2.5-1.6-3.7
					c-0.9,1.5-1.9,3.3-3,4.9c-1.8,2.6-4,4.9-6.9,6.3c-4.4,2.2-11,1.2-13.4-4.3c-0.1-0.1-0.2-0.2-0.1-0.2c-1.4,2.5-2.6,5.2-4.2,7.6
					c-3.1,4.6-7.7,7.2-12.9,8.8c-12.9,4.1-25.9,8-38.9,12c-0.1,0-0.2,0-0.5,0c0.4-1.3,0.8-2.5,1-3.8c0.4-2,1.3-3.3,3-4.5
					c6.8-4.7,10.7-11.4,13-19.2c3.8-13.1,7.5-26.1,11.3-39.2c0.1-0.2,0.1-0.5,0.2-1c-1.7,0.5-3.2,1-4.7,1.5
					c-6.2,2.3-11.5,5.8-14.8,11.6c-3.8,6.7-4.1,13.7-0.5,20.6c0.1,0.1,0.1,0.2,0.3,0.6c-2.5-1.1-4.8-2.7-6.6-4.7
					c-4.8-5.4-4.8-11.5-2-17.7c2.3-5,6.2-8.6,10.8-11.6c5.9-3.8,12.4-6.2,19.1-8.3c10.2-3.1,20.5-6.2,30.7-9.4
					c0.2-0.1,0.3-0.1,0.7-0.2l3.7,18c-0.1,0.1-0.1,0.2-0.2,0.2c-1.9,0.7-1.8,0.7-2.9-1c-0.7-1.1-1.4-2.1-2.1-3.1
					c-2.2-3.1-5.3-4.2-9-3.3c-2.4,0.6-4.8,1.3-7.2,2c-0.3,0.1-0.7,0.5-0.8,0.8c-2.3,8.1-4.6,16.2-6.9,24.3c0,0.1,0,0.3,0,0.6
					c5.1-1.6,10.1-3.1,15.4-4.7c-0.6,2.2-1.2,4.2-1.8,6.1c-0.1,0.3-0.6,0.5-1,0.6c-4.5,1.4-8.9,2.7-13.4,4.1
					c-0.8,0.2-1.2,0.6-1.4,1.5c-1.2,4-2.3,8-3.8,11.9c-2,5.1-5.3,9.2-9.8,12.4c-0.2,0.1-0.4,0.4-0.5,0.6c2.3-0.7,4.6-1.4,6.9-2.1
					c4-1.2,8.1-2.5,12.1-3.7c7.5-2.1,12.6-6.8,15.2-14.1c1.1-3.1,1.9-6.3,2.9-9.4c2.3-6.8,6-12.6,11.7-17.1
					c5.3-4.2,11.1-5.6,17.7-2.6c0.6-1,1.1-2,1.7-3c0.2-0.3,0.4-0.7,0.7-0.8c2.8-0.9,5.7-1.8,8.6-2.7c-0.1,0.4-0.1,0.8-0.2,1.1
					c-2.6,9.1-5.2,18.2-7.8,27.2c-0.2,0.7-0.4,1.5-0.5,2.3c-0.1,1.3,0.6,1.9,1.9,1.6c1.9-0.5,3-2,3.9-3.6c2.4-4,3.6-8.3,4.6-12.8
					c1.8-8,5.4-14.8,11.9-19.9c5-3.9,10.5-4.8,16.6-3c0.3,0.1,0.6,0.2,1,0.3c0,0,0.1,0,0.2-0.1c0.4-0.9,0.9-1.8,1.5-2.7
					c0.2-0.3,0.4-0.6,0.7-0.7c2.8-0.9,5.6-1.7,8.6-2.6c-2.8,11-5.6,21.8-8.5,32.9c2.7-1.3,4.5-3.2,6-5.4c2.9-4.3,4.5-9.2,5.9-14.1
					c4-14.1,8.1-28.2,12.1-42.3c0.2-0.7,0.5-1.1,1.3-1.3c3-0.9,6-1.8,9-2.8C179.5,65.4,179.8,65.3,180.3,65.2"/>
			</g>
		</g>
	</g>
</g>
<g id="레이어_1">
</g>
</svg>
