<?xml version="1.0" encoding="utf-8"?>
<!-- Generator: Adobe Illustrator 25.1.0, SVG Export Plug-In . SVG Version: 6.00 Build 0)  -->
<svg version="1.1" id="Layer_1" xmlns="http://www.w3.org/2000/svg" xmlns:xlink="http://www.w3.org/1999/xlink" x="0px" y="0px"
	 viewBox="0 0 250 250" style="enable-background:new 0 0 250 250;" xml:space="preserve">
<style type="text/css">
	.st0{fill:none;}
	.st1{clip-path:url(#SVGID_2_);}
	.st2{fill:#FFFFFF;}
	.st3{fill:#C7A079;}
	.st4{fill:#071D3D;}
	.st5{fill:#1D467D;}
	.st6{clip-path:url(#SVGID_4_);}
</style>
<g id="Layer_1_1_">
	<rect x="8" y="8" class="st0" width="234" height="234"/>
	<g>
		<g>
			<g>
				<defs>
					<rect id="SVGID_1_" x="8" y="475.6" width="234" height="160.9"/>
				</defs>
				<clipPath id="SVGID_2_">
					<use xlink:href="#SVGID_1_"  style="overflow:visible;"/>
				</clipPath>
				<g transform="matrix(1 0 0 -1 -.003 681.063)" class="st1">
					<path class="st2" d="M185,556.1c0-30.2-24.5-54.7-54.7-54.7s-54.7,24.5-54.7,54.7s24.5,54.7,54.7,54.7
						C160.6,610.8,185,586.3,185,556.1"/>
					<path class="st3" d="M156,578c0,0,3,1,4.3,0.7l0.4,1.1c-1.2,0.6-4.1-0.1-4.1-0.1s-1.4,2.5-2.4,2.7l-0.5-1.2
						C155.2,580.3,156,578,156,578"/>
					<path class="st3" d="M144.7,507.3c0,0-1.2,1.7-2,1.8l-0.4-0.9c1.1-0.7,1.7-2.1,1.7-2.1s2.7,0.6,3.7,0.2l0.4,0.9
						C147.4,507.8,144.7,507.3,144.7,507.3"/>
					<path class="st3" d="M150.2,520.7c0,0-2.3,2.3-3.3,2.2l-0.1-1.2c1.5-0.5,3.1-2.6,3.1-2.6s2.8,1.9,4.2,1.9l0.2,1.2
						C152.9,522.5,150.2,520.7,150.2,520.7"/>
					<path class="st3" d="M158,581.9c0,0,3,0.5,4.3,0.3l0.6,1.2c-1.2,0.4-4.3-0.1-4.3-0.1s-1.3,2.4-2.3,2.5l-0.5-1.2
						C157.3,584,158,581.9,158,581.9"/>
					<path class="st3" d="M160.4,585.7c0,0,2.3,0.1,3.7-0.1l0.7,1.2c-1.2,0.5-3.6,0.4-3.6,0.4s-1.6,1.9-2.5,2.3l-0.6-1.1
						C159.6,587.7,160.4,585.7,160.4,585.7"/>
					<path class="st3" d="M162.6,589.2c0,0,2.2,0.2,3.6-0.1l0.8,1.2c-1.1,0.6-3.5,0.3-3.5,0.3s-1.2,2.1-2.2,2.4l-0.6-1
						C162,591.2,162.6,589.2,162.6,589.2"/>
					<path class="st3" d="M164.8,592.5c0,0,2-0.2,3.3-0.6l0.7,1c-1.1,0.7-3.2,0.8-3.2,0.8s-1.1,2.1-2.1,2.4l-0.6-0.9
						C164.1,594.2,164.8,592.5,164.8,592.5"/>
					<path class="st3" d="M143.3,504.7c0,0-1.2,1.7-1.9,1.8l-0.3-0.9c1-0.7,1.7-2.1,1.7-2.1s2.4,0.5,3.4,0.2l0.3,0.9
						C145.6,505.2,143.3,504.7,143.3,504.7"/>
					<path class="st3" d="M146.2,510.2c0,0-1.7,2.1-2.6,2.2l-0.3-1.1c1.3-0.7,2.3-2.6,2.3-2.6s2.9,1,4.1,0.8l0.4,1.1
						C149,511.1,146.2,510.2,146.2,510.2"/>
					<path class="st3" d="M147.7,513.2c0,0-2.1,2.4-3.1,2.5l-0.2-1.2c1.5-0.6,2.8-2.8,2.8-2.8s2.9,1.8,4.3,1.6l0.3,1.2
						C150.6,514.8,147.7,513.2,147.7,513.2"/>
					<path class="st3" d="M149,517c0,0-2.2,2.4-3.2,2.4l-0.2-1.2c1.5-0.5,3-2.7,3-2.7s2.9,1.8,4.2,1.7l0.2,1.2
						C151.9,518.7,149,517,149,517"/>
					<path class="st3" d="M106.2,595.5l1,0.9c-0.8,0.5-1.7,3.3-1.7,3.3s-2,0.1-2.9,0.3l-1.3-0.9l3.1-0.4
						C104.4,598.7,105.1,596,106.2,595.5"/>
					<path class="st3" d="M109.7,598l1.1,0.8c-1.1,0.5-1.8,3.2-1.8,3.2s-2,0.2-2.8,0.6l-1-0.8c0.7-0.5,2.8-0.8,2.8-0.8
						S108.6,598.4,109.7,598"/>
					<path class="st3" d="M102.9,592.7c0.3,0.3,0.6,0.6,0.9,0.9c-1,1.2-1.3,3.5-1.3,3.5s-2.3,0.1-3.4,0.2c-0.3-0.3-0.8-0.9-0.8-0.9
						l3-0.4C101.3,596,101.9,593.8,102.9,592.7"/>
					<path class="st3" d="M100.1,589.6c0.3,0.3,0.6,0.6,0.9,0.9c-1,1.2-1.5,3.7-1.5,3.7s-2.2,0.1-3.3,0.2c-0.3-0.3-0.6-0.6-0.8-0.9
						l3-0.3C98.4,593.2,99.1,590.7,100.1,589.6"/>
					<path class="st3" d="M113.1,600.4l1.1,0.7c-1.3,0.3-2,3.2-2,3.2s-1.8,0-2.4,0.4c-0.5-0.2-0.9-0.4-1.4-0.7
						c0.7-0.3,2.7-0.5,2.7-0.5S112.1,600.9,113.1,600.4"/>
					<path class="st3" d="M97.9,587.2c-0.9,1-1.7,3.6-1.7,3.6s-2.1-0.1-3.2-0.1l-1-1c1.1-0.2,3.1-0.1,3.1-0.1s0.7-2.2,1.9-3.5
						L97.9,587.2z"/>
					<path class="st3" d="M116.3,603.1c0.3,0.2,1,0.6,1,0.6c-1.2,0.5-1.3,2.6-1.3,2.6s-2.7,0-3.3,0.3c-0.4-0.3-0.8-0.4-1.1-0.7
						c0.5-0.4,3.2-0.6,3.2-0.6S115.1,603.3,116.3,603.1"/>
					<path class="st3" d="M90.5,587.1c-0.3-0.4-0.5-0.7-0.8-1.1l2.8-0.1c0,0,0.6-2.6,1.6-3.5l0.8,1.2c-0.8,1-1.3,3.6-1.3,3.6
						S91.4,587.1,90.5,587.1"/>
					<path class="st3" d="M90.4,583.2c0,0-1.8-0.2-2.7,0l-0.8-1c0.7-0.3,2.7-0.3,2.7-0.3s1-3.4,1.8-3.8l0.7,1.3
						C91.1,580.2,90.4,583.2,90.4,583.2"/>
					<path class="st3" d="M85.3,578.9l-0.7-1.2h2.6c0,0,0.6-2.8,1.8-3.7l0.7,1.2c-0.8,0.8-1.6,3.7-1.6,3.7H85.3z"/>
					<path class="st3" d="M82.9,574.4l-0.5-1.2l2.6,0.1c0,0,1-2.5,2-3.4c0.3,0.4,0.4,1,0.6,1.4c-1.1,1.1-1.9,3.3-1.9,3.3L82.9,574.4
						z"/>
					<path class="st3" d="M118,607.4c0.1-1.1,1.2-2.2,1.2-2.2l0.9,0.6c-0.9,0.7-1.2,2.2-1.2,2.2l-1.7,0.2c-0.9,0-2.7-0.6-2.7-0.6
						C115.5,607.6,118,607.4,118,607.4"/>
					<path class="st3" d="M216.9,551.2l-0.1-0.7c-0.1-0.5-5.5-1.4-10.9-2.6c0.2,1.6,0.3,3.3,0.4,4.9
						C211.7,552,216.9,551.2,216.9,551.2 M171.1,562l-2-16.3c-0.2-1-0.5-2.2-1.4-2.5l-5.4-0.6l2,16.3c0.2,1,0.5,2.3,1.4,2.5
						L171.1,562z M130.4,500.1c-16.8,0-31.9,7.4-42.2,19.2c0.6,0.1,1.1,0.1,1.3,0.1c0.1,0,0.2,0.1,0.2,0.3c0.5,3.9,6,49,6,49.1
						s-0.1,0.1-0.2,0.1s-3-0.5-5.7-1.1c-1.5-0.3-3.1-0.8-4.5-1.6c0,0.1,0,0.1,0,0.2c-1.1,1.1-1.3,3.5-1.3,3.5l-3.1-0.4l-0.4-1.2
						l2.5,0.4c0,0,0.1-1.7,1.1-3c-4.2-2.5-7.8-6.6-9.7-11.2c0,0.5,0,1.1,0,1.6c0,30.9,25.1,56,56,56c23.1,0,42.8-13.9,51.4-33.8
						c-8.7-0.9-19.2-2-19.2-2c-1.3-0.1-2.6-0.4-3.9-0.8l0.1,0.4c-1.2,0.5-4-0.4-4-0.4s-1.6,2.5-2.6,2.6l-0.4-1.2
						c1.4-0.7,2.4-3,2.4-3s1.2,0.5,2.4,0.7c-1.4-0.6-2.7-1.4-4-2.4c-0.6,0.7-1.5,1.5-2,1.5l-0.4-1.2c0.5-0.2,1-0.6,1.4-1.1
						c-4.1-3.5-7-8.4-7.6-13.8c0,0-3.8-31.6-3.9-31.9c0-0.2,0-0.4,0.3-0.4c0.1,0,3.2,0.3,7.3,0.8v-0.3c1.5-0.4,3.3-2.4,3.3-2.4
						s2.6,2.1,4,2.2l0.1,1.2c-1.3,0.2-3.9-1.8-3.9-1.8s-0.9,0.7-1.8,1.3c9,1,21.5,2.3,21.5,2.3c3.7,0.4,7.3,2,10.3,4.3
						c-0.2-0.4-0.4-0.8-0.6-1.2C171.6,513,152.5,500.1,130.4,500.1 M241.8,584.9c-9.9-1-19.8-2.1-29.8-3.1c-3.2-0.3-6.3-1.6-9.1-3.4
						c-9.5,31.1-38.4,53.7-72.6,53.7c-33.6,0-62.1-21.8-72.1-52c-8.2-0.8-29-3-29-3c-15.1-1.6-19.4-13.4-20.6-20.2
						c-1-5.9-0.5-10.1-0.5-11.2c0-0.2,0.1-0.4,0.2-0.5c0.2-0.1,0.4,0,0.7,0.4s6,7.4,6.8,8.3c0.8,0.9,4.4,5.2,11.5,6l23.8,2.5
						c0-0.5-3.1-27.4-3.1-27.4c-0.5-3.5-2.9-5.7-7.2-6.5c0,0,3.7,32.6,3.7,32.7c0,0.1,0,0.1-0.1,0.1s-5.4-0.9-5.4-0.9
						c-8.4-1.8-15.4-9.6-16.5-18.1l-1.8-15.8c-5-0.5-8.3,0-10.4,0.1c-0.7,0-1.4,0.1-1.9,0.2c-0.2,0-0.4-0.2-0.3-0.4
						c0.8-1.3,2.9-4.9,5.5-7.7c3.5-3.8,8.7-5.6,15.2-5.6l16,1.4c9.5,1,15.3,3,18.8,5.5c12.9-23.6,37.9-39.6,66.7-39.6
						c33.6,0,62.1,21.8,72.1,52.1c9.7,1,18.8,2,18.8,2c14.7,1.6,15.3,8.5,15.6,12.2c0,0.4,0.7,6.4,0.8,8.1c0.3,4.5-3,8.6-7.8,9.6
						c-2,0.4-9.9,1.8-15,2.7c0.1,0.1,0.2,0.1,0.3,0.2l14.3,1.5c5,0.5,8.9,4.2,10.7,10.1l1.9,6.1C242,584.7,242,584.9,241.8,584.9"/>
					<path class="st3" d="M144.3,573.9c-0.2,0-30.6-3.2-30.6-3.2c-9.3-1-17.4-9.2-18.6-18.6c0,0-3.9-32-3.9-32.1s0.1-0.1,0.2-0.1
						s18,1.9,20.1,2.1c0.1,0,0.2,0.2,0.2,0.2c0,0.1,3.9,31.9,3.9,31.9c0.2,0.8,0.5,1.7,1.2,1.9l5.5,0.6c0,0-4-33-4.1-33.5
						c0-0.3,0.1-0.4,0.4-0.4c2.9,0.3,19.7,2.1,19.8,2.1c0.1,0,0.3,0.1,0.3,0.3c0.4,3.5,5.9,48.3,5.9,48.6
						C144.6,573.8,144.6,573.9,144.3,573.9"/>
					<path class="st4" d="M69,575.3c-2.2,2.3-5.3,3.3-8.9,3l-30.7-3.2c-10.7-1.1-16.6-8.5-18.3-14.5c-1.1-3.8-1.3-6.1-1.4-7.6
						c0,0-0.2-3.5-0.2-4.6c0-0.2,0-0.2,0.1-0.3c0.1,0,0.1,0,0.2,0.1c0.6,0.6,2,2.6,2.4,3.1c1.2,1.5,3.3,4.2,4.8,5.4
						c1.8,1.5,5.5,4.2,10.5,4.7l24.8,2.6c0.4,0.1,0.7,0,0.8-0.1c0.4-0.4,0.2-1.1,0.2-1.1l-3.2-28.2c-0.7-4.6-4.2-7.4-10.8-8.3
						l3.6,32.4c0,0.2-0.1,0.2-0.2,0.2c-0.2,0-3-0.6-3-0.6c-7.6-1.6-14-8.7-14.9-16.4l-1.6-13.8l-0.5-3.5l-0.9-0.1
						c-1.8-0.2-4.1-0.3-8.7,0c-0.8,0.1-1.2,0.1-1.3,0s0-0.3,0.2-0.6c0.1-0.2,1.9-3.6,5.9-6.5c2.5-1.8,6.3-2.8,11.2-2.8
						c2.7,0,5.5,0.3,8.2,0.5l4.1,0.4c19.2,2,25,4.6,26.7,17.6l3.9,33C72.2,569.7,71.2,573,69,575.3"/>
					<path class="st5" d="M60.2,576.5l-30.7-3.2c-15.7-1.6-17.6-16.4-17.7-17s-0.4-3-0.4-3.2s0-0.2,0.2-0.1c0.1,0.2,1.9,2.5,1.9,2.5
						c0,0.1,5.1,6.6,13.8,7.5l24.8,2.6c0.9,0.1,1.7-0.1,2.1-0.6c0.9-1,0.6-2.9,0.3-4.9c-0.1-0.5-2.9-25.8-2.9-25.8
						c-1.2-8.3-10.4-9.3-13.4-9.6l-0.9-0.1c0,0,3.5,32,3.5,32.2c0,0.1-0.1,0.2-0.3,0.2c-0.1,0-1-0.2-1-0.2c-7-1.5-12.9-8-13.7-15
						l-2.3-18.5c-1.7-0.2-3.6-0.3-5.2-0.3c-1,0-4,0.2-4.3,0.2c-0.2,0-0.3-0.1-0.1-0.3c0.1-0.2,1.1-1.4,1.1-1.4
						c3.2-3.8,7.9-5.7,13.4-5.4s9.6,0.8,13.5,1.2c11.5,1,22.4,2.2,24.2,15.9l3.9,33c0.4,3.1-0.5,5.9-2.4,7.9
						C65.9,575.9,63.1,576.8,60.2,576.5"/>
					<path class="st4" d="M214.9,568.8l14.5,1.5c3.6,0.4,7,3.4,8.3,6.8c0.5,1.3,1.5,4.7,1.7,5.5c0,0.1-0.1,0.2-0.2,0.1
						c-0.1,0-27.2-2.9-27.2-2.9c-8.3-0.9-15.8-8.4-16.8-16.9c0,0-0.7-6.2-0.7-6.3s0-0.1,0.1-0.1l24.3-4.1c0,0-0.2-1-0.4-2.6
						s-10.7-2.8-15-4c-6.4-1.8-12.8-3.4-18.8-10.5c-0.9-1.1-1.6-2.6-2-3.2c-0.1-0.1,0-0.3,0.2-0.3s39,4.1,39,4.1
						c8,0.8,12.3,3.9,13,9l0.1,0.6c0.3,2.1,0.8,6.1,1,8.8c0.2,3.6-2.6,7-6.5,7.9c-2.4,0.5-13.8,2.5-17.2,3.1
						C212.6,567.3,213.5,568.4,214.9,568.8"/>
					<path class="st5" d="M214.7,570.4l14.6,1.6c4.7,0.5,6.7,4.8,7.5,7.4c0,0,0.3,1.1,0.3,1.2c0,0.1-0.1,0.1-0.2,0.1
						c-0.1,0-24.7-2.6-24.7-2.6c-7.5-0.8-14.3-7.6-15.2-15.3l-0.6-4.8c0-0.1,0-0.1,0.1-0.1s24.3-4.3,24.3-4.3c0-0.2,0-0.3-0.1-0.5
						l-0.3-2.4c-0.5-3.3-2.9-3.8-12.7-5.6c-2.3-0.4-15.9-3.5-20.6-9.5c-0.5-0.7-0.9-1.2-1.1-1.5c-0.1-0.2-0.1-0.3,0.1-0.3
						c2.5,0.3,29.6,3.2,33.3,3.6c8.6,0.9,12.8,2.4,13.7,8.2c0.5,3.4,0.9,6.3,1,8.8c0.2,2.8-2.1,5.4-5.3,6.2
						c-2.7,0.6-18.1,3.2-18.2,3.2c-0.1,0-0.4,0.2-0.4,0.5C210.8,568.6,213,570,214.7,570.4"/>
					<path class="st2" d="M213.4,576l22,2.3c0.2,0.5,0.3,0.9,0.5,1.3l-23.6-2.5c-7.1-0.7-13.5-7.2-14.4-14.4l-0.5-4l1.2-0.2l0.4,3.1
						C199.9,569.2,206.3,575.2,213.4,576"/>
					<path class="st2" d="M211.6,561.7c1.6-0.3,15.6-2.7,18.2-3.2c1-0.2,1.9-0.6,2.6-1.2c-0.8,1.1-2.1,2-3.7,2.4
						c-2.7,0.5-16.6,2.9-18.2,3.2h-0.1C210.6,562.2,211.1,561.8,211.6,561.7"/>
					<path class="st2" d="M222.4,549.4l0.3,2.2c0.1,0.7,0.3,1.6-0.4,1.7l-0.6,0.1c0-0.2-0.3-2.8-0.3-2.8c-0.7-4.3-2.5-4.4-13.5-6.4
						c-4.2-0.8-17.2-4.8-20-9.1c0.8,0.1,1.6,0.2,2.3,0.2c4.3,3.7,15,7,18.8,7.7C220,545,221.7,545.1,222.4,549.4"/>
					<path class="st4" d="M88.4,565.5c-6.5-1.9-12.6-9.1-13.4-16.2c0,0-3.6-29.6-3.6-29.8c0-0.3,0.2-0.3,0.3-0.3
						c0.1,0,15,1.6,16.4,1.7c0.1,0,0.1,0.1,0.1,0.1c0.3,2.6,5.5,45.5,5.5,45.6s-0.1,0.2-0.2,0.1C93.3,566.8,91,566.3,88.4,565.5"/>
					<path class="st5" d="M90.4,564.2c-7-1.5-12.9-8-13.7-15c0,0-3.4-27.7-3.4-27.8c0-0.2,0-0.3,0.3-0.2c0.2,0,11.8,1.3,12.9,1.4
						c0.1,0,0.1,0,0.1,0.1c0.3,2.3,5.1,41.7,5.1,41.7c0,0.1,0,0.2-0.2,0.1C91.4,564.5,90.4,564.2,90.4,564.2"/>
					<path class="st2" d="M90.4,561.8l0.2,1.5c-6.5-1.4-12.2-7.5-13-14.2l-3.3-26.9l1.3,0.1l3.1,25.6
						C79.4,554.7,84.4,559.9,90.4,561.8"/>
					<path class="st4" d="M113.8,568.8c-8.3-0.9-15.8-8.4-16.9-16.9c0,0-3.6-29.9-3.6-30s0-0.2,0.1-0.2s14.7,1.5,16.5,1.7
						c0.1,0,0.2,0.1,0.2,0.2c0,0.1,3.7,30.4,3.7,30.4c0.5,2,1.4,3.2,2.7,3.6l7.8,0.8c0,0-4-33.2-4.1-33.5s0.1-0.4,0.3-0.4
						c2.5,0.3,16.2,1.7,16.3,1.7s0.2,0.1,0.2,0.2c0.4,3,5.5,44.6,5.5,44.9c0,0.3-0.2,0.4-0.4,0.4C142,571.8,113.8,568.8,113.8,568.8
						"/>
					<path class="st5" d="M113.9,567c-7.5-0.8-14.3-7.6-15.2-15.3c0,0-3.4-27.8-3.4-27.9c0-0.1,0-0.2,0.1-0.2s11.5,1.2,13,1.4
						c0.1,0,0.2,0.1,0.2,0.2c0,0.1,3.5,29.1,3.5,29.1c0.8,3.7,3,4.8,4.3,5.1l9.4,1c0.1,0,0.2,0,0.3-0.1c0.1-0.1,0.1-0.2,0.1-0.4
						c0,0-4-32.8-4-33s0.1-0.4,0.4-0.3c2.2,0.2,12.6,1.3,12.7,1.3c0.2,0,0.2,0.2,0.3,0.3c0.3,2.6,5,41.4,5.1,41.5
						c0,0.1-0.1,0.2-0.2,0.2C140.3,569.8,113.9,567,113.9,567"/>
					<path class="st2" d="M115.1,564.9l24.3,2.6l0.1,1.3L114,566c-7.1-0.7-13.5-7.2-14.4-14.4l-3.3-26.9l1.3,0.1l3.1,25.6
						C101.6,557.7,108,564.2,115.1,564.9"/>
					<path class="st2" d="M128,559.7c-0.2,0.2-0.5,0.3-0.7,0.4c0-0.1,0-0.3,0-0.4l-3.9-32.2l1.3,0.1l3.8,30.9
						C128.4,559,128.2,559.4,128,559.7"/>
					<path class="st2" d="M25.6,521.2l2.4,19.3c0.8,6.3,5.8,12,11.7,13.9c0.1,1,0.1,1.5,0.1,1.5c-6.5-1.4-12.2-7.5-13-14.2
						l-2.4-19.3c-3.2-0.3-6.7-0.4-8.6-0.2c0.4-0.5,1-1.1,1.1-1.1C19,520.6,22.3,520.9,25.6,521.2"/>
					<path class="st2" d="M30.6,571.2l30.7,3.2c2.4,0.3,4.6-0.4,6.2-1.7c-0.2,0.2-0.4,0.4-0.6,0.6c-1.7,1.7-4.1,2.5-6.7,2.2
						l-30.7-3.2c-15.1-1.6-16.8-16.2-16.8-16.2s0.6,0.8,1.9,2C16,562.5,20,570.1,30.6,571.2"/>
					<path class="st2" d="M39.5,522.7c3.1,0.3,12.9,1.4,14.2,10.4c0,0,2.8,25.3,2.9,25.8c0.3,2.3,0.6,4.5-0.6,5.8
						c-0.2,0.2-0.4,0.4-0.7,0.5c0.7-1.3,0.4-3.2,0.2-5.1c-0.1-0.5-2.9-25.8-2.9-25.8c-1.3-9-11.1-10.1-14.2-10.4l-0.9-0.1l-0.2-1.3
						L39.5,522.7z"/>
					<path class="st4" d="M168.1,541.4l-7.7-0.8l2.2,18.5c0.3,1.6,1,3.7,2.9,4.2l7.7,0.8l-2.3-18.4
						C170.7,543.9,170,541.8,168.1,541.4 M162.6,574.3c-8.3-0.9-15.8-8.4-16.9-16.9c0,0-3.6-29.8-3.6-29.9c0-0.1,0-0.3,0.2-0.2
						c0.2,0,28.6,3,28.6,3c8.2,0.9,15.8,8.5,16.8,16.9c0,0,3.6,29.7,3.6,29.9s-0.2,0.3-0.3,0.2C190.9,577.3,162.6,574.3,162.6,574.3
						"/>
					<path class="st5" d="M172.7,545.5L172.7,545.5c-0.6-4.1-2.7-5.4-4.4-5.8l-9.4-1c-0.1,0-0.2,0-0.3,0.1s-0.1,0.2-0.1,0.4l2.4,20
						c0.6,4.1,2.7,5.4,4.4,5.7h0.1l9.2,1c0.1,0,0.3,0,0.4-0.1c0.1-0.1,0.1-0.2,0.1-0.4L172.7,545.5z M189.3,575.3
						c-0.1,0-26.5-2.8-26.5-2.8c-7.5-0.8-14.3-7.7-15.2-15.3c0,0-3.4-27.7-3.4-27.8c0-0.2,0.1-0.3,0.3-0.3c0.1,0,26.4,2.8,26.4,2.8
						c7.5,0.8,14.3,7.6,15.3,15.3c0,0,3.4,27.8,3.4,27.9C189.5,575.2,189.4,575.3,189.3,575.3"/>
					<path class="st2" d="M176.1,565.2l-2.4-20.1c-0.7-4.9-3.6-6.2-5.2-6.5l-9.4-1c-0.1,0-0.3,0-0.4,0c0-0.3,0.2-0.6,0.4-0.8
						c0.3-0.3,0.7-0.4,1.1-0.4l9.4,1c1.6,0.3,4.5,1.7,5.2,6.5l2.4,20.1c0.1,0.4-0.1,0.8-0.4,1.1c-0.2,0.2-0.4,0.3-0.7,0.4
						C176.1,565.5,176.1,565.3,176.1,565.2"/>
					<path class="st2" d="M163.9,570.4l24.3,2.6l0.2,1.3l-25.6-2.7c-7.1-0.7-13.5-7.2-14.4-14.4l-3.3-26.9l1.3,0.1l3.1,25.6
						C150.4,563.2,156.9,569.6,163.9,570.4"/>
					<path class="st4" d="M209.2,552.4c-1,0.2-2,0.3-3,0.5l0,0c0-0.6-0.1-1.2-0.1-1.8s-0.1-1.2-0.1-1.7c0-0.4-0.1-0.9-0.1-1.3
						c1,0.2,2.1,0.4,3.1,0.6C209,549.9,209.1,551.2,209.2,552.4"/>
					<path class="st4" d="M58.3,580c1.2,3.7,2.8,7.4,4.6,10.9v0.1c0.4,0.9,0.9,1.7,1.4,2.5c0,0,0,0,0,0.1c1.9,3.3,4,6.5,6.4,9.5
						c0.1,0.1,0.2,0.2,0.3,0.4c0.5,0.7,1.1,1.3,1.6,2c0.1,0.1,0.2,0.3,0.3,0.4c1.8,2,3.6,4,5.6,5.9c0.1,0.1,0.2,0.2,0.3,0.2
						c0.6,0.5,1.1,1,1.7,1.5c0.3,0.2,0.5,0.4,0.8,0.7c0.5,0.5,1.1,0.9,1.6,1.3c0.3,0.2,0.6,0.5,0.9,0.7c0.5,0.4,1.1,0.8,1.6,1.3
						c0.3,0.2,0.6,0.4,0.9,0.6c1,0.7,2,1.4,3,2c0.4,0.3,0.8,0.5,1.3,0.8s1,0.6,1.5,0.9c0.9,0.6,1.9,1.1,2.9,1.6
						c0.5,0.3,1.1,0.5,1.6,0.8c0.5,0.2,0.9,0.5,1.4,0.7c0.8,0.4,1.5,0.7,2.3,1c0.5,0.2,0.9,0.4,1.4,0.6c0.8,0.3,1.6,0.6,2.3,0.9
						c0.4,0.2,0.8,0.3,1.3,0.4c0.7,0.2,1.3,0.5,2,0.7c0.4,0.1,0.9,0.3,1.3,0.4c0.7,0.2,1.4,0.4,2.1,0.6c0.4,0.1,0.8,0.2,1.2,0.3
						c1.1,0.3,2.1,0.5,3.2,0.7c0.1,0,0.2,0,0.3,0.1c1.1,0.2,2.1,0.4,3.2,0.6c0.4,0.1,0.7,0.1,1.1,0.2c0.8,0.1,1.6,0.2,2.4,0.3
						c0.4,0,0.8,0.1,1.2,0.1c0.8,0.1,1.6,0.1,2.5,0.2c0.4,0,0.7,0.1,1.1,0.1c1.2,0.1,2.4,0.1,3.6,0.1c1.2,0,2.4,0,3.6-0.1
						c0.4,0,0.8,0,1.1-0.1c0.8,0,1.6-0.1,2.5-0.2c1.2-0.1,2.4-0.3,3.6-0.4c0.4-0.1,0.8-0.1,1.2-0.2c0.9-0.1,1.8-0.3,2.7-0.5
						c0.3-0.1,0.5-0.1,0.8-0.1c1.1-0.2,2.2-0.5,3.4-0.8c0.3-0.1,0.6-0.2,0.9-0.2c0.8-0.2,1.6-0.4,2.4-0.7c0.4-0.1,0.8-0.2,1.2-0.4
						c0.7-0.2,1.4-0.5,2.1-0.7c0.4-0.1,0.8-0.3,1.2-0.4c0.7-0.3,1.4-0.6,2.1-0.8c0.3-0.1,0.7-0.3,1-0.4c1-0.4,2-0.9,3-1.4
						c0.2-0.1,0.4-0.2,0.6-0.3c0.8-0.4,1.6-0.8,2.4-1.2c0.4-0.2,0.8-0.4,1.1-0.6c0.6-0.3,1.2-0.7,1.8-1c0.4-0.2,0.8-0.5,1.2-0.7
						c0.6-0.4,1.1-0.7,1.7-1.1c0.4-0.3,0.8-0.5,1.2-0.8c0.6-0.4,1.2-0.9,1.9-1.3c0.3-0.2,0.6-0.4,0.9-0.6c0.8-0.6,1.7-1.3,2.5-2
						c0.4-0.3,0.7-0.6,1.1-0.9c0.5-0.4,1-0.8,1.4-1.2c0.4-0.3,0.8-0.7,1.2-1.1c0.4-0.4,0.9-0.8,1.3-1.2c0.4-0.4,0.8-0.7,1.1-1.1
						c0.4-0.4,0.8-0.9,1.2-1.3c0.4-0.4,0.7-0.8,1.1-1.1c0.6-0.7,1.2-1.4,1.8-2.1c0.4-0.5,0.8-1,1.2-1.5c0.4-0.4,0.7-0.9,1.1-1.3
						c0.3-0.5,0.7-0.9,1-1.4c0.3-0.4,0.6-0.9,0.9-1.3c0.3-0.5,0.7-1,1-1.5c0.3-0.4,0.6-0.9,0.8-1.3c0.3-0.5,0.6-1,0.9-1.5
						c0.3-0.4,0.5-0.9,0.8-1.3c0.5-1,1.1-1.9,1.6-2.9c0.2-0.4,0.5-0.9,0.7-1.3c0.3-0.6,0.5-1.1,0.8-1.7c0.2-0.5,0.4-0.9,0.6-1.4
						c0.2-0.6,0.5-1.1,0.7-1.7c0.2-0.5,0.4-0.9,0.5-1.4c0.2-0.6,0.4-1.2,0.7-1.8c0.2-0.5,0.3-0.9,0.5-1.4c0.2-0.6,0.4-1.2,0.6-1.8
						c0.8,0.6,1.7,1.1,2.7,1.5c-0.7,2.3-1.6,4.6-2.5,6.9c-4,9.4-9.7,17.8-16.9,25.1c-7.3,7.2-15.7,12.9-25.1,16.9
						c-9.7,4.1-20.1,6.2-30.7,6.2s-21-2.1-30.7-6.2c-9.4-4-17.8-9.7-25.1-16.9C67.7,605,62,596.5,58,587.1c-1-2.3-1.9-4.7-2.6-7.2
						C56.2,579.8,57.3,579.9,58.3,580"/>
					<path class="st4" d="M202.4,532.2c-1.2-3.7-2.8-7.4-4.6-10.8c0,0,0-0.1-0.1-0.1c-0.4-0.8-0.9-1.7-1.4-2.5c0,0,0,0,0-0.1
						c-1.9-3.3-4-6.5-6.3-9.5c-0.1-0.1-0.2-0.2-0.3-0.4c-0.5-0.7-1.1-1.3-1.6-2c-0.1-0.1-0.2-0.3-0.3-0.4c-1.8-2-3.6-4-5.6-5.8
						c-0.1-0.1-0.2-0.2-0.3-0.3c-0.5-0.5-1.1-1-1.7-1.5c-0.3-0.2-0.5-0.5-0.8-0.7c-0.5-0.5-1.1-0.9-1.6-1.3
						c-0.3-0.2-0.6-0.5-0.9-0.7c-0.5-0.4-1.1-0.8-1.6-1.2c-0.3-0.2-0.6-0.4-0.9-0.7c-1-0.7-1.9-1.4-2.9-2c-0.4-0.3-0.8-0.6-1.3-0.8
						c-0.5-0.3-1-0.6-1.5-0.9s-0.9-0.6-1.4-0.8c-0.5-0.3-1-0.5-1.5-0.8s-1.1-0.5-1.6-0.8c-0.5-0.2-0.9-0.5-1.4-0.7
						c-0.8-0.4-1.6-0.7-2.3-1.1c-0.4-0.2-0.9-0.4-1.3-0.6c-0.8-0.3-1.6-0.6-2.3-0.9c-0.4-0.2-0.8-0.3-1.3-0.4
						c-0.7-0.2-1.3-0.5-2-0.7c-0.4-0.1-0.9-0.3-1.3-0.4c-0.7-0.2-1.4-0.4-2.1-0.6c-0.4-0.1-0.8-0.2-1.2-0.3
						c-1.1-0.3-2.2-0.5-3.2-0.7c-0.1,0-0.2,0-0.3-0.1c-1.1-0.2-2.1-0.4-3.2-0.6c-0.4-0.1-0.8-0.1-1.1-0.2c-0.8-0.1-1.6-0.2-2.4-0.3
						c-0.4,0-0.8-0.1-1.2-0.1c-0.8-0.1-1.6-0.1-2.5-0.2c-0.4,0-0.7-0.1-1.1-0.1c-1.2-0.1-2.4-0.1-3.6-0.1c-1.2,0-2.3,0-3.5,0.1
						c-0.3,0-0.6,0-0.9,0c-1,0.1-2,0.1-3,0.2c-0.1,0-0.3,0-0.4,0c-1.1,0.1-2.2,0.3-3.4,0.4c-0.3,0-0.6,0.1-0.9,0.1
						c-0.9,0.1-1.8,0.3-2.8,0.5c-0.2,0-0.4,0.1-0.6,0.1c-1.1,0.2-2.1,0.5-3.2,0.7c-0.3,0.1-0.5,0.1-0.8,0.2
						c-0.9,0.2-1.7,0.5-2.6,0.7c-0.3,0.1-0.5,0.2-0.8,0.2c-1,0.3-2.1,0.7-3.1,1c-0.2,0.1-0.5,0.2-0.7,0.3c-0.8,0.3-1.6,0.6-2.4,1
						c-0.3,0.1-0.6,0.2-0.8,0.3c-1,0.4-1.9,0.9-2.9,1.3c-0.2,0.1-0.4,0.2-0.6,0.3c-0.8,0.4-1.6,0.8-2.4,1.2
						c-0.3,0.2-0.6,0.3-0.9,0.5c-0.9,0.5-1.8,1-2.7,1.6c-0.1,0.1-0.3,0.2-0.4,0.2c-1.1,0.7-2.1,1.4-3.2,2.1c-0.7,0.5-1.5,1-2.2,1.5
						c-0.2,0.1-0.3,0.2-0.5,0.3c-0.8,0.6-1.6,1.2-2.4,1.9c-0.3,0.2-0.6,0.5-0.8,0.7c-0.6,0.5-1.2,1-1.8,1.6
						c-0.2,0.2-0.4,0.4-0.6,0.6c-0.7,0.7-1.5,1.4-2.2,2.1c-0.3,0.3-0.5,0.5-0.8,0.8c-0.5,0.5-1,1.1-1.6,1.6
						c-0.2,0.3-0.5,0.5-0.7,0.8c-0.7,0.7-1.3,1.5-2,2.3c-0.2,0.3-0.5,0.6-0.7,0.8c-0.5,0.6-0.9,1.1-1.4,1.7
						c-0.2,0.3-0.5,0.6-0.7,0.9c-0.6,0.8-1.2,1.6-1.7,2.4c-0.2,0.3-0.4,0.6-0.6,0.9c-0.4,0.6-0.8,1.2-1.2,1.9
						c-0.2,0.3-0.4,0.7-0.6,1c-0.5,0.9-1,1.7-1.5,2.6c-0.7-0.5-1.6-1.1-2.6-1.6c3.6-6.6,8.1-12.6,13.4-17.9
						c7.2-7.2,15.7-12.9,25.1-16.9c9.7-4.1,20.1-6.2,30.7-6.2s21,2.1,30.7,6.2c9.4,4,17.8,9.7,25.1,16.9
						c7.2,7.3,12.9,15.7,16.9,25.1c1,2.4,1.9,4.8,2.6,7.2C204.6,532.4,203.5,532.3,202.4,532.2"/>
					<path class="st4" d="M85.3,605.9l-0.4,0.5c-0.3,0.3-0.6,0.5-0.8,0.6c-0.3,0.1-0.5,0-0.7-0.1c-0.3-0.2-0.4-0.5-0.4-0.7
						s0.2-0.5,0.4-0.7l3.5-3.8c0.2-0.2,0.4-0.4,0.6-0.4s0.4,0.1,0.6,0.3c0.1,0.1,0.2,0.3,0.3,0.4c0,0.1,0,0.3,0,0.4
						c-0.1,0.2-0.1,0.3-0.2,0.4c-0.1,0.1-0.2,0.3-0.3,0.4l-0.6,0.7l1.8,1.6l0.9-0.9c0.6-0.7,0.9-1.4,0.9-2.2
						c-0.1-0.8-0.5-1.6-1.4-2.4c-0.8-0.7-1.6-1.1-2.3-1c-0.7,0.1-1.5,0.5-2.2,1.3l-2.9,3.1c-0.8,0.8-1.1,1.6-1.1,2.4
						c0,0.8,0.5,1.5,1.3,2.3c0.8,0.7,1.6,1.1,2.3,1.1c0.8,0,1.5-0.3,2.2-1.1l0.6-0.6L85.3,605.9z"/>
					<path class="st4" d="M95.3,605.3l-5.5,8.8l2.1,1.3L94,612l1.4,0.9l-2.1,3.4l2.1,1.3l5.5-8.8l-2.1-1.3l-2.3,3.7l-1.4-0.9
						l2.3-3.7L95.3,605.3z"/>
					<path class="st4" d="M104.7,619.9L104.7,619.9l1-4.6l1.3,0.5L104.7,619.9z M104.4,610.6l-1.7,10.5l2.7,1.1l5.9-8.8l-2.3-0.9
						l-1.1,1.7l-1.8-0.7l0.5-2L104.4,610.6z"/>
					<path class="st4" d="M116.2,620.6L116.2,620.6l1.3-5.7l-2.3-0.4l-2,10.2l2.5,0.5l3-5.3l0,0l-1.4,5.7l2.3,0.5l2-10.2l-2.4-0.5
						L116.2,620.6z"/>
					<path class="st4" d="M131,616.3l-0.1,0.9l0,0c-0.2-0.4-0.5-0.7-0.8-0.9s-0.7-0.3-1.3-0.3c-0.5,0-0.9,0.1-1.3,0.2
						c-0.3,0.1-0.6,0.4-0.9,0.7c-0.2,0.3-0.4,0.6-0.5,1s-0.1,0.8-0.2,1.3l-0.1,4.3c0,1.1,0.2,2,0.8,2.5c0.5,0.5,1.3,0.8,2.5,0.8
						c1.1,0,1.9-0.2,2.5-0.7s0.9-1.2,0.9-2.3V623h-2.4v0.6c0,0.5-0.1,0.8-0.2,1c-0.1,0.2-0.3,0.3-0.6,0.3c-0.4,0-0.6-0.1-0.7-0.3
						c-0.1-0.2-0.2-0.5-0.2-0.8l0.1-5.1c0-0.3,0.1-0.5,0.2-0.7c0.2-0.2,0.4-0.2,0.7-0.2c0.2,0,0.3,0,0.5,0.1
						c0.1,0.1,0.2,0.2,0.3,0.3s0.1,0.3,0.1,0.4c0,0.1,0,0.3,0,0.5v0.8h-0.9v1.9h3.3l0.1-5.7L131,616.3z"/>
					<path class="st4" d="M144.6,617.8L144.6,617.8l2.2,7l2.3-0.4l-3.7-9.9l-2.7,0.5l0.7,7.3l0,0l-2.2-7l-2.7,0.5l0.3,10.5l2.3-0.5
						l-0.7-7.3l0,0l2.4,6.9l2.3-0.5L144.6,617.8z"/>
					<path class="st4" d="M157.6,617.9c0.1,0.2,0.1,0.3,0.2,0.5c0,0.1,0.1,0.3,0.1,0.4c0,0.1,0,0.3-0.1,0.4
						c-0.1,0.1-0.2,0.2-0.4,0.3s-0.3,0.1-0.5,0.1c-0.1,0-0.3-0.1-0.4-0.2c-0.1-0.1-0.2-0.2-0.3-0.4c-0.1-0.1-0.2-0.3-0.2-0.5
						l-1.7-3.9c-0.1-0.2-0.1-0.3-0.2-0.5c0-0.2-0.1-0.3-0.1-0.5s0-0.3,0.1-0.4c0.1-0.1,0.2-0.2,0.4-0.3s0.3-0.1,0.5-0.1
						c0.1,0,0.3,0.1,0.4,0.2c0.1,0.1,0.2,0.2,0.3,0.4c0.1,0.1,0.2,0.3,0.2,0.5L157.6,617.9z M158.2,613.2c-0.5-1.1-1.1-1.8-1.7-2.2
						c-0.7-0.3-1.6-0.3-2.7,0.2c-1.1,0.5-1.8,1.1-2,1.8s-0.1,1.7,0.4,2.8l1.7,3.9c0.4,0.9,1,1.5,1.7,1.8s1.6,0.2,2.6-0.2
						s1.6-1,1.9-1.7c0.3-0.7,0.3-1.5-0.1-2.4L158.2,613.2z"/>
					<path class="st4" d="M165.9,611.7L165.9,611.7l-3.1-5l-1.9,1.3l5.8,8.7l2.1-1.4l-1.6-5.9l0,0l3,5l1.9-1.3l-5.8-8.7l-2.1,1.4
						L165.9,611.7z"/>
					<path class="st4" d="M78.5,600l0.8-2.4l2.1,1.4l-0.9-2.4l2.6-0.3l-2.3-1.2l1.8-1.9l-2.5,0.5l0.1-2.6l-1.6,2l-1.5-2.1v2.6
						l-2.5-0.6l1.7,1.9l-2.3,1.2l2.5,0.4l-1,2.4l2.2-1.3L78.5,600z"/>
					<path class="st4" d="M175.4,607.6l0.8-2.4l2.2,1.4l-0.9-2.4l2.6-0.3l-2.3-1.2l1.8-1.9l-2.5,0.5l0.1-2.6l-1.6,2l-1.5-2.1v2.6
						l-2.5-0.6l1.7,1.9l-2.3,1.2l2.5,0.4l-1,2.4l2.2-1.3L175.4,607.6z"/>
					<path class="st4" d="M95.8,500.2l2.3,1.2l-2.6,0.3l0.9,2.4l-2.1-1.4l-0.8,2.4l-0.7-2.5l-2.2,1.3l1-2.4l-2.5-0.4l2.3-1.2
						l-1.7-1.9l2.5,0.6V496l1.5,2.1l1.6-2l-0.1,2.6l2.5-0.5L95.8,500.2z"/>
					<path class="st4" d="M178.8,510.3l0.9,2.4l-2.2-1.4l-0.8,2.4l-0.7-2.5l-2.2,1.3l1-2.4l-2.5-0.4l2.3-1.2l-1.7-1.9l2.5,0.6v-2.6
						l1.5,2.1l1.6-2l-0.1,2.6l2.5-0.5l-1.8,1.9l2.3,1.2L178.8,510.3z"/>
					<path class="st4" d="M103.4,501.3l5.5-2.4l-0.8-2l-3.1,1.3l-0.7-1.6l2.9-1.2l-0.8-1.9l-2.9,1.2l-0.8-1.9l3.2-1.4l-0.8-2
						l-5.6,2.4L103.4,501.3z"/>
					<path class="st4" d="M115.1,494.1l0.1,0.2c0.1,0.6,0,1.1-0.5,1.2c-0.6,0.1-0.9-0.2-1-0.7c-0.5-1.9,3.9-2,3-5.6
						c-0.5-2.1-2-2.7-4.2-2.2c-2.1,0.5-3.1,1.6-2.6,3.6l0.1,0.3l2.5-0.6l-0.1-0.2c-0.2-0.8,0.1-1.2,0.6-1.4c0.5-0.1,0.9,0.2,1.1,0.7
						c0.5,1.9-3.8,2-2.9,5.5c0.5,2,1.8,2.8,4,2.3c2.2-0.6,3-1.7,2.4-3.8L115.1,494.1z"/>
					<path class="st4" d="M122.7,493.5l-2,0.2l0.2,2.2l6.6-0.6l-0.2-2.2l-2,0.2l-0.7-7.9l-2.6,0.2L122.7,493.5z"/>
					<path class="st4" d="M129.2,488h2.4v-2.8h-2.4V488z"/>
					<path class="st4" d="M138.1,492.3c-0.2,1-0.2,1.9,0.2,2.5c0.4,0.7,1.1,1.2,2.5,1.4c2.6,0.5,3.4-0.6,3.7-2.1
						c0.2-1.3-0.1-2.3-0.7-3.2l-1.3-1.8c-0.2-0.3-0.5-0.6-0.5-0.9l3.4,0.6l0.4-2l-6.5-1.2c-0.2,1.4-0.1,2.7,0.8,4.1l1.4,2.1
						c0.4,0.6,0.5,1,0.4,1.7c-0.2,0.8-0.5,1.1-0.9,1s-0.7-0.3-0.5-1.4l0.1-0.4L138.1,492.3z"/>
					<path class="st4" d="M151.5,492c0.5-1.4,0.8-1.6,1.3-1.5c0.5,0.2,0.6,0.6,0.1,2l-1.1,3.1c-0.5,1.4-0.8,1.6-1.3,1.5
						c-0.5-0.2-0.6-0.6-0.1-2L151.5,492z M150,498.7c2.2,0.8,3.6,0.1,4.9-3.7c1.3-3.8,0.7-5.2-1.5-6s-3.6-0.1-4.9,3.7
						C147.1,496.5,147.7,497.9,150,498.7"/>
					<path class="st4" d="M162.5,493.1l-3.2,6l-1.7-0.9l-0.8,1.5c1.4,0.8,1.9,1.4,1.6,2.6l1.7,0.9l4.8-8.9L162.5,493.1z"/>
					<path class="st4" d="M170.7,498.1l-4,5.5l-1.5-1.1l-1,1.3c1.3,1,1.7,1.6,1.2,2.8l1.5,1.1l5.9-8.1L170.7,498.1z"/>
					<path class="st4" d="M181.3,532.8c-0.7-0.5-1.4-1-2.1-1.5c-2.2-4.4-5-8.4-8.3-12.1c-0.6-0.7-1.2-1.3-1.9-2
						c-0.6-0.6-1.1-1.1-1.7-1.6c-0.1-0.1-0.1-0.1-0.2-0.2c-0.2-0.2-0.4-0.3-0.6-0.5c-9.6-8.5-22.3-13.7-36.2-13.7l0,0
						c-15.1,0-28.8,6.1-38.7,16c-0.7,0.7-1.4,1.4-2,2.1c0-0.1-0.1-0.1-0.2-0.1c-0.2,0-0.7-0.1-1.3-0.1l0,0
						c4.5-5.1,9.9-9.4,15.9-12.6c0.1,0,0.2-0.1,0.2-0.1c0.8-0.4,1.5-0.8,2.3-1.1c0.2-0.1,0.4-0.2,0.6-0.2c0.7-0.3,1.4-0.6,2-0.9
						c0.3-0.1,0.5-0.2,0.8-0.3c0.6-0.2,1.3-0.5,1.9-0.7c0.3-0.1,0.6-0.2,0.9-0.3c0.6-0.2,1.2-0.4,1.8-0.6c0.3-0.1,0.7-0.2,1-0.3
						c0.6-0.2,1.2-0.3,1.8-0.5c0.4-0.1,0.7-0.2,1.1-0.2c0.6-0.1,1.2-0.2,1.8-0.4c0.4-0.1,0.7-0.1,1.1-0.2c0.6-0.1,1.2-0.2,1.9-0.3
						c0.4,0,0.7-0.1,1.1-0.1c0.7-0.1,1.3-0.1,2-0.2c0.3,0,0.6-0.1,1-0.1c1-0.1,2-0.1,3-0.1c0.9,0,1.7,0,2.6,0.1c0.2,0,0.5,0,0.7,0
						c0.7,0,1.3,0.1,2,0.2c0.2,0,0.4,0,0.6,0.1c0.8,0.1,1.7,0.2,2.5,0.3c0.2,0,0.4,0.1,0.6,0.1c0.7,0.1,1.3,0.2,2,0.3
						c0.2,0,0.5,0.1,0.7,0.1c0.8,0.2,1.5,0.3,2.2,0.5c0.1,0,0.1,0,0.2,0c0.8,0.2,1.6,0.4,2.3,0.7c0.8,0.3,1.6,0.5,2.5,0.8
						c0.2,0.1,0.4,0.1,0.6,0.2c0.7,0.3,1.5,0.6,2.2,0.9c0.2,0.1,0.4,0.2,0.6,0.2c0.6,0.2,1.1,0.5,1.7,0.8c0.2,0.1,0.5,0.2,0.7,0.3
						c0.6,0.3,1.2,0.6,1.8,0.9c0.1,0.1,0.3,0.1,0.4,0.2c0.7,0.4,1.3,0.8,2,1.1c0.2,0.1,0.5,0.3,0.7,0.4c0.5,0.3,0.9,0.6,1.4,0.9
						c0.2,0.2,0.5,0.3,0.7,0.4c0.6,0.4,1.2,0.9,1.8,1.3c0.2,0.2,0.4,0.3,0.6,0.5c0.4,0.3,0.9,0.7,1.3,1c0.2,0.2,0.5,0.4,0.7,0.6
						c0.4,0.4,0.8,0.7,1.3,1.1c0.2,0.2,0.4,0.4,0.6,0.5c0.5,0.5,1,1,1.5,1.4c0.2,0.2,0.5,0.5,0.7,0.7c0.3,0.3,0.7,0.7,1,1
						c0.2,0.2,0.4,0.5,0.7,0.7c0.5,0.5,0.9,1.1,1.4,1.6c0.2,0.2,0.4,0.5,0.6,0.7c0.3,0.4,0.6,0.8,0.9,1.1c0.2,0.3,0.4,0.6,0.6,0.8
						c0.3,0.4,0.6,0.8,0.8,1.2c0.2,0.3,0.4,0.6,0.6,0.9c0.4,0.5,0.7,1.1,1.1,1.6c0.2,0.3,0.4,0.6,0.5,0.9c0.2,0.4,0.4,0.8,0.7,1.2
						c0.2,0.3,0.3,0.6,0.5,0.9c0.3,0.6,0.6,1.2,0.9,1.8c0,0,0,0.1,0.1,0.1C180.9,532,181.1,532.4,181.3,532.8"/>
					<path class="st4" d="M77.1,568.4c2.3,10.2,7.5,19.2,14.6,26.4c5,5,10.8,9,17.4,11.7c6.5,2.8,13.7,4.3,21.3,4.3
						c22.4,0,41.6-13.5,50.1-32.7c0.5,0,0.9,0.1,1.3,0.1c-0.5,1.1-0.9,2.1-1.5,3.1c-0.1,0.3-0.3,0.6-0.4,0.8
						c-0.2,0.4-0.4,0.8-0.7,1.2c-0.2,0.3-0.3,0.5-0.5,0.8c-0.5,0.9-1,1.7-1.6,2.6c-0.1,0.1-0.1,0.2-0.2,0.3
						c-0.3,0.4-0.5,0.7-0.8,1.1c-0.2,0.3-0.4,0.5-0.6,0.8c-0.3,0.4-0.5,0.7-0.8,1.1c-0.2,0.3-0.4,0.5-0.6,0.8
						c-0.4,0.5-0.8,0.9-1.1,1.4c-0.3,0.4-0.7,0.8-1,1.2c-0.3,0.3-0.6,0.6-0.8,0.9c-0.3,0.3-0.5,0.6-0.8,0.8
						c-0.3,0.3-0.6,0.6-0.9,0.9c-0.3,0.3-0.6,0.6-0.9,0.8c-0.3,0.3-0.6,0.5-0.9,0.8c-0.5,0.5-1,0.9-1.6,1.4
						c-0.3,0.2-0.6,0.5-0.8,0.7c-0.3,0.3-0.7,0.5-1,0.8c-0.3,0.2-0.6,0.4-0.9,0.7c-0.4,0.3-0.8,0.6-1.2,0.9
						c-0.2,0.2-0.5,0.3-0.7,0.5c-0.6,0.4-1.2,0.8-1.9,1.2c-0.3,0.2-0.5,0.3-0.8,0.5c-0.4,0.3-0.9,0.5-1.3,0.8
						c-0.3,0.2-0.6,0.3-0.8,0.5c-0.5,0.3-1.1,0.6-1.6,0.8c-0.2,0.1-0.4,0.2-0.6,0.3c-0.7,0.3-1.4,0.7-2.1,1
						c-0.3,0.1-0.5,0.2-0.8,0.3c-0.5,0.2-1,0.4-1.6,0.6c-0.3,0.1-0.5,0.2-0.8,0.3c-0.7,0.2-1.3,0.5-2,0.7c-0.1,0-0.2,0.1-0.4,0.1
						c-0.8,0.2-1.6,0.5-2.3,0.7c-0.2,0.1-0.5,0.1-0.7,0.2c-0.6,0.1-1.2,0.3-1.8,0.4c-0.3,0.1-0.5,0.1-0.8,0.2
						c-0.8,0.2-1.5,0.3-2.3,0.4c-0.1,0-0.1,0-0.2,0c-0.8,0.1-1.7,0.2-2.5,0.3c-0.2,0-0.5,0-0.7,0.1c-0.6,0.1-1.3,0.1-1.9,0.1
						c-0.3,0-0.5,0-0.8,0c-0.9,0-1.7,0.1-2.6,0.1c-30.9,0-56-25.1-56-56c0-0.5,0-1.1,0-1.6c0.4,0.9,0.8,1.7,1.3,2.6
						C75.8,560.9,76.2,564.7,77.1,568.4"/>
					<path class="st4" d="M136.4,592.1l10.1,1.1c0.3,0,0.5,0.3,0.5,0.5l0.7,5.8c0,0.3-0.2,0.5-0.4,0.4l-13.2-1.4
						c-0.2,0-0.4-0.1-0.6-0.3l-4.2-4.4l-3.2,3.6c-0.1,0.1-0.3,0.2-0.5,0.2l-12.2-1.3c-0.2,0-0.4-0.1-0.6-0.3l-3.9-4.1
						c-0.1-0.2-0.2-0.4-0.3-0.6l-2-16.2c0-0.3,0.2-0.5,0.4-0.4l5.6,0.6c0.3,0,0.5,0.3,0.5,0.5l1.6,13.1c0.1,0.4,0.4,0.8,0.9,0.9
						l6,0.7c0.4,0,0.7-0.3,0.7-0.7l-1.6-13.1c0-0.3,0.2-0.5,0.4-0.4l5.6,0.6c0.3,0,0.5,0.3,0.5,0.5l0.5,3.7l3.2-3.6
						c0.1-0.1,0.3-0.2,0.5-0.2l13.2,1.4c0.3,0,0.5,0.3,0.5,0.5l0.7,5.8c0,0.3-0.2,0.5-0.4,0.4l-10.1-1.1c-0.4,0-0.7,0.3-0.7,0.7
						l0.7,6.1C135.6,591.7,136,592.1,136.4,592.1"/>
				</g>
			</g>
		</g>
	</g>
</g>
<g id="레이어_1">
</g>
<g>
	<g>
		<defs>
			<rect id="SVGID_3_" x="10.1" y="46" width="229.8" height="158"/>
		</defs>
		<clipPath id="SVGID_4_">
			<use xlink:href="#SVGID_3_"  style="overflow:visible;"/>
		</clipPath>
		<g transform="matrix(1 0 0 -1 -.003 681.063)" class="st6">
			<path class="st2" d="M184,556.1c0-29.7-24-53.7-53.7-53.7c-29.7,0-53.7,24-53.7,53.7c0,29.7,24,53.7,53.7,53.7
				C159.9,609.8,184,585.7,184,556.1"/>
			<path class="st3" d="M155.4,577.6c0,0,2.9,1,4.2,0.7l0.4,1c-1.1,0.6-4-0.1-4-0.1s-1.4,2.5-2.3,2.7l-0.5-1.2
				C154.7,579.9,155.4,577.6,155.4,577.6"/>
			<path class="st3" d="M144.4,508.2c0,0-1.2,1.6-1.9,1.8l-0.4-0.9c1-0.7,1.7-2,1.7-2s2.6,0.5,3.7,0.2l0.4,0.9
				C147,508.7,144.4,508.2,144.4,508.2"/>
			<path class="st3" d="M149.7,521.3c0,0-2.3,2.3-3.3,2.2l-0.1-1.2c1.5-0.5,3-2.6,3-2.6s2.7,1.9,4.1,1.9l0.2,1.2
				C152.4,523.1,149.7,521.3,149.7,521.3"/>
			<path class="st3" d="M157.4,581.4c0,0,2.9,0.5,4.3,0.3l0.6,1.2c-1.2,0.4-4.2,0-4.2,0s-1.3,2.4-2.3,2.5l-0.5-1.2
				C156.8,583.5,157.4,581.4,157.4,581.4"/>
			<path class="st3" d="M159.8,585.2c0,0,2.3,0.1,3.6-0.1l0.7,1.2c-1.1,0.5-3.5,0.4-3.5,0.4s-1.5,1.9-2.4,2.3l-0.5-1.1
				C159,587.2,159.8,585.2,159.8,585.2"/>
			<path class="st3" d="M161.9,588.6c0,0,2.2,0.2,3.5-0.1l0.8,1.2c-1.1,0.6-3.4,0.3-3.4,0.3s-1.2,2.1-2.2,2.3l-0.6-1
				C161.3,590.6,161.9,588.6,161.9,588.6"/>
			<path class="st3" d="M164.1,591.9c0,0,1.9-0.2,3.2-0.6l0.7,0.9c-1.1,0.6-3.2,0.8-3.2,0.8s-1.1,2-2,2.3l-0.6-0.9
				C163.4,593.5,164.1,591.9,164.1,591.9"/>
			<path class="st3" d="M142.9,505.7c0,0-1.2,1.6-1.9,1.8l-0.3-0.9c1-0.7,1.7-2,1.7-2s2.3,0.5,3.3,0.2l0.3,0.9
				C145.3,506.1,142.9,505.7,142.9,505.7"/>
			<path class="st3" d="M145.8,511c0,0-1.6,2.1-2.5,2.2l-0.3-1.1c1.3-0.7,2.3-2.5,2.3-2.5s2.8,1,4.1,0.7l0.4,1.1
				C148.6,511.9,145.8,511,145.8,511"/>
			<path class="st3" d="M147.3,513.9c0,0-2,2.4-3,2.4l-0.2-1.2c1.4-0.6,2.8-2.8,2.8-2.8s2.9,1.7,4.2,1.6l0.3,1.2
				C150.2,515.6,147.3,513.9,147.3,513.9"/>
			<path class="st3" d="M148.6,517.7c0,0-2.2,2.3-3.1,2.3l-0.2-1.2c1.5-0.5,2.9-2.7,2.9-2.7s2.8,1.8,4.2,1.7l0.2,1.2
				C151.4,519.4,148.6,517.7,148.6,517.7"/>
			<path class="st3" d="M106.5,594.8l1,0.8c-0.8,0.5-1.7,3.2-1.7,3.2s-1.9,0.1-2.8,0.3l-1.3-0.9l3-0.4
				C104.8,597.9,105.5,595.3,106.5,594.8"/>
			<path class="st3" d="M110,597.2l1,0.8c-1.1,0.5-1.8,3.2-1.8,3.2s-2,0.2-2.7,0.6l-1-0.8c0.7-0.5,2.7-0.7,2.7-0.7
				S108.9,597.7,110,597.2"/>
			<path class="st3" d="M103.3,592c0.3,0.3,0.6,0.6,0.9,0.9c-1,1.2-1.3,3.5-1.3,3.5s-2.2,0.1-3.3,0.2c-0.3-0.3-0.8-0.9-0.8-0.9
				l3-0.3C101.7,595.3,102.3,593.1,103.3,592"/>
			<path class="st3" d="M100.5,589c0.3,0.3,0.6,0.6,0.9,0.9c-1,1.2-1.4,3.7-1.4,3.7s-2.2,0.1-3.2,0.2c-0.3-0.3-0.6-0.5-0.8-0.9
				l2.9-0.3C98.9,592.5,99.5,590.1,100.5,589"/>
			<path class="st3" d="M113.3,599.6l1.1,0.7c-1.3,0.3-2,3.1-2,3.1s-1.7,0-2.3,0.4c-0.4-0.2-0.9-0.4-1.4-0.7
				c0.7-0.3,2.6-0.5,2.6-0.5S112.3,600.1,113.3,599.6"/>
			<path class="st3" d="M98.4,586.7c-0.9,1-1.7,3.5-1.7,3.5s-2-0.1-3.1-0.1l-0.9-1c1.1-0.2,3-0.1,3-0.1s0.7-2.2,1.9-3.5L98.4,586.7z
				"/>
			<path class="st3" d="M116.5,602.2c0.3,0.2,1,0.6,1,0.6c-1.2,0.5-1.3,2.5-1.3,2.5s-2.6,0-3.2,0.3c-0.4-0.2-0.8-0.4-1.1-0.7
				c0.5-0.4,3.1-0.5,3.1-0.5S115.3,602.5,116.5,602.2"/>
			<path class="st3" d="M91.1,586.6c-0.3-0.4-0.5-0.7-0.8-1.1l2.8-0.1c0,0,0.6-2.6,1.5-3.5l0.8,1.2c-0.8,0.9-1.3,3.5-1.3,3.5
				S92,586.5,91.1,586.6"/>
			<path class="st3" d="M91.1,582.7c0,0-1.8-0.2-2.7,0l-0.8-1c0.7-0.3,2.7-0.3,2.7-0.3s1-3.3,1.8-3.8l0.7,1.3
				C91.8,579.8,91.1,582.7,91.1,582.7"/>
			<path class="st3" d="M86,578.5l-0.7-1.1l2.6,0c0,0,0.6-2.7,1.8-3.6l0.7,1.2c-0.8,0.8-1.5,3.6-1.5,3.6L86,578.5z"/>
			<path class="st3" d="M83.7,574.1l-0.5-1.2l2.5,0.1c0,0,1-2.5,2-3.4c0.3,0.4,0.4,1,0.6,1.4c-1.1,1.1-1.8,3.2-1.8,3.2L83.7,574.1z"
				/>
			<path class="st3" d="M118.2,606.4c0.1-1.1,1.2-2.2,1.2-2.2l0.9,0.6c-0.8,0.7-1.2,2.2-1.2,2.2l-1.7,0.2c-0.8,0-2.7-0.6-2.7-0.6
				C115.6,606.7,118.2,606.4,118.2,606.4"/>
			<path class="st3" d="M215.2,551.3l-0.1-0.7c-0.1-0.5-5.4-1.4-10.7-2.5c0.2,1.6,0.3,3.2,0.3,4.8
				C210.2,552.1,215.2,551.3,215.2,551.3 M170.3,561.9l-1.9-16c-0.2-1-0.5-2.2-1.3-2.4l-5.3-0.6l1.9,16c0.1,1,0.5,2.2,1.3,2.5
				L170.3,561.9z M130.3,501.1c-16.5,0-31.3,7.3-41.4,18.8c0.6,0.1,1.1,0.1,1.3,0.1c0.1,0,0.2,0.1,0.2,0.3
				c0.5,3.8,5.9,48.1,5.9,48.2c0,0.1-0.1,0.1-0.2,0.1c-0.1,0-2.9-0.5-5.6-1c-1.5-0.3-3-0.8-4.5-1.6c0,0.1,0,0.1,0,0.2
				c-1.1,1.1-1.3,3.5-1.3,3.5l-3.1-0.4l-0.4-1.2l2.4,0.4c0,0,0.1-1.7,1.1-3c-4.1-2.4-7.7-6.4-9.5-11c0,0.5,0,1.1,0,1.6
				c0,30.4,24.6,55,55,55c22.6,0,42.1-13.7,50.5-33.2c-8.6-0.9-18.9-2-18.9-2c-1.3-0.1-2.6-0.4-3.8-0.8l0.1,0.4
				c-1.2,0.5-4-0.4-4-0.4s-1.6,2.4-2.5,2.6l-0.4-1.2c1.4-0.7,2.4-3,2.4-3s1.2,0.5,2.4,0.7c-1.4-0.6-2.7-1.4-3.9-2.3
				c-0.6,0.7-1.4,1.5-2,1.5l-0.4-1.2c0.5-0.2,1-0.6,1.4-1.1c-4-3.4-6.9-8.3-7.5-13.5c0,0-3.8-31.1-3.8-31.3c0-0.2,0-0.4,0.3-0.4
				c0.1,0,3.1,0.3,7.2,0.8l0-0.3c1.5-0.4,3.2-2.4,3.2-2.4s2.6,2,3.9,2.1l0.1,1.2c-1.2,0.2-3.8-1.7-3.8-1.7s-0.9,0.7-1.8,1.3
				c8.9,0.9,21.2,2.2,21.2,2.2c3.7,0.4,7.2,1.9,10.1,4.2c-0.2-0.4-0.4-0.8-0.5-1.2C170.8,513.7,152,501.1,130.3,501.1 M239.7,584.4
				c-9.7-1-19.5-2.1-29.2-3.1c-3.2-0.3-6.2-1.5-8.9-3.4c-9.3,30.5-37.7,52.7-71.3,52.7c-33,0-60.9-21.4-70.8-51.1
				c-8.1-0.8-28.5-3-28.5-3c-14.9-1.6-19.1-13.1-20.3-19.9c-1-5.8-0.5-9.9-0.5-11c0-0.2,0.1-0.4,0.2-0.5c0.2-0.1,0.4,0,0.7,0.4
				c0.3,0.4,5.9,7.2,6.7,8.1c0.8,0.9,4.4,5.1,11.3,5.9l23.4,2.5c0-0.5-3.1-26.9-3.1-26.9c-0.5-3.5-2.8-5.6-7.1-6.4
				c0,0,3.7,32,3.7,32.1c0,0.1,0,0.1-0.1,0.1c-0.1,0-5.3-0.9-5.3-0.9c-8.2-1.8-15.2-9.4-16.2-17.8l-1.8-15.5
				c-4.9-0.5-8.2,0-10.2,0.1c-0.7,0-1.3,0.1-1.9,0.2c-0.2,0-0.4-0.2-0.3-0.4c0.8-1.3,2.8-4.8,5.4-7.5c3.5-3.7,8.6-5.5,14.9-5.5
				l15.7,1.4c9.4,1,15,2.9,18.4,5.4c12.7-23.2,37.2-38.9,65.5-38.9c33,0,61,21.4,70.8,51.1c9.5,1,18.5,1.9,18.5,1.9
				c14.5,1.5,15,8.3,15.3,12c0,0.3,0.7,6.3,0.8,8c0.3,4.4-3,8.4-7.7,9.5c-1.9,0.4-9.7,1.8-14.7,2.6c0.1,0.1,0.2,0.1,0.3,0.1
				l14.1,1.5c4.9,0.5,8.7,4.1,10.5,9.9l1.8,6C239.9,584.1,239.9,584.4,239.7,584.4"/>
			<path class="st3" d="M144,573.6c-0.2,0-30-3.2-30-3.2c-9.1-1-17.1-9-18.3-18.3c0,0-3.8-31.5-3.8-31.5c0-0.1,0.1-0.1,0.2-0.1
				c0.1,0,17.7,1.8,19.8,2c0.1,0,0.2,0.2,0.2,0.2c0,0.1,3.8,31.3,3.8,31.3c0.2,0.7,0.5,1.7,1.2,1.9l5.4,0.6c0,0-3.9-32.4-4-32.9
				c0-0.3,0.1-0.4,0.4-0.4c2.8,0.3,19.4,2,19.4,2.1c0.1,0,0.3,0.1,0.3,0.2c0.4,3.5,5.8,47.5,5.8,47.7
				C144.3,573.5,144.2,573.6,144,573.6"/>
			<path class="st4" d="M70,575c-2.2,2.2-5.2,3.3-8.7,2.9l-30.2-3.2c-10.5-1.1-16.3-8.4-18-14.3c-1.1-3.7-1.3-5.9-1.4-7.4
				c0,0-0.2-3.4-0.2-4.5c0-0.2,0-0.2,0.1-0.3c0,0,0.1,0,0.2,0.1c0.6,0.6,2,2.6,2.3,3c1.2,1.4,3.3,4.1,4.7,5.3
				c1.8,1.5,5.4,4.1,10.3,4.6l24.4,2.6c0.4,0.1,0.7,0,0.7-0.1c0.4-0.4,0.2-1.1,0.2-1.1L51.3,535c-0.7-4.6-4.1-7.3-10.7-8.1l3.5,31.8
				c0,0.2-0.1,0.2-0.2,0.2c-0.2,0-3-0.6-3-0.6c-7.4-1.6-13.7-8.5-14.7-16.1l-1.6-13.6l-0.4-3.4l-0.9-0.1c-1.8-0.2-4.1-0.3-8.6,0
				c-0.8,0.1-1.2,0.1-1.3,0c-0.1-0.1,0-0.3,0.2-0.6c0.1-0.2,1.9-3.5,5.7-6.4c2.4-1.8,6.2-2.7,11-2.7c2.6,0,5.4,0.3,8.1,0.5l4,0.4
				c18.8,2,24.6,4.5,26.2,17.3l3.8,32.4C73.2,569.5,72.2,572.7,70,575"/>
			<path class="st5" d="M61.3,576.1L31.2,573c-15.4-1.6-17.3-16.2-17.4-16.7c-0.1-0.6-0.4-2.9-0.4-3.1c0-0.2,0-0.2,0.2-0.1
				c0.1,0.2,1.9,2.5,1.9,2.5c0,0.1,5,6.5,13.6,7.4l24.4,2.6c0.9,0.1,1.6-0.1,2.1-0.6c0.9-1,0.6-2.9,0.3-4.9
				c-0.1-0.5-2.9-25.3-2.9-25.3c-1.2-8.1-10.2-9.1-13.1-9.4l-0.9-0.1c0,0,3.4,31.5,3.4,31.6c0,0.1-0.1,0.2-0.3,0.2
				c-0.1,0-1-0.2-1-0.2c-6.8-1.5-12.6-7.8-13.5-14.8l-2.3-18.2c-1.7-0.2-3.5-0.3-5.1-0.3c-1,0-4,0.2-4.2,0.2c-0.2,0-0.3-0.1-0.1-0.3
				c0.1-0.2,1.1-1.4,1.1-1.4c3.1-3.7,7.7-5.6,13.2-5.3c5.4,0.3,9.4,0.8,13.3,1.2c11.3,1,22,2.1,23.7,15.6l3.8,32.4
				c0.4,3.1-0.5,5.8-2.3,7.7C66.9,575.6,64.2,576.5,61.3,576.1"/>
			<path class="st4" d="M213.3,568.5l14.2,1.5c3.6,0.4,6.8,3.4,8.2,6.7c0.5,1.3,1.5,4.6,1.7,5.4c0,0.1-0.1,0.1-0.2,0.1
				c-0.1,0-26.7-2.9-26.7-2.9c-8.1-0.9-15.5-8.3-16.5-16.6c0,0-0.7-6.1-0.7-6.2c0-0.1,0-0.1,0.1-0.1c0,0,23.9-4,23.9-4
				s-0.2-1-0.4-2.5c-0.2-1.5-10.5-2.8-14.7-3.9c-6.3-1.8-12.6-3.4-18.5-10.4c-0.9-1.1-1.6-2.6-1.9-3.2c-0.1-0.1,0-0.3,0.2-0.3
				c0.2,0,38.3,4.1,38.3,4.1c7.8,0.8,12.1,3.8,12.8,8.8l0.1,0.6c0.3,2.1,0.8,6,0.9,8.7c0.2,3.5-2.5,6.9-6.4,7.7
				c-2.3,0.5-13.5,2.4-16.9,3C211,567.1,212,568.2,213.3,568.5"/>
			<path class="st5" d="M213.1,570.1l14.3,1.5c4.6,0.5,6.5,4.7,7.3,7.2c0,0,0.3,1.1,0.3,1.2c0,0.1-0.1,0.1-0.2,0.1
				c-0.1,0-24.3-2.6-24.3-2.6c-7.3-0.8-14-7.5-15-15c0,0-0.6-4.7-0.6-4.8c0-0.1,0-0.1,0.1-0.1c0.1,0,23.8-4.2,23.8-4.2
				c0-0.2,0-0.3,0-0.5l-0.3-2.3c-0.5-3.3-2.8-3.7-12.5-5.5c-2.3-0.4-15.6-3.4-20.3-9.4c-0.5-0.6-0.8-1.1-1-1.5
				c-0.1-0.2-0.1-0.3,0.1-0.3c2.5,0.3,29.1,3.1,32.7,3.5c8.4,0.9,12.6,2.3,13.5,8.1c0.5,3.3,0.9,6.2,1,8.6c0.2,2.8-2.1,5.3-5.2,6
				c-2.7,0.6-17.7,3.2-17.9,3.2c-0.1,0-0.4,0.2-0.4,0.5C209.2,568.4,211.4,569.7,213.1,570.1"/>
			<path class="st2" d="M211.8,575.6l21.6,2.3c0.2,0.5,0.3,0.9,0.5,1.3l-23.1-2.4c-6.9-0.7-13.3-7.1-14.1-14.2l-0.5-4l1.2-0.2
				l0.4,3.1C198.6,568.9,204.9,574.9,211.8,575.6"/>
			<path class="st2" d="M210.1,561.6c1.6-0.3,15.3-2.6,17.8-3.2c1-0.2,1.8-0.6,2.5-1.2c-0.8,1.1-2.1,2-3.6,2.3
				c-2.6,0.5-16.3,2.9-17.8,3.2c0,0-0.1,0-0.1,0C209,562.1,209.5,561.7,210.1,561.6"/>
			<path class="st2" d="M220.7,549.5l0.3,2.1c0.1,0.7,0.3,1.5-0.4,1.7l-0.6,0.1c0-0.2-0.3-2.8-0.3-2.8c-0.7-4.2-2.4-4.3-13.3-6.3
				c-4.2-0.8-16.9-4.7-19.6-8.9c0.8,0.1,1.5,0.2,2.3,0.2c4.2,3.7,14.7,6.9,18.4,7.6C218.3,545.2,220,545.3,220.7,549.5"/>
			<path class="st4" d="M89,565.4c-6.4-1.9-12.4-8.9-13.2-15.9c0,0-3.5-29-3.6-29.3c0-0.2,0.2-0.3,0.3-0.3c0.1,0,14.7,1.6,16.1,1.7
				c0.1,0,0.1,0.1,0.1,0.1c0.3,2.6,5.4,44.7,5.4,44.8c0,0.1-0.1,0.2-0.2,0.1C93.9,566.6,91.6,566.1,89,565.4"/>
			<path class="st5" d="M91,564.1c-6.8-1.5-12.6-7.8-13.5-14.8c0,0-3.3-27.2-3.3-27.3c0-0.2,0-0.3,0.3-0.2c0.2,0,11.6,1.2,12.7,1.3
				c0.1,0,0.1,0,0.1,0.1c0.3,2.2,5,40.9,5,41c0,0.1,0,0.2-0.2,0.1C92,564.3,91,564.1,91,564.1"/>
			<path class="st2" d="M91,561.7l0.2,1.5c-6.4-1.4-11.9-7.4-12.7-14l-3.2-26.4l1.2,0.1l3.1,25.2C80.3,554.7,85.2,559.9,91,561.7"/>
			<path class="st4" d="M114,568.6c-8.1-0.9-15.6-8.3-16.6-16.6c0,0-3.6-29.3-3.6-29.4c0-0.1,0-0.2,0.1-0.2c0.1,0,14.5,1.5,16.2,1.7
				c0.1,0,0.2,0.1,0.2,0.2c0,0.1,3.6,29.9,3.6,29.9c0.4,2,1.4,3.2,2.7,3.5l7.7,0.8c0,0-3.9-32.6-4-32.9c-0.1-0.3,0.1-0.4,0.3-0.4
				c2.4,0.3,15.9,1.7,16,1.7c0.1,0,0.2,0.1,0.2,0.2c0.4,3,5.4,43.8,5.4,44.1c0,0.3-0.2,0.4-0.4,0.3C141.7,571.5,114,568.6,114,568.6
				"/>
			<path class="st5" d="M114.1,566.8c-7.3-0.8-14-7.5-15-15c0,0-3.3-27.3-3.3-27.4c0-0.1,0-0.2,0.1-0.2c0.1,0,11.2,1.2,12.8,1.4
				c0.1,0,0.2,0.1,0.2,0.2c0,0.1,3.5,28.5,3.5,28.5c0.8,3.7,3,4.7,4.2,5l9.2,1c0.1,0,0.2,0,0.3-0.1c0.1-0.1,0.1-0.2,0.1-0.4
				c0,0-3.9-32.2-3.9-32.4c0-0.2,0.1-0.4,0.3-0.3c2.2,0.2,12.4,1.3,12.5,1.3c0.2,0,0.2,0.2,0.3,0.3c0.3,2.5,4.9,40.6,5,40.8
				c0,0.1-0.1,0.2-0.2,0.2C140,569.5,114.1,566.8,114.1,566.8"/>
			<path class="st2" d="M115.3,564.7l23.9,2.5l0.1,1.2l-25.1-2.6c-6.9-0.7-13.3-7.1-14.1-14.2l-3.2-26.4l1.2,0.1l3.1,25.2
				C102,557.6,108.3,564,115.3,564.7"/>
			<path class="st2" d="M127.9,559.7c-0.2,0.2-0.4,0.3-0.7,0.4c0-0.1,0-0.3,0-0.4l-3.9-31.6l1.2,0.1l3.7,30.4
				C128.3,559,128.2,559.4,127.9,559.7"/>
			<path class="st2" d="M27.3,521.8l2.4,18.9c0.8,6.1,5.7,11.8,11.5,13.6c0.1,1,0.1,1.4,0.1,1.4c-6.4-1.4-11.9-7.4-12.8-14l-2.4-19
				c-3.2-0.3-6.5-0.4-8.5-0.2c0.4-0.5,1-1.1,1.1-1.1C20.9,521.3,24.2,521.5,27.3,521.8"/>
			<path class="st2" d="M32.3,570.9l30.2,3.2c2.4,0.2,4.5-0.3,6.1-1.7c-0.2,0.2-0.4,0.4-0.5,0.6c-1.6,1.7-4,2.4-6.6,2.2L31.3,572
				c-14.8-1.6-16.5-15.9-16.5-15.9s0.6,0.8,1.8,1.9C18,562.4,21.9,569.8,32.3,570.9"/>
			<path class="st2" d="M41,523.3c3.1,0.3,12.7,1.3,14,10.2c0,0,2.8,24.9,2.9,25.3c0.3,2.2,0.6,4.4-0.6,5.7
				c-0.2,0.2-0.4,0.4-0.6,0.5c0.7-1.3,0.4-3.1,0.2-5c-0.1-0.5-2.9-25.3-2.9-25.3c-1.3-8.9-10.9-9.9-14-10.2l-0.9-0.1l-0.1-1.3
				L41,523.3z"/>
			<path class="st4" d="M167.3,541.6l-7.6-0.8l2.2,18.1c0.2,1.6,0.9,3.6,2.8,4.1l7.6,0.8l-2.2-18.1
				C169.9,544.1,169.2,542.1,167.3,541.6 M162,574c-8.1-0.9-15.5-8.3-16.6-16.6c0,0-3.6-29.2-3.6-29.3c0-0.1,0-0.3,0.2-0.2
				c0.2,0,28.1,3,28.1,3c8.1,0.9,15.5,8.3,16.5,16.6c0,0,3.5,29.2,3.6,29.3c0,0.2-0.2,0.3-0.3,0.2C189.7,576.9,162,574,162,574"/>
			<path class="st5" d="M171.8,545.6l0-0.1c-0.6-4-2.6-5.2-4.3-5.6l-9.2-1c-0.1,0-0.2,0-0.3,0.1c-0.1,0.1-0.1,0.2-0.1,0.4l2.4,19.7
				c0.6,4,2.7,5.3,4.3,5.6l0.1,0l9,1c0.1,0,0.3,0,0.3-0.1c0.1-0.1,0.1-0.2,0.1-0.4L171.8,545.6z M188.1,574.9
				c-0.1,0-26.1-2.7-26.1-2.7c-7.3-0.8-14.1-7.5-15-15c0,0-3.3-27.2-3.3-27.3c0-0.2,0.1-0.3,0.3-0.2c0.1,0,26,2.7,26,2.7
				c7.3,0.8,14.1,7.5,15,15c0,0,3.3,27.3,3.3,27.4C188.3,574.9,188.2,575,188.1,574.9"/>
			<path class="st2" d="M175.1,565.1l-2.4-19.7c-0.7-4.8-3.5-6.1-5.1-6.4l-9.2-1c-0.1,0-0.3,0-0.4,0c0-0.3,0.2-0.5,0.4-0.8
				c0.3-0.3,0.7-0.4,1.1-0.4l9.2,1c1.6,0.3,4.4,1.6,5.1,6.4l2.4,19.7c0.1,0.4-0.1,0.8-0.4,1.1c-0.2,0.2-0.4,0.3-0.7,0.4
				C175.1,565.3,175.1,565.2,175.1,565.1"/>
			<path class="st2" d="M163.2,570.1l23.9,2.5l0.2,1.2l-25.1-2.6c-6.9-0.7-13.3-7.1-14.1-14.2l-3.2-26.4l1.2,0.1l3.1,25.2
				C150,563,156.3,569.4,163.2,570.1"/>
			<path class="st4" d="M207.7,552.5c-0.9,0.1-1.9,0.3-2.9,0.5v0c0-0.6-0.1-1.2-0.1-1.8c0-0.6-0.1-1.1-0.1-1.7
				c0-0.4-0.1-0.9-0.1-1.3c1,0.2,2,0.4,3,0.6C207.5,550,207.6,551.3,207.7,552.5"/>
			<path class="st4" d="M59.5,579.5c1.2,3.7,2.7,7.2,4.5,10.7c0,0,0,0.1,0,0.1c0.4,0.8,0.9,1.7,1.3,2.5c0,0,0,0,0,0.1
				c1.8,3.2,3.9,6.4,6.2,9.3c0.1,0.1,0.2,0.2,0.3,0.3c0.5,0.7,1.1,1.3,1.6,1.9c0.1,0.1,0.2,0.3,0.3,0.4c1.7,2,3.6,3.9,5.5,5.7
				c0.1,0.1,0.2,0.2,0.3,0.2c0.5,0.5,1.1,1,1.7,1.5c0.3,0.2,0.5,0.4,0.8,0.7c0.5,0.4,1.1,0.9,1.6,1.3c0.3,0.2,0.6,0.5,0.9,0.7
				c0.5,0.4,1.1,0.8,1.6,1.2c0.3,0.2,0.6,0.4,0.9,0.6c1,0.7,1.9,1.3,2.9,2c0.4,0.3,0.8,0.5,1.2,0.8c0.5,0.3,1,0.6,1.5,0.9
				c0.9,0.5,1.9,1.1,2.8,1.6c0.5,0.3,1,0.5,1.6,0.8c0.4,0.2,0.9,0.5,1.4,0.7c0.7,0.4,1.5,0.7,2.2,1c0.5,0.2,0.9,0.4,1.4,0.6
				c0.8,0.3,1.5,0.6,2.3,0.9c0.4,0.2,0.8,0.3,1.2,0.4c0.7,0.2,1.3,0.5,2,0.7c0.4,0.1,0.8,0.3,1.3,0.4c0.7,0.2,1.4,0.4,2.1,0.6
				c0.4,0.1,0.8,0.2,1.1,0.3c1,0.3,2.1,0.5,3.2,0.7c0.1,0,0.2,0,0.3,0.1c1,0.2,2.1,0.4,3.1,0.6c0.4,0.1,0.7,0.1,1.1,0.2
				c0.8,0.1,1.6,0.2,2.3,0.3c0.4,0,0.8,0.1,1.2,0.1c0.8,0.1,1.6,0.1,2.4,0.2c0.4,0,0.7,0,1.1,0.1c1.2,0.1,2.3,0.1,3.5,0.1
				c1.2,0,2.4,0,3.5-0.1c0.4,0,0.7,0,1.1-0.1c0.8,0,1.6-0.1,2.4-0.2c1.2-0.1,2.4-0.3,3.5-0.4c0.4-0.1,0.8-0.1,1.2-0.2
				c0.9-0.1,1.8-0.3,2.6-0.5c0.3,0,0.5-0.1,0.8-0.1c1.1-0.2,2.2-0.5,3.3-0.8c0.3-0.1,0.6-0.2,0.9-0.2c0.8-0.2,1.6-0.4,2.4-0.7
				c0.4-0.1,0.8-0.2,1.2-0.4c0.7-0.2,1.4-0.5,2.1-0.7c0.4-0.1,0.8-0.3,1.2-0.4c0.7-0.3,1.4-0.5,2.1-0.8c0.3-0.1,0.7-0.3,1-0.4
				c1-0.4,2-0.9,3-1.3c0.2-0.1,0.4-0.2,0.6-0.3c0.8-0.4,1.6-0.8,2.3-1.2c0.4-0.2,0.7-0.4,1.1-0.6c0.6-0.3,1.2-0.7,1.8-1
				c0.4-0.2,0.8-0.5,1.2-0.7c0.6-0.3,1.1-0.7,1.7-1.1c0.4-0.2,0.8-0.5,1.1-0.8c0.6-0.4,1.2-0.9,1.8-1.3c0.3-0.2,0.6-0.4,0.9-0.6
				c0.8-0.6,1.6-1.3,2.4-1.9c0.4-0.3,0.7-0.6,1.1-0.9c0.5-0.4,0.9-0.8,1.4-1.2c0.4-0.3,0.8-0.7,1.1-1c0.4-0.4,0.8-0.8,1.3-1.2
				c0.4-0.4,0.7-0.7,1.1-1.1c0.4-0.4,0.8-0.8,1.2-1.3c0.3-0.4,0.7-0.7,1-1.1c0.6-0.7,1.2-1.3,1.8-2c0.4-0.5,0.8-1,1.2-1.5
				c0.3-0.4,0.7-0.9,1-1.3c0.3-0.5,0.7-0.9,1-1.4c0.3-0.4,0.6-0.8,0.9-1.3c0.3-0.5,0.7-1,1-1.4c0.3-0.4,0.6-0.9,0.8-1.3
				c0.3-0.5,0.6-1,0.9-1.5c0.3-0.4,0.5-0.9,0.8-1.3c0.5-0.9,1.1-1.9,1.5-2.8c0.2-0.4,0.5-0.9,0.7-1.3c0.3-0.5,0.5-1.1,0.8-1.6
				c0.2-0.4,0.4-0.9,0.6-1.3c0.2-0.6,0.5-1.1,0.7-1.7c0.2-0.5,0.4-0.9,0.5-1.4c0.2-0.6,0.4-1.1,0.6-1.7c0.2-0.5,0.3-0.9,0.5-1.4
				c0.2-0.6,0.4-1.2,0.6-1.8c0.8,0.6,1.7,1.1,2.6,1.5c-0.7,2.3-1.6,4.6-2.5,6.8c-3.9,9.2-9.5,17.5-16.6,24.6
				c-7.1,7.1-15.4,12.7-24.6,16.6c-9.6,4-19.7,6.1-30.2,6.1c-10.5,0-20.6-2-30.2-6.1c-9.2-3.9-17.5-9.5-24.6-16.6
				c-7.1-7.1-12.7-15.4-16.6-24.6c-1-2.3-1.8-4.6-2.6-7C57.5,579.3,58.6,579.4,59.5,579.5"/>
			<path class="st4" d="M201,532.6c-1.2-3.7-2.7-7.2-4.5-10.7c0,0,0-0.1-0.1-0.1c-0.4-0.8-0.9-1.7-1.3-2.5c0,0,0,0,0-0.1
				c-1.8-3.2-3.9-6.4-6.2-9.3c-0.1-0.1-0.2-0.2-0.3-0.4c-0.5-0.7-1-1.3-1.6-1.9c-0.1-0.1-0.2-0.3-0.3-0.4c-1.7-2-3.5-3.9-5.5-5.7
				c-0.1-0.1-0.2-0.2-0.3-0.3c-0.5-0.5-1.1-1-1.6-1.5c-0.3-0.2-0.5-0.4-0.8-0.7c-0.5-0.4-1.1-0.9-1.6-1.3c-0.3-0.2-0.6-0.5-0.9-0.7
				c-0.5-0.4-1.1-0.8-1.6-1.2c-0.3-0.2-0.6-0.4-0.9-0.6c-0.9-0.7-1.9-1.3-2.9-2c-0.4-0.3-0.8-0.5-1.3-0.8c-0.5-0.3-1-0.6-1.5-0.9
				c-0.5-0.3-0.9-0.5-1.4-0.8c-0.5-0.3-0.9-0.5-1.4-0.8c-0.5-0.3-1-0.5-1.6-0.8c-0.4-0.2-0.9-0.5-1.3-0.7c-0.8-0.4-1.5-0.7-2.3-1
				c-0.4-0.2-0.9-0.4-1.3-0.6c-0.8-0.3-1.5-0.6-2.3-0.9c-0.4-0.2-0.8-0.3-1.2-0.4c-0.7-0.2-1.3-0.5-2-0.7c-0.4-0.1-0.8-0.3-1.3-0.4
				c-0.7-0.2-1.4-0.4-2.1-0.6c-0.4-0.1-0.8-0.2-1.1-0.3c-1.1-0.3-2.1-0.5-3.2-0.7c-0.1,0-0.2,0-0.3-0.1c-1-0.2-2.1-0.4-3.1-0.6
				c-0.4-0.1-0.7-0.1-1.1-0.2c-0.8-0.1-1.6-0.2-2.3-0.3c-0.4,0-0.8-0.1-1.2-0.1c-0.8-0.1-1.6-0.1-2.4-0.2c-0.4,0-0.7,0-1.1-0.1
				c-1.2-0.1-2.3-0.1-3.5-0.1c-1.1,0-2.3,0-3.4,0.1c-0.3,0-0.6,0-0.9,0c-1,0.1-2,0.1-3,0.2c-0.1,0-0.3,0-0.4,0
				c-1.1,0.1-2.2,0.3-3.3,0.4c-0.3,0-0.6,0.1-0.9,0.1c-0.9,0.1-1.8,0.3-2.7,0.5c-0.2,0-0.4,0.1-0.6,0.1c-1.1,0.2-2.1,0.5-3.2,0.7
				c-0.3,0.1-0.5,0.1-0.8,0.2c-0.8,0.2-1.7,0.5-2.5,0.7c-0.2,0.1-0.5,0.1-0.7,0.2c-1,0.3-2,0.7-3,1c-0.2,0.1-0.5,0.2-0.7,0.3
				c-0.8,0.3-1.6,0.6-2.4,0.9c-0.3,0.1-0.5,0.2-0.8,0.3c-1,0.4-1.9,0.8-2.9,1.3c-0.2,0.1-0.4,0.2-0.6,0.3c-0.8,0.4-1.5,0.8-2.3,1.2
				c-0.3,0.2-0.6,0.3-0.8,0.5c-0.9,0.5-1.8,1-2.7,1.5c-0.1,0.1-0.3,0.2-0.4,0.2c-1.1,0.7-2.1,1.3-3.1,2c-0.7,0.5-1.4,1-2.1,1.5
				c-0.2,0.1-0.3,0.2-0.5,0.3c-0.8,0.6-1.6,1.2-2.4,1.9c-0.3,0.2-0.5,0.4-0.8,0.7c-0.6,0.5-1.2,1-1.8,1.5c-0.2,0.2-0.4,0.4-0.6,0.6
				c-0.7,0.7-1.4,1.3-2.1,2c-0.3,0.3-0.5,0.5-0.8,0.8c-0.5,0.5-1,1.1-1.5,1.6c-0.2,0.2-0.5,0.5-0.7,0.7c-0.7,0.7-1.3,1.5-1.9,2.2
				c-0.2,0.3-0.4,0.6-0.7,0.8c-0.5,0.6-0.9,1.1-1.3,1.7c-0.2,0.3-0.5,0.6-0.7,0.9c-0.6,0.8-1.1,1.6-1.7,2.4
				c-0.2,0.3-0.4,0.6-0.6,0.8c-0.4,0.6-0.8,1.2-1.2,1.8c-0.2,0.3-0.4,0.7-0.6,1c-0.5,0.8-1,1.7-1.5,2.5c-0.7-0.5-1.6-1-2.5-1.5
				c3.5-6.4,7.9-12.3,13.2-17.6c7.1-7.1,15.4-12.7,24.6-16.6c9.6-4,19.7-6.1,30.2-6.1c10.5,0,20.6,2,30.2,6.1
				c9.2,3.9,17.5,9.5,24.6,16.6c7.1,7.1,12.7,15.4,16.6,24.6c1,2.3,1.8,4.7,2.6,7.1C203.2,532.9,202.1,532.7,201,532.6"/>
			<path class="st4" d="M86,605l-0.4,0.5c-0.3,0.3-0.6,0.5-0.8,0.6c-0.3,0.1-0.5,0-0.6-0.1c-0.3-0.2-0.4-0.5-0.4-0.7
				c0-0.2,0.2-0.5,0.4-0.7l3.4-3.7c0.2-0.2,0.4-0.3,0.6-0.4c0.2,0,0.4,0.1,0.6,0.3c0.1,0.1,0.2,0.3,0.3,0.4c0,0.1,0,0.3,0,0.4
				c-0.1,0.2-0.1,0.3-0.2,0.4c-0.1,0.1-0.2,0.3-0.3,0.4l-0.6,0.7l1.8,1.6l0.8-0.9c0.6-0.7,0.9-1.4,0.9-2.2c-0.1-0.8-0.5-1.6-1.4-2.4
				c-0.8-0.7-1.5-1-2.3-1c-0.7,0.1-1.5,0.5-2.2,1.3l-2.8,3.1c-0.8,0.8-1.1,1.6-1.1,2.3c0,0.7,0.4,1.5,1.2,2.2
				c0.8,0.7,1.5,1.1,2.3,1.1c0.7,0,1.5-0.3,2.1-1.1l0.6-0.6L86,605z"/>
			<path class="st4" d="M95.8,604.4l-5.4,8.6l2,1.3l2.1-3.3l1.4,0.9l-2.1,3.3l2,1.3l5.4-8.6l-2-1.3l-2.3,3.6l-1.4-0.9l2.3-3.6
				L95.8,604.4z"/>
			<path class="st4" d="M105.1,618.8L105.1,618.8l1-4.5l1.3,0.5L105.1,618.8z M104.8,609.7l-1.7,10.3l2.7,1.1l5.8-8.7l-2.3-0.9
				l-1,1.7l-1.7-0.7l0.5-2L104.8,609.7z"/>
			<path class="st4" d="M116.4,619.5L116.4,619.5l1.3-5.6l-2.2-0.4l-2,10l2.4,0.5l2.9-5.2l0,0l-1.3,5.6l2.2,0.4l2-10l-2.4-0.5
				L116.4,619.5z"/>
			<path class="st4" d="M130.9,615.2l-0.1,0.9h0c-0.2-0.4-0.5-0.7-0.8-0.9c-0.3-0.2-0.7-0.3-1.2-0.3c-0.5,0-0.9,0.1-1.3,0.2
				c-0.3,0.1-0.6,0.4-0.8,0.7c-0.2,0.3-0.4,0.6-0.5,1c-0.1,0.4-0.1,0.8-0.1,1.3l0,4.2c0,1.1,0.2,1.9,0.8,2.5
				c0.5,0.5,1.3,0.8,2.4,0.8c1.1,0,1.9-0.2,2.4-0.7c0.6-0.5,0.9-1.2,0.9-2.2l0-0.8l-2.4,0l0,0.6c0,0.5-0.1,0.8-0.2,1
				c-0.1,0.2-0.3,0.3-0.6,0.3c-0.4,0-0.6-0.1-0.7-0.3c-0.1-0.2-0.2-0.4-0.2-0.8l0.1-5.1c0-0.3,0.1-0.5,0.2-0.7
				c0.2-0.2,0.4-0.2,0.7-0.2c0.2,0,0.3,0,0.5,0.1c0.1,0.1,0.2,0.2,0.3,0.3c0,0.1,0.1,0.3,0.1,0.4c0,0.1,0,0.3,0,0.5l0,0.8l-0.9,0
				l0,1.8l3.3,0l0.1-5.6L130.9,615.2z"/>
			<path class="st4" d="M144.3,616.7L144.3,616.7l2.2,6.9l2.2-0.4l-3.6-9.7l-2.6,0.5l0.7,7.2l0,0l-2.2-6.9l-2.6,0.5l0.3,10.3
				l2.3-0.4l-0.7-7.2l0,0l2.3,6.8l2.3-0.4L144.3,616.7z"/>
			<path class="st4" d="M157,616.8c0.1,0.2,0.1,0.3,0.2,0.5c0,0.1,0.1,0.3,0.1,0.4c0,0.1,0,0.3-0.1,0.4c-0.1,0.1-0.2,0.2-0.4,0.3
				c-0.2,0.1-0.3,0.1-0.5,0.1c-0.1,0-0.3-0.1-0.4-0.2c-0.1-0.1-0.2-0.2-0.3-0.4c-0.1-0.1-0.2-0.3-0.2-0.4l-1.6-3.9
				c-0.1-0.2-0.1-0.3-0.2-0.5c0-0.2-0.1-0.3-0.1-0.5c0-0.2,0-0.3,0.1-0.4c0.1-0.1,0.2-0.2,0.4-0.3c0.2-0.1,0.3-0.1,0.5-0.1
				c0.1,0,0.3,0.1,0.4,0.2c0.1,0.1,0.2,0.2,0.3,0.4c0.1,0.1,0.2,0.3,0.2,0.5L157,616.8z M157.6,612.1c-0.5-1.1-1-1.8-1.7-2.1
				c-0.7-0.3-1.5-0.3-2.6,0.2c-1.1,0.5-1.7,1.1-2,1.8c-0.2,0.7-0.1,1.6,0.4,2.7l1.6,3.8c0.4,0.9,0.9,1.5,1.7,1.7
				c0.7,0.3,1.6,0.2,2.5-0.2c1-0.4,1.6-1,1.9-1.7c0.3-0.7,0.3-1.5-0.1-2.4L157.6,612.1z"/>
			<path class="st4" d="M165.1,610.7L165.1,610.7l-3-4.9l-1.9,1.3l5.7,8.5l2-1.4l-1.6-5.8l0,0l3,4.9l1.9-1.3l-5.7-8.5l-2,1.4
				L165.1,610.7z"/>
			<path class="st4" d="M79.3,599.3l0.8-2.4l2.1,1.4l-0.9-2.4l2.5-0.3l-2.2-1.2l1.7-1.8l-2.5,0.5l0.1-2.5l-1.6,2l-1.5-2l0,2.5
				l-2.5-0.6l1.7,1.9l-2.3,1.1l2.5,0.4l-1,2.3l2.2-1.3L79.3,599.3z"/>
			<path class="st4" d="M174.5,606.7l0.8-2.4l2.1,1.4l-0.9-2.4l2.5-0.3l-2.2-1.2l1.7-1.8l-2.5,0.5l0.1-2.5l-1.6,2l-1.5-2l0,2.5
				l-2.5-0.6l1.7,1.9l-2.3,1.1l2.5,0.4l-1,2.3l2.2-1.3L174.5,606.7z"/>
			<path class="st4" d="M96.3,501.2l2.2,1.2l-2.5,0.3l0.9,2.4l-2.1-1.4l-0.8,2.4l-0.7-2.4l-2.2,1.3l1-2.3l-2.5-0.4l2.3-1.1l-1.7-1.9
				l2.5,0.6l0-2.5l1.5,2l1.6-2l-0.1,2.5l2.5-0.5L96.3,501.2z"/>
			<path class="st4" d="M177.8,511.1l0.9,2.4l-2.1-1.4l-0.8,2.4l-0.7-2.4l-2.2,1.3l1-2.3l-2.5-0.4l2.3-1.1l-1.7-1.9l2.5,0.6l0-2.5
				l1.5,2l1.6-2l-0.1,2.5l2.5-0.5l-1.7,1.8l2.2,1.2L177.8,511.1z"/>
			<path class="st4" d="M103.8,502.3l5.4-2.3l-0.8-1.9l-3,1.3l-0.7-1.6l2.8-1.2l-0.8-1.9l-2.8,1.2l-0.8-1.8l3.2-1.3l-0.8-1.9
				l-5.5,2.4L103.8,502.3z"/>
			<path class="st4" d="M115.3,495.3l0.1,0.2c0.1,0.6,0,1.1-0.5,1.2c-0.5,0.1-0.9-0.2-1-0.7c-0.5-1.9,3.9-2,3-5.5
				c-0.5-2.1-1.9-2.7-4.2-2.1c-2.1,0.5-3.1,1.5-2.6,3.5l0.1,0.3l2.4-0.6l-0.1-0.2c-0.2-0.8,0.1-1.2,0.5-1.3c0.5-0.1,0.9,0.2,1,0.7
				c0.5,1.9-3.7,1.9-2.9,5.4c0.5,1.9,1.8,2.8,3.9,2.2c2.2-0.5,2.9-1.7,2.4-3.8L115.3,495.3z"/>
			<path class="st4" d="M122.8,494.6l-1.9,0.2l0.2,2.2l6.5-0.6l-0.2-2.2l-1.9,0.2l-0.7-7.7l-2.6,0.2L122.8,494.6z"/>
			<path class="st4" d="M129.1,489.2l2.3,0l0-2.8l-2.3,0L129.1,489.2z"/>
			<path class="st4" d="M137.9,493.4c-0.2,1-0.2,1.8,0.2,2.5c0.4,0.7,1.1,1.1,2.4,1.4c2.5,0.5,3.3-0.6,3.6-2.1
				c0.2-1.3-0.1-2.2-0.7-3.1l-1.2-1.7c-0.2-0.3-0.4-0.6-0.5-0.9l3.3,0.6l0.3-1.9l-6.4-1.2c-0.2,1.3-0.1,2.6,0.8,4l1.4,2
				c0.4,0.6,0.5,1,0.4,1.7c-0.1,0.8-0.5,1-0.9,1c-0.4-0.1-0.7-0.3-0.5-1.4l0.1-0.4L137.9,493.4z"/>
			<path class="st4" d="M151,493.1c0.5-1.3,0.8-1.6,1.3-1.4c0.5,0.2,0.6,0.6,0.1,1.9l-1.1,3.1c-0.5,1.3-0.8,1.6-1.3,1.4
				c-0.5-0.2-0.6-0.6-0.1-1.9L151,493.1z M149.5,499.7c2.2,0.8,3.5,0.1,4.8-3.6c1.3-3.8,0.7-5.1-1.5-5.9c-2.2-0.8-3.5-0.1-4.8,3.6
				C146.7,497.6,147.3,498.9,149.5,499.7"/>
			<path class="st4" d="M161.8,494.3l-3.2,5.9l-1.6-0.9l-0.8,1.4c1.4,0.8,1.8,1.4,1.6,2.6l1.6,0.9l4.7-8.7L161.8,494.3z"/>
			<path class="st4" d="M169.9,499.2l-4,5.4l-1.5-1.1l-1,1.3c1.3,0.9,1.6,1.6,1.2,2.8l1.5,1.1l5.8-8L169.9,499.2z"/>
			<path class="st4" d="M180.3,533.3c-0.7-0.5-1.3-1-2.1-1.4c-2.2-4.3-4.9-8.3-8.1-11.8c-0.6-0.7-1.2-1.3-1.8-1.9
				c-0.6-0.6-1.1-1.1-1.7-1.6c-0.1-0.1-0.1-0.1-0.2-0.2c-0.2-0.2-0.4-0.3-0.5-0.5c-9.5-8.4-21.9-13.5-35.6-13.5h0
				c-14.8,0-28.3,6-38,15.7c-0.7,0.7-1.3,1.4-2,2.1c0-0.1-0.1-0.1-0.2-0.1c-0.2,0-0.7-0.1-1.3-0.1c0,0,0,0,0,0
				c4.4-5,9.7-9.2,15.6-12.4c0.1,0,0.1-0.1,0.2-0.1c0.7-0.4,1.5-0.8,2.3-1.1c0.2-0.1,0.4-0.2,0.5-0.2c0.7-0.3,1.3-0.6,2-0.9
				c0.2-0.1,0.5-0.2,0.7-0.3c0.6-0.2,1.2-0.5,1.9-0.7c0.3-0.1,0.6-0.2,0.9-0.3c0.6-0.2,1.2-0.4,1.8-0.6c0.3-0.1,0.7-0.2,1-0.3
				c0.6-0.2,1.2-0.3,1.8-0.4c0.4-0.1,0.7-0.2,1.1-0.2c0.6-0.1,1.2-0.2,1.8-0.3c0.4-0.1,0.7-0.1,1.1-0.2c0.6-0.1,1.2-0.2,1.8-0.3
				c0.4,0,0.7-0.1,1.1-0.1c0.7-0.1,1.3-0.1,2-0.2c0.3,0,0.6-0.1,0.9-0.1c1-0.1,2-0.1,3-0.1c0.8,0,1.7,0,2.5,0.1c0.2,0,0.5,0,0.7,0
				c0.7,0,1.3,0.1,2,0.2c0.2,0,0.4,0,0.6,0.1c0.8,0.1,1.6,0.2,2.4,0.3c0.2,0,0.4,0.1,0.6,0.1c0.6,0.1,1.3,0.2,1.9,0.3
				c0.2,0,0.5,0.1,0.7,0.1c0.7,0.2,1.5,0.3,2.2,0.5c0.1,0,0.1,0,0.2,0c0.8,0.2,1.5,0.4,2.3,0.7c0.8,0.2,1.6,0.5,2.4,0.8
				c0.2,0.1,0.4,0.1,0.6,0.2c0.7,0.3,1.4,0.6,2.2,0.9c0.2,0.1,0.4,0.2,0.6,0.2c0.5,0.2,1.1,0.5,1.6,0.7c0.2,0.1,0.5,0.2,0.7,0.3
				c0.6,0.3,1.2,0.6,1.7,0.9c0.1,0.1,0.3,0.1,0.4,0.2c0.7,0.4,1.3,0.7,2,1.1c0.2,0.1,0.5,0.3,0.7,0.4c0.5,0.3,0.9,0.6,1.4,0.9
				c0.2,0.1,0.4,0.3,0.7,0.4c0.6,0.4,1.2,0.8,1.8,1.3c0.2,0.1,0.4,0.3,0.6,0.5c0.4,0.3,0.8,0.6,1.3,1c0.2,0.2,0.5,0.4,0.7,0.6
				c0.4,0.4,0.8,0.7,1.2,1.1c0.2,0.2,0.4,0.3,0.6,0.5c0.5,0.5,1,0.9,1.5,1.4c0.2,0.2,0.4,0.4,0.7,0.7c0.3,0.3,0.7,0.7,1,1
				c0.2,0.2,0.4,0.5,0.6,0.7c0.5,0.5,0.9,1.1,1.4,1.6c0.2,0.2,0.4,0.5,0.6,0.7c0.3,0.4,0.6,0.7,0.9,1.1c0.2,0.3,0.4,0.5,0.6,0.8
				c0.3,0.4,0.6,0.8,0.8,1.2c0.2,0.3,0.4,0.6,0.6,0.9c0.4,0.5,0.7,1.1,1,1.6c0.2,0.3,0.4,0.6,0.5,0.9c0.2,0.4,0.4,0.8,0.7,1.1
				c0.2,0.3,0.3,0.6,0.5,0.9c0.3,0.6,0.6,1.2,0.9,1.8c0,0,0,0.1,0.1,0.1C179.9,532.5,180.1,532.9,180.3,533.3"/>
			<path class="st4" d="M77.9,568.1c2.3,10,7.3,18.9,14.3,25.9c4.9,4.9,10.6,8.8,17.1,11.5c6.4,2.7,13.5,4.2,20.9,4.2
				c22,0,40.9-13.2,49.2-32.1c0.4,0,0.9,0.1,1.3,0.1c-0.4,1-0.9,2-1.4,3c-0.1,0.3-0.3,0.6-0.4,0.8c-0.2,0.4-0.4,0.8-0.7,1.2
				c-0.2,0.3-0.3,0.5-0.5,0.8c-0.5,0.9-1,1.7-1.6,2.6c-0.1,0.1-0.1,0.2-0.2,0.3c-0.2,0.4-0.5,0.7-0.8,1.1c-0.2,0.3-0.4,0.5-0.6,0.8
				c-0.3,0.4-0.5,0.7-0.8,1.1c-0.2,0.3-0.4,0.5-0.6,0.8c-0.4,0.5-0.7,0.9-1.1,1.4c-0.3,0.4-0.7,0.8-1,1.1c-0.3,0.3-0.5,0.6-0.8,0.9
				c-0.3,0.3-0.5,0.5-0.8,0.8c-0.3,0.3-0.6,0.6-0.8,0.9c-0.3,0.3-0.6,0.6-0.9,0.8c-0.3,0.3-0.6,0.5-0.8,0.8c-0.5,0.5-1,0.9-1.5,1.3
				c-0.3,0.2-0.6,0.4-0.8,0.7c-0.3,0.3-0.7,0.5-1,0.8c-0.3,0.2-0.6,0.4-0.9,0.6c-0.4,0.3-0.8,0.6-1.2,0.9c-0.2,0.2-0.5,0.3-0.7,0.5
				c-0.6,0.4-1.2,0.8-1.8,1.2c-0.3,0.2-0.5,0.3-0.8,0.5c-0.4,0.3-0.9,0.5-1.3,0.7c-0.3,0.2-0.5,0.3-0.8,0.5c-0.5,0.3-1,0.5-1.6,0.8
				c-0.2,0.1-0.4,0.2-0.5,0.3c-0.7,0.3-1.4,0.6-2.1,0.9c-0.2,0.1-0.5,0.2-0.7,0.3c-0.5,0.2-1,0.4-1.5,0.6c-0.3,0.1-0.5,0.2-0.8,0.3
				c-0.6,0.2-1.3,0.4-1.9,0.7c-0.1,0-0.2,0.1-0.4,0.1c-0.8,0.2-1.5,0.5-2.3,0.7c-0.2,0.1-0.5,0.1-0.7,0.2c-0.6,0.1-1.2,0.3-1.7,0.4
				c-0.3,0.1-0.5,0.1-0.8,0.2c-0.8,0.1-1.5,0.3-2.3,0.4c-0.1,0-0.1,0-0.2,0c-0.8,0.1-1.6,0.2-2.5,0.3c-0.2,0-0.5,0-0.7,0.1
				c-0.6,0.1-1.2,0.1-1.9,0.1c-0.2,0-0.5,0-0.7,0c-0.8,0-1.7,0.1-2.5,0.1c-30.4,0-55-24.6-55-55c0-0.5,0-1.1,0-1.6
				c0.4,0.9,0.8,1.7,1.2,2.5C76.6,560.8,77.1,564.5,77.9,568.1"/>
			<path class="st4" d="M136.2,591.5l9.9,1.1c0.3,0,0.5,0.3,0.5,0.5l0.7,5.7c0,0.3-0.1,0.4-0.4,0.4l-13-1.4c-0.2,0-0.4-0.1-0.6-0.3
				l-4.1-4.3l-3.2,3.5c-0.1,0.1-0.3,0.2-0.5,0.2l-12-1.3c-0.2,0-0.4-0.1-0.6-0.3l-3.9-4.1c-0.1-0.2-0.2-0.3-0.3-0.5l-1.9-15.9
				c0-0.3,0.1-0.4,0.4-0.4l5.5,0.6c0.3,0,0.5,0.3,0.5,0.5l1.6,12.9c0.1,0.4,0.4,0.8,0.9,0.9l5.9,0.6c0.4,0,0.7-0.3,0.7-0.7
				l-1.6-12.9c0-0.3,0.1-0.4,0.4-0.4l5.5,0.6c0.3,0,0.5,0.3,0.5,0.5l0.4,3.6l3.2-3.5c0.1-0.1,0.3-0.2,0.5-0.2l13,1.4
				c0.3,0,0.5,0.3,0.5,0.5l0.7,5.7c0,0.3-0.1,0.4-0.4,0.4l-9.9-1.1c-0.4,0-0.7,0.3-0.7,0.7l0.7,6C135.4,591,135.8,591.4,136.2,591.5
				"/>
		</g>
	</g>
</g>
</svg>
