<?xml version="1.0" encoding="utf-8"?>
<!-- Generator: Adobe Illustrator 25.1.0, SVG Export Plug-In . SVG Version: 6.00 Build 0)  -->
<svg version="1.1" xmlns="http://www.w3.org/2000/svg" xmlns:xlink="http://www.w3.org/1999/xlink" x="0px" y="0px"
	 viewBox="0 0 250 250" style="enable-background:new 0 0 250 250;" xml:space="preserve">
<style type="text/css">
	.st0{fill:none;}
	.st1{fill:#D5D5D6;}
	.st2{fill:#CF0022;}
	.st3{fill:#FFFFFF;}
	.st4{fill:#970022;}
	.st5{fill:#FAC109;}
	.st6{fill:#004537;}
</style>
<g id="Layer_1">
	<rect x="8" y="8" class="st0" width="234" height="234"/>
</g>
<g id="레이어_1">
	<g>
		<path class="st1" d="M229.2,132.8c1.2-1.7,2.1-3.6,2.6-5.6l1.2-4.5c0.4-1.6,0.7-3.3,0.7-4.9c0-1.1-0.1-2.2-0.3-3.2l1.9-0.2
			l4.9-18.4l-8.9-10.6l-34,3c-2-2.4-4.1-4.7-6.4-6.9c-0.9-10-9.4-17.9-19.7-17.9c-2.4,0-4.7,0.4-6.9,1.2
			c-13.5-5.6-29.1-8.8-45.8-8.8c-29.1,0-55.2,9.8-71.7,25L14,84l15.8,14.3L8,179.7l9.6,10.5l63.7-11.4c11.3,3.6,23.8,5.6,37.1,5.6
			c22.9,0,43.8-6,59.8-16l4.5,25.5l17.7-39.9l41.6-18.4L229.2,132.8L229.2,132.8z"/>
		<path class="st2" d="M236.9,96.7l-6.9-8.3l-34.1,3c-2.3-3-5-6-8-8.7c-0.3-9-7.7-16.3-16.8-16.3c-2.4,0-4.8,0.5-6.9,1.5
			c-13.3-5.7-29-9-45.7-9c-28.9,0-54.6,9.8-70.6,24.9l-27,2.4L33,97.3l-21.8,81.6l7.5,8.2l62.8-11.3c11.2,3.6,23.7,5.7,36.9,5.7
			c24.1,0,46-6.8,61.9-17.9l3.6,20.5l14.3-32.2l34.6-15.3l-9.2-2.1c2.5-2.1,4.4-4.9,5.3-8.1l1.2-4.5c0.4-1.4,0.5-2.8,0.5-4.2
			c0-1.5-0.3-2.9-0.7-4.2c-0.2-0.5-0.4-1.1-0.7-1.6l3.6-0.3C232.9,111.7,236.9,96.7,236.9,96.7z"/>
		<path class="st3" d="M174.6,156.5c-10.9,7.5-24.6,12.5-39.5,14.6c7.5-2.8,14.5-6.3,20.8-10.5c0.4-0.3,0.8-0.5,1.2-0.8l-12.6,2.2
			c-13.9,7.2-31.2,11.4-50,11.4c-1.8,0-3.6-0.1-5.3-0.1c9.1,2.3,19,3.6,29.2,3.6c24.1,0,45.8-7,61-18.2l-0.9-5.1
			C177.3,154.6,176,155.6,174.6,156.5L174.6,156.5z"/>
		<path class="st4" d="M18.9,176.9l2.3,2.6l161.1-28.7l-0.5-2.9L18.9,176.9z M193,146.6l-8.1,18.2l2.2,2.2l8.1-18.2l17.7-7.8
			l-2.2-2.2L193,146.6z M226.9,95.7l-1.8,6.8l-11.8,1c-0.5,0.1-1,0.5-1.1,1l-1.3,4.8c-0.1,0.5,0.2,0.9,0.6,0.8l2.2-0.2l0.8-2.8
			c0.1-0.5,0.5-0.7,0.9-0.8l11.9-1l1.8-6.8C229.2,98.5,226.9,95.7,226.9,95.7z M153.6,126.8l2.2-0.2l0.9-3.5l15.8-1.4l2.8-10.3
			c0.2-0.8,0.3-1.6,0.3-2.3c0-0.7-0.1-1.4-0.3-2c-0.2-0.6-0.5-1.1-0.9-1.6c-0.4-0.4-1.8-2.1-2.2-2.6c1.1,1.4,1.5,3.5,0.8,5.8
			l-2.8,10.3l-15.8,1.4l-1.5,5.6C152.9,126.5,153.1,126.9,153.6,126.8z"/>
		<path class="st4" d="M191.7,108.3l10.3-0.9l1.6-6c0.1-0.3,0.2-0.5,0.3-0.8l-2.4-2.8l-1.8,6.8l-10.1,0.9c-0.5,0.1-1,0.5-1.1,1
			l-6.6,24.4l-9.6,0.9l0.9-3.2l-2.8,3.4l-21,1.8c-3.2,0.3-5.5-1.4-6.1-4l-4,4.9l-5.8,0.5c-1.5,0.1-2.7-0.3-3.4-1.1
			c-0.7,0.9-1.7,1.5-2.7,1.6l-9.2,0.8c-3.2,0.3-5.5-1.4-6.1-4l-4,4.9l-5.3,0.5c-2.2,0.2-3.9-0.5-5-1.8c0.4,0.5,1.8,2.2,2.2,2.7
			c0.4,0.4,0.8,0.8,1.3,1.1c0.5,0.3,1.1,0.5,1.7,0.7c0.7,0.1,1.3,0.2,2.1,0.1l4.4-0.4l4.1-5c0.6,0.7,1.5,1.8,1.8,2.1
			c0.4,0.4,0.8,0.8,1.3,1.1c0.5,0.3,1.1,0.5,1.7,0.7c0.7,0.1,1.3,0.2,2.1,0.1l9.2-0.8c1-0.1,2-0.7,2.7-1.6c0.7,0.8,1.8,1.2,3.4,1.1
			l5-0.4l4.1-5c0.6,0.7,1.5,1.8,1.8,2.1c0.4,0.4,0.8,0.8,1.3,1.1c0.5,0.3,1.1,0.5,1.7,0.7c0.7,0.1,1.3,0.2,2.1,0.1l21-1.8l0.9-1.1
			l1,1l9.6-0.9l6.6-24.7C191,108.7,191.4,108.4,191.7,108.3L191.7,108.3z M222.5,114.2c-0.4-0.4-1.8-2.1-2.2-2.6
			c1.1,1.4,1.5,3.5,0.8,5.8l-1.7,6.5c-0.5,2.1-2.6,4-4.5,4.2l-21.2,1.8l0.9,5.3l3.1,0.7l-0.6-3.3l18-1.6c3.1-0.3,6.2-3,7-6.3
			l1.2-4.5c0.2-0.8,0.3-1.6,0.3-2.3s-0.1-1.4-0.3-2C223.1,115.3,222.9,114.7,222.5,114.2L222.5,114.2z"/>
		<path class="st4" d="M192.5,123.4l2.9-0.2l-0.2-1.1l-3.6-3.6L192.5,123.4z M202.8,113.9c0.4,0.5,1.9,2.2,2.3,2.7
			c0.4,0.4,0.8,0.8,1.3,1.1c0.5,0.3,1.1,0.5,1.7,0.7c0.7,0.1,1.3,0.2,2.1,0.1l1.4-0.1l0.6-2.1c0.1-0.5-0.2-0.9-0.6-0.8l-3.6,0.3
			C205.6,115.9,203.9,115.2,202.8,113.9z M138.2,128.2l2.2-0.2l11.6-43.5l-2.3-2.7l-12.2,45.6C137.5,127.8,137.8,128.2,138.2,128.2
			L138.2,128.2z M159.8,112c0.1-0.5,0.6-0.9,1.1-1l2.2-0.2l0.6-2.1c0.1-0.5-0.2-0.9-0.6-0.8l-4.4,0.4c-0.5,0.1-1,0.5-1.1,1l-1.5,5.6
			l3.1-0.3C159.1,114.6,159.8,112,159.8,112z M55.6,93.1l-2.3-2.8L36.8,152l3.1-0.3L55.6,93.1z M68.1,139.6
			c-0.7,0.9-1.7,1.5-2.7,1.6l-9.2,0.8c-2.1,0.2-3.8-0.4-4.9-1.7l2.1,2.5c0.4,0.4,0.8,0.8,1.3,1.1c0.5,0.3,1.1,0.5,1.7,0.7
			c0.7,0.1,1.3,0.2,2.1,0.1l9.2-0.8c1-0.1,2-0.7,2.7-1.6c0.7,0.8,1.8,1.2,3.4,1.1l5.8-0.5l1-1.2l0.9,1.1l9.6-0.9l6.8-25.3l3-0.3
			l0.6-2.1c0.1-0.5-0.2-0.9-0.6-0.8l-5.3,0.5l-6.8,25.2l-9.6,0.9l0.9-3.2l-2.8,3.4l-5.8,0.5C69.9,140.8,68.7,140.4,68.1,139.6
			L68.1,139.6z M69.8,119l0.6-2.1c0.1-0.5-0.2-0.9-0.6-0.8l-14.9,1.3l2.3,2.7L69.8,119z"/>
		<path class="st4" d="M60.3,135l2.2-0.2l0.8-2.9c0.1-0.5,0.6-0.9,1.1-1l2.2-0.2l0.8-3l-5.3,0.5c-0.5,0.1-1,0.5-1.1,1l-1.4,5.1
			C59.6,134.7,59.8,135.1,60.3,135z M122.5,129.5l2.2-0.2l3.9-14.6c0.1-0.5,0.6-0.9,1.1-1l2.2-0.2l0.8-3l-5.3,0.5
			c-0.5,0.1-1,0.5-1.1,1l-4.5,16.7C121.8,129.2,122,129.6,122.5,129.5z M76,133.6l2.2-0.2l3.7-13.9c0.2-0.8,0.3-1.6,0.3-2.3
			s-0.1-1.4-0.3-2c-0.2-0.6-0.5-1.1-0.9-1.6c-0.4-0.4-1.8-2.1-2.2-2.6c1.1,1.4,1.5,3.5,0.8,5.8l-4.3,16
			C75.3,133.3,75.6,133.6,76,133.6L76,133.6z M107.1,130.9l2.2-0.2l3.7-13.9c0.2-0.8,0.3-1.6,0.3-2.3c0-0.7-0.1-1.4-0.3-2
			c-0.2-0.6-0.5-1.1-0.9-1.6c-0.4-0.4-1.8-2.1-2.2-2.6c1.1,1.4,1.5,3.5,0.8,5.8l-4.3,16C106.4,130.6,106.7,130.9,107.1,130.9
			L107.1,130.9z"/>
		<path class="st3" d="M212.3,104.5c0.1-0.5,0.6-0.9,1.1-1l11.8-1l1.8-6.8l-18.7,1.6c-2,0.2-4,2.1-4.5,4.2L202,108
			c-1.2,4.7,1.4,8.1,5.9,7.7l3.6-0.3c0.5-0.1,0.8,0.3,0.6,0.8l-1.3,4.8c-0.1,0.5-0.6,0.9-1.1,1l-17.2,1.5l-0.9-5l-8.1,18.2l-7.2,3.2
			L36.8,152l16.5-61.7l-17.6,1.6l4.8,4.4l-21.6,80.6l163-28.9l3,16.7l8.1-18.2l17.7-7.8l-16-3.6l-0.9-5.3l21.2-1.8
			c2-0.2,4-2.1,4.5-4.2l1.7-6.5c1.2-4.7-1.4-8.1-5.9-7.7l-3.6,0.3c-0.5,0.1-0.8-0.3-0.6-0.8C211.1,109.2,212.3,104.5,212.3,104.5z"
			/>
		<circle class="st3" cx="171" cy="83.3" r="13.9"/>
		<path class="st3" d="M162.6,72.2c-12.8-5.5-27.9-8.7-44.2-8.7c-5.9,0-11.5,0.4-17,1.2c22,1,41.7,7.8,55.7,18.3
			C157.2,78.6,159.3,74.7,162.6,72.2L162.6,72.2z M199.7,104.7l1.8-6.8l-17,1.5c-2,0.2-4,2.1-4.5,4.2l-5.7,21.5l-20.6,1.8
			c-0.5,0.1-0.8-0.3-0.6-0.8l1.5-5.6l15.8-1.4l2.8-10.3c1.2-4.7-1.4-8.1-5.9-7.7l-13.7,1.2c-2,0.2-4,2.1-4.5,4.2l-5.3,19.8
			c-0.2,0.5-0.2,1.1-0.3,1.6l-5,0.4c-0.5,0.1-0.8-0.3-0.6-0.8L150,81.8l-15.8,1.4l4.8,4.4l-4.3,16.3l-12.2,1.1c-2,0.2-4,2.1-4.5,4.2
			l-5.3,19.8c-0.2,0.5-0.2,1.1-0.3,1.6l-5,0.4c-0.5,0.1-0.8-0.3-0.6-0.8l4.3-16c1.2-4.7-1.4-8.1-5.9-7.7L88,108l-6.8,25.3l-4.9,0.4
			c-0.5,0.1-0.8-0.3-0.6-0.8l4.3-16c1.2-4.7-1.4-8.1-5.9-7.7l-17.2,1.5l-1.8,6.8l14.9-1.3c0.5-0.1,0.8,0.3,0.6,0.8l-1.4,5.3
			L57,123.3c-2,0.2-4,2-4.6,4l-1.8,7c-1.2,4.7,1.4,8.1,5.9,7.7l9.2-0.8c1-0.1,2-0.7,2.7-1.6c0.7,0.8,1.8,1.2,3.4,1.1l5.8-0.5
			l2.8-3.4l-0.9,3.2l9.6-0.9l6.8-25.3l5.3-0.5c0.5-0.1,0.8,0.3,0.6,0.8l-4.3,16c-1.2,4.7,1.4,8.1,5.9,7.7l5.3-0.5l4-4.9
			c0.6,2.7,2.9,4.3,6.1,4l9.2-0.8c1-0.1,2-0.7,2.7-1.6c0.7,0.8,1.8,1.2,3.4,1.1l5.8-0.5l4-4.9c0.6,2.7,2.9,4.3,6.1,4l21-1.8l2.8-3.4
			l-0.9,3.2l9.6-0.9l6.6-24.4c0.1-0.5,0.6-0.9,1.1-1L199.7,104.7L199.7,104.7z M157.5,109.3c0.1-0.5,0.6-0.9,1.1-1l4.4-0.4
			c0.5-0.1,0.8,0.3,0.6,0.8l-1.5,5.6l-6.1,0.5L157.5,109.3L157.5,109.3z M65.8,133.6c-0.1,0.5-0.6,0.9-1.1,1l-4.4,0.4
			c-0.5,0.1-0.8-0.3-0.6-0.8l1.4-5.1c0.1-0.5,0.6-0.9,1.1-1l5.3-0.5L65.8,133.6L65.8,133.6z M128,128.2c-0.1,0.5-0.6,0.9-1.1,1
			l-4.4,0.4c-0.5,0.1-0.8-0.3-0.6-0.8l4.5-16.7c0.1-0.5,0.6-0.9,1.1-1l5.3-0.5L128,128.2L128,128.2z"/>
		<path class="st1" d="M58.3,138.5c-2.5,0.2-4-1.7-3.3-4.3l1.6-6c0.2-0.7,0.6-1.2,1.1-1.7l-3.8-2c-0.8,0.7-1.5,1.7-1.7,2.7l-1.8,7
			c-1.2,4.7,1.4,8.1,5.9,7.7l9.2-0.8c1-0.1,2-0.7,2.7-1.6c0.7,0.8,1.8,1.2,3.4,1.1l5.7-0.5l-1.3-3.2L58.3,138.5L58.3,138.5z
			 M91.7,110.8l-3.9-3L79.1,140l9.6-0.9l-3.9-3L91.7,110.8z M134.1,83.1l4.8,4.3l-4.4,16.3l3.9,3l5.6-21L134.1,83.1z M166.1,116.7
			l-15.7,1.4l4.1,2.3l15.8-1.4L166.1,116.7z M181.8,100.8c-0.8,0.8-1.5,1.7-1.7,2.8l-7.6,28.2l9.6-0.9l-3.9-3l6.1-22.9
			c0.2-0.7,0.6-1.2,1.1-1.7L181.8,100.8L181.8,100.8z M187.1,102.5c-0.6,0.1-1.2,0.4-1.7,0.8l3.6,2.5c0.2-0.2,0.4-0.3,0.7-0.3
			l10.1-0.9l-3-3L187.1,102.5z M107,134.2l-1.9,0.2c-2.5,0.2-4-1.7-3.3-4.3l4.3-16c0.7-2.5-0.8-4.5-3.3-4.3l-11.2,1l3.9,3l5.3-0.5
			c0.5-0.1,0.8,0.3,0.6,0.8l-4.3,16c-1.2,4.7,1.4,8.1,5.9,7.7l5.3-0.5L107,134.2L107,134.2z"/>
		<path class="st1" d="M73,124.5l-13.5,1.2c-0.6,0.1-1.2,0.4-1.7,0.8l3.8,2c0.2-0.2,0.4-0.3,0.7-0.3l5.3-0.5l-1.6,6
			c-0.1,0.2-0.2,0.5-0.4,0.7l2.8,3.3c0.7-0.1,1.4-0.7,1.6-1.4C69.8,136.2,73,124.5,73,124.5z M71.8,112.6l-12.1,1l-3-3l-1.8,6.8
			l14.9-1.3c0.5-0.1,0.8,0.3,0.6,0.8l-1.4,5.3l4.1,2.3l2.1-7.7C75.7,114.3,74.3,112.3,71.8,112.6z M165.1,104.4l-9,0.8
			c-0.6,0.1-1.2,0.4-1.7,0.8l3.6,2.5c0.2-0.2,0.4-0.3,0.7-0.3l4.4-0.4c0.5-0.1,0.8,0.3,0.6,0.8l-1.5,5.6l4.1,2.3l2.2-8
			C169,106.1,167.6,104.2,165.1,104.4L165.1,104.4z M222.1,99.5l-11.3,1c-0.6,0.1-1.2,0.4-1.7,0.8l3.6,2.5c0.2-0.2,0.4-0.3,0.7-0.3
			l11.8-1L222.1,99.5L222.1,99.5z"/>
		<path class="st1" d="M203.7,101.5c0.3-1.1,0.9-2.1,1.7-2.8l3.6,2.5c-0.5,0.5-0.9,1.1-1.1,1.7l-1.5,5.6c-0.7,2.5,0.8,4.5,3.3,4.3
			l3.6-0.3c2.5-0.2,4,1.7,3.3,4.3l-1.5,5.6c-0.2,0.7-0.6,1.2-1.1,1.7l-3.6-2.5c0.2-0.2,0.3-0.4,0.4-0.7l1.3-4.8
			c0.1-0.5-0.2-0.9-0.6-0.8l-3.6,0.3c-4.5,0.4-7.2-3-5.9-7.7L203.7,101.5c0.3-1.1,0.9-2.1,1.7-2.8"/>
		<path class="st1" d="M214,124.2c-0.5,0.5-1.1,0.8-1.7,0.8l-16.1,1.4l-3.7-3l1.1,6.6l21.2-1.8c1-0.1,2-0.6,2.8-1.4L214,124.2
			L214,124.2z M138.1,131.5l-17.6,1.5c-2.5,0.2-4-1.7-3.3-4.3l4.9-18.3c0.2-0.7,0.6-1.2,1.1-1.7l-3.6-2.5c-0.8,0.8-1.5,1.7-1.7,2.8
			l-5.3,19.8c-1.2,4.7,1.4,8.1,5.9,7.7l9.2-0.8c1-0.1,2-0.7,2.7-1.6c0.7,0.8,1.8,1.2,3.4,1.1l5.8-0.5L138.1,131.5L138.1,131.5z
			 M169.2,128.8l-17.6,1.5c-2.5,0.2-4-1.7-3.3-4.3l4.9-18.3c0.2-0.7,0.6-1.2,1.1-1.7l-3.6-2.5c-0.8,0.8-1.5,1.7-1.7,2.8l-5.3,19.8
			c-1.2,4.7,1.4,8.1,5.9,7.7l21-1.8L169.2,128.8L169.2,128.8z"/>
		<path class="st1" d="M181.9,148l-7.7-1.7L26.4,170.1l20.2-75.3l-10.8-2.9l4.8,4.4l-21.6,80.6L181.9,148z"/>
		<path class="st1" d="M124.9,108c-0.6,0.1-1.2,0.4-1.7,0.8l3.6,2.5c0.2-0.2,0.4-0.3,0.7-0.3l5.3-0.5l-4.7,17.6
			c-0.1,0.2-0.2,0.5-0.4,0.7l2.8,3.3c0.7-0.1,1.4-0.7,1.6-1.4l6.4-24L124.9,108L124.9,108z"/>
		<path class="st5" d="M192.6,137.3l-2-11.4l-5.5,12.3l-8.5,3.7L33.4,158l5.3,4.8l137-18.7l8.3,1.8l2,11.4l5.5-12.3l12-5.3
			L192.6,137.3z"/>
		<path class="st6" d="M189.3,134.2l1.4,4.9l4.7,1.6l-5.3,2.9l-2.9,5.4l-1.4-4.9l-4.7-1.6l5.3-2.8L189.3,134.2z"/>
		<path class="st5" d="M159.9,74.9c-6.7-2.8-14-4.9-21.6-6.2c7.1,2.8,13.7,6.2,19.5,10.3C158.2,77.5,159,76.1,159.9,74.9z"/>
		<path class="st1" d="M174.1,93c-7,0-12.7-5.7-12.7-12.7c0-4.1,2-7.8,5-10.1c-5.4,2-9.2,7.1-9.2,13.1c0,7.7,6.2,13.9,13.9,13.9
			c6,0,11.2-3.8,13.1-9.2C181.8,91.1,178.2,93,174.1,93L174.1,93z"/>
		<path class="st2" d="M174.5,88.1l-0.8-1.8l-0.6,0.7l0.7,1.6l-0.5,0.6l2.1,0.8l0.5-0.7l-1.8-0.8L174.5,88.1z M176.5,86.2l-0.4-2
			l-0.8,0.6l0.4,1.7l-0.7,0.5l1.8,1.2l0.7-0.5l-1.6-1.1L176.5,86.2z M178.8,84.8l-0.1-2l-0.8,0.4v1.8l-0.8,0.4l1.6,1.5l0.8-0.4
			l-1.4-1.4L178.8,84.8z M181.4,83.8l0.4-2l-0.9,0.2l-0.3,1.7l-0.8,0.2l1.2,1.8l0.9-0.2l-1.1-1.6L181.4,83.8z M184.1,83.4l0.7-1.8
			l-0.9,0.1l-0.7,1.6l-0.9,0.1l0.9,2l0.9-0.1l-0.7-1.8L184.1,83.4z M173,90.3l-1.1-1.6l-0.4,0.8l1,1.4l-0.4,0.8l2.1,0.4l0.4-0.8
			l-1.9-0.3L173,90.3z M171.9,92.8l-1.5-1.4l-0.3,0.9l1.3,1.2l-0.3,0.8l2.2-0.1l0.3-0.9l-2,0.1L171.9,92.8z M171.3,95.4l-1.7-1
			l-0.1,0.9l1.5,0.9l-0.1,0.9l2.1-0.5l0.1-0.9l-1.9,0.4L171.3,95.4z M168.6,77l-2-0.8l-0.5,0.7l1.8,0.8l-0.4,0.5l0.8,1.8l0.6-0.7
			l-0.8-1.6L168.6,77z M165,77.9l-0.7,0.5l1.6,1.1l-0.5,0.4l0.4,2l0.7-0.5l-0.4-1.7l0.7-0.5L165,77.9z M163.1,79.4l-0.8,0.4l1.4,1.4
			l-0.6,0.3v2l0.8-0.4v-1.7l0.8-0.4L163.1,79.4z M161,80.3l-0.9,0.3l1.1,1.6l-0.6,0.2l-0.4,2l0.9-0.2l0.3-1.7l0.8-0.2L161,80.3z
			 M158.8,80.9l-0.9,0.1l0.8,1.8l-0.7,0.1l-0.8,1.8l0.9-0.1l0.7-1.6l0.8-0.1L158.8,80.9z M170.1,77.5l0.4-0.8l-1-1.4l0.4-0.8
			l-2.1-0.4l-0.5,0.8l2,0.4l-0.3,0.6L170.1,77.5z M170,73.6l1.5,1.4l0.3-0.9l-1.3-1.2l0.3-0.8h-2.2l-0.3,0.9h2L170,73.6z
			 M170.6,71.1l1.7,1l0.1-0.9l-1.5-0.9l0.1-0.9l-2.1,0.5l-0.1,0.9l1.9-0.4L170.6,71.1z"/>
		<path class="st3" d="M62,96.7l2.3-2.8c1.6,1.3,3.3,2.2,5.3,2.2c1.6,0,2.5-0.7,2.5-1.7v-0.1c0-1-0.6-1.5-3.6-2.2
			c-3.6-0.9-5.9-1.9-5.9-5.4v-0.1c0-3.2,2.5-5.3,6.2-5.3c2.5,0,4.8,0.8,6.6,2.2l-2,2.9c-1.6-1.1-3.1-1.7-4.6-1.7
			c-1.5,0-2.3,0.7-2.3,1.5v0.1c0,1.1,0.8,1.5,3.8,2.3c3.6,0.9,5.6,2.2,5.6,5.3V94c0,3.5-2.7,5.5-6.5,5.5
			C66.8,99.5,64.1,98.6,62,96.7z M77.1,96.7l2.3-2.8c1.6,1.3,3.3,2.2,5.3,2.2c1.6,0,2.5-0.7,2.5-1.7v-0.1c0-1-0.6-1.5-3.6-2.2
			c-3.6-0.9-5.9-1.9-5.9-5.4v-0.1c0-3.2,2.5-5.3,6.2-5.3c2.5,0,4.8,0.8,6.6,2.2l-2,2.9c-1.6-1.1-3.1-1.7-4.6-1.7s-2.3,0.7-2.3,1.5
			v0.1c0,1.1,0.8,1.5,3.8,2.3c3.6,0.9,5.6,2.2,5.6,5.3V94c0,3.5-2.7,5.5-6.5,5.5C81.9,99.5,79.2,98.6,77.1,96.7z M92.6,90.5
			c0-5,3.9-9.2,9.3-9.2c3.2,0,5.1,0.9,6.9,2.4l-2.4,2.9c-1.4-1.1-2.5-1.8-4.6-1.8c-2.8,0-5,2.5-5,5.5v0.1c0,3.3,2.2,5.6,5.4,5.6
			c1.4,0,2.7-0.4,3.6-1.1v-2.5h-4V89h7.6v7.6c-1.8,1.5-4.3,2.8-7.5,2.8C96.4,99.6,92.6,95.7,92.6,90.5z"/>
	</g>
</g>
</svg>
