<?xml version="1.0" encoding="utf-8"?>
<!-- Generator: Adobe Illustrator 25.1.0, SVG Export Plug-In . SVG Version: 6.00 Build 0)  -->
<svg version="1.1" xmlns="http://www.w3.org/2000/svg" xmlns:xlink="http://www.w3.org/1999/xlink" x="0px" y="0px"
	 viewBox="0 0 250 250" style="enable-background:new 0 0 250 250;" xml:space="preserve">
<style type="text/css">
	.st0{fill:#0B0617;fill-opacity:0;}
	.st1{fill:#FFFFFF;}
	.st2{fill-rule:evenodd;clip-rule:evenodd;fill:#4B237A;}
	.st3{fill-rule:evenodd;clip-rule:evenodd;fill:#1E1E3E;}
	.st4{fill-rule:evenodd;clip-rule:evenodd;fill:#C8A05E;}
	.st5{fill:#C8A05E;}
	.st6{fill:#1E1E3E;}
	.st7{fill-rule:evenodd;clip-rule:evenodd;fill:#FFFFFF;}
	.st8{fill:none;}
</style>
<g id="Layer_1">
	<g>
		<path class="st0" d="M8,8.8h234v232.3H8V8.8z"/>
		<path class="st1" d="M214.9,207.1C214.9,207.2,214.9,207.2,214.9,207.1L214.9,207.1"/>
		<path class="st1" d="M35,207.1L35,207.1C35,207.2,35,207.2,35,207.1"/>
		<path class="st1" d="M124.9,230.2c-1.7,0-3.1,0.1-4.4,0.3c-5.2,0.9-8.4,4.4-13.3,6c-7.3,2.3-12.1-1.2-17.1-5.8
			c-2.4-2.2-5.1-4-7.7-5.8c-1.9-1.3-4.7-2.9-6.3-4.4c-6.4,4.3-14.6,10-22.6,9.4c-5.9-0.4-7.6-2.2-11.1-6.6c-3.4-4.2-7.3-8-11.4-11.5
			c-2.8-2.4-4-6.2-3.5-9.8c0.7-4.7,4.1-8.3,7.9-10.8c0.4-2.8,1.1-5.5,2.4-8.1c-8.4,0.3-16.3-0.2-24.8,0.4c4-10.4,7.8-22.7,15.9-30.7
			c-7.6-3.7-12.9-12-18-18.8c6.5-1.8,14.6-4.8,21-5.1c-7.6-16.3-2.8-34.8,0.6-51.8c2.5,2.9,4.9,5.9,7.4,8.8
			c-1.1-5.4-2-10.7-2.8-16.1c4.8-0.1,9.3-0.2,14.1-0.8c0.2-5.5,1-12.6,4.5-16.9c0.5-8.5,6.7-19.1,14.3-22.8
			c3.5-7,10.2-11.5,17.9-12.8c3-3.5,7.1-4.8,11.5-5c8.7-0.3,19.5,4.5,25.6,10.7c6.1-6.2,16.9-11,25.6-10.7c4.4,0.1,8.5,1.5,11.5,5
			c7.7,1.3,14.4,5.7,17.9,12.8c7.7,3.7,13.8,14.4,14.3,22.8c3.6,4.3,4.4,11.4,4.5,16.9c4.8,0.6,9.3,0.7,14.1,0.8
			c-0.8,5.4-1.7,10.7-2.8,16.1c2.5-2.9,5-5.8,7.4-8.8c3.3,17,8.2,35.5,0.6,51.8c6.4,0.3,14.5,3.3,21,5.1c-5.1,6.8-10.4,15.1-18,18.8
			c8.1,8,11.9,20.3,15.9,30.7c-8.5-0.6-16.4-0.1-24.8-0.4c1.2,2.5,2,5.3,2.4,8.1c3.8,2.5,7.1,6.1,7.9,10.8c0.6,3.6-0.7,7.4-3.5,9.8
			c-4.1,3.5-8,7.3-11.4,11.5c-3.5,4.3-5.2,6.2-11.1,6.6c-8,0.5-16.2-5.2-22.6-9.4c-1.6,1.6-4.4,3.1-6.3,4.4
			c-2.7,1.8-5.4,3.6-7.7,5.8c-5.1,4.6-9.9,8.1-17.1,5.8c-4.9-1.6-8.1-5.1-13.3-6C128.1,230.3,126.7,230.2,124.9,230.2"/>
		<path class="st2" d="M101.8,205.7l0.3-0.2l-0.3-0.1c-2.4-1-5.9-0.1-8.2,0.8c-3.9,1.5-8.5,4.5-12,6.8l-0.5,0.3l0.6,0
			c0.2,0,0.5,0,0.7,0.1c1.3,0.3,1.4,0.9,3.1,0.9c2.9,0.1,5.3-1.9,7.6-3.4C96,209,98.8,207.2,101.8,205.7 M148.1,205.7
			c3,1.6,5.8,3.4,8.6,5.2c2.3,1.5,4.7,3.5,7.6,3.4c1.7-0.1,1.8-0.6,3.1-0.9c0.2-0.1,0.5-0.1,0.7-0.1l0.6,0l-0.5-0.3
			c-3.5-2.2-8.1-5.3-12-6.8c-2.3-0.9-5.8-1.8-8.2-0.8l-0.3,0.1L148.1,205.7z M214.7,199.9c-0.7-1.1-1.8-2-2.8-2.7l-0.3-0.2l0,0.3
			c-0.1,2.4-0.3,4.8-0.5,7.2l0,0.2l0.3,0c1.3-0.1,2.8-0.4,3.9-1.1C216.5,202.7,215.4,200.8,214.7,199.9 M35.2,199.9
			c0.7-1.1,1.8-2,2.8-2.7l0.3-0.2l0,0.3c0.1,2.4,0.3,4.8,0.5,7.2l0,0.2l-0.3,0c-1.3-0.1-2.8-0.4-3.9-1.1
			C33.4,202.7,34.5,200.8,35.2,199.9"/>
		<path class="st3" d="M214.9,151.8c9.2-2.1,13.8-8.9,19-15.9c-6.7-1.9-14.4-4.9-21.3-3.3c9.8-15,6.4-31.9,3.2-48.4
			c-5.1,6-7.3,8.4-10.8,10.8c1.8-7.3,3.2-14.6,4.4-22c-4.5-0.1-9-0.4-13.5-1.1c0-5.7-0.5-14.5-4.6-18.4c0-4-1.5-8.7-3.6-12.1
			c-1.8-3-6.6-8.6-10-9.6c-3-7.1-9.7-11.4-17.2-12.3c-5.7-7.9-18.1-4.4-25.3-0.7c-3.9,2-7.6,4.8-10.2,8.4c-2.7-3.7-6.4-6.4-10.2-8.4
			c-7.2-3.7-19.6-7.2-25.3,0.7c-7.6,0.9-14.2,5.2-17.2,12.3c-3.4,0.9-8.2,6.6-10,9.6c-2,3.4-3.6,8.1-3.6,12.1
			c-4.1,3.9-4.6,12.7-4.6,18.4c-4.5,0.7-9,1-13.5,1.1c1.1,7.4,2.6,14.8,4.4,22c-3.5-2.4-5.8-4.8-10.9-10.8
			c-3.2,16.4-6.7,33.3,3.2,48.4c-6.9-1.6-14.6,1.4-21.3,3.3c5.3,7,9.8,13.9,19,15.9c-9.7,6.6-13.5,17.9-17.5,28.3
			c8.3-0.6,18.9,0.7,26.1-0.7c-7.8,9.9-5.3,19.4-4.5,30.8c4.5-3.4,15.4-10.1,18-13.6c0.4,3.5,1,7.1,1.6,10.6
			c9.7-8.2,18.9-13.5,25.3-24c10.3,15,22.4,28.8,36.2,40.3h9.4c13.8-11.5,25.9-25.3,36.2-40.3c6.4,10.4,15.6,15.8,25.3,24
			c0.6-3.5,1.2-7.1,1.6-10.6c2.6,3.4,13.5,10.1,18,13.6c0.8-11.4,3.3-20.9-4.5-30.8c7.1,1.3,17.8,0.1,26.1,0.7
			C228.4,169.7,224.6,158.4,214.9,151.8"/>
		<path class="st4" d="M154.9,26.9c-0.3,1.9-3.1,1.4-3.2,0c0-0.8,0.5-1,0.9-0.8c-0.4-1.8-3.3-1.7-3.3,0.8c0,2.4,1.7,4.3,4.3,4.3
			c2.6,0,4.9-2.6,4.1-5.5c-0.8-3.2-2.2-5.4-6.6-6c-4.4-0.7-18.4,2.9-23.5,12.1c2.2-1.2,21.6-5.1,23.8,23c2.1,1.5,4.3,2.9,6.6,4.2
			c-1.1-10.3-4.4-21.7-11.6-25.9c8.1,3.3,12.7,14.7,14.1,27.3c9.3,5.1,19.7,8.7,30.2,10.7c-0.2-4.3,0-10.1-3-14
			c-0.8,1.5-2.8,4.2-6.9,4.2c-4.1,0-7.8-3.4-7.8-7.8c0-3.1,2.3-5.1,4.9-5c1.5,0,2.6,0.5,3.5,1.5c0.9,1,1.2,2.5,1.1,3.5
			c-0.1,1.1-0.4,1.7-1.7,1.7c-1.1,0-1.9-0.9-2.1-1.8c-0.2-0.9,0.7-1.5,1.4-0.8c-0.4-1.3-0.8-1.9-2.2-2c-1.4,0-2.6,1-2.6,2.8
			c0,3,2.5,5.5,5.5,5.5c3.6,0,5.4-2.8,5.4-5.5c0-2.7-1.3-11.3-10-16.9c0.5,5-3.4,8.3-7.3,8.3c-4,0-7.3-3.2-7.4-7.5
			c0-2.9,2.2-4.8,4.5-4.8c1.2,0,2.6,0.5,3.4,1.6c0.9,1.1,1.1,2,1.1,3.2c0,1.2-0.9,1.6-1.6,1.6c-0.7,0-1.7-0.5-2-1.4
			c-0.2-1,0.3-1.5,1-1.1c-0.3-0.9-0.9-1.7-2-1.7c-1.1,0-2.3,0.8-2.3,2.5c0,2.9,2.4,5.2,5.1,5.2c2.8,0,5.2-2.1,5.1-5.2
			c0-3.1-3.3-11.5-14.3-12.9c1.8,4.3-1.5,9-6.1,9.1c-3.6,0-6.5-2.9-6.5-6.4c0,0,0-0.1,0-0.1c0-2.4,1.7-4.3,4.1-4.2
			C153.6,22.7,155.4,24.5,154.9,26.9 M95,26.9c0.3,1.9,3.1,1.4,3.2,0c0-0.8-0.5-1-0.9-0.8c0.4-1.8,3.3-1.7,3.3,0.8
			c0,2.4-1.7,4.3-4.3,4.3c-2.6,0-4.9-2.6-4.1-5.5c0.8-3.2,2.2-5.4,6.6-6c4.4-0.7,18.4,2.9,23.5,12.1c-2.2-1.2-21.6-5.1-23.8,23
			c-2.1,1.5-4.3,2.9-6.6,4.2c1.1-10.3,4.4-21.7,11.6-25.9c-8.1,3.3-12.7,14.7-14.1,27.3C79.9,65.4,69.5,69,59,71
			c0.2-4.3,0-10.1,3-14c0.8,1.5,2.8,4.2,6.9,4.2c4.1,0,7.8-3.4,7.8-7.8c0-3.1-2.3-5.1-4.9-5.1c-1.5,0-2.6,0.5-3.5,1.5
			c-0.9,1-1.2,2.5-1.1,3.5c0.1,1.1,0.4,1.7,1.7,1.8c1.1,0,1.9-0.9,2.1-1.8c0.2-0.9-0.7-1.5-1.4-0.8c0.4-1.3,0.8-1.9,2.2-2
			c1.4,0,2.6,1,2.6,2.8c0,3-2.5,5.5-5.5,5.5c-3.6,0-5.4-2.8-5.4-5.5c0-2.7,1.3-11.3,10-16.9c-0.5,5,3.4,8.3,7.3,8.3
			c4,0,7.3-3.2,7.4-7.5c0-2.9-2.2-4.8-4.5-4.8c-1.2,0-2.6,0.5-3.4,1.6c-0.9,1.1-1.1,2-1.1,3.2c0,1.2,0.9,1.6,1.6,1.6
			c0.7,0,1.7-0.5,2-1.4c0.2-1-0.3-1.5-1-1.1c0.3-0.9,0.9-1.7,2-1.7c1.1,0,2.3,0.8,2.3,2.5c0,2.9-2.4,5.2-5.1,5.2
			c-2.8,0-5.2-2.1-5.1-5.2c0-3.1,3.3-11.5,14.3-12.9c-1.8,4.3,1.5,9,6.1,9.1c3.6,0,6.5-2.9,6.5-6.4c0,0,0-0.1,0-0.1
			c0-2.4-1.7-4.3-4.1-4.2C96.3,22.7,94.6,24.5,95,26.9"/>
		<path class="st5" d="M197.6,189.3c-0.1-4.8-4.8-13.7-8.6-17.4c5.1,2.8,11.2,12.9,13.9,19.2c-1.4-5.8-5.6-14.3-9.2-16.7
			c5.4,3,9.6,6.9,12.1,12.2c2.8,5.9,1.7,10.1,1.3,15.7c-4.3-3.3-9.2-3.9-13-11.1c-1.5-2.9-2.6-12.9-4.7-15.8
			C191.7,176.4,196.3,185.8,197.6,189.3 M204.9,169.4c-3.6-7-14.9-12.4-21.9-14.9l0,0c10.1,0.9,23.7,6.3,34.8,15.4
			c-7.4-8-18.7-14.8-32.7-17.3c9.4,0,14.2,1.5,23,5.1c-5.5-4-12.4-6.1-19.6-6.9c21.8-1.5,30.3,5.5,37.7,24.8
			c-7.7-0.5-18.4,2.9-29.2-4.2c-5.1-3.4-10.9-8.7-15.8-13.3c0.3-0.5,0.6-1.1,0.8-1.6C191.2,159.1,201.1,164.5,204.9,169.4
			 M213.1,144.6c-4.7-1.4-12.8,0.9-16.4,3c4.4-4.3,16.3-7,21.2-7.3c-5.6-1.1-13.6,0.9-17.6,3.7c2.6-2.6,5.8-4.8,9.3-6.2
			c7.2-2.8,10.4-1.6,17.4,0.3c-4.6,6.2-9.9,10-17,9.9c-3.6,0-6.9-1-10.3,0.2C203,145.8,209.2,144.8,213.1,144.6 M201.1,125.6
			c-1.3,1.8-5.1,5.7-9.3,9.6c0.9-2.1,1.7-4.1,2.5-6.2c4.6-6.1,8.6-12.8,11.4-19.4c-1.6,2.8-4.9,7.7-9.1,13.1
			c2.5-7.1,4.8-14.3,6.8-21.6c3.7-2,7-4,10-7.5c4.7,24-0.4,43.8-26.1,52c0.9-1.9,1.7-3.7,2.5-5.6
			C194.5,135.7,198.7,130.8,201.1,125.6 M52.3,189.3c0.1-4.8,4.8-13.7,8.6-17.4c-5.1,2.8-11.2,12.9-13.9,19.2
			c1.4-5.8,5.6-14.3,9.2-16.7c-5.4,3-9.6,6.9-12.1,12.2c-2.8,5.9-1.7,10.1-1.3,15.7c4.3-3.3,9.2-3.9,13-11.1
			c1.5-2.9,2.6-12.9,4.7-15.8C58.2,176.4,53.6,185.8,52.3,189.3 M45,169.4c3.6-7,14.9-12.4,21.9-14.9l0,0
			c-10.1,0.9-23.7,6.3-34.7,15.4c7.4-8,18.7-14.8,32.7-17.3c-9.4,0-14.2,1.5-23,5.1c5.5-4,12.4-6.1,19.6-6.9
			c-21.8-1.5-30.3,5.5-37.7,24.8c7.7-0.5,18.4,2.9,29.2-4.2c5.1-3.4,10.9-8.7,15.8-13.3l-0.8-1.6C58.7,159.1,48.8,164.5,45,169.4
			 M36.8,144.6c4.7-1.4,12.8,0.9,16.4,3c-4.4-4.3-16.3-7-21.2-7.3c5.6-1.1,13.6,0.9,17.6,3.7c-2.6-2.6-5.8-4.8-9.3-6.2
			c-7.2-2.8-10.4-1.6-17.4,0.3c4.6,6.2,9.9,10,17,9.9c3.6,0,6.9-1,10.3,0.2C46.9,145.8,40.7,144.8,36.8,144.6 M48.8,125.6
			c1.3,1.8,5.1,5.7,9.3,9.6c-0.8-2.1-1.7-4.1-2.5-6.2c-4.6-6.1-8.6-12.8-11.4-19.4c1.6,2.8,4.9,7.7,9.1,13.1
			c-2.5-7.1-4.8-14.3-6.8-21.6c-3.7-2-7-4-10-7.5c-4.7,24,0.4,43.8,26.1,52c-0.9-1.9-1.7-3.7-2.5-5.6
			C55.4,135.7,51.2,130.8,48.8,125.6 M76.9,172.3c-1,2.5-1.9,5-2.7,7.6c0.2-3,0.9-6.1,1.8-9c-0.6-0.9-1.1-1.9-1.7-2.8
			c-2.2,3.9-4.3,8.8-6.9,16.8c1.3-8.9,3.5-14.9,5.6-19.1c-0.6-1-1.1-2-1.7-3c-6.7,6.5-10.8,17.2-10.3,30c4.8-3.1,9.9-6.1,14.8-8.3
			c1.2-0.5,2.3-1,3.5-1.4c0.7-1.1,1.4-2.3,2.1-3.5C79.9,177.1,78.4,174.7,76.9,172.3 M173,172.3c1,2.5,1.9,5,2.7,7.6
			c-0.2-3-0.9-6.1-1.8-9c0.6-0.9,1.1-1.9,1.7-2.8c2.2,3.9,4.3,8.8,7,16.8c-1.3-8.9-3.5-14.9-5.6-19.1c0.6-1,1.1-2,1.7-3
			c6.7,6.5,10.8,17.2,10.3,30c-4.8-3.1-9.9-6.1-14.8-8.3c-1.2-0.5-2.3-1-3.5-1.4c-0.8-1.1-1.5-2.3-2.1-3.5
			C170,177.1,171.5,174.7,173,172.3"/>
		<path class="st2" d="M125.1,43c15.9,23,44.3,36.2,71.5,39.6l0.2,0l0,0.2c-7.7,38-24.8,77-49.2,107.3l-0.1,0.1l-0.1,0
			c-2.2-0.1-4.5-0.2-6.7-0.3c-5.2-0.2-10.6-0.6-15.7-0.6c-5.2,0-10.5,0.4-15.7,0.6c-2.2,0.1-4.5,0.2-6.7,0.3l-0.1,0l-0.1-0.1
			C78,159.9,60.8,120.8,53.2,82.8l0-0.2l0.2,0C80.5,79.2,108.9,66,124.8,43l0.1-0.2L125.1,43z"/>
		<path class="st4" d="M124.9,213.5c37-32.1,62-83,71.6-130.7c-27.3-3.4-55.7-16.7-71.6-39.7c-15.9,23-44.3,36.3-71.6,39.7
			C63,130.5,88,181.4,124.9,213.5 M124.9,218.3c39.9-33.2,66.6-88,76-138.7c-29.7-2.7-61-17.4-76-43.3C110,62.2,78.6,76.9,49,79.6
			C58.4,130.3,85.1,185,124.9,218.3"/>
		<path class="st6" d="M38.6,204.4c-0.2-2.5-0.5-4.8-0.5-7.2c-0.5,0.3-5.4,4.3-3.5,6C35.6,204.1,37.4,204.4,38.6,204.4 M215.2,203.3
			c1.9-1.7-3-5.7-3.5-6c-0.1,2.3-0.3,4.7-0.5,7.2C212.4,204.4,214.4,204,215.2,203.3 M148.2,205.5c2.7,1.5,5.5,3.2,8.6,5.2
			c2.3,1.5,4.7,3.5,7.5,3.4c1.8,0,1.8-0.6,3.1-0.9c0.3-0.1,0.5-0.1,0.8-0.1c-4.6-2.9-9.2-5.7-12-6.8
			C151.6,204.5,149.2,205.1,148.2,205.5 M101.7,205.5c-1-0.4-3.4-1-8,0.8c-2.8,1.1-7.4,3.8-12,6.8c0.3,0,0.5,0,0.8,0.1
			c1.3,0.3,1.2,0.9,3.1,0.9c2.8,0.1,5.3-1.9,7.5-3.4C96.2,208.7,99,207,101.7,205.5 M75.9,184.4c5.1-2.2,10.1-3.5,13.7-2
			c2.4,1,5.3,4.2,8.2,7.8c3.6-0.1,6.8-0.3,11.5-0.5c5.4-0.3,12.7-0.6,15.7-0.6c3,0,10.3,0.3,15.8,0.6c4.7,0.2,7.9,0.4,11.5,0.5
			c2.9-3.6,5.8-6.8,8.2-7.8c3.6-1.5,8.6-0.2,13.7,2c7.1,3.1,14.3,7.9,20.9,12.2c2.4,1.5,11.2,7.9,15.9,7.8l0.8-11.4
			c3.6,2.1,7.1,5.3,7.7,9.4c0.4,2.6-0.4,4.8-2.1,6.6c-0.1,0.1-0.2,0.3-0.4,0.4c-4.3,3.7-8.3,7.6-11.8,11.9c-3.1,3.8-4.1,5.1-8.9,5.4
			c-7.8,0.5-16.6-6.3-23.1-10.5l0,0c-0.5,0.9-1.4,2.1-2.4,2.7c-1.7,1.1-3.3,2.2-5,3.3c-2.8,1.9-5.6,3.8-8.1,6.1
			c-4.1,3.7-8,7.1-14.1,5.1c-3.6-1.2-6.2-3.4-9.5-4.9c-2.8-1.2-5.5-1.6-9.2-1.6c-3.7,0-6.4,0.4-9.2,1.6c-3.4,1.4-6,3.7-9.5,4.9
			c-6.1,2-10-1.4-14.1-5.1c-2.5-2.3-5.3-4.2-8.1-6.1c-1.6-1.1-3.3-2.2-5-3.3c-0.9-0.6-1.9-1.8-2.4-2.7l0,0
			c-6.5,4.2-15.3,11.1-23.1,10.5c-4.8-0.3-5.8-1.6-8.9-5.4c-3.5-4.4-7.6-8.3-11.8-11.9c-0.1-0.1-0.3-0.2-0.4-0.4
			c-1.6-1.7-2.5-4-2.1-6.6c0.6-4.1,4.1-7.3,7.7-9.4l0.8,11.4c4.7,0,13.5-6.3,15.9-7.8C61.6,192.3,68.7,187.5,75.9,184.4"/>
		<path class="st4" d="M143.5,196.9v2.6h-1.8v-2.6c0-1.5-1.3-2.4-2.6-2.4c-1.3,0-2.7,0.8-2.7,2.4v2.6h-1.8v-2.6
			c0-1.5-1.3-2.4-2.6-2.4c-1.3,0-2.6,0.9-2.6,2.4v2.6h-1.8v-2.6c0-1.5-1.3-2.5-2.6-2.5s-2.6,1-2.6,2.5v2.6h-1.8v-2.6
			c0-1.5-1.3-2.4-2.6-2.4s-2.6,0.9-2.6,2.4v2.6h-1.8v-2.6c0-1.5-1.3-2.4-2.6-2.4c-1.3,0-2.6,0.8-2.6,2.4v2.6h-1.8v-2.6
			c0-1.5-1.3-2.3-2.6-2.3c-0.7,0-1.5,0.2-2,0.7c-0.5-0.6-0.9-1.1-1.4-1.7c8.4-0.3,19.8-1,24.5-1c4.7,0,16.1,0.6,24.5,1
			c-0.5,0.6-0.9,1.2-1.4,1.7c-0.5-0.5-1.2-0.7-2-0.7C144.8,194.6,143.5,195.4,143.5,196.9"/>
		<path class="st4" d="M161.7,185.6c6.2-2.6,20,6.7,26.3,10.7c6.4,3.9,15.2,10.3,19.6,11.2c4.4,0.9,6.9-0.6,7.2-0.8
			c-0.3,0.2-6.7,5.7-10.6,10.3c-3.9,4.6-4.3,6-8.2,6.3c-6.1,0.4-12.7-4.7-19.2-8.8c-6.4-4.1-14.9-9.6-19.4-11.4
			c-8-3.1-11.8-0.1-11.8-0.1C150.1,199.3,158.3,187,161.7,185.6"/>
		<path class="st4" d="M88.2,185.6c-6.2-2.6-20,6.7-26.3,10.7c-6.4,3.9-15.2,10.3-19.6,11.2c-4.4,0.9-6.9-0.6-7.2-0.8
			c0.3,0.2,6.7,5.7,10.6,10.3c3.9,4.6,4.3,6,8.2,6.3c6.1,0.4,12.7-4.7,19.2-8.8c6.4-4.1,14.9-9.6,19.4-11.4c8-3.1,11.8-0.1,11.8-0.1
			C99.8,199.3,91.6,187,88.2,185.6"/>
		<path class="st4" d="M124.9,223.6c-3.5,0-6.9,0.6-8.8,1.2c-4.5,1.3-7,4.1-11,5.4c-5.6,1.8-9.5-3.8-13.2-6.5
			c-3.6-2.7-8.9-6.2-10.3-7.1c1.1,0.7,5.2,2.5,10.9-1.4c11.8-7.9,18.3-11.7,32.3-11.7c14,0,20.5,3.8,32.3,11.7
			c5.7,3.8,9.7,2,10.9,1.4c-1.4,0.9-6.7,4.4-10.3,7.1c-3.6,2.7-7.5,8.3-13.2,6.5c-4-1.3-6.5-4.1-11-5.4
			C131.9,224.2,128.4,223.6,124.9,223.6"/>
		<path class="st3" d="M185.9,199.7c-8.2-5-16.6-9.7-21.9-11c-2.2-0.5-4.3-0.2-6.2,0.4c0.4-0.4,0.7-0.8,1.1-1.1
			c0.4-0.3,2.4-1.4,5.5-0.6c5.5,1.4,14,6.2,22.3,11.2c6.3,3.8,8,5.3,14.5,8.8c4.8,2.6,8,3.7,10.5,2.2l-2,1.9
			c-2.6,0.8-5.2-0.8-9.1-2.9C193.9,205,192.2,203.5,185.9,199.7 M64,199.7c8.2-5,16.6-9.7,21.9-11c2.2-0.5,4.3-0.2,6.2,0.4
			c-0.4-0.4-0.7-0.8-1.1-1.1c-0.4-0.3-2.4-1.4-5.5-0.6c-5.5,1.4-14,6.2-22.3,11.2c-6.3,3.8-8,5.3-14.5,8.8c-4.8,2.6-8,3.7-10.5,2.2
			l2,1.9c2.6,0.8,5.2-0.8,9.1-2.9C56,205,57.7,203.5,64,199.7 M100.4,198.9c-8.6-2.3-22.4,7.8-29.3,12.2c-3,1.9-6.2,4.3-9.8,6.2
			c-4.1,2.2-8.4,4.5-13.1,2.9l1.5,1.7c5.6,1.1,8.4-1.2,12.3-3.3c4.2-2.2,7.3-4.7,9.8-6.3c8.1-5.1,19.7-14.1,29.7-12.1
			C101,199.7,100.7,199.2,100.4,198.9 M97.7,215.6c-3.1,2.1-7.7,5.5-11.5,4c0.7,0.5,1.1,0.8,1.9,1.3c3.1,1.1,7.9-2.5,10.4-4.2
			c9.1-6.1,15.6-9.2,26.5-9.2c10.9,0,17.4,3,26.5,9.2c2.4,1.6,7.3,5.2,10.4,4.2c0.7-0.5,1.2-0.9,1.9-1.3c-3.9,1.5-8.5-1.9-11.5-4
			c-9.3-6.3-16.1-9.4-27.2-9.4C113.8,206.2,107.1,209.3,97.7,215.6 M124.9,219.9c-6.6,0-12.9,2.1-18.5,5.4c-2.9,1.7-6.5,3.6-9.9,2.3
			c0.7,0.6,1.3,1.1,2.1,1.5c2.5,0.5,6.2-1.4,8.6-2.7c5.4-3.2,11.3-5.2,17.7-5.2c6.4,0,12.3,2,17.7,5.2c2.3,1.3,5.8,3.2,8.6,2.7
			c0.8-0.5,1.4-0.9,2.1-1.5c-3.5,1.3-7-0.6-9.9-2.3C137.8,222,131.6,219.9,124.9,219.9 M149.6,198.9c8.6-2.3,22.4,7.8,29.3,12.2
			c3,1.9,6.2,4.3,9.8,6.2c4.1,2.2,8.4,4.5,13.1,2.9l-1.5,1.7c-5.6,1.1-8.4-1.2-12.3-3.3c-4.2-2.2-7.3-4.7-9.8-6.3
			c-8.1-5.1-19.7-14.1-29.7-12.1C148.9,199.7,149.2,199.2,149.6,198.9"/>
		<path class="st6" d="M191.9,213.2c-0.1,0.2-0.2,0.4-0.4,0.6c-0.1,0.2-0.3,0.3-0.4,0.4c-0.1,0.1-0.3,0.2-0.5,0.2
			c-0.2,0-0.3,0-0.4-0.1c-0.1-0.1-0.3-0.2-0.3-0.3c-0.1-0.2-0.1-0.3-0.1-0.5c0-0.2,0-0.4,0.1-0.6c0.1-0.2,0.2-0.4,0.3-0.6
			c0.1-0.2,0.2-0.4,0.4-0.5c0.1-0.2,0.3-0.3,0.4-0.4c0.2-0.1,0.3-0.2,0.5-0.2c0.2,0,0.4,0,0.5,0.1c0.1,0.1,0.3,0.2,0.3,0.4
			c0.1,0.2,0.1,0.3,0.1,0.5c0,0.2-0.1,0.4-0.1,0.6C192.1,212.8,192,213,191.9,213.2 M192.7,210c-0.4-0.2-0.8-0.4-1.2-0.4
			c-0.4-0.1-0.8-0.1-1.2,0c-0.4,0.1-0.8,0.3-1.1,0.5c-0.4,0.3-0.7,0.7-0.9,1.1c-0.2,0.4-0.4,0.8-0.5,1.3c-0.1,0.8,0.1,1.6,0.6,2.2
			c0.3,0.3,0.6,0.6,1,0.8c0.3,0.1,0.5,0.3,0.8,0.3c0.3,0.1,0.6,0.1,0.9,0.1c0.3,0,0.6-0.1,0.9-0.2c0.3-0.1,0.6-0.3,0.9-0.5
			c0.3-0.2,0.5-0.6,0.8-1c0.2-0.4,0.4-0.8,0.5-1.2c0.1-0.4,0.1-0.8,0-1.2c-0.1-0.4-0.3-0.7-0.5-1C193.4,210.5,193.1,210.2,192.7,210
			 M186.7,211.7c-0.1,0-0.3-0.1-0.4-0.1c-0.2-0.1-0.3-0.1-0.4-0.2c-0.2-0.1-0.4-0.4-0.6-0.6c-0.1-0.2-0.2-0.5-0.1-0.8
			c0-0.3,0.1-0.6,0.3-0.9c0.2-0.3,0.4-0.5,0.6-0.6c0.2-0.1,0.5-0.2,0.8-0.2c0.3,0,0.6,0.1,0.8,0.3c0.2,0.1,0.3,0.2,0.4,0.3
			c0.1,0.1,0.2,0.2,0.3,0.3l1-1c-0.1-0.1-0.2-0.2-0.2-0.3c-0.2-0.2-0.5-0.4-0.7-0.6c-0.4-0.3-0.9-0.5-1.4-0.6
			c-0.4-0.1-0.9-0.1-1.3,0c-0.4,0.1-0.8,0.2-1.1,0.5c-0.4,0.3-0.7,0.6-0.9,0.9c-0.2,0.4-0.4,0.8-0.5,1.2c-0.1,0.4-0.1,0.8,0,1.2
			c0.1,0.4,0.3,0.7,0.5,1.1c0.3,0.4,0.6,0.7,1,0.9c0.3,0.2,0.7,0.4,1,0.5c0.1,0.1,0.3,0.1,0.4,0.1L186.7,211.7z M184.1,204.7
			l-1.7-1.1l-3.3,5.1l1.7,1.1L184.1,204.7z M185.1,203.3c0.1-0.1,0.2-0.3,0.2-0.5c0-0.2,0-0.3-0.1-0.5c-0.2-0.3-0.5-0.5-0.9-0.6
			c-0.2,0-0.3,0-0.5,0.1c-0.2,0.1-0.3,0.2-0.4,0.3c-0.2,0.3-0.2,0.7,0,1c0.1,0.2,0.2,0.3,0.4,0.4c0.2,0.1,0.3,0.2,0.5,0.2
			C184.5,203.8,184.9,203.6,185.1,203.3 M182.5,200.4l-1.7-1.1l-4.7,7.3l1.7,1.1L182.5,200.4z M173.5,200.6c0.1-0.1,0.2-0.2,0.3-0.3
			c0.1-0.1,0.2-0.2,0.4-0.2c0.3-0.1,0.6-0.1,0.9,0c0.1,0.1,0.2,0.2,0.3,0.3c0.1,0.1,0.1,0.3,0.1,0.4c0,0.1,0,0.3-0.1,0.4
			c0,0.1-0.1,0.3-0.2,0.4L173.5,200.6z M175.2,204.1c-0.5-0.1-1-0.3-1.5-0.6c-0.2-0.1-0.5-0.3-0.6-0.5c-0.2-0.2-0.3-0.4-0.3-0.6
			c0-0.2,0-0.4,0.1-0.6l3.2,1.9c0.1-0.1,0.1-0.2,0.2-0.3c0.1-0.1,0.2-0.2,0.2-0.4c0.3-0.4,0.4-0.9,0.5-1.3c0.1-0.4,0.1-0.8,0-1.1
			c-0.1-0.3-0.2-0.7-0.4-0.9c-0.5-0.6-1.1-1-1.9-1.1c-0.3-0.1-0.7-0.1-1,0c-0.3,0-0.6,0.1-0.9,0.3c-0.3,0.1-0.6,0.3-0.8,0.6
			c-0.2,0.2-0.5,0.5-0.6,0.8c-0.3,0.5-0.5,1.1-0.5,1.6c0,0.5,0.1,1,0.4,1.5c0.3,0.5,0.7,0.9,1.3,1.2c0.2,0.1,0.5,0.3,0.7,0.4
			c0.2,0.1,0.5,0.2,0.7,0.3c0.2,0.1,0.4,0.1,0.7,0.2L175.2,204.1z M145.6,221.4c-0.1,0.2-0.2,0.4-0.4,0.6c-0.1,0.2-0.3,0.3-0.4,0.4
			c-0.1,0.1-0.3,0.2-0.5,0.2c-0.2,0-0.3,0-0.4-0.1c-0.1-0.1-0.3-0.2-0.3-0.3c-0.1-0.2-0.1-0.3-0.1-0.5c0-0.2,0.1-0.4,0.1-0.6
			c0.2-0.4,0.4-0.8,0.7-1.2c0.1-0.2,0.3-0.3,0.4-0.4c0.1-0.1,0.3-0.2,0.5-0.2c0.2,0,0.3,0,0.5,0.1c0.1,0.1,0.2,0.2,0.3,0.4
			c0.1,0.1,0.1,0.3,0.1,0.5c0,0.2-0.1,0.4-0.1,0.6C145.8,221,145.8,221.2,145.6,221.4 M146.4,218.2c-0.4-0.2-0.8-0.4-1.2-0.4
			c-0.4-0.1-0.8-0.1-1.2,0c-0.4,0.1-0.7,0.3-1.1,0.5c-0.4,0.3-0.7,0.7-0.9,1.1c-0.2,0.4-0.4,0.8-0.5,1.2c-0.1,0.4-0.1,0.8,0,1.2
			c0.1,0.4,0.3,0.7,0.5,1c0.2,0.3,0.6,0.6,1,0.8c0.2,0.1,0.5,0.3,0.8,0.3c0.3,0.1,0.6,0.1,0.9,0.1c0.3,0,0.6-0.1,0.9-0.2
			c0.3-0.1,0.6-0.3,0.9-0.5c0.3-0.3,0.5-0.6,0.8-1c0.2-0.4,0.4-0.8,0.5-1.2c0.1-0.4,0.1-0.8,0-1.1c-0.1-0.4-0.2-0.7-0.5-1
			C147.1,218.7,146.8,218.4,146.4,218.2 M138.2,214.5l-0.6,1.4l2.2,0.9l0,0l-0.6,0.3c-0.2,0.1-0.4,0.2-0.6,0.3l-2.5,1.5l-0.4,1.1
			l4.7,1.9l0.6-1.4l-2.4-1l0,0c0.4-0.2,0.8-0.4,1.2-0.7l2.4-1.5l0.5-1.1L138.2,214.5z M136.5,214l-1.9-0.6l-1.7,5.8l1.9,0.6
			L136.5,214z M137,212.4c0.1-0.2,0.1-0.4,0-0.5c0-0.2-0.1-0.3-0.3-0.4c-0.1-0.1-0.3-0.2-0.5-0.3c-0.2-0.1-0.4-0.1-0.5,0
			c-0.3,0.1-0.6,0.3-0.7,0.7c-0.1,0.3,0,0.7,0.2,0.9c0.1,0.1,0.3,0.2,0.5,0.3c0.2,0.1,0.4,0.1,0.5,0c0.2,0,0.3-0.1,0.4-0.2
			C136.8,212.7,136.9,212.5,137,212.4 M130.1,216.2c0,0.2-0.1,0.3-0.1,0.5c-0.1,0.2-0.3,0.4-0.5,0.4c-0.3,0.1-0.6,0-0.8-0.2
			c-0.2-0.2-0.3-0.4-0.3-0.6c-0.1-0.3-0.1-0.6,0-0.9c0-0.2,0.1-0.4,0.1-0.6c0.1-0.2,0.1-0.4,0.3-0.5c0.1-0.1,0.2-0.2,0.4-0.3
			c0.4-0.2,0.9,0,1.1,0.4c0,0.1,0.1,0.1,0.1,0.2c0,0.2,0.1,0.4,0,0.5L130.1,216.2z M132.7,210.2l-2-0.2l-0.3,3.1l0,0
			c-0.1-0.1-0.2-0.3-0.3-0.4c-0.1-0.1-0.3-0.2-0.4-0.3c-0.2-0.1-0.4-0.1-0.6-0.1c-0.3,0-0.7,0-1,0.1c-0.3,0.1-0.6,0.3-0.9,0.5
			c-0.3,0.3-0.5,0.6-0.7,0.9c-0.2,0.4-0.3,0.9-0.3,1.3c0,0.4,0,0.8,0,1.3c0.1,0.4,0.2,0.7,0.4,1c0.2,0.3,0.4,0.5,0.7,0.7
			c0.3,0.2,0.6,0.3,1,0.3c0.5,0,0.9,0,1.3-0.3c0.2-0.1,0.4-0.3,0.5-0.4l0,0l0,0.8l1.8,0.2c0-0.6,0.1-1.2,0.1-1.9L132.7,210.2z
			 M123.1,216.2c0,0.2,0,0.3-0.1,0.5c-0.2,0.2-0.4,0.4-0.7,0.4c-0.1,0-0.2,0-0.3-0.1c-0.1,0-0.2-0.1-0.3-0.2
			c-0.1-0.1-0.1-0.3-0.1-0.4c0-0.2,0-0.3,0.1-0.4c0.1-0.1,0.2-0.2,0.3-0.3c0.2-0.1,0.3-0.1,0.5-0.2c0.2,0,0.4-0.1,0.6-0.1
			L123.1,216.2z M125,214.6c0-0.3,0-0.5-0.1-0.8c-0.1-0.2-0.2-0.5-0.3-0.7c-0.1-0.2-0.3-0.4-0.5-0.6c-0.2-0.2-0.5-0.3-0.8-0.4
			c-0.4-0.1-0.7-0.1-1.1-0.1c-0.6,0-1.2,0.2-1.8,0.4c-0.2,0.1-0.4,0.2-0.5,0.3l0.4,1.2c0.2-0.1,0.4-0.2,0.7-0.3
			c0.3-0.1,0.6-0.1,0.9-0.2c0.2,0,0.4,0,0.6,0.1c0.1,0,0.3,0.1,0.3,0.3c0.1,0.1,0.1,0.3,0.1,0.4c-0.4,0-0.9,0.1-1.3,0.2
			c-0.4,0.1-0.7,0.3-1.1,0.5c-0.3,0.2-0.5,0.4-0.7,0.8c-0.2,0.3-0.2,0.7-0.2,1.1c0,0.3,0.1,0.5,0.2,0.7c0.2,0.4,0.6,0.8,1.1,0.9
			c0.2,0.1,0.5,0.1,0.8,0.1c0.2,0,0.4,0,0.6-0.1c0.2-0.1,0.4-0.1,0.6-0.3c0.2-0.1,0.3-0.3,0.4-0.4l0,0l0.1,0.6l1.8-0.1
			c0-0.1-0.1-0.3-0.1-0.4c0-0.1,0-0.3-0.1-0.5c0-0.2,0-0.3,0-0.5L125,214.6z M118.1,212.7c-0.1,0-0.1,0-0.2,0c-0.1,0-0.2,0-0.2,0
			c-0.2,0-0.4,0.1-0.5,0.2c-0.2,0.1-0.3,0.3-0.4,0.5c-0.1,0.2-0.2,0.5-0.3,0.7l0,0l-0.3-1l-1.7,0.4c0.1,0.3,0.2,0.5,0.2,0.9
			c0.1,0.3,0.2,0.7,0.3,1l0.9,4l2-0.5l-0.7-3c0-0.1,0-0.2-0.1-0.3c0-0.1,0-0.2,0-0.3c0-0.2,0.1-0.3,0.2-0.5c0.1-0.1,0.2-0.2,0.3-0.3
			c0.1-0.1,0.3-0.2,0.5-0.2c0.1,0,0.2,0,0.3-0.1c0.1,0,0.2,0,0.2,0L118.1,212.7z M112.2,218.7c0.1,0.2,0.1,0.3,0,0.5
			c-0.1,0.4-0.5,0.7-0.9,0.7c-0.1,0-0.2-0.1-0.3-0.1c-0.1-0.1-0.2-0.2-0.2-0.3c-0.1-0.1-0.1-0.3,0-0.5c0-0.1,0.1-0.3,0.2-0.4
			c0.1-0.1,0.3-0.2,0.4-0.3c0.2-0.1,0.3-0.2,0.5-0.3L112.2,218.7z M113.5,216.6c-0.1-0.2-0.2-0.5-0.4-0.7c-0.1-0.2-0.3-0.4-0.5-0.6
			c-0.2-0.2-0.4-0.3-0.7-0.4c-0.3-0.1-0.6-0.1-0.9-0.1c-0.4,0-0.7,0.1-1.1,0.3c-0.6,0.2-1.1,0.5-1.6,0.9c-0.2,0.1-0.3,0.3-0.4,0.4
			l0.8,1c0.1-0.2,0.3-0.4,0.6-0.5c0.2-0.2,0.5-0.3,0.8-0.4c0.2-0.1,0.4-0.1,0.6-0.1c0.1,0,0.3,0.1,0.4,0.1c0.1,0.1,0.2,0.2,0.2,0.4
			c-0.4,0.2-0.8,0.4-1.2,0.6c-0.3,0.2-0.6,0.5-0.9,0.8c-0.2,0.3-0.4,0.6-0.4,0.9c-0.1,0.4,0,0.7,0.1,1.1c0.1,0.2,0.2,0.4,0.4,0.6
			c0.3,0.4,0.8,0.6,1.3,0.6c0.3,0,0.5,0,0.8-0.1c0.2-0.1,0.4-0.2,0.6-0.3c0.2-0.1,0.3-0.3,0.4-0.4c0.1-0.2,0.2-0.3,0.3-0.5l0,0
			l0.3,0.5l1.7-0.6c-0.1-0.1-0.1-0.2-0.2-0.4c-0.1-0.3-0.3-0.6-0.4-0.9L113.5,216.6z M102.8,217.9c0.1-0.1,0.1-0.1,0.2-0.2
			c0.1-0.1,0.2-0.1,0.3-0.2c0.2-0.1,0.5-0.2,0.7-0.2c0.2,0,0.4,0,0.6,0.1c0.2,0.1,0.3,0.3,0.5,0.5c0.1,0.2,0.2,0.4,0.2,0.7
			c0,0.2-0.1,0.4-0.2,0.6c-0.2,0.2-0.4,0.4-0.6,0.5c-0.1,0-0.2,0.1-0.2,0.1c-0.1,0-0.1,0.1-0.2,0.1L102.8,217.9z M104.4,224.8l1.8-1
			l-1.4-2.6l0.2-0.1c0.1,0,0.2-0.1,0.2-0.1c0.2-0.1,0.4-0.2,0.6-0.4c0.2-0.2,0.4-0.3,0.6-0.5c0.2-0.2,0.3-0.4,0.5-0.6
			c0.3-0.5,0.4-1.1,0.3-1.6c-0.1-0.3-0.2-0.7-0.4-1c-0.1-0.2-0.3-0.4-0.5-0.6c-0.2-0.2-0.4-0.3-0.6-0.4c-0.2-0.1-0.4-0.2-0.7-0.2
			c-0.4-0.1-0.8,0-1.2,0.1c-0.5,0.1-1,0.4-1.4,0.6c-0.4,0.2-0.8,0.5-1.2,0.7c-0.3,0.2-0.6,0.4-0.8,0.6L104.4,224.8z M87.1,195.8
			c0.1,0.2,0.2,0.4,0.2,0.7c0,0.2,0.1,0.4,0,0.6c0,0.2-0.1,0.3-0.1,0.5c-0.2,0.3-0.5,0.4-0.8,0.3c-0.2,0-0.3-0.1-0.4-0.2
			c-0.1-0.1-0.2-0.3-0.4-0.5c-0.2-0.4-0.4-0.8-0.5-1.2c0-0.2-0.1-0.4-0.1-0.6c0-0.2,0-0.3,0.1-0.5c0.1-0.1,0.2-0.3,0.4-0.3
			c0.2-0.1,0.3-0.1,0.4,0c0.2,0.1,0.3,0.2,0.4,0.3c0.1,0.1,0.2,0.3,0.4,0.5C87,195.4,87.1,195.6,87.1,195.8 M85.2,193.2
			c-0.4,0.1-0.7,0.3-1,0.6c-0.3,0.3-0.5,0.6-0.6,0.9c-0.2,0.4-0.2,0.8-0.2,1.2c0,0.5,0.1,0.9,0.3,1.4c0.2,0.5,0.4,0.8,0.7,1.2
			c0.2,0.3,0.5,0.5,0.9,0.7c0.3,0.2,0.7,0.2,1.1,0.3c0.7,0,1.3-0.2,1.9-0.6c0.5-0.3,0.8-0.8,1-1.4c0.1-0.3,0.1-0.6,0.1-1
			c0-0.4-0.1-0.8-0.3-1.2c-0.1-0.4-0.4-0.8-0.6-1.1c-0.2-0.3-0.5-0.5-0.9-0.7c-0.3-0.2-0.7-0.3-1.1-0.3C86,193,85.6,193,85.2,193.2
			 M82.3,197.2c-0.2-0.4-0.5-0.8-0.8-1.1c-0.3-0.2-0.6-0.4-1-0.4c-0.4,0-0.8,0.1-1.1,0.3c-0.3,0.2-0.6,0.4-0.8,0.8
			c-0.1,0.1-0.1,0.3-0.2,0.4c0,0.1-0.1,0.3-0.1,0.4l0,0l-0.5-0.6l-1.4,0.8l0.5,0.8c0.2,0.3,0.3,0.6,0.5,0.9l2,3.6l1.7-0.9l-1.7-3.1
			c-0.1-0.2-0.2-0.4-0.2-0.6c0-0.3,0.1-0.6,0.4-0.7c0.2-0.1,0.3-0.1,0.4-0.1c0.2,0,0.3,0.1,0.4,0.2c0.1,0.1,0.2,0.3,0.3,0.5l1.7,3.1
			l1.7-0.9L82.3,197.2z M75.7,203c0.2,0.3,0.2,0.6,0,0.9c-0.1,0.1-0.2,0.2-0.3,0.3c-0.1,0.1-0.2,0.1-0.3,0.1c-0.1,0-0.2,0-0.3-0.1
			c-0.1-0.1-0.2-0.2-0.3-0.3c-0.2-0.3-0.2-0.6,0-0.8c0.1-0.1,0.2-0.3,0.3-0.4c0.1-0.1,0.3-0.2,0.4-0.3L75.7,203z M76.5,200.7
			c-0.1-0.2-0.3-0.4-0.5-0.6c-0.2-0.2-0.4-0.4-0.6-0.5c-0.2-0.1-0.4-0.2-0.7-0.3c-0.3,0-0.5,0-0.8,0c-0.3,0.1-0.7,0.2-1,0.4
			c-0.5,0.3-0.9,0.7-1.3,1.2c-0.1,0.1-0.2,0.3-0.3,0.5l0.9,0.9c0.2-0.5,0.6-0.9,1.1-1.1c0.2-0.1,0.4-0.2,0.6-0.2
			c0.1,0,0.3,0,0.4,0.1c0.1,0.1,0.2,0.2,0.3,0.3c-0.4,0.2-0.7,0.5-1,0.8c-0.3,0.3-0.5,0.6-0.7,0.9c-0.1,0.3-0.2,0.6-0.2,1
			c0,0.4,0.1,0.7,0.3,1c0.1,0.2,0.3,0.4,0.5,0.5c0.2,0.1,0.4,0.2,0.6,0.3c0.5,0.1,1,0,1.4-0.2c0.3-0.2,0.6-0.5,0.8-0.9
			c0.1-0.2,0.1-0.4,0.2-0.6l0,0l0.4,0.4l1.4-0.9c-0.1-0.1-0.2-0.2-0.3-0.3c-0.1-0.1-0.2-0.3-0.3-0.4c-0.1-0.1-0.2-0.3-0.3-0.4
			L76.5,200.7z M67.4,203.5l-0.6,0.4l0.7,1.2l0.6-0.4l1.3,2.1c0.1,0.1,0.1,0.2,0.2,0.3c0.1,0.1,0.2,0.3,0.3,0.4
			c0.1,0.1,0.3,0.2,0.4,0.3c0.2,0.1,0.3,0.2,0.5,0.2c0.2,0,0.4,0,0.6,0c0.2,0,0.5-0.2,0.7-0.3c0.2-0.1,0.4-0.3,0.6-0.4
			c0.2-0.1,0.3-0.2,0.4-0.3l-0.8-1.2c-0.1,0.1-0.1,0.1-0.2,0.2c-0.1,0.1-0.1,0.1-0.2,0.1c-0.1,0.1-0.2,0.1-0.4,0.1
			c-0.1,0-0.3-0.1-0.4-0.1c-0.1-0.1-0.3-0.3-0.4-0.4l-1.2-1.9l1.1-0.7l-0.7-1.2l-1.1,0.7l-0.9-1.4l-1.3,1.4L67.4,203.5z M65.7,204.6
			l-1.6,1l3.3,5.1l1.6-1L65.7,204.6z M64.8,203.2c-0.1-0.1-0.2-0.3-0.4-0.4c-0.3-0.2-0.7-0.1-1,0.1c-0.3,0.2-0.5,0.5-0.5,0.9
			c0,0.2,0.1,0.3,0.2,0.5c0.1,0.1,0.2,0.3,0.4,0.3c0.1,0.1,0.3,0.1,0.5,0.1c0.4,0,0.7-0.2,0.8-0.5c0.1-0.1,0.1-0.3,0.1-0.5
			C65,203.5,64.9,203.3,64.8,203.2 M61.8,207.2l1,2.6c0.1,0.2,0.1,0.3,0.2,0.5c0.1,0.2,0.1,0.3,0.2,0.5c0.1,0.2,0.1,0.3,0.2,0.5l0,0
			c-0.4-0.4-0.7-0.8-1.1-1.2l-2-1.9l-1.7,1.1l5,4l1.5-1l-1.7-6.2L61.8,207.2z M58.1,209.6l-1.6,1l3.1,5.2l1.6-1L58.1,209.6z
			 M57.3,208.2c-0.1-0.2-0.2-0.3-0.4-0.4c-0.1-0.1-0.3-0.1-0.5-0.1c-0.2,0-0.3,0.1-0.5,0.2c-0.2,0.1-0.3,0.2-0.4,0.4
			c-0.1,0.1-0.1,0.3-0.1,0.5c0,0.2,0.1,0.3,0.2,0.5c0.2,0.3,0.5,0.5,0.8,0.5c0.2,0,0.3-0.1,0.5-0.2c0.1-0.1,0.3-0.2,0.4-0.4
			c0.1-0.1,0.1-0.3,0.1-0.5C57.4,208.5,57.3,208.3,57.3,208.2 M57.6,215.1c-0.1,0.1-0.2,0.2-0.3,0.2c-0.2,0.2-0.5,0.3-0.7,0.5
			c-0.4,0.2-0.8,0.3-1.2,0.2c-0.4,0-0.7-0.2-1.1-0.5c-0.3-0.3-0.6-0.7-0.9-1.2c-0.2-0.4-0.3-0.8-0.4-1.2c0-0.4,0-0.7,0.1-1
			c0.1-0.3,0.2-0.5,0.4-0.7c0.2-0.2,0.4-0.4,0.7-0.5c0.4-0.2,0.8-0.3,1.2-0.3l-0.4-1.5c-0.1,0-0.3,0-0.4,0c-0.4,0.1-0.9,0.2-1.3,0.4
			c-0.4,0.2-0.7,0.4-1,0.7c-0.6,0.6-1.1,1.3-1.2,2.1c-0.1,0.5-0.1,0.9,0,1.4c0.1,0.5,0.3,1.1,0.5,1.5c0.2,0.4,0.4,0.8,0.7,1.1
			c0.3,0.3,0.6,0.6,0.9,0.8c0.3,0.2,0.7,0.4,1.1,0.5c0.4,0.1,0.8,0.1,1.2,0c0.4-0.1,0.9-0.2,1.4-0.4c0.2-0.1,0.5-0.2,0.7-0.4
			c0.2-0.1,0.4-0.2,0.5-0.4c0.1-0.1,0.2-0.2,0.3-0.3L57.6,215.1z M189.2,205.6l0.1,1.3l0,0.5l-0.4-0.3l-0.5-0.3l-0.1-0.1l0-0.1
			l0-0.5l-0.5,0.2l-0.1,0l-0.1-0.1l-0.5-0.3l-0.4-0.3l0.4-0.2l1.2-0.5l0.1,0l0.1,0.1l0.5,0.4l0.1,0.1L189.2,205.6z M166.5,200.9
			l1.5-3l2.4,1.2l0.7-1.4l-2.4-1.2l0.9-1.7l2.6,1.3l0.7-1.4l-4.4-2.3l-3.8,7.4L166.5,200.9z"/>
		<path class="st6" d="M187.3,93.6h-8.2c-0.2,0-0.5,0-0.7,0.1c-0.2,0.1-0.3,0.2-0.4,0.3c-0.1,0.2-0.2,0.4-0.3,0.7l-0.7,2.4
			c0.2-0.1,0.4-0.2,0.5-0.3c0.2-0.1,0.4-0.2,0.6-0.2c0.2-0.1,0.5-0.1,0.9-0.1h3.9v0.9c0,0.5,0,1-0.2,1.4c-0.1,0.4-0.4,0.8-0.7,1.1
			c-0.3,0.3-0.8,0.5-1.4,0.7c-0.6,0.2-1.4,0.2-2.3,0.2c-3.7,0-5.5-1.8-5.5-5.4c0-1.2,0.2-2.3,0.7-3.2c0.5-0.9,1.2-1.6,2.1-2
			c0.9-0.5,2-0.7,3.4-0.7c0.6,0,1.2,0,1.8,0.1c0.6,0.1,1.1,0.2,1.7,0.4c0.5,0.2,1,0.3,1.4,0.5c0.4,0.2,0.8,0.4,1,0.7l1.2-4.1
			c-0.4,0.1-0.9,0.1-1.3,0.1c-0.4,0-0.7,0-1.1-0.1c-0.4-0.1-0.9-0.1-1.4-0.2c-0.5-0.1-1.1-0.1-1.7-0.2c-0.6-0.1-1.2-0.1-1.9-0.1
			c-1.5,0-2.8,0.2-4,0.5c-1.2,0.3-2.2,0.8-3,1.4c-0.7,0.5-1.3,1.1-1.8,1.8c-0.5,0.7-0.9,1.5-1.1,2.3c-0.3,0.8-0.4,1.7-0.4,2.6
			c0,1.3,0.2,2.5,0.7,3.5c0.4,1,1.1,1.9,1.9,2.7c0.9,0.7,1.8,1.3,2.9,1.7c1.2,0.4,2.4,0.6,3.7,0.6c1.7,0,3.3-0.2,4.9-0.6l1.7-0.4
			c0.5-0.1,0.9-0.2,1.2-0.2c0.2,0,0.4,0,0.6,0.1c0.2,0.1,0.4,0.1,0.6,0.2v-8c0-0.2,0-0.4,0-0.5c0-0.1,0.1-0.3,0.1-0.4
			C187.1,93.8,187.2,93.7,187.3,93.6 M166.9,86.9h-6.6c0.3,0.2,0.6,0.4,0.9,0.7c0.2,0.3,0.4,0.6,0.5,1c0.1,0.4,0.2,0.9,0.2,1.5v9.9
			l-6.4-12.3c0-0.1-0.1-0.1-0.1-0.2c0-0.1,0-0.2,0-0.2c0-0.1,0-0.2,0.1-0.2c0,0,0.1-0.1,0.1-0.1h-8.2c0.3,0.1,0.5,0.3,0.7,0.5
			c0.2,0.2,0.3,0.4,0.5,0.6c0.1,0.2,0.2,0.5,0.3,0.9c0.1,0.3,0.1,0.8,0.1,1.2v10.1c0,0.5,0,0.9-0.1,1.2c0,0.3-0.1,0.6-0.3,0.9
			c-0.1,0.2-0.3,0.4-0.5,0.6c-0.2,0.2-0.4,0.3-0.7,0.5h6.5c-0.2-0.1-0.4-0.3-0.6-0.5c-0.2-0.2-0.3-0.4-0.4-0.6
			c-0.1-0.3-0.2-0.6-0.3-0.8c-0.1-0.4-0.1-0.9-0.1-1.3V89.7l6.7,12.8c0,0,0.1,0.1,0.1,0.2l0.1,0.2c0,0.1,0,0.1,0.1,0.2
			c0,0.1,0,0.2-0.1,0.2c0,0.1-0.1,0.1-0.2,0.2h6.6c-0.1-0.1-0.2-0.2-0.2-0.3c-0.1-0.1-0.1-0.3-0.1-0.4V90.1c0-0.6,0.1-1.2,0.2-1.6
			c0.1-0.4,0.3-0.7,0.5-1C166.2,87.3,166.5,87.1,166.9,86.9 M139.1,97h-6.8l3.5-7.6L139.1,97z M146.4,103.4
			c-0.2-0.3-0.5-0.7-0.8-1.2c-0.3-0.5-0.6-1.1-0.9-1.8L139,87.9c0-0.1-0.1-0.1-0.1-0.2c0-0.1-0.1-0.2-0.1-0.3c0-0.1,0-0.2,0.1-0.2
			c0-0.1,0.1-0.1,0.2-0.2h-6.5c0,0,0.1,0.1,0.1,0.1c0,0.1,0.1,0.2,0.1,0.2c0,0.1,0,0.2-0.1,0.3c0,0.1-0.1,0.1-0.1,0.2l-6.5,13.5
			c0,0.1-0.1,0.2-0.2,0.4c-0.1,0.2-0.2,0.5-0.4,0.7c-0.2,0.4-0.5,0.7-0.8,1h6.2c-0.1-0.1-0.3-0.3-0.4-0.4c-0.1-0.1-0.2-0.3-0.3-0.5
			c-0.1-0.2-0.1-0.4-0.1-0.7c0-0.2,0-0.5,0.1-0.7c0.1-0.2,0.2-0.4,0.2-0.7l0.2-0.5h9.5l0.4,0.9c0.1,0.2,0.1,0.3,0.2,0.5
			c0.1,0.2,0.1,0.4,0.1,0.6c0,0.3,0,0.5-0.1,0.6c0,0.2-0.1,0.3-0.2,0.5c-0.1,0.1-0.2,0.3-0.3,0.4H146.4z M128.5,86.9h-6.6
			c0.2,0.1,0.4,0.2,0.5,0.4c0.1,0.2,0.2,0.4,0.2,0.7c0,0.2-0.1,0.5-0.2,0.7c-0.1,0.2-0.2,0.4-0.4,0.6l-3.7,5.5l-3.7-5.5
			c-0.2-0.2-0.3-0.5-0.4-0.7c-0.1-0.2-0.1-0.4-0.2-0.7c0-0.2,0.1-0.4,0.2-0.6c0.1-0.2,0.3-0.3,0.5-0.4h-7.2c0.7,0.4,1.3,0.9,1.8,1.5
			c0.3,0.3,0.5,0.6,0.8,1l6.1,8.5v2.2c0,0.4,0,0.8-0.1,1.2c-0.1,0.3-0.1,0.6-0.3,0.9c-0.1,0.2-0.3,0.4-0.5,0.6
			c-0.2,0.2-0.4,0.3-0.7,0.5h7c-0.2-0.1-0.5-0.3-0.7-0.5c-0.2-0.2-0.4-0.4-0.5-0.6c-0.1-0.2-0.2-0.5-0.3-0.9
			c-0.1-0.4-0.1-0.8-0.1-1.2V98l6.4-8.8c0.2-0.3,0.4-0.5,0.6-0.8C127.5,87.8,127.9,87.4,128.5,86.9 M106.9,86.9h-6.6
			c0.3,0.2,0.6,0.4,0.9,0.7c0.2,0.3,0.4,0.6,0.5,1c0.1,0.5,0.2,1,0.2,1.5v9.9l-6.4-12.3c0-0.1-0.1-0.1-0.1-0.2c0-0.1,0-0.2,0-0.2
			c0-0.1,0.1-0.3,0.2-0.3h-8.2c0.2,0.1,0.5,0.3,0.7,0.5c0.2,0.2,0.3,0.4,0.5,0.6c0.1,0.2,0.2,0.5,0.3,0.9c0.1,0.3,0.1,0.8,0.1,1.2
			v10.1c0,0.5,0,0.9-0.1,1.2c0,0.3-0.1,0.6-0.3,0.9c-0.1,0.2-0.3,0.4-0.5,0.6c-0.2,0.2-0.4,0.3-0.7,0.5h6.5
			c-0.2-0.1-0.4-0.3-0.6-0.5c-0.2-0.2-0.3-0.4-0.4-0.6c-0.1-0.3-0.2-0.6-0.3-0.8c-0.1-0.4-0.1-0.9-0.1-1.3V89.7l6.7,12.8
			c0,0,0,0.1,0.1,0.2c0,0.1,0.1,0.1,0.1,0.2c0,0.1,0.1,0.1,0.1,0.2c0,0.1,0,0.2-0.1,0.2c0,0.1-0.1,0.1-0.2,0.2h6.6
			c-0.1-0.1-0.2-0.2-0.3-0.3c-0.1-0.1-0.1-0.3-0.1-0.4V90.1c0-0.6,0.1-1.2,0.2-1.6c0.1-0.4,0.3-0.7,0.5-1
			C106.3,87.3,106.6,87.1,106.9,86.9 M79.1,97h-6.8l3.5-7.6L79.1,97z M86.4,103.4c-0.2-0.3-0.5-0.7-0.8-1.2
			c-0.3-0.6-0.7-1.2-0.9-1.8L79,87.9c-0.1-0.2-0.1-0.4-0.1-0.5c0-0.1,0-0.2,0.1-0.2c0.1-0.1,0.1-0.1,0.2-0.2h-6.5
			c0,0,0.1,0.1,0.1,0.1c0,0.1,0.1,0.2,0.1,0.2c0,0.1,0,0.2-0.1,0.3c0,0.1-0.1,0.1-0.1,0.2l-6.5,13.5c-0.2,0.4-0.3,0.7-0.6,1.1
			c-0.2,0.4-0.5,0.7-0.8,1H71c-0.1-0.1-0.3-0.3-0.4-0.4c-0.1-0.1-0.2-0.3-0.3-0.5c-0.1-0.2-0.1-0.4-0.1-0.7c0-0.2,0-0.5,0.1-0.7
			c0.1-0.2,0.1-0.4,0.2-0.7l0.2-0.5h9.5l0.4,0.9c0.1,0.2,0.1,0.3,0.2,0.5c0,0.2,0.1,0.4,0.1,0.6c0,0.3,0,0.5-0.1,0.6
			c0,0.2-0.1,0.3-0.2,0.5c-0.1,0.1-0.2,0.3-0.3,0.4H86.4z"/>
		<path class="st3" d="M142.4,163.4c5-1.7,9.9-4.4,14.3-7.6c-3,10.6-11.3,18.9-21.9,21.9C138,173.4,140.7,168.4,142.4,163.4
			 M95.4,155.8c4.4,3.2,9.3,5.9,14.3,7.6c1.7,5,4.4,9.9,7.6,14.3C106.8,174.7,98.5,166.4,95.4,155.8 M109.7,130.8
			c-5,1.7-9.9,4.4-14.3,7.6c3-10.6,11.3-18.9,21.9-21.9C114.1,120.9,111.5,125.8,109.7,130.8 M156.7,138.4
			c-4.4-3.2-9.3-5.9-14.3-7.6c-1.7-5-4.4-9.9-7.6-14.3C145.4,119.5,153.7,127.8,156.7,138.4 M159.7,151.3L159.7,151.3
			c0.2-1.3,0.2-2.6,0.3-3.9v-0.1l0-0.1l0-0.1v-0.1c0-1.3-0.1-2.6-0.2-3.9l0,0c-1.9-15.4-14.1-27.6-29.5-29.5l0,0
			c-1.3-0.2-2.6-0.2-3.9-0.2h-0.1l-0.1,0l-0.1,0h-0.1c-1.3,0-2.6,0.1-3.9,0.2l0,0c-15.4,1.9-27.6,14.1-29.5,29.5v0
			c-0.2,1.3-0.2,2.6-0.2,3.9v0.1l0,0.1l0,0.1v0.1c0,1.3,0.1,2.6,0.2,3.9v0c1.9,15.4,14.1,27.6,29.5,29.5l0,0
			c1.3,0.2,2.6,0.2,3.9,0.3h0.4c1.3,0,2.7-0.1,3.9-0.3l0,0C145.6,178.9,157.9,166.7,159.7,151.3 M107.6,155
			c-4.1-1.9-8.5-4.8-11.8-7.9l0,0l0,0c3.3-3,7.7-6,11.8-7.9l0,0c-0.4,2.6-0.6,5.2-0.6,7.9C107,149.4,107.1,152.1,107.6,155
			L107.6,155z M144.5,139.2c4.1,1.9,8.5,4.8,11.8,7.9l0,0l0,0c-3.4,3-7.7,6-11.8,7.9l0,0c0.4-2.8,0.6-5.6,0.6-7.9
			C145.1,144.8,145,142.1,144.5,139.2L144.5,139.2z M134,165.6c-1.9,4.1-4.8,8.5-7.9,11.8l0,0l0,0c-3-3.4-6-7.7-7.9-11.8l0,0
			c2.6,0.4,5.2,0.6,7.9,0.6C128.4,166.2,131.1,166,134,165.6L134,165.6z M118.2,128.7c1.9-4.1,4.8-8.5,7.9-11.8l0,0l0,0
			c3,3.3,6,7.7,7.9,11.8l0,0c-2.6-0.4-5.2-0.6-7.9-0.6C123.8,128.1,121.1,128.2,118.2,128.7L118.2,128.7z M114,147.1
			c0-3.7,0.6-8.4,1.3-10.7l0,0l0,0c2.3-0.7,7-1.3,10.7-1.3c3.7,0,8.4,0.6,10.7,1.3l0,0l0,0c0.7,2.3,1.3,7,1.3,10.7
			c0,3.7-0.6,8.4-1.3,10.7l0,0l0,0c-2.3,0.7-7,1.3-10.7,1.3c-3.7,0-8.4-0.6-10.7-1.3l0,0l0,0C114.6,155.5,114,150.9,114,147.1"/>
		<path class="st1" d="M186.2,92.2H178c-0.2,0-0.5,0-0.7,0.1c-0.2,0.1-0.3,0.2-0.4,0.3c-0.1,0.2-0.2,0.4-0.3,0.7l-0.7,2.4
			c0.2-0.1,0.4-0.2,0.5-0.3c0.2-0.1,0.4-0.2,0.6-0.2c0.2-0.1,0.5-0.1,0.9-0.1h3.9V96c0,0.5,0,1-0.2,1.5c-0.1,0.4-0.4,0.8-0.7,1.1
			c-0.3,0.3-0.8,0.5-1.4,0.7c-0.6,0.2-1.4,0.2-2.3,0.2c-3.7,0-5.5-1.8-5.5-5.4c0-1.2,0.2-2.3,0.7-3.2c0.5-0.9,1.2-1.6,2.1-2
			c0.9-0.5,2-0.7,3.4-0.7c0.6,0,1.2,0,1.8,0.1c0.6,0.1,1.1,0.2,1.7,0.4c0.5,0.1,1,0.3,1.4,0.5c0.4,0.2,0.8,0.4,1,0.7l1.2-4.1
			c-0.4,0.1-0.9,0.1-1.3,0.1c-0.3,0-0.7,0-1.1-0.1c-0.4-0.1-0.9-0.1-1.4-0.2c-0.5-0.1-1.1-0.1-1.7-0.2c-0.6-0.1-1.2-0.1-1.9-0.1
			c-1.5,0-2.8,0.2-4,0.5c-1.2,0.3-2.2,0.8-3,1.4c-0.7,0.5-1.3,1.1-1.8,1.9c-0.5,0.7-0.9,1.5-1.1,2.3c-0.3,0.8-0.4,1.7-0.4,2.6
			c0,1.3,0.2,2.5,0.7,3.5c0.4,1,1.1,1.9,1.9,2.7c0.9,0.7,1.8,1.3,2.9,1.7c1.2,0.4,2.4,0.6,3.7,0.6c1.7,0,3.3-0.2,4.9-0.6l1.7-0.4
			c0.5-0.1,0.9-0.2,1.2-0.2c0.2,0,0.4,0,0.6,0.1c0.2,0.1,0.4,0.1,0.6,0.2v-8c0-0.2,0-0.4,0-0.5c0-0.1,0.1-0.3,0.1-0.4
			C186,92.5,186.1,92.3,186.2,92.2 M165.7,85.5h-6.6c0.4,0.2,0.7,0.4,0.9,0.7c0.2,0.3,0.4,0.6,0.5,1c0.1,0.4,0.2,0.9,0.2,1.5v9.9
			l-6.4-12.3c-0.1-0.1-0.1-0.3-0.1-0.4c0-0.1,0-0.2,0.1-0.2c0-0.1,0.1-0.1,0.1-0.1h-8.2c0.3,0.1,0.5,0.3,0.7,0.5
			c0.2,0.2,0.3,0.4,0.5,0.6c0.1,0.2,0.2,0.5,0.3,0.9c0.1,0.3,0.1,0.8,0.1,1.2v10.1c0,0.5,0,0.9-0.1,1.2c0,0.3-0.1,0.6-0.3,0.9
			c-0.1,0.2-0.3,0.4-0.5,0.6c-0.2,0.2-0.4,0.3-0.7,0.5h6.5c-0.2-0.1-0.4-0.3-0.6-0.5c-0.2-0.2-0.3-0.4-0.4-0.6
			c-0.1-0.3-0.2-0.6-0.3-0.8c-0.1-0.4-0.1-0.9-0.1-1.3V88.3l6.7,12.8l0.1,0.2c0,0.1,0.1,0.1,0.1,0.2c0,0.1,0,0.1,0.1,0.2
			c0,0.1,0,0.2-0.1,0.2c0,0.1-0.1,0.1-0.2,0.2h6.6c-0.1-0.1-0.2-0.2-0.3-0.3c-0.1-0.1-0.1-0.3-0.1-0.4V88.8c0-0.6,0.1-1.2,0.2-1.6
			c0.1-0.4,0.3-0.7,0.5-1C165.1,85.9,165.4,85.7,165.7,85.5 M137.9,95.6h-6.8l3.5-7.6L137.9,95.6z M145.3,102
			c-0.2-0.3-0.5-0.7-0.8-1.2c-0.3-0.6-0.7-1.2-0.9-1.8l-5.7-12.6c0-0.1-0.1-0.1-0.1-0.2c0-0.1-0.1-0.2-0.1-0.3c0-0.1,0-0.2,0.1-0.2
			c0.1-0.1,0.1-0.1,0.2-0.2h-6.5c0,0,0.1,0.1,0.1,0.1c0,0.1,0.1,0.2,0.1,0.2c0,0.1,0,0.2-0.1,0.3c0,0.1-0.1,0.1-0.1,0.2L125,99.9
			c-0.1,0.4-0.3,0.7-0.6,1.1c-0.2,0.4-0.5,0.7-0.8,1h6.2c-0.1-0.1-0.3-0.3-0.4-0.4c-0.1-0.1-0.2-0.3-0.3-0.5
			c-0.1-0.2-0.1-0.4-0.1-0.7c0-0.2,0-0.5,0.1-0.7c0.1-0.2,0.1-0.4,0.2-0.7l0.2-0.5h9.5l0.4,0.9c0.1,0.2,0.1,0.3,0.2,0.5
			c0.1,0.4,0.1,0.8,0,1.2c0,0.2-0.1,0.3-0.2,0.5c-0.1,0.1-0.2,0.3-0.3,0.4L145.3,102z M127.4,85.5h-6.6c0.2,0.1,0.4,0.2,0.5,0.4
			c0.1,0.2,0.2,0.4,0.2,0.7c0,0.2-0.1,0.5-0.2,0.7c-0.1,0.2-0.2,0.4-0.4,0.6l-3.7,5.5l-3.7-5.5c-0.2-0.2-0.3-0.5-0.4-0.7
			c-0.1-0.2-0.1-0.4-0.2-0.7c0-0.2,0-0.4,0.2-0.6c0.1-0.2,0.3-0.3,0.5-0.4h-7.2c0.7,0.4,1.3,0.9,1.8,1.5c0.3,0.3,0.5,0.6,0.8,1
			l6.1,8.5v2.2c0,0.5,0,0.9-0.1,1.2c-0.1,0.3-0.1,0.6-0.3,0.9c-0.1,0.2-0.3,0.4-0.5,0.6c-0.2,0.2-0.4,0.3-0.7,0.5h7
			c-0.2-0.1-0.4-0.3-0.6-0.5c-0.2-0.2-0.4-0.4-0.5-0.6c-0.1-0.3-0.2-0.6-0.3-0.9c-0.1-0.4-0.1-0.8-0.1-1.2v-2.2l6.4-8.8
			c0.2-0.3,0.4-0.5,0.6-0.8C126.3,86.5,126.8,86,127.4,85.5 M105.8,85.5h-6.6c0.4,0.2,0.7,0.4,0.9,0.7c0.2,0.3,0.4,0.6,0.5,1
			c0.1,0.4,0.2,0.9,0.2,1.5v9.9l-6.4-12.3c0-0.1-0.1-0.1-0.1-0.2c0-0.1,0-0.2,0-0.2c0-0.1,0-0.2,0.1-0.2c0-0.1,0.1-0.1,0.1-0.1h-8.2
			c0.3,0.1,0.5,0.3,0.7,0.5c0.2,0.2,0.3,0.4,0.5,0.6c0.1,0.2,0.2,0.5,0.3,0.9c0.1,0.3,0.1,0.8,0.1,1.2v10.1c0,0.5,0,0.9-0.1,1.2
			c0,0.3-0.1,0.6-0.3,0.9c-0.1,0.2-0.3,0.4-0.5,0.6c-0.2,0.2-0.4,0.3-0.7,0.5h6.5c-0.2-0.2-0.4-0.3-0.6-0.5
			c-0.2-0.2-0.3-0.4-0.4-0.6c-0.1-0.3-0.2-0.6-0.3-0.8c-0.1-0.4-0.1-0.9-0.1-1.3V88.3l6.7,12.8c0,0,0,0.1,0.1,0.2
			c0,0.1,0.1,0.1,0.1,0.2c0,0.1,0.1,0.1,0.1,0.2c0,0.1,0,0.2-0.1,0.2c0,0.1-0.1,0.1-0.2,0.2h6.6c-0.1-0.1-0.2-0.2-0.2-0.3
			c-0.1-0.1-0.1-0.3-0.1-0.4V88.8c0-0.6,0.1-1.2,0.2-1.6c0.1-0.4,0.3-0.7,0.5-1C105.1,85.9,105.4,85.7,105.8,85.5 M78,95.6h-6.8
			l3.5-7.6L78,95.6z M85.3,102c-0.2-0.3-0.5-0.7-0.8-1.2c-0.3-0.6-0.7-1.2-0.9-1.8l-5.7-12.6c0-0.1-0.1-0.1-0.1-0.2
			c0-0.1-0.1-0.2-0.1-0.3c0-0.1,0-0.2,0.1-0.2c0.1-0.1,0.1-0.1,0.2-0.2h-6.5c0,0,0.1,0.1,0.1,0.1c0,0.1,0.1,0.2,0.1,0.2
			c0,0.1,0,0.2-0.1,0.3c0,0.1-0.1,0.1-0.1,0.2L65,99.9c-0.2,0.4-0.3,0.7-0.5,1.1c-0.2,0.4-0.5,0.7-0.8,1h6.2
			c-0.1-0.1-0.3-0.3-0.4-0.4c-0.1-0.1-0.2-0.3-0.3-0.5c-0.1-0.2-0.1-0.4-0.1-0.7c0-0.2,0-0.5,0.1-0.7c0.1-0.2,0.1-0.4,0.2-0.7
			l0.2-0.5h9.5l0.4,0.9c0.1,0.2,0.1,0.3,0.2,0.5c0.1,0.4,0.1,0.8,0,1.2c0,0.2-0.1,0.3-0.2,0.5c-0.1,0.1-0.2,0.3-0.3,0.4H85.3z"/>
		<path class="st7" d="M141.3,162.1c5-1.7,9.9-4.4,14.3-7.6c-3,10.6-11.3,18.9-21.9,21.9C136.9,172,139.5,167,141.3,162.1
			 M94.3,154.4c4.4,3.2,9.3,5.9,14.3,7.6c1.7,5,4.4,9.9,7.6,14.3C105.6,173.4,97.3,165,94.3,154.4 M108.6,129.4
			c-5,1.7-9.9,4.4-14.3,7.6c3-10.6,11.3-18.9,21.9-21.9C113,119.5,110.4,124.4,108.6,129.4 M155.6,137c-4.4-3.2-9.3-5.9-14.3-7.6
			c-1.7-5-4.4-9.9-7.6-14.3C144.3,118.1,152.6,126.4,155.6,137 M158.6,149.9L158.6,149.9c0.2-1.3,0.2-2.6,0.2-3.9v-0.1l0-0.1l0-0.1
			v-0.1c0-1.3-0.1-2.6-0.2-3.9v0c-1.9-15.4-14.1-27.6-29.5-29.5l0,0c-1.3-0.2-2.6-0.2-3.9-0.2h-0.1l-0.1,0l-0.1,0h-0.1
			c-1.3,0-2.6,0.1-3.9,0.2l0,0c-15.4,1.9-27.6,14.1-29.5,29.5l0,0c-0.2,1.3-0.2,2.6-0.3,3.9v0.4c0,1.3,0.1,2.7,0.3,3.9l0,0
			c1.9,15.4,14.1,27.6,29.5,29.5l0,0c1.3,0.2,2.6,0.2,3.9,0.3h0.4c1.3,0,2.7-0.1,3.9-0.3l0,0C144.5,177.5,156.7,165.3,158.6,149.9
			 M106.5,153.6c-4.1-1.9-8.5-4.8-11.8-7.9l0,0l0,0c3.3-3,7.7-6,11.8-7.9l0,0c-0.4,2.6-0.6,5.2-0.6,7.9
			C105.9,148,106,150.7,106.5,153.6L106.5,153.6z M143.4,137.9c4.1,1.9,8.5,4.8,11.8,7.9l0,0l0,0c-3.4,3-7.7,6-11.8,7.9l0,0
			c0.4-2.9,0.6-5.6,0.6-7.9C144,143.4,143.9,140.7,143.4,137.9L143.4,137.9z M132.8,164.2c-1.9,4.1-4.9,8.5-7.9,11.8v0l0,0
			c-3-3.4-6-7.7-7.9-11.8l0,0c2.6,0.4,5.2,0.6,7.9,0.6C127.3,164.8,130,164.7,132.8,164.2L132.8,164.2z M117.1,127.3
			c1.9-4.1,4.8-8.5,7.9-11.8l0,0v0c3,3.4,6,7.7,7.9,11.8l0,0c-2.6-0.4-5.2-0.6-7.9-0.6C122.7,126.7,119.9,126.8,117.1,127.3
			L117.1,127.3z M112.9,145.7c0-3.7,0.6-8.4,1.3-10.7l0,0l0,0c2.3-0.7,7-1.3,10.7-1.3c3.7,0,8.4,0.6,10.7,1.3l0,0l0,0
			c0.7,2.3,1.3,7,1.3,10.7s-0.6,8.4-1.3,10.7l0,0l0,0c-2.3,0.7-7,1.3-10.7,1.3c-3.7,0-8.4-0.6-10.7-1.3l0,0l0,0
			C113.5,154.1,112.9,149.5,112.9,145.7"/>
		<path class="st4" d="M124.9,31.9c10,0,18,8.1,18,18c0,10-8.1,18-18,18c-9.9,0-17.9-8-18-17.9c0,0,0-0.1,0-0.1
			C107,39.9,114.9,31.9,124.9,31.9"/>
		<path class="st3" d="M136.7,40.1c0-0.3,0-0.6,0-0.8c-1.5-1.6-3.3-2.9-5.4-3.8c-0.3,0-0.5,0.1-0.7,0.2c0.9,0.9,1.9,2.1,2.4,3.2
			C134.4,39,135.5,39.5,136.7,40.1 M138.6,57.8c1.1-1.9,1.8-4,2.1-6.2c-0.1-0.2-0.3-0.5-0.4-0.7c-0.6,1.2-1.3,2.3-2.3,3.2
			c0.2,1.3,0.2,2.6-0.1,3.9C138.1,58,138.4,57.9,138.6,57.8 M128.7,64.7c-1.3-0.1-2.6-0.5-3.8-1.1c-1.1,0.6-2.4,1-3.7,1.1
			c0.2,0.2,0.4,0.5,0.5,0.7c2.1,0.4,4.4,0.4,6.5,0C128.3,65.2,128.5,64.9,128.7,64.7 M109.7,50.9c-0.2,0.2-0.3,0.4-0.4,0.7
			c0.3,2.2,1,4.3,2.1,6.2c0.2,0.1,0.5,0.2,0.7,0.3c-0.3-1.3-0.3-2.6-0.1-3.9C110.9,53.2,110.2,52.1,109.7,50.9 M119.3,35.7
			c-0.3-0.1-0.6-0.2-0.8-0.2c-2,0.9-3.8,2.3-5.3,3.8c0,0.3,0,0.5,0,0.8c1.2-0.6,2.4-1.1,3.7-1.3C117.5,37.6,118.3,36.6,119.3,35.7
			 M121.6,42.8c2.2-0.4,4.5-0.5,6.7,0c0.3-0.6,0.9-1.2,1.1-1.5c0.3-0.5,0.7-1,1.1-1.4c-0.6-1.1-1.5-2.4-2.6-3.1
			c-1.9-0.6-3.9-0.6-5.8,0c-1.2,0.7-2,1.9-2.6,3.1L121.6,42.8z M113.4,43.1c-1.3,1.9-1.8,3.2-1.8,5.5c0.4,1.3,1.2,2.5,2.2,3.5
			l3.4-1.1c0.3-2.3,1-4.5,2.1-6.5l-2.1-2.8C115.8,41.8,114.5,42.3,113.4,43.1 M129.9,51.5c-0.2-2.1-0.8-4.1-1.9-5.9
			c-1.8-0.5-4.3-0.4-6.2,0c-1,2.1-1.7,3.5-1.9,5.9c1.6,1.7,2.9,2.7,5,3.6C126.9,54.3,128.5,53.1,129.9,51.5 M118,53.6l-3.4,1.1
			c-0.2,1.4-0.2,2.7,0.3,4c1.5,1.8,2.5,2.6,4.7,3.4c1.4,0,2.7-0.3,4-1v-3.6C121.5,56.7,119.5,55.3,118,53.6 M132.7,41.6
			c-0.7,0.9-1.4,1.9-2.1,2.8c1.1,2,1.9,4.2,2.1,6.5l3.4,1.1c1-1,1.7-2.2,2.2-3.5c0-2.3-0.6-3.6-1.8-5.5
			C135.3,42.2,134.1,41.8,132.7,41.6 M126.3,57.6v3.6c1.2,0.6,2.6,1,4,0.9c2.2-0.8,3.3-1.5,4.7-3.4c0.5-1.4,0.5-2.6,0.3-4l-3.4-1.1
			C130.3,55.4,128.5,56.6,126.3,57.6 M124.9,31.5c10.2,0,18.4,8.2,18.4,18.4c0,10.2-8.2,18.3-18.4,18.3c-10.1,0-18.3-8.1-18.3-18.2
			c0,0,0-0.1,0-0.1C106.6,39.7,114.7,31.5,124.9,31.5"/>
	</g>
</g>
<g id="레이어_1">
	<rect x="8" y="8" class="st8" width="234" height="234"/>
</g>
</svg>
