<?xml version="1.0" encoding="utf-8"?>
<!-- Generator: Adobe Illustrator 25.1.0, SVG Export Plug-In . SVG Version: 6.00 Build 0)  -->
<svg version="1.1" xmlns="http://www.w3.org/2000/svg" xmlns:xlink="http://www.w3.org/1999/xlink" x="0px" y="0px"
	 viewBox="0 0 250 250" style="enable-background:new 0 0 250 250;" xml:space="preserve">
<style type="text/css">
	.st0{fill:#231815;}
	.st1{fill:#AC2424;}
	.st2{fill:#FFFFFF;}
	.st3{fill-rule:evenodd;clip-rule:evenodd;fill:#BC7A10;}
	.st4{fill:none;}
</style>
<g id="Layer_1">
	<g>
		<g>
			<path class="st0" d="M208.2,145.5c0,0,0,0.1,0.1,0.1c0,0.1,0.1,0.1,0.1,0.2L208.2,145.5z M174.6,189.6L174.6,189.6
				c-14.6,11-32.7,17.3-49.6,17.3h0c-16.9,0-35-6.3-49.6-17.2l0,0c-5.5-4-9.2-7-13.3-10.7c1-0.8,2.4-1.7,2.9-2.1l0.7-0.4l0.5-0.3
				c1.4-0.6,2.9-1.4,4.2-2.2c1.7,2,3.4,3.9,5.2,5.7c12.7,12.8,27.6,21.5,44.4,25.9c1.9,0.5,3.4,0.8,5.1,0.8c1.6,0,3.1-0.3,5.1-0.8
				c16.7-4.4,31.7-13.1,44.4-25.9c1.8-1.8,3.5-3.7,5.2-5.7c1.3,0.8,2.8,1.5,4.2,2.2l0.5,0.3l0.7,0.4c0.6,0.4,1.9,1.3,2.9,2.1
				C183.9,182.7,180.2,185.7,174.6,189.6 M217.2,157.5L217.2,157.5c-1-1.5-2.5-3.2-4.2-5.1c-1.1-1.2-2.3-2.6-3.5-4.1
				c-0.1-0.2-0.2-0.6-0.3-0.8c-0.2-0.6-0.5-1.3-0.9-1.9c-0.8-1.4-2.1-2.7-4-3.9l-0.2-0.1l-0.2-0.1c-1.3-0.6-2.5-0.8-3.8-0.8
				c1.2-2.9,2.4-5.9,3.5-8.9c5.7-16.1,7.1-34.8,7.1-54.1c0-10.8-0.5-21.9-0.9-32.8l-0.3-7.7c-0.2-3.7-0.3-6.6-2.6-8.6
				c-2.2-2-4.9-1.7-8.2-1.5c0,0-0.8,0.1-0.9,0.1c-23.5,1.5-47.7-7.8-68.6-16.6l-0.5-0.2c-1.1-0.5-2.2-1-3.6-1c-1.4,0-2.5,0.5-3.6,1
				l-0.5,0.2C100,19.3,75.8,28.5,52.3,27.1c-0.1,0-0.9-0.1-0.9-0.1c-3.4-0.3-6-0.5-8.2,1.5c-2.3,2-2.4,4.9-2.6,8.6l-0.3,7.7
				c-0.5,10.9-0.9,22-0.9,32.8c0,19.3,1.5,38,7.1,54.1c1.1,3,2.2,6,3.5,8.9c-1.2,0-2.5,0.3-3.8,0.8l-0.2,0.1l-0.2,0.1
				c-1.9,1.2-3.2,2.5-4,3.9c-0.4,0.6-0.6,1.3-0.9,1.9c-0.1,0.3-0.3,0.7-0.3,0.8c-1.2,1.5-2.4,2.8-3.5,4.1c-1.7,1.9-3.2,3.6-4.2,5.1
				c-0.7,1.2-1.1,2.5-1.1,3.7c0,0.5,0.1,0.9,0.2,1.4l0,0l0,0c0.7,2.6,2.1,4.2,4.7,5.5l0.1,0l0.1,0c3.4,1.5,7.7,0.6,9.9-2.1
				c0.6-0.6,1.1-1.3,1.6-2c0.1-0.2,0.2-0.3,0.3-0.4c-0.5,1-0.7,2.1-0.9,3.4l0,0.3l0,0.3c0,0.5,0.1,1,0.1,1.5c0,2-0.3,4-0.6,6.1
				l0,0.1c-0.6,2.4-1.1,4.2-2.4,6.7c-0.9,1.5-1.8,2.7-2.6,3.8c-1.2,1.6-2.1,2.8-2.5,4.3l0,0.1l0,0.1c-0.1,0.8-0.2,1.7-0.2,2.6
				c0,0.7,0.1,1.4,0.2,2.1l0,0.1l0,0.1c0.5,1.9,1.2,4,2.8,5.7c8.9,11.9,27.2,25.5,42.6,31.8l0.1,0c13.2,5.1,26,7.6,40,7.8l0.1,0
				l0.1,0c14-0.2,26.7-2.7,40-7.8l0.1,0c15.4-6.3,33.6-19.9,42.6-31.8c1.7-1.7,2.4-3.8,2.8-5.7l0-0.1l0-0.1c0.1-0.7,0.2-1.4,0.2-2.1
				c0-0.9-0.1-1.8-0.2-2.6l0-0.1l0-0.1c-0.4-1.5-1.3-2.8-2.5-4.3c-0.8-1-1.7-2.2-2.6-3.8c-1.3-2.5-1.8-4.3-2.4-6.7l0-0.1
				c-0.3-2.1-0.6-4.2-0.6-6.1c0-0.5,0-1,0.1-1.5l0-0.3l0-0.3c-0.2-1.4-0.4-2.5-0.9-3.4c0.1,0.1,0.2,0.2,0.3,0.4
				c0.5,0.7,1.1,1.5,1.6,2c2.2,2.7,6.4,3.6,9.9,2.1l0.1,0l0.1,0c2.6-1.3,4-2.9,4.7-5.5l0,0l0,0c0.1-0.5,0.2-0.9,0.2-1.4
				C218.3,159.9,217.9,158.6,217.2,157.5 M41.6,145.7c0-0.1,0.1-0.1,0.1-0.2c0,0,0-0.1,0.1-0.1L41.6,145.7z"/>
		</g>
		<g>
			<path class="st1" d="M196.9,166.1c-1.9-2.8-6.2,0.3-6.2,0.3c-3.1,2.7-7.1,4.4-7.1,4.4c4.5,2,8.9,6.6,8.9,6.6
				c3.2-2.1,4.6-6.1,4.6-6.1C198.3,167.1,196.9,166.1,196.9,166.1"/>
		</g>
		<g>
			<path class="st1" d="M198.7,157.4c-1.6-0.5-3.1-1.7-3.1-1.7c-3.1-3.9,1.2-7.6,1.2-7.6c0.4-0.7,0.7-0.3,0.7-0.3
				c1.2,0.8,3.7,4.4,3.7,4.4c1.2,1,1.8-1.2,1.8-1.2c0.4-5.4-3.9-5.8-3.9-5.8c-5-0.3-11.2,5.4-11.2,5.4c-6.7,5.9-7.4,14.1-7.4,14.1
				c-0.2,8.9,6.7,2.4,6.7,2.4c4.5-4.9,8.8-3.6,8.8-3.6c1-1.4,3.5-3.5,3.5-3.5c0.8-0.3,0.8-0.8,0.8-0.8
				C200.2,158.4,198.7,157.4,198.7,157.4"/>
		</g>
		<g>
			<path class="st1" d="M196.5,153.7c2.5,2,4.5-0.3,4.5-0.3c-1-1.9-3.8-3.7-3.8-3.7C195.1,151.5,196.5,153.7,196.5,153.7"/>
		</g>
		<g>
			<path class="st1" d="M212.9,158.7c-4.7-4-6.8-8-6.8-8c-0.6-3.2-2-3-2-3c1.6,7.4-5.5,8.2-5.5,8.2c0.6,0.9,3.6,2.9,3.6,2.9
				c2.1,1.7,4.4,4.8,4.4,4.8c3.2,3.1,6.2-0.4,6.2-0.4C215,160.6,212.9,158.7,212.9,158.7"/>
		</g>
		<g>
			<path d="M212.8,163.2c0,0-3,3.4-6.2,0.4c0,0-2.2-3.1-4.4-4.8c0,0-3-2-3.6-2.9c0,0,7.1-0.8,5.5-8.2c0,0,1.4-0.2,2,3
				c0,0,2.1,4,6.8,8C212.9,158.7,215,160.6,212.8,163.2 M201,153.4c0,0-2.1,2.3-4.5,0.3c0,0-1.4-2.2,0.7-4
				C197.2,149.7,200.1,151.5,201,153.4 M199.8,159.9c0,0-2.5,2.1-3.5,3.5c0,0-4.4-1.3-8.8,3.6c0,0-6.8,6.5-6.7-2.4
				c0,0,0.6-8.2,7.4-14.1c0,0,6.2-5.7,11.2-5.4c0,0,4.2,0.4,3.9,5.8c0,0-0.6,2.2-1.8,1.2c0,0-2.6-3.6-3.7-4.4c0,0-0.4-0.4-0.7,0.3
				c0,0-4.3,3.7-1.2,7.6c0,0,1.4,1.2,3.1,1.7c0,0,1.5,1,1.8,1.7C200.6,159.2,200.5,159.6,199.8,159.9 M205,190.3
				c1.6,2.3,0.5,5.4,0.5,5.4c-2.1,4.5-7.5,9.6-7.5,9.6c-14.7,15.6-35.1,23.5-35.1,23.5c-13.4,5.6-26.7,7.3-37.8,7.4
				c-11.1-0.1-24.4-1.8-37.8-7.4c0,0-20.4-7.9-35.1-23.5c0,0-5.4-5-7.5-9.6c0,0-1.2-3.1,0.5-5.4c0,0,8.2-9.5,7.4-15.7
				c0,0,10.1,16.4,39.1,29.7c0,0,14.1,6.8,33.4,7.1h0c19.2-0.3,33.4-7.1,33.4-7.1c29.1-13.2,39.1-29.7,39.1-29.7
				C196.7,180.9,205,190.3,205,190.3 M50.2,159.9c-0.8-0.3-0.8-0.8-0.8-0.8c0.3-0.7,1.8-1.7,1.8-1.7c1.6-0.5,3.1-1.7,3.1-1.7
				c3.1-3.9-1.2-7.6-1.2-7.6c-0.4-0.7-0.8-0.3-0.8-0.3c-1.2,0.8-3.7,4.4-3.7,4.4c-1.2,1-1.8-1.2-1.8-1.2c-0.4-5.4,3.9-5.8,3.9-5.8
				c5-0.3,11.2,5.4,11.2,5.4c6.7,5.9,7.4,14.1,7.4,14.1c0.2,8.9-6.7,2.4-6.7,2.4c-4.5-4.9-8.8-3.6-8.8-3.6
				C52.7,162,50.2,159.9,50.2,159.9 M49,153.4c1-1.9,3.8-3.7,3.8-3.7c2.1,1.8,0.7,4,0.7,4C51,155.7,49,153.4,49,153.4 M47.8,158.8
				c-2.1,1.7-4.4,4.8-4.4,4.8c-3.2,3.1-6.2-0.4-6.2-0.4c-2.2-2.6-0.1-4.5-0.1-4.5c4.7-4,6.8-8,6.8-8c0.6-3.2,2-3,2-3
				c-1.6,7.4,5.5,8.2,5.5,8.2C50.8,156.7,47.8,158.8,47.8,158.8 M57.4,177.4c-3.2-2.1-4.6-6.1-4.6-6.1c-1.1-4.1,0.3-5.2,0.3-5.2
				c1.9-2.8,6.2,0.3,6.2,0.3c3.1,2.7,7.1,4.4,7.1,4.4C61.9,172.7,57.4,177.4,57.4,177.4 M183.6,170.8c0,0,4-1.6,7.1-4.4
				c0,0,4.3-3.1,6.2-0.3c0,0,1.4,1,0.3,5.2c0,0-1.5,4-4.6,6.1C192.6,177.4,188.1,172.7,183.6,170.8 M214.6,159.1
				c-1.4-2.2-4.4-5.2-7.6-8.9c-0.5-0.7-0.9-2.3-1.4-3c-0.6-1.1-1.7-2.1-3-2.9c-2.3-1-4.7-0.5-7.1,0.2c-5,2-8.5,5.6-12.2,9.3
				c-0.9,1.7-5,6.2-4.3,14.9c0,2.2,5.5,4.4,6.8,5c1.6,1.1,5.9,3.7,6.2,5.5c-5.3,5.1-9.4,8.4-15.6,12.9C162,203,143.1,210,125,210
				c-18.1,0-37-7-51.5-17.8c-6.2-4.5-10.4-7.8-15.6-12.9c0.4-1.9,4.7-4.4,6.2-5.5c1.3-0.7,6.8-2.8,6.8-5c0.7-8.7-3.4-13.2-4.3-14.9
				c-3.7-3.7-7.3-7.3-12.2-9.3c-2.3-0.8-4.7-1.3-7.1-0.2c-1.3,0.8-2.4,1.8-3,2.9c-0.5,0.7-0.8,2.3-1.4,3c-3.1,3.8-6.2,6.8-7.6,8.9
				c-0.6,1-0.7,2-0.5,2.8c0.5,1.8,1.4,2.7,3.1,3.5c2.3,1,5.1,0.3,6.4-1.4c0.4-0.4,1.1-1.2,1.4-1.7c0.9-1.2,1.8-2.1,3-1.9
				c1.4,0,3.1,1.9,3.7,3.4c-1.1,1-1.4,1.7-1.6,3.8c0.2,2.9-0.2,5.6-0.6,8.5c-0.7,2.9-1.3,4.9-2.8,7.6c-2.3,3.8-4.4,5.6-4.8,7.3
				c-0.2,1.2-0.3,2.5-0.1,3.7c0.4,1.6,1,3.2,2.2,4.4c9,12.1,27.2,25.2,41.4,30.9c12.7,4.9,25.1,7.4,38.9,7.6h0
				c13.8-0.2,26.2-2.7,38.9-7.6c14.1-5.8,32.4-18.9,41.4-30.9c1.3-1.2,1.8-2.8,2.2-4.4c0.2-1.2,0.1-2.5-0.1-3.7
				c-0.4-1.7-2.5-3.5-4.8-7.3c-1.4-2.8-2.1-4.7-2.8-7.6c-0.4-2.9-0.8-5.6-0.6-8.5c-0.2-2.1-0.5-2.8-1.6-3.8c0.6-1.5,2.2-3.4,3.7-3.4
				c1.2-0.2,2.1,0.7,3,1.9c0.3,0.5,1,1.3,1.4,1.7c1.2,1.7,4.1,2.4,6.4,1.4c1.7-0.8,2.6-1.7,3.1-3.5
				C215.3,161.1,215.2,160.1,214.6,159.1"/>
		</g>
		<g>
			<path class="st1" d="M205,190.3c0,0-8.2-9.5-7.4-15.7c0,0-10.1,16.4-39.1,29.7c0,0-14.1,6.8-33.4,7.1
				c-19.2-0.3-33.4-7.1-33.4-7.1c-29.1-13.2-39.1-29.7-39.1-29.7c0.8,6.2-7.4,15.7-7.4,15.7c-1.6,2.3-0.5,5.4-0.5,5.4
				c2.1,4.5,7.5,9.6,7.5,9.6c14.7,15.6,35.1,23.5,35.1,23.5c13.4,5.6,26.7,7.3,37.8,7.4h0c11.1-0.1,24.4-1.8,37.8-7.4
				c0,0,20.4-7.9,35.1-23.5c0,0,5.4-5,7.5-9.6C205.4,195.7,206.6,192.6,205,190.3"/>
		</g>
		<g>
			<path class="st1" d="M53.1,166.1c1.9-2.8,6.2,0.3,6.2,0.3c3.1,2.7,7.1,4.4,7.1,4.4c-4.5,2-8.9,6.6-8.9,6.6
				c-3.2-2.1-4.6-6.1-4.6-6.1C51.7,167.1,53.1,166.1,53.1,166.1"/>
		</g>
		<g>
			<path class="st1" d="M51.3,157.4c1.6-0.5,3.1-1.7,3.1-1.7c3.1-3.9-1.2-7.6-1.2-7.6c-0.4-0.7-0.8-0.3-0.8-0.3
				c-1.2,0.8-3.7,4.4-3.7,4.4c-1.2,1-1.8-1.2-1.8-1.2c-0.4-5.4,3.9-5.8,3.9-5.8c5-0.3,11.2,5.4,11.2,5.4c6.7,5.9,7.4,14.1,7.4,14.1
				c0.2,8.9-6.7,2.4-6.7,2.4c-4.5-4.9-8.8-3.6-8.8-3.6c-1-1.4-3.5-3.5-3.5-3.5c-0.8-0.3-0.8-0.8-0.8-0.8
				C49.8,158.4,51.3,157.4,51.3,157.4"/>
		</g>
		<g>
			<path class="st1" d="M53.5,153.7c-2.5,2-4.5-0.3-4.5-0.3c1-1.9,3.8-3.7,3.8-3.7C54.8,151.5,53.5,153.7,53.5,153.7"/>
		</g>
		<g>
			<path class="st1" d="M37.1,158.7c4.7-4,6.8-8,6.8-8c0.6-3.2,2-3,2-3c-1.6,7.4,5.5,8.2,5.5,8.2c-0.6,0.9-3.6,2.9-3.6,2.9
				c-2.1,1.7-4.4,4.8-4.4,4.8c-3.2,3.1-6.2-0.4-6.2-0.4C35,160.6,37.1,158.7,37.1,158.7"/>
		</g>
		<g>
			<path class="st2" d="M59.1,195.1l0.4,0.4c0.6,0.6,1.3,0.7,1.7,0.3c0.4-0.4,0.2-0.8-0.2-1.3c-0.2-0.2-0.4-0.3-0.5-0.4L59.1,195.1z
				 M56.4,197.1c0.1,0.1,0.3,0.3,0.4,0.4c0.6,0.6,1.4,0.8,2,0.2c0.5-0.5,0.2-1.1-0.3-1.6l-0.4-0.3L56.4,197.1z M60.2,192.4
				c0.5,0.3,1,0.7,1.5,1.2c0.6,0.5,0.9,1,1.1,1.5c0.2,0.5,0.1,1.1-0.3,1.6c-0.6,0.7-1.5,0.6-2.3,0.3l0,0c0.4,0.6,0.3,1.4-0.2,2
				c-0.5,0.6-1.2,0.7-1.9,0.6c-0.7-0.1-1.5-0.6-2.4-1.4c-0.6-0.6-1.1-1.1-1.3-1.4L60.2,192.4z"/>
		</g>
		<g>
			<path class="st2" d="M65.9,197.2l-3.3,2.7c-0.2,0.2-0.4,0.4-0.6,0.6c-0.4,0.5-0.4,1.1,0.1,1.5c0.6,0.5,1.4,0.5,2.5-0.4l3.3-2.8
				l1.2,1l-3.3,2.7c-1.8,1.4-3.2,1.6-4.7,0.4c-1.2-1-1.4-2.2-0.4-3.4c0.2-0.2,0.5-0.5,0.7-0.7l3.2-2.7L65.9,197.2z"/>
		</g>
		<g>
			<path class="st2" d="M69,208.7c-0.4-0.1-1-0.4-1.7-0.9c-1.6-1.2-1.9-2.9-0.7-4.4c1-1.3,2.4-1.9,3.7-1.8c0.9,0,1.8,0.4,2.6,1
				c0.6,0.5,1,1,1.1,1.2l-1.1,0.8c-0.1-0.2-0.4-0.6-0.9-1c-0.5-0.4-1.1-0.6-1.7-0.5c-0.8,0-1.6,0.5-2.2,1.3c-0.7,0.9-0.6,2,0.4,2.7
				c0.4,0.3,0.9,0.5,1.3,0.6L69,208.7z"/>
		</g>
		<g>
			<path class="st2" d="M76.1,204.9l-2,2.1l2.2,1.5l2-2.1l1.3,0.9l-5.2,5.3l-1.3-0.9l2.2-2.3L73,208l-2.2,2.3l-1.3-0.9l5.2-5.3
				L76.1,204.9z"/>
		</g>
		<g>
			<path class="st2" d="M81.3,213.1l-2.2-1.3l-1.2,1.4l2.5,1.5l-0.9,1l-3.9-2.3l4.9-5.6l3.7,2.2l-0.9,1l-2.4-1.4l-1.1,1.2l2.3,1.3
				L81.3,213.1z"/>
		</g>
		<g>
			<path class="st2" d="M84.1,216.8c1.1,0.6,2.7-0.6,3.3-1.8c0.4-0.8,0.5-1.7-0.5-2.3c-1.2-0.6-2.7,0.6-3.4,1.8
				C83.1,215.4,83.1,216.3,84.1,216.8L84.1,216.8z M83.3,217.8c-1.7-0.9-2-2.6-1.2-4.1c0.6-1.2,1.6-2.1,2.8-2.5
				c0.9-0.3,1.9-0.2,2.9,0.3c1.7,0.9,2,2.5,1.2,4.1c-0.6,1.2-1.6,2.1-2.7,2.5C85.3,218.4,84.3,218.3,83.3,217.8L83.3,217.8z"/>
		</g>
		<g>
			<path class="st2" d="M87.2,219.7l4.2-6.2l1.7,0.7l-0.2,3c-0.1,0.9-0.2,1.7-0.4,2.6l0,0c0.3-0.7,0.8-1.4,1.4-2.3l1.5-2.2l1.4,0.6
				l-4.2,6.2l-1.5-0.6l0.2-3.1c0.1-1.1,0.2-1.7,0.4-2.6l0,0c-0.3,0.6-0.9,1.5-1.6,2.5l-1.5,2.2L87.2,219.7z"/>
		</g>
		<g>
			<path class="st2" d="M101.2,217.4l4.1,1.3l-0.6,1.2l-2.6-0.8l-0.8,1.5l2.4,0.8l-0.6,1.2l-2.4-0.8l-1.4,2.7l-1.5-0.5L101.2,217.4z
				"/>
		</g>
		<g>
			<path class="st2" d="M106.7,225.3c1.2,0.3,2.5-1.2,2.8-2.6c0.2-0.9,0.1-1.8-1-2.1c-1.3-0.3-2.5,1.2-2.9,2.6
				C105.4,224.2,105.6,225.1,106.7,225.3L106.7,225.3z M106.2,226.6c-1.9-0.4-2.6-2-2.2-3.7c0.3-1.3,1.1-2.4,2.1-3
				c0.8-0.5,1.8-0.6,2.9-0.4c1.9,0.5,2.6,2,2.2,3.7c-0.3,1.3-1.1,2.4-2.1,3C108.2,226.7,107.2,226.8,106.2,226.6L106.2,226.6z"/>
		</g>
		<g>
			<path class="st2" d="M114.1,226.8c1.2,0.2,2.4-1.4,2.6-2.8c0.1-0.9-0.1-1.8-1.2-2c-1.3-0.2-2.4,1.4-2.6,2.8
				C112.7,225.8,113,226.7,114.1,226.8L114.1,226.8z M113.7,228.1c-1.9-0.3-2.7-1.8-2.5-3.5c0.2-1.3,0.9-2.5,1.8-3.2
				c0.8-0.6,1.8-0.8,2.8-0.6c1.9,0.3,2.7,1.7,2.5,3.5c-0.2,1.3-0.9,2.5-1.8,3.2C115.8,228,114.8,228.2,113.7,228.1L113.7,228.1z"/>
		</g>
		<g>
			<path class="st2" d="M120.6,222.8l-1.9-0.2l0.4-1.3l5.4,0.4l-0.4,1.4l-2-0.2l-1.6,5.9l-1.6-0.1L120.6,222.8z"/>
		</g>
		<g>
			<path class="st2" d="M125.8,224.6h0.5c0.9,0,1.5-0.3,1.5-1c0-0.5-0.4-0.8-1-0.8c-0.3,0-0.5,0-0.6,0L125.8,224.6z M125.1,227.8
				c0.2,0,0.4,0,0.6,0c0.8,0,1.6-0.3,1.6-1.1c0-0.7-0.6-1-1.3-1h-0.5L125.1,227.8z M124.8,221.8c0.5-0.1,1.2-0.2,1.9-0.2
				c0.8,0,1.3,0.1,1.8,0.4c0.5,0.3,0.8,0.7,0.8,1.4c0,0.9-0.7,1.5-1.5,1.7v0c0.7,0.2,1.1,0.8,1.1,1.6c0,0.8-0.4,1.4-1,1.7
				c-0.6,0.4-1.6,0.6-2.8,0.6c-0.8,0-1.5-0.1-1.8-0.1L124.8,221.8z"/>
		</g>
		<g>
			<path class="st2" d="M133.5,225.6l-0.2-1.6c-0.1-0.4-0.1-1-0.2-1.4l0,0c-0.2,0.5-0.3,1-0.5,1.5l-0.6,1.6L133.5,225.6z M131.6,227
				l-0.7,2l-1.7,0.1l3.1-7.6l2-0.1l1.4,7.3l-1.7,0.1l-0.3-1.9L131.6,227z"/>
		</g>
		<g>
			<path class="st2" d="M136.8,221l1.6-0.2l-0.3,6.1l2.8-0.4l-0.1,1.4l-4.3,0.6L136.8,221z"/>
		</g>
		<g>
			<path class="st2" d="M141.6,220.3l1.5-0.3l0.1,6.1l2.8-0.6l0,1.4l-4.3,0.9L141.6,220.3z"/>
		</g>
		<g>
			<path class="st2" d="M155.9,223.8c-0.3,0.3-0.9,0.6-1.7,0.9c-1.9,0.6-3.4-0.1-4-2c-0.5-1.6-0.2-3,0.6-4.1
				c0.6-0.7,1.3-1.3,2.3-1.6c0.8-0.2,1.4-0.3,1.6-0.2l0,1.4c-0.2,0-0.7,0-1.3,0.2c-0.6,0.2-1.1,0.6-1.4,1.1
				c-0.4,0.7-0.6,1.6-0.2,2.6c0.4,1.1,1.2,1.7,2.5,1.3c0.5-0.2,1-0.4,1.3-0.7L155.9,223.8z"/>
		</g>
		<g>
			<path class="st2" d="M155.4,216.3l1.4-0.6l1.1,6l2.6-1l0.3,1.4l-4.1,1.6L155.4,216.3z"/>
		</g>
		<g>
			<path class="st2" d="M160.9,214l1,4.2c0.1,0.3,0.1,0.5,0.3,0.8c0.3,0.5,0.8,0.8,1.4,0.5c0.8-0.3,1-1.1,0.7-2.4l-1-4.2l1.4-0.7
				l1,4.1c0.5,2.2,0.1,3.6-1.7,4.4c-1.4,0.6-2.5,0.3-3.2-1.1c-0.1-0.3-0.3-0.6-0.3-1l-1-4L160.9,214z"/>
		</g>
		<g>
			<path class="st2" d="M168.8,217c0.2-0.1,0.3-0.2,0.5-0.3c0.8-0.4,1.3-1.1,0.9-1.8c-0.3-0.6-1-0.5-1.6-0.2l-0.4,0.2L168.8,217z
				 M167.8,213.9l0.5-0.2c0.8-0.4,1.1-1,0.8-1.6c-0.2-0.5-0.7-0.5-1.3-0.2c-0.2,0.1-0.4,0.2-0.5,0.3L167.8,213.9z M165.6,211.9
				c0.4-0.3,1-0.7,1.6-1.1c0.7-0.4,1.2-0.5,1.8-0.5c0.5,0,1.1,0.2,1.4,0.8c0.4,0.8,0.1,1.6-0.5,2.2l0,0c0.7-0.1,1.4,0.2,1.8,0.9
				c0.4,0.7,0.3,1.4-0.1,2c-0.3,0.7-1.1,1.3-2.2,1.8c-0.7,0.4-1.3,0.7-1.7,0.8L165.6,211.9z"/>
		</g>
		<g>
			<path class="st2" d="M175.1,207.8L175.1,207.8l-1,1.5l-0.8-1.2l1.4-2.1l1.3-0.8l3.2,7.8l-1.5,1L175.1,207.8z"/>
		</g>
		<g>
			<path class="st2" d="M180.5,203.4c-0.6,0.4-0.6,1.5-0.1,2.1c0.4,0.5,1,0.7,1.4,0.3c0.4-0.3,0.6-0.7,0.6-1.1c0-0.1,0-0.3-0.1-0.4
				c-0.1-0.2-0.2-0.4-0.3-0.6C181.6,203.2,181.1,203,180.5,203.4L180.5,203.4z M181.3,209.8c0.2-0.1,0.4-0.2,0.6-0.5
				c0.4-0.4,0.8-0.8,1-1.4c0.3-0.7,0.3-1.4,0.2-2l0,0c-0.1,0.6-0.5,1.1-0.9,1.4c-1.1,0.8-2.3,0.6-3.1-0.5c-1.1-1.4-0.8-3.6,0.7-4.7
				c1.5-1.1,2.9-0.6,3.9,0.7c1.1,1.6,1.4,3.5,1,4.9c-0.3,1.1-1,2.1-1.9,2.8c-0.4,0.3-0.6,0.4-0.8,0.6L181.3,209.8z"/>
		</g>
		<g>
			<path class="st2" d="M185.7,199.4c-0.6,0.5-0.5,1.5,0,2.1c0.4,0.5,1,0.6,1.4,0.3c0.4-0.3,0.5-0.8,0.5-1.1c0-0.1,0-0.3-0.1-0.4
				c-0.1-0.2-0.2-0.4-0.4-0.6C186.8,199.1,186.2,198.9,185.7,199.4L185.7,199.4z M186.8,205.7c0.2-0.1,0.3-0.3,0.6-0.5
				c0.4-0.4,0.7-0.9,0.9-1.4c0.2-0.7,0.3-1.4,0.1-2l0,0c-0.1,0.6-0.4,1.1-0.8,1.5c-1,0.8-2.3,0.7-3.1-0.4c-1.1-1.4-0.9-3.5,0.5-4.7
				c1.4-1.2,2.9-0.7,3.9,0.5c1.2,1.5,1.5,3.5,1.2,4.8c-0.2,1.1-0.9,2.1-1.7,2.8c-0.2,0.2-0.5,0.4-0.7,0.6L186.8,205.7z"/>
		</g>
		<g>
			<path class="st2" d="M192.7,193.7l-2.2,1.9l0.6,1.2c0.1-0.1,0.2-0.2,0.2-0.3c0.4-0.3,1-0.7,1.6-0.8c0.7-0.1,1.4,0.2,1.9,0.8
				c1.4,1.5,0.8,3.6-0.7,5c-0.7,0.7-1.5,1-1.9,1.1l-0.6-1.4c0.4-0.1,1-0.4,1.5-0.8c0.7-0.6,1.1-1.6,0.5-2.3
				c-0.5-0.5-1.2-0.6-2.4,0.4c-0.2,0.2-0.5,0.5-0.7,0.7l-2-4l3.3-2.9L192.7,193.7z"/>
		</g>
		<g>
			<path class="st1" d="M203.3,37.4c-0.1-1.6-0.2-4-0.5-4.3c-0.3-0.2-2.1-0.1-3.7,0c0,0-0.9,0.1-1,0.1c-13.8,0.9-27.6-1.7-40.9-5.7
				v158.8c4.6-3.3,8.9-6.9,12.9-10.9c12-12.1,21.3-27.4,27.7-45.7c8.4-24,7.1-54.8,5.9-84.6L203.3,37.4z"/>
		</g>
		<g>
			<path class="st1" d="M46.7,37.4c0.1-1.6,0.2-4,0.5-4.3c0.3-0.2,2.1-0.1,3.7,0c0,0,0.9,0.1,1,0.1c13.8,0.9,27.6-1.7,40.9-5.7
				v158.8c-4.6-3.3-8.9-6.9-12.9-10.9c-12-12.1-21.3-27.4-27.7-45.7c-8.4-24-7.1-54.8-5.9-84.6L46.7,37.4z"/>
		</g>
		<g>
			<path d="M197.8,129.7c-6.4,18.2-15.7,33.6-27.7,45.7c-4,4-8.3,7.7-12.9,10.9V27.5c13.3,4,27.1,6.6,40.9,5.7c0,0,1-0.1,1-0.1
				c1.6-0.1,3.4-0.3,3.7,0c0.3,0.3,0.5,2.7,0.5,4.3l0.3,7.6C204.9,74.8,206.2,105.6,197.8,129.7 M92.8,186.3
				c-4.6-3.3-8.9-6.9-12.9-10.9c-12-12.1-21.3-27.4-27.7-45.7c-8.4-24-7.1-54.8-5.9-84.6l0.3-7.6c0.1-1.6,0.2-4,0.5-4.3
				c0.3-0.2,2.1-0.1,3.7,0c0,0,0.9,0.1,1,0.1c13.8,0.9,27.6-1.7,40.9-5.7V186.3z M206.7,44.9l-0.3-7.7c-0.2-3.3-0.3-5.3-1.6-6.5
				c-1.2-1.1-2.9-1-6-0.7l-0.9,0.1c-24.2,1.5-48.8-7.9-70-16.9l-0.6-0.3c-1-0.5-1.6-0.7-2.3-0.7h0c-0.6,0-1.3,0.2-2.3,0.7l-0.6,0.3
				c-21.2,9-45.9,18.4-70,16.9l-0.9-0.1c-3-0.2-4.7-0.4-6,0.7c-1.3,1.2-1.4,3.1-1.6,6.5l-0.3,7.7c-1.3,30.1-2.6,61.2,6,85.8
				c6.5,18.7,16.1,34.4,28.4,46.8c12.3,12.4,26.8,20.8,43,25.1c1.8,0.5,3,0.7,4.3,0.7h0c1.2,0,2.4-0.2,4.3-0.7
				c16.2-4.2,30.7-12.6,43-25.1c12.3-12.4,21.8-28.1,28.4-46.8C209.2,106.1,207.9,75,206.7,44.9"/>
		</g>
		<g>
			<path d="M125.7,95.8v3.7c0.6-0.3,1.1-0.5,1.6-0.8C126.9,97.7,126.3,96.7,125.7,95.8 M132.2,114.4c0.2,0.5,0.4,1,0.7,1.5
				c1.2,2.4,2.9,4.6,4.7,6.4c0-0.5-0.1-1.1-0.3-1.6c-0.5-1.6-1.5-3.1-3-4.5C133.6,115.6,132.9,115,132.2,114.4 M128.3,131.7
				c-1-1-1.9-2.2-2.6-3.4v3.1c0.4,0.2,0.9,0.4,1.6,0.6C127.6,132,127.9,131.8,128.3,131.7 M160.1,84.7c2.2,0.4,4.4,1,6.5,1.6h0
				c0.4,0.1,0.8,0.2,1.3,0.4c2,0.6,4.7,1.5,6.4,1.1c1.4-0.3,2.1-1.6,1.4-4.9l-0.4-1.8l1.5,1.1l0.2,0.1h0c0.4,0.3,0.8,0.7,1.1,1.2
				c0.3,0.4,0.6,0.9,0.8,1.4c1,2.4,0.6,5.2-0.7,7.4l0,0c-0.2,0.3-0.4,0.6-0.7,0.9c-0.2,0.3-0.5,0.6-0.8,0.8
				c-1.4,1.3-3.1,2.1-4.3,2.5c-0.5,0.2-0.9,0.4-1.3,0.7c-1,0.8-1.7,1.9-2.1,3.2c-0.4,1.3-0.4,2.7,0.1,4c0.2,0.6,0.5,1.1,0.9,1.6
				l1.5,1.9l-2.2-0.9c-4.7-1.9-5-4.7-5.2-7c-0.1-1.1-0.2-2.1-1-2.6h0l-0.1-0.1c-7.6-4.5-12.3-7.2-21.5-3.9c1.4,1.1,1.5,2.2,0.8,3.2
				c-0.6,0.9-1.9,1.7-3.4,2.4c1.2-0.2,2.4-0.3,3.6-0.3h0l0.1,0c1.6-0.1,3.2,0.2,4.7,0.4c1.4,0.2,2.8,0.4,3.7,0.3
				c1.2-0.1,1.8-0.9,1.6-3.1l-0.3-2.1l1.4,1.6c1.8,2.1,2.6,3.9,2.5,5.7c-0.1,1.8-1.1,3.6-3,5.4c-0.2,0.2-0.3,0.3-0.5,0.5
				c-0.8,1-1,2-0.8,3.1c0.2,1.2,0.9,2.4,2,3.5c0.4,0.4,0.8,0.8,1.3,1.1l2,1.6l-2.5-0.4c-2.5-0.4-4.3-1-5.6-1.7c0,0.3,0,0.5,0,0.8v0
				c0,3.8-1.9,7.6-4.9,11c1.5,0.8,3,1.5,4.6,2.1c1.7,0.7,3.5,1.3,5.4,1.8c7.5,2,14.7,2.1,20.3-2.4c1.8-1.5,2.6-2,4.6-4.8
				c-0.3,2.2-0.9,4.7-2,6.3c-3.4,5.4-9.3,8.6-15.9,9.9c-7,1.5-12.8,1-19.4-0.8c-2.9-0.8-5.6-1.9-7.9-3.1v0c-0.2-0.1-0.3-0.2-0.4-0.2
				c-2.4,1.4-4.9,2.6-7.4,3.4c0.4,2.3,1.2,4.1,2.4,5.7c1.3,1.8,3.1,3.3,5.3,5l1.6,1.2l-2-0.1l-0.1,0h0c-0.8,0-1.6-0.1-2.4-0.2
				c-0.8-0.1-1.6-0.2-2.4-0.4c-3.8-0.7-7.3-2.3-9.2-4.8l-0.1,0.1c-0.4,0.6-0.9,1.1-1.5,1.6c-0.6,0.5-1.3,0.9-2,1.2
				c-3.3,1.7-7.8,2.4-10.7,2.5l-2.4,0l2-1.2c1.3-0.8,2.7-1.8,4-3.5c1.2-1.6,2.3-3.7,3-6.7c-2.7-0.9-5.4-2.1-8.2-3.3
				c-5.1-2.3-10.2-4.6-14.4-4.3c-0.6,0-1.2,0.1-1.8,0.1c-4.3,0.2-6.9,0.3-10.7,6.3l-1.4,2.1l0.2-2.5c0.6-7.8,4.7-9.2,8.4-10.5
				c1.4-0.5,2.8-1,3.8-1.8c2.4-2.1,3.4-4.9,3.7-8c0.3-3,0-6.1-0.6-8.9c-1.2-0.2-2.2-0.5-3.1-1.1c-1-0.6-1.8-1.6-2.5-2.8l-0.9-1.7
				l1.7,0.8c4.1,1.9,7.7-1,11.1-3.6c3.3-2.6,6.3-5,9.7-3.4l1.9,0.9l-2.1,0.3c-1,0.2-1.8,0.6-2.5,1.3c-1.2,1.2-1.9,3.2-2.2,5.4
				c-0.3,2.3-0.2,4.9,0.1,7.4c0.6,3.8,1.9,7.2,3.4,8.8l0.2,0.2c0,0.2,0,0.4,0,0.6c0.1,1.6-0.7,2.1-1.9,2.5c2.4,0.3,4.7,0.8,7,1.5
				c0.3,0.1,0.6,0.2,0.9,0.3v-12.6c-1.6,1-3.1,2.2-4.4,3.5l-1.7,1.7l0.6-2.4c1.1-4.1,3.1-6.9,5.6-9.1l0-15.1
				c-1.3,0.4-2.7,0.8-4.1,1.3v0c-2.5,0.9-5.1,2-7.8,3.1c-11.7,4.9-23.7,9.9-28.1,0.2l-0.8-1.8l1.7,0.9c8.4,4.7,17.3-0.8,25.4-5.9
				c4.3-2.7,8.7-5.3,13.6-6.9l0-1.5c-1.5-0.2-3-0.5-4.5-1c-4.8-1.6-10.4-5.1-13-11.9l-0.8-2.2l1.8,1.5c9.4,7.5,18.6,4.6,28.9,1.3
				c1.5-0.5,3-1,4.5-1.4c1.3-0.4,2.7-0.8,4.1-1.2c7.5-2,16.8-3.9,23.9-3.6l0.1,0c3.8,0.2,8.6,1.1,10.5,4.8l1,2l-1.9-1.1
				c-1.3-0.8-3-0.8-4.6-0.4c-1.5,0.4-3.3,1.5-3.6,3.2c-0.2,0.8,0,1.7,0.6,2.7c1.6,2.6,3,5.8,2.2,8.9
				C160.5,83.7,160.3,84.2,160.1,84.7 M135.7,89.3c4.4-3.8,9.5-5.4,14.8-5.6c1.6-0.1,3.3,0,4.9,0.2c-0.2-1.3-1.1-2.5-2.1-3.4
				c-1.7-1.5-4.1-2.6-6.1-3.1h0c-2.3-0.6-4.7-0.8-7.1-0.7c-5.9,0.1-11.6,1.8-14.4,3v2.7c3.6,1.2,6.3,3.6,9.2,6.2L135.7,89.3z"/>
		</g>
		<g>
			<path class="st2" d="M111.8,112.6v13.8c2,0.7,4.1,1.5,6.1,2.3c1.9,0.8,3.8,1.6,5.6,2.4v-5.5c-0.1-0.2-0.1-0.4-0.2-0.6
				c-0.9-3.1-1-6.8-0.4-10.8v0l0.1-0.5v0l0.1-0.5c0.1-0.7,0.3-1.4,0.4-2c-1.4-0.4-2.8-0.6-4.2-0.6c-1.3,0-2.7,0.3-3.9,0.7
				C114.2,111.4,113,112,111.8,112.6 M126.3,145.4c-1.3-1.7-2.2-3.7-2.6-6.1c-1.2,0.4-2.3,0.7-3.3,0.9c-1.2,0.2-2.4,0.3-3.6,0.3
				c-1.2,0-2.7-0.2-4.1-0.5c-0.3-0.1-0.5-0.1-0.8-0.2l-0.1,0c-0.7,3.1-1.9,5.3-3.2,7c-0.7,0.9-1.5,1.8-2.4,2.5
				c2.5-0.3,5.5-1,7.8-2.2c0.6-0.3,1.2-0.7,1.8-1.1c0.5-0.4,0.9-0.8,1.3-1.3c0.2-0.3,0.4-0.6,0.5-0.9l0.5-1.3l0.7,1.3
				c1.5,2.8,5.1,4.4,9,5.2c0.8,0.2,1.5,0.3,2.3,0.4l0.3,0C128.7,148.1,127.4,146.8,126.3,145.4 M131.3,133.3c0.7,0.5,1.3,0.9,2,1.3
				c2.2,1.2,4.8,2.2,7.6,3c6.4,1.8,12.1,2.2,18.8,0.8c6.4-1.4,12.7-4.6,15.9-10.6c-6.5,6.3-14.3,6.4-22.9,4.2
				c-3.6-0.9-7.1-2.3-10.4-4l0,0h0c-1.9-1-3.8-2.1-5.4-3.5l0,0v0c-2.3-2-4.5-4.8-6-7.8c-0.5-1.1-1-2.1-1.4-3.3
				c-0.9-0.6-1.7-1-2.5-1.4c-0.7-0.3-1.4-0.5-2.2-0.8c-0.2,1-0.4,2-0.6,3c-0.6,3.9-0.5,7.3,0.4,10.3
				C125.7,128.4,128.1,131.1,131.3,133.3 M160.4,67.2c1.1-0.3,2.3-0.4,3.4-0.3c-1.1-1-2.6-1.7-4.5-2.1c-0.5-0.1-1.1-0.2-1.7-0.3
				c-0.6-0.1-1.3-0.1-1.9-0.2h-0.1c-7-0.3-16.1,1.6-23.5,3.6c-1.4,0.4-2.7,0.7-4.1,1.1c-1.2,0.4-2.4,0.7-3.5,1.1l-0.1,0l-0.9,0.3
				c-9.9,3.2-18.9,6-28.1-0.1c2.7,5,7.2,7.7,11.2,9c0.8,0.3,1.7,0.5,2.6,0.7c0.7,0.1,1.5,0.3,2.2,0.3l0.1,0l0.6,0V81l0.1,25.2
				c3.4-2.6,6.9-4.1,10.6-5.6l1-0.4V79l0.4-0.2c2.7-1.3,8.9-3.1,15.3-3.3c1.2,0,2.5,0,3.7,0.1c1.2,0.1,2.5,0.3,3.7,0.6h0
				c2.1,0.5,4.8,1.7,6.6,3.4c0.9,0.8,1.7,1.7,2.1,2.7c0.5,1.1,0.6,2.2,0.3,3.4c-0.1,0.4-0.2,0.8-0.4,1.1l0.2-0.1
				c1.7-1.1,2.7-2.4,3.1-3.9c0.4-1.5,0.2-3.2-0.5-5c-0.4-1-0.9-2-1.5-3c-0.8-1.3-1-2.5-0.7-3.6c0.2-1,0.8-1.9,1.7-2.6
				C158.3,68,159.3,67.5,160.4,67.2 M128.5,132.8c-0.6,0.2-1.2,0.5-1.8,0.7l-0.2,0.1l-0.2-0.1c-2.8-1.1-5.8-2.4-8.8-3.6
				c-5.9-2.4-12-4.6-18.2-4.6h-2.5c1.5-0.8,2.8-1.6,4.5-2.1c1.1-0.3,1.9-0.5,1.9-1.5c-1.7-1.8-3-5.4-3.6-9.3
				c-0.4-2.6-0.5-5.4-0.1-7.8c0.4-2.5,1.2-4.7,2.6-6.2c0.3-0.3,0.6-0.6,0.9-0.8c-2,0.2-4.1,1.9-6.3,3.6c-3.2,2.5-6.6,5.2-10.6,4.4
				c1.2,1.3,2.9,1.7,4.5,1.8l0.1,0.5c0.6,3,1,6.5,0.7,9.8c-0.4,3.3-1.5,6.5-4.2,8.8c-1.2,1-2.6,1.5-4.2,2c-2.9,1-6,2-7.2,6.8
				c3.4-4.3,6.1-4.4,10.2-4.6c0.5,0,1.1-0.1,1.7-0.1c4.5-0.3,9.8,2,15,4.4c4.8,2.2,9.7,4.4,13.9,4.4h0.1c4,0,9.3-1.8,14.3-4.6
				c-0.2-0.1-0.3-0.2-0.5-0.3c-0.6-0.4-1.1-0.8-1.7-1.3l0,0l-0.3-0.2L128.5,132.8z M110.6,84.4c-4.6,1.6-8.8,4.1-12.9,6.7
				c-7.8,4.9-16.3,10.2-24.8,6.8c4.6,6.1,15.1,1.7,25.4-2.6c2.6-1.1,5.3-2.2,7.9-3.2l0,0v0c1.6-0.6,3.1-1.1,4.5-1.4L110.6,84.4z
				 M146.7,115.8L146.7,115.8c0-6.9-9.6-10.8-15.4-13.3l-1.1-0.5l-1.4-0.6l1.4-0.6c0.5-0.2,1.4-0.5,2.5-0.9c2.7-0.9,6.6-2.2,7.5-3.7
				c0.3-0.5,0.1-1.1-0.9-1.8c-2.3-1.5-4.2-3.2-6.1-4.9c-2.7-2.3-5.1-4.5-8.3-5.8v9.9c1.2,1.3,2.2,3,3.1,5.1l0.2,0.5l-0.5,0.3
				c-0.9,0.5-1.8,0.9-2.8,1.3l-0.1,0c-0.8,0.4-1.6,0.7-2.4,1c-0.5,0.2-1.1,0.4-1.6,0.7c-3.2,1.4-6.2,2.9-9.1,5.3l-1.1,0.9v0
				c-1.5,1.5-2.7,3.3-3.6,5.3c2.6-2.1,5.4-3.6,8-4.4c1.4-0.4,2.8-0.8,4.3-0.8c1.6,0,3.4,0.3,5.1,0.8c1.2,0.3,2.2,0.6,3.1,1
				c0.9,0.4,1.7,0.9,2.8,1.5l0.2,0.1v0c1.4,0.8,2.6,1.8,3.8,2.9c1.6,1.5,2.8,3.3,3.3,5.1c0.3,1,0.4,2,0.3,3.1
				c0.7,0.6,1.5,1.1,2.3,1.6c0.6,0.3,1.1,0.7,1.7,1C144.8,122.9,146.7,119.3,146.7,115.8 M149.6,85.2c-4.9,0.2-9.6,1.6-13.8,5.1
				c1.1,0.9,2.2,1.8,3.3,2.7c10.3-4,15.2-1.1,23.4,3.7l0.1,0.1c1.3,0.8,1.5,2.1,1.6,3.5c0.2,1.6,0.4,3.5,2.6,4.9l0-0.1
				c-0.6-1.6-0.5-3.3-0.1-4.8c0.5-1.5,1.4-2.9,2.5-3.8c0.5-0.4,1.1-0.7,1.7-0.9c1.1-0.4,2.6-1.1,3.8-2.3c0.2-0.2,0.5-0.5,0.7-0.7
				c0.2-0.2,0.4-0.5,0.6-0.8v0l0,0c1.1-1.9,1.5-4.3,0.7-6.3c-0.1-0.2-0.2-0.5-0.4-0.7c0.2,2.7-1,3.9-2.7,4.3
				c-2.1,0.5-4.9-0.4-7.1-1.1c-0.4-0.1-0.8-0.3-1.2-0.4h0c-2.3-0.6-4.6-1.2-6.9-1.7c-0.6,0.7-1.3,1.4-2.3,2
				c-0.8,0.5-1.6,0.9-2.5,1.2l-2.5,0.9l1.7-2c0.8-0.9,1.3-1.8,1.5-2.6c0-0.1,0-0.1,0-0.2C152.8,85.2,151.2,85.1,149.6,85.2
				 M139.6,100.5c-0.4,0-0.8,0.1-1.3,0.1c-1.9,0.2-3.8,0.6-5.6,1.1c5.5,2.3,13.2,5.8,14.9,11.6l0,0c1.2,0.7,2.5,1.3,3.9,1.6
				c-1.1-1.2-1.8-2.5-2-3.7c-0.3-1.5,0-2.9,1-4.2c0.2-0.2,0.4-0.4,0.6-0.7c1.7-1.6,2.6-3.1,2.7-4.6c0.1-1-0.3-2.1-1.1-3.3
				c-0.2,1.7-1.2,2.3-2.7,2.5c-1.1,0.1-2.6-0.1-4.1-0.3c-1-0.2-2.1-0.3-3.2-0.4C141.8,100.3,140.7,100.4,139.6,100.5"/>
		</g>
		<g>
			<path class="st2" d="M169.9,53.1h-5.2l-3.6-7.8v5.3c0,0.5,0.2,0.8,0.4,0.9c0.2,0.1,0.7,0.2,1.4,0.2v1.4h-0.5
				c-1.4,0-2.3-0.2-2.7-0.6c-0.3,0.3-0.5,0.4-0.8,0.5c-0.4,0.1-1,0.1-1.9,0.1h-0.6v-1.4c0.4,0,0.6-0.1,0.8-0.1
				c0.4,0,0.7-0.1,0.8-0.2c0.1-0.1,0.2-0.4,0.2-0.9v-4l-1.1-0.9l1.1-0.9v-3.2c0-0.5-0.1-0.8-0.4-0.9c-0.2-0.1-0.7-0.2-1.5-0.2V39
				h5.5l3.4,7.9v-5.4c0-0.5-0.1-0.8-0.3-0.9c-0.2-0.2-0.7-0.2-1.6-0.2V39h0.6c0.9,0,1.5,0.1,1.9,0.2c0.3,0.1,0.5,0.2,0.8,0.5
				c0.2-0.3,0.5-0.4,0.8-0.5c0.4-0.1,1-0.2,1.9-0.2h0.5v1.4c-0.8,0-1.4,0.1-1.5,0.2c-0.2,0.1-0.3,0.4-0.3,0.9v3.2l1.1,0.9l-1.1,0.9
				v4c0,0.5,0.1,0.8,0.3,0.9c0.3,0.1,0.7,0.1,1.5,0.2V53.1z M151.5,49.3c0,0.4,0,0.8-0.1,1.2c-0.1,0.6-0.6,0.9-1.4,0.9
				c-0.8,0-1.3-0.3-1.4-0.9c0-0.3,0-0.6,0-1.2v-3l1.1-0.9l-1.1-0.9v-2.2c0-0.6,0-0.9,0-1.2c0.2-0.6,0.6-1,1.4-1c0.8,0,1.3,0.3,1.4,1
				c0.1,0.2,0.1,0.6,0.1,1.2v2.2l-1.1,0.9l1.1,0.9V49.3z M156.5,45.4l-1.2-0.9c-0.2-2-0.9-3.6-2-4.6c-0.9-0.9-2.1-1.4-3.3-1.4
				c-0.9,0-1.7,0.3-2.5,0.7c-1.6,1-2.6,2.8-2.9,5.3l-1.1,0.9l1.1,0.9c0.1,2.4,0.8,4.2,2.1,5.5c1,0.9,2,1.3,3.3,1.3
				c0.9,0,1.7-0.2,2.4-0.7c1.9-1.2,2.9-3.2,3-6.1L156.5,45.4z M143.8,49.8c-0.1,0.9-0.7,1.7-1.9,2.4c-1.1,0.7-2.1,1-3.3,1
				c-1.2,0-2-0.3-2.6-0.8c-0.4,0.4-1.3,0.6-2.7,0.6h-1.1v-1.4c0.4,0,0.6-0.1,0.8-0.1c0.4,0,0.7-0.1,0.8-0.2c0.1-0.1,0.2-0.4,0.2-0.9
				v-3.9l-1-0.9l1-0.9v-3.2c0-0.5-0.1-0.8-0.4-0.9c-0.2-0.1-0.7-0.2-1.5-0.2V39h1.1c0.9,0,1.5,0.1,1.9,0.2c0.3,0.1,0.5,0.3,0.7,0.5
				c0.5-0.5,1.5-0.8,2.8-0.8c1.1,0,2.2,0.3,3.3,0.8c1.1,0.5,1.6,1.3,1.6,2.5c0,0.4-0.2,0.7-0.6,1c-0.4,0.3-0.9,0.4-1.5,0.4
				c-0.5,0-0.9-0.1-1.3-0.4c-0.4-0.3-0.6-0.6-0.6-1c0-0.4,0.3-0.9,0.8-1.4c-0.4-0.3-0.9-0.4-1.4-0.4c-0.5,0-0.9,0.1-1.1,0.3
				c-0.2,0.2-0.3,0.5-0.3,0.9v3.2h3.6l-0.3,1.7h-3.3v3.7c0,0.6,0.1,0.9,0.2,1.1c0.2,0.3,0.4,0.4,0.8,0.4c0.5,0,1-0.2,1.4-0.6
				c-0.4-0.4-0.5-0.8-0.5-1.3c0-0.4,0.2-0.8,0.5-1.1c0.4-0.3,0.8-0.5,1.4-0.5c0.7,0,1.3,0.2,1.7,0.6
				C143.7,49.2,143.8,49.6,143.8,49.8 M130.8,53.1h-1c-1.4,0-2.2-0.2-2.6-0.6c-0.4,0.4-1.3,0.6-2.7,0.6h-0.4v-1.4
				c0.6-0.1,0.9-0.2,1.1-0.3c0.1-0.2,0.2-0.4,0.2-0.8v-4h-2.9v4c0,0.4,0.1,0.6,0.2,0.8c0.1,0.2,0.5,0.3,1,0.3v1.4h-0.4
				c-1.3,0-2.2-0.2-2.6-0.6c-0.4,0.4-1.3,0.6-2.7,0.6h-1v-1.4c0.3,0,0.6-0.1,0.8-0.1c0.4,0,0.7-0.1,0.8-0.2c0.2-0.1,0.3-0.4,0.3-0.9
				v-3.9l-1.1-0.9l1.1-0.9v-3.2c0-0.5-0.1-0.8-0.4-0.9c-0.2-0.1-0.7-0.2-1.5-0.2V39h1c1.4,0,2.3,0.2,2.7,0.6
				c0.4-0.4,1.3-0.6,2.6-0.6h0.4v1.4c-0.5,0.1-0.9,0.2-1,0.3c-0.1,0.1-0.2,0.4-0.2,0.8v3.2h2.9v-3.2c0-0.4-0.1-0.7-0.2-0.8
				c-0.2-0.1-0.5-0.2-1.1-0.3V39h0.4c1.4,0,2.3,0.2,2.7,0.6c0.4-0.4,1.3-0.6,2.6-0.6h1v1.4c-0.8,0-1.4,0.1-1.6,0.2
				c-0.2,0.1-0.3,0.4-0.3,0.9v3.2l1,0.9l-1,0.9v3.9c0,0.5,0,0.8,0.3,0.9c0.2,0.1,0.7,0.2,1.6,0.2L130.8,53.1z M110.3,49.9
				c0,1.1,0.4,1.6,1.4,1.6c0.4,0,0.8-0.2,1.1-0.5c-0.4-0.5-0.6-0.9-0.6-1.3c0-0.4,0.1-0.7,0.5-1c0.4-0.3,0.8-0.4,1.4-0.4
				c0.6,0,1.1,0.1,1.5,0.4c0.4,0.3,0.6,0.6,0.6,1.1c0,0.8-0.6,1.6-1.7,2.4c-0.9,0.6-1.7,0.9-2.5,0.9c-1.7,0-3-0.6-4-1.8
				c-1-1.4-1.5-3-1.6-4.9l-1-0.9l1.1-0.9c0.2-1.5,0.7-2.7,1.4-3.7c1-1.4,2.3-2.1,4-2.1c0.8,0,1.6,0.3,2.5,1c1.1,0.8,1.7,1.6,1.7,2.4
				c0,0.4-0.2,0.7-0.6,1.1c-0.4,0.3-0.9,0.4-1.5,0.4c-0.5,0-1-0.1-1.4-0.4c-0.4-0.3-0.5-0.6-0.5-1.1c0-0.4,0.2-0.8,0.6-1.3
				c-0.3-0.3-0.6-0.5-1.1-0.5c-0.9,0-1.4,0.6-1.4,1.7v2.6l1.1,0.9l-1.1,0.9L110.3,49.9z M105,40.2c-0.6,0-1.1,0.1-1.2,0.2
				c-0.2,0.2-0.3,0.4-0.3,0.8v3.2l1,0.9l-1,0.9v2.6c0,1.8-0.6,3-1.8,3.6c-0.8,0.4-1.9,0.6-3.1,0.6c-1.7,0-3-0.4-3.9-1.1
				c-0.7-0.6-1-1.6-1-3v-2.6l-1.1-0.9l1.1-0.9v-3.2c0-0.4-0.1-0.7-0.3-0.8c-0.2-0.2-0.6-0.2-1.4-0.2v-1.4h0.8c1.4,0,2.3,0.2,2.7,0.6
				c0.2-0.2,0.5-0.4,0.8-0.5c0.4-0.1,1-0.1,1.9-0.1h0.6v1.4c-0.3,0-0.5,0-0.7,0.1c-0.3,0.1-0.5,0.1-0.6,0.3
				c-0.1,0.1-0.2,0.4-0.2,0.7v3.2l1.1,0.9l-1.1,0.9v3.5c0,1.1,0.6,1.6,1.7,1.6c1.1,0,1.7-0.5,1.7-1.6v-3.5l-1-0.9l1-0.8v-3.2
				c0-0.5-0.1-0.7-0.3-0.9c-0.2-0.1-0.6-0.2-1.2-0.2v-1.4h0.4c1.2,0,2,0.2,2.4,0.6c0.4-0.4,1.3-0.6,2.5-0.6h0.4L105,40.2z
				 M87.9,49.8v-1.2c0-0.9-0.2-1.4-0.4-1.6c-0.4-0.3-1-0.4-1.8-0.4h-0.2v4.1c0,0.7,0.4,1.1,1.2,1.1c0.6,0,1-0.2,1.1-0.5
				C87.9,50.9,87.9,50.4,87.9,49.8 M87.9,43.1V42c0-0.7-0.1-1.1-0.2-1.3c-0.2-0.2-0.5-0.3-1-0.3c-0.5,0-0.8,0.1-0.9,0.3
				c-0.2,0.1-0.3,0.4-0.3,0.8v3.3h0.3c0.9,0,1.5-0.1,1.7-0.3C87.8,44.3,87.9,43.9,87.9,43.1 M91.7,48.9c0,1.3-0.6,2.4-1.8,3.3
				c-0.9,0.7-2.1,1.1-3.5,1.1c-1.2,0-2.1-0.3-2.7-0.8c-0.4,0.4-1.3,0.6-2.7,0.6h-1v-1.4c0.4,0,0.6-0.1,0.8-0.1
				c0.4,0,0.7-0.1,0.8-0.2c0.1-0.1,0.2-0.4,0.2-0.9v-4l-1.1-0.9l1.1-0.9v-3.2c0-0.5-0.1-0.8-0.4-0.9c-0.3-0.1-0.7-0.2-1.5-0.2V39h1
				c0.9,0,1.5,0.1,1.9,0.2c0.3,0.1,0.6,0.2,0.8,0.5c0.6-0.5,1.5-0.8,2.8-0.8c1.8,0,3.1,0.5,4,1.4c0.7,0.7,1,1.4,1,2.3
				c0,1.2-0.7,2.2-2.1,2.9C90.9,46.1,91.7,47.3,91.7,48.9"/>
		</g>
		<g>
			<path class="st2" d="M107.3,163l0.4-2.5c2-1.1,3.6-2.3,4.7-3.7h1.4l-2.5,14.6H109l1.7-10.1c-0.5,0.4-1.1,0.8-1.7,1
				C108.4,162.6,107.8,162.8,107.3,163"/>
		</g>
		<g>
			<path class="st2" d="M121.6,161.2c0-0.8-0.1-1.3-0.4-1.7c-0.2-0.4-0.6-0.5-0.9-0.5c-0.5,0-0.8,0.3-1.2,0.8
				c-0.4,0.7-0.6,1.6-0.6,2.8c0,0.8,0.1,1.3,0.4,1.7c0.2,0.4,0.5,0.5,0.9,0.5c0.3,0,0.6-0.1,0.8-0.4c0.3-0.2,0.5-0.6,0.7-1.2
				C121.5,162.6,121.6,162,121.6,161.2 M115.7,167.9l2.2-0.2c0.1,0.6,0.2,1,0.3,1.2c0.2,0.2,0.4,0.3,0.7,0.3c0.5,0,0.9-0.3,1.2-0.8
				c0.4-0.5,0.6-1.3,0.9-2.4c-0.5,0.4-1,0.6-1.6,0.6c-0.9,0-1.7-0.4-2.3-1.1c-0.6-0.8-0.9-1.8-0.9-3.1c0-1.5,0.4-2.8,1.2-4
				c0.8-1.1,1.8-1.7,3-1.7c0.7,0,1.2,0.2,1.7,0.6c0.5,0.4,0.9,1,1.2,1.7c0.3,0.8,0.5,1.9,0.5,3.2c0,2.7-0.5,5-1.5,6.7
				c-1,1.7-2.2,2.6-3.7,2.6c-0.9,0-1.6-0.3-2.1-0.9C116,170,115.7,169.1,115.7,167.9"/>
		</g>
		<g>
			<path class="st2" d="M130.9,161.2c0-0.8-0.1-1.3-0.4-1.7c-0.2-0.4-0.6-0.5-0.9-0.5c-0.5,0-0.8,0.3-1.2,0.8
				c-0.4,0.7-0.7,1.6-0.7,2.8c0,0.8,0.1,1.3,0.4,1.7c0.2,0.4,0.5,0.5,0.9,0.5c0.3,0,0.6-0.1,0.9-0.4c0.3-0.2,0.5-0.6,0.7-1.2
				C130.8,162.6,130.9,162,130.9,161.2 M124.9,167.9l2.2-0.2c0,0.6,0.1,1,0.3,1.2c0.2,0.2,0.4,0.3,0.7,0.3c0.5,0,0.9-0.3,1.2-0.8
				c0.4-0.5,0.6-1.3,0.9-2.4c-0.5,0.4-1,0.6-1.6,0.6c-0.9,0-1.7-0.4-2.3-1.1c-0.6-0.8-0.9-1.8-0.9-3.1c0-1.5,0.4-2.8,1.1-4
				c0.8-1.1,1.8-1.7,3-1.7c0.6,0,1.2,0.2,1.7,0.6c0.5,0.4,0.9,1,1.2,1.7c0.3,0.8,0.5,1.9,0.5,3.2c0,2.7-0.5,5-1.5,6.7
				c-1,1.7-2.2,2.6-3.7,2.6c-0.9,0-1.6-0.3-2.1-0.9C125.3,170,125,169.1,124.9,167.9"/>
		</g>
		<g>
			<path class="st2" d="M134.1,167.1l2.3-0.3l0,0.3c0,0.7,0.1,1.2,0.4,1.5c0.2,0.3,0.6,0.5,0.9,0.5c0.6,0,1.1-0.3,1.5-1
				c0.4-0.6,0.7-1.5,0.7-2.7c0-0.7-0.1-1.2-0.4-1.5c-0.3-0.3-0.6-0.5-1-0.5c-0.3,0-0.6,0.1-0.9,0.3c-0.3,0.2-0.6,0.4-0.8,0.8
				l-1.9-0.2l1.8-7.4h6l-0.4,2.6h-4l-0.5,2.2c0.2-0.1,0.5-0.2,0.7-0.3c0.2-0.1,0.5-0.1,0.7-0.1c0.9,0,1.6,0.4,2.2,1.1
				c0.6,0.7,0.9,1.7,0.9,3c0,1.1-0.2,2.1-0.7,3.1c-0.4,1-1,1.7-1.7,2.2c-0.7,0.5-1.4,0.7-2.2,0.7c-1,0-1.8-0.4-2.5-1.2
				C134.5,169.6,134.1,168.5,134.1,167.1"/>
		</g>
		<path class="st3" d="M127.5,182.9L127.5,182.9c-0.3-0.5-0.6-0.9-1-1.2c-0.3-0.4-0.7-0.7-1.1-1c-2-1.5-4.4-2-7-1.9
			c-0.1,0.1-0.2,0.2-0.4,0.4v0c-0.7,0.8-1.3,1.7-1.8,2.7c0.4-0.1,0.8-0.1,1.1-0.2c0.5,0,0.9,0,1.4,0c2.2,0.2,4.1,1.4,5.7,3.4
			c0.6-0.1,1.6-0.2,2.4-0.5C127.5,184.3,128,183.7,127.5,182.9 M126,192.8L126,192.8c0.5,0,0.9-0.1,1.4-0.2c0.4-0.1,0.9-0.2,1.3-0.4
			c2.1-0.8,3.9-2.2,5-4.3l0,0c0-0.2,0.1-0.3,0.1-0.5c0.2-0.8,0.2-1.7,0.2-2.6c-1,1.6-2.2,2.8-3.6,3.6c-1.5,0.9-3.3,1.4-5.3,1.4h0
			c-0.1,0-0.1,0-0.2,0v0c-0.2,0.1-0.4,0.2-0.5,0.4c-0.2,0.2-0.3,0.5-0.2,0.7c0,0.1,0,0.3,0.1,0.4l0,0c0.1,0.2,0.1,0.3,0.2,0.4
			c0.1,0.1,0.2,0.2,0.3,0.3C125.1,192.9,125.7,192.9,126,192.8L126,192.8L126,192.8 M131.6,191.7c-0.1,0.1-0.3,0.2-0.4,0.3
			c-1.5,1-3.3,1.6-5.2,1.8h0l-0.2,0h0c-0.1,0-0.2,0-0.3,0.1c-0.2,0-0.3,0.1-0.2,0.4l0,0c0.1,0.2,0.2,0.3,0.3,0.4
			c0.2,0.1,0.4,0.1,0.7,0l0,0l0,0C128.4,194.3,130.2,193.2,131.6,191.7 M125.1,189.1h0.1c0.5,0,1-0.1,1.5-0.2c0.5-0.1,1-0.2,1.5-0.4
			c2.4-0.8,4.3-2.6,5.5-5c0-0.1,0-0.2-0.1-0.3c0-0.1-0.1-0.2-0.1-0.4c-0.2-0.5-0.4-1.1-0.6-1.6l0,0c-0.4,0.3-0.8,0.6-1.3,0.8
			c-0.2,0.3-0.4,0.5-0.6,0.8c-0.2,0.3-0.5,0.5-0.7,0.7c-1.3,1.1-3,1.9-4.7,2.2v0c-0.3,0.1-0.6,0.1-0.8,0.4c-0.2,0.2-0.5,0.6-0.6,1.3
			v0c-0.1,0.3-0.1,0.5-0.1,0.7c0,0.3,0.1,0.4,0.2,0.6c0.1,0.1,0.3,0.2,0.5,0.3C124.8,189.1,125,189.1,125.1,189.1L125.1,189.1
			 M117.3,183.8L117.3,183.8c-0.2,0.3-0.3,0.6-0.4,1c-0.1,0.3-0.2,0.6-0.3,1c-0.3,1.7-0.1,3.5,0.5,5.1l0,0c0.2,0.3,0.5,0.7,0.8,1
			c0.6,0.7,1.4,1.3,2.2,1.7c-0.4-0.7-0.6-1.4-0.9-2.1c-0.7-2.3-0.6-4.8,0.8-6.8c0.3-0.5,0.5-0.9,0.4-1.2c0-0.3-0.3-0.5-0.8-0.6h0
			l0,0c-0.3-0.1-0.7-0.2-1.1-0.1C118.1,182.8,117.7,183.2,117.3,183.8 M115.6,186.9c0.1-1.2,0.4-2.5,1-3.5c0.1-0.1,0.1-0.3,0.1-0.4
			c0,0,0-0.1,0-0.1c0,0,0,0,0,0h0c-0.1,0-0.1,0-0.2,0l0,0l0,0c-0.2,0-0.3,0.1-0.5,0.3v0c-0.1,0.1-0.2,0.3-0.2,0.6v0l0,0v0
			c-0.1,0.4-0.2,0.9-0.2,1.4C115.5,185.7,115.5,186.3,115.6,186.9 M120.8,185L120.8,185c-0.3,0.4-0.5,0.8-0.7,1.3
			c-0.2,0.4-0.3,0.9-0.4,1.3c-0.4,2.3,0.5,4.7,1.8,6.7c0.1,0,0.3,0.1,0.4,0.1c0.1,0,0.3,0.1,0.4,0.1c0.7,0.2,1.4,0.3,2.1,0.3
			c-0.1-0.2-0.1-0.3-0.1-0.5c-0.1-0.2-0.1-0.5-0.1-0.7c-0.8-1.1-1.2-2.2-1.3-3.3c-0.1-1.1,0.1-2.1,0.4-3.3l0.1-0.4h0
			c0.3-0.9,0.3-1.1-0.4-1.8v0c-0.1-0.1-0.2-0.1-0.2-0.2c-0.3-0.2-0.6-0.4-0.9-0.4c-0.3,0-0.6,0.1-0.9,0.4
			C120.9,184.8,120.9,184.9,120.8,185 M127.1,176.6c0.5,0.3,1,0.6,1.5,0.9c0.9,0.7,1.6,1.6,2.3,2.7c0.3,0.4,0.5,0.6,0.7,0.7
			c0.2,0.1,0.3,0.1,0.5,0l0.1,0v0c0.1-0.1,0.2-0.2,0.2-0.3c0-0.1,0-0.3-0.1-0.5c0-0.1-0.1-0.1-0.1-0.2l0,0c-0.2-0.3-0.4-0.5-0.7-0.8
			v0c-0.2-0.3-0.5-0.5-0.8-0.7C129.5,177.5,128.4,176.9,127.1,176.6 M130,180.5L130,180.5L130,180.5c-0.3-0.4-0.5-0.7-0.8-1.1
			c-0.3-0.3-0.6-0.6-0.9-0.9c-1.6-1.4-3.6-2.1-5.8-2c-0.2,0-0.4,0.1-0.5,0.1c-0.2,0.1-0.3,0.1-0.5,0.2c-0.7,0.3-1.4,0.6-2,1
			c0.4,0,0.8,0,1.2,0.1c0.5,0.1,1,0.1,1.5,0.3c2.5,0.6,4.6,2,6,4.1l0,0c0.2,0.3,0.5,0.6,0.8,0.7c0.3,0.1,0.6,0,1.1-0.4l0,0l0,0
			c0.3-0.2,0.4-0.5,0.4-0.9h0C130.5,181.3,130.3,180.9,130,180.5L130,180.5L130,180.5z"/>
	</g>
</g>
<g id="레이어_1">
	<rect x="8" y="8" class="st4" width="234" height="234"/>
</g>
</svg>
