<?xml version="1.0" encoding="utf-8"?>
<!-- Generator: Adobe Illustrator 25.1.0, SVG Export Plug-In . SVG Version: 6.00 Build 0)  -->
<svg version="1.1" xmlns="http://www.w3.org/2000/svg" xmlns:xlink="http://www.w3.org/1999/xlink" x="0px" y="0px"
	 viewBox="0 0 250 250" style="enable-background:new 0 0 250 250;" xml:space="preserve">
<style type="text/css">
	.st0{fill:#1C235A;}
	.st1{fill:#E8343D;}
	.st2{fill:#FFFFFF;}
	.st3{fill:none;}
</style>
<g id="Layer_1">
	<g>
		<path class="st0" d="M66.7,23.9L8.3,125l58.4,101.2h116.8l58.2-100.7L183.5,23.9H66.7z"/>
		<path class="st1" d="M104.4,44.1v-4.3H75.2l-49.5,85.6L75.2,211h99l49.1-85.6l-48.9-85.6h-29.7l0,4.3l23.8,3.3l44.9,78l-44,76.7
			H80.5l-44.4-76.7l44.6-78L104.4,44.1z"/>
		<path class="st2" d="M124,38.1c-3.9,9.2-9,17.8-15.1,25.8c2.5,4.7,4.6,9.4,7.1,14.2v5.5l7.9,14l8.1-14v-5.5l7-14.2
			c-3.3-3.9-7.1-8.7-10.4-15.1C127,45.4,125.4,41.8,124,38.1L124,38.1z M89.9,57.1l5.3,19.8l15.5,14.9l1.3-13l-6.6-13.5L89.9,57.1z
			 M158.4,57.1l-5.3,19.8l-15.5,14.9l-1.3-13l6.6-13.5L158.4,57.1z M75.4,95l24.7-7.2L91.5,79L75.4,95z"/>
		<path class="st2" d="M70,103.8L62,130.6l31.3-13.4l-27.9,25.1l22.3,40.8l16.7-31.5l20.6,31.5h35.1l-46-57.7l7.7-23.2l-7.1-11.1
			l-0.5,8.9L102,89L70,103.8z"/>
		<path class="st2" d="M186.9,117.4l-13.7-5.3l-6-15.6L149.6,86l-15.2,13.9l-1.1-8.1l-8.3,29.9l9.7,13.7l9.7-14l4.4,5.5l11.2-2.9
			l-18.6,18.9l20.8,38.5l-4.7-29l5.5-7.1l14.5,8.6v-9.9l6.3-7.5v-8.9l4.2-1.7L186.9,117.4L186.9,117.4z M163.9,111.6l-13.3-10.3h14
			l-2.9,5.9C161.7,107.3,163.9,111.6,163.9,111.6z"/>
	</g>
</g>
<g id="레이어_1">
	<rect x="8" y="8" class="st3" width="234" height="234"/>
</g>
<g id="_레이어_2">
</g>
</svg>
