<?xml version="1.0" encoding="utf-8"?>
<!-- Generator: Adobe Illustrator 25.1.0, SVG Export Plug-In . SVG Version: 6.00 Build 0)  -->
<svg version="1.1" xmlns="http://www.w3.org/2000/svg" xmlns:xlink="http://www.w3.org/1999/xlink" x="0px" y="0px"
	 viewBox="0 0 250 250" style="enable-background:new 0 0 250 250;" xml:space="preserve">
<style type="text/css">
	.st0{fill:#FFFFFF;}
	.st1{fill:#F5CF2C;}
	.st2{fill:#FFDF23;}
	.st3{fill:#244694;}
	.st4{fill:none;}
</style>
<g id="Layer_1">
	<g>
		<path class="st0" d="M225.1,82.1c-1-2.7-3.6-4.4-6.5-4.4l-0.4,0c-1.8,0.1-3.7,0.2-5.5,0.2c-3,0-5.7-0.2-8-0.4
			c-13.7-1.9-23.2-12.9-24.1-27.9l0-0.3l0-0.1l-0.1-0.7c-0.2-1.9-0.3-3.3-0.5-4.8c-0.8-4.4-4-6.4-6.8-6.4c-2.1,0-4.1,1-5.5,2.8
			c-0.8,1-1.4,1.4-1.6,1.5c-0.3,0.1-0.5,0.1-0.8,0.1c-3.2,0.5-6.4,0.9-9.6,1.2c0.4-1.4,1-2.8,1.7-4.4c1.4-3.1,2.1-6.2,2.1-9.3
			c0-1.1,0-2.2-0.2-3.3c-0.4-3.2-3.2-5.7-6.5-5.6c-1.1,0-2.2,0.3-3.1,0.8c-1.1-5-3.7-9.8-8.2-12.2c-2.7-1.4-6.1-0.8-8,1.6
			c-1.2,1.5-1.8,3.5-1.4,5.4c1,5.6-0.6,10.4-1.7,12.9c-2,0.6-3.8,1.6-5.5,2.9c-1.6-1.3-3.5-2.2-5.5-2.9c-1.1-2.5-2.7-7.3-1.7-12.9
			c0.6-3.6-1.7-7-5.3-7.6C112.2,8,111.8,8,111.4,8c-1.1,0-2.1,0.3-3,0.8c-4.5,2.4-7.1,7.2-8.2,12.2c-1-0.5-2-0.8-3.1-0.8
			c-3.3,0-6,2.4-6.5,5.6c-0.1,1.1-0.2,2.2-0.2,3.3c0,3.1,0.8,6.2,2.1,9.3c0.6,1.4,1.2,2.8,1.6,4.2c-4.3-0.4-7.8-0.9-10.5-1.3
			c-0.3-0.2-0.8-0.6-1.5-1.4c-1.4-1.8-3.4-2.8-5.5-2.8c-2.8,0-6,2-6.8,6.4c-0.3,1.5-0.4,2.9-0.5,4.8l-0.1,1.1
			c-0.5,8.1-3.6,15.3-8.7,20.5l-0.1,0.2c-3.8,4.1-11.5,6.7-17.2,7.4c-2.6,0.3-5.1,0.5-7.7,0.5c-1.3,0-2.5,0-3.8-0.1l-0.4,0
			c-2.9,0-5.5,1.8-6.5,4.4c-1.1,2.7-0.3,5.7,1.8,7.7l11.3,10.3V149c0,5.1,4.1,9.2,9.2,9.2h6.7c14.8,35.4,37.7,63,68.2,82l2.9,1.8
			l2.9-1.8c30.5-19,53.5-46.6,68.2-82h6.7c5.1,0,9.2-4.1,9.2-9.2v-48.9l11.3-10.3C225.5,87.8,226.2,84.7,225.1,82.1"/>
		<path class="st1" d="M168.3,54c-43.7,7.7-86.6,0-86.6,0c-2.3,19.4-14.1,32.4-31.8,35.3c4.9,54.4,30.7,109.3,75.1,137.6
			c44.5-28.3,70.3-83.2,75.1-137.6C182.4,86.4,170.6,73.4,168.3,54"/>
		<path class="st2" d="M96.4,55.9c-3.2-0.3-5.9-0.6-8.1-0.9l-7.5,4.1c0,0.1,0,0.1,0,0.2c-0.5,2.1-1.1,4.2-1.9,6.3L96.4,55.9z"/>
		<path class="st2" d="M138.6,57.1c-3.4,0.2-6.8,0.2-10.3,0.3l-3.4,1.9l-3.4-1.9c-3.7-0.1-7.1-0.2-10.4-0.4l13.9,7.6L138.6,57.1z"/>
		<path class="st2" d="M170.6,64.3l-0.1-0.2c-0.1-0.3-0.2-0.7-0.3-1c-0.3-0.9-0.6-1.9-0.8-2.9c-0.1-0.4-0.2-0.8-0.3-1.2l-7.3-4
			c-2.7,0.4-5.3,0.7-8,1l17.2,9.5C170.9,65.1,170.8,64.7,170.6,64.3"/>
		<path class="st2" d="M102.7,202.4l-4.3,2.3c1.1,1.2,2.2,2.4,3.4,3.5l0.9-0.5l15.7,8.6v6c1.6,1.2,3.2,2.3,4.9,3.4v-12.1
			L102.7,202.4z"/>
		<path class="st2" d="M126.6,213.8v12.1c1.7-1.1,3.3-2.2,4.9-3.4v-6l15.7-8.6l0.9,0.5c1.1-1.1,2.3-2.3,3.4-3.5l-4.3-2.3
			L126.6,213.8z"/>
		<path class="st2" d="M69.8,162.5l0.1,0.2L69.8,162.5L69.8,162.5z"/>
		<path class="st2" d="M71.9,166.7L71.9,166.7c-0.3-0.6-0.6-1.2-0.9-1.8C71.4,165.5,71.6,166.1,71.9,166.7"/>
		<path class="st2" d="M73.5,169.6c0.7,1.4,1.5,2.8,2.3,4.1l0,0C75,172.4,74.3,171,73.5,169.6L73.5,169.6z"/>
		<path class="st2" d="M93.1,198.8c1,1.2,2.1,2.5,3.1,3.6l0.1-0.1c-1.1-1.2-2.1-2.4-3.2-3.6L93.1,198.8z"/>
		<path class="st2" d="M153.7,202.5c1.1-1.2,2.1-2.4,3.1-3.6l-0.1,0C155.8,200,154.7,201.2,153.7,202.5L153.7,202.5z"/>
		<path class="st2" d="M69.8,89.5h9V65.7c-1.2,3.2-2.9,6.3-4.9,9.1v12.4L69.8,89.5z"/>
		<path class="st2" d="M82.1,89.5h9L87,87.2V69.9l15.7-8.6l15.7,8.6v17.3l-4.1,2.3h9V67.2l-19.4-10.7c-0.7,0-1.4-0.1-2.1-0.2
			L82.1,67.2V89.5z"/>
		<path class="st2" d="M126.6,89.5h9l-4.1-2.3V69.9l15.7-8.6l15.7,8.6v17.3l-4.1,2.3h9V67.2l-19.5-10.7c-0.9,0.1-1.7,0.1-2.6,0.2
			l-19.1,10.5V89.5z"/>
		<path class="st2" d="M180.2,89.5l-4.1-2.3V74.8c-0.8-1.1-1.6-2.3-2.3-3.5l-0.2-0.4c-0.7-1.2-1.3-2.5-1.9-3.8c0,0,0-0.1-0.1-0.1
			l-0.1-0.3c-0.1-0.3-0.3-0.7-0.4-1v23.8H180.2z"/>
		<path class="st2" d="M78.8,152.7h-4.9v7.5l-4.1,2.3c0,0.1,0.1,0.1,0.1,0.2c0.4,0.8,0.7,1.5,1.1,2.2c0.3,0.6,0.6,1.2,0.9,1.8
			l6.9-3.8V152.7z"/>
		<path class="st2" d="M118.5,160.2l-15.7,8.6L87,160.2v-7.5h-4.9v10.2l20.6,11.3l20.6-11.3v-10.2h-4.9V160.2z"/>
		<path class="st2" d="M163,160.2l-15.7,8.6l-15.7-8.6v-7.5h-4.9v10.2l20.6,11.3l20.6-11.3v-10.2H163V160.2z"/>
		<path class="st2" d="M171.2,162.9l6.8,3.8c0.7-1.4,1.4-2.8,2.1-4.2l-4.1-2.2v-7.5h-4.9V162.9z"/>
		<path class="st2" d="M101.1,177.1l-20.6-11.3l-7,3.8c0.7,1.4,1.5,2.8,2.3,4.1l4.7-2.6l15.7,8.6v17.3l-3,1.7c1,1.2,2.1,2.4,3.2,3.6
			l4.8-2.6V177.1z"/>
		<path class="st2" d="M140.7,197.1l-15.7,8.6l-15.7-8.6v-17.3l15.7-8.6l15.7,8.6V197.1z M104.4,177.1v22.7l20.6,11.3l20.6-11.3
			v-22.7L125,165.8L104.4,177.1z"/>
		<path class="st2" d="M169.5,165.8l-20.6,11.3v22.7l4.7,2.6c1.1-1.2,2.1-2.4,3.2-3.6l-3-1.7v-17.3l15.7-8.6l4.7,2.6
			c0.5-0.8,0.9-1.6,1.3-2.4c0.3-0.6,0.6-1.1,0.9-1.7L169.5,165.8z"/>
		<path class="st2" d="M174.2,173.7c0.5-0.8,0.9-1.6,1.3-2.4C175.1,172.1,174.6,172.9,174.2,173.7L174.2,173.7z"/>
		<path class="st3" d="M125,226.9L125,226.9c-26.8-17.1-46.8-43.8-59.5-74.2h119.1C171.8,183.2,151.8,209.9,125,226.9 M81.7,54
			c0,0,6.8,1.2,17.6,2.2c-3,7.7-9.9,15-14.9,30.9l-2.8-2.8c-1-1-2.4-1.6-3.8-1.6H66.1C74.6,76.5,80.2,66.6,81.7,54 M168.3,54
			c1.5,12.6,7,22.5,15.6,28.7h-11.4c-1.4,0-2.8,0.6-3.8,1.6l-3.1,3.1c-4.9-16-11.9-23.4-14.9-31.1C156.5,55.8,162.4,55,168.3,54
			 M218.6,83.1c-3.7,0.2-9.3,0.3-14.6-0.3c-17.1-2.4-27.8-16.5-28.8-33.1l0-0.1c-0.2-2.3-0.3-3.7-0.5-5.2c-0.4-2.1-1.6-2.3-2.6-1.1
			c-2.3,3-4.4,3.4-4.4,3.4s-0.4,0.1-1.4,0.3c-5.6,0.8-11.3,1.5-17,1.9c0-3.5,0.9-7.6,3.2-12.7c1-2.2,1.6-4.7,1.7-7.1
			c0-0.8,0-1.7-0.1-2.5c-0.1-1-1.4-1.2-2-0.4c-2.6,4.5-7.2,4.8-7.2,4.8c1.1-5.6-0.6-14.7-5.7-17.4c-0.8-0.4-1.7,0.3-1.5,1.1
			c1.9,10.4-3.4,18.6-3.4,18.5c-7.3,1.3-9.1,6.6-9.2,6.8h0c-0.1-0.2-1.9-5.4-9.2-6.8c0,0-5.2-8.1-3.4-18.5c0.2-0.9-0.7-1.6-1.5-1.1
			c-5.1,2.7-6.8,11.7-5.7,17.4c-0.1,0-4.6-0.4-7.2-4.8c-0.5-0.9-1.8-0.6-2,0.4c-0.1,0.8-0.2,1.7-0.1,2.5c0,2.5,0.7,4.9,1.7,7.1
			c2.3,5.1,3.2,9.1,3.2,12.6c-6.2-0.5-12.3-1.2-18.4-2c-0.2,0-2.2-0.5-4.4-3.4c-0.9-1.2-2.2-1-2.6,1.1c-0.3,1.5-0.4,2.9-0.5,5.3
			c-0.6,9.3-4.2,17.9-10.3,24c-4.8,5.2-13.6,8.3-20.5,9.1c-4.2,0.5-8.4,0.7-12.5,0.4c-0.8,0-1.5,0.6-1.6,1.4c0,0.4,0.1,0.9,0.5,1.2
			l13.1,12V149c0,2.1,1.7,3.7,3.7,3.7h10.4c13.2,33.1,34.9,62.5,67.5,82.8h0c32.6-20.3,54.3-49.7,67.5-82.8h10.4
			c2.1,0,3.7-1.7,3.7-3.7c0,0,0,0,0,0V97.6l13.1-12C220.7,84.7,220,83,218.6,83.1"/>
		<path class="st0" d="M73.6,110.5H61.3v-9.9h11.4l0.9,0.9V110.5z M77.3,89.5H44.6l5.7,5.2v51.7h11v-24.9h12.3v24.9h11V96.9
			l-2.2-2.2L77.3,89.5z"/>
		<path class="st0" d="M101.1,113.4l0.9-0.9h16.9v-11H97.4l-7.3,7.3v20.6h18.4v6.1H90v11h29.4v-28.1h-18.4V113.4z"/>
		<path class="st0" d="M148.8,118.3h-12.3v-5.8h11.4l0.9,0.9V118.3z M125.4,101.4v45h11v-17.1h12.3v17.1h11v-37.7l-7.3-7.3H125.4z"
			/>
		<path class="st0" d="M200.1,89.5h-27l-5.4,5.4l-2.2,2.2v49.3h11v-45.9h11.4l0.9,0.9v45h11V94.7l5.6-5.1H200.1z"/>
		<path class="st3" d="M142.4,182v-5.7h-10.3l-0.5-0.5v-2.6l0-2.9l0-2.9v-2.6l0.5-0.5h10.3v-5.7h-12.7l-3.8,3.8v15.8l3.8,3.8H142.4z
			"/>
		<path class="st3" d="M113.1,173.9h8.2v-5.7h-8.1l0-0.8v-2.6l0.5-0.5h10.3v-5.7h-12.7l-3.8,3.8V182h5.7L113.1,173.9z"/>
		<path class="st3" d="M118.5,204.6c0-1.2-0.8-1.9-2.4-1.9c-0.8,0-1.5,0.1-2,0.4l0.1,1.2c0.4-0.2,0.9-0.3,1.2-0.3
			c0.7,0,1.2,0.2,1.2,0.9c0,0.7-0.9,1.6-1.8,2.6l-0.9,0.9v1h4.4v-1.3h-2.2l0.4-0.5C117,207.3,118.5,205.9,118.5,204.6"/>
		<path class="st3" d="M122.9,206.3c0,1.4-0.3,2-1,2s-1-0.7-1-2.1V206c0-1.4,0.3-2,1-2c0.7,0,1,0.6,1,2.1V206.3z M121.9,202.7
			c-1.5,0-2.8,0.9-2.8,3.4v0.2c0,2.3,1.2,3.2,2.8,3.2c1.5,0,2.9-0.8,2.9-3.3v-0.2C124.7,203.7,123.4,202.7,121.9,202.7"/>
		<path class="st3" d="M129.7,204.6c0-1.2-0.8-1.9-2.4-1.9c-0.8,0-1.5,0.1-2,0.4l0.1,1.2c0.4-0.2,0.9-0.3,1.2-0.3
			c0.7,0,1.2,0.2,1.2,0.9c0,0.7-0.9,1.6-1.8,2.6l-0.9,0.9v1h4.4v-1.3h-2.2l0.4-0.5C128.3,207.3,129.7,205.9,129.7,204.6"/>
		<path class="st3" d="M134.2,206.3c0,1.4-0.3,2-1,2c-0.7,0-1-0.7-1-2.1V206c0-1.4,0.3-2,1-2c0.7,0,1,0.6,1,2.1V206.3z M133.2,202.7
			c-1.5,0-2.8,0.9-2.8,3.4v0.2c0,2.3,1.2,3.2,2.8,3.2c1.5,0,2.9-0.8,2.9-3.3v-0.2C136,203.7,134.6,202.7,133.2,202.7"/>
		<path class="st3" d="M98,199.3h8.4v-6c-2.5,0.2-5.3,0.4-8.4,0.4V199.3z"/>
		<path class="st3" d="M115.5,191.8c-2.8,0.6-5.6,1.1-8.4,1.4v6.1h8.4V191.8z"/>
		<path class="st3" d="M143.6,199.3h8.4v-5.6c-3.1,0-5.9-0.1-8.4-0.4V199.3z"/>
		<path class="st3" d="M134.5,199.3h8.4v-6.1c-2.8-0.3-5.6-0.7-8.4-1.4V199.3z"/>
		<path class="st3" d="M126.4,193.5h-1v5.7h8.4v-7.6c-3.8-0.9-6.2-2-7.4-2.7V193.5z"/>
		<path class="st3" d="M116.2,191.6v7.6h8.4v-5.7h-1v-4.6C122.5,189.6,120,190.7,116.2,191.6"/>
		<path class="st3" d="M125.7,188.4c0-2.2-0.3-3.5-0.3-3.5s0.6-0.5,0.7-0.9H124c0,0.4,0.7,0.9,0.7,0.9s-0.3,1.3-0.3,3.5v4.5h1.3
			V188.4z"/>
		<path class="st1" d="M89.7,92.8c0,0.3,0,0.5,0,0.8c0,0.2,0,0.4,0.1,0.6l0,0.2c0.1,0.3,0.1,0.6,0.3,0.9c0,0,0,0.1,0,0.1
			c0.1,0.1,0.1,0.3,0.2,0.4c0,0,0,0.1,0.1,0.1c0.2,0.2,0.4,0.4,0.6,0.6l0,0c0.1,0.1,0.2,0.1,0.4,0.2c0.3,0.1,0.6,0.2,1,0.2
			c0.2,0,0.5,0,0.7,0c0.1,0,0.3,0,0.4-0.1c1.4-0.3,2-0.4,3.4-0.6v-2c-1,0.2-1.4,0.2-2.4,0.4c-1.7,0.3-2.6-0.2-2.6-1.7v-1
			c0-1.5,0.9-2.4,2.6-2.7c1-0.2,1.4-0.3,2.4-0.4v-2.1c-1.1,0.2-2.3,0.4-3.4,0.6c-2.4,0.5-3.7,2.2-3.8,5l0,0
			C89.7,92.5,89.7,92.6,89.7,92.8"/>
		<path class="st1" d="M98,96c0.9-0.1,1.3-0.2,2.2-0.3V92c1.3-0.2,1.9-0.3,3.2-0.4v3.1h0v0.6c0.9-0.1,1.3-0.2,2.2-0.3v-9.5
			c-0.9,0.1-1.3,0.2-2.2,0.3v3.8c-1.1,0.1-2.1,0.3-3.2,0.4v-3.8c-0.9,0.1-1.3,0.2-2.2,0.3v8.1h0V96z"/>
		<path class="st1" d="M110.6,94.6c2.6-0.2,4-1.7,4-4.4v-5.5c-0.8,0-1.5,0.1-2.3,0.2v5.5c0,1.4-0.6,2.1-1.7,2.2
			c-1.1,0.1-1.7-0.5-1.7-1.9v-5.5c-0.8,0.1-1.5,0.1-2.3,0.2v5.5C106.6,93.6,107.9,94.8,110.6,94.6"/>
		<path class="st1" d="M117.9,88.9c1.4,1.8,2.1,2.7,3.5,4.6c0.1,0.2,0.3,0.3,0.6,0.4c0.5,0.1,1,0,1.3-0.4c0.1-0.2,0.2-0.4,0.2-0.6
			v-8.5c-0.7,0-1.5,0-2.2,0v5c-1.4-1.8-2.1-2.8-3.5-4.6c-0.1-0.2-0.3-0.3-0.6-0.4c-0.2-0.1-0.5,0-0.7,0c-0.2,0.1-0.4,0.2-0.6,0.4
			c-0.1,0.2-0.2,0.4-0.2,0.6v8.6c0.9,0,1.3-0.1,2.2-0.1V88.9z"/>
		<path class="st1" d="M128.4,93.9c1.3,0,2,0,3.4,0.1v-4.6c-0.9,0-1.4,0-2.3-0.1v2.6l-0.2,0c-1.7,0-2.5-0.8-2.5-2.2v-1
			c0-1.5,0.9-2.2,2.6-2.2c0.9,0,1.4,0,2.4,0.1v-2.1c-1.1,0-2.2-0.1-3.4-0.1c-2.6-0.1-3.9,1.6-3.9,4.7
			C124.5,92.3,125.8,93.8,128.4,93.9"/>
		<path class="st1" d="M135.1,89.1c1.4,2,2.1,3,3.5,4.9c0.1,0.2,0.3,0.3,0.6,0.4c0.2,0.1,0.5,0.1,0.7,0.1c0.4-0.1,0.8-0.5,0.8-0.9
			v-8.5c-0.9-0.1-1.3-0.1-2.2-0.2v5c-1.4-2-2.1-3-3.5-4.9c-0.3-0.4-0.8-0.6-1.3-0.4c-0.2,0.1-0.4,0.2-0.6,0.4
			c-0.1,0.2-0.2,0.4-0.2,0.6V94c0.9,0,1.3,0.1,2.2,0.1V89.1z"/>
		<path class="st1" d="M145.8,89.6l0.8,2.1c-0.7-0.1-1-0.1-1.6-0.2L145.8,89.6 M143.6,94.8l0.6-1.3c1.3,0.1,2,0.2,3.3,0.4l0.3,0.7h0
			l0.3,0.8c0.9,0.1,1.4,0.2,2.3,0.3c-1.4-3.8-2.1-5.7-3.6-9.5c-0.1-0.2-0.2-0.4-0.4-0.5c-0.2-0.1-0.4-0.2-0.6-0.2
			c-0.2,0-0.4,0-0.6,0.1c-0.2,0.1-0.3,0.2-0.4,0.4c-1.2,2.9-2.4,5.7-3.5,8.6c0.1,0,0.2,0,0.3,0h0.1
			C142.4,94.7,142.9,94.8,143.6,94.8"/>
		<path class="st1" d="M151.4,95.9c0.9,0.1,1.3,0.2,2.2,0.4v-4.4l1.2,2.8h0l0.1,0.2c0.1,0.2,0.2,0.4,0.4,0.5
			c0.2,0.1,0.4,0.2,0.6,0.3c0.1,0,0.2,0,0.3,0l0,0c0.1,0,0.2,0,0.2-0.1c0.2-0.1,0.3-0.2,0.4-0.3c0.5-1,0.8-1.5,1.3-2.4v4.3l0.5,0.1
			v0c0.6,0.1,1,0.2,1.7,0.4V89c0-0.2-0.1-0.5-0.2-0.7c-0.2-0.2-0.4-0.4-0.6-0.5c-0.3-0.1-0.6-0.2-0.9-0.1c-0.2,0-0.4,0.2-0.5,0.4
			c-0.9,1.5-1.3,2.3-2.1,3.9c-0.9-1.9-1.3-2.9-2.2-4.7c-0.1-0.2-0.3-0.4-0.5-0.5c-0.3-0.2-0.6-0.2-0.9-0.2c-0.2,0-0.4,0.1-0.6,0.3
			c-0.2,0.1-0.2,0.4-0.2,0.6v7.3h0V95.9z"/>
		<path class="st1" d="M126.7,49.7c-0.5-0.3-1.1-0.4-1.7-0.4c-0.7,0-1.2,0.2-1.7,0.4c-1.4,0.8-1.5,2.4-1.5,2.4
			c0.2,1.8,0.6,3.6,1.2,5.3c0.9,2.3,1.9,3.4,1.9,3.4s1-1.1,1.9-3.4c0.5-1.3,1-3.1,1.2-5.3C128.1,52.1,128,50.5,126.7,49.7"/>
		<path class="st0" d="M133.5,62.9l12,11.1c-0.6-1.6-1.2-3.1-1.9-4.6c-2.4-5.1-4.7-8.8-6.8-12.2c-1.2-1.9-2.4-3.7-3.5-5.7l0,0l0,0v0
			c0,0,2.2,1.1,4.4,1.1c1,0,2-0.2,2.8-0.9c0.9-0.7,1.5-1.6,1.8-2.5c0.5-1.5,0.2-3.2-0.1-4.6c-0.5-2.2,1.2-4.3,1.2-4.3
			c-0.1,0-4.5,1.3-7,3.5c-1.9,1.7-3.5,3.6-4.8,5.8c-0.9,1.6-1.6,3.3-1.7,4.9c-0.1,0.9-0.2,1.9-0.5,2.8c-0.8,2.6-2.4,4.7-4.3,6.6h0
			c-2-1.9-3.6-4-4.3-6.7c0-0.1-0.1-0.3-0.1-0.4c-0.1-0.3-0.1-0.5-0.2-0.8l0,0c0-0.1,0-0.2,0-0.3c-0.1-0.4-0.1-0.8-0.1-1.2
			c0-0.5-0.1-1-0.2-1.5c-0.3-1.2-0.8-2.3-1.5-3.5c-1.3-2.2-2.8-4.1-4.7-5.7c-0.3-0.3-0.7-0.6-1-0.8c-0.9-0.6-1.9-1.1-2.9-1.6
			c-1-0.4-2.1-0.8-3.1-1.1c0.5,0.6,0.8,1.2,1.1,2c0.2,0.7,0.4,1.5,0.2,2.3c-0.2,1-0.4,2.1-0.4,3.2c0,0.4,0.1,0.9,0.2,1.3l0,0.1
			c0,0.2,0.1,0.3,0.2,0.5c0.3,0.7,0.8,1.5,1.6,2.1c0.8,0.6,1.8,0.9,2.8,0.9c0.8,0,1.6-0.1,2.3-0.3c0.3-0.1,0.7-0.2,0.9-0.3
			c0.7-0.2,1.2-0.5,1.2-0.5l0,0c-1.1,1.9-2.3,3.7-3.4,5.6c-2.2,3.4-4.4,7.1-6.9,12.3c-0.2,0.5-0.5,1-0.7,1.5c-0.4,1-0.9,2.1-1.3,3.1
			l12-11.1l-3.3,16.6L125,67.2l11.7,12.3L133.5,62.9z"/>
	</g>
</g>
<g id="레이어_1">
	<rect x="8" y="8" class="st4" width="234" height="234"/>
</g>
<g id="_레이어_2">
</g>
</svg>
