<?xml version="1.0" encoding="utf-8"?>
<!-- Generator: Adobe Illustrator 25.1.0, SVG Export Plug-In . SVG Version: 6.00 Build 0)  -->
<svg version="1.1" xmlns="http://www.w3.org/2000/svg" xmlns:xlink="http://www.w3.org/1999/xlink" x="0px" y="0px"
	 viewBox="0 0 250 250" style="enable-background:new 0 0 250 250;" xml:space="preserve">
<style type="text/css">
	.st0{fill:none;}
	.st1{fill:#FFFFFF;}
	.st2{fill:#0068B7;}
	.st3{fill:#D5D8DD;}
	.st4{fill:#A0D2F2;}
	.st5{fill:#231916;}
	.st6{fill:#F39700;}
</style>
<g id="Layer_1">
	<rect x="8" y="8" class="st0" width="234" height="234"/>
	<g transform="matrix(3.4638 0 0 -3.4638 -557.666 1942.331)">
		<path class="st1" d="M198.6,549.4c0,0,1.3,3,2.1,3.1C200.6,552.5,200.3,550.2,198.6,549.4 M194.3,549.4c0,0,1.3,3,2.1,3.1
			C196.4,552.5,196,550.2,194.3,549.4 M192.5,550.1l-0.3,0.3l-0.7-0.7c0,0.1-0.4,0.2-0.4,0.2c0.4,0.1,1.5,0.8,1.5,0.8
			C192.6,550.4,192.5,550.1,192.5,550.1 M204.2,553.8c0,0-1.3-0.1-2.2-1.2c0,0-0.1,0.9-1.1,1.2c0,0-1.3,0.4-3.1-1.5
			c0,0,0.1,1.5-1.5,1.6c0,0-1.2,0-2.9-1.7c0,0,0,1.6-1.7,1.7c0,0-1.6,0.2-2.7-1.6c0,0-0.5-1.2,0.7-1.5c0,0-1.5-0.8-1.6-1.8
			c0,0,0-0.5,0.4-0.7c0,0,0.4-0.2,0.8,0.5c0,0,1.1-0.6,1.7-0.5c0,0,0.9,0.1,1.8,1.2c0,0,0.4-1.1,1.5-1.2c0,0,1.2-0.1,2.6,1.8
			c0,0,0-1.2,1.3-1.7c0,0,1.8-0.5,3.7,2.9c0,0,0.3-0.4,0.6-0.4c0,0-1.5-0.9-1.6-1.9c0,0-0.1-0.6,0.5-0.6c0,0,0.3-0.1,0.7,0.5
			c0,0,1.4-0.9,2.1-0.4c0,0,1.4,0.5,1.4,1.7l-0.6,0.5l-0.7-0.7l-0.4,0.2c0,0,2.4,0.8,2.3,2.2C206.2,552.1,206.2,553.8,204.2,553.8"
			/>
		<path class="st1" d="M202.5,556.4c0,0,13.1,2.6,13.2-6.7c0,0,4.2-4.7,5.4-8c0,0,0.1,0.4,0.2,1.2c0,0-0.5,0.9-2.1,1.6
			c0,0-1.1,1.5-0.7,3.5c0,0,0,3.4-2.5,5.1c0,0,5.4-0.3,7.7-5.1c0,0,1-2.8-1-5.2c0,0,0.3-1.8-0.4-4.3c0,0,1.3-4.5,1.2-6.9
			c0,0,0.1,0.4,0.5,0.8c0,0-1.1,1-1.3,2.4c0,0-0.3,2.2,0.7,3.9c0,0,1.4,2.6,1.8,5.5c0,0,7.2-9,0.2-12.2c0,0-1.2-3.4-2-4.7
			c0,0,0-3.1-1.2-7.4c0,0,1.1,1.2,1.4,1.3c0,0-1.3,3,1.3,6.2c0,0,3.7,3.9,5.5,5c0,0,2.4-14-5.8-12.2c0,0-2.6-3.1-3.6-4
			c0,0-1.1-3-3.3-6.5c0,0,1.2-0.1,1.9,0.8c0,0-0.9,3.9,4,5.7c0,0,3.6,1.2,5.9,3.6c0,0-0.6-13.8-8.8-10.6c0,0-1.1-1-4.4-1.6
			c0,0-1.7-2.6-4-4.7c0,0,0.8-0.2,1.7,0.3c0,0,2.6,7.7,11.5,2.4c0,0-2-0.5-5-3.4c0,0-3.1-2.5-6.2-0.4c0,0-2.4-0.6-4-0.5
			c0,0-3.4-3-3.8-3.3l-1.6,2.4c0,0,1.7,0.6,4.8,3.4c0,0-0.1,0.2,0.1,0.7c0,0-0.3,0-0.9,1.2c0,0-1,0-2.8-1.8c0,0-3.7-3.3-6.9-1.6
			c0,0,1.9-0.3,4.1,4.1c0,0,3.2,4.4,6.6,0.8c0,0,0-0.7,0.3-1.1c0,0,0.2,1,0.4,1.2c0,0-3,2.8-1,5.7c0,0,1.8,1.2,1.5,5
			c0,0,2.4-0.9,3.8-5.4c0,0,0.7-3.9-2.9-5.5l-0.2-0.9c0,0,2.6,3.1,4,5.3c0,0-0.1,3.3,0.1,4c0,0-4.3,2.7-1.6,6.3c0,0,1.3,2.2,0.6,6
			c0,0,7.3-5.5,2.7-12c0,0,0.1-1.3,0.2-1.5c0,0,1.8,3.8,2.2,6.4c0,0-0.4,2.2-1.8,6c0,0-4.5,2.3-1.8,6.9c0,0,0.9,3-0.1,5.7
			c0,0,8.2-5.4,3.4-12.5l1.2-2.4c0,0,2.4,8.3-1.6,16.7c0,0-5,3.9-7.7,3.4c0,0-4.5-0.4-6.9,2.7c0,0,1.8-0.9,4.5,0.7
			c0,0,4.3,2.5,6.5-2.7c0,0,2.1-1.3,2.5-1.3c0,0-2.4,3.9-3.7,5c0,0-3.2-0.4-5.8,3.1C208.8,552.1,205.7,555.3,202.5,556.4"/>
		<path class="st1" d="M191.6,556.4c0,0-13.1,2.6-13.2-6.7c0,0-4.2-4.7-5.4-8c0,0-0.1,0.4-0.2,1.2c0,0,0.5,0.9,2.1,1.6
			c0,0,1.1,1.5,0.7,3.5c0,0,0,3.4,2.5,5.1c0,0-5.4-0.3-7.7-5.1c0,0-1-2.8,1-5.2c0,0-0.3-1.8,0.4-4.3c0,0-1.3-4.5-1.2-6.9
			c0,0-0.1,0.4-0.5,0.8c0,0,1.1,1,1.3,2.4c0,0,0.3,2.2-0.7,3.9c0,0-1.4,2.6-1.8,5.5c0,0-7.2-9-0.2-12.2c0,0,1.2-3.4,2-4.7
			c0,0,0-3.1,1.2-7.4c0,0-1.1,1.2-1.4,1.3c0,0,1.3,3-1.3,6.2c0,0-3.7,3.9-5.5,5c0,0-2.4-14,5.8-12.2c0,0,2.6-3.1,3.6-4
			c0,0,1.1-3,3.3-6.5c0,0-1.2-0.1-1.9,0.8c0,0,0.9,3.9-4,5.7c0,0-3.6,1.2-5.9,3.6c0,0,0.6-13.8,8.8-10.6c0,0,1.1-1,4.4-1.6
			c0,0,1.7-2.6,4-4.7c0,0-0.8-0.2-1.7,0.3c0,0-2.6,7.7-11.5,2.4c0,0,2-0.5,5-3.4c0,0,3.1-2.5,6.2-0.4c0,0,2.4-0.6,4-0.5
			c0,0,3.4-3,3.8-3.3l1.6,2.4c0,0-1.7,0.6-4.8,3.4c0,0,0.1,0.2-0.1,0.7c0,0,0.3,0,0.9,1.2c0,0,1,0,2.8-1.8c0,0,3.8-3.3,6.9-1.6
			c0,0-1.9-0.3-4.1,4.1c0,0-3.2,4.4-6.6,0.8c0,0,0-0.7-0.3-1.1c0,0-0.2,1-0.4,1.2c0,0,3,2.8,1,5.7c0,0-1.8,1.2-1.5,5
			c0,0-2.4-0.9-3.8-5.4c0,0-0.7-3.9,2.9-5.5l0.2-0.9c0,0-2.6,3.1-4,5.3c0,0,0.1,3.3-0.1,4c0,0,4.3,2.7,1.6,6.3c0,0-1.3,2.2-0.6,6
			c0,0-7.3-5.5-2.7-12c0,0-0.1-1.3-0.2-1.5c0,0-1.8,3.8-2.2,6.4c0,0,0.4,2.2,1.8,6c0,0,4.5,2.3,1.8,6.9c0,0-0.9,3,0.1,5.7
			c0,0-8.2-5.4-3.4-12.5l-1.2-2.4c0,0-2.4,8.3,1.6,16.7c0,0,5,3.9,7.7,3.4c0,0,4.5-0.4,6.9,2.7c0,0-1.8-0.9-4.5,0.7
			c0,0-4.3,2.5-6.5-2.7c0,0-2.1-1.3-2.5-1.3c0,0,2.4,3.9,3.7,5c0,0,3.2-0.4,5.8,3.1C185.4,552.1,188.4,555.3,191.6,556.4"/>
		<path class="st1" d="M172.1,549c0,0,1.8-7.2,6.7-9.4c0,0-0.1,1.7-0.1,2.3l0.4,0.1c0,0,0.6,1.9,1.7,2.9c0,0,0.1-2.3,0.3-2.7
			c0,0,3.9,0.6,7.8,2.3c0,0,4.8,1.9,8.3,1.8c0,0,2.9,0.3,8.2-1.8c0,0,5.2-1.8,5.7-1.9c0,0,0.4,1.4,0.3,2.3c0,0,1.6-1.6,1.6-2.6
			c0,0,1.8-0.2,2.5-0.2l-0.1-1c0,0,2.7,1.6,4.5,8c0,0,2.6-9.7-4.8-13.9l-0.1-0.2c0,0,3.7,0.1,8.1-2.7c0,0-4.6,0.8-8.2-0.6
			c0,0,1.1-15.4-17.9-29.4c0,0-11.8,9.3-15.4,18.5c0,0-2.5,6.2-2.6,13.5C179.1,534.1,169.8,536.1,172.1,549"/>
		<path class="st2" d="M209.5,506.7c0,0,0.1-1.5,1.2-1.8l0.2,0.3c0,0-1.1,0.7-1.2,1.7L209.5,506.7z"/>
		<path class="st2" d="M206.2,504.7c0,0,1.3,1.5,3.5,2c0,0,0,1.8-2.7,1.7c0,0-2.2,0.1-3.4-2.5c0,0-1.5-3-2.7-3.3
			C200.8,502.6,203.2,502.1,206.2,504.7"/>
		<path class="st2" d="M225.6,543.1c0,0-0.3-1.7-2.2-5.5c0,0-1-2.9,1.2-4.8c0,0-1.7-4.2-2.1-4.1c0,0-0.3-2.3,0-2c0,0,1.4,2.5,2.5,6
			C225,532.6,231.5,534.3,225.6,543.1"/>
		<path class="st1" d="M226.1,539.7c0,0,0.3-4.3-0.9-5.9c-0.3-0.4-0.2,0.2-0.2,0.2S225.8,535.5,226.1,539.7"/>
		<path class="st2" d="M216.9,515.8c0,0,4.9,4.7-1.2,10.8c0,0,0.4-2.6-1.2-5.5C214.5,521.1,212.6,518.3,216.9,515.8"/>
		<path class="st1" d="M216.7,521.6c0,0-0.8-4.6-0.2-4.8c0.5-0.2,0.1,0.3,0.1,0.3S216.5,517.6,216.7,521.6"/>
		<path class="st2" d="M217.1,516.7l0.4-5.3l-1.1-1.6l0.1,7.4L217.1,516.7z"/>
		<path class="st2" d="M219.3,527.1c0,0,4.7,5.2-2,11.1c0,0,0.6-2.7-0.8-5.7C216.4,532.4,214.6,529.3,219.3,527.1"/>
		<path class="st1" d="M218.7,533c0,0-0.5-4.8,0.1-5c0.5-0.1,0.1,0.3,0.1,0.3S218.7,528.9,218.7,533"/>
		<path class="st2" d="M218.8,528l2.7-5.8l-0.4-2.2l-2.5,7.7L218.8,528z"/>
		<path class="st2" d="M214.6,544.8c0,0,3.3-1.4,5.6-3.6l-0.5,1.5c0,0-4.6,2.1-5,2.9L214.6,544.8z"/>
		<path class="st2" d="M211.5,545.2c0,0,1.8,0.2,3.9-0.7c0,0,0.6,1.6-1.7,3.1c0,0-1.8,1.4-3.9,0.1c0,0-2.5-1.4-3.6-0.9
			C206.1,546.7,208,545,211.5,545.2"/>
		<path class="st2" d="M211.9,517.3c0,0,0.2-2.8-1.7-4.6c0,0-1.1-1.2-0.1-3.5c0,0,0.9-1.3,1.3-1.8c0,0,4.3,1.7,3,5.9
			C214.4,513.3,213.2,516.6,211.9,517.3"/>
		<path class="st1" d="M212.5,513.5c0,0,0.2-3.8-0.5-5.2c-0.2-0.4-0.3,0.2-0.3,0.2S212.1,508.2,212.5,513.5"/>
		<path class="st2" d="M211.4,508.1c0,0-1.5-4.1-1.1-5.6l0.9,1.2c0,0,0,3.4,0.7,4.3L211.4,508.1z"/>
		<path class="st2" d="M217.8,552.3c0,0,1.1-1,1.3-4.3c0,0-0.5-2.3,1.3-3.5c0,0,1.1-0.6,1.7-1.6c0,0,2.3,1.7,1.2,4.9
			C223.3,547.9,221.9,551.3,217.8,552.3"/>
		<path class="st1" d="M221.1,547.9c0,0,1.3-3.6,1-3.9c-0.2-0.3-0.2,0.1-0.2,0.1S221.8,545.8,221.1,547.9"/>
		<path class="st2" d="M221.2,539.8c0,0,1,3.1,0.7,3.7l0.2,0.2c0,0,0.8-1.7-0.3-5.2L221.2,539.8z"/>
		<path class="st2" d="M204.3,556.1c0,0,4-2.1,5.2-4c0,0,2.3-3.1,5.7-2.4C215.3,549.6,216.4,557.1,204.3,556.1"/>
		<path class="st1" d="M209.8,553.9c0,0,4.6-2.8,4.6-3.3c0-0.4-0.3-0.1-0.3-0.1S212.5,552.1,209.8,553.9"/>
		<path class="st2" d="M224.7,505.9c0,0-1.7-0.5-4.5-3.1c0,0-3-2-5.7-0.2c0,0-2.8-0.7-4.3-0.5c0,0,0.2,0.3,0.4,0.7
			c0,0,2.7-0.4,3.8,0.3C214.4,503.1,216.6,509.9,224.7,505.9"/>
		<path class="st1" d="M220.8,505.3c0,0-4.7-1-5.3-1.9c-0.2-0.4,0.3-0.2,0.3-0.2S216.9,504.1,220.8,505.3"/>
		<path class="st2" d="M228.9,518.6c0,0-1.4-1.4-5.6-3c0,0-3.9-1.5-3.1-5c0,0-0.3-1.7-4.4-1.3c0,0-0.4-0.6-0.7-1.2
			c0,0,4.3,0.6,5.5,1.9C220.7,509.9,227.4,505.8,228.9,518.6"/>
		<path class="st1" d="M226.3,515.3c0,0-4.2-4.8-4.9-4.7c-0.5,0.1,0.3,0.5,0.3,0.5S224.1,513,226.3,515.3"/>
		<path class="st2" d="M230.1,531.6c0,0-2.1-1.5-4.3-4c0,0-2.9-2.5-1.5-6.3c0,0-3.3-3.5-3.5-2.9c0,0-1.1-2.3-0.6-2.3
			c0,0,2.4,2.3,4.4,4.8C224.6,520.9,231.8,517.9,230.1,531.6"/>
		<path class="st1" d="M228.5,527.7c0,0-2.6-5.3-3.1-5.8c-0.3-0.3-0.1,0.4-0.1,0.4S226.7,524.8,228.5,527.7"/>
		<path class="st2" d="M214.1,550.4c0,0,5.2-5.4,5.6-8.7c0,0,3.7-6.3,2.1-15.6c0,0-1.9-10.2-4.2-13c0,0-6.3-10.2-11.8-12.7l1-1.5
			c0,0,7.7,5.5,11.8,13.2c0,0,3.9,6.4,4.4,14.7c0,0,1.2,7.6-2.5,15.4c0,0-0.6,2-6,8.3L214.1,550.4z"/>
		<path class="st2" d="M184.7,506.7c0,0-0.1-1.5-1.2-1.8l-0.2,0.3c0,0,1.1,0.7,1.2,1.7L184.7,506.7z"/>
		<path class="st2" d="M188,504.7c0,0-1.3,1.5-3.5,2c0,0,0,1.8,2.7,1.7c0,0,2.2,0.1,3.4-2.5c0,0,1.5-3,2.7-3.3
			C193.3,502.6,190.9,502.1,188,504.7"/>
		<path class="st2" d="M168.6,543.1c0,0,0.3-1.7,2.2-5.5c0,0,1-2.9-1.2-4.8c0,0,1.7-4.2,2.1-4.1c0,0,0.3-2.3,0-2c0,0-1.4,2.5-2.5,6
			C169.2,532.6,162.6,534.3,168.6,543.1"/>
		<path class="st1" d="M168.1,539.7c0,0-0.3-4.3,0.9-5.9c0.3-0.4,0.2,0.2,0.2,0.2S168.3,535.5,168.1,539.7"/>
		<path class="st2" d="M177.3,515.8c0,0-4.9,4.7,1.2,10.8c0,0-0.4-2.6,1.2-5.5C179.6,521.1,181.6,518.3,177.3,515.8"/>
		<path class="st1" d="M177.4,521.6c0,0,0.8-4.6,0.2-4.8c-0.5-0.2-0.1,0.3-0.1,0.3S177.7,517.6,177.4,521.6"/>
		<path class="st2" d="M177.1,516.7l-0.4-5.3l1.1-1.6l-0.1,7.4L177.1,516.7z"/>
		<path class="st2" d="M174.9,527.1c0,0-4.7,5.2,2,11.1c0,0-0.6-2.7,0.8-5.7C177.7,532.4,179.5,529.3,174.9,527.1"/>
		<path class="st1" d="M175.5,533c0,0,0.5-4.8-0.1-5c-0.5-0.1-0.1,0.3-0.1,0.3S175.5,528.9,175.5,533"/>
		<path class="st2" d="M175.4,528l-2.7-5.8l0.4-2.2l2.5,7.7L175.4,528z"/>
		<path class="st2" d="M179.6,544.8c0,0-3.3-1.4-5.6-3.6l0.5,1.5c0,0,4.6,2.1,5,2.9L179.6,544.8z"/>
		<path class="st2" d="M182.7,545.2c0,0-1.8,0.2-3.9-0.7c0,0-0.6,1.6,1.7,3.1c0,0,1.8,1.4,3.9,0.1c0,0,2.5-1.4,3.6-0.9
			C188,546.7,186.2,545,182.7,545.2"/>
		<path class="st2" d="M182.3,517.3c0,0-0.2-2.8,1.7-4.6c0,0,1.1-1.2,0.1-3.5c0,0-0.9-1.3-1.3-1.8c0,0-4.3,1.7-3,5.9
			C179.8,513.3,181,516.6,182.3,517.3"/>
		<path class="st1" d="M181.7,513.5c0,0-0.2-3.8,0.5-5.2c0.2-0.4,0.3,0.2,0.3,0.2S182.1,508.2,181.7,513.5"/>
		<path class="st2" d="M182.8,508.1c0,0,1.5-4.1,1.1-5.6l-0.9,1.2c0,0,0,3.4-0.7,4.3L182.8,508.1z"/>
		<path class="st2" d="M176.3,552.3c0,0-1.1-1-1.3-4.3c0,0,0.5-2.3-1.3-3.5c0,0-1.1-0.6-1.7-1.6c0,0-2.3,1.7-1.2,4.9
			C170.8,547.9,172.3,551.3,176.3,552.3"/>
		<path class="st1" d="M173.1,547.9c0,0-1.3-3.6-1-3.9c0.2-0.3,0.2,0.1,0.2,0.1S172.4,545.8,173.1,547.9"/>
		<path class="st2" d="M173,539.8c0,0-1,3.1-0.7,3.7l-0.2,0.2c0,0-0.8-1.7,0.3-5.2L173,539.8z"/>
		<path class="st2" d="M189.9,556.1c0,0-4-2.1-5.2-4c0,0-2.3-3.1-5.7-2.4C178.9,549.6,177.8,557.1,189.9,556.1"/>
		<path class="st1" d="M184.3,553.9c0,0-4.6-2.8-4.6-3.3c0-0.4,0.3-0.1,0.3-0.1S181.6,552.1,184.3,553.9"/>
		<path class="st2" d="M169.5,505.9c0,0,1.7-0.5,4.5-3.1c0,0,3-2,5.7-0.2c0,0,2.8-0.7,4.3-0.5c0,0-0.2,0.3-0.4,0.7
			c0,0-2.7-0.4-3.8,0.3C179.8,503.1,177.6,509.9,169.5,505.9"/>
		<path class="st1" d="M173.4,505.3c0,0,4.7-1,5.3-1.9c0.2-0.4-0.3-0.2-0.3-0.2S177.3,504.1,173.4,505.3"/>
		<path class="st2" d="M165.3,518.6c0,0,1.4-1.4,5.6-3c0,0,3.9-1.5,3.1-5c0,0,0.3-1.7,4.4-1.3c0,0,0.4-0.6,0.7-1.2
			c0,0-4.3,0.6-5.5,1.9C173.5,509.9,166.8,505.8,165.3,518.6"/>
		<path class="st1" d="M167.8,515.3c0,0,4.2-4.8,4.9-4.7c0.5,0.1-0.3,0.5-0.3,0.5S170.1,513,167.8,515.3"/>
		<path class="st2" d="M164,531.6c0,0,2.1-1.5,4.3-4c0,0,2.9-2.5,1.5-6.3c0,0,3.3-3.5,3.5-2.9c0,0,1.1-2.3,0.6-2.3
			c0,0-2.4,2.3-4.4,4.8C169.6,520.9,162.4,517.9,164,531.6"/>
		<path class="st1" d="M165.7,527.7c0,0,2.6-5.3,3.1-5.8c0.3-0.3,0.1,0.4,0.1,0.4S167.5,524.8,165.7,527.7"/>
		<path class="st2" d="M180.1,550.4c0,0-5.2-5.4-5.6-8.7c0,0-3.7-6.3-2.1-15.6c0,0,1.9-10.2,4.2-13c0,0,6.3-10.2,11.8-12.7l-1-1.5
			c0,0-7.7,5.5-11.8,13.2c0,0-3.9,6.4-4.4,14.7c0,0-1.2,7.6,2.5,15.4c0,0,0.6,2,6,8.3L180.1,550.4z"/>
		<path class="st2" d="M192.9,552.2c0-0.6-0.4-1.1-1.3-1.4c-0.4-0.2-0.8-0.4-1.2-0.5c-0.5-0.2-0.8-0.4-1.1-0.6
			c0.2,0.1,0.4,0.2,0.7,0.2c0.2,0,0.5,0,0.8-0.2c0.3-0.1,0.5-0.2,0.8-0.3c0.1,0,0.2,0.1,0.4,0.2c0.1,0.1,0.2,0.2,0.4,0.4l0,0
			c0-0.1-0.2-0.3-0.5-0.6c-0.4-0.3-0.7-0.5-1.1-0.5c-0.2,0-0.6,0.1-1,0.4c-0.2,0.1-0.4,0.2-0.5,0.2c-0.2,0-0.3-0.1-0.4-0.3
			c-0.1-0.2-0.2-0.3-0.2-0.3c0,0,0,0-0.1,0c0,0,0,0,0,0c0,0.1,0,0.1,0,0.2c0,0.1,0.1,0.2,0.2,0.4c0.1,0.1,0.2,0.3,0.4,0.4
			c0.1,0.1,0.4,0.3,0.9,0.7c0.6,0.4,1.1,0.8,1.4,1.1c0.3,0.4,0.5,0.7,0.5,1.1c0,0.3-0.2,0.5-0.5,0.5c-0.3,0-0.7-0.1-1-0.4
			c-0.2-0.2-0.4-0.3-0.5-0.5c-0.1-0.2-0.2-0.4-0.2-0.5c0-0.2,0.1-0.3,0.2-0.3c0.2,0,0.4,0.1,0.5,0.3c0.2,0.2,0.3,0.4,0.5,0.6
			c0,0,0.1,0,0.1-0.1c0-0.1-0.1-0.3-0.3-0.5c-0.3-0.3-0.5-0.4-0.8-0.4c-0.3,0-0.4,0.1-0.4,0.4c0,0.4,0.2,0.7,0.6,1.1
			c0.5,0.4,1,0.6,1.5,0.6c0.4,0,0.7-0.1,1-0.3C192.8,552.7,192.9,552.5,192.9,552.2"/>
		<path class="st2" d="M196.9,552.4c0,0.4-0.2,0.6-0.5,0.6c-0.2,0-0.4-0.1-0.6-0.3c-0.2-0.2-0.4-0.4-0.6-0.8c-0.4-0.7-0.8-1.3-1-1.8
			c-0.2-0.5-0.3-0.8-0.3-1c0-0.3,0.1-0.5,0.5-0.5c0.4,0,0.8,0.3,1.3,1c0.4,0.5,0.7,1.1,1,1.6C196.8,551.8,196.9,552.2,196.9,552.4
			 M197.3,552.2c0-0.4-0.1-0.8-0.3-1.2c-0.2-0.4-0.6-0.9-1-1.4c-0.7-0.7-1.2-1-1.7-1c-0.3,0-0.6,0.1-0.8,0.4c-0.2,0.3-0.3,0.6-0.3,1
			c0,0.8,0.5,1.6,1.5,2.4c0.7,0.5,1.2,0.8,1.8,0.8c0.3,0,0.5-0.1,0.7-0.3C197.2,552.8,197.3,552.5,197.3,552.2"/>
		<path class="st2" d="M201.1,552.4c0,0.4-0.2,0.6-0.5,0.6c-0.2,0-0.4-0.1-0.6-0.3c-0.2-0.2-0.4-0.4-0.6-0.8c-0.4-0.7-0.8-1.3-1-1.8
			c-0.2-0.5-0.3-0.8-0.3-1c0-0.3,0.2-0.5,0.5-0.5c0.4,0,0.8,0.3,1.3,1c0.4,0.5,0.7,1.1,1,1.6C201,551.8,201.1,552.2,201.1,552.4
			 M201.6,552.2c0-0.4-0.1-0.8-0.3-1.2c-0.2-0.4-0.6-0.9-1-1.4c-0.7-0.7-1.2-1-1.8-1c-0.3,0-0.6,0.1-0.8,0.4c-0.2,0.3-0.3,0.6-0.3,1
			c0,0.8,0.5,1.6,1.5,2.4c0.7,0.5,1.2,0.8,1.8,0.8c0.3,0,0.5-0.1,0.7-0.3C201.5,552.8,201.6,552.5,201.6,552.2"/>
		<path class="st2" d="M205.7,552.2c0-0.6-0.4-1.1-1.3-1.4c-0.4-0.2-0.8-0.4-1.2-0.5c-0.5-0.2-0.8-0.4-1.1-0.6
			c0.2,0.1,0.4,0.2,0.7,0.2c0.3,0,0.5,0,0.8-0.2c0.3-0.1,0.5-0.2,0.8-0.3c0.1,0,0.2,0.1,0.4,0.2c0.1,0.1,0.2,0.2,0.4,0.4l0.1,0
			c0-0.1-0.2-0.3-0.5-0.6c-0.4-0.3-0.7-0.5-1.1-0.5c-0.2,0-0.6,0.1-1,0.4c-0.2,0.1-0.4,0.2-0.5,0.2c-0.2,0-0.3-0.1-0.4-0.3
			c-0.1-0.2-0.2-0.3-0.2-0.3c0,0,0,0-0.1,0c0,0,0,0,0,0c0,0.1,0,0.1,0,0.2c0,0.1,0.1,0.3,0.2,0.4c0.1,0.1,0.2,0.3,0.4,0.4
			c0.1,0.1,0.4,0.3,0.9,0.7c0.6,0.4,1.1,0.8,1.4,1.1c0.3,0.4,0.5,0.7,0.5,1.1c0,0.3-0.2,0.5-0.5,0.5c-0.3,0-0.7-0.1-1-0.4
			c-0.2-0.2-0.4-0.3-0.5-0.5c-0.1-0.2-0.2-0.4-0.2-0.5c0-0.2,0.1-0.3,0.2-0.3c0.2,0,0.4,0.1,0.5,0.3c0.2,0.2,0.3,0.4,0.5,0.6
			c0,0,0.1,0,0.1-0.1c0-0.1-0.1-0.3-0.3-0.5c-0.3-0.3-0.5-0.4-0.8-0.4c-0.3,0-0.4,0.1-0.4,0.4c0,0.4,0.2,0.7,0.6,1.1
			c0.5,0.4,1,0.6,1.5,0.6c0.4,0,0.7-0.1,1-0.3C205.5,552.7,205.7,552.5,205.7,552.2"/>
		<path class="st1" d="M191,496.5l-1.4-3.8h2.3l0.2,0.7h4.4l1.2,3.2H191z"/>
		<path class="st1" d="M203.4,496.5h-3.9c-1.2,0-2.4-0.8-2.8-1.8c-0.2-0.5-0.1-1,0.1-1.4c0.3-0.4,0.9-0.7,1.5-0.7h4.8l0.7,1.8H199
			c-0.2,0,0,0.3,0.3,0.3h4.6l0.6,1.8H203.4z"/>
		<path class="st2" d="M191.6,493.1h-1.4l1.1,3h5.9l-0.4-1h-4.5l-0.2-0.4h4.4l-0.3-0.9h-4.4L191.6,493.1z"/>
		<path class="st2" d="M198.4,493c-1,0-1.6,0.7-1.3,1.5c0.3,0.9,1.4,1.5,2.4,1.5h4.5l-0.3-1h-4.3c-0.4,0-0.8-0.3-0.9-0.6
			c-0.1-0.3,0.1-0.6,0.5-0.6h4.3l-0.4-1H198.4z"/>
		<path class="st1" d="M184.7,499.7c-0.1-0.3-0.2-0.6-0.4-1c0,0-0.1-0.1-0.2-0.1h-1.9c0.2,0.5,0.3,0.7,0.4,1H184.7z M180.5,501.3
			l-1.3-3.5l1-1.4h4c1.1,0,2.2,0.7,2.5,1.5l0.7,1.8c0.2,0.5,0.1,0.9-0.2,1.3c-0.3,0.5-0.9,0.7-1.6,0.7h-3.7l-1.3,0L180.5,501.3z"/>
		<path class="st1" d="M206.9,501.7h-4.3c-1.1,0-2.2-0.7-2.5-1.5l-0.6-1.7c-0.2-0.5-0.1-1,0.2-1.3c0.3-0.5,0.9-0.7,1.6-0.7h3.8
			l1.5,0.9l1,2.8h-0.1c0.1,0.2,0.6,1.5,0.6,1.5H206.9z"/>
		<path class="st1" d="M214,501.7h-1.8c0,0-1.1-3-1.1-3.1c0,0-0.1-0.1-0.2-0.1h-1.7c0.2,0.6,1.2,3.2,1.2,3.2h-2.8l-1.2-3.3
			c-0.2-0.5-0.1-0.9,0.2-1.3c0.3-0.5,0.9-0.7,1.6-0.7h3.1c1.1,0,2.2,0.7,2.5,1.6l1.4,3.8H214z"/>
		<path class="st1" d="M200.3,501.7h-5.9l-1.5-4.1l1.2-1.2h5.5l0.8,2.1h-0.1l0.6,1.6h0c0.1,0.1,0.6,1.5,0.6,1.5H200.3z"/>
		<path class="st1" d="M189.5,501.8c-1.1,0-2.2-0.7-2.5-1.6l-1.4-3.8h2.8c0,0,0.4,1.2,0.6,1.6h1.7c-0.1-0.3-0.6-1.6-0.6-1.6h2.8
			l1.2,3.3c0.2,0.5,0.1,0.9-0.2,1.3c-0.3,0.5-0.9,0.7-1.6,0.7H189.5z"/>
		<path class="st2" d="M185,498.4c-0.1-0.3-0.5-0.5-0.8-0.5h-2.9l0.9,2.5h2.9c0.4,0,0.6-0.2,0.5-0.5L185,498.4z M185.7,501.1h-4.5
			l-1.2-3.2l0.6-0.8h3.7c0.8,0,1.6,0.5,1.8,1l0.7,1.8C186.9,500.6,186.5,501.1,185.7,501.1"/>
		<path class="st2" d="M206.5,499.5h-3.6l-0.3-0.7h2.4l-0.3-0.9h-2.8c-0.4,0-0.6,0.2-0.5,0.5l0.5,1.4c0.1,0.3,0.5,0.5,0.8,0.5h3.9
			l0.2,0.7h-4.3c-0.8,0-1.6-0.5-1.8-1.1l-0.6-1.7c-0.2-0.6,0.3-1.1,1-1.1h3.6l1.1,0.7L206.5,499.5z"/>
		<path class="st2" d="M212.9,498.1c-0.2-0.6-1-1.1-1.8-1.1h-3.1c-0.8,0-1.3,0.5-1,1.1l1,2.9h1.3l-1-2.7c-0.1-0.3,0.1-0.5,0.5-0.5
			h2.1c0.4,0,0.7,0.2,0.8,0.5l1,2.7h1.3L212.9,498.1z"/>
		<path class="st2" d="M194.8,501h5.4l-0.2-0.7h-4.2l-0.3-0.9h4.2l-0.3-0.7h-4.1l-0.3-0.9h4.2l-0.2-0.7h-4.7l-0.6,0.6L194.8,501z"/>
		<path class="st2" d="M188.7,499.5l0.1,0.4c0.1,0.3,0.5,0.6,0.9,0.6h1.9c0.4,0,0.5-0.3,0.4-0.6l-0.1-0.4H188.7z M192.4,501.1h-2.9
			c-0.8,0-1.6-0.5-1.8-1.1l-1-2.9h1.2l0.6,1.6h3.2l-0.6-1.6h1.3l1,2.9C193.6,500.6,193.2,501.1,192.4,501.1"/>
		<path class="st3" d="M197.2,545.8c6,0,11.9-4.3,17.9-4.3c-0.8-15,0.6-23.4-17.9-38.7c-18.5,15.3-17.1,23.7-17.9,38.7
			C185.3,541.5,191.2,545.8,197.2,545.8"/>
		<path class="st1" d="M197.2,544.5c5.5,0,11-4,16.5-4c-0.7-13.9,0.6-21.6-16.5-35.8c-17.1,14.2-15.8,21.9-16.5,35.8
			C186.2,540.5,191.7,544.5,197.2,544.5"/>
		<path class="st4" d="M197.2,543.9c5.3,0,10.7-3.8,16-3.8c-0.7-13.4,0.6-21-16-34.7c-16.6,13.7-15.3,21.2-16,34.7
			C186.5,540,191.8,543.9,197.2,543.9"/>
		<path class="st5" d="M203.5,524.3c-3.2-3.2-8.1-1.9-9.9,1.1c-1.2,2-1.1,4-0.3,5.3c0.8,1.3,2,2.1,4.1,2.2c2.6,0.2,4.9-2.3,3.7-5.1
			c-1.2-2.8-4.6-2.7-6.4-0.8C195.1,524,199.2,521.5,203.5,524.3 M184.8,527c0.3-5,3.5-7.8,6.8-10.8c3-2.6,3.7-5.4,4.3-8.3
			c0.8,2.8,1,5.8-0.2,7.9c3.6-2.2,8-1.6,11.5,0.5c-1.8-0.1-4.3-0.1-5.8,0.6c7.1,1.5,7.6,6.7,9.9,11.6c2.1,4.5,6.6,4.3,9.8,4.2
			c-5,2.5-10.7,2.1-13.8-2.4c1.6,3.3,4.2,3.9,7.3,5c3.8,1.3,6,7.3,5.2,11.7c-1.8-5-3.8-6.9-8.2-8.7c1.1,0.9,1.6,3.3,0.2,5.1
			c-0.1-1.6-0.9-3-2.2-4.1c-2.9-2.3-3.4-3.2-3.7-7c-1.1,6.3-9,8.3-14.2,5.7c0.3,1.4-1.1,3.5-2.4,4.3c0.3-2.1-0.1-4.1-1.6-6.3
			C185.8,533.4,184.7,530.5,184.8,527"/>
		<path class="st5" d="M184.9,528c-0.2,5.5-4.1,6-7.3,7.3c-4.1,1.7-6,7.4-5.3,11.8c1.8-5,3.8-6.9,8.2-8.7c-1.1,0.9-1.6,3.3-0.2,5.1
			c0.1-1.6,0.9-3,2.2-4.1C185.4,537.1,187.3,535.1,184.9,528"/>
		<path class="st6" d="M214.4,536.1c2.7,1.1,4.6,5.1,5.1,8.3c0,0-1.5-4.1-5.7-5.8c-4.2-1.6-5.4-3.8-6.5-7.5
			C208.7,534.5,211.7,535,214.4,536.1"/>
		<path class="st6" d="M177.9,536.1c-2.7,1.1-4.6,5.1-5.1,8.3c0,0,1.5-4.1,5.7-5.8c4.2-1.6,5.4-3.8,6.5-7.5
			C183.5,534.5,180.6,535,177.9,536.1"/>
		<path class="st6" d="M210.2,537.7c1.3,1,2.1,2.9,1.9,4.3c0,0-0.2-2-2.3-3.5c-2.1-1.5-2.5-2.7-2.5-4.4
			C207.5,535.8,208.9,536.7,210.2,537.7"/>
		<path class="st6" d="M182.1,537.7c-1.3,1-2.1,2.9-1.9,4.3c0,0,0.2-2,2.4-3.5c2.1-1.5,2.5-2.7,2.5-4.4
			C184.8,535.8,183.4,536.7,182.1,537.7"/>
		<path class="st6" d="M205.5,530.7c-0.4,6.8-8.6,9.5-14.5,6.2c0,0,0.7,2.2-0.9,4.1c0.3-2.2-0.2-3.5-2.1-6.1
			c-1.8-2.5-2.9-6.1-1.9-9.8c0.9-3.8,4.1-6.4,5.5-7.5c1.4-1.2,3.6-3,4.4-6.7c0.1,4-0.8,5.6-2.8,7.7c5.6-5,11.5-2.8,11.5-2.8
			c-3.8-0.1-6,1.3-6.7,2c1.9-0.7,5.2,0.3,6.9,1.5c3.1,2.3,4.4,6.5,5.4,9.1c1,2.3,3.6,5.4,8.2,4.9c-5,1.5-9.6-0.7-11.8-5.3
			c-2-4.3-3.8-5.7-6.6-6.2c-2.7-0.5-5.9,1-7.4,3.2c0.3-1.8,2.9-5.3,7.5-5.2c-5-1-8.2,3-9,5.4c-1.3,4.6,1.1,8.9,6,9.6
			c-1.1-0.4-2.8-1.3-3.3-2.5c0.8,0.8,2.6,1.6,4.5,1.2c1.9-0.3,3.7-1.8,3.7-4.5c0-2.8-3.3-5.2-6.2-3.4c0.7-1.4,3.4-2.3,5.5-1.6
			C203.5,524.8,205.7,527,205.5,530.7"/>
	</g>
</g>
<g id="레이어_1">
</g>
</svg>
