<?xml version="1.0" encoding="utf-8"?>
<!-- Generator: Adobe Illustrator 25.1.0, SVG Export Plug-In . SVG Version: 6.00 Build 0)  -->
<svg version="1.1" xmlns="http://www.w3.org/2000/svg" xmlns:xlink="http://www.w3.org/1999/xlink" x="0px" y="0px"
	 viewBox="0 0 250 250" style="enable-background:new 0 0 250 250;" xml:space="preserve">
<style type="text/css">
	.st0{fill:none;}
	.st1{fill:#114540;fill-opacity:0;}
	.st2{fill:#FFE900;}
	.st3{fill:#FFFFFF;}
	.st4{fill:#9F2943;}
	.st5{fill:#007D6F;}
	.st6{fill:#002F6D;}
</style>
<g id="Layer_1">
	<rect x="8" y="8" class="st0" width="234" height="234"/>
	<g>
		<path class="st1" d="M46.6,4.8h156.8v240.4H46.6V4.8z"/>
		<path class="st2" d="M197,113.7c-20.9-12.7-45.7-20.4-58.7-23.9l-3.7-1c14-5.3,21.4-29.1,8.6-40.5c2.2-3.2,2.3-7,1.7-10.4
			c4.1-6.6,0.1-11.2-5.2-12c-2.8-5.4-20.2-6.2-14.9-0.9c-11.6,5.9-18.5,14.5-19.5,16.3C98.3,28.1,79.3,16,60.2,8.1
			c-0.8,8.2,1,14.6,11.2,25.2c0.7,10.1,7.3,5.6,15.4,15.7c11.6,19.5,8.4,32.9,27.5,40.2l-4,1.1c-15.4,4.2-37.7,11.7-56.9,23.4
			l-4.1,2.5v56.3c0,23.3,13.2,42.7,38.2,56.2c17.9,9.7,35.5,12.8,36.2,13l1.5,0.3l1.5-0.3c0.7-0.1,18.3-3.3,36.2-13
			c25-13.5,38.2-32.9,38.2-56.2v-56.3L197,113.7z"/>
		<path class="st3" d="M62.6,123.7v48.8c0,41.3,55.1,54.3,62.6,55.9c7.5-1.6,62.6-14.5,62.6-55.9v-48.8
			c-25.2-14.7-56.7-22.1-62.6-23.4C119.3,101.6,87.8,109,62.6,123.7"/>
		<path class="st4" d="M129.1,104.8h-7.8l-2.8,52.3l-52.3,2.8v7.8l52.3,2.8l13.4-13.4L129.1,104.8z"/>
		<path class="st5" d="M131.9,157.1l-13.4,13.4l2.8,52.3h7.8l2.8-52.3l52.3-2.8v-7.8L131.9,157.1z"/>
		<path class="st6" d="M86.8,131.1h13.4c2.5,0,4.8,0,4.8,7c0,7-2.3,7-4.8,7H86.8V131.1z M81.1,150.7h19.1c2.6,0,10.5,0,10.5-12.7
			c0-12.7-7.9-12.7-10.5-12.7H81.1V150.7z"/>
		<path class="st6" d="M139.6,189.5c0,12.7,7.9,12.7,10.5,12.7h19.1v-5.7h-19.1c-2.5,0-4.8,0-4.8-7c0-7,2.3-7,4.8-7h17.2l1.9-5.7
			h-19.1C147.5,176.8,139.6,176.8,139.6,189.5"/>
		<path class="st6" d="M169.2,125.4h-5.7v8.4H147l1.9,5.7h14.7v11.3h5.7V125.4z"/>
		<path class="st6" d="M145.3,125.4h-5.7v25.4h5.7V125.4z"/>
		<path class="st6" d="M90.3,192.5h17.2v-5.7H88.4L90.3,192.5z"/>
		<path class="st6" d="M86.8,182.5h22v-5.7H81.1v25.4h5.7V182.5z"/>
		<path class="st6" d="M187.7,172.5c0,41.3-55.1,54.3-62.6,55.9c-7.5-1.6-62.6-14.5-62.6-55.9v-48.8c25.2-14.7,56.7-22.1,62.6-23.4
			c5.9,1.3,37.4,8.8,62.6,23.4V172.5z M129.5,39.6c1.1-0.9,3.8-0.5,6.4,1.2c-0.3-0.1-0.6-0.1-0.8-0.1c-1.9,0-3.4,1.5-3.4,3.4
			c0,0.8,0.3,1.5,0.7,2C127,43.6,127.7,40.9,129.5,39.6 M195,116.9c-24.5-14.9-54.6-22.9-65.1-25.4v-5.4c1-0.3,13.5-3.1,16-17.8
			c1.9-11.2-5.1-18.5-10.6-20.9c1.7-0.2,3.1-1.6,3.1-3.4c0-0.5-0.1-0.9-0.3-1.4c0.8,0.9,1.5,1.9,2,3.1c0,0,2.7-3.2,0.3-9.5
			c0,0,1.4-0.3,2-1.7c0.5-1.2,1.1-3.9-2.3-4.9c-1.2-0.4-2.4,0.6-3.8-1.9c-0.4-0.8-1.1-1.6-2.1-1.9c-3.1-0.9-3.2,1.2-2.3,3.4
			c0.2,0.5,0.2,1,0.2,1.5c0,0-3.6-0.5-6.8,1.3c-0.4-0.8-0.7-1.9-0.3-3c0,0-4.3,1.2-3.6,7.4c-3.1,6.7,2.9,12,2.9,12
			s-8.5-0.4-9.3-13.5c0,0-9.1,4.7-4.7,19.8c1.1,3.8,5.2,6.4,5.2,6.4s-2.3,1.1-4.7-1c0,0,0,6.5,9.2,7.8c0,0-2.3,4,4.7,3.5
			c0,0-4.4,2.9-9.9-0.1c-5.5-3-6.9-7.8-9.1-18.5C103.3,40.7,93.1,27,64,14c0,0,0.2,6.2,8,14.6c5.3,5.7,11,5,17.5,12.4
			c0,0-7.3-5.7-12.6-3.8c0,0,16.4,6.1,20,24c3.5,17.8,14.2,23.5,23.5,25.6v4.8c-10.5,2.5-40.6,10.5-65.1,25.4l-2.3,1.4v54.2
			c0,21.8,12.5,40.1,36.2,52.8c17.3,9.3,34.4,12.5,35.1,12.6l0.8,0.1l0.8-0.1c0.7-0.1,17.8-3.2,35.1-12.6
			c23.7-12.8,36.2-31,36.2-52.8v-54.2L195,116.9z"/>
		<path class="st2" d="M131.7,59.5c0,0-9.8-0.6-13.1-9.8c0,0,9.4,5,18.1,2.6c0,0,8.3,5,5.3,17.9c0,0-1.3-4.4-3.7-6.1
			c0,0-6.5,1.8-12.5-2.1C125.8,62,129.8,61.2,131.7,59.5"/>
		<path class="st2" d="M71.2,20.8c0,0,12.1,5.2,21.6,15.5c5,5.4,9.1,12.4,11,21l-6.6-7.7c0,0-1.1-14.2-19.9-21
			C77.3,28.6,73.2,24.8,71.2,20.8"/>
		<path class="st2" d="M132.6,32.9c6.4,1.2,7,6.2,7,6.2c-3-4.2-3.6-1.5-3.6-1.5s-1-0.6-1.9-1.6C132.8,34.4,132.6,32.9,132.6,32.9"/>
	</g>
</g>
<g id="레이어_1">
</g>
</svg>
