<?xml version="1.0" encoding="utf-8"?>
<!-- Generator: Adobe Illustrator 25.1.0, SVG Export Plug-In . SVG Version: 6.00 Build 0)  -->
<svg version="1.1" xmlns="http://www.w3.org/2000/svg" xmlns:xlink="http://www.w3.org/1999/xlink" x="0px" y="0px"
	 viewBox="0 0 250 250" style="enable-background:new 0 0 250 250;" xml:space="preserve">
<style type="text/css">
	.st0{fill:none;}
	.st1{fill:#FABF00;}
	.st2{fill:#DC5310;}
	.st3{fill:#00615A;}
	.st4{fill:#002928;}
	.st5{fill:#EFEFF0;}
</style>
<g id="Layer_1">
	<rect x="8" y="8" class="st0" width="234" height="234"/>
	<g>
		<path class="st1" d="M223.5,63.4l-7.6,0.5l-0.7,0c-12.5,0.6-24-7.2-27.8-18.9c-0.7-2.1-1-4.1-0.9-6.1c0-1,0.2-2.1,0.4-3.1l1-4.3
			l-4.1-3.2C174,20.7,153.6,8.1,126.1,8c-27.6,0.1-48,12.7-57.7,20.3c0,0-4.2,3.3-4.2,3.3l1,4.3c0.2,1,0.4,2.1,0.4,3.1
			c0,2-0.3,4.1-0.9,6.1C60.8,56.8,49.4,64.5,36.8,64l-8.2-0.5V73c0,9.3,1,41.9,13.3,73.7c14.5,37.1,39.1,67,73.3,88.9
			c2.4,1.5,4.8,3,7.2,4.4l3.6,2.1l3.6-2.1c2.4-1.4,4.8-2.9,7.2-4.4c34.2-21.9,58.9-51.8,73.3-88.9c12.4-31.8,13.4-64.4,13.4-73.7
			L223.5,63.4L223.5,63.4z"/>
		<path class="st2" d="M126.1,15.1c-25.1,0-43.8,11.3-53.3,18.8c21,38.7,44.8,134.4,46.4,195.7c2.3,1.5,4.6,2.9,7,4.3
			c2.4-1.4,4.7-2.8,7-4.3c1.5-61.4,25.3-157,46.4-195.7C169.9,26.4,151.2,15.1,126.1,15.1z"/>
		<path class="st3" d="M216.4,71c-0.3,0-0.6,0-0.9,0c-15.7,0.7-30.1-9.3-34.8-23.8c-0.9-2.9-1.4-5.7-1.3-8.5c0-1.5,0.2-3,0.5-4.5
			c-0.2-0.2-0.4-0.3-0.6-0.5c-21,38.7-44.8,134.4-46.4,195.7c32.9-21,56.6-49.8,70.6-85.5c11.5-29.5,12.9-60.4,12.9-71.1
			c0-0.3,0-0.7,0-1C216.4,71.6,216.4,71.3,216.4,71L216.4,71z M72.1,34.3c0.3,1.5,0.5,3,0.5,4.5c0.1,2.8-0.4,5.6-1.3,8.5
			C66.6,61.8,52.3,71.7,36.5,71c-0.3,0-0.6,0-0.9,0c0,0.3,0,0.6,0,1c0,0.3,0,0.7,0,1c0,10.7,1.4,41.7,12.9,71.1
			c13.9,35.7,37.7,64.4,70.6,85.5c-1.5-61.4-25.3-157-46.4-195.7C72.5,34,72.3,34.1,72.1,34.3z"/>
		<g>
			<path class="st4" d="M115.5,166.8v-4.9h6.8v-7.3l3.8,2.1v13.5l4.8,5h15.2l4.8-5v-29.1l-4.6-4.6h-15.6l-4.6,4.6l-4-4.6H96.6l5.2,7
				v31.7h19L115.5,166.8z"/>
			<path class="st4" d="M166.4,135.6c0,0,2.1-15.4,3.6-26.9v22.6l5.2,6.3l16.4,4.2c0,0,7.2-4.3,7.2-4.3v6.4l33.8,15.3l6.2-80h-44.2
				L196,82c-1.4-1.2-3.1-2.6-3.1-2.6h-17l-2.1,1.8l0.3-1.9h-58.2l-6.2,4.1v-4.3l-32.2-0.1c0,0,2.5,8.1,2.6,8.3v26.7
				c-1.9-12.2-5.4-34.9-5.4-34.9H54.3c0,0,2.9,8.2,3,8.6c0,0.3-3,20.6-4.8,33.8v-12.9l0.2,0c0,0-0.1,0-0.2-0.1V86.3l-5.5-7H19.7
				l-8.6,7.9l8.7,66.2l10.3,4.7l19.7-11.4l31.6-10.1l28.1-4.1v-3.9l6.4,4.5h15.5l6.9-4.8v-25.5l3.3,30.2L166.4,135.6L166.4,135.6z"
				/>
		</g>
		<g>
			<path class="st5" d="M148.1,159.7v7.9l-3.2,3.3h-12.8l-3.2-3.3v-26.8l3-3h13.2l3,3v12.3l-6.2-3.5v-6.3h-6.7v22h6.6v-9
				L148.1,159.7z M120.8,137.9h-18.7l2.4,3.3v29.6h9.2l-3-4.7v-8.4h8.6v-5.4h-8.6v-9.1h6.9v4.2l6.3,3.5v-9.3L120.8,137.9z"/>
		</g>
		<g>
			<path class="st5" d="M71.2,81.4H59.6c0,0,1.6,4.4,1.6,4.6c0,0.2-7.6,53.1-7.6,53.1l12.3-3.7c0,0-2.2-3.7-2.3-3.9
				c0-0.2,0.3-5.2,0.4-5.8c0.5-0.1,5.6-1.2,6.2-1.3c0.1,0.7,1.5,9.4,1.5,9.4l9.5-3c0,0-2.7-3.2-2.8-3.4
				C78.4,127.2,71.2,81.4,71.2,81.4L71.2,81.4z M69,117.5c-0.5,0.1-3.7,0.6-4.4,0.7c0.1-0.8,1.7-16.5,2.2-21.6
				C67.3,101.7,68.9,116.9,69,117.5z M98.9,85.3v18.2c-1.2-3.9-6.6-22.2-6.6-22.2h-10c0,0,1.2,4,1.3,4.1v45.2l8.8-1.3
				c0,0-1.9-4-2-4.2v-24l8.7,27.6l6.7-1V81.3h-8.1C97.7,81.3,98.9,85.2,98.9,85.3L98.9,85.3z M160.1,81.4c0,0,1.2,3.8,1.2,3.9
				c0,0.1-1.4,13.5-1.9,18.4c-0.6-5.2-2.5-22.3-2.5-22.3h-4.6l-2.7,21.9c-0.5-4.9-2.2-21.9-2.2-21.9h-9.2c0,0,2.2,3.7,2.3,3.8
				l4.7,42.8l6.3,0.7c0,0,2.3-14.5,2.9-18.1c0.6,3.7,2.8,18.7,2.8,18.7l6.2,0.7l6.6-48.6L160.1,81.4L160.1,81.4z M234.5,81.4h-13
				c0,0,1.9,7,1.9,7.1c0,0.1-1.4,24.4-1.6,28.8c-1-4.5-8-35.9-8-35.9h-13.2c0,0,2.1,4.7,2.2,4.9v53.9l9.5,4.4l-1.2-6.1
				c0,0,0-26.5,0-32.1c1.3,5.7,9.2,41.7,9.2,41.7l9.2,4.2l5.5-70.8L234.5,81.4L234.5,81.4z M177.2,81.6l-3.3,3v43.9l3.6,4.4
				l13.7,3.5l4.4-2.6V85l-4.1-3.4L177.2,81.6L177.2,81.6z M181.7,88.8h5.5v38.8c-0.7-0.1-4.9-0.9-5.4-1L181.7,88.8L181.7,88.8z
				 M120.8,120.7V88.4h5.8v7.8l8,4.4V84.2l-4.1-2.7H117l-4.1,2.7v40.5l4.4,3h13l4.4-3V103l-13.7,0l3.1,6.8h2.6v10.9L120.8,120.7
				L120.8,120.7z M48.8,107.4V86l-3.6-4.6H21.2L15.1,87l8.2,62.3l6.7,3l16.8-9.7l2.1-5.8V110l-18.5,1.7l5.2,8.8l4.1-0.6v16.6
				c-1.6,0.7-6.9,2.9-7.6,3.2c-0.1-1.1-3.2-48.3-3.3-49.1h10.9v10.9L48.8,107.4z"/>
		</g>
		<g>
			<path class="st1" d="M94.5,187.5h-2.8v-1c0-0.6,0-1-0.1-1.2c-0.1-0.2-0.2-0.2-0.4-0.2c-0.2,0-0.3,0.1-0.3,0.2
				c-0.1,0.1-0.1,0.5-0.1,1v5.2c0,0.5,0,0.8,0.1,1c0.1,0.2,0.2,0.2,0.4,0.2c0.2,0,0.3-0.1,0.4-0.3c0.1-0.2,0.1-0.5,0.1-1v-1.3h-0.5
				v-1.6h3.3v5.8h-1.8l-0.3-0.8c-0.2,0.3-0.4,0.6-0.7,0.8c-0.3,0.2-0.6,0.2-1,0.2c-0.5,0-0.9-0.1-1.3-0.3c-0.4-0.2-0.7-0.5-0.9-0.8
				c-0.2-0.3-0.3-0.7-0.4-1.1c-0.1-0.4-0.1-0.9-0.1-1.7v-3.2c0-1,0.1-1.8,0.2-2.2c0.1-0.5,0.4-0.9,1-1.3c0.5-0.4,1.2-0.6,2-0.6
				c0.8,0,1.5,0.2,2,0.5c0.5,0.3,0.9,0.7,1.1,1.2c0.2,0.5,0.2,1.1,0.2,2L94.5,187.5L94.5,187.5z M99.8,185.5
				c0.1,0.1,0.2,0.3,0.2,0.7v0.6c0,0.5-0.1,0.8-0.2,0.8c-0.1,0.1-0.3,0.1-0.7,0.1v-2.4C99.4,185.4,99.6,185.4,99.8,185.5z
				 M96.3,194.3h2.8v-4.8c0.4,0,0.6,0.1,0.7,0.2c0.1,0.1,0.1,0.5,0.1,1.1v3.6h2.6v-2.8c0-0.9,0-1.4-0.1-1.6c0-0.2-0.2-0.4-0.4-0.6
				c-0.2-0.2-0.6-0.4-1.1-0.6c0.6-0.1,1-0.2,1.2-0.5c0.2-0.3,0.3-0.9,0.3-1.7c0-0.9-0.1-1.6-0.4-2c-0.3-0.4-0.7-0.7-1.1-0.8
				c-0.5-0.1-1.4-0.2-2.7-0.2h-2V194.3z M104.3,183.5h4.7v2.2h-1.9v2h1.7v2h-1.7v2.4h2v2.1h-4.8L104.3,183.5L104.3,183.5z
				 M113,190.4c0.1-0.9,0.3-2.5,0.5-4.5c0.1,1.8,0.3,3.3,0.4,4.5H113L113,190.4z M111.4,183.5l-1.4,10.7h2.9l0.2-1.9h1l0.2,1.9h2.8
				l-1.6-10.7H111.4L111.4,183.5z M123.1,183.5v2.2h-1.7v8.6h-2.8v-8.6H117v-2.2L123.1,183.5L123.1,183.5z M133.8,183.5v7.2
				c0,0.8,0,1.4-0.1,1.7c-0.1,0.3-0.2,0.7-0.5,1c-0.3,0.3-0.6,0.6-1,0.8c-0.4,0.2-0.9,0.3-1.5,0.3c-0.6,0-1.2-0.1-1.7-0.3
				c-0.5-0.2-0.9-0.5-1.1-0.8c-0.2-0.3-0.4-0.7-0.4-1.1c0-0.4-0.1-1.2-0.1-2.4v-6.4h2.8v8.1c0,0.5,0,0.8,0.1,0.9
				c0,0.1,0.2,0.2,0.3,0.2c0.2,0,0.3-0.1,0.3-0.2c0.1-0.1,0.1-0.5,0.1-1v-7.9L133.8,183.5L133.8,183.5z M141.8,183.5v10.7h-2.5
				l-1.5-4.9v4.9h-2.3v-10.7h2.3l1.6,4.8v-4.8H141.8L141.8,183.5z M146.4,183.5v10.7h-2.8v-10.7H146.4z M151.8,191.2
				c0,0.6,0,1-0.1,1.2c-0.1,0.2-0.2,0.3-0.4,0.3c-0.2,0-0.3-0.1-0.4-0.2c0-0.1-0.1-0.5-0.1-1.2v-5c0-0.6,0-0.9,0.1-1
				c0.1-0.1,0.2-0.2,0.3-0.2c0.2,0,0.3,0.1,0.3,0.2c0.1,0.1,0.1,0.5,0.1,1L151.8,191.2L151.8,191.2z M154.6,188c0-1.1,0-1.9-0.1-2.3
				c-0.1-0.4-0.2-0.9-0.5-1.2c-0.3-0.4-0.6-0.7-1.1-0.8c-0.5-0.2-1-0.3-1.5-0.3c-0.6,0-1.1,0.1-1.6,0.3s-0.8,0.5-1.1,0.9
				c-0.3,0.4-0.4,0.8-0.5,1.2c0,0.4-0.1,1.2-0.1,2.3v1.8c0,1.1,0,1.9,0.1,2.3c0,0.4,0.2,0.9,0.5,1.2c0.3,0.4,0.7,0.7,1.1,0.8
				c0.5,0.2,1,0.3,1.5,0.3c0.6,0,1.1-0.1,1.6-0.3c0.5-0.2,0.8-0.5,1.1-0.9c0.3-0.4,0.4-0.8,0.5-1.2c0.1-0.4,0.1-1.2,0.1-2.3
				L154.6,188L154.6,188z M162.5,183.5v10.7h-2.5l-1.5-4.9v4.9h-2.3v-10.7h2.3l1.6,4.8v-4.8H162.5z M116.2,208.4v1.8h-5.9v-1.5
				c1.7-2.9,2.8-4.6,3.1-5.3c0.3-0.7,0.5-1.2,0.5-1.6c0-0.3-0.1-0.5-0.1-0.7c-0.1-0.1-0.3-0.2-0.5-0.2c-0.2,0-0.4,0.1-0.5,0.2
				c-0.1,0.2-0.1,0.5-0.1,0.9v1h-2.4v-0.4c0-0.6,0-1.1,0.1-1.4c0.1-0.3,0.2-0.7,0.5-1c0.2-0.3,0.6-0.6,0.9-0.8
				c0.4-0.2,0.9-0.3,1.4-0.3c1.1,0,1.9,0.3,2.4,0.8c0.5,0.5,0.8,1.2,0.8,2c0,0.6-0.2,1.3-0.5,2c-0.3,0.7-1.2,2.1-2.7,4.4
				L116.2,208.4L116.2,208.4z M121.6,207.5c0,0.5,0,0.9-0.1,1c-0.1,0.1-0.2,0.2-0.4,0.2c-0.2,0-0.3-0.1-0.4-0.2
				c-0.1-0.1-0.1-0.5-0.1-1.1v-5.2c0-0.6,0-0.9,0.1-1.1c0.1-0.2,0.2-0.2,0.4-0.2c0.2,0,0.3,0.1,0.4,0.2c0.1,0.1,0.1,0.5,0.1,1.1
				L121.6,207.5L121.6,207.5z M124.2,201.3c-0.1-0.4-0.2-0.7-0.5-1c-0.2-0.3-0.6-0.5-1-0.8c-0.5-0.2-1-0.3-1.6-0.3
				c-0.7,0-1.3,0.1-1.8,0.4c-0.5,0.3-0.8,0.7-1,1.2c-0.2,0.5-0.3,1.2-0.3,2.2v3.8c0,0.8,0.1,1.3,0.2,1.7c0.1,0.3,0.3,0.7,0.5,1
				c0.2,0.3,0.6,0.5,1,0.7c0.4,0.2,1,0.2,1.6,0.2c0.5,0,0.9-0.1,1.3-0.2c0.4-0.1,0.7-0.4,1-0.7c0.3-0.3,0.5-0.7,0.5-1
				c0.1-0.4,0.1-1,0.1-1.8v-3.6C124.3,202.3,124.3,201.7,124.2,201.3z M129.6,207.5c0,0.5,0,0.9-0.1,1c-0.1,0.1-0.2,0.2-0.4,0.2
				s-0.3-0.1-0.4-0.2c-0.1-0.1-0.1-0.5-0.1-1.1v-5.2c0-0.6,0-0.9,0.1-1.1c0.1-0.2,0.2-0.2,0.4-0.2c0.2,0,0.3,0.1,0.4,0.2
				c0,0.1,0.1,0.5,0.1,1.1L129.6,207.5L129.6,207.5z M132.1,201.3c-0.1-0.4-0.2-0.7-0.5-1c-0.2-0.3-0.6-0.5-1-0.8
				c-0.5-0.2-1-0.3-1.6-0.3c-0.7,0-1.3,0.1-1.8,0.4c-0.5,0.3-0.8,0.7-1,1.2c-0.2,0.5-0.3,1.2-0.3,2.2v3.8c0,0.8,0.1,1.3,0.2,1.7
				c0.1,0.3,0.3,0.7,0.5,1c0.3,0.3,0.6,0.5,1,0.7c0.4,0.2,1,0.2,1.6,0.2c0.5,0,0.9-0.1,1.3-0.2c0.4-0.1,0.7-0.4,1-0.7
				c0.3-0.3,0.5-0.7,0.5-1c0.1-0.4,0.1-1,0.1-1.8v-3.6C132.3,202.3,132.2,201.7,132.1,201.3L132.1,201.3z M139,204.1
				c0.4,0.2,0.7,0.4,0.9,0.7c0.2,0.3,0.3,1.1,0.3,2.3c0,0.9-0.1,1.5-0.3,1.9c-0.2,0.4-0.5,0.7-1,1c-0.5,0.3-1.1,0.4-2,0.4
				c-0.8,0-1.4-0.1-1.9-0.4c-0.5-0.3-0.8-0.6-1-1c-0.2-0.4-0.3-1.1-0.3-2.1c0-0.6,0.1-1.2,0.1-1.7c0.1-0.5,0.4-0.9,0.9-1.1
				c-0.3-0.2-0.6-0.4-0.7-0.8c-0.2-0.3-0.2-0.8-0.2-1.3c0-0.9,0.3-1.6,0.8-2.1c0.5-0.5,1.3-0.7,2.3-0.7c1.2,0,2,0.2,2.4,0.7
				c0.4,0.5,0.7,1.2,0.7,2.1c0,0.6-0.1,1-0.2,1.3C139.8,203.6,139.5,203.9,139,204.1L139,204.1z M137.5,201.8c0-0.4,0-0.6-0.1-0.7
				c-0.1-0.1-0.2-0.2-0.4-0.2c-0.2,0-0.3,0.1-0.4,0.2c-0.1,0.1-0.1,0.4-0.1,0.7v0.8c0,0.3,0,0.5,0.1,0.7c0.1,0.1,0.2,0.2,0.4,0.2
				c0.2,0,0.3-0.1,0.4-0.2c0.1-0.1,0.1-0.4,0.1-0.8L137.5,201.8L137.5,201.8z M137.5,206.3c0-0.4,0-0.7-0.1-0.8
				c-0.1-0.1-0.2-0.2-0.4-0.2c-0.2,0-0.3,0.1-0.4,0.2c-0.1,0.1-0.1,0.4-0.1,0.8v1.4c0,0.5,0,0.8,0.1,0.9c0.1,0.1,0.2,0.2,0.4,0.2
				c0.2,0,0.3-0.1,0.4-0.2c0.1-0.1,0.1-0.4,0.1-0.9L137.5,206.3L137.5,206.3z"/>
		</g>
		<path class="st1" d="M148.4,25.9l-2.5-3.4l-6.6,0l-6.3-0.9h-4l-3.1,0.4l-2.7,0.5l-4.8,3.4l-0.1-1.3l2-2.2l-4.3,0l-2.5,3.4l1.9,3.7
			l-1.8,6.1l2.1,8.8l5.7,4.6l2,2.6l3.5-8.9l2.4,9.5h4.1l-1.1,3h-3.1l-5-2.2l2.7,3.2l2.7,0.8h2.7l2.7-0.8l5.5-7.3l5.9-4.6l2-8.8
			l-1.8-6.1C146.5,29.6,148.4,25.9,148.4,25.9z M123.5,39.9l-0.3-1.2l2.9,0.6l0.3,2.5C126.4,41.8,123.5,39.9,123.5,39.9z M138,39.9
			l-2.9,1.9l0.3-2.5l2.9-0.6L138,39.9z"/>
		<path class="st1" d="M92.3,64.4l10.6,4.7l-2.9,4.1l46.7,0l-4.7-2.7l1.8-2l6.2,4.7h3.6l-5.3-3.6l2.4-1.3l4.9,4.9h3l-4.5-7.6L142,59
			l-21,2.7l-10.9-6.4l0.3-0.6l10.5,3.9l0.4-0.4l-10.2-10.1l-3.7-8.6l4.6-7.3l-14.3-1.9l-14.5,5.3C85.9,42.6,90,56.7,92.3,64.4
			L92.3,64.4z"/>
	</g>
</g>
<g id="레이어_1">
</g>
</svg>
