<?xml version="1.0" encoding="utf-8"?>
<!-- Generator: Adobe Illustrator 25.1.0, SVG Export Plug-In . SVG Version: 6.00 Build 0)  -->
<svg version="1.1" xmlns="http://www.w3.org/2000/svg" xmlns:xlink="http://www.w3.org/1999/xlink" x="0px" y="0px"
	 viewBox="0 0 250 250" style="enable-background:new 0 0 250 250;" xml:space="preserve">
<style type="text/css">
	.st0{fill:none;}
	.st1{fill:#213D40;}
	.st2{fill:#C6AB60;}
	.st3{fill:#CCAF61;}
	.st4{fill:#2E533E;}
	.st5{fill:#FFFFFF;}
</style>
<g id="Layer_1">
</g>
<g id="레이어_1">
	<rect x="8" y="8" class="st0" width="234" height="234"/>
</g>
<g id="_레이어_1">
</g>
<g id="svg2">
	<g id="g12">
		<g id="g18" transform="translate(113.38 58.06)">
			<path id="path20" class="st1" d="M123.1,66.9c0,61.5-49.9,111.5-111.5,111.5S-99.8,128.5-99.8,66.9S-49.9-44.5,11.6-44.5
				S123.1,5.4,123.1,66.9"/>
		</g>
		<g id="g22" transform="translate(58.06 116.12)">
			<path id="path24" class="st2" d="M66.9-108.1c-64.5,0-117,52.5-117,117s52.5,117,117,117s117-52.5,117-117
				S131.5-108.1,66.9-108.1 M66.9-102.6c61.5,0,111.5,49.9,111.5,111.5S128.5,120.3,66.9,120.3S-44.5,70.4-44.5,8.9
				S5.4-102.6,66.9-102.6"/>
		</g>
		<g id="g26" transform="translate(38.618 68.138)">
			<path id="path28" class="st3" d="M47.2,36.6C40.8,32,34,31.8,29,32.7c3.3-7.8,8.1-14.8,14.2-20.6c0.3-4.6,1.1-9.2,2.6-13.7
				c0.4-1.3,0.9-2.6,1.4-3.8C30,5.3,17.6,23.1,13.9,43.8l0,0h0v0c4.8-3.7,10.3-6.4,16.4-7.7C36,34.8,41.8,35,47.2,36.6"/>
		</g>
		<g id="g30" transform="translate(69.873 23.751)">
			<path id="path32" class="st3" d="M79,170.4l1.1,0.2l-0.4-0.5c0.1,0,0.1,0,0.2-0.1c-5.7-2.3-10.8-5.8-15-10.4
				c-3.8-4.2-6.4-9-7.8-14.1c-0.6,7.4,2.3,13.1,5.3,17c-2.5,0.3-5,0.5-7.6,0.5c-6,0-11.8-0.9-17.2-2.5c-4.1,2.1-8.5,3.6-13.1,4.6
				c-1.4,0.3-2.7,0.5-4.1,0.7c10.3,5.5,22,8.6,34.4,8.6C63.3,174.4,71.4,173,79,170.4"/>
		</g>
		<g id="g34" transform="translate(76.664 70.342)">
			<path id="path36" class="st3" d="M85.8,29.9l-0.3,1c6.9-3.2,10.4-8.7,12.3-13.3c4.8,6.5,8.4,13.9,10.4,22
				c3.8,2.6,7.4,5.6,10.6,9.1c0.9,1,1.8,2.1,2.7,3.2c-0.7-21-10.3-39.8-25.2-52.8L96-1.6l-0.1,0.4c-0.1-0.1-0.3-0.2-0.4-0.4
				c0.8,6,0.3,12.1-1.6,18C92.2,21.6,89.4,26.2,85.8,29.9"/>
		</g>
		<g id="g38" transform="translate(58.049 64.665)">
			<path id="path40" class="st3" d="M66.9,47C55.6,58.4,57,63.7,57,63.7c0,5.5,4.5,10,10,10c5.5,0,10-4.5,10-10v-0.3
				C77.1,62.1,76.8,56.9,66.9,47"/>
		</g>
		<g id="g42" transform="translate(27.266 32.918)">
			<path id="path44" class="st3" d="M35.7,142.7c6.4,4.2,13.8,6.3,21.3,6.3c2.8,0,5.7-0.3,8.5-0.9c16-3.5,28.3-14.5,34.2-28.5
				c3-0.2,5.9-0.9,8.5-2c-3.3,9.1-1.6,19.8,5.3,27.4c6.4,7,15.3,10.7,24.1,10.7c6.7,0,13.5-2.1,19.2-6.3
				c-15,15.5-35.9,25.1-59.1,25.1c-29,0-54.5-15-69.2-37.7C30.7,139,33,141.1,35.7,142.7 M31.1,98.7c3.3-5.1,8.4-8.6,14.3-9.9
				c9.3-2,18.5,3.9,20.5,13.2c0.7,3.3,0.1,6.8-1.7,9.6c-1.9,2.9-4.7,4.8-8,5.6c-2.4,0.5-4.9,0.1-7-1.3c-2.1-1.3-3.5-3.4-4.1-5.9
				c-0.6-2.7-3.2-4.3-5.8-3.7c-2.7,0.6-4.3,3.2-3.7,5.8c1.1,5,4,9.2,8.3,12s9.4,3.7,14.4,2.6c5.9-1.3,10.9-4.8,14.2-9.9
				c1.6-2.6,2.7-5.3,3.2-8.2c3.4,4.5,8.2,8,13.7,9.7c-5,9.9-14.4,17.6-26.1,20.2c-7.8,1.7-15.7,0.2-22.4-4
				c-6.7-4.3-11.3-10.9-12.9-18.7C26.7,109.9,27.8,103.8,31.1,98.7 M22.9,93.4c-3.6,5.6-5.3,12.1-5.2,18.6c-1.6-6.4-2.5-13-2.5-19.9
				c0-43.8,34.3-79.7,77.5-82.3C80,13,69.1,22.5,64.8,36c-5,15.7-1.5,32.2,8,44.3c-1.2,2.7-2.1,5.5-2.4,8.5
				c-6.2-7.9-16.6-12-26.9-9.7C34.9,81,27.6,86,22.9,93.4 M111.5,19.8c5.8,1.9,10.5,5.9,13.3,11.2c2.8,5.4,3.3,11.6,1.5,17.4
				c-2.9,9.1-12.6,14.1-21.7,11.2c-3.2-1.1-5.9-3.3-7.5-6.4c-1.6-3.1-1.9-6.5-0.8-9.8c0.8-2.4,2.4-4.3,4.6-5.4
				c2.2-1.1,4.7-1.3,7.1-0.6c2.6,0.8,5.3-0.6,6.2-3.2c0.8-2.6-0.6-5.3-3.2-6.2c-4.8-1.6-10-1.1-14.5,1.2s-7.9,6.3-9.4,11.2
				c-2.9,9,0.2,18.5,7,24.2c-5.9,0.8-11.1,3.4-15.2,7.3c-6.3-9.4-8.4-21.4-4.7-33C79.1,23.4,95.9,14.8,111.5,19.8 M180.2,92.1
				c0,14.3-3.7,27.8-10.2,39.6c1.3-3.7,2.1-7.6,2.3-11.7c0.5-10.5-3.1-20.6-10.2-28.4c-11-12.2-26.7-17.3-41.8-15.4
				c-1.7-2.5-3.8-4.6-6.3-6.4c9.7-1.6,18.3-8.4,21.5-18.4c2.7-8.3,1.9-17.1-2.1-24.8c-3.2-6.2-8.1-11-14.1-14.1
				C154.4,22.1,180.2,54.1,180.2,92.1 M97.7,113.3c-11.7,0-21.2-9.5-21.2-21.2S86,70.9,97.7,70.9s21.2,9.5,21.2,21.2
				S109.4,113.3,97.7,113.3 M152.9,140.1c-9.3,8.5-23.7,7.8-32.2-1.6c-6.4-7-5.9-18,1.2-24.4c5.2-4.8,13.4-4.3,18.1,0.9
				c3.4,3.8,3.2,9.6-0.6,13.1c-2,1.8-2.1,4.9-0.3,6.9s4.9,2.1,6.9,0.3c3.7-3.4,6-8.1,6.2-13.2c0.2-5.1-1.5-10-4.9-13.7
				c-6.2-6.8-15.6-9-23.9-6.2c1.2-3.2,2-6.5,2-10.2c0-2.2-0.3-4.4-0.8-6.4c11.1-0.5,22.3,3.7,30.4,12.5c5.3,5.9,8,13.5,7.7,21.4
				S158.8,134.7,152.9,140.1 M97.7,178.6c47.7,0,86.5-38.8,86.5-86.5S145.4,5.6,97.7,5.6S11.2,44.4,11.2,92.1S50,178.6,97.7,178.6"
				/>
		</g>
		<g id="g46" transform="translate(79.99 58.06)">
			<path id="path48" class="st4" d="M89.2,66.9c0,24.4-19.8,44.2-44.2,44.2S0.9,91.3,0.9,66.9S20.7,22.8,45,22.8
				S89.2,42.5,89.2,66.9"/>
		</g>
		<g id="g50" transform="translate(58.06 78.896)">
			<path id="path52" class="st3" d="M66.9,4.1c-23.1,0-42,18.8-42,42s18.8,42,42,42s42-18.8,42-42S90.1,4.1,66.9,4.1 M66.9,92.5
				c-25.6,0-46.4-20.8-46.4-46.4S41.3-0.3,66.9-0.3s46.4,20.8,46.4,46.4S92.5,92.5,66.9,92.5"/>
		</g>
		<g id="g54" transform="translate(10.778 69.967)">
			<path id="path56" class="st5" d="M18.9,31.1L18.9,31.1c0.6,0.1,1.1,0.2,1.4,0.3c0.4,0.1,0.6,0.2,0.8,0.2c0.6,0.2,1,0.6,1.3,1.1
				c0.1,0.3,0.2,0.6,0.2,1s0,0.8-0.1,1.3L21.9,38c-0.1,0.6-0.3,1.1-0.4,1.5c-0.2,0.4-0.4,0.7-0.6,1c-0.2,0.2-0.5,0.4-0.8,0.5
				c-0.3,0.1-0.6,0.2-1,0.2c-0.2,0-0.6,0-1-0.1c-0.5,0-1-0.2-1.7-0.3c-1.6-0.3-2.6-0.8-3-1.5C13,38.6,13,37.5,13.3,36l0.5-2.8
				c0.2-1,0.5-1.7,1.1-2.2c0.5-0.4,1.2-0.5,2-0.4h0c0.1,0,0.1,0,0.1,0.1l-0.2,0.9c0,0.1,0,0.1-0.1,0.1c-0.3,0-0.5,0-0.7,0
				c-0.2,0-0.4,0.2-0.5,0.4c-0.1,0.1-0.2,0.3-0.3,0.5c-0.1,0.2-0.2,0.5-0.2,0.8l-0.6,2.9c-0.1,0.5-0.1,0.9-0.1,1.3s0,0.6,0.1,0.8
				c0.1,0.4,0.5,0.7,1.1,0.9c0.3,0.1,1,0.3,2.1,0.5c1.2,0.2,2,0.2,2.4,0c0.4-0.2,0.7-0.9,1-2.1l0.6-3.2c0.1-0.8,0.1-1.4-0.1-1.6
				c-0.1-0.1-0.3-0.3-0.5-0.4c-0.2-0.1-0.6-0.2-1-0.3L19,36.3c0,0.1-0.1,0.1-0.2,0.1L18,36.2c-0.1,0-0.1-0.1-0.1-0.2L18.9,31.1
				L18.9,31.1L18.9,31.1L18.9,31.1z"/>
		</g>
		<g id="g58" transform="translate(9.659 69.793)">
			<path id="path60" class="st5" d="M17.8,31.5C17.8,31.5,17.8,31.6,17.8,31.5z M14.8,39.4c0.4,0.6,1.3,1,2.8,1.3
				c0.7,0.1,1.2,0.2,1.6,0.3c0.4,0,0.8,0.1,1,0.1c0.3,0,0.6,0,0.9-0.1c0.3-0.1,0.5-0.3,0.7-0.5c0.2-0.2,0.4-0.5,0.5-0.9
				c0.1-0.4,0.3-0.9,0.4-1.5l0.6-3.1c0.1-0.5,0.1-0.9,0.1-1.2c0-0.3,0-0.6-0.1-0.8c-0.2-0.4-0.5-0.7-1.1-0.9
				c-0.2-0.1-0.5-0.1-0.8-0.2c-0.3-0.1-0.7-0.2-1.1-0.3l-0.9,4.5l0.5,0.1l0.7-3.7l0.4-0.3c0.5,0.1,0.8,0.2,1.1,0.3
				c0.3,0.1,0.5,0.3,0.6,0.5c0.3,0.4,0.4,1,0.2,1.9L22.3,38c-0.2,1.2-0.6,2-1.1,2.3c-0.5,0.3-1.3,0.3-2.6,0
				c-1.1-0.2-1.9-0.4-2.2-0.5c-0.6-0.2-1.1-0.6-1.2-1.1c-0.1-0.3-0.1-0.6-0.1-1c0-0.4,0-0.8,0.1-1.3l0.6-2.9c0-0.3,0.1-0.6,0.2-0.9
				c0.1-0.2,0.2-0.5,0.3-0.6c0.2-0.3,0.5-0.4,0.7-0.5c0.2,0,0.4,0,0.6,0l0.1-0.5c-0.6-0.1-1.1,0-1.6,0.4c-0.5,0.4-0.8,1.1-1,2
				l-0.5,2.8C14.4,37.8,14.4,38.8,14.8,39.4L14.8,39.4z M20.2,41.7c-0.3,0-0.6,0-1.1-0.1c-0.5,0-1-0.2-1.7-0.3
				c-1.6-0.3-2.7-0.8-3.2-1.6c-0.5-0.7-0.6-1.9-0.3-3.6l0.5-2.8c0.2-1.1,0.6-1.9,1.2-2.4c0.6-0.5,1.4-0.6,2.3-0.5
				c0.3,0,0.5,0.3,0.4,0.5l-0.2,0.9c0,0.2-0.1,0.3-0.2,0.3c0,0-0.2,0.1-0.4,0c-0.2,0-0.4,0-0.5,0s-0.2,0.1-0.4,0.2
				c-0.1,0.1-0.2,0.3-0.2,0.5c-0.1,0.2-0.1,0.5-0.2,0.7l-0.6,2.9c-0.1,0.5-0.1,0.9-0.1,1.2c0,0.3,0,0.5,0.1,0.7
				c0.1,0.3,0.4,0.5,0.8,0.7c0.2,0.1,0.7,0.2,2.1,0.5c1.5,0.3,2,0.2,2.1,0.1c0.2-0.1,0.5-0.5,0.8-1.8l0.6-3.2c0.2-0.9,0-1.3,0-1.4
				c0,0-0.1-0.1-0.4-0.3c-0.1-0.1-0.4-0.1-0.6-0.2l-0.7,3.6c0,0.2-0.1,0.3-0.2,0.3c0,0-0.2,0.1-0.4,0L19,36.7
				c-0.2,0-0.3-0.1-0.3-0.2c0,0-0.1-0.2,0-0.4l1-4.9l0.1-0.2l0.1-0.1l0.3,0c0.5,0.1,1,0.2,1.4,0.3c0.4,0.1,0.7,0.2,0.9,0.3
				c0.7,0.3,1.2,0.7,1.4,1.3c0.1,0.3,0.2,0.7,0.2,1.1c0,0.4,0,0.9-0.1,1.4l-0.6,3.1c-0.1,0.6-0.3,1.1-0.5,1.6s-0.4,0.8-0.6,1.1
				c-0.3,0.3-0.5,0.5-0.9,0.6C21,41.6,20.7,41.7,20.2,41.7"/>
		</g>
		<g id="g62" transform="translate(13.988 73.199)">
			<path id="path64" class="st5" d="M22.2,21.3c0,0-0.1,0.1-0.1,0L14,18.5c-0.1,0-0.1-0.1-0.1-0.1l0.2-0.6c0,0,0.1-0.1,0.2,0
				l8.1,2.8c0.1,0,0.1,0.1,0.1,0.1L22.2,21.3z"/>
		</g>
		<g id="g66" transform="translate(14.002 73.428)">
			<path id="path68" class="st5" d="M14.3,18.1l7.7,2.7l0.1-0.2l-7.7-2.7L14.3,18.1z M22.1,21.5c0,0-0.1,0-0.2,0l-8.1-2.8
				c-0.2,0-0.2-0.2-0.3-0.2v-0.3l0.2-0.6c0-0.1,0.1-0.2,0.3-0.3c0.1,0,0.2,0,0.3,0l8.1,2.8c0.2,0,0.2,0.1,0.3,0.2v0.3l-0.2,0.6
				C22.5,21.3,22.3,21.5,22.1,21.5"/>
		</g>
		<g id="g70" transform="translate(18.135 82.23)">
			<path id="path72" class="st5" d="M26.4-5.9c0,0.1-0.1,0.1-0.2,0l-6.9-3.6l-0.1,0.2l4.8,7.7v0.1l-0.3,0.5c0,0,0,0,0,0l-9.1,0.3
				l-0.1,0.2l6.9,3.6c0.1,0,0.1,0.1,0,0.2l-0.4,0.8c0,0.1-0.1,0.1-0.2,0l-7.5-4c-0.1,0-0.1-0.1,0-0.2l1-1.8c0,0,0,0,0,0L22.6-2
				l-4.4-7.1v-0.1l0.9-1.7c0,0,0.1,0,0.2,0l7.5,4c0.1,0,0.1,0.1,0,0.1L26.4-5.9L26.4-5.9z"/>
		</g>
		<g id="g74" transform="translate(18.129 82.351)">
			<path id="path76" class="st5" d="M13.7-0.1l7.2,3.8l0.2-0.4l-6.7-3.5l-0.1-0.5l0.1-0.2l0.3-0.2l8.9-0.3l0.2-0.3L19-9.2v-0.3
				l0.1-0.2l0.5-0.1l6.7,3.5l0.2-0.4l-7.2-3.8l-0.7,1.4l4.3,6.9l-0.3,0.5l-8.1,0.2C14.5-1.5,13.7-0.1,13.7-0.1z M20.9,4.5
				c-0.1,0-0.1,0-0.2,0l-7.5-4C12.9,0.3,12.9,0,13-0.3L14-2l0.1-0.2l0.2,0L22-2.5l-4.1-6.7c0-0.1,0-0.2,0-0.4l0.9-1.7l0.2-0.2
				c0.1,0,0.2,0,0.4,0l7.5,4c0.3,0.1,0.3,0.4,0.2,0.6L26.7-6c-0.1,0.1-0.2,0.2-0.3,0.2c-0.1,0-0.2,0-0.4,0l-6.2-3.2l4.5,7.2
				c0,0.1,0,0.2,0,0.4L24-1l-0.1,0.2l-0.2,0l-8.3,0.3l6.1,3.2c0.2,0.1,0.3,0.4,0.2,0.6l-0.4,0.8C21.3,4.4,21.1,4.5,20.9,4.5"/>
		</g>
		<g id="g78" transform="translate(20.464 90.759)">
			<path id="path80" class="st5" d="M28.8-31.7c-0.2-0.1-0.4-0.2-0.5-0.3c-0.2,0-0.4,0-0.5,0.1c-0.1,0-0.3,0.2-0.5,0.3
				c-0.1,0.1-0.3,0.3-0.5,0.5l-3,3.7l2.2,1.8l3-3.7c0.4-0.5,0.6-0.8,0.6-1.1c0-0.2,0-0.4,0-0.5c-0.1-0.2-0.2-0.3-0.4-0.5L28.8-31.7
				L28.8-31.7z M29.8-28.6l-3,3.7l2.7,2.2c0,0,0,0.1,0,0.2L29-21.7c0,0-0.1,0.1-0.2,0L22.2-27c-0.1,0-0.1-0.1,0-0.2l3.7-4.5
				c0.3-0.4,0.6-0.7,1-1c0.3-0.2,0.6-0.4,1-0.4c0.3,0,0.6,0,1,0.1c0.4,0.1,0.7,0.4,1.1,0.7C31.1-31.3,31.1-30.1,29.8-28.6"/>
		</g>
		<g id="g82" transform="translate(18.204 88.643)">
			<path id="path84" class="st5" d="M26.5-25.3l1.7,1.4l2.7-3.4c0.4-0.5,0.5-0.8,0.6-1c0-0.1,0-0.2,0-0.3c0-0.1-0.2-0.3-0.3-0.4
				l-0.3-0.3c-0.1-0.1-0.3-0.2-0.4-0.2c-0.1,0-0.2,0-0.4,0c-0.1,0-0.2,0.1-0.4,0.3c-0.1,0.1-0.3,0.3-0.5,0.5L26.5-25.3z M28-23.2
				L25.8-25l0-0.5l3-3.7c0.2-0.2,0.4-0.5,0.5-0.6c0.2-0.1,0.4-0.3,0.5-0.4c0.3-0.1,0.5-0.1,0.8-0.1c0.2,0,0.5,0.2,0.7,0.4l0.3,0.3
				c0.2,0.2,0.4,0.4,0.5,0.6c0.1,0.2,0.1,0.5,0.1,0.8c-0.1,0.3-0.3,0.7-0.7,1.2l-3,3.7L28-23.2L28-23.2z M24.8-25.1l6.3,5.1l0.3-0.4
				l-2.6-2.1l0-0.5l3-3.7c1.5-1.8,0.8-2.7,0.1-3.2c-0.4-0.3-0.7-0.5-1.1-0.6c-0.3-0.1-0.6-0.2-0.8-0.1c-0.2,0-0.5,0.1-0.8,0.4
				c-0.3,0.2-0.6,0.5-0.9,0.9L24.8-25.1z M31.2-19.2c-0.1,0-0.2,0-0.3-0.1l-6.6-5.4c-0.2-0.2-0.2-0.5-0.1-0.6l3.7-4.5
				c0.3-0.4,0.7-0.8,1.1-1c0.4-0.3,0.7-0.4,1.1-0.5c0.4,0,0.7,0,1.1,0.2c0.4,0.1,0.8,0.4,1.2,0.7c0.9,0.8,1.7,2.1,0,4.2l-2.8,3.4
				l2.5,2c0.1,0.1,0.2,0.2,0.2,0.3s0,0.2-0.1,0.4l-0.6,0.7C31.5-19.2,31.4-19.2,31.2-19.2C31.2-19.2,31.2-19.2,31.2-19.2"/>
		</g>
		<g id="g86" transform="translate(27.57 96.433)">
			<path id="path88" class="st5" d="M36-48.8c-0.3-0.4-0.6-0.6-0.8-0.9c-0.3-0.2-0.5-0.4-0.7-0.5c-0.4-0.2-0.7-0.2-1.1,0
				c-0.3,0.2-0.9,0.6-1.7,1.3l-1,0.9c-0.8,0.7-1.3,1.2-1.5,1.5c-0.3,0.4-0.3,0.7-0.2,1.1c0.1,0.4,0.5,1,1.1,1.7l0.5,0.6
				c0.6,0.7,1.1,1.2,1.5,1.4c0.4,0.2,0.8,0.1,1.1,0c0.3-0.2,0.9-0.6,1.7-1.3l1-0.9c0.8-0.7,1.3-1.1,1.5-1.5c0.3-0.4,0.4-0.7,0.2-1.1
				c0-0.2-0.2-0.5-0.4-0.7c-0.2-0.3-0.5-0.6-0.8-1L36-48.8L36-48.8z M38.3-47.7c0.2,0.4,0.4,0.7,0.5,1c0.1,0.3,0.1,0.6,0,0.9
				s-0.1,0.6-0.3,0.9c-0.1,0.2-0.4,0.5-0.6,0.8c-0.3,0.3-0.7,0.7-1.1,1.1l-1,0.9c-1.1,0.9-1.9,1.5-2.5,1.6c-0.6,0.2-1.3,0.1-1.9-0.3
				c-0.2-0.1-0.5-0.4-0.9-0.7c-0.3-0.4-0.7-0.8-1.2-1.3c-0.4-0.5-0.7-0.8-1-1.2c-0.2-0.4-0.4-0.7-0.5-1s-0.1-0.6,0-0.9
				c0-0.3,0.1-0.6,0.3-0.9c0.3-0.5,0.9-1.1,1.8-1.9l1-0.9c1-0.9,1.8-1.4,2.5-1.6c0.3-0.1,0.6-0.1,1,0c0.3,0,0.6,0.2,1,0.4
				c0.2,0.2,0.5,0.4,0.8,0.7s0.7,0.8,1.2,1.3C37.7-48.5,38-48.1,38.3-47.7"/>
		</g>
		<g id="g90" transform="translate(26.55 97.016)">
			<path id="path92" class="st5" d="M35-50.5c-0.1,0-0.3,0-0.5,0.1c-0.2,0.1-0.7,0.4-1.6,1.2l-1.1,0.9c-0.8,0.6-1.2,1.1-1.5,1.4
				s-0.3,0.5-0.2,0.8c0.1,0.4,0.5,0.9,1.1,1.6l0.5,0.6c0.6,0.7,1.1,1.1,1.4,1.3c0.3,0.1,0.5,0.1,0.9,0c0.3-0.1,0.9-0.5,1.6-1.2
				l1-0.9c1-0.8,1.3-1.2,1.4-1.4c0.2-0.3,0.3-0.5,0.2-0.8c0-0.2-0.2-0.4-0.3-0.7c-0.2-0.3-0.5-0.6-0.7-0.9l-0.5-0.6
				c-0.3-0.4-0.6-0.6-0.8-0.9c-0.2-0.2-0.4-0.3-0.6-0.4C35.3-50.5,35.1-50.5,35-50.5 M33.6-41.8c-0.2,0-0.4,0-0.6-0.1
				c-0.5-0.2-1-0.7-1.6-1.5L30.8-44c-0.6-0.8-1.1-1.4-1.2-1.8c-0.2-0.5-0.1-1,0.3-1.4c0.2-0.3,0.7-0.8,1.6-1.6l1-0.8
				c0.8-0.7,1.4-1.1,1.7-1.3c0.6-0.3,1.1-0.2,1.5,0c0.2,0.1,0.5,0.3,0.7,0.5c0.3,0.2,0.5,0.5,0.9,0.9l0.5,0.6c0.3,0.4,0.6,0.7,0.8,1
				c0.2,0.3,0.4,0.6,0.4,0.9c0.1,0.3,0.2,0.8-0.3,1.4c-0.2,0.3-0.7,0.8-1.6,1.5l-1,0.9c-0.8,0.7-1.4,1.1-1.7,1.3
				C34.2-41.9,33.9-41.8,33.6-41.8 M29.4-47.3c-0.1,0.3-0.2,0.5-0.3,0.8c0,0.3,0,0.5,0,0.8c0,0.2,0.2,0.5,0.5,0.9
				c0.2,0.4,0.5,0.7,0.9,1.2c0.5,0.5,0.9,1,1.2,1.3c0.3,0.3,0.6,0.5,0.8,0.7c0.5,0.4,1.1,0.5,1.6,0.3c0.5-0.1,1.3-0.7,2.4-1.6l1-0.9
				c0.5-0.4,0.8-0.7,1.1-1.1c0.3-0.3,0.5-0.5,0.6-0.8v0c0.1-0.2,0.2-0.5,0.3-0.7c0-0.3,0-0.5,0-0.8c-0.1-0.3-0.2-0.5-0.5-0.9
				c-0.2-0.4-0.5-0.7-0.9-1.2c-0.5-0.5-0.9-1-1.2-1.3c-0.3-0.3-0.6-0.6-0.8-0.7c-0.3-0.2-0.5-0.3-0.8-0.3c-0.3,0-0.5,0-0.8,0
				c-0.6,0.2-1.4,0.7-2.3,1.6l-1,0.9C30.2-48.4,29.6-47.8,29.4-47.3L29.4-47.3z M33.6-40.6c-0.5,0-1-0.1-1.5-0.5
				c-0.3-0.2-0.5-0.4-0.9-0.8c-0.4-0.4-0.8-0.8-1.2-1.3c-0.4-0.5-0.7-0.9-1-1.2c-0.3-0.4-0.5-0.7-0.5-1.1s-0.1-0.7,0-1.1
				c0-0.3,0.2-0.7,0.4-1.1c0.3-0.5,0.9-1.1,1.9-2l1-0.9c1.1-0.9,1.9-1.5,2.6-1.7c0.4-0.1,0.7-0.1,1.1-0.1c0.4,0,0.7,0.2,1.1,0.5
				c0.2,0.2,0.5,0.5,0.9,0.8c0.4,0.4,0.8,0.8,1.2,1.3c0.4,0.5,0.7,0.9,1,1.2c0.3,0.4,0.5,0.8,0.5,1.1c0.1,0.4,0.1,0.7,0,1.1
				c0,0.3-0.2,0.7-0.4,1c-0.1,0.3-0.4,0.5-0.7,0.9c-0.3,0.3-0.7,0.7-1.1,1.1l-1,0.9c-1.1,1-2,1.5-2.6,1.7
				C34.1-40.7,33.8-40.6,33.6-40.6"/>
		</g>
		<g id="g94" transform="translate(31.169 100.692)">
			<path id="path96" class="st5" d="M39.7-61.6l1.3,2.2l5.3-3.2c0,0,0.1,0,0.2,0l0.5,0.7c0,0.1,0,0.1,0,0.2l-5.3,3.2l2,3.3
				c0,0.1,0,0.1,0,0.2l-0.7,0.5c-0.1,0-0.1,0-0.2,0l-4.4-7.3c0-0.1,0-0.1,0-0.2l6.4-3.8c0,0,0.1,0,0.2,0l0.5,0.7c0,0.1,0,0.1,0,0.2
				L39.7-61.6L39.7-61.6z"/>
		</g>
		<g id="g98" transform="translate(33.697 102.686)">
			<path id="path100" class="st5" d="M36-63.9l4.2,7l0.4-0.2l-1.9-3.1l0.1-0.5l5.1-3.1l-0.2-0.4l-5.2,3.1l-0.5-0.1l-1.3-2.2l0.1-0.5
				l5.3-3.2L42-67.5L36-63.9L36-63.9z M40.2-56.2c-0.1,0-0.3-0.1-0.4-0.2l-4.4-7.3c-0.1-0.1-0.1-0.3,0-0.4c0-0.1,0.1-0.2,0.2-0.3
				l6.4-3.8l0.3,0c0.1,0,0.2,0.1,0.3,0.2l0.5,0.7c0.2,0.3,0,0.5-0.1,0.6l-5.2,3.2l1,1.6l5-3l0.3,0c0.1,0,0.2,0.1,0.3,0.2l0.5,0.7
				c0.1,0.2,0.1,0.5-0.1,0.6l-5,3l1.8,3c0.1,0.2,0.1,0.5-0.1,0.6l-0.7,0.5C40.3-56.2,40.2-56.2,40.2-56.2"/>
		</g>
		<g id="g102" transform="translate(42.286 104.476)">
			<path id="path104" class="st5" d="M50.9-73c-0.2-0.5-0.3-0.8-0.5-1.1c-0.1-0.3-0.3-0.5-0.5-0.7c-0.3-0.3-0.6-0.4-1.1-0.4
				c-0.4,0-1.1,0.3-2,0.6l-1.2,0.5c-1,0.4-1.6,0.7-1.9,0.9c-0.4,0.3-0.6,0.6-0.6,1c0,0.5,0.1,1.1,0.5,2l0.3,0.7
				c0.3,0.9,0.7,1.5,1,1.8c0.3,0.3,0.6,0.4,1.1,0.3c0.4,0,1.1-0.3,2-0.6l1.2-0.5c1-0.4,1.6-0.7,1.9-0.9c0.4-0.3,0.6-0.6,0.6-1
				c0-0.2,0-0.5-0.1-0.8c-0.1-0.3-0.2-0.7-0.4-1.1L50.9-73L50.9-73z M52.7-71.3c0.1,0.4,0.1,0.8,0.1,1.1c0,0.3-0.1,0.6-0.3,0.9
				c-0.1,0.3-0.4,0.5-0.6,0.7c-0.2,0.2-0.5,0.4-0.9,0.5c-0.4,0.2-0.9,0.4-1.4,0.6l-1.3,0.5c-1.3,0.5-2.3,0.7-2.9,0.7
				c-0.7,0-1.2-0.4-1.7-1c-0.2-0.2-0.4-0.5-0.5-1c-0.2-0.5-0.4-1-0.7-1.6c-0.2-0.5-0.4-1.1-0.5-1.5c-0.1-0.4-0.1-0.8-0.1-1.1
				c0-0.3,0.1-0.6,0.3-0.9c0.1-0.3,0.4-0.5,0.6-0.7c0.4-0.4,1.2-0.7,2.4-1.2l1.3-0.5c1.3-0.5,2.2-0.7,2.9-0.7c0.3,0,0.6,0.1,0.9,0.3
				c0.3,0.1,0.5,0.4,0.8,0.7c0.1,0.2,0.3,0.5,0.5,1c0.2,0.5,0.5,1,0.7,1.6C52.5-72.2,52.6-71.7,52.7-71.3"/>
		</g>
		<g id="g106" transform="translate(41.382 105.391)">
			<path id="path108" class="st5" d="M50-75.8h-0.2c-0.2,0-0.8,0.1-1.9,0.6l-1.2,0.5c-1.2,0.5-1.6,0.7-1.9,0.9
				c-0.3,0.2-0.4,0.4-0.5,0.7c0,0.3,0,0.8,0.5,1.9l0.3,0.7c0.3,0.8,0.6,1.4,0.9,1.7c0.2,0.2,0.5,0.3,0.8,0.2c0.2,0,0.8-0.1,1.9-0.6
				l1.2-0.5c1.1-0.5,1.6-0.7,1.8-0.8c0.3-0.2,0.5-0.4,0.4-0.7c0-0.2,0-0.5-0.1-0.7c-0.1-0.3-0.2-0.7-0.4-1.1l-0.3-0.7
				c-0.2-0.4-0.3-0.8-0.5-1.1c-0.1-0.3-0.3-0.5-0.4-0.6C50.5-75.6,50.3-75.8,50-75.8 M46.6-67.9c-0.4,0-0.8-0.1-1.1-0.5
				c-0.4-0.4-0.7-1-1.1-1.9L44.2-71c-0.4-0.9-0.5-1.6-0.5-2.1c0-0.5,0.3-1,0.7-1.3c0.3-0.2,1-0.5,2-0.9l1.2-0.5
				c1-0.4,1.7-0.6,2.1-0.6c0.7-0.1,1.1,0.2,1.4,0.5c0.2,0.1,0.4,0.4,0.5,0.7s0.3,0.7,0.5,1.1l0.3,0.7c0.2,0.5,0.3,0.9,0.4,1.2
				c0.1,0.4,0.1,0.7,0.1,1c0,0.3-0.1,0.8-0.7,1.2c-0.3,0.2-1,0.5-2,0.9l-1.2,0.5c-1,0.4-1.7,0.6-2.1,0.6
				C46.8-67.9,46.7-67.9,46.6-67.9 M43.9-74.6c-0.2,0.2-0.4,0.4-0.5,0.6c-0.1,0.2-0.2,0.5-0.2,0.7c0,0.3,0,0.6,0.1,1
				c0.1,0.4,0.3,0.9,0.5,1.4c0.3,0.6,0.5,1.2,0.7,1.6c0.2,0.4,0.4,0.7,0.5,0.9c0.4,0.5,0.9,0.8,1.4,0.8c0.5,0,1.5-0.2,2.7-0.7
				l1.3-0.5c0.5-0.2,1-0.4,1.4-0.6c0.4-0.2,0.6-0.4,0.8-0.5c0.2-0.2,0.4-0.4,0.5-0.6c0.1-0.2,0.2-0.5,0.2-0.7c0-0.3,0-0.6-0.1-1
				c-0.1-0.4-0.3-0.9-0.5-1.4c-0.2-0.6-0.5-1.2-0.7-1.6c-0.2-0.4-0.4-0.7-0.5-1c-0.2-0.3-0.4-0.5-0.6-0.6c-0.2-0.1-0.5-0.2-0.8-0.2
				c-0.6,0-1.5,0.2-2.7,0.6l-1.3,0.5C45.1-75.3,44.4-74.9,43.9-74.6L43.9-74.6z M46.6-66.7h-0.2c-0.8,0-1.4-0.4-1.9-1.1
				c-0.2-0.2-0.4-0.6-0.6-1.1c-0.2-0.5-0.5-1-0.7-1.7c-0.2-0.5-0.4-1.1-0.5-1.5c-0.1-0.5-0.2-0.9-0.1-1.2c0-0.4,0.1-0.7,0.3-1
				c0.2-0.3,0.4-0.6,0.7-0.8c0.5-0.4,1.2-0.8,2.4-1.2l1.3-0.5c1.3-0.5,2.3-0.7,3-0.7c0.4,0,0.7,0.1,1.1,0.3s0.6,0.5,0.9,0.8
				c0.2,0.3,0.4,0.6,0.5,1.1c0.2,0.5,0.5,1,0.7,1.7c0.2,0.5,0.4,1.1,0.5,1.5c0.1,0.5,0.1,0.9,0.1,1.2c0,0.4-0.1,0.7-0.3,1
				c-0.2,0.3-0.4,0.6-0.7,0.8c-0.2,0.2-0.5,0.4-1,0.6c-0.4,0.2-0.9,0.4-1.5,0.6l-1.3,0.5C48.1-67,47.2-66.7,46.6-66.7"/>
		</g>
		<g id="g110" transform="translate(51.214 106.597)">
			<path id="path112" class="st5" d="M60-79.4c-0.1-0.5-0.2-0.9-0.3-1.2c-0.1-0.3-0.2-0.6-0.4-0.8c-0.2-0.4-0.5-0.5-1-0.5
				c-0.4,0-1.1,0-2.1,0.2l-1.3,0.2c-1,0.2-1.7,0.4-2.1,0.5c-0.4,0.2-0.7,0.5-0.8,0.9c-0.1,0.4,0,1.1,0.1,2.1l0.1,0.7
				c0.2,0.9,0.4,1.6,0.6,2c0.2,0.3,0.6,0.5,1.1,0.5c0.4,0,1.1,0,2.1-0.2l1.3-0.2c1-0.2,1.7-0.4,2-0.5c0.4-0.2,0.7-0.5,0.7-0.9
				c0-0.2,0.1-0.5,0-0.8c0-0.4-0.1-0.7-0.2-1.2L60-79.4z M61.4-77.3c0,0.5,0,0.8-0.1,1.1c-0.1,0.3-0.2,0.5-0.4,0.8
				c-0.2,0.2-0.5,0.4-0.7,0.6c-0.2,0.1-0.6,0.3-1,0.4c-0.4,0.1-0.9,0.2-1.5,0.4l-1.3,0.2c-1.4,0.3-2.4,0.3-3,0.1
				c-0.6-0.1-1.1-0.5-1.5-1.2c-0.1-0.3-0.2-0.6-0.4-1.1c-0.1-0.5-0.2-1.1-0.4-1.7c-0.1-0.6-0.2-1.1-0.2-1.5c0-0.5,0-0.8,0.1-1.1
				c0.1-0.3,0.2-0.5,0.4-0.8c0.2-0.2,0.5-0.5,0.7-0.6c0.5-0.3,1.3-0.5,2.6-0.7l1.3-0.3c1.3-0.2,2.3-0.3,2.9-0.1
				c0.3,0.1,0.6,0.2,0.9,0.4c0.2,0.2,0.5,0.5,0.6,0.8c0.1,0.2,0.2,0.6,0.3,1.1c0.1,0.5,0.2,1.1,0.4,1.7
				C61.3-78.3,61.4-77.8,61.4-77.3"/>
		</g>
		<g id="g114" transform="translate(50.337 107.677)">
			<path id="path116" class="st5" d="M59.1-82.6c-0.3,0-0.8,0-1.9,0.2l-1.3,0.2c-1.2,0.2-1.7,0.4-2,0.5c-0.3,0.1-0.5,0.4-0.6,0.6
				c-0.1,0.4,0,1.1,0.1,1.9l0.1,0.7c0.2,0.9,0.4,1.5,0.6,1.8c0.2,0.2,0.4,0.4,0.8,0.4c0.2,0,0.8,0,2-0.2l1.3-0.2
				c1.2-0.2,1.7-0.4,2-0.5c0.5-0.2,0.5-0.5,0.5-0.6c0-0.2,0.1-0.5,0-0.7c0-0.3-0.1-0.7-0.2-1.2l-0.1-0.8c-0.1-0.5-0.2-0.8-0.3-1.1
				c-0.1-0.3-0.2-0.5-0.3-0.6c-0.1-0.2-0.3-0.4-0.7-0.4H59.1 M55.1-75.5h-0.2c-0.5,0-1-0.3-1.3-0.7s-0.5-1.1-0.7-2.1L52.8-79
				c-0.2-1-0.2-1.7-0.1-2.2c0.1-0.5,0.5-0.9,1-1.1c0.4-0.2,1.1-0.3,2.1-0.5l1.3-0.2c1.1-0.2,1.8-0.3,2.2-0.2c0.7,0,1.1,0.4,1.3,0.7
				c0.1,0.2,0.3,0.5,0.4,0.8c0.1,0.4,0.2,0.8,0.3,1.2l0.1,0.7c0.1,0.5,0.1,0.9,0.2,1.2c0,0.4,0,0.7-0.1,1c0,0.3-0.3,0.8-0.9,1.1
				c-0.4,0.2-1.1,0.3-2.1,0.5l-1.3,0.2C56.2-75.6,55.5-75.5,55.1-75.5 M59-83.8c-0.5,0-1.2,0.1-2,0.2l-1.3,0.2
				c-1.2,0.2-2,0.5-2.4,0.7l-0.1,0c-0.2,0.1-0.4,0.3-0.6,0.5c-0.2,0.2-0.3,0.4-0.4,0.7c0,0.3-0.1,0.6,0,1c0,0.4,0.1,0.9,0.2,1.5
				c0.1,0.7,0.2,1.3,0.4,1.7c0.1,0.5,0.2,0.8,0.3,1c0.3,0.6,0.7,0.9,1.3,1.1c0.5,0.1,1.5,0.1,2.8-0.1l1.3-0.2
				c0.6-0.1,1.1-0.2,1.5-0.3c0.4-0.1,0.7-0.2,0.9-0.4c0.2-0.1,0.5-0.3,0.6-0.5c0.2-0.2,0.3-0.4,0.4-0.7c0-0.3,0.1-0.6,0-1
				c0-0.4-0.1-0.9-0.2-1.5c-0.1-0.7-0.2-1.3-0.4-1.7c-0.1-0.5-0.2-0.8-0.3-1c-0.1-0.3-0.3-0.5-0.5-0.7c-0.2-0.2-0.5-0.3-0.7-0.4
				C59.6-83.7,59.3-83.8,59-83.8 M55.1-74.4c-0.4,0-0.7,0-1-0.1c-0.7-0.2-1.3-0.6-1.7-1.4c-0.1-0.3-0.3-0.6-0.4-1.1
				c-0.1-0.5-0.2-1.1-0.4-1.8c-0.1-0.6-0.2-1.1-0.2-1.6c0-0.5,0-0.9,0.1-1.2c0.1-0.4,0.3-0.6,0.5-0.9c0.2-0.3,0.5-0.5,0.9-0.7l0.1,0
				c0.5-0.3,1.3-0.5,2.6-0.7l1.3-0.2c1.4-0.3,2.4-0.3,3.1-0.1c0.4,0.1,0.7,0.3,1,0.5c0.3,0.2,0.5,0.5,0.7,1c0.1,0.3,0.2,0.6,0.4,1.1
				c0.1,0.5,0.3,1.1,0.4,1.8c0.1,0.6,0.2,1.1,0.2,1.6c0,0.5,0,0.9-0.1,1.2c-0.1,0.4-0.3,0.6-0.5,0.9c-0.2,0.3-0.5,0.5-0.8,0.6
				c-0.3,0.1-0.6,0.3-1.1,0.4c-0.4,0.1-1,0.2-1.6,0.4l-1.3,0.2C56.4-74.5,55.7-74.4,55.1-74.4"/>
		</g>
		<g id="g118" transform="translate(58.236 108.45)">
			<path id="path120" class="st5" d="M67.1-85l0.1,7.5c0,0.1,0,0.1-0.1,0.1h-0.9c-0.1,0-0.1,0-0.1-0.1L66-85l-4,0
				c-0.1,0-0.1,0-0.1-0.1v-0.9c0-0.1,0-0.1,0.1-0.1l9.1-0.1c0.1,0,0.1,0,0.1,0.1v0.9c0,0.1,0,0.1-0.1,0.1L67.1-85L67.1-85z"/>
		</g>
		<g id="g122" transform="translate(60.106 108.985)">
			<path id="path124" class="st5" d="M64.1-85.8l0.3,0.3l0.1,7.3h0.5l-0.1-7.3l0.3-0.3l3.8,0v-0.5l-8.7,0.1v0.5
				C60.3-85.7,64.1-85.8,64.1-85.8z M64.4-77.5c-0.1,0-0.2,0-0.3-0.1c0,0-0.1-0.2-0.1-0.3l-0.1-7.2l-3.6,0c-0.3,0-0.5-0.2-0.5-0.5
				v-0.9c0-0.2,0-0.3,0.1-0.3c0.1,0,0.2-0.1,0.3-0.1l9.1-0.1c0.2,0,0.3,0,0.3,0.1c0,0,0.1,0.2,0.1,0.3v0.9c0,0.2,0,0.3-0.1,0.4
				c0,0-0.2,0.1-0.3,0.1l-3.7,0l0.1,7.2c0,0.3-0.2,0.5-0.5,0.5H64.4L64.4-77.5z"/>
		</g>
		<g id="g126" transform="translate(68.274 107.281)">
			<path id="path128" class="st5" d="M77.3-81.5c-0.2-0.2-0.6-0.4-1.1-0.5l-5.3-0.9l-0.4,2.5l5.3,0.9c0.5,0.1,0.9,0.1,1.1,0
				c0.3-0.1,0.5-0.4,0.6-0.9C77.6-80.9,77.5-81.2,77.3-81.5 M77.1-77.9C77-78,76.8-78,76.6-78.1c-0.2-0.1-0.5-0.1-0.7-0.2l-5.7-1
				l-0.5,2.8l5.7,1c0.5,0.1,1,0,1.3-0.1c0.3-0.2,0.5-0.5,0.6-1.1C77.4-77.2,77.4-77.6,77.1-77.9 M78-75.3c-0.2,0.3-0.5,0.5-0.8,0.7
				c-0.3,0.1-0.6,0.2-1,0.2s-0.8,0-1.3-0.1l-6.4-1.1c-0.1,0-0.1,0-0.1-0.1l1.5-8.4c0-0.1,0-0.1,0.1-0.1l6,1.1c2,0.4,2.9,1.3,2.6,2.7
				c-0.1,0.9-0.5,1.4-1,1.7c0.6,0.5,0.9,1.2,0.7,2.2C78.3-76,78.2-75.6,78-75.3"/>
		</g>
		<g id="g130" transform="translate(65.047 106.91)">
			<path id="path132" class="st5" d="M74-80.3l5,0.9c0.6,0.1,0.9,0,1,0c0.1,0,0.4-0.1,0.5-0.7c0-0.3,0-0.5-0.1-0.7
				c-0.2-0.2-0.5-0.3-1-0.4l-5-0.9L74-80.3z M79.7-78.7c-0.2,0-0.4,0-0.7,0l-5.3-0.9l-0.3-0.4l0.4-2.5l0.4-0.3l5.3,0.9
				c0.6,0.1,1.1,0.3,1.3,0.6c0.3,0.3,0.4,0.8,0.3,1.3c-0.1,0.8-0.5,1.1-0.9,1.2C80.1-78.8,79.9-78.7,79.7-78.7 M73.3-76.4l5.4,1
				c0.5,0.1,0.8,0,1.1-0.1c0.2-0.1,0.4-0.4,0.5-0.8c0.1-0.4,0-0.7-0.1-0.9c-0.1-0.1-0.2-0.1-0.4-0.2c-0.2-0.1-0.4-0.1-0.7-0.2
				l-5.3-0.9C73.7-78.6,73.3-76.4,73.3-76.4z M79.2-74.7c-0.2,0-0.4,0-0.5,0l-5.7-1l-0.3-0.4l0.5-2.8l0.4-0.3l5.7,1
				c0.3,0,0.6,0.1,0.8,0.2c0.2,0.1,0.4,0.2,0.5,0.4c0.3,0.3,0.4,0.8,0.3,1.5c-0.1,0.6-0.4,1-0.7,1.3C79.9-74.8,79.6-74.7,79.2-74.7
				L79.2-74.7z M72.1-75.5l6.2,1.1c0.5,0.1,0.9,0.1,1.2,0.1c0.3,0,0.6-0.1,0.8-0.2c0.3-0.1,0.5-0.3,0.6-0.6c0.2-0.3,0.3-0.6,0.4-1.1
				c0.1-0.9,0-1.5-0.5-1.9l0-0.5c0.4-0.2,0.6-0.7,0.8-1.5c0.1-0.6,0-1.1-0.4-1.5c-0.4-0.4-1.1-0.7-2-0.9l-5.8-1L72.1-75.5L72.1-75.5
				z M79.2-73.6c-0.4,0-0.7,0-1.2-0.1l-6.4-1.1c-0.3,0-0.4-0.3-0.4-0.5l1.5-8.4c0-0.2,0.1-0.3,0.2-0.3c0,0,0.2-0.1,0.4-0.1l6,1.1
				c1.1,0.2,1.9,0.5,2.3,1.1c0.5,0.5,0.7,1.2,0.5,2.1c-0.1,0.7-0.4,1.3-0.8,1.7c0.5,0.5,0.6,1.3,0.5,2.2c-0.1,0.5-0.2,1-0.5,1.3
				s-0.5,0.7-0.9,0.9c-0.3,0.1-0.7,0.3-1.1,0.3C79.4-73.6,79.3-73.6,79.2-73.6"/>
		</g>
		<g id="g134" transform="translate(73.868 103.58)">
			<path id="path136" class="st5" d="M83-70.3l4.4,1.6l-0.5-5.1L83-70.3L83-70.3z M87.9-65.1L87.9-65.1L87.9-65.1l-0.4-2.4L82-69.5
				L80.4-68v0l0,0l-0.9-0.3c-0.1,0-0.1-0.1-0.1-0.2c0,0,0,0,0,0v0l7.1-6.5h0.1l1.3,0.5c0,0,0,0,0,0v0l1.1,9.6v0v0
				c0,0.1-0.1,0.1-0.1,0.1L87.9-65.1z"/>
		</g>
		<g id="g138" transform="translate(74.18 103.641)">
			<path id="path140" class="st5" d="M83.3-70.5l3.4,1.3l-0.4-3.9L83.3-70.5L83.3-70.5z M86.9-68.4L82.6-70l-0.1-0.5l3.8-3.5
				l0.5,0.2l0.5,5.1L86.9-68.4L86.9-68.4z M80.3-67.9l0.1,0L80.3-67.9z M87.8-65.4l0.5,0.2l-1.1-9.1l-1-0.4l-6.7,6.2l0.4,0.2
				l1.6-1.4l0.4,0l5.5,2.1l0.2,0.3C87.6-67.5,87.8-65.4,87.8-65.4z M88.5-64.5c0,0-0.1,0-0.2,0l-1.1-0.4l-0.1-0.2h-0.1l0,0l0,0h0v0
				l-0.2-2.1l-5.1-1.9l-1.5,1.4l-0.1,0l-0.3,0.1l-1-0.4c-0.1,0-0.2-0.2-0.3-0.2c0-0.1,0-0.2,0-0.4l0.1-0.1l7.2-6.6
				c0.1,0,0.2,0,0.3,0l1.3,0.5l0.2,0.2l0,0.1l1.1,9.6l0,0.2C88.9-64.6,88.7-64.5,88.5-64.5"/>
		</g>
		<g id="g142" transform="translate(80.097 99.145)">
			<path id="path144" class="st5" d="M89.3-57c-0.1,0-0.1-0.1,0-0.2l4.3-7.4c0-0.1,0.1-0.1,0.2,0l0.8,0.5c0.1,0,0.1,0.1,0,0.2
				l-3.8,6.5l5.3,3.1c0.1,0,0.1,0.1,0,0.2l-0.5,0.8c0,0.1-0.1,0.1-0.2,0L89.3-57L89.3-57z"/>
		</g>
		<g id="g146" transform="translate(82.21 102.781)">
			<path id="path148" class="st5" d="M87.6-60.7l5.8,3.4l0.2-0.4l-5.1-3l-0.1-0.5l3.7-6.4l-0.4-0.2L87.6-60.7L87.6-60.7z M93.5-56.6
				c-0.1,0-0.2,0-0.2,0l-6.2-3.6c-0.1-0.1-0.2-0.2-0.2-0.3c0-0.1,0-0.2,0-0.4l4.3-7.4c0.1-0.1,0.2-0.2,0.3-0.2c0.1,0,0.2,0,0.4,0
				l0.8,0.5c0.1,0.1,0.2,0.2,0.2,0.3c0,0.1,0,0.2,0,0.4l-3.6,6.2l5,2.9c0.1,0.1,0.2,0.2,0.2,0.3c0,0.1,0,0.2,0,0.4l-0.5,0.8
				C93.7-56.7,93.6-56.6,93.5-56.6"/>
		</g>
		<g id="g150" transform="translate(86.113 95.288)">
			<path id="path152" class="st5" d="M95.4-45.3c0,0-0.1-0.1,0-0.2l5.3-6.6c0-0.1,0.1-0.1,0.2,0l0.7,0.5c0,0,0,0.1,0,0.2l-4.7,5.9
				l4.8,3.8c0,0,0.1,0.1,0,0.2l-0.5,0.7c0,0-0.1,0.1-0.2,0L95.4-45.3z"/>
		</g>
		<g id="g154" transform="translate(89.095 98.287)">
			<path id="path156" class="st5" d="M92.8-48.4l5.2,4.2l0.3-0.4l-4.6-3.7l0-0.5l4.6-5.7l-0.4-0.3L92.8-48.4z M98.1-43.5
				c-0.1,0-0.2,0-0.3-0.1l-5.6-4.5c-0.2-0.2-0.2-0.4-0.1-0.6l5.3-6.6c0.2-0.2,0.5-0.2,0.6-0.1l0.7,0.5c0.1,0.1,0.2,0.2,0.2,0.3
				s0,0.2-0.1,0.4l-4.5,5.6l4.5,3.7c0.1,0.1,0.2,0.2,0.2,0.3c0,0.1,0,0.2-0.1,0.3l-0.5,0.7C98.4-43.5,98.2-43.5,98.1-43.5L98.1-43.5
				"/>
		</g>
		<g id="g158" transform="translate(95.696 87.759)">
			<path id="path160" class="st5" d="M105.2-22.6C105.2-22.6,105.2-22.6,105.2-22.6c-0.7,0.7-1.5,0.9-2.1,0.7
				c-0.5-0.1-1.2-0.6-1.8-1.4l-2.1-2.4c-0.4-0.5-0.7-0.9-1-1.3c-0.2-0.4-0.4-0.7-0.5-1.1c0-0.3,0-0.6,0-0.9c0.1-0.3,0.2-0.6,0.5-0.9
				c0.3-0.4,1-1,2-1.9c1.2-1.1,2.2-1.6,3-1.5c0.8,0,1.7,0.7,2.7,1.8l1.9,2.2c0.7,0.8,1.1,1.5,1.1,2.2c0,0.7-0.3,1.3-0.9,1.8
				c0,0-0.1,0-0.2,0l-0.6-0.6c0,0,0-0.1,0-0.2c0.7-0.6,0.6-1.4-0.3-2.4l-2-2.2c-0.3-0.4-0.6-0.7-0.9-0.9c-0.3-0.2-0.5-0.4-0.7-0.5
				c-0.4-0.1-0.8,0-1.3,0.3c-0.1,0.1-0.4,0.2-0.6,0.5s-0.6,0.5-1.1,0.9c-0.5,0.4-0.8,0.8-1.1,1.1c-0.3,0.3-0.4,0.6-0.5,0.8
				c0,0.5,0.3,1.1,1.1,2L102-24c0.5,0.5,0.8,0.8,1.1,1c0.4,0.2,0.8,0,1.2-0.3l0,0c0,0,0.1,0,0.2,0l0.6,0.6L105.2-22.6L105.2-22.6z"
				/>
		</g>
		<g id="g162" transform="translate(96.849 89.428)">
			<path id="path164" class="st5" d="M101.9-34.5c-0.7,0-1.6,0.5-2.7,1.4c-1,0.9-1.6,1.5-1.9,1.8c-0.2,0.3-0.4,0.5-0.4,0.8
				c-0.1,0.3-0.1,0.5,0,0.8c0,0.3,0.2,0.6,0.4,1c0.2,0.4,0.5,0.8,0.9,1.2l2.1,2.4c0.6,0.7,1.2,1.1,1.7,1.3c0.5,0.1,1.1,0,1.6-0.5
				l-0.3-0.3c-0.6,0.5-1.1,0.4-1.5,0.3c-0.4-0.1-0.8-0.5-1.3-1l-2.1-2.4c-0.8-1-1.2-1.7-1.1-2.3c0-0.3,0.2-0.6,0.5-1
				c0.3-0.3,0.6-0.7,1.1-1.1c0.4-0.4,0.8-0.7,1.1-0.9c0.3-0.3,0.5-0.4,0.7-0.5c0.5-0.4,1.1-0.5,1.6-0.3c0.3,0.1,0.5,0.3,0.8,0.5
				c0.3,0.2,0.6,0.5,1,0.9l2,2.2c1.2,1.3,0.9,2.2,0.4,2.8l0.3,0.3c0.5-0.5,0.7-0.9,0.6-1.5c0-0.6-0.4-1.2-1-2l-1.9-2.2
				C103.5-33.7,102.7-34.3,101.9-34.5C101.9-34.5,101.9-34.5,101.9-34.5 M102.3-23.2c-0.2,0-0.4,0-0.5,0c-0.6-0.2-1.3-0.6-2-1.5
				l-2.1-2.4c-0.4-0.5-0.7-0.9-1-1.3s-0.4-0.8-0.5-1.2c0-0.4,0-0.7,0.1-1.1c0.1-0.4,0.3-0.7,0.5-1.1c0.3-0.4,1-1,2-1.9
				c1.3-1.1,2.3-1.6,3.2-1.6c0.9,0,1.9,0.7,3,2L107-31c0.7,0.8,1.1,1.6,1.1,2.4c0,0.8-0.3,1.5-1,2.1c-0.2,0.2-0.5,0.2-0.6,0
				l-0.6-0.6c-0.2-0.2-0.2-0.5,0-0.6c0.2-0.2,0.8-0.7-0.3-2l-2-2.2c-0.3-0.4-0.6-0.6-0.9-0.9c-0.2-0.2-0.5-0.3-0.6-0.4
				c-0.3-0.1-0.6,0-1.1,0.2c-0.1,0-0.3,0.2-0.6,0.5c-0.3,0.2-0.6,0.5-1.1,0.9c-0.5,0.4-0.8,0.7-1,1.1c-0.3,0.3-0.4,0.5-0.4,0.6
				c0,0.2,0.1,0.8,1,1.7l2.1,2.4c0.4,0.5,0.7,0.7,1,0.9c0.2,0.1,0.5,0.1,0.9-0.3c0.1-0.1,0.3-0.1,0.4-0.1c0.1,0,0.2,0,0.3,0.2
				l0.6,0.6v0.2h0.1v0.1l-0.1,0.3C103.6-23.4,102.9-23.2,102.3-23.2"/>
		</g>
		<g id="g166" transform="translate(96.936 83.786)">
			<path id="path168" class="st5" d="M106.4-10.6c0-0.1,0-0.1,0-0.2l7.3-4.5c0.1,0,0.1,0,0.2,0l0.5,0.7c0,0.1,0,0.1,0,0.2l-6.4,3.9
				l3.2,5.2c0,0.1,0,0.1,0,0.2l-0.8,0.5c-0.1,0-0.1,0-0.2,0L106.4-10.6L106.4-10.6z"/>
		</g>
		<g id="g170" transform="translate(100.745 85.623)">
			<path id="path172" class="st5" d="M103-12.5l3.5,5.7l0.4-0.2l-3.1-5l0.1-0.5l6.3-3.8l-0.2-0.4L103-12.5L103-12.5z M106.5-6
				c-0.1,0-0.3-0.1-0.4-0.2l-3.7-6.1c-0.1-0.2-0.1-0.5,0.1-0.6l7.3-4.5c0.2-0.1,0.5-0.1,0.6,0.1l0.5,0.7c0.1,0.1,0.1,0.3,0,0.4
				c0,0.1-0.1,0.2-0.2,0.3l-6.1,3.8l3.1,4.9c0.1,0.1,0.1,0.3,0,0.4c0,0.1-0.1,0.2-0.2,0.3l-0.8,0.5C106.6-6,106.5-6,106.5-6"/>
		</g>
		<g id="g174" transform="translate(102.863 73.442)">
			<path id="path176" class="st5" d="M112.4,20.5c-0.6,0-1.1-0.3-1.6-0.8c-0.2-0.2-0.4-0.5-0.5-0.9c-0.2-0.4-0.4-0.9-0.6-1.4
				l-0.5-1.2c-0.2-0.5-0.4-1.1-0.5-1.5c-0.1-0.4-0.2-0.8-0.2-1.1v0c0-0.4,0-0.6,0.1-1c0.1-0.3,0.3-0.5,0.5-0.8
				c0.2-0.2,0.5-0.5,0.9-0.7c0.4-0.2,0.9-0.5,1.4-0.6l4.3-1.7c0.1,0,0.1,0,0.2,0l0.3,0.8c0,0.1,0,0.1-0.1,0.2l-4.3,1.7
				c-0.9,0.4-1.5,0.7-1.8,1c-0.3,0.3-0.4,0.7-0.3,1.1c0,0.4,0.3,1.1,0.6,2l0.5,1.2c0.4,1,0.7,1.6,0.9,1.9c0.3,0.4,0.6,0.5,1,0.5
				c0.2,0,0.5,0,0.8-0.1s0.7-0.2,1.1-0.4l4.3-1.7c0.1,0,0.1,0,0.2,0.1l0.3,0.8c0,0.1,0,0.1-0.1,0.2L115,20
				C113.9,20.4,113,20.6,112.4,20.5"/>
		</g>
		<g id="g178" transform="translate(104.502 78.748)">
			<path id="path180" class="st5" d="M110.8,14.9c0.5,0,1.4-0.2,2.4-0.6l4.1-1.6l-0.2-0.4l-4.1,1.6c-0.5,0.2-0.9,0.3-1.2,0.4
				c-0.4,0.1-0.7,0.1-1,0.1c-0.5,0-0.9-0.2-1.2-0.7c-0.2-0.3-0.5-1-1-2l-0.5-1.2c-0.4-1-0.6-1.7-0.7-2.1c-0.1-0.5,0-1,0.4-1.4
				s1-0.7,1.9-1.1l4.1-1.6l-0.2-0.4l-4.1,1.6c-0.5,0.2-1,0.4-1.3,0.6c-0.4,0.2-0.6,0.4-0.8,0.6c-0.2,0.2-0.3,0.4-0.4,0.6
				c-0.1,0.2-0.1,0.5-0.1,0.8v0c0,0.3,0.1,0.6,0.2,1c0.1,0.4,0.3,0.9,0.5,1.5l0.5,1.2c0.2,0.5,0.4,1,0.6,1.4
				c0.2,0.4,0.4,0.6,0.5,0.8C109.8,14.6,110.3,14.9,110.8,14.9 M110.9,15.6h-0.1c-0.7,0-1.3-0.4-1.8-1l0,0l0,0
				c-0.2-0.2-0.4-0.5-0.6-1c-0.2-0.4-0.4-0.9-0.6-1.5l-0.5-1.2c-0.2-0.6-0.4-1.1-0.5-1.5c-0.1-0.5-0.2-0.8-0.2-1.1l0,0
				c0-0.4,0-0.8,0.1-1.1c0.1-0.3,0.3-0.6,0.5-0.9c0.2-0.3,0.5-0.5,1-0.7c0.4-0.2,0.9-0.5,1.4-0.7l4.3-1.7c0.2,0,0.3,0,0.4,0l0.2,0.2
				l0.3,0.8c0.1,0.2,0,0.5-0.3,0.6l-4.3,1.7c-0.8,0.3-1.4,0.6-1.7,0.9c-0.2,0.2-0.3,0.5-0.2,0.8c0,0.2,0.2,0.8,0.6,1.9l0.5,1.2
				c0.4,0.9,0.7,1.6,0.9,1.8c0.2,0.3,0.4,0.4,0.7,0.4c0.2,0,0.5,0,0.7-0.1c0.3-0.1,0.7-0.2,1.1-0.4l4.3-1.7c0.1,0,0.3,0,0.4,0
				c0.1,0,0.2,0.1,0.3,0.3l0.3,0.8c0,0.1,0,0.3,0,0.4s-0.1,0.2-0.3,0.3l-4.3,1.7C112.4,15.4,111.5,15.6,110.9,15.6"/>
		</g>
		<g id="g182" transform="translate(107.647 66.302)">
			<path id="path184" class="st5" d="M117.3,42.1c0.1-0.3,0.2-0.7,0-1.2l-1.1-5.3l-2.4,0.5l1.1,5.3c0.1,0.5,0.3,0.9,0.5,1.1
				c0.2,0.3,0.6,0.4,1.1,0.3C116.8,42.6,117.2,42.4,117.3,42.1 M113.9,43.2c0-0.1,0.1-0.3,0.1-0.5c0-0.2,0-0.5-0.1-0.8l-1.1-5.6
				l-2.8,0.5l1.1,5.7c0.1,0.5,0.3,1,0.6,1.1c0.3,0.2,0.7,0.3,1.2,0.2C113.4,43.7,113.7,43.5,113.9,43.2 M111.8,44.9
				c-0.4,0-0.7-0.2-1-0.5c-0.2-0.2-0.4-0.5-0.6-0.8c-0.1-0.4-0.3-0.8-0.4-1.3l-1.2-6.4c0-0.1,0-0.1,0.1-0.1l8.4-1.6
				c0.1,0,0.1,0,0.2,0.1l1.2,5.9c0.4,2-0.1,3.2-1.6,3.4c-0.9,0.2-1.5,0.1-1.9-0.3c-0.2,0.8-0.8,1.2-1.8,1.4
				C112.5,45,112.1,45,111.8,44.9"/>
		</g>
		<g id="g186" transform="translate(106.142 69.18)">
			<path id="path188" class="st5" d="M115.7,33.4l1,5c0.1,0.6,0.3,0.8,0.3,0.9c0.1,0.1,0.2,0.3,0.8,0.2c0.3,0,0.5-0.2,0.6-0.4
				c0.1-0.2,0.1-0.6,0-1l-1-5L115.7,33.4L115.7,33.4z M117.6,40.2c-0.5,0-0.8-0.2-1-0.4c-0.2-0.2-0.4-0.6-0.5-1.2l-1.1-5.3l0.3-0.4
				l2.5-0.5l0.4,0.3l1.1,5.3c0.1,0.6,0.1,1.1-0.1,1.4c-0.2,0.4-0.5,0.6-1.1,0.8C117.8,40.2,117.7,40.2,117.6,40.2 M111.8,34.2
				l1.1,5.3c0.1,0.5,0.2,0.8,0.5,1c0.2,0.1,0.5,0.2,0.9,0.1c0.4-0.1,0.7-0.2,0.8-0.5c0-0.1,0-0.2,0-0.4s0-0.4-0.1-0.7l-1.1-5.3
				L111.8,34.2z M113.9,41.3c-0.4,0-0.7-0.1-1-0.3c-0.4-0.3-0.6-0.7-0.7-1.4l-1.1-5.7l0.3-0.4l2.8-0.5l0.4,0.3l1.1,5.6
				c0,0.3,0.1,0.6,0.1,0.8c0,0.2,0,0.5-0.1,0.6v0c-0.2,0.4-0.6,0.7-1.3,0.8C114.2,41.3,114,41.3,113.9,41.3L113.9,41.3z M113.3,41.7
				c0.3,0,0.7,0,1.1,0c0.9-0.2,1.4-0.5,1.6-1.2l0.5-0.2c0.4,0.3,0.9,0.4,1.6,0.2c0.6-0.1,1.1-0.4,1.3-0.9s0.3-1.2,0.1-2.1l-1.1-5.8
				l-8,1.6l1.2,6.1c0.1,0.5,0.2,0.9,0.4,1.2c0.1,0.3,0.3,0.5,0.5,0.7C112.8,41.5,113,41.7,113.3,41.7 M113.7,42.4
				c-0.2,0-0.4,0-0.5,0c-0.5-0.1-0.8-0.3-1.1-0.5c-0.3-0.2-0.5-0.5-0.6-0.9s-0.3-0.8-0.4-1.3l-1.2-6.4c0-0.2,0-0.3,0-0.4
				c0,0,0.1-0.1,0.3-0.2l8.4-1.6c0.2,0,0.3,0,0.4,0c0.1,0,0.1,0.1,0.2,0.3l1.2,5.9c0.2,1.1,0.2,1.9-0.1,2.6
				c-0.3,0.7-0.9,1.1-1.7,1.3c-0.7,0.1-1.4,0.1-1.8-0.1c-0.3,0.6-1,1.1-1.9,1.3C114.3,42.4,114,42.4,113.7,42.4"/>
		</g>
		<g id="g190" transform="translate(71.802 8.9)">
			<path id="path192" class="st5" d="M80.9,215.1c-0.4,0.4-1.3,0.7-2.5,1l-1.6,0.4c-1.1,0.3-2,0.4-2.5,0.2c-0.7-0.1-1.3-0.8-1.6-1.8
				c0-0.1,0-0.1,0.1-0.1l0.8-0.2c0.1,0,0.1,0,0.1,0.1c0.1,0.3,0.2,0.5,0.4,0.7c0.2,0.2,0.4,0.3,0.7,0.3c0.3,0,0.9,0,1.7-0.2l1.4-0.3
				c1-0.2,1.6-0.5,1.9-0.6c0.5-0.3,0.7-0.8,0.6-1.5c-0.2-0.9-1-1.2-2.4-0.9c-0.1,0-0.3,0.1-0.5,0.1c-0.2,0-0.4,0.1-0.7,0.2
				c-0.2,0.1-0.5,0.1-0.6,0.2c-0.2,0-0.3,0.1-0.4,0.1c0,0-0.1,0-0.1-0.1l-0.2-0.8c0-0.1,0-0.1,0-0.1c0.1,0,0.2,0,0.4-0.1
				c0.1,0,0.4,0,0.6-0.1c0.2,0,0.5-0.1,0.6-0.1c0.2,0,0.3,0,0.5-0.1c1.5-0.4,2.1-1,1.9-1.9c0-0.3-0.2-0.5-0.4-0.6
				c-0.2-0.1-0.5-0.2-0.8-0.2c-0.2,0-0.4,0-0.7,0.1c-0.3,0-0.7,0.1-1.1,0.3l-1.2,0.3c-0.8,0.2-1.4,0.4-1.7,0.6
				c-0.5,0.3-0.6,0.8-0.5,1.4c0,0.1,0,0.1-0.1,0.1l-0.8,0.2c-0.1,0-0.1,0-0.1-0.1c-0.2-1-0.1-1.8,0.5-2.3c0.4-0.4,1.2-0.7,2.2-1
				l1.6-0.4c0.6-0.1,1.1-0.3,1.6-0.3c0.4,0,0.8-0.1,1,0c0.9,0.1,1.4,0.7,1.7,1.7c0,0.3,0.1,0.5,0.1,0.7c0,0.2,0,0.4,0,0.5
				c-0.1,0.3-0.2,0.5-0.5,0.7c0.4,0.1,0.6,0.3,0.9,0.5c0.1,0.1,0.2,0.3,0.2,0.5c0.1,0.2,0.1,0.4,0.2,0.7
				C81.7,213.8,81.6,214.6,80.9,215.1"/>
		</g>
		<g id="g194" transform="translate(67.396 10.875)">
			<path id="path196" class="st5" d="M77.6,213.1c0.2,0.8,0.6,1.2,1.2,1.4c0.3,0.1,1,0.1,2.3-0.2l1.6-0.4c1.2-0.3,2-0.6,2.4-0.9
				c0.5-0.4,0.7-1.1,0.5-2.1c0-0.3-0.1-0.5-0.2-0.7c0-0.1-0.1-0.3-0.2-0.4c-0.2-0.2-0.4-0.3-0.7-0.4l-0.1-0.6
				c0.2-0.2,0.3-0.3,0.4-0.5c0-0.1,0.1-0.3,0-0.4c0-0.2,0-0.4-0.1-0.6c-0.2-0.9-0.7-1.4-1.4-1.5c-0.2,0-0.5,0-0.9,0
				c-0.4,0-0.9,0.1-1.5,0.3l-1.6,0.4c-1,0.2-1.7,0.5-2.1,0.9c-0.5,0.5-0.6,1.1-0.5,1.8l0.5-0.1c-0.1-0.6,0.1-1.2,0.7-1.6
				c0.4-0.2,1-0.5,1.8-0.6l1.2-0.3c0.5-0.1,0.9-0.2,1.1-0.3c0.3,0,0.6-0.1,0.8-0.1c0.4,0,0.7,0.1,1,0.2c0.3,0.2,0.5,0.5,0.6,0.8
				c0.1,0.5,0,1.1-0.4,1.5c-0.4,0.4-0.9,0.6-1.7,0.8c-0.1,0-0.3,0-0.5,0.1c-0.2,0-0.4,0.1-0.6,0.1c-0.2,0-0.4,0.1-0.6,0.1h-0.1
				l0.1,0.5c0,0,0.1,0,0.1,0l1.2-0.4c0.2,0,0.4-0.1,0.5-0.1c0.9-0.2,1.6-0.2,2.1,0.1c0.4,0.2,0.6,0.5,0.7,1.1
				c0.3,1.1-0.3,1.6-0.7,1.9c-0.3,0.2-1,0.4-2,0.6l-1.3,0.3c-0.9,0.2-1.5,0.3-1.8,0.2c-0.3,0-0.6-0.1-0.9-0.4
				c-0.2-0.2-0.3-0.4-0.4-0.6L77.6,213.1L77.6,213.1z M79.4,215.1c-0.3,0-0.5,0-0.7-0.1c-0.9-0.2-1.5-0.9-1.8-2.1
				c0-0.3,0.1-0.5,0.3-0.5l0.8-0.2c0.3,0,0.5,0.1,0.5,0.3c0,0.2,0.2,0.4,0.3,0.5c0.1,0.1,0.2,0.2,0.5,0.2c0.2,0,0.6,0,1.6-0.2
				l1.4-0.3c1.1-0.3,1.6-0.5,1.8-0.6c0.4-0.2,0.5-0.6,0.4-1.1c-0.1-0.3-0.2-0.5-0.4-0.6c-0.3-0.2-0.9-0.2-1.6,0
				c-0.1,0-0.3,0.1-0.5,0.1l-1.3,0.4c-0.2,0-0.3,0.1-0.4,0.1c-0.2,0-0.4,0-0.5-0.4l-0.2-0.8c0-0.1,0-0.3,0-0.4l0.3-0.2
				c0.1,0,0.2,0,0.4-0.1c0.1,0,0.4,0,0.6-0.1c0.2,0,0.5-0.1,0.6-0.1c0.2,0,0.3,0,0.5-0.1c0.7-0.2,1.1-0.4,1.4-0.6
				c0.2-0.2,0.3-0.5,0.2-0.9c0-0.2-0.1-0.4-0.3-0.5c-0.2-0.1-0.4-0.1-0.6-0.1c-0.1,0-0.3,0-0.6,0.1c-0.3,0-0.7,0.1-1.1,0.3l-1.2,0.3
				c-1,0.2-1.4,0.4-1.6,0.5c-0.4,0.2-0.5,0.6-0.4,1.1c0,0.2-0.1,0.5-0.3,0.5l-1,0.2c-0.1,0-0.3,0-0.4,0c-0.1,0-0.2-0.1-0.2-0.3
				c-0.3-1.1,0-2,0.6-2.7c0.5-0.5,1.3-0.8,2.4-1.1l1.6-0.4c0.6-0.1,1.1-0.3,1.6-0.3c0.5,0,0.8-0.1,1.1,0c1,0.1,1.7,0.8,2,2
				c0,0.3,0.1,0.5,0.1,0.8c0,0.2,0,0.5-0.1,0.7c0,0.1-0.1,0.3-0.2,0.5c0.2,0.1,0.4,0.2,0.5,0.4c0.1,0.1,0.2,0.3,0.3,0.5
				c0.1,0.2,0.1,0.5,0.2,0.7c0.3,1.2,0.1,2.2-0.7,2.8c-0.5,0.4-1.3,0.7-2.6,1.1l-1.6,0.4C80.5,215.1,79.9,215.1,79.4,215.1"/>
		</g>
		<g id="g198" transform="translate(63.136 7.108)">
			<path id="path200" class="st5" d="M72.1,220.5c-0.1,0-0.1,0-0.1-0.1l-0.7-7.2l-1.8,2.2c0,0-0.1,0-0.1,0h-0.1l-0.6-0.5
				c0,0,0,0,0-0.1c0,0,0-0.1,0-0.1l2.1-2.7c0,0,0,0,0.1,0l1.3-0.1c0.1,0,0.1,0,0.1,0.1l0.8,8.4c0,0.1,0,0.1-0.1,0.1L72.1,220.5
				L72.1,220.5z"/>
		</g>
		<g id="g202" transform="translate(62.558 11.229)">
			<path id="path204" class="st5" d="M71.5,208.1C71.5,208.1,71.5,208.1,71.5,208.1 M69.3,210.5l0.1,0
				C69.4,210.5,69.4,210.5,69.3,210.5z M71.6,208.9l0.6,0.2l0.6,7l0.5,0l-0.7-8l-1,0.1l-2,2.5l0.3,0.3L71.6,208.9L71.6,208.9z
				 M72.7,216.8c-0.2,0-0.4-0.2-0.5-0.4l-0.6-6.4l-1.3,1.6c-0.1,0-0.2,0.1-0.3,0.1l-0.3-0.1l-0.5-0.5c-0.1,0-0.2-0.2-0.2-0.4
				c0-0.1,0-0.2,0.1-0.4l2.1-2.7c0.1-0.1,0.2-0.2,0.3-0.2l1.2-0.1c0.1,0,0.3,0,0.3,0.1c0,0,0.1,0.1,0.2,0.3l0.8,8.4
				c0,0.2,0,0.3-0.1,0.3c0,0-0.1,0.1-0.3,0.1L72.7,216.8"/>
		</g>
		<g id="g206" transform="translate(57.082 9.184)">
			<path id="path208" class="st5" d="M66,214.3c0-1,0-1.6-0.1-2c-0.1-0.4-0.4-0.6-0.9-0.8c-0.4-0.1-1.1-0.2-2.1-0.3l-1,0
				c-1,0-1.7,0-2.1,0c-0.5,0-0.8,0.3-0.9,0.6c-0.2,0.4-0.3,1.1-0.4,2l0,0.7c0,0.5,0,0.9,0,1.2c0,0.3,0.1,0.6,0.1,0.8
				c0.1,0.4,0.4,0.6,0.9,0.7c0.4,0.1,1.1,0.2,2.1,0.3l1,0c1,0,1.7,0,2.1,0c0.5-0.1,0.8-0.3,0.9-0.6c0.2-0.4,0.3-1.1,0.4-2L66,214.3
				L66,214.3z M66.8,216.6c-0.1,0.4-0.2,0.8-0.3,1.1c-0.1,0.3-0.4,0.5-0.6,0.7c-0.2,0.2-0.5,0.3-0.9,0.4c-0.3,0-0.6,0.1-1.1,0.1
				h-1.6l-1,0c-1.4-0.1-2.3-0.3-2.9-0.5c-0.6-0.3-1-0.8-1.1-1.6c0-0.3-0.1-0.6-0.1-1.1c0-0.5,0-1.1,0-1.8c0-0.6,0.1-1.1,0.2-1.5
				c0.1-0.4,0.2-0.8,0.3-1.1c0.2-0.3,0.4-0.5,0.6-0.7c0.2-0.2,0.5-0.3,0.9-0.4c0.5-0.1,1.4-0.2,2.6-0.1l1,0c1.3,0.1,2.3,0.3,2.9,0.5
				c0.6,0.3,1,0.8,1.1,1.6c0,0.3,0.1,0.6,0.1,1.1s0,1.1,0,1.8C67,215.7,66.9,216.2,66.8,216.6"/>
		</g>
		<g id="g210" transform="translate(54.499 10.582)">
			<path id="path212" class="st5" d="M63.3,210.1c-0.4,0-0.6,0-0.8,0c-0.4,0-0.5,0.2-0.7,0.5c-0.1,0.2-0.3,0.7-0.3,1.9l0,0.7
				c0,0.5,0,0.8,0,1.2c0,0.3,0,0.5,0.1,0.7c0.1,0.3,0.3,0.5,0.6,0.5c0.2,0.1,0.8,0.2,2,0.2l1,0c1.2,0,1.8,0,2,0
				c0.4,0,0.6-0.2,0.7-0.5c0.1-0.2,0.3-0.7,0.3-1.9l0-0.8c0-1.1,0-1.6-0.1-1.9c-0.1-0.3-0.3-0.5-0.6-0.5c-0.2-0.1-0.8-0.2-2-0.3
				l-1,0C64.1,210.1,63.7,210.1,63.3,210.1 M66.3,216.7c-0.3,0-0.7,0-1.2,0l-1,0c-1.1,0-1.7-0.1-2.1-0.3c-0.5-0.1-0.9-0.5-1.1-1
				c-0.1-0.2-0.1-0.5-0.2-0.9v-1.2l0-0.7c0-1,0.2-1.7,0.4-2.1c0.2-0.5,0.6-0.8,1.2-0.8c0.4-0.1,1.1-0.1,2.1,0l1,0
				c1.1,0,1.8,0.1,2.1,0.3c0.5,0.1,0.9,0.5,1.1,1c0.1,0.4,0.2,1.1,0.1,2.1l0,0.7c0,1-0.2,1.7-0.4,2.1c-0.2,0.5-0.6,0.7-1.2,0.8H66.3
				 M62.1,209.1c-0.3,0.1-0.5,0.2-0.7,0.3c-0.2,0.1-0.4,0.4-0.5,0.6s-0.2,0.5-0.3,0.9c-0.1,0.4-0.1,0.9-0.2,1.5c0,0.7,0,1.3,0,1.7
				c0,0.5,0,0.8,0.1,1.1c0.1,0.6,0.5,1.1,1,1.3c0.5,0.3,1.4,0.5,2.7,0.5l1,0c0.6,0,1.1,0,1.5,0c0.4,0,0.7,0,1-0.1v0
				c0.3,0,0.5-0.2,0.7-0.3s0.4-0.4,0.5-0.6c0.1-0.2,0.2-0.5,0.3-1c0.1-0.4,0.1-0.9,0.2-1.5c0-0.7,0-1.3,0-1.7c0-0.5,0-0.8-0.1-1.1
				c-0.1-0.6-0.5-1.1-1-1.3c-0.5-0.3-1.5-0.5-2.7-0.5l-1,0C63.4,208.9,62.6,208.9,62.1,209.1 M66.1,217.8c-0.3,0-0.7,0-1.1,0l-1,0
				c-1.5-0.1-2.4-0.3-3-0.6c-0.7-0.3-1.1-0.9-1.3-1.7c0-0.3-0.1-0.7-0.1-1.2c0-0.5,0-1.1,0-1.8c0-0.6,0.1-1.1,0.2-1.6
				c0.1-0.5,0.2-0.8,0.4-1.1c0.2-0.3,0.4-0.6,0.7-0.8c0.3-0.2,0.6-0.4,1-0.5c0.6-0.1,1.5-0.2,2.7-0.1l1,0c1.4,0.1,2.4,0.3,3,0.6
				c0.7,0.4,1.1,1,1.3,1.8c0,0.3,0.1,0.7,0.1,1.2c0,0.5,0,1.1,0,1.8c0,0.6-0.1,1.1-0.2,1.6c-0.1,0.5-0.2,0.8-0.4,1.1
				c-0.2,0.3-0.4,0.5-0.6,0.8c-0.3,0.2-0.6,0.4-1,0.5v0l-0.1,0c-0.2,0-0.5,0.1-1,0.1H66.1"/>
		</g>
		<g id="g214" transform="translate(48.571 9.932)">
			<path id="path216" class="st5" d="M57.3,212c-0.3,0.3-0.6,0.5-1.1,0.6c-0.3,0.1-0.7,0.1-1.1,0.1c-0.4,0-0.9-0.1-1.5-0.2l-0.6-0.1
				l-0.1,0c0,0,0,0-0.1,0c0,0,0,0-0.1,0c0,0,0,0-0.1,0c0,0,0,0,0,0l-0.2,0c-0.1,0-0.2-0.1-0.3-0.1c-0.1,0-0.2,0-0.3,0
				c-0.8-0.2-1.5-0.3-1.9-0.2c-0.2,0.1-0.5,0.2-0.6,0.4c-0.2,0.2-0.3,0.4-0.4,0.7l-0.1,0.5l7.8,1.9c0.1,0,0.1,0.1,0.1,0.1l-0.2,0.9
				c0,0.1,0,0.1-0.1,0.1l-8.8-2.1c0,0-0.1,0,0-0.1l0.4-1.4c0.3-1,0.8-1.6,1.6-1.9c0.6-0.1,1.5-0.1,2.6,0.2c0.1,0,0.2,0,0.4,0.1
				c0.1,0,0.3,0.1,0.5,0.1s0.4,0.1,0.5,0.1c0.1,0,0.3,0,0.4,0.1c0.9,0.2,1.5,0.3,2,0.2c0.5-0.1,0.9-0.5,1.1-1.1
				c0.1-0.4,0.1-0.7,0-1.1c-0.1-0.3-0.2-0.5-0.5-0.7c-0.3-0.2-1-0.5-2-0.7l-1-0.2c-0.5-0.1-0.9-0.2-1.2-0.2c-0.3,0-0.5-0.1-0.7-0.1
				c-0.4,0-0.6,0-0.8,0.2c-0.2,0.2-0.4,0.4-0.4,0.7c0,0.1-0.1,0.1-0.2,0.1l-0.9-0.2c-0.1,0-0.1,0-0.1-0.1c0.3-1.1,0.9-1.6,1.9-1.7
				c0.6-0.1,1.5,0,2.7,0.3l1,0.2c0.7,0.2,1.2,0.3,1.7,0.5s0.8,0.4,1,0.6c0.3,0.3,0.5,0.7,0.6,1.1c0.1,0.5,0,1-0.1,1.6
				C57.8,211.3,57.6,211.7,57.3,212"/>
		</g>
		<g id="g218" transform="translate(45.008 11.86)">
			<path id="path220" class="st5" d="M51.5,212l8.4,2.1l0.1-0.5l-7.6-1.9l-0.2-0.4l0.1-0.5c0.1-0.4,0.2-0.6,0.5-0.9
				c0.2-0.2,0.5-0.4,0.8-0.5l0,0v0c0.5-0.1,1.1,0,2,0.2l0.3,0c0.1,0,0.2,0,0.4,0.1l0.3,0.1c0.1,0,0.1,0,0.2,0l0.8,0.2
				c0.5,0.1,1,0.2,1.4,0.2c0.4,0,0.7,0,1-0.1c0.4-0.1,0.6-0.3,0.9-0.5c0.2-0.3,0.4-0.6,0.5-1.1c0.1-0.6,0.2-1.1,0.1-1.5
				c-0.1-0.4-0.3-0.7-0.5-1c-0.2-0.2-0.5-0.4-0.9-0.5c-0.5-0.2-1-0.3-1.6-0.5l-1-0.2c-1.2-0.3-2-0.4-2.6-0.3
				c-0.8,0.1-1.3,0.5-1.6,1.3l0.5,0.1c0.1-0.3,0.3-0.5,0.5-0.7c0.3-0.2,0.6-0.3,1.1-0.3c0.2,0,0.5,0,0.8,0.1c0.3,0,0.7,0.1,1.2,0.2
				l1,0.2c1.1,0.3,1.8,0.5,2.1,0.8c0.3,0.2,0.5,0.5,0.6,0.9c0.1,0.4,0.1,0.8,0,1.2c-0.2,0.7-0.6,1.2-1.3,1.3c-0.5,0.1-1.2,0-2.1-0.2
				l-0.4-0.1c-0.1,0-0.3-0.1-0.5-0.1c-0.2,0-0.3-0.1-0.5-0.1l-0.4-0.1c-1.1-0.3-1.8-0.3-2.4-0.2c-0.7,0.2-1.2,0.7-1.4,1.6L51.5,212
				L51.5,212z M60,214.8h-0.1l-8.8-2.1c-0.2,0-0.4-0.2-0.3-0.5l0.4-1.4c0.3-1.1,0.9-1.9,1.9-2.1c0.7-0.1,1.6-0.1,2.7,0.2l0.3,0.1
				c0.1,0,0.3,0.1,0.5,0.1c0.2,0,0.4,0.1,0.5,0.1l0.4,0.1c0.8,0.2,1.4,0.2,1.8,0.2c0.5-0.1,0.7-0.3,0.8-0.8c0.1-0.4,0.1-0.6,0-0.9
				c0-0.2-0.2-0.4-0.4-0.5c-0.2-0.1-0.7-0.4-1.9-0.6l-1-0.2c-0.5-0.1-0.8-0.2-1.1-0.2c-0.3,0-0.5-0.1-0.7-0.1c-0.3,0-0.5,0-0.6,0.2
				c-0.1,0.1-0.3,0.3-0.3,0.5c0,0.1-0.1,0.2-0.2,0.3c-0.1,0-0.2,0.1-0.4,0l-0.9-0.2c-0.1,0-0.2-0.1-0.3-0.2c0-0.1-0.1-0.2,0-0.4
				c0.3-1.1,1.1-1.8,2.2-2c0.6-0.1,1.6,0,2.8,0.3l1,0.2c0.7,0.2,1.3,0.4,1.7,0.5c0.5,0.2,0.9,0.4,1.1,0.7c0.4,0.3,0.6,0.8,0.7,1.3
				c0.1,0.5,0.1,1.1-0.1,1.8c-0.1,0.5-0.4,1-0.7,1.4c-0.3,0.4-0.7,0.6-1.2,0.8c-0.4,0.1-0.8,0.1-1.2,0.1s-1-0.1-1.5-0.3l-0.8-0.2
				c0,0-0.1,0-0.1,0c-0.1,0-0.1,0-0.2,0l-0.2,0c-0.1,0-0.2-0.1-0.3-0.1l-0.3,0c-0.8-0.2-1.4-0.3-1.7-0.2c-0.2,0-0.3,0.1-0.4,0.3
				c-0.1,0.1-0.2,0.3-0.3,0.5l0,0.1l7.5,1.8c0.2,0,0.2,0.1,0.3,0.2c0,0.1,0.1,0.2,0,0.4l-0.2,0.9c0,0.2-0.1,0.2-0.2,0.3
				C60.2,214.7,60.1,214.8,60,214.8"/>
		</g>
		<g id="g222" transform="translate(57.2 64.65)">
			<path id="path224" class="st5" d="M66.1,47.1l-15.9,8.6v9.4l8.1-4.4v20.5L43.1,73V47.7l23-12.6v-9.2L35.3,42.5v35.6l30.8,16.8
				L66.1,47.1L66.1,47.1z"/>
		</g>
		<g id="g226" transform="translate(59.28 70.554)">
			<path id="path228" class="st5" d="M68.2,29.3l22.3,12.2v11.8L68.2,41v47.5l7.7-4.2V54.7l22.4,12.2V36.2l-30-16.4V29.3z"/>
		</g>
		<g id="g230" transform="translate(35.854 12.707)">
			<path id="path232" class="st5" d="M44.4,203.6c-52.9-25.1-55.2-87-55.2-87.6l2.6-0.1c0,0.6,2.3,60.9,53.7,85.4L44.4,203.6
				L44.4,203.6z"/>
		</g>
		<g id="g234" transform="translate(79.48 12.707)">
			<path id="path236" class="st5" d="M88.7,203.6l-1.1-2.3c51.4-24.4,53.7-84.8,53.7-85.4l2.6,0.1
				C143.9,116.6,141.5,178.5,88.7,203.6"/>
		</g>
	</g>
</g>
</svg>
