<?xml version="1.0" encoding="utf-8"?>
<!-- Generator: Adobe Illustrator 25.1.0, SVG Export Plug-In . SVG Version: 6.00 Build 0)  -->
<svg version="1.1" xmlns="http://www.w3.org/2000/svg" xmlns:xlink="http://www.w3.org/1999/xlink" x="0px" y="0px"
	 viewBox="0 0 250 250" style="enable-background:new 0 0 250 250;" xml:space="preserve">
<style type="text/css">
	.st0{fill:#120E07;}
	.st1{fill:url(#SVGID_1_);}
	.st2{fill:url(#SVGID_2_);}
	.st3{fill:url(#SVGID_3_);}
	.st4{filter:url(#Adobe_OpacityMaskFilter);}
	.st5{opacity:0.6;mask:url(#e_2_);}
	.st6{fill:#FFCF00;}
	.st7{fill:url(#SVGID_4_);}
	.st8{fill:url(#SVGID_5_);}
	.st9{fill:url(#SVGID_6_);}
	.st10{fill:url(#SVGID_7_);}
	.st11{fill:url(#SVGID_8_);}
	.st12{fill:url(#SVGID_9_);}
	.st13{fill:url(#SVGID_10_);}
	.st14{fill:url(#SVGID_11_);}
	.st15{fill:#EF4134;}
	.st16{fill:url(#SVGID_12_);}
	.st17{fill:url(#SVGID_13_);}
	.st18{fill:url(#SVGID_14_);}
	.st19{fill:url(#SVGID_15_);}
	.st20{fill:url(#SVGID_16_);}
	.st21{fill:url(#SVGID_17_);}
	.st22{fill:url(#SVGID_18_);}
	.st23{fill:url(#SVGID_19_);}
	.st24{fill:#FFFFFF;}
	.st25{fill:url(#SVGID_20_);}
	.st26{fill:url(#SVGID_21_);}
	.st27{fill:url(#SVGID_22_);}
	.st28{fill:url(#SVGID_23_);}
	.st29{fill:url(#SVGID_24_);}
	.st30{fill:url(#SVGID_25_);}
	.st31{fill:none;}
</style>
<g id="Layer_1">
	<g>
		<path class="st0" d="M161.6,221.2c-1,0-2.1-0.1-3.1-0.4c-6.1-1.4-19.1-2.9-33.5-2.9c-14.4,0-27.4,1.5-33.5,2.9
			c-1,0.2-2,0.3-3.1,0.4c-6.2,0-9.9-4.3-10-4.4l-0.2-0.2c-0.1-0.2-0.2-0.3-0.3-0.5l-0.1-0.2l-0.5-1.4l-0.1-0.4l-0.1-0.3l-1.6-4.2
			l-0.5,0.4c-0.6,0.5-3.5,2.8-8.3,4c-1,0.2-1.9,0.4-2.8,0.4c-4.9,0-7.7-3.4-8.6-5.4l-5.2-13.7c-1.1-3,1.4-5.6,3.1-6.8
			c6-4.7,17.2-5.3,21.8-5.3c3.8,0,7,0.3,8.7,0.7c3.8,1,6.1,3.1,7.1,6.6l2,5.7c6.4-1.1,15.1-2.1,32.1-2.1s25.7,1,32.2,2.1l2-5.8
			c1-3.4,3.2-5.5,7-6.5c1.7-0.5,5-0.7,8.7-0.7c4.6,0,15.8,0.5,21.8,5.3c1.7,1.1,4.3,3.8,3.1,6.8l-5.1,13.6c-0.1,0.3-2.4,5.5-8.6,5.5
			c-0.9,0-1.9-0.1-2.8-0.4c-4.9-1.2-7.9-3.7-8.3-3.9l-0.5-0.4l-1.6,4.2l-0.1,0.3l-0.2,0.4l-0.5,1.4l-0.1,0.3
			c-0.1,0.2-0.2,0.4-0.3,0.5l-0.2,0.2C171.4,216.9,167.8,221.2,161.6,221.2L161.6,221.2z"/>
		<path class="st0" d="M202.9,106.8c-0.1-1.7-1.3-3.1-2.9-3.4c-0.2,0-18.2-4.2-25.4-16.5C168,76,181.6,65,182.1,64.5
			c1-0.8,1.5-2,1.4-3.2c-0.1-1.2-0.8-2.3-1.8-3c-1.6-0.9-3.2-1.9-4.8-2.7c1.1-2.2,1.3-4.6,0.7-7.1c-1-3.7-4-7-7.3-8
			c-0.8-0.2-1.6-0.4-2.4-0.4c-2.8,0-5.2,1.6-6,4.1c-0.4,1.3-0.2,2.7,0.4,3.8c-0.5,0.1-1,0.3-1.4,0.5c-1.4-0.5-2.7-0.9-4.1-1.4
			c0.2-1,0.4-2.1,0.4-3.1c0-5.1-2.9-9.9-7.3-12.1c-2.1-1.1-4.4-1.6-6.8-1.6c-0.2,0-0.4,0-0.5,0c0-0.4,0-0.7,0-1.1
			c0-3.7-1.8-6.8-5-8.8c-6.5-4-9.2-8.6-9.2-8.6c-1.1-1.8-3.4-2.4-5.2-1.3c-0.5,0.3-1,0.8-1.3,1.3c0,0-2.8,4.6-9.2,8.6
			c-3.2,2-5,5.1-5,8.8c0,0.4,0,0.7,0,1.1c-0.2,0-0.4,0-0.5,0c-2.4,0-4.7,0.5-6.8,1.6c-4.4,2.3-7.3,7-7.3,12.1c0,1.1,0.2,2.1,0.4,3.1
			c-1.4,0.4-2.7,0.9-4.1,1.4c-0.4-0.3-0.9-0.5-1.4-0.5c0.6-1.1,0.8-2.5,0.4-3.8c-0.7-2.4-3.1-4.1-6-4.1c-0.8,0-1.6,0.1-2.4,0.4
			c-3.3,1-6.3,4.2-7.3,8c-0.7,2.5-0.4,4.9,0.7,7.1c-1.6,0.9-3.2,1.8-4.8,2.7c-1.1,0.6-1.7,1.7-1.8,3c-0.1,1.2,0.4,2.4,1.4,3.2
			C68,64.6,82,75.9,75.5,86.9c-7.3,12.3-25.3,16.4-25.5,16.5c-1.6,0.4-2.8,1.8-2.9,3.4c0,0.8-1,20.5,7.8,47.1
			c8.1,24.4,26.5,59.4,67.9,87.5c0.6,0.4,1.4,0.7,2.1,0.6c0.8,0,1.5-0.2,2.1-0.6c41.4-28.1,59.8-63.1,67.9-87.5
			C203.9,127.3,202.9,107.6,202.9,106.8L202.9,106.8z"/>
		
			<linearGradient id="SVGID_1_" gradientUnits="userSpaceOnUse" x1="58.4002" y1="88.1883" x2="229.252" y2="88.1883" gradientTransform="matrix(0.8682 0 0 -0.8682 0.1318 218.9146)">
			<stop  offset="0.2637" style="stop-color:#FFD200"/>
			<stop  offset="1" style="stop-color:#F5821F"/>
		</linearGradient>
		<path class="st1" d="M149.1,49.1c0,0,14.2,2.7,30.7,12.5c0,0-16.8,13.3-8.5,27.2c8.2,13.9,27.9,18.2,27.9,18.2s4.3,78-74.1,131.3
			l0,0c0,0,0,0,0,0c0,0,0,0,0,0v0C46.6,185,50.9,107,50.9,107s19.6-4.4,27.9-18.2c8.2-13.9-8.5-27.2-8.5-27.2
			c16.5-9.8,30.7-12.5,30.7-12.5s10.7-2.7,24.1-2.7C138.3,46.4,149.1,49.1,149.1,49.1L149.1,49.1z"/>
		
			<linearGradient id="SVGID_2_" gradientUnits="userSpaceOnUse" x1="87.1961" y1="194.729" x2="100.3798" y2="194.729" gradientTransform="matrix(0.8682 0 0 -0.8682 0.1318 218.9146)">
			<stop  offset="0.2637" style="stop-color:#FFD200"/>
			<stop  offset="1" style="stop-color:#F5821F"/>
		</linearGradient>
		<path class="st2" d="M77.8,55.8c0,0,7.3-3.4,9.5-4c0,0-3.3-0.1-4-1.7c-0.7-1.6,0.1-3.1,1.1-3.7c1-0.6-0.2-3.2-3.5-2.2
			C77.5,45.1,73.3,51.1,77.8,55.8z"/>
		<path class="st0" d="M167.4,89.7c-1.5-2.5-2.4-5-2.8-7.4c-11.7-4.8-26-7.9-39.6-7.9c-13.6,0-27.9,3.2-39.6,7.9
			c-0.5,2.4-1.4,4.9-2.8,7.4c-7.1,11.9-20.6,17.9-27.9,20.4c0.2,7.2,1.5,22.5,7.8,41c11.2,33.1,32.2,60.8,62.6,82.4
			c30.4-21.6,51.4-49.3,62.6-82.4c6.3-18.5,7.5-33.9,7.8-41C188.1,107.6,174.5,101.7,167.4,89.7L167.4,89.7z"/>
		
			<linearGradient id="SVGID_3_" gradientUnits="userSpaceOnUse" x1="111.3148" y1="154.2816" x2="189.9595" y2="30.4065" gradientTransform="matrix(0.8682 0 0 -0.8682 0.1318 218.9146)">
			<stop  offset="0.2747" style="stop-color:#EE3423"/>
			<stop  offset="1" style="stop-color:#AD2213"/>
		</linearGradient>
		<path class="st3" d="M125,229.9c-29-21.1-49.1-47.9-59.9-79.7c-5.6-16.5-7.1-30.3-7.5-38.1c8-3,20.5-9.2,27.4-20.9
			c1.3-2.2,2.2-4.4,2.8-6.7c11.8-4.6,25.2-7.1,37.1-7.1c11.9,0,25.3,2.6,37.1,7.1c0.6,2.3,1.6,4.6,2.8,6.7
			c6.9,11.7,19.4,17.9,27.4,20.9c-0.4,7.8-2,21.6-7.5,38.1C174.1,182,154,208.9,125,229.9L125,229.9z"/>
		<defs>
			<filter id="Adobe_OpacityMaskFilter" filterUnits="userSpaceOnUse" x="57.6" y="77.3" width="134.8" height="152.6">
				<feColorMatrix  type="matrix" values="1 0 0 0 0  0 1 0 0 0  0 0 1 0 0  0 0 0 1 0"/>
			</filter>
		</defs>
		<mask maskUnits="userSpaceOnUse" x="57.6" y="77.3" width="134.8" height="152.6" id="e_2_">
			<g class="st4">
			</g>
		</mask>
		<g class="st5">
			<path d="M125,229.9c-29-21.1-49.1-47.9-59.9-79.7c-5.6-16.5-7.1-30.3-7.5-38.1c8-3,20.5-9.2,27.4-20.9c1.3-2.2,2.2-4.4,2.8-6.7
				c11.8-4.6,25.2-7.1,37.1-7.1c11.9,0,25.3,2.6,37.1,7.1c0.6,2.3,1.6,4.6,2.8,6.7c6.9,11.7,19.4,17.9,27.4,20.9
				c-0.4,7.8-2,21.6-7.5,38.1C174.1,182,154,208.9,125,229.9L125,229.9z"/>
		</g>
		<path class="st0" d="M192.4,112.1c-8-3-20.5-9.2-27.4-20.9c-0.3-0.4-0.5-0.9-0.7-1.3l-95.4,70c5.2,12.5,11.9,24.3,20.1,35.1
			l102.9-76C192.1,116.3,192.3,114,192.4,112.1L192.4,112.1z"/>
		<path class="st6" d="M190.8,165C190.8,164.9,190.8,164.9,190.8,165C190.8,164.9,190.8,164.9,190.8,165z"/>
		
			<linearGradient id="SVGID_4_" gradientUnits="userSpaceOnUse" x1="187.2741" y1="194.729" x2="200.4558" y2="194.729" gradientTransform="matrix(0.8682 0 0 -0.8682 0.1318 218.9146)">
			<stop  offset="0.2637" style="stop-color:#FFD200"/>
			<stop  offset="1" style="stop-color:#F5821F"/>
		</linearGradient>
		<path class="st7" d="M172.2,55.8c0,0-7.3-3.4-9.5-4c0,0,3.3-0.1,4-1.7c0.7-1.6-0.1-3.1-1.1-3.7c-1-0.6,0.2-3.2,3.5-2.2
			C172.5,45.1,176.7,51.1,172.2,55.8L172.2,55.8z"/>
		
			<linearGradient id="SVGID_5_" gradientUnits="userSpaceOnUse" x1="91.5135" y1="173.9298" x2="196.1405" y2="173.9298" gradientTransform="matrix(0.8682 0 0 -0.8682 0.1318 218.9146)">
			<stop  offset="0" style="stop-color:#790B00"/>
			<stop  offset="0.2582" style="stop-color:#EE3423"/>
			<stop  offset="0.7747" style="stop-color:#EE3423"/>
			<stop  offset="1" style="stop-color:#790B00"/>
		</linearGradient>
		<path class="st8" d="M79.6,68.6c1.4,1.9,2.8,4.4,3.4,7.6c12.1-5.4,26.7-8.4,42-8.4c15.3,0,29.9,2.9,42,8.4
			c0.7-3.2,2.1-5.8,3.4-7.6c-12.9-5.6-28.6-8.9-45.4-8.9C108.2,59.6,92.5,62.9,79.6,68.6z"/>
		
			<linearGradient id="SVGID_6_" gradientUnits="userSpaceOnUse" x1="95.8135" y1="166.6795" x2="191.8411" y2="166.6795" gradientTransform="matrix(0.8682 0 0 -0.8682 0.1318 218.9146)">
			<stop  offset="0" style="stop-color:#790B00"/>
			<stop  offset="0.2582" style="stop-color:#EE3423"/>
			<stop  offset="0.7747" style="stop-color:#EE3423"/>
			<stop  offset="1" style="stop-color:#790B00"/>
		</linearGradient>
		<path class="st9" d="M125,70.4c15.3,0,29.7,3,41.6,8.6c0-0.4,0-0.7,0.1-1.1c-12-5.5-26.4-8.5-41.7-8.5c-15.3,0-29.7,3-41.7,8.5
			c0,0.3,0.1,0.7,0.1,1.1C95.3,73.4,109.7,70.4,125,70.4L125,70.4z"/>
		
			<linearGradient id="SVGID_7_" gradientUnits="userSpaceOnUse" x1="89.4612" y1="180.6152" x2="198.1921" y2="180.6152" gradientTransform="matrix(0.8682 0 0 -0.8682 0.1318 218.9146)">
			<stop  offset="0" style="stop-color:#790B00"/>
			<stop  offset="0.2582" style="stop-color:#EE3423"/>
			<stop  offset="0.7747" style="stop-color:#EE3423"/>
			<stop  offset="1" style="stop-color:#790B00"/>
		</linearGradient>
		<path class="st10" d="M125,58c17.2,0,33.3,3.4,46.5,9.2c0.2-0.3,0.5-0.5,0.7-0.8C158.8,60.5,142.5,57,125,57
			c-17.5,0-33.8,3.5-47.2,9.4c0.2,0.2,0.5,0.5,0.7,0.8C91.7,61.4,107.8,58,125,58L125,58z"/>
		<path class="st0" d="M125,94.5l-1.4-1.6c-4.5-5.1-13-5.3-13.9-5.3h-3.1l1.4-2.8c0.5-0.9,1-2.5,0.8-3.2c0-0.1-0.1-0.1-0.2-0.2
			c-0.1-0.1-0.3-0.1-0.4-0.1c-0.5,0-1.5,1.1-2.4,2.1c-1.8,2-4.2,4.8-8.4,5.5c-0.9,0.2-1.7,0.3-2.6,0.3c-6.5,0-9.5-5-9.7-5.2L84,82.2
			l2-0.8c7.3-3.1,23.8-8.2,39-8.2c15.2,0,31.6,5.2,39,8.2l2,0.8l-1.1,1.9c-0.1,0.2-3.2,5.2-9.7,5.2h0c-0.8,0-1.7-0.1-2.6-0.3
			c-4.1-0.8-6.6-3.5-8.4-5.5c-0.9-1-1.9-2.1-2.4-2.1c-0.1,0-0.3,0.1-0.4,0.1c-0.1,0.1-0.1,0.1-0.2,0.2c-0.2,0.7,0.3,2.3,0.8,3.2
			l1.5,2.8l-3.3,0c-0.9,0-9.4,0.1-13.9,5.3L125,94.5L125,94.5z"/>
		<path class="st0" d="M125,96.2l-1.4-1.6c-4.5-5.1-13-5.3-13.9-5.3h-3.1v-1.7c0.5-0.9,2.4-3.6,2.2-4.3c0-0.1-0.1-0.1-0.2-0.2
			c-0.1-0.1-0.3-0.1-0.4-0.1c-0.5,0-1.5,1.1-2.4,2.1c-1.8,2-4.2,4.8-8.4,5.5c-0.8,0.2-1.7,0.2-2.6,0.2c-6.5,0-9.5-5-9.7-5.2L84,83.9
			v-1.7c7.3-3.1,25.8-7.3,41-7.4c15.2,0,33.6,4.3,41,7.4v1.7l-1.1,1.9c-0.1,0.2-3.2,5.2-9.7,5.2h0c-0.8,0-1.7-0.1-2.6-0.2
			c-4.1-0.8-6.6-3.5-8.4-5.5c-0.9-1-1.9-2.1-2.4-2.1c-0.1,0-0.3,0.1-0.4,0.1c-0.1,0.1-0.1,0.1-0.2,0.2c-0.2,0.7,1.8,3.4,2.3,4.3v1.7
			l-3.3,0c-0.9,0-9.4,0.1-13.9,5.3L125,96.2z"/>
		
			<linearGradient id="SVGID_8_" gradientUnits="userSpaceOnUse" x1="99.7845" y1="156.1485" x2="187.9169" y2="156.1485" gradientTransform="matrix(0.8682 0 0 -0.8682 0.1318 218.9146)">
			<stop  offset="0" style="stop-color:#790B00"/>
			<stop  offset="0.2582" style="stop-color:#EE3423"/>
			<stop  offset="0.7747" style="stop-color:#EE3423"/>
			<stop  offset="1" style="stop-color:#790B00"/>
		</linearGradient>
		<path class="st11" d="M125,75c-15.4,0-31.8,5.4-38.3,8.1c0,0,3.2,5.4,10.3,4c7-1.3,8.4-9.4,12.4-7.4c2.7,1.4,0.2,6,0.2,6
			s10.1-0.2,15.5,5.9c5.4-6.1,15.5-5.9,15.5-5.9s-2.5-4.6,0.2-6c4-2,5.4,6,12.4,7.4c7,1.4,10.3-4,10.3-4
			C156.8,80.4,140.4,75.1,125,75z"/>
		<path class="st0" d="M125,87l-0.4-0.1c-5.3-1-8.5-3.1-9.6-6.3c-1-2.8,0.1-5.7,1.5-7.4c0.3-0.3,0.6-0.7,0.8-1l-2.4-0.9
			c-2.7-1-7.5-4.5-6.6-9.9c0.6-3.4,3.2-5.4,7.1-5.4c0.3,0,0.5,0,0.8,0c-0.4-2-1.6-4.4-3.1-6c-0.9-1-2.4-2.3-4.2-2.3
			c-0.2,0-0.4,0-0.6,0c-4,0.6-3.5,5.3-3.5,5.5l0.4,3.5l-3.1-1.6c-4.7-2.4-7.4-6.4-7.4-11.1c0-4.4,2.5-8.5,6.3-10.5
			c1.8-0.9,3.8-1.4,5.9-1.4c1,0,2,0.1,2.8,0.3c-0.3-1-0.5-2.1-0.5-3.2c0-3,1.5-5.6,4.2-7.2c6.9-4.3,9.8-9.2,9.9-9.3L125,10l1.6,2.8
			c0,0.1,2.9,5,9.9,9.3c2.6,1.6,4.1,4.2,4.2,7.2c0,1.1-0.1,2.2-0.5,3.2c0.9-0.2,1.9-0.3,2.8-0.3c2.1,0,4.1,0.5,5.9,1.4
			c3.8,2,6.3,6.1,6.3,10.5c0,4.6-2.7,8.7-7.4,11.1l-3.1,1.6l0.4-3.5c0.1-0.5,0.4-4.9-3.5-5.5c-0.2,0-0.4,0-0.6,0
			c-1.8,0-3.3,1.2-4.2,2.3c-1.5,1.6-2.7,4-3.1,6c0.3,0,0.5,0,0.8,0c4,0,6.5,2,7.1,5.4c0.9,5.5-3.9,8.9-6.6,9.9l-2.4,0.9
			c0.3,0.4,0.6,0.7,0.8,1c1.5,1.7,2.5,4.7,1.5,7.4c-1.1,3.2-4.4,5.3-9.6,6.3L125,87L125,87z M132.1,67.5c-0.2,0-0.6,0-1.1,0.3
			c-0.3,0.1-0.3,0.2-0.3,0.2c-0.1,0.5,0.2,1.8,1.5,3.7l0.2-2.4C132.6,68.6,132.4,67.7,132.1,67.5L132.1,67.5L132.1,67.5z
			 M117.9,67.5c-0.3,0.2-0.5,1.1-0.4,1.8l0.2,2.4c1.3-1.8,1.6-3.1,1.5-3.6c0-0.1,0-0.1-0.3-0.3C118.4,67.6,118.1,67.5,117.9,67.5
			L117.9,67.5z"/>
		
			<linearGradient id="SVGID_9_" gradientUnits="userSpaceOnUse" x1="111.1622" y1="195.2436" x2="176.4902" y2="195.2436" gradientTransform="matrix(0.8682 0 0 -0.8682 0.1318 218.9146)">
			<stop  offset="0.2637" style="stop-color:#FFD200"/>
			<stop  offset="1" style="stop-color:#F5821F"/>
		</linearGradient>
		<path class="st12" d="M148.1,35.3c-5.9-3-12,0.5-12.7,1c2.7-1.5,6.1-9,0.2-12.6C128,19,125,13.7,125,13.7s-3,5.3-10.5,9.9
			c-5.9,3.7-2.5,11.2,0.2,12.6c-0.8-0.5-6.9-4-12.7-1c-6.4,3.3-8.1,13.5,1.1,18.2c0,0-0.8-6.7,5.1-7.6c5.9-0.9,10.6,7.5,10.2,12.3
			c0,0-7.2-2-8.1,3.4c-0.9,5.4,5.4,7.9,5.4,7.9s-0.5-5.3,4-3.4c2.8,1.2,1.2,4.9-1.7,8.3c-1.9,2.3-3.7,8.6,7,10.7l0-0.1l0,0.1
			c10.7-2.1,9-8.4,7-10.7c-2.9-3.4-4.5-7.2-1.7-8.3c4.5-1.9,4,3.4,4,3.4s6.3-2.5,5.4-7.9c-0.9-5.4-8.1-3.4-8.1-3.4
			c-0.4-4.8,4.4-13.2,10.2-12.3c5.9,0.9,5.1,7.6,5.1,7.6C156.1,48.8,154.4,38.5,148.1,35.3L148.1,35.3z"/>
		
			<linearGradient id="SVGID_10_" gradientUnits="userSpaceOnUse" x1="130.513" y1="223.4195" x2="158.5748" y2="176.979" gradientTransform="matrix(0.8682 0 0 -0.8682 0.1318 218.9146)">
			<stop  offset="0.2747" style="stop-color:#EE3423"/>
			<stop  offset="1" style="stop-color:#AD2213"/>
		</linearGradient>
		<path class="st13" d="M125,83.2c-3.6-0.7-5.9-2.1-6.5-3.8c-0.5-1.6,0.3-3.1,0.8-3.8c1.6-1.9,4.2-5.5,3.5-8.5
			c-0.3-1.3-1.2-2.3-2.5-2.8c-0.9-0.4-1.7-0.6-2.5-0.6c-1.2,0-2.2,0.4-2.9,1.2c-0.4,0.4-0.7,0.9-0.9,1.4c-1.2-1-2.4-2.5-2.1-4.6
			c0.1-0.7,0.4-2.2,3.4-2.2c1.2,0,2.3,0.3,2.3,0.3l2.2,0.6l0.2-2.2c0.3-3.4-1.5-7.9-4.2-10.9c-2.1-2.3-4.5-3.5-7-3.5
			c-0.4,0-0.8,0-1.2,0.1c-4.1,0.6-5.8,3.4-6.4,6.1c-2.4-2.1-2.8-4.6-2.8-6.1c0-3,1.7-5.8,4.3-7.1c1.3-0.7,2.7-1,4.2-1
			c3.1,0,5.8,1.4,6.5,1.8l2-3.2c-1-0.6-2.4-2.9-2.4-5.3c0-1.7,0.8-3.1,2.4-4.1c4.8-3,7.8-6.2,9.5-8.3c1.7,2.1,4.7,5.3,9.5,8.3
			c1.6,1,2.4,2.3,2.4,4.1c0,2.4-1.4,4.6-2.4,5.3l2,3.2c0.7-0.4,3.4-1.8,6.5-1.8c1.5,0,2.9,0.3,4.2,1c2.6,1.3,4.3,4.1,4.3,7.1
			c0,1.5-0.4,3.9-2.8,6.1c-0.6-2.7-2.4-5.5-6.4-6.1c-0.4-0.1-0.8-0.1-1.2-0.1c-2.5,0-4.9,1.2-7,3.5c-2.8,3-4.5,7.5-4.2,10.9l0.2,2.2
			l2.2-0.6c0,0,1.1-0.3,2.3-0.3c3.1,0,3.3,1.6,3.4,2.2c0.3,2.1-0.9,3.6-2.1,4.6c-0.2-0.5-0.5-1-0.9-1.4c-0.7-0.8-1.7-1.2-2.9-1.2
			c-0.8,0-1.6,0.2-2.5,0.6c-1.3,0.5-2.2,1.6-2.5,2.8c-0.7,3,1.9,6.6,3.5,8.5c0.5,0.6,1.4,2.2,0.8,3.8
			C130.8,81.1,128.6,82.5,125,83.2L125,83.2z"/>
		<path class="st0" d="M125,63.4c-9,0-16.4-7.3-16.4-16.4c0-9,7.4-16.4,16.4-16.4c9,0,16.4,7.4,16.4,16.4
			C141.4,56,134,63.4,125,63.4z"/>
		
			<linearGradient id="SVGID_11_" gradientUnits="userSpaceOnUse" x1="127.1015" y1="198.0325" x2="160.5549" y2="198.0325" gradientTransform="matrix(0.8682 0 0 -0.8682 0.1318 218.9146)">
			<stop  offset="0.2637" style="stop-color:#FFD200"/>
			<stop  offset="1" style="stop-color:#F5821F"/>
		</linearGradient>
		<path class="st14" d="M139.5,47c0,8-6.5,14.5-14.5,14.5c-8,0-14.5-6.5-14.5-14.5c0-8,6.5-14.5,14.5-14.5
			C133,32.5,139.5,39,139.5,47z"/>
		<path class="st0" d="M137.9,47c0,7.1-5.8,12.9-12.9,12.9c-7.1,0-12.9-5.8-12.9-12.9c0-7.1,5.8-12.9,12.9-12.9
			C132.1,34.1,137.9,39.9,137.9,47z"/>
		<path class="st15" d="M136.2,45.2c0,0-1.2,6.1-5.7,6.8c-2.4,0.4-3.7-0.7-3.7-1.6c0.3-0.2,0.6-0.4,0.9-0.6c0.8,0.4,2.5,0.9,4.3-0.1
			c2.4-1.4,4.3-6.2,1.7-10c-2.5-3.6-6.8-5-10.4-4c0,0,6.1,1.2,6.8,5.7c0.4,2.4-0.7,3.7-1.6,3.7c-0.2-0.3-0.4-0.6-0.6-0.9
			c0.4-0.8,0.9-2.5-0.1-4.3c-1.4-2.4-6.2-4.3-10-1.7c-3.6,2.5-5,6.8-4,10.4c0,0,1.2-6.1,5.7-6.8c2.4-0.4,3.7,0.7,3.7,1.6
			c-0.3,0.2-0.6,0.4-0.9,0.6c-0.8-0.4-2.5-0.9-4.3,0.1c-2.4,1.4-4.3,6.2-1.7,10c2.5,3.6,6.8,5,10.4,4c0,0-6.1-1.2-6.8-5.7
			c-0.4-2.4,0.7-3.7,1.6-3.7c0.2,0.3,0.4,0.6,0.6,0.9c-0.4,0.8-0.9,2.5,0.1,4.3c1.4,2.4,6.2,4.3,10,1.7
			C135.8,53.1,137.2,48.8,136.2,45.2L136.2,45.2z M121.8,46.9c0-1.7,1.4-3.2,3.2-3.2c0,0,0,0,0,0c1.7,0,3.2,1.4,3.2,3.2
			c0,1.7-1.4,3.2-3.2,3.2C123.3,50.1,121.8,48.7,121.8,46.9z"/>
		<path class="st0" d="M77.5,61.2c0,0.8-0.7,1.5-1.5,1.5c-0.8,0-1.5-0.6-1.5-1.4c0-0.8,0.6-1.5,1.4-1.5c0,0,0.1,0,0.1,0
			C76.9,59.7,77.5,60.4,77.5,61.2z M87.2,56.7c0,0.8-0.7,1.5-1.5,1.5s-1.5-0.7-1.5-1.5c0-0.8,0.7-1.5,1.5-1.5S87.2,55.9,87.2,56.7z
			 M97.2,53.2c0,0.8-0.7,1.5-1.5,1.5c-0.8,0-1.5-0.7-1.5-1.5c0-0.8,0.7-1.5,1.5-1.5S97.2,52.3,97.2,53.2z M109.1,50.6
			c0,0.8-0.7,1.5-1.5,1.5c-0.8,0-1.5-0.7-1.5-1.5l0,0c0-0.8,0.7-1.5,1.5-1.5C108.4,49.1,109.1,49.8,109.1,50.6z"/>
		<circle class="st0" cx="174" cy="61.2" r="1.5"/>
		<path class="st0" d="M162.8,56.7c0,0.8,0.7,1.5,1.5,1.5c0.8,0,1.5-0.7,1.5-1.5c0,0,0,0,0,0c0-0.8-0.7-1.5-1.5-1.5c0,0,0,0,0,0
			C163.5,55.2,162.8,55.9,162.8,56.7z M152.8,53.2c0,0.8,0.7,1.5,1.5,1.5c0.8,0,1.5-0.7,1.5-1.5c0-0.8-0.7-1.5-1.5-1.5
			S152.8,52.3,152.8,53.2z M140.9,50.6c0,0.8,0.7,1.5,1.5,1.5c0.8,0,1.5-0.7,1.5-1.5c0,0,0,0,0,0c0-0.8-0.7-1.5-1.5-1.5
			C141.6,49.1,140.9,49.8,140.9,50.6z M189.2,114.7c0,0-0.6,9.9-15.9,9.9h-15.4l0.6,1.4h15.4c15.3,0,15.9-9.9,15.9-9.9L189.2,114.7z
			"/>
		
			<linearGradient id="SVGID_12_" gradientUnits="userSpaceOnUse" x1="119.6246" y1="130.6053" x2="130.2819" y2="112.2842" gradientTransform="matrix(0.8682 0 0 -0.8682 0.1318 218.9146)">
			<stop  offset="0.2637" style="stop-color:#FFD200"/>
			<stop  offset="1" style="stop-color:#F5821F"/>
		</linearGradient>
		<path class="st16" d="M74.8,124.6c-0.1,0.5,0.1,0.9,0.4,1.2c0.2,0.2,0.5,0.4,0.9,0.4c0.9,0,1.8-0.7,2-1.6c0.1-0.6-0.1-1-0.5-1.3
			c-0.2-0.2-0.5-0.3-0.8-0.3C75.8,123,74.9,123.7,74.8,124.6z M73,135.6c0.6-0.3,0.9-0.9,0.5-2c0,0,0,0,0,0c0,0-2.8-0.3-3.1-0.6
			c-0.3-0.3-1.6,0.8-0.2,2.1c0.2,0.2,0.5,0.4,0.8,0.6C71,135.7,72.2,136,73,135.6z M94.9,105.2c-1.4,0.3-0.8,2.8-2.9,6.1
			c-1.1,1.7-2.1,2.3-2.7,2.3c-0.6,0-1-0.4-1-0.8c-0.1-1.1-0.3-2-0.9-2.2c0,0,0,0-0.1,0c0,0,0,0,0,0c-0.2,0-0.4,0-0.7,0.1
			c-1.1,0.5-1,3.6-1.7,5c-0.7,1.5-2.3,2-4.3,2.3c-6.6,0.4-7.1,2.7-7.4,4.2c-0.4,1.6-1.9,1.7-2.5,1.3c-0.6-0.4-2.9-2.5-4.1-0.5
			c-1.2,1.9-0.5,3.6-1.4,5c-0.8,1.3-1,1.9-0.6,2.3c0.1,0.1,0.1,0.1,0.2,0.1c0.6,0.3,0.9,0.2,1.2,1.1c0,0.2,0.1,0.3,0.1,0.6
			c0.1,0.4,0.2,0.7,0.4,0.9c0.5,0.7,1.2,0.6,1.5-0.7c0.3-1.7,1.2-2.2,4.9-1.9c1.2,0.1,1.9,0.6,2.3,1.4c0.9,1.7,0.4,4.3-0.3,5.2
			c-0.9,1.3-5.8,1-7.7,0.8c-1.9-0.3-1.9,2.3-2,3c-0.1,0.5,0.7,2.5,2,3.5c0.3,0.2,0.5,0.3,0.8,0.4c1.8,0.5,1.5-1,2.7-2.2
			c1.1-1.1,7.9,0.1,9,0.3l2.8-13.5c0.5-2.3,1.2-4.6,2.2-6.8c-2,1.8-4.8,1.7-4.8,1.7c0,0.2,0,0.4-0.1,0.6c-0.4,2.1-2.4,3.7-4.5,3.7
			c-0.6,0-1.1-0.1-1.6-0.4c-0.5-0.3-0.9-0.7-1.2-1.3c-0.2-0.3-0.3-0.7-0.3-1.1c0-0.3,0-0.6,0.1-0.9c0.4-2.1,2.4-3.7,4.5-3.7
			c0.2,0,0.3,0,0.4,0c1.9,0.6,6.3,0.7,9.4-2.3c2.5-4.1,5.9-7.5,9.7-10.2c0.1-1.4-0.2-2.4-0.6-2.9C95.6,105.2,95.3,105.1,94.9,105.2z
			 M144.1,94.4l0.1-0.7c0-0.4-0.1-0.7-0.2-1c-0.4-0.8-1.2-1.1-1.2-1.1s-1.6,0.7-1.9,2.1l-0.2,0.8c-5.9,0.1-11.8-0.3-12.3-0.3
			l-1.1,5.5h10.1c9.8,0,15.5-3.1,18-4.8l0.5-2.6c-3.1,1.1-6.9,1.7-10.7,2C144.9,94.4,144.5,94.4,144.1,94.4L144.1,94.4z"/>
		<g>
			<path class="st0" d="M76,126.2c-0.3,0-0.7-0.1-0.9-0.4l0,0c0,0,1.1,1.4,2,1.4c0.9,0,1.8-0.7,2-1.6c0.1-0.6-0.1-1.1-0.6-1.6
				l-0.8-0.8c0,0,0,0,0,0c0.4,0.3,0.6,0.8,0.5,1.3C77.8,125.5,76.9,126.2,76,126.2L76,126.2z M69.1,133.3c0.3-1.7,1.2-2.2,4.9-1.9
				c0.4,0,0.9,0.1,1.3,0.4c-0.4-0.8-1.1-1.3-2.3-1.4c-3.7-0.3-4.6,0.3-4.9,1.9c-0.3,1.3-1,1.4-1.5,0.7
				C67.3,134.3,68.8,135,69.1,133.3z"/>
			<path class="st0" d="M73.9,127.9c-0.1-0.1-0.1-0.2-0.2-0.3c-0.2-0.3-0.3-0.7-0.3-1.1c0-0.3,0-0.6,0.1-0.9
				c0.4-2.1,2.4-3.7,4.5-3.7c0.2,0,0.3,0,0.4,0c1.9,0.6,6.3,0.7,9.4-2.3c2.5-4.1,5.9-7.5,9.7-10.2c0.1-1.5-0.2-2.5-0.7-3
				c0,0-0.5-0.6-0.9-0.9c0.4,0.5,0.7,1.5,0.6,2.9c-3.8,2.7-7.1,6.1-9.7,10.2c-3.1,3.1-7.4,2.9-9.4,2.3c-0.1,0-0.3,0-0.4,0
				c-2.1,0-4.1,1.7-4.5,3.7c-0.1,0.3-0.1,0.6-0.1,0.9c0,0.4,0.1,0.8,0.3,1.1C72.9,127.2,73.4,127.6,73.9,127.9z M82.6,129.1
				l-2.8,13.5c-1.1-0.2-7.9-1.4-9-0.3c-1.1,1.2-0.8,2.7-2.7,2.2c-0.3-0.1-0.6-0.2-0.8-0.4c0.5,0.7,1.1,1.2,1.9,1.4
				c1.8,0.5,1.5-1,2.7-2.2c1.1-1.1,7.9,0.1,9,0.3l2.8-13.5c0.5-2.3,1.2-4.6,2.2-6.8l-1-1C83.8,124.5,83.1,126.8,82.6,129.1
				L82.6,129.1z"/>
			<path class="st0" d="M73,135.6c-0.8,0.3-2,0.1-2,0.1c-0.3-0.2-0.6-0.4-0.8-0.6c0,0,0,0,0,0.1c0.2,0.3,1.3,1.2,1.8,1.6
				c0,0,1.2,0.3,2-0.1c0.6-0.3,0.9-0.9,0.5-2c0,0-0.5-1-0.9-1c0,0-0.1,0-0.1,0C73.9,134.7,73.6,135.4,73,135.6z M138.4,100.8
				c9.8,0,15.5-3.1,18-4.8l0.5-2.6l-1-1l-0.5,2.6c-2.5,1.8-8.2,4.8-18,4.8h-10.1l1,1L138.4,100.8L138.4,100.8z M88.2,112.7
				c0,0.4,0.4,0.9,1,0.8c-0.1-0.9-0.2-1.5-0.6-1.9c0,0-0.9-1.1-1.3-1.2C87.9,110.7,88.2,111.6,88.2,112.7z M144.1,94.4
				c0.4,0,0.8-0.1,1.1-0.1c-0.1-1-0.8-1.4-1.2-1.6c0.1,0.3,0.2,0.6,0.2,1L144.1,94.4L144.1,94.4z M92,156.6
				c-1.7,7.9-1.4,14.2,3,18.1c-3.5-3.9-3.6-9.9-2-17.1l5.2-25.2c2.5-12.1,14.8-19.4,28.3-19.4h13.7c8.5,0,16-1.7,18.8-6.2l1.9-9.1
				l-1-1l-1.9,9.1c-2.7,4.5-10.3,6.2-18.8,6.2h-13.7c-13.5,0-25.8,7.3-28.3,19.4L92,156.6z"/>
			<path class="st0" d="M98.7,170.2c2,2.4,5.5,3.8,10.9,4.5l1.7-8.2l-1-1l-1.7,8.2C104,173.1,100.8,172,98.7,170.2z M130.5,125.6
				h24.6l2.6-12.9c0,0-1-1-1-1l-2.6,12.9h-24.6c-10.9,0-16.2,1.6-18.6,13.3l-3.4,16.7c-1.2,5.5-1.5,8.5,0.8,10.1
				c-1.2-1.7-0.8-4.5,0.2-9l3.4-16.7C114.4,127.1,119.7,125.6,130.5,125.6L130.5,125.6z M64.9,130.4c-0.1,0-0.1-0.1-0.2-0.1
				c0.1,0.3,1,1,1.2,1.2l0.2,0.1C65.8,130.6,65.5,130.7,64.9,130.4z M128.2,174.5l1,1h4.5c5.2,0,9.2,2.3,12.1,5.1
				c-3.1-3.2-7.4-6.1-13.2-6.1H128.2L128.2,174.5z M134.3,150.5h14.5l0.2-1h-15.7L134.3,150.5z M165.1,148.6l1,1
				c4-0.2,7.6-2,10.6-4.7l-1-1C172.6,146.6,169.1,148.4,165.1,148.6z M164.2,141.5c-2.7,5.1-4.8,10.8-6,16.6l-6.5,31.6l1,1l6.5-31.6
				c1.3-5.8,3.3-11.5,6-16.6L164.2,141.5L164.2,141.5z M178.4,141.2h-9.4l1,1h9.4c1.5-1.7,2.9-3.6,4.2-5.6l-1-1
				C181.4,137.6,180,139.5,178.4,141.2z"/>
			<path class="st0" d="M188.9,121.2c-0.8,3.9-2.3,8.3-3.6,9.8c-1,1.2-4.4,2.7-7.5,2.7c-0.7,0-1.2,0.1-1.6,0.3
				c1.8-2.8,2.5-5.1,2.7-6.5c-0.4,0.1-0.8,0.2-1.2,0.3c-1,5-5.6,9.6-8.4,11.8c0,0,0,0-0.1,0.1l0,1.5c2.2-1.6,3.9-3.2,5.2-4.8h0.3
				c0.6-0.8,2.3-1.7,4.2-1.7c3,0,6.5-1.4,7.5-2.7c1.4-1.6,2.8-6,3.6-9.8C189.9,122.3,188.9,121.3,188.9,121.2z M126.3,162l-4.9,24.1
				c-1,4.6,1.2,7.7,3.2,9.6c-1.7-1.9-3-4.7-2.2-8.5l4.9-24.1H143l1.6-8l-1-1l-1.6,8L126.3,162L126.3,162z M164.6,137h-33.1l-3.5,17
				h1.2l3.3-15.9h35.1c0.7,0,1.2,0.1,1.5,0.4C168.8,137.2,167.2,137,164.6,137L164.6,137z M108.6,179.9l-1-1l-1.7,8
				c-8.6-0.5-14.9-3.1-19.1-7c4.2,4.5,10.9,7.5,20.2,8.1L108.6,179.9L108.6,179.9z M104.7,197.7l1,1h23l-1-1H104.7z"/>
			<path class="st0" d="M141.9,183.2c1.7,1.9,2.5,3.7,2.5,3.7h-18.7l1,1h18.7C145.4,187.9,144.3,185.4,141.9,183.2L141.9,183.2z"/>
		</g>
		
			<linearGradient id="SVGID_13_" gradientUnits="userSpaceOnUse" x1="117.6504" y1="128.1062" x2="177.5509" y2="39.6819" gradientTransform="matrix(0.8682 0 0 -0.8682 0.1318 218.9146)">
			<stop  offset="0.1648" style="stop-color:#FFFFFF"/>
			<stop  offset="0.456" style="stop-color:#FFFFFF"/>
			<stop  offset="1" style="stop-color:#94CEF1"/>
		</linearGradient>
		<path class="st17" d="M166.3,129h-48.9c0.5,0.3,0.8,0.7,1.2,1c0.1,0.1,0.3,0.3,0.4,0.5c2.5,3,1.6,6.8,0.8,10.7l-9.7,46.7l0,0
			c-1.3,6.1-5.4,9.9-5.4,9.9h23c0,0-1.5-0.6-3.1-2c-2.1-1.8-4.2-4.9-3.2-9.6l4.9-24.1H142l1.6-8H128l3.5-17h33.1
			c2.6,0,4.3,0.2,4.6,1.4c0.1,0.3,0.1,0.7,0,1.2c0,0,0,0,0,0c2.8-2.2,7.4-6.9,8.4-11.8C174.7,128.5,171,129,166.3,129L166.3,129z
			 M107.6,178.8c-5.9-0.4-9.9-1.9-12.5-4.1c-4.5-3.9-4.7-10.3-3-18.1l5.2-25.2c2.5-12.1,14.8-19.4,28.3-19.4h13.7
			c8.5,0,16-1.7,18.8-6.2l1.9-9.1c0,0-6.7,7.3-22.4,7.3h-15.5c-12.8,0-31.6,8.5-35.2,25.9L81,156.9c-2.1,9.1-0.3,17.3,5.7,22.9
			c4.2,3.9,10.6,6.5,19.1,7C105.9,186.9,107.6,178.8,107.6,178.8z M110.9,137.8c2.4-11.8,7.7-13.3,18.6-13.3h24.6l2.6-12.9
			c0,0-3.6,4.9-17,4.9h-12.2c-11.8,0-23.7,3.1-26.8,18.2l-4.2,20.2c-1.7,7.6-1.4,12.4,2.1,15.3c2.1,1.8,5.3,2.8,9.9,3.5l1.7-8.2
			c-0.8-0.2-1.5-0.5-2-0.9c-2.4-1.6-2-4.5-0.8-10.1L110.9,137.8L110.9,137.8z M132.7,179h-5.5l-1.6,7.9h18.7c0,0-0.8-1.8-2.5-3.7
			C140,181.1,137,179,132.7,179L132.7,179z M133.3,149.5H149l-0.2,1l-3.3,15.9h-15.7l-1.6,8h4.5c5.8,0,10.1,2.9,13.2,6.1
			c4,4.2,5.8,9.1,5.8,9.1l6.5-31.6c1.3-5.8,3.3-11.5,6-16.6h-29.2L133.3,149.5L133.3,149.5z"/>
		<path class="st0" d="M190.5,114.7c0,0-2,9.8-17.3,9.8h-15.4l1,1h15.4c15.3,0,17.3-9.9,17.3-9.9L190.5,114.7L190.5,114.7z"/>
		
			<linearGradient id="SVGID_14_" gradientUnits="userSpaceOnUse" x1="191.373" y1="122.6706" x2="215.8247" y2="100.2563" gradientTransform="matrix(0.8682 0 0 -0.8682 0.1318 218.9146)">
			<stop  offset="0.2637" style="stop-color:#FFD200"/>
			<stop  offset="1" style="stop-color:#F5821F"/>
		</linearGradient>
		<path class="st18" d="M186.3,114.7c-1.9,6.8-5.5,8.3-13.9,5c-6.8-2.7-13-3.2-13-3.2l-1.6,8.1h15.4c15.3,0,17.3-9.8,17.3-9.8
			L186.3,114.7L186.3,114.7z"/>
		
			<linearGradient id="SVGID_15_" gradientUnits="userSpaceOnUse" x1="184.0836" y1="114.7128" x2="208.5311" y2="92.3024" gradientTransform="matrix(0.8682 0 0 -0.8682 0.1318 218.9146)">
			<stop  offset="0.2637" style="stop-color:#FFD200"/>
			<stop  offset="1" style="stop-color:#F5821F"/>
		</linearGradient>
		<path class="st19" d="M165.1,148.6c4-0.2,7.6-2,10.6-4.7h-8.3C166.5,145.4,165.7,146.9,165.1,148.6z M178.8,127.5
			c-0.2,1.4-0.9,3.8-2.7,6.5c0.5-0.2,1-0.3,1.6-0.3c3,0,6.5-1.4,7.5-2.7c1.4-1.6,2.8-6,3.6-9.8C186.7,123.4,184.2,125.9,178.8,127.5
			z M174.3,136.4c-1.3,1.5-3,3.2-5.2,4.8h9.4c1.5-1.7,2.9-3.6,4.2-5.6c-1.5,0.5-3,0.8-4.5,0.8H174.3L174.3,136.4z"/>
		<path class="st0" d="M195.7,189.8c-5.5-4.4-16.3-4.9-20.7-4.9c-3.4,0-6.6,0.2-8.3,0.7c-3,0.8-4.9,2.3-5.8,5.3l-2.6,7.4
			c-6.2-1.2-14.8-2.4-33.4-2.4v0l0,0c-18.6,0-27.2,1.2-33.4,2.4l-2.6-7.4c-0.9-3-2.7-4.5-5.8-5.3c-1.6-0.4-4.9-0.7-8.3-0.7
			c-4.4,0-15.2,0.5-20.7,4.9c0,0-3.4,2.2-2.5,4.6L57,208c0.1,0.2,1.9,4.3,6.9,4.3c0.8,0,1.6-0.1,2.4-0.3c4.6-1.2,7.4-3.5,7.5-3.6
			l1.3-1.1l-1.3-1.1c-1-0.9-2.1-1.7-3.2-2.5c1.5,0,2.9,0.4,4.2,1.1l1.1,0.6l1.1,2.9l0,0l1.8,4.8l0.1,0.3l0.1,0.4l0,0l0.5,1.4
			l0.1,0.2l0.2,0.2c0.1,0.2,3.3,3.8,8.6,3.8c0.9,0,1.8-0.1,2.7-0.3c6.2-1.4,19.4-2.9,33.9-2.9c14.5,0,27.7,1.5,33.9,2.9
			c0.9,0.2,1.8,0.3,2.7,0.3c5.3,0,8.5-3.6,8.6-3.8l0.2-0.2l0.1-0.2l0.5-1.4l0,0l0.1-0.4l0.1-0.3l1.8-4.8l0,0l1.1-2.9l1.1-0.6
			c1.3-0.7,2.7-1,4.2-1.1c-1.1,0.8-2.3,1.6-3.2,2.5l-1.3,1.1l1.3,1.1c0.1,0.1,2.9,2.4,7.5,3.6c0.8,0.2,1.6,0.3,2.4,0.3
			c4.9,0,6.8-4.1,6.9-4.3l5.1-13.6C199.1,192,195.7,189.8,195.7,189.8L195.7,189.8z"/>
		
			<linearGradient id="SVGID_16_" gradientUnits="userSpaceOnUse" x1="61.4949" y1="19.9261" x2="83.6309" y2="19.9261" gradientTransform="matrix(0.8682 0 0 -0.8682 0.1318 218.9146)">
			<stop  offset="0" style="stop-color:#F36D20"/>
			<stop  offset="0.2308" style="stop-color:#FFD200"/>
			<stop  offset="0.4945" style="stop-color:#FAA21A"/>
			<stop  offset="0.7967" style="stop-color:#FFD200"/>
			<stop  offset="1" style="stop-color:#F15D21"/>
		</linearGradient>
		<path class="st20" d="M65.1,202.3c3.1-3.5,1.1-9.9,1.1-9.9s-0.8,1.7-6.1,3.1c-5.3,1.4-6.6-0.9-6.6-0.9l0.8,2.1
			c2.9,0.9,5,0.5,6.2,0.2c2.2-0.6,3.7-1.2,4.8-1.8c0.2,2,0.1,4.6-1.2,6.1l-1.3,1.4l1.7,0.9c0,0,3.2,1.7,5.8,3.6
			c-1.1,0.6-2.7,1.4-4.7,1.9c-0.5,0.1-1.1,0.2-1.6,0.2c-2.4,0-4.4-1.3-5.7-2.5l0.2,0.5c0,0,2,4.5,7.5,3.2c4.3-1.1,6.9-3.3,6.9-3.3
			C69.9,204.7,65.1,202.3,65.1,202.3L65.1,202.3z"/>
		<path class="st0" d="M65.5,209.1c2-0.5,3.7-1.3,4.7-1.9c-2.6-1.9-5.7-3.6-5.8-3.6l-1.7-0.9l1.3-1.4c1.4-1.6,1.5-4.2,1.2-6.1
			c-1.1,0.6-2.6,1.2-4.8,1.8c-1.2,0.3-3.3,0.7-6.2-0.2l3.8,10.1c1.3,1.2,3.3,2.5,5.7,2.5C64.4,209.3,64.9,209.2,65.5,209.1z"/>
		
			<linearGradient id="SVGID_17_" gradientUnits="userSpaceOnUse" x1="187.6746" y1="33.1113" x2="225.722" y2="33.1113" gradientTransform="matrix(0.8682 0 0 -0.8682 0.1318 218.9146)">
			<stop  offset="0" style="stop-color:#F36D20"/>
			<stop  offset="0.2308" style="stop-color:#FFD200"/>
			<stop  offset="0.4945" style="stop-color:#FAA21A"/>
			<stop  offset="0.7967" style="stop-color:#FFD200"/>
			<stop  offset="1" style="stop-color:#F15D21"/>
		</linearGradient>
		<path class="st21" d="M182.4,188.4c-2.3-0.3-4.8-0.5-7.5-0.5c-3.6,0-6.4,0.3-7.5,0.6c-2.6,0.7-3.7,2.1-4.2,3.1
			c-0.1-0.2-0.1-0.4-0.2-0.6c0,0-0.2-2.8,4-3.9c3.8-0.9,20.7-1.6,27.7,3.9c0.5,0.4,1,0.9,1.4,1.5c-0.2,0.5-0.5,0.9-0.9,1.2
			c0,0-0.1,0.1-0.2,0.1C193.2,190.2,186.4,189.1,182.4,188.4z"/>
		
			<linearGradient id="SVGID_18_" gradientUnits="userSpaceOnUse" x1="200.9467" y1="19.3586" x2="210.2791" y2="19.3586" gradientTransform="matrix(0.8682 0 0 -0.8682 0.1318 218.9146)">
			<stop  offset="0" style="stop-color:#F36D20"/>
			<stop  offset="0.2308" style="stop-color:#FFD200"/>
			<stop  offset="0.4945" style="stop-color:#FAA21A"/>
			<stop  offset="0.7967" style="stop-color:#FFD200"/>
			<stop  offset="1" style="stop-color:#F15D21"/>
		</linearGradient>
		<path class="st22" d="M182.3,200.9c0.1,0.3,0.2,0.6,0.4,0.8c-0.3,0.2-0.7,0.4-1,0.6c-2.2-0.3-4.6-0.1-7.1,1.1l0.6-1.7l0.1-0.2
			C178,200.8,180.5,200.6,182.3,200.9z"/>
		<path class="st0" d="M167.4,188.5c1.1-0.3,4-0.6,7.5-0.6c2.7,0,5.2,0.2,7.5,0.5c3.9,0.7,10.8,1.8,12.6,5.5
			c-0.3,0.2-0.9,0.5-2.1,0.5c-0.8,0-1.7-0.1-2.7-0.4c-4.3-1.1-5.2-2.3-5.2-2.4c-0.8-0.7-1.7-2-1.7-2s-0.7,1-1,2.3
			c-0.1,0.2-1.5,5,0,8.9c-1.9-0.3-4.3-0.1-7,0.6l0.8-2.4c0,0,0.8-4.9-4.2-5.2c-4.2-0.2-6.8,0.8-8.2-1.3c-0.2-0.3-0.3-0.6-0.5-1
			C163.7,190.6,164.8,189.2,167.4,188.5L167.4,188.5z"/>
		
			<linearGradient id="SVGID_19_" gradientUnits="userSpaceOnUse" x1="204.0207" y1="19.9261" x2="226.1609" y2="19.9261" gradientTransform="matrix(0.8682 0 0 -0.8682 0.1318 218.9146)">
			<stop  offset="0" style="stop-color:#F36D20"/>
			<stop  offset="0.2308" style="stop-color:#FFD200"/>
			<stop  offset="0.4945" style="stop-color:#FAA21A"/>
			<stop  offset="0.7967" style="stop-color:#FFD200"/>
			<stop  offset="1" style="stop-color:#F15D21"/>
		</linearGradient>
		<path class="st23" d="M184.8,202.3c-3.1-3.5-1.1-9.9-1.1-9.9s0.8,1.7,6.1,3.1c5.3,1.4,6.6-0.9,6.6-0.9l-0.8,2.1
			c-2.9,0.9-5,0.5-6.2,0.2c-2.2-0.6-3.7-1.2-4.8-1.8c-0.2,2-0.2,4.6,1.2,6.1l1.3,1.4l-1.7,0.9c0,0-3.2,1.7-5.8,3.6
			c1.5,0.9,3.1,1.5,4.7,1.9c0.6,0.1,1.1,0.2,1.6,0.2c2.4,0,4.4-1.3,5.7-2.5l-0.2,0.5c0,0-2,4.5-7.5,3.2c-4.3-1.1-6.9-3.3-6.9-3.3
			C180.1,204.7,184.8,202.3,184.8,202.3L184.8,202.3z"/>
		<path class="st0" d="M184.5,209.1c-1.7-0.4-3.3-1.1-4.7-1.9c2.6-1.9,5.7-3.6,5.8-3.6l1.7-0.9l-1.3-1.4c-1.4-1.6-1.5-4.2-1.2-6.1
			c1.1,0.6,2.6,1.2,4.8,1.8c1.2,0.3,3.3,0.7,6.2-0.2l-3.8,10.1c-1.3,1.2-3.3,2.5-5.7,2.5C185.6,209.3,185.1,209.2,184.5,209.1z
			 M168.2,203.2c-1.7,0-3.7-0.3-6.9-0.9l-0.7-0.2c-6.7-1.4-14.2-2.9-35.6-2.9c-21.4,0-29,1.5-35.6,2.9l-0.7,0.2
			c-3.2,0.6-5.2,0.9-6.9,0.9c-1,0-3.8-0.3-5.6-1.1l4.1,10.7c1.6,1.3,4.6,3.2,8.1,3.2c0.6,0,1.3-0.1,1.9-0.2c6.3-1.4,19.9-3,34.7-3
			c14.8,0,28.3,1.6,34.7,3c0.6,0.1,1.3,0.2,1.9,0.2c3.5,0,6.5-2,8.2-3.2l4.1-10.7C172,202.9,169.3,203.2,168.2,203.2L168.2,203.2z"
			/>
		<g>
			<path class="st24" d="M94.1,211.4c-0.3,0.2-1,0.4-1.6,0.5c-0.9,0.1-1.7,0-2.3-0.4c-0.8-0.5-1.4-1.7-1.6-3
				c-0.4-2.9,1.1-4.3,2.8-4.6c0.6-0.1,1.1,0,1.4,0l-0.1,1.4c-0.2-0.1-0.6-0.1-1,0c-1.1,0.2-1.8,1-1.5,3.1c0.3,1.9,1.2,2.5,1.9,2.3
				c0.1,0,0.3-0.1,0.3-0.1l-0.3-1.9l-0.7,0.1l-0.2-1.3l2.2-0.3L94.1,211.4L94.1,211.4z M96.5,211.3l-0.4-3l-2.4-4.7l1.7-0.2l0.8,1.8
				c0.2,0.5,0.4,1.1,0.6,1.6l0,0c0-0.6,0.1-1.2,0.2-1.8l0.3-1.9l1.6-0.2l-1.2,5l0.4,3.1L96.5,211.3L96.5,211.3z M103.9,207.1
				l-1.9,0.2l0.2,2.1l2.1-0.2l0.1,1.3l-3.7,0.3l-0.8-7.9l3.6-0.3l0.1,1.3l-2,0.2l0.2,1.8l1.9-0.2L103.9,207.1z M110.4,206
				c0.2,3-0.8,4.3-2.4,4.4c-1.9,0.1-2.7-1.7-2.9-3.9c-0.1-2.2,0.6-4.1,2.4-4.2C109.6,202.1,110.3,204.2,110.4,206z M106.8,206.4
				c0.1,1.8,0.5,2.7,1.2,2.7c0.7,0,0.8-1.2,0.7-2.9c-0.1-1.4-0.4-2.6-1.1-2.6C107,203.6,106.7,204.7,106.8,206.4z M112,210l-0.3-8
				l1.5-0.1l1.4,3.1c0.3,0.6,0.7,1.6,1,2.3h0c-0.1-0.8-0.2-2.2-0.3-3.7l-0.1-1.8l1.4,0l0.3,8l-1.5,0.1l-1.4-3
				c-0.3-0.7-0.7-1.6-0.9-2.4h0c0.1,0.8,0.2,2,0.2,3.6l0.1,1.8L112,210L112,210z M123.2,209.5c-0.4,0.1-1.1,0.3-1.7,0.3
				c-0.9,0-1.6-0.2-2.2-0.8c-0.7-0.7-1.1-1.8-1.1-3.2c0-2.9,1.7-4.1,3.4-4.2c0.6,0,1.1,0.1,1.3,0.2l-0.3,1.3
				c-0.2-0.1-0.5-0.2-0.9-0.2c-1.1,0-1.9,0.7-1.9,2.8c0,1.9,0.8,2.6,1.5,2.6c0.1,0,0.3,0,0.3,0l0-1.9l-0.7,0l0-1.3l2.2,0
				L123.2,209.5L123.2,209.5z M124.6,209.8l0.1-8l1.5,0l1.2,3.1c0.2,0.6,0.6,1.6,0.9,2.3h0c0-0.8-0.1-2.2-0.1-3.7l0-1.8l1.4,0
				l-0.1,8l-1.5,0l-1.2-3c-0.3-0.7-0.6-1.7-0.8-2.4h0c0,0.8,0.1,2,0.1,3.6l0,1.8L124.6,209.8L124.6,209.8z M132.6,208l-0.4,1.8
				l-1.5,0l2-7.9l1.9,0.1l1.3,8l-1.5,0l-0.3-1.8L132.6,208L132.6,208z M134,206.9l-0.2-1.7c-0.1-0.5-0.2-1.3-0.2-1.8l0,0
				c-0.1,0.5-0.2,1.4-0.3,1.8l-0.4,1.6L134,206.9L134,206.9z M142.3,207.5c0-0.8,0-1.8,0.1-2.6h0c-0.2,0.8-0.4,1.6-0.7,2.4l-0.9,2.8
				l-1.1-0.1l-0.5-2.8c-0.1-0.6-0.3-1.6-0.3-2.5l0,0c-0.1,0.9-0.2,1.8-0.3,2.6l-0.3,2.8l-1.4-0.1l1.1-7.9l1.7,0.1l0.5,2.9
				c0.2,1,0.3,1.9,0.4,2.8l0,0c0.2-0.9,0.4-1.8,0.7-2.8l0.8-2.8l1.7,0.1l0,8l-1.4-0.1L142.3,207.5L142.3,207.5z M148.3,202.8
				l3.6,0.4l-0.1,1.3l-2-0.2l-0.2,2l1.8,0.2l-0.1,1.3l-1.8-0.2l-0.3,3.3l-1.6-0.2L148.3,202.8z M152.3,211.3
				c-0.5-0.1-0.9-0.5-0.8-1.1c0.1-0.6,0.6-1,1.1-0.9c0.5,0.1,0.9,0.5,0.8,1.1C153.3,211,152.8,211.4,152.3,211.3L152.3,211.3z
				 M158.5,211.9c-0.2,0.1-0.7,0.1-1.3,0c-2.1-0.3-2.8-2.1-2.5-4.3c0.4-3,2.3-3.9,3.9-3.7c0.6,0.1,0.9,0.2,1.1,0.4l-0.5,1.3
				c-0.2-0.1-0.4-0.2-0.7-0.3c-0.9-0.1-1.8,0.5-2.1,2.5c-0.3,1.9,0.3,2.7,1.3,2.9c0.3,0,0.5,0,0.8,0L158.5,211.9L158.5,211.9z
				 M160.4,212.5c-0.5-0.1-0.8-0.5-0.7-1.2c0.1-0.6,0.6-0.9,1.1-0.9c0.5,0.1,0.8,0.5,0.7,1.2C161.4,212.2,161,212.6,160.4,212.5
				L160.4,212.5L160.4,212.5z"/>
		</g>
		
			<linearGradient id="SVGID_20_" gradientUnits="userSpaceOnUse" x1="86.5749" y1="21.4331" x2="201.091" y2="21.4331" gradientTransform="matrix(0.8682 0 0 -0.8682 0.1318 218.9146)">
			<stop  offset="0" style="stop-color:#F36D20"/>
			<stop  offset="0.2308" style="stop-color:#FFD200"/>
			<stop  offset="0.4945" style="stop-color:#FAA21A"/>
			<stop  offset="0.7967" style="stop-color:#FFD200"/>
			<stop  offset="1" style="stop-color:#F15D21"/>
		</linearGradient>
		<path class="st25" d="M88.6,202.3l0.7-0.2c6.7-1.4,14.2-2.9,35.6-2.9c21.4,0,29,1.5,35.6,2.9l0.7,0.2c3.2,0.6,5.2,0.9,6.9,0.9
			c1,0,3.8-0.3,5.6-1.1l0.9-2.3c-4.4,1.9-6.2,2.1-13,0.8c-6.7-1.4-14.4-3.1-36.7-3.1v0l0,0c-22.4,0-30,1.7-36.7,3.1
			c-6.7,1.4-8.6,1.1-13-0.8l0.9,2.3c1.8,0.9,4.5,1.1,5.6,1.1C83.5,203.2,85.5,202.9,88.6,202.3z"/>
		
			<linearGradient id="SVGID_21_" gradientUnits="userSpaceOnUse" x1="92.3295" y1="4.1629" x2="195.3371" y2="4.1629" gradientTransform="matrix(0.8682 0 0 -0.8682 0.1318 218.9146)">
			<stop  offset="0" style="stop-color:#F36D20"/>
			<stop  offset="0.2308" style="stop-color:#FFD200"/>
			<stop  offset="0.4945" style="stop-color:#FAA21A"/>
			<stop  offset="0.7967" style="stop-color:#FFD200"/>
			<stop  offset="1" style="stop-color:#F15D21"/>
		</linearGradient>
		<path class="st26" d="M159.7,215.8c-6.3-1.4-19.9-3-34.7-3c-14.8,0-28.3,1.6-34.7,3c-0.6,0.1-1.3,0.2-1.9,0.2
			c-3.5,0-6.5-2-8.1-3.2l0.7,1.8c0,0,3.8,4.4,9.8,3c6-1.4,19.3-3,34.2-3c14.9,0,28.2,1.6,34.2,3c6,1.4,9.8-3,9.8-3l0.7-1.8
			c-1.6,1.3-4.6,3.2-8.2,3.2C160.9,216,160.3,215.9,159.7,215.8L159.7,215.8z"/>
		<path class="st0" d="M78.7,197c-1.8-0.1-1.7,1.2-1.5,1.9c4.9,2.2,12.8-0.6,12.8-0.6l-1.3-3.6C87.3,197.7,80.9,197.1,78.7,197z"/>
		
			<linearGradient id="SVGID_22_" gradientUnits="userSpaceOnUse" x1="86.6826" y1="26.7878" x2="102.0184" y2="26.7878" gradientTransform="matrix(0.8682 0 0 -0.8682 0.1318 218.9146)">
			<stop  offset="0" style="stop-color:#F36D20"/>
			<stop  offset="0.2308" style="stop-color:#FFD200"/>
			<stop  offset="0.4945" style="stop-color:#FAA21A"/>
			<stop  offset="0.7967" style="stop-color:#FFD200"/>
			<stop  offset="1" style="stop-color:#F15D21"/>
		</linearGradient>
		<path class="st27" d="M78.7,197c2.2,0.1,8.5,0.7,10-2.2l-0.9-2.4c0,0,0,3.4-6.6,2.9c-6.6-0.6-5.8,2.6-5.8,2.6
			c0.5,0.5,1.1,0.9,1.8,1.1C77,198.2,76.9,196.9,78.7,197L78.7,197z"/>
		
			<linearGradient id="SVGID_23_" gradientUnits="userSpaceOnUse" x1="185.6386" y1="26.7881" x2="200.9731" y2="26.7881" gradientTransform="matrix(0.8682 0 0 -0.8682 0.1318 218.9146)">
			<stop  offset="0" style="stop-color:#F36D20"/>
			<stop  offset="0.2308" style="stop-color:#FFD200"/>
			<stop  offset="0.4945" style="stop-color:#FAA21A"/>
			<stop  offset="0.7967" style="stop-color:#FFD200"/>
			<stop  offset="1" style="stop-color:#F15D21"/>
		</linearGradient>
		<path class="st28" d="M168.8,195.2c-6.6,0.6-6.6-2.9-6.6-2.9l-0.9,2.4c1.4,2.9,7.8,2.4,10,2.2c1.8-0.1,1.7,1.2,1.5,1.9
			c0.6-0.3,1.2-0.7,1.8-1.1C174.6,197.8,175.5,194.7,168.8,195.2L168.8,195.2z"/>
		<path class="st0" d="M171.3,197c-2.2,0.1-8.5,0.7-10-2.2l-1.3,3.6c0,0,7.9,2.8,12.8,0.6C173,198.2,173.1,196.9,171.3,197z"/>
		
			<linearGradient id="SVGID_24_" gradientUnits="userSpaceOnUse" x1="61.9344" y1="33.1113" x2="99.9799" y2="33.1113" gradientTransform="matrix(0.8682 0 0 -0.8682 0.1318 218.9146)">
			<stop  offset="0" style="stop-color:#F36D20"/>
			<stop  offset="0.2308" style="stop-color:#FFD200"/>
			<stop  offset="0.4945" style="stop-color:#FAA21A"/>
			<stop  offset="0.7967" style="stop-color:#FFD200"/>
			<stop  offset="1" style="stop-color:#F15D21"/>
		</linearGradient>
		<path class="st29" d="M67.6,188.4c2.3-0.3,4.8-0.5,7.5-0.5c3.6,0,6.4,0.3,7.5,0.6c2.6,0.7,3.7,2.1,4.2,3.1
			c0.1-0.2,0.1-0.4,0.2-0.6c0,0,0.2-2.8-4-3.9c-3.8-0.9-20.7-1.6-27.7,3.9c-0.5,0.4-1,0.9-1.4,1.5c0.2,0.5,0.5,0.9,0.9,1.2
			c0,0,0.1,0.1,0.2,0.1C56.8,190.2,63.7,189.1,67.6,188.4z"/>
		
			<linearGradient id="SVGID_25_" gradientUnits="userSpaceOnUse" x1="77.3749" y1="19.3586" x2="86.7078" y2="19.3586" gradientTransform="matrix(0.8682 0 0 -0.8682 0.1318 218.9146)">
			<stop  offset="0" style="stop-color:#F36D20"/>
			<stop  offset="0.2308" style="stop-color:#FFD200"/>
			<stop  offset="0.4945" style="stop-color:#FAA21A"/>
			<stop  offset="0.7967" style="stop-color:#FFD200"/>
			<stop  offset="1" style="stop-color:#F15D21"/>
		</linearGradient>
		<path class="st30" d="M67.7,200.9c-0.1,0.3-0.2,0.6-0.4,0.8c0.3,0.2,0.7,0.4,1,0.6c2.2-0.3,4.6-0.1,7.1,1.1l-0.6-1.7l-0.1-0.2
			C72,200.8,69.5,200.6,67.7,200.9z"/>
		<path class="st0" d="M82.5,188.5c-1.1-0.3-3.9-0.6-7.5-0.6c-2.6,0-5.2,0.2-7.5,0.5c-3.9,0.7-10.8,1.8-12.6,5.5
			c0.3,0.2,0.9,0.5,2.1,0.5c0.8,0,1.7-0.1,2.7-0.4c4.3-1.1,5.2-2.3,5.2-2.4c0.8-0.7,1.7-2,1.7-2s0.7,1,1,2.3c0.1,0.2,1.5,5,0,8.9
			c1.9-0.3,4.3-0.1,7,0.6l-0.8-2.4c0,0-0.8-4.9,4.2-5.2c4.2-0.2,6.8,0.8,8.2-1.3c0.2-0.3,0.3-0.6,0.5-1
			C86.3,190.6,85.2,189.2,82.5,188.5z"/>
		<path d="M177.8,217.8L177.8,217.8c0.4-0.2,0.8-0.5,0.8-1.1c0-0.4-0.1-0.7-0.4-0.9c-0.3-0.2-0.7-0.3-1.3-0.3c-0.4,0-0.9,0-1.2,0.1
			v4.2h0.8v-1.8h0.4c0.4,0,0.7,0.2,0.8,0.8c0.1,0.5,0.2,0.9,0.3,1h0.8c-0.1-0.2-0.2-0.7-0.3-1.2
			C178.3,218.2,178.2,217.9,177.8,217.8L177.8,217.8z M177,217.5h-0.5v-1.4c0.1,0,0.2,0,0.5,0c0.5,0,0.8,0.2,0.8,0.7
			C177.8,217.2,177.5,217.5,177,217.5z M177.1,214.2c-2,0-3.5,1.6-3.5,3.6c0,0,0,0,0,0c0,2,1.6,3.5,3.5,3.5s3.5-1.6,3.5-3.5
			C180.7,215.8,179.1,214.2,177.1,214.2z M177.1,220.9c-1.7,0-3.1-1.4-3.1-3.1c0-1.7,1.4-3.1,3.1-3.1s3.1,1.4,3.1,3.1
			C180.2,219.5,178.8,220.9,177.1,220.9z"/>
	</g>
</g>
<g id="레이어_1">
	<rect x="8" y="8" class="st31" width="234" height="234"/>
</g>
<g id="_레이어_1">
</g>
</svg>
