<?xml version="1.0" encoding="utf-8"?>
<!-- Generator: Adobe Illustrator 25.1.0, SVG Export Plug-In . SVG Version: 6.00 Build 0)  -->
<svg version="1.1" xmlns="http://www.w3.org/2000/svg" xmlns:xlink="http://www.w3.org/1999/xlink" x="0px" y="0px"
	 viewBox="0 0 250 250" style="enable-background:new 0 0 250 250;" xml:space="preserve">
<style type="text/css">
	.st0{fill:none;}
	.st1{fill:#FFFFFF;}
	.st2{fill:#0A1561;}
	.st3{fill:#EE7501;}
	.st4{fill:#E1002A;}
</style>
<g id="Layer_1">
</g>
<g id="레이어_1">
	<rect x="8" y="8" class="st0" width="234" height="234"/>
</g>
<g id="_레이어_1">
	<g>
		<path class="st1" d="M128.6,233.4l-3.6,2.2l-3.6-2.2c-69.4-42.4-74-94.9-74-96.7v-2c16.4-4.5,41.8-9.1,77.6-9.1
			c35.7,0,61.1,4.6,77.5,9.1v2C202.5,138.4,198,190.9,128.6,233.4 M47.5,62.3l52.3-47.9h50.5l52.3,47.9v17.1
			c-16.6-5-42.2-10.2-77.5-10.2c-35.3,0-61,5.1-77.6,10.2L47.5,62.3z M29.1,140.9c2.8-1.2,6.7-2.8,11.9-4.4v0.1
			c0,0.1,0.1,4.2,1.9,11.1C36.5,145.1,32,142.7,29.1,140.9 M209,136.6v-0.1c5.2,1.7,9.2,3.2,11.9,4.4c-2.8,1.7-7.4,4.2-13.8,6.9
			C208.8,140.8,209,136.7,209,136.6"/>
		<path class="st2" d="M226,88.9c0,0-5.6-3.4-17-7.4V62.3c0-1.8-0.8-3.5-2.1-4.7L154.6,9.7c-1.2-1.1-2.7-1.7-4.3-1.7H99.7
			c-1.6,0-3.2,0.6-4.3,1.7L43.1,57.6c-1.3,1.2-2.1,2.9-2.1,4.7v19.2c-11.5,4-17,7.4-17,7.4v54.5c2.8,1.9,9.5,6.1,20.6,10.3
			c1.7,5.4,4.3,11.8,8.1,19c5.9,11.3,13.7,22.1,23.2,32.2c11.6,12.5,25.8,23.9,42.2,33.9l3.6,2.2c1,0.6,2.2,0.9,3.4,0.9
			s2.3-0.3,3.4-0.9l3.6-2.2c16.4-10,30.6-21.4,42.2-33.9c9.4-10.1,17.2-21,23.2-32.2c3.8-7.2,6.3-13.7,8.1-19
			c11.1-4.3,17.8-8.4,20.6-10.3V88.9z M47.5,62.3l52.3-47.9h50.5l52.3,47.9v17.1c-16.6-5-42.2-10.2-77.5-10.2
			c-35.3,0-61,5.1-77.6,10.2L47.5,62.3z M29.1,140.9c2.8-1.2,6.7-2.8,11.9-4.4v0.1c0,0.1,0.1,4.2,1.9,11.1
			C36.5,145.1,32,142.7,29.1,140.9 M128.6,233.4l-3.6,2.2l-3.6-2.2c-69.4-42.4-74-94.9-74-96.7v-2c16.4-4.5,41.8-9.1,77.6-9.1
			c35.7,0,61.1,4.6,77.5,9.1v2C202.5,138.4,198,190.9,128.6,233.4 M209,136.6v-0.1c5.2,1.7,9.2,3.2,11.9,4.4
			c-2.8,1.7-7.4,4.2-13.8,6.9C208.8,140.8,209,136.7,209,136.6"/>
		<path class="st3" d="M162.3,166.6c2.9,7.1,6,14.8,6.8,23.8c7.7-8,14-16.1,17.7-23.3c7.1-13.5,9.4-24,10.1-28.4
			c-9.3-2.3-21.1-4.6-35.6-6.1C153.6,145.3,157.5,155,162.3,166.6 M81,190.5c0.8-9,3.9-16.7,6.8-23.8c4.7-11.6,8.7-21.3,1-33.9
			c-14.5,1.5-26.3,3.7-35.6,6.1c0.7,4.5,3,15,10.1,28.4C67,174.3,73.3,182.5,81,190.5"/>
		<path class="st4" d="M157.2,168.7c-4.7-11.6-9.2-22.7-1.9-36.5c-9.1-0.8-19.2-1.2-30.3-1.2c-11.1,0-21.2,0.5-30.3,1.2
			c7.3,13.8,2.8,24.9-1.9,36.5c-3.4,8.3-6.8,16.7-6.5,27c11.9,11.3,26,21.7,38.8,27.4c12.8-5.8,26.9-16.1,38.8-27.4
			C164,185.4,160.6,177,157.2,168.7 M197.1,64.8l-49-44.9h-46.3l-49,44.9v13.1c16.6-4.5,40.4-8.6,72.1-8.6c31.7,0,55.5,4.2,72.1,8.6
			L197.1,64.8z"/>
		<path class="st1" d="M105.5,177.2c1.1-0.6,2.1-1.3,2.9-2.3h2.9v15H108v-11.5c-0.8,0.6-1.7,1.2-2.5,1.7L105.5,177.2z M117.3,186.3
			c0,0.4,0,0.8,0.2,1c0.2,0.3,0.5,0.5,0.9,0.5c1.5,0,1.3-1.2,1.3-4.8c-0.7,0.7-1.5,1-2.5,1c-2.3,0-3.2-2.1-3.2-4
			c0-2.9,0.9-5.3,4.3-5.3c4.4,0,4.4,3.5,4.4,7.7c0,3.7-0.1,7.6-4.4,7.6c-2.6,0-4.1-0.9-4-3.7L117.3,186.3z M118.4,182
			c1.3,0,1.3-1.7,1.3-2.7c0-0.9,0-2.6-1.3-2.6c-1.3,0-1.3,1.7-1.3,2.7S117.1,182,118.4,182 M124.9,186c0-1.8,0.3-3.4,2.2-4v0
			c-1.7-0.4-2.1-1.7-2.1-3.3c0-2.7,1.4-4,4.2-4c2.8,0,4.2,1.2,4.2,4c0,1.6-0.4,2.8-2.1,3.3v0c1.9,0.7,2.2,2.2,2.2,4
			c0,2.8-1.5,4-4.3,4C126.4,190,124.9,188.8,124.9,186 M127.9,185.8c0,0.9,0.2,2,1.3,2c1.2,0,1.3-1.2,1.3-2c0-0.9,0-2.7-1.3-2.7
			C127.9,183.1,127.9,184.9,127.9,185.8 M128,178.8c0,0.8,0.1,2,1.2,2s1.2-1.2,1.2-2c0-0.7-0.1-1.9-1.2-1.9
			C128.2,176.9,128,178.1,128,178.8 M135.6,189.8v-2.6c4.7-6.3,5.7-7,5.7-8.9c0-0.7-0.3-1.5-1.1-1.5c-1.2,0-1.3,1.2-1.3,2.1h-3
			c-0.2-2.8,1.4-4.3,4.1-4.3c2.6,0,4.4,1.1,4.4,3.9c0,3.4-3.9,7.2-5.5,9h5.7v2.3L135.6,189.8z M90.4,111.5
			c-4.6,0.5-6.9,0.8-11.5,1.5v-10.5c3.9-0.6,5.9-0.9,9.9-1.3v-6.1c-4,0.5-5.9,0.7-9.9,1.3v-8.1c4.6-0.7,6.9-1,11.5-1.5v-6.1
			c-6.6,0.7-13.2,1.7-19.8,2.9v36.8c6.6-1.2,13.2-2.1,19.8-2.9V111.5z M196.4,106.1l7.1-16.6c-3.4-0.9-5.1-1.4-8.5-2.2l-6.1,14.2V86
			c-3.3-0.7-5-1.1-8.3-1.7v36.8c3.3,0.6,5,1,8.3,1.7v-15.6l6.1,17c3.4,0.8,5.1,1.3,8.5,2.2L196.4,106.1z M43.9,119.2
			c0,6,6.5,6.5,11,5.2c5.5-1.5,11-4.4,11-11.3V84.4c-5.5,1.1-8.3,1.7-13.7,3v6.1c1.8-0.4,3.6-0.9,5.5-1.3v22.3
			c0,2.6-1.1,3.3-2.7,3.7c-1.7,0.4-2.7,0.1-2.7-2.4v-4.5l-8.3-2.7L43.9,119.2z M92.9,109.8c0,6.6,7.2,7.5,11.2,7.3
			c5.4-0.4,11.2-2.9,11.2-8.7V79c-5.6,0.2-8.4,0.3-14,0.7v6.1c2.2-0.2,3.3-0.2,5.6-0.4v22.3c0,2.6-1.1,3.1-2.8,3.3
			c-1.7,0.1-2.8-0.3-2.8-2.9v-4.5l-8.4-4.1V109.8z M120.1,108.3c0,6.1,6.3,8.1,11.2,8.3c5.3,0.1,11.2-1.9,11.2-7.6V79.4
			c-3.4-0.2-5-0.3-8.4-0.4v28.4c0,2.6-1.1,3-2.8,3c-1.7,0-2.8-0.6-2.8-3.1V78.9c-3.4-0.1-5-0.1-8.4,0L120.1,108.3z M176,106.9
			c0-1.7-0.9-3.1-2.3-4.2L163,94.2c-0.6-0.5-0.8-0.9-0.8-1.3v-3.1c0-2.6,1.1-2.9,2.8-2.7c1.7,0.2,2.8,0.9,2.8,3.5v2.4
			c3.3,0.5,5,0.8,8.3,1.3v-2.4c0.1-6.9-5.1-9.8-11.1-10.9c-5.2-0.9-11.1,0.8-11.1,7v4.6c0,1.7,0.8,2.9,2.3,4.1l10.8,8.3
			c0.6,0.4,0.8,0.9,0.8,1.4v4.2c0,2.6-1.1,2.9-2.8,2.7c-1.7-0.2-2.8-1-2.8-3.5V107l-8.4-5.8v7.6c0,6.8,5.4,9.4,11.1,10.4
			c5.3,0.9,11.1-0.7,11.1-6.1V106.9z M117.9,53.8l0.7-13.6c0-0.5-0.6-0.7-0.9-0.4l-10.1,11.1c-0.1,0.1-0.3,0.2-0.4,0.3L73.7,64.2
			l5.2-5.1l16.9-13.2c0.4-0.3,1,0.1,0.7,0.6l-4.9,7.4c-0.2,0.3,0.2,0.7,0.5,0.5l5.3-3.8c0,0,0.1-0.1,0.1-0.1l6.3-13.3
			c0.2-0.5-0.3-0.9-0.8-0.6L82.4,50.9l-8.8,3.3l30.5-28.3l5.9,1.8h4.9l3.2,1.5l8.5,0.7l6.8-0.7l7.8-1.4l5-1.9l36.6,33.5l-10.9-4
			l-19.8-14.8l-6.7-4.2c-0.4-0.2-0.9,0.2-0.7,0.6l2.3,9.1l8.3,6.7c0.3,0.2,0.7-0.2,0.5-0.5l-5.3-8.3c-0.2-0.4,0.3-0.8,0.6-0.5
			l23.9,20l-10-1.6l-26.9-13.5l-10-13.8c-0.3-0.4-1-0.2-0.9,0.4l0,8.8L117.9,53.8z"/>
	</g>
</g>
</svg>
