<?xml version="1.0" encoding="utf-8"?>
<!-- Generator: Adobe Illustrator 25.1.0, SVG Export Plug-In . SVG Version: 6.00 Build 0)  -->
<svg version="1.1" xmlns="http://www.w3.org/2000/svg" xmlns:xlink="http://www.w3.org/1999/xlink" x="0px" y="0px"
	 viewBox="0 0 250 250" style="enable-background:new 0 0 250 250;" xml:space="preserve">
<style type="text/css">
	.st0{fill:#FFDE00;}
	.st1{fill:none;}
</style>
<g id="Layer_1">
	<g>
		<g>
			<g transform="matrix(.35278 0 0 -.35278 0 297)">
				<path d="M86.1,819.2V498.4c0-58.9,5.2-127.7,43.7-191.6C186,205.2,354.3,147,354.3,147s168.3,58.2,224.5,159.8
					c38.5,63.9,43.7,132.7,43.7,191.6v320.8H86.1z"/>
				<path class="st0" d="M193.2,743.6v16.5h7.7l9.4,9.4h-17.1v13h18.6v9.4l-28.1,0v-57.8h28.5v9.4H193.2z"/>
				<path class="st0" d="M352.2,792v-31l-16.8,31h-5.8v-57.8h9.4v31.7l17.9-31.7h4.6V792H352.2z"/>
				<path class="st0" d="M429,792v-31l-16.8,31h-5.8v-57.8h9.4v31.7l17.9-31.7h4.6V792H429z"/>
				<path class="st0" d="M595.3,792h-34.6l-9.4-9.4v-48.4h9.4v48.4h7.8v-48.4h9.4v48.4h7.8v-48.4h9.4L595.3,792z"/>
				<path class="st0" d="M276.9,743.6h-13.1v38.9h13.1V743.6z M286.4,792h-22.6c-5.2,0-9.4-4.2-9.4-9.4v-48.4h22.6l9.4,9.4
					L286.4,792z"/>
				<path class="st0" d="M113.3,792l9.4-9.4h9.6v-38.9h-9.6v16.5l-9.4,9.4v-25.9c0-5.2,4.2-9.4,9.4-9.4h19V792L113.3,792z"/>
				<path class="st0" d="M503.6,769.4h-13.1v13.1h13.1V769.4z M490.5,792c-5.2,0-9.4-4.2-9.4-9.4v-48.4h9.4V760h8.4l4.7,4.7v-30.6
					h9.4V792L490.5,792z"/>
				<path class="st0" d="M506,714.5v-23.2l-12.6,23.2h-4.3v-43.4h7.1v23.8l13.4-23.8h3.5v43.4H506z"/>
				<path class="st0" d="M431.4,678.2h-9.8v29.2h9.8V678.2z M438.4,678.2v36.3h-16.9c-3.9,0-7.1-3.2-7.1-7.1v-36.3h16.9L438.4,678.2
					z M120.4,707.4h9.8v-29.2h-9.8V707.4z M137.3,678.2v29.2c0,3.9-3.2,7.1-7.1,7.1h-16.9v-43.4h16.9L137.3,678.2z"/>
				<path class="st0" d="M205.2,697.5h-9.8v9.8h9.8L205.2,697.5c3.9,0,7.1,3.2,7.1,7.1c0,0,0,0,0,0v2.8c0,3.9-3.2,7.1-7.1,7.1h-16.9
					v-43.4h7.1v19.4h9.8v-19.4h7.1v19.4L205.2,697.5z"/>
				<path class="st0" d="M279.3,697.5h-9.8v9.8h9.8V697.5z M286.4,714.5h-16.9c-3.9,0-7.1-3.2-7.1-7.1v-36.3h7.1v19.4h6.3l3.5,3.5
					v-22.9h7.1L286.4,714.5z"/>
				<path class="st0" d="M361.6,678.2l0,18.9h-11V690h3.9v-11.8h-9.8v29.2h9.8l7.1,7.1l-16.9,0c-3.9,0-7.1-3.2-7.1-7.1v-36.3h16.9
					C358.5,671.1,361.6,674.2,361.6,678.2"/>
				<path class="st0" d="M595.3,678.2v9.2L582,702.8v4.5h13.4v7.1H582h0l-7.1-7.1v-8l13.4-15.5v-5.7h-13.4v-7.1h13.4
					C592.2,671.1,595.3,674.2,595.3,678.2C595.3,678.2,595.3,678.2,595.3,678.2"/>
				<path class="st0" d="M192.1,638.6v-46.3l46.3-46.3v90.7h0c25.6,0,46.3-20.7,46.3-46.3V301.4l0,0c-25.2,21.5-46.3,53.4-46.3,91
					v114.1l-46.3,46.3v-54.5c0-52.7,4.4-95.5,25.9-133.2c20.9-36.6,58.1-68.2,113.1-95.8v369.3H192.1z"/>
				<path class="st0" d="M470.2,392.5c0-37.6-21.1-69.5-46.3-91l0,0v335.2c25.6,0,46.3-20.8,46.3-46.3L470.2,392.5z M470.3,638.6
					h-92.8V269.4c55.1,27.6,92.3,59.2,113.1,95.8c21.5,37.7,25.9,80.5,25.9,133.2v96C515.4,619,495.2,638.6,470.3,638.6"/>
				<path class="st0" d="M145.8,638.6h-32.4v-26.7l32.4-32.4V638.6z"/>
				<path class="st0" d="M562.9,638.6v-59.1l32.4,32.4v26.7H562.9z"/>
				<path class="st0" d="M562.9,498.4c0-108-15.7-209.2-208.6-288c-192.8,78.8-208.6,179.9-208.6,288v41.7l-32.4,32.4v-74.1
					c0-55.3,4.7-119.6,40-177.9c41.8-74,142.9-123.6,201-144.6c58.1,21.1,159.2,70.6,201,144.6c35.2,58.3,40,122.6,40,177.9v74.1
					l-32.4-32.4V498.4z"/>
			</g>
		</g>
	</g>
</g>
<g id="레이어_1">
	<rect x="8" y="8" class="st1" width="234" height="234"/>
</g>
<g id="_레이어_2">
</g>
</svg>
