<?xml version="1.0" encoding="utf-8"?>
<!-- Generator: Adobe Illustrator 25.1.0, SVG Export Plug-In . SVG Version: 6.00 Build 0)  -->
<svg version="1.1" xmlns="http://www.w3.org/2000/svg" xmlns:xlink="http://www.w3.org/1999/xlink" x="0px" y="0px"
	 viewBox="0 0 250 250" style="enable-background:new 0 0 250 250;" xml:space="preserve">
<style type="text/css">
	.st0{fill:#FFFFFF;}
	.st1{fill:#034F36;}
	.st2{fill:#FFDD00;}
	.st3{fill:#004281;}
	.st4{fill:none;}
</style>
<g id="Layer_1">
	<g>
		<path class="st0" d="M45,130.6l0.3,1.6c2.4,12.8,17.3,78.1,79.8,109.9c62.5-31.8,77.4-97,79.8-109.8l0.3-1.5l1.5,0.3
			c7.6,1.3,27.2,6.5,35.1,8.6l-17.4-33.8l14.9-27.5h-30l0.1-11.1l-23.9-37.3c-3.4,2-7.2,3-11.6,3.1c-12.3,0-28.3-8.2-48.8-24.9
			c-20.5,16.8-36.5,24.9-48.8,24.9c-4.3,0-8.2-1-11.6-3L40.9,67.2l0,11.1l-23.1,0l11.7,12.8v24.8l-1.3,0.3c-1.5,0.3-6.2,1.3-8,1.7
			L8.3,139.7c11.2-3.1,26-6.9,35.2-8.8L45,130.6z"/>
		<path class="st1" d="M125.1,123.8c-23,0-45.9,2.3-68.4,6.8c18.3,41.8,44.4,68.9,68.4,82.8c24-13.9,50.1-41,68.4-82.8
			C171,126.1,148.1,123.8,125.1,123.8"/>
		<path class="st1" d="M180,49.6c-10.2,1-26.4,2.1-54.9-17.6C96.7,51.7,80.4,50.7,70.2,49.6L59.7,60.2c17-2.9,40-4.7,65.4-4.7
			c25.4,0,48.4,1.8,65.4,4.7L180,49.6z"/>
		<path class="st1" d="M52.5,61.6l16.6-17.7c0,0,20.6,7.2,56-19.6c35.3,26.8,56,19.6,56,19.6l16.6,17.7c0.7,0.2,1.4,0.3,2.1,0.5
			l-16.4-25.5c-3.6,1.7-21.3,8.2-58.3-21.7c-37,29.9-54.8,23.4-58.3,21.7L50.4,62C51.1,61.9,51.8,61.7,52.5,61.6"/>
		<path class="st1" d="M125.1,236.2c0,0,58.7-28.1,74.5-104.4c-0.1,0-0.7,0-0.8,0c-25.7,66.1-68.1,87.9-73.7,90.8
			c-5.7-2.9-48-24.6-73.7-90.8c-0.1,0-0.7,0-0.7,0C66.4,208,125.1,236.2,125.1,236.2"/>
		<path class="st2" d="M124.9,151.6c2.3,0.3,3.9,0.1,3.9,0.1C128,154.9,124.9,151.6,124.9,151.6 M154.7,162.4
			c-0.9-11.7-7.4-14.1-11.7-12.3c-3.1,1.3-4.2,4.7-2.7,6.9c-2.9-1.1-5.4,0-6.3,2.4c-0.9,2.3,0.4,5,3,5.3c1.8,0.2,3.6-0.7,3.2-2.7
			c-0.2,0.6-1.3,1.3-2.3,1c-1.2-0.3-1.5-1.4-1.4-2.2c0.2-0.9,1-1.7,2.3-1.7c1.4-0.1,2.7,0.7,3.2,2.1c0.9,2.8-1.8,6-6,5
			c-3.9-0.9-8.2-6.2-6.8-9.9c0.7-1.9,3.1-2.4,4.2-1.3c0.1-2.2-2.1-3.5-3.9-3.5c0,0,1.3-0.3,1.3-1.4c0-0.7-0.3-1.6-1.8-2
			c-3.5-1-7.6,1.6-8.2-0.3c0,0-2,2.8,4.4,2.8c-3.4,0.5-3,3.5-5.2,4c-0.7,0.2-2,0-1.9-1.1c0.8,0.1,1.9-0.9,1.3-1.9
			c-0.7-1.1-2.7-0.7-2.9,1.1c-0.5,2.7,2.5,5.3,7.5,3.4c-2.6,1.2-3.1,4.4-1,6c-0.3-1,0.3-2.5,1.3-3c0,0-0.1,3.2,1.7,5.5
			c-2.1-1.6-4.8-1.7-7.1-0.4c0.4-1.5-0.1-3.4-1.4-4.5c-1.6-1.3-4.1-1.7-5.9-0.3c-2.9,2.2-1.1,5.9,1.1,5.7c-0.5-0.2-1.3-2,0.2-3
			c1.2-0.8,2.5,0,2.9,0.6c0.8,1.3,0.3,3.3-1.5,4c0,0-3.8,1.6-6.1-2.2c-1.2-2.1-1.7-5.2-0.8-8.6c0.2-0.8,1.7-6,7.5-7.5
			c0,0-0.6-1.1-2.5-0.8c0.2-0.1,0.3-0.3,0.5-0.4c6.1-5.5,14.5-5.8,19.5-4c0,0-8-5.2-17.8-0.3c-11.4,5.7-13.3,19.3-7.7,24.9
			c3,3,6.8,2.6,7.6,2.4c-0.3,1.1,0.3,3.6,1.9,4.2c-6.1,0.2-12.5-4.7-13.4-8.6c0.3,6,6.6,12.6,16,11.6c4.6-0.5,7.8-3.6,6.7-7.3
			c-0.7-2.3-3.2-3.4-5.2-1.8c-1.2,1.1-0.8,2.8,0.3,3.2c1.6,0.5,2.8-0.7,2.7-2c1.3,1.5,0.4,3.6-1.6,4.1c-3,0.7-4.8-2-4.5-4
			c0.3-2,1.5-3.1,3.2-3.6c3.3-1.1,6.5,1.1,7.2,3.6c1.6,5.7-2.5,9.8-8.7,10.5c-5.3,0.6-10.9-1.4-15.2-5.7c-6.3-6.2-7.1-20.4-0.3-23
			c-0.5-0.8-2.3-1-3.2,0c1.4-5.9,9.7-14.5,15-12.5c-0.1-1.3-1.2-1.8-2.2-1.6c4.1-1.8,17.2-5,29.5,2.4c-5.7-5.2-13.5-7.9-21.8-7
			c-11.4,1.3-21.1,9.2-24.2,19.6c-2.4,8-0.9,15.8,2.1,20.9c3.9,6.7,10.6,9.5,15.1,10.8c2.8,0.8,2,3.5-2.5,2.5c-3.9-0.8-8.5-4-11.2-7
			c1.6,2.5,3.6,4.8,6,6.7c7.1,5.8,12.9,3.2,13.3,0.9c0.2-0.9-0.6-1.9-1.2-2.3c2.7,0.5,6.4,0.6,9.4-0.1c-0.6,0.6-0.4,1.6,0.1,2
			c2.3,1.6,6.3-0.4,7.5,0.2c2.1,1-5.1,6.7-18.8,4.7c6.7,2.7,15.2,2.2,22.1-1.5c1.9-1,3-2.6,2.4-4.2c-0.4-1.3-1.9-2.1-4.3-1.8
			c-2.6,0.2-4.8,0.7-5.1,0c-0.1-0.3,0-0.9,0.6-1.3c3.3-2.4,6.9-7.3,3.5-13.5c4.2,1.4,10-1.1,10.4-6.3c1.4,5.9-0.8,13-3.9,16.7
			c7.7-6.6,7.6-17.9,5.2-22.7c0.2,1.1-0.7,1.9-1.5,2.1c-1.6,0.4-2.6-0.7-3-1.4c-0.7-1.5,0.2-3.3,1.6-3.8c3.3-1.2,6,0.8,7,5.7
			c2.1,9.9-1.7,19.9-7.9,25.2C149.8,182,155.5,172.5,154.7,162.4"/>
		<path class="st3" d="M63,70.8h-4.7v-3.9h-2.2l0,10.1h2.2l0-4.2H63V77h2.2l0-10.1l-2.2,0L63,70.8z"/>
		<path class="st3" d="M110.9,67.5c-0.5,0.5-0.5,1.2-0.5,1.6v8h2.2v-3.2h4.7l0,3.2h2.2l0-10.1l-6.9,0C112,66.9,111.4,67,110.9,67.5
			 M113.2,68.9h4.1l0,2.9l-4.7,0l0-2.4c0-0.1,0-0.3,0.1-0.5C112.8,68.9,113,68.9,113.2,68.9"/>
		<path class="st3" d="M95.3,66.9l-6.9,0V77h2.2v-8.1h4.1c0.2,0,0.4,0,0.5,0.1c0.1,0.1,0.1,0.3,0.1,0.4V77h2.2l0-8
			c0-0.4,0-1.1-0.5-1.6C96.6,67,96,66.9,95.3,66.9"/>
		<path class="st3" d="M84.3,74.4c0,0.1,0,0.3-0.1,0.4C84.1,75,83.9,75,83.7,75h-4.1l0-8.1l-2.2,0l0,10.1h6.9c0.7,0,1.3-0.1,1.7-0.6
			c0.5-0.5,0.5-1.2,0.5-1.6v-8l-2.2,0V74.4z"/>
		<path class="st3" d="M108.6,69c0-0.4,0-1.1-0.5-1.6c-0.5-0.5-1.1-0.6-1.7-0.6l-6.9,0l0,10.1h6.9c0.7,0,1.3-0.1,1.7-0.6
			c0.5-0.5,0.5-1.2,0.5-1.6L108.6,69 M106.4,74.4c0,0.1,0,0.3-0.1,0.4c-0.1,0.1-0.3,0.1-0.5,0.1h-4.1l0-6.2l4.1,0
			c0.2,0,0.4,0,0.5,0.1c0.1,0.1,0.1,0.3,0.1,0.5V74.4z"/>
		<path class="st3" d="M71.3,71.3l-2.7-4.4H66l4.1,6.4V77h2.4l0-3.7l4.1-6.4H74L71.3,71.3z"/>
		<path class="st3" d="M121.8,77h2.3V66.9h-2.3L121.8,77z"/>
		<path class="st3" d="M181.6,73.7c0.5-0.1,0.9-0.2,1.2-0.5c0.4-0.5,0.5-1.2,0.5-1.6V69c0-0.4,0-1.1-0.5-1.6
			c-0.5-0.5-1.1-0.6-1.7-0.6h-6.9l0,10.1h2.2v-3.3h2.8l2.2,3.3h2.3L181.6,73.7 M181.3,71.2c0,0.1,0,0.2-0.1,0.3
			c-0.1,0.1-0.3,0.1-0.5,0.1l-4.2,0V69l4.2,0c0.2,0,0.4,0,0.5,0.1c0.1,0.1,0.1,0.2,0.1,0.3L181.3,71.2z"/>
		<path class="st3" d="M152.9,66.9l0,2.2l3.4,0l0,7.9h2.2l0-7.9h3.5l0-2.2H152.9z"/>
		<path class="st3" d="M129.9,66.9l0,10.1l2.2,0l0-6.4l2.1,6.4h1.9l2.2-6.4l0,6.4h2.2l0-10.1h-2.9l-2.4,7.1l-2.4-7.1H129.9z"/>
		<path class="st3" d="M171.9,67.5c-0.5-0.5-1.1-0.6-1.7-0.6l-4.7,0c-0.6,0-1.3,0.1-1.7,0.6c-0.5,0.5-0.5,1.2-0.5,1.6l0,5.8
			c0,0.4,0,1.1,0.5,1.6c0.4,0.5,1.1,0.6,1.7,0.6h4.7c0.6,0,1.3-0.1,1.7-0.6c0.5-0.5,0.5-1.2,0.5-1.6V69
			C172.4,68.6,172.4,67.9,171.9,67.5 M170.2,74.4c0,0.1,0,0.2-0.1,0.3c-0.1,0.1-0.2,0.1-0.5,0.1l-3.6,0c-0.2,0-0.4,0-0.5-0.1
			c0-0.1-0.1-0.2-0.1-0.3l0-4.9c0-0.1,0-0.2,0.1-0.3c0.1-0.1,0.3-0.1,0.5-0.1h3.6c0.2,0,0.4,0,0.5,0.1c0.1,0.1,0.1,0.2,0.1,0.3
			L170.2,74.4z"/>
		<path class="st3" d="M151,67.5c-0.5-0.5-1.1-0.6-1.7-0.6l-4.6,0c-0.7,0-1.3,0.1-1.7,0.6c-0.5,0.5-0.5,1.2-0.5,1.6v5.8
			c0,0.4,0,1.1,0.5,1.6c0.5,0.5,1.1,0.6,1.7,0.6l4.6,0c0.7,0,1.3-0.1,1.7-0.6c0.5-0.5,0.5-1.2,0.5-1.6l0-5.8
			C151.5,68.6,151.5,67.9,151,67.5 M149.3,74.4c0,0.1,0,0.2-0.1,0.3c-0.1,0.1-0.3,0.1-0.5,0.1h-3.6c-0.2,0-0.4,0-0.5-0.1
			c-0.1-0.1-0.1-0.2-0.1-0.3v-4.9c0-0.1,0-0.2,0.1-0.3c0.1-0.1,0.3-0.1,0.5-0.1l3.6,0c0.2,0,0.4,0,0.5,0.1c0.1,0.1,0.1,0.2,0.1,0.3
			L149.3,74.4z"/>
		<path class="st3" d="M192,71l-4.2,0c-0.4,0-0.6-0.2-0.6-0.6l0-1c0-0.4,0.2-0.5,0.6-0.5l5.8,0l0-2l-6.3,0c-1.5,0-2.2,0.7-2.2,2.2
			l0,1.7c0,1.4,0.7,2.1,2.1,2.1h4.2c0.4,0,0.6,0.2,0.6,0.5l0,1c0,0.4-0.2,0.6-0.6,0.6l-5.9,0v2h6.4c1.5,0,2.2-0.8,2.2-2.2l0-1.7
			C194.1,71.7,193.4,71,192,71"/>
		<path class="st1" d="M157.5,96.7c0,0.8-0.6,1.2-1.6,1.2c-1.9,0-3.7-0.1-5.6-0.1l0-8.5c1.9,0,3.7,0.1,5.6,0.1c1,0,1.7,0.5,1.7,1.2
			L157.5,96.7z M157.5,111.6c0,0.8-0.6,1.2-1.7,1.1c-1.9-0.1-3.7-0.2-5.6-0.3l0-9.2c1.9,0.1,3.7,0.1,5.6,0.2c1.1,0,1.7,0.5,1.7,1.3
			L157.5,111.6z M159.9,83.6h-21.5c0,0,2.6,1.3,2.6,4.5l0,29.5c6.3,0.2,12.7,0.6,19,1.2c4.3,0.4,6.8-1.2,6.7-4.4l0-8.1
			c0-3.2-1.7-4.9-6.2-5.4c4.6,0,6.3-1.6,6.2-4.8l0-7.4C166.7,85.4,164.1,83.6,159.9,83.6"/>
		<path class="st1" d="M95.1,111.4c0,0.8-0.6,1.3-1.7,1.3c-2,0.1-4,0.3-5.9,0.4c-1.1,0.1-1.7-0.3-1.7-1.1l0-21.4
			c0-0.8,0.6-1.3,1.7-1.3c2,0,3.9-0.1,5.9-0.1c1.1,0,1.7,0.4,1.7,1.2L95.1,111.4z M97.6,83.6l-23.6,0c0,0,2.5,1.3,2.5,4.5l0,26.6
			c0,3.9,2.5,5.2,6.7,4.7c4.7-0.5,9.5-0.9,14.2-1.2c4.3-0.3,6.8-2.4,6.8-5.7c0-8.1,0-15.9,0-24.1C104.3,85.4,101.8,83.6,97.6,83.6"
			/>
		<path class="st1" d="M188.5,114.2c0,0.9-0.6,1.3-1.7,1.1c-1.7-0.2-3.4-0.4-5.1-0.6c-1.1-0.1-1.7-0.7-1.7-1.5l0-29.7h-11.9
			c0,0,2.6,1.3,2.6,4.8c0,0,0,17.5,0,26.3c0,3.2,2.6,5.4,6.8,6c4.5,0.6,9,1.2,13.4,2c4.2,0.7,6.7-0.9,6.7-4.5c0-11.7,0-34.5,0-34.5
			h-9.2L188.5,114.2z"/>
		<path class="st1" d="M126.7,102.3c-3.4-6.2-6.7-12.4-10-18.7h-10.9c0,0,2.6,1.3,2.6,4.5l0,0c0,2.2,0,29.5,0,29.5
			c3.1-0.1,6.1-0.2,9.2-0.3l0-18.6c3.3,6.2,6.5,12.4,9.9,18.6c0,0,5.6,0.1,8.4,0.1l0-33.8h-9.2C126.7,89.8,126.7,96,126.7,102.3"/>
		<path class="st1" d="M34.7,89.1l0,31.2c-3.7,0.7-7.5,1.4-11.1,2.2c-1.6,2.9-3.3,5.8-4.9,8.9c6.1-1.7,12.6-3.2,18.8-4.6
			c4.2-0.9,6.7-3.5,6.7-7.9V83.6l-14.5,0L34.7,89.1z"/>
		<path class="st1" d="M46.5,83.6c0,0,2.5,1.5,2.5,5.4v0v35.5c7.5-1.5,15.2-2.7,22.8-3.7l0-6.1c-4.4,0.5-8.9,1-13.3,1.7v-9.6
			c3.9-0.4,7.7-0.7,11.6-1.1V99c-3.9,0.2-7.7,0.5-11.6,0.7l0-9.8c4.4-0.1,8.9-0.2,13.3-0.3v-6.1L46.5,83.6z"/>
		<path class="st1" d="M218.4,105.7l12-22.2l-9.9,0L211,101l0-17.4h-11.4c0,0,2.2,1.5,2.2,5.4l0,0c0,16.1,0,35.6,0,35.6
			c3,0.6,6.2,1.2,9.2,1.9l0-18.1l10.5,20.4c3.2,0.8,6.8,1.6,10,2.5L218.4,105.7z"/>
	</g>
</g>
<g id="레이어_1">
	<rect x="8" y="8" class="st4" width="234" height="234"/>
</g>
</svg>
