<?xml version="1.0" encoding="utf-8"?>
<!-- Generator: Adobe Illustrator 25.1.0, SVG Export Plug-In . SVG Version: 6.00 Build 0)  -->
<svg version="1.1" xmlns="http://www.w3.org/2000/svg" xmlns:xlink="http://www.w3.org/1999/xlink" x="0px" y="0px"
	 viewBox="0 0 250 250" style="enable-background:new 0 0 250 250;" xml:space="preserve">
<style type="text/css">
	.st0{fill:#0058A7;}
	.st1{fill:#FFFFFF;}
	.st2{fill:#E83534;}
	.st3{fill:#03428C;}
	.st4{fill:none;}
</style>
<g id="Layer_1">
	<g>
		<path class="st0" d="M125,242c35.5-37.4,52.4-62.8,62.9-84.9c10.5-22.1,18.4-51.8,22.4-75.6c4-23.8,4.7-44.8,4.7-44.8L166.8,8
			c-14,7.8-27,9.8-41.6,9.9h-0.3c-14.7,0-27.7-2.1-41.7-9.9L34.9,36.7c0,0,0.7,21,4.7,44.7c4,23.8,11.9,53.4,22.4,75.6
			C72.5,179.2,89.5,204.6,125,242L125,242L125,242L125,242z"/>
		<path class="st1" d="M167.4,184.5c18.3-26.5,39.1-71,43.3-145.6l-43.8-26.1c0,0-14.7,9.2-41.7,9.2l-0.6,0
			c-26.9-0.1-41.5-9.2-41.5-9.2L39.3,38.9c4.3,74.6,25.1,119.1,43.3,145.6c19.4,28.1,42.4,51.2,42.4,51.2S148,212.7,167.4,184.5z"/>
		<path class="st0" d="M82.3,20.6v152.1c0,0-32.1-46.4-36.4-130.3C67.9,30.1,82.3,20.6,82.3,20.6z"/>
		<path class="st2" d="M167.7,20.6v152.1c0,0,32.1-46.4,36.4-130.3C182.1,30.1,167.7,20.6,167.7,20.6L167.7,20.6z"/>
		<g>
			<path class="st0" d="M90.3,121.1v-6.8h8v4.7h4.3v-4.9h8.3v4.9h6v2.2h-8.2v-4.9h-3.9v4.9h-8.7v-4.7h-3.6v4.6L90.3,121.1z
				 M159.7,121.1v-6.8h-8v4.7h-4.3v-4.9h-8.4v4.9h-6v2.2h8.2v-4.9h3.9v4.9h8.7v-4.7h3.6v4.6L159.7,121.1z M125.1,111.3
				c1.7,0,3.6,1.1,3.6,3.4v6.6h2.2v-6.9c0-0.4-0.1-2.4-1.9-3.9c-1.5-1.3-3.5-1.4-3.9-1.4h-0.2c-0.4,0-2.4,0.1-3.9,1.4
				c-1.7,1.5-1.9,3.5-1.9,3.9v6.9h2.2v-6.6c0-2.3,1.9-3.4,3.6-3.4H125.1z"/>
			<path class="st0" d="M125.1,104.3c0.7,0,6.3,0,10.5-0.3c4.4-0.3,7.9-0.7,10.6-1.2l0.6,4.9h6c0,0-1.9,1.3-5.8,1.8l0.5,4.5l2.3,0
				l-0.3-2.6c0,0,1.5-0.2,3.9-1.5c2.4-1.2,5.9-3.9,6.6-4.5h-11.2l-0.6-5.4c0,0-3.1,0.7-7.3,1.1c-4.1,0.4-9.4,0.7-15.7,0.7h-0.3
				c-6.2,0-11.5-0.3-15.6-0.7c-4.2-0.4-7.3-1.1-7.3-1.1l-0.6,5.4H90.2c0.6,0.6,4.1,3.2,6.6,4.5c2.4,1.2,3.9,1.5,3.9,1.5l-0.3,2.6
				l2.3,0l0.5-4.5c-3.9-0.5-5.8-1.8-5.8-1.8h6l0.6-4.9c2.6,0.4,6.2,0.9,10.6,1.2c4,0.3,9.3,0.3,10.4,0.3H125.1L125.1,104.3z
				 M109,127.4h-1.3c0,0-0.9,1.2-2.7,1.6v0.9c0,0,1.2-0.1,1.5,0.3c0.3,0.3,0.2,0.9,0.2,1.4v5.6h2.2L109,127.4z M121.1,129.5
				c-0.1-1-0.7-2.2-2.9-2.2c-2.2,0-2.7,1.3-2.8,2.1c-0.1,0.9-0.1,2.9,0.1,3.5c0.2,0.6,1,1,1.7,1c0.7,0,1.1-0.2,1.3-0.7l0.2,0.1
				c0,0,0,1.2,0,2.1c0,0.9-0.6,0.8-0.6,0.8s-0.4,0-0.5-0.3c-0.1-0.3-0.1-0.8-0.1-1h-2.2c0,0-0.3,2.6,2.9,2.6c3.2,0,2.9-2.3,2.9-4.1
				C121.1,131.5,121.2,130.5,121.1,129.5L121.1,129.5z M118.9,131.8c0,0.4-0.1,0.8-0.6,0.8c-0.5,0-0.7-0.4-0.7-0.9
				c0-0.5,0-2.3,0-2.3s0-0.9,0.6-0.9c0.5,0,0.6,0.5,0.6,0.9L118.9,131.8L118.9,131.8z M133,129.5c-0.1-1-0.7-2.2-2.9-2.2
				c-2.2,0-2.7,1.3-2.8,2.1c-0.1,0.9-0.1,2.9,0.1,3.5c0.2,0.6,1,1,1.7,1c0.7,0,1.1-0.2,1.3-0.7l0.2,0.1c0,0,0,1.2,0,2.1
				c0,0.9-0.6,0.8-0.6,0.8s-0.4,0-0.5-0.3c-0.1-0.3-0.1-0.8-0.1-1h-2.2c0,0-0.3,2.6,2.9,2.6c3.2,0,2.9-2.3,2.9-4.1
				C133,131.5,133.1,130.5,133,129.5L133,129.5z M130.8,131.8c0,0.4-0.1,0.8-0.6,0.8c-0.5,0-0.7-0.4-0.7-0.9c0-0.5,0-2.3,0-2.3
				s0-0.9,0.6-0.9c0.5,0,0.6,0.5,0.6,0.9V131.8L130.8,131.8z M144.5,127.4h-5.1l-0.1,4.8l2.2,0c0,0-0.1-0.9,0.6-0.9
				c0.7,0,0.7,0.7,0.7,0.9v2.7c0,1-0.1,1.2-0.6,1.2c-0.5,0-0.7-0.3-0.7-1.3c0-1,0-1.1,0-1.1h-2.2c0,0,0,1.3,0.2,2.1
				c0.2,0.7,0.9,1.6,2.8,1.6c1.9,0,2.6-1,2.7-1.9c0.1-0.9,0.1-2.5,0-3.5c0-1-0.5-2-1.9-2c-1.4,0-1.7,0.9-1.7,0.9v-2.2h3.1
				L144.5,127.4L144.5,127.4z"/>
		</g>
		<path class="st3" d="M153.8,38.1c0,0,3-0.7,3.8-0.9c-0.1-0.1-0.4-0.1-0.4-0.1c-1.3,0-3.4,0.8-3.4,0.8
			C153.5,38,153.8,38.1,153.8,38.1z"/>
		<path class="st0" d="M98.4,43.2H92l2.2,3.7l1.1-1.8h1.1c1.1,0,0.4,1.2,0.4,1.2c-0.4,0.8-1.5,0.9-1.5,0.9h-3.9l-3.4,6.2h4.8
			c3,0,4.8-2.8,4.8-2.8c1.3-1.8-0.3-2.6-0.3-2.6c1.8-0.5,2.9-2.6,2.9-2.6C101,43.4,98.4,43.2,98.4,43.2z M93.9,51
			c-0.5,0.7-1.4,0.6-1.4,0.6h-0.9l1.4-2.4l1.1,0.1C95,49.6,93.9,51,93.9,51z M102.2,43.2h2.8l-5.5,10.2h-2.8l4.9-9.1h-0.7
			L102.2,43.2z M103.4,48.3h-0.7l1.4-1.1h2.6l-2.4,4.3c0,0-0.8,1.2,0.9,0.6c0,0,0.2-0.1,0.5-0.6l1.7-3.1h-0.7l1.3-1.1h2.7l-3.5,6.2
			h-2.4l0.3-0.5c0,0-1.3,0.9-2.3,0.8c0,0-0.9,0.1-1.5-0.5c0,0-0.3-0.3,0.1-1.1L103.4,48.3L103.4,48.3z M115.4,46.9
			c-3.5-0.2-4.7,2-4.7,2l-1.5,2.6c-0.6,1,0,1.6,0,1.6c1.1,0.7,2.6,0.6,2.6,0.6c3,0,4.3-2.4,4.3-2.4h-2.6c-0.7,1.1-1.4,1.1-1.4,1.1
			c-0.9,0-0.4-0.8-0.4-0.8l0.6-1h4.3l1.1-2C118.4,47,115.4,46.9,115.4,46.9L115.4,46.9z M115,48.8l-0.3,0.5h-1.8
			c0.8-1.3,1.4-1.2,1.4-1.2C115.4,48.1,115,48.8,115,48.8z M96.2,57.5h-1.6v-0.1l2.3-2.1h4.6L97,66.6l8-11.2h4.6l-4.1,11.2l7.6-11.2
			h4.6l-12,15.8h-5.4l4.3-10.8L97,71.1h-5.2L96.2,57.5z M114.4,62.6h-1.2l2.4-2h4.1L114,71.1h-4.4L114.4,62.6z M130.4,60.3
			c-2.7-0.3-4.6,1.3-5.1,1.7l0.7-1.4h-4.1l-2.4,2h1.2l-4.8,8.5h4.4l3.6-6.7c1.1-1.4,2.2-1.7,2.2-1.7c1.2-0.1,0.7,0.9,0.7,0.9
			l-4.3,7.5h4.4l4.9-8.8C132.6,60.8,130.4,60.3,130.4,60.3L130.4,60.3z M141.8,60.6l-0.9,1.5c0,0,0.1-1.7-2-1.8c0,0-3-0.6-5.8,3
			l-2.7,4.7c0,0-1.2,2.2,1.2,2.8c0,0,2.1,0.6,4.7-1l-1.1,1.8c0,0-0.4,1-1.9,1.1c0,0-1.8,0.2-0.8-1h-4.3c0,0-1.3,2.3,1.2,2.8
			c0,0,4.1,0.8,7.2-0.5c0,0,2-0.8,3.6-3.2l5.7-10.2H141.8L141.8,60.6z M139.5,64l-1.8,3.2c0,0-0.7,1.4-2.1,1.1c0,0-1.1,0-0.5-1.1
			l1.7-3.2c0,0,0.9-1.5,2.2-1.4C139,62.7,140.1,62.8,139.5,64L139.5,64z M156.4,63.6c0,0,0.5-0.7,0.5-1.5h0c0-0.1,0-0.2,0-0.3
			c0,0,0,0,0,0c-0.2-0.8-1.2-1.2-1.9-1.3c-1.3-0.2-4.3-0.5-6.6,0.5c0,0-3.1,1.2-3.4,3.4c0,0,0,1.5,2.3,2.3l1.8,0.7
			c0,0,2.1,0.9-0.4,1.9c0,0-0.8,0.2-1.3,0.1v0c0,0,0,0-0.1,0c0,0,0,0-0.1,0c-1.1-0.4-0.5-1.3-0.3-1.5h-4.1c0,0-1.7,2.6,1.4,3.4
			c0,0,5.6,0.9,8.3-1.4c0,0,2.1-1.7,2-3.2c-0.1-0.6-0.7-1-1.1-1.3l-2.4-1.1c0,0-2-0.6-1.1-1.5c0,0,0.5-0.4,1.2-0.6
			c0.2-0.1,0.6-0.1,1-0.1c0,0,0.1,0,0.1,0h0c0.3,0.1,0.6,0.4,0.2,1.4L156.4,63.6L156.4,63.6L156.4,63.6z M162.1,35
			c-0.1-0.2-1.8,0-1.8,0c-20.6,3-33.1,8.2-33.1,8.2c-5.3,1.9-7.3,4.5-7.3,4.5c-1.2,1.7,0.2,2.3,0.2,2.3c0.4,0.2,1.1,0.3,1.1,0.3
			l1.7,0.2c1.8,0.2,0.6,2.2,0.6,2.2l-3.4,6.1c-0.2,0.3,0.3,0.1,0.3,0.1l8.2-3.6l2.3-4.3l5.2,0l3.2-1.6c0.4-0.2,0.5-0.4,0.5-0.4
			c0-0.2-0.4-0.1-0.4-0.1l-1.7,0.4c-0.7,0.2-0.7,0.1-0.7,0.1l4.2-1.8c1.1-0.5,0.8-0.7,0.8-0.7c-0.1-0.2-1.5,0.4-1.5,0.4
			c-0.7,0.3-0.7,0.1-0.7,0.1l6-2.7c0.8-0.3,0.7-0.3,0.7-0.3c0-0.3-0.7,0-0.7,0l-4.3,1.5c-0.8,0.3,0-0.2,0-0.2l6.8-2.6
			c1-0.4,0.9-0.5,0.9-0.5c-0.1-0.2-1.4,0.2-1.4,0.2c-0.7,0.2-0.5,0-0.5,0l3.2-1.2c0.7-0.2,0.5-0.5,0.5-0.5c-0.1-0.3-2.7,0.4-2.7,0.4
			c-0.1-0.3-1.4,0-1.4,0h0c-5,1.3-4.5,0.8-4.5,0.8c0.4-0.2,5.8-1.7,9.3-2.6l2.6-0.8c0.6-0.2,0.5-0.3,0.5-0.3c-0.1-0.1-0.8,0-0.8,0
			l-0.4,0.1c-3.5,0.9-4.2,0.9-4.2,0.9c0.4-0.2,2-0.7,2.6-0.9c0.3-0.1,0.3-0.2,0.3-0.2c0-0.1-1,0-1,0l-0.5,0.1
			c-1.7,0.3-2.5,0.5-3,0.5l-0.3,0.1L148,39c-0.3,0-0.3,0-0.3,0l9.2-2.4l3.9-1.1C162.2,35,162.1,35,162.1,35L162.1,35z M138.9,46.9
			c0,0,0.1-0.4,0.9-0.6c0,0,0.6-0.2,1-0.3C140.8,46,140.7,46.4,138.9,46.9z M147,42.8c0,0,0.4,0.2-1.6,0.7c-0.3,0.1-0.5,0.1-0.6,0.2
			c0,0-0.1,0-0.1,0c0,0-0.1,0-0.2,0c-0.4,0.1-0.6,0-0.6,0c1-0.4,1.8-0.7,2.4-0.8C146.6,42.8,146.8,42.8,147,42.8L147,42.8z"/>
		<path class="st2" d="M131.2,50.9l-4.2,7.7l18.9-7.7H131.2z"/>
		<g>
			<path class="st0" d="M100.6,172.2v-0.4c0-0.7-0.1-1.2-0.3-1.5c-0.2-0.3-0.5-0.4-1-0.4c-0.5,0-0.8,0.1-1.1,0.4
				c-0.2,0.3-0.4,0.7-0.4,1.2c0,0.4,0.1,0.8,0.4,1.1c0.3,0.3,0.8,0.6,1.5,0.9c1.4,0.6,2.3,1.3,2.9,1.9c0.5,0.6,0.8,1.4,0.8,2.3
				c0,1.3-0.4,2.4-1.1,3c-0.7,0.7-1.8,1-3.2,1c-1.5,0-2.6-0.3-3.3-0.9c-0.6-0.6-1-1.6-1-3v-0.5h2.7v0.4c0,0.7,0.1,1.1,0.4,1.5
				c0.3,0.3,0.6,0.5,1.2,0.5c0.5,0,0.9-0.1,1.1-0.4c0.2-0.3,0.4-0.7,0.4-1.3c0-0.4-0.2-0.8-0.5-1.1c-0.3-0.3-0.8-0.7-1.6-1
				c-1.3-0.6-2.2-1.2-2.8-1.8c-0.5-0.6-0.8-1.3-0.8-2.2c0-1.3,0.4-2.3,1.1-2.9c0.7-0.6,1.8-1,3.2-1c1.5,0,2.5,0.3,3.1,0.9
				c0.6,0.6,0.8,1.5,0.8,2.8l0,0.3v0.4H100.6L100.6,172.2z M114.7,177.7c0,1.3-0.3,2.3-1,3c-0.7,0.7-1.7,1-3.1,1
				c-1.4,0-2.4-0.3-3.1-1c-0.7-0.7-1-1.7-1-3V168h2.8v9.9c0,0.7,0.1,1.1,0.3,1.4c0.2,0.3,0.6,0.4,1.1,0.4c0.5,0,0.9-0.1,1.1-0.4
				c0.2-0.3,0.3-0.7,0.3-1.4V168h2.8V177.7z M135.9,180.6c-0.6-0.7-0.9-1.9-0.9-3.6v-5.5c0-1.3,0.3-2.2,1-2.8
				c0.7-0.6,1.7-0.9,3.1-0.9c1.4,0,2.5,0.3,3.2,0.9c0.7,0.6,1.1,1.6,1.1,2.8v5.5c0,1.7-0.3,2.9-0.9,3.6c-0.6,0.7-1.7,1-3.3,1
				C137.6,181.7,136.5,181.3,135.9,180.6z M140.3,179.1c0.2-0.4,0.3-1,0.3-1.9v-5.5c0-0.6-0.1-1.1-0.4-1.4c-0.2-0.3-0.6-0.5-1.1-0.5
				c-0.5,0-0.8,0.2-1.1,0.5c-0.2,0.3-0.4,0.8-0.4,1.4v5.5c0,0.9,0.1,1.5,0.3,1.9c0.2,0.4,0.6,0.5,1.1,0.5
				C139.7,179.6,140.1,179.4,140.3,179.1L140.3,179.1z M148.5,181.5h-2.3V168h4.1l2.4,11.4V168h2.3v13.5h-4l-2.4-11.5L148.5,181.5
				L148.5,181.5L148.5,181.5z"/>
		</g>
		<path class="st0" d="M129.5,180.9H127l-1.9-8.9h0l-1.8,8.9h-2.5l-2.9-13h2.4l1.8,8.9h0l1.9-8.9h2.3l1.9,9h0l1.8-9h2.4L129.5,180.9
			z"/>
	</g>
</g>
<g id="레이어_1">
	<rect x="8" y="8" class="st4" width="234" height="234"/>
</g>
</svg>
