<?xml version="1.0" encoding="utf-8"?>
<!-- Generator: Adobe Illustrator 25.1.0, SVG Export Plug-In . SVG Version: 6.00 Build 0)  -->
<svg version="1.1" xmlns="http://www.w3.org/2000/svg" xmlns:xlink="http://www.w3.org/1999/xlink" x="0px" y="0px"
	 viewBox="0 0 250 250" style="enable-background:new 0 0 250 250;" xml:space="preserve">
<style type="text/css">
	.st0{fill:none;}
	.st1{fill:#570514;}
	.st2{fill:#7D0521;}
	.st3{fill:#FFFFFF;}
	.st4{fill:#EB008A;}
	.st5{fill:#D1D1D1;}
</style>
<g id="Layer_1">
	<rect x="8" y="8" class="st0" width="234" height="234"/>
	<g>
		<path class="st1" d="M125.5,39c-47.5,0-86,38.5-86,86c0,47.5,38.5,86,86,86c47.5,0,86-38.5,86-86C211.6,77.5,173.1,39,125.5,39"/>
		<path class="st2" d="M125.5,207.9c-45.8,0-82.9-37.1-82.9-82.9c0-45.8,37.1-82.9,82.9-82.9c45.8,0,82.9,37.1,82.9,82.9
			C208.4,170.8,171.3,207.9,125.5,207.9"/>
		<path class="st3" d="M70.3,87.3L61.9,81l1.5-2l3.3,2.5l0,0l-2.2-4l1.5-2l2.3,4.6l6.1,1.6l-1.6,2.1l-3.7-1.1l0.5,1.1l2.1,1.6
			L70.3,87.3z M77.1,79l-7.5-7.4l1.7-1.8l7.5,7.4L77.1,79z M85.6,67.6L85.6,67.6l-3.8-6.4l1.9-1.4l4.9,9.5l-2.2,1.7l-5-5.5l0,0
			l3.8,6.4l-2.2,1.6l-7.7-7.4l1.9-1.4l5,5.5v0l-3.6-6.5l1.9-1.4L85.6,67.6z M93.5,58c-0.1-0.1-0.2-0.3-0.2-0.4
			c-0.1-0.1-0.2-0.3-0.3-0.4c-0.1-0.1-0.2-0.2-0.4-0.2c-0.2,0-0.3,0-0.5,0.1c-0.3,0.1-0.5,0.4-0.5,0.7c0,0.2,0,0.3,0.1,0.5
			c0.1,0.2,0.1,0.3,0.2,0.5l1.9,3.9c0.1,0.1,0.1,0.3,0.2,0.4c0.1,0.2,0.2,0.3,0.3,0.4c0.1,0.1,0.3,0.2,0.4,0.2c0.2,0,0.3,0,0.5-0.1
			c0.2-0.1,0.3-0.2,0.4-0.3c0.1-0.1,0.1-0.3,0.1-0.4c0-0.2-0.1-0.3-0.1-0.5c-0.1-0.2-0.1-0.3-0.2-0.5L93.5,58z M97.5,60.6
			c0.3,0.5,0.4,1,0.5,1.5c0.1,0.5,0.1,0.9,0,1.3c-0.1,0.4-0.3,0.8-0.6,1.1c-0.3,0.3-0.7,0.6-1.3,0.9s-1.1,0.4-1.5,0.5
			c-0.5,0.1-0.9,0-1.2-0.1c-0.4-0.2-0.7-0.4-1-0.8c-0.3-0.4-0.6-0.8-0.8-1.3l-1.9-3.8c-0.5-0.9-0.5-1.7-0.3-2.5
			c0.3-0.7,0.9-1.3,1.9-1.8c1-0.5,1.8-0.6,2.6-0.4c0.7,0.2,1.3,0.8,1.8,1.7L97.5,60.6z M104.5,53.8c-0.1-0.2-0.1-0.3-0.2-0.5
			c-0.1-0.1-0.1-0.3-0.2-0.4c-0.1-0.1-0.2-0.2-0.4-0.3c-0.2-0.1-0.3,0-0.5,0c-0.2,0-0.3,0.1-0.4,0.3c-0.1,0.1-0.1,0.3-0.2,0.4
			c0,0.2,0,0.3,0,0.5c0,0.2,0.1,0.3,0.1,0.5l1.3,4.1c0,0.1,0.1,0.3,0.2,0.5c0.1,0.2,0.1,0.3,0.3,0.4c0.1,0.1,0.2,0.2,0.4,0.3
			c0.2,0.1,0.3,0.1,0.5,0c0.2,0,0.3-0.1,0.4-0.3c0.1-0.1,0.1-0.3,0.1-0.4c0-0.2,0-0.3,0-0.5c0-0.2-0.1-0.3-0.1-0.5L104.5,53.8z
			 M108.1,57c0.2,0.6,0.3,1.1,0.3,1.5c0,0.5,0,0.9-0.2,1.2c-0.2,0.4-0.4,0.7-0.8,1c-0.4,0.3-0.9,0.5-1.4,0.7c-0.5,0.2-1,0.3-1.6,0.2
			c-0.4,0-0.8-0.1-1.2-0.3c-0.4-0.2-0.7-0.5-0.9-0.9c-0.3-0.4-0.5-0.9-0.6-1.4l-1.3-4.1c-0.3-1-0.3-1.8,0.1-2.5
			c0.4-0.7,1.1-1.2,2.1-1.5c1-0.3,1.9-0.3,2.6,0c0.7,0.3,1.2,1,1.5,2L108.1,57z M113,59.2l-1.2-10.4l3.4-0.4l2,6l0,0l0.6-6.3
			l3.4-0.4l1.2,10.4l-2.3,0.3l-0.7-8.2l0,0l-0.8,8.4l-1.8,0.2l-2.6-8h0l1.2,8.1L113,59.2z M132.9,58.5l1.7-10.4l2.4,0.4l-0.6,4
			l1.7,0.3l0.6-4l2.4,0.4l-1.7,10.4l-2.4-0.4l0.7-4.3l-1.7-0.3l-0.7,4.3L132.9,58.5z M143.4,60.6l3.2-10l5.4,1.7l-0.7,2l-3-1
			l-0.6,1.8l2.9,0.9l-0.6,2l-2.9-0.9l-0.7,2.2l3.2,1l-0.6,2L143.4,60.6z M157.6,59.6l0.7,0.4c0.1,0.1,0.3,0.1,0.4,0.1
			c0.1,0,0.3-0.1,0.4-0.1c0.1-0.1,0.2-0.2,0.3-0.3c0.1-0.1,0.2-0.3,0.2-0.4c0.1-0.2,0.2-0.4,0.2-0.7c0-0.2,0-0.3-0.1-0.5
			c-0.1-0.2-0.2-0.3-0.4-0.4c-0.2-0.1-0.5-0.2-0.7-0.4L157.6,59.6z M154.8,64.9l-2.2-1.1l4.7-9.4l3.2,1.6c0.9,0.5,1.5,1,1.7,1.6
			c0.2,0.6,0.1,1.4-0.3,2.3c-0.3,0.5-0.6,0.9-0.9,1.2c-0.3,0.3-0.8,0.4-1.4,0.4l0,0c0.3,0.2,0.5,0.5,0.6,0.8c0.1,0.3,0.1,0.7-0.1,1
			l-0.3,0.7l-0.4,0.9l-0.4,0.8c-0.1,0.2-0.2,0.4-0.2,0.7c0,0.1,0,0.3,0.1,0.4l-0.1,0.1l-2.4-1.2c0-0.1,0-0.2,0.1-0.3
			c0-0.1,0.1-0.2,0.1-0.3c0.2-0.4,0.4-0.8,0.6-1.2c0.2-0.4,0.4-0.7,0.5-1c0.1-0.3,0.2-0.5,0.2-0.8c0-0.2-0.2-0.4-0.4-0.6l-0.7-0.4
			L154.8,64.9z M169.7,65.3c0.1-0.1,0.2-0.3,0.3-0.4c0.1-0.1,0.1-0.3,0.2-0.4c0-0.1,0-0.3,0-0.4c-0.1-0.2-0.2-0.3-0.3-0.4
			c-0.1-0.1-0.3-0.2-0.5-0.2c-0.1,0-0.3,0-0.4,0.1c-0.1,0.1-0.3,0.2-0.4,0.3c-0.1,0.1-0.2,0.3-0.3,0.4l-2.5,3.5
			c-0.1,0.1-0.2,0.3-0.3,0.4c-0.1,0.1-0.2,0.3-0.2,0.5c0,0.2,0,0.3,0,0.5c0,0.2,0.2,0.3,0.3,0.4c0.1,0.1,0.3,0.2,0.5,0.2
			c0.2,0,0.3-0.1,0.4-0.2c0.1-0.1,0.3-0.2,0.4-0.3c0.1-0.1,0.2-0.3,0.3-0.4L169.7,65.3z M169.3,70.1c-0.3,0.5-0.7,0.9-1.1,1.2
			c-0.3,0.3-0.7,0.5-1.1,0.6c-0.4,0.1-0.8,0.1-1.2-0.1c-0.5-0.2-1-0.4-1.4-0.7c-0.4-0.3-0.8-0.7-1.1-1.1c-0.2-0.3-0.4-0.7-0.4-1.2
			c0-0.4,0-0.8,0.2-1.2c0.2-0.4,0.4-0.9,0.8-1.4l2.5-3.5c0.6-0.8,1.3-1.3,2.1-1.4c0.8-0.1,1.6,0.2,2.5,0.8c0.9,0.6,1.4,1.3,1.5,2.1
			c0.1,0.8-0.1,1.6-0.7,2.4L169.3,70.1z M170.4,75.4l7.4-7.5l4,4l-1.5,1.5l-2.3-2.2l-1.4,1.4l2.2,2.2l-1.5,1.5l-2.2-2.2l-1.6,1.6
			L176,78l-1.5,1.5L170.4,75.4z M181.1,81.9l-0.6,0.4c-0.1,0.1-0.2,0.2-0.3,0.3c-0.1,0.1-0.2,0.2-0.2,0.3c0,0.1,0,0.3,0,0.4
			c0,0.2,0.1,0.3,0.2,0.4c0.2,0.2,0.4,0.3,0.6,0.3c0.3,0,0.5-0.1,0.7-0.3c0.2-0.1,0.3-0.3,0.4-0.4c0.1-0.2,0.1-0.3,0.1-0.5
			c0-0.2,0-0.4,0-0.5c0-0.2,0-0.4-0.1-0.6c-0.1-0.4-0.1-0.8-0.1-1.2c0-0.4,0-0.7,0.1-1.1c0.1-0.3,0.2-0.7,0.4-1
			c0.2-0.3,0.5-0.6,0.8-0.9c0.8-0.6,1.5-0.8,2.3-0.7c0.7,0.1,1.4,0.6,2,1.4c0.3,0.4,0.5,0.9,0.6,1.3s0.1,0.8,0,1.2
			c-0.1,0.4-0.3,0.8-0.5,1.1c-0.3,0.4-0.6,0.7-1,0.9l-1.4-1.8l0.4-0.3c0.1-0.1,0.2-0.2,0.3-0.4c0.1-0.1,0.1-0.3,0.2-0.4
			c0-0.2,0-0.3-0.1-0.5c-0.1-0.2-0.3-0.3-0.5-0.4c-0.2,0-0.4,0-0.6,0.1c-0.3,0.2-0.4,0.4-0.5,0.6c-0.1,0.3-0.1,0.5-0.1,0.8
			c0,0.6,0.1,1.1,0.2,1.5c0.1,0.4,0.1,0.9,0,1.2c0,0.4-0.2,0.8-0.4,1.1c-0.2,0.4-0.6,0.7-1.1,1.1c-0.8,0.6-1.6,0.9-2.3,0.8
			c-0.8-0.1-1.4-0.6-2.1-1.4c-0.3-0.4-0.5-0.8-0.7-1.3c-0.1-0.4-0.2-0.8-0.1-1.2c0-0.3,0.1-0.7,0.3-1c0.2-0.3,0.4-0.5,0.7-0.7
			l0.9-0.7L181.1,81.9z M64.1,160.7c0.6-0.3,1.1-0.7,0.8-1.4c-0.2-0.4-0.6-0.6-1-0.3c-0.5,0.3-0.5,0.7-0.5,1.2
			c0,0.6-0.1,1.6-0.2,2.1c-0.2,0.7-0.5,1-1.1,1.3c-1.2,0.7-2.4,0.3-3-1c-0.8-1.5-0.3-2.5,0.9-3.1l0.5-0.3l0.7,1.2l-0.4,0.2
			c-0.7,0.3-1,0.8-0.7,1.4c0.3,0.5,0.7,0.6,1.2,0.3c0.4-0.2,0.6-0.5,0.6-1c0.1-0.9,0-1.9,0.4-2.8c0.2-0.4,0.5-0.7,0.8-0.9
			c1.1-0.6,2.1-0.4,2.8,0.9c1.1,2-0.4,2.8-1.1,3.1L64.1,160.7z M61.6,166.7l6.2-4.3l2.2,3.3l-0.9,0.6l-1.5-2.1l-1.6,1.1l1.3,1.9
			l-0.9,0.6l-1.3-1.9l-1.9,1.3l1.5,2.1l-0.9,0.6L61.6,166.7z M68.2,171.3c-0.5,0.4-1.2,1.1-0.6,1.8c0.6,0.8,1.4,0.1,2-0.3l1.5-1.2
			c0.5-0.4,1.5-1.2,0.8-2c-0.7-0.9-1.7,0.1-2.1,0.4L68.2,171.3z M68.6,169c1.5-1.2,2.7-2,4.2-0.2c1.4,1.7,0.4,2.8-1,4l-0.8,0.7
			c-1.6,1.3-2.8,2.1-4.3,0.3c-1.5-1.8-0.4-2.8,1.1-4.1L68.6,169z M77.9,174.5l1,1l-3.7,3.7c-1.2,1.2-2.1,1.4-3.4,0.1
			c-1.3-1.3-1.2-2.2,0-3.4l3.7-3.7l1,1l-3.6,3.7c-0.5,0.5-1,1.1-0.3,1.7c0.6,0.6,1.2,0.2,1.7-0.4L77.9,174.5z M75.5,182.6l4.8-5.8
			l1.1,0.9l-4.1,5l2,1.7l-0.7,0.9L75.5,182.6z M83.5,188.7l4-6.4l1.2,0.7l-1.6,2.5l1.7,1l1.6-2.5l1.2,0.7l-4,6.4l-1.2-0.7l1.8-2.9
			l-1.7-1l-1.8,2.9L83.5,188.7z M89.8,192.4l3.4-6.7l3.5,1.8l-0.5,1l-2.3-1.1l-0.9,1.7l2.1,1.1l-0.5,1l-2.1-1.1l-1,2.1l2.3,1.1
			l-0.5,1L89.8,192.4z M98.4,191.6l1,0.4c0.4,0.1,0.9,0,1.2-0.7c0.3-0.8,0-1-0.5-1.2l-1-0.4L98.4,191.6z M98,192.7l-1.2,3l-1.3-0.5
			l2.7-7l2.5,1c1.1,0.4,1.8,1.2,1.3,2.5c-0.3,0.8-0.8,1.5-1.7,1.3l0,0c0.7,0.4,0.8,1,0.5,1.7c-0.1,0.3-0.8,2-0.6,2.3l-0.1,0.1
			l-1.4-0.6c0-0.5,0.4-1.4,0.6-1.8c0.2-0.4,0.4-1,0-1.3c-0.3-0.2-0.7-0.4-1.1-0.5L98,192.7z M104.6,195.7c-0.2,0.6-0.4,1.6,0.5,1.9
			c1,0.3,1.3-0.7,1.5-1.4l0.5-1.9c0.2-0.6,0.6-1.9-0.5-2.1c-1.1-0.3-1.3,1-1.5,1.6L104.6,195.7z M103.7,193.6
			c0.6-1.8,1.1-3.2,3.3-2.6c2.2,0.6,1.9,2,1.5,3.9l-0.3,1c-0.5,1.9-1.1,3.3-3.3,2.7c-2.2-0.6-2-2.1-1.4-4L103.7,193.6z M109.7,199.7
			l1.4-7.4l3.9,0.7l-0.2,1.1l-2.5-0.5l-0.3,1.9l2.3,0.4L114,197l-2.3-0.4l-0.4,2.3l2.5,0.5l-0.2,1.1L109.7,199.7z M119.3,195.8
			c0.1-0.7,0.1-1.3-0.7-1.4c-0.5,0-0.8,0.1-0.8,0.6c-0.1,0.6,0.3,0.8,0.7,1.2c0.4,0.3,1.2,1,1.6,1.4c0.4,0.5,0.5,1,0.5,1.6
			c-0.1,1.4-1.2,2.1-2.5,1.9c-1.7-0.2-2.2-1.2-2.1-2.5l0.1-0.6l1.4,0.1l0,0.4c-0.1,0.7,0.1,1.3,0.8,1.3c0.6,0.1,0.9-0.2,1-0.8
			c0-0.4-0.1-0.8-0.5-1c-0.7-0.6-1.5-1.1-2-1.9c-0.2-0.4-0.3-0.8-0.3-1.2c0.1-1.3,0.9-1.9,2.4-1.8c2.2,0.2,2,1.9,1.9,2.7
			L119.3,195.8z M128.1,200.1c0.3,0,0.6,0,0.8-0.1c0.4-0.2,0.4-0.7,0.4-1.1c0-0.8-0.2-1.2-1.1-1.1l-0.5,0l0.1,2.3L128.1,200.1z
			 M128,196.7c0.3,0,0.8,0,1-0.3c0.1-0.2,0.1-0.5,0.1-0.8c0-0.6-0.2-0.8-0.8-0.8l-0.7,0l0.1,1.9L128,196.7z M126.5,201.3l-0.3-7.5
			l2.3-0.1c0.6,0,1.2,0,1.6,0.5c0.3,0.4,0.4,0.8,0.4,1.3c0,0.7-0.1,1.3-0.8,1.6v0c0.8,0.1,1.1,0.7,1.2,1.7c0,0.3,0,0.6-0.1,0.9
			c-0.3,1-0.8,1.4-1.8,1.4L126.5,201.3z M134.5,197.7l1.2-0.2l-0.7-2.1c-0.1-0.3-0.2-0.7-0.3-1c0-0.2-0.1-0.3-0.1-0.5l0,0
			c0,0.2,0,0.3,0,0.5c0,0.4,0,0.7,0,1.1L134.5,197.7z M132.8,201l0.8-7.7l1.9-0.2l2.7,7.3l-1.5,0.2l-0.6-1.8l-1.6,0.2l-0.1,1.9
			L132.8,201z M141.8,194.2c-0.1-0.7-0.3-1.3-1.1-1.1c-0.5,0.1-0.7,0.4-0.6,0.9c0.1,0.6,0.5,0.7,1,0.9c0.5,0.2,1.5,0.6,1.9,0.8
			c0.6,0.4,0.8,0.8,1,1.4c0.3,1.4-0.5,2.3-1.8,2.6c-1.7,0.4-2.4-0.4-2.7-1.7l-0.1-0.5l1.4-0.3l0.1,0.4c0.1,0.7,0.5,1.2,1.1,1
			c0.6-0.1,0.8-0.5,0.7-1.1c-0.1-0.4-0.4-0.7-0.8-0.8c-0.8-0.4-1.8-0.6-2.6-1.2c-0.3-0.3-0.5-0.6-0.6-1.1c-0.3-1.3,0.3-2.1,1.7-2.4
			c2.2-0.5,2.5,1.2,2.7,1.9L141.8,194.2z M146.8,198.3l-2.3-7.2l3.8-1.2l0.3,1.1l-2.4,0.8l0.6,1.8l2.2-0.7l0.3,1.1l-2.2,0.7l0.7,2.2
			l2.4-0.8l0.3,1.1L146.8,198.3z M154,194.6c0.3-0.1,0.6-0.2,0.7-0.4c0.3-0.3,0.1-0.8,0-1.1c-0.3-0.8-0.6-1-1.4-0.7l-0.5,0.2
			l0.9,2.1L154,194.6z M152.6,191.5c0.3-0.1,0.7-0.3,0.8-0.6c0.1-0.2,0-0.5-0.2-0.8c-0.2-0.5-0.4-0.7-1-0.5l-0.6,0.3l0.7,1.8
			L152.6,191.5z M152.8,196.3l-2.9-7l2.1-0.9c0.6-0.2,1.1-0.4,1.7-0.1c0.5,0.3,0.7,0.6,0.9,1.1c0.3,0.6,0.4,1.3-0.2,1.8l0,0
			c0.8-0.2,1.3,0.3,1.7,1.2c0.1,0.3,0.2,0.6,0.3,0.9c0.1,1-0.3,1.6-1.2,2L152.8,196.3z M159.1,190.2l1.1-0.6l-1.3-1.7
			c-0.2-0.3-0.4-0.6-0.6-0.9c-0.1-0.1-0.2-0.3-0.3-0.4l0,0c0.1,0.2,0.1,0.3,0.2,0.5c0.1,0.3,0.3,0.7,0.4,1L159.1,190.2z
			 M158.6,193.8l-1.9-7.5l1.7-0.9l5,5.9l-1.3,0.7l-1.2-1.5l-1.5,0.8l0.6,1.9L158.6,193.8z M165.2,190.2l-4.1-6.3l1.2-0.8l3.5,5.4
			l2.2-1.4l0.6,0.9L165.2,190.2z M170.4,186.7l-4.6-6l1.1-0.9l3.9,5.1l2.1-1.6l0.7,0.9L170.4,186.7z M179.3,175.3
			c0.1,0.1,0.2,0.2,0.3,0.3c0.9,1,1.4,2.1,0.2,3.2c-1.6,1.6-2.8,0.7-4.2-0.7l-0.8-0.8c-1.3-1.4-2.2-2.5-0.6-4.1
			c0.9-0.9,1.9-0.9,2.8-0.1c0.2,0.1,0.3,0.2,0.4,0.4l-1,1c-0.4-0.3-1-1-1.5-0.5c-0.8,0.8,0.2,1.7,0.6,2.1l1.5,1.5
			c0.4,0.4,1.2,1.1,1.9,0.4c0.5-0.6-0.4-1.4-0.7-1.7L179.3,175.3z M182.8,175.4l-5.8-4.9l0.9-1.1l4.9,4.1l1.7-2l0.9,0.7L182.8,175.4
			z M182.5,163.4l0.8-1.2l4.3,3c1.4,1,1.7,1.9,0.7,3.4c-1.1,1.5-2,1.5-3.4,0.6l-4.3-3l0.8-1.2l4.2,2.9c0.6,0.4,1.2,0.8,1.8,0
			c0.5-0.8,0-1.2-0.6-1.6L182.5,163.4z M190.8,162.3c0.1-0.3,0.3-0.5,0.4-0.8c0-0.4-0.4-0.7-0.7-0.9c-0.7-0.4-1.1-0.4-1.5,0.3
			l-0.3,0.5l2,1.1L190.8,162.3z M187.8,160.7c0.2-0.3,0.4-0.7,0.3-1c-0.1-0.2-0.3-0.4-0.6-0.5c-0.5-0.3-0.8-0.3-1.1,0.2L186,160
			l1.7,1L187.8,160.7z M190.9,164.4l-6.6-3.7l1.1-2c0.3-0.5,0.6-1,1.3-1.1c0.5-0.1,0.9,0.1,1.4,0.3c0.6,0.3,1.1,0.8,0.9,1.6l0,0
			c0.5-0.6,1.2-0.6,2.1-0.1c0.3,0.2,0.5,0.3,0.8,0.5c0.7,0.7,0.8,1.4,0.3,2.3L190.9,164.4z"/>
		<path class="st1" d="M125.5,186.9c-34.2,0-61.9-27.7-61.9-61.9s27.7-61.9,61.9-61.9s61.9,27.7,61.9,61.9
			C187.4,159.2,159.7,186.9,125.5,186.9"/>
		<path class="st3" d="M148,179.2c-30,12.4-64.3-1.8-76.7-31.8c-12.4-29.9,1.8-64.3,31.8-76.7c30-12.4,64.3,1.8,76.7,31.8
			C192.2,132.5,178,166.8,148,179.2"/>
		<path class="st2" d="M75.1,100c0.1-0.5,0.5-1,0.9-1c0.2-0.1,0.4,0.1,0.4,0.4c0,0.1,0,0.3,0,0.4c-0.4,1.4-1.2,5.8-1.2,5.8
			s-2.3,2.4-3.4,3.6c-0.3,0.3-0.6,0.2-0.7-0.2c-0.1-0.5,0.1-0.9,0.4-1.3c0.9-0.9,1.8-1.8,2.7-2.8C74.3,103.2,74.6,101.6,75.1,100
			 M77.3,101.1c0.1-0.5,0.5-1,0.9-1.2c0.3-0.1,0.6,0.1,0.6,0.4c0,0.1,0,0.2,0,0.3c-0.3,1.5-0.6,6-0.6,6s-2.5,2.9-3.7,4.2
			c-0.3,0.3-0.7,0.3-0.9-0.1c-0.2-0.4,0-1,0.3-1.4c0.9-1,1.9-2.2,2.9-3.3C76.9,104.4,77,102.8,77.3,101.1 M80.5,101.9
			c0.1-0.6,0.4-1.1,0.9-1.3c0.4-0.2,0.7,0,0.8,0.4c0,0.1,0,0.1,0,0.2c-0.1,1.5,0.2,6.1,0.2,6.1s-2.6,3.3-3.9,4.9
			c-0.3,0.4-0.8,0.5-1.1,0.1c-0.2-0.4-0.2-1,0.2-1.4c1-1.3,2-2.5,3-3.8C80.4,105.3,80.4,103.6,80.5,101.9 M84.4,102.1
			c0-0.5,0.3-1.2,0.9-1.4c0.5-0.2,0.9-0.1,1,0.4l0,0.1c0.1,1.5,1.1,6,1.1,6s-2.6,3.8-4,5.6c-0.3,0.5-0.9,0.6-1.3,0.2
			c-0.3-0.3-0.3-1,0-1.5c1-1.4,2.1-2.9,3.1-4.3C84.8,105.5,84.5,103.8,84.4,102.1 M89.2,102.6c-0.1-0.2-0.1-0.5-0.2-0.7
			c-0.1-0.5,0.2-1.2,0.8-1.5c0.6-0.3,1.2-0.2,1.3,0.3c0.1,0.2,0.1,0.5,0.2,0.7c0.4,1.2,2,5.1,2,5.1s-2.6,4.2-3.9,6.2
			c-0.4,0.5-1,0.7-1.5,0.4c-0.4-0.3-0.5-1-0.2-1.5c1-1.6,2.1-3.2,3-4.9C90.1,105.4,89.6,104,89.2,102.6 M97,105.6
			c-1.1-1.5-2-3.1-2.7-4.7c-0.2-0.5,0.1-1.2,0.7-1.6c0.6-0.4,1.3-0.3,1.5,0.2c0.7,1.4,3.3,5.5,3.3,5.5s-2.4,4.5-3.6,6.7
			c-0.3,0.6-1.1,0.9-1.6,0.6c-0.6-0.2-0.7-0.9-0.4-1.5C95.1,109.2,96.1,107.4,97,105.6 M103.8,103.8c-1.3-1.3-2.6-2.8-3.7-4.3
			c-0.3-0.4-0.1-1.2,0.5-1.6c0.6-0.4,1.4-0.5,1.7,0c1,1.2,4.5,5,4.5,5s-2,4.7-3.1,7.1c-0.3,0.6-1.1,1-1.7,0.9
			c-0.7-0.2-0.9-0.8-0.6-1.5C102.2,107.5,103.1,105.6,103.8,103.8 M109.1,107c0.7-1.9,1.4-3.9,1.9-5.8c-1.6-1.2-3.2-2.4-4.6-3.8
			c-0.4-0.4-0.3-1.1,0.3-1.6c0.6-0.5,1.5-0.6,1.9-0.2c1.2,1.1,5.5,3.8,5.5,3.8s-1.4,5.4-2.4,7.9c-0.3,0.7-1,1.1-1.8,1
			C109.3,108.2,108.9,107.6,109.1,107 M118.2,105.1c-0.8,0-1.3-0.6-1.1-1.3c0.5-1.9,0.9-3.8,1.2-5.7c-1.9-1-3.7-2.1-5.5-3.3
			c-0.5-0.4-0.5-1,0.1-1.6c0.6-0.5,1.5-0.7,2-0.3c1.5,1,6.4,3.3,6.4,3.3s-0.7,5.2-1.4,7.7C119.8,104.6,119,105.1,118.2,105.1
			 M125,100.1c0.2-1.9,0.3-3.7,0.4-5.6c-2-0.8-4.1-1.7-6.1-2.7c-0.6-0.3-0.7-1-0.2-1.5c0.5-0.5,1.4-0.7,2-0.4c1.7,0.8,7,2.8,7,2.8
			s0,4.8-0.3,7.3c-0.1,0.7-0.8,1.2-1.6,1.2C125.5,101.3,124.9,100.8,125,100.1 M132.2,96c0-1.8-0.2-3.6-0.5-5.2
			c-2.2-0.7-4.3-1.4-6.5-2.1c-0.7-0.2-0.9-0.8-0.4-1.4c0.4-0.5,1.3-0.7,1.9-0.5c1.8,0.6,7.4,2.3,7.4,2.3s0.7,4.4,0.8,6.7
			c0,0.6-0.6,1.2-1.3,1.3C132.8,97.1,132.2,96.6,132.2,96 M138.5,91.7c-0.3-1.6-0.8-3.2-1.4-4.8c-2.2-0.5-4.4-1-6.6-1.6
			c-0.7-0.2-1-0.7-0.7-1.2c0.3-0.5,1.1-0.8,1.8-0.6c1.8,0.5,7.6,1.8,7.6,1.8s1.4,3.9,1.8,6c0.1,0.6-0.3,1.1-1,1.3
			C139.3,92.7,138.6,92.3,138.5,91.7 M143.6,87.4c-0.6-1.5-1.3-2.9-2.1-4.3c-2.1-0.3-4.3-0.7-6.5-1.1c-0.7-0.1-1.1-0.6-0.9-1.1
			c0.2-0.5,0.9-0.7,1.6-0.6c1.9,0.3,7.5,1.3,7.5,1.3s1.1,1.8,1.5,2.7c0.4,0.8,0.8,1.7,1.2,2.6c0.2,0.5-0.1,1-0.7,1.2
			C144.5,88.2,143.8,87.9,143.6,87.4 M147.6,83.2c-0.8-1.3-1.7-2.6-2.7-3.8c-2.1-0.2-4.1-0.5-6.2-0.7c-0.7-0.1-1.1-0.5-1.1-0.9
			c0.1-0.4,0.7-0.7,1.3-0.6c1.8,0.2,7.1,0.9,7.1,0.9s2.4,3,3.5,4.7c0,0,0,0,0,0.1c0.2,0.4,0,0.9-0.5,1
			C148.5,83.9,147.9,83.7,147.6,83.2 M150.3,79.2c-1-1.2-2.1-2.3-3.2-3.3c-1.9-0.1-3.8-0.2-5.8-0.4c-0.6,0-1.2-0.4-1.2-0.8
			c0-0.4,0.5-0.7,1.1-0.6c1.7,0.1,6.7,0.5,6.7,0.5s2.8,2.6,4,4.1c0,0,0.1,0.1,0.1,0.1c0.2,0.4,0.1,0.7-0.3,0.9
			C151.3,79.8,150.6,79.7,150.3,79.2 M152,75.6c-1.2-1-2.3-2-3.5-2.8c-1.7,0-3.5,0-5.3-0.1c-0.6,0-1.2-0.3-1.3-0.7
			c-0.1-0.3,0.3-0.6,0.9-0.6c1.6,0,6.1,0.1,6.1,0.1s3,2.2,4.4,3.5c0.1,0.1,0.1,0.1,0.2,0.2c0.2,0.3,0.2,0.6-0.1,0.7
			C153,76.1,152.4,75.9,152,75.6 M176,149.9c-0.1,0.5-0.5,1-0.9,1c-0.2,0.1-0.4-0.1-0.4-0.4c0-0.1,0-0.3,0-0.4
			c0.4-1.4,1.2-5.8,1.2-5.8s2.3-2.4,3.4-3.6c0.3-0.3,0.6-0.2,0.7,0.2c0.1,0.4-0.1,0.9-0.4,1.2c-0.9,0.9-1.8,1.8-2.7,2.8
			C176.8,146.7,176.4,148.3,176,149.9 M173.8,148.9c-0.1,0.5-0.5,1-0.9,1.2c-0.3,0.1-0.5,0-0.6-0.4c0-0.1,0-0.2,0-0.3
			c0.3-1.5,0.6-6,0.6-6s2.5-2.9,3.7-4.2c0.3-0.4,0.7-0.3,0.9,0.1c0.2,0.4,0,1-0.3,1.4c-0.9,1-1.9,2.2-2.9,3.3
			C174.2,145.5,174.1,147.2,173.8,148.9 M170.6,148.1c-0.1,0.6-0.4,1.1-0.9,1.3c-0.4,0.2-0.7,0-0.8-0.4c0-0.1,0-0.1,0-0.2
			c0.1-1.5-0.2-6.1-0.2-6.1s2.6-3.3,3.9-4.9c0.3-0.4,0.8-0.5,1.1-0.1c0.2,0.4,0.2,1-0.2,1.4c-1,1.3-2,2.6-3,3.8
			C170.7,144.7,170.7,146.4,170.6,148.1 M166.7,147.8c0,0.5-0.3,1.2-0.9,1.4c-0.5,0.2-0.9,0.1-1-0.3l0-0.1c-0.1-1.5-1.1-6-1.1-6
			s2.7-3.8,4-5.6c0.4-0.5,0.9-0.6,1.3-0.2c0.3,0.3,0.3,1,0,1.5c-1,1.4-2.1,2.9-3.1,4.3C166.3,144.4,166.6,146.1,166.7,147.8
			 M161.9,147.4c0.1,0.2,0.1,0.5,0.2,0.7c0.1,0.5-0.2,1.2-0.8,1.5c-0.6,0.3-1.2,0.2-1.3-0.3c-0.1-0.2-0.1-0.5-0.2-0.7
			c-0.4-1.2-2-5.1-2-5.1s2.6-4.2,3.9-6.2c0.4-0.5,1-0.7,1.5-0.4c0.4,0.3,0.5,1,0.2,1.5c-1,1.6-2.1,3.2-3,4.9
			C161,144.6,161.5,146,161.9,147.4 M154.1,144.3c1.1,1.5,2,3.1,2.7,4.7c0.2,0.5-0.1,1.2-0.7,1.6c-0.6,0.4-1.3,0.3-1.5-0.2
			c-0.7-1.4-3.3-5.5-3.3-5.5s2.4-4.5,3.6-6.7c0.3-0.6,1.1-0.9,1.6-0.6c0.6,0.2,0.7,0.9,0.4,1.5C156,140.8,155,142.5,154.1,144.3
			 M147.3,146.2c1.3,1.3,2.6,2.8,3.7,4.3c0.3,0.4,0.1,1.2-0.5,1.6c-0.6,0.5-1.4,0.5-1.7,0c-1-1.2-4.5-5-4.5-5s2-4.7,3.1-7.1
			c0.3-0.6,1.1-1,1.7-0.9c0.7,0.2,0.9,0.8,0.6,1.5C148.8,142.5,148,144.3,147.3,146.2 M141.9,143c-0.7,2-1.4,3.9-1.9,5.8
			c1.7,1.2,3.3,2.5,4.6,3.8c0.4,0.4,0.3,1.1-0.3,1.6c-0.6,0.5-1.5,0.6-1.9,0.2c-1.2-1.1-5.5-3.8-5.5-3.8s1.4-5.4,2.4-7.9
			c0.3-0.7,1-1.1,1.8-1C141.8,141.7,142.2,142.3,141.9,143 M132.9,144.9c0.8,0,1.3,0.6,1.1,1.3c-0.5,1.9-0.9,3.8-1.2,5.7
			c1.9,1.1,3.7,2.1,5.5,3.3c0.5,0.3,0.5,1-0.1,1.6c-0.6,0.5-1.5,0.6-2,0.3c-1.5-1-6.4-3.3-6.4-3.3s0.7-5.2,1.4-7.7
			C131.3,145.3,132.1,144.8,132.9,144.9 M126.1,149.8c-0.2,1.9-0.3,3.7-0.4,5.6c2.1,0.9,4.2,1.8,6.1,2.7c0.6,0.3,0.7,0.9,0.2,1.5
			c-0.5,0.5-1.4,0.7-2,0.4c-1.6-0.8-7-2.8-7-2.8s0-4.8,0.3-7.3c0.1-0.6,0.8-1.2,1.5-1.2C125.6,148.6,126.2,149.2,126.1,149.8
			 M118.9,153.9c0.1,1.8,0.2,3.6,0.5,5.2c2.2,0.7,4.4,1.4,6.5,2.1c0.7,0.2,0.9,0.9,0.4,1.4c-0.4,0.5-1.3,0.8-1.9,0.5
			c-1.8-0.6-7.4-2.3-7.4-2.3s-0.7-4.4-0.8-6.7c0-0.6,0.6-1.2,1.3-1.3C118.3,152.9,118.9,153.3,118.9,153.9 M112.6,158.2
			c0.4,1.7,0.8,3.3,1.4,4.8c2.2,0.5,4.4,1,6.6,1.6c0.7,0.2,1,0.7,0.7,1.2c-0.3,0.5-1.1,0.8-1.8,0.6c-1.8-0.5-7.6-1.8-7.6-1.8
			s-1.4-3.9-1.8-6c-0.1-0.6,0.3-1.1,1-1.2C111.8,157.3,112.5,157.6,112.6,158.2 M107.5,162.6c0.6,1.5,1.3,2.9,2.1,4.3
			c2.1,0.3,4.3,0.7,6.5,1.1c0.7,0.1,1.1,0.6,0.9,1.1c-0.2,0.5-0.9,0.7-1.6,0.6c-2.5-0.4-5-0.9-7.5-1.3c0,0-1.1-1.8-1.5-2.7
			c-0.4-0.8-0.8-1.7-1.2-2.6c-0.2-0.5,0.1-1.1,0.7-1.2C106.6,161.7,107.3,162,107.5,162.6 M103.5,166.7c0.8,1.4,1.7,2.6,2.7,3.8
			c2.1,0.2,4.1,0.5,6.2,0.7c0.7,0.1,1.1,0.5,1.1,0.9c-0.1,0.4-0.7,0.7-1.3,0.6c-1.8-0.2-7.1-0.9-7.1-0.9s-2.4-3-3.5-4.7
			c0,0,0,0,0-0.1c-0.2-0.4,0-0.9,0.5-1C102.6,166,103.2,166.2,103.5,166.7 M100.8,170.7c1,1.2,2.1,2.3,3.2,3.3
			c1.9,0.1,3.8,0.2,5.8,0.4c0.6,0,1.2,0.4,1.2,0.8c0,0.4-0.5,0.7-1.1,0.6c-1.7-0.1-6.7-0.5-6.7-0.5s-2.8-2.6-4-4.1
			c0,0-0.1-0.1-0.1-0.1c-0.2-0.4-0.1-0.7,0.3-0.9C99.8,170.1,100.5,170.3,100.8,170.7 M99.1,174.4c1.2,1,2.3,2,3.5,2.8
			c1.7,0,3.5,0.1,5.3,0.1c0.6,0,1.2,0.3,1.3,0.7c0.1,0.3-0.3,0.6-0.9,0.6c-1.6,0-6.1-0.1-6.1-0.1s-3-2.2-4.4-3.5
			c-0.1-0.1-0.1-0.1-0.2-0.2c-0.2-0.3-0.2-0.6,0.1-0.7C98.1,173.9,98.7,174,99.1,174.4"/>
		<path class="st1" d="M217.6,95.8l-0.2,0l-7.5,8.3l-1.3-7.5L190,98.3l-1,2.1c-1.6-0.9-3.4-1.4-5.5-1.4c-0.4,0-0.8,0-1.2,0.1
			l-11.8,1.1c-3.8,0.4-8.1,2.3-11.5,5.2c-1.9-2.4-5.3-3.7-9-3.3l-11.8,1.1v0l-65.6,6l7.3-8.1L47,104l-1.9,3.9l-18.8,1.7L17.9,127
			l3.9-0.4L8,154.8l21.3-2l4.3-8.9l5.2,15.4l20-1.8l-2.4-7.2l7.4-0.7l9.3-19l-0.9,18.2l17.1-1.6l0.2,0l2.7-4l-0.2,3.7l17.1-1.6
			l0.2,0l4.1-6.1c0.1,0.3,0.3,0.5,0.4,0.7c1.9,3,5.3,4.5,9.5,4.1l11.7-1.1c3.8-0.4,8.1-2.3,11.6-5.3c1.7,2.2,4.4,3.4,7.7,3.4
			c0.4,0,0.8,0,1.3-0.1l11.7-1.1c2.3-0.2,4.8-1,7.1-2.2l-0.8,1.6l21.3-2l1.2-2.4l1.3,7.4l5.1-5.7l19-1.8L242,93.5L217.6,95.8z"/>
		<path class="st4" d="M43.2,117.4l2.5-0.2l-5.2,5.7L43.2,117.4z M50.5,140.8l-3-8.9l16-17.7L50.5,140.8z M141.9,115.8l-6.3,12.9
			l-4.2,0.4l6.3-12.9L141.9,115.8z M174.2,112.8l-6.3,12.9l-4.2,0.4l6.3-12.9L174.2,112.8z M218.9,97.7l-0.2,0l-10.6,11.7l-1.8-10.6
			l-14.6,1.3l-2.1,4.3c-0.1-0.2-0.2-0.4-0.3-0.6c-1.1-1.8-3.2-2.8-5.9-2.8c-0.3,0-0.7,0-1,0.1l-11.8,1.1c-4.5,0.4-9.6,3.4-12.8,7.4
			c-0.1-1-0.4-1.9-0.9-2.8c-1.1-1.8-3.2-2.8-5.9-2.8c-0.3,0-0.7,0-1,0l-11.8,1.1c-2.3,0.2-4.8,1.1-7.2,2.6l1.4-2l-15.3,1.4
			l-7.5,11.1l0.5-10.4l-12.8,1.2l-7.5,11.1l0.5-10.4l-24.7,2.3l7.3-8.1l-24.3,2.2l-1.9,3.9l-18.8,1.7l-5.6,11.5l3.9-0.4l-13.8,28.2
			l14.9-1.4l6.6-13.5l6.7,19.7l14.4-1.3l-2.4-7.2l9.3-0.9L74,122l2.3-0.2l-1.2,23.4L88,144l7.5-11l-0.5,10.4l12.8-1.2l10.6-15.7
			l-2,4c-1.4,2.8-1.4,5.4-0.2,7.4c1.1,1.8,3.2,2.8,5.9,2.8c0.3,0,0.7,0,1-0.1l11.7-1.1c4.6-0.4,9.7-3.4,12.8-7.5
			c0.1,1,0.4,2,0.9,2.8c1.3,2.1,3.8,3.1,6.9,2.8l11.7-1.1c5.6-0.5,12-5,14.6-10.2l7.3-15l1.2-0.1l-11.9,24.4l14.9-1.4l4.3-8.7
			l1.7,10.2l9.6-10.6l-3.9,8l14.9-1.4L237.4,96L218.9,97.7z"/>
		<path class="st3" d="M68.5,105.9L50,107.6l-3.7,7.6l3.9-0.4l-15.5,17.2l7.3,21.7l10.6-1l-7.2-21.3L68.5,105.9z M219.6,99.5
			l-12.6,14l-2.2-12.6l-11.9,1.1l-3.7,7.6l4.1-0.4l-11.9,24.4l10.6-1l6.3-12.9l2.1,12.1l15.8-17.5l-8.2,16.8l10.6-1l15.6-32
			L219.6,99.5z"/>
		<path class="st3" d="M65.9,113.6l-15.6,32l10.6-1l15.6-32L65.9,113.6z M29.3,113.3l-3.7,7.6l3.9-0.4l-13.8,28.2l10.6-1L43.8,112
			L29.3,113.3z M136.8,130.4l-8.5,0.8l8.2-16.7l8.5-0.8L136.8,130.4z M150.3,105.8l-11.8,1.1c-4.7,0.4-10.1,4.1-12.6,8.5l-7.8,16
			c-2.3,4.6-0.1,8,4.9,7.6l11.7-1.1c5-0.5,10.8-4.6,13.1-9.2l7.4-15.2C157.5,108.8,155.3,105.4,150.3,105.8 M169.1,127.4l-8.5,0.8
			l8.2-16.7l8.5-0.8L169.1,127.4z M182.6,102.9l-11.8,1.1c-4.7,0.4-10.1,4.1-12.6,8.5l-7.8,16c-2.3,4.6-0.1,8,4.9,7.6l11.7-1.1
			c5-0.5,10.8-4.6,13.1-9.2l7.4-15.2C189.8,105.8,187.6,102.4,182.6,102.9 M118.2,108.8l-10.7,15.8l0.7-14.9l-9.9,0.9l-10.7,15.8
			l0.7-14.9l-10.6,1l-3.7,7.6l4.1-0.4l-1.2,23.4l9.9-0.9l10.7-15.8l-0.7,14.9l9.9-0.9l22.1-32.6L118.2,108.8z"/>
		<path class="st5" d="M29.5,120.6l7.2-4.3l-9.2,0.8l-1.9,3.8L29.5,120.6z M50.2,114.9l9.4-4.5l-11.5,1l-1.9,3.8L50.2,114.9z"/>
		<path class="st5" d="M68.5,105.9l-8.9,4.5L40.1,132l7.2,21.3l-5.3,0.5l10.6-1l-7.2-21.3L68.5,105.9z M197.1,112l-8.4,17.2
			l-7.2,4.3l10.6-1l6.3-12.9L197.1,112z M202.5,118.5l4.5-5l-2.2-12.6l-4.8,3.5L202.5,118.5z M227.1,102.4l-11.9,24.4l-7.2,4.3
			l10.6-1l15.6-32L227.1,102.4z M222,102.6l-18.3,20.3l-3.2,8.9l15.8-17.5L222,102.6z"/>
		<path class="st5" d="M69.3,117l-11.9,24.3l-7.2,4.3l10.6-1l15.6-32L69.3,117z M36.6,116.3l-13.8,28.2l-7.2,4.3l10.6-1L43.8,112
			L36.6,116.3z M101.8,133l5.7-8.4l0.7-14.9l-5.5,4.2L101.8,133z M98,118.6l-13.7,20.3l-7.2,4.3l9.9-0.9l10.7-15.8L98,118.6z
			 M120.9,112.2L104.1,137l-7.2,4.3l9.9-0.9l22.1-32.6L120.9,112.2z M78.2,119.8l4.7-4.1l-7,0.6l-1.9,3.8L78.2,119.8z M193.4,109.2
			l6.7-4.9l-8.7,0.8l-2.1,4.4L193.4,109.2z"/>
		<path class="st5" d="M82,134.8l5.7-8.4l0.7-14.9l-5.5,4.2L82,134.8z M138.3,110.6l-7.2,4.3l-10,20.6l7.2-4.3l8.2-16.7l8.5-0.8
			l7.2-4.3L138.3,110.6z"/>
		<path class="st5" d="M155.3,107.4l-3.1,1.9l-10,20.6l-7.1,4.3l-13.8,1.3l-3.1,1.9c0.9,1.2,2.7,1.8,5,1.6l11.7-1.1
			c0.2,0,0.5-0.1,0.7-0.1c4.8-0.8,10.2-4.7,12.4-9.1l7.4-15.2C156.4,110.9,156.3,108.8,155.3,107.4 M170.7,107.6l-7.2,4.3l-10,20.6
			l7.2-4.3l8.2-16.7l8.5-0.8l7.2-4.3L170.7,107.6z"/>
		<path class="st5" d="M187.6,104.5l-3.1,1.9l-10,20.6l-7.1,4.3l-13.8,1.3l-3.1,1.9c0.9,1.2,2.7,1.8,5,1.6l11.7-1.1
			c0.2,0,0.5-0.1,0.7-0.1c4.8-0.8,10.2-4.7,12.4-9.1l7.4-15.2C188.7,108,188.7,105.8,187.6,104.5"/>
	</g>
</g>
<g id="레이어_1">
</g>
</svg>
