<?xml version="1.0" encoding="utf-8"?>
<!-- Generator: Adobe Illustrator 25.1.0, SVG Export Plug-In . SVG Version: 6.00 Build 0)  -->
<svg version="1.1" id="Layer_1" xmlns="http://www.w3.org/2000/svg" xmlns:xlink="http://www.w3.org/1999/xlink" x="0px" y="0px"
	 viewBox="0 0 250 250" style="enable-background:new 0 0 250 250;" xml:space="preserve">
<style type="text/css">
	.st0{fill:none;}
	.st1{fill:#FFFFFF;}
	.st2{fill:#C00C3F;}
	.st3{fill:#231F20;}
	.st4{fill:#6D6E71;}
</style>
<rect x="8" y="8" class="st0" width="234" height="234"/>
<g>
	<g>
		<path class="st1" d="M196.3,133.3v-2l6.6-8.8l15.9,10.9H196.3z M240.8,95.2h-22.3l8-10.7l-4.7-5.9c-22.9-29.2-58.1-46.3-95.2-46.2
			c-37.2-0.1-72.3,16.9-95.2,46.2l-4.7,5.9l8,10.7H9.2v17.2h14.5v38.2h19.7v-37.3l28.8,38.3H59.4L79.8,176h15.5l31.3,41.7l31.3-41.7
			h15.5l21.2-25.3h46.2v-24.4l-20.5-14h20.5V95.2z"/>
	</g>
	<path class="st2" d="M126.9,147.2h13.2V98.6h-13.2V147.2z"/>
	<g>
		<path class="st2" d="M180,124.8l-19.7-26.2h-14.7l4,5.3v43.3h12.8V121l19.7,26.2h10.7V98.6H180V124.8z"/>
	</g>
	<g>
		<path class="st2" d="M105.5,98.6v29.7l-5,6.7l-5-6.7V98.6H82.9v29.7l-5,6.7l-5-6.7V98.6H60.3v31.5l12.8,17.1h9.5l6.6-8.7l6.6,8.7
			h9.4l12.9-17.1V98.6H105.5z"/>
	</g>
	<g>
		<path class="st3" d="M126.6,190.7v21.2l36.9-49.2h-16L126.6,190.7z"/>
	</g>
	<g>
		<path class="st2" d="M126.6,211.9v-21.2l-21-28h-16L126.6,211.9z"/>
	</g>
	<g>
		<path class="st4" d="M124.3,83h-10.9V64.7h-5.3v22.7h16.1V83z"/>
	</g>
	<g>
		<path class="st4" d="M136.1,87.8c3.5,0,7-0.9,8.9-2.2v-11h-9.1v4.2h4.3v4c-1.2,0.4-2.5,0.6-3.8,0.6c-4.7,0-6.3-2.4-6.3-7.3
			c0-4.7,1.5-7.4,6.2-7.4c2.6,0,4.1,0.8,5.4,2.4l3.3-3c-2-2.8-5.5-3.7-8.7-3.7c-7.4,0-11.2,4-11.2,11.7
			C125,83.7,128.4,87.8,136.1,87.8"/>
	</g>
	<g>
		<path class="st4" d="M66.8,155.1l14.6,17.5h90.4l14.6-17.5H66.8z"/>
	</g>
	<g>
		<path class="st1" d="M99.5,166.3c0.7,0.4,1.5,0.6,2.3,0.6c1.2,0,1.6-0.4,1.6-1c0-0.5-0.4-0.8-0.6-0.9c-0.7-0.3-1.4-0.6-2.1-0.9
			c-1-0.5-1.6-1-1.6-2.3c0-1.6,1.1-2.5,3.2-2.5c1,0,1.9,0.2,2.7,0.6l-0.6,1.3c-0.7-0.4-1.4-0.6-2.2-0.6c-1.1,0-1.5,0.4-1.5,1
			c0,0.3,0.1,0.5,0.3,0.7c0.2,0.1,0.3,0.3,0.5,0.3c0.6,0.3,1.4,0.5,2,0.9c0.8,0.4,1.5,0.9,1.5,2.3c0,1.5-1.2,2.5-3.2,2.5
			c-1,0-2-0.2-2.9-0.7L99.5,166.3z"/>
	</g>
	<g>
		<path class="st1" d="M111.4,159.4h5.3v1.4H113v2.2h3.5v1.4H113v2.5h3.8v1.4h-5.5V159.4z"/>
	</g>
	<g>
		<path class="st1" d="M124.8,163.9c0,1.7,0.4,3,1.9,3c1.7,0,2.2-1.2,2.2-3.3c0-1.7-0.4-3-1.9-3
			C125.4,160.6,124.8,161.8,124.8,163.9 M130.7,163.8c0,3-1.3,4.5-3.9,4.5c-2.7,0-3.6-1.8-3.6-4.6c0-3,1.3-4.5,3.9-4.5
			C129.7,159.3,130.7,161,130.7,163.8"/>
	</g>
	<g>
		<path class="st1" d="M137.1,159.4h1.7v5.4c0,1.3,0.4,2.2,1.5,2.2c1.3,0,1.8-0.6,1.8-2.4v-5.2h1.7v5.3c0,2.5-1.2,3.6-3.4,3.6
			c-2.2,0-3.2-1.1-3.2-3.7V159.4z"/>
	</g>
	<g>
		<path class="st1" d="M150.4,159.4h1.7v7.4h3.4v1.4h-5.1V159.4z"/>
	</g>
	<g>
		<path class="st2" d="M126.6,48.6V35.8C90.5,35.7,56.3,52.3,34,80.7l-3,3.8l4.6,6.2h16l-4.4-5.9C67.1,61.7,96.1,48.5,126.6,48.6"/>
	</g>
	<g>
		<path class="st3" d="M222.2,84.5l-3-3.8c-22.3-28.4-56.4-45-92.6-44.9v12.8c30.7,0,59.4,13.2,79.4,36.3l-4.4,5.9h16L222.2,84.5z"
			/>
	</g>
	<g>
		<path class="st2" d="M12.6,109h14.5v38.2H40V109h14.5V98.6h-42V109z"/>
	</g>
	<g>
		<path class="st2" d="M237.4,108.8V98.6h-36.1v18.6l23.2,15.8v3.7h-24v10.5h36.9V128L214,112.1v-3.3H237.4z"/>
	</g>
</g>
</svg>
