<?xml version="1.0" encoding="utf-8"?>
<!-- Generator: Adobe Illustrator 25.1.0, SVG Export Plug-In . SVG Version: 6.00 Build 0)  -->
<svg version="1.1" xmlns="http://www.w3.org/2000/svg" xmlns:xlink="http://www.w3.org/1999/xlink" x="0px" y="0px"
	 viewBox="0 0 250 250" style="enable-background:new 0 0 250 250;" xml:space="preserve">
<style type="text/css">
	.st0{fill:none;}
	.st1{fill:#042445;}
	.st2{fill:#D01031;}
	.st3{fill:#62B1E3;}
	.st4{fill:#FFFFFF;}
</style>
<g id="Layer_1">
	<rect x="8" y="8" class="st0" width="234" height="234"/>
	<g>
		<path class="st1" d="M121.9,38.5c-42.8,0-78.1,32.1-83.2,73.5c-0.8,3.5-1.3,7-1.7,10.5h-4.1c0,49.2,39.8,89,89,89
			c49.2,0,89-39.9,89-89h-5c0,3.6-0.3,7.2-0.8,10.7c-0.8-3.6-2.2-7.2-4.3-10.7h5C205.8,76.1,168.2,38.5,121.9,38.5z"/>
		<path class="st2" d="M121.9,206.5c46.4,0,84-37.6,84-84h-5c0,43.6-35.3,78.9-78.9,78.9c-43.6,0-78.9-35.3-78.9-78.9h-5
			C37.9,168.9,75.5,206.5,121.9,206.5"/>
		<path class="st3" d="M121.9,43.6c-43.6,0-78.9,35.3-78.9,78.9l0,0h5c0-40.8,33.1-73.9,73.9-73.9c40.8,0,73.9,33.1,73.9,73.9
			c0,0,0,0,0,0h5C200.8,78.9,165.5,43.6,121.9,43.6C121.9,43.6,121.9,43.6,121.9,43.6"/>
		<path class="st4" d="M172.3,122.5c0,27.8-22.6,50.4-50.4,50.4s-50.4-22.6-50.4-50.4c0-27.8,22.6-50.4,50.4-50.4
			C149.7,72.1,172.2,94.7,172.3,122.5 M69.7,81.2l7.6,6.6l4.8-5.5l-1.4-1.2l-3.3,3.8l-6.1-5.4L69.7,81.2z M85.8,79.2
			c-2.6,2.2-4.7,1.3-6.7-1c-2-2.4-2.5-4.6,0.2-6.8c2.7-2.2,4.8-1.3,6.7,1C88,74.8,88.5,77,85.8,79.2 M80.5,72.9
			c-1.7,1.4-0.8,2.5,0.3,3.9c1.2,1.5,2.2,2.3,3.7,1c1.4-1.2,1.2-2-0.3-3.9C82.9,72.2,82,71.6,80.5,72.9"/>
		<path class="st4" d="M90.3,66.2l4.1,7l-2,1.2l-4.1-7l-2.6,1.5l-1-1.7l7.1-4.2l1,1.7L90.3,66.2z M99.8,61.8l2.9,7.6l-2.2,0.8
			l-2.9-7.6l-2.8,1.1L94.1,62l7.7-3l0.7,1.8L99.8,61.8z M107,68l-2-9.8l7.2-1.5l0.4,1.9l-5,1l0.4,2.1l4.3-0.9l0.4,1.8l-4.3,0.9
			l0.4,2.2l5-1l0.4,1.9L107,68z M128.6,63.2c-0.1,2-1.9,3.1-4.2,3c-1.4-0.1-2.8-0.6-3.4-1.3c-0.7-0.9-1-2.4-0.9-3.9
			c0.1-1.2,0.3-2.6,0.9-3.4c1-1.3,2.1-1.6,3.8-1.5c2,0.1,3.8,1.2,4,3.6l-2.3-0.1c-0.1-0.9-0.6-1.5-1.8-1.6c-0.8,0-1.4,0.2-1.7,0.6
			c-0.4,0.8-0.6,1.6-0.6,2.4c-0.1,1.1,0.2,2.1,0.6,2.7c0.3,0.3,0.9,0.6,1.5,0.6c1.1,0,1.8-0.4,1.8-1.2l0-0.7l-2-0.1l0.1-1.7l4.4,0.2
			L128.6,63.2z M130.5,66.7l2.2,0.4l1.7-9.9l-2.2-0.4L130.5,66.7z M141.6,69.6l-0.2-2.2l-3.5-1.1l-1.4,1.7l-2.3-0.7l6.9-8.3l1.9,0.6
			l0.8,10.8L141.6,69.6z M141.1,62.4l-1.9,2.3l2.1,0.7L141.1,62.4z M150.8,74l-1-7.5l-2.9,5.4l-2-1.1l4.8-8.8l1.6,0.8l1,7.5l2.9-5.4
			l2,1.1l-4.8,8.8L150.8,74z M162.9,72.7l-5.1,6.4l-1.8-1.4l5.1-6.4l-2.3-1.9l1.2-1.5l6.5,5.2l-1.2,1.5L162.9,72.7z M163.2,84.4
			c-0.9-1.1-1.3-2.3-1.2-4.1l2,0c-0.1,1.3,0.1,2,0.7,2.8c0.7,0.9,1.5,1.1,2,0.6c0.3-0.3,0.5-0.9-0.1-1.6l-0.6-1
			c-0.8-1.3-1.1-3,0.3-4.1c1.4-1.2,3.4-1,4.9,0.8c0.9,1,1.3,2.3,1.2,3.7l-2,0.1c0.1-1.4-0.4-2-0.8-2.5c-0.6-0.7-1.2-0.8-1.8-0.3
			c-0.4,0.4-0.4,0.8,0.1,1.5c0.1,0.2,0.5,0.7,0.6,0.9c1,1.5,1.1,3.3-0.2,4.4C166.9,86.7,164.8,86.2,163.2,84.4 M225.2,120.7
			l15.9-15.9h-55.8l2.9-10.9h-17.3l-2.9,10.9H59.2l10.9-10.9H33.2c-5.8,0-10.9,3.9-12.4,9.5l-9.6,35.7c-0.9,3.1-0.2,6.5,1.8,9
			c2,2.6,5,4.1,8.2,4.1h191.5c5.8,0,10.9-3.9,12.4-9.5l5.7-21.3h-6.3L225.2,120.7z"/>
		<path class="st4" d="M61.8,149.7l11.4-42.4h1.6l-11.4,42.4H61.8z M96.1,145h-8.7c-2.3,0-4.1-1.8-4.1-4.1c0-0.4,0-0.8,0.1-1.1
			l6.3-23.5c0.7-2.5,3-4.3,5.6-4.3h19.8l-10.1,37.7h-1.6l9.7-36.2H95.3c-1.9,0-3.6,1.3-4.1,3.2l-6.3,23.5c-0.4,1.4,0.4,2.8,1.8,3.2
			c0.2,0.1,0.5,0.1,0.7,0.1h10.3L96.1,145z M123.9,149.7l8.8-33c0.5-1.9,2.2-3.2,4.1-3.2h17.7l-9.7,36.2h1.6l10.1-37.7h-19.8
			c-2.6,0-4.9,1.8-5.6,4.3l-8.9,33.4L123.9,149.7z M183,145h-12.5c-1.3,0-2.5-0.6-3.3-1.6c-0.8-1-1.1-2.3-0.7-3.6l11.6-43.4h1.6
			l-4.2,15.6h18.1l-1.5,1.5h-17l-7.2,26.7c-0.4,1.4,0.4,2.8,1.8,3.2c0.2,0.1,0.5,0.1,0.7,0.1h12.9L183,145z M190.2,143.5h22
			c1.9,0,3.6-1.3,4.1-3.2l3-11h-20l3.5-13c0.7-2.5,3-4.3,5.6-4.3h22l-1.5,1.5h-20.5c-1.9,0-3.6,1.3-4.1,3.2l-3,11h20l-3.5,13
			c-0.7,2.5-3,4.3-5.6,4.3h-22.4L190.2,143.5z M33.7,101.1c-2.6,0-4.9,1.8-5.6,4.3l-9.2,34.4c-0.3,1.2-0.1,2.6,0.7,3.6
			c0.8,1,2,1.6,3.3,1.6h22.8l6.2-23H38.3l-1.5,1.5h13.1l-5.3,19.9H22.9c-0.8,0-1.6-0.4-2.1-1c-0.5-0.6-0.7-1.5-0.5-2.3l9.2-34.4
			c0.5-1.9,2.2-3.2,4.1-3.2h24l1.5-1.5L33.7,101.1z"/>
		<path class="st2" d="M110.8,89.2c-3.6,0-5.4,2.2-5.4,4.6c0,2.5,1.9,4.6,5.4,4.6c3.4,0,5.4-2.2,5.4-4.6
			C116.1,91.4,114.3,89.2,110.8,89.2L110.8,89.2z M117.5,89.6v1h3.4v7.5h2.6v-7.5h3.4v-1L117.5,89.6z M128,89.6v1h3.4v7.5h2.6v-7.5
			h3.4v-1L128,89.6z M96.7,89.6V97c0,0.8,0.4,1.1,1.1,1.1h6.4v-1h-4.4c-0.4,0-0.5-0.2-0.5-0.6v-6.9H96.7z M140.2,89.6
			c-0.6,0-1.2,0.1-1.2,1.2v6.1c0,1.1,0.6,1.2,1.3,1.2h6.8v-1h-4.9c-0.6,0-0.6-0.3-0.6-0.6v-2.4h5.4v-1l-5.4,0v-1.9
			c0-0.5,0.2-0.6,0.7-0.6h4.8v-1L140.2,89.6z M110.8,90.2c1.6,0,2.9,1.7,2.9,3.7c0,2-1.2,3.7-2.9,3.7c-1.6,0-2.9-1.6-2.9-3.7
			C107.9,91.9,109.1,90.2,110.8,90.2L110.8,90.2z M33.2,96.4c-4.7,0-8.8,3.1-10,7.6l-9.6,35.7c-1.1,4.2,1.4,8.5,5.6,9.7
			c0.7,0.2,1.3,0.3,2,0.3h28.4l8.4-31.5h-16l-3.8,3.9h13.5l-6.2,23H22.9c-2.3,0-4.1-1.8-4.1-4.1c0-0.4,0-0.8,0.1-1.1l9.2-34.4
			c0.7-2.5,3-4.3,5.6-4.3h25.6l4.7-4.7L33.2,96.4z M172.9,96.4l-11.6,43.4c-1.1,4.2,1.4,8.5,5.6,9.6c0.7,0.2,1.3,0.3,2,0.3h12.9
			l1.2-4.7h-12.5c-1.3,0-2.5-0.6-3.3-1.6c-0.8-1-1.1-2.3-0.7-3.6l11.6-43.4L172.9,96.4z M179.7,96.4l-4.2,15.6h18.1l4.7-4.7h-16.3
			l2.9-10.9L179.7,96.4z M33.7,102.6c-1.9,0-3.6,1.3-4.1,3.2l0,0l-9.2,34.4c-0.2,0.8,0,1.6,0.5,2.3c0.5,0.6,1.2,1,2.1,1h21.6
			l5.3-19.9H36.8l-3.9,3.9h10.6l-3,11.4H26l8.4-31.5h18.6l4.7-4.7L33.7,102.6z M67.9,107.3l-11.4,42.4h5.3l11.4-42.4H67.9z
			 M74.7,107.3l-11.4,42.4h5.3L80,107.3H74.7z M94.7,107.3c-4.7,0-8.7,3.1-10,7.6l-6.7,24.8c-1.1,4.2,1.4,8.5,5.6,9.7
			c0.7,0.2,1.3,0.3,2,0.3h5.7l4.7-4.7h-8.7c-2.3,0-4.1-1.8-4.1-4.1c0-0.4,0-0.8,0.1-1.1l6.3-23.5c0.7-2.5,3-4.3,5.6-4.3h19.8
			l-10.1,37.7h5.3l11.4-42.4H94.7z M136.3,107.3c-4.7,0-8.7,3.1-10,7.6l-9.3,34.8h5.2l9-33.4v0c0.7-2.5,3-4.3,5.6-4.3h19.8
			l-10.1,37.7h5.3l11.4-42.4L136.3,107.3z M207.8,107.3c-4.7,0-8.7,3.1-10,7.6l-4.9,18.2h20l-1.5,5.7h-20l-1.2,4.7h22
			c1.9,0,3.6-1.3,4.1-3.2l3-11h-20l3.5-13c0.7-2.5,3-4.3,5.6-4.3h22l4.7-4.7H207.8z M136.8,113.5c-1.9,0-3.6,1.3-4.1,3.2l-8.8,33
			h5.3l8.4-31.5h10.5l-8.4,31.5h5.2l9.7-36.2L136.8,113.5z M95.3,113.5c-1.9,0-3.6,1.3-4.1,3.2c-1.6,5.9-6.3,23.5-6.3,23.5
			c-0.4,1.4,0.4,2.8,1.8,3.2c0.2,0.1,0.5,0.1,0.7,0.1h10.3l2.9-2.9l-2.4,9.1h5.3l9.7-36.2L95.3,113.5z M175.1,113.5l-7.2,26.7
			c-0.4,1.4,0.4,2.8,1.8,3.2c0.2,0.1,0.5,0.1,0.7,0.1h12.9l1.3-4.7h-11.1l5.5-20.6h8.3l4.7-4.7L175.1,113.5z M208.4,113.5
			c-1.9,0-3.6,1.3-4.1,3.2l-3,11h20l-3.5,13c-0.7,2.5-3,4.3-5.6,4.3h-22.4l-1.2,4.7h24.2c4.7,0,8.8-3.1,10-7.6l4.9-18.2h-20l1.5-5.7
			h15.1l4.7-4.7L208.4,113.5z M96,118.2h10.5l-5.5,20.6H90.5L96,118.2z"/>
		<path class="st4" d="M65.5,165l7.7-6.4l4.7,5.6l-1.5,1.2l-3.3-3.9l-1.7,1.4l2.8,3.4l-1.5,1.2l-2.8-3.4l-1.7,1.4l3.3,3.9l-1.5,1.2
			L65.5,165z M74.3,174.7c-1-1-1.6-2.2-1.6-3.9l2-0.2c0,1.3,0.3,2,1,2.7c0.8,0.8,1.6,0.9,2.1,0.4c0.3-0.3,0.4-0.9-0.2-1.6l-0.7-0.9
			c-0.9-1.2-1.4-2.9-0.2-4.1c1.3-1.4,3.2-1.3,4.9,0.3c1,0.9,1.5,2.2,1.6,3.5l-2,0.3c-0.1-1.4-0.6-2-1-2.4c-0.7-0.7-1.3-0.7-1.9-0.1
			c-0.4,0.4-0.3,0.8,0.2,1.5c0.2,0.3,0.4,0.6,0.7,0.8c1.2,1.4,1.4,3.2,0.3,4.4C78.2,176.6,76,176.4,74.3,174.7 M88.1,174.9l-4.5,6.7
			l-1.9-1.3l4.5-6.7l-2.5-1.7l1.1-1.6l6.9,4.6l-1.1,1.6L88.1,174.9z M86.1,184.2l2.4,1.3l1.3-2.3l-2.4-1.3L86.1,184.2z M97.7,179.7
			l-0.9,2.3l2.5-0.6l-2.6,7l2.1,0.8l3.6-9.5l-1.7-0.6L97.7,179.7z M107.6,181.1c2.2,0.5,3.2,2.4,2.8,4.1c-0.3,0.9-0.7,1.7-1.3,2.4
			l-3.3,3.6l-2.5-0.6l3-3.2c-1.8,0-3.2-1.4-3.2-3.1c0-0.2,0-0.5,0.1-0.7C103.6,181.7,105.3,180.5,107.6,181.1 M106.4,185.6
			c1.1,0.3,1.6-0.2,1.7-1c0.2-0.7-0.2-1.4-1.1-1.6c-0.9-0.2-1.6,0.2-1.8,1C105.2,184.8,105.6,185.4,106.4,185.6 M114.4,192.8
			c-2.5-0.3-3.7-1.8-3.5-3.6c0.1-0.9,0.7-1.8,1.6-2.1c-0.7-0.5-1-1.3-0.9-2.1c0.2-1.8,1.7-2.8,3.8-2.5c2.3,0.2,3.5,1.6,3.3,3.3
			c-0.1,0.8-0.6,1.6-1.4,1.9c0.8,0.5,1.2,1.4,1.1,2.4C118.4,191.7,117,193.1,114.4,192.8 M114.9,188.4c-0.8-0.1-1.5,0.5-1.6,1.1
			c-0.1,0.6,0.3,1.3,1.3,1.4c1.1,0.1,1.5-0.4,1.6-1.1C116.3,189.1,115.8,188.5,114.9,188.4 M115.3,184.3c-0.8-0.1-1.3,0.3-1.4,0.9
			c-0.1,0.6,0.4,1.1,1.2,1.2c0.8,0.1,1.4-0.3,1.4-0.9C116.6,184.9,116.1,184.4,115.3,184.3 M120.4,193l-0.1-1.6l4-4.3
			c0.5-0.5,0.7-1,0.7-1.4c0-0.6-0.4-1-1.3-1c-1,0-1.4,0.8-1.4,1.6l-2.2,0.1c0-2.2,1.7-3.6,3.6-3.6c1.9-0.1,3.6,1,3.6,2.9
			c0,0.8-0.3,1.7-1.1,2.6l-2.6,2.7l3.9-0.1l0.1,1.9L120.4,193z M139.3,190.8l-4.4,1.1l-2.4-9.8l4.2-1c2.2-0.5,3.8,0.3,4.2,2.1
			c0.1,0.7,0,1.4-0.4,2c0.6,0.4,1.3,1,1.5,1.8C142.4,188.8,141.4,190.3,139.3,190.8 M137.3,182.9l-2.2,0.5l0.5,2l2.3-0.6
			c0.7-0.2,0.9-0.8,0.8-1.2C138.5,183.1,137.9,182.7,137.3,182.9C137.3,182.9,137.3,182.9,137.3,182.9 M138.3,186.7l-2.3,0.6
			l0.5,2.2l2.3-0.6c0.7-0.2,0.9-0.8,0.8-1.3C139.6,187,139.1,186.5,138.3,186.7 M151.9,182.8c0.9,2.1-0.4,3.8-2.7,4.7
			c-2.2,0.9-4.4,0.7-5.2-1.4l-2.6-6.3l2.1-0.9l2.7,6.3c0.4,0.9,1.3,0.9,2.3,0.5c1-0.4,1.7-1.1,1.3-2l-2.7-6.3l2.1-0.9L151.9,182.8z
			 M158.6,182.8c-1.2,0.7-2.5,0.9-4.2,0.5l0.3-2c1.3,0.4,2,0.3,2.9-0.2c1-0.6,1.3-1.2,1-1.9c-0.2-0.4-0.8-0.6-1.6-0.3l-1.1,0.4
			c-1.4,0.6-3.1,0.5-4-1c-0.9-1.6-0.3-3.5,1.7-4.6c1.2-0.7,2.5-0.9,3.8-0.6l-0.3,2c-1.4-0.3-2.1,0-2.6,0.3c-0.8,0.5-1,1.1-0.6,1.8
			c0.3,0.5,0.7,0.5,1.5,0.2c0.3-0.1,0.7-0.3,1-0.4c1.7-0.7,3.5-0.5,4.3,1C161.5,179.7,160.7,181.6,158.6,182.8 M169.2,174.7l-1.9-1
			l-2.8,2.3l0.7,2.1l-1.8,1.6l-3.4-10.3l1.5-1.3l9.5,5.1L169.2,174.7z M162.9,171.3l0.9,2.9l1.7-1.5L162.9,171.3z M177,166.5
			l-7.5-0.6l4.6,4l-1.5,1.7L165,165l1.1-1.3l7.5,0.6l-4.6-4l1.5-1.7l7.6,6.5L177,166.5z"/>
	</g>
</g>
<g id="레이어_1">
</g>
</svg>
