<?xml version="1.0" encoding="utf-8"?>
<!-- Generator: Adobe Illustrator 25.1.0, SVG Export Plug-In . SVG Version: 6.00 Build 0)  -->
<svg version="1.1" xmlns="http://www.w3.org/2000/svg" xmlns:xlink="http://www.w3.org/1999/xlink" x="0px" y="0px"
	 viewBox="0 0 250 250" style="enable-background:new 0 0 250 250;" xml:space="preserve">
<style type="text/css">
	.st0{clip-path:url(#SVGID_2_);}
	.st1{fill:#FFFFFF;}
	.st2{fill:#41030B;}
	.st3{fill:#BB1137;}
	.st4{fill:#FCD205;}
	.st5{fill:#656263;}
	.st6{fill:none;}
</style>
<g id="Layer_1">
	<g>
		<defs>
			<rect id="SVGID_1_" x="8.4" y="53.5" width="233.2" height="143"/>
		</defs>
		<clipPath id="SVGID_2_">
			<use xlink:href="#SVGID_1_"  style="overflow:visible;"/>
		</clipPath>
		<g transform="matrix(4.42833 0 0 -4.42833 -839.85 1500.05)" class="st0">
			<g>
				<path class="st1" d="M213.4,306.9c-2.5,1.3-4.5,3.6-5.3,6.5c-0.2,0.7-0.3,1.5-0.4,2.3c0,0.2,0,0.3,0,0.5c0,0.2,0,0.5,0,0.8
					c0.1,1.3,0.4,2.6,1,3.7c0.6,1.3,1.5,2.5,2.5,3.4c0.9,0.8,1.9,1.4,3,1.8c1.1,0.4,2.3,0.7,3.5,0.8c0.1,0,0.1,0,0.2,0
					c0.1,0,0.2,0,0.2,0c0.1,0,0.2,0,0.2,0c0.1,0,0.2,0,0.2,0c1,0,2-0.2,3-0.6c0.9-0.3,1.8-0.8,2.6-1.3c0.1-0.1,0.1-0.1,0.2-0.1
					c0.1-0.1,0.2-0.2,0.4-0.3c0.1,0,0.1-0.1,0.2-0.2c0.9-0.8,1.7-1.8,2.3-2.9c0,0-1.4,1.3-3.8,0.6c0,0,4.3-1.6,5-4
					c0,0-1.6,2.1-3.9,1.9c0,0,3.8-3.5,3.8-6.4l-0.3-2l-1.2,1l0.5-1.4L213.4,306.9z"/>
			</g>
			<g>
				<path class="st2" d="M228,311.4c-0.6,4.4-3.6,6-4.9,6.4c2.2-1.3,3.5-3.4,3.6-4.8c-0.5,1.2-1.4,2.1-2.9,2.4
					c1.6-1,2.1-2.2,2.4-3.5c-1.4,2.3-4.3,3.2-6.8,2.7c0,0,1.3,0.8,2.3,0.7c-0.1,0.6-1.8,0.5-3.4,1c-1.4,0.4-1.6,1.1-1.7,1.5
					c0.2-0.3,0.9-0.6,1.6-0.5c0.7,0.1,1.3,0.5,1.4,1.4c0,0,0.8,0.4,1,0.7c-0.2-0.2-2.6-0.8-4.2-0.9c-0.5,0-0.7,0.5-1.4,0.3
					c0,0.4,0.2,0.8,0.6,1c2.1,1.4,5.5,0.1,8-1.6c0,0-2.2,2.2-4.8,2.7c-2.9,0.5-4.7-1-4.4-2.4c-1.2-0.3-2.4-1.4-2-2.6
					c0.4-1.2,1.4-1.7,1.4-1.7c-0.7,1.1,1.5,2,4.3,1.1c-1,0.2-4.1,0.2-3.8-1.1c0.5,0.4,1.7,0.1,2-1c0.6-1.9-0.7-5.1-3.2-6.6
					c1.5-0.8,3.3-1.3,5-1.3c0.7,0,1.4,0.1,2.1,0.2l0.7,0.2c-0.2,0.5-0.6,1-1.8,1.3c2.9,0.2,3.8-2.7,3.8-2.7c1.2,0.6,1.8,1.7,1.8,3
					l1.5-1.4c0.4,0.9,0.5,2.9-0.2,4.2l1.2-1.4c0.1,0.8,0,2-0.4,3L228,311.4z"/>
			</g>
			<g>
				<path class="st1" d="M217.2,318.2c0.5,0.1,1.1,0.2,1.5,0.3c-0.1-0.3-0.5-0.6-0.9-0.6L217.2,318.2z"/>
			</g>
			<g>
				<path class="st3" d="M221.7,315.4c-1.1,0-2.3-0.7-2.3-0.7c2.5,0.5,5.4-0.4,6.8-2.7c-0.2,1.3-0.8,2.5-2.4,3.5
					c1.5-0.3,2.4-1.3,2.9-2.4c-0.2,1.5-1.4,3.6-3.6,4.8c0,0,0,0,0,0c0.5-0.1,1.2-0.5,2-1c-0.4,0.6-0.9,1.2-1.4,1.7l-0.1,0.1l-0.1,0
					c-0.3,0.2-0.6,0.4-0.9,0.6c-2.4,1-4,1.2-5.1,1.1c-0.9-0.1-1.7-0.5-1.9-1.2c0.4-0.1,0.6-0.4,1-0.4c1.5,0.1,3.9,0.7,4.2,0.9
					c-0.2-0.4-1-0.7-1-0.7c0-0.9-0.7-1.3-1.4-1.4c-0.7-0.1-1.4,0.2-1.6,0.5c0.1-0.4,0.3-1.1,1.7-1.5
					C219.9,315.9,221.6,316,221.7,315.4"/>
			</g>
			<g>
				<path class="st3" d="M219.7,308.1c2.7,0.1,3.9-0.8,3.9-2.3C225.4,307.9,222.2,309.1,219.7,308.1"/>
			</g>
			<g>
				<path class="st3" d="M219.1,312.7c3.8-0.2,4.9-2.3,4.9-2.3s-2.7,0.7-5.1-1.9c3.5,1.6,5.9,0.4,7-0.8c-0.3,3.9-3.1,4.9-3.1,4.9
					s1.5,0,3.4-1.5C224.9,313.9,220.7,314,219.1,312.7"/>
			</g>
			<g>
				<path class="st3" d="M213.8,314.5c0,0.5,0.4,0.6,0.7,0.7c0.7,0.6,2.8,0.6,3.6,0.4C215.3,316.5,213.1,315.6,213.8,314.5"/>
			</g>
			<g>
				<path class="st4" d="M225.5,319.2c1.5-0.2,2.5-0.7,3.1-1.4c-0.6,2.9-2.8,3.9-4.9,4.1c1.2,0.2,2.6,0,3.8-0.6
					c-0.7,1.2-1.5,2.2-2.6,3.1c-1.2-1-2-2.6-2.5-4.2c1.6-1.1,2.7-2.4,3.1-3.1c0.9-0.7,2.2-1.8,2.9-3.6c0.1,0.3,0.1,0.6,0.2,0.9
					C228.8,316.4,227.7,318.4,225.5,319.2"/>
			</g>
			<g>
				<path class="st4" d="M214.5,320.4c0.7,0.8,1.8,1.3,3.2,1.3c0.1,0,0.2,0,0.2,0v5c-2.3,0-4.5-0.9-6.3-2.3c1-1.1,2-2.6,2.6-4.4
					C214.3,320.1,214.4,320.3,214.5,320.4"/>
			</g>
			<g>
				<path class="st4" d="M221.9,320.4c0.6,1.8,1.5,3.3,2.6,4.2c-1.7,1.3-3.8,2-6,2v-5c0.2,0,0.4,0,0.5-0.1
					C220,321.3,221,320.9,221.9,320.4"/>
			</g>
			<g>
				<path class="st4" d="M212.2,317.7c0.3,0.6,1,1.1,1.7,1.4c-0.5,2-1.6,3.8-2.7,5c-2.3-2-3.6-4.9-3.6-7.9l0,0h4.3
					C211.8,316.6,211.9,317.2,212.2,317.7"/>
			</g>
			<g>
				<path class="st4" d="M214.9,314.2c-0.3,0-0.6-0.2-0.7-0.4c-0.9,0.4-1.6,1-2,1.9h-4.5c0.2-3.3,1.8-6.3,4.6-8.1
					c1.4,0.8,4.3,2.9,3.7,5.8C215.8,313.9,215.3,314.2,214.9,314.2"/>
			</g>
			<g>
				<path class="st4" d="M214.8,317.4c0.3,0.1,0.7,0.2,1.3,0.1c0,0-0.1,0.2-0.2,0.4C215.9,317.9,215.1,317.7,214.8,317.4"/>
			</g>
			<g>
				<path class="st4" d="M215.7,320c-0.4-0.3-0.6-0.7-0.6-1c0.2,0,0.3,0,0.4,0c0.1,0.7,0.9,1.1,1.9,1.2c1.1,0.1,2.7,0,5.1-1.1
					C220.2,320.4,217.5,321.2,215.7,320"/>
			</g>
			<g>
				<path class="st2" d="M244.2,300.9l-0.9,2.2h-24.8l-2.9-0.3l-1.7,0.3l-4,0l-1.7-1.5l0,1.5h-5.3l-1.4-1.4l-0.6,1.4h-8l1-1.8
					l-0.9-1.7l1.2-1.4l-2.6-1.3l0.9-2.2h5.3l0,0l3.8,0.4l1.1,1.3l2.6-1.3l0,0l2.4-0.4l2.8,0.6l0.4,0.8l5-1.3h9.3l2.6,0.6l0.3,0.7
					l6.7-1.6l0.3,0.3h5.2l2.5,2.9l-0.9,2.2L244.2,300.9z"/>
			</g>
			<g>
				<path class="st4" d="M199.1,299.8l-3,0l-0.4,0.4l0.5,0.9h3.1l-0.3-1.1l2.2,1.1l-0.6,1.5h-6.9l0.7-1.4l0,0l-0.9-1.6l1.2-1.4h3
					l0.2-0.4l-1-1.2l-2.8,0l0.3,1.1l-2.2-1.1l0.6-1.5h5l2.2,2.5L199.1,299.8z"/>
			</g>
			<g>
				<path class="st4" d="M241.4,299.8l-3,0l-0.4,0.4l0.5,0.9h3.1l-0.3-1.1l2.2,1.1l-0.6,1.5H236l0.7-1.4l0,0l-0.9-1.6l1.2-1.4h3
					l0.2-0.4l-1-1.2l-2.8,0l0.3,1.1l-2.2-1.1l0.6-1.5h5l2.2,2.5L241.4,299.8z"/>
			</g>
			<g>
				<path class="st4" d="M225.4,301.1l1.4,1.6l-7.6,0l0.6-1.4l-2.8-6.1h6.2l1.4,1.6h-4.8l1.9,4.4H225.4z"/>
			</g>
			<g>
				<path class="st4" d="M224.3,298.2l0.7,1.6h-2.5l-1.7-1.6H224.3z"/>
			</g>
			<g>
				<path class="st4" d="M218.3,302.6l-2.6-0.4l-2-2.2l-2-1.6h1.5l1.4-3l2.1-0.5l-1.7,3.9L218.3,302.6z"/>
			</g>
			<g>
				<path class="st4" d="M210,302.6l0.7-1.3l-2.8-6.2l2.3,0.5l3.2,7L210,302.6z"/>
			</g>
			<g>
				<path class="st4" d="M235.6,302.6l-8.3,0l0.7-1.3l-2.8-6.2l2.3,0.5l2.5,5.5h2.9l-0.9-1.5h-1.1l-1.7-1.6h2.1l1.1-2.6l2.4-0.6
					l-1.6,3.8l1.5,1.7L235.6,302.6z"/>
			</g>
			<g>
				<path class="st4" d="M203.6,302.6l0.6-1.1l-5.5-6.4l2.8,0.4l4.3,5v-2.1h-0.9l-1.7-1.6h2.6v-1.4l2-0.3v7.5H203.6z"/>
			</g>
			<g>
				<path class="st5" d="M203.5,306.5h-2.2v3.7h-1.1v-4.6h3.3V306.5z"/>
			</g>
			<g>
				<path class="st5" d="M205.9,305.5c0.7,0,1.4,0.2,1.8,0.5v2.3h-1.9v-0.9h0.9v-0.8c-0.3-0.1-0.5-0.1-0.8-0.1c-1,0-1.3,0.5-1.3,1.5
					c0,1,0.3,1.5,1.3,1.5c0.5,0,0.8-0.2,1.1-0.5l0.7,0.6c-0.4,0.6-1.1,0.8-1.8,0.8c-1.5,0-2.3-0.8-2.3-2.4
					C203.7,306.4,204.4,305.5,205.9,305.5"/>
			</g>
		</g>
	</g>
</g>
<g id="레이어_1">
	<rect x="8" y="8" class="st6" width="234" height="234"/>
</g>
</svg>
