<?xml version="1.0" encoding="utf-8"?>
<!-- Generator: Adobe Illustrator 25.1.0, SVG Export Plug-In . SVG Version: 6.00 Build 0)  -->
<svg version="1.1" xmlns="http://www.w3.org/2000/svg" xmlns:xlink="http://www.w3.org/1999/xlink" x="0px" y="0px"
	 viewBox="0 0 250 250" style="enable-background:new 0 0 250 250;" xml:space="preserve">
<style type="text/css">
	.st0{fill:#FFFFFF;}
	.st1{fill:#1C0C43;}
	.st2{fill:#C7C7C6;}
	.st3{fill:#0057A5;}
	.st4{fill:#2A3087;}
	.st5{fill:url(#SVGID_1_);}
	.st6{fill:url(#SVGID_2_);}
	.st7{fill:url(#SVGID_3_);}
	.st8{fill-rule:evenodd;clip-rule:evenodd;fill:#FDC400;}
	.st9{fill:#E6200A;}
	.st10{fill-rule:evenodd;clip-rule:evenodd;fill:#0057A5;}
	.st11{fill:none;}
</style>
<g id="Layer_1">
	<g>
		<g>
			<path class="st0" d="M237.9,80.3L215.8,90l26.3-0.1l-23.7,8.2l7.8,0l-32.7,14.1l8.1-31.7L237.9,80.3z"/>
		</g>
		<g transform="matrix(.86848 0 0 -.86848 -66.13 339.588)">
			<g>
				<path class="st0" d="M275.8,290.5V316c-10.7,3.1-36.5,9.8-61.6,9.8h-0.2c-24.3,0-49.6-6.3-61.8-9.8v-19.7l-0.4-5.4h-13.4v34.9
					l4.8,1.5c8.9,2.8,40.5,11.9,70.8,11.9h0.2c30.4,0,61.9-9.1,70.8-11.9l4.8-1.5v-35.4H275.8z"/>
			</g>
			<g>
				<path class="st1" d="M160.2,194.2c13.7-13.2,31.9-25.6,54.1-36.7c21.7,10.2,40,22.7,54.5,37.1c7.5,7.4,12,17.7,12.7,28.6v20H147
					v-20C147.7,212.1,152.4,201.7,160.2,194.2"/>
			</g>
			<g>
				<path class="st2" d="M149.4,223.2c0.7-10.5,5.1-20.2,12.5-27.3c13.3-12.9,31-24.9,52.5-35.7c21,10,38.7,22.2,52.8,36.1
					c7.1,7,11.4,16.6,12,26.9v17.5H149.4V223.2z M214.3,154.9l-1,0.5c-22.4,11.2-40.8,23.7-54.7,37.1c-8.2,7.9-13.2,18.8-13.9,30.5
					l0,0.2v22.4h139.3l0-22.5c-0.7-11.5-5.5-22.2-13.4-30.1c-14.7-14.5-33.2-27.2-55.1-37.5L214.3,154.9z"/>
			</g>
			<g>
				<path class="st0" d="M214.2,332.5h-0.2c-29.2,0-59.4-8.7-68.7-11.6v-75.7h137.7V321C273.6,323.9,243.4,332.5,214.2,332.5"/>
			</g>
			<g>
				<path class="st0" d="M218.3,218.2c-17.2,0-31.2,14-31.2,31.2c0,17.2,14,31.3,31.2,31.3c17.2,0,31.2-14,31.2-31.3
					C249.5,232.2,235.5,218.2,218.3,218.2"/>
			</g>
			<g>
				<path class="st0" d="M195.8,218.3h-57.3l-15.3,55.4l-7.7,24.5h36.7l3.9-15.1h56.6L195.8,218.3z"/>
			</g>
			<g>
				<path class="st0" d="M274.7,298.2l-5.6-23l-4.7,7.9h-32.8v-64.8h57.2l14.7,55.6l7.1,24.4h-4.8H274.7z"/>
			</g>
			<g>
				<path class="st1" d="M140.9,221.5l-15,54.4l-5.4,19.1h29.2l3.9-15.1h54.9l-15.3-58.4H140.9z"/>
			</g>
			<g>
				<path class="st1" d="M264.9,221.5l-2.3,4.1v-4.1h-28.3v58.4h27.8l7.8-13l6.9,28.1h29.8l-6.2-18.9l-14.4-54.6H264.9z"/>
			</g>
			<g>
				<path class="st1" d="M148,296.5V319c10.6,3.2,38.8,10.9,66,10.9h0.2c27.1,0,55.4-7.7,65.7-10.9v-24.5h5.8v28.3l-1.9,0.6
					c-8.8,2.7-39.8,11.7-69.6,11.7h-0.2c-29.8,0-60.8-9-69.6-11.7l-1.9-0.6V295h5.5L148,296.5z"/>
			</g>
			<g>
				<path class="st1" d="M218.2,221.4c-16.2,0-29.4,13.2-29.4,29.4c0,16.2,13.2,29.4,29.4,29.4c16.2,0,29.4-13.2,29.4-29.4
					C247.6,234.6,234.4,221.4,218.2,221.4"/>
			</g>
			<g>
				<path class="st3" d="M183.8,275.7l-4.4-17l-3.6,17h-17.3l-3.7-17l-8.4,32.1h-20.7l3.6-11.5l14.8-53.6h20l3,13.6l3-13.6h20
					l13.1,50H183.8z"/>
			</g>
			<g>
				<path class="st3" d="M280.2,290.8l-8.5-34.9l-11.8,19.7h-21.2v-50h19.9v16.1l9-16.1h15.3l14.2,53.8l3.5,11.3H280.2z"/>
			</g>
			<g>
				<path class="st0" d="M129.8,287.8h14.3l10.9-42h0.1l5.8,26.8h12.4l5.7-26.8h0.1l7,26.8h13.1l-11.5-43.9h-15.2l-5.3,24.4H167
					l-5.4-24.4h-15.2l-14.6,52.9L129.8,287.8z"/>
			</g>
			<g>
				<path class="st0" d="M241.6,272.6h16.5l14.6-24.4h0.2l9.7,39.5h13.8l-1.9-5.9l-14.1-53.1h-11.2l-13.7,24.6h-0.1v-24.6h-13.8
					V272.6z"/>
			</g>
			<g>
				<path class="st4" d="M192.2,283.2h-4.6l-1.7,10.1h0l-1.6-10.1h-4.6l-4.2,16.6h4.7l1.9-10.2h0l1.9,10.2h4.2l1.8-10.4h0l1.9,10.4
					h4.7L192.2,283.2z"/>
			</g>
			<g>
				<path class="st4" d="M201.9,291.5c0-0.9,0.1-1.7,0.3-2.3c0.2-0.6,0.5-1.1,0.8-1.4c0.3-0.3,0.6-0.6,1-0.7c0.3-0.1,0.7-0.2,1-0.2
					c0.3,0,0.6,0.1,1,0.2c0.4,0.1,0.7,0.4,1,0.7c0.3,0.3,0.6,0.8,0.8,1.4c0.2,0.6,0.3,1.3,0.3,2.3c0,0.9-0.1,1.7-0.3,2.3
					c-0.2,0.6-0.5,1-0.8,1.4c-0.3,0.3-0.6,0.6-1,0.7c-0.4,0.1-0.7,0.2-1,0.2c-0.3,0-0.6-0.1-1-0.2c-0.4-0.1-0.7-0.4-1-0.7
					c-0.3-0.3-0.6-0.8-0.8-1.4C202,293.2,201.9,292.5,201.9,291.5 M197.1,291.5c0,1.3,0.2,2.4,0.6,3.5c0.4,1.1,0.9,2,1.6,2.7
					c0.7,0.8,1.5,1.4,2.5,1.8c1,0.4,2,0.6,3.2,0.6c1.2,0,2.2-0.2,3.2-0.6c0.9-0.4,1.8-1,2.5-1.8c0.7-0.8,1.2-1.7,1.6-2.7
					c0.4-1.1,0.6-2.2,0.6-3.5c0-1.3-0.2-2.4-0.6-3.5c-0.4-1.1-0.9-2-1.6-2.7c-0.7-0.8-1.5-1.4-2.5-1.8c-1-0.4-2-0.6-3.2-0.6
					c-1.2,0-2.2,0.2-3.2,0.6c-0.9,0.4-1.8,1-2.5,1.8c-0.7,0.8-1.2,1.7-1.6,2.7C197.3,289.1,197.1,290.3,197.1,291.5"/>
			</g>
			<g>
				<path class="st4" d="M219.1,291.5c0-0.9,0.1-1.7,0.3-2.3c0.2-0.6,0.5-1.1,0.8-1.4c0.3-0.3,0.6-0.6,1-0.7c0.4-0.1,0.7-0.2,1-0.2
					c0.3,0,0.6,0.1,1,0.2c0.4,0.1,0.7,0.4,1,0.7c0.3,0.3,0.6,0.8,0.8,1.4c0.2,0.6,0.3,1.3,0.3,2.3c0,0.9-0.1,1.7-0.3,2.3
					c-0.2,0.6-0.5,1-0.8,1.4c-0.3,0.3-0.6,0.5-1,0.7c-0.4,0.1-0.7,0.2-1,0.2c-0.3,0-0.6-0.1-1-0.2c-0.4-0.2-0.7-0.4-1-0.7
					c-0.3-0.3-0.6-0.8-0.8-1.4C219.2,293.2,219.1,292.5,219.1,291.5 M214.3,291.5c0,1.3,0.2,2.4,0.6,3.5c0.4,1.1,0.9,2,1.6,2.7
					c0.7,0.8,1.5,1.4,2.5,1.8c1,0.4,2,0.6,3.2,0.6c1.2,0,2.2-0.2,3.2-0.6c0.9-0.4,1.8-1,2.5-1.8c0.7-0.8,1.2-1.7,1.6-2.7
					c0.4-1.1,0.6-2.2,0.6-3.5c0-1.3-0.2-2.4-0.6-3.5c-0.4-1.1-0.9-2-1.6-2.7c-0.7-0.8-1.5-1.4-2.5-1.8c-1-0.4-2-0.6-3.2-0.6
					c-1.2,0-2.2,0.2-3.2,0.6c-0.9,0.4-1.8,1-2.5,1.8c-0.7,0.8-1.2,1.7-1.6,2.7C214.5,289.1,214.3,290.3,214.3,291.5"/>
			</g>
			<g>
				<path class="st4" d="M236.7,292.6h2.5c0.2,0,0.4,0,0.7,0c0.3,0,0.5,0.1,0.7,0.2c0.2,0.1,0.4,0.3,0.5,0.5
					c0.1,0.2,0.2,0.5,0.2,0.9c0,0.5-0.2,0.9-0.5,1.2c-0.3,0.3-1,0.4-1.9,0.4h-2.2V292.6z M232,299.8h9.1c0.7,0,1.3-0.1,1.9-0.3
					c0.6-0.2,1.1-0.5,1.6-0.9c0.5-0.4,0.8-0.9,1.1-1.5c0.3-0.6,0.4-1.3,0.4-2.1c0-0.4,0-0.9-0.1-1.3c-0.1-0.4-0.2-0.8-0.4-1.2
					c-0.2-0.4-0.4-0.7-0.7-1c-0.3-0.3-0.6-0.5-1-0.7c0.7-0.3,1.2-0.8,1.6-1.5c0.4-0.7,0.6-1.6,0.7-2.6c0-0.2,0-0.5,0-0.8
					c0-0.3,0-0.7,0.1-1c0-0.3,0.1-0.7,0.1-1c0.1-0.3,0.1-0.6,0.3-0.8h-4.8c-0.1,0.4-0.2,0.8-0.3,1.3c-0.1,0.4-0.1,0.9-0.1,1.3
					c0,0.4-0.1,0.8-0.1,1.2c0,0.4-0.1,0.7-0.3,1c-0.1,0.3-0.3,0.6-0.6,0.7c-0.3,0.2-0.6,0.3-1.1,0.3h-2.5v-5.8H232V299.8z"/>
			</g>
			<path class="st4" d="M248,299.8h4.8v-16.6H248V299.8z"/>
		</g>
		
			<linearGradient id="SVGID_1_" gradientUnits="userSpaceOnUse" x1="2.6038" y1="252.7453" x2="2.9704" y2="252.7453" gradientTransform="matrix(0 -86.9781 -86.9781 0 22063.0801 377.6052)">
			<stop  offset="0" style="stop-color:#007CC5"/>
			<stop  offset="0.9946" style="stop-color:#BFE5FB"/>
			<stop  offset="1" style="stop-color:#BFE5FB"/>
		</linearGradient>
		<path class="st5" d="M92.7,117.2l-2.5,9.7h-1.6l-1.9-9.1c-2.3,0.3-4.6,0.6-6.9,0.9l4.6,21.1h11.8l6.1-23.4
			C99.1,116.7,95.9,116.9,92.7,117.2 M70.8,120.3l-1.4,6.6h-1.6l-1.5-5.6c-3.1,0.7-6.2,1.4-9.1,2.2l4.5,16.4h11.8l4.6-20.9
			C75.7,119.4,73.2,119.9,70.8,120.3"/>
		<g>
			
				<linearGradient id="SVGID_2_" gradientUnits="userSpaceOnUse" x1="2.6036" y1="254.3947" x2="2.9703" y2="254.3947" gradientTransform="matrix(0 -86.9858 -86.9858 0 22291.5762 377.6161)">
				<stop  offset="0" style="stop-color:#007CC5"/>
				<stop  offset="0.9946" style="stop-color:#BFE5FB"/>
				<stop  offset="1" style="stop-color:#BFE5FB"/>
			</linearGradient>
			<path class="st6" d="M144.6,139.9h10.1v-21.4h1.6l11.9,21.4h8.5l4.4-16.7c-2.8-0.7-5.7-1.4-8.6-2.1l-0.9,3.6h-1.4l-2.8-4.6
				c-7.3-1.4-15-2.4-22.8-3.1L144.6,139.9z"/>
		</g>
		<g>
			
				<linearGradient id="SVGID_3_" gradientUnits="userSpaceOnUse" x1="-2.5521" y1="250.8781" x2="-2.1855" y2="250.8781" gradientTransform="matrix(54.8117 0 0 -54.8117 244.4899 13817.542)">
				<stop  offset="0" style="stop-color:#45C1F1"/>
				<stop  offset="0.6449" style="stop-color:#DBEFF7"/>
				<stop  offset="1" style="stop-color:#DBEFF7"/>
				<stop  offset="1" style="stop-color:#DBEFF7"/>
			</linearGradient>
			<path class="st7" d="M112.9,58.2c-4.6,0-8.3,3.7-8.3,8.3c0,4.6,3.7,8.3,8.3,8.3h11.8V58.2L112.9,58.2z"/>
		</g>
		<g>
			<path class="st4" d="M135,66.5c0,5.7-4.6,10.2-10.3,10.2c-5.7,0-10.2-4.6-10.2-10.2c0-5.7,4.6-10.3,10.2-10.3
				C130.4,56.2,135,60.8,135,66.5"/>
		</g>
		<g>
			<path class="st1" d="M196.5,83.4h31.4l-33.6,13.5"/>
		</g>
		<g>
			<path class="st1" d="M196.8,92.2h33.7l-40.8,13.7"/>
		</g>
		<g>
			<path class="st1" d="M193.4,99.9h24.5l-27,11.5"/>
		</g>
		<g>
			<path class="st3" d="M193.6,87h20.1l-22.3,9"/>
		</g>
		<g>
			<path class="st3" d="M190.9,94.3h27.3l-28,8.4"/>
		</g>
		<g>
			<path class="st3" d="M189.2,101.7h18.2l-20.5,8.5"/>
		</g>
		<g>
			<path class="st3" d="M145.1,121.7c0,12-9.7,21.7-21.7,21.7c-12,0-21.7-9.7-21.7-21.7s9.7-21.8,21.7-21.8
				C135.4,99.9,145.1,109.7,145.1,121.7"/>
		</g>
		<g transform="matrix(.16859 0 0 .16917 65.108 65.927)">
			<ellipse class="st0" cx="346.2" cy="330.3" rx="115.7" ry="116.4"/>
			<path class="st8" d="M312.3,319.1c-14.7,24.2-31.7,66.8-11.7,115.1c-13.2-5.6-25.5-13.7-36.2-24.5c-4-4-7.7-8.3-11.1-12.9
				c-4.4-43.3,17-78.5,28.6-94C293.3,306.3,303.6,312.4,312.3,319.1 M415.7,374.4c19.4-8.4,33.4-19.9,43.3-32.2
				c-2.3,19.7-9.8,39-22.3,55.6c-7,5.3-15.2,10.1-24.6,14.2c-23.4,10.1-44.5,12.6-62.1,11.3c-8-14.7-11.2-28.4-12-39.8
				C358.2,387.7,384.9,387.7,415.7,374.4"/>
			<g>
				<path class="st8" d="M365.5,238.9c29.9,14,47.4,33.6,57.8,51.4c-6.7,12.6-16.6,25.3-31.3,36.6c-9.2-19.9-27.4-44.5-62.9-61.2
					c-28.1-13.2-53.3-13.1-73.4-8.4c2.7-3.3,5.5-6.5,8.5-9.5c5.5-5.5,11.3-10.2,17.5-14.4C303.3,226.2,332.4,223.3,365.5,238.9"/>
				<path class="st8" d="M330.6,232.6l0.6,0.1l0.6,0.1l0.6,0.1l0.6,0.1l0.6,0.1l0.6,0.1l0.6,0.1l0.6,0.1l0.6,0.1l0.6,0.1l0.6,0.1
					l0.6,0.1l0.6,0.1l0.6,0.1l0.6,0.1l0.6,0.1l0.6,0.1l0.6,0.2l0.6,0.2l0.6,0.2l0.6,0.2l0.6,0.2l0.6,0.2l0.6,0.2l0.6,0.2l0.6,0.2
					l0.6,0.2l0.6,0.2l0.6,0.2l0.6,0.2l0.6,0.2l0.6,0.2l0.6,0.2l0.6,0.2l0.6,0.2l0.6,0.2l0.7,0.2l0.7,0.2l0.7,0.2l0.7,0.3l0.7,0.3
					l0.7,0.3l0.7,0.3l0.7,0.3l0.7,0.3l0.2,0.1c-8.6,8.2-16.1,16.2-22.5,24.2c-1.9-1-3.8-2-5.8-2.9c-13.3-6.3-26-9.6-37.8-11
					c-8.7-1-17.5-1-26.2,0.1l0.4-0.4l1-1l0,0l0.1-0.1c4.7-4.6,9.9-8.8,15.3-12.5l0.5-0.2l0.5-0.2l0.5-0.2l0,0l0.5-0.2l0,0l0.5-0.2
					l0,0l0.5-0.2l0,0l0.5-0.1l0.1,0l0.5-0.1l0.1,0l0.5-0.1l0.1,0l0.5-0.1l0.1,0l0.5-0.1l0.1,0l0.5-0.1l0.6-0.1l0.1,0l0.5-0.1l0.1,0
					l0.5-0.1l0.6-0.1l0.1,0l0.4-0.1l0.2,0l0.4-0.1l0.6-0.1l0.2,0l0.4-0.1l0.2,0l0.4-0.1l0.2,0l0.4-0.1l0.6-0.1l0,0l0.2,0l0.4-0.1
					l0.2,0l0.4-0.1l0.2,0l0.4-0.1l0.2,0l0.4-0.1l0.3,0l0.4-0.1l0.3,0l0.3-0.1l0.3,0l0.3-0.1l0.3,0l0.3-0.1l0.3,0l0.3,0l0.3,0l0.3,0
					l0.3,0l0.3,0l0.6-0.1l0.1,0l0.3,0l0.3,0l0.4,0l0.3,0l0.4,0l0.3,0l0.4,0l0.3,0l0.4,0l0.3,0l0.4,0l0.2,0l0.4,0l0.2,0l0.4,0l0.2,0
					l0.4,0l0.2,0l0.5,0l0.2,0l0.5,0l0.2,0l0.5,0l0.2,0l0.7,0l0.5,0l0.2,0l0.1,0l0.6,0l0.5,0l0.1,0l0.5,0l0.1,0l0.7,0l0.6,0h0.1
					l0.6,0l0.1,0l0.6,0h0.1l0.6,0h0.1l0.6,0l0.1,0l0.6,0l0.1,0l0.6,0l0,0l0.7,0l0,0l0.7,0h0l0.7,0l0,0l0.7,0l0.6,0l0.6,0l0.6,0
					l0.6,0l0.6,0.1l0.6,0.1l0.6,0.1l0.6,0.1l0.6,0.1l0.6,0.1l0.6,0.1L330.6,232.6z"/>
			</g>
			<path class="st9" d="M252.7,259c-2.3,2.6-5.4,6.8-8.2,11.2c-2.8,4.4-5.5,9.5-7.5,14.4c-2,5-4,12.7-0.5,15.4
				c3.5,2.8,12.2,1.8,20.3,1.8c8.1,0,15.6,0.9,23.3,3.3c7.7,2.4,15.7,6.3,23,11.1c7.3,4.8,14,10.4,19.2,15.2
				c5.1,4.7,8.7,8.5,11.5,11.5c2.8,2.9,4.7,5.1,6.6,6.5c1.9,1.4,3.7,2.2,10,0.1c6.3-2.1,17.1-7,24.8-11c7.7-4,12.4-7.2,12.3-13
				c0-5.8-4.8-14.4-13.5-24.1c-8.8-9.7-21.6-20.5-34.6-28.3c-13-7.8-26.1-12.7-39.7-15.4c-13.6-2.6-27.5-3-35.3-2.7
				C256.6,255.4,255,256.4,252.7,259z M310.6,226.4c3.5,1.1,10,2.2,17.8,3.8s16.9,3.8,25.4,7c8.6,3.2,16.6,7.3,25.3,13
				c8.7,5.6,18,12.7,25.3,20c7.3,7.2,12.6,14.7,17.1,14.1c4.5-0.6,8.2-9.2,10.1-15c1.8-5.8,1.8-8.8-3-14.6
				c-4.7-5.8-14.2-14.2-24.5-20.9c-10.3-6.6-21.5-11.3-34.5-13.9c-12.9-2.6-27.6-3-38.6-2.2c-10.9,0.9-18.1,3.1-21.4,4.8
				C306.5,224.1,307.1,225.3,310.6,226.4z"/>
			<path class="st10" d="M326.8,220l0.2,0L326.8,220z M327,220l18.3-1.5c-2.2,0-4.3,0.1-6.5,0.2l-0.1,0l-1.3,0.1l-0.1,0l-1.3,0.1h0
				l-1.3,0.1l-0.1,0c-1.3,0.1-2.6,0.3-3.9,0.4h0C329.5,219.6,328.2,219.8,327,220L327,220z M238.8,299.8c6.7-2.3,13.2-3.6,19.5-3.9
				c7.7-0.4,15,0.5,21.9,2.3l0,0l2.8,0.8l5.7,1.7l-0.1,0.2c4,1.5,7.8,3.3,11.6,5.4c3.9,2.1,7.6,4.5,11,6.9l0-0.1l3.2,2.5l0.2,0.2
				l0.2,0.2l2.9,2.2l0,0c13.8,11.3,23.3,23.6,26.7,28.4c6.3-1.8,12.5-4,18.5-6.8c7.5-3.5,15.3-7.9,23.1-13.5l0.8-0.6
				c-5.1-10.1-11.6-19.5-19.4-27.7c-9.8-10.4-22.8-20.4-40-28.5c-12.4-5.8-24.2-9-35.2-10.2c-12.4-1.4-23.9-0.4-34,1.8
				C249.2,272.5,242.6,285.7,238.8,299.8z M248.5,381.9c-9.1-16.5-13.6-34.8-13.6-53.1c0-6.5,0.6-12.9,1.7-19.3
				c7.6-3.3,15-5,22.1-5.4c5.6-0.3,11,0.2,16.2,1.3l-0.3,0.4l-0.1,0.2l-0.4,0.6l0,0l-0.3,0.4l-0.1,0.2l-0.2,0.2l-0.2,0.3l0,0.1
				l-0.3,0.4l-0.1,0.1l-0.4,0.6l-0.1,0.1c-4.9,7.6-10.4,17.5-14.9,29.1C252.7,350.7,249,365.6,248.5,381.9L248.5,381.9z
				 M293.1,426.1c-7.8-4.2-15.1-9.3-21.7-15.3l0,0c-0.7-0.6-1.4-1.3-2.1-1.9l-0.1-0.1l-0.9-0.8l-0.1-0.1l0,0l-0.2-0.2l-0.7-0.7
				l-0.8-0.8l-0.1-0.1l-0.1-0.1l0,0l-0.1-0.1l-0.9-0.9l0,0c-2.9-3-5.5-6.2-8-9.5l-0.1-0.8l0,0l-0.1-0.7l-0.1-1.5l0-0.7l0-0.1l0-0.8
				l-0.1-1.4l0-0.2l0-0.6l0-0.7l0,0l0-0.7v-0.2l0-0.6l0,0v-1.5l0-0.7v0l0-0.7l0-0.2l0-0.5l0-0.4l0-0.3l0-0.6l0-0.9l0-0.7l0-0.3
				c0.8-14.2,4.1-27.1,8.4-38.4c4.5-11.5,10-21.3,14.8-28.6l0.3-0.4l0-0.1l0.3-0.4l0,0l0.3-0.5l0,0l0.3-0.4l0-0.1l0.3-0.4l0.1-0.1
				l0.2-0.3l0.1-0.1l0.2-0.3l0.1-0.2l0.2-0.2l0.2-0.2l0.1-0.2l0.2-0.2l0.1-0.2l0.2-0.3c4.4,1.5,8.7,3.5,12.7,5.7
				c3.7,2,7.3,4.3,10.7,6.8l-0.1,0.2l-0.2,0.4l-0.2,0.3l-0.2,0.4l-0.2,0.4l-0.2,0.3l-0.4,0.7l-0.3,0.5l-0.1,0.2l-0.3,0.5l-0.1,0.2
				l-0.3,0.6l-0.1,0.1l-0.4,0.7l0,0.1l-0.4,0.7l0,0l-0.4,0.7l0,0.1l-0.3,0.7l-0.1,0.1l-0.3,0.6l-0.1,0.2l-0.3,0.6l-0.1,0.2l-0.3,0.5
				l-0.1,0.3l-0.2,0.5l-0.2,0.4l-0.2,0.4l-0.2,0.4l-0.2,0.4l-0.2,0.5l-0.1,0.3l-0.3,0.6l-0.4,0.8l0,0.1l-0.1,0.2l-0.1,0.2l-0.3,0.7
				l-0.3,0.8l0,0l-0.4,0.8l0,0l-0.3,0.8l0,0.1l-0.3,0.8l-0.1,0.2l-0.3,0.7l-0.1,0.2l-0.3,0.6l-0.1,0.3l-0.2,0.6l-0.1,0.4l-0.2,0.5
				l0,0.1l-0.3,0.8l-0.2,0.5l-0.1,0.2l-0.3,0.7l0,0.1l-0.1,0.3l-0.1,0.2l-0.2,0.6l0,0l-0.3,0.7l-0.1,0.2l-0.3,0.8l0,0.1l-0.3,0.9
				l0,0l-0.3,0.9l0,0l-0.3,0.9l0,0.1l-0.3,0.8l-0.1,0.2l0,0.2c-0.2,0.6-0.3,1.2-0.5,1.8l0,0.1l-0.2,0.6l-0.1,0.4l-0.1,0.2l-0.2,0.7
				l0,0.1l-0.1,0.5l-0.2,0.6l0,0.1l-0.2,0.7l0,0.2l-0.1,0.3l-0.1,0.2l-0.2,0.7l0,0.1l-0.2,0.8l0,0.2l-0.2,0.9l0,0.1l-0.2,1l0,0
				l-0.2,1l0,0.1l-0.2,0.9l0,0.1l-0.2,0.9l0,0.2l0,0.2l-0.2,0.9l0,0.1l-0.1,0.7l0,0.1l-0.1,0.8l0,0.1l-0.1,0.9l0,0.3l-0.1,0.6
				l-0.1,0.7l0,0.2l-0.1,0.4l0,0.3l-0.1,0.8l-0.1,0.8l0,0.2l-0.1,0.9l0,0.2l-0.1,1l0,0.1l-0.1,1.1l-0.1,0.7l0,0.1l-0.1,0.6l0,0.3
				l0,0.5v0l-0.1,0.7l0,0l0,0.5l0,0.2l0,0.7l0,0.1l0,0.7l0,0.1l0,0.7l0,0.2l0,0.5l0,0.3l0,0.1l0,0.7l0,0.1l0,0.3l0,0.6l0,0.1l0,0.7
				v0l0,0.7l0,0.1l0,0.6l0,0.3l0,0.5l0,0.4v0.4l0,0.7l0,0.7v0l0,0.8v0.1l0,0.7l0,0.2l0,0.5l0,0.4l0,0.4l0,0.5l0,0.3l0,0.6l0,0.1
				l0,0.8l0,0l0,0.7l0,0.2l0,0.2l0,0.7l0,0l0.1,0.8l0,0.1l0,0.3l0.1,0.6l0,0.2l0.1,0.7l0,0l0.1,0.8l0,0.1l0.1,0.7l0,0.2l0.1,0.5
				l0,0.4l0,0.4l0.1,0.5l0,0.2l0.1,0.7l0,0.1l0.1,0.8l0,0l0.1,0.7l0,0.2l0.1,0.6l0.1,0.3l0.1,0.5l0.1,0.5l0.1,0.3l0.1,0.6l0,0.2
				l0.1,0.8l0,0l0.2,0.8l0,0.1l0,0.2l0.1,0.8l0,0l0.1,0.5l0.1,0.4l0.1,0.4l0.1,0.6l0.1,0.2l0.2,0.7l0,0.1l0.2,0.8l0,0.1l0.2,0.7
				l0,0.2l0.1,0.6l0.1,0.4l0,0.1l0.2,0.6l0.1,0.2l0.1,0.3l0.2,0.7l0,0.2l0.2,0.8l0,0l0.2,0.8l0,0.1l0.2,0.7l0.2,0.6l0.1,0.2l0.1,0.4
				l0.1,0.4l0.2,0.6l0.1,0.2L293.1,426.1L293.1,426.1z M354.8,438.8c-3.2,0.3-6.4,0.4-9.6,0.4c-14.3,0-28.4-2.7-41.6-8.1
				c-0.2-0.6-0.5-1.2-0.7-1.7l0,0l-0.1-0.3l-0.2-0.6l0-0.1c-0.2-0.6-0.4-1.1-0.6-1.7l0-0.1l-0.3-0.8l0,0l-0.3-0.8l0-0.1l-0.1-0.4
				l-0.1-0.5l-0.1-0.2c-1.3-3.9-2.3-7.9-3.2-12l-0.2-0.8l0-0.1l-0.2-0.8l0-0.1l-0.2-0.8l0,0l-0.2-0.8v0c-0.1-0.6-0.2-1.1-0.3-1.7
				l0,0l-0.1-0.8l-0.1-0.8l0-0.1l-0.1-0.8l-0.1-0.8l0-0.1l-0.1-0.7l0-0.1l-0.1-0.7l0-0.2l-0.1-0.7l0-0.2l-0.1-0.6l0,0l-0.1-0.8
				l0-0.2l0-0.6l0,0l0-0.6l0-0.1l0-0.3l0-0.5l0-0.3l0-0.5v0l0-0.7l0-0.1c0-0.5,0-1-0.1-1.5l0-0.1c0-0.8-0.1-1.6-0.1-2.4v0l0-0.5
				l0-0.4l0-0.5v-1.1l0-0.5l0-0.3l0-0.5l0-0.3v0l0-0.8l0-0.6l0-0.2l0-0.6l0-0.2l0-0.6l0-0.2l0-0.6l0-0.1l0-0.7l0-0.1l0-0.7l0-0.1
				l0-0.7l0-0.1l0.1-0.7l0-0.1l0.1-0.7l0,0l0.1-0.7l0,0l0.1-0.8l0.1-1l0-0.1l0.1-0.9l0-0.2l0.1-0.8l0-0.3l0.1-0.7l0-0.1l0.1-0.5
				l0.1-0.7l0-0.2l0.1-0.8l0-0.2l0.1-0.7l0-0.2l0-0.2l0.1-0.8l0-0.1l0.2-0.9l0.2-0.9l0-0.1l0.2-0.9l0-0.1l0.2-0.8l0.1-0.2l0-0.1
				c0.1-0.6,0.3-1.2,0.4-1.8l0-0.1l0.1-0.5l0.1-0.5l0-0.1l0.2-0.7l0.1-0.3c0.2-0.6,0.3-1.3,0.5-1.9l0,0l0-0.1l0.2-0.9l0,0l0.2-0.9
				l0-0.1l0.2-0.8l0.1-0.2l0-0.2l0.2-0.8l0-0.1c0.2-0.6,0.3-1.2,0.5-1.7l0.1-0.2l0.2-0.7l0-0.1l0.1-0.3l0.2-0.6l0.1-0.2l0.2-0.7
				l0-0.1l0.3-0.8l0,0l0.3-0.8l0-0.1l0.3-0.8l0-0.1l0.2-0.7l0.1-0.2l0.2-0.6l0.1-0.3l0.2-0.5l0.1-0.4l0,0l0.3-0.7l0-0.1l0.1-0.3
				l0.2-0.5l0.1-0.2l0.3-0.6l0.1-0.2l0.3-0.7l0-0.1l0.3-0.8l0,0l0.3-0.8l0-0.1c0.4-0.8,0.7-1.7,1.1-2.5l0,0l0.2-0.4l0.2-0.4l0.2-0.3
				l0.2-0.5l0.1-0.3l0.3-0.5l0.1-0.2l0.3-0.6l0-0.1l0.3-0.7l0,0l0-0.1l0.3-0.7l0.3-0.7l0.1-0.1l0.3-0.6l0.1-0.2l0.3-0.5l0.1-0.3
				l0.2-0.4l0.2-0.3l0.2-0.3l0.2-0.4l0.1-0.3l0.2-0.5l0.4-0.7l0.1-0.1l0.3-0.6l0.4-0.7l0,0l0.3-0.6c12.7,10.6,21.3,21.9,24.3,26
				l0,0.1l-0.1,0.2l-0.1,0.2v0l-0.1,0.2l-0.1,0.2l0,0.1l0,0c-0.9,2.9-2.3,7.6-3.1,13.8c-0.5,4.1-0.8,8.2-0.7,12.3l-0.2,0l0.4,5.4
				l0,0.3l0.2,2.8l0.1,0c0.6,5.5,1.6,11,3.2,16.4c1.5,5.3,3.4,10.4,5.7,15.4l-0.3,0l3.6,6.7l0.1,0.1l0.1,0.1l0.1,0.1l0.8,1.5h0
				c1.5,2.6,3.1,5.1,4.7,7.6C353,436.2,353.9,437.5,354.8,438.8L354.8,438.8z M412.6,416.3c-14.1,10.9-30.7,18.2-48.3,21.2l-0.1-0.2
				l-0.1-0.2l-0.1-0.1l-0.1-0.1c-0.4-0.5-0.8-1-1.1-1.5l-0.1-0.1l-0.5-0.7l-0.1-0.1l-0.1-0.1l-0.1-0.1l-0.1-0.1l-0.3-0.5l-0.1-0.1
				l-0.1-0.1l-0.1-0.1c-0.4-0.5-0.7-1-1.1-1.5l-0.1-0.1l-0.1-0.1c-0.3-0.5-0.7-1-1-1.5c-0.6-0.8-1.1-1.7-1.6-2.5h0.2l0.1,0l0.3,0
				h0.3l0.6,0l0.1,0h0.3l0,0l0.3,0h0.2l0.2,0l0.3,0h0l0.3,0h0.1l0.3,0l0.2,0l0.1,0l0.3,0l0.3,0l0.1,0l0.2,0l0.3,0h0.1l0.3,0h0l0.3,0
				l0.2,0l0.2,0l0.3,0l0,0l0.3,0l0.1,0l0.2,0l0.2,0l0.1,0l0.7,0l0.1,0l0.2,0l0.3,0l0.1,0l0.3,0l0.1,0l0.3,0l0.3,0l0.3,0l0,0l0.3,0
				l0.1,0l0.2,0l0.2,0l0.1,0l0.3,0h0l0.3,0l0.1,0l0.2,0l0.3,0l0.1,0l0.4,0l0.1,0l0.3,0l0.2,0l0.2,0l0.3,0l0,0l0.4,0l0.1,0l0.2,0
				l0.2,0l0.1,0l0.4,0l0,0l0.3,0l0.2,0l0.2,0l0.3,0l0.1,0l0.4,0l0.1,0l0.3,0l0.2,0l0.1,0l0.3,0l0,0l0.4,0l0.1,0l0.2,0l0.3,0l0.1,0
				l0.7-0.1l0.2,0l0.2,0l0.3,0l0,0l0.4-0.1l0.1,0l0.3,0l0.2,0l0.1,0l0.4-0.1l0.5-0.1l0,0l0.5-0.1l0,0l0.5-0.1l0,0l0.4-0.1l0.1,0
				l0.4-0.1l0.1,0l0.4-0.1l0.1,0l0.4-0.1l0.1,0l0.4-0.1l0.1,0l0.4-0.1l0.1,0l0.3-0.1l0.2,0l0.3-0.1l0.2,0l0.3-0.1l0.2,0l0.3-0.1
				l0.2,0l0.3-0.1l0.2,0l0.3-0.1l0.2-0.1l0.3-0.1l0.3-0.1l0.2-0.1l0.3-0.1l0.2-0.1l0.3-0.1l0.2,0l0.3-0.1l0.2,0l0.3-0.1l0.2,0
				l0.3-0.1l0.2,0l0.4-0.1l0.1,0l0.4-0.1l0.1,0l0.4-0.1l0.1,0l0.4-0.1l0.1,0l0.4-0.1l0.1,0l0.4-0.1l0.1,0l0.5-0.1l0,0l0.5-0.1l0,0
				l0.5-0.1l0,0l0.5-0.1l0,0l0.5-0.1l0,0l0.5-0.2l0.5-0.1l0.1,0l0.5-0.1l0.1,0l0.5-0.1l0.1,0l0.4-0.1l0.1,0l0.4-0.1l0.1,0l0.4-0.1
				l0.1,0l0.4-0.1l0.2-0.1l0.4-0.1l0.2-0.1l0.4-0.1l0.2-0.1l0.3-0.1l0.2-0.1l0.3-0.1l0.2-0.1l0.3-0.1l0.2-0.1l0.3-0.1l0.3-0.1
				l0.3-0.1l0.3-0.1l0.3-0.1l0.3-0.1l0.2-0.1l0.3-0.1l0.2-0.1l0.3-0.1l0.2-0.1l0.4-0.1l0.2-0.1l0.4-0.1l0.2-0.1l0.4-0.1l0.2-0.1
				l0.4-0.2l0.1-0.1l0.4-0.2l0.1,0l0.4-0.2l0.1,0l0.5-0.2l0.1,0l0.5-0.2l0.1,0l0.5-0.2l0,0l0.5-0.2l0,0l0.5-0.2l0,0L412.6,416.3z
				 M452.4,355.4c-3.5,14.3-9.9,27.7-18.7,39.5l-0.3,0.2l0,0l-0.1,0.1l-0.6,0.5l-0.1,0.1l-0.2,0.2l-0.1,0.1l-0.1,0l-0.1,0.1
				l-0.8,0.6l0,0l-0.3,0.2h0l-0.5,0.3l0,0l-0.1,0.1l0,0l-0.3,0.2l0,0l-0.1,0.1l0,0l-0.1,0.1l-0.1,0l-0.3,0.2l-0.1,0l-0.1,0.1
				l-0.2,0.2l-0.1,0.1l-0.1,0.1l-0.2,0.1l-0.1,0l-0.1,0.1l-0.1,0l-0.1,0.1l0,0l-0.1,0.1l0,0l-0.1,0.1l0,0l-0.1,0.1l0,0l-0.1,0.1l0,0
				l-0.2,0.1l0,0l-0.2,0.1l0,0l-0.2,0.1l0,0l-0.2,0.1l0,0l-0.2,0.1l0,0l-0.1,0.1l0,0l-0.1,0.1l0,0l-0.1,0.1l0,0l-0.1,0.1l-0.1,0
				l-0.1,0.1l-0.1,0l-0.1,0.1l-0.1,0l-0.1,0.1l-0.1,0l-0.1,0.1l-0.1,0.1l-0.1,0.1l-0.1,0.1l-0.1,0l-0.1,0.1l-0.1,0l-0.1,0.1l-0.1,0
				l-0.1,0.1l-0.1,0l-0.2,0.1l-0.1,0.1l0,0l-0.1,0.1l0,0l-0.2,0.1l0,0l-0.2,0.1l0,0l-0.2,0.1l0,0l-0.2,0.1
				c-4.1,2.4-8.4,4.5-12.8,6.4c-11.4,4.9-22.2,8-32.3,9.6l-0.4,0.1l0,0l-0.4,0.1l-0.1,0l-0.3,0.1l-0.1,0l-0.3,0l-0.2,0l-0.3,0
				l-0.2,0l-0.2,0l-0.2,0l-0.2,0l-0.3,0l-0.5,0.1l-0.1,0l-0.4,0l-0.1,0l-0.4,0.1l0,0l-0.4,0.1l0,0l-0.4,0l-0.1,0l-0.4,0l-0.1,0
				l-0.3,0l-0.1,0l-0.3,0l-0.2,0l-0.2,0l-0.2,0l-0.2,0l-0.3,0l-0.1,0l-0.3,0l-0.1,0l-0.3,0l-0.1,0l-0.4,0l0,0l-0.4,0l0,0l-0.4,0
				l-0.1,0l-0.4,0l-0.1,0l-0.3,0l-0.1,0l-0.3,0l-0.2,0l-0.2,0l-0.2,0l-0.2,0l-0.2,0l-0.2,0l-0.3,0l-0.1,0l-0.3,0l-0.1,0l-0.4,0l0,0
				l-0.4,0l0,0l-0.4,0h0l-0.4,0l-0.1,0l-0.3,0l-0.1,0l-0.3,0l-0.2,0l-0.2,0l-0.2,0l-0.2,0l-0.2,0l-0.2,0l-0.3,0l-0.1,0l-0.3,0h-0.1
				l-0.3,0h-0.1l-0.4,0h0l-0.4,0l0,0l-0.8,0l-0.1,0h-0.3l-0.1,0h-0.3l-0.2,0h-0.2l-0.2,0l-0.2,0l-0.2,0l-0.4,0l-0.1,0l-0.3,0l-0.1,0
				l-0.3,0h0l-0.4,0l0,0l-0.7,0h-0.1l-0.3,0l-0.1,0l-0.3,0l-0.2,0l-0.2,0l-0.2,0l-0.2,0l-0.2,0l-0.1,0c-3.3-6.4-5.7-12.5-7.3-18.3
				c-1.2-4.1-2-8.2-2.6-12.5l0.5,0.1l0.1,0l0.4,0.1l0.2,0l0,0l0.6,0.1l0.2,0l0.4,0l0.1,0l0.5,0.1l0,0l0.5,0.1l0.1,0l0.4,0.1l0.1,0
				l0.3,0l0.2,0l0.3,0l0.3,0l0.2,0l0.4,0l0.1,0l0.5,0.1l0,0l0.5,0l0.1,0l0.4,0l0.2,0l0.3,0l0.3,0l0.2,0l0.4,0l0.1,0l0.5,0l0,0l0.5,0
				l0.1,0l0.4,0l0.2,0l0.3,0l0.3,0l0.3,0l0.4,0l0.2,0l0.5,0l0.1,0l0.5,0l0,0l0.5,0l0.1,0l0.4,0l0.2,0l0.3,0l0.3,0l0.2,0l0.4,0l0.1,0
				l0.5,0l0.5,0l0.1,0l0.4,0l0.2,0l0.3,0l0.3,0l0.2,0l0.4,0h1.3l0.5,0l0.2,0l0.4,0l0.3,0l0.3,0l0.4,0l0.2,0l0.5,0l0.1,0l0.6,0l0,0
				l0.5,0l0.1,0l0.4,0l0.2,0l0.3,0l0.3,0l0.2,0l0.4,0l0.1,0l0.6,0h0l0.6,0l0.1,0l0.5,0l0.2,0l0.4,0l0.3,0l0.3,0l0.4,0l0.7-0.1l0.1,0
				l0.6-0.1l0,0l0.5,0l0.2,0l0.4,0l0.3,0l0.3,0l0.4,0l0.2,0l0.5-0.1l0.1,0l0.6-0.1c12.5-1.5,26-4.9,40.3-11
				c10-4.3,18.6-9.5,26.1-15.2l0.2-0.1l0.2-0.1l0,0l0.1-0.1l0.2-0.1l0.1-0.1l0.1,0l0.1-0.1l0.1-0.1l0,0l0.1-0.1l0.1-0.1l0,0l0.1-0.1
				l0.1-0.1l0.1-0.1l0.1-0.1l0.1-0.1l0.1-0.1l0,0l0.1-0.1l0.1-0.1l0,0l0.1-0.1l0.1-0.1l0,0l0.1-0.1l0.1-0.1l0.1-0.1l0.1,0l0.1-0.1
				l0.1-0.1l0,0l0.1-0.1l0.1-0.1l0,0l0.1-0.1l0.1-0.1l0.1-0.1l0.1-0.1l0.1-0.1l0.1-0.1l0,0l0.1-0.1l0.1-0.1l0,0l0.1-0.1l0.1-0.1
				l0.1,0l0.1-0.1l0.1-0.1l0.1-0.1l0,0l0.1-0.1l0.1-0.1l0,0l0.3-0.2l0,0l0.1-0.1l0.1-0.1l0.1-0.1l0.1-0.1l0.1-0.1l0.1-0.1l0,0
				l0.1-0.1l0.1-0.1l0,0l0.3-0.3l0.1-0.1l0.1-0.1l0.1-0.1l0,0l0.1-0.1l0.1-0.1h0l0.1-0.1l0.1-0.1l0,0l0.1-0.1l0.1-0.1l0.1-0.1
				l0.1-0.1l0.1-0.1l0.1-0.1l0,0l0.1-0.1L452.4,355.4z M436.6,266.8c-1.9,7.8-4.7,15.4-8.2,22.6l-0.1,0.2l-0.2,0.5l0,0l-0.9,1.8
				l-0.1,0.3l-0.1,0.3l0,0.1l-3.3,6.3l-0.1-0.2l-0.1,0.2l0,0l-0.1,0.2l-0.1,0.2l-0.1,0.1l-0.1,0.1l-0.1,0.2l-0.1,0.2l0,0l-0.1,0.2
				l-0.1,0.2l-0.7,1l-0.1,0.2l0,0l-0.1,0.2l-0.1,0.2c-6.7,10-15.5,19.8-27.3,28.8l-3.5,2.7l0-0.1c-8.2,5.8-16.2,10.4-24,14
				c-7.3,3.3-14.3,5.8-21.1,7.6c-0.8,2.5-2,6.7-2.7,12.3c-0.6,4.3-0.8,8.6-0.6,12.9l0.5,0.1h0l0.5,0.1l0,0l0.4,0.1l0.1,0l0.4,0.1
				l0.1,0l0.3,0.1l0.2,0l0.3,0l0.5,0.1l0.3,0l0.2,0l0.4,0.1l0.1,0l0.4,0.1l0.1,0l0.5,0.1l0,0l0.5,0.1l0,0l0.5,0.1l0.1,0l0.4,0l0.1,0
				l0.4,0l0.5,0.1l0.2,0l0.3,0l0.3,0l0.2,0l0.3,0l0.2,0l0.4,0l0.1,0l0.5,0l0.1,0l0.5,0l0.5,0l0.1,0l0.5,0l0.1,0l0.4,0l0.2,0l0.4,0
				l0.2,0l0.3,0l0.3,0l0.3,0l0.3,0l0.2,0l0.5,0l0.4,0l0.1,0l0.5,0h0l0.5,0h0l0.5,0h0.1l0.5,0l0.1,0l0.4,0l0.2,0l0.3,0l0.3,0l0.3,0
				l0.3,0h0.2l0.4,0h0.2l0.4,0h0.1l0.5,0l0.1,0l0.6,0h0l0.6,0h0.1l0.5,0l0.1,0l0.4,0l0.2,0l0.4,0l0.2,0l0.3,0l0.3,0l0.3,0l0.4,0
				l0.2,0l0.4,0l0.2,0l0.5,0l0.1,0l0.5,0l0,0l0.6,0l0,0l0.5,0l0.1,0l0.5,0l0.1,0l0.6-0.1l0.4,0l0.3,0l0.3,0l0.3,0l0.2,0l0.1,0
				l0.5-0.1l0.5,0l0.1,0l0.5-0.1l0.1,0l0.6-0.1c11.6-1.4,24.4-4.6,37.9-10.5c9.4-4.1,17.5-8.9,24.4-14.1l0.3-0.2l0,0l0.3-0.2l0,0
				l0.3-0.2l0,0l0.3-0.2l0.1-0.1l0.2-0.2l0.1-0.1l0.2-0.2l0.1-0.1l0.2-0.2l0.1-0.1l0.2-0.1l0.1-0.1l0.2-0.1l0.1-0.1l0.1-0.1l0.2-0.1
				l0.1-0.1l0.2-0.1l0.1-0.1l0.2-0.2l0.1-0.1l0.2-0.2l0.1-0.1l0.2-0.2l0.1-0.1l0.2-0.2l0,0l0.2-0.2l0,0l0.3-0.2l0,0l0.3-0.2l0,0
				l0.3-0.2l0,0l0.3-0.2l0,0l0.2-0.2l0,0l0.2-0.2l0.1-0.1l0.2-0.2l0.1-0.1l0.2-0.2l0.1-0.1l0.2-0.2l0.1-0.1l0.2-0.2l0.1-0.1l0.2-0.1
				l0.1-0.1l0.1-0.1l0.1-0.1l0.1-0.1l0.2-0.1l0.1-0.1l0.2-0.2l0.1-0.1l0.2-0.2l0.1-0.1l0.2-0.2l0.1-0.1l0.2-0.2l0,0l0.2-0.2l0,0
				l0.5-0.5l0,0l0.3-0.3l0,0l0.2-0.2l0,0l0.2-0.2l0,0l0.2-0.2l0-0.1l0.2-0.2l0.1-0.1l0.2-0.2l0.1-0.1l0.2-0.2l0.1-0.1l0.2-0.2
				l0.1-0.1l0.1-0.1l0.1-0.1l0.1-0.1l0.1-0.1l0.1-0.1l0.1-0.2l0.1-0.1l0.2-0.2l0.1-0.1l0.2-0.2l0.1-0.1l0.2-0.2l0.1-0.1l0.2-0.2l0,0
				l0.2-0.2l0,0l0.2-0.2l0,0l0.2-0.3l0,0l0.2-0.3l0,0l0.2-0.3l0,0l0.2-0.2l0,0l0.2-0.2l0,0l0.2-0.2l0.1-0.1l0.2-0.2l0.1-0.1l0.1-0.2
				c0.4-3.9,0.6-7.8,0.6-11.8C455.6,307.1,449.3,285.4,436.6,266.8L436.6,266.8z M345.3,218.4l-21.1,2l0,0
				c-4.1,0.8-8.2,1.8-12.3,3.1l0,0l0.3,0l0.2,0l0.2,0l0.1,0l0.2,0l0.2,0l0.2,0l0,0l0.1,0l0.2,0l0.4,0h0l0.7,0h0l0.1,0l0.2,0l0.2,0
				l0.2,0l0,0l0.2,0h0.2l0.2,0l0.2,0l0,0l0.2,0h0.4l0.2,0h0l0.2,0h0.2l0.4,0l0,0h0.2l0.4,0l0.2,0h0l0.2,0l0.4,0l0.2,0h0l0.2,0l0.2,0
				l0.4,0l0,0l0.2,0l0.2,0l0.2,0l0.2,0l0,0l0.2,0l0.4,0l0.2,0h0l0.2,0l0.4,0l0.2,0l0,0l0.2,0l0.2,0l0.4,0h0l0.8,0l0,0l0.6,0l0.6,0v0
				l0.6,0l0,0l0.6,0.1l0.6,0.1v0l0.6,0.1l0,0l0.6,0.1l0,0l0.6,0.1v0l0.6,0.1l0,0l0.6,0.1l0.6,0.1v0l0.6,0.1l0.6,0.1v0l0.6,0.1l0,0
				l0.6,0.1l0.7,0.1l0.7,0.1l0.7,0.1l0.7,0.1l0.7,0.1l0.7,0.1v0l0.7,0.1v0l0.7,0.1h0l0.7,0.1l0.7,0.1l0.7,0.1l0,0l0.7,0.1v0l0.7,0.2
				v0l0.7,0.2l0,0l0.7,0.2h0l0.7,0.2l0.7,0.2l0.7,0.2l0,0l0.7,0.2l0,0l0.7,0.2l0.7,0.2l0.7,0.2l0.7,0.2l0.7,0.2l0.7,0.2l0,0l0.7,0.2
				l0,0l0.7,0.2l0.7,0.2l0,0l0.7,0.2h0l0.7,0.2l0.7,0.2l0.7,0.2l0.7,0.2l0.7,0.3l0.7,0.3l0.7,0.3l0.7,0.3l0.7,0.3l0.7,0.3l0.7,0.3
				l0.7,0.3l0.7,0.3l0.7,0.3l0.7,0.3l0.7,0.3l0.7,0.3l0.7,0.3l0.7,0.3l0.7,0.3c15.4,7.2,27.6,15.9,37.3,25l0.3,0.3l0.1,0.1l0.2,0.2
				l0.2,0.2l0.1,0.1l0.3,0.3l0,0l0.3,0.3l0.1,0.1l0.3,0.3l0.2,0.2l0.2,0.2l0.7,0.7l0.3,0.3l0.1,0.1l0.2,0.2l0.2,0.2l0.1,0.1l0.3,0.3
				l0,0l0.3,0.3l0.3,0.3l0.2,0.2l0.1,0.1l0.3,0.3l0,0l0.3,0.3l0.1,0.1l0.2,0.3l0.2,0.2l0.1,0.2l0.3,0.3l0,0l0.3,0.3l0,0.1l0.3,0.3
				l0.1,0.2l0.2,0.2l0.2,0.3l0.1,0.1l0.3,0.3l0,0l0.3,0.3l0.1,0.1l0.2,0.2l0.3,0.3l0.3,0.3l0,0l0.3,0.3l0.1,0.1l0.2,0.2l0.2,0.2
				l0.1,0.1l0.2,0.3l0,0l0.3,0.3l0.1,0.1l0.2,0.3l0.1,0.2l0.1,0.2l0.3,0.3l0.3,0.3l0,0c0.6,0.8,1.2,1.6,1.8,2.3l0.2,0.3l0,0l0.3,0.3
				l0.3,0.3l0.1,0.2l0.1,0.2l0.5,0.7l0,0l0.2,0.3l0.1,0.1l0.1,0.2l0.2,0.2l0.1,0.1l0.2,0.3l0,0l0.2,0.3c0.3,0.5,0.6,0.9,0.9,1.3
				l0.1,0.1l0.2,0.2l0.1,0.2l0.1,0.1l0.2,0.3l0,0c3.4-7.7,5.6-15.3,6.9-22.4l0-0.2l0,0l0-0.2l0-0.2l0-0.2l0,0l0.1-0.4
				c-1.8-2.2-3.7-4.2-5.7-6.3l0,0l0,0l-0.8-0.8l-0.1-0.1l-0.9-0.9l-0.5-0.5l-0.5-0.5l-0.4-0.4l-0.6-0.5l-0.4-0.4l-0.5-0.5l-0.5-0.5
				l-0.6-0.5l-0.3-0.3l-0.8-0.7l-0.2-0.2l-0.1-0.1l-0.9-0.8l0,0l-0.1-0.1l-1-0.8l-0.1-0.1l-0.9-0.7l-0.4-0.3l-0.6-0.5l-0.5-0.3
				l-0.7-0.5l-0.3-0.2l-0.9-0.7l-0.2-0.1l-1.1-0.8l-0.1,0l-1-0.7l-0.1-0.1L408,238l-0.8-0.5l-0.3-0.2l-0.9-0.6l-0.2-0.1l-1-0.6
				l-0.1-0.1l-1-0.6l-0.3-0.2l-0.7-0.4l-0.5-0.3l-0.1,0l-1-0.6l0,0l-1-0.6l-0.1-0.1l-0.2-0.1l-1-0.6l0,0l-1-0.6l-0.3-0.1l-0.9-0.5
				l-0.3-0.2l-1-0.5l-0.1,0c-0.8-0.4-1.6-0.8-2.4-1.2l0,0l0,0c-1.6-0.8-3.2-1.5-4.8-2.2l-0.1,0c-2.5-1-4.9-2-7.5-2.8l-0.1,0
				l-1.1-0.4l-0.3-0.1c-2.5-0.8-5-1.5-7.5-2.1l-0.1,0l-1-0.2l-0.3-0.1c-1.7-0.4-3.4-0.7-5.1-1l0,0l-1.1-0.2l-0.3-0.1l-0.9-0.2
				l-0.4-0.1l-1-0.2l-0.2,0l-1.2-0.2l0,0l-0.1,0c-2.2-0.3-4.3-0.5-6.5-0.7l0,0c-0.8-0.1-1.7-0.1-2.5-0.2l-0.1,0
				c-1.3-0.1-2.6-0.1-4-0.1l-0.1,0L345.3,218.4z M387.3,217.8c-1.1-0.4-2.3-0.8-3.4-1.2l-0.3-0.1l-0.9-0.3l-0.3-0.1l-1-0.3l-0.1,0
				c-11.7-3.7-23.9-5.6-36.1-5.6c-22.8,0-45.6,6.5-65.3,19.6l-0.4,0.3l-0.1,0.1l-0.1,0.1l-0.1,0.1l-0.3,0.2l0,0l-17.1,14.1l-0.2,0.2
				l-0.8,0.8l-0.1,0.1l-0.1,0.1l-0.1,0.1l-0.3,0.4l-0.1,0.1l-0.1,0.1l-0.1,0.1l-0.1,0.1l-0.1,0.1c-2.8,2.9-5.4,5.9-7.9,9.1l-6.7,8.4
				l0.8-0.2c-8,12.2-13.6,25.7-16.7,39.9l0,0l-0.1,0.4c-1.7,8.1-2.6,16.3-2.6,24.6c0,24.5,7.5,48.9,22.6,69.6l0,0
				c0.4,0.6,0.9,1.2,1.3,1.8l8.3,11.1l-0.2-1.5l0,0l0,0l0,0l0,0l0,0l0,0l0,0l0,0l0,0l0,0l0,0l0.2,0.2l0,0l0,0l0,0l0,0l0,0l0.5,0.6
				l0,0l0,0l0,0l0,0l0,0l0.1,0.1l0,0l0,0l0,0l0.8,0.8l0.1,0.1l1,1l0.1,0.1c0.3,0.3,0.6,0.6,1,0.9l0.1,0.1l0.1,0.1l0.8,0.7l0.2,0.2
				l0.1,0.1l0.3,0.2l0.3,0.2l0.3,0.2l0.5,0.5l0.3,0.2l0.3,0.2l0,0l0.5,0.4l0.3,0.2l0.3,0.2c8.9,7.7,18.9,14,29.6,18.8l0,0l0.2,0.1
				c0.9,0.4,1.8,0.8,2.8,1.2l7.9,3.4l-0.2-0.5c5.4,1.8,10.9,3.2,16.4,4.1l0.4,0.1l0.4,0.1l0.7,0.1l0,0l0.4,0.1l0.4,0.1l0.4,0.1
				l0.4,0.1l0.4,0.1l0.4,0.1l0.3,0l0.1,0l1.1,0.2l0.3,0l0.4,0l0.4,0l0.5,0.1l0.4,0l0.1,0l0.5,0.1l0.5,0.1l0.1,0l0.3,0l0.5,0l0.2,0
				l1.1,0.1l0.1,0l0.5,0l0.5,0l0.5,0c3,0.2,6.1,0.4,9.1,0.4c5.2,0,10.4-0.3,15.6-1l0,0l1-0.2c0.9-0.1,1.7-0.3,2.6-0.4l5.8-0.9
				l-0.1-0.2c18-3.8,34.8-11.8,49.2-23.3l0,0l0.5-0.4l0.1-0.1l0.4-0.3l0.5-0.4l0.5-0.4l0.4-0.4l0,0l0.5-0.4l0.1-0.1l0.4-0.3l0.9-0.8
				l0.1-0.1l0.1-0.1l0.9-0.8l0.1-0.1l0.1-0.1l0.1-0.1l0.8-0.7l0.2-0.2l0.1-0.1c0.3-0.3,0.7-0.6,1-1l0,0l0,0l1-1l0.1-0.1l1.1-1
				l0.8-0.8l0.1-0.1l0.1-0.1l0.1-0.1l0.1-0.1l0.1-0.1l0.1-0.1l0.1-0.1l0.1-0.1l0.1-0.1l0.1-0.1l0.1-0.1l0.1-0.1l0.1-0.1l0.4-0.5
				l0.1-0.1l0.1-0.1l0.1-0.1l0.1-0.1c3.2-3.4,6.1-7,8.9-10.7l10.9-17.8c6.3-12.7,10.2-26.4,11.6-40.5l1.4-12.2l-0.8,1l0-0.8
				c0-25.8-8.4-51.6-25.1-73l0,0l-0.2-0.3c-0.6-0.8-1.3-1.6-1.9-2.4l-4.8-6l-0.1,0.4c-0.4-0.4-0.7-0.8-1.1-1.2l0,0l0,0l0,0l-0.1-0.1
				l-0.3-0.3l0,0l0,0l0,0l-0.1-0.1l-0.6-0.6l-0.1-0.1l-0.9-0.9l-0.1-0.1l-0.2-0.2l-0.8-0.7l-0.3-0.3l-0.7-0.6l-0.5-0.5l-0.5-0.5
				l-0.5-0.5l-0.8-0.7l-0.2-0.2l-1-0.9l-0.1,0l-1.1-0.9l0,0l0,0l-0.4-0.3l-0.7-0.6l-0.3-0.3l-0.8-0.6l-0.5-0.4l-0.7-0.5l-0.4-0.3
				l-0.8-0.6l-0.4-0.3l-0.6-0.5l-0.6-0.4l-0.2-0.2l-0.8-0.6l-1.1-0.7l-0.8-0.5l-0.3-0.2l-0.7-0.4l-0.5-0.3l-0.7-0.5l-0.4-0.3
				l-0.7-0.4l-0.6-0.4l-0.6-0.4l-0.6-0.4l-0.4-0.3l-0.2-0.1l-1.1-0.6l0,0l-1.1-0.6l-1.1-0.6l0,0l-0.8-0.5l-0.5-0.3l-0.7-0.4
				l-0.5-0.3l-0.7-0.4l-0.5-0.3l-0.8-0.4l-0.1,0l-1.1-0.5l-1.1-0.6l-1.1-0.5l-0.1,0l-0.8-0.4l-0.5-0.2l-0.8-0.3l-0.4-0.2l-0.9-0.4
				l-0.3-0.1l-0.9-0.4l-0.2-0.1l-1-0.4l-0.1,0l-1.1-0.4L387.3,217.8z M363.8,242.6c14.5,6.8,26,15,35.1,23.6l0.4,0.4l0,0l0.4,0.3
				l0.1,0.1l0.3,0.3l0.1,0.1l0.3,0.3l0.1,0.1l0.3,0.2l0.2,0.2l0.2,0.2l0.6,0.6l0.2,0.2l0.2,0.3l0.1,0.1l0.3,0.3l0.1,0.1l0.3,0.3
				l0.1,0.1l0.3,0.3l0,0l0.7,0.8l0,0l0.3,0.3l0.1,0.1l0.3,0.3l0.1,0.1l0.3,0.3l0.3,0.4l0.1,0.2l0.2,0.2l0.2,0.2l0.2,0.2l0.2,0.2
				l0.1,0.2l0.2,0.3l0.1,0.1l0.2,0.3l0.1,0.1l0.3,0.3l0.1,0.1l0.3,0.3l0,0l0.3,0.4l0.3,0.4l0,0l0.3,0.3l0,0.1l0.3,0.3l0.1,0.1
				l0.2,0.3l0.1,0.1l0.2,0.3l0.1,0.2l0.2,0.2l0.2,0.2l0.2,0.2l0.2,0.2l0.1,0.2l0.2,0.3l0.1,0.1l0.2,0.3l0.1,0.1l0.2,0.3l0,0.1
				l0.3,0.3l0,0l0.3,0.4l0,0l0.3,0.4l0,0l0.3,0.3l0,0.1l0.2,0.3l0.1,0.1l0.2,0.3l0.1,0.1l0.2,0.3l0.1,0.2l0.2,0.2l0.1,0.2l0.1,0.2
				l0.2,0.2l0.1,0.2l0.2,0.2l0.1,0.1l0.2,0.3l0.1,0.1l0.2,0.3l0,0.1l0.2,0.3l0,0l0.3,0.4l0,0l0.3,0.4l0,0l0.2,0.3l0,0.1l0.2,0.3
				l0.1,0.1l0.2,0.3l0.1,0.1l0.2,0.3l0.1,0.2l0.1,0.2l0.1,0.2l0.1,0.2l0.1,0.2l0.1,0.2l0.2,0.2l0.1,0.1l0.2,0.3l0.1,0.1l0.2,0.3
				l0,0.1l0.2,0.3l0,0l-0.1,0.3l-0.1,0.3l-0.1,0.1l-0.1,0.1l-0.1,0.3l-0.1,0.2l0,0l-0.1,0.3l-0.1,0.3l-0.1,0.1l-0.1,0.2l-0.1,0.3
				l-0.1,0.2l0,0l-0.2,0.3l-0.2,0.3l0,0.1l-0.1,0.2l-0.2,0.3l-0.1,0.2l0,0l-0.2,0.3l-0.2,0.3l0,0.1l-0.3,0.4l-0.1,0.2l0,0.1
				l-0.2,0.3l-0.1,0.2l0,0.1c-5.4,8.4-12.5,16.7-21.7,24.5c-4.7-9-11.1-18.7-20-28.2c-10.4-11-24.3-21.7-42.5-30.3
				c-13.3-6.3-26-9.6-37.8-11c-8.7-1-17.5-1-26.2,0.1l0.4-0.4l1-1l0,0l0.1-0.1c4.7-4.6,9.9-8.8,15.3-12.5l0.5-0.2v0l0.5-0.2l0.5-0.2
				l0,0l0.5-0.2l0,0l0.5-0.2l0,0l0.5-0.2l0,0l0.5-0.1l0.1,0l0.5-0.1l0.1,0l0.5-0.1l0.1,0l0.5-0.1l0.1,0l0.5-0.1l0.1,0l0.5-0.1
				l0.6-0.1l0.1,0l0.5-0.1l0.1,0l0.5-0.1l0.6-0.1l0.1,0l0.4-0.1l0.2,0l0.4-0.1l0.6-0.1l0.2,0l0.4-0.1l0.2,0l0.4-0.1l0.2,0l0.4-0.1
				l0.6-0.1l0,0l0.2,0l0.4-0.1l0.2,0l0.4-0.1l0.2,0l0.4-0.1l0.2,0l0.4-0.1l0.3,0l0.4-0.1l0.3,0l0.3-0.1l0.3,0l0.3-0.1l0.3,0l0.3-0.1
				l0.3,0l0.3,0l0.3,0l0.3,0l0.3,0l0.3,0l0.6-0.1l0.1,0l0.3,0l0.3,0l0.4,0l0.3,0l0.4,0l0.3,0l0.4,0l0.3,0l0.4,0l0.3,0l0.4,0l0.2,0
				l0.4,0l0.2,0l0.4,0l0.2,0l0.4,0l0.2,0l0.5,0l0.2,0l0.5,0l0.2,0l0.5,0l0.2,0l0.7,0l0.5,0l0.2,0l0.1,0l0.6,0l0.5,0l0.1,0l0.5,0
				l0.1,0l0.7,0l0.6,0h0.1l0.6,0l0.1,0l0.6,0h0.1l0.6,0h0.1l0.6,0l0.1,0l0.6,0l0.1,0l0.6,0l0,0l0.7,0h0l0.7,0l0,0l0.7,0l0,0l0.7,0v0
				l0.6,0h0l0.6,0h0l0.6,0h0l0.6,0h0l0.6,0.1l0.6,0.1v0l0.6,0.1v0l0.6,0.1v0l0.6,0.1l0,0l0.6,0.1l0,0l0.6,0.1v0l0.6,0.1h0l0.6,0.1h0
				l0.6,0.1l0,0l0.6,0.1v0l0.6,0.1l0.6,0.1l0.6,0.1h0l0.6,0.1v0l0.6,0.1l0.6,0.1l0,0l0.6,0.1l0,0l0.6,0.1h0l0.6,0.1l0.6,0.1h0
				l0.6,0.1l0.6,0.1l0,0l0.6,0.1l0,0l0.6,0.1l0.6,0.2h0l0.6,0.2l0.6,0.2l0.6,0.2v0l0.6,0.2l0,0l0.6,0.2l0.6,0.2l0.6,0.2l0.6,0.2h0
				l0.6,0.2l0,0l0.6,0.2l0.6,0.2l0.6,0.2l0,0l0.6,0.2v0l0.6,0.2l0.6,0.2l0.6,0.2l0.6,0.2l0.7,0.2l0.7,0.2l0.7,0.2l0.7,0.2l0.7,0.2
				l0.7,0.3l0.7,0.3l0.7,0.3l0.7,0.3l0.7,0.3l0.7,0.3l0.7,0.3l0.7,0.3l0.7,0.3l0.7,0.3l0.7,0.3L363.8,242.6"/>
		</g>
		<g>
			<g>
				<path class="st0" d="M111.3,154.7h2.4c0.7,0,1.3,0.1,1.7,0.2c0.4,0.1,0.7,0.4,1,0.9c0.3,0.5,0.4,1,0.4,1.7
					c0,0.7-0.1,1.2-0.3,1.6c-0.2,0.4-0.5,0.7-0.9,0.9c-0.4,0.2-1,0.3-1.8,0.3h-0.6v3.3h-1.8L111.3,154.7z M113.2,156.2v2.7h0.6
					c0.5,0,0.8-0.1,1-0.4c0.1-0.3,0.2-0.6,0.2-1c0-0.3-0.1-0.6-0.2-0.8c-0.1-0.2-0.2-0.3-0.4-0.4c-0.1-0.1-0.4-0.1-0.6-0.1H113.2z
					 M117.7,154.7h2.6c0.5,0,0.9,0,1.2,0.1c0.3,0,0.5,0.2,0.8,0.4c0.3,0.2,0.5,0.5,0.7,0.9c0.2,0.4,0.2,0.8,0.2,1.3
					c0,1.1-0.4,1.9-1.2,2.4l1.5,4h-2l-1.1-3.6h-0.9v3.6h-1.8L117.7,154.7z M119.6,156.2v2.5h0.8c0.7,0,1.1-0.4,1.1-1.3
					c0-0.3-0.1-0.5-0.2-0.7c-0.1-0.2-0.2-0.3-0.4-0.4c-0.1-0.1-0.3-0.1-0.6-0.1H119.6z M130.3,159.3c0,3.1-1,4.7-3,4.7
					c-1,0-1.8-0.4-2.3-1.2c-0.5-0.8-0.8-2-0.8-3.5c0-3.1,1-4.7,3-4.7c1,0,1.7,0.4,2.3,1.2C130,156.6,130.3,157.7,130.3,159.3
					L130.3,159.3z M128.4,159.3c0-1.2-0.1-2-0.3-2.4c-0.2-0.4-0.5-0.6-0.8-0.6c-0.4,0-0.7,0.2-0.8,0.6c-0.2,0.4-0.3,1.2-0.3,2.4
					c0,1.2,0.1,2,0.3,2.4c0.2,0.4,0.5,0.6,0.8,0.6c0.4,0,0.7-0.2,0.8-0.6C128.3,161.3,128.4,160.5,128.4,159.3z"/>
			</g>
			<path class="st0" d="M89.4,167.7h2l1.3,6.1l1.4-6.1h1.6l-2.1,8l-2.1,0L89.4,167.7z M102.2,171.7c0,2.7-1,4.1-3.1,4.1
				c-1,0-1.8-0.3-2.3-1c-0.5-0.7-0.8-1.7-0.8-3.1c0-2.7,1-4.1,3.1-4.1c1,0,1.8,0.3,2.3,1C102,169.3,102.2,170.4,102.2,171.7
				L102.2,171.7z M100.2,171.7c0-1.1-0.1-1.8-0.3-2.1c-0.2-0.4-0.5-0.5-0.9-0.5c-0.4,0-0.7,0.2-0.9,0.5c-0.2,0.4-0.3,1.1-0.3,2.1
				c0,1.1,0.1,1.8,0.3,2.1c0.2,0.4,0.5,0.6,0.9,0.6c0.4,0,0.7-0.2,0.9-0.5C100.1,173.5,100.2,172.8,100.2,171.7L100.2,171.7z
				 M103,167.7h1.9v6.5h2.8v1.5H103V167.7z M108.5,167.7h1.9v6.5h2.8v1.5h-4.7V167.7z M114,167.7h5.2v1.4h-3.3v1.9h2.6v1.4h-2.6v2
				h3.3v1.4H114L114,167.7z M120.1,167.7h2.1l1.2,2.9l1.3-2.9h1.8l-2.4,4.6v3.4h-1.9v-3.4L120.1,167.7z M126.9,167.7h2.9
				c0.7,0,1.2,0.1,1.6,0.2c0.4,0.1,0.6,0.3,0.9,0.7c0.2,0.3,0.4,0.8,0.4,1.3c0,0.9-0.4,1.5-1.2,1.7c1,0.3,1.5,1,1.5,2
				c0,0.5-0.1,1-0.4,1.3c-0.3,0.4-0.6,0.6-1,0.7c-0.4,0.1-0.9,0.2-1.7,0.2h-2.9L126.9,167.7z M128.8,171h0.6c0.6,0,1-0.1,1.1-0.3
				c0.2-0.2,0.2-0.4,0.2-0.7c0-0.2-0.1-0.5-0.2-0.6c-0.2-0.2-0.5-0.3-1-0.3h-0.7L128.8,171z M128.8,174.3h0.9c0.9,0,1.3-0.3,1.3-1
				c0-0.4-0.1-0.7-0.3-0.8c-0.2-0.2-0.5-0.2-1-0.2h-0.9L128.8,174.3z M135.7,167.7h1.9l2.5,8h-1.9l-0.4-1.6h-2.4l-0.4,1.6h-1.7
				L135.7,167.7z M137.4,172.7l-0.9-3.3l-0.8,3.3H137.4z M140.8,167.7h1.9v6.5h2.8v1.5h-4.7L140.8,167.7z M146.3,167.7h1.9v6.5h2.8
				v1.5h-4.7V167.7z"/>
			<g>
				<path class="st0" d="M112.1,185.1l1.6,0.1c-0.1,0.9-0.3,1.6-0.8,2.2c-0.5,0.6-1.1,0.8-1.9,0.8c-1,0-1.7-0.4-2.2-1.1
					c-0.5-0.8-0.8-1.8-0.8-3.1c0-1.3,0.2-2.4,0.7-3.2c0.5-0.8,1.2-1.1,2.2-1.1c1.6,0,2.5,1.1,2.7,3.2l-1.6,0.1
					c0-1.2-0.4-1.8-1.1-1.8c-0.4,0-0.6,0.2-0.9,0.6c-0.2,0.4-0.3,1.2-0.3,2.3c0,1,0.1,1.7,0.3,2.1c0.2,0.4,0.5,0.6,0.9,0.6
					C111.6,186.8,112,186.2,112.1,185.1L112.1,185.1z M114.7,179.8h1.7v6.7h2.5v1.6h-4.2L114.7,179.8z M119.6,179.8h1.7v4.7
					c0,0.7,0,1.1,0.1,1.4s0.2,0.5,0.4,0.6c0.2,0.1,0.4,0.2,0.7,0.2c0.3,0,0.5-0.1,0.7-0.2c0.2-0.1,0.3-0.3,0.3-0.6
					c0-0.2,0.1-0.7,0.1-1.4v-4.7h1.4v4.7c0,0.9-0.1,1.6-0.2,2.1c-0.1,0.5-0.4,0.9-0.8,1.2c-0.4,0.3-1,0.5-1.7,0.5
					c-0.7,0-1.2-0.1-1.6-0.4c-0.4-0.2-0.7-0.6-0.8-1c-0.2-0.4-0.2-1.2-0.2-2.3V179.8z M126.4,179.8h2.7c0.6,0,1.1,0.1,1.4,0.2
					c0.3,0.1,0.6,0.3,0.8,0.7c0.2,0.4,0.3,0.8,0.3,1.3c0,0.9-0.4,1.5-1.1,1.8c0.9,0.3,1.3,1,1.3,2c0,0.5-0.1,1-0.4,1.4
					c-0.2,0.4-0.5,0.6-0.9,0.7c-0.3,0.1-0.8,0.2-1.5,0.2h-2.7V179.8z M128.1,183.2h0.6c0.6,0,0.9-0.1,1-0.3c0.1-0.2,0.2-0.5,0.2-0.7
					c0-0.3-0.1-0.5-0.2-0.7c-0.1-0.2-0.4-0.3-0.9-0.3h-0.7L128.1,183.2z M128.1,186.7h0.8c0.8,0,1.2-0.4,1.2-1.1
					c0-0.4-0.1-0.7-0.3-0.8c-0.2-0.2-0.5-0.2-0.9-0.2h-0.8V186.7z"/>
			</g>
		</g>
		<path class="st0" d="M189.1,89.7c-0.3,1.6-0.6,3.3-0.9,4.9l14.2-5L189.1,89.7z M198.2,103.5l-11.4,0.1c-0.8,2-0.3,3.6-1.1,5
			L198.2,103.5z M187.4,96.3c-0.5,1.9-0.2,3.6-0.7,5.2l19.4-5.2L187.4,96.3z"/>
	</g>
</g>
<g id="레이어_1">
	<rect x="8" y="8" class="st11" width="234" height="234"/>
</g>
</svg>
