<?xml version="1.0" encoding="utf-8"?>
<!-- Generator: Adobe Illustrator 25.1.0, SVG Export Plug-In . SVG Version: 6.00 Build 0)  -->
<svg version="1.1" xmlns="http://www.w3.org/2000/svg" xmlns:xlink="http://www.w3.org/1999/xlink" x="0px" y="0px"
	 viewBox="0 0 250 250" style="enable-background:new 0 0 250 250;" xml:space="preserve">
<style type="text/css">
	.st0{fill:#00698B;}
	.st1{fill:#BDBCBC;}
	.st2{fill:#FFFFFF;}
	.st3{fill:none;}
</style>
<g id="Layer_1">
	<g>
		<path class="st0" d="M125,192.6c110.9-11,114.6-124.1,114.6-124.1c-54.6,7.8-114.6-11-114.6-11s-60.1,18.8-114.7,11
			C10.3,68.5,14.1,181.5,125,192.6"/>
		<path class="st1" d="M12.8,71.1c0.1,1.8,0.4,4.4,0.9,7.6c0.9,6.4,2.7,15.4,5.9,25.5c6.4,20.2,18.7,44.7,42.1,62.6
			c15.6,11.9,36.1,20.8,63.4,23.6c25.5-2.6,45.2-10.6,60.4-21.4c15.2-10.8,26-24.4,33.7-38.1c14.3-25.6,17.5-51.5,18.2-59.8
			c-8.6,1.1-17.3,1.5-25.8,1.5c-42.3,0-80.9-11.1-86.4-12.8c-5.5,1.7-44.1,12.8-86.4,12.8C30.1,72.6,21.4,72.2,12.8,71.1L12.8,71.1z
			 M124.8,194.8c-28.1-2.8-49.6-12.1-65.9-24.5c-16.3-12.4-27.3-27.9-34.9-42.9c-15-30.1-16-58.6-16-58.8L8,65.9l2.7,0.4
			c9.2,1.3,18.7,1.9,27.9,1.9c39.2,0,75.5-9.8,83.9-12.2c1.2-0.4,1.8-0.5,1.8-0.5l0.7-0.2l0.7,0.2c0,0,0.6,0.2,1.8,0.5
			c1.2,0.3,3,0.8,5.2,1.4c4.5,1.2,11.1,2.8,19,4.4c15.8,3.2,37.3,6.4,59.7,6.4c9.3,0,18.7-0.5,27.9-1.9l2.7-0.4l-0.1,2.7
			c0,0.1-0.5,16.2-7.1,37c-6.6,20.7-19.3,46.2-43.7,64.8c-16.3,12.4-37.7,21.7-65.8,24.5l-0.2,0L124.8,194.8z"/>
		<path class="st2" d="M88.3,147.9l-10.9-18.3l9.3-13.7H71.1l-7.7,14.1V116H47.8v32h15.6v-16.7l7.4,16.7L88.3,147.9z M158.9,147.9
			l-12.2-17.3l11-14.7h-14.5l-4.1,6.8l-3.8-6.8h-16.3l10.7,15.5l-11.9,16.5h15.8l4.1-7.6l3.8,7.6L158.9,147.9z M202.2,147.9
			L190,130.6l11-14.7h-14.5l-4.1,6.8l-3.8-6.8h-16.3l10.7,15.5l-12,16.5H177l4.1-7.6l3.9,7.6H202.2z M111.2,147.9H95.6v-32h15.6
			L111.2,147.9z M111.2,107.1l-15.6,5.6V107l15.6-5.6L111.2,107.1z M95.9,94.8c-4,0-6.7-3.1-6.7-7.6c0-4.5,2.7-7.7,6.8-7.7
			c1.7,0,3,0.5,4.1,1.3l-0.2,1.5c-1.2-0.8-2.4-1.4-3.9-1.4c-3.2,0-5.3,2.6-5.3,6.3c0,3.8,2,6.3,5.2,6.3c1.6,0,3-0.6,4.2-1.5l0.2,1.4
			C99.3,94.2,97.7,94.8,95.9,94.8 M108.9,89c-4.1,0.4-5.3,1.4-5.3,2.8c0,1.1,0.8,1.7,1.9,1.7c1.1,0,2.4-0.6,3.4-1.6V89z M109.2,94.6
			l-0.2-1.4c-1,0.9-2.2,1.6-3.7,1.6c-1.8,0-3.1-1-3.1-2.9c0-2.5,2-3.6,6.7-4.1v-0.7c0-1.4-0.8-2-2.2-2c-1.2,0-2.5,0.4-3.6,0.9
			l-0.2-1.3c1.2-0.5,2.4-0.9,3.9-0.9c2.3,0,3.5,1.1,3.5,3.2v7.5H109.2z M113.3,94.6V79.1l1.4-0.3v15.8H113.3z M121.1,94.8
			c-1.6,0-2.7-0.6-2.7-2.6v-6.8h-1.6v-1.2h1.6v-3.6l1.4-0.2v3.9h2.4l0.2,1.2h-2.6V92c0,1.1,0.4,1.5,1.6,1.5c0.3,0,0.7-0.1,1-0.1
			l0.2,1.2C122.2,94.7,121.7,94.8,121.1,94.8 M128.1,85.1c-1.6,0-2.7,1.2-3,3.2h5.7C130.7,86.4,129.8,85.1,128.1,85.1 M132.3,89.4
			H125c0,2.6,1.2,4.1,3.4,4.1c1.4,0,2.6-0.6,3.7-1.6l0.2,1.3c-1,0.9-2.4,1.5-4,1.5c-2.8,0-4.7-1.9-4.7-5.5c0-3.4,1.9-5.5,4.5-5.5
			c2.9,0,4.2,2.3,4.2,5.3L132.3,89.4z M140.5,94.7l-3-4.5l-2.8,4.3H133l3.7-5.4l-3.4-5l1.4-0.3l2.8,4.2l2.7-4h1.6l-3.5,5.1l3.6,5.3
			L140.5,94.7z M66.3,94.9c-4.9,0-7.5-3.2-7.5-7.9c0-4.8,2.9-8,7.6-8c1.9,0,3.5,0.4,4.7,1.1l-0.5,3.3c-1.1-0.7-2.5-1.3-4.1-1.3
			c-2.6,0-3.9,1.9-3.9,4.8c0,2.9,1.3,4.9,4,4.9c0.8,0,1.4-0.2,2.1-0.5v-2.7h-2.7l-0.4-2.8h6.4v7.5C70.3,94.3,68.4,94.9,66.3,94.9
			 M79.2,94.8c-2.1,0-3.8-0.4-5.4-1.2l0.6-3.2c1.6,0.8,3.3,1.4,4.9,1.4c1.1,0,1.8-0.5,1.8-1.4c0-0.9-0.4-1.3-2.6-2.1
			c-3.1-1.2-4.4-2.2-4.4-4.7c0-3,2.3-4.5,5.2-4.5c2,0,3.3,0.4,4.6,1l-0.6,3.2c-1.4-0.8-2.8-1.2-4-1.2c-1.2,0-1.7,0.5-1.7,1.2
			c0,0.8,0.4,1.2,2.3,1.9c3.3,1.2,4.7,2.4,4.7,4.8C84.6,93.3,82.2,94.8,79.2,94.8 M151.2,94.7c-1.6,0-3-0.4-3.9-0.9l0.2-1.5
			c0.9,0.6,2.3,1.1,3.8,1.1c1.7,0,3-1,3-2.7c0-1.5-0.7-2.2-3-3.2c-2.8-1.2-3.8-2.2-3.8-4.3c0-2.2,1.8-3.7,4.2-3.7
			c1.4,0,2.5,0.3,3.2,0.8l-0.2,1.5c-0.9-0.6-2-0.9-3.1-0.9c-1.7,0-2.7,1-2.7,2.3c0,1.3,0.7,2,3,3c2.7,1.2,3.9,2.3,3.9,4.4
			C155.8,93.2,153.8,94.7,151.2,94.7 M161.9,85.3c-1.6,0-2.6,1.2-2.9,3.1h5.5C164.4,86.6,163.5,85.3,161.9,85.3 M166,89.6h-7
			c0,2.5,1.2,4,3.2,4c1.4,0,2.5-0.6,3.6-1.5l0.2,1.3c-1,0.9-2.3,1.4-3.9,1.4c-2.6,0-4.5-1.8-4.5-5.3c0-3.2,1.9-5.3,4.4-5.3
			c2.8,0,4.1,2.3,4.1,5.1L166,89.6z M172.1,85.4c-2,0-3.1,1.7-3.1,4.1c0,2.3,1.1,4.1,3.1,4.1c2.1,0,3.1-1.7,3.1-4.1
			C175.3,87.1,174.2,85.4,172.1,85.4 M172.1,94.7c-2.6,0-4.5-1.9-4.5-5.3c0-3.3,2-5.3,4.5-5.3c2.6,0,4.6,1.9,4.6,5.3
			C176.7,92.8,174.7,94.7,172.1,94.7 M185.8,94.5l-0.2-1.5c-1.1,1-2.3,1.7-3.6,1.7c-2,0-3-1.2-3-3.1v-7.2h1.4v7
			c0,1.3,0.6,2.1,1.9,2.1c1.1,0,2.2-0.6,3.3-1.7v-7.3h1.4v10.1H185.8z M189.9,94.5V79.4l1.4-0.3v15.4H189.9z M83,170.6h-1l-4.2-10.7
			l1.1-0.2l3.7,9.6l3.6-9.5h1.1L83,170.6z M90.4,163.8c-1.5,0-2.3,1.2-2.3,3c0,1.7,0.8,3,2.3,3c1.5,0,2.3-1.2,2.3-3
			C92.7,165.1,91.9,163.8,90.4,163.8 M90.4,170.7c-1.9,0-3.3-1.4-3.3-3.9c0-2.5,1.5-3.9,3.3-3.9c1.9,0,3.4,1.4,3.4,3.9
			C93.7,169.3,92.3,170.7,90.4,170.7 M95.5,170.5v-11.1l1-0.2v11.3L95.5,170.5z M98.8,170.5v-11.1l1-0.2v11.3L98.8,170.5z
			 M104.8,163.8c-1.2,0-1.9,0.9-2.1,2.3h4C106.6,164.8,106,163.8,104.8,163.8 M107.8,166.9h-5.2c0,1.8,0.9,2.9,2.4,2.9
			c1,0,1.9-0.4,2.6-1.1l0.2,0.9c-0.7,0.6-1.7,1.1-2.8,1.1c-2,0-3.3-1.3-3.3-3.9c0-2.4,1.4-3.9,3.2-3.9c2,0,3,1.7,3,3.7L107.8,166.9z
			 M112,171.4c-0.5,1.5-1.2,1.9-2.3,1.9c-0.2,0-0.3,0-0.4,0l-0.1-0.9c0.2,0,0.4,0.1,0.6,0.1c0.6,0,1-0.3,1.3-1l0.4-0.9l-2.8-7.4
			l1-0.2l2.3,6.3l2.2-6.2h1.1L112,171.4z M119.7,163.9c-0.8,0-1.5,0.5-2.2,1.3v4.3c0.5,0.2,1,0.3,1.7,0.3c1.5,0,2.5-1,2.5-3.1
			C121.8,164.9,120.9,163.9,119.7,163.9 M119.2,170.6c-1,0-1.9-0.2-2.7-0.5v-10.7l1-0.2v4.8c0.5-0.6,1.3-1.1,2.3-1.1
			c1.6,0,3,1.2,3,3.6C122.8,169.3,121.2,170.6,119.2,170.6 M128.7,166.6c-2.9,0.3-3.7,1-3.7,2c0,0.8,0.6,1.2,1.3,1.2
			c0.8,0,1.7-0.4,2.4-1.1V166.6z M129,170.5l-0.2-1c-0.7,0.7-1.5,1.2-2.6,1.2c-1.3,0-2.2-0.7-2.2-2c0-1.7,1.4-2.5,4.8-2.9v-0.5
			c0-1-0.6-1.4-1.5-1.4c-0.9,0-1.7,0.3-2.6,0.7l-0.1-0.9c0.9-0.4,1.7-0.6,2.8-0.6c1.6,0,2.5,0.8,2.5,2.3v5.3H129z M131.9,170.5
			v-11.1l1-0.2v11.3L131.9,170.5z M135.3,170.5v-11.1l1-0.2v11.3L135.3,170.5z M144.1,160.7v9.8H143v-9.8h-3.5v-1h8l0.2,1H144.1z
			 M149.7,163.8c-1.1,0-1.9,0.9-2.1,2.3h4C151.5,164.8,150.9,163.8,149.7,163.8 M152.7,166.9h-5.2c0,1.8,0.9,2.9,2.4,2.9
			c1,0,1.8-0.4,2.6-1.1l0.2,0.9c-0.7,0.6-1.7,1.1-2.8,1.1c-1.9,0-3.3-1.3-3.3-3.9c0-2.4,1.4-3.9,3.2-3.9c2,0,3,1.7,3,3.7V166.9z
			 M158.6,166.6c-2.9,0.3-3.7,1-3.7,2c0,0.8,0.5,1.2,1.3,1.2c0.8,0,1.7-0.4,2.4-1.1V166.6z M158.9,170.5l-0.2-1
			c-0.7,0.7-1.6,1.2-2.6,1.2c-1.3,0-2.2-0.7-2.2-2c0-1.7,1.4-2.5,4.8-2.9v-0.5c0-1-0.6-1.4-1.5-1.4c-0.9,0-1.7,0.3-2.6,0.7l-0.1-0.9
			c0.9-0.4,1.7-0.6,2.7-0.6c1.7,0,2.5,0.8,2.5,2.3v5.3H158.9z M171.1,170.5v-5.1c0-1-0.4-1.5-1.3-1.5c-0.8,0-1.5,0.5-2.4,1.3v5.4h-1
			v-5.1c0-1-0.4-1.5-1.4-1.5c-0.8,0-1.5,0.5-2.3,1.3v5.4h-1v-7.4h0.8l0.2,1.1c0.8-0.7,1.6-1.2,2.6-1.2c1.1,0,1.8,0.5,2,1.3
			c0.8-0.7,1.7-1.3,2.7-1.3c1.5,0,2.2,0.8,2.2,2.3v5.3H171.1z"/>
	</g>
</g>
<g id="레이어_1">
	<rect x="8" y="8" class="st3" width="234" height="234"/>
</g>
</svg>
