<?xml version="1.0" encoding="utf-8"?>
<!-- Generator: Adobe Illustrator 25.1.0, SVG Export Plug-In . SVG Version: 6.00 Build 0)  -->
<svg version="1.1" xmlns="http://www.w3.org/2000/svg" xmlns:xlink="http://www.w3.org/1999/xlink" x="0px" y="0px"
	 viewBox="0 0 250 250" style="enable-background:new 0 0 250 250;" xml:space="preserve">
<style type="text/css">
	.st0{fill:#FFFFFF;}
	.st1{fill:#0091D7;}
	.st2{fill:#004B9C;}
	.st3{fill:#EB6900;}
	.st4{fill:none;}
</style>
<g id="Layer_1">
	<g>
		<path class="st0" d="M70.7,57.8L87.1,54l7.5-0.9l9.1-5.7l6.9-6l6.3-5.3l4.4-6l6.9-6l5.3-6l6.3-4.7L149,10h9.7l11.6,3.5l8.5,5.3
			l6.9,7.9l4.4,10.7l0.6,11.6l-3.1,11.3l9.4,5.7v94l-5.7,20.4l-9.1,13.8l-14.5,11.6L149,220.2l-24,18.2l-17.2-13.5l-20.7-17
			l-19.2-14.8l-13.2-23.3V62.2L70.7,57.8z"/>
		<path class="st1" d="M78.8,192.9v-33.8c-7,0.6-13,1.2-17.4,1.7C63.3,173.9,69.6,185.7,78.8,192.9 M97.2,206.8l18.4,13.9v-63.6
			c-6.1,0.1-12.3,0.3-18.4,0.7V206.8z M134,221l18.4-13.9v-49.3c-6.1-0.3-12.3-0.5-18.4-0.7V221z M170.8,193.2
			c9.4-7.2,15.9-19.1,17.7-32.4c-4.5-0.5-10.5-1.2-17.7-1.8V193.2z M60.9,69.1v11l17.3-15.4C72.3,65.9,66.5,67.3,60.9,69.1
			 M110.3,60.6c-1.1,0.1-2.3,0.2-3.6,0.3L97.2,65l-18.4,8.2l-17.9,8v6.2c0.2,0,0.4,0,0.6,0.1c1.3,0.1,2.6,0.4,3.8,0.8l13.6-8.4
			l18.4-11.3L110.3,60.6L110.3,60.6z M98.5,89.9c0.4,0,0.8,0,1.2,0l15.9-9.4l14.7-8.6l-14.7,6l-18.4,7.5l-9.8,4c0.1,0,0.3,0,0.4,0
			c2.1,0.1,3.9,1,5.2,2.4c1.2-1,2.6-1.6,4.1-1.8C97.7,90,98.1,89.9,98.5,89.9 M130.4,72L130.4,72L130.4,72
			C130.4,72,130.4,72,130.4,72 M185.2,67.9c-1.2,1.6-2.6,3.1-4.1,4.5c-3.1,2.9-6.6,5.1-10.3,6.7c-3.3,1.5-6.9,2.4-10.5,2.8l0.1,0
			l-8,1.3l-18.4,3l-17.4,2.9l17.4-8.7l4.9-2.4c-0.1-0.1-0.2-0.1-0.3-0.2l-4.5,1.6l-18.4,6.6l-11.4,4.1c3.8,0.1,7.6,0.2,11.4,0.3
			c6.2,0.1,12.3,0.1,18.4,0c0.1,0,0.2,0,0.4,0c1.7,0,3.3,0.5,4.6,1.4c2-1,4.2-1.6,6.6-1.7c2.3-0.1,4.5-0.2,6.8-0.3
			c5.8-0.2,11.6-0.5,17.4-0.9c0.3,0,0.7,0,1,0c3.2,0,6.2,0.9,8.6,2.8c2.5-2.4,5.6-3.9,9.2-4.2c0.2,0,0.3,0,0.5,0V69.1
			C187.8,68.7,186.5,68.3,185.2,67.9"/>
		<path class="st2" d="M234.3,144.5c-1.7-0.9-5.7-3.6-5.7-8.3c0-0.3,0-0.5,0-0.8l0-8.8c0-4.5-1-8.3-3.3-11.3c2-1.5,3.3-3.9,3.3-6.5
			l0-3.3c0.2-4.5,4.1-7,5.7-7.9c2.8-1.5,4.5-4.5,4.3-7.7c-0.1-2.2-1.2-4.3-3-5.7c-1.8-1.4-4-2-6.2-1.7c-5.5,0.9-11.1,1.6-16.6,2.4
			c-1.1,0.1-2.2,0.3-3.3,0.4c-1.6,0.2-3.1,0.4-4.7,0.5c-1.5,0.2-2.9,0.3-4.4,0.5V61.1l-2.3-0.8c-2.4-0.9-4.9-1.7-7.3-2.5
			c0.5-1.4,0.9-2.8,1.3-4.2c2.7-11.6-0.2-24.3-8.8-33.7c-13.9-15.1-37.4-16-52.5-2.1L99.5,45.7l-5.6,5c-13.1,1.6-28.4,4.5-42,9.5
			l-2.3,0.8v25.2c-1.5-0.2-2.9-0.3-4.4-0.5c-1.6-0.2-3.1-0.4-4.7-0.5l-3.2-0.4c-5.6-0.7-11.2-1.5-16.7-2.4c-2.2-0.3-4.5,0.3-6.3,1.7
			c-1.8,1.4-2.8,3.5-3,5.8c-0.2,3.1,1.6,6.1,4.4,7.6c1.7,0.9,5.7,3.6,5.7,8.3l-0.1,31.3c-0.5,4.3-4.4,6.8-5.7,7.4
			c-2.8,1.5-4.6,4.6-4.3,7.8c0.2,2.2,1.3,4.3,3,5.7c0.4,0.3,0.9,0.6,1.4,0.9l0,0l0.2,0.1l1.4,0.5l29.7,10.5l4.9,1.7
			c1.8,6.5,4.6,12.6,8.3,17.9c1.1,1.5,2.2,3,3.4,4.5c2.6,3.1,5.5,5.9,8.6,8.3l6.4,4.8l2.6,2L97.2,221l2.6,1.9l25.2,19l25.2-19
			l2.2-1.7l13.9-10.5l4.5-3.4l6.7-5.1c2.9-2.2,5.5-4.6,7.9-7.4c1.4-1.5,2.6-3.2,3.8-4.9c3.8-5.5,6.7-11.7,8.6-18.5l4.9-1.7
			l29.7-10.5l1.4-0.5l0.3-0.1l0,0c0.5-0.3,1-0.6,1.5-0.9c1.8-1.4,2.8-3.5,3-5.8C238.8,149,237,146,234.3,144.5 M186.7,33.1
			c2.4,6.2,2.9,13,1.4,19.4c-0.3,1.4-0.7,2.8-1.2,4.2c-0.6,1.6-1.3,3.1-2.1,4.6c-0.2,0.4-0.5,0.9-0.8,1.3c-0.1,0.2-0.2,0.3-0.3,0.5
			c-0.6,0.9-1.2,1.8-1.9,2.7c-0.1,0-0.3,0-0.6,0.1c-0.9,0.1-2.4,0.2-4.4,0c-1.5-0.2-3-0.5-4.5-1c-0.3-0.1-0.6-0.2-0.8-0.3
			c0,0-0.1,0-0.1,0l0.1-0.1c0.7-0.6,1.3-1.2,1.9-1.9c0.9-1,1.8-1.9,2.6-3c1.2-1.5,2.4-3,3.4-4.6c0,0,0.1-0.1,0.1-0.2
			c0.8-1.3,1.6-2.6,2.3-3.9c2.1-4.1,4-9.1,4.6-14.8C186.6,35.1,186.7,34.1,186.7,33.1 M126.4,59.9c-0.5-1.1-1-2.1-1.4-3.2
			c0,0,0,0,0,0c-0.1-0.1-0.1-0.3-0.2-0.4c0-0.1,0.1-0.2,0.2-0.2l0,0c0.1-0.1,0.2-0.3,0.4-0.5c0.2-0.3,0.4-0.5,0.6-0.8
			c0.5-0.6,1-1.1,1.5-1.7c0.7-0.8,1.5-1.5,2.2-2.2c0.3-0.3,0.6-0.6,1-0.9c0.1,1,0.2,2,0.3,2.9c0.1,0.6,0.3,1.2,0.4,1.8
			c0.1,0.3,0.1,0.7,0.2,1c0.4,1.5,1,3,1.7,4.4c0.2,0.5,0.4,1,0.7,1.4c1.8,3.5,4.4,6.9,7.6,10.1c2.3,2.3,4.7,4.2,6.6,5.6
			c-1.1-0.3-2.1-0.6-3.1-0.9c-4.1-1.4-7.8-3.6-11.1-6.5c-0.8-0.7-1.6-1.5-2.4-2.3C129.5,65.2,127.8,62.6,126.4,59.9 M130.4,72
			l-0.1,0l-14.7,8.6L99.7,90c-0.4,0-0.8,0-1.2,0c-0.4,0-0.9,0-1.3,0.1c-1.5,0.2-2.9,0.8-4.1,1.8c-1.4-1.4-3.2-2.3-5.2-2.4
			c-0.1,0-0.3,0-0.4,0l9.8-4l18.4-7.5l14.7-6L130.4,72C130.4,72,130.4,72,130.4,72 M143.1,70.1c-2.5-2.5-5.3-5.8-7.3-9.8
			c-0.7-1.4-1.3-2.8-1.8-4.3l-0.1-0.2c-0.1-0.4-0.2-0.7-0.3-1.1c-0.2-0.6-0.3-1.3-0.4-1.9c-0.2-1.2-0.3-2.3-0.4-3.5
			c0-0.2,0-0.3,0-0.5c0,0,0-0.1,0-0.1c0-0.1,0-0.2,0-0.3c0,0,0,0,0-0.1c0,0,0,0,0,0l0,0c2.2-1.6,4.5-2.8,6.8-3.6
			c0.7-0.3,1.5-0.5,2.2-0.6c0,0.2,0.1,0.5,0.1,0.8c0.2,1.1,0.5,2.6,1.1,4.4c0.4,1.3,0.9,2.7,1.5,4.3c0.1,0.3,0.2,0.6,0.3,0.8
			c0.3,0.7,0.6,1.4,1,2.2c0.1,0.1,0.1,0.3,0.2,0.4c0.7,1.5,1.6,2.9,2.5,4.2c1.2,1.8,2.5,3.5,3.9,5c0.6,0.7,1.3,1.4,2,2
			c3.6,3.4,7.8,6,12.6,7.9c-0.5,0.2-1,0.3-1.5,0.4c-0.3,0.1-0.6,0.1-0.9,0.2c-3.6,1-7.4,1.4-11.2,1.1c-0.2-0.1-0.5-0.3-1-0.6
			C150.6,76.4,146.9,73.9,143.1,70.1 M155.9,66.8c-1.3-1.2-2.4-2.5-3.5-3.8c-0.4-0.5-0.7-0.9-1.1-1.4c-1.1-1.5-2-3-2.9-4.7
			c-0.1-0.3-0.3-0.5-0.4-0.7c-0.3-0.5-0.5-1.1-0.8-1.6c-0.1-0.1-0.1-0.2-0.2-0.4c-0.7-1.5-1.2-3-1.7-4.6c-0.6-1.8-0.9-3.3-1.1-4.5
			c-0.1-0.5-0.2-0.9-0.2-1.4c3.3-0.4,6.6,0,10,1.1c0.1,0.4,0.2,0.8,0.4,1.2c0.5,1.6,1,3.1,1.6,4.6c0.8,2.1,1.8,3.9,2.8,5.6
			c0.4,0.6,0.7,1.1,1.1,1.6c0.1,0.1,0.2,0.2,0.2,0.3c0.4,0.5,0.7,1,1.1,1.4c1.2,1.5,2.6,2.7,4,3.8c1.7,1.3,3.5,2.3,5.5,3
			c0,0,0,0,0.1,0c3.5,1.3,6.7,1.6,8.9,1.5c-0.4,0.5-0.9,0.9-1.4,1.3c-1.4,1.3-3,2.5-4.6,3.5c-1,0.6-1.9,1.2-3,1.7
			c-0.3,0.1-0.6,0.3-0.9,0.5C164.6,73.3,159.8,70.5,155.9,66.8 M180.3,22.7c1.5,1.7,2.9,3.5,4.1,5.4c1.1,8.9-1.5,16.6-4.6,22.2
			c-0.6,1.1-1.3,2.3-2,3.3c-0.1,0.2-0.3,0.4-0.4,0.6c-1.5,2.2-3.1,4.2-4.9,6.1c-0.5,0.6-1.1,1.1-1.6,1.7c-0.7,0.7-1.3,1.2-1.6,1.5
			c-0.1,0-0.1-0.1-0.2-0.1c-2.1-1.2-4.1-2.7-5.8-4.6c-0.1-0.2-0.3-0.3-0.4-0.5c-0.1-0.1-0.2-0.2-0.3-0.3c-0.2-0.3-0.5-0.6-0.7-0.9
			c0,0,0.1-0.1,0.2-0.2c0.8-0.8,2.5-2.4,4.4-4.7c0.9-1.1,1.9-2.5,3-3.9c0.7-1,1.4-2.1,2.1-3.2c2.6-4.4,4.3-8.9,5.1-13.2
			c0.7-3.9,0.5-7.6-0.3-11.3c-0.1-0.6-0.3-1.3-0.4-1.9C177.4,19.9,178.9,21.2,180.3,22.7 M172.8,16.7c0,0.1,0,0.1,0,0.2
			c1.9,4.6,2.4,9.6,1.6,14.6c-0.7,4.1-2.3,8.3-4.8,12.5c-0.8,1.4-1.7,2.7-2.6,4c-1,1.3-2,2.6-3.1,3.9c-1.4,1.6-2.6,2.8-3.3,3.5
			c0-0.1-0.1-0.1-0.1-0.2c-0.8-1.3-1.5-2.6-2.1-4.1c-0.6-1.4-1.2-3-1.7-4.6c-0.2-0.7-0.4-1.3-0.6-2c1.1-1.2,4.1-4.5,6.6-9.3
			c3.5-6.9,4.4-14,2.7-20.7c-0.1-0.4-0.2-0.7-0.3-1.1C167.8,14.1,170.4,15.2,172.8,16.7 M137.5,17.7c4.1-2.8,8.7-4.5,13.3-5.2
			c1-0.2,1.9-0.3,2.9-0.3l0,0c1-0.1,1.9-0.1,2.9-0.1c0.2,0,0.4,0,0.7,0c0.8,0,1.5,0.1,2.3,0.1c1,0.1,2,0.3,3,0.5
			c0.8,2.2,1.3,4.5,1.4,6.7c-0.4-0.1-0.8-0.2-1.2-0.3c-7.6-2.3-14-2.5-19-1.8c0,0,0,0,0,0c-2.1,0.3-3.9,0.6-5.5,1.1
			c-1.1,0.3-2.1,0.7-3.2,1.1C135.9,18.8,136.7,18.2,137.5,17.7 M123.8,37.5c1.1-4.6,3.1-9,6.2-12.8c0,0,0,0,0,0c0,0,0.1-0.1,0.4-0.3
			l0,0c0.9-0.7,3.8-2.6,8.5-3.9c0.7-0.2,1.5-0.4,2.3-0.5l0,0c0.6-0.1,1.3-0.3,2-0.4c0,0,0.1,0,0.1,0c0.7-0.1,1.4-0.2,2.1-0.2
			c0.1,0,0.2,0,0.3,0c0.7-0.1,1.5-0.1,2.3-0.1c0.1,0,0.2,0,0.3,0c0.8,0,1.7,0,2.5,0c0,0,0,0,0.1,0c0.9,0,1.8,0.1,2.7,0.2
			c0.1,0,0.2,0,0.4,0c0.9,0.1,1.8,0.3,2.8,0.4c1.2,0.2,2.3,0.5,3.5,0.8c0.2,0,0.3,0.1,0.5,0.1c1.1,0.3,2.1,0.6,3.3,1
			c-0.1,2.9-0.7,5.9-1.8,8.9c-0.2-0.1-0.5-0.1-0.7-0.2c-5.3-1.8-10.6-2.6-15.8-2.2c-3.9,0.3-7.7,1.3-11.4,2.8l0,0
			c-0.6,0.2-1.1,0.5-1.7,0.7c-1,0.5-1.9,1-2.8,1.5c-0.9,0.5-1.8,1.1-2.6,1.7c-1.2,0.8-2.4,1.7-3.5,2.7
			C123.8,37.6,123.8,37.6,123.8,37.5 M123.1,41.3c0.5-0.5,2.4-2.5,5.6-4.7c0.3-0.2,0.6-0.4,1-0.6c1.1-0.7,2.4-1.5,3.8-2.2
			c0.1,0,0.1-0.1,0.2-0.1c4-1.9,8.1-3,12.4-3.3c5-0.4,10.2,0.4,15.4,2.2c-0.2,0.5-0.4,1-0.7,1.4c-2.3,4.4-5.1,7.6-6.1,8.7
			c-0.1,0-0.2-0.1-0.3-0.1c-6.5-2.1-13.2-1.5-19.3,1.8c-0.9,0.5-1.7,1-2.5,1.5c0,0,0,0-0.1,0c-0.3,0.2-0.5,0.3-0.8,0.5
			c-0.1,0.1-0.2,0.1-0.3,0.2c-0.8,0.6-1.6,1.2-2.3,1.8c0,0,0,0,0,0c-1.4,1.2-2.7,2.5-3.9,3.9c0,0-0.1,0.1-0.1,0.1
			c-0.1,0.2-0.3,0.3-0.4,0.5c-0.1,0.2-0.3,0.4-0.5,0.6c0-0.1-0.1-0.3-0.1-0.4c0,0,0-0.1,0-0.1c0,0,0,0,0-0.1c-0.4-1.5-0.6-3-0.8-4.6
			c-0.2-1.4-0.2-2.9-0.2-4.4C122.9,43.3,123,42.3,123.1,41.3 M56.5,66c1.3-0.4,2.6-0.9,3.9-1.3c2.5-0.8,5.1-1.5,7.6-2.1
			c3.6-0.9,7.2-1.7,10.8-2.4c1.8-0.4,3.7-0.7,5.6-1l-5.6,5l-0.7,0.6L60.9,80.1l-0.5,0.4l-1.9,1.7l1.9-0.9l0.5-0.2l17.9-8L97.2,65
			l9.5-4.2l8.9-4l2.2-1l-2.2,1.4l-5.4,3.3l-13,8L78.8,79.9l-13.6,8.4c-1.2-0.4-2.4-0.7-3.8-0.8c-0.2,0-0.4,0-0.6-0.1
			c-0.2,0-0.3,0-0.5,0c-1.3-0.1-2.6-0.3-3.9-0.4V66L56.5,66z M189.2,175.4c-3.1,7.7-7.7,14.4-13.6,19.5c-0.7,0.6-1.5,1.2-2.2,1.8
			l-2.5,1.9l-16.1,12.1l-2.3,1.7L138.7,223l-4.6,3.5l-5.4,4.1l-3.6,2.7l-3.6-2.7l-5.8-4.4l-4.3-3.2l-14.1-10.7l-4.2-3.2l-14.2-10.7
			l-2.2-1.6c-1.1-0.8-2.2-1.8-3.2-2.7c-5.7-5.2-10.1-11.9-13-19.5c-1.6-4.1-2.7-8.6-3.3-13.1c1-0.1,2-0.3,3.3-0.4
			c0.3,0,0.7-0.1,1-0.1c4.4-0.5,10.3-1.1,17.4-1.7v33.8c0.1,0.1,0.3,0.2,0.4,0.4l18,13.6v-49c6.1-0.3,12.3-0.6,18.4-0.7v63.6
			l9.4,7.1l9-6.8v-63.9c6.1,0.1,12.3,0.3,18.4,0.7v49.3l18.3-13.8c0,0,0.1-0.1,0.1-0.1v-34.1c7.2,0.6,13.3,1.3,17.7,1.8
			c0.2,0,0.5,0.1,0.7,0.1c1.4,0.2,2.6,0.3,3.7,0.4C192.2,166.3,191,171,189.2,175.4 M193.5,87c-1.4,0.1-2.8,0.3-4.2,0.4l-0.1,0
			c-0.2,0-0.3,0-0.5,0c-3.6,0.3-6.7,1.8-9.2,4.2c-2.4-1.8-5.4-2.8-8.6-2.8c-0.3,0-0.7,0-1,0c-5.8,0.4-11.6,0.7-17.4,0.9
			c-2.3,0.1-4.6,0.2-6.8,0.3c-2.4,0.1-4.6,0.6-6.6,1.7c-1.3-0.9-2.9-1.4-4.6-1.4c-0.1,0-0.2,0-0.4,0c-6.1,0.1-12.3,0.1-18.4,0
			c-3.8-0.1-7.6-0.1-11.4-0.3l11.4-4.1l18.4-6.6l4.5-1.6c0.1,0.1,0.2,0.1,0.3,0.2l-4.9,2.4l-17.4,8.7l17.4-2.9l18.4-3l8-1.3l-0.1,0
			c3.6-0.4,7.1-1.4,10.5-2.8c3.7-1.6,7.2-3.8,10.3-6.7c1.5-1.4,2.9-2.9,4.1-4.5c1-1.2,1.8-2.5,2.6-3.8c0.5,0.1,0.9,0.3,1.4,0.4
			c1.4,0.4,2.8,0.9,4.2,1.4L193.5,87L193.5,87z M140.7,20.5L140.7,20.5L140.7,20.5 M133.4,34.1L133.4,34.1L133.4,34.1"/>
		<path class="st0" d="M106.5,167.6h3.3v18.5h-3.3V167.6z M120.4,186.5c-2.4,0-4.9-0.2-6.7-0.5v-18.3h7.7c3.9,0,5.2,2.7,5.2,5.1
			c0,1.5-0.6,3-2.2,3.9c1.7,0.6,2.8,2.6,2.8,4.3C127.1,184.6,124.4,186.5,120.4,186.5 M116.9,175.6h4c1.7,0,2.4-1.3,2.4-2.9
			c0-1.8-0.9-3-2.5-3h-3.9L116.9,175.6L116.9,175.6z M116.9,184.2c1,0.2,2.3,0.3,3.5,0.3c2.3,0,3.5-1.5,3.5-3.6c0-2-1.4-3.2-3-3.2
			h-3.9L116.9,184.2L116.9,184.2z M133.1,186.1h-3.3v-18.5h3.3v8l5.9-8h3.8l-6.5,8.7c1.2,0.5,2.1,1.4,2.9,2.6l4.4,7.2h-3.6l-3.8-6.2
			c-0.8-1.3-1.7-2.1-3-2.1h-0.1V186.1L133.1,186.1z"/>
		<path class="st3" d="M67.8,95c-0.2-0.3-0.5-0.5-0.8-0.8c-1.1-1-2.4-1.6-4-1.8c-0.1,0-0.1,0-0.2,0c-0.1,0-0.2,0-0.3,0
			c-0.5,0-1-0.1-1.5-0.2c-0.8-0.1-1.6-0.2-2.3-0.2c-2.3-0.2-4.6-0.5-7-0.7c-1.5-0.2-2.9-0.3-4.4-0.5c-1.9-0.2-3.8-0.4-5.7-0.7
			c-1.1-0.1-2.1-0.3-3.2-0.4c-5.6-0.7-11.3-1.5-16.9-2.4c0,0.1,10.1,4.7,10.1,15.4c0,10.5,0,21.1-0.1,31.6c-0.8,9.8-10,14.1-10,14.2
			l5.4,2.3l9,3.8l12,5l4.7,2l2.5,1l-2.6-1.8l-4.8-3.3l-5.5-3.8l-5.6-3.9l-4.2-2.9c3.1-0.4,6.2-0.8,9.3-1.2c1.4-0.2,2.9-0.4,4.3-0.5
			l0.1-17.1c0.4,0,0.9,0,1.3-0.1c1.5-0.1,2.9-0.1,4.4-0.2c1.1,0,2.3-0.1,3.4-0.1c0,5.5,0,11-0.1,16.5c1.2-0.1,2.4-0.2,3.6-0.3
			c1.3-0.1,2.6-0.2,3.9-0.4c0.2,0,0.3,0,0.5,0c1.3-0.1,2.6-0.3,4-0.4c0.8-0.1,1.7-0.2,2.5-0.2c0-14,0.1-28,0.1-42.1
			C69.6,98.5,69,96.5,67.8,95C67.8,95,67.8,95,67.8,95 M55.1,121.2c-1.1,0-2.3,0-3.4,0c-1.5,0-2.9,0-4.4,0.1c-0.4,0-0.9,0-1.3,0
			l0.1-23.9c0.4,0,0.8,0.1,1.2,0.1c1.5,0.1,2.9,0.2,4.4,0.4c1.2,0.1,2.3,0.2,3.5,0.3C55.1,105.9,55.1,113.6,55.1,121.2 M99.3,135.3
			c-3.3,0.1-6.6,0.2-9.9,0.3c0-10.6,0.1-21.2,0.1-31.8c0-3.2,0-6.3,0-9.5c-2.9-0.2-5.8-0.4-8.6-0.6c-1.6-0.1-3.2-0.2-4.7-0.3
			c-0.4,0-0.8,0-1.1-0.1l0,4.5l-0.1,44.5c0.9-0.1,1.7-0.1,2.6-0.2c1.1-0.1,2.3-0.1,3.4-0.2c6.1-0.4,12.3-0.7,18.4-1
			c1.2,0,2.5-0.1,3.7-0.2c0.9,0,1.8-0.1,2.7-0.1c0-1.9,0-3.8,0-5.7c-0.9,0-1.8,0.1-2.7,0.1C101.8,135.2,100.6,135.3,99.3,135.3
			 M134.7,95.4c-5.6,0.1-11.3,0.1-16.9,0c-5.8-0.1-11.6-0.2-17.4-0.4c0,1.9,0,3.8,0,5.7c3.6,0.1,7.2,0.2,10.9,0.3l0,0.3l0,2l-0.1,26
			l0,5.8l0,5.8c0.9,0,1.8,0,2.7,0c1.3,0,2.6,0,3.9,0c2.6,0,5.2-0.1,7.9-0.1c0-12.6,0.1-25.2,0.1-37.8l0-1.7c2.5,0,5,0,7.4,0
			c1,0,2,0,3,0c0.2,0,0.3,0,0.5,0c0-1.9,0-3.8,0-5.6c-0.2,0-0.3,0-0.5,0C135.7,95.4,135.2,95.4,134.7,95.4 M177.4,95.7
			C177.4,95.7,177.4,95.7,177.4,95.7c-1.2-1.2-2.7-1.7-4.5-1.7c-0.2,0-0.3,0-0.5,0c-6,0.4-11.9,0.7-17.9,0.9
			c-2.2,0.1-4.4,0.2-6.6,0.3c-1.3,0-2.4,0.4-3.3,0.9c-0.6,0.3-1.1,0.7-1.6,1.2c-1.2,1.3-1.8,3-1.9,5c0,0.1,0,0.1,0,0.2l0,5.2
			c0,8.6,0,17.3-0.1,25.9c0,2.1,0.6,3.9,1.8,5.2c1.2,1.3,2.9,2,5,2.1c2.2,0.1,4.5,0.2,6.7,0.3c5.9,0.2,11.9,0.5,17.8,0.9
			c0.2,0,0.4,0,0.6,0c1.7,0,3.2-0.6,4.3-1.7c0,0,0,0,0,0c1.2-1.3,1.9-3.1,1.9-5.4l0.1-33.7c0-0.1,0-0.1,0-0.2
			C179.2,98.7,178.7,96.9,177.4,95.7 M164.6,135.6c-3-0.1-6.1-0.2-9.1-0.3l0.1-33.6l0-1.1c3-0.1,6.1-0.2,9.1-0.3l0,1.1L164.6,135.6
			 M222.6,133.1L222.6,133.1c0-3.2,0-6.5,0-9.7c0-2.8-0.6-5-1.8-6.6c-1.2-1.6-2.9-2.4-4.9-2.4c-3,0-5.9,0.1-8.9,0.1
			c-1.5,0-2.9,0-4.4,0.1c-1.1,0-2.3,0-3.4,0.1c0-5.5,0-11,0.1-16.5c1.1-0.1,2.3-0.2,3.4-0.3c1.5-0.1,2.9-0.2,4.4-0.4
			c0.4,0,0.9-0.1,1.3-0.1l0,9c4.8-0.2,9.6-0.5,14.4-0.8c0-1.2,0-2.4,0-3.5c0.4-10.3,10.1-14.8,10.1-14.8c-5.6,0.9-11.2,1.7-16.8,2.4
			c-1.1,0.1-2.2,0.3-3.3,0.4c-1.9,0.2-3.8,0.4-5.7,0.7c-1.5,0.2-2.9,0.3-4.4,0.5c-1.1,0.1-2.3,0.2-3.4,0.4c-1.2,0.1-2.4,0.2-3.6,0.4
			c-1.4,0.1-2.7,0.3-4.1,0.4c0,0-0.1,0-0.1,0c0,0-0.1,0-0.1,0c-1.9,0.2-3.4,1.1-4.6,2.5c-0.1,0.1-0.2,0.2-0.2,0.3
			c-1.1,1.5-1.6,3.2-1.7,5.4c0,0,0,0.1,0,0.1l0,12.4c0,2.4,0.6,4.2,1.8,5.7c0.2,0.3,0.5,0.5,0.7,0.7c1.1,0.9,2.4,1.4,4,1.5
			c0,0,0.1,0,0.1,0c0,0,0,0,0.1,0c1.4,0,2.8,0,4.2,0.1c2.3,0,4.6,0.1,7,0.1c1.5,0,2.9,0,4.4,0.1c0.4,0,0.8,0,1.2,0l-0.1,17.1
			c-0.4,0-0.8-0.1-1.2-0.1c-1.5-0.1-2.9-0.2-4.4-0.4c-1.2-0.1-2.3-0.2-3.5-0.3c0-2.9,0-5.8,0-8.8c-1.2-0.1-2.3-0.1-3.5-0.1
			c-1.4-0.1-2.8-0.1-4.2-0.2l-0.1,0c-1.3-0.1-2.7-0.1-4-0.2c-0.9,0-1.8-0.1-2.6-0.1c0,2.2,0,4.5,0,6.7c0,2.2,0.6,4,1.6,5.5
			c0.1,0.1,0.1,0.2,0.2,0.4c1.2,1.5,2.8,2.3,4.8,2.6c0,0,0.1,0,0.1,0c1.4,0.1,2.8,0.3,4.2,0.4c2.3,0.2,4.6,0.5,7,0.7
			c1.5,0.2,2.9,0.3,4.4,0.5c1.9,0.2,3.8,0.4,5.7,0.7c1.1,0.1,2.1,0.3,3.2,0.4c2,0.3,4.1,0.5,6.1,0.8l-4.2,2.9l-5.6,3.9l-5.5,3.8
			l-4.8,3.3l-2.6,1.8l2.5-1l4.7-2l12-5l9-3.8l5.4-2.3l0,0h0C232.7,148.5,222.6,143.9,222.6,133.1"/>
	</g>
</g>
<g id="레이어_1">
	<rect x="8" y="8" class="st4" width="234" height="234"/>
</g>
</svg>
