<?xml version="1.0" encoding="utf-8"?>
<!-- Generator: Adobe Illustrator 25.1.0, SVG Export Plug-In . SVG Version: 6.00 Build 0)  -->
<svg version="1.1" id="Layer_1" xmlns="http://www.w3.org/2000/svg" xmlns:xlink="http://www.w3.org/1999/xlink" x="0px" y="0px"
	 viewBox="0 0 250 250" style="enable-background:new 0 0 250 250;" xml:space="preserve">
<style type="text/css">
	.st0{fill:#FED204;}
	.st1{fill:url(#SVGID_1_);}
	.st2{fill:#D6040D;}
	.st3{fill:#E1CC6F;}
	.st4{fill:#FEFEFE;}
	.st5{fill:#FDB73A;}
	.st6{fill:#BEB067;}
	.st7{fill:none;}
</style>
<g>
	<path class="st0" d="M119.8,8.1C184.4,5.2,239.1,55.3,242,119.9c2.8,64.6-47.2,119.3-111.9,122.1C65.5,244.9,10.9,194.8,8,130.2
		S55.2,11,119.8,8.1z"/>
	<path d="M121,12.8c62-2.2,114.1,46.3,116.3,108.3c2.2,62-46.3,114.1-108.3,116.3c-62,2.2-114.1-46.3-116.3-108.3S59,15,121,12.8z"
		/>
	
		<linearGradient id="SVGID_1_" gradientUnits="userSpaceOnUse" x1="21.5806" y1="202.9101" x2="77.9093" y2="191.055" gradientTransform="matrix(2.4148 0 0 -2.4148 4.882810e-04 603.7025)">
		<stop  offset="0" style="stop-color:#FFDB00"/>
		<stop  offset="1" style="stop-color:#FFBB2E"/>
	</linearGradient>
	<path class="st1" d="M124.3,48.6c20.1-0.2,44,4.3,62.6,11.7c0.1,6,0,12.1,0,18.1l0,36.6l0,19.1c0,5.2,0.1,10.4-0.4,15.6
		c-0.5,4.7-1.4,9.4-3.2,13.8c-7,17.5-23.7,32.8-40,41.6c-5.6,3-11.6,5.2-17.5,7.8c-0.3,0.2-0.6,0.3-1,0.3c-2.2-0.8-4.4-1.9-6.6-2.8
		c-3.2-1.3-6.4-2.6-9.5-4.2c-9.2-4.7-17.7-10.8-25.1-18.1c-7.8-7.7-14.8-17.1-18.2-27.7c-3-9.5-2.5-19.7-2.5-29.5l0-21.3l0-49.2
		C82.6,52.8,103.4,48.8,124.3,48.6z"/>
	<path d="M121.9,51.8c21.1-0.2,42.1,3.4,61.9,10.7l0,57l0,16c0,5,0.1,9.9-0.5,14.9c-0.5,4.6-1.6,8.9-3.4,13.2
		c-8.4,19.9-30.9,29.4-49.5,37c-2.5-4.3-3.5-11.2-4.2-16.2l-0.2-1.9c-0.6,0-1.2,0-1.8,0c-0.5,4.4-2,14.6-4.5,18.1
		c-14.1-6-29-12.1-40-23.1c-5.6-5.6-9.7-12.6-11.6-20.3c-1.9-7.5-1.7-15.3-1.7-23l0-16.8l0-54.9c3.4-1.1,6.7-2.3,10.1-3.3
		C91.1,54.7,106.4,52.2,121.9,51.8z"/>
	<path class="st0" d="M156.2,113.7c1.2-0.1,2.2-0.1,3.2,0.7c0.8,0.7,1.2,1.7,1.3,2.7c0.1,1.8-0.5,3.8-0.9,5.5
		c-2.4,9.5-7.2,18.2-13.9,25.3c-1.5,1.7-3.2,3.2-4.9,4.7c-1.2,1-2.6,1.9-3.5,3.1c-0.4,0.5-0.6,1.1-0.5,1.8c0.3,2,2.8,3.4,4.5,4.1
		c0.7,0.3,1.6,0.5,2.2,1c0.3,0.2,0.3,0.3,0.4,0.6c-0.1,0.1-0.1,0.1-0.2,0.3c-1.4,1.5-8.9,1.7-11,1.7c0.6,0.9,1.4,1.7,2.2,2.4
		c0.7,0.6,3.9,2.5,4,3.3c-0.6,1.1-3.9,1.3-5,1.4c-4,0.3-8.1-0.2-12.2,0c-5.5,0.3-10.6,2.8-15.7,4.7c-3.3,1.3-5.9,1.6-9.4,0.5
		c-3-1-6.3-3.1-7.7-6c1-2.7,4-4,5.3-6.6c0.9-1.8,1.2-4,1.6-5.9c0.8-3.5,2.2-6.8,4.1-9.9c3.7-5.8,7.6-7.6,14-9.3
		c1.8-0.5,3.7-0.9,5.2-1.9c2.3-1.5,5.2-4.6,7.5-6.5C134.7,124.7,146,116,156.2,113.7z"/>
	<path d="M156,117.6c0.1,0,0.2,0.1,0.3,0.1c0.4,0.9-0.6,4.5-0.8,5.5c-1.9,7.3-6,14.7-10.9,20.4c-1.3,1.5-2.6,2.9-4.1,4.1
		c-2,1.7-7.2,4.9-7.8,7.4c-0.3,1.1-0.1,2.1,0.4,3c-4.1-1.2-8-0.7-11.8,1.2c3.7,0.6,6.1,2.5,8.4,5.4c-5.7,0.7-10.5,2.9-15.1,6.1
		c0.1-0.1,0.2-0.3,0.3-0.4c2.2-3,6.8-6.3,10.6-6.9c-2.3-1.9-5.4-2.7-8.3-3.2c0.7-0.6,1.3-1.2,2.1-1.7c2.9-1.9,6.3-3.2,9.8-3.5
		c2.1-4.3,4.4-5.5,7.9-8.4c1.3-1.1,2.4-2.3,3.5-3.5c3.3-3.7,5.7-8.2,6.9-13c0.3-1.2,0.6-2.5,0.6-3.7c-0.1-0.1-0.1-0.2-0.3-0.2
		c-0.6-0.1-1.6,0.5-2.1,0.7c-4.7,2-9.4,4.8-13.2,8.2c-1.7,1.5-3,3.5-4.7,5c0,0-0.1,0.1-0.1,0.1c0.1-0.2,0.2-0.4,0.3-0.6
		c4.4-8.5,13.2-14.6,21.4-19C151.3,119.6,153.6,118.4,156,117.6z"/>
	<path d="M111.4,152.7c0.3,0.2,0.2,0.1,0.3,0.3c0.4,1.6-0.4,4-1.2,5.4c-1.4,2.3-3.9,3.7-6.5,4.2c-1,0.2-1.9,0.3-2.9,0.5
		c-1.3,0.3-2.1,0.9-2.8,2.1l-0.2,0c-0.2-0.9,0.8-2.9,1.2-3.7C101.6,156.9,106.6,154.2,111.4,152.7z"/>
	<path class="st0" d="M123,116c0.4-0.1,0.8-0.1,1.1,0.2c0.4,0.2,0.5,0.6,0.6,1c0.5,2.2-0.2,6.9-0.7,9.1c-0.7,2.7-2.2,7.3-4.4,9.1
		c-1.4,1.2-3.6,1.5-5.3,2c-6.3,1.8-11.9,5-15.4,10.6c-0.3,0.5-0.6,0.9-1,1.4c0.4-3.3,1.2-6.6,2.4-9.7
		C104.3,128.9,112.7,120.7,123,116z"/>
	<path class="st2" d="M99,67c2.7-0.1,5.4-0.1,8.1,0c1.7,0.1,3.5,0.6,4.6,1.9c0.8,1,1.1,2.3,1,3.5c-0.2,1.4-1,2.2-2.1,3
		c0.4,0.3,0.9,0.6,1.2,0.9c0.8,0.7,1.1,1.6,1.1,2.6c0,1.3-0.3,2.4-1.2,3.3c-2,2-5.3,1.7-7.9,1.7l-4.7,0l-1.7,0
		c-0.1-4.1,0-8.2-0.1-12.3l3.9-0.1l-0.1,2.2c1.7,0.1,5.7,0.4,7.1-0.7c0.3-0.2,0.5-0.5,0.5-0.9c0-0.6-0.3-1.2-0.7-1.6
		c-0.3-0.2-0.5-0.4-0.9-0.5c-2-0.4-7.5-0.1-9.8-0.1c0-1,0-2,0-3.1L99,67z"/>
	<path d="M101.3,77c1.9,0.1,5.7-0.5,7.1,0.8c0.4,0.4,0.6,0.9,0.6,1.4c0,0.6-0.3,0.8-0.7,1.2c-1.7,1-5.1,0.6-7.1,0.5
		C101.2,79.6,101.2,78.3,101.3,77z"/>
	<path class="st0" d="M133.8,88.2c3.1,0,9.8-0.5,12.3,0.8c1.2,0.6,2.1,1.6,2.4,2.9c0.4,1.4,0.2,3.2-0.6,4.4
		c-0.8,1.3-2.2,1.9-3.6,2.2c2.1,2.1,4.1,4.4,6,6.6l-4.9,0c-1.7-1.8-3.2-3.6-4.8-5.4l-1-1.2c0-1,0-1.9,0-2.9c1.2,0,3.1,0.2,4.1-0.6
		c0.5-0.3,0.7-0.9,0.7-1.4c0-0.6-0.2-1.2-0.6-1.6c-1.1-1.2-4.6-0.7-6.3-0.7c-0.1,4.6,0.1,9.2-0.1,13.7l-3.9,0c-0.1-2.9,0-5.8,0-8.6
		C133.8,93.8,133.7,91,133.8,88.2z"/>
	<path class="st0" d="M153,88.2l4.7,0c1.5,2.1,2.9,4.2,4.4,6.3c1.6-1.9,2.9-4.2,4.3-6.3c1.5,0,3.1,0,4.6,0c-1.9,2.7-3.7,5.4-5.6,8
		c0.9,1.1,5.9,8.1,6.1,8.9c-0.3,0.2-0.6,0.1-0.9,0.1l-3.6,0c-1.8-2.3-3.2-4.8-5-7.2c-1.6,2.4-3.3,4.7-4.8,7.2l-4.6,0
		c1.9-3.1,4-6.2,6.2-9.1C157,94.2,154.2,90.3,153,88.2z"/>
	<path class="st0" d="M118.4,88.1l4.4,0c2.5,5.7,5.5,11.2,7.9,17c-1.3,0-2.7,0-4,0c-0.6-1.1-1.1-2.3-1.5-3.4l-7.4,0
		c0.5-1.1,0.9-2.2,1.4-3.2c1.5,0,3,0,4.5,0l-0.5-1.2c-0.9-1.9-1.7-3.9-2.7-5.8c-0.6,1.7-1.5,3.3-2.2,5l-3.9,8.7l-3.9,0
		C112.9,99.4,115.7,93.8,118.4,88.1z"/>
	<path class="st2" d="M129.6,67l2.7-0.1l0,17c-1.7,0.1-3.6,0.3-5.3-0.1c-0.8-0.2-1.4-0.5-2-1.1c-2-2.2-3.3-9-5.1-11.7
		c-0.4-0.7-0.7-0.8-1.5-1l-2.8,0l-0.1-3c2-0.1,4.4-0.4,6.1,0.6c2.5,1.4,4.8,12.2,6.6,13.2c0.2,0.1,0.1,0.1,0.4,0
		c0.5-1.1,0-11.4,0.2-13.7C128.9,67,129.2,67,129.6,67z"/>
	<path class="st2" d="M149.3,67L151,67l0,3.1c-0.9,0-1.9,0-2.8,0c-1.8,3.1-3.9,10.9-5.9,12.8c-1.6,1.7-4.9,1.1-7.1,1.1
		c-0.1-4,0-8.1,0-12.2l0-4.8l3.6,0l0,9.8c0,1.3-0.2,2.8,0.1,4.1l0.2,0c2-1.1,4.1-10.6,6.2-12.8C146.4,67.1,147.9,67,149.3,67z"/>
	<path class="st0" d="M78.7,88.2c4.3-0.1,8.6-0.2,12.9,0c0,1.1,0,2.2,0,3.2l-9,0c0,1,0,2,0,3.1c2.9,0.1,5.7,0,8.6,0.1l0,1.5l0,1.8
		l-8.6,0c0,2.4,0,4.8-0.1,7.2l-3.8,0C78.6,99.5,78.5,93.8,78.7,88.2z"/>
	<path class="st0" d="M94.9,93.2l3.8,0l0,1.5c2.9,0,5.8,0,8.7,0c0,1.1,0,2.2,0,3.2l-8.7,0l0,4l3.9,0c1.8,0,3.5,0,5.3,0
		c0,1.1,0,2.2,0,3.2l-13,0C94.8,101.2,94.9,97.2,94.9,93.2z"/>
	<path class="st2" d="M115.5,71.8c1.2,0,2.4,0.1,3.6,0c0.1,4.1,0,8.2,0,12.2c-1.1,0.2-2.4,0-3.5,0L115.5,71.8z"/>
	<path class="st0" d="M94.9,88.2c4.3,0,8.6,0,12.9,0c0,1.1,0,2.2,0,3.3l-13,0C94.9,90.4,94.9,89.3,94.9,88.2z"/>
	<path class="st2" d="M147.2,76.8c0.5,0.2,5,6.3,5.7,7.2l-1.7,0l-2.8,0.1c-1.1-1.1-2-2.4-2.8-3.8C146.1,79.1,146.7,77.9,147.2,76.8z
		"/>
	<path class="st0" d="M95.9,204.2c-21.2-8.1-38.5-23.7-47.8-44.6c-9.1-20.4-9.8-43.5-1.9-64.3c3.1-8.3,7.6-16,13.1-22.9
		c0,1.3,0,2.6-0.1,3.9c-3,4.3-5.8,8.7-8.1,13.4c-7.3,15.3-9.7,32.5-6.9,49.2c3.7,21.4,15.7,40.5,33.4,53.1c2.8,2,5.7,3.7,8.6,5.3
		c1.9,1,3.8,1.8,5.7,2.9c2.1,1.3,4.1,2.8,6.2,4.2c0.7,0.3,1.3,0.8,1.9,1.2C98.6,205.2,97.3,204.7,95.9,204.2z"/>
	<path class="st3" d="M95.9,204.2c0.3-0.2,0.4-0.2,0.8-0.1c0.4,0.2,0.8,0.5,1.3,0.5l0.2-0.2c0.7,0.3,1.3,0.8,1.9,1.2
		C98.6,205.2,97.3,204.7,95.9,204.2z"/>
	<path class="st0" d="M190.7,72.2c2.8,4,5.6,7.7,8,12c9.2,16.5,12.5,35.6,9.5,54.3c-3.6,22.2-15.8,42-34.1,55.1
		c-5.8,4.2-13.7,8.6-20.5,10.8c-0.1-0.2-0.1-0.1-0.2-0.3c0,0-0.1-0.1-0.1-0.1l0.1-0.4c1.6-1.1,3.2-2.4,4.9-3.4
		c1.6-0.9,3.4-1.7,5.1-2.6c2.8-1.5,5.4-3.1,8-4.8c18.4-12.6,30.8-32.1,34.5-54c3.6-21.4-1.4-43.3-14-61c-0.3-0.5-0.7-1-1.1-1.5
		C190.8,74.9,190.7,73.5,190.7,72.2z"/>
	<path class="st0" d="M93.9,46.7c2.9-1.4,6.2-2.3,9.3-3.1c16.5-4.4,33.9-3.7,50,2c1.2,0.4,2.4,0.9,3.7,1.4l0.1,0.3
		c-0.1,0.2-0.3,0.3-0.5,0.5c-2.6-0.5-5.2-0.8-7.8-1.3c-2.8-0.6-5.5-1.4-8.3-1.9c-9.1-1.7-18.4-1.9-27.5-0.6
		c-3.7,0.6-7.2,1.5-10.8,2.3c-2.7,0.6-5.6,1-8.3,1.4l0-0.2c-0.2,0-0.3,0-0.5,0c-0.1,0-0.1,0-0.2,0l0-0.1c0,0,0.1,0,0.1-0.1
		C93.4,47.2,93.6,47.1,93.9,46.7L93.9,46.7z"/>
	<path class="st4" d="M73.1,35.4c3.2-0.2,6,2.2,6.2,5.4c0.2,3.2-2.2,6-5.5,6.2c-3.2,0.2-5.9-2.2-6.1-5.4
		C67.5,38.4,69.9,35.6,73.1,35.4z"/>
	<path d="M72.7,38c0.5-0.1,1-0.1,1.5,0.1c0.9,0.3,1.7,1,2.1,1.9c0.4,0.8,0.5,1.8,0.1,2.7c-0.4,1-1.2,1.4-2.1,1.8c-0.5,0-1,0-1.5-0.1
		c-0.9-0.3-1.7-1-2.1-1.8c-0.4-0.8-0.5-1.7-0.2-2.5C70.9,38.9,71.7,38.4,72.7,38z"/>
	<path class="st4" d="M187,43.7c3.2-0.6,6.2,1.5,6.8,4.6c0.6,3.1-1.5,6.2-4.6,6.8c-3.2,0.6-6.2-1.5-6.8-4.6
		C181.7,47.4,183.8,44.3,187,43.7z"/>
	<path d="M187.6,46.2c0.5,0,1,0,1.5,0.2c0.8,0.3,1.5,0.8,1.8,1.6c0.3,0.8,0.3,1.6,0,2.4c-0.5,1.1-1.3,1.8-2.4,2.2
		c-0.6,0.1-1.1,0.1-1.7-0.1c-0.7-0.3-1.3-0.7-1.7-1.5c-0.4-0.8-0.4-1.7-0.1-2.5C185.6,47.3,186.5,46.7,187.6,46.2z"/>
	<path class="st0" d="M51.4,196c1,0.2,1.9,0.1,2.8,0.1c1,0,1.4,0.3,2.1,1c0.8-0.2,1.6-0.4,2.4-0.4c3-0.2,6,1.1,8.1,3.2
		c1,1,1.8,2.1,2.9,3c2,1.8,4.3,2,6.9,1.8c-0.3,0.2-0.7,0.5-1,0.7c-2.5,1.5-5.4,1.1-7.7-0.5c-1.4-0.9-2.5-2.1-3.9-2.9
		c-1.2-0.7-2.6-0.9-3.9-1.3c1.4,0.9,2.5,1.9,3.6,3.2c0.6,0.7,1.2,1.5,1.7,2.3c-0.2,0.1-0.3,0.1-0.5,0.1c-0.6-0.5-1.3-1-1.9-1.5
		c-1.8-1.1-4.5-1.7-6.1-2.9c-1.2-0.9-1.8-2.3-2.6-3.4C53.4,197.6,52.4,196.8,51.4,196z"/>
	<path class="st3" d="M62.8,204.9c0.1,0,0.1,0,0.2,0c0.2,0,0.2,0.1,0.4,0.1c0.2,0,0.1,0,0.3,0l0,0l0.1-0.1c-0.1-0.2-0.3-0.3-0.3-0.5
		c0-0.2,0.1-0.3,0.1-0.4c0.6,0.7,1.2,1.5,1.7,2.3c-0.2,0.1-0.3,0.1-0.5,0.1C64.1,205.8,63.5,205.4,62.8,204.9z"/>
	<path class="st0" d="M173.5,204.8c2.8,0.1,5.1-0.2,7.2-2.2c0.9-0.9,1.7-1.9,2.6-2.8c2.1-2.1,5-3.2,7.9-3.2c0.6,0,2.2,0.4,2.3,0.4
		c0.4,0,1.1-0.8,1.5-1c0.9-0.3,2.3,0.1,3.3-0.1l0.2,0c-0.9,0.8-1.8,1.5-2.6,2.5c-0.9,1.2-1.6,2.6-2.8,3.6c-1.1,0.9-2.7,1.3-4,1.8
		c-0.8,0.3-1.5,0.8-2.2,1.2c-0.3-0.3-0.5-0.5-0.7-0.9c1-1.3,2.2-2.3,3.6-3.3c-1.3,0.3-2.6,0.6-3.8,1.2c-1.4,0.8-2.5,1.9-3.8,2.8
		c-2.3,1.6-5.2,2.2-7.8,0.6C174.2,205.3,173.8,205,173.5,204.8z"/>
	<path class="st4" d="M214.2,152l10.2,3.6c-0.9,2.1-1.3,5.2-3.3,6.5c-0.8,0.2-1.7,0.3-2.4-0.2c-0.8-0.5-1-1.2-1.2-2.1c0,0,0,0,0,0
		c-0.3,0.3-0.6,0.7-1,0.9c-0.6,0.3-1.2,0.4-1.9,0.2c-0.8-0.2-1.5-0.7-1.8-1.5C211.7,157.4,213.5,153.9,214.2,152z"/>
	<path d="M215.3,155c0.8,0.2,1.6,0.5,2.4,0.8c-0.3,0.9-0.6,1.7-1,2.5c-0.2,0.2-0.6,0.4-0.9,0.4c-0.3,0-0.5-0.1-0.7-0.4
		C214.5,157.4,215,155.9,215.3,155z"/>
	<path d="M219.4,156.5c0.7,0.3,1.4,0.5,2.1,0.7c-0.3,0.8-0.6,1.5-1,2.2c-0.1,0.1-0.3,0.2-0.5,0.3c-0.3,0.1-0.5,0.1-0.8-0.1
		c-0.2-0.3-0.3-0.4-0.3-0.8c0-0.1,0-0.1,0-0.2C218.9,157.9,219.2,157.2,219.4,156.5z"/>
	<path class="st4" d="M118.6,217.5c0.8,0,1.6,0,2.3,0.4c1.1,0.6,1.7,1.6,2.1,2.7c0.5,1.9,0.3,4.5-0.7,6.2c-0.6,1.1-1.5,1.7-2.7,2
		c-1,0-1.9,0-2.7-0.5c-1-0.6-1.7-1.7-1.9-2.8c-0.4-1.9-0.2-4.5,0.8-6.2C116.5,218.2,117.3,217.7,118.6,217.5z"/>
	<path d="M118.8,219.6c0.5,0,0.8,0.1,1.1,0.4c0.7,0.7,0.7,2,0.7,2.9c-0.1,1.3-0.4,2.7-1.4,3.6c0,0-0.1,0-0.1,0
		c-0.5,0-0.8-0.1-1.1-0.4c-0.7-0.8-0.7-2.2-0.7-3.2C117.5,221.7,117.8,220.5,118.8,219.6z"/>
	<path class="st4" d="M92.9,26.2c0.5,0.3,3.5,8.8,4,10.1c-1,0.3-1.9,0.6-2.9,1c-2-1.9-4.4-3.4-6.5-5.2c1,2.2,1.7,4.4,2.6,6.7
		c-0.8,0.3-1.6,0.6-2.3,0.9c-0.6-0.7-3.2-8.5-3.9-10.1c1-0.3,1.9-0.7,2.8-1.1c2.2,1.7,4.4,3.4,6.6,5.1c-1-2.1-1.7-4.4-2.6-6.6
		C91.4,26.8,92.2,26.5,92.9,26.2z"/>
	<path class="st4" d="M33,142.4c0.1,0,0.2,0,0.4,0c0.5,0.6,0.6,2,0.8,2.8c-2,1.9-3.9,4-6,5.9c2.3-0.7,4.7-1.2,7-1.7
		c0.2,0.8,0.3,1.7,0.6,2.5c-3.4,0.5-6.8,1.6-10.1,2.4l-0.2,0c-0.5-0.5-0.7-2.1-0.9-2.8c1.9-2,3.9-4,5.9-5.9
		c-2.3,0.7-4.6,1.2-6.9,1.7c-0.2-0.8-0.3-1.7-0.6-2.5C26.3,144,29.7,143.2,33,142.4z"/>
	<path class="st4" d="M31.9,78.9l9.8,4.3c-0.4,0.9-0.8,1.8-1.1,2.7c-2.7,0.5-5.5,0.8-8.3,1.1c2.2,0.9,4.3,1.9,6.5,2.8
		c-0.4,0.8-0.7,1.5-1,2.3c-3.3-1.4-6.6-3-9.9-4.3c0.5-0.9,0.9-1.8,1.3-2.7c2.7-0.4,5.5-0.8,8.3-1.1c-2.2-0.8-4.4-1.9-6.6-2.8
		C31.2,80.5,31.6,79.7,31.9,78.9z"/>
	<path class="st4" d="M143.1,215.9c0.4,0,0.8,0,1.1,0c0.9,0,1.8,0.5,2.4,1.1c0.4,0.5,0.6,1.2,0.5,1.9c0,0.1,0,0.1,0,0.2
		c-0.1,0.7-0.5,1.2-1,1.7c1,0.6,1.9,1,2.2,2.2c0.2,0.7,0,1.5-0.4,2.1c-0.7,1.2-1.9,1.7-3.2,2c-0.2,0-0.3,0-0.5,0c-1.1,0-2.2-0.2-3-1
		c-0.5-0.5-0.9-1.2-0.9-2c0-1.1,0.6-1.8,1.3-2.5c-0.3-0.1-0.5-0.2-0.8-0.3c-0.6-0.3-1.1-0.9-1.2-1.6c-0.2-0.7,0-1.5,0.4-2.1
		C140.9,216.5,141.9,216.1,143.1,215.9z"/>
	<path d="M143.9,222.3c0.8-0.3,1.6,0.2,1.8,0.9c0.2,0.8-0.2,1.6-1,1.8c-0.8,0.2-1.6-0.2-1.8-0.9
		C142.8,223.3,143.2,222.5,143.9,222.3z"/>
	<path d="M143.3,217.9c0.7-0.1,1.3,0.3,1.5,0.9c0.1,0.7-0.3,1.3-0.9,1.5c-0.4,0.1-0.9,0-1.2-0.4c-0.3-0.3-0.4-0.8-0.3-1.2
		C142.5,218.3,142.9,217.9,143.3,217.9z"/>
	<path class="st4" d="M27.1,97c0.8,0,1.5,0.1,2.2,0.5c0.9,0.6,1.1,1.4,1.3,2.4c1.7-0.5,3.4-1,5.1-1.7c-0.2,1.1-0.5,2.1-0.8,3.1
		c-1.3,0.2-3.1,0.5-4.3,1.2c-0.3,0.1-0.4,0.2-0.5,0.5c0.6,0.7,2.6,0.9,3.5,1.1l0.4,0.1c0.3,0.7-0.2,1.8-0.4,2.5
		c-3.4-1-7-1.7-10.4-2.6c0.4-1.7,0.7-3.7,1.4-5.2C25.2,98,25.9,97.4,27.1,97z"/>
	<path d="M27,99.6c0.4,0,0.9,0,1.2,0.3c0.4,0.3,0.5,1,0.4,1.4c0,0.4-0.2,1.3-0.5,1.6l-0.3-0.1c-0.7-0.2-1.3-0.3-2-0.5
		C26.2,101.4,26.3,100.5,27,99.6z"/>
	<path class="st4" d="M202.1,55.5c1.3,1.3,3.2,3.3,3.8,5.1c0.3,0.8,0.3,1.6-0.1,2.4c-0.5,1-1.6,1.5-2.6,1.7
		c-0.7-0.2-1.3-0.4-1.9-0.6c-0.4,1.8-1.2,3.5-1.7,5.2c-0.5-0.8-1.2-1.4-1.7-2.2c-0.2-0.4-0.1-0.6,0-1c0.4-1,1.4-2.9,1.2-4
		c0-0.2,0-0.1-0.3-0.3c-1.1,0.2-2.5,1.8-3.3,2.5l-1.7-2C196.6,60.2,199.5,57.9,202.1,55.5z"/>
	<path d="M202,58.9c0.5,0.2,1.2,1.1,1.4,1.6c0.1,0.4,0.2,0.8,0,1.2c-0.2,0.4-0.6,0.5-1.1,0.6c-0.9-0.5-1.5-1.1-2.1-1.9L202,58.9z"/>
	<path class="st4" d="M39.8,65.9l11.4,2.3c-0.5,0.8-1.1,1.6-1.5,2.4l-2.3-0.4c-0.7,1.1-1.7,2.3-2.3,3.5l1.3,1.7l-1.7,2.4
		c-1.9-3.3-4.2-6.6-6.3-9.8L39.8,65.9z"/>
	<path d="M41.6,68.6c1.2,0.3,2.4,0.6,3.6,0.9l-1,1.5l-0.5,0.7C43.1,70.8,41.8,69.7,41.6,68.6z"/>
	<path class="st4" d="M107.5,22.8l0.3,0c0.7,0.3,5.5,8.4,6.5,9.8c-1,0.1-2,0.3-3,0.4c-0.4-0.6-0.7-1.2-1-1.8
		c-0.6,0.1-1.2,0.2-1.9,0.2c-0.8,0.1-1.6,0.3-2.3,0.4c-0.2,0.8-0.3,1.5-0.4,2.3c-1,0.1-1.9,0.3-2.9,0.5c0.9-3.7,1.8-7.6,2.5-11.4
		L107.5,22.8z"/>
	<path d="M107.1,25.9c0.7,0.7,1.3,2.2,1.8,3.1c-0.2,0.3-0.5,0.2-0.8,0.3l-1.6,0.2C106.6,28.3,106.7,27.1,107.1,25.9z"/>
	<path class="st4" d="M220.2,136.4c2.6-0.1,5.3,0.8,7.9,1.1c-0.1,0.9-0.2,1.8-0.4,2.6c-1.7-0.3-6.7-1.6-8-0.7
		c-0.4,0.3-0.7,0.7-0.8,1.1c-0.1,0.5-0.1,1.1,0.2,1.5c0.8,1.1,3.3,1.2,4.5,1.4l3.5,0.6l-0.5,2.6c-2.4-0.5-6.5-0.6-8.4-1.9
		c-0.9-0.6-1.5-1.5-1.7-2.6c-0.3-1.3,0.1-3,0.8-4.1C218,137.1,219,136.6,220.2,136.4z"/>
	<path class="st4" d="M173,33c1,0.4,2.1,1.1,3.1,1.7c1.5,0.9,2.5,1.8,3,3.6c-0.1,0.5-0.2,1-0.5,1.5c-0.4,0.8-1,1.4-1.9,1.7
		c-1.6,0.5-3.3-0.5-4.7-1.3c-0.7,1.2-1.3,2.3-2,3.5l-2.3-1.3C169.6,39.3,171.3,36.1,173,33z"/>
	<path d="M174.2,36.2c0.6,0.1,1.4,0.6,1.8,1.1c0.2,0.3,0.4,0.6,0.3,1c-0.1,0.5-0.5,0.7-0.9,1c-0.9-0.2-1.6-0.6-2.4-1L174.2,36.2z"/>
	<path class="st4" d="M143.1,22.8c2.4,0.5,4.8,1,7.1,1.5c-0.2,0.7-0.3,1.4-0.4,2.2c-1.5-0.5-3.1-0.7-4.7-1l-0.5,1.9l4.4,0.9
		l-0.4,2.1c-1-0.2-3.4-1-4.3-0.9l-0.5,2.1c1.6,0.2,3.2,0.7,4.8,1c-0.1,0.7-0.2,1.5-0.3,2.2c-2.4-0.6-4.9-1-7.4-1.5
		C141.5,29.8,142.5,26.3,143.1,22.8z"/>
	<path class="st4" d="M21.9,113.1l2.1,0.1c-0.2,1.5-0.2,3.2-0.4,4.7c0.7,0,1.3,0.1,2,0.2c0.1-1.5,0.2-3,0.4-4.5
		c0.7,0,1.4,0.1,2.1,0.1c-0.2,1.5-0.2,3-0.4,4.5l2.2,0.1c0.1-1.5,0.1-3.3,0.4-4.8l0.2-0.1c0.7,0,1.3,0.1,2,0.2
		c-0.2,2.5-0.4,5-0.6,7.4c-3.6-0.3-7.1-0.5-10.7-0.9C21.5,117.9,21.5,115.4,21.9,113.1z"/>
	<path class="st4" d="M221.7,106.5c1.2-0.2,2.4-0.1,3.5,0.5c1.4,0.7,2.4,2,2.8,3.5c0.5,1.9,0.2,3.6-0.7,5.2c-0.7-0.4-1.4-1-2.1-1.5
		c0.1-0.1,0.1-0.1,0.2-0.2c0.5-0.6,0.6-1.5,0.5-2.2c-0.1-0.8-0.6-1.4-1.2-1.8c-0.9-0.6-1.9-0.6-3-0.4c-0.6,0.2-1.2,0.5-1.6,1
		c-0.5,0.6-0.8,1.3-0.7,2.1c0.1,1.1,0.7,1.7,1.4,2.4l-1.5,2.1c-1.1-1-1.9-2-2.2-3.5c-0.3-1.5-0.1-3.1,0.7-4.5
		C218.7,107.5,220.1,106.8,221.7,106.5z"/>
	<path class="st4" d="M105.6,216c0.7-0.1,1.4-0.1,2.1,0c1.1,0.3,2.2,0.9,2.8,1.9c0.4,0.6,0.5,1.4,0.3,2.1c-0.6,2.3-3.5,3.5-5.4,4.6
		c1.5,0.1,2.9,0.5,4.4,0.7c-0.2,0.8-0.3,1.5-0.4,2.3c-1.3-0.4-2.7-0.6-4.1-0.8c-1.2-0.3-2.4-0.5-3.6-0.7c0.2-0.7,0.3-1.4,0.4-2.1
		c1.7-1.1,4.1-2.1,5.6-3.6c0.3-0.3,0.5-0.8,0.5-1.2c0-0.3-0.2-0.6-0.5-0.8c-0.3-0.2-0.8-0.3-1.2-0.2c-0.6,0.1-0.9,0.6-1.2,1.1
		l-0.1,0.2c-0.8-0.3-1.6-0.6-2.4-0.8C103.5,217.3,104.2,216.5,105.6,216z"/>
	<path class="st4" d="M159.2,27.6c0.6-0.1,1.1-0.1,1.7-0.1c1.9,0.2,3.1,1.3,4.2,2.8c-0.7,0.4-1.4,0.7-2.1,1.1
		c-0.3-0.5-0.6-1-1.1-1.3c-0.5-0.3-1.1-0.4-1.7-0.3c-0.3,0.1-0.5,0.1-0.7,0.4c0,1.5,2.9,2.8,3.3,4.7c0.1,0.7,0,1.5-0.5,2.1
		c-0.7,1-1.5,1.3-2.6,1.6c-0.5,0-0.9,0-1.3-0.1c-1.9-0.4-3.1-1.6-4.1-3.1l2.4-1c0.2,0.6,0.6,1.2,1.1,1.5c0.4,0.3,1.2,0.6,1.7,0.5
		c0.3-0.1,0.5-0.3,0.7-0.6c0.2-1.5-2.3-2.7-2.9-4.1c-0.3-0.7-0.4-1.5-0.2-2.1C157.4,28.6,158.4,27.9,159.2,27.6z"/>
	<path class="st4" d="M217.4,82.9c0.3,0,0.7,0,1,0c1,0.2,1.8,0.8,2.3,1.6c1.1,1.5,1.1,3.2,0.8,5c-0.8-0.3-1.5-0.6-2.3-0.9
		c0-0.1,0-0.2,0.1-0.3c0-0.2,0.1-0.3,0.1-0.5c0.1-0.7-0.2-1.6-0.6-2.2c-0.2-0.3-0.3-0.3-0.7-0.4c-1.6,0.6-0.3,4.3-1.3,5.7
		c-0.6,0.8-1.7,1.1-2.7,1.3c0,0-0.1,0-0.1,0c-1.1-0.1-2-0.7-2.7-1.6c-1.2-1.7-1.2-3.6-0.9-5.5c0.8,0.3,1.5,0.6,2.3,0.9
		c-0.1,0.7-0.3,1.4-0.2,2.2c0.1,0.5,0.4,1,0.8,1.3c0.3,0.2,0.6,0.2,0.9,0.1c1.2-0.6,0.2-3.8,1-5.2C215.8,83.5,216.5,83.2,217.4,82.9
		z"/>
	<path class="st4" d="M51.6,51.6c0.6,0.4,1.2,1,1.7,1.5c-0.7,0.7-1.4,1.5-2.1,2.1c2.1,2,4.2,3.9,6.3,5.8c-0.6,0.7-1.2,1.3-1.8,2
		c-0.6-0.7-1.4-1.3-2.1-1.9c-1.5-1.3-2.8-2.6-4.2-3.9c-0.6,0.8-1.3,1.5-2,2.3c-0.6-0.5-1.1-1-1.7-1.5C47.7,55.7,49.6,53.6,51.6,51.6
		z"/>
	<path class="st4" d="M211.6,67.9c0.7,0.4,3.9,6.2,4.6,7.3c-0.7,0.4-1.3,0.8-1.9,1.2c-0.5-0.9-1-1.7-1.6-2.6
		c-1.5,0.8-2.9,1.7-4.3,2.5c-1,0.6-2,1.2-3,1.8l-1.4-2.2c2.3-1.5,4.9-3.1,7.4-4.4c-0.6-0.8-1.1-1.7-1.7-2.6
		C210.3,68.6,210.9,68.3,211.6,67.9z"/>
	<path class="st4" d="M21.6,128.1c0.6-0.1,1.2-0.1,1.8-0.1c0,1,0.1,2,0.2,2.9c2.9-0.2,5.7-0.3,8.5-0.6l0.1,2.7l-3.7,0.2
		c-1.6,0.1-3.2,0.2-4.8,0.3l0.2,3l-2.2,0.2c-0.2-1.1-0.8-7.9-0.5-8.6L21.6,128.1z"/>
	<path class="st4" d="M218.1,123.3c3.6,0,7.2,0.1,10.8,0.1c-0.1,0.9-0.1,1.8-0.1,2.6c-1.4,0-2.9-0.1-4.3-0.1
		c-1.4-0.1-2.8-0.1-4.1-0.1l-0.1,4.1c-0.8,0-1.5,0-2.3,0C218,127.8,218,125.5,218.1,123.3z"/>
	<path class="st4" d="M121.3,21.4c0.4,0,0.8-0.1,1.2,0.1c0.2,1.1,0.1,2.2,0.1,3.2c0,1.7,0.1,3.4,0.1,5.1c1.4,0,2.8-0.1,4.2-0.1
		l0,2.3l-1.8,0.1c-1.7,0.1-3.3,0.1-5,0.1l-0.2-10.7L121.3,21.4z"/>
	<path class="st4" d="M133,217.6c0.4,0.4,0.7,9.4,0.8,10.8c-0.8,0.1-1.6,0.1-2.5,0.1l-0.3-3.8c-0.1-1.4-0.2-2.7-0.2-4.1l-1.9,1.7
		c-0.5-0.6-1-1.2-1.5-1.7c1.1-1,2.2-1.9,3.3-2.8C131.5,217.7,132.2,217.7,133,217.6z"/>
	<path class="st5" d="M197.9,184.4c0.1,0,0.1,0.1,0.2,0.1c0.7,0.8,0.9,2.9,0.8,3.9c-0.4,2.8-2.5,4.7-4.6,6.4c-1.4,0-2.8,0-4.2,0.2
		c-0.3,0-0.4,0.1-0.6,0c0.2-1.4,4.4-3.4,5.6-4.4C197,188.9,197.7,186.8,197.9,184.4z"/>
	<path class="st5" d="M52,184.3c0.4,0.4,0.4,3.4,1.8,5.1c1.9,2.3,5.2,3.1,6.8,5.5l-0.1,0.1l-0.3-0.1c-1.5-0.1-3-0.2-4.5-0.2
		c-1.9-1.3-3.6-2.9-4.4-5.2C50.8,187.7,51.1,186,52,184.3z"/>
	<path class="st4" d="M37.9,158.7c0.1,0,0.2,0,0.3,0c0.5,0.5,0.8,1.7,1,2.3l-9.6,3.8c-0.2,0.1-0.1,0.1-0.4,0c-0.4-0.7-0.7-1.5-1-2.3
		C31.4,161.2,34.7,160,37.9,158.7z"/>
	<path class="st4" d="M59.1,44.9c0.6,0.3,6.1,7.1,7,8.2c-0.7,0.5-1.3,1.1-1.9,1.6c-0.5-0.1-6.3-7.3-7-8.2
		C57.8,46,58.4,45.5,59.1,44.9z"/>
	<path class="st5" d="M186.2,204.1c0.2,0.3,0.4,0.6,0.7,0.9c-1,0.8-2,1.5-3,2.3C184.7,206.2,185.5,205.2,186.2,204.1z"/>
	<path class="st3" d="M89.6,48.6c1.3-0.8,2.9-1.3,4.3-1.8l-0.1,0.1c-0.2,0.2-0.4,0.4-0.7,0.5c0,0-0.1,0-0.1,0.1l0,0.1
		c0.1,0,0.1,0,0.2,0c0.2,0,0.3,0,0.5,0l0,0.2C92.6,48.2,90.9,48.3,89.6,48.6z"/>
	<path class="st3" d="M156.9,47c1.2,0.5,2.5,1.1,3.7,1.6c-1.4-0.3-2.7-0.6-4.1-0.8c0.2-0.2,0.3-0.3,0.5-0.5L156.9,47z"/>
	<path class="st3" d="M150,205.6c1.1-0.7,2.2-1.4,3.3-2.1l-0.1,0.4c0,0,0.1,0.1,0.1,0.1c0.2,0.2,0.1,0.1,0.2,0.3
		C152.4,204.8,151.2,205.2,150,205.6z"/>
	<path class="st6" d="M65.2,206.2c0.2,0.2,0.4,0.4,0.4,0.7c-0.4-0.1-0.6-0.3-0.9-0.5C65,206.4,65.1,206.3,65.2,206.2z"/>
</g>
<g id="레이어_1">
	<rect x="8" y="8" class="st7" width="234" height="234"/>
</g>
</svg>
