<?xml version="1.0" encoding="utf-8"?>
<!-- Generator: Adobe Illustrator 25.1.0, SVG Export Plug-In . SVG Version: 6.00 Build 0)  -->
<svg version="1.1" id="Layer_1" xmlns="http://www.w3.org/2000/svg" xmlns:xlink="http://www.w3.org/1999/xlink" x="0px" y="0px"
	 viewBox="0 0 250 250" style="enable-background:new 0 0 250 250;" xml:space="preserve">
<style type="text/css">
	.st0{fill:#FED204;}
	.st1{fill:url(#SVGID_1_);}
	.st2{fill:#D6040D;}
	.st3{fill:#E1CC6F;}
	.st4{fill:#FEFEFE;}
	.st5{fill:#FDB73A;}
	.st6{fill:#BEB067;}
	.st7{fill:none;}
</style>
<g>
	<path class="st0" d="M121,34.7c49.9-2.2,92.2,36.5,94.4,86.4c2.2,49.9-36.5,92.2-86.5,94.3C79,217.6,36.8,178.9,34.6,129
		C32.4,79.1,71.1,36.9,121,34.7z"/>
	<path d="M121.9,38.3c47.9-1.7,88.2,35.8,89.9,83.7s-35.8,88.2-83.7,89.9s-88.2-35.8-89.9-83.7C36.5,80.3,74,40,121.9,38.3z"/>
	
		<linearGradient id="SVGID_1_" gradientUnits="userSpaceOnUse" x1="28.4394" y1="48.1765" x2="71.9598" y2="57.3359" gradientTransform="matrix(2.4148 0 0 2.4148 4.882810e-04 2.532482e-03)">
		<stop  offset="0" style="stop-color:#FFDB00"/>
		<stop  offset="1" style="stop-color:#FFBB2E"/>
	</linearGradient>
	<path class="st1" d="M124.5,66c15.5-0.2,34,3.3,48.4,9c0.1,4.6,0,9.3,0,14v28.3V132c0,4,0.1,8-0.3,12.1c-0.4,3.6-1.1,7.3-2.5,10.7
		c-5.4,13.5-18.3,25.3-30.9,32.1c-4.3,2.3-9,4-13.5,6c-0.2,0.2-0.5,0.2-0.8,0.2c-1.7-0.6-3.4-1.5-5.1-2.2c-2.5-1-4.9-2-7.3-3.2
		c-7.1-3.6-13.7-8.3-19.4-14c-6-5.9-11.4-13.2-14.1-21.4c-2.3-7.3-1.9-15.2-1.9-22.8v-16.5v-38C92.2,69.2,108.3,66.1,124.5,66z"/>
	<path d="M122.6,68.5c16.3-0.2,32.5,2.6,47.8,8.3v44v12.4c0,3.9,0.1,7.6-0.4,11.5c-0.4,3.6-1.2,6.9-2.6,10.2
		c-6.5,15.4-23.9,22.7-38.2,28.6c-1.9-3.3-2.7-8.7-3.2-12.5l-0.2-1.5c-0.5,0-0.9,0-1.4,0c-0.4,3.4-1.5,11.3-3.5,14
		c-10.9-4.6-22.4-9.3-30.9-17.8c-4.3-4.3-7.5-9.7-9-15.7c-1.5-5.8-1.3-11.8-1.3-17.8v-13V76.7c2.6-0.8,5.2-1.8,7.8-2.5
		C98.8,70.7,110.6,68.8,122.6,68.5z"/>
	<path class="st0" d="M149.1,116.3c0.9-0.1,1.7-0.1,2.5,0.5c0.6,0.5,0.9,1.3,1,2.1c0.1,1.4-0.4,2.9-0.7,4.2
		c-1.9,7.3-5.6,14.1-10.7,19.5c-1.2,1.3-2.5,2.5-3.8,3.6c-0.9,0.8-2,1.5-2.7,2.4c-0.3,0.4-0.5,0.8-0.4,1.4c0.2,1.5,2.2,2.6,3.5,3.2
		c0.5,0.2,1.2,0.4,1.7,0.8c0.2,0.2,0.2,0.2,0.3,0.5c-0.1,0.1-0.1,0.1-0.2,0.2c-1.1,1.2-6.9,1.3-8.5,1.3c0.5,0.7,1.1,1.3,1.7,1.9
		c0.5,0.5,3,1.9,3.1,2.5c-0.5,0.8-3,1-3.9,1.1c-3.1,0.2-6.3-0.2-9.4,0c-4.2,0.2-8.2,2.2-12.1,3.6c-2.5,1-4.6,1.2-7.3,0.4
		c-2.3-0.8-4.9-2.4-5.9-4.6c0.8-2.1,3.1-3.1,4.1-5.1c0.7-1.4,0.9-3.1,1.2-4.6c0.6-2.7,1.7-5.3,3.2-7.6c2.9-4.5,5.9-5.9,10.8-7.2
		c1.4-0.4,2.9-0.7,4-1.5c1.8-1.2,4-3.6,5.8-5C132.5,124.8,141.2,118.1,149.1,116.3z"/>
	<path d="M149,119.3c0.1,0,0.2,0.1,0.2,0.1c0.3,0.7-0.5,3.5-0.6,4.2c-1.5,5.6-4.6,11.4-8.4,15.8c-1,1.2-2,2.2-3.2,3.2
		c-1.5,1.3-5.6,3.8-6,5.7c-0.2,0.8-0.1,1.6,0.3,2.3c-3.2-0.9-6.2-0.5-9.1,0.9c2.9,0.5,4.7,1.9,6.5,4.2c-4.4,0.5-8.1,2.2-11.7,4.7
		c0.1-0.1,0.2-0.2,0.2-0.3c1.7-2.3,5.3-4.9,8.2-5.3c-1.8-1.5-4.2-2.1-6.4-2.5c0.5-0.5,1-0.9,1.6-1.3c2.2-1.5,4.9-2.5,7.6-2.7
		c1.6-3.3,3.4-4.2,6.1-6.5c1-0.8,1.9-1.8,2.7-2.7c2.5-2.9,4.4-6.3,5.3-10c0.2-0.9,0.5-1.9,0.5-2.9c-0.1-0.1-0.1-0.2-0.2-0.2
		c-0.5-0.1-1.2,0.4-1.6,0.5c-3.6,1.5-7.3,3.7-10.2,6.3c-1.3,1.2-2.3,2.7-3.6,3.9l-0.1,0.1c0.1-0.2,0.2-0.3,0.2-0.5
		c3.4-6.6,10.2-11.3,16.5-14.7C145.3,120.8,147.1,119.9,149,119.3z"/>
	<path d="M114.5,146.4c0.2,0.2,0.2,0.1,0.2,0.2c0.3,1.2-0.3,3.1-0.9,4.2c-1.1,1.8-3,2.9-5,3.2c-0.8,0.2-1.5,0.2-2.2,0.4
		c-1,0.2-1.6,0.7-2.2,1.6h-0.2c-0.2-0.7,0.6-2.2,0.9-2.9C106.9,149.7,110.8,147.6,114.5,146.4z"/>
	<path class="st0" d="M123.5,118.1c0.3-0.1,0.6-0.1,0.8,0.2c0.3,0.2,0.4,0.5,0.5,0.8c0.4,1.7-0.2,5.3-0.5,7c-0.5,2.1-1.7,5.6-3.4,7
		c-1.1,0.9-2.8,1.2-4.1,1.5c-4.9,1.4-9.2,3.9-11.9,8.2c-0.2,0.4-0.5,0.7-0.8,1.1c0.3-2.5,0.9-5.1,1.9-7.5
		C109,128,115.5,121.7,123.5,118.1z"/>
	<path class="st2" d="M104.9,80.2c2.1-0.1,4.2-0.1,6.3,0c1.3,0.1,2.7,0.5,3.6,1.5c0.6,0.8,0.8,1.8,0.8,2.7c-0.2,1.1-0.8,1.7-1.6,2.3
		c0.3,0.2,0.7,0.5,0.9,0.7c0.6,0.5,0.8,1.2,0.8,2c0,1-0.2,1.9-0.9,2.5c-1.5,1.5-4.1,1.3-6.1,1.3H105h-1.3c-0.1-3.2,0-6.3-0.1-9.5
		l3-0.1l-0.1,1.7c1.3,0.1,4.4,0.3,5.5-0.5c0.2-0.2,0.4-0.4,0.4-0.7c0-0.5-0.2-0.9-0.5-1.2c-0.2-0.2-0.4-0.3-0.7-0.4
		c-1.5-0.3-5.8-0.1-7.6-0.1c0-0.8,0-1.5,0-2.4L104.9,80.2z"/>
	<path d="M106.7,87.9c1.5,0.1,4.4-0.4,5.5,0.6c0.3,0.3,0.5,0.7,0.5,1.1c0,0.5-0.2,0.6-0.5,0.9c-1.3,0.8-3.9,0.5-5.5,0.4
		C106.6,89.9,106.6,88.9,106.7,87.9z"/>
	<path class="st0" d="M131.8,96.6c2.4,0,7.6-0.4,9.5,0.6c0.9,0.5,1.6,1.2,1.9,2.2c0.3,1.1,0.2,2.5-0.5,3.4c-0.6,1-1.7,1.5-2.8,1.7
		c1.6,1.6,3.2,3.4,4.6,5.1h-3.8c-1.3-1.4-2.5-2.8-3.7-4.2l-0.8-0.9c0-0.8,0-1.5,0-2.2c0.9,0,2.4,0.2,3.2-0.5
		c0.4-0.2,0.5-0.7,0.5-1.1c0-0.5-0.2-0.9-0.5-1.2c-0.8-0.9-3.6-0.5-4.9-0.5c-0.1,3.6,0.1,7.1-0.1,10.6h-3c-0.1-2.2,0-4.5,0-6.6
		C131.8,100.9,131.7,98.7,131.8,96.6z"/>
	<path class="st0" d="M146.6,96.6h3.6c1.2,1.6,2.2,3.2,3.4,4.9c1.2-1.5,2.2-3.2,3.3-4.9c1.2,0,2.4,0,3.6,0c-1.5,2.1-2.9,4.2-4.3,6.2
		c0.7,0.8,4.6,6.3,4.7,6.9c-0.2,0.2-0.5,0.1-0.7,0.1h-2.8c-1.4-1.8-2.5-3.7-3.9-5.6c-1.2,1.9-2.5,3.6-3.7,5.6h-3.6
		c1.5-2.4,3.1-4.8,4.8-7C149.7,101.2,147.6,98.2,146.6,96.6z"/>
	<path class="st0" d="M119.9,96.5h3.4c1.9,4.4,4.2,8.7,6.1,13.1c-1,0-2.1,0-3.1,0c-0.5-0.8-0.8-1.8-1.2-2.6h-5.7
		c0.4-0.8,0.7-1.7,1.1-2.5c1.2,0,2.3,0,3.5,0l-0.4-0.9c-0.7-1.5-1.3-3-2.1-4.5c-0.5,1.3-1.2,2.5-1.7,3.9l-3,6.7h-3
		C115.7,105.2,117.8,100.9,119.9,96.5z"/>
	<path class="st2" d="M128.6,80.2l2.1-0.1v13.1c-1.3,0.1-2.8,0.2-4.1-0.1c-0.6-0.2-1.1-0.4-1.5-0.8c-1.5-1.7-2.5-7-3.9-9
		c-0.3-0.5-0.5-0.6-1.2-0.8h-2.2l-0.1-2.3c1.5-0.1,3.4-0.3,4.7,0.5c1.9,1.1,3.7,9.4,5.1,10.2c0.2,0.1,0.1,0.1,0.3,0
		c0.4-0.8,0-8.8,0.2-10.6C128,80.2,128.2,80.2,128.6,80.2z"/>
	<path class="st2" d="M143.8,80.2h1.3v2.4c-0.7,0-1.5,0-2.2,0c-1.4,2.4-3,8.4-4.6,9.9c-1.2,1.3-3.8,0.8-5.5,0.8
		c-0.1-3.1,0-6.3,0-9.4v-3.7h2.8v7.6c0,1-0.2,2.2,0.1,3.2h0.2c1.5-0.8,3.2-8.2,4.8-9.9C141.5,80.3,142.7,80.2,143.8,80.2z"/>
	<path class="st0" d="M89.2,96.6c3.3-0.1,6.6-0.2,10,0c0,0.8,0,1.7,0,2.5h-7c0,0.8,0,1.5,0,2.4c2.2,0.1,4.4,0,6.6,0.1v1.2v1.4h-6.6
		c0,1.9,0,3.7-0.1,5.6h-2.9C89.1,105.3,89.1,100.9,89.2,96.6z"/>
	<path class="st0" d="M101.7,100.4h2.9v1.2c2.2,0,4.5,0,6.7,0c0,0.8,0,1.7,0,2.5h-6.7v3.1h3c1.4,0,2.7,0,4.1,0c0,0.8,0,1.7,0,2.5
		h-10C101.7,106.6,101.7,103.5,101.7,100.4z"/>
	<path class="st2" d="M117.7,83.9c0.9,0,1.9,0.1,2.8,0c0.1,3.2,0,6.3,0,9.4c-0.8,0.2-1.9,0-2.7,0L117.7,83.9z"/>
	<path class="st0" d="M101.7,96.6c3.3,0,6.6,0,10,0c0,0.8,0,1.7,0,2.5h-10C101.7,98.3,101.7,97.4,101.7,96.6z"/>
	<path class="st2" d="M142.2,87.8c0.4,0.2,3.9,4.9,4.4,5.6h-1.3l-2.2,0.1c-0.8-0.8-1.5-1.9-2.2-2.9
		C141.3,89.5,141.8,88.6,142.2,87.8z"/>
	<path class="st0" d="M102.5,186.2c-16.4-6.3-29.7-18.3-36.9-34.5c-7-15.8-7.6-33.6-1.5-49.7c2.4-6.4,5.9-12.4,10.1-17.7
		c0,1,0,2-0.1,3c-2.3,3.3-4.5,6.7-6.3,10.4c-5.6,11.8-7.5,25.1-5.3,38c2.9,16.5,12.1,31.3,25.8,41c2.2,1.5,4.4,2.9,6.6,4.1
		c1.5,0.8,2.9,1.4,4.4,2.2c1.6,1,3.2,2.2,4.8,3.2c0.5,0.2,1,0.6,1.5,0.9C104.6,187,103.6,186.6,102.5,186.2z"/>
	<path class="st3" d="M102.5,186.2c0.2-0.2,0.3-0.2,0.6-0.1c0.3,0.2,0.6,0.4,1,0.4l0.2-0.2c0.5,0.2,1,0.6,1.5,0.9
		C104.6,187,103.6,186.6,102.5,186.2z"/>
	<path class="st0" d="M175.8,84.2c2.2,3.1,4.3,5.9,6.2,9.3c7.1,12.7,9.7,27.5,7.3,42c-2.8,17.2-12.2,32.4-26.3,42.6
		c-4.5,3.2-10.6,6.6-15.8,8.3c-0.1-0.2-0.1-0.1-0.2-0.2l-0.1-0.1l0.1-0.3c1.2-0.8,2.5-1.9,3.8-2.6c1.2-0.7,2.6-1.3,3.9-2
		c2.2-1.2,4.2-2.4,6.2-3.7c14.2-9.7,23.8-24.8,26.7-41.7c2.8-16.5-1.1-33.5-10.8-47.1c-0.2-0.4-0.5-0.8-0.8-1.2
		C175.8,86.3,175.8,85.2,175.8,84.2z"/>
	<path class="st0" d="M101,64.5c2.2-1.1,4.8-1.8,7.2-2.4c12.7-3.4,26.2-2.9,38.6,1.5c0.9,0.3,1.9,0.7,2.9,1.1l0.1,0.2
		c-0.1,0.2-0.2,0.2-0.4,0.4c-2-0.4-4-0.6-6-1c-2.2-0.5-4.2-1.1-6.4-1.5c-7-1.3-14.2-1.5-21.2-0.5c-2.9,0.5-5.6,1.2-8.3,1.8
		c-2.1,0.5-4.3,0.8-6.4,1.1v-0.2c-0.2,0-0.2,0-0.4,0c-0.1,0-0.1,0-0.2,0v-0.1c0,0,0.1,0,0.1-0.1C100.6,64.9,100.7,64.8,101,64.5
		L101,64.5z"/>
	<path class="st4" d="M84.9,55.8c2.5-0.2,4.6,1.7,4.8,4.2c0.2,2.5-1.7,4.6-4.2,4.8c-2.5,0.2-4.6-1.7-4.7-4.2
		C80.6,58.1,82.4,55.9,84.9,55.8z"/>
	<path d="M84.6,57.8c0.4-0.1,0.8-0.1,1.2,0.1c0.7,0.2,1.3,0.8,1.6,1.5c0.3,0.6,0.4,1.4,0.1,2.1c-0.3,0.8-0.9,1.1-1.6,1.4
		c-0.4,0-0.8,0-1.2-0.1C84,62.5,83.4,62,83,61.3c-0.3-0.6-0.4-1.3-0.2-1.9C83.2,58.5,83.8,58.1,84.6,57.8z"/>
	<path class="st4" d="M172.9,62.2c2.5-0.5,4.8,1.2,5.3,3.6c0.5,2.4-1.2,4.8-3.6,5.3c-2.5,0.5-4.8-1.2-5.3-3.6
		C168.8,65.1,170.4,62.7,172.9,62.2z"/>
	<path d="M173.4,64.1c0.4,0,0.8,0,1.2,0.2c0.6,0.2,1.2,0.6,1.4,1.2c0.2,0.6,0.2,1.2,0,1.9c-0.4,0.8-1,1.4-1.9,1.7
		c-0.5,0.1-0.8,0.1-1.3-0.1c-0.5-0.2-1-0.5-1.3-1.2c-0.3-0.6-0.3-1.3-0.1-1.9C171.8,65,172.5,64.5,173.4,64.1z"/>
	<path class="st0" d="M68.1,179.9c0.8,0.2,1.5,0.1,2.2,0.1c0.8,0,1.1,0.2,1.6,0.8c0.6-0.2,1.2-0.3,1.9-0.3c2.3-0.2,4.6,0.8,6.3,2.5
		c0.8,0.8,1.4,1.6,2.2,2.3c1.5,1.4,3.3,1.5,5.3,1.4c-0.2,0.2-0.5,0.4-0.8,0.5c-1.9,1.2-4.2,0.8-5.9-0.4c-1.1-0.7-1.9-1.6-3-2.2
		c-0.9-0.5-2-0.7-3-1c1.1,0.7,1.9,1.5,2.8,2.5c0.5,0.5,0.9,1.2,1.3,1.8c-0.2,0.1-0.2,0.1-0.4,0.1c-0.5-0.4-1-0.8-1.5-1.2
		c-1.4-0.8-3.5-1.3-4.7-2.2c-0.9-0.7-1.4-1.8-2-2.6C69.7,181.1,68.9,180.5,68.1,179.9z"/>
	<path class="st3" d="M76.9,186.7c0.1,0,0.1,0,0.2,0c0.2,0,0.2,0.1,0.3,0.1s0.1,0,0.2,0l0,0l0.1-0.1c-0.1-0.2-0.2-0.2-0.2-0.4
		c0-0.2,0.1-0.2,0.1-0.3c0.5,0.5,0.9,1.2,1.3,1.8c-0.2,0.1-0.2,0.1-0.4,0.1C77.9,187.4,77.5,187.1,76.9,186.7z"/>
	<path class="st0" d="M162.5,186.7c2.2,0.1,3.9-0.2,5.6-1.7c0.7-0.7,1.3-1.5,2-2.2c1.6-1.6,3.9-2.5,6.1-2.5c0.5,0,1.7,0.3,1.8,0.3
		c0.3,0,0.8-0.6,1.2-0.8c0.7-0.2,1.8,0.1,2.5-0.1h0.2c-0.7,0.6-1.4,1.2-2,1.9c-0.7,0.9-1.2,2-2.2,2.8c-0.8,0.7-2.1,1-3.1,1.4
		c-0.6,0.2-1.2,0.6-1.7,0.9c-0.2-0.2-0.4-0.4-0.5-0.7c0.8-1,1.7-1.8,2.8-2.5c-1,0.2-2,0.5-2.9,0.9c-1.1,0.6-1.9,1.5-2.9,2.2
		c-1.8,1.2-4,1.7-6,0.5C163,187.1,162.7,186.8,162.5,186.7z"/>
	<path class="st4" d="M193.9,145.9l7.9,2.8c-0.7,1.6-1,4-2.5,5c-0.6,0.2-1.3,0.2-1.9-0.2c-0.6-0.4-0.8-0.9-0.9-1.6l0,0
		c-0.2,0.2-0.5,0.5-0.8,0.7c-0.5,0.2-0.9,0.3-1.5,0.2c-0.6-0.2-1.2-0.5-1.4-1.2C192,150,193.4,147.3,193.9,145.9z"/>
	<path d="M194.8,148.2c0.6,0.2,1.2,0.4,1.9,0.6c-0.2,0.7-0.5,1.3-0.8,1.9c-0.2,0.2-0.5,0.3-0.7,0.3s-0.4-0.1-0.5-0.3
		C194.1,150,194.5,148.9,194.8,148.2z"/>
	<path d="M197.9,149.3c0.5,0.2,1.1,0.4,1.6,0.5c-0.2,0.6-0.5,1.2-0.8,1.7c-0.1,0.1-0.2,0.2-0.4,0.2c-0.2,0.1-0.4,0.1-0.6-0.1
		c-0.2-0.2-0.2-0.3-0.2-0.6c0-0.1,0-0.1,0-0.2C197.5,150.4,197.8,149.9,197.9,149.3z"/>
	<path class="st4" d="M120.1,196.5c0.6,0,1.2,0,1.8,0.3c0.8,0.5,1.3,1.2,1.6,2.1c0.4,1.5,0.2,3.5-0.5,4.8c-0.5,0.8-1.2,1.3-2.1,1.5
		c-0.8,0-1.5,0-2.1-0.4c-0.8-0.5-1.3-1.3-1.5-2.2c-0.3-1.5-0.2-3.5,0.6-4.8C118.4,197,119,196.6,120.1,196.5z"/>
	<path d="M120.2,198.1c0.4,0,0.6,0.1,0.8,0.3c0.5,0.5,0.5,1.5,0.5,2.2c-0.1,1-0.3,2.1-1.1,2.8h-0.1c-0.4,0-0.6-0.1-0.8-0.3
		c-0.5-0.6-0.5-1.7-0.5-2.5C119.2,199.7,119.4,198.8,120.2,198.1z"/>
	<path class="st4" d="M100.2,48.7c0.4,0.2,2.7,6.8,3.1,7.8c-0.8,0.2-1.5,0.5-2.2,0.8c-1.5-1.5-3.4-2.6-5-4c0.8,1.7,1.3,3.4,2,5.2
		c-0.6,0.2-1.2,0.5-1.8,0.7c-0.5-0.5-2.5-6.6-3-7.8c0.8-0.2,1.5-0.5,2.2-0.8c1.7,1.3,3.4,2.6,5.1,3.9c-0.8-1.6-1.3-3.4-2-5.1
		C99,49.1,99.7,48.9,100.2,48.7z"/>
	<path class="st4" d="M53.9,138.5c0.1,0,0.2,0,0.3,0c0.4,0.5,0.5,1.5,0.6,2.2c-1.5,1.5-3,3.1-4.6,4.6c1.8-0.5,3.6-0.9,5.4-1.3
		c0.2,0.6,0.2,1.3,0.5,1.9c-2.6,0.4-5.3,1.2-7.8,1.9h-0.2c-0.4-0.4-0.5-1.6-0.7-2.2c1.5-1.5,3-3.1,4.6-4.6c-1.8,0.5-3.6,0.9-5.3,1.3
		c-0.2-0.6-0.2-1.3-0.5-1.9C48.7,139.7,51.4,139.1,53.9,138.5z"/>
	<path class="st4" d="M53.1,89.4l7.6,3.3c-0.3,0.7-0.6,1.4-0.8,2.1c-2.1,0.4-4.2,0.6-6.4,0.8c1.7,0.7,3.3,1.5,5,2.2
		c-0.3,0.6-0.5,1.2-0.8,1.8c-2.5-1.1-5.1-2.3-7.6-3.3c0.4-0.7,0.7-1.4,1-2.1c2.1-0.3,4.2-0.6,6.4-0.8c-1.7-0.6-3.4-1.5-5.1-2.2
		C52.5,90.6,52.8,90,53.1,89.4z"/>
	<path class="st4" d="M139,195.2c0.3,0,0.6,0,0.8,0c0.7,0,1.4,0.4,1.9,0.8c0.3,0.4,0.5,0.9,0.4,1.5c0,0.1,0,0.1,0,0.2
		c-0.1,0.5-0.4,0.9-0.8,1.3c0.8,0.5,1.5,0.8,1.7,1.7c0.2,0.5,0,1.2-0.3,1.6c-0.5,0.9-1.5,1.3-2.5,1.5c-0.2,0-0.2,0-0.4,0
		c-0.8,0-1.7-0.2-2.3-0.8c-0.4-0.4-0.7-0.9-0.7-1.5c0-0.8,0.5-1.4,1-1.9c-0.2-0.1-0.4-0.2-0.6-0.2c-0.5-0.2-0.8-0.7-0.9-1.2
		c-0.2-0.5,0-1.2,0.3-1.6C137.3,195.7,138.1,195.4,139,195.2z"/>
	<path d="M139.6,200.2c0.6-0.2,1.2,0.2,1.4,0.7c0.2,0.6-0.2,1.2-0.8,1.4c-0.6,0.2-1.2-0.2-1.4-0.7
		C138.8,201,139.1,200.3,139.6,200.2z"/>
	<path d="M139.1,196.8c0.5-0.1,1,0.2,1.2,0.7c0.1,0.5-0.2,1-0.7,1.2c-0.3,0.1-0.7,0-0.9-0.3c-0.2-0.2-0.3-0.6-0.2-0.9
		C138.5,197.1,138.8,196.8,139.1,196.8z"/>
	<path class="st4" d="M49.4,103.4c0.6,0,1.2,0.1,1.7,0.4c0.7,0.5,0.8,1.1,1,1.9c1.3-0.4,2.6-0.8,3.9-1.3c-0.2,0.8-0.4,1.6-0.6,2.4
		c-1,0.2-2.4,0.4-3.3,0.9c-0.2,0.1-0.3,0.2-0.4,0.4c0.5,0.5,2,0.7,2.7,0.8l0.3,0.1c0.2,0.5-0.2,1.4-0.3,1.9c-2.6-0.8-5.4-1.3-8-2
		c0.3-1.3,0.5-2.9,1.1-4C47.9,104.2,48.4,103.7,49.4,103.4z"/>
	<path d="M49.3,105.4c0.3,0,0.7,0,0.9,0.2c0.3,0.2,0.4,0.8,0.3,1.1c0,0.3-0.2,1-0.4,1.2l-0.2-0.1c-0.5-0.2-1-0.2-1.5-0.4
		C48.7,106.8,48.7,106.1,49.3,105.4z"/>
	<path class="st4" d="M184.6,71.3c1,1,2.5,2.5,2.9,3.9c0.2,0.6,0.2,1.2-0.1,1.9c-0.4,0.8-1.2,1.2-2,1.3c-0.5-0.2-1-0.3-1.5-0.5
		c-0.3,1.4-0.9,2.7-1.3,4c-0.4-0.6-0.9-1.1-1.3-1.7c-0.2-0.3-0.1-0.5,0-0.8c0.3-0.8,1.1-2.2,0.9-3.1c0-0.2,0-0.1-0.2-0.2
		c-0.8,0.2-1.9,1.4-2.5,1.9l-1.3-1.5C180.3,74.9,182.6,73.2,184.6,71.3z"/>
	<path d="M184.5,73.9c0.4,0.2,0.9,0.8,1.1,1.2c0.1,0.3,0.2,0.6,0,0.9c-0.2,0.3-0.5,0.4-0.8,0.5c-0.7-0.4-1.2-0.8-1.6-1.5L184.5,73.9
		z"/>
	<path class="st4" d="M59.2,79.3l8.8,1.8c-0.4,0.6-0.8,1.2-1.2,1.9L65,82.7c-0.5,0.8-1.3,1.8-1.8,2.7l1,1.3L63,88.5
		c-1.5-2.5-3.2-5.1-4.9-7.6L59.2,79.3z"/>
	<path d="M60.6,81.4c0.9,0.2,1.9,0.5,2.8,0.7l-0.8,1.2l-0.4,0.5C61.7,83.1,60.7,82.3,60.6,81.4z"/>
	<path class="st4" d="M111.5,46.1h0.2c0.5,0.2,4.2,6.5,5,7.6c-0.8,0.1-1.5,0.2-2.3,0.3c-0.3-0.5-0.5-0.9-0.8-1.4
		c-0.5,0.1-0.9,0.2-1.5,0.2c-0.6,0.1-1.2,0.2-1.8,0.3c-0.2,0.6-0.2,1.2-0.3,1.8c-0.8,0.1-1.5,0.2-2.2,0.4c0.7-2.9,1.4-5.9,1.9-8.8
		L111.5,46.1z"/>
	<path d="M111.2,48.4c0.5,0.5,1,1.7,1.4,2.4c-0.2,0.2-0.4,0.2-0.6,0.2l-1.2,0.2C110.8,50.3,110.9,49.4,111.2,48.4z"/>
	<path class="st4" d="M198.6,133.8c2-0.1,4.1,0.6,6.1,0.8c-0.1,0.7-0.2,1.4-0.3,2c-1.3-0.2-5.2-1.2-6.2-0.5
		c-0.3,0.2-0.5,0.5-0.6,0.8c-0.1,0.4-0.1,0.8,0.2,1.2c0.6,0.8,2.5,0.9,3.5,1.1l2.7,0.5l-0.4,2c-1.9-0.4-5-0.5-6.5-1.5
		c-0.7-0.5-1.2-1.2-1.3-2c-0.2-1,0.1-2.3,0.6-3.2C196.9,134.4,197.6,134,198.6,133.8z"/>
	<path class="st4" d="M162.1,53.9c0.8,0.3,1.6,0.8,2.4,1.3c1.2,0.7,1.9,1.4,2.3,2.8c-0.1,0.4-0.2,0.8-0.4,1.2
		c-0.3,0.6-0.8,1.1-1.5,1.3c-1.2,0.4-2.5-0.4-3.6-1c-0.5,0.9-1,1.8-1.5,2.7l-1.8-1C159.5,58.8,160.8,56.3,162.1,53.9z"/>
	<path d="M163,56.4c0.5,0.1,1.1,0.5,1.4,0.8c0.2,0.2,0.3,0.5,0.2,0.8c-0.1,0.4-0.4,0.5-0.7,0.8c-0.7-0.2-1.2-0.5-1.9-0.8L163,56.4z"
		/>
	<path class="st4" d="M139,46.1c1.9,0.4,3.7,0.8,5.5,1.2c-0.2,0.5-0.2,1.1-0.3,1.7c-1.2-0.4-2.4-0.5-3.6-0.8l-0.4,1.5l3.4,0.7
		l-0.3,1.6c-0.8-0.2-2.6-0.8-3.3-0.7l-0.4,1.6c1.2,0.2,2.5,0.5,3.7,0.8c-0.1,0.5-0.2,1.2-0.2,1.7c-1.9-0.5-3.8-0.8-5.7-1.2
		C137.7,51.5,138.5,48.8,139,46.1z"/>
	<path class="st4" d="M45.3,115.8l1.6,0.1c-0.2,1.2-0.2,2.5-0.3,3.6c0.5,0,1,0.1,1.5,0.2c0.1-1.2,0.2-2.3,0.3-3.5
		c0.5,0,1.1,0.1,1.6,0.1c-0.2,1.2-0.2,2.3-0.3,3.5l1.7,0.1c0.1-1.2,0.1-2.5,0.3-3.7L52,116c0.5,0,1,0.1,1.5,0.2
		c-0.2,1.9-0.3,3.9-0.5,5.7c-2.8-0.2-5.5-0.4-8.3-0.7C45,119.5,45,117.6,45.3,115.8z"/>
	<path class="st4" d="M199.7,110.7c0.9-0.2,1.9-0.1,2.7,0.4c1.1,0.5,1.9,1.5,2.2,2.7c0.4,1.5,0.2,2.8-0.5,4
		c-0.5-0.3-1.1-0.8-1.6-1.2c0.1-0.1,0.1-0.1,0.2-0.2c0.4-0.5,0.5-1.2,0.4-1.7c-0.1-0.6-0.5-1.1-0.9-1.4c-0.7-0.5-1.5-0.5-2.3-0.3
		c-0.5,0.2-0.9,0.4-1.2,0.8c-0.4,0.5-0.6,1-0.5,1.6c0.1,0.8,0.5,1.3,1.1,1.9l-1.2,1.6c-0.8-0.8-1.5-1.5-1.7-2.7
		c-0.2-1.2-0.1-2.4,0.5-3.5C197.4,111.5,198.5,110.9,199.7,110.7z"/>
	<path class="st4" d="M110,195.3c0.5-0.1,1.1-0.1,1.6,0c0.8,0.2,1.7,0.7,2.2,1.5c0.3,0.5,0.4,1.1,0.2,1.6c-0.5,1.8-2.7,2.7-4.2,3.6
		c1.2,0.1,2.2,0.4,3.4,0.5c-0.2,0.6-0.2,1.2-0.3,1.8c-1-0.3-2.1-0.5-3.2-0.6c-0.9-0.2-1.9-0.4-2.8-0.5c0.2-0.5,0.2-1.1,0.3-1.6
		c1.3-0.8,3.2-1.6,4.3-2.8c0.2-0.2,0.4-0.6,0.4-0.9c0-0.2-0.2-0.5-0.4-0.6c-0.2-0.2-0.6-0.2-0.9-0.2c-0.5,0.1-0.7,0.5-0.9,0.8
		l-0.1,0.2c-0.6-0.2-1.2-0.5-1.9-0.6C108.4,196.3,108.9,195.7,110,195.3z"/>
	<path class="st4" d="M151.4,49.8c0.5-0.1,0.8-0.1,1.3-0.1c1.5,0.2,2.4,1,3.2,2.2c-0.5,0.3-1.1,0.5-1.6,0.8c-0.2-0.4-0.5-0.8-0.8-1
		c-0.4-0.2-0.8-0.3-1.3-0.2c-0.2,0.1-0.4,0.1-0.5,0.3c0,1.2,2.2,2.2,2.5,3.6c0.1,0.5,0,1.2-0.4,1.6c-0.5,0.8-1.2,1-2,1.2
		c-0.4,0-0.7,0-1-0.1c-1.5-0.3-2.4-1.2-3.2-2.4l1.9-0.8c0.2,0.5,0.5,0.9,0.8,1.2c0.3,0.2,0.9,0.5,1.3,0.4c0.2-0.1,0.4-0.2,0.5-0.5
		c0.2-1.2-1.8-2.1-2.2-3.2c-0.2-0.5-0.3-1.2-0.2-1.6C150,50.5,150.8,50,151.4,49.8z"/>
	<path class="st4" d="M196.4,92.5c0.2,0,0.5,0,0.8,0c0.8,0.2,1.4,0.6,1.8,1.2c0.8,1.2,0.8,2.5,0.6,3.9c-0.6-0.2-1.2-0.5-1.8-0.7
		c0-0.1,0-0.2,0.1-0.2c0-0.2,0.1-0.2,0.1-0.4c0.1-0.5-0.2-1.2-0.5-1.7c-0.2-0.2-0.2-0.2-0.5-0.3c-1.2,0.5-0.2,3.3-1,4.4
		c-0.5,0.6-1.3,0.8-2.1,1h-0.1c-0.8-0.1-1.5-0.5-2.1-1.2c-0.9-1.3-0.9-2.8-0.7-4.2c0.6,0.2,1.2,0.5,1.8,0.7
		c-0.1,0.5-0.2,1.1-0.2,1.7c0.1,0.4,0.3,0.8,0.6,1c0.2,0.2,0.5,0.2,0.7,0.1c0.9-0.5,0.2-2.9,0.8-4C195.2,92.9,195.7,92.7,196.4,92.5
		z"/>
	<path class="st4" d="M68.3,68.3c0.5,0.3,0.9,0.8,1.3,1.2c-0.5,0.5-1.1,1.2-1.6,1.6c1.6,1.5,3.2,3,4.9,4.5c-0.5,0.5-0.9,1-1.4,1.5
		c-0.5-0.5-1.1-1-1.6-1.5c-1.2-1-2.2-2-3.2-3c-0.5,0.6-1,1.2-1.5,1.8c-0.5-0.4-0.8-0.8-1.3-1.2C65.3,71.5,66.7,69.8,68.3,68.3z"/>
	<path class="st4" d="M191.9,80.9c0.5,0.3,3,4.8,3.6,5.6c-0.5,0.3-1,0.6-1.5,0.9c-0.4-0.7-0.8-1.3-1.2-2c-1.2,0.6-2.2,1.3-3.3,1.9
		c-0.8,0.5-1.5,0.9-2.3,1.4l-1.1-1.7c1.8-1.2,3.8-2.4,5.7-3.4c-0.5-0.6-0.8-1.3-1.3-2C190.9,81.4,191.4,81.2,191.9,80.9z"/>
	<path class="st4" d="M45.1,127.4c0.5-0.1,0.9-0.1,1.4-0.1c0,0.8,0.1,1.5,0.2,2.2c2.2-0.2,4.4-0.2,6.6-0.5l0.1,2.1l-2.9,0.2
		c-1.2,0.1-2.5,0.2-3.7,0.2l0.2,2.3l-1.7,0.2c-0.2-0.8-0.6-6.1-0.4-6.6L45.1,127.4z"/>
	<path class="st4" d="M196.9,123.7c2.8,0,5.6,0.1,8.3,0.1c-0.1,0.7-0.1,1.4-0.1,2c-1.1,0-2.2-0.1-3.3-0.1c-1.1-0.1-2.2-0.1-3.2-0.1
		l-0.1,3.2c-0.6,0-1.2,0-1.8,0C196.9,127.2,196.9,125.4,196.9,123.7z"/>
	<path class="st4" d="M122.1,45c0.3,0,0.6-0.1,0.9,0.1c0.2,0.8,0.1,1.7,0.1,2.5c0,1.3,0.1,2.6,0.1,3.9c1.1,0,2.2-0.1,3.2-0.1v1.8
		l-1.4,0.1c-1.3,0.1-2.5,0.1-3.9,0.1l-0.2-8.3L122.1,45z"/>
	<path class="st4" d="M131.2,196.6c0.3,0.3,0.5,7.3,0.6,8.3c-0.6,0.1-1.2,0.1-1.9,0.1l-0.2-2.9c-0.1-1.1-0.2-2.1-0.2-3.2l-1.5,1.3
		c-0.4-0.5-0.8-0.9-1.2-1.3c0.8-0.8,1.7-1.5,2.5-2.2C130,196.6,130.6,196.6,131.2,196.6z"/>
	<path class="st5" d="M181.3,170.9c0.1,0,0.1,0.1,0.2,0.1c0.5,0.6,0.7,2.2,0.6,3c-0.3,2.2-1.9,3.6-3.6,4.9c-1.1,0-2.2,0-3.2,0.2
		c-0.2,0-0.3,0.1-0.5,0c0.2-1.1,3.4-2.6,4.3-3.4C180.6,174.4,181.2,172.8,181.3,170.9z"/>
	<path class="st5" d="M68.6,170.8c0.3,0.3,0.3,2.6,1.4,3.9c1.5,1.8,4,2.4,5.3,4.2l-0.1,0.1l-0.2-0.1c-1.2-0.1-2.3-0.2-3.5-0.2
		c-1.5-1-2.8-2.2-3.4-4C67.7,173.5,67.9,172.1,68.6,170.8z"/>
	<path class="st4" d="M57.7,151c0.1,0,0.2,0,0.2,0c0.4,0.4,0.6,1.3,0.8,1.8l-7.4,2.9c-0.2,0.1-0.1,0.1-0.3,0
		c-0.3-0.5-0.5-1.2-0.8-1.8C52.7,153,55.2,152.1,57.7,151z"/>
	<path class="st4" d="M74.1,63.1c0.5,0.2,4.7,5.5,5.4,6.3c-0.5,0.4-1,0.8-1.5,1.2c-0.4-0.1-4.9-5.6-5.4-6.3
		C73.1,64,73.5,63.6,74.1,63.1z"/>
	<path class="st5" d="M172.3,186.1c0.2,0.2,0.3,0.5,0.5,0.7c-0.8,0.6-1.5,1.2-2.3,1.8C171.1,187.7,171.7,187,172.3,186.1z"/>
	<path class="st3" d="M97.6,66c1-0.6,2.2-1,3.3-1.4l-0.1,0.1c-0.2,0.2-0.3,0.3-0.5,0.4c0,0-0.1,0-0.1,0.1v0.1c0.1,0,0.1,0,0.2,0
		c0.2,0,0.2,0,0.4,0v0.2C100,65.7,98.7,65.8,97.6,66z"/>
	<path class="st3" d="M149.6,64.7c0.9,0.4,1.9,0.8,2.9,1.2c-1.1-0.2-2.1-0.5-3.2-0.6c0.2-0.2,0.2-0.2,0.4-0.4L149.6,64.7z"/>
	<path class="st3" d="M144.3,187.3c0.8-0.5,1.7-1.1,2.5-1.6l-0.1,0.3l0.1,0.1c0.2,0.2,0.1,0.1,0.2,0.2
		C146.2,186.7,145.2,187,144.3,187.3z"/>
	<path class="st6" d="M78.8,187.7c0.2,0.2,0.3,0.3,0.3,0.5c-0.3-0.1-0.5-0.2-0.7-0.4C78.6,187.9,78.7,187.8,78.8,187.7z"/>
</g>
<g id="레이어_1">
	<rect x="8" y="8" class="st7" width="234" height="234"/>
</g>
<rect x="8" y="34.8" class="st7" width="234" height="180.4"/>
</svg>
