<?xml version="1.0" encoding="utf-8"?>
<!-- Generator: Adobe Illustrator 25.1.0, SVG Export Plug-In . SVG Version: 6.00 Build 0)  -->
<svg version="1.1" id="Layer_1" xmlns="http://www.w3.org/2000/svg" xmlns:xlink="http://www.w3.org/1999/xlink" x="0px" y="0px"
	 viewBox="0 0 2040 2040" style="enable-background:new 0 0 2040 2040;" xml:space="preserve">
<g>
	<path d="M2012.6,704.9v423.9c-0.3,1.2-0.8,2.3-0.9,3.5c-5.8,40.4-40.6,72-80.8,73.6c-19.4,0.8-38.7,1.9-58.1,2.9
		c-68.8,3.5-137.6,7.1-206.4,10.6c-65.1,3.3-130.3,6.6-195.4,9.9c-47.8,2.4-95.5,4.9-143.3,7c-41.4,1.8-82.7,3.1-124.1,4.2
		c-39.7,1.1-79.4,1.7-119.1,2.4c-7.7,0.1-12.1-4.9-11.1-12.3c2.8-20.7,5.6-41.3,8.4-62c1.1-7.8,4.5-11.2,12.3-11.7
		c52-3.3,103.8-8.5,155.4-16.1c14.3-2.1,28.9-3.5,42.8-7.4c35-9.8,57.7-39.3,57.7-73.5c0.1-95.4,0.1-190.7-0.1-286.1
		c0-6.7-0.7-13.7-2.7-20.1c-10.1-32.1-32.9-50.5-64.7-55.9c-38.2-6.4-76.9-10.6-115.4-15c-24.3-2.8-48.7-4.1-73-6.2
		c-8.2-0.7-11.3-3.8-12.4-12.1c-2.8-20.5-5.6-41-8.4-61.6c-1-7.5,3.1-12.3,10.5-12.2c42.6,0.7,85.2,0.8,127.8,2.3
		c77.9,2.7,155.7,6.1,233.5,9.6c65.3,3,130.6,6.5,195.9,9.8c56.1,2.9,112.3,5.9,168.4,8.8c41,2.1,82.1,4,123.1,6.4
		c35.7,2.1,65.6,26.1,76.2,60.6C2010.3,693.7,2011.3,699.3,2012.6,704.9L2012.6,704.9z M531,605.2c89-3.8,178-8,267-11.2
		c52.4-1.9,104.8-2.1,157.2-3.4c8.7-0.2,12.6,6,11.5,13.2c-3,20.5-5.6,41-8.5,61.5c-1,7.3-4.4,10.5-11.8,11.2
		c-21.3,1.8-42.7,2.9-63.9,5.3c-41.6,4.8-83.2,9.3-124.5,15.8c-31.1,4.9-53.8,22.8-64.6,53.7c-2.2,6.4-3.3,13.2-3.3,20
		c-0.2,97.2-0.4,194.5,0,291.7c0.1,26.2,13.8,45.6,34.7,59.9c13.9,9.6,29.7,13.2,46.2,15.2c32.6,4,65.1,8.6,97.7,12.2
		c23.5,2.6,47.2,4.1,70.8,6.1c2.7,0.2,5.5,0.3,8.2,0.6c5.9,0.7,9.6,4,10.4,10c3,21.1,5.9,42.2,8.6,63.4c1,8-3.4,12.7-11.4,12.5
		c-60.5-1.4-121-2.6-181.4-4.4c-47.6-1.5-95.3-3.6-142.9-5.9c-81.5-4-162.9-8.3-244.4-12.4c-58.6-3-117.2-5.9-175.8-8.9
		c-34.6-1.8-69.3-3.1-103.9-5.6c-51.1-3.7-79.6-47.9-79.4-85.8c0.6-104.7,0.2-209.3,0.2-314c0-30.3,0.7-60.6-0.2-90.9
		c-1.2-42,31.8-84.7,80.6-87.3c40-2.1,79.9-4.2,119.9-6.2c45.3-2.4,90.6-4.8,135.9-7.1c55.7-2.9,111.4-5.6,167.1-8.4
		C531,605.6,531,605.4,531,605.2L531,605.2z M1067.5,1433.7c0,1.1,0.3,1.7,1,1.7c0.5-0.1,1-0.3,1.4-0.6l177.7-117.7
		c3-2.1,6.6-3.2,10.3-3.1h39.1c6,0,10,4.1,10,10.2v76.1c0,9.2-2,14.5-10,19.4l-47.4,29.1c-0.5,0.3-1,0.5-1.6,0.6
		c-0.6,0-1.1-0.5-1.1-2.2v-88.8c0-1-0.3-1.7-1-1.7c-0.5,0.1-1,0.3-1.4,0.6l-129.9,86.1c-2.9,2-6.4,3.1-10,3.1h-86.1
		c-6,0-10-4.1-10-10.2v-109.6c0-0.8-0.3-1.6-1-1.6c-0.5,0.1-1,0.3-1.4,0.6l-85.7,52.5c-0.9,0.6-1.1,1-1.1,1.4c0,0.3,0.2,0.7,0.7,1.3
		l61.2,62.4c0.8,0.8,1.4,1.5,1.4,2.1c0,0.6-0.9,1-2,1h-55.3c-4.3,0-7.7-0.6-10-3l-37.1-37.8c-0.3-0.3-0.7-0.6-1.1-0.6
		c-0.4,0-0.8,0.1-1.1,0.3l-62,38c-3.8,2.3-6.3,3-10,3h-57.1c-6.1,0.1-10.1-4.1-10.1-10.2v-74.6c0-9.2,2-14.5,10-19.4l47.7-29.2
		c0.4-0.3,0.8-0.4,1.3-0.4c0.7,0,1.1,0.8,1.1,2.4v99.9c0,1,0.2,1.5,1,1.5c0.5-0.1,1-0.3,1.4-0.6l161-98.8c3.1-2.1,6.8-3.2,10.6-3
		h86.6c6,0,10,4.1,10,10.2L1067.5,1433.7L1067.5,1433.7L1067.5,1433.7z"/>
</g>
</svg>
