<?xml version="1.0" encoding="utf-8"?>
<!-- Generator: Adobe Illustrator 25.1.0, SVG Export Plug-In . SVG Version: 6.00 Build 0)  -->
<svg version="1.1" id="Layer_1" xmlns="http://www.w3.org/2000/svg" xmlns:xlink="http://www.w3.org/1999/xlink" x="0px" y="0px"
	 viewBox="0 0 250 250" style="enable-background:new 0 0 250 250;" xml:space="preserve">
<style type="text/css">
	.st0{fill:none;}
</style>
<g>
	<path d="M242,87.9v50c0,0.1-0.1,0.3-0.1,0.4c-0.7,4.8-4.8,8.5-9.5,8.7c-2.3,0.1-4.6,0.2-6.8,0.3c-8.1,0.4-16.2,0.8-24.3,1.2
		c-7.7,0.4-15.4,0.8-23,1.2c-5.6,0.3-11.3,0.6-16.9,0.8c-4.9,0.2-9.7,0.4-14.6,0.5c-4.7,0.1-9.4,0.2-14,0.3c-0.9,0-1.4-0.6-1.3-1.4
		c0.3-2.4,0.7-4.9,1-7.3c0.1-0.9,0.5-1.3,1.4-1.4c6.1-0.4,12.2-1,18.3-1.9c1.7-0.2,3.4-0.4,5-0.9c4.1-1.2,6.8-4.6,6.8-8.7
		c0-11.2,0-22.5,0-33.7c0-0.8-0.1-1.6-0.3-2.4c-1.2-3.8-3.9-6-7.6-6.6c-4.5-0.8-9.1-1.2-13.6-1.8c-2.9-0.3-5.7-0.5-8.6-0.7
		c-1-0.1-1.3-0.4-1.5-1.4c-0.3-2.4-0.7-4.8-1-7.3c-0.1-0.9,0.4-1.4,1.2-1.4c5,0.1,10,0.1,15.1,0.3c9.2,0.3,18.3,0.7,27.5,1.1
		c7.7,0.4,15.4,0.8,23.1,1.2c6.6,0.3,13.2,0.7,19.8,1c4.8,0.2,9.7,0.5,14.5,0.8c4.2,0.2,7.7,3.1,9,7.1
		C241.7,86.5,241.8,87.2,242,87.9L242,87.9z M67.4,76.1c10.5-0.4,21-0.9,31.5-1.3c6.2-0.2,12.3-0.2,18.5-0.4c1,0,1.5,0.7,1.4,1.6
		c-0.4,2.4-0.7,4.8-1,7.2c-0.1,0.9-0.5,1.2-1.4,1.3c-2.5,0.2-5,0.3-7.5,0.6c-4.9,0.6-9.8,1.1-14.7,1.9c-3.7,0.6-6.3,2.7-7.6,6.3
		c-0.3,0.8-0.4,1.6-0.4,2.4c0,11.5,0,22.9,0,34.4c0,3.1,1.6,5.4,4.1,7.1c1.6,1.1,3.5,1.6,5.4,1.8c3.8,0.5,7.7,1,11.5,1.4
		c2.8,0.3,5.6,0.5,8.3,0.7c0.3,0,0.6,0,1,0.1c0.7,0.1,1.1,0.5,1.2,1.2c0.4,2.5,0.7,5,1,7.5c0.1,0.9-0.4,1.5-1.3,1.5
		c-7.1-0.2-14.3-0.3-21.4-0.5c-5.6-0.2-11.2-0.4-16.8-0.7c-9.6-0.5-19.2-1-28.8-1.5c-6.9-0.4-13.8-0.7-20.7-1
		c-4.1-0.2-8.2-0.4-12.2-0.7c-6-0.4-9.4-5.6-9.4-10.1c0.1-12.3,0-24.7,0-37c0-3.6,0.1-7.1,0-10.7c-0.1-4.9,3.7-10,9.5-10.3
		c4.7-0.2,9.4-0.5,14.1-0.7c5.3-0.3,10.7-0.6,16-0.8C54.3,76.9,60.8,76.5,67.4,76.1C67.4,76.2,67.4,76.1,67.4,76.1L67.4,76.1z
		 M130.6,173.7c0,0.1,0,0.2,0.1,0.2c0.1,0,0.1,0,0.2-0.1l20.9-13.9c0.4-0.2,0.8-0.4,1.2-0.4h4.6c0.7,0,1.2,0.5,1.2,1.2v9
		c0,1.1-0.2,1.7-1.2,2.3l-5.6,3.4c-0.1,0-0.1,0.1-0.2,0.1c-0.1,0-0.1-0.1-0.1-0.3v-10.5c0-0.1,0-0.2-0.1-0.2c-0.1,0-0.1,0-0.2,0.1
		l-15.3,10.1c-0.3,0.2-0.8,0.4-1.2,0.4h-10.1c-0.7,0-1.2-0.5-1.2-1.2v-12.9c0-0.1,0-0.2-0.1-0.2c-0.1,0-0.1,0-0.2,0.1l-10.1,6.2
		c-0.1,0.1-0.1,0.1-0.1,0.2c0,0,0,0.1,0.1,0.2l7.2,7.4c0.1,0.1,0.2,0.2,0.2,0.2c0,0.1-0.1,0.1-0.2,0.1h-6.5c-0.5,0-0.9-0.1-1.2-0.4
		l-4.4-4.5c0,0-0.1-0.1-0.1-0.1c0,0-0.1,0-0.1,0l-7.3,4.5c-0.4,0.3-0.7,0.4-1.2,0.4h-6.7c-0.7,0-1.2-0.5-1.2-1.2v-8.8
		c0-1.1,0.2-1.7,1.2-2.3l5.6-3.4c0,0,0.1,0,0.2,0c0.1,0,0.1,0.1,0.1,0.3v11.8c0,0.1,0,0.2,0.1,0.2c0.1,0,0.1,0,0.2-0.1l19-11.6
		c0.4-0.2,0.8-0.4,1.2-0.4h10.2c0.7,0,1.2,0.5,1.2,1.2L130.6,173.7L130.6,173.7L130.6,173.7z"/>
</g>
<g id="레이어_1">
	<rect x="8" y="8" class="st0" width="234" height="234"/>
</g>
</svg>
