<?xml version="1.0" encoding="utf-8"?>
<!-- Generator: Adobe Illustrator 25.1.0, SVG Export Plug-In . SVG Version: 6.00 Build 0)  -->
<svg version="1.1" id="Layer_1" xmlns="http://www.w3.org/2000/svg" xmlns:xlink="http://www.w3.org/1999/xlink" x="0px" y="0px"
	 viewBox="0 0 250 250" style="enable-background:new 0 0 250 250;" xml:space="preserve">
<style type="text/css">
	.st0{fill:#0B50F2;}
	.st1{fill:none;}
</style>
<path class="st0" d="M176.8,8L73.1,48.2v26L176.8,34V8z M154.4,79.8v66.8L125,165l-29.5-18.4v-18.2l-22.4,8.7v17.9
	c0,4.4,2.3,8.5,6.1,10.9l37,23.1c5.4,3.4,12.2,3.4,17.6,0l36.9-23.1c3.8-2.4,6.2-6.5,6.2-10.9V71.1L154.4,79.8z"/>
<path class="st0" d="M176.8,39.5L73.1,79.7v51.7l22.4-8.7V97l81.3-31.5V39.5z M124.6,212.3l-2.1-4.7c-0.7-1.6-2.1-2.4-4-2.4h-23v1.1
	l3.4,3.4h17.8c0.6,0,1.2,0.4,1.4,0.9l1.7,3.3c0.1,0.2,0.1,0.4,0,0.5l-1.7,3.3c-0.3,0.6-0.8,0.9-1.4,0.9h-13.6
	c-0.3,0-0.5-0.2-0.5-0.5v-2.7l-3.7-3.6h-1.2v9.9c0,0.7,0.6,1.3,1.4,1.3h19.3c1.9,0,3.3-0.8,4-2.4l2.1-4.7
	C125.1,214.9,125.1,213.5,124.6,212.3 M153.2,205.2l-3.7,3.6v9.1c0,0.2-0.2,0.5-0.4,0.5c-0.2,0-0.3,0-0.5-0.1l-11.8-11.6
	c-1.1-1.1-2.6-1.6-4.1-1.5c-2.8,0.2-5,2.5-5,5.3v12.7h1.2l3.7-3.6v-9.1c0-0.3,0.2-0.5,0.4-0.5c0.2,0,0.3,0,0.5,0.1l11.8,11.6
	c1,1,2.5,1.6,4.1,1.5c2.8-0.2,5-2.5,5-5.3v-12.7L153.2,205.2L153.2,205.2z M86.1,231.9l3-2.9H73.1v13h4v-5.2h7.2l2.7-2.6h-9.9v-2.3
	L86.1,231.9L86.1,231.9z M103,229H89.9v13h4v-4.3h7.6l1.1,1c0.1,0.1,0.1,0.2,0.1,0.3v3h4v-3.1c0-0.4-0.2-0.7-0.4-1l-1.9-1.8l1.7-2.2
	c0.4-0.5,0.4-1.2,0-1.6l-2-2.6C103.9,229.2,103.4,229,103,229 M101.3,234.7h-7c-0.2,0-0.4-0.2-0.4-0.4l0,0v-2c0-0.2,0.2-0.4,0.4-0.4
	h7.1c0.1,0,0.3,0.1,0.3,0.2l0.8,1c0.1,0.1,0.1,0.2,0,0.3l-0.8,1.1C101.6,234.6,101.5,234.7,101.3,234.7L101.3,234.7z M144.6,235.3
	l1.4-2.8c0.2-0.4,0.6-0.6,1-0.6h8.7l2.8-2.9h-13.8c-0.5,0-1,0.3-1.3,0.8l-2.4,5.2c-0.2,0.4-0.2,0.8,0,1.2l2.4,5.2
	c0.2,0.5,0.7,0.8,1.3,0.8h10.6l2.8-2.9h-11.1c-0.3,0-0.6-0.2-0.7-0.5l-1.5-3C144.5,235.6,144.5,235.5,144.6,235.3L144.6,235.3z"/>
<path class="st0" d="M163.4,234.1l-0.8-0.8c-0.1-0.2-0.1-0.4,0-0.5l0.8-0.8c0.1-0.1,0.1-0.1,0.2-0.1h10.3l3-2.9h-14.7
	c-0.4,0-0.9,0.2-1.1,0.6l-2.4,2.6c-0.4,0.5-0.4,1.2,0,1.7l2.3,2.5c0.3,0.3,0.7,0.6,1.1,0.6h9.4l0.7,0.9c0.1,0.2,0.1,0.4,0,0.5
	l-0.7,0.8h-10.1l-3,2.9h14.7c0.5,0,0.9-0.2,1.1-0.6l2-2.6c0.6-0.7,0.6-0.9,0-1.7l-1.9-2.4c-0.3-0.3-0.7-0.6-1.1-0.6h-9.6
	C163.5,234.2,163.5,234.2,163.4,234.1L163.4,234.1z M121.6,231.9l2.9-2.9h-15.9v13h12.4l3-2.9h-11.4v-2.3h7.2l2.7-2.6h-9.9v-2.3
	L121.6,231.9L121.6,231.9z M138.9,231.9l2.9-2.9H126v13h12.4l3-2.9H130v-2.3h7.2l2.7-2.6H130v-2.3L138.9,231.9L138.9,231.9z"/>
<g id="레이어_1">
	<rect x="8" y="8" class="st1" width="234" height="234"/>
</g>
</svg>
