<?xml version="1.0" encoding="utf-8"?>
<!-- Generator: Adobe Illustrator 25.1.0, SVG Export Plug-In . SVG Version: 6.00 Build 0)  -->
<svg version="1.1" id="Layer_1" xmlns="http://www.w3.org/2000/svg" xmlns:xlink="http://www.w3.org/1999/xlink" x="0px" y="0px"
	 viewBox="0 0 250 250" style="enable-background:new 0 0 250 250;" xml:space="preserve">
<style type="text/css">
	.st0{fill:#0B50F2;}
	.st1{fill:none;}
</style>
<g>
	<path class="st0" d="M165,34.8l-80,31v20.1l80-31V34.8z M147.7,90.2v51.5L125,155.9l-22.8-14.2v-14L85,134.4v13.8
		c0,3.4,1.8,6.6,4.7,8.4l28.5,17.8c4.2,2.6,9.4,2.6,13.6,0l28.5-17.8c2.9-1.9,4.8-5,4.8-8.4V83.5L147.7,90.2z"/>
	<path class="st0" d="M165,59.1l-80,31V130l17.3-6.7v-19.8L165,79.1V59.1z M124.7,192.4l-1.6-3.6c-0.5-1.2-1.6-1.9-3.1-1.9h-17.7
		v0.8l2.6,2.6h13.7c0.5,0,0.9,0.3,1.1,0.7l1.3,2.5c0.1,0.2,0.1,0.3,0,0.4l-1.3,2.5c-0.2,0.5-0.6,0.7-1.1,0.7h-10.5
		c-0.2,0-0.4-0.2-0.4-0.4v-2.1l-2.9-2.8h-0.9v7.6c0,0.5,0.5,1,1.1,1h14.9c1.5,0,2.5-0.6,3.1-1.9l1.6-3.6
		C125.1,194.4,125.1,193.3,124.7,192.4 M146.7,186.9l-2.9,2.8v7c0,0.2-0.2,0.4-0.3,0.4s-0.2,0-0.4-0.1l-9.1-8.9
		c-0.8-0.8-2-1.2-3.2-1.2c-2.2,0.2-3.9,1.9-3.9,4.1v9.8h0.9l2.9-2.8v-7c0-0.2,0.2-0.4,0.3-0.4c0.2,0,0.2,0,0.4,0.1l9.1,8.9
		c0.8,0.8,1.9,1.2,3.2,1.2c2.2-0.2,3.9-1.9,3.9-4.1v-9.8H146.7L146.7,186.9z M95,207.5l2.3-2.2H85v10h3.1v-4h5.6l2.1-2h-7.6v-1.8H95
		L95,207.5z M108,205.2H97.9v10h3.1v-3.3h5.9l0.8,0.8c0.1,0.1,0.1,0.2,0.1,0.2v2.3h3.1v-2.4c0-0.3-0.2-0.5-0.3-0.8l-1.5-1.4l1.3-1.7
		c0.3-0.4,0.3-0.9,0-1.2l-1.5-2C108.7,205.4,108.3,205.2,108,205.2 M106.7,209.6h-5.4c-0.2,0-0.3-0.2-0.3-0.3l0,0v-1.5
		c0-0.2,0.2-0.3,0.3-0.3h5.5c0.1,0,0.2,0.1,0.2,0.2l0.6,0.8c0.1,0.1,0.1,0.2,0,0.2l-0.6,0.8C107,209.6,106.9,209.6,106.7,209.6
		L106.7,209.6z M140.1,210.1l1.1-2.2c0.2-0.3,0.5-0.5,0.8-0.5h6.7l2.2-2.2h-10.6c-0.4,0-0.8,0.2-1,0.6l-1.9,4
		c-0.2,0.3-0.2,0.6,0,0.9l1.9,4c0.2,0.4,0.5,0.6,1,0.6h8.2l2.2-2.2H142c-0.2,0-0.5-0.2-0.5-0.4l-1.2-2.3
		C140,210.3,140,210.2,140.1,210.1L140.1,210.1z"/>
	<path class="st0" d="M154.6,209.2l-0.6-0.6c-0.1-0.2-0.1-0.3,0-0.4l0.6-0.6c0.1-0.1,0.1-0.1,0.2-0.1h7.9l2.3-2.2h-11.3
		c-0.3,0-0.7,0.2-0.8,0.5l-1.9,2c-0.3,0.4-0.3,0.9,0,1.3l1.8,1.9c0.2,0.2,0.5,0.5,0.8,0.5h7.2l0.5,0.7c0.1,0.2,0.1,0.3,0,0.4
		l-0.5,0.6h-7.8l-2.3,2.2h11.3c0.4,0,0.7-0.2,0.8-0.5l1.5-2c0.5-0.5,0.5-0.7,0-1.3l-1.5-1.9c-0.2-0.2-0.5-0.5-0.8-0.5h-7.4
		C154.7,209.2,154.7,209.2,154.6,209.2L154.6,209.2z M122.4,207.5l2.2-2.2h-12.3v10h9.6l2.3-2.2h-8.8v-1.8h5.6l2.1-2h-7.6v-1.8
		H122.4L122.4,207.5z M135.7,207.5l2.2-2.2h-12.2v10h9.6l2.3-2.2h-8.8v-1.8h5.6l2.1-2h-7.6v-1.8H135.7L135.7,207.5z"/>
</g>
<g id="레이어_1">
	<rect x="8" y="8" class="st1" width="234" height="234"/>
</g>
<rect x="8" y="34.8" class="st1" width="234" height="180.4"/>
</svg>
