<?xml version="1.0" encoding="utf-8"?>
<!-- Generator: Adobe Illustrator 25.1.0, SVG Export Plug-In . SVG Version: 6.00 Build 0)  -->
<svg version="1.1" id="Layer_1" xmlns="http://www.w3.org/2000/svg" xmlns:xlink="http://www.w3.org/1999/xlink" x="0px" y="0px"
	 viewBox="0 0 250 250" style="enable-background:new 0 0 250 250;" xml:space="preserve">
<style type="text/css">
	.st0{fill-rule:evenodd;clip-rule:evenodd;fill:#1003A3;}
	.st1{fill:none;}
</style>
<g>
	<path class="st0" d="M8,52.9v44.9L26.3,116l18.3,18.1v0.5l-18.3,18.1L8,170.8V188l17.7-17.5L43.3,153l5.1-4.8l5.1-4.8l0.2-0.1
		l0.2-0.1l3.3,3.3l3.3,3.3l-26.3,26.1L8,202.2v17.1l30.6-30.4l30.6-30.4l3.6,3.6l3.6,3.6l-34.2,33.8L8,233.4v8.6h8.9L51,208.2
		l34.1-33.8l3.4,3.4l3.4,3.4l-30.2,30L31.5,241v0.3h16.9l17.3-17.1L82.9,207l6.6-6.2l6.6-6.2l2.4-2.4l2.4-2.4l3.4,3.4l3.4,3.4
		l-22.6,22.4l-22.6,22.4v0.3h16.9l18.5-18.3l18.5-18.3l18.5,18.3l18.5,18.3H242v-91.4l-17.6-17.5l-17.6-17.5l17.6-17.5L242,80.7
		V63.6l-21.9,21.7l-21.9,21.7l-3.4-3.4l-3.4-3.4l17-17.1l17-17.1l8.3-8.4l8.3-8.4V32.1l-29.9,29.6l-29.9,29.6l-3.4-3.4l-3.4-3.4
		l33.2-33l33.3-33V8h-6.6l-34.3,34l-34.3,34l-3.6-3.6l-3.6-3.6l30.7-30.4L220.9,8h-17.3l-26.3,26.1L151,60.3l-3.4-3.4l-3.4-3.4
		l6.2-6.5l6.2-6.5l16.2-16.1l16.2-16.1V8h-16.9l-18.5,18.3l-18.5,18.3l-18.5-18.3L98.3,8H8V52.9"/>
</g>
<g id="레이어_1">
	<rect x="8" y="8" class="st1" width="234" height="234"/>
</g>
</svg>
