<?xml version="1.0" encoding="utf-8"?>
<!-- Generator: Adobe Illustrator 25.1.0, SVG Export Plug-In . SVG Version: 6.00 Build 0)  -->
<svg version="1.1" id="Layer_1" xmlns="http://www.w3.org/2000/svg" xmlns:xlink="http://www.w3.org/1999/xlink" x="0px" y="0px"
	 viewBox="0 0 250 250" style="enable-background:new 0 0 250 250;" xml:space="preserve">
<style type="text/css">
	.st0{fill-rule:evenodd;clip-rule:evenodd;fill:#1003A3;}
	.st1{fill:none;}
</style>
<g>
	<path class="st0" d="M34.8,69.4V104l14.1,14L63,132v0.4l-14.1,14l-14.1,14v13.3l13.6-13.5L62,146.6l3.9-3.7l3.9-3.7l0.2-0.1
		l0.2-0.1l2.5,2.5l2.5,2.5L55,164.2l-20.2,20.3v13.2l23.6-23.4L82,150.8l2.8,2.8l2.8,2.8l-26.4,26.1l-26.4,26.1v6.6h6.9l26.3-26.1
		l26.3-26.1l2.6,2.6l2.6,2.6l-23.3,23.1l-23.3,23v0.2h13l13.3-13.2l13.3-13.3l5.1-4.8l5.1-4.8l1.9-1.9l1.9-1.9l2.6,2.6l2.6,2.6
		l-17.4,17.3l-17.4,17.3v0.2h13l14.3-14.1l14.3-14.1l14.3,14.1l14.3,14.1h68.3v-70.5L201.6,131l-13.6-13.5l13.6-13.5l13.6-13.2V77.7
		l-16.9,16.7l-16.9,16.7l-2.6-2.6l-2.6-2.6l13.1-13.2l13.1-13.2l6.4-6.5l6.4-6.5V53.4l-23.1,22.8L169.1,99l-2.6-2.6l-2.6-2.6
		l25.6-25.4l25.7-25.4v-8.1H210L183.6,61l-26.4,26.2l-2.8-2.8l-2.8-2.8l23.7-23.4l23.7-23.4h-13.3l-20.3,20.1L145,75.1l-2.6-2.6
		l-2.6-2.6l4.8-5l4.8-5l12.5-12.4L174.3,35v-0.2h-13l-14.3,14.1L132.8,63l-14.3-14.1l-14.1-14.1H34.8V69.4"/>
</g>
<g id="레이어_1">
	<rect x="8" y="8" class="st1" width="234" height="234"/>
</g>
<rect x="8" y="34.8" class="st1" width="234" height="180.4"/>
</svg>
