<?xml version="1.0" encoding="utf-8"?>
<!-- Generator: Adobe Illustrator 25.1.0, SVG Export Plug-In . SVG Version: 6.00 Build 0)  -->
<svg version="1.1" id="Layer_1" xmlns="http://www.w3.org/2000/svg" xmlns:xlink="http://www.w3.org/1999/xlink" x="0px" y="0px"
	 viewBox="0 0 250 250" style="enable-background:new 0 0 250 250;" xml:space="preserve">
<style type="text/css">
	.st0{fill:#AA8B30;}
	.st1{fill:none;}
</style>
<g>
	<path d="M228.6,34.8h-92.2c-0.9,0-1.6,0.7-1.6,1.6l0,0v28.7c0,0.9,0.7,1.6,1.6,1.6h60.3c0.9,0,1.6,0.7,1.6,1.6v40
		c0,0.5-0.2,0.8-0.5,1.2l-28.3,28.4c-0.6,0.6-1.7,0.6-2.3,0c-0.4-0.4-0.5-0.7-0.5-1.2v-27c0-0.5,0.2-0.8,0.5-1.2L184,91.7
		c0.6-0.6,0.6-1.6,0-2.3c-0.4-0.3-0.7-0.5-1.2-0.5h-46.3c-0.9,0-1.6,0.7-1.6,1.6v123c0,1.4,1.8,2.2,2.8,1.2l92.3-91.8
		c0.3-0.4,0.5-0.7,0.5-1.2V36.4C230.3,35.5,229.5,34.8,228.6,34.8"/>
	<path class="st0" d="M21.3,34.8h92.3c0.9,0,1.6,0.7,1.6,1.6v28.7c0,0.9-0.7,1.6-1.6,1.6H53.2c-0.9,0-1.6,0.7-1.6,1.6l0,0v40
		c0,0.5,0.2,0.8,0.5,1.2l28.3,28.4c1.1,1.1,2.8,0.3,2.8-1.2v-27c0-0.5-0.2-0.8-0.5-1.2L66,91.8c-0.6-0.6-0.6-1.7,0-2.3
		c0.3-0.3,0.7-0.5,1.2-0.5h46.3c0.9,0,1.6,0.8,1.6,1.6v123c0,1.4-1.8,2.2-2.8,1.2l-92.2-91.8c-0.3-0.4-0.5-0.7-0.5-1.2V36.4
		C19.7,35.5,20.3,34.8,21.3,34.8C21.2,34.8,21.2,34.8,21.3,34.8"/>
</g>
<g id="레이어_1">
	<rect x="8" y="8" class="st1" width="234" height="234"/>
</g>
<rect x="8" y="34.8" class="st1" width="234" height="180.4"/>
</svg>
