<?xml version="1.0" encoding="utf-8"?>
<!-- Generator: Adobe Illustrator 25.1.0, SVG Export Plug-In . SVG Version: 6.00 Build 0)  -->
<svg version="1.1" id="Layer_1" xmlns="http://www.w3.org/2000/svg" xmlns:xlink="http://www.w3.org/1999/xlink" x="0px" y="0px"
	 viewBox="0 0 250 250" style="enable-background:new 0 0 250 250;" xml:space="preserve">
<style type="text/css">
	.st0{fill:#AA8B30;}
	.st1{fill:none;}
</style>
<path d="M240.1,24.8H137.7c-1,0-1.8,0.8-1.8,1.8c0,0,0,0,0,0v31.9c0,1,0.8,1.8,1.8,1.8h67c1,0,1.8,0.8,1.8,1.8v44.4
	c0,0.5-0.2,0.9-0.5,1.3l-31.4,31.5c-0.7,0.7-1.9,0.7-2.6,0c-0.4-0.4-0.5-0.8-0.5-1.3v-30c0-0.5,0.2-0.9,0.5-1.3l18.5-18.7
	c0.7-0.7,0.7-1.8,0-2.6c-0.4-0.3-0.8-0.5-1.3-0.5h-51.4c-1,0-1.8,0.8-1.8,1.8v136.6c0,1.6,2,2.4,3.1,1.3l102.5-102
	c0.3-0.4,0.5-0.8,0.5-1.3V26.6C242,25.6,241.1,24.8,240.1,24.8"/>
<path class="st0" d="M9.8,24.8h102.5c1,0,1.8,0.8,1.8,1.8v31.9c0,1-0.8,1.8-1.8,1.8H45.3c-1,0-1.8,0.8-1.8,1.8c0,0,0,0,0,0v44.4
	c0,0.5,0.2,0.9,0.5,1.3l31.4,31.5c1.2,1.2,3.1,0.3,3.1-1.3v-30c0-0.5-0.2-0.9-0.5-1.3L59.5,88.1c-0.7-0.7-0.7-1.9,0-2.6
	c0.3-0.3,0.8-0.5,1.3-0.5h51.4c1,0,1.8,0.9,1.8,1.8v136.6c0,1.6-2,2.4-3.1,1.3L8.5,122.7c-0.3-0.4-0.5-0.8-0.5-1.3V26.6
	C8,25.6,8.7,24.8,9.8,24.8C9.7,24.8,9.7,24.8,9.8,24.8"/>
<g id="레이어_1">
	<rect x="8" y="8" class="st1" width="234" height="234"/>
</g>
</svg>
