<?xml version="1.0" encoding="utf-8"?>
<!-- Generator: Adobe Illustrator 25.1.0, SVG Export Plug-In . SVG Version: 6.00 Build 0)  -->
<svg version="1.1" id="Layer_1" xmlns="http://www.w3.org/2000/svg" xmlns:xlink="http://www.w3.org/1999/xlink" x="0px" y="0px"
	 viewBox="0 0 2040 2040" style="enable-background:new 0 0 2040 2040;" xml:space="preserve">
<style type="text/css">
	.st0{fill:#AA8B30;}
</style>
<path d="M2004.3,162.8h-875.8c-8.7,0-15.7,7-15.7,15.6c0,0,0,0,0,0.1v273c0,8.4,6.7,15.7,15.7,15.7H1701c8.4,0,15.7,6.7,15.7,15.7
	v379.6c-0.1,4.1-1.7,8.1-4.5,11.2l-268.5,269.7c-6.1,6.2-16.1,6.3-22.3,0.2c-3-3-4.7-7.1-4.7-11.4V875.4c0.1-4.1,1.7-8.1,4.5-11.2
	l158.1-159.8c6-6,6-15.8,0-21.9c-3-2.9-7-4.6-11.2-4.5h-439.5c-8.6,0.2-15.5,7.1-15.7,15.7v1167.9c0,14,16.8,20.7,26.9,11.2
	L2016,1001c2.9-3,4.6-7,4.5-11.2V178.5C2020.1,169.8,2013,163,2004.3,162.8"/>
<path class="st0" d="M34.7,162.8H911c8.4,0,15.7,6.7,15.7,15.7v273c0,8.4-6.7,15.7-15.7,15.7H338.6c-8.7,0-15.7,7-15.7,15.6
	c0,0,0,0,0,0.1v379.6c0,3.9,1.7,7.9,4.5,11.2l268.5,269.7c10.1,10.1,26.9,2.8,26.9-11.2V875.4c-0.1-4.2-1.7-8.1-4.5-11.2
	L460.2,704.4c-6-6.1-5.9-15.9,0.2-21.9c2.9-2.9,6.9-4.5,11.1-4.5H911c8.4,0,15.7,7.3,15.7,15.7v1167.9c0,14-16.8,20.7-26.9,11.2
	L24,1000.5c-2.9-3-4.6-7-4.5-11.2V178.5c-0.3-8.4,6.3-15.4,14.7-15.7C34.3,162.8,34.5,162.8,34.7,162.8"/>
</svg>
