<?xml version="1.0" encoding="utf-8"?>
<!-- Generator: Adobe Illustrator 25.1.0, SVG Export Plug-In . SVG Version: 6.00 Build 0)  -->
<svg version="1.1" id="Layer_1" xmlns="http://www.w3.org/2000/svg" xmlns:xlink="http://www.w3.org/1999/xlink" x="0px" y="0px"
	 viewBox="0 0 250 250" style="enable-background:new 0 0 250 250;" xml:space="preserve">
<style type="text/css">
	.st0{fill:#F3741B;}
	.st1{fill:#3E3E3E;}
	.st2{fill:#BCBEC1;}
	.st3{fill:none;}
</style>
<path class="st0" d="M242,134.2l-23.2,12.3c-6-7.4-12-14.3-17.8-20.1c-20.2-20.2-39.5-33.7-58.3-43.6c-7.8-4-15.4-7.4-22.8-10.2
	c-16.6-6.2-32.1-9.5-46.2-10.9c25.1,0.5,52.5,5.3,81,16.7C183.2,89.8,213,107.6,242,134.2z"/>
<path class="st1" d="M44.6,102.6L24.3,79.3c34.2-8.3,63.1-6.4,88.5,2.2c26.6,9,50.3,25.5,68.4,46.9c-17-17.2-38.4-29.1-62-33.9
	c-4.8-1-9.6-1.8-14.6-2.2C85.3,90.8,64.9,94.1,44.6,102.6L44.6,102.6z"/>
<path class="st2" d="M146.9,113.3l-14,23.4c-11.2-5.5-36.2-18.1-63.9-16.8c-16.8,0.8-34.5,6.5-50.9,22c-3.1,2.9-5.9,6.4-8.8,10.1
	c5.4-8.8,15.6-23.2,32.3-34.2c11.7-7.6,26.6-13.5,45.4-14.8C103.6,101.9,123.5,104.5,146.9,113.3z"/>
<g>
	<path d="M61.3,146.7V164h-3.3v-8.9h-9.4v8.9h-3.3v-17.3h3.3v5.7h9.4v-5.7H61.3z"/>
</g>
<g>
	<path d="M72.9,157.7h-3.7c-1.2,0-1.8,0.5-1.8,1.4v0.4c0,0.9,0.6,1.4,1.8,1.4h3.7c1.2,0,1.8-0.5,1.8-1.4v-0.4
		C74.7,158.1,74.1,157.7,72.9,157.7z M68.3,163.5c-1.2,0-2.2-0.4-3-1.1c-0.7-0.7-1.1-1.6-1.1-2.7v-0.9c0-1.1,0.4-2,1.1-2.7
		c0.7-0.7,1.7-1.1,2.9-1.1h6.5v0c0-1-0.7-1.5-2.1-1.5h-7.4v-2.6h7.7c1.6,0,2.8,0.4,3.7,1.3c0.9,0.8,1.3,1.9,1.3,3.4v4.4
		c0,1.1-0.4,2-1.2,2.7c-0.7,0.6-1.7,1-3,1L68.3,163.5z"/>
</g>
<g>
	<path d="M86.2,150.7h2.7c1.7,0,3,0.5,4,1.5c1,1,1.5,2.4,1.5,4.1v7.4h-3.2v-7.2c0-1.1-0.2-1.8-0.6-2.3c-0.4-0.5-1.1-0.8-2-0.8h-2.1
		c-0.9,0-1.5,0.3-2,0.8c-0.3,0.4-0.5,1.2-0.5,2.3v7.2h-3.2v-7.4c0-1.7,0.5-3.1,1.5-4.1C83.2,151.2,84.5,150.7,86.2,150.7L86.2,150.7
		z"/>
</g>
<g>
	<path d="M107.2,162c-0.9,1-2,1.5-3.4,1.5h-1.7c-1.5,0-2.7-0.5-3.6-1.4c-0.8-0.9-1.2-2.1-1.2-3.7v-7.7h3.2v7.6
		c0,0.9,0.2,1.5,0.5,1.9c0.4,0.4,0.9,0.6,1.5,0.6h1c0.7,0,1.2-0.2,1.6-0.6c0.4-0.4,0.6-1,0.6-1.9v-7.6h3.1v7.6
		c0,0.9,0.2,1.5,0.5,1.9c0.4,0.4,0.9,0.6,1.5,0.6h1c0.7,0,1.2-0.2,1.6-0.6c0.4-0.4,0.6-1,0.6-1.9v-7.6h3.2v7.7
		c0,1.6-0.4,2.8-1.3,3.7c-0.9,1-2.2,1.4-3.7,1.4h-1.7C109.2,163.6,108.1,163.1,107.2,162z"/>
</g>
<path d="M125.8,153.4c-0.8,0-1.5,0.3-2,0.8c-0.3,0.4-0.5,1.2-0.5,2.2v7.1h-3.2v-16.9h3.2v4.7c0.6-0.4,1.4-0.6,2.2-0.6h2.6
	c1.7,0,3,0.5,4,1.5c1,1,1.4,2.3,1.4,4v7.3h-3.2v-7.1c0-1-0.2-1.8-0.6-2.2c-0.4-0.5-1.1-0.8-2-0.8H125.8z"/>
<g>
	<path d="M145,157.7h-3.8c-1.2,0-1.8,0.5-1.8,1.4v0.5c0,0.9,0.6,1.4,1.8,1.4h3.8c1.3,0,1.9-0.5,1.9-1.4v-0.5
		C146.9,158.2,146.3,157.7,145,157.7z M140.4,163.7c-1.3,0-2.3-0.4-3-1.1c-0.8-0.7-1.1-1.6-1.1-2.7v-0.9c0-1.1,0.4-2,1.1-2.7
		c0.8-0.7,1.7-1.1,2.9-1.1h6.6v0c0-1-0.7-1.6-2.2-1.6h-7.5v-2.6h7.8c1.6,0,2.9,0.4,3.8,1.3c0.9,0.8,1.3,2,1.3,3.4v4.5
		c0,1.1-0.4,2-1.2,2.7c-0.7,0.6-1.8,1-3.1,1H140.4z"/>
</g>
<g>
	<path d="M166.9,161h8.2v2.7h-8.7c-3.9,0-5.8-1.6-5.8-4.9v-12.1h3.2v11.6C163.8,160.1,164.8,161,166.9,161L166.9,161z"/>
</g>
<g>
	<path d="M177.8,163.5v-12.8h3.2v12.8H177.8z M181.5,148.3c0,0.5-0.2,1-0.6,1.3c-0.4,0.3-0.9,0.5-1.4,0.5c-0.6,0-1-0.2-1.4-0.5
		c-0.4-0.3-0.6-0.8-0.6-1.3c0-0.5,0.2-0.9,0.6-1.3c0.4-0.4,0.8-0.5,1.4-0.5c0.6,0,1.1,0.2,1.4,0.5
		C181.3,147.3,181.5,147.8,181.5,148.3L181.5,148.3z"/>
</g>
<g>
	<path d="M187.4,150.8h4.7v2.7h-4.7v10.1h-3.2v-12.8c0-1.2,0.4-2.2,1.3-3c0.9-0.8,2.2-1.2,4-1.2h2.6v2.7h-2.4
		C188.3,149.3,187.6,149.8,187.4,150.8L187.4,150.8z"/>
</g>
<path d="M199.6,156.8h3.8c1.2,0,1.8-0.5,1.8-1.4V155c0-1-0.6-1.4-1.8-1.4h-3.8c-1.2,0-1.8,0.5-1.8,1.4v0.5
	C197.7,156.4,198.3,156.8,199.6,156.8L199.6,156.8z M208.4,154.7v0.9c0,1.1-0.4,2-1.2,2.7c-0.8,0.7-1.8,1.1-2.9,1.1h-6.6v0.1
	c0,1,0.7,1.5,2.2,1.5h7.9v2.6h-8.2c-1.6,0-2.9-0.4-3.7-1.2c-0.9-0.8-1.3-1.9-1.3-3.4v-4.4c0-1.1,0.4-2,1.1-2.7
	c0.8-0.7,1.8-1.1,3-1.1h5.5c1.2,0,2.3,0.4,3,1.1C208,152.8,208.4,153.7,208.4,154.7L208.4,154.7z"/>
<path d="M73.9,178.2c0-1.8,0.4-3.2,1.3-4.1c0.9-0.9,2.3-1.4,4-1.4h9.9v2.7h-9.4c-1.1,0-1.8,0.3-2.2,0.8c-0.3,0.4-0.5,1.2-0.5,2.3
	v1.5h10.8v2.7H77.1v1.5c0,1.1,0.2,1.8,0.5,2.2c0.4,0.5,1.1,0.7,2.2,0.7h9.4v2.7h-9.9c-1.8,0-3.1-0.5-4-1.4c-0.9-0.9-1.3-2.2-1.3-4.1
	V178.2z"/>
<g>
	<path d="M100.8,182c1.4,0,2.4,0.2,3.1,0.7c0.9,0.6,1.3,1.5,1.3,2.7v1c0,1.2-0.4,2.1-1.3,2.7c-0.7,0.5-1.8,0.7-3.3,0.7H92v-2.7h8.3
		c1.1,0,1.6-0.3,1.6-0.9v-0.5c0-0.6-0.5-0.9-1.5-0.9h-4.3c-1.3,0-2.4-0.2-3.1-0.7c-0.9-0.6-1.3-1.5-1.3-2.7v-1
		c0-1.2,0.4-2.1,1.3-2.7c0.7-0.5,1.8-0.7,3.2-0.7h8.2v2.7h-7.9c-1,0-1.6,0.3-1.6,0.9v0.6c0,0.6,0.5,0.9,1.5,0.9L100.8,182z"/>
</g>
<g>
	<path d="M111.1,182.3v4.7h5.1c0.8,0,1.4-0.2,1.8-0.7c0.3-0.4,0.5-1.1,0.5-2v-2c0-0.9-0.2-1.6-0.5-2c-0.4-0.5-1-0.7-1.8-0.7h-2.8
		c-0.8,0-1.4,0.2-1.8,0.7C111.3,180.7,111.1,181.4,111.1,182.3L111.1,182.3z M108,182.1c0-1.6,0.5-2.9,1.4-3.8
		c0.9-0.9,2.2-1.4,3.8-1.4h3.3c1.6,0,2.9,0.5,3.8,1.4c0.9,0.9,1.4,2.2,1.4,3.8v2.3c0,1.6-0.5,2.9-1.4,3.8c-0.9,0.9-2.2,1.4-3.8,1.4
		h-5.4v4.2H108V182.1z"/>
</g>
<path d="M133.2,187.1c0.9,0,1.5-0.2,1.9-0.7c0.3-0.4,0.5-1.1,0.5-2v-2c0-0.9-0.2-1.6-0.5-2c-0.4-0.5-1-0.7-1.9-0.7H130
	c-0.9,0-1.5,0.2-1.8,0.7c-0.3,0.4-0.5,1.1-0.5,2v2c0,0.9,0.2,1.6,0.5,2c0.4,0.5,1,0.7,1.8,0.7H133.2z M133.5,189.8h-3.8
	c-1.6,0-2.9-0.5-3.8-1.4c-0.9-0.9-1.4-2.2-1.4-3.8v-2.3c0-1.6,0.5-2.9,1.4-3.8c0.9-0.9,2.2-1.4,3.8-1.4h3.8c1.6,0,2.9,0.5,3.9,1.4
	c0.9,0.9,1.4,2.2,1.4,3.8v2.3c0,1.6-0.5,2.9-1.4,3.8C136.5,189.3,135.2,189.7,133.5,189.8z"/>
<g>
	<path d="M141.6,180.9c0-1.2,0.4-2.2,1.2-3c0.8-0.7,2-1.1,3.6-1.1h4.8v2.7h-4.5c-1.3,0-2,0.6-2,1.8v8.3h-3.2V180.9z"/>
</g>
<g>
	<path d="M160.7,176.8h3.8v2.6h-3.8v10.3h-3.2v-10.3h-3.8v-2.6h3.8V174h3.2V176.8z"/>
</g>
<g>
	<path d="M176,182c1.4,0,2.4,0.2,3.1,0.7c0.9,0.6,1.3,1.5,1.3,2.7v1c0,1.2-0.4,2.1-1.3,2.7c-0.7,0.5-1.8,0.7-3.2,0.7h-8.5v-2.7h8.3
		c1.1,0,1.6-0.3,1.6-0.9v-0.5c0-0.6-0.5-0.9-1.5-0.9h-4.3c-1.3,0-2.4-0.2-3.1-0.7c-0.9-0.6-1.3-1.5-1.3-2.7v-1
		c0-1.2,0.4-2.1,1.3-2.7c0.7-0.5,1.8-0.7,3.2-0.7h8.2v2.7h-7.9c-1,0-1.6,0.3-1.6,0.9v0.6c0,0.6,0.5,0.9,1.5,0.9H176z"/>
</g>
<g id="레이어_1">
	<rect x="8" y="8" class="st3" width="234" height="234"/>
</g>
</svg>
