<?xml version="1.0" encoding="utf-8"?>
<!-- Generator: Adobe Illustrator 25.1.0, SVG Export Plug-In . SVG Version: 6.00 Build 0)  -->
<svg version="1.1" id="Layer_1" xmlns="http://www.w3.org/2000/svg" xmlns:xlink="http://www.w3.org/1999/xlink" x="0px" y="0px"
	 viewBox="0 0 250 250" style="enable-background:new 0 0 250 250;" xml:space="preserve">
<style type="text/css">
	.st0{fill:none;}
	.st1{fill:#FF0A07;}
	.st2{fill:#CC0507;}
	.st3{fill:#FFFFFF;}
</style>
<g>
	<g>
		<path d="M75.7,179.8v-10.5l0.5-0.2l0.5-0.2h1.9c3.1-0.3,5.1,1,4.8,4.2c-0.2,1-0.8,2.5-1.9,2.4c0,0,1.5,2.9,2.2,4.1l-0.2,0.3
			l-0.5,0.1c-0.6,0-1.2,0-1.8-0.1c-0.6-1.2-1.2-2.5-1.9-3.8c-0.5,0.1-0.8,0.1-1.3,0v3.2C77.6,180.1,77.4,179.8,75.7,179.8
			L75.7,179.8z M81,173c0.2-2.3-1.1-2-2.9-2c0,1,0,2,0.1,3C79.8,174,80.2,174,81,173L81,173z M97.1,173.8c-0.1-2.9,1.4-4.9,4.3-4.9
			c3.5-0.1,4.6,2.1,4.6,5.4c0.2,3.2-1.1,5.7-4.5,5.7C97.8,180.1,96.9,177,97.1,173.8z M103.6,174.3c0-1.7,0-3.4-2.1-3.4
			c-1.7-0.1-1.9,1.3-2,2.8c-0.2,1.8-0.2,4.4,2.2,4.2C103.6,177.7,103.6,176,103.6,174.3z M119.3,178.7v-4.5v-4.5l0.7-0.7h1.9v8.8
			c0,0,3.6,0.1,4.8-0.2c0,0.6,0,1.2,0.1,1.9c-0.2,0.5-0.8,0.5-6.6,0.5C119,179.1,119.3,178.7,119.3,178.7L119.3,178.7z M140,178.8
			c0-0.6-0.2-1.5,0.2-1.6c1,0.4,4.6,1.5,4.6-0.4c0-1.1-1.5-1.5-2.3-1.9c-3.5-1.5-3.4-4.8-0.1-5.9c1.9,0,2.8-0.1,4.2-0.3
			c0,0.8,0,1.6-0.1,1.9c-0.9,0.8-3.3-0.4-4,1.3c0.5,1.5,4.5,1.4,4.8,4.2c0,2.7-1.2,3.8-4.2,3.8C141.8,180,140.4,179.7,140,178.8
			L140,178.8z M163.6,179.8V171c0,0-2.1,0-3,0c0-0.8-0.3-1.5,0.3-2c2.4,0,5.7-0.1,8.2-0.1c-0.1,0.7,0.2,1.3-0.2,1.8
			c-0.5,0.5-1.3,0.3-2.8,0.3l0.1,8.4C165.7,180.1,164.6,179.8,163.6,179.8L163.6,179.8z M182.6,179.3v-9.7l0.9-0.6
			c2,0,5.4,0.2,6.1-0.3c0.5-0.2,0.4,0.2,0.4,1.1c0.1,0.7-0.2,0.8-0.6,1.2h-4.2v1.2v1h4.4c0,0,0.4,2.1-0.5,2.2h-3.8
			c0,0-0.1,1.5-0.1,2.3h2.5c0,0,1.7,0.1,2.5-0.2v1c0,0.8,0.2,0.9-0.7,1.2c-1,0.3-3.4,0.2-5.4,0.2
			C183.4,179.9,182.6,179.6,182.6,179.3L182.6,179.3z M203.3,179.5c-0.1-3.5,0.1-6.9,0-10.3c1.2-0.2,2.3-0.4,3.7-0.5
			c2.3,0.2,3.9,0.7,4.3,2.7c0.1,2.2-0.2,3.1-1.6,4.1c0.5,1.4,1.2,2.7,1.9,4c-0.2,0.5-0.6,0.3-1.5,0.4c-0.5,0-0.8-0.2-1.2-0.4
			l-1.6-3.5c-0.5,0.1-0.9,0.1-1.4,0v1.9l-0.1,1.7C204.5,180.1,204.3,180.1,203.3,179.5L203.3,179.5z M208.7,172.4
			c0-1.7-1.2-1.5-2.9-1.3v2.9C208.2,174.2,208.7,173.5,208.7,172.4z"/>
		<path d="M150.8,208.3v-17.5c0,0-4.9,0-3.4,0c-0.8,0-1.5,0.9-1.4,1.1c-0.1-1,0,17.4,0,17.4c0,2.6,1.8,4.4,4.4,4.4h3.7
			c0.8,0,1.5-0.6,1.5-1.5v-2.5h-3.5C151.4,209.6,150.8,209,150.8,208.3 M137.3,204.4l4-4.9c0,0-2.7-1.6-7.6,2.2l-0.5,0.5v-11.3h-3.4
			c-0.8,0-1.5,0.6-1.5,1.5v21.4h3.4c0.8,0,1.5-0.6,1.5-1.5v-5.7l2.8,3.4l2.3,2.9c0.5,0.6,1.1,0.8,1.7,0.8h4.8l-3.1-3.8L137.3,204.4z
			"/>
		<path class="st0" d="M139.8,200.6l-1.2,1.2h-4.3l1.2-1.2H139.8z"/>
		<path class="st1" d="M156.4,198.3v-3.2l-0.3,0.3c0,0-0.9,0.9-3.5,0.9h-12.3c-1.9,0-2.9,0.8-3.5,1.6l-2.9,3.6c0,0,1.5-1.1,3.5-1.1
			h15.4c1.7,0,2.9-0.3,3.5-1C156.5,199.1,156.4,198.3,156.4,198.3"/>
		<path class="st0" d="M150.4,200.6v1.2h-4v-1.2H150.4z"/>
	</g>
	<g>
		<path class="st1" d="M75,157.8v-0.2l-0.3-46.4l-22.7,16.5l8.7-26.8L37.6,84.1l28.3,0.2l5.4-16.1L47.6,36l100.8,0.2
			c21.7,1.5,38.9,21.3,38.1,42.9c0,14.8-9.1,25.3-12.9,29.3l36.8,49.5l-43.9,0.1L138,120c0,0-16.6-0.1-24.8-0.1V158H75V157.8z
			 M150.6,78.2c0-3.2-2.5-6.2-6.8-6.2H79.7l4,12.3h60.1C148.4,84.1,150.6,81.3,150.6,78.2L150.6,78.2z"/>
		<path class="st2" d="M138,119.9c12.3,0,20.7,0.8,35.6-11.5l2.9,4c-13.2,12.2-25.8,11.9-35.4,11.9L138,119.9z"/>
		<path class="st3" d="M60.8,115.1l5.3-16.3L52.3,88.5h17.2l5.4-16.3l5.4,16.3l17.1,0.2l-13.9,10l5.2,16.4l-14-10.2L60.8,115.1z"/>
	</g>
	<g id="레이어_1">
		<rect x="34.8" y="34.8" class="st0" width="180.4" height="180.4"/>
	</g>
</g>
<rect x="8" y="34.8" class="st0" width="234" height="180.4"/>
</svg>
