<?xml version="1.0" encoding="utf-8"?>
<!-- Generator: Adobe Illustrator 25.1.0, SVG Export Plug-In . SVG Version: 6.00 Build 0)  -->
<svg version="1.1" id="Layer_1" xmlns="http://www.w3.org/2000/svg" xmlns:xlink="http://www.w3.org/1999/xlink" x="0px" y="0px"
	 viewBox="0 0 250 250" style="enable-background:new 0 0 250 250;" xml:space="preserve">
<style type="text/css">
	.st0{fill:none;}
	.st1{fill:#FF0A07;}
	.st2{fill:#CC0507;}
	.st3{fill:#FFFFFF;}
</style>
<g>
	<path d="M61,196.1v-13.6l0.7-0.3l0.7-0.3l2.4,0c4-0.4,6.6,1.3,6.2,5.4c-0.2,1.3-1,3.3-2.4,3.1c0,0,2,3.8,2.8,5.3l-0.2,0.4l-0.6,0.1
		c-0.8,0-1.6,0-2.3-0.1c-0.8-1.6-1.6-3.3-2.4-4.9c-0.6,0.1-1.1,0.1-1.7,0v4.2C63.5,196.5,63.3,196.1,61,196.1L61,196.1z M67.9,187.2
		c0.3-3-1.4-2.6-3.7-2.6c0,1.3,0,2.6,0.1,3.9C66.4,188.6,66.9,188.5,67.9,187.2L67.9,187.2z M88.8,188.3c-0.1-3.7,1.8-6.3,5.6-6.4
		c4.6-0.1,6,2.7,6,7c0.2,4.1-1.4,7.4-5.8,7.4C89.7,196.5,88.6,192.4,88.8,188.3z M97.2,189c0-2.2,0-4.4-2.7-4.4
		c-2.2-0.1-2.5,1.7-2.6,3.6c-0.2,2.3-0.2,5.7,2.8,5.4C97.2,193.4,97.2,191.1,97.2,189z M117.6,194.6l0-5.9l0-5.9l0.9-0.9l2.4,0
		l0,11.4c0,0,4.7,0.1,6.2-0.2c0,0.8,0,1.6,0.1,2.4c-0.3,0.7-1.1,0.6-8.5,0.6C117.2,195.2,117.6,194.6,117.6,194.6L117.6,194.6z
		 M144.4,194.8c0-0.8-0.2-1.9,0.3-2.1c1.3,0.5,6,2,6-0.5c0-1.4-2-1.9-3-2.4c-4.5-1.9-4.4-6.2-0.1-7.7c2.4,0,3.6-0.1,5.4-0.4
		c0,1,0,2.1-0.1,2.5c-1.2,1.1-4.3-0.5-5.2,1.7c0.6,2,5.8,1.8,6.2,5.4c0,3.5-1.5,4.9-5.5,4.9C146.8,196.3,145,196,144.4,194.8
		L144.4,194.8z M175.1,196.1l0-11.5c0,0-2.7,0-3.9,0c0-1.1-0.4-2,0.4-2.6c3.1,0,7.4-0.1,10.6-0.1c-0.1,0.9,0.3,1.7-0.3,2.3
		c-0.7,0.6-1.7,0.4-3.6,0.4l0.1,10.9C177.8,196.5,176.4,196.1,175.1,196.1L175.1,196.1z M199.7,195.4v-12.6l1.2-0.8
		c2.6,0,7,0.2,7.9-0.4c0.6-0.3,0.5,0.2,0.5,1.4c0.1,0.9-0.3,1-0.8,1.6l-5.5,0l0,1.6l0,1.3l5.7,0c0,0,0.5,2.7-0.6,2.8l-4.9,0
		c0,0-0.1,2-0.1,3h3.2c0,0,2.2,0.1,3.2-0.3l0,1.3c0,1.1,0.3,1.2-0.9,1.6c-1.3,0.4-4.4,0.2-7,0.3
		C200.7,196.2,199.7,195.8,199.7,195.4L199.7,195.4z M226.5,195.7c-0.1-4.5,0.1-8.9,0-13.4c1.6-0.3,3-0.5,4.8-0.6
		c3,0.2,5.1,0.9,5.6,3.5c0.1,2.9-0.3,4-2.1,5.3c0.7,1.8,1.5,3.5,2.4,5.2c-0.2,0.6-0.8,0.4-1.9,0.5c-0.7,0-1.1-0.2-1.5-0.5l-2.1-4.6
		c-0.6,0.1-1.2,0.1-1.8,0l0,2.4l-0.1,2.2C228.1,196.4,227.8,196.5,226.5,195.7L226.5,195.7z M233.5,186.5c0-2.2-1.6-1.9-3.7-1.7
		l0,3.8C232.9,188.8,233.5,187.9,233.5,186.5z"/>
	<path d="M158.5,233v-22.7c0,0-6.4,0-4.4,0c-1.1,0-1.9,1.2-1.8,1.4c-0.1-1.3,0,22.6,0,22.6c0,3.4,2.3,5.7,5.7,5.7h4.8
		c1,0,1.9-0.8,1.9-1.9v-3.3h-4.5C159.3,234.7,158.5,233.9,158.5,233 M140.9,228l5.2-6.4c0,0-3.5-2.1-9.9,2.8l-0.6,0.7v-14.6h-4.4
		c-1,0-1.9,0.8-1.9,1.9v27.7h4.4c1,0,1.9-0.8,1.9-1.9v-7.4l3.6,4.4l3,3.7c0.6,0.8,1.4,1.1,2.2,1.1h6.2l-4-4.9L140.9,228z"/>
	<path class="st0" d="M144.2,223l-1.6,1.6H137l1.6-1.6H144.2z"/>
	<path class="st1" d="M165.7,220.1l0-4.2l-0.4,0.4c0,0-1.2,1.2-4.6,1.2h-16c-2.5,0-3.7,1-4.6,2.1l-3.8,4.7c0,0,1.9-1.4,4.5-1.4h20
		c2.2,0,3.7-0.4,4.5-1.3C165.8,221.1,165.7,220.1,165.7,220.1"/>
	<path class="st0" d="M157.9,223v1.6h-5.2V223H157.9z"/>
</g>
<g>
	<path class="st1" d="M60.1,167.5l0-0.2l-0.4-60.2l-29.5,21.4l11.3-34.8L11.6,71.9l36.7,0.2l7-20.9L24.6,9.6l130.7,0.3
		c28.1,2,50.4,27.6,49.4,55.6c0,19.2-11.8,32.8-16.7,38l47.7,64.2l-57,0.1l-36.8-49.3c0,0-21.5-0.1-32.2-0.1v49.4H60.1L60.1,167.5z
		 M158.2,64.3c0-4.2-3.2-8.1-8.8-8.1H66.2l5.2,15.9l78,0C155.4,72,158.2,68.3,158.2,64.3L158.2,64.3z"/>
	<path class="st2" d="M141.9,118.4c16,0,26.9,1,46.2-14.9l3.8,5.2c-17.1,15.8-33.5,15.4-45.9,15.4L141.9,118.4z"/>
	<path class="st3" d="M41.8,112.2L48.7,91l-18-13.3l22.3,0l7-21.2l7,21.2l22.2,0.3L71.2,91l6.8,21.3L59.8,99.1L41.8,112.2z"/>
</g>
<g id="레이어_1">
	<rect x="8" y="8" class="st0" width="234" height="234"/>
</g>
</svg>
