<?xml version="1.0" encoding="utf-8"?>
<!-- Generator: Adobe Illustrator 25.1.0, SVG Export Plug-In . SVG Version: 6.00 Build 0)  -->
<svg version="1.1" id="Layer_1" xmlns="http://www.w3.org/2000/svg" xmlns:xlink="http://www.w3.org/1999/xlink" x="0px" y="0px"
	 viewBox="0 0 250 250" style="enable-background:new 0 0 250 250;" xml:space="preserve">
<style type="text/css">
	.st0{fill:#EC1B24;}
	.st1{fill:#FFFFFF;}
	.st2{fill:#EC1B24;stroke:#FBE1E7;stroke-width:0.9449;stroke-miterlimit:15.1181;}
	.st3{fill:none;}
</style>
<g>
	<path d="M58.3,104l42.5-0.9l14.9-25.6l17.7,42.9l17.1-18.2l43.1,5.7c-0.2,13.5,0.2,22.3-0.2,30.7c-0.9,16.6-7.6,31.9-16.2,42.6
		c-2.5,3-4.3,5.2-8,8.7c-8,7.5-15.4,11.7-24.2,16.7c-11.9,6.7-12.7,7.7-19.6,11.4c-11.6-6.7-24.4-13.8-32.7-19.2
		c-3.8-2.5-6.9-5-9.3-7.2c-9.7-8.7-15.2-17.9-17-21.2c-6-11-9.1-25.8-9-32.7l-0.2-29.5L58.3,104z"/>
	<path class="st0" d="M125.2,34.8c-3.8,3.7-9.1,6.7-15.2,9.2c-17.5,7.2-41.2,9.8-52.9,9.5L57.1,99l41.9,2.9l15.8-27.7l20.9,48.1
		l14.2-18.1l43.5-0.1l0.1-50.8c-5.1,0.2-11.5-0.2-18.4-0.9c-11.4-1.3-24.4-4.1-35.9-9.1C134,41.1,127.8,37.7,125.2,34.8L125.2,34.8z
		"/>
	<path class="st1" d="M57.1,99v9.1h47.6l9.7-25.1l21.7,55.8l12-30.8l45.3,0.1v-9.1L142.1,99l-5.9,15l-21.8-55.6L98.5,99.1L57.1,99z"
		/>
	<g>
		<path class="st2" d="M85.2,150.9l-0.1,18.4h5l0.1-13.2H104c1.3,0,1.5,1.1,1.5,1.6H91.8v5l10.1,6.7l9.2-0.1l-10-6.5h9.4l0.1-5.7
			c0-2.3-2.9-6-6.4-6L85.2,150.9z M113.6,150.8l24.4,0.1L138,156l-19.3,0.1l-0.1,1.5h19.3v5l-19.3,0.1l0.1,1.6H138l0.1,5h-24.4
			L113.6,150.8z M141,150.9v5l18.8,0.1l1.6,4.2l-1.6,4.1h-13.7v-6.6h-5.2l0.1,11.7h22.3l3.5-9.2l-3.5-9.2L141,150.9z M85.1,172.4v8
			h1.6v-2.9H94v-1.6h-7.2V174H94v-1.5L85.1,172.4L85.1,172.4z M103.3,172.4l0.1,8.1l8.7-0.1v-8H103.3z M105,174h5.6v4.9H105V174z"/>
		<path class="st2" d="M121.6,172.4v8h1.5V174l4.4-0.1c0.9,0,1.2,0.7,1.2,1.5l-4.5,0.1v1.5l4.1,3.6h2.4l-3.9-3.4l3.5-0.1v-1.9
			c0-1.3-1.6-2.6-2.6-2.6H121.6z"/>
		<path class="st2" d="M139.8,172.4h8.7v1.5h-7.3v5h7.3v1.5h-8.7V172.4z M158.1,172.4h8.7v1.5h-7.3v1.6h7.3v1.5h-7.3v1.7h7.3v1.5
			H158L158.1,172.4z"/>
	</g>
</g>
<g id="레이어_1">
	<rect x="8" y="8" class="st3" width="234" height="234"/>
</g>
<rect x="8" y="34.8" class="st3" width="234" height="180.4"/>
</svg>
