<?xml version="1.0" encoding="utf-8"?>
<!-- Generator: Adobe Illustrator 25.1.0, SVG Export Plug-In . SVG Version: 6.00 Build 0)  -->
<svg version="1.1" id="Layer_1" xmlns="http://www.w3.org/2000/svg" xmlns:xlink="http://www.w3.org/1999/xlink" x="0px" y="0px"
	 viewBox="0 0 250 250" style="enable-background:new 0 0 250 250;" xml:space="preserve">
<style type="text/css">
	.st0{fill:#EC1B24;}
	.st1{fill:#FFFFFF;}
	.st2{fill:#EC1B24;stroke:#FBE1E7;stroke-width:0.9449;stroke-miterlimit:15.1181;}
	.st3{fill:none;}
</style>
<g>
	<path d="M38.7,97.4l54.9-1.1l19.2-33.1l22.9,55.4l22.1-23.5l55.7,7.4c-0.2,17.4,0.3,28.8-0.3,39.7c-1.2,21.5-9.8,41.2-21,55
		c-3.2,3.9-5.5,6.7-10.3,11.2c-10.4,9.7-19.9,15.1-31.3,21.6c-15.4,8.7-16.4,9.9-25.3,14.7c-15-8.7-31.5-17.8-42.3-24.8
		c-4.9-3.2-8.9-6.5-12-9.3c-12.5-11.2-19.6-23.1-22-27.4c-7.8-14.2-11.8-33.4-11.6-42.3l-0.2-38.1L38.7,97.4z"/>
	<path class="st0" d="M125.2,8c-4.9,4.8-11.8,8.6-19.6,11.9c-22.6,9.3-53.2,12.7-68.4,12.3L37.1,91l54.2,3.8L111.7,59l27,62.2
		l18.4-23.4l56.2-0.1l0.1-65.6c-6.6,0.3-14.8-0.2-23.8-1.2c-14.7-1.7-31.5-5.3-46.4-11.8C136.6,16.1,128.5,11.8,125.2,8L125.2,8z"/>
	<path class="st1" d="M37.2,91l0,11.7l61.5,0l12.6-32.5l28.1,72.1l15.5-39.8l58.5,0.1V90.8L147,91l-7.6,19.4l-28.2-71.9L90.6,91.1
		L37.2,91z"/>
	<g>
		<path class="st2" d="M73.5,158.1l-0.1,23.8l6.4,0l0.1-17.1l17.9,0c1.7,0,2,1.4,1.9,2.1l-17.7,0v6.5l13.1,8.6l11.9-0.1l-12.9-8.4
			l12.1,0l0.1-7.4c0-3-3.7-7.8-8.3-7.8L73.5,158.1z M110.2,158l31.6,0.1l-0.1,6.6l-24.9,0.1l-0.1,2h24.9v6.5l-24.9,0.1l0.1,2.1h24.9
			l0.1,6.5h-31.5L110.2,158z M145.6,158.1v6.5l24.3,0.1l2.1,5.4l-2.1,5.3l-17.7,0l0-8.5l-6.7,0l0.1,15.1l28.8,0l4.5-11.9l-4.5-11.9
			L145.6,158.1z M73.4,185.9l0,10.3h2.1l0-3.7l9.4,0l0-2.1l-9.3,0V188l9.3,0l0-2H73.4z M96.9,185.9l0.1,10.5l11.3-0.1l0-10.4
			L96.9,185.9z M99,188l7.3,0v6.3l-7.3,0L99,188z"/>
		<path class="st2" d="M120.5,185.9l0,10.4l1.9,0l0-8.4l5.7-0.1c1.1,0,1.6,0.9,1.6,1.9l-5.8,0.1l0,1.9l5.3,4.6l3.1,0l-5.1-4.4
			l4.5-0.1l0-2.5c0-1.7-2.1-3.4-3.3-3.4L120.5,185.9z"/>
		<path class="st2" d="M144.1,185.9h11.3v2l-9.4,0l0,6.4l9.4,0l0,2h-11.3V185.9z M167.7,185.9l11.3,0v2h-9.4l0,2.1l9.4,0l0,2h-9.4
			l0,2.2l9.4,0l0,1.9h-11.4L167.7,185.9z"/>
	</g>
</g>
<g id="레이어_1">
	<rect x="8" y="8" class="st3" width="234" height="234"/>
</g>
</svg>
