<?xml version="1.0" encoding="utf-8"?>
<!-- Generator: Adobe Illustrator 25.1.0, SVG Export Plug-In . SVG Version: 6.00 Build 0)  -->
<svg version="1.1" id="Layer_1" xmlns="http://www.w3.org/2000/svg" xmlns:xlink="http://www.w3.org/1999/xlink" x="0px" y="0px"
	 viewBox="0 0 250 250" style="enable-background:new 0 0 250 250;" xml:space="preserve">
<style type="text/css">
	.st0{fill:#03492D;}
	.st1{fill:none;}
</style>
<g>
	<g>
		<path class="st0" d="M78.3,35.1L98.6,88l-30.4,6.8l60.2,54.9l60.1-54.8L158.3,88l20.2-53.2l-50,32.2L78.3,35.1z M84,42.2
			l44.5,29.4l44.2-29.1l-18.2,47.9l28.1,6.4l-54.2,49.2L74.2,96.7l28.2-6.3L84,42.2z"/>
		<path class="st0" d="M82.5,39.5l17.8,49.2L71,96.2l57.6,51.3l57-51.3l-28.1-6.8l17.3-49.7l-46.7,29.4L82.5,39.5z M89.3,48.3
			l8.3,5.5l16,41.6l-19.9,4.5l-11.6-2.6l23.5-5.5L89.3,48.3z M167.4,48.5l-16.4,43.2l23.6,5.6l-11.3,2.5l-19.9-4.4l15.9-41.7
			L167.4,48.5z M100.7,55.9l26.5,17.8v55.5l-6.5-5.6V77.1l-16.4-11.8L100.7,55.9z M156.1,56.1l-3.4,9.2L136,77.2l0.1,46.7l-6.5,5.7
			V73.7L156.1,56.1z M81.6,99.6l11.5,2.6l34.1,30.4l-0.1,8.5L81.6,99.6z M175.2,99.7l-45.5,41.5l-0.1-8.5l34.1-30.5L175.2,99.7z"/>
		<path class="st0" d="M113.5,192.6c-3.3,0-9.3-0.1-14.1-0.2v18.1l14.6,0.1c0.1-0.1,2.9-0.1,4.4-2c0.7-0.9,0.8-1.6,0.9-2.9
			c0.1-1.3-0.3-2.5-0.9-3.3c-0.5-0.8-1.2-1.2-1.4-1.2c0,0,1.9-1.5,1.6-4.2C118.2,194,116.2,192.5,113.5,192.6 M103.2,196.3h9.8
			c0-0.1,1.9,0.2,2,1.6c-0.1,1.6-1.6,1.7-1.9,1.7h-10L103.2,196.3z M113.7,203.2c0.7,0.1,1.9,0.2,2,1.9c0.1,1.4-1.5,1.7-1.7,1.7
			l-10.8,0.1v-3.8h9.8C113.1,203.1,113.6,203.1,113.7,203.2L113.7,203.2z M137.5,192.5h-0.2l-13.6,0.1l0.2,18.1l3.6,0.1l-0.1-6.4
			h7.3l4.4,6.5h4.3l-4.3-7c0,0,3.9-0.7,3.8-5.5c-0.1-5.1-4.3-5.7-4.8-5.8L137.5,192.5z M127.3,196.3h9.3c0.2,0,2.3-0.2,2.4,2.1
			c-0.1,2.1-2,2-2.2,2l-9.4,0.1L127.3,196.3z"/>
		<path class="st0" d="M146.7,192.4h3.5v18.1h-3.5V192.4z"/>
		<path class="st0" d="M165.2,192.1c-0.1,0-0.2,0-0.2,0c-6.3-0.2-10.9,3.7-11,9.7c0.2,6.3,5.3,9.6,10.9,9.6c6.9,0,10.9-4.7,11.1-9.3
			C176,195.4,170.9,192.1,165.2,192.1 M172,201.6c0.1,3-3.3,5.8-7.2,5.8c-3.9,0-6.6-2.5-6.6-6.2c0.1-3.6,2.7-5.3,6.9-5.4
			C169.1,195.9,171.9,198.5,172,201.6 M179.9,192.5l-0.2,18.1h4.1l-0.1-12.7l11.5,12.9h4.1v-18.3h-4.1v12.6l-11.4-12.7L179.9,192.5z
			"/>
	</g>
	<path class="st0" d="M67.3,147.8c-9,0-16.4,7.3-16.4,16.3c0,9,7.3,16.3,16.4,16.3l0,0c9,0,16.4-7.3,16.4-16.3l0,0
		C83.8,155.1,76.4,147.8,67.3,147.8 M67.5,157.2c3.8,0,6.9,3.1,7,6.9l0,0c0,3.8-3.1,6.9-6.9,6.9s-6.9-3.1-7-6.9
		C60.5,160.4,63.7,157.2,67.5,157.2L67.5,157.2"/>
	<path class="st0" d="M47.1,183.3l39.9,0.1c6.2,0,6.6,9.4,0.1,9.4H47.9C41.3,192.8,40.8,183.3,47.1,183.3 M64.8,194.6
		c1.4-1.2,4.4-1.2,5.7,0.1l11.9,11.8c5.1,5-1.4,11.3-5.9,7.7l-9-9l-8.8,8.9c-4.4,3.7-10.8-2.6-7.3-6.7L64.8,194.6z M99,163.6V184
		c0,3,5.9,3.2,6,0.1l-0.1-15c0.2-4.8,8.7-5.1,8.7-0.2V184c-0.1,3.3,5.9,3.3,5.9,0l0.2-14.9c0.1-5.1,8.6-5.5,8.7,0.2v14.8
		c0,3,6.1,2.8,5.9-0.1l0.2-14.8c0-10.1-12-13.3-17.6-7.3c-2.5-1.7-7.2-5.1-12.2-1.8c-1.7-2.3-5.8-0.9-5.7,1.3L99,163.6z"/>
	<path class="st0" d="M163.8,159c-1.4,0-3.2,0.8-3.3,2.6c-11.7-7.6-22,2.6-22.1,11.6c-0.1,10,11.1,18.5,22.6,11.6
		c0.1,2.8,5.6,2.6,5.6-0.9V162C166.6,160.4,165.4,159,163.8,159 M152.4,165c4.7,0,8.3,3.8,8.3,8.5l0,0c0,4.7-3.4,7.6-8.1,7.6
		c-4.7,0-8.1-3.1-8.1-7.8C144.4,168.7,147.7,165,152.4,165z"/>
	<path class="st0" d="M170.9,163c-0.1-4.7,5.6-5.5,6.5-1.3c9.2-7.9,22,1.2,21.8,11l-0.1,11.7c0.1,3.2-5.8,3.1-5.8,0l0.1-10.9
		c0.1-9.9-15.4-11.6-16.1-0.4l-0.1,11c-0.1,3.4-6.2,3.1-6.1-0.1L170.9,163z"/>
</g>
<g id="레이어_1">
	<rect x="8" y="8" class="st1" width="234" height="234"/>
</g>
<rect x="8" y="34.8" class="st1" width="234" height="180.4"/>
</svg>
