<?xml version="1.0" encoding="utf-8"?>
<!-- Generator: Adobe Illustrator 25.1.0, SVG Export Plug-In . SVG Version: 6.00 Build 0)  -->
<svg version="1.1" id="Layer_1" xmlns="http://www.w3.org/2000/svg" xmlns:xlink="http://www.w3.org/1999/xlink" x="0px" y="0px"
	 viewBox="0 0 250 250" style="enable-background:new 0 0 250 250;" xml:space="preserve">
<style type="text/css">
	.st0{fill:#03492D;}
	.st1{fill:none;}
</style>
<g>
	<g>
		<path class="st0" d="M66.2,9.6l26.1,67.9l-39,8.7l77.3,70.5l77.2-70.3l-38.9-8.9l25.9-68.3l-64.2,41.3L66.2,9.6z M73.5,18.7
			l57.1,37.7L187.3,19L164,80.5l36.1,8.2l-69.6,63.2L60.9,88.7l36.2-8.1L73.5,18.7z"/>
		<path class="st0" d="M71.6,15.2l22.9,63.1l-37.7,9.8l73.9,65.9l73.2-65.9l-36.1-8.7L190,15.6l-59.9,37.7L71.6,15.2z M80.3,26.6
			l10.7,7l20.5,53.4L86,92.8l-14.9-3.3l30.2-7.1L80.3,26.6z M180.6,26.8l-21,55.5l30.3,7.2l-14.5,3.2l-25.6-5.7l20.4-53.5
			L180.6,26.8z M95,36.3L129,59.1l0,71.2l-8.4-7.2l0-59.6l-21-15.2L95,36.3z M166,36.5l-4.4,11.8l-21.3,15.3l0.1,59.9l-8.3,7.3
			l0-71.6L166,36.5z M70.4,92.4l14.8,3.3l43.8,39l-0.1,10.9L70.4,92.4z M190.6,92.5l-58.4,53.3l-0.1-10.9l43.8-39.1L190.6,92.5z"/>
		<path class="st0" d="M111.4,211.8c-4.3,0-12-0.1-18.1-0.2l0,23.2l18.8,0.1c0.1-0.1,3.7-0.1,5.6-2.6c0.9-1.1,1-2.1,1.2-3.7
			c0.1-1.7-0.4-3.2-1.1-4.2c-0.7-1-1.6-1.5-1.8-1.6c0,0,2.4-1.9,2-5.4C117.4,213.6,114.8,211.6,111.4,211.8 M98.2,216.5l12.6,0
			c0-0.1,2.5,0.3,2.6,2c-0.1,2-2,2.2-2.5,2.2H98.1L98.2,216.5z M111.6,225.4c0.9,0.1,2.5,0.2,2.6,2.5c0.1,1.8-1.9,2.2-2.2,2.2
			l-13.8,0.1v-4.9h12.6C110.9,225.3,111.5,225.3,111.6,225.4L111.6,225.4z M142.2,211.6c0,0-0.3,0-0.3,0l-17.4,0.1l0.2,23.2l4.6,0.1
			l-0.1-8.2l9.4,0l5.6,8.4l5.5,0l-5.5-9c0,0,5-0.9,4.9-7c-0.1-6.5-5.5-7.3-6.2-7.4L142.2,211.6z M129.1,216.5H141
			c0.3,0,3-0.2,3.1,2.7c-0.1,2.7-2.6,2.6-2.8,2.6l-12.1,0.1L129.1,216.5z"/>
		<path class="st0" d="M154,211.5h4.5v23.2H154V211.5z"/>
		<path class="st0" d="M177.8,211.2c-0.1,0-0.2,0-0.3,0c-8.1-0.3-14,4.7-14.1,12.4c0.2,8.1,6.8,12.3,14,12.3c8.9,0,14-6,14.2-11.9
			C191.6,215.4,185.1,211.2,177.8,211.2 M186.5,223.4c0.1,3.9-4.2,7.4-9.2,7.5c-5,0-8.5-3.2-8.5-7.9c0.1-4.6,3.5-6.8,8.8-6.9
			C182.8,216,186.4,219.4,186.5,223.4 M196.6,211.7l-0.2,23.2l5.3,0l-0.1-16.3l14.8,16.5l5.2,0l0-23.5l-5.2,0l0,16.2l-14.6-16.3
			L196.6,211.7z"/>
	</g>
	<path class="st0" d="M52.1,154.3c-11.6,0-21.1,9.4-21.1,20.9c0,11.5,9.4,20.9,21.1,20.9c0,0,0,0,0,0c11.6,0,21.1-9.4,21.1-20.9v0
		C73.2,163.6,63.7,154.3,52.1,154.3 M52.3,166.4c4.9,0,8.9,4,9,8.9v0c0,4.9-4,8.9-8.9,8.9c-4.9,0-8.9-4-9-8.9
		C43.3,170.4,47.4,166.4,52.3,166.4C52.3,166.4,52.3,166.4,52.3,166.4"/>
	<path class="st0" d="M26.1,199.9l51.2,0.1c8,0,8.5,12.1,0.1,12.1H27.1C18.7,212.1,18,199.8,26.1,199.9 M48.9,214.3
		c1.8-1.6,5.6-1.5,7.3,0.1l15.3,15.1c6.5,6.4-1.8,14.5-7.6,9.9l-11.6-11.5l-11.3,11.4c-5.6,4.7-13.8-3.3-9.4-8.6L48.9,214.3z
		 M92.7,174.6l0,26.2c0,3.9,7.6,4.1,7.7,0.1l-0.1-19.3c0.2-6.1,11.2-6.6,11.2-0.2v19.4c-0.1,4.2,7.6,4.3,7.6,0l0.2-19.1
		c0.1-6.6,11-7.1,11.2,0.3V201c0,3.8,7.8,3.6,7.6-0.1l0.2-19c0-13-15.4-17.1-22.6-9.4c-3.2-2.2-9.2-6.5-15.7-2.3
		c-2.2-3-7.5-1.2-7.3,1.7L92.7,174.6z"/>
	<path class="st0" d="M175.9,168.6c-1.8,0-4.1,1-4.2,3.3c-15-9.7-28.3,3.3-28.4,14.9c-0.1,12.9,14.3,23.8,29,14.9
		c0.1,3.6,7.2,3.3,7.2-1.1l0-28.1C179.5,170.5,178,168.6,175.9,168.6 M161.3,176.3c6,0,10.6,4.9,10.6,10.9v0c0,6-4.4,9.8-10.4,9.8
		c-6,0-10.4-4-10.4-10C151.1,181.1,155.3,176.3,161.3,176.3z"/>
	<path class="st0" d="M185.1,173.8c-0.1-6,7.2-7.1,8.4-1.7c11.8-10.1,28.3,1.6,28,14.1l-0.1,15c0.1,4.1-7.5,4-7.5,0l0.1-14
		c0.1-12.7-19.8-14.9-20.7-0.5l-0.1,14.1c-0.1,4.4-7.9,4-7.8-0.1L185.1,173.8z"/>
</g>
<g id="레이어_1">
	<rect x="8" y="8" class="st1" width="234" height="234"/>
</g>
</svg>
