<?xml version="1.0" encoding="utf-8"?>
<!-- Generator: Adobe Illustrator 25.1.0, SVG Export Plug-In . SVG Version: 6.00 Build 0)  -->
<svg version="1.1" id="Layer_1" xmlns="http://www.w3.org/2000/svg" xmlns:xlink="http://www.w3.org/1999/xlink" x="0px" y="0px"
	 viewBox="0 0 250 250" style="enable-background:new 0 0 250 250;" xml:space="preserve">
<style type="text/css">
	.st0{fill:#E2012D;}
</style>
<g>
	<path class="st0" d="M11.1,80.1h190.8c-0.3,0.5-0.6,0.8-0.9,1.2c-0.1,0.1-0.2,0.3-0.3,0.4l-0.2,0.2c-0.2,0.3-0.4,0.5-0.6,0.8
		c-1.1,1.3-2.2,2.6-3.5,3.8c-0.2,0.2-0.5,0.5-0.7,0.7c-0.7,0.7-1.5,1.5-2.3,2.1c-0.3,0.2-0.5,0.4-0.8,0.7c-0.5,0.4-1,0.8-1.5,1.2
		l-0.3,0.2c-1.5,1.1-3,2.1-4.6,3l-0.3,0.2c-4.1,2.3-8.7,4.1-13.4,4.8c-0.9,0.1-1.4,0.5-2,1.3c-0.3,0.4-0.6,0.9-0.9,1.3
		c-0.5,0.8-1,1.6-1.6,2.3c-0.3,0.4-0.6,0.9-0.9,1.3l-0.4,0.6l-0.2,0.3c-0.3,0.4-0.5,0.8-0.8,1.2c-0.1,0.2-0.3,0.4-0.4,0.7
		c-0.3,0.4-0.6,0.9-0.9,1.3c-0.2,0.4-0.5,0.7-0.7,1.1c-0.6,0.9-1.2,1.7-1.8,2.6c-0.7,0.9-1.3,1.9-2,2.9c-0.6,0.9-1.2,1.7-1.8,2.6
		c-0.6,0.9-1.3,1.9-1.9,2.8c-0.7,1.1-1.5,2.2-2.3,3.3c-0.7,1.1-1.5,2.1-2.2,3.2c-0.7,1.1-1.5,2.2-2.3,3.3c-0.7,1.1-1.5,2.1-2.2,3.2
		c-0.7,1.1-1.5,2.2-2.3,3.3c-0.7,1.1-1.5,2.1-2.2,3.2c-0.7,1.1-1.5,2.2-2.3,3.3c-0.7,1.1-1.5,2.1-2.2,3.2c-0.7,1.1-1.5,2.2-2.3,3.3
		c-0.7,1.1-1.5,2.1-2.2,3.2c-0.5,0.7-1,1.4-1.5,2.1c-0.1,0.2-0.3,0.4-0.4,0.6c-0.6,0.9-1.2,1.7-1.8,2.6c-0.8,1.2-1.6,2.3-2.4,3.5
		c-0.8,1.2-1.7,2.4-2.5,3.7c-0.6,0.8-1.1,1.6-1.7,2.5l-0.2,0.2l-0.1,0.2c-0.2,0.3-0.3,0.4-0.7,0.5c-0.7,0-1.2-0.5-1.8-0.9l-0.4-0.2
		c-2.7-1.9-5.3-4-7.3-6.7l-0.1-0.2c-1.6-2.2-2.5-4.7-2.2-7.5c0.4-2.3,1.8-4.1,3.1-6l0.3-0.5c0.2-0.4,0.5-0.7,0.7-1.1
		c0.3-0.4,0.5-0.7,0.8-1.1l0.3-0.4l0.2-0.2l10.3-15l0.2-0.2c0.1-0.1,0.2-0.3,0.3-0.4c0.2-0.4,0.5-0.7,0.7-1.1
		c0.6-0.9,1.2-1.7,1.8-2.6c0.7-1.1,1.5-2.1,2.2-3.2c0.5-0.7,1-1.4,1.5-2.1c0.1-0.2,0.3-0.4,0.4-0.6c0.6-0.9,1.2-1.7,1.8-2.6
		c0.7-1.1,1.5-2.1,2.2-3.2c0.5-0.7,1-1.4,1.5-2.1c0.1-0.2,0.3-0.4,0.4-0.6c0.6-0.9,1.2-1.7,1.8-2.6c0.7-1.1,1.5-2.1,2.2-3.2
		c0.5-0.7,1-1.4,1.5-2.1l0.5-0.7l0.2-0.2c0.1-0.1,0.2-0.3,0.3-0.4c0.4-0.5,0.7-1.1,1.1-1.6l0.3-0.5h-0.3c-9.8,0-19.6,0-29.4,0h-0.4
		c-4.9,0-9.8,0-14.7,0c-4.9,0-9.9,0-14.9,0c-6.1,0-12.2,0-18.4,0c-2.3,0-4.6,0-6.9,0c-2.3,0-4.7,0-7,0c-1.4,0-2.8,0-4.1,0
		c-0.9,0-1.9,0-2.8,0c-0.5,0-1,0-1.6,0c-10.6,0-20.4-3.8-28.2-11.1c-0.2-0.2-0.5-0.4-0.7-0.6c-0.5-0.5-1-1-1.6-1.5
		c-0.2-0.2-0.3-0.3-0.5-0.5c-0.6-0.6-1.2-1.2-1.7-1.8c-0.1-0.1-0.2-0.3-0.3-0.4c-0.7-0.8-1.4-1.6-2.1-2.5c-0.2-0.2-0.3-0.4-0.5-0.6
		C11.1,80.4,11.1,80.4,11.1,80.1 M216.5,80h0.3c0.3,0,0.6,0,1,0h0.7c0.6,0,1.3,0,1.9,0c0.6,0,1.3,0,2,0c1.2,0,2.5,0,3.7,0
		c1.4,0,2.8,0,4.2,0c2.9,0,5.8,0,8.7,0c-0.1,0.4-0.1,0.6-0.3,0.9l-0.1,0.2l-0.2,0.2l-0.3,0.5l-0.2,0.2c-0.3,0.4-0.5,0.8-0.8,1.1
		l-0.3,0.4c-0.2,0.3-0.4,0.6-0.6,0.9c-0.6,0.9-1.2,1.7-1.8,2.6c-0.7,0.9-1.3,1.9-2,2.9c-0.6,0.9-1.2,1.7-1.8,2.6
		c-0.6,0.9-1.3,1.9-1.9,2.8c-0.4,0.6-0.8,1.2-1.3,1.8c-0.1,0.2-0.3,0.4-0.4,0.6c-0.6,0.9-1.2,1.7-1.8,2.6c-0.7,0.9-1.3,1.9-2,2.9
		c-0.6,0.8-1.2,1.7-1.8,2.5c-0.5,0.7-1,1.5-1.5,2.2c-0.6,1-1.3,1.9-2,2.9c-0.6,0.9-1.3,1.9-1.9,2.8c-0.4,0.6-0.8,1.2-1.3,1.8
		c-0.1,0.2-0.3,0.4-0.4,0.6c-0.6,0.9-1.2,1.7-1.8,2.6c-0.7,0.9-1.3,1.9-2,2.9c-0.6,0.8-1.2,1.7-1.8,2.5c-0.5,0.7-1,1.5-1.5,2.2
		c-0.6,0.8-1.2,1.7-1.7,2.5c-0.8,1.2-1.6,2.3-2.4,3.5c-0.7,1.1-1.5,2.2-2.3,3.3c-0.7,0.9-1.3,1.9-2,2.9c-0.5,0.7-1,1.5-1.5,2.2
		c-0.8,1.2-1.6,2.3-2.4,3.5c-0.7,1.1-1.5,2.2-2.3,3.3c-0.8,1.2-1.6,2.3-2.4,3.5c-0.7,1.1-1.5,2.2-2.3,3.3c-0.7,0.9-1.3,1.9-2,2.9
		c-0.5,0.7-1,1.5-1.5,2.2c-0.8,1.2-1.6,2.3-2.4,3.5c-0.8,1.2-1.7,2.4-2.5,3.7c-0.6,0.8-1.1,1.6-1.7,2.5l-0.2,0.2l-0.1,0.2
		c-0.2,0.3-0.3,0.4-0.7,0.5c-2.4-0.1-5.5-3.5-7.2-5.1l-0.3-0.3c-2.3-2.2-4.3-5.2-4.5-8.4c0-3.1,1.5-5.5,3.3-7.9
		c0.4-0.5,0.7-1,1.1-1.6l0.2-0.3l0.4-0.5c0.3-0.4,0.5-0.8,0.8-1.2l0.2-0.2l0.3-0.4c0.3-0.4,0.6-0.9,0.9-1.3c0.2-0.4,0.5-0.7,0.7-1.1
		c0.6-0.9,1.2-1.7,1.8-2.6c0.8-1.2,1.6-2.3,2.4-3.5c0.7-1.1,1.5-2.2,2.3-3.3c0.7-0.9,1.3-1.9,2-2.9c0.5-0.7,1-1.5,1.5-2.2
		c0.8-1.2,1.6-2.3,2.4-3.5c0.7-1.1,1.5-2.2,2.3-3.3c0.8-1.2,1.6-2.3,2.4-3.5c0.7-1.1,1.5-2.2,2.3-3.3c0.7-0.9,1.3-1.9,2-2.9
		c0.5-0.7,1-1.5,1.5-2.2c0.8-1.2,1.6-2.3,2.4-3.5c0.9-1.3,1.7-2.5,2.6-3.8l0.2-0.3l0.2-0.3c0.2-0.3,0.4-0.6,0.6-0.9l-15.7-0.1v-0.2
		l0.3-0.1c8.4-2,15.6-5.6,21.9-11.4l0.2-0.2c1-0.9,2.1-1.9,3-3c0.2-0.3,0.5-0.5,0.7-0.8c0.4-0.5,0.8-0.9,1.2-1.4l0.2-0.2l0.2-0.2
		c0.3-0.4,0.6-0.8,0.9-1.1l0.3-0.3C215.3,80.1,215.7,80,216.5,80"/>
	<path class="st0" d="M44.7,104.4h93.6c-0.2,0.5-0.4,0.9-0.7,1.3l-0.2,0.3l-0.2,0.3l-0.2,0.3c-0.2,0.2-0.3,0.4-0.5,0.7
		c-0.2,0.3-0.4,0.7-0.7,1c-0.8,1.1-1.6,2.3-2.3,3.4c-0.2,0.3-0.4,0.5-0.5,0.8c-0.1,0.1-0.2,0.3-0.3,0.4l-0.2,0.4
		c-0.3,0.4-0.6,0.7-1.1,0.8c-0.2,0-0.3,0-0.5,0h-0.3h-0.3h-0.4c-0.4,0-0.8,0-1.2,0h-0.9c-0.7,0-1.5,0-2.2,0c-0.9,0-1.7,0-2.6,0
		c-2.1,0-4.2,0-6.3,0c-1,0-2,0-3,0c-4.3,0-8.6,0-12.8,0h-0.3c-3.5,0-6.9,0-10.4,0c-4.1,0-8.1,0-12.2,0h-0.3c-1.6,0-3.2,0-4.8,0
		c-1.6,0-3.2,0-4.8,0c-0.9,0-1.9,0-2.9,0c-0.6,0-1.3,0-1.9,0c-0.4,0-0.7,0-1.1,0c-1.9,0-3.6,0-5.4-0.7l-0.2-0.1
		c-2.5-0.9-4.8-2.2-6.8-3.9l-0.2-0.2c-1.5-1.2-2.8-2.5-3.9-4l-0.2-0.3C44.7,104.6,44.7,104.6,44.7,104.4 M63.1,118.9h65.2
		c-0.3,0.6-0.6,1.2-1,1.7l-0.3,0.5l-0.2,0.2c-0.3,0.4-0.5,0.7-0.8,1.1l-0.3,0.4l-0.2,0.2l-0.4,0.6l-0.3,0.4l-0.1,0.2
		c-0.3,0.4-0.6,0.8-0.9,1.3c-0.2,0.3-0.3,0.5-0.5,0.8c-0.1,0.2-0.2,0.4-0.4,0.6l-0.2,0.3l-0.2,0.3c-0.4,0.5-0.7,0.9-1.3,1.1
		c-0.4,0-0.4,0-0.8,0h-0.2c-0.3,0-0.6,0-0.8,0c-0.2,0-0.4,0-0.6,0c-0.5,0-1.1,0-1.6,0c-0.6,0-1.2,0-1.8,0c-1.2,0-2.3,0-3.4,0
		c-0.9,0-1.9,0-2.8,0c-3,0-6,0-9,0c-1.5,0-2.9,0-4.4,0h-0.4c-2.7,0-5.4,0-8.2,0c-0.8,0-1.5,0-2.3,0c-0.9,0-1.9,0-2.8,0
		c-0.5,0-0.9,0-1.4,0c-5.3,0-9.9-1.9-13.8-5.5c-0.2-0.2-0.4-0.4-0.7-0.6c-0.9-0.8-1.7-1.8-2.5-2.7l-0.2-0.2
		C63.1,119.2,63.1,119.2,63.1,118.9 M81.7,133.5h36.7c-0.6,1.1-0.6,1.1-0.9,1.5l-0.2,0.3l-0.2,0.3c-0.2,0.3-0.4,0.6-0.6,0.9
		c-0.4,0.5-0.7,1-1.1,1.5l-0.2,0.3c-0.1,0.2-0.3,0.4-0.4,0.6c-1.6,2.3-1.6,2.3-2.3,3.3l-0.1,0.2c-0.5,0.8-0.5,0.8-1,0.9
		c-0.2,0-0.4,0-0.6,0h-0.4h-0.4h-0.4c-0.4,0-0.8,0-1.1,0h-0.7c-0.8,0-1.7,0-2.5,0c-0.8,0-1.5,0-2.3,0c-0.7,0-1.3,0-2,0
		c-0.4,0-0.8,0-1.2,0c-5.2,0-9.8-1.5-13.8-4.9l-0.3-0.2c-1.3-1.2-2.6-2.4-3.7-3.8l-0.2-0.3C81.7,133.8,81.7,133.8,81.7,133.5"/>
</g>
</svg>
