<?xml version="1.0" encoding="utf-8"?>
<!-- Generator: Adobe Illustrator 25.1.0, SVG Export Plug-In . SVG Version: 6.00 Build 0)  -->
<svg version="1.1" id="Layer_1" xmlns="http://www.w3.org/2000/svg" xmlns:xlink="http://www.w3.org/1999/xlink" x="0px" y="0px"
	 viewBox="0 0 2040 2040" style="enable-background:new 0 0 2040 2040;" xml:space="preserve">
<style type="text/css">
	.st0{fill:#E2012D;}
</style>
<g>
	<path class="st0" d="M0,617.9h1709c-2.5,4.1-5,7.5-8.1,11.1c-1,1.2-2,2.3-3,3.5l-1.5,1.7c-2,2.3-3.9,4.7-5.8,7.1
		c-9.8,12-20,23.3-31,34.2c-2.2,2.2-4.3,4.3-6.5,6.5c-6.6,6.7-13.3,13.1-20.7,18.9c-2.4,1.9-4.7,4-7,6c-4.4,4-9.1,7.6-13.8,11.1
		l-2.6,2c-13.1,9.7-26.8,18.7-40.9,26.8l-2.6,1.5c-36.9,20.9-77.6,36.9-119.7,43.2c-8.4,1.3-12.6,4.5-17.7,11.3
		c-2.7,3.9-5.3,7.8-7.9,11.8c-4.6,7-9.3,13.9-14.2,20.7c-2.8,3.9-5.5,7.8-8.2,11.8l-3.4,5l-1.7,2.5c-2.4,3.5-4.8,7-7.2,10.6
		c-1.3,2-2.7,3.9-4,5.9c-2.7,4-5.5,8-8.2,12c-2.2,3.2-4.5,6.5-6.7,9.7c-5.4,7.8-10.8,15.6-16.2,23.4c-5.9,8.5-11.8,17-17.6,25.6
		c-5.2,7.7-10.5,15.3-15.8,22.9c-5.8,8.4-11.6,16.8-17.4,25.3c-6.7,9.9-13.5,19.7-20.3,29.5c-6.6,9.5-13.1,19-19.7,28.5
		c-6.7,9.9-13.5,19.7-20.3,29.5c-6.6,9.5-13.1,19-19.7,28.5c-6.7,9.9-13.5,19.7-20.3,29.5c-6.6,9.5-13.1,19-19.7,28.5
		c-6.7,9.9-13.5,19.7-20.3,29.5c-6.6,9.5-13.1,19-19.7,28.5c-6.7,9.8-13.4,19.5-20.2,29.3c-6.7,9.6-13.2,19.2-19.8,28.8
		c-4.4,6.4-8.8,12.8-13.2,19.2c-1.3,1.9-2.6,3.7-3.8,5.6c-5.4,7.8-10.8,15.6-16.2,23.4c-7.3,10.4-14.4,20.9-21.6,31.4
		c-7.5,11-15,21.8-22.6,32.7c-5.1,7.3-10.1,14.6-15.1,22l-1.5,2.2l-1.3,1.9c-2.1,2.9-2.9,3.6-6.6,4.2c-6.3-0.2-11-4.2-16-7.8
		l-3.2-2.2c-24.4-16.9-47.8-35.4-65.4-59.6l-1.3-1.8c-14.5-20.1-22.5-42.4-19.4-67.4c3.3-20.4,16.3-37.1,27.7-53.8l3.1-4.5
		c2.2-3.2,4.4-6.4,6.6-9.6c2.3-3.3,4.5-6.6,6.8-9.9l2.8-4l1.4-2l92.1-134l1.4-2c0.9-1.3,1.8-2.7,2.8-4c2.2-3.2,4.5-6.5,6.7-9.7
		c5.4-7.8,10.8-15.6,16.2-23.4c6.7-9.6,13.2-19.2,19.8-28.8c4.4-6.4,8.8-12.8,13.2-19.2c1.3-1.9,2.6-3.7,3.8-5.6
		c5.4-7.8,10.8-15.6,16.2-23.4c6.7-9.6,13.2-19.2,19.8-28.8c4.4-6.4,8.8-12.8,13.2-19.2c1.3-1.9,2.6-3.7,3.8-5.6
		c5.4-7.8,10.8-15.6,16.2-23.4c6.7-9.6,13.2-19.2,19.8-28.8c4.4-6.4,8.8-12.8,13.1-19.2l4.1-6l1.4-2.1c0.9-1.3,1.7-2.5,2.6-3.8
		c3.4-4.9,6.7-9.7,10.1-14.6l3.1-4.4l-2.4,0c-87.7,0-175.5-0.1-263.2-0.2l-4,0c-43.9,0-87.8-0.1-131.6-0.1c-44.3,0-88.7-0.1-133-0.1
		c-54.9,0-109.7-0.1-164.6-0.1c-20.7,0-41.4,0-62.1,0c-20.8,0-41.7,0-62.5,0c-12.4,0-24.7,0-37.1,0c-8.3,0-16.6,0-24.8,0
		c-4.7,0-9.4,0-14.1,0c-95,0.2-183-34-252.8-99c-2-1.9-4.1-3.7-6.2-5.5c-4.9-4.3-9.4-8.8-14-13.4c-1.4-1.4-2.9-2.9-4.3-4.3
		c-5.2-5.2-10.3-10.6-15-16.2c-1-1.2-2.1-2.4-3.1-3.6c-6.4-7.3-12.6-14.7-18.5-22.4c-1.5-1.9-3.1-3.9-4.7-5.7
		C0,620.9,0,620.9,0,617.9 M1839.5,617.5l2.6,0c2.9,0,5.7,0,8.6,0h6.2c5.6,0,11.2,0,16.8,0c5.8,0,11.7,0,17.5,0
		c11.1,0,22.1,0,33.2,0.1c12.6,0,25.2,0,37.8,0.1c25.9,0,51.8,0.1,77.8,0.2c-0.6,3.3-1.2,5.7-3.1,8.4l-1.3,1.9l-1.4,2l-3,4.3
		l-1.6,2.2c-2.4,3.4-4.7,6.8-7,10.2l-2.8,4c-1.8,2.6-3.5,5.2-5.3,7.7c-5.4,7.8-10.8,15.6-16.2,23.4c-5.9,8.5-11.8,17-17.6,25.6
		c-5.2,7.7-10.5,15.3-15.8,22.9c-5.8,8.4-11.6,16.8-17.4,25.2c-3.7,5.4-7.4,10.8-11.2,16.3c-1.3,1.9-2.6,3.8-3.9,5.7
		c-5.4,7.8-10.8,15.6-16.2,23.4c-5.9,8.5-11.8,17-17.6,25.6c-5.2,7.6-10.4,15.1-15.7,22.7c-4.5,6.5-9,13-13.5,19.6
		c-5.8,8.6-11.7,17.1-17.7,25.6c-5.8,8.4-11.6,16.8-17.4,25.2c-3.7,5.4-7.4,10.8-11.2,16.3c-1.3,1.9-2.6,3.8-3.9,5.7
		c-5.4,7.8-10.8,15.6-16.2,23.4c-5.9,8.5-11.8,17-17.6,25.6c-5.2,7.6-10.4,15.1-15.7,22.7c-4.5,6.5-9,13-13.5,19.6
		c-5.1,7.5-10.3,15-15.5,22.5c-7.2,10.3-14.3,20.7-21.3,31.1c-6.7,9.9-13.6,19.7-20.4,29.6c-5.9,8.5-11.8,17-17.6,25.6
		c-4.5,6.6-9.1,13.2-13.6,19.8c-7.2,10.3-14.3,20.7-21.3,31.1c-6.7,9.9-13.6,19.7-20.4,29.6c-7.3,10.4-14.4,20.9-21.6,31.4
		c-6.7,9.9-13.6,19.7-20.4,29.6c-5.9,8.5-11.8,17-17.6,25.6c-4.5,6.6-9.1,13.2-13.6,19.8c-7.2,10.3-14.3,20.7-21.3,31.1
		c-7.5,11-15,21.8-22.6,32.7c-5.1,7.3-10.1,14.6-15.1,22l-1.5,2.2l-1.3,1.9c-1.9,2.6-2.8,3.5-6,4.2c-21.1-0.9-49.4-31.5-64.1-45.6
		l-2.6-2.4c-20.4-19.7-38.9-46.3-39.9-75.4c-0.3-27.7,13.8-49.1,29.3-70.7c3.3-4.6,6.5-9.3,9.7-14l1.6-2.4l3.2-4.7
		c2.4-3.5,4.8-7,7.2-10.5l1.4-2l2.7-3.9c2.7-4,5.5-8,8.2-12c2.2-3.2,4.5-6.5,6.7-9.7c5.4-7.8,10.8-15.6,16.2-23.4
		c7.3-10.4,14.4-20.9,21.6-31.4c6.7-9.9,13.6-19.7,20.4-29.6c5.9-8.5,11.8-17,17.6-25.6c4.5-6.6,9.1-13.2,13.6-19.8
		c7.2-10.3,14.3-20.7,21.3-31.1c6.7-9.9,13.6-19.7,20.4-29.6c7.3-10.4,14.4-20.9,21.6-31.4c6.7-9.9,13.6-19.7,20.4-29.6
		c5.9-8.5,11.8-17,17.6-25.6c4.5-6.6,9.1-13.2,13.6-19.8c7.2-10.3,14.3-20.7,21.3-31.1c7.7-11.2,15.4-22.4,23.2-33.6l2-2.8l1.8-2.5
		c1.9-2.8,3.8-5.7,5.7-8.5l-141-1v-2l2.5-0.6c74.8-18.3,139.6-50.3,196.5-102.4l1.5-1.4c9.3-8.4,18.5-16.9,26.6-26.5
		c2.1-2.5,4.4-4.8,6.6-7.2c3.8-4.1,7.3-8.4,10.8-12.8l1.4-1.8l1.4-1.8c2.7-3.4,5.4-6.8,8.1-10.2l2.3-2.9
		C1828.5,618.2,1832.7,617.5,1839.5,617.5"/>
	<path class="st0" d="M301,835.9h838c-2,4.7-3.4,8-6.2,11.9l-1.8,2.7l-2,2.8l-2,3c-1.4,2-2.7,3.9-4.1,5.9c-2,2.9-4,5.9-6,8.8
		c-6.9,10.1-14,20.2-21,30.3c-1.6,2.4-3.3,4.7-4.9,7.1c-0.9,1.2-1.7,2.5-2.6,3.7l-2.2,3.2c-2.9,3.7-5.6,6.2-10.1,7.6
		c-1.5,0.1-3,0.1-4.5,0.1l-2.8,0l-3.1,0l-3.3,0c-3.7,0-7.3,0-11,0l-7.9,0c-6.5,0-13.1,0-19.6,0c-7.8,0-15.6,0-23.4,0
		c-18.9,0-37.8,0-56.7,0c-8.9,0-17.9,0-26.8,0c-38.3,0-76.6,0-114.9,0h-2.9c-31,0-62.1,0-93.1,0c-36.4,0-72.9,0-109.3,0H594
		c-14.3,0-28.5,0-42.8,0c-14.4,0-28.7,0-43.1,0c-8.5,0-17,0-25.6,0c-5.7,0-11.4,0-17.1,0c-3.2,0-6.5,0-9.7,0
		c-16.6,0.1-32.6-0.4-48.4-5.9l-2.2-0.8c-22-7.9-43.1-19.7-61-34.7l-1.7-1.4c-13-10.7-25.1-22.3-35.3-35.6l-1.9-2.4
		C301,837.1,301,837.1,301,835.9 M466,965.9h584c-2.8,5.6-5.5,10.5-9.1,15.5l-2.9,4.2l-1.5,2.2c-2.3,3.4-4.7,6.7-7,10.1l-2.8,4
		l-1.4,2l-3.9,5.6l-2.6,3.8l-1.3,1.9c-2.6,3.8-5.2,7.6-7.7,11.4c-1.5,2.3-3,4.5-4.6,6.8c-1.1,1.7-2.2,3.3-3.3,5l-2.1,3.1l-1.9,2.8
		c-3.4,4.6-6.4,7.9-12,9.6c-3.4,0.2-3.4,0.2-7.4,0.2l-2.2,0c-2.5,0-5,0-7.4,0c-1.8,0-3.6,0-5.4,0c-4.9,0-9.8,0-14.7,0
		c-5.3,0-10.5,0-15.8,0c-10.3,0-20.5,0-30.8,0c-8.3,0-16.6,0-24.9,0c-26.8,0-53.7-0.1-80.5-0.1c-13,0-26-0.1-39.1-0.1l-3.4,0
		c-24.3,0-48.7-0.1-73-0.2c-6.9,0-13.7,0-20.6,0c-8.3,0-16.7,0-25-0.1c-4.2,0-8.4,0-12.7,0c-47.4,0-88.9-17.1-123.9-49.6
		c-2-1.8-4-3.5-6-5.2c-8.3-7.3-15.5-15.8-22.4-24.4l-1.4-1.8C466,968.1,466,968.1,466,965.9 M632,1095.9h329
		c-5.6,10.1-5.6,10.1-8,13.5l-1.6,2.3l-1.7,2.4c-1.9,2.7-3.8,5.4-5.7,8c-3.2,4.6-6.4,9.2-9.5,13.8l-1.9,2.8
		c-1.2,1.8-2.5,3.7-3.7,5.5c-13.9,20.5-13.9,20.5-20.4,29.7l-1.2,1.7c-4.9,6.9-4.9,6.9-9.2,8.3c-1.7,0.1-3.4,0.1-5.1,0.1l-3.2,0
		l-3.5,0l-3.7,0c-3.4,0-6.8,0-10.2,0l-6.4,0c-7.4,0-14.8,0-22.3,0c-6.9,0-13.8,0-20.6,0c-5.9,0-11.9,0-17.8,0c-3.5,0-7.1,0-10.6,0
		c-47,0.1-87.5-13.1-123.6-44.2l-2.3-1.9c-11.9-10.4-23.1-21.6-32.7-34.1l-2.2-2.6C632,1098.9,632,1098.9,632,1095.9"/>
</g>
</svg>
