<?xml version="1.0" encoding="utf-8"?>
<!-- Generator: Adobe Illustrator 25.1.0, SVG Export Plug-In . SVG Version: 6.00 Build 0)  -->
<svg version="1.1" id="Layer_1" xmlns="http://www.w3.org/2000/svg" xmlns:xlink="http://www.w3.org/1999/xlink" x="0px" y="0px"
	 viewBox="0 0 250 250" style="enable-background:new 0 0 250 250;" xml:space="preserve">
<style type="text/css">
	.st0{fill:none;}
	.st1{fill:#FFFFFF;}
	.st2{fill:#FFE025;}
	.st3{fill:#0B936C;}
	.st4{fill:url(#SVGID_1_);}
	.st5{fill:url(#SVGID_2_);}
	.st6{fill:url(#SVGID_3_);}
	.st7{fill:url(#SVGID_4_);}
	.st8{fill:url(#SVGID_5_);}
	.st9{fill:url(#SVGID_6_);}
	.st10{fill:url(#SVGID_7_);}
	.st11{fill:url(#SVGID_8_);}
	.st12{fill:url(#SVGID_9_);}
	.st13{fill:url(#SVGID_10_);}
	.st14{fill:url(#SVGID_11_);}
	.st15{fill:url(#SVGID_12_);}
	.st16{fill:url(#SVGID_13_);}
	.st17{fill:url(#SVGID_14_);}
	.st18{fill:url(#SVGID_15_);}
	.st19{fill:url(#SVGID_16_);}
	.st20{fill:url(#SVGID_17_);}
	.st21{fill:url(#SVGID_18_);}
</style>
<g id="Layer_1_1_">
</g>
<g id="레이어_1">
	<rect x="8" y="8" class="st0" width="234" height="234"/>
</g>
<g id="_레이어_2">
	<g id="_레이어_1-2">
		<path class="st1" d="M62.9,195.4L62.9,195.4c0.7,0,1.4-0.1,2.3-0.3c1.6-0.4,3.9-1.2,5.6-1.9l-1.3,6l2.6-1.6c0,0,3.8-2.3,7.3-3.6
			c1.3-0.5,2.9-1.1,4.4-2.1l1.7,2c2,2.3,4.1,4.4,6.4,6.3c7,5.9,15.3,9.7,24.2,11.2c5.8,1.2,8,3.1,8,3.1l0.9,0.8l0.9-0.8
			c0,0,2.3-1.9,8-3.1c8.9-1.5,17.3-5.4,24.3-11.2c2.3-1.9,4.4-4.1,6.4-6.3l1.7-2c1.5,0.9,3.2,1.5,4.4,2.1c3.5,1.3,7.2,3.6,7.3,3.6
			l2.6,1.6l-1.3-6c1.7,0.7,4,1.5,5.6,1.9c0.9,0.2,1.6,0.3,2.2,0.3h0.1h0.4c1.9-0.2,2.7-1.4,3.3-2.6l6.2-13.3
			c1.4-2.6,0.8-5.8-1.5-7.6l4.3-4l0.3-15.7L200,152c-0.1-0.1-5.7-9.4-7.1-12c0-1,0.2-4.3,1.3-6.8l1.1-3.5l6,11.8l1.9-4
			c1.9,2.3,5.6,6,11.7,7.7l2.2,0.7l-0.9-4.1c1.6,0.5,3.9,1,6.2,1c4.3,0,10.1-1.8,12.7-10.1l0.6-1.9l-2,0.2c0,0-1.5,0.2-4,0.2
			c-4.8,0-12-0.6-18.6-3.5c-6.4-2.8-14.7-9.6-19.1-20.6l-0.3-0.5l0,0l-4-9.2L205,64.6h-19.2l0.5-1l-3.1-4.1c0-4.9-0.9-10.4-0.9-10.6
			l-0.1-0.4l-3-3.6c-1.3-7.8-3.5-9.5-4-9.9c-0.2-0.1-0.6-0.3-1.3-0.3c-0.9,0-1.8,0.2-2.9,0.6c-2.3,0.9-3.5,3.1-4,4.2l-0.6-0.1
			l-0.1-0.5l-2.5-1.9l-0.9,0.8c-0.1,0.1-1.6,1.4-2.4,2.2c-0.9,1-1.2,2.6-1.2,2.9v0.2v0.2c0.1,0.3,0.6,2.8,0.9,4
			c0.1,0.2,0.2,1,0.2,1.7c0,0,0,1.6-0.8,3c-0.9,1.8-4,6.6-4,6.7l-1.1,1.9h0.8l-3.3,3.9h-1.9l-2.6-0.6l3.5-5.8l-6.7,0.2l1.9-6.4
			l-6.4,1.9l0.2-6.7l-5.8,3.5l-1.5-6.5l-4.6,4.9l-3.2-6l-3.2,6l-4.6-4.9l-1.5,6.5l-5.8-3.5l0.2,6.7l-6.4-1.9l1.9,6.4l-6.7-0.2
			l3.5,5.8l-2.6,0.6h-1.9l-3-3.9h0.8l-1.1-1.9c0-0.1-3-4.9-4-6.7c-0.8-1.5-0.8-3-0.8-3c0-0.7,0.1-1.5,0.2-1.7c0.4-1.1,0.9-3.7,0.9-4
			v-0.2v-0.2c0-0.3-0.3-2-1.2-2.9c-0.8-0.8-2.3-2.1-2.4-2.2l-0.9-0.8l-2.5,1.9l-0.1,0.5l-0.6,0.1c-0.5-1.1-1.7-3.4-4-4.2
			c-1.1-0.4-2.2-0.6-2.9-0.6c-0.8,0-1.1,0.2-1.4,0.3c-0.4,0.3-2.6,2-3.9,9.8l-3,3.6l-0.1,0.4c0,0.3-0.9,5.8-0.9,10.6l-3.1,4.1l0.5,1
			H45l17.3,32.9l-4,9.2l-0.1,0.1l-0.2,0.5c-4.3,10.9-12.7,17.8-19.1,20.6c-6.6,2.9-13.8,3.5-18.6,3.5c-2.4,0-4-0.2-4-0.2l-1.9-0.4
			l0.6,1.9c2.6,8.3,8.3,10.1,12.7,10.1c2.5,0,4.6-0.6,6.2-1l-0.9,4.1l2.2-0.7c6-1.8,9.8-5.4,11.7-7.7l1.9,4l6-11.8l1.2,3.6
			c1,2.6,1.2,5.8,1.2,6.8c-1.4,2.6-7.1,11.9-7.1,12l-0.2,0.3l0.3,15.7l4.3,4c-2.3,1.8-2.9,4.9-1.6,7.5l6.2,13.4
			c0.5,1.1,1.3,2.4,3.3,2.6L62.9,195.4L62.9,195.4z M71.3,145.1l9.3,8.4l3.2,6.8c-4.4,1.1-8.7,2.5-12.7,3.9l-0.2-0.8l-1.6-3.1
			l-3.2-0.9l-3,1.6l-1.5,0.3l1.2-8.3C66.2,150.2,69.6,146.7,71.3,145.1L71.3,145.1z M180.8,160.3l-1.6,3.1l-0.2,0.8
			c-4-1.4-8.2-2.7-12.7-3.9l3.2-6.8l9.3-8.4c1.6,1.6,5.1,5.1,8.7,8l1.2,8.3l-1.5-0.3l-3-1.6L180.8,160.3L180.8,160.3z M99.8,196.6
			l8.3-4.9H84.2c2.5-1.5,4.3-3.7,3.2-7l-0.9-2.6c5.9-1.6,12.1-2.7,18.6-3.6l1.8,3.4H95.2c-1.6,0-2.8,1.3-2.8,2.8s1.2,2.8,2.8,2.8
			h14.6l8.5,16.2C111.8,202.8,105.4,200.4,99.8,196.6L99.8,196.6z M141.8,191.7l8.3,4.9c-5.6,3.8-11.9,6.2-18.6,7.2l8.5-16.2h14.6
			c1.5,0,2.8-1.2,2.8-2.8s-1.3-2.8-2.8-2.8H143l1.8-3.4c6.5,0.9,12.8,2,18.6,3.6l-0.9,2.6c-1.1,3.2,0.9,5.4,3.2,6.9H141.8z"/>
		<path class="st1" d="M83,170.8c-0.9-0.1-1.2-0.2-1.3-0.6c-0.1-0.3,0.1-0.7,0.7-0.9c0.4-0.1,0.9-0.1,1.3,0v-1.2
			c-0.4-0.1-0.9-0.1-1.6,0.1c-1.4,0.4-2,1.4-1.7,2.5c0.3,0.9,1,1.2,2.1,1.3c0.8,0.1,1.1,0.2,1.2,0.6c0.1,0.4-0.1,0.8-0.8,0.9
			c-0.6,0.2-1.1,0.1-1.6,0v1.2c0.4,0.1,1,0.1,1.7-0.1c1.6-0.5,2.1-1.5,1.8-2.6C84.7,171.4,84.1,171,83,170.8L83,170.8z M77,170
			l0.6,1.7c0.3,0.9,0.6,1.7,0.9,2.5l0,0c-0.5-0.6-1-1.2-1.6-1.7l-1.9-1.8l-1.5,0.5l2,6l1.2-0.4l-0.6-1.8c-0.3-0.9-0.7-1.8-0.9-2.6
			l0,0c0.5,0.6,1.1,1.2,1.7,1.8l2,1.9l1.3-0.5l-2-6L77,170L77,170z M68.6,173.1l0.8,6.5l1.3-0.6l-0.2-1.6l1.6-0.7l1,1.3l1.3-0.6
			l-4.2-5.1L68.6,173.1L68.6,173.1z M71.3,175.8l-1.2,0.5l-0.2-1.3c-0.1-0.4-0.2-0.9-0.2-1.2l0,0c0.2,0.3,0.5,0.7,0.8,1L71.3,175.8
			L71.3,175.8z M163.5,131.2l-11.6,22.1l1.6,0.3l11-20.9L163.5,131.2z M144.2,127.5c2.2-3.2,3.5-7,3.9-10.9h-8.7L144.2,127.5z
			 M114.9,168.6l-0.1-1.5l2.2-0.1l-0.1-1.1l-2.2,0.1l-0.1-1.3l2.4-0.1l-0.1-1.1l-3.7,0.2l0.3,6.2l3.9-0.2l-0.1-1.1L114.9,168.6z
			 M86.6,167.3l-0.5,6.5l1.4-0.3l0.1-1.7l1.7-0.4l0.9,1.5l1.4-0.3l-3.2-5.7L86.6,167.3L86.6,167.3z M87.7,170.7l0.1-1.4
			c0-0.4,0-0.9,0-1.2l0,0c0.2,0.4,0.4,0.8,0.6,1.1l0.7,1.2L87.7,170.7z M110.8,167.1L110.8,167.1c0.5-0.3,1-0.9,0.9-1.6
			c0-0.6-0.3-1-0.7-1.2c-0.5-0.3-1.1-0.4-2-0.4c-0.8,0.1-1.3,0.2-1.8,0.3l0.1,1.4l0.4,4.7l1.3-0.1l-0.1-1.6l-0.1-0.9h0.4
			c0.6,0,0.9,0.2,1,0.9c0.3,0.8,0.4,1.2,0.6,1.4l1.4-0.1c-0.1-0.2-0.4-1-0.7-1.7C111.6,167.7,111.3,167.2,110.8,167.1L110.8,167.1z
			 M109.5,166.7h-0.6l-0.1-1.7c0.1,0,0.3-0.1,0.6-0.1c0.7,0,1,0.2,1,0.8C110.5,166.3,110.2,166.7,109.5,166.7L109.5,166.7z
			 M95.3,165.6l0.3,1.8c0.2,0.9,0.3,1.8,0.6,2.6l0,0c-0.4-0.7-0.9-1.3-1.3-2l-1.6-2.1l-1.6,0.3l1,6.1l1.2-0.2l-0.3-1.9
			c-0.2-1-0.4-1.9-0.6-2.6l0,0c0.4,0.7,0.9,1.4,1.4,2l1.7,2.2l1.4-0.3l-1-6.1L95.3,165.6L95.3,165.6z M125,204.5l-14.6-27.9
			c-0.6,0.1-1.1,0.1-1.7,0.2l16.3,31.1l16.3-31.1c-0.6-0.1-1.1-0.1-1.7-0.2L125,204.5z M111.4,96c-5.8,4.3-9.4,11-9.4,18.6
			c0,4.6,1.3,9.1,3.9,12.8l16.1-35.8C118,92.2,114.4,93.7,111.4,96 M86.5,131.2l-0.9,1.6l11,20.9l1.6-0.3L86.5,131.2z M115.2,116.6
			l-6.4,14.4c3.9,3.9,9.2,6.4,15.1,6.7c0.9,0,1.7,0,2.5,0c5.9-0.3,11.1-2.8,15.1-6.7l-6.4-14.4L115.2,116.6L115.2,116.6z"/>
		<path class="st1" d="M147.1,90.9c-1.3-1.2-2.7-2.4-4.3-3.3c-1.3-0.9-2.6-1.6-4-2.3c-3.9-1.8-8.1-2.9-12.6-3.1c-0.4,0-0.9,0-1.2,0
			c-0.4,0-0.9,0-1.2,0c-4.5,0.2-8.8,1.2-12.6,3.1c-1.4,0.7-2.7,1.4-4,2.3c-1.5,1-2.9,2.1-4.3,3.3c-3.9,3.6-6.8,8-8.5,13.1
			c-1.1,3.4-1.8,7-1.8,10.6c0,17.5,13.8,31.7,31.2,32.4c0.4,0,0.9,0,1.2,0s0.9,0,1.2,0c17.3-0.7,31.2-14.9,31.2-32.4
			c0-3.7-0.7-7.3-1.8-10.6C153.9,99,151,94.5,147.1,90.9L147.1,90.9z M152.1,116.6c-1,13.6-12.1,24.5-25.9,25.1c-0.4,0-0.9,0-1.2,0
			s-0.9,0-1.2,0c-14.5-0.7-25.9-12.6-25.9-27.1c0-10.1,5.5-18.9,13.7-23.5c1.3-0.8,2.7-1.4,4.2-2c2.6-0.9,5.3-1.5,8-1.6
			c0.4,0,0.9,0,1.2,0s0.9,0,1.2,0c2.8,0.1,5.6,0.7,8,1.6c1.4,0.6,2.8,1.2,4.2,2c2.1,1.2,4,2.6,5.7,4.3l-2.8,2.8
			c-0.9-0.9-1.7-1.6-2.6-2.3c-3-2.3-6.6-3.8-10.6-4.3l9.4,20.9h14.5c0.1,0.7,0.1,1.3,0.1,2S152.1,115.9,152.1,116.6L152.1,116.6z
			 M66,92.4L54.2,70h16.3l-0.1-1.4l-0.7-0.2H51.6l13.6,25.8L66,92.4z M120.1,168.5v-1.5h2.2v-1.1h-2.2v-1.3l2.4-0.1v-1.1l-3.7,0.1
			l0.1,6.2l3.9-0.1v-1.1L120.1,168.5z"/>
		<path class="st1" d="M133,112.5l-8-17.9l-8,17.9H133z M106,166.9l-0.8,0.1l-1.4,0.2l0.1,0.7l0.1,0.5h0.2l0.8-0.1l0.2,1.3
			c0,0-0.1,0.1-0.2,0.1s-0.3,0.1-0.5,0.1c-1.1,0.1-2-0.6-2.1-1.8c-0.1-0.9,0.2-1.5,0.7-1.8c0.3-0.2,0.7-0.4,1-0.4c0.2,0,0.4,0,0.5,0
			c0.4,0,0.7,0.1,0.9,0.1l0.2-1.1c-0.3-0.1-0.9-0.2-1.7-0.1c-0.6,0.1-1.1,0.3-1.5,0.5c-0.9,0.6-1.5,1.5-1.5,2.7c0,0.1,0,0.3,0,0.4
			c0.1,0.9,0.5,1.7,1.1,2.2c0.1,0.1,0.2,0.2,0.4,0.2c0.6,0.3,1.3,0.5,2.2,0.4c0.3,0,0.6-0.1,0.9-0.2c0.5-0.1,0.9-0.3,1-0.4l-0.2-1.2
			L106,166.9L106,166.9z M173.7,171.3l-0.2,1l1.2-0.2l0,0l-1.6,4.5l1.2,0.5l2-5.7l-1-0.4L173.7,171.3z M179.5,68.6l-0.1,1.4h16.4
			L184,92.4l0.9,1.9l13.6-25.8h-18.2L179.5,68.6z M170.3,169.3c-1.4-0.5-2.6,0.7-3,2.4c-0.5,1.6-0.3,3.2,1.2,3.6
			c1.4,0.4,2.5-0.6,3-2.4C172,171.3,171.8,169.7,170.3,169.3L170.3,169.3z M170.2,172.5c-0.4,1.3-0.9,1.9-1.3,1.7
			c-0.5-0.2-0.7-0.9-0.2-2.2c0.4-1.3,0.9-1.9,1.4-1.7C170.4,170.4,170.5,171.2,170.2,172.5L170.2,172.5z M164.7,167.8
			c-0.8-0.2-1.5-0.1-2,0.2l0.1,1c0.4-0.2,0.9-0.3,1.3-0.2c0.7,0.2,0.9,0.6,0.8,1.1c-0.2,0.7-0.9,1.2-2.5,2.1l-0.9,0.5l-0.2,0.9
			l4,0.9l0.3-1.1l-2.1-0.6l0,0l0.7-0.3c1-0.6,1.9-1.1,2.1-2.2C166.5,169,166,168.1,164.7,167.8L164.7,167.8z M154,168.7
			c-0.3,1.8,0.5,3.3,2.6,3.7c0.8,0.1,1.3,0.1,1.6,0v-1.1c-0.3,0.1-0.8,0.1-1.1,0c-1.2-0.2-1.8-1.1-1.5-2.4c0.3-1.4,1.2-1.9,2.3-1.7
			c0.5,0.1,0.9,0.3,1,0.5l0.5-1c-0.2-0.2-0.8-0.4-1.4-0.6C156.1,165.7,154.4,166.7,154,168.7L154,168.7z M178.6,173.5l2.5,1l0,0
			l-4.2,3.5l1.3,0.6l4.3-3.8l0.4-0.9l-3.8-1.6L178.6,173.5z M97.1,70h55.7l0.5-0.8l0.4-0.8H96.3l0.4,0.8L97.1,70z M127.6,165.2
			c0,0.9,0,1.8,0.1,2.6l0,0c-0.3-0.8-0.7-1.5-0.9-2.2l-0.5-0.9l-0.8-1.4H124v6.2h1.2v-1.9c0-1,0-1.9,0-2.7l0,0
			c0.3,0.8,0.7,1.5,1,2.3l0.1,0.2l1.2,2.3h1.4v-6.2h-1.2L127.6,165.2z M140.2,165.6c0-0.6-0.1-1-0.5-1.3c-0.4-0.4-1-0.6-1.9-0.7
			c-0.8,0-1.4,0-1.8,0l-0.4,6.1l1.3,0.1l0.2-2.5h0.4c0.6,0,0.8,0.3,0.9,1c0.1,0.8,0.3,1.3,0.3,1.5l1.3,0.1l0,0l0,0
			c-0.1-0.3-0.2-1-0.4-1.7c-0.1-0.6-0.3-1-0.8-1.2l0,0C139.6,166.9,140.2,166.4,140.2,165.6L140.2,165.6z M137.8,166.5h-0.6l0.1-1.7
			c0.1,0,0.3,0,0.7,0c0.7,0.1,0.9,0.4,0.9,0.9C138.8,166.2,138.4,166.6,137.8,166.5L137.8,166.5z M143.9,165.2
			c0.6,0.1,1,0.3,1.2,0.4l0.4-1.1c-0.4-0.2-0.9-0.4-1.5-0.5c-0.3,0-0.6,0-0.8,0c-0.9,0.2-1.6,0.8-1.7,1.6c0,0.4,0.1,0.8,0.3,1
			c0.3,0.4,0.7,0.7,1.2,0.9s0.9,0.5,0.9,0.8c0,0.1,0,0.1,0,0.2c0,0.3-0.2,0.4-0.4,0.5c-0.2,0.1-0.4,0.1-0.6,0.1
			c-0.6-0.1-1.1-0.3-1.4-0.6l-0.4,1.1c0.3,0.2,0.9,0.5,1.7,0.6c0.1,0,0.1,0,0.2,0c1.5,0.1,2.4-0.7,2.5-1.7c0.1-0.7-0.2-1.1-0.8-1.6
			c-0.2-0.2-0.4-0.3-0.7-0.4c-0.8-0.4-1-0.6-1-0.9C143,165.4,143.3,165.2,143.9,165.2L143.9,165.2z M130.5,169.7l3.9,0.1v-1.1
			l-2.5-0.1l0.1-1.5l2.2,0.1V166l-2.2-0.1l0.1-1.3l2.4,0.1v-1.1l-3.7-0.1L130.5,169.7z M149.6,164.9l-0.4,2.8l-0.5,3.4l1.3,0.2
			l0.4-2.5l2.2,0.3l0.2-1.1l-2.2-0.3l0.2-1.4l2.3,0.3l0.2-1.1l-2.6-0.4L149.6,164.9z"/>
		<path class="st2" d="M125,54.8c-7.5,0-14,4.5-16.8,11h33.6C139,59.3,132.6,54.8,125,54.8 M123.8,156.7v-6.8
			c-19-0.7-34.2-16.2-34.2-35.4c0-2.2,0.2-4.3,0.6-6.3l-6.7,6.6c0,0,5.1,6.8,4.8,13.2l-0.3,0.5l15.5,29.5
			C110.1,157.2,116.9,156.8,123.8,156.7 M113.2,176.5l10.6,20v-20.4C120.2,176.1,116.7,176.2,113.2,176.5 M71,80.9l-0.3-8.2H58.6
			l8.8,16.6L71,80.9z M107.1,77.6l0.4-0.2l6.7,0.5l1.1,2.2v0.5c2.7-0.8,5.5-1.2,8.3-1.3v-6.5H98.6v0.1l0.8,1.4l0.3,0.5l0.3,0.9
			l2.7,0.9l4.1,1.4L107.1,77.6z"/>
		<path class="st3" d="M126.2,150v6.8c6.9,0,13.7,0.5,20.2,1.2l15.5-29.5l-0.3-0.5c-0.3-6.4,4.8-13.2,4.8-13.2l-6.7-6.6
			c0.4,2.1,0.6,4.2,0.6,6.3C160.4,133.8,145.2,149.4,126.2,150L126.2,150z M179,80.9l3.7,8.4l8.8-16.6h-12.1L179,80.9z M126.2,196.5
			l10.6-20c-3.4-0.3-7-0.4-10.6-0.4V196.5z M150.3,74.7l0.3-0.5l0.8-1.4v-0.1h-25.2v6.5c2.8,0.1,5.7,0.6,8.3,1.3V80l1.1-2.2l6.7-0.5
			l0.4,0.2l0.5,0.2l4.1-1.4l2.7-0.9L150.3,74.7L150.3,74.7z M160.6,153.5l0.9,2l-3.8,0.6l-1.1,3.6c2,0.4,4,0.8,5.9,1.1l3.1-7.1
			l-0.9-3.8l2.7,1.4l4.5-5l-2.5-5L160.6,153.5L160.6,153.5z M185.5,167.8l1.9,0.8l1-3.5l-1.8-0.9L185.5,167.8z M182.6,164.6l-0.5,2
			l2.2,0.7l1.1-3.5l-1.7-0.8L182.6,164.6z M152.9,158.9c0.3,0,0.6,0.1,0.9,0.1c0.5,0.1,0.9,0.2,1.3,0.2l0.9-3.3l-0.7-0.1l-1.5-0.2
			L152.9,158.9L152.9,158.9z M150.9,154.9l-0.9,1.5l-0.1,0.9l-0.2,1c0.5,0.1,0.9,0.1,1.3,0.2l0.6,0.1l0.9-3l0.1-0.2l-1.5-0.5
			L150.9,154.9z"/>
		<path class="st3" d="M209.6,130.6c-8.5-3-14.7-11.2-14.7-11.2l-1.9-2.2c0,0-2.2-3.4-3.9-7.6l-1.8-4l-2.6-5.7l-1.4-3l-0.9-1.8
			l-1.4-3l-5.3-11.5l0.7-0.2l0.6-7.7l0.2-2.6l0.1-1.6l0.2-2c-0.5-0.2-0.9-0.5-1.4-0.7c0,0-0.1,0-0.1-0.1v0.1l-0.4,2.6l-0.2,1.6
			l-0.4,2.6l-0.1,0.8l-0.1-0.8l-0.3-2.6l-0.2-1.6l-0.3-2.6l-0.3-2.5c-0.5-0.9-0.9-2-0.9-2l0.2-1.8c0,0,1.3,3,2.6,4.3
			c0.8,0.9,2.2,1.4,3.2,1.8c0.7,0.3,1.2,0.4,1.2,0.4l1.2-0.4l0.9-0.3l0.2-1.5l-2.3-3.5c0,0-0.1-6.9-0.9-10.5l-2.9-3.6l-2-7.8
			l-0.5,0.7l-1.6-1.3c0,0-1.1-0.1-2.7,2.1c-0.9,1.1,0.3,1.9-1.4,4.7c0,0-0.6-0.8-1.2-0.9c-0.7-0.1-1.6-0.5-2.3-1.2
			c-0.7-0.8-0.9-1.3-0.9-1.3s-1.2,0.8-1.1,1.7c0,0.9,0.9,4,0.9,4.4c0.1,0.5,0.1,3.6-0.8,5c-0.9,1.3-3,6-3,6l0.9-0.3l-4.1,5.3
			l0.9,0.1l-0.1,0.2l4.3-4.6l-1.5,5.1l7.7-8.4l-0.5,5.4l2.9-1l-4.9,5.8v0.1v-0.1l0.5-5.3l-4.4,5.3l-2.2,2.6l-1,1.2v-1.2l0.1-2.6
			v-0.9l-0.8,0.9l-2.3,2.6l-0.5,0.6l-0.5,1l-1.3,2.6l-1.3,2.8l-0.6,1.9l3.3-4.6l1.4-2.1l0.5,2.1l0.2,0.9l0.9-0.9l2.8-2.6l1.7-1.6
			l1.4-1.3l0.1,1.3l0.1,1.6v0.1l0.2-0.1l1.8-1.6l2.9-2.6l2.6-2.4l-2,2.4l-2.2,2.6l-1.3,1.6l-2.2,2.6l-1.5,1.8l-0.1-1.8l-0.1-2.4
			l-2,2.4l-3.5,4.2l-1.1-2.1l-2.7,7.5l2.1,1.2l0.8-4.1l1.1,2.1L160,75l0.6,3.1l5.2-5.2l-5.6,9.7l-0.9-2.6l-1.6,5.1l3.7,2.3l2.2-6.3
			l1.1-1.1l-1.3,8.8l2.8,1.4l-3.4,0.1L151,83l-3.6-1.6l-4.9-2.3l-1-0.5l-5,0.7l-0.7,1.4l0.3,0.3c0.5,0.1,0.9,0.3,1.2,0.5l0.6-0.9
			l4.3-0.7l0,0l2.1,0.9l-2.6,0.3l-2.9,0.4l-0.2,0.5c0.7,0.3,1.3,0.6,2,0.9l0.4-0.5h0.1l4.5-0.6l0,0l1.2,0.9l-0.7,0.1l-3.7,0.6
			l-0.3,0.4c0.9,0.5,1.7,0.9,2.6,1.5c1,0.5,1.9,0.9,2.5,1.1c0.9,0.4,1.2,0.6,1.2,0.6l0.1,0.1l16.8,13.9l6.9-3.4l0.1-0.2l1.9-3.4
			l4.4-0.7l-1,2l-1.6,0.7l2.3,2.2l2,1.9l1.1,1.1l0.7,0.7l-0.8-0.5l-1.3-0.9l-2.2-1.4l-2.7-1.8l-0.5,1.4l-0.2,0.5l2.6,1.6l2.3,1.3
			l1.3,0.9l2.3,1.3l1.4,0.9l-2,0.4l-1.2,0.2l0.8,0.7l4.2,3.4l-4.7-2.4l-2.4-1.1l-1.4-0.7l-1.7-0.9l2.4-0.4l1.4-0.3l-1-0.5l-2.4-1.1
			l-3.9-1.9l-2.4,0.9l5.2,1.9l-5.2,0.4l4.5,2l2.5,1l1.4,0.7l1.3,0.6l-1.7,0.2l-1.9,0.3l-0.9,0.1l0.7,0.5l1.3,0.9l2.3,1.4l3.3,2.1
			l-4.2-0.4h-0.3l0.2,0.2l7.9,6.4l-10.3-2l-1,10.2c0,0-0.9,5.3,0.4,7.6s5.7,7.1,5.7,7.1l8.1,7.5l2.8-0.7l-1.4,3.3l1.2,10.2l1.4,2
			l-3.2,0.8l-1.4,3.8l3.6,1.4l3.7-3.9l0.1-9.6l-1.8-3.3l2.1,0.6l-0.1-2.1l-4.3-6.9l-3.3-5.3l0.9-5.1l-3.4-9.3l4.7,5.2
			c0,0,0.5-0.9,0.9-2.2l-2.6-4.3l3.4,1.8c0.5-1.5,0.9-3.3,0.9-5.1l-0.1-0.5l7.7,12.1l1-2.4c3.2,6.6,10.1,8.8,10.1,8.8l-0.4-3.3
			c0,0,2.2,1.8,9.3,2.5c7.1,0.8,9-4.3,9-4.3C224.7,134.4,218.2,133.5,209.6,130.6L209.6,130.6z M177.5,56.6l0.8,1.2l-0.7,2.6
			l1.8,2.7l-0.1-2.1l1.5,2.6c0,0,0.5,0.6,0,1.1c-0.6,0.8-2.5-0.9-2.5-0.9l-1.9-3.4l0.6-1.4L177.5,56.6L177.5,56.6z M175.5,47.4
			l1.3,1.1l-0.6,2.1C174.1,48,175.5,47.4,175.5,47.4 M166,55l-3,4.1l3-8.5V55z M165.6,99l-7.1-5.1l7.2,3.1l2.9,0.5L165.6,99z"/>
		<path class="st3" d="M149.4,77.4l-0.9,0.3l-3.3,1.1l3.3,1.5l-0.1-0.2l0.7-1.9L149.4,77.4z M170,119.1c-0.9-0.3-2.5-0.4-3.4,0.9
			c-0.1,0.1-0.1,0.1-0.2,0.2c-0.3,0.4-0.5,0.9-0.7,1.4c-0.8,2.1-1.3,4.9-1.3,5.5l0.8,1.1l0.9,1.5l1.6,2.6l1.1,1.8l0.8-3.2l1.2,0.9
			l0.9-5.1c0,0-0.2-0.5-0.4-1.2c-0.3-1.1-0.6-2.7-0.7-4.4c0-0.7,0-1.2,0.1-1.8C170.7,119.4,170.4,119.3,170,119.1L170,119.1z
			 M93.4,159.6l-1.1-3.6l-3.7-0.6l0.9-2l-8.8-12.1l-2.5,5l4.5,5l2.7-1.4l-0.9,3.8l3.1,7.1C89.5,160.3,91.4,160,93.4,159.6
			 M61.5,165.1l1,3.5l2-0.8l-1.1-3.6L61.5,165.1z M64.6,163.8l1.1,3.5l2.2-0.7l-0.5-2l-1.1-1.6L64.6,163.8z M94.6,155.9l-0.7,0.1
			l0.9,3.3c0.5-0.1,0.9-0.2,1.3-0.2c0.3,0,0.6-0.1,0.9-0.1l-0.9-3.3L94.6,155.9L94.6,155.9z M98.5,158.7l0.6-0.1
			c0.5-0.1,0.9-0.1,1.3-0.2l-0.2-1l-0.1-0.9l-0.9-1.5l-0.2,0.1l-1.5,0.5l0.1,0.2L98.5,158.7z"/>
		<path class="st3" d="M61.2,169.1l-1.4-3.8l-3.2-0.8l1.4-2l1.2-10.2l-1.4-3.3l2.8,0.7l8.1-7.5c0,0,4.3-4.7,5.7-7.1
			c1.3-2.3,0.4-7.6,0.4-7.6l-0.8-10.2L64,119.1l7.9-6.4l0.2-0.2h-0.3l-4.2,0.4l3.3-2.1l2.3-1.4l1.3-0.9l0.7-0.5l-0.9-0.1l-1.9-0.3
			l-1.7-0.2L72,107l1.4-0.7l2.5-1l4.5-2l-5.2-0.4l5.2-1.9l-2.4-0.9l-3.9,1.9l-2.4,1.1l-1,0.5l1.4,0.3l2.4,0.4l-1.7,0.9l-1.4,0.7
			l-2.4,1.1l-4.7,2.4l4.2-3.4l0.8-0.7l-1.2-0.2l-2-0.4l1.4-0.9l2.3-1.3l1.3-0.9l2.3-1.3l2.6-1.6l-0.2-0.5l-0.5-1.4l-2.7,1.8
			l-2.2,1.4l-1.3,0.9l-0.8,0.5l0.7-0.7l1.1-1.1l2-1.9l2.3-2.2l-1.6-0.7l-1-2l4.4,0.7l1.9,3.4l0.1,0.2l6.9,3.4l16.8-13.9l0.1-0.1
			c0,0,0.5-0.2,1.2-0.6c0.7-0.3,1.4-0.7,2.5-1.1c0.9-0.6,1.6-1,2.6-1.5l-0.3-0.4l-3.7-0.6l-0.7-0.1l1.2-0.9l0,0l4.5,0.6h0.1l0.4,0.5
			c0.7-0.3,1.3-0.7,2-0.9l-0.2-0.5l-2.9-0.4l-2.6-0.3l2.1-0.9l0,0l4.3,0.7l0.6,0.9c0.4-0.2,0.9-0.3,1.2-0.5l0.3-0.3l-0.7-1.4l-5-0.7
			l-0.9,0.5l-4.9,2.3l-3.6,1.6l-11.7,7.4L84.3,90l2.8-1.4l-1.3-8.8l1.1,1.1l2.2,6.3l3.7-2.3l-1.6-5.1l-0.9,2.6L84.4,73l5.2,5.2
			l0.6-3.1l3.5,6.4l1.1-2.1l0.8,4.1l2.1-1.2l-2.7-7.5l-1.1,2.1l-3.5-4.2l-2-2.4l-0.1,2.4v1.8l-1.5-1.8L84.5,70l-1.3-1.6L81,65.8
			l-2-2.4l2.6,2.4l2.9,2.6l1.8,1.6l0.2,0.1V70l0.1-1.6l0.1-1.3l1.4,1.3l1.7,1.6l2.8,2.6l0.9,0.9l0.2-0.9l0.5-2.1l1.4,2.1l3.3,4.6
			l-0.6-1.9l-1.3-2.8l-1.3-2.6l-0.5-1l-0.5-0.6l-2.3-2.6l-0.8-0.9v0.9l0.1,2.6v1.2l-1-1.2l-2.2-2.6l-4.4-5.3l0.5,5.3v0.1v-0.1
			l-4.9-5.8l2.9,1l-0.5-5.4l7.7,8.4l-1.5-5.1l4.3,4.6l-0.1-0.2l0.9-0.1l-4.1-5.3l0.9,0.3c0,0-2.2-4.6-3-6c-0.9-1.3-0.8-4.4-0.8-5
			c0.1-0.5,0.9-3.5,0.9-4.4c0-0.9-1.1-1.7-1.1-1.7s-0.2,0.6-0.9,1.3c-0.7,0.8-1.6,1.1-2.3,1.2c-0.7,0.1-1.2,0.9-1.2,0.9
			c-1.7-2.7-0.6-3.5-1.4-4.7c-1.6-2.2-2.7-2.1-2.7-2.1l-1.6,1.3l-0.5-0.7l-2,7.8l-2.9,3.6C70.1,53.6,70,60.4,70,60.4l-2.3,3.5
			l0.2,1.5l0.9,0.3l1.2,0.4c0,0,0.5-0.1,1.2-0.4c1-0.4,2.5-0.9,3.2-1.8c1.2-1.3,2.6-4.3,2.6-4.3l0.2,1.8c0,0-0.5,1-0.9,2l-0.3,2.5
			l-0.3,2.6L75.6,70l-0.3,2.6l-0.1,0.8l-0.3-0.8L74.6,70l-0.2-1.6L74,65.8v-0.1c0,0-0.1,0-0.1,0.1c-0.5,0.2-0.9,0.5-1.4,0.7l0.2,2
			l0.1,1.6l0.2,2.6l0.6,7.7l0.7,0.2l-5.3,11.5l-1.4,3l-0.9,1.8l-1.4,3l-2.6,5.7l-1.8,4c-1.7,4.2-3.9,7.6-3.9,7.6l-1.9,2.2
			c0,0-6.2,8.2-14.7,11.2c-8.5,3-14.9,3.9-20.5,3.4c0,0,1.9,5,9,4.3c7.1-0.8,9.3-2.5,9.3-2.5l-0.4,3.3c0,0,7-2.2,10.1-8.8l1,2.4
			l7.7-12.1l-0.1,0.5c0.1,1.8,0.5,3.6,0.9,5.1l3.4-1.8l-2.6,4.3c0.5,1.3,0.9,2.2,0.9,2.2l4.7-5.2l-3.4,9.3l0.9,5.1l-3.3,5.3
			l-4.3,6.9l-0.1,2.1l2.1-0.6L54,157l0.1,9.6l3.7,3.9L61.2,169.1L61.2,169.1z M84.3,97l7.2-3.1l-7.1,5l-3-1.5L84.3,97z M84,50.7
			l3,8.5l-3-4.1V50.7z M71.5,64.1c0,0-1.9,1.5-2.5,0.9c-0.5-0.6,0-1.1,0-1.1l1.5-2.6l-0.1,2.1l1.8-2.7l-0.7-2.6l0.8-1.2l0.4,2.6
			l0.6,1.4L71.5,64.1L71.5,64.1z M73.7,50.5l-0.6-2.1l1.3-1.1C74.5,47.4,75.9,48,73.7,50.5"/>
		<path class="st3" d="M104.8,78.7l-3.3-1.1l-0.9-0.3l0.3,0.8l0.7,1.9l-0.1,0.2L104.8,78.7z M78.7,125.7c-0.1,0.4-0.2,0.9-0.4,1.2
			l0.9,5.1l1.2-0.9l0.8,3.2l1.1-1.8l1.6-2.6l0.9-1.5l0.8-1.1c0-0.7-0.5-3.5-1.3-5.5c-0.2-0.6-0.5-1-0.7-1.4
			c-0.1-0.1-0.1-0.1-0.2-0.2c-1-1.3-2.6-1.1-3.4-0.9c-0.5,0.1-0.8,0.3-0.8,0.3c0.1,0.6,0.1,1.2,0.1,1.8
			C79.3,122.9,79,124.5,78.7,125.7L78.7,125.7z"/>
		
			<linearGradient id="SVGID_1_" gradientUnits="userSpaceOnUse" x1="74.3569" y1="187.0745" x2="84.5158" y2="187.0745" gradientTransform="matrix(1 0 0 1 0 2)">
			<stop  offset="0" style="stop-color:#0B936B"/>
			<stop  offset="1" style="stop-color:#04392A"/>
		</linearGradient>
		<path class="st4" d="M81.2,185.7c-2.2,0.4-6.3,2.5-6.3,2.5l-0.6,4.5c1.6-0.9,3.7-1.8,5-2.3c2.2-0.8,4.6-2,5.1-3.2
			C84.9,185.9,83.4,185.2,81.2,185.7L81.2,185.7z"/>
		
			<linearGradient id="SVGID_2_" gradientUnits="userSpaceOnUse" x1="165.5091" y1="187.0925" x2="175.668" y2="187.0925" gradientTransform="matrix(1 0 0 1 0 2)">
			<stop  offset="0" style="stop-color:#04392A"/>
			<stop  offset="1" style="stop-color:#0B936B"/>
		</linearGradient>
		<path class="st5" d="M168.8,185.7c-2.2-0.4-3.7,0.3-3.2,1.5c0.4,1.2,2.9,2.5,5.1,3.2c1.3,0.5,3.4,1.3,5,2.3l-0.6-4.5
			C175.2,188.1,171,186,168.8,185.7L168.8,185.7z"/>
		<path class="st3" d="M185.9,170.4c-6.6-3.1-14.2-5.6-22.3-7.6c-3.3-0.8-6.7-1.4-10.1-2c-0.3,0-0.5-0.1-0.8-0.1
			c-0.9-0.2-1.8-0.3-2.7-0.4c-0.6-0.1-1.1-0.2-1.7-0.2c-0.9-0.1-1.9-0.3-2.8-0.4c-6.2-0.8-12.8-1.1-19.3-1.1h-2.5
			c-6.6,0-13,0.5-19.3,1.1c-0.9,0.1-1.9,0.2-2.8,0.4c-0.6,0.1-1.1,0.2-1.7,0.2c-0.9,0.1-1.9,0.3-2.7,0.4c-0.3,0-0.5,0.1-0.8,0.1
			c-3.5,0.6-6.9,1.2-10.1,2c-8.1,1.9-15.7,4.4-22.3,7.6c-2.6,1.1-4.9,2.5-7.2,3.8c-1.3,0.8-1.8,2.5-1,3.8l6.2,13.2
			c0.2-1.8,2.1-3.7,3.8-4.5c10.1-5.5,23.9-9.4,39.1-11.2c0.9-0.1,1.9-0.2,2.8-0.3c0.6-0.1,1.1-0.1,1.7-0.2c0.9-0.1,1.9-0.2,2.8-0.3
			c3.8-0.3,7.7-0.5,11.5-0.5h2.5c3.9,0,7.7,0.2,11.5,0.5c0.9,0.1,1.9,0.2,2.8,0.3c0.6,0.1,1.1,0.1,1.7,0.2c0.9,0.1,1.9,0.2,2.8,0.3
			c15.2,1.9,28.9,5.8,39.1,11.2c1.7,0.9,3.6,2.7,3.8,4.5l6.2-13.2c0.8-1.3,0.3-3-1-3.8C190.8,172.9,188.5,171.7,185.9,170.4
			 M192.7,177.2l-4.9,10.4c-0.9-0.9-1.9-1.8-2.9-2.4c-10.3-5.6-24-9.5-39-11.4c-0.9-0.1-1.9-0.2-2.8-0.4c-0.6-0.1-1.1-0.1-1.7-0.2
			c-0.9-0.1-1.9-0.2-2.8-0.3c-4.1-0.3-8.1-0.5-12.3-0.6h-2.5c-4.2,0-8.3,0.2-12.3,0.6c-0.9,0.1-1.9,0.2-2.8,0.3
			c-0.6,0.1-1.1,0.1-1.7,0.2c-0.9,0.1-1.9,0.2-2.8,0.4c-15.1,1.9-28.7,5.9-39,11.4c-1,0.6-2.1,1.4-2.9,2.4l-4.8-10.4
			c-0.4-0.7-0.2-1.4,0.4-1.7c2.2-1.3,4.5-2.6,7-3.7c9.5-4.4,20.9-7.7,33.3-9.6c1.5-0.2,2.9-0.5,4.4-0.7c0.9-0.1,1.9-0.2,2.8-0.4
			c6-0.7,12.2-1,18.5-1h2.5c6.3,0,12.5,0.4,18.5,1c0.9,0.1,1.9,0.2,2.8,0.4c0.6,0.1,1.1,0.2,1.7,0.2c0.9,0.1,1.9,0.3,2.7,0.4
			c12.4,1.9,23.7,5.2,33.3,9.6c2.5,1.1,4.8,2.4,7,3.7C192.8,175.9,193,176.7,192.7,177.2L192.7,177.2z"/>
		
			<linearGradient id="SVGID_3_" gradientUnits="userSpaceOnUse" x1="16.0567" y1="46.8627" x2="233.7198" y2="46.8627" gradientTransform="matrix(1 0 0 1 0 2)">
			<stop  offset="0.16" style="stop-color:#030916"/>
			<stop  offset="0.5" style="stop-color:#040E23"/>
			<stop  offset="0.87" style="stop-color:#030916"/>
		</linearGradient>
		<path class="st6" d="M176.9,48.4l-1.3-1.1c0,0-1.4,0.7,0.8,3.2L176.9,48.4z"/>
		
			<linearGradient id="SVGID_4_" gradientUnits="userSpaceOnUse" x1="16.0644" y1="58.8965" x2="233.7159" y2="58.8965" gradientTransform="matrix(1 0 0 1 0 2)">
			<stop  offset="0.16" style="stop-color:#030916"/>
			<stop  offset="0.5" style="stop-color:#040E23"/>
			<stop  offset="0.87" style="stop-color:#030916"/>
		</linearGradient>
		<path class="st7" d="M178.5,64.1c0,0,1.9,1.5,2.5,0.9c0.5-0.6,0-1.1,0-1.1l-1.5-2.6l0.1,2.1l-1.8-2.7l0.7-2.6l-0.8-1.2l-0.4,2.6
			l-0.6,1.4L178.5,64.1L178.5,64.1z"/>
		
			<linearGradient id="SVGID_5_" gradientUnits="userSpaceOnUse" x1="16.2718" y1="122.7957" x2="233.8282" y2="122.7957" gradientTransform="matrix(1 0 0 1 0 2)">
			<stop  offset="0.16" style="stop-color:#030916"/>
			<stop  offset="0.5" style="stop-color:#040E23"/>
			<stop  offset="0.87" style="stop-color:#030916"/>
		</linearGradient>
		<path class="st8" d="M210.5,128.8c-7.4-3.2-15.6-10.6-19.7-21.3h-0.1l-4.4-10.1l16.6-31.6h-19l0.9-2.2l-2.9-3.8
			c0.1-4.9-0.9-10.9-0.9-10.9l-3-3.6c-1.3-8-3.4-9.3-3.4-9.3s-0.8-0.5-3.2,0.4c-2.5,0.9-3.4,4-3.4,4l-0.3,1.8
			c-0.4-0.1-1.5-0.6-1.5-0.6l0.9-0.9l-1.5-0.1c-0.4-0.4-0.5-1-0.5-1l-1.1-0.9c0,0-1.6,1.4-2.3,2.1c-0.8,0.8-0.9,2.2-0.9,2.2
			s0.5,2.7,0.9,3.8c0.2,0.6,0.2,2.1,0.2,2.1s0,1.9-0.9,3.7c-0.9,1.8-4,6.8-4,6.8l1.1,0.1l-4.4,5.3l2,0.2l-0.5,0.9h-5.1l-4.4-1
			l3.2-5.2l-6.1,0.2l1.8-5.9l-5.9,1.8l0.2-6.1l-5.2,3.2l-1.4-6l-4.2,4.4l-2.9-5.4l-2.9,5.4l-4.2-4.4l-1.4,6l-5.2-3.2l0.2,6.1
			l-5.9-1.8l1.8,5.9l-6.1-0.2l3.2,5.2l-4.4,1h-5.1L94.4,65l2-0.2l-4.4-5.3l1.1-0.1c0,0-3-4.9-4-6.8c-0.9-1.9-0.9-3.7-0.9-3.7
			s0-1.5,0.2-2.1c0.4-1.1,0.9-3.8,0.9-3.8s-0.1-1.4-0.9-2.2c-0.8-0.8-2.3-2.1-2.3-2.1l-1.1,0.9c0,0-0.1,0.6-0.5,1L83,40.9l0.9,0.9
			c0,0-1,0.5-1.5,0.6L82,40.5c0,0-0.9-3.1-3.4-4s-3.2-0.4-3.2-0.4s-2.1,1.3-3.4,9.3l-3,3.6c0,0-0.9,5.9-0.9,10.9l-2.9,3.8l0.9,2.2
			H47.3l16.6,31.6l-4.4,10.1h-0.1c-4.3,10.7-12.5,18-19.8,21.3c-11,4.8-23.2,3.5-23.2,3.5c4.4,14.6,19.5,7.4,19.5,7.4l-0.9,4.3
			c8.6-2.5,12.3-9,12.3-9l1.7,3.6l6.2-12.2l2.2,6.4c1.4,3.3,1.4,7.6,1.4,7.6c-1.1,2-7.4,12.3-7.4,12.3l0.3,14.8l5.2,4.8
			c-0.3,0.2-0.6,0.3-0.8,0.5c-2.2,1.3-2.9,4.1-1.7,6.2l6.2,13.4c0.8,1.6,1.7,2.2,4.5,1.5c2.8-0.7,7.7-2.8,7.7-2.8l-1.2,5.5
			c0,0,3.9-2.4,7.5-3.8c3.6-1.4,8.7-3.4,7.3-7.6l-1.4-4c6.3-1.8,13.4-3.2,21.1-4.2l3.2,6.1H95.2c-0.9,0-1.5,0.7-1.5,1.5l0,0
			c0,0.9,0.7,1.5,1.5,1.5h15.4l10.1,19.1c-8.7-0.8-16.7-4-23.3-8.9l6-3.5H86.6c1.9,2.3,4,4.3,6.2,6.2c6.6,5.6,14.7,9.4,23.6,11
			c6.2,1.3,8.6,3.4,8.6,3.4s2.4-2.1,8.6-3.4c8.9-1.5,17-5.4,23.6-11c2.3-1.9,4.3-4,6.2-6.2h-16.7l6,3.5c-6.6,4.9-14.6,8.1-23.3,8.9
			l10.1-19.1h15.4c0.9,0,1.5-0.7,1.5-1.5l0,0c0-0.9-0.7-1.5-1.5-1.5h-13.8l3.2-6.1c7.7,0.9,14.7,2.4,21.1,4.2l-1.4,4
			c-1.4,4.1,3.7,6.1,7.3,7.6c3.6,1.4,7.5,3.8,7.5,3.8l-1.2-5.5c0,0,4.9,2.3,7.7,2.8c2.8,0.7,3.7,0.1,4.5-1.5l6.2-13.4
			c1.2-2.3,0.5-5-1.7-6.2c-0.3-0.2-0.6-0.3-0.8-0.5l5.2-4.8l0.3-14.8c0,0-6.2-10.4-7.4-12.3c0,0,0-4.3,1.4-7.6l2.2-6.4l6.2,12.2
			l1.7-3.6c0,0,3.7,6.5,12.3,9l-0.9-4.3c0,0,15.1,7.4,19.5-7.4C233.7,132.3,221.5,133.6,210.5,128.8L210.5,128.8z M198.4,68.4
			l-13.6,25.8l-0.9-1.9L195.9,70h-16.3l0.1-1.4l0.7-0.2L198.4,68.4L198.4,68.4z M182.7,89.3l-3.7-8.4l0.3-8.2h12.1L182.7,89.3
			L182.7,89.3z M125,54.8c7.5,0,14,4.5,16.8,11h-33.6C111,59.3,117.5,54.8,125,54.8 M153.7,68.4l-0.4,0.8l-0.5,0.8H97.1l-0.5-0.8
			l-0.4-0.8H153.7L153.7,68.4z M148.6,80.3l-3.3-1.5l3.3-1.1l0.9-0.3l-0.3,0.8l-0.7,1.9L148.6,80.3L148.6,80.3z M147.3,76.4
			l-4.1,1.4l-0.5-0.2l-0.4-0.2l-6.7,0.5l-1.1,2.2v0.5c-2.7-0.8-5.5-1.2-8.3-1.3v-6.5h25.2v0.1l-0.8,1.4l-0.3,0.5l-0.3,0.9
			L147.3,76.4L147.3,76.4z M159.9,108.3l6.7,6.6c0,0-5.1,6.8-4.8,13.2l0.3,0.5l-15.5,29.5c-6.5-0.8-13.3-1.2-20.2-1.2V150
			c19-0.7,34.2-16.2,34.2-35.4C160.4,112.4,160.2,110.4,159.9,108.3L159.9,108.3z M170.6,121.2c0.1,1.6,0.4,3.3,0.7,4.4
			c0.2,0.8,0.4,1.2,0.4,1.2l-0.9,5.1l-1.2-0.9l-0.8,3.2l-1.1-1.8l-1.6-2.6l-0.9-1.5l-0.8-1.1c0-0.7,0.5-3.5,1.3-5.5
			c0.2-0.6,0.5-1,0.7-1.4c0.1-0.1,0.1-0.2,0.2-0.2c1-1.3,2.6-1.1,3.4-0.9c0.5,0.1,0.8,0.3,0.8,0.3
			C170.6,120,170.6,120.7,170.6,121.2L170.6,121.2z M186.6,162.3l-2.7-1.4l-2.2,0.6l-1.2,2.5l-0.5,2c-4.8-1.8-10-3.4-15.5-4.7l4-8.5
			l10.4-9.4c0,0,5,5.3,9.8,9.2l1.5,10.7L186.6,162.3L186.6,162.3z M188.5,165.1l-1,3.5l-2-0.8l1.1-3.6L188.5,165.1L188.5,165.1z
			 M185.4,163.8l-1.1,3.5l-2.2-0.7l0.5-2l1.1-1.6L185.4,163.8z M167.3,151.3l-2.7-1.4l0.9,3.8l-3.1,7.1c-1.9-0.5-3.9-0.9-5.9-1.1
			l1.1-3.6l3.8-0.6l-0.9-2l8.9-12.2l2.5,5L167.3,151.3L167.3,151.3z M153.5,153.7l-1.6-0.3l11.6-22.1l0.9,1.6L153.5,153.7z
			 M156,155.9l-0.9,3.3c-0.5-0.1-0.9-0.2-1.3-0.2c-0.3,0-0.6-0.1-0.9-0.1l0.9-3.3l1.5,0.2L156,155.9L156,155.9z M152.6,155.5
			l-0.1,0.2l-0.9,3l-0.6-0.1c-0.5-0.1-0.9-0.1-1.3-0.2l0.2-1l0.1-0.9l0.9-1.5l0.2,0.1L152.6,155.5z M166.1,135.6l2.1,3.5
			c0,0-6.9,10.6-10.4,14.5l-1.1,0.1L166.1,135.6L166.1,135.6z M126.2,146.9c-0.4,0-0.9,0-1.2,0s-0.9,0-1.2,0
			c-17.3-0.7-31.2-14.9-31.2-32.4c0-3.7,0.7-7.3,1.8-10.6c1.7-5,4.6-9.5,8.5-13.1c1.3-1.2,2.7-2.4,4.3-3.3c1.3-0.9,2.6-1.6,4-2.3
			c3.9-1.8,8.1-2.9,12.6-3.1c0.4,0,0.9,0,1.2,0s0.9,0,1.2,0c4.5,0.2,8.8,1.2,12.6,3.1c1.4,0.7,2.7,1.4,4,2.3c1.5,1,2.9,2.1,4.3,3.3
			c3.9,3.6,6.8,8,8.5,13.1c1.1,3.4,1.8,7,1.8,10.6C157.4,132.1,143.6,146.4,126.2,146.9L126.2,146.9z M96.5,153.7l-11-20.9l0.9-1.6
			l11.6,22.1L96.5,153.7z M97.1,158.9c-0.3,0-0.6,0.1-0.9,0.1c-0.5,0.1-0.9,0.2-1.3,0.2l-0.9-3.3l0.7-0.1l1.5-0.2L97.1,158.9
			L97.1,158.9z M66.2,160.9l-2.7,1.4l-3.5,0.8l1.5-10.7c4.8-3.9,9.8-9.2,9.8-9.2l10.4,9.4l4,8.5c-5.5,1.3-10.7,2.8-15.5,4.7l-0.5-2
			l-1.2-2.5L66.2,160.9L66.2,160.9z M67.9,166.6l-2.2,0.7l-1.1-3.5l1.7-0.8l1.1,1.6L67.9,166.6z M64.5,167.8l-2,0.8l-1-3.5l1.8-0.9
			L64.5,167.8L64.5,167.8z M84.5,153.6l0.9-3.8l-2.7,1.4l-4.5-5l2.5-5l8.9,12.2l-0.9,2l3.7,0.6l1.1,3.6c-2,0.4-4,0.8-5.9,1.1
			L84.5,153.6z M79.3,119.4c0,0,0.3-0.2,0.8-0.3c0.9-0.3,2.5-0.4,3.4,0.9c0.1,0.1,0.1,0.1,0.2,0.2c0.3,0.4,0.5,0.9,0.7,1.4
			c0.8,2.1,1.3,4.9,1.3,5.5l-0.8,1.1l-0.9,1.5l-1.6,2.6l-1.1,1.8l-0.8-3.2l-1.2,0.9l-0.9-5.1c0,0,0.2-0.5,0.4-1.2
			c0.3-1.1,0.6-2.7,0.7-4.4C79.4,120.7,79.4,120,79.3,119.4L79.3,119.4z M92.3,153.5c-3.6-4-10.4-14.5-10.4-14.5l2.1-3.5l9.5,18.1
			L92.3,153.5L92.3,153.5z M98.9,155l0.2-0.1l0.9,1.5l0.1,0.9l0.2,1c-0.5,0.1-0.9,0.1-1.3,0.2l-0.6,0.1l-0.9-3l-0.1-0.2L98.9,155z
			 M88.1,128.6l0.3-0.5c0.3-6.4-4.8-13.2-4.8-13.2l6.7-6.6c-0.4,2.1-0.6,4.2-0.6,6.3c0,19.2,15.2,34.8,34.2,35.4v6.8
			c-6.9,0-13.7,0.5-20.2,1.2L88.1,128.6z M100.9,78.1l-0.3-0.8l0.9,0.3l3.3,1.1l-3.3,1.5l0.1-0.2L100.9,78.1L100.9,78.1z
			 M102.7,76.4l-2.7-0.9l-0.3-0.9l-0.3-0.5l-0.8-1.4v-0.1h25.2v6.5c-2.8,0.1-5.7,0.6-8.3,1.3V80l-1.1-2.2l-6.7-0.5l-0.4,0.2
			l-0.5,0.2L102.7,76.4z M51.6,68.4h18.2l0.7,0.2l0.1,1.4H54.2l11.8,22.4l-0.9,1.9L51.6,68.4L51.6,68.4z M70.7,72.7l0.3,8.2
			l-3.7,8.4l-8.8-16.6H70.7L70.7,72.7z M54,166.7l-0.1-9.6l1.8-3.3l-2.1,0.6l0.1-2.1l4.3-6.9l3.3-5.3l-0.9-5.1l3.4-9.3l-4.7,5.2
			c0,0-0.5-0.9-0.9-2.2l2.6-4.3l-3.4,1.8c-0.5-1.5-0.9-3.3-0.9-5.1l0.1-0.5l-7.7,12.1l-1-2.4c-3.2,6.6-10.1,8.8-10.1,8.8l0.4-3.3
			c0,0-2.2,1.8-9.3,2.5c-7.1,0.7-9-4.3-9-4.3c5.6,0.4,12-0.4,20.5-3.4c8.6-3,14.8-11.2,14.8-11.2l1.9-2.2c0,0,2.2-3.4,3.9-7.6l1.8-4
			l2.6-5.7l1.4-3l0.9-1.8l1.4-3l5.3-11.5l-0.7-0.2L73,72.7L72.8,70l-0.1-1.6l-0.2-2c0.5-0.2,0.9-0.5,1.4-0.7c0,0,0.1,0,0.1-0.1v0.1
			l0.4,2.6l0.2,1.6l0.4,2.6l0.1,0.8l0.1-0.8l0.3-2.6l0.2-1.6l0.3-2.6l0.3-2.5c0.5-0.9,0.9-2,0.9-2l-0.2-1.8c0,0-1.3,3-2.6,4.3
			c-0.8,0.9-2.2,1.4-3.2,1.8c-0.7,0.3-1.2,0.4-1.2,0.4l-1.2-0.4l-0.9-0.3l-0.2-1.5l2.3-3.5c0,0,0.1-6.9,0.9-10.5l2.9-3.6l2-7.8
			l0.5,0.7l1.6-1.3c0,0,1.1-0.1,2.7,2.1c0.9,1.1-0.3,1.9,1.4,4.7c0,0,0.6-0.8,1.2-0.9c0.7-0.1,1.6-0.5,2.3-1.2
			c0.7-0.8,0.9-1.3,0.9-1.3s1.2,0.8,1.1,1.7c0,0.9-0.9,4-0.9,4.4c-0.1,0.5-0.1,3.6,0.8,5c0.9,1.3,3,6,3,6l-0.9-0.3l4.1,5.3l-0.9,0.1
			l0.1,0.2l-4.3-4.6l1.5,5.1l-7.7-8.4l0.5,5.4l-2.9-1l4.9,5.8v0.1v-0.1l-0.5-5.3l4.4,5.3l2.2,2.6l1,1.2v-1.2l-0.1-2.6v-0.9l0.8,0.9
			l2.3,2.6l0.5,0.6l0.5,1l1.3,2.6l1.3,2.8l0.6,1.9l-3.3-4.6l-1.4-2.1l-0.3,2.1l-0.2,0.9l-0.9-0.9L89.9,70l-1.7-1.6l-1.4-1.3
			l-0.1,1.3L86.6,70v0.1L86.4,70l-1.8-1.6l-2.9-2.6L79,63.4l2,2.4l2.2,2.6l1.3,1.6l2.2,2.6l1.5,1.8l0.1-1.8l0.1-2.4l2,2.4l3.5,4.2
			l1.1-2.1l2.7,7.5l-2.1,1.2l-0.9-4.2l-1.1,2.1l-3.5-6.4l-0.6,3.1L84.4,73l5.6,9.7l0.9-2.6l1.6,5.1l-3.7,2.3l-2.2-6.3L85.5,80
			l1.3,8.8L84,90.2l3.4,0.1L99.1,83l3.6-1.6l4.9-2.3l0.9-0.5l5,0.7l0.7,1.4L114,81c-0.4,0.1-0.9,0.3-1.2,0.5l-0.6-0.9l-4.3-0.7l0,0
			l-2.1,0.9l2.6,0.3l2.9,0.4l0.2,0.5c-0.7,0.3-1.3,0.6-2,0.9l-0.4-0.5H109l-4.5-0.6l0,0l-1.2,0.9l0.7,0.1l3.7,0.6l0.3,0.4
			c-0.9,0.5-1.7,0.9-2.6,1.5c-1,0.5-1.9,0.9-2.5,1.1c-0.9,0.4-1.2,0.6-1.2,0.6l-0.1,0.1l-16.8,13.8l-6.9-3.4l-0.1-0.2l-1.9-3.4
			l-4.4-0.7l1,2l1.6,0.7l-2.3,2.2l-2,1.9l-1.1,1.1l-0.7,0.7l0.8-0.5l1.3-0.9l2.2-1.4L75,97l0.5,1.4l0.2,0.5l-2.6,1.6l-2.3,1.3
			l-1.3,0.9l-2.3,1.3l-1.4,0.9l2,0.4l1.2,0.2l-0.8,0.7l-4.2,3.4l4.7-2.4l2.4-1.1l1.4-0.7l1.7-0.9l-2.4-0.4l-1.4-0.3l1-0.5l2.4-1.1
			l3.9-1.9l2.4,0.9l-5.2,1.9l5.2,0.4l-4.5,2l-2.5,1l-1.4,0.7l-1.3,0.6l1.7,0.2l1.9,0.3l0.9,0.1l-0.7,0.5l-1.3,0.9l-2.3,1.4l-3.3,2.1
			l4.2-0.4h0.3l-0.2,0.2l-7.9,6.4l10.3-1.9l1,10.2c0,0,0.9,5.3-0.4,7.6s-5.7,7.1-5.7,7.1l-8.1,7.5l-2.8-0.7l1.4,3.3l-1.2,10.2
			l-1.4,2l3.2,0.8l1.4,3.8l-3.6,1.4L54,166.7L54,166.7z M84.5,187.2c-0.4,1.2-2.9,2.5-5.1,3.2c-1.3,0.5-3.4,1.3-5,2.3l0.6-4.5
			c0,0,4.1-2.1,6.3-2.5C83.4,185.2,84.9,185.9,84.5,187.2L84.5,187.2z M125,207.9l-16.3-31.1c0.6-0.1,1.1-0.1,1.7-0.2l14.6,27.9
			l14.6-27.9c0.6,0.1,1.1,0.1,1.7,0.2L125,207.9z M113.2,176.5c3.4-0.3,7-0.4,10.6-0.4v20.4L113.2,176.5z M126.2,196.5V176
			c3.6,0,7.1,0.2,10.6,0.4L126.2,196.5z M170.6,190.4c-2.2-0.8-4.6-2-5.1-3.2c-0.4-1.2,1-2,3.2-1.5c2.2,0.4,6.3,2.5,6.3,2.5l0.6,4.5
			C174,191.7,172,190.8,170.6,190.4L170.6,190.4z M194.2,178l-6.2,13.2c-0.2-1.8-2.1-3.7-3.8-4.5c-10.1-5.5-23.9-9.4-39.1-11.2
			c-0.9-0.1-1.9-0.2-2.8-0.3c-0.6-0.1-1.1-0.1-1.7-0.2c-0.9-0.1-1.9-0.2-2.8-0.3c-3.8-0.3-7.7-0.5-11.5-0.5h-2.5
			c-3.9,0-7.7,0.2-11.5,0.5c-0.9,0.1-1.9,0.2-2.8,0.3c-0.6,0.1-1.1,0.1-1.7,0.2c-0.9,0.1-1.9,0.2-2.8,0.3
			c-15.2,1.9-28.9,5.8-39.1,11.2c-1.7,0.9-3.6,2.7-3.8,4.5L55.7,178c-0.8-1.3-0.3-3,1-3.8c2.3-1.3,4.6-2.6,7.2-3.8
			c6.6-3.1,14.2-5.6,22.3-7.6c3.3-0.8,6.7-1.4,10.1-2c0.3,0,0.5-0.1,0.8-0.1c0.9-0.2,1.8-0.3,2.7-0.4c0.6-0.1,1.1-0.2,1.7-0.2
			c0.9-0.1,1.9-0.3,2.8-0.4c6.2-0.8,12.8-1.1,19.3-1.1h2.5c6.6,0,13,0.5,19.3,1.1c0.9,0.1,1.9,0.2,2.8,0.4c0.6,0.1,1.1,0.2,1.7,0.2
			c0.9,0.1,1.9,0.3,2.7,0.4c0.3,0,0.5,0.1,0.8,0.1c3.5,0.6,6.9,1.2,10.1,2c8.1,1.9,15.7,4.4,22.3,7.6c2.6,1.1,4.9,2.5,7.2,3.8
			C194.4,175,194.9,176.7,194.2,178 M221.3,138.2c-7.1-0.8-9.3-2.5-9.3-2.5l0.4,3.3c0,0-7-2.2-10.1-8.8l-1,2.4l-7.7-12.1l0.1,0.5
			c-0.1,1.8-0.5,3.6-0.9,5.1l-3.4-1.8l2.6,4.3c-0.5,1.3-0.9,2.2-0.9,2.2l-4.7-5.2l3.4,9.3l-0.9,5.1l3.3,5.3l4.3,6.9l0.1,2.1
			l-2.1-0.6l1.8,3.3l-0.1,9.6l-3.7,3.9l-3.6-1.4l1.4-3.8l3.2-0.8l-1.4-2l-1.2-10.2l1.4-3.3l-2.8,0.7l-8.1-7.5c0,0-4.3-4.7-5.7-7.1
			c-1.3-2.3-0.4-7.6-0.4-7.6l0.9-10.1l10.1,1.7l-7.9-6.4l-0.2-0.2h0.3l4.2,0.4l-3.3-2.1l-2.3-1.4l-1.3-0.9l-0.7-0.5l0.9-0.1l1.9-0.3
			l1.7-0.2l-1.3-0.6l-1.4-0.7l-2.5-1l-4.5-2l5.2-0.4l-5.2-1.9l2.4-0.9l3.9,1.9l2.4,1.1l1,0.5l-1.4,0.3l-2.4,0.4l1.7,0.9l1.4,0.7
			l2.4,1.1l4.7,2.4l-4.2-3.4l-0.8-0.7l1.2-0.2l2-0.4l-1.4-0.9l-2.3-1.3l-1.3-0.9l-2.3-1.3l-2.6-1.6l0.2-0.5l0.5-1.4l2.7,1.8l2.2,1.4
			l1.3,0.9l0.8,0.5l-0.7-0.7l-1.1-1.1l-2-1.9l-2.3-2.2l1.6-0.7l1-2l-4.4,0.7l-1.9,3.4l-0.1,0.2l-6.9,3.4l-16.8-13.9l-0.1-0.1
			c0,0-0.5-0.2-1.2-0.6c-0.7-0.3-1.4-0.7-2.5-1.1c-0.9-0.6-1.6-1-2.6-1.5l0.3-0.4l3.7-0.6l0.7-0.1l-1.2-0.9l0,0l-4.5,0.6h-0.1
			l-0.4,0.5c-0.7-0.3-1.3-0.7-2-0.9l0.2-0.5l2.9-0.4l2.6-0.3l-2.1-0.9l0,0l-4.3,0.7l-0.6,0.9c-0.4-0.2-0.9-0.3-1.2-0.5l-0.3-0.3
			l0.7-1.4l5-0.7l1,0.5l4.9,2.3l3.6,1.6l11.7,7.4l3.4-0.1l-2.8-1.4l1.3-8.8l-1.1,1.1l-2.2,6.3l-3.7-2.3l1.6-5.1l0.9,2.6l5.6-9.7
			l-5.2,5.2l-0.6-3.1l-3.5,6.4l-1.1-2.1l-0.8,4.1l-2.1-1.2l2.7-7.5l1.1,2.1l3.5-4.2l2-2.4l0.1,2.4l0.1,1.8l1.5-1.8l2.2-2.6l1.3-1.6
			l2.2-2.6l2-2.4l-2.6,2.4l-2.9,2.6l-1.8,1.6l-0.2,0.1v-0.1l-0.1-1.6l-0.1-1.3l-1.4,1.3l-1.7,1.6l-2.8,2.6l-0.9,0.9l-0.2-0.9
			l-0.5-2.1l-1.4,2.1L151,77l0.6-1.9l1.3-2.8l1.3-2.6l0.5-1l0.5-0.6l2.3-2.6l0.8-0.9v0.9l-0.1,2.6v1.2l1-1.2l2.2-2.6l4.4-5.3
			l-0.5,5.3v0.1v-0.1l4.9-5.8l-2.9,1l0.5-5.4l-7.7,8.4l1.5-5.1l-4.3,4.6l0.1-0.2l-0.9-0.1l4.1-5.3l-0.9,0.3c0,0,2.2-4.6,3-6
			c0.9-1.3,0.8-4.4,0.8-5c-0.1-0.5-0.9-3.5-0.9-4.4c0-0.9,1.1-1.7,1.1-1.7s0.2,0.6,0.9,1.3c0.7,0.8,1.6,1.1,2.3,1.2
			c0.7,0.1,1.2,0.9,1.2,0.9c1.7-2.7,0.6-3.5,1.4-4.7c1.6-2.2,2.7-2.1,2.7-2.1l1.6,1.3l0.5-0.7l2,7.8l2.9,3.6
			c0.8,3.7,0.9,10.5,0.9,10.5l2.3,3.5l-0.2,1.5l-0.9,0.3l-1.2,0.4c0,0-0.5-0.1-1.2-0.4c-1-0.4-2.5-0.9-3.2-1.8
			c-1.2-1.3-2.6-4.3-2.6-4.3l-0.2,1.8c0,0,0.5,1,0.9,2l0.3,2.5l0.3,2.6l0.2,1.6l0.3,2.6l0.1,0.8l0.1-0.8l0.4-2.6l0.2-1.6l0.4-2.6
			v-0.1c0,0,0.1,0,0.1,0.1c0.5,0.2,0.9,0.5,1.4,0.7l-0.2,2l-0.1,1.6l-0.2,2.6l-0.6,7.7l-0.7,0.2l5.3,11.5l1.4,3l0.9,1.8l1.4,3
			l2.6,5.7l1.8,4c1.7,4.2,3.9,7.6,3.9,7.6l1.9,2.2c0,0,6.2,8.2,14.7,11.2c8.5,3,14.9,3.9,20.5,3.4C230.1,134,228.3,139,221.3,138.2
			L221.3,138.2z"/>
		
			<linearGradient id="SVGID_6_" gradientUnits="userSpaceOnUse" x1="16.0606" y1="52.8141" x2="233.7159" y2="52.8141" gradientTransform="matrix(1 0 0 1 0 2)">
			<stop  offset="0.16" style="stop-color:#030916"/>
			<stop  offset="0.5" style="stop-color:#040E23"/>
			<stop  offset="0.87" style="stop-color:#030916"/>
		</linearGradient>
		<path class="st9" d="M166,55v-4.4l-3,8.5L166,55z"/>
		
			<linearGradient id="SVGID_7_" gradientUnits="userSpaceOnUse" x1="16.0606" y1="94.3794" x2="233.7159" y2="94.3794" gradientTransform="matrix(1 0 0 1 0 2)">
			<stop  offset="0.16" style="stop-color:#030916"/>
			<stop  offset="0.5" style="stop-color:#040E23"/>
			<stop  offset="0.87" style="stop-color:#030916"/>
		</linearGradient>
		<path class="st10" d="M158.5,93.8l7.1,5.1l3-1.5l-2.9-0.5L158.5,93.8z"/>
		
			<linearGradient id="SVGID_8_" gradientUnits="userSpaceOnUse" x1="16.0644" y1="46.9572" x2="233.7043" y2="46.9572" gradientTransform="matrix(1 0 0 1 0 2)">
			<stop  offset="0.16" style="stop-color:#030916"/>
			<stop  offset="0.5" style="stop-color:#040E23"/>
			<stop  offset="0.87" style="stop-color:#030916"/>
		</linearGradient>
		<path class="st11" d="M74.5,47.4l-1.3,1.1l0.6,2.1C75.9,48,74.5,47.4,74.5,47.4"/>
		
			<linearGradient id="SVGID_9_" gradientUnits="userSpaceOnUse" x1="16.0606" y1="58.8194" x2="233.7237" y2="58.8194" gradientTransform="matrix(1 0 0 1 0 2)">
			<stop  offset="0.16" style="stop-color:#030916"/>
			<stop  offset="0.5" style="stop-color:#040E23"/>
			<stop  offset="0.87" style="stop-color:#030916"/>
		</linearGradient>
		<path class="st12" d="M72.5,56.6l-0.8,1.2l0.7,2.6l-1.8,2.7l0.1-2.1l-1.5,2.6c0,0-0.5,0.6,0,1.1c0.6,0.8,2.5-0.9,2.5-0.9l1.9-3.4
			L73,59.2L72.5,56.6L72.5,56.6z"/>
		
			<linearGradient id="SVGID_10_" gradientUnits="userSpaceOnUse" x1="16.0606" y1="52.9086" x2="233.7159" y2="52.9086" gradientTransform="matrix(1 0 0 1 0 2)">
			<stop  offset="0.16" style="stop-color:#030916"/>
			<stop  offset="0.5" style="stop-color:#040E23"/>
			<stop  offset="0.87" style="stop-color:#030916"/>
		</linearGradient>
		<path class="st13" d="M84,50.7v4.4l3,4.1L84,50.7z"/>
		
			<linearGradient id="SVGID_11_" gradientUnits="userSpaceOnUse" x1="16.0606" y1="94.3794" x2="233.7198" y2="94.3794" gradientTransform="matrix(1 0 0 1 0 2)">
			<stop  offset="0.16" style="stop-color:#030916"/>
			<stop  offset="0.5" style="stop-color:#040E23"/>
			<stop  offset="0.87" style="stop-color:#030916"/>
		</linearGradient>
		<path class="st14" d="M91.5,93.8l-7.2,3.1l-2.9,0.5l3,1.5L91.5,93.8z"/>
		
			<linearGradient id="SVGID_12_" gradientUnits="userSpaceOnUse" x1="16.0606" y1="173.0228" x2="233.7198" y2="173.0228" gradientTransform="matrix(1 0 0 1 0 2)">
			<stop  offset="0.16" style="stop-color:#030916"/>
			<stop  offset="0.5" style="stop-color:#040E23"/>
			<stop  offset="0.87" style="stop-color:#030916"/>
		</linearGradient>
		<path class="st15" d="M69.7,173.7c0.1,0.4,0.2,0.9,0.2,1.2l0.2,1.3l1.2-0.5l-0.9-1C70.3,174.4,70,174,69.7,173.7L69.7,173.7
			L69.7,173.7z"/>
		
			<linearGradient id="SVGID_13_" gradientUnits="userSpaceOnUse" x1="16.0644" y1="167.4965" x2="233.7081" y2="167.4965" gradientTransform="matrix(1 0 0 1 0 2)">
			<stop  offset="0.16" style="stop-color:#030916"/>
			<stop  offset="0.5" style="stop-color:#040E23"/>
			<stop  offset="0.87" style="stop-color:#030916"/>
		</linearGradient>
		<path class="st16" d="M87.8,168.2L87.8,168.2c0,0.4,0,0.9,0,1.2l-0.1,1.4l1.3-0.3l-0.7-1.2C88.1,168.9,87.9,168.5,87.8,168.2"/>
		
			<linearGradient id="SVGID_14_" gradientUnits="userSpaceOnUse" x1="16.0606" y1="171.842" x2="233.7159" y2="171.842" gradientTransform="matrix(1 0 0 1 0 2)">
			<stop  offset="0.16" style="stop-color:#030916"/>
			<stop  offset="0.5" style="stop-color:#040E23"/>
			<stop  offset="0.87" style="stop-color:#030916"/>
		</linearGradient>
		<path class="st17" d="M192.3,175.5c-2.2-1.3-4.5-2.6-7-3.7c-9.5-4.4-20.9-7.7-33.3-9.6c-1.5-0.2-2.9-0.5-4.4-0.7
			c-0.9-0.1-1.9-0.2-2.8-0.4c-6-0.7-12.2-1-18.5-1h-2.5c-6.3,0-12.5,0.4-18.5,1c-0.9,0.1-1.9,0.2-2.8,0.4c-0.6,0.1-1.1,0.2-1.7,0.2
			c-0.9,0.1-1.9,0.3-2.7,0.4c-12.4,1.9-23.7,5.2-33.3,9.6c-2.5,1.1-4.8,2.4-7,3.7c-0.6,0.4-0.8,1-0.4,1.7l4.8,10.4
			c0.9-0.9,1.9-1.8,2.9-2.4c10.3-5.6,23.9-9.5,39-11.4c0.9-0.1,1.9-0.2,2.8-0.4c0.6-0.1,1.1-0.1,1.7-0.2c0.9-0.1,1.9-0.2,2.8-0.3
			c4.1-0.3,8.1-0.5,12.3-0.6h2.5c4.2,0,8.2,0.2,12.3,0.6c0.9,0.1,1.9,0.2,2.8,0.3c0.6,0.1,1.1,0.1,1.7,0.2c0.9,0.1,1.9,0.2,2.8,0.4
			c15.1,1.9,28.7,5.9,39,11.4c1,0.6,2.1,1.4,2.9,2.4l4.9-10.4C193.1,176.7,192.9,175.9,192.3,175.5L192.3,175.5z M73,178l-1-1.3
			l-1.6,0.7l0.2,1.6l-1.3,0.6l-0.8-6.5l1.6-0.7l4.2,5.1L73,178L73,178z M78.8,175.9l-2-1.9c-0.6-0.6-1.1-1.1-1.7-1.8l0,0
			c0.3,0.8,0.6,1.6,0.9,2.6l0.6,1.8l-1.2,0.4l-2-6l1.5-0.5l1.9,1.8c0.6,0.5,1.1,1.1,1.6,1.7l0,0c-0.4-0.8-0.7-1.5-0.9-2.5l-0.6-1.7
			l1.2-0.4l2,6L78.8,175.9L78.8,175.9z M83.1,174.8c-0.7,0.2-1.3,0.2-1.7,0.1v-1.2c0.4,0.1,1,0.1,1.6,0c0.6-0.2,0.9-0.5,0.8-0.9
			c-0.1-0.4-0.5-0.5-1.2-0.6c-1-0.1-1.9-0.5-2.1-1.3c-0.3-1,0.3-2.1,1.7-2.5c0.7-0.2,1.1-0.2,1.6-0.1v1.2c-0.5-0.1-0.9-0.1-1.3,0
			c-0.6,0.2-0.8,0.5-0.7,0.9c0.1,0.4,0.5,0.5,1.3,0.6c1.1,0.1,1.8,0.6,2,1.4C85.2,173.3,84.7,174.3,83.1,174.8L83.1,174.8z
			 M90.1,172.9l-0.9-1.5l-1.7,0.4l-0.1,1.7l-1.4,0.3l0.5-6.5l1.7-0.4l3.2,5.7L90.1,172.9L90.1,172.9z M96.3,171.8l-1.7-2.2
			c-0.5-0.6-1-1.3-1.4-2l0,0c0.2,0.9,0.4,1.7,0.6,2.6l0.3,1.9l-1.2,0.2l-1-6.1l1.6-0.3L95,168c0.5,0.6,0.9,1.3,1.3,2l0,0
			c-0.2-0.9-0.4-1.6-0.6-2.6l-0.3-1.8l1.2-0.2l1,6.1L96.3,171.8L96.3,171.8z M105.4,170.5c-0.3,0.1-0.6,0.2-0.9,0.2
			c-0.9,0.1-1.6,0-2.2-0.4c-0.1-0.1-0.3-0.1-0.4-0.2c-0.6-0.5-1-1.2-1.1-2.2c0-0.1,0-0.3,0-0.4c0-1.2,0.6-2.3,1.5-2.7
			c0.5-0.3,0.9-0.4,1.5-0.5l0,0c0.8-0.1,1.4,0,1.7,0.1l-0.2,1.1c-0.3-0.1-0.6-0.1-0.9-0.1c-0.2,0-0.3,0-0.5,0c-0.4,0-0.8,0.2-1,0.4
			c-0.5,0.4-0.8,0.9-0.7,1.8c0.2,1.3,1,2,2.1,1.8c0.2,0,0.3-0.1,0.5-0.1c0.1,0,0.2-0.1,0.2-0.1l-0.2-1.3l-0.8,0.1h-0.2l-0.1-0.5
			l-0.1-0.7l1.4-0.2l0.8-0.1l0.3,2.1l0.2,1.2C106.2,170.3,105.8,170.4,105.4,170.5L105.4,170.5z M111,170.1
			c-0.1-0.2-0.3-0.7-0.6-1.4c-0.2-0.8-0.5-0.9-1-0.9H109l0.1,0.9l0.1,1.6l-1.3,0.1l-0.4-4.7l-0.1-1.4c0.5-0.1,1-0.2,1.8-0.3
			c0.9-0.1,1.5,0,2,0.4c0.4,0.3,0.6,0.7,0.7,1.2c0.1,0.8-0.5,1.4-0.9,1.6l0,0c0.5,0.2,0.7,0.6,0.9,1.1c0.3,0.7,0.5,1.5,0.7,1.7
			L111,170.1L111,170.1z M113.6,169.9l-0.3-6.2l3.7-0.2l0.1,1.1l-2.4,0.1l0.1,1.3l2.2-0.1l0.1,1.1l-2.2,0.1l0.1,1.5l2.5-0.1l0.1,1.1
			L113.6,169.9L113.6,169.9z M118.8,169.7l-0.1-6.2l3.7-0.1v1.1l-2.4,0.1v1.3l2.2-0.1v1.1L120,167v1.5l2.5-0.1v1.1L118.8,169.7
			L118.8,169.7z M128.9,169.6h-1.4l-1.2-2.3l-0.1-0.2c-0.4-0.7-0.8-1.5-1-2.3l0,0c0,0.9,0,1.7,0,2.7v1.9h-1.2v-6.2h1.6l0.8,1.4
			l0.5,0.9c0.4,0.7,0.7,1.4,0.9,2.2l0,0c-0.1-0.9-0.1-1.7-0.1-2.6v-1.8h1.2L128.9,169.6z M134.4,164.7l-2.4-0.1v1.3l2.2,0.1v1.1
			L132,167l-0.1,1.5l2.5,0.1v1.1l-3.9-0.1l0.2-6.2l3.7,0.1L134.4,164.7z M139.8,168.4c0.1,0.7,0.3,1.4,0.4,1.7l0,0l0,0l-1.3-0.1
			c-0.1-0.2-0.2-0.7-0.3-1.5c-0.1-0.8-0.4-1-0.9-1h-0.4l-0.2,2.5l-1.3-0.1l0.4-6.1c0.5,0,1.1-0.1,1.8,0c0.9,0.1,1.5,0.3,1.9,0.7
			c0.4,0.3,0.5,0.8,0.5,1.3c-0.1,0.8-0.7,1.3-1.1,1.5l0,0C139.5,167.3,139.6,167.8,139.8,168.4L139.8,168.4z M144,166.8
			c0.3,0.1,0.5,0.3,0.7,0.4c0.6,0.5,0.8,0.9,0.8,1.6c-0.1,1-0.9,1.8-2.5,1.7c-0.1,0-0.1,0-0.2,0c-0.7-0.1-1.3-0.3-1.7-0.6l0.4-1.1
			c0.4,0.2,0.9,0.5,1.4,0.6c0.3,0,0.5,0,0.6-0.1c0.3-0.1,0.4-0.3,0.4-0.5c0-0.1,0-0.2,0-0.2c-0.1-0.3-0.4-0.5-0.9-0.8
			c-0.6-0.3-0.9-0.6-1.2-0.9c-0.2-0.3-0.3-0.7-0.3-1c0.1-0.9,0.8-1.5,1.7-1.6c0.2,0,0.5-0.1,0.8,0c0.7,0.1,1.1,0.3,1.5,0.5l-0.4,1.1
			c-0.2-0.2-0.7-0.4-1.2-0.4c-0.6-0.1-0.9,0.2-0.9,0.5C143,166.2,143.2,166.4,144,166.8L144,166.8z M153.1,166.6l-2.3-0.3l-0.2,1.4
			l2.2,0.3l-0.2,1.1l-2.2-0.3l-0.4,2.5l-1.3-0.2l0.5-3.4l0.4-2.8l1,0.2l2.6,0.4L153.1,166.6L153.1,166.6z M158.8,167.7
			c-0.3-0.2-0.6-0.4-1-0.5c-1-0.2-2,0.3-2.3,1.7c-0.2,1.2,0.4,2.2,1.5,2.4c0.4,0.1,0.9,0.1,1.1,0v1.1c-0.3,0.1-0.9,0.1-1.6,0
			c-2.1-0.4-2.8-1.9-2.6-3.7c0.4-2.1,2.1-3,3.9-2.6c0.7,0.1,1.2,0.4,1.4,0.6L158.8,167.7L158.8,167.7z M166.2,170.2
			c-0.3,0.9-1.1,1.6-2.1,2.2l-0.7,0.3l0,0l2.1,0.6l-0.3,1.1l-4-0.9l0.2-0.9l0.9-0.5c1.5-0.9,2.3-1.3,2.5-2.1
			c0.1-0.5-0.1-0.9-0.8-1.1c-0.5-0.1-0.9,0-1.3,0.2l-0.1-1c0.5-0.2,1.2-0.4,2-0.2C165.9,168.1,166.5,169,166.2,170.2L166.2,170.2z
			 M171.5,172.9c-0.6,1.8-1.6,2.8-3,2.4c-1.4-0.5-1.7-2-1.2-3.6c0.5-1.7,1.6-2.8,3-2.4C171.8,169.8,172,171.3,171.5,172.9
			L171.5,172.9z M174.4,177.1l-1.2-0.5l1.6-4.5l0,0l-1.2,0.2l0.2-1l1.7-0.2l1,0.4L174.4,177.1z M182.4,174.8l-4.3,3.8l-1.3-0.6
			l4.2-3.5l0,0l-2.5-1l0.5-1l3.8,1.6L182.4,174.8z"/>
		
			<linearGradient id="SVGID_15_" gradientUnits="userSpaceOnUse" x1="16.0528" y1="170.2815" x2="233.7198" y2="170.2815" gradientTransform="matrix(1 0 0 1 0 2)">
			<stop  offset="0.16" style="stop-color:#030916"/>
			<stop  offset="0.5" style="stop-color:#040E23"/>
			<stop  offset="0.87" style="stop-color:#030916"/>
		</linearGradient>
		<path class="st18" d="M170,170.3c-0.5-0.2-0.9,0.4-1.4,1.7c-0.4,1.3-0.3,2.1,0.2,2.2c0.5,0.2,0.9-0.5,1.3-1.7
			C170.5,171.2,170.4,170.4,170,170.3L170,170.3z"/>
		
			<linearGradient id="SVGID_16_" gradientUnits="userSpaceOnUse" x1="16.0528" y1="163.5289" x2="233.7237" y2="163.5289" gradientTransform="matrix(1 0 0 1 0 2)">
			<stop  offset="0.16" style="stop-color:#030916"/>
			<stop  offset="0.5" style="stop-color:#040E23"/>
			<stop  offset="0.87" style="stop-color:#030916"/>
		</linearGradient>
		<path class="st19" d="M137.9,164.7c-0.3,0-0.6,0-0.7,0l-0.1,1.7h0.6c0.7,0,1.1-0.3,1.1-0.9C138.9,165.1,138.6,164.8,137.9,164.7
			L137.9,164.7z"/>
		
			<linearGradient id="SVGID_17_" gradientUnits="userSpaceOnUse" x1="16.0606" y1="163.7651" x2="233.7198" y2="163.7651" gradientTransform="matrix(1 0 0 1 0 2)">
			<stop  offset="0.16" style="stop-color:#030916"/>
			<stop  offset="0.5" style="stop-color:#040E23"/>
			<stop  offset="0.87" style="stop-color:#030916"/>
		</linearGradient>
		<path class="st20" d="M109.4,164.9c-0.3,0-0.5,0.1-0.6,0.1l0.1,1.7h0.6c0.7-0.1,1-0.5,1-0.9C110.5,165.2,110.1,164.9,109.4,164.9
			L109.4,164.9z"/>
		
			<linearGradient id="SVGID_18_" gradientUnits="userSpaceOnUse" x1="71.8184" y1="112.517" x2="177.473" y2="112.517" gradientTransform="matrix(1 0 0 1 0 2)">
			<stop  offset="0.16" style="stop-color:#030916"/>
			<stop  offset="0.5" style="stop-color:#040E23"/>
			<stop  offset="0.87" style="stop-color:#030916"/>
		</linearGradient>
		<path class="st21" d="M137.5,112.5l-9.4-20.9c3.9,0.6,7.6,2.1,10.6,4.3c0.9,0.7,1.9,1.4,2.6,2.3l2.8-2.8c-1.7-1.7-3.6-3.1-5.7-4.3
			c-1.3-0.8-2.7-1.4-4.2-2c-2.6-0.9-5.3-1.5-8-1.6c-0.4,0-0.9,0-1.2,0s-0.9,0-1.2,0c-2.8,0.1-5.6,0.7-8,1.6c-1.4,0.6-2.8,1.2-4.2,2
			c-8.1,4.7-13.7,13.5-13.7,23.5c0,14.5,11.5,26.5,25.9,27.1c0.4,0,0.9,0,1.2,0s0.9,0,1.2,0c13.7-0.7,24.8-11.5,25.9-25.1
			c0.1-0.7,0.1-1.3,0.1-2s0-1.3-0.1-2L137.5,112.5L137.5,112.5z M125,94.7l8,17.9H117L125,94.7L125,94.7z M101.9,114.6
			c0-7.7,3.8-14.4,9.4-18.6c3-2.3,6.6-3.8,10.6-4.3l-16.1,35.8C103.3,123.7,101.9,119.1,101.9,114.6 M126.2,137.7
			c-0.9,0-1.7,0-2.5,0c-5.9-0.3-11.1-2.8-15.1-6.7l6.4-14.4h19.7l6.4,14.4C137.5,134.8,132.1,137.4,126.2,137.7L126.2,137.7z
			 M144.2,127.5l-4.9-10.9h8.7C147.7,120.7,146.4,124.3,144.2,127.5"/>
	</g>
</g>
<rect x="8" y="34.8" class="st0" width="234" height="180.4"/>
</svg>
