<?xml version="1.0" encoding="utf-8"?>
<!-- Generator: Adobe Illustrator 25.1.0, SVG Export Plug-In . SVG Version: 6.00 Build 0)  -->
<svg version="1.1" xmlns="http://www.w3.org/2000/svg" xmlns:xlink="http://www.w3.org/1999/xlink" x="0px" y="0px"
	 viewBox="0 0 250 250" style="enable-background:new 0 0 250 250;" xml:space="preserve">
<style type="text/css">
	.st0{fill:none;}
	.st1{fill:#FFFFFF;}
	.st2{fill:#FFE025;}
	.st3{fill:#0B936C;}
	.st4{fill:url(#SVGID_1_);}
	.st5{fill:url(#SVGID_2_);}
	.st6{fill:url(#SVGID_3_);}
	.st7{fill:url(#SVGID_4_);}
	.st8{fill:url(#SVGID_5_);}
	.st9{fill:url(#SVGID_6_);}
	.st10{fill:url(#SVGID_7_);}
	.st11{fill:url(#SVGID_8_);}
	.st12{fill:url(#SVGID_9_);}
	.st13{fill:url(#SVGID_10_);}
	.st14{fill:url(#SVGID_11_);}
	.st15{fill:url(#SVGID_12_);}
	.st16{fill:url(#SVGID_13_);}
	.st17{fill:url(#SVGID_14_);}
	.st18{fill:url(#SVGID_15_);}
	.st19{fill:url(#SVGID_16_);}
	.st20{fill:url(#SVGID_17_);}
	.st21{fill:url(#SVGID_18_);}
</style>
<g id="Layer_1">
</g>
<g id="레이어_1">
	<rect x="8" y="8" class="st0" width="234" height="234"/>
</g>
<g id="_레이어_2">
	<g id="_레이어_1-2">
		<path class="st1" d="M59.3,199.5c0,0,0.1,0,0.1,0c0.6,0,1.4-0.1,2.3-0.3c1.7-0.4,4.1-1.3,5.9-2l-1.4,6.3l2.8-1.7
			c0,0,4-2.4,7.7-3.8c1.4-0.5,3.1-1.2,4.7-2.2l1.8,2.1c2.1,2.4,4.3,4.7,6.8,6.7c7.4,6.2,16.2,10.3,25.6,11.9
			c6.1,1.3,8.5,3.3,8.5,3.3l0.9,0.8l0.9-0.8c0,0,2.4-2,8.5-3.3c9.4-1.6,18.3-5.7,25.7-11.9c2.4-2,4.7-4.3,6.8-6.7l1.8-2.1
			c1.6,0.9,3.4,1.6,4.7,2.2c3.7,1.4,7.6,3.8,7.7,3.8l2.8,1.7l-1.4-6.3c1.8,0.7,4.2,1.6,5.9,2c0.9,0.2,1.7,0.3,2.3,0.3
			c0,0,0.1,0,0.1,0l0.4,0c2-0.2,2.9-1.5,3.5-2.7l6.6-14.1c1.5-2.8,0.8-6.1-1.6-8l4.6-4.2l0.3-16.6l-0.2-0.3c-0.1-0.1-6-10-7.5-12.7
			c0-1.1,0.2-4.5,1.4-7.2l1.2-3.7l6.3,12.5l2-4.2c2,2.4,5.9,6.3,12.4,8.1l2.3,0.7l-1-4.3c1.7,0.5,4.1,1.1,6.6,1.1
			c4.6,0,10.7-1.9,13.4-10.7l0.6-2l-2.1,0.2c0,0-1.6,0.2-4.2,0.2c-5.1,0-12.7-0.6-19.7-3.7c-6.8-3-15.6-10.2-20.2-21.8l-0.3-0.5l0,0
			l-4.2-9.7l18.3-34.8h-20.3l0.5-1.1l-3.3-4.3c0-5.2-1-11-1-11.2l-0.1-0.4l-3.2-3.8c-1.4-8.3-3.7-10.1-4.2-10.5
			c-0.2-0.1-0.6-0.3-1.4-0.3c-0.9,0-1.9,0.2-3.1,0.6c-2.4,0.9-3.7,3.3-4.2,4.4l-0.6-0.1l-0.1-0.5l-2.6-2l-0.9,0.8
			c-0.1,0.1-1.7,1.5-2.5,2.3c-1,1.1-1.3,2.8-1.3,3.1l0,0.2l0,0.2c0.1,0.3,0.6,3,0.9,4.2c0.1,0.2,0.2,1.1,0.2,1.8c0,0,0,1.7-0.8,3.2
			c-1,1.9-4.2,7-4.2,7.1l-1.2,2l0.8,0l-3.5,4.1h-2l-2.7-0.6l3.7-6.1l-7.1,0.2l2-6.8l-6.8,2l0.2-7.1l-6.1,3.7l-1.6-6.9l-4.9,5.2
			l-3.4-6.3l-3.4,6.3l-4.9-5.2l-1.6,6.9l-6.1-3.7l0.2,7.1l-6.8-2l2,6.8l-7.1-0.2l3.7,6.1l-2.7,0.6h-2L93,56.8l0.8,0l-1.2-2
			c0-0.1-3.2-5.2-4.2-7.1c-0.8-1.6-0.8-3.2-0.8-3.2c0-0.7,0.1-1.6,0.2-1.8c0.4-1.2,0.9-3.9,0.9-4.2l0-0.2l0-0.2
			c0-0.3-0.3-2.1-1.3-3.1c-0.8-0.8-2.4-2.2-2.5-2.3L84,31.9l-2.6,2c0,0-0.1,0.5-0.1,0.5l-0.6,0.1c-0.5-1.2-1.8-3.6-4.2-4.4
			c-1.2-0.4-2.3-0.6-3.1-0.6c-0.8,0-1.2,0.2-1.5,0.3c-0.4,0.3-2.7,2.1-4.1,10.4l-3.2,3.8l-0.1,0.4c0,0.3-1,6.1-1,11.2l-3.3,4.3
			l0.5,1.1H40.3l18.3,34.8l-4.2,9.7l-0.1,0.1l-0.2,0.5c-4.5,11.5-13.4,18.8-20.2,21.8c-7,3.1-14.6,3.7-19.7,3.7
			c-2.5,0-4.2-0.2-4.2-0.2L8,131l0.6,2c2.7,8.8,8.8,10.7,13.4,10.7c2.6,0,4.9-0.6,6.6-1.1l-1,4.3l2.3-0.7c6.4-1.9,10.4-5.7,12.4-8.1
			l2,4.2l6.3-12.5l1.3,3.8c1.1,2.7,1.3,6.1,1.3,7.2c-1.5,2.7-7.5,12.6-7.5,12.7l-0.2,0.3l0.3,16.6l4.6,4.2c-2.4,1.9-3.1,5.2-1.7,7.9
			l6.6,14.2c0.5,1.2,1.4,2.5,3.5,2.7L59.3,199.5L59.3,199.5z M68.1,146.3l9.8,8.9l3.4,7.2c-4.7,1.2-9.2,2.6-13.4,4.1l-0.2-0.8
			l-1.7-3.3l-3.4-0.9l-3.2,1.7l-1.6,0.3l1.3-8.8C62.7,151.7,66.4,148,68.1,146.3L68.1,146.3z M184.1,162.4l-1.7,3.3l-0.2,0.8
			c-4.2-1.5-8.7-2.9-13.4-4.1l3.4-7.2l9.8-8.9c1.7,1.7,5.4,5.4,9.2,8.5l1.3,8.8l-1.6-0.3l-3.2-1.7L184.1,162.4L184.1,162.4z
			 M98.3,200.8l8.8-5.2H81.8c2.6-1.6,4.6-3.9,3.4-7.4l-1-2.7c6.2-1.7,12.8-2.9,19.7-3.8l1.9,3.6H93.5c-1.7,0-3,1.4-3,3s1.3,3,3,3
			H109l9,17.1C111,207.4,104.2,204.8,98.3,200.8L98.3,200.8z M142.8,195.6l8.8,5.2c-5.9,4-12.6,6.6-19.7,7.6l9-17.1h15.5
			c1.6,0,3-1.3,3-3c0-1.7-1.4-3-3-3h-12.3l1.9-3.6c6.9,0.9,13.5,2.1,19.7,3.8l-1,2.8c-1.2,3.4,0.9,5.7,3.4,7.3H142.8z"/>
		<path class="st1" d="M80.5,173.5c-0.9-0.1-1.3-0.2-1.4-0.6c-0.1-0.3,0.1-0.7,0.7-0.9c0.4-0.1,0.9-0.1,1.4,0l0-1.3
			c-0.4-0.1-1-0.1-1.7,0.1c-1.5,0.4-2.1,1.5-1.8,2.6c0.3,0.9,1.1,1.3,2.2,1.4c0.8,0.1,1.2,0.2,1.3,0.6c0.1,0.4-0.1,0.8-0.8,1
			c-0.6,0.2-1.2,0.1-1.7,0l0,1.3c0.4,0.1,1.1,0.1,1.8-0.1c1.7-0.5,2.2-1.6,1.9-2.7C82.3,174.1,81.7,173.7,80.5,173.5L80.5,173.5z
			 M74.2,172.6l0.6,1.8c0.3,0.9,0.6,1.8,1,2.6l0,0c-0.5-0.6-1.1-1.3-1.7-1.8l-2-1.9l-1.6,0.5l2.1,6.3l1.3-0.4l-0.6-1.9
			c-0.3-1-0.7-1.9-1-2.7l0,0c0.5,0.6,1.2,1.3,1.8,1.9l2.1,2l1.4-0.5l-2.1-6.3L74.2,172.6L74.2,172.6z M65.3,175.9l0.8,6.9l1.4-0.6
			l-0.2-1.7l1.7-0.7l1.1,1.4l1.4-0.6l-4.4-5.4L65.3,175.9L65.3,175.9z M68.2,178.8l-1.3,0.5l-0.2-1.4c-0.1-0.4-0.2-0.9-0.2-1.3l0,0
			c0.2,0.3,0.5,0.7,0.8,1.1L68.2,178.8L68.2,178.8z M165.8,131.6l-12.3,23.4l1.7,0.3l11.6-22.1L165.8,131.6z M145.3,127.6
			c2.3-3.4,3.7-7.4,4.1-11.5h-9.2L145.3,127.6z M114.3,171.2l-0.1-1.6l2.3-0.1l-0.1-1.2l-2.3,0.1l-0.1-1.4l2.5-0.1l-0.1-1.2
			l-3.9,0.2l0.3,6.6l4.1-0.2l-0.1-1.2L114.3,171.2z M84.4,169.8l-0.5,6.9l1.5-0.3l0.1-1.8l1.8-0.4l0.9,1.6l1.5-0.3l-3.4-6
			L84.4,169.8L84.4,169.8z M85.5,173.4l0.1-1.5c0-0.4,0-0.9,0-1.3h0c0.2,0.4,0.4,0.8,0.6,1.2l0.7,1.3L85.5,173.4z M110,169.6
			L110,169.6c0.5-0.3,1.1-0.9,1-1.7c0-0.6-0.3-1.1-0.7-1.3c-0.5-0.3-1.2-0.4-2.1-0.4c-0.8,0.1-1.4,0.2-1.9,0.3l0.1,1.5l0.4,5
			l1.4-0.1l-0.1-1.7l-0.1-0.9l0.4,0c0.6,0,0.9,0.2,1.1,1c0.3,0.8,0.4,1.3,0.6,1.5l1.5-0.1c-0.1-0.2-0.4-1.1-0.7-1.8
			C110.8,170.2,110.5,169.7,110,169.6L110,169.6z M108.6,169.1l-0.6,0l-0.1-1.8c0.1,0,0.3-0.1,0.6-0.1c0.7,0,1.1,0.2,1.1,0.8
			C109.7,168.7,109.3,169.1,108.6,169.1L108.6,169.1z M93.6,168l0.3,1.9c0.2,1,0.3,1.9,0.6,2.7h0c-0.4-0.7-0.9-1.4-1.4-2.1l-1.7-2.2
			l-1.7,0.3l1.1,6.5l1.3-0.2l-0.3-2c-0.2-1.1-0.4-2-0.6-2.8l0,0c0.4,0.7,1,1.5,1.5,2.1l1.8,2.3l1.5-0.3l-1.1-6.5L93.6,168L93.6,168z
			 M125,209.2l-15.5-29.5c-0.6,0.1-1.2,0.1-1.8,0.2l17.3,32.9l17.3-32.9c-0.6-0.1-1.2-0.1-1.8-0.2L125,209.2z M110.6,94.3
			c-6.1,4.5-10,11.6-10,19.7c0,4.9,1.4,9.6,4.1,13.6l17-37.9C117.6,90.3,113.8,91.9,110.6,94.3 M84.2,131.6l-1,1.7l11.6,22.1
			l1.7-0.3L84.2,131.6z M114.6,116.1l-6.8,15.2c4.1,4.1,9.7,6.8,16,7.1c0.9,0,1.8,0,2.6,0c6.2-0.3,11.8-3,16-7.1l-6.8-15.2
			L114.6,116.1L114.6,116.1z"/>
		<path class="st1" d="M148.4,88.9c-1.4-1.3-2.9-2.5-4.5-3.5c-1.4-0.9-2.8-1.7-4.2-2.4c-4.1-1.9-8.6-3.1-13.3-3.3
			c-0.4,0-0.9,0-1.3,0s-0.9,0-1.3,0c-4.8,0.2-9.3,1.3-13.3,3.3c-1.5,0.7-2.9,1.5-4.2,2.4c-1.6,1.1-3.1,2.2-4.5,3.5
			c-4.1,3.8-7.2,8.5-9,13.9c-1.2,3.6-1.9,7.4-1.9,11.2c0,18.5,14.6,33.6,33,34.3c0.4,0,0.9,0,1.3,0s0.9,0,1.3,0
			c18.3-0.7,33-15.8,33-34.3c0-3.9-0.7-7.7-1.9-11.2C155.6,97.5,152.5,92.7,148.4,88.9L148.4,88.9z M153.7,116.1
			c-1.1,14.4-12.8,25.9-27.4,26.6c-0.4,0-0.9,0-1.3,0s-0.9,0-1.3,0c-15.3-0.7-27.4-13.3-27.4-28.7c0-10.7,5.8-20,14.5-24.9
			c1.4-0.8,2.9-1.5,4.4-2.1c2.7-1,5.6-1.6,8.5-1.7c0.4,0,0.9,0,1.3,0s0.9,0,1.3,0c3,0.1,5.9,0.7,8.5,1.7c1.5,0.6,3,1.3,4.4,2.1
			c2.2,1.3,4.2,2.8,6,4.6l-3,3c-0.9-0.9-1.8-1.7-2.8-2.4c-3.2-2.4-7-4-11.2-4.5l9.9,22.1h15.4c0.1,0.7,0.1,1.4,0.1,2.1
			S153.7,115.4,153.7,116.1L153.7,116.1z M62.5,90.5L50.1,66.8h17.3l-0.1-1.5l-0.7-0.2H47.3l14.4,27.3L62.5,90.5z M119.8,171l0-1.6
			l2.3,0l0-1.2l-2.3,0l0-1.4l2.5-0.1l0-1.2l-3.9,0.1l0.1,6.6l4.1-0.1l0-1.2L119.8,171z"/>
		<path class="st1" d="M133.5,111.8L125,92.9l-8.5,18.9H133.5z M104.9,169.3l-0.8,0.1l-1.5,0.2l0.1,0.7l0.1,0.5l0.2,0l0.8-0.1
			l0.2,1.4c0,0-0.1,0.1-0.2,0.1c-0.1,0-0.3,0.1-0.5,0.1c-1.2,0.1-2.1-0.6-2.2-1.9c-0.1-0.9,0.2-1.6,0.7-1.9c0.3-0.2,0.7-0.4,1.1-0.4
			c0.2,0,0.4,0,0.5,0c0.4,0,0.7,0.1,1,0.1l0.2-1.2c-0.3-0.1-1-0.2-1.8-0.1c-0.6,0.1-1.2,0.3-1.6,0.5c-1,0.6-1.6,1.6-1.6,2.9
			c0,0.1,0,0.3,0,0.4c0.1,1,0.5,1.8,1.2,2.3c0.1,0.1,0.2,0.2,0.4,0.2c0.6,0.3,1.4,0.5,2.3,0.4c0.3,0,0.6-0.1,0.9-0.2
			c0.5-0.1,0.9-0.3,1.1-0.4l-0.2-1.3L104.9,169.3L104.9,169.3z M176.6,174l-0.2,1.1l1.3-0.2l0,0l-1.7,4.8l1.3,0.5l2.1-6l-1.1-0.4
			L176.6,174z M182.7,65.3l-0.1,1.5H200l-12.5,23.7l0.9,2l14.4-27.3h-19.3L182.7,65.3z M172.9,171.9c-1.5-0.5-2.7,0.7-3.2,2.5
			c-0.5,1.7-0.3,3.4,1.3,3.8c1.5,0.4,2.6-0.6,3.2-2.5C174.7,174,174.5,172.3,172.9,171.9L172.9,171.9z M172.8,175.3
			c-0.4,1.4-0.9,2-1.4,1.8s-0.7-0.9-0.2-2.3c0.4-1.4,1-2,1.5-1.8C173.1,173.1,173.2,173.9,172.8,175.3L172.8,175.3z M167,170.3
			c-0.8-0.2-1.6-0.1-2.1,0.2l0.1,1.1c0.4-0.2,0.9-0.3,1.4-0.2c0.7,0.2,0.9,0.6,0.8,1.2c-0.2,0.7-1,1.3-2.6,2.2l-0.9,0.5l-0.2,0.9
			l4.2,1l0.3-1.2l-2.2-0.6v0l0.7-0.3c1.1-0.6,2-1.2,2.2-2.3C168.9,171.6,168.4,170.6,167,170.3L167,170.3z M155.7,171.3
			c-0.3,1.9,0.5,3.5,2.7,3.9c0.8,0.1,1.4,0.1,1.7,0V174c-0.3,0.1-0.8,0.1-1.2,0c-1.3-0.2-1.9-1.2-1.6-2.5c0.3-1.5,1.3-2,2.4-1.8
			c0.5,0.1,0.9,0.3,1.1,0.5l0.5-1.1c-0.2-0.2-0.8-0.4-1.5-0.6C157.9,168.1,156.1,169.1,155.7,171.3L155.7,171.3z M181.7,176.3
			l2.6,1.1l0,0l-4.4,3.7l1.4,0.6l4.5-4l0.4-0.9l-4-1.7L181.7,176.3z M95.5,66.8h59l0.5-0.8l0.4-0.8H94.6l0.4,0.8L95.5,66.8z
			 M127.8,167.5c0,1,0,1.9,0.1,2.8h0c-0.3-0.8-0.7-1.6-1-2.3l-0.5-1l-0.8-1.5l-1.7,0l0,6.6l1.3,0l0-2c0-1.1,0-2,0-2.9l0,0
			c0.3,0.8,0.7,1.6,1.1,2.4l0.1,0.2l1.3,2.4l1.5,0l0-6.6l-1.3,0L127.8,167.5z M141.1,168c0-0.6-0.1-1.1-0.5-1.4
			c-0.4-0.4-1.1-0.6-2-0.7c-0.8,0-1.5,0-1.9,0l-0.4,6.5l1.4,0.1l0.2-2.6l0.4,0c0.6,0,0.8,0.3,1,1.1c0.1,0.8,0.3,1.4,0.3,1.6l1.4,0.1
			h0c0,0,0,0,0,0c-0.1-0.3-0.2-1.1-0.4-1.8c-0.1-0.6-0.3-1.1-0.8-1.3v0C140.5,169.4,141.1,168.8,141.1,168L141.1,168z M138.5,168.9
			l-0.6,0l0.1-1.8c0.1,0,0.3,0,0.7,0c0.7,0.1,1,0.4,1,1C139.6,168.6,139.2,169,138.5,168.9L138.5,168.9z M145,167.6
			c0.6,0.1,1.1,0.3,1.3,0.4l0.4-1.2c-0.4-0.2-0.9-0.4-1.6-0.5c-0.3,0-0.6,0-0.8,0c-1,0.2-1.7,0.8-1.8,1.7c0,0.4,0.1,0.8,0.3,1.1
			c0.3,0.4,0.7,0.7,1.3,1c0.6,0.3,0.9,0.5,0.9,0.8c0,0.1,0,0.1,0,0.2c0,0.3-0.2,0.4-0.4,0.5c-0.2,0.1-0.4,0.1-0.6,0.1
			c-0.6-0.1-1.2-0.3-1.5-0.6l-0.4,1.2c0.3,0.2,1,0.5,1.8,0.6c0.1,0,0.1,0,0.2,0c1.6,0.1,2.5-0.7,2.6-1.8c0.1-0.7-0.2-1.2-0.8-1.7
			c-0.2-0.2-0.4-0.3-0.7-0.4c-0.8-0.4-1.1-0.6-1.1-1C144.1,167.8,144.4,167.6,145,167.6L145,167.6z M130.8,172.3l4.1,0.1l0-1.2
			l-2.6-0.1l0.1-1.6l2.3,0.1l0-1.2l-2.3-0.1l0.1-1.4l2.5,0.1l0-1.2l-3.9-0.1L130.8,172.3z M151,167.2l-0.4,3l-0.5,3.6l1.4,0.2
			l0.4-2.6l2.3,0.3l0.2-1.2l-2.3-0.3l0.2-1.5l2.4,0.3l0.2-1.2l-2.8-0.4L151,167.2z"/>
		<path class="st2" d="M125,50.7c-7.9,0-14.8,4.8-17.8,11.6h35.6C139.8,55.5,133,50.7,125,50.7 M123.7,158.6v-7.2
			c-20.1-0.7-36.2-17.2-36.2-37.5c0-2.3,0.2-4.5,0.6-6.7l-7.1,7c0,0,5.4,7.2,5.1,14l-0.3,0.5l16.4,31.2
			C109.2,159.1,116.4,158.7,123.7,158.6 M112.5,179.5l11.2,21.2v-21.6C119.9,179.1,116.2,179.2,112.5,179.5 M67.8,78.3l-0.3-8.7
			H54.7l9.3,17.6L67.8,78.3z M106.1,74.8l0.4-0.2l7.1,0.5l1.2,2.3l0,0.5c2.9-0.8,5.8-1.3,8.8-1.4v-6.9H97l0,0.1l0.8,1.5l0.3,0.5
			l0.3,0.9l2.9,1l4.3,1.5L106.1,74.8z"/>
		<path class="st3" d="M126.3,151.5v7.2c7.3,0,14.5,0.5,21.4,1.3l16.4-31.2l-0.3-0.5c-0.3-6.8,5.1-14,5.1-14l-7.1-7
			c0.4,2.2,0.6,4.4,0.6,6.7C162.5,134.3,146.4,150.8,126.3,151.5L126.3,151.5z M182.2,78.3l3.9,8.9l9.3-17.6h-12.8L182.2,78.3z
			 M126.3,200.7l11.2-21.2c-3.6-0.3-7.4-0.4-11.2-0.4V200.7z M151.8,71.7l0.3-0.5l0.8-1.5l0-0.1h-26.7v6.9c3,0.1,6,0.6,8.8,1.4
			l0-0.5l1.2-2.3l7.1-0.5l0.4,0.2l0.5,0.2l4.3-1.5l2.9-1L151.8,71.7L151.8,71.7z M162.7,155.2l0.9,2.1l-4,0.6l-1.2,3.8
			c2.1,0.4,4.2,0.8,6.2,1.2l3.3-7.5l-1-4l2.9,1.5l4.8-5.3l-2.6-5.3L162.7,155.2L162.7,155.2z M189,170.3l2,0.8l1.1-3.7l-1.9-0.9
			L189,170.3z M186,166.9l-0.5,2.1l2.3,0.7l1.2-3.7l-1.8-0.8L186,166.9z M154.5,160.9c0.3,0,0.6,0.1,0.9,0.1c0.5,0.1,1,0.2,1.4,0.2
			l1-3.5l-0.7-0.1l-1.6-0.2L154.5,160.9L154.5,160.9z M152.4,156.7l-1,1.6l-0.1,1l-0.2,1.1c0.5,0.1,0.9,0.1,1.4,0.2l0.6,0.1l1-3.2
			l0.1-0.2l-1.6-0.5L152.4,156.7z"/>
		<path class="st3" d="M214.6,130.9c-9-3.2-15.6-11.9-15.6-11.9l-2-2.3c0,0-2.3-3.6-4.1-8l-1.9-4.2l-2.7-6l-1.5-3.2l-0.9-1.9
			l-1.5-3.2l-5.6-12.2l0.7-0.2l0.6-8.2l0.2-2.8l0.1-1.7l0.2-2.1c-0.5-0.2-1-0.5-1.5-0.7c0,0-0.1,0-0.1-0.1l0,0.1l-0.4,2.8l-0.2,1.7
			l-0.4,2.8l-0.1,0.8l-0.1-0.8l-0.3-2.8l-0.2-1.7l-0.3-2.8l-0.3-2.6c-0.5-1-1-2.1-1-2.1l0.2-1.9c0,0,1.4,3.2,2.7,4.6
			c0.8,0.9,2.3,1.5,3.4,1.9c0.7,0.3,1.3,0.4,1.3,0.4l1.3-0.4l1-0.3l0.2-1.6l-2.4-3.7c0,0-0.1-7.3-0.9-11.1l-3.1-3.8l-2.1-8.3
			l-0.5,0.7l-1.7-1.4c0,0-1.2-0.1-2.9,2.2c-0.9,1.2,0.3,2-1.5,5c0,0-0.6-0.8-1.3-1c-0.7-0.1-1.7-0.5-2.4-1.3
			c-0.7-0.8-0.9-1.4-0.9-1.4s-1.3,0.8-1.2,1.8c0,1,1,4.2,1,4.7c0.1,0.5,0.1,3.8-0.8,5.3c-0.9,1.4-3.2,6.3-3.2,6.3l0.9-0.3l-4.3,5.6
			l0.9,0.1l-0.1,0.2l4.5-4.9l-1.6,5.4l8.2-8.9l-0.5,5.7l3.1-1.1l-5.2,6.1l0,0.1v-0.1l0.5-5.6l-4.7,5.6l-2.3,2.8l-1.1,1.3l0-1.3
			l0.1-2.8l0-0.9l-0.8,0.9l-2.4,2.8l-0.5,0.6l-0.5,1.1l-1.4,2.8l-1.4,3l-0.6,2l3.5-4.9l1.5-2.2l0.5,2.2l0.2,0.9l1-0.9l3-2.8l1.8-1.7
			l1.5-1.4l0.1,1.4l0.1,1.7v0.1l0.2-0.1l1.9-1.7l3.1-2.8l2.8-2.5l-2.1,2.5l-2.3,2.8l-1.4,1.7l-2.3,2.8l-1.6,1.9l-0.1-1.9l-0.1-2.5
			l-2.1,2.5l-3.7,4.4l-1.2-2.2l-2.9,7.9l2.2,1.3l0.8-4.3l1.2,2.2l3.7-6.8l0.6,3.3l5.5-5.5l-5.9,10.3l-1-2.7l-1.7,5.4l3.9,2.4
			l2.3-6.7l1.2-1.2l-1.4,9.3l3,1.5l-3.6,0.1l-12.4-7.8l-3.8-1.7l-5.2-2.4l-1.1-0.5l-5.3,0.7l-0.7,1.5l0.3,0.3
			c0.5,0.1,0.9,0.3,1.3,0.5l0.6-1l4.5-0.7h0l2.2,0.9l-2.7,0.3l-3.1,0.4l-0.2,0.5c0.7,0.3,1.4,0.6,2.1,1l0.4-0.5l0.1,0l4.8-0.6l0,0
			l1.3,0.9l-0.7,0.1l-3.9,0.6l-0.3,0.4c0.9,0.5,1.8,1,2.7,1.6c1.1,0.5,2,0.9,2.6,1.2c0.9,0.4,1.3,0.6,1.3,0.6l0.1,0.1l17.8,14.7
			l7.3-3.6l0.1-0.2l2-3.6l4.7-0.7l-1.1,2.1l-1.7,0.7l2.4,2.3l2.1,2l1.2,1.2l0.7,0.7l-0.8-0.5l-1.4-0.9l-2.3-1.5l-2.9-1.9l-0.5,1.5
			l-0.2,0.5l2.8,1.7l2.4,1.4l1.4,0.9l2.4,1.4l1.5,0.9l-2.1,0.4l-1.3,0.2l0.8,0.7l4.4,3.6l-5-2.5l-2.5-1.2l-1.5-0.7l-1.8-0.9l2.5-0.4
			l1.5-0.3l-1.1-0.5l-2.5-1.2l-4.1-2l-2.5,0.9l5.5,2l-5.5,0.4l4.8,2.1l2.6,1.1l1.5,0.7l1.4,0.6l-1.8,0.2l-2,0.3l-1,0.1l0.7,0.5
			l1.4,0.9l2.4,1.5l3.5,2.2l-4.4-0.4l-0.3,0l0.2,0.2l8.4,6.8L179,117l-1.1,10.8c0,0-1,5.6,0.4,8s6,7.5,6,7.5l8.6,7.9l3-0.7l-1.5,3.5
			l1.3,10.8l1.5,2.1l-3.4,0.8l-1.5,4l3.8,1.5l3.9-4.1l0.1-10.2l-1.9-3.5l2.2,0.6l-0.1-2.2l-4.6-7.3l-3.5-5.6l0.9-5.4l-3.6-9.8l5,5.5
			c0,0,0.5-0.9,1-2.3l-2.7-4.5l3.6,1.9c0.5-1.6,0.9-3.5,1-5.4l-0.1-0.5l8.2,12.8l1.1-2.5c3.4,7,10.7,9.3,10.7,9.3l-0.4-3.5
			c0,0,2.3,1.9,9.8,2.6c7.5,0.8,9.5-4.6,9.5-4.6C230.5,134.9,223.7,134,214.6,130.9L214.6,130.9z M180.6,52.6l0.8,1.3l-0.7,2.8
			l1.9,2.9l-0.1-2.2l1.6,2.7c0,0,0.5,0.6,0,1.2c-0.6,0.8-2.6-0.9-2.6-0.9l-2-3.6l0.6-1.5L180.6,52.6L180.6,52.6z M178.5,42.8
			l1.4,1.2l-0.6,2.2C177,43.5,178.5,42.8,178.5,42.8 M168.4,50.9l-3.2,4.3l3.2-9V50.9z M168,97.5l-7.5-5.4l7.6,3.3l3.1,0.5L168,97.5
			z"/>
		<path class="st3" d="M150.8,74.6l-0.9,0.3l-3.5,1.2l3.5,1.6l-0.1-0.2l0.7-2L150.8,74.6z M172.6,118.8c-1-0.3-2.6-0.4-3.6,0.9
			c-0.1,0.1-0.1,0.1-0.2,0.2c-0.3,0.4-0.5,0.9-0.7,1.5c-0.8,2.2-1.4,5.2-1.4,5.8l0.8,1.2l1,1.6l1.7,2.7l1.2,1.9l0.8-3.4l1.3,1
			l0.9-5.4c0,0-0.2-0.5-0.4-1.3c-0.3-1.2-0.6-2.9-0.7-4.7c0-0.7,0-1.3,0.1-1.9C173.4,119.1,173.1,119,172.6,118.8L172.6,118.8z
			 M91.5,161.6l-1.2-3.8l-3.9-0.6l0.9-2.1L78,142.3l-2.6,5.3l4.8,5.3l2.9-1.5l-1,4l3.3,7.5C87.4,162.4,89.4,162,91.5,161.6
			 M57.8,167.4l1.1,3.7l2.1-0.8l-1.2-3.8L57.8,167.4z M61.1,166.1l1.2,3.7l2.3-0.7l-0.5-2.1l-1.2-1.7L61.1,166.1z M92.8,157.7
			l-0.7,0.1l1,3.5c0.5-0.1,1-0.2,1.4-0.2c0.3,0,0.6-0.1,0.9-0.1l-1-3.5L92.8,157.7L92.8,157.7z M96.9,160.7l0.6-0.1
			c0.5-0.1,0.9-0.1,1.4-0.2l-0.2-1.1l-0.1-1l-1-1.6l-0.2,0.1l-1.6,0.5l0.1,0.2L96.9,160.7z"/>
		<path class="st3" d="M57.5,171.7l-1.5-4l-3.4-0.8l1.5-2.1l1.3-10.8l-1.5-3.5l3,0.7l8.6-7.9c0,0,4.6-5,6-7.5c1.4-2.4,0.4-8,0.4-8
			L71.1,117l-10.7,1.8l8.4-6.8l0.2-0.2l-0.3,0l-4.4,0.4l3.5-2.2l2.4-1.5l1.4-0.9l0.7-0.5l-1-0.1l-2-0.3l-1.8-0.2l1.4-0.6l1.5-0.7
			l2.6-1.1l4.8-2.1l-5.5-0.4l5.5-2l-2.5-0.9l-4.1,2l-2.5,1.2l-1.1,0.5l1.5,0.3l2.5,0.4l-1.8,0.9l-1.5,0.7l-2.5,1.2l-5,2.5l4.4-3.6
			l0.8-0.7l-1.3-0.2l-2.1-0.4l1.5-0.9l2.4-1.4l1.4-0.9l2.4-1.4l2.8-1.7l-0.2-0.5l-0.5-1.5l-2.9,1.9l-2.3,1.5l-1.4,0.9l-0.8,0.5
			l0.7-0.7l1.2-1.2l2.1-2l2.4-2.3l-1.7-0.7l-1.1-2.1l4.7,0.7l2,3.6l0.1,0.2l7.3,3.6l17.8-14.7l0.1-0.1c0,0,0.5-0.2,1.3-0.6
			c0.7-0.3,1.5-0.7,2.6-1.2c0.9-0.6,1.7-1.1,2.7-1.6l-0.3-0.4l-3.9-0.6l-0.7-0.1l1.3-0.9l0,0l4.8,0.6l0.1,0l0.4,0.5
			c0.7-0.3,1.4-0.7,2.1-1l-0.2-0.5l-3.1-0.4l-2.7-0.3l2.2-0.9h0l4.5,0.7l0.6,1c0.4-0.2,0.9-0.3,1.3-0.5l0.3-0.3l-0.7-1.5l-5.3-0.7
			l-1,0.5l-5.2,2.4l-3.8,1.7l-12.4,7.8l-3.6-0.1l3-1.5l-1.4-9.3l1.2,1.2l2.3,6.7l3.9-2.4l-1.7-5.4l-1,2.7L82,69.9l5.5,5.5l0.6-3.3
			l3.7,6.8l1.2-2.2l0.8,4.3l2.2-1.3l-2.9-7.9l-1.2,2.2l-3.7-4.4l-2.1-2.5l-0.1,2.5L86,71.5l-1.6-1.9l-2.3-2.8l-1.4-1.7l-2.3-2.8
			l-2.1-2.5l2.8,2.5l3.1,2.8l1.9,1.7l0.2,0.1v-0.1l0.1-1.7l0.1-1.4l1.5,1.4l1.8,1.7l3,2.8l1,0.9l0.2-0.9l0.5-2.2l1.5,2.2l3.5,4.9
			l-0.6-2l-1.4-3l-1.4-2.8l-0.5-1.1l-0.5-0.6l-2.4-2.8l-0.8-0.9l0,0.9l0.1,2.8l0,1.3l-1.1-1.3l-2.3-2.8l-4.7-5.6l0.5,5.6v0.1l0-0.1
			l-5.2-6.1l3.1,1.1l-0.5-5.7l8.2,8.9l-1.6-5.4l4.5,4.9l-0.1-0.2l0.9-0.1l-4.3-5.6l0.9,0.3c0,0-2.3-4.9-3.2-6.3
			c-0.9-1.4-0.8-4.7-0.8-5.3c0.1-0.5,1-3.7,1-4.7c0-1-1.2-1.8-1.2-1.8s-0.2,0.6-0.9,1.4s-1.7,1.2-2.4,1.3c-0.7,0.1-1.3,1-1.3,1
			c-1.8-2.9-0.6-3.7-1.5-5c-1.7-2.3-2.9-2.2-2.9-2.2l-1.7,1.4l-0.5-0.7l-2.1,8.3l-3.1,3.8c-0.8,3.9-0.9,11.1-0.9,11.1l-2.4,3.7
			l0.2,1.6l1,0.3l1.3,0.4c0,0,0.5-0.1,1.3-0.4c1.1-0.4,2.6-1,3.4-1.9c1.3-1.4,2.7-4.6,2.7-4.6l0.2,1.9c0,0-0.5,1.1-1,2.1l-0.3,2.6
			l-0.3,2.8l-0.2,1.7l-0.3,2.8l-0.1,0.8L72,69.6l-0.4-2.8l-0.2-1.7L71,62.3l0-0.1c0,0-0.1,0-0.1,0.1c-0.5,0.2-1,0.5-1.5,0.7l0.2,2.1
			l0.1,1.7l0.2,2.8l0.6,8.2l0.7,0.2l-5.6,12.2l-1.5,3.2l-0.9,1.9l-1.5,3.2l-2.7,6l-1.9,4.2c-1.8,4.4-4.1,8-4.1,8l-2,2.3
			c0,0-6.6,8.7-15.6,11.9c-9,3.2-15.8,4.1-21.7,3.6c0,0,2,5.3,9.5,4.6c7.5-0.8,9.8-2.6,9.8-2.6l-0.4,3.5c0,0,7.4-2.3,10.7-9.3
			l1.1,2.5l8.2-12.8l-0.1,0.5c0.1,1.9,0.5,3.8,1,5.4l3.6-1.9l-2.7,4.5c0.5,1.4,1,2.3,1,2.3l5-5.5l-3.6,9.8l0.9,5.4l-3.5,5.6
			l-4.6,7.3l-0.1,2.2l2.2-0.6l-1.9,3.5l0.1,10.2l3.9,4.1L57.5,171.7L57.5,171.7z M81.9,95.4l7.6-3.3L82,97.4l-3.2-1.6L81.9,95.4z
			 M81.6,46.3l3.2,9l-3.2-4.3V46.3z M68.4,60.5c0,0-2,1.6-2.6,0.9c-0.5-0.6,0-1.2,0-1.2l1.6-2.7l-0.1,2.2l1.9-2.9l-0.7-2.8l0.8-1.3
			l0.4,2.8l0.6,1.5L68.4,60.5L68.4,60.5z M70.7,46.1l-0.6-2.2l1.4-1.2C71.5,42.8,73,43.5,70.7,46.1"/>
		<path class="st3" d="M103.6,76l-3.5-1.2l-0.9-0.3l0.3,0.8l0.7,2l-0.1,0.2L103.6,76z M76,125.7c-0.1,0.4-0.2,0.9-0.4,1.3l0.9,5.4
			l1.3-1l0.8,3.4l1.2-1.9l1.7-2.7l1-1.6l0.8-1.2c0-0.7-0.5-3.7-1.4-5.8c-0.2-0.6-0.5-1.1-0.7-1.5c-0.1-0.1-0.1-0.1-0.2-0.2
			c-1.1-1.4-2.7-1.2-3.6-0.9c-0.5,0.1-0.8,0.3-0.8,0.3c0.1,0.6,0.1,1.3,0.1,1.9C76.6,122.8,76.3,124.5,76,125.7L76,125.7z"/>
		
			<linearGradient id="SVGID_1_" gradientUnits="userSpaceOnUse" x1="71.3875" y1="59.1807" x2="82.1415" y2="59.1807" gradientTransform="matrix(1 0 0 -1 0 252)">
			<stop  offset="0" style="stop-color:#0B936B"/>
			<stop  offset="1" style="stop-color:#04392A"/>
		</linearGradient>
		<path class="st4" d="M78.6,189.2c-2.3,0.4-6.7,2.6-6.7,2.6l-0.6,4.8c1.7-1,3.9-1.9,5.3-2.4c2.3-0.8,4.9-2.1,5.4-3.4
			C82.5,189.5,81,188.7,78.6,189.2L78.6,189.2z"/>
		
			<linearGradient id="SVGID_2_" gradientUnits="userSpaceOnUse" x1="167.879" y1="59.1816" x2="178.633" y2="59.1816" gradientTransform="matrix(1 0 0 -1 0 252)">
			<stop  offset="0" style="stop-color:#04392A"/>
			<stop  offset="1" style="stop-color:#0B936B"/>
		</linearGradient>
		<path class="st5" d="M171.4,189.2c-2.3-0.4-3.9,0.3-3.4,1.6c0.4,1.3,3.1,2.6,5.4,3.4c1.4,0.5,3.6,1.4,5.3,2.4l-0.6-4.8
			C178.1,191.8,173.7,189.6,171.4,189.2L171.4,189.2z"/>
		<path class="st3" d="M189.5,173.1c-7-3.3-15-5.9-23.6-8c-3.5-0.8-7.1-1.5-10.7-2.1c-0.3,0-0.5-0.1-0.8-0.1c-1-0.2-1.9-0.3-2.9-0.4
			c-0.6-0.1-1.2-0.2-1.8-0.2c-1-0.1-2-0.3-3-0.4c-6.6-0.8-13.5-1.2-20.4-1.2h-2.6c-7,0-13.8,0.5-20.4,1.2c-1,0.1-2,0.2-3,0.4
			c-0.6,0.1-1.2,0.2-1.8,0.2c-1,0.1-2,0.3-2.9,0.4c-0.3,0-0.5,0.1-0.8,0.1c-3.7,0.6-7.3,1.3-10.7,2.1c-8.6,2-16.6,4.7-23.6,8
			c-2.7,1.2-5.2,2.6-7.6,4c-1.4,0.8-1.9,2.6-1.1,4l6.6,14c0.2-1.9,2.2-3.9,4-4.8c10.7-5.8,25.3-10,41.4-11.9c1-0.1,2-0.2,3-0.3
			c0.6-0.1,1.2-0.1,1.8-0.2c1-0.1,2-0.2,3-0.3c4-0.3,8.1-0.5,12.2-0.5h2.6c4.1,0,8.2,0.2,12.2,0.5c1,0.1,2,0.2,3,0.3
			c0.6,0.1,1.2,0.1,1.8,0.2c1,0.1,2,0.2,3,0.3c16.1,2,30.6,6.1,41.4,11.9c1.8,1,3.8,2.9,4,4.8l6.6-14c0.8-1.4,0.3-3.2-1.1-4
			C194.7,175.7,192.2,174.4,189.5,173.1 M196.7,180.3l-5.2,11c-0.9-1-2-1.9-3.1-2.5c-10.9-5.9-25.4-10.1-41.3-12.1
			c-1-0.1-2-0.2-3-0.4c-0.6-0.1-1.2-0.1-1.8-0.2c-1-0.1-2-0.2-3-0.3c-4.3-0.3-8.6-0.5-13-0.6h-2.6c-4.4,0-8.8,0.2-13,0.6
			c-1,0.1-2,0.2-3,0.3c-0.6,0.1-1.2,0.1-1.8,0.2c-1,0.1-2,0.2-3,0.4c-16,2-30.4,6.2-41.3,12.1c-1.1,0.6-2.2,1.5-3.1,2.5l-5.1-11
			c-0.4-0.7-0.2-1.5,0.4-1.8c2.3-1.4,4.8-2.7,7.4-3.9c10.1-4.7,22.1-8.1,35.2-10.2c1.6-0.2,3.1-0.5,4.7-0.7c1-0.1,2-0.2,3-0.4
			c6.4-0.7,12.9-1.1,19.6-1.1h2.6c6.7,0,13.2,0.4,19.6,1.1c1,0.1,2,0.2,3,0.4c0.6,0.1,1.2,0.2,1.8,0.2c1,0.1,2,0.3,2.9,0.4
			c13.1,2,25.1,5.5,35.2,10.2c2.6,1.2,5.1,2.5,7.4,3.9C196.8,178.9,197,179.7,196.7,180.3L196.7,180.3z"/>
		
			<linearGradient id="SVGID_3_" gradientUnits="userSpaceOnUse" x1="9.6723" y1="207.5544" x2="240.0853" y2="207.5544" gradientTransform="matrix(1 0 0 -1 0 252)">
			<stop  offset="0.16" style="stop-color:#030916"/>
			<stop  offset="0.5" style="stop-color:#040E23"/>
			<stop  offset="0.87" style="stop-color:#030916"/>
		</linearGradient>
		<path class="st6" d="M179.9,43.9l-1.4-1.2c0,0-1.5,0.7,0.8,3.4L179.9,43.9z"/>
		
			<linearGradient id="SVGID_4_" gradientUnits="userSpaceOnUse" x1="9.6805" y1="194.918" x2="240.0811" y2="194.918" gradientTransform="matrix(1 0 0 -1 0 252)">
			<stop  offset="0.16" style="stop-color:#030916"/>
			<stop  offset="0.5" style="stop-color:#040E23"/>
			<stop  offset="0.87" style="stop-color:#030916"/>
		</linearGradient>
		<path class="st7" d="M181.6,60.5c0,0,2,1.6,2.6,0.9c0.5-0.6,0-1.2,0-1.2l-1.6-2.7l0.1,2.2l-1.9-2.9l0.7-2.8l-0.8-1.3l-0.4,2.8
			l-0.6,1.5L181.6,60.5L181.6,60.5z"/>
		
			<linearGradient id="SVGID_5_" gradientUnits="userSpaceOnUse" x1="9.6764" y1="127.2196" x2="240.0811" y2="127.2196" gradientTransform="matrix(1 0 0 -1 0 252)">
			<stop  offset="0.16" style="stop-color:#030916"/>
			<stop  offset="0.5" style="stop-color:#040E23"/>
			<stop  offset="0.87" style="stop-color:#030916"/>
		</linearGradient>
		<path class="st8" d="M215.5,129c-7.8-3.4-16.5-11.2-20.9-22.5l-0.1,0l-4.7-10.7l17.6-33.4h-20.1l0.9-2.3l-3.1-4
			c0.1-5.2-1-11.5-1-11.5l-3.2-3.8c-1.4-8.5-3.6-9.8-3.6-9.8s-0.8-0.5-3.4,0.4c-2.6,0.9-3.6,4.2-3.6,4.2l-0.3,1.9
			c-0.4-0.1-1.6-0.6-1.6-0.6l0.9-0.9l-1.6-0.1c-0.4-0.4-0.5-1.1-0.5-1.1l-1.2-1c0,0-1.7,1.5-2.4,2.2c-0.8,0.8-0.9,2.3-0.9,2.3
			s0.5,2.9,0.9,4c0.2,0.6,0.2,2.2,0.2,2.2s0,2-1,3.9c-1,1.9-4.2,7.2-4.2,7.2l1.2,0.1l-4.7,5.6l2.1,0.2l-0.5,1h-5.4l-4.7-1.1l3.4-5.5
			l-6.5,0.2l1.9-6.2l-6.2,1.9l0.2-6.5l-5.5,3.4l-1.5-6.3l-4.4,4.7l-3.1-5.7l-3.1,5.7l-4.4-4.7l-1.5,6.3l-5.5-3.4l0.2,6.5l-6.2-1.9
			l1.9,6.2l-6.5-0.2l3.4,5.5l-4.7,1.1h-5.4l-0.5-1l2.1-0.2l-4.7-5.6l1.2-0.1c0,0-3.2-5.2-4.2-7.2s-1-3.9-1-3.9s0-1.6,0.2-2.2
			c0.4-1.2,0.9-4,0.9-4s-0.1-1.5-0.9-2.3c-0.8-0.8-2.4-2.2-2.4-2.2l-1.2,1c0,0-0.1,0.6-0.5,1.1l-1.6,0.1l0.9,0.9
			c0,0-1.1,0.5-1.6,0.6l-0.3-1.9c0,0-1-3.3-3.6-4.2c-2.6-0.9-3.4-0.4-3.4-0.4s-2.2,1.4-3.6,9.8l-3.2,3.8c0,0-1,6.2-1,11.5l-3.1,4
			l0.9,2.3H42.7l17.6,33.4l-4.7,10.7l-0.1,0C51,117.8,42.3,125.6,34.5,129c-11.6,5.1-24.6,3.7-24.6,3.7c4.7,15.5,20.6,7.8,20.6,7.8
			l-1,4.5c9.1-2.6,13-9.5,13-9.5l1.8,3.8l6.6-12.9l2.3,6.8c1.5,3.5,1.5,8,1.5,8c-1.2,2.1-7.8,13-7.8,13l0.3,15.7l5.5,5.1
			c-0.3,0.2-0.6,0.3-0.8,0.5c-2.3,1.4-3.1,4.3-1.8,6.6l6.6,14.2c0.8,1.7,1.8,2.3,4.8,1.6c3-0.7,8.1-3,8.1-3l-1.3,5.8
			c0,0,4.1-2.5,7.9-4c3.8-1.5,9.2-3.6,7.7-8l-1.5-4.2c6.7-1.9,14.2-3.4,22.3-4.4l3.4,6.5H93.5c-0.9,0-1.6,0.7-1.6,1.6v0
			c0,0.9,0.7,1.6,1.6,1.6h16.3l10.7,20.2c-9.2-0.8-17.7-4.2-24.7-9.4l6.3-3.7H84.3c2,2.4,4.2,4.6,6.6,6.6c7,5.9,15.6,10,25,11.6
			c6.6,1.4,9.1,3.6,9.1,3.6s2.5-2.2,9.1-3.6c9.4-1.6,18-5.7,25-11.6c2.4-2,4.6-4.2,6.6-6.6H148l6.3,3.7c-7,5.2-15.5,8.6-24.7,9.4
			l10.7-20.2h16.3c0.9,0,1.6-0.7,1.6-1.6v0c0-0.9-0.7-1.6-1.6-1.6h-14.6l3.4-6.5c8.1,1,15.6,2.5,22.3,4.4l-1.5,4.2
			c-1.5,4.3,3.9,6.5,7.7,8c3.8,1.5,7.9,4,7.9,4l-1.3-5.8c0,0,5.2,2.4,8.1,3c3,0.7,3.9,0.1,4.8-1.6l6.6-14.2c1.3-2.4,0.5-5.3-1.8-6.6
			c-0.3-0.2-0.6-0.3-0.8-0.5l5.5-5.1l0.3-15.7c0,0-6.6-11-7.8-13c0,0,0-4.5,1.5-8l2.3-6.8l6.6,12.9l1.8-3.8c0,0,3.9,6.9,13,9.5
			l-1-4.5c0,0,16,7.8,20.6-7.8C240.1,132.7,227.1,134.1,215.5,129L215.5,129z M202.7,65.1l-14.4,27.3l-0.9-2L200,66.8h-17.3l0.1-1.5
			l0.7-0.2H202.7L202.7,65.1z M186.1,87.2l-3.9-8.9l0.3-8.7h12.8L186.1,87.2L186.1,87.2z M125,50.7c7.9,0,14.8,4.8,17.8,11.6h-35.6
			C110.2,55.5,117.1,50.7,125,50.7 M155.4,65.1l-0.4,0.8l-0.5,0.8h-59l-0.5-0.8l-0.4-0.8H155.4L155.4,65.1z M150,77.7l-3.5-1.6
			l3.5-1.2l0.9-0.3l-0.3,0.8l-0.7,2L150,77.7L150,77.7z M148.6,73.6l-4.3,1.5l-0.5-0.2l-0.4-0.2l-7.1,0.5l-1.2,2.3l0,0.5
			c-2.9-0.8-5.8-1.3-8.8-1.4v-6.9H153l0,0.1l-0.8,1.5l-0.3,0.5l-0.3,0.9L148.6,73.6L148.6,73.6z M161.9,107.3l7.1,7
			c0,0-5.4,7.2-5.1,14l0.3,0.5L147.8,160c-6.9-0.8-14.1-1.3-21.4-1.3v-7.2c20.1-0.7,36.2-17.2,36.2-37.5
			C162.5,111.7,162.3,109.5,161.9,107.3L161.9,107.3z M173.3,121c0.1,1.7,0.4,3.5,0.7,4.7c0.2,0.8,0.4,1.3,0.4,1.3l-0.9,5.4l-1.3-1
			l-0.8,3.4l-1.2-1.9l-1.7-2.7l-1-1.6l-0.8-1.2c0-0.7,0.5-3.7,1.4-5.8c0.2-0.6,0.5-1.1,0.7-1.5c0.1-0.1,0.1-0.2,0.2-0.2
			c1.1-1.4,2.7-1.2,3.6-0.9c0.5,0.1,0.8,0.3,0.8,0.3C173.3,119.7,173.3,120.4,173.3,121L173.3,121z M190.2,164.5l-2.9-1.5l-2.3,0.6
			l-1.3,2.6l-0.5,2.1c-5.1-1.9-10.6-3.6-16.4-5l4.2-9l11-10c0,0,5.3,5.6,10.4,9.7l1.6,11.3L190.2,164.5L190.2,164.5z M192.2,167.4
			l-1.1,3.7l-2.1-0.8l1.2-3.8L192.2,167.4L192.2,167.4z M188.9,166.1l-1.2,3.7l-2.3-0.7l0.5-2.1l1.2-1.7L188.9,166.1z M169.8,152.8
			l-2.9-1.5l1,4l-3.3,7.5c-2-0.5-4.1-0.9-6.2-1.2l1.2-3.8l4-0.6l-0.9-2.1l9.4-12.9l2.6,5.3L169.8,152.8L169.8,152.8z M155.2,155.4
			l-1.7-0.3l12.3-23.4l1,1.7L155.2,155.4z M157.8,157.7l-1,3.5c-0.5-0.1-1-0.2-1.4-0.2c-0.3,0-0.6-0.1-0.9-0.1l1-3.5l1.6,0.2
			L157.8,157.7L157.8,157.7z M154.2,157.3l-0.1,0.2l-1,3.2l-0.6-0.1c-0.5-0.1-0.9-0.1-1.4-0.2l0.2-1.1l0.1-1l1-1.6l0.2,0.1
			L154.2,157.3z M168.5,136.2l2.2,3.7c0,0-7.3,11.2-11,15.4l-1.2,0.1L168.5,136.2L168.5,136.2z M126.3,148.2c-0.4,0-0.9,0-1.3,0
			s-0.9,0-1.3,0c-18.3-0.7-33-15.8-33-34.3c0-3.9,0.7-7.7,1.9-11.2c1.8-5.3,4.9-10.1,9-13.9c1.4-1.3,2.9-2.5,4.5-3.5
			c1.4-0.9,2.8-1.7,4.2-2.4c4.1-1.9,8.6-3.1,13.3-3.3c0.4,0,0.9,0,1.3,0s0.9,0,1.3,0c4.8,0.2,9.3,1.3,13.3,3.3
			c1.5,0.7,2.9,1.5,4.2,2.4c1.6,1.1,3.1,2.2,4.5,3.5c4.1,3.8,7.2,8.5,9,13.9c1.2,3.6,1.9,7.4,1.9,11.2
			C159.3,132.5,144.7,147.6,126.3,148.2L126.3,148.2z M94.8,155.4l-11.6-22.1l1-1.7l12.3,23.4L94.8,155.4z M95.5,160.9
			c-0.3,0-0.6,0.1-0.9,0.1c-0.5,0.1-1,0.2-1.4,0.2l-1-3.5l0.7-0.1l1.6-0.2L95.5,160.9L95.5,160.9z M62.7,163l-2.9,1.5l-3.7,0.8
			l1.6-11.3c5.1-4.1,10.4-9.7,10.4-9.7l11,10l4.2,9c-5.8,1.4-11.3,3-16.4,5l-0.5-2.1l-1.3-2.6L62.7,163L62.7,163z M64.5,169
			l-2.3,0.7l-1.2-3.7l1.8-0.8l1.2,1.7L64.5,169z M61,170.3l-2.1,0.8l-1.1-3.7l1.9-0.9L61,170.3L61,170.3z M82.1,155.3l1-4l-2.9,1.5
			l-4.8-5.3l2.6-5.3l9.4,12.9l-0.9,2.1l3.9,0.6l1.2,3.8c-2.1,0.4-4.2,0.8-6.2,1.2L82.1,155.3z M76.6,119.1c0,0,0.3-0.2,0.8-0.3
			c1-0.3,2.6-0.4,3.6,0.9c0.1,0.1,0.1,0.1,0.2,0.2c0.3,0.4,0.5,0.9,0.7,1.5c0.8,2.2,1.4,5.2,1.4,5.8l-0.8,1.2l-1,1.6l-1.7,2.7
			l-1.2,1.9l-0.8-3.4l-1.3,1l-0.9-5.4c0,0,0.2-0.5,0.4-1.3c0.3-1.2,0.6-2.9,0.7-4.7C76.7,120.4,76.7,119.7,76.6,119.1L76.6,119.1z
			 M90.4,155.2c-3.8-4.2-11-15.4-11-15.4l2.2-3.7l10.1,19.2L90.4,155.2L90.4,155.2z M97.4,156.8l0.2-0.1l1,1.6l0.1,1l0.2,1.1
			c-0.5,0.1-0.9,0.1-1.4,0.2l-0.6,0.1l-1-3.2l-0.1-0.2L97.4,156.8z M85.9,128.8l0.3-0.5c0.3-6.8-5.1-14-5.1-14l7.1-7
			c-0.4,2.2-0.6,4.4-0.6,6.7c0,20.3,16.1,36.8,36.2,37.5v7.2c-7.3,0-14.5,0.5-21.4,1.3L85.9,128.8z M99.5,75.4l-0.3-0.8l0.9,0.3
			l3.5,1.2l-3.5,1.6l0.1-0.2L99.5,75.4L99.5,75.4z M101.4,73.6l-2.9-1l-0.3-0.9l-0.3-0.5l-0.8-1.5l0-0.1h26.7v6.9
			c-3,0.1-6,0.6-8.8,1.4l0-0.5l-1.2-2.3l-7.1-0.5l-0.4,0.2l-0.5,0.2L101.4,73.6z M47.3,65.1h19.3l0.7,0.2l0.1,1.5H50.1l12.5,23.7
			l-0.9,2L47.3,65.1L47.3,65.1z M67.5,69.6l0.3,8.7l-3.9,8.9l-9.3-17.6H67.5L67.5,69.6z M49.8,169.1l-0.1-10.2l1.9-3.5l-2.2,0.6
			l0.1-2.2l4.6-7.3l3.5-5.6l-0.9-5.4l3.6-9.8l-5,5.5c0,0-0.5-0.9-1-2.3l2.7-4.5l-3.6,1.9c-0.5-1.6-0.9-3.5-1-5.4l0.1-0.5l-8.2,12.8
			l-1.1-2.5c-3.4,7-10.7,9.3-10.7,9.3l0.4-3.5c0,0-2.3,1.9-9.8,2.6s-9.5-4.6-9.5-4.6c5.9,0.4,12.7-0.4,21.7-3.6
			C44.4,127.7,51,119,51,119l2-2.3c0,0,2.3-3.6,4.1-8l1.9-4.2l2.7-6l1.5-3.2l0.9-1.9l1.5-3.2l5.6-12.2l-0.7-0.2l-0.6-8.2l-0.2-2.8
			l-0.1-1.7l-0.2-2.1c0.5-0.2,1-0.5,1.5-0.7c0,0,0.1,0,0.1-0.1l0,0.1l0.4,2.8l0.2,1.7l0.4,2.8l0.1,0.8l0.1-0.8l0.3-2.8l0.2-1.7
			l0.3-2.8l0.3-2.6c0.5-1,1-2.1,1-2.1l-0.2-1.9c0,0-1.4,3.2-2.7,4.6c-0.8,0.9-2.3,1.5-3.4,1.9c-0.7,0.3-1.3,0.4-1.3,0.4l-1.3-0.4
			l-1-0.3l-0.2-1.6l2.4-3.7c0,0,0.1-7.3,0.9-11.1l3.1-3.8l2.1-8.3l0.5,0.7l1.7-1.4c0,0,1.2-0.1,2.9,2.2c0.9,1.2-0.3,2,1.5,5
			c0,0,0.6-0.8,1.3-1c0.7-0.1,1.7-0.5,2.4-1.3c0.7-0.8,0.9-1.4,0.9-1.4s1.3,0.8,1.2,1.8c0,1-1,4.2-1,4.7c-0.1,0.5-0.1,3.8,0.8,5.3
			c0.9,1.4,3.2,6.3,3.2,6.3l-0.9-0.3l4.3,5.6l-0.9,0.1l0.1,0.2l-4.5-4.9l1.6,5.4l-8.2-8.9l0.5,5.7l-3.1-1.1l5.2,6.1l0,0.1v-0.1
			l-0.5-5.6l4.7,5.6l2.3,2.8l1.1,1.3l0-1.3l-0.1-2.8l0-0.9l0.8,0.9l2.4,2.8l0.5,0.6l0.5,1.1l1.4,2.8l1.4,3l0.6,2l-3.5-4.9l-1.5-2.2
			L92,69.6l-0.2,0.9l-1-0.9l-3-2.8l-1.8-1.7l-1.5-1.4l-0.1,1.4l-0.1,1.7v0.1l-0.2-0.1l-1.9-1.7l-3.1-2.8l-2.8-2.5l2.1,2.5l2.3,2.8
			l1.4,1.7l2.3,2.8l1.6,1.9l0.1-1.9l0.1-2.5l2.1,2.5l3.7,4.4l1.2-2.2l2.9,7.9l-2.2,1.3L93,76.6l-1.2,2.2l-3.7-6.8l-0.6,3.3L82,69.9
			l5.9,10.3l1-2.7l1.7,5.4l-3.9,2.4l-2.3-6.7l-1.2-1.2l1.4,9.3l-3,1.5l3.6,0.1l12.4-7.8l3.8-1.7l5.2-2.4l1-0.5l5.3,0.7l0.7,1.5
			l-0.3,0.3c-0.4,0.1-0.9,0.3-1.3,0.5l-0.6-1l-4.5-0.7h0l-2.2,0.9l2.7,0.3l3.1,0.4l0.2,0.5c-0.7,0.3-1.4,0.6-2.1,1l-0.4-0.5l-0.1,0
			l-4.8-0.6l0,0l-1.3,0.9l0.7,0.1l3.9,0.6l0.3,0.4c-0.9,0.5-1.8,1-2.7,1.6c-1.1,0.5-2,0.9-2.6,1.2c-0.9,0.4-1.3,0.6-1.3,0.6
			l-0.1,0.1L82.4,99.3l-7.3-3.6L75,95.5l-2-3.6l-4.7-0.7l1.1,2.1l1.7,0.7l-2.4,2.3l-2.1,2l-1.2,1.2l-0.7,0.7l0.8-0.5l1.4-0.9
			l2.3-1.5l2.9-1.9l0.5,1.5l0.2,0.5l-2.8,1.7l-2.4,1.4l-1.4,0.9l-2.4,1.4l-1.5,0.9l2.1,0.4l1.3,0.2l-0.8,0.7l-4.4,3.6l5-2.5l2.5-1.2
			l1.5-0.7l1.8-0.9l-2.5-0.4l-1.5-0.3l1.1-0.5l2.5-1.2l4.1-2l2.5,0.9l-5.5,2l5.5,0.4l-4.8,2.1l-2.6,1.1l-1.5,0.7l-1.4,0.6l1.8,0.2
			l2,0.3l1,0.1l-0.7,0.5l-1.4,0.9l-2.4,1.5l-3.5,2.2l4.4-0.4l0.3,0l-0.2,0.2l-8.4,6.8L71,117l1.1,10.8c0,0,1,5.6-0.4,8
			c-1.4,2.4-6,7.5-6,7.5l-8.6,7.9l-3-0.7l1.5,3.5l-1.3,10.8l-1.5,2.1l3.4,0.8l1.5,4l-3.8,1.5L49.8,169.1L49.8,169.1z M82.1,190.8
			c-0.4,1.3-3.1,2.6-5.4,3.4c-1.4,0.5-3.6,1.4-5.3,2.4l0.6-4.8c0,0,4.3-2.2,6.7-2.6C81,188.7,82.5,189.5,82.1,190.8L82.1,190.8z
			 M125,212.8l-17.3-32.9c0.6-0.1,1.2-0.1,1.8-0.2l15.5,29.5l15.5-29.5c0.6,0.1,1.2,0.1,1.8,0.2L125,212.8z M112.5,179.5
			c3.6-0.3,7.4-0.4,11.2-0.4v21.6L112.5,179.5z M126.3,200.7V179c3.8,0,7.5,0.2,11.2,0.4L126.3,200.7z M173.3,194.2
			c-2.3-0.8-4.9-2.1-5.4-3.4c-0.4-1.3,1.1-2.1,3.4-1.6c2.3,0.4,6.7,2.6,6.7,2.6l0.6,4.8C176.9,195.6,174.7,194.7,173.3,194.2
			L173.3,194.2z M198.2,181.1l-6.6,14c-0.2-1.9-2.2-3.9-4-4.8c-10.7-5.8-25.3-10-41.4-11.9c-1-0.1-2-0.2-3-0.3
			c-0.6-0.1-1.2-0.1-1.8-0.2c-1-0.1-2-0.2-3-0.3c-4-0.3-8.1-0.5-12.2-0.5h-2.6c-4.1,0-8.2,0.2-12.2,0.5c-1,0.1-2,0.2-3,0.3
			c-0.6,0.1-1.2,0.1-1.8,0.2c-1,0.1-2,0.2-3,0.3c-16.1,2-30.6,6.1-41.4,11.9c-1.8,1-3.8,2.9-4,4.8l-6.6-14c-0.8-1.4-0.3-3.2,1.1-4
			c2.4-1.4,4.9-2.7,7.6-4c7-3.3,15-5.9,23.6-8c3.5-0.8,7.1-1.5,10.7-2.1c0.3,0,0.5-0.1,0.8-0.1c1-0.2,1.9-0.3,2.9-0.4
			c0.6-0.1,1.2-0.2,1.8-0.2c1-0.1,2-0.3,3-0.4c6.6-0.8,13.5-1.2,20.4-1.2h2.6c7,0,13.8,0.5,20.4,1.2c1,0.1,2,0.2,3,0.4
			c0.6,0.1,1.2,0.2,1.8,0.2c1,0.1,2,0.3,2.9,0.4c0.3,0,0.5,0.1,0.8,0.1c3.7,0.6,7.3,1.3,10.7,2.1c8.6,2,16.6,4.7,23.6,8
			c2.7,1.2,5.2,2.6,7.6,4C198.5,177.9,199,179.7,198.2,181.1 M226.9,139c-7.5-0.8-9.8-2.6-9.8-2.6l0.4,3.5c0,0-7.4-2.3-10.7-9.3
			l-1.1,2.5l-8.2-12.8l0.1,0.5c-0.1,1.9-0.5,3.8-1,5.4l-3.6-1.9l2.7,4.5c-0.5,1.4-1,2.3-1,2.3l-5-5.5l3.6,9.8l-0.9,5.4l3.5,5.6
			l4.6,7.3l0.1,2.2l-2.2-0.6l1.9,3.5l-0.1,10.2l-3.9,4.1l-3.8-1.5l1.5-4l3.4-0.8l-1.5-2.1l-1.3-10.8l1.5-3.5l-3,0.7l-8.6-7.9
			c0,0-4.6-5-6-7.5c-1.4-2.4-0.4-8-0.4-8L179,117l10.7,1.8l-8.4-6.8l-0.2-0.2l0.3,0l4.4,0.4l-3.5-2.2l-2.4-1.5l-1.4-0.9l-0.7-0.5
			l1-0.1l2-0.3l1.8-0.2l-1.4-0.6l-1.5-0.7l-2.6-1.1l-4.8-2.1l5.5-0.4l-5.5-2l2.5-0.9l4.1,2l2.5,1.2l1.1,0.5l-1.5,0.3l-2.5,0.4
			l1.8,0.9l1.5,0.7l2.5,1.2l5,2.5l-4.4-3.6l-0.8-0.7l1.3-0.2l2.1-0.4l-1.5-0.9l-2.4-1.4l-1.4-0.9l-2.4-1.4l-2.8-1.7l0.2-0.5l0.5-1.5
			l2.9,1.9l2.3,1.5l1.4,0.9l0.8,0.5l-0.7-0.7l-1.2-1.2l-2.1-2l-2.4-2.3l1.7-0.7l1.1-2.1l-4.7,0.7l-2,3.6l-0.1,0.2l-7.3,3.6
			l-17.8-14.7l-0.1-0.1c0,0-0.5-0.2-1.3-0.6c-0.7-0.3-1.5-0.7-2.6-1.2c-0.9-0.6-1.7-1.1-2.7-1.6l0.3-0.4l3.9-0.6l0.7-0.1l-1.3-0.9
			l0,0l-4.8,0.6l-0.1,0l-0.4,0.5c-0.7-0.3-1.4-0.7-2.1-1l0.2-0.5l3.1-0.4l2.7-0.3l-2.2-0.9h0l-4.5,0.7l-0.6,1
			c-0.4-0.2-0.9-0.3-1.3-0.5l-0.3-0.3l0.7-1.5l5.3-0.7l1.1,0.5l5.2,2.4l3.8,1.7l12.4,7.8l3.6-0.1l-3-1.5l1.4-9.3l-1.2,1.2l-2.3,6.7
			l-3.9-2.4l1.7-5.4l1,2.7l5.9-10.3l-5.5,5.5l-0.6-3.3l-3.7,6.8l-1.2-2.2l-0.8,4.3l-2.2-1.3l2.9-7.9l1.2,2.2l3.7-4.4l2.1-2.5
			l0.1,2.5l0.1,1.9l1.6-1.9l2.3-2.8l1.4-1.7l2.3-2.8l2.1-2.5l-2.8,2.5l-3.1,2.8l-1.9,1.7l-0.2,0.1v-0.1l-0.1-1.7l-0.1-1.4l-1.5,1.4
			l-1.8,1.7l-3,2.8l-1,0.9l-0.2-0.9l-0.5-2.2l-1.5,2.2l-3.5,4.9l0.6-2l1.4-3l1.4-2.8l0.5-1.1l0.5-0.6l2.4-2.8l0.8-0.9l0,0.9
			l-0.1,2.8l0,1.3l1.1-1.3l2.3-2.8l4.7-5.6l-0.5,5.6v0.1l0-0.1l5.2-6.1l-3.1,1.1l0.5-5.7l-8.2,8.9l1.6-5.4l-4.5,4.9l0.1-0.2
			l-0.9-0.1l4.3-5.6l-0.9,0.3c0,0,2.3-4.9,3.2-6.3c0.9-1.4,0.8-4.7,0.8-5.3c-0.1-0.5-1-3.7-1-4.7c0-1,1.2-1.8,1.2-1.8
			s0.2,0.6,0.9,1.4s1.7,1.2,2.4,1.3c0.7,0.1,1.3,1,1.3,1c1.8-2.9,0.6-3.7,1.5-5c1.7-2.3,2.9-2.2,2.9-2.2l1.7,1.4l0.5-0.7l2.1,8.3
			l3.1,3.8c0.8,3.9,0.9,11.1,0.9,11.1l2.4,3.7l-0.2,1.6l-1,0.3l-1.3,0.4c0,0-0.5-0.1-1.3-0.4c-1.1-0.4-2.6-1-3.4-1.9
			c-1.3-1.4-2.7-4.6-2.7-4.6l-0.2,1.9c0,0,0.5,1.1,1,2.1l0.3,2.6l0.3,2.8l0.2,1.7l0.3,2.8l0.1,0.8l0.1-0.8l0.4-2.8l0.2-1.7l0.4-2.8
			l0-0.1c0,0,0.1,0,0.1,0.1c0.5,0.2,1,0.5,1.5,0.7l-0.2,2.1l-0.1,1.7l-0.2,2.8l-0.6,8.2l-0.7,0.2l5.6,12.2l1.5,3.2l0.9,1.9l1.5,3.2
			l2.7,6l1.9,4.2c1.8,4.4,4.1,8,4.1,8l2,2.3c0,0,6.6,8.7,15.6,11.9c9,3.2,15.8,4.1,21.7,3.6C236.3,134.5,234.3,139.8,226.9,139
			L226.9,139z"/>
		
			<linearGradient id="SVGID_6_" gradientUnits="userSpaceOnUse" x1="9.6764" y1="201.2493" x2="240.0811" y2="201.2493" gradientTransform="matrix(1 0 0 -1 0 252)">
			<stop  offset="0.16" style="stop-color:#030916"/>
			<stop  offset="0.5" style="stop-color:#040E23"/>
			<stop  offset="0.87" style="stop-color:#030916"/>
		</linearGradient>
		<path class="st9" d="M168.4,50.9v-4.7l-3.2,9L168.4,50.9z"/>
		
			<linearGradient id="SVGID_7_" gradientUnits="userSpaceOnUse" x1="9.6764" y1="157.2557" x2="240.0811" y2="157.2557" gradientTransform="matrix(1 0 0 -1 0 252)">
			<stop  offset="0.16" style="stop-color:#030916"/>
			<stop  offset="0.5" style="stop-color:#040E23"/>
			<stop  offset="0.87" style="stop-color:#030916"/>
		</linearGradient>
		<path class="st10" d="M160.5,92l7.5,5.4l3.2-1.6l-3.1-0.5L160.5,92z"/>
		
			<linearGradient id="SVGID_8_" gradientUnits="userSpaceOnUse" x1="9.6805" y1="207.5585" x2="240.0688" y2="207.5585" gradientTransform="matrix(1 0 0 -1 0 252)">
			<stop  offset="0.16" style="stop-color:#030916"/>
			<stop  offset="0.5" style="stop-color:#040E23"/>
			<stop  offset="0.87" style="stop-color:#030916"/>
		</linearGradient>
		<path class="st11" d="M71.5,42.8l-1.4,1.2l0.6,2.2C73,43.5,71.5,42.8,71.5,42.8"/>
		
			<linearGradient id="SVGID_9_" gradientUnits="userSpaceOnUse" x1="9.6764" y1="194.9242" x2="240.0894" y2="194.9242" gradientTransform="matrix(1 0 0 -1 0 252)">
			<stop  offset="0.16" style="stop-color:#030916"/>
			<stop  offset="0.5" style="stop-color:#040E23"/>
			<stop  offset="0.87" style="stop-color:#030916"/>
		</linearGradient>
		<path class="st12" d="M69.4,52.6l-0.8,1.3l0.7,2.8l-1.9,2.9l0.1-2.2l-1.6,2.7c0,0-0.5,0.6,0,1.2c0.6,0.8,2.6-0.9,2.6-0.9l2-3.6
			l-0.6-1.5L69.4,52.6L69.4,52.6z"/>
		
			<linearGradient id="SVGID_10_" gradientUnits="userSpaceOnUse" x1="9.6764" y1="201.2493" x2="240.0811" y2="201.2493" gradientTransform="matrix(1 0 0 -1 0 252)">
			<stop  offset="0.16" style="stop-color:#030916"/>
			<stop  offset="0.5" style="stop-color:#040E23"/>
			<stop  offset="0.87" style="stop-color:#030916"/>
		</linearGradient>
		<path class="st13" d="M81.6,46.3v4.7l3.2,4.3L81.6,46.3z"/>
		
			<linearGradient id="SVGID_11_" gradientUnits="userSpaceOnUse" x1="9.6764" y1="157.2557" x2="240.0853" y2="157.2557" gradientTransform="matrix(1 0 0 -1 0 252)">
			<stop  offset="0.16" style="stop-color:#030916"/>
			<stop  offset="0.5" style="stop-color:#040E23"/>
			<stop  offset="0.87" style="stop-color:#030916"/>
		</linearGradient>
		<path class="st14" d="M89.5,92l-7.6,3.3l-3.1,0.5l3.2,1.6L89.5,92z"/>
		
			<linearGradient id="SVGID_12_" gradientUnits="userSpaceOnUse" x1="9.6764" y1="74.0429" x2="240.0853" y2="74.0429" gradientTransform="matrix(1 0 0 -1 0 252)">
			<stop  offset="0.16" style="stop-color:#030916"/>
			<stop  offset="0.5" style="stop-color:#040E23"/>
			<stop  offset="0.87" style="stop-color:#030916"/>
		</linearGradient>
		<path class="st15" d="M66.5,176.6c0.1,0.4,0.2,0.9,0.2,1.3l0.2,1.4l1.3-0.5l-0.9-1.1C67.1,177.3,66.8,176.9,66.5,176.6L66.5,176.6
			L66.5,176.6z"/>
		
			<linearGradient id="SVGID_13_" gradientUnits="userSpaceOnUse" x1="9.6805" y1="79.9391" x2="240.0729" y2="79.9391" gradientTransform="matrix(1 0 0 -1 0 252)">
			<stop  offset="0.16" style="stop-color:#030916"/>
			<stop  offset="0.5" style="stop-color:#040E23"/>
			<stop  offset="0.87" style="stop-color:#030916"/>
		</linearGradient>
		<path class="st16" d="M85.6,170.7L85.6,170.7c0,0.4,0,0.9,0,1.3l-0.1,1.5l1.4-0.3l-0.7-1.3C85.9,171.5,85.7,171,85.6,170.7"/>
		
			<linearGradient id="SVGID_14_" gradientUnits="userSpaceOnUse" x1="9.6764" y1="75.179" x2="240.0811" y2="75.179" gradientTransform="matrix(1 0 0 -1 0 252)">
			<stop  offset="0.16" style="stop-color:#030916"/>
			<stop  offset="0.5" style="stop-color:#040E23"/>
			<stop  offset="0.87" style="stop-color:#030916"/>
		</linearGradient>
		<path class="st17" d="M196.2,178.5c-2.3-1.4-4.8-2.7-7.4-3.9c-10.1-4.7-22.1-8.1-35.2-10.2c-1.6-0.2-3.1-0.5-4.7-0.7
			c-1-0.1-2-0.2-3-0.4c-6.4-0.7-12.9-1.1-19.6-1.1h-2.6c-6.7,0-13.2,0.4-19.6,1.1c-1,0.1-2,0.2-3,0.4c-0.6,0.1-1.2,0.2-1.8,0.2
			c-1,0.1-2,0.3-2.9,0.4c-13.1,2-25.1,5.5-35.2,10.2c-2.6,1.2-5.1,2.5-7.4,3.9c-0.6,0.4-0.8,1.1-0.4,1.8l5.1,11c0.9-1,2-1.9,3.1-2.5
			c10.9-5.9,25.3-10.1,41.3-12.1c1-0.1,2-0.2,3-0.4c0.6-0.1,1.2-0.1,1.8-0.2c1-0.1,2-0.2,3-0.3c4.3-0.3,8.6-0.5,13-0.6h2.6
			c4.4,0,8.7,0.2,13,0.6c1,0.1,2,0.2,3,0.3c0.6,0.1,1.2,0.1,1.8,0.2c1,0.1,2,0.2,3,0.4c16,2,30.4,6.2,41.3,12.1
			c1.1,0.6,2.2,1.5,3.1,2.5l5.2-11C197.1,179.7,196.9,178.9,196.2,178.5L196.2,178.5z M70,181.1l-1.1-1.4l-1.7,0.7l0.2,1.7l-1.4,0.6
			l-0.8-6.9l1.7-0.7l4.4,5.4L70,181.1L70,181.1z M76.1,178.9l-2.1-2c-0.6-0.6-1.2-1.2-1.8-1.9l0,0c0.3,0.8,0.6,1.7,1,2.7l0.6,1.9
			l-1.3,0.4l-2.1-6.3l1.6-0.5l2,1.9c0.6,0.5,1.2,1.2,1.7,1.8l0,0c-0.4-0.8-0.7-1.6-1-2.6l-0.6-1.8l1.3-0.4l2.1,6.3L76.1,178.9
			L76.1,178.9z M80.6,177.7c-0.7,0.2-1.4,0.2-1.8,0.1l0-1.3c0.4,0.1,1.1,0.1,1.7,0c0.6-0.2,0.9-0.5,0.8-1c-0.1-0.4-0.5-0.5-1.3-0.6
			c-1.1-0.1-2-0.5-2.2-1.4c-0.3-1.1,0.3-2.2,1.8-2.6c0.7-0.2,1.2-0.2,1.7-0.1l0,1.3c-0.5-0.1-0.9-0.1-1.4,0
			c-0.6,0.2-0.8,0.5-0.7,0.9c0.1,0.4,0.5,0.5,1.4,0.6c1.2,0.1,1.9,0.6,2.1,1.5C82.9,176.1,82.3,177.2,80.6,177.7L80.6,177.7z
			 M88.1,175.7l-0.9-1.6l-1.8,0.4l-0.1,1.8l-1.5,0.3l0.5-6.9l1.8-0.4l3.4,6L88.1,175.7L88.1,175.7z M94.6,174.5l-1.8-2.3
			c-0.5-0.6-1.1-1.4-1.5-2.1l0,0c0.2,0.9,0.4,1.8,0.6,2.8l0.3,2l-1.3,0.2l-1.1-6.5l1.7-0.3l1.7,2.2c0.5,0.6,1,1.4,1.4,2.1h0
			c-0.2-0.9-0.4-1.7-0.6-2.7l-0.3-1.9l1.3-0.2l1.1,6.5L94.6,174.5L94.6,174.5z M104.2,173.2c-0.3,0.1-0.6,0.2-0.9,0.2
			c-1,0.1-1.7,0-2.3-0.4c-0.1-0.1-0.3-0.1-0.4-0.2c-0.6-0.5-1.1-1.3-1.2-2.3c0-0.1,0-0.3,0-0.4c0-1.3,0.6-2.4,1.6-2.9
			c0.5-0.3,1-0.4,1.6-0.5h0c0.8-0.1,1.5,0,1.8,0.1l-0.2,1.2c-0.3-0.1-0.6-0.1-1-0.1c-0.2,0-0.3,0-0.5,0c-0.4,0-0.8,0.2-1.1,0.4
			c-0.5,0.4-0.8,1-0.7,1.9c0.2,1.4,1.1,2.1,2.2,1.9c0.2,0,0.3-0.1,0.5-0.1c0.1,0,0.2-0.1,0.2-0.1l-0.2-1.4l-0.8,0.1l-0.2,0l-0.1-0.5
			l-0.1-0.7l1.5-0.2l0.8-0.1l0.3,2.2l0.2,1.3C105.1,172.9,104.7,173.1,104.2,173.2L104.2,173.2z M110.2,172.7
			c-0.1-0.2-0.3-0.7-0.6-1.5c-0.2-0.8-0.5-1-1.1-1l-0.4,0l0.1,0.9l0.1,1.7l-1.4,0.1l-0.4-5l-0.1-1.5c0.5-0.1,1.1-0.2,1.9-0.3
			c0.9-0.1,1.6,0,2.1,0.4c0.4,0.3,0.6,0.7,0.7,1.3c0.1,0.8-0.5,1.5-1,1.7v0c0.5,0.2,0.7,0.6,0.9,1.2c0.3,0.7,0.5,1.6,0.7,1.8
			L110.2,172.7L110.2,172.7z M112.9,172.5l-0.3-6.6l3.9-0.2l0.1,1.2l-2.5,0.1l0.1,1.4l2.3-0.1l0.1,1.2l-2.3,0.1l0.1,1.6l2.6-0.1
			l0.1,1.2L112.9,172.5L112.9,172.5z M118.4,172.3l-0.1-6.6l3.9-0.1l0,1.2l-2.5,0.1l0,1.4l2.3-0.1l0,1.2l-2.3,0.1l0,1.6l2.6-0.1
			l0,1.2L118.4,172.3L118.4,172.3z M129.1,172.2l-1.5,0l-1.3-2.4l-0.1-0.2c-0.4-0.7-0.8-1.6-1.1-2.4l0,0c0,0.9,0,1.8,0,2.9l0,2
			l-1.3,0l0-6.6l1.7,0l0.8,1.5l0.5,1c0.4,0.7,0.7,1.5,1,2.3h0c-0.1-0.9-0.1-1.8-0.1-2.8l0-1.9l1.3,0L129.1,172.2z M134.9,167
			l-2.5-0.1l0,1.4l2.3,0.1l0,1.2l-2.3-0.1l-0.1,1.6l2.6,0.1l0,1.2l-4.1-0.1l0.2-6.6l3.9,0.1L134.9,167z M140.7,170.9
			c0.1,0.7,0.3,1.5,0.4,1.8c0,0,0,0,0,0h0l-1.4-0.1c-0.1-0.2-0.2-0.7-0.3-1.6c-0.1-0.8-0.4-1.1-1-1.1l-0.4,0l-0.2,2.6l-1.4-0.1
			l0.4-6.5c0.5,0,1.2-0.1,1.9,0c0.9,0.1,1.6,0.3,2,0.7c0.4,0.3,0.5,0.8,0.5,1.4c-0.1,0.8-0.7,1.4-1.2,1.6v0
			C140.3,169.8,140.5,170.3,140.7,170.9L140.7,170.9z M145.1,169.2c0.3,0.1,0.5,0.3,0.7,0.4c0.6,0.5,0.8,1,0.8,1.7
			c-0.1,1.1-1,1.9-2.6,1.8c-0.1,0-0.1,0-0.2,0c-0.7-0.1-1.4-0.3-1.8-0.6l0.4-1.2c0.4,0.2,0.9,0.5,1.5,0.6c0.3,0,0.5,0,0.6-0.1
			c0.3-0.1,0.4-0.3,0.4-0.5c0-0.1,0-0.2,0-0.2c-0.1-0.3-0.4-0.5-0.9-0.8c-0.6-0.3-1-0.6-1.3-1c-0.2-0.3-0.3-0.7-0.3-1.1
			c0.1-0.9,0.8-1.6,1.8-1.7c0.2,0,0.5-0.1,0.8,0c0.7,0.1,1.2,0.3,1.6,0.5l-0.4,1.2c-0.2-0.2-0.7-0.4-1.3-0.4c-0.6-0.1-0.9,0.2-1,0.5
			C144,168.6,144.3,168.8,145.1,169.2L145.1,169.2z M154.7,169l-2.4-0.3l-0.2,1.5l2.3,0.3l-0.2,1.2l-2.3-0.3l-0.4,2.6l-1.4-0.2
			l0.5-3.6l0.4-3l1.1,0.2l2.8,0.4L154.7,169L154.7,169z M160.8,170.2c-0.3-0.2-0.6-0.4-1.1-0.5c-1.1-0.2-2.1,0.3-2.4,1.8
			c-0.2,1.3,0.4,2.3,1.6,2.5c0.4,0.1,0.9,0.1,1.2,0v1.2c-0.3,0.1-0.9,0.1-1.7,0c-2.2-0.4-3-2-2.7-3.9c0.4-2.2,2.2-3.2,4.1-2.8
			c0.7,0.1,1.3,0.4,1.5,0.6L160.8,170.2L160.8,170.2z M168.6,172.8c-0.3,1-1.2,1.7-2.2,2.3l-0.7,0.3v0l2.2,0.6l-0.3,1.2l-4.2-1
			l0.2-0.9l0.9-0.5c1.6-0.9,2.4-1.4,2.6-2.2c0.1-0.5-0.1-1-0.8-1.2c-0.5-0.1-1,0-1.4,0.2l-0.1-1.1c0.5-0.2,1.3-0.4,2.1-0.2
			C168.3,170.6,168.9,171.6,168.6,172.8L168.6,172.8z M174.2,175.7c-0.6,1.9-1.7,3-3.2,2.5c-1.5-0.5-1.8-2.1-1.3-3.8
			c0.5-1.8,1.7-3,3.2-2.5C174.5,172.4,174.7,174,174.2,175.7L174.2,175.7z M177.3,180.2l-1.3-0.5l1.7-4.8l0,0l-1.3,0.2l0.2-1.1
			l1.8-0.2l1.1,0.4L177.3,180.2z M185.8,177.7l-4.5,4l-1.4-0.6l4.4-3.7l0,0l-2.6-1.1l0.5-1.1l4,1.7L185.8,177.7z"/>
		
			<linearGradient id="SVGID_15_" gradientUnits="userSpaceOnUse" x1="9.6682" y1="76.9473" x2="240.0853" y2="76.9473" gradientTransform="matrix(1 0 0 -1 0 252)">
			<stop  offset="0.16" style="stop-color:#030916"/>
			<stop  offset="0.5" style="stop-color:#040E23"/>
			<stop  offset="0.87" style="stop-color:#030916"/>
		</linearGradient>
		<path class="st18" d="M172.6,173c-0.5-0.2-1,0.4-1.5,1.8c-0.4,1.4-0.3,2.2,0.2,2.3c0.5,0.2,1-0.5,1.4-1.8
			C173.2,173.9,173.1,173.1,172.6,173L172.6,173z"/>
		
			<linearGradient id="SVGID_16_" gradientUnits="userSpaceOnUse" x1="9.6682" y1="84.018" x2="240.0894" y2="84.018" gradientTransform="matrix(1 0 0 -1 0 252)">
			<stop  offset="0.16" style="stop-color:#030916"/>
			<stop  offset="0.5" style="stop-color:#040E23"/>
			<stop  offset="0.87" style="stop-color:#030916"/>
		</linearGradient>
		<path class="st19" d="M138.7,167c-0.3,0-0.6,0-0.7,0l-0.1,1.8l0.6,0c0.7,0,1.2-0.3,1.2-0.9C139.7,167.4,139.4,167.1,138.7,167
			L138.7,167z"/>
		
			<linearGradient id="SVGID_17_" gradientUnits="userSpaceOnUse" x1="9.6764" y1="83.7911" x2="240.0853" y2="83.7911" gradientTransform="matrix(1 0 0 -1 0 252)">
			<stop  offset="0.16" style="stop-color:#030916"/>
			<stop  offset="0.5" style="stop-color:#040E23"/>
			<stop  offset="0.87" style="stop-color:#030916"/>
		</linearGradient>
		<path class="st20" d="M108.5,167.2c-0.3,0-0.5,0.1-0.6,0.1l0.1,1.8l0.6,0c0.7-0.1,1.1-0.5,1.1-1
			C109.6,167.5,109.2,167.2,108.5,167.2L108.5,167.2z"/>
		
			<linearGradient id="SVGID_18_" gradientUnits="userSpaceOnUse" x1="68.7003" y1="138.0097" x2="180.5437" y2="138.0097" gradientTransform="matrix(1 0 0 -1 0 252)">
			<stop  offset="0.16" style="stop-color:#030916"/>
			<stop  offset="0.5" style="stop-color:#040E23"/>
			<stop  offset="0.87" style="stop-color:#030916"/>
		</linearGradient>
		<path class="st21" d="M138.2,111.8l-9.9-22.1c4.1,0.6,8,2.2,11.2,4.5c1,0.7,2,1.5,2.8,2.4l3-3c-1.8-1.8-3.8-3.3-6-4.6
			c-1.4-0.8-2.9-1.5-4.4-2.1c-2.7-1-5.6-1.6-8.5-1.7c-0.4,0-0.9,0-1.3,0s-0.9,0-1.3,0c-3,0.1-5.9,0.7-8.5,1.7
			c-1.5,0.6-3,1.3-4.4,2.1c-8.6,5-14.5,14.3-14.5,24.9c0,15.4,12.2,28,27.4,28.7c0.4,0,0.9,0,1.3,0s0.9,0,1.3,0
			c14.5-0.7,26.3-12.2,27.4-26.6c0.1-0.7,0.1-1.4,0.1-2.1s0-1.4-0.1-2.1L138.2,111.8L138.2,111.8z M125,92.9l8.5,18.9h-17L125,92.9
			L125,92.9z M100.5,114c0-8.1,4-15.2,10-19.7c3.2-2.4,7-4,11.2-4.5l-17,37.9C102,123.6,100.5,118.8,100.5,114 M126.3,138.4
			c-0.9,0-1.8,0-2.6,0c-6.2-0.3-11.8-3-16-7.1l6.8-15.2h20.9l6.8,15.2C138.2,135.4,132.5,138.1,126.3,138.4L126.3,138.4z
			 M145.3,127.6l-5.2-11.5h9.2C149,120.4,147.6,124.3,145.3,127.6"/>
	</g>
</g>
</svg>
