<?xml version="1.0" encoding="utf-8"?>
<!-- Generator: Adobe Illustrator 25.1.0, SVG Export Plug-In . SVG Version: 6.00 Build 0)  -->
<svg version="1.1" id="Layer_1" xmlns="http://www.w3.org/2000/svg" xmlns:xlink="http://www.w3.org/1999/xlink" x="0px" y="0px"
	 viewBox="0 0 250 250" style="enable-background:new 0 0 250 250;" xml:space="preserve">
<style type="text/css">
	.st0{fill:#0B0617;fill-opacity:0;}
	.st1{fill:#FFFFFF;}
	.st2{fill-rule:evenodd;clip-rule:evenodd;fill:#4B237A;}
	.st3{fill-rule:evenodd;clip-rule:evenodd;fill:#1E1E3E;}
	.st4{fill-rule:evenodd;clip-rule:evenodd;fill:#C8A05E;}
	.st5{fill:#C8A05E;}
	.st6{fill:#1E1E3E;}
	.st7{fill-rule:evenodd;clip-rule:evenodd;fill:#FFFFFF;}
	.st8{fill:none;}
</style>
<g id="Layer_1_1_">
	<g>
		<path class="st0" d="M30.9,31.5h188.3v186.9H30.9V31.5z"/>
		<path class="st1" d="M197.3,191C197.3,191.1,197.3,191.1,197.3,191L197.3,191"/>
		<path class="st1" d="M52.6,191L52.6,191C52.6,191.1,52.6,191.1,52.6,191"/>
		<path class="st1" d="M124.9,209.6c-1.4,0-2.5,0.1-3.5,0.2c-4.2,0.7-6.8,3.5-10.7,4.8c-5.9,1.9-9.7-1-13.8-4.7
			c-1.9-1.8-4.1-3.2-6.2-4.7c-1.5-1-3.8-2.3-5.1-3.5c-5.1,3.5-11.7,8-18.2,7.6c-4.7-0.3-6.1-1.8-8.9-5.3c-2.7-3.4-5.9-6.4-9.2-9.3
			c-2.3-1.9-3.2-5-2.8-7.9c0.6-3.8,3.3-6.7,6.4-8.7c0.3-2.3,0.9-4.4,1.9-6.5c-6.8,0.2-13.1-0.2-20,0.3c3.2-8.4,6.3-18.3,12.8-24.7
			c-6.1-3-10.4-9.7-14.5-15.1c5.2-1.4,11.7-3.9,16.9-4.1c-6.1-13.1-2.3-28,0.5-41.7c2,2.3,3.9,4.7,6,7.1c-0.9-4.3-1.6-8.6-2.3-13
			c3.9-0.1,7.5-0.2,11.3-0.6c0.2-4.4,0.8-10.1,3.6-13.6C69.6,59.5,74.6,51,80.7,48c2.8-5.6,8.2-9.3,14.4-10.3c2.4-2.8,5.7-3.9,9.3-4
			c7-0.2,15.7,3.6,20.6,8.6c4.9-5,13.6-8.9,20.6-8.6c3.5,0.1,6.8,1.2,9.3,4c6.2,1,11.6,4.6,14.4,10.3c6.2,3,11.1,11.6,11.5,18.3
			c2.9,3.5,3.5,9.2,3.6,13.6c3.9,0.5,7.5,0.6,11.3,0.6c-0.6,4.3-1.4,8.6-2.3,13c2-2.3,4-4.7,6-7.1c2.7,13.7,6.6,28.6,0.5,41.7
			c5.1,0.2,11.7,2.7,16.9,4.1c-4.1,5.5-8.4,12.1-14.5,15.1c6.5,6.4,9.6,16.3,12.8,24.7c-6.8-0.5-13.2-0.1-20-0.3
			c1,2,1.6,4.3,1.9,6.5c3.1,2,5.7,4.9,6.4,8.7c0.5,2.9-0.6,6-2.8,7.9c-3.3,2.8-6.4,5.9-9.2,9.3c-2.8,3.5-4.2,5-8.9,5.3
			c-6.4,0.4-13-4.2-18.2-7.6c-1.3,1.3-3.5,2.5-5.1,3.5c-2.2,1.4-4.3,2.9-6.2,4.7c-4.1,3.7-8,6.5-13.8,4.7c-3.9-1.3-6.5-4.1-10.7-4.8
			C127.5,209.7,126.4,209.6,124.9,209.6"/>
		<path class="st2" d="M106.3,189.9l0.2-0.2l-0.2-0.1c-1.9-0.8-4.7-0.1-6.6,0.6c-3.1,1.2-6.8,3.6-9.7,5.5l-0.4,0.2h0.5
			c0.2,0,0.4,0,0.6,0.1c1,0.2,1.1,0.7,2.5,0.7c2.3,0.1,4.3-1.5,6.1-2.7C101.7,192.6,103.9,191.1,106.3,189.9 M143.6,189.9
			c2.4,1.3,4.7,2.7,6.9,4.2c1.9,1.2,3.8,2.8,6.1,2.7c1.4-0.1,1.4-0.5,2.5-0.7c0.2-0.1,0.4-0.1,0.6-0.1h0.5l-0.4-0.2
			c-2.8-1.8-6.5-4.3-9.7-5.5c-1.9-0.7-4.7-1.4-6.6-0.6l-0.2,0.1L143.6,189.9z M197.2,185.3c-0.6-0.9-1.4-1.6-2.3-2.2l-0.2-0.2v0.2
			c-0.1,1.9-0.2,3.9-0.4,5.8v0.2h0.2c1-0.1,2.3-0.3,3.1-0.9C198.6,187.5,197.7,186,197.2,185.3 M52.8,185.3c0.6-0.9,1.4-1.6,2.3-2.2
			l0.2-0.2v0.2c0.1,1.9,0.2,3.9,0.4,5.8v0.2h-0.2c-1-0.1-2.3-0.3-3.1-0.9C51.3,187.5,52.2,186,52.8,185.3"/>
		<path class="st3" d="M197.3,146.6c7.4-1.7,11.1-7.2,15.3-12.8c-5.4-1.5-11.6-3.9-17.1-2.7c7.9-12.1,5.1-25.7,2.6-38.9
			c-4.1,4.8-5.9,6.8-8.7,8.7c1.4-5.9,2.6-11.7,3.5-17.7c-3.6-0.1-7.2-0.3-10.9-0.9c0-4.6-0.4-11.7-3.7-14.8c0-3.2-1.2-7-2.9-9.7
			c-1.4-2.4-5.3-6.9-8-7.7c-2.4-5.7-7.8-9.2-13.8-9.9c-4.6-6.4-14.6-3.5-20.4-0.6c-3.1,1.6-6.1,3.9-8.2,6.8c-2.2-3-5.1-5.1-8.2-6.8
			c-5.8-3-15.8-5.8-20.4,0.6C90.3,40.8,85,44.3,82.6,50c-2.7,0.7-6.6,5.3-8,7.7c-1.6,2.7-2.9,6.5-2.9,9.7C68.4,70.6,68,77.7,68,82.3
			c-3.6,0.6-7.2,0.8-10.9,0.9c0.9,6,2.1,11.9,3.5,17.7c-2.8-1.9-4.7-3.9-8.8-8.7c-2.6,13.2-5.4,26.8,2.6,38.9
			c-5.6-1.3-11.7,1.1-17.1,2.7c4.3,5.6,7.9,11.2,15.3,12.8c-7.8,5.3-10.9,14.4-14.1,22.8c6.7-0.5,15.2,0.6,21-0.6
			c-6.3,8-4.3,15.6-3.6,24.8c3.6-2.7,12.4-8.1,14.5-10.9c0.3,2.8,0.8,5.7,1.3,8.5c7.8-6.6,15.2-10.9,20.4-19.3
			c8.3,12.1,18,23.2,29.1,32.4h7.6c11.1-9.3,20.8-20.4,29.1-32.4c5.1,8.4,12.6,12.7,20.4,19.3c0.5-2.8,1-5.7,1.3-8.5
			c2.1,2.7,10.9,8.1,14.5,10.9c0.6-9.2,2.7-16.8-3.6-24.8c5.7,1,14.3,0.1,21,0.6C208.2,161,205.1,151.9,197.3,146.6"/>
		<path class="st4" d="M149.1,46.1c-0.2,1.5-2.5,1.1-2.6,0c0-0.6,0.4-0.8,0.7-0.6c-0.3-1.4-2.7-1.4-2.7,0.6c0,1.9,1.4,3.5,3.5,3.5
			s3.9-2.1,3.3-4.4c-0.6-2.6-1.8-4.3-5.3-4.8c-3.5-0.6-14.8,2.3-18.9,9.7c1.8-1,17.4-4.1,19.1,18.5c1.7,1.2,3.5,2.3,5.3,3.4
			c-0.9-8.3-3.5-17.5-9.3-20.8c6.5,2.7,10.2,11.8,11.3,22c7.5,4.1,15.8,7,24.3,8.6c-0.2-3.5,0-8.1-2.4-11.3
			c-0.6,1.2-2.3,3.4-5.6,3.4c-3.3,0-6.3-2.7-6.3-6.3c0-2.5,1.9-4.1,3.9-4c1.2,0,2.1,0.4,2.8,1.2c0.7,0.8,1,2,0.9,2.8
			c-0.1,0.9-0.3,1.4-1.4,1.4c-0.9,0-1.5-0.7-1.7-1.4c-0.2-0.7,0.6-1.2,1.1-0.6c-0.3-1-0.6-1.5-1.8-1.6c-1.1,0-2.1,0.8-2.1,2.3
			c0,2.4,2,4.4,4.4,4.4c2.9,0,4.3-2.3,4.3-4.4c0-2.2-1-9.1-8-13.6c0.4,4-2.7,6.7-5.9,6.7c-3.2,0-5.9-2.6-6-6c0-2.3,1.8-3.9,3.6-3.9
			c1,0,2.1,0.4,2.7,1.3c0.7,0.9,0.9,1.6,0.9,2.6s-0.7,1.3-1.3,1.3c-0.6,0-1.4-0.4-1.6-1.1c-0.2-0.8,0.2-1.2,0.8-0.9
			c-0.2-0.7-0.7-1.4-1.6-1.4s-1.9,0.6-1.9,2c0,2.3,1.9,4.2,4.1,4.2c2.3,0,4.2-1.7,4.1-4.2c0-2.5-2.7-9.3-11.5-10.4
			c1.4,3.5-1.2,7.2-4.9,7.3c-2.9,0-5.2-2.3-5.2-5.1v-0.1c0-1.9,1.4-3.5,3.3-3.4C148,42.7,149.5,44.1,149.1,46.1 M100.9,46.1
			c0.2,1.5,2.5,1.1,2.6,0c0-0.6-0.4-0.8-0.7-0.6c0.3-1.4,2.7-1.4,2.7,0.6c0,1.9-1.4,3.5-3.5,3.5c-2.1,0-3.9-2.1-3.3-4.4
			c0.6-2.6,1.8-4.3,5.3-4.8c3.5-0.6,14.8,2.3,18.9,9.7c-1.8-1-17.4-4.1-19.1,18.5c-1.7,1.2-3.5,2.3-5.3,3.4
			c0.9-8.3,3.5-17.5,9.3-20.8c-6.5,2.7-10.2,11.8-11.3,22c-7.6,4-16,6.9-24.5,8.5c0.2-3.5,0-8.1,2.4-11.3c0.6,1.2,2.3,3.4,5.6,3.4
			s6.3-2.7,6.3-6.3c0-2.5-1.9-4.1-3.9-4.1c-1.2,0-2.1,0.4-2.8,1.2c-0.7,0.8-1,2-0.9,2.8c0.1,0.9,0.3,1.4,1.4,1.4
			c0.9,0,1.5-0.7,1.7-1.4c0.2-0.7-0.6-1.2-1.1-0.6c0.3-1,0.6-1.5,1.8-1.6c1.1,0,2.1,0.8,2.1,2.3c0,2.4-2,4.4-4.4,4.4
			c-2.9,0-4.3-2.3-4.3-4.4c0-2.2,1-9.1,8-13.6c-0.4,4,2.7,6.7,5.9,6.7c3.2,0,5.9-2.6,6-6c0-2.3-1.8-3.9-3.6-3.9
			c-1,0-2.1,0.4-2.7,1.3c-0.7,0.9-0.9,1.6-0.9,2.6c0,1,0.7,1.3,1.3,1.3s1.4-0.4,1.6-1.1c0.2-0.8-0.2-1.2-0.8-0.9
			c0.2-0.7,0.7-1.4,1.6-1.4s1.9,0.6,1.9,2c0,2.3-1.9,4.2-4.1,4.2c-2.3,0-4.2-1.7-4.1-4.2c0-2.5,2.7-9.3,11.5-10.4
			c-1.4,3.5,1.2,7.2,4.9,7.3c2.9,0,5.2-2.3,5.2-5.1V46c0-1.9-1.4-3.5-3.3-3.4S100.5,44.1,100.9,46.1"/>
		<path class="st5" d="M183.4,176.7c-0.1-3.9-3.9-11-6.9-14c4.1,2.3,9,10.4,11.2,15.4c-1.1-4.7-4.5-11.5-7.4-13.4
			c4.3,2.4,7.7,5.6,9.7,9.8c2.3,4.7,1.4,8.1,1,12.6c-3.5-2.7-7.4-3.1-10.5-8.9c-1.2-2.3-2.1-10.4-3.8-12.7
			C178.7,166.3,182.4,173.9,183.4,176.7 M189.3,160.7c-2.9-5.6-12-10-17.6-12l0,0c8.1,0.7,19.1,5.1,28,12.4
			c-6-6.4-15-11.9-26.3-13.9c7.6,0,11.4,1.2,18.5,4.1c-4.4-3.2-10-4.9-15.8-5.6c17.5-1.2,24.4,4.4,30.3,20
			c-6.2-0.4-14.8,2.3-23.5-3.4c-4.1-2.7-8.8-7-12.7-10.7c0.2-0.4,0.5-0.9,0.6-1.3C178.3,152.4,186.2,156.8,189.3,160.7 M195.9,140.8
			c-3.8-1.1-10.3,0.7-13.2,2.4c3.5-3.5,13.1-5.6,17.1-5.9c-4.5-0.9-10.9,0.7-14.2,3c2.1-2.1,4.7-3.9,7.5-5c5.8-2.3,8.4-1.3,14,0.2
			c-3.7,5-8,8-13.7,8c-2.9,0-5.6-0.8-8.3,0.2C187.8,141.7,192.7,140.9,195.9,140.8 M186.2,125.5c-1,1.4-4.1,4.6-7.5,7.7
			c0.7-1.7,1.4-3.3,2-5c3.7-4.9,6.9-10.3,9.2-15.6c-1.3,2.3-3.9,6.2-7.3,10.5c2-5.7,3.9-11.5,5.5-17.4c3-1.6,5.6-3.2,8-6
			c3.8,19.3-0.3,35.2-21,41.8c0.7-1.5,1.4-3,2-4.5C180.9,133.6,184.3,129.7,186.2,125.5 M66.5,176.7c0.1-3.9,3.9-11,6.9-14
			c-4.1,2.3-9,10.4-11.2,15.4c1.1-4.7,4.5-11.5,7.4-13.4c-4.3,2.4-7.7,5.6-9.7,9.8c-2.3,4.7-1.4,8.1-1,12.6
			c3.5-2.7,7.4-3.1,10.5-8.9c1.2-2.3,2.1-10.4,3.8-12.7C71.3,166.3,67.6,173.9,66.5,176.7 M60.6,160.7c2.9-5.6,12-10,17.6-12l0,0
			c-8.1,0.7-19.1,5.1-27.9,12.4c6-6.4,15-11.9,26.3-13.9c-7.6,0-11.4,1.2-18.5,4.1c4.4-3.2,10-4.9,15.8-5.6
			c-17.5-1.2-24.4,4.4-30.3,20c6.2-0.4,14.8,2.3,23.5-3.4c4.1-2.7,8.8-7,12.7-10.7l-0.6-1.3C71.7,152.4,63.7,156.8,60.6,160.7
			 M54,140.8c3.8-1.1,10.3,0.7,13.2,2.4c-3.5-3.5-13.1-5.6-17.1-5.9c4.5-0.9,10.9,0.7,14.2,3c-2.1-2.1-4.7-3.9-7.5-5
			c-5.8-2.3-8.4-1.3-14,0.2c3.7,5,8,8,13.7,8c2.9,0,5.6-0.8,8.3,0.2C62.2,141.7,57.2,140.9,54,140.8 M63.7,125.5
			c1,1.4,4.1,4.6,7.5,7.7c-0.6-1.7-1.4-3.3-2-5c-3.7-4.9-6.9-10.3-9.2-15.6c1.3,2.3,3.9,6.2,7.3,10.5c-2-5.7-3.9-11.5-5.5-17.4
			c-3-1.6-5.6-3.2-8-6c-3.8,19.3,0.3,35.2,21,41.8c-0.7-1.5-1.4-3-2-4.5C69,133.6,65.6,129.7,63.7,125.5 M86.3,163
			c-0.8,2-1.5,4-2.2,6.1c0.2-2.4,0.7-4.9,1.4-7.2c-0.5-0.7-0.9-1.5-1.4-2.3c-1.8,3.1-3.5,7.1-5.6,13.5c1-7.2,2.8-12,4.5-15.4
			c-0.5-0.8-0.9-1.6-1.4-2.4c-5.4,5.2-8.7,13.8-8.3,24.1c3.9-2.5,8-4.9,11.9-6.7c1-0.4,1.9-0.8,2.8-1.1c0.6-0.9,1.1-1.9,1.7-2.8
			C88.7,166.9,87.5,165,86.3,163 M163.6,163c0.8,2,1.5,4,2.2,6.1c-0.2-2.4-0.7-4.9-1.4-7.2c0.5-0.7,0.9-1.5,1.4-2.3
			c1.8,3.1,3.5,7.1,5.6,13.5c-1-7.2-2.8-12-4.5-15.4c0.5-0.8,0.9-1.6,1.4-2.4c5.4,5.2,8.7,13.8,8.3,24.1c-3.9-2.5-8-4.9-11.9-6.7
			c-1-0.4-1.9-0.8-2.8-1.1c-0.6-0.9-1.2-1.9-1.7-2.8C161.2,166.9,162.4,165,163.6,163"/>
		<path class="st2" d="M125.1,59c12.8,18.5,35.6,29.1,57.5,31.9h0.2V91c-6.2,30.6-20,62-39.6,86.3l-0.1,0.1H143
			c-1.8-0.1-3.6-0.2-5.4-0.2c-4.2-0.2-8.5-0.5-12.6-0.5c-4.2,0-8.4,0.3-12.6,0.5c-1.8,0.1-3.6,0.2-5.4,0.2h-0.1l-0.1-0.1
			C87.2,153.1,73.3,121.6,67.2,91v-0.2h0.2C89.2,88.1,112,77.5,124.8,59l0.1-0.2L125.1,59z"/>
		<path class="st4" d="M124.9,196.2c29.8-25.8,49.9-66.8,57.6-105.2c-22-2.7-44.8-13.4-57.6-31.9C112.1,77.6,89.3,88.3,67.3,91
			C75.1,129.4,95.2,170.4,124.9,196.2 M124.9,200.1c32.1-26.7,53.6-70.8,61.1-111.6c-23.9-2.2-49.1-14-61.1-34.8
			c-12,20.8-37.3,32.7-61.1,34.8C71.4,129.3,92.9,173.3,124.9,200.1"/>
		<path class="st6" d="M55.5,188.9c-0.2-2-0.4-3.9-0.4-5.8c-0.4,0.2-4.3,3.5-2.8,4.8C53.1,188.6,54.5,188.9,55.5,188.9 M197.6,188
			c1.5-1.4-2.4-4.6-2.8-4.8c-0.1,1.9-0.2,3.8-0.4,5.8C195.3,188.9,196.9,188.6,197.6,188 M143.7,189.8c2.2,1.2,4.4,2.6,6.9,4.2
			c1.9,1.2,3.8,2.8,6,2.7c1.4,0,1.4-0.5,2.5-0.7c0.2-0.1,0.4-0.1,0.6-0.1c-3.7-2.3-7.4-4.6-9.7-5.5
			C146.4,189,144.5,189.4,143.7,189.8 M106.3,189.8c-0.8-0.3-2.7-0.8-6.4,0.6c-2.3,0.9-6,3.1-9.7,5.5c0.2,0,0.4,0,0.6,0.1
			c1,0.2,1,0.7,2.5,0.7c2.3,0.1,4.3-1.5,6-2.7C101.8,192.3,104.1,191,106.3,189.8 M85.5,172.8c4.1-1.8,8.1-2.8,11-1.6
			c1.9,0.8,4.3,3.4,6.6,6.3c2.9-0.1,5.5-0.2,9.3-0.4c4.3-0.2,10.2-0.5,12.6-0.5s8.3,0.2,12.7,0.5c3.8,0.2,6.4,0.3,9.3,0.4
			c2.3-2.9,4.7-5.5,6.6-6.3c2.9-1.2,6.9-0.2,11,1.6c5.7,2.5,11.5,6.4,16.8,9.8c1.9,1.2,9,6.4,12.8,6.3l0.6-9.2
			c2.9,1.7,5.7,4.3,6.2,7.6c0.3,2.1-0.3,3.9-1.7,5.3c-0.1,0.1-0.2,0.2-0.3,0.3c-3.5,3-6.7,6.1-9.5,9.6c-2.5,3.1-3.3,4.1-7.2,4.3
			c-6.3,0.4-13.4-5.1-18.6-8.4l0,0c-0.4,0.7-1.1,1.7-1.9,2.2c-1.4,0.9-2.7,1.8-4,2.7c-2.3,1.5-4.5,3.1-6.5,4.9
			c-3.3,3-6.4,5.7-11.3,4.1c-2.9-1-5-2.7-7.6-3.9c-2.3-1-4.4-1.3-7.4-1.3c-3,0-5.1,0.3-7.4,1.3c-2.7,1.1-4.8,3-7.6,3.9
			c-4.9,1.6-8-1.1-11.3-4.1c-2-1.9-4.3-3.4-6.5-4.9c-1.3-0.9-2.7-1.8-4-2.7c-0.7-0.5-1.5-1.4-1.9-2.2l0,0
			c-5.2,3.4-12.3,8.9-18.6,8.4c-3.9-0.2-4.7-1.3-7.2-4.3c-2.8-3.5-6.1-6.7-9.5-9.6c-0.1-0.1-0.2-0.2-0.3-0.3c-1.3-1.4-2-3.2-1.7-5.3
			c0.5-3.3,3.3-5.9,6.2-7.6l0.6,9.2c3.8,0,10.9-5.1,12.8-6.3C74,179.1,79.7,175.3,85.5,172.8"/>
		<path class="st4" d="M139.9,182.8v2.1h-1.4v-2.1c0-1.2-1-1.9-2.1-1.9s-2.2,0.6-2.2,1.9v2.1h-1.4v-2.1c0-1.2-1-1.9-2.1-1.9
			s-2.1,0.7-2.1,1.9v2.1h-1.4v-2.1c0-1.2-1-2-2.1-2s-2.1,0.8-2.1,2v2.1h-1.4v-2.1c0-1.2-1-1.9-2.1-1.9s-2.1,0.7-2.1,1.9v2.1h-1.4
			v-2.1c0-1.2-1-1.9-2.1-1.9c-1,0-2.1,0.6-2.1,1.9v2.1h-1.4v-2.1c0-1.2-1-1.9-2.1-1.9c-0.6,0-1.2,0.2-1.6,0.6
			c-0.4-0.5-0.7-0.9-1.1-1.4c6.8-0.2,15.9-0.8,19.7-0.8s13,0.5,19.7,0.8c-0.4,0.5-0.7,1-1.1,1.4c-0.4-0.4-1-0.6-1.6-0.6
			C140.9,181,139.9,181.6,139.9,182.8"/>
		<path class="st4" d="M154.5,173.7c5-2.1,16.1,5.4,21.2,8.6c5.1,3.1,12.2,8.3,15.8,9s5.6-0.5,5.8-0.6c-0.2,0.2-5.4,4.6-8.5,8.3
			c-3.1,3.7-3.5,4.8-6.6,5.1c-4.9,0.3-10.2-3.8-15.4-7.1c-5.1-3.3-12-7.7-15.6-9.2c-6.4-2.5-9.5-0.1-9.5-0.1
			C145.2,184.8,151.8,174.9,154.5,173.7"/>
		<path class="st4" d="M95.4,173.7c-5-2.1-16.1,5.4-21.2,8.6c-5.1,3.1-12.2,8.3-15.8,9c-3.5,0.7-5.6-0.5-5.8-0.6
			c0.2,0.2,5.4,4.6,8.5,8.3c3.1,3.7,3.5,4.8,6.6,5.1c4.9,0.3,10.2-3.8,15.4-7.1c5.1-3.3,12-7.7,15.6-9.2c6.4-2.5,9.5-0.1,9.5-0.1
			C104.7,184.8,98.1,174.9,95.4,173.7"/>
		<path class="st4" d="M124.9,204.3c-2.8,0-5.6,0.5-7.1,1c-3.6,1-5.6,3.3-8.9,4.3c-4.5,1.4-7.6-3.1-10.6-5.2c-2.9-2.2-7.2-5-8.3-5.7
			c0.9,0.6,4.2,2,8.8-1.1c9.5-6.4,14.7-9.4,26-9.4s16.5,3.1,26,9.4c4.6,3.1,7.8,1.6,8.8,1.1c-1.1,0.7-5.4,3.5-8.3,5.7
			c-2.9,2.2-6,6.7-10.6,5.2c-3.2-1-5.2-3.3-8.9-4.3C130.6,204.8,127.7,204.3,124.9,204.3"/>
		<path class="st3" d="M174,185.1c-6.6-4-13.4-7.8-17.6-8.9c-1.8-0.4-3.5-0.2-5,0.3c0.3-0.3,0.6-0.6,0.9-0.9
			c0.3-0.2,1.9-1.1,4.4-0.5c4.4,1.1,11.3,5,17.9,9c5.1,3.1,6.4,4.3,11.7,7.1c3.9,2.1,6.4,3,8.4,1.8l-1.6,1.5
			c-2.1,0.6-4.2-0.6-7.3-2.3C180.4,189.4,179.1,188.1,174,185.1 M75.9,185.1c6.6-4,13.4-7.8,17.6-8.9c1.8-0.4,3.5-0.2,5,0.3
			c-0.3-0.3-0.6-0.6-0.9-0.9c-0.3-0.2-1.9-1.1-4.4-0.5c-4.4,1.1-11.3,5-17.9,9c-5.1,3.1-6.4,4.3-11.7,7.1c-3.9,2.1-6.4,3-8.4,1.8
			l1.6,1.5c2.1,0.6,4.2-0.6,7.3-2.3C69.5,189.4,70.9,188.1,75.9,185.1 M105.2,184.4c-6.9-1.9-18,6.3-23.6,9.8c-2.4,1.5-5,3.5-7.9,5
			c-3.3,1.8-6.8,3.6-10.5,2.3l1.2,1.4c4.5,0.9,6.8-1,9.9-2.7c3.4-1.8,5.9-3.8,7.9-5.1c6.5-4.1,15.8-11.3,23.9-9.7
			C105.7,185.1,105.4,184.7,105.2,184.4 M103,197.9c-2.5,1.7-6.2,4.4-9.3,3.2c0.6,0.4,0.9,0.6,1.5,1c2.5,0.9,6.4-2,8.4-3.4
			c7.3-4.9,12.6-7.4,21.3-7.4s14,2.4,21.3,7.4c1.9,1.3,5.9,4.2,8.4,3.4c0.6-0.4,1-0.7,1.5-1c-3.1,1.2-6.8-1.5-9.3-3.2
			c-7.5-5.1-13-7.6-21.9-7.6C116,190.3,110.6,192.8,103,197.9 M124.9,201.3c-5.3,0-10.4,1.7-14.9,4.3c-2.3,1.4-5.2,2.9-8,1.9
			c0.6,0.5,1,0.9,1.7,1.2c2,0.4,5-1.1,6.9-2.2c4.3-2.6,9.1-4.2,14.2-4.2s9.9,1.6,14.2,4.2c1.9,1,4.7,2.6,6.9,2.2
			c0.6-0.4,1.1-0.7,1.7-1.2c-2.8,1-5.6-0.5-8-1.9C135.3,203,130.3,201.3,124.9,201.3 M144.8,184.4c6.9-1.9,18,6.3,23.6,9.8
			c2.4,1.5,5,3.5,7.9,5c3.3,1.8,6.8,3.6,10.5,2.3l-1.2,1.4c-4.5,0.9-6.8-1-9.9-2.7c-3.4-1.8-5.9-3.8-7.9-5.1
			c-6.5-4.1-15.8-11.3-23.9-9.7C144.2,185.1,144.5,184.7,144.8,184.4"/>
		<path class="st6" d="M178.8,196c-0.1,0.2-0.2,0.3-0.3,0.5c-0.1,0.2-0.2,0.2-0.3,0.3c-0.1,0.1-0.2,0.2-0.4,0.2s-0.2,0-0.3-0.1
			c-0.1-0.1-0.2-0.2-0.2-0.2c-0.1-0.2-0.1-0.2-0.1-0.4c0-0.2,0-0.3,0.1-0.5c0.1-0.2,0.2-0.3,0.2-0.5c0.1-0.2,0.2-0.3,0.3-0.4
			c0.1-0.2,0.2-0.2,0.3-0.3c0.2-0.1,0.2-0.2,0.4-0.2c0.2,0,0.3,0,0.4,0.1s0.2,0.2,0.2,0.3c0.1,0.2,0.1,0.2,0.1,0.4
			c0,0.2-0.1,0.3-0.1,0.5C179,195.6,178.9,195.8,178.8,196 M179.5,193.4c-0.3-0.2-0.6-0.3-1-0.3c-0.3-0.1-0.6-0.1-1,0
			c-0.3,0.1-0.6,0.2-0.9,0.4c-0.3,0.2-0.6,0.6-0.7,0.9c-0.2,0.3-0.3,0.6-0.4,1c-0.1,0.6,0.1,1.3,0.5,1.8c0.2,0.2,0.5,0.5,0.8,0.6
			c0.2,0.1,0.4,0.2,0.6,0.2c0.2,0.1,0.5,0.1,0.7,0.1s0.5-0.1,0.7-0.2c0.2-0.1,0.5-0.2,0.7-0.4c0.2-0.2,0.4-0.5,0.6-0.8
			c0.2-0.3,0.3-0.6,0.4-1c0.1-0.3,0.1-0.6,0-1c-0.1-0.3-0.2-0.6-0.4-0.8C180,193.8,179.8,193.5,179.5,193.4 M174.6,194.7
			c-0.1,0-0.2-0.1-0.3-0.1c-0.2-0.1-0.2-0.1-0.3-0.2c-0.2-0.1-0.3-0.3-0.5-0.5c-0.1-0.2-0.2-0.4-0.1-0.6c0-0.2,0.1-0.5,0.2-0.7
			c0.2-0.2,0.3-0.4,0.5-0.5c0.2-0.1,0.4-0.2,0.6-0.2c0.2,0,0.5,0.1,0.6,0.2c0.2,0.1,0.2,0.2,0.3,0.2c0.1,0.1,0.2,0.2,0.2,0.2
			l0.8-0.8c-0.1-0.1-0.2-0.2-0.2-0.2c-0.2-0.2-0.4-0.3-0.6-0.5c-0.3-0.2-0.7-0.4-1.1-0.5c-0.3-0.1-0.7-0.1-1,0
			c-0.3,0.1-0.6,0.2-0.9,0.4c-0.3,0.2-0.6,0.5-0.7,0.7c-0.2,0.3-0.3,0.6-0.4,1c-0.1,0.3-0.1,0.6,0,1s0.2,0.6,0.4,0.9
			c0.2,0.3,0.5,0.6,0.8,0.7c0.2,0.2,0.6,0.3,0.8,0.4c0.1,0.1,0.2,0.1,0.3,0.1L174.6,194.7z M172.5,189.1l-1.4-0.9l-2.7,4.1l1.4,0.9
			L172.5,189.1z M173.4,188c0.1-0.1,0.2-0.2,0.2-0.4c0-0.2,0-0.2-0.1-0.4c-0.2-0.2-0.4-0.4-0.7-0.5c-0.2,0-0.2,0-0.4,0.1
			c-0.2,0.1-0.2,0.2-0.3,0.2c-0.2,0.2-0.2,0.6,0,0.8c0.1,0.2,0.2,0.2,0.3,0.3c0.2,0.1,0.2,0.2,0.4,0.2
			C172.9,188.4,173.2,188.2,173.4,188 M171.3,185.7l-1.4-0.9l-3.8,5.9l1.4,0.9L171.3,185.7z M164,185.8c0.1-0.1,0.2-0.2,0.2-0.2
			c0.1-0.1,0.2-0.2,0.3-0.2c0.2-0.1,0.5-0.1,0.7,0c0.1,0.1,0.2,0.2,0.2,0.2s0.1,0.2,0.1,0.3c0,0.1,0,0.2-0.1,0.3
			c0,0.1-0.1,0.2-0.2,0.3L164,185.8z M165.4,188.6c-0.4-0.1-0.8-0.2-1.2-0.5c-0.2-0.1-0.4-0.2-0.5-0.4c-0.2-0.2-0.2-0.3-0.2-0.5
			s0-0.3,0.1-0.5l2.6,1.5c0.1-0.1,0.1-0.2,0.2-0.2c0.1-0.1,0.2-0.2,0.2-0.3c0.2-0.3,0.3-0.7,0.4-1c0.1-0.3,0.1-0.6,0-0.9
			c-0.1-0.2-0.2-0.6-0.3-0.7c-0.4-0.5-0.9-0.8-1.5-0.9c-0.2-0.1-0.6-0.1-0.8,0c-0.2,0-0.5,0.1-0.7,0.2c-0.2,0.1-0.5,0.2-0.6,0.5
			c-0.2,0.2-0.4,0.4-0.5,0.6c-0.2,0.4-0.4,0.9-0.4,1.3s0.1,0.8,0.3,1.2s0.6,0.7,1,1c0.2,0.1,0.4,0.2,0.6,0.3
			c0.2,0.1,0.4,0.2,0.6,0.2c0.2,0.1,0.3,0.1,0.6,0.2L165.4,188.6z M141.6,202.6c-0.1,0.2-0.2,0.3-0.3,0.5c-0.1,0.2-0.2,0.2-0.3,0.3
			c-0.1,0.1-0.2,0.2-0.4,0.2c-0.2,0-0.2,0-0.3-0.1c-0.1-0.1-0.2-0.2-0.2-0.2c-0.1-0.2-0.1-0.2-0.1-0.4c0-0.2,0.1-0.3,0.1-0.5
			c0.2-0.3,0.3-0.6,0.6-1c0.1-0.2,0.2-0.2,0.3-0.3c0.1-0.1,0.2-0.2,0.4-0.2c0.2,0,0.2,0,0.4,0.1c0.1,0.1,0.2,0.2,0.2,0.3
			c0.1,0.1,0.1,0.2,0.1,0.4c0,0.2-0.1,0.3-0.1,0.5C141.7,202.2,141.7,202.4,141.6,202.6 M142.2,200c-0.3-0.2-0.6-0.3-1-0.3
			c-0.3-0.1-0.6-0.1-1,0s-0.6,0.2-0.9,0.4c-0.3,0.2-0.6,0.6-0.7,0.9c-0.2,0.3-0.3,0.6-0.4,1c-0.1,0.3-0.1,0.6,0,1
			c0.1,0.3,0.2,0.6,0.4,0.8c0.2,0.2,0.5,0.5,0.8,0.6c0.2,0.1,0.4,0.2,0.6,0.2c0.2,0.1,0.5,0.1,0.7,0.1c0.2,0,0.5-0.1,0.7-0.2
			c0.2-0.1,0.5-0.2,0.7-0.4c0.2-0.2,0.4-0.5,0.6-0.8c0.2-0.3,0.3-0.6,0.4-1s0.1-0.6,0-0.9c-0.1-0.3-0.2-0.6-0.4-0.8
			C142.8,200.4,142.5,200.1,142.2,200 M135.6,197l-0.5,1.1l1.8,0.7l0,0l-0.5,0.2c-0.2,0.1-0.3,0.2-0.5,0.2l-2,1.2l-0.3,0.9l3.8,1.5
			l0.5-1.1l-1.9-0.8l0,0c0.3-0.2,0.6-0.3,1-0.6l1.9-1.2l0.4-0.9L135.6,197z M134.3,196.6l-1.5-0.5l-1.4,4.7l1.5,0.5L134.3,196.6z
			 M134.7,195.3c0.1-0.2,0.1-0.3,0-0.4c0-0.2-0.1-0.2-0.2-0.3c-0.1-0.1-0.2-0.2-0.4-0.2c-0.2-0.1-0.3-0.1-0.4,0
			c-0.2,0.1-0.5,0.2-0.6,0.6c-0.1,0.2,0,0.6,0.2,0.7c0.1,0.1,0.2,0.2,0.4,0.2c0.2,0.1,0.3,0.1,0.4,0c0.2,0,0.2-0.1,0.3-0.2
			C134.5,195.6,134.6,195.4,134.7,195.3 M129.1,198.4c0,0.2-0.1,0.2-0.1,0.4c-0.1,0.2-0.2,0.3-0.4,0.3c-0.2,0.1-0.5,0-0.6-0.2
			c-0.2-0.2-0.2-0.3-0.2-0.5c-0.1-0.2-0.1-0.5,0-0.7c0-0.2,0.1-0.3,0.1-0.5c0.1-0.2,0.1-0.3,0.2-0.4c0.1-0.1,0.2-0.2,0.3-0.2
			c0.3-0.2,0.7,0,0.9,0.3c0,0.1,0.1,0.1,0.1,0.2c0,0.2,0.1,0.3,0,0.4L129.1,198.4z M131.2,193.5l-1.6-0.2l-0.2,2.5l0,0
			c-0.1-0.1-0.2-0.2-0.2-0.3c-0.1-0.1-0.2-0.2-0.3-0.2c-0.2-0.1-0.3-0.1-0.5-0.1c-0.2,0-0.6,0-0.8,0.1s-0.5,0.2-0.7,0.4
			c-0.2,0.2-0.4,0.5-0.6,0.7c-0.2,0.3-0.2,0.7-0.2,1c0,0.3,0,0.6,0,1c0.1,0.3,0.2,0.6,0.3,0.8c0.2,0.2,0.3,0.4,0.6,0.6
			c0.2,0.2,0.5,0.2,0.8,0.2c0.4,0,0.7,0,1-0.2c0.2-0.1,0.3-0.2,0.4-0.3l0,0v0.6l1.4,0.2c0-0.5,0.1-1,0.1-1.5L131.2,193.5z
			 M123.5,198.4c0,0.2,0,0.2-0.1,0.4c-0.2,0.2-0.3,0.3-0.6,0.3c-0.1,0-0.2,0-0.2-0.1c-0.1,0-0.2-0.1-0.2-0.2s-0.1-0.2-0.1-0.3
			c0-0.2,0-0.2,0.1-0.3c0.1-0.1,0.2-0.2,0.2-0.2c0.2-0.1,0.2-0.1,0.4-0.2c0.2,0,0.3-0.1,0.5-0.1V198.4z M125,197.1
			c0-0.2,0-0.4-0.1-0.6c-0.1-0.2-0.2-0.4-0.2-0.6c-0.1-0.2-0.2-0.3-0.4-0.5c-0.2-0.2-0.4-0.2-0.6-0.3c-0.3-0.1-0.6-0.1-0.9-0.1
			c-0.5,0-1,0.2-1.4,0.3c-0.2,0.1-0.3,0.2-0.4,0.2l0.3,1c0.2-0.1,0.3-0.2,0.6-0.2c0.2-0.1,0.5-0.1,0.7-0.2c0.2,0,0.3,0,0.5,0.1
			c0.1,0,0.2,0.1,0.2,0.2c0.1,0.1,0.1,0.2,0.1,0.3c-0.3,0-0.7,0.1-1,0.2c-0.3,0.1-0.6,0.2-0.9,0.4c-0.2,0.2-0.4,0.3-0.6,0.6
			c-0.2,0.2-0.2,0.6-0.2,0.9c0,0.2,0.1,0.4,0.2,0.6c0.2,0.3,0.5,0.6,0.9,0.7c0.2,0.1,0.4,0.1,0.6,0.1c0.2,0,0.3,0,0.5-0.1
			s0.3-0.1,0.5-0.2c0.2-0.1,0.2-0.2,0.3-0.3l0,0l0.1,0.5l1.4-0.1c0-0.1-0.1-0.2-0.1-0.3c0-0.1,0-0.2-0.1-0.4c0-0.2,0-0.2,0-0.4
			V197.1z M119.4,195.6c-0.1,0-0.1,0-0.2,0c-0.1,0-0.2,0-0.2,0c-0.2,0-0.3,0.1-0.4,0.2c-0.2,0.1-0.2,0.2-0.3,0.4
			c-0.1,0.2-0.2,0.4-0.2,0.6l0,0l-0.2-0.8l-1.4,0.3c0.1,0.2,0.2,0.4,0.2,0.7c0.1,0.2,0.2,0.6,0.2,0.8l0.7,3.2l1.6-0.4l-0.6-2.4
			c0-0.1,0-0.2-0.1-0.2c0-0.1,0-0.2,0-0.2c0-0.2,0.1-0.2,0.2-0.4c0.1-0.1,0.2-0.2,0.2-0.2c0.1-0.1,0.2-0.2,0.4-0.2
			c0.1,0,0.2,0,0.2-0.1c0.1,0,0.2,0,0.2,0L119.4,195.6z M114.7,200.4c0.1,0.2,0.1,0.2,0,0.4c-0.1,0.3-0.4,0.6-0.7,0.6
			c-0.1,0-0.2-0.1-0.2-0.1c-0.1-0.1-0.2-0.2-0.2-0.2c-0.1-0.1-0.1-0.2,0-0.4c0-0.1,0.1-0.2,0.2-0.3c0.1-0.1,0.2-0.2,0.3-0.2
			c0.2-0.1,0.2-0.2,0.4-0.2L114.7,200.4z M115.7,198.7c-0.1-0.2-0.2-0.4-0.3-0.6c-0.1-0.2-0.2-0.3-0.4-0.5c-0.2-0.2-0.3-0.2-0.6-0.3
			c-0.2-0.1-0.5-0.1-0.7-0.1c-0.3,0-0.6,0.1-0.9,0.2c-0.5,0.2-0.9,0.4-1.3,0.7c-0.2,0.1-0.2,0.2-0.3,0.3l0.6,0.8
			c0.1-0.2,0.2-0.3,0.5-0.4c0.2-0.2,0.4-0.2,0.6-0.3c0.2-0.1,0.3-0.1,0.5-0.1c0.1,0,0.2,0.1,0.3,0.1c0.1,0.1,0.2,0.2,0.2,0.3
			c-0.3,0.2-0.6,0.3-1,0.5c-0.2,0.2-0.5,0.4-0.7,0.6c-0.2,0.2-0.3,0.5-0.3,0.7c-0.1,0.3,0,0.6,0.1,0.9c0.1,0.2,0.2,0.3,0.3,0.5
			c0.2,0.3,0.6,0.5,1,0.5c0.2,0,0.4,0,0.6-0.1c0.2-0.1,0.3-0.2,0.5-0.2s0.2-0.2,0.3-0.3c0.1-0.2,0.2-0.2,0.2-0.4l0,0l0.2,0.4
			l1.4-0.5c-0.1-0.1-0.1-0.2-0.2-0.3c-0.1-0.2-0.2-0.5-0.3-0.7L115.7,198.7z M107.1,199.7c0.1-0.1,0.1-0.1,0.2-0.2
			c0.1-0.1,0.2-0.1,0.2-0.2c0.2-0.1,0.4-0.2,0.6-0.2c0.2,0,0.3,0,0.5,0.1s0.2,0.2,0.4,0.4c0.1,0.2,0.2,0.3,0.2,0.6
			c0,0.2-0.1,0.3-0.2,0.5c-0.2,0.2-0.3,0.3-0.5,0.4c-0.1,0-0.2,0.1-0.2,0.1c-0.1,0-0.1,0.1-0.2,0.1L107.1,199.7z M108.4,205.3
			l1.4-0.8l-1.1-2.1l0.2-0.1c0.1,0,0.2-0.1,0.2-0.1c0.2-0.1,0.3-0.2,0.5-0.3c0.2-0.2,0.3-0.2,0.5-0.4c0.2-0.2,0.2-0.3,0.4-0.5
			c0.2-0.4,0.3-0.9,0.2-1.3c-0.1-0.2-0.2-0.6-0.3-0.8c-0.1-0.2-0.2-0.3-0.4-0.5c-0.2-0.2-0.3-0.2-0.5-0.3c-0.2-0.1-0.3-0.2-0.6-0.2
			c-0.3-0.1-0.6,0-1,0.1c-0.4,0.1-0.8,0.3-1.1,0.5c-0.3,0.2-0.6,0.4-1,0.6c-0.2,0.2-0.5,0.3-0.6,0.5L108.4,205.3z M94.5,182
			c0.1,0.2,0.2,0.3,0.2,0.6c0,0.2,0.1,0.3,0,0.5c0,0.2-0.1,0.2-0.1,0.4c-0.2,0.2-0.4,0.3-0.6,0.2c-0.2,0-0.2-0.1-0.3-0.2
			c-0.1-0.1-0.2-0.2-0.3-0.4c-0.2-0.3-0.3-0.6-0.4-1c0-0.2-0.1-0.3-0.1-0.5c0-0.2,0-0.2,0.1-0.4c0.1-0.1,0.2-0.2,0.3-0.2
			c0.2-0.1,0.2-0.1,0.3,0c0.2,0.1,0.2,0.2,0.3,0.2c0.1,0.1,0.2,0.2,0.3,0.4C94.4,181.6,94.5,181.8,94.5,182 M93,179.9
			c-0.3,0.1-0.6,0.2-0.8,0.5c-0.2,0.2-0.4,0.5-0.5,0.7c-0.2,0.3-0.2,0.6-0.2,1c0,0.4,0.1,0.7,0.2,1.1s0.3,0.6,0.6,1
			c0.2,0.2,0.4,0.4,0.7,0.6c0.2,0.2,0.6,0.2,0.9,0.2c0.6,0,1-0.2,1.5-0.5c0.4-0.2,0.6-0.6,0.8-1.1c0.1-0.2,0.1-0.5,0.1-0.8
			s-0.1-0.6-0.2-1c-0.1-0.3-0.3-0.6-0.5-0.9c-0.2-0.2-0.4-0.4-0.7-0.6c-0.2-0.2-0.6-0.2-0.9-0.2C93.6,179.7,93.3,179.7,93,179.9
			 M90.6,183.1c-0.2-0.3-0.4-0.6-0.6-0.9c-0.2-0.2-0.5-0.3-0.8-0.3c-0.3,0-0.6,0.1-0.9,0.2c-0.2,0.2-0.5,0.3-0.6,0.6
			c-0.1,0.1-0.1,0.2-0.2,0.3c0,0.1-0.1,0.2-0.1,0.3l0,0l-0.4-0.5l-1.1,0.6l0.4,0.6c0.2,0.2,0.2,0.5,0.4,0.7l1.6,2.9l1.4-0.7
			l-1.4-2.5c-0.1-0.2-0.2-0.3-0.2-0.5c0-0.2,0.1-0.5,0.3-0.6c0.2-0.1,0.2-0.1,0.3-0.1c0.2,0,0.2,0.1,0.3,0.2
			c0.1,0.1,0.2,0.2,0.2,0.4l1.4,2.5l1.4-0.7L90.6,183.1z M85.3,187.7c0.2,0.2,0.2,0.5,0,0.7c-0.1,0.1-0.2,0.2-0.2,0.2
			c-0.1,0.1-0.2,0.1-0.2,0.1c-0.1,0-0.2,0-0.2-0.1c-0.1-0.1-0.2-0.2-0.2-0.2c-0.2-0.2-0.2-0.5,0-0.6c0.1-0.1,0.2-0.2,0.2-0.3
			c0.1-0.1,0.2-0.2,0.3-0.2L85.3,187.7z M86,185.9c-0.1-0.2-0.2-0.3-0.4-0.5c-0.2-0.2-0.3-0.3-0.5-0.4c-0.2-0.1-0.3-0.2-0.6-0.2
			c-0.2,0-0.4,0-0.6,0c-0.2,0.1-0.6,0.2-0.8,0.3c-0.4,0.2-0.7,0.6-1,1c-0.1,0.1-0.2,0.2-0.2,0.4l0.7,0.7c0.2-0.4,0.5-0.7,0.9-0.9
			c0.2-0.1,0.3-0.2,0.5-0.2c0.1,0,0.2,0,0.3,0.1s0.2,0.2,0.2,0.2c-0.3,0.2-0.6,0.4-0.8,0.6c-0.2,0.2-0.4,0.5-0.6,0.7
			c-0.1,0.2-0.2,0.5-0.2,0.8s0.1,0.6,0.2,0.8c0.1,0.2,0.2,0.3,0.4,0.4s0.3,0.2,0.5,0.2c0.4,0.1,0.8,0,1.1-0.2
			c0.2-0.2,0.5-0.4,0.6-0.7c0.1-0.2,0.1-0.3,0.2-0.5l0,0l0.3,0.3l1.1-0.7c-0.1-0.1-0.2-0.2-0.2-0.2c-0.1-0.1-0.2-0.2-0.2-0.3
			c-0.1-0.1-0.2-0.2-0.2-0.3L86,185.9z M78.7,188.1l-0.5,0.3l0.6,1l0.5-0.3l1,1.7c0.1,0.1,0.1,0.2,0.2,0.2c0.1,0.1,0.2,0.2,0.2,0.3
			c0.1,0.1,0.2,0.2,0.3,0.2c0.2,0.1,0.2,0.2,0.4,0.2s0.3,0,0.5,0s0.4-0.2,0.6-0.2s0.3-0.2,0.5-0.3s0.2-0.2,0.3-0.2l-0.6-1
			c-0.1,0.1-0.1,0.1-0.2,0.2c-0.1,0.1-0.1,0.1-0.2,0.1c-0.1,0.1-0.2,0.1-0.3,0.1c-0.1,0-0.2-0.1-0.3-0.1c-0.1-0.1-0.2-0.2-0.3-0.3
			l-1-1.5l0.9-0.6l-0.6-1l-0.9,0.6l-0.7-1.1l-1,1.1L78.7,188.1z M77.3,189l-1.3,0.8l2.7,4.1l1.3-0.8L77.3,189z M76.6,187.9
			c-0.1-0.1-0.2-0.2-0.3-0.3c-0.2-0.2-0.6-0.1-0.8,0.1c-0.2,0.2-0.4,0.4-0.4,0.7c0,0.2,0.1,0.2,0.2,0.4c0.1,0.1,0.2,0.2,0.3,0.2
			c0.1,0.1,0.2,0.1,0.4,0.1c0.3,0,0.6-0.2,0.6-0.4c0.1-0.1,0.1-0.2,0.1-0.4C76.7,188.1,76.6,188,76.6,187.9 M74.2,191.1l0.8,2.1
			c0.1,0.2,0.1,0.2,0.2,0.4s0.1,0.2,0.2,0.4c0.1,0.2,0.1,0.2,0.2,0.4l0,0c-0.3-0.3-0.6-0.6-0.9-1l-1.6-1.5l-1.4,0.9l4,3.2l1.2-0.8
			l-1.4-5L74.2,191.1z M71.2,193.1l-1.3,0.8l2.5,4.2l1.3-0.8L71.2,193.1z M70.5,191.9c-0.1-0.2-0.2-0.2-0.3-0.3
			c-0.1-0.1-0.2-0.1-0.4-0.1c-0.2,0-0.2,0.1-0.4,0.2c-0.2,0.1-0.2,0.2-0.3,0.3c-0.1,0.1-0.1,0.2-0.1,0.4c0,0.2,0.1,0.2,0.2,0.4
			c0.2,0.2,0.4,0.4,0.6,0.4c0.2,0,0.2-0.1,0.4-0.2c0.1-0.1,0.2-0.2,0.3-0.3c0.1-0.1,0.1-0.2,0.1-0.4C70.6,192.2,70.5,192,70.5,191.9
			 M70.8,197.5c-0.1,0.1-0.2,0.2-0.2,0.2c-0.2,0.2-0.4,0.2-0.6,0.4c-0.3,0.2-0.6,0.2-1,0.2c-0.3,0-0.6-0.2-0.9-0.4
			c-0.2-0.2-0.5-0.6-0.7-1c-0.2-0.3-0.2-0.6-0.3-1c0-0.3,0-0.6,0.1-0.8c0.1-0.2,0.2-0.4,0.3-0.6c0.2-0.2,0.3-0.3,0.6-0.4
			c0.3-0.2,0.6-0.2,1-0.2l-0.3-1.2c-0.1,0-0.2,0-0.3,0c-0.3,0.1-0.7,0.2-1,0.3c-0.3,0.2-0.6,0.3-0.8,0.6c-0.5,0.5-0.9,1-1,1.7
			c-0.1,0.4-0.1,0.7,0,1.1c0.1,0.4,0.2,0.9,0.4,1.2s0.3,0.6,0.6,0.9c0.2,0.2,0.5,0.5,0.7,0.6c0.2,0.2,0.6,0.3,0.9,0.4
			c0.3,0.1,0.6,0.1,1,0c0.3-0.1,0.7-0.2,1.1-0.3c0.2-0.1,0.4-0.2,0.6-0.3c0.2-0.1,0.3-0.2,0.4-0.3c0.1-0.1,0.2-0.2,0.2-0.2
			L70.8,197.5z M176.7,189.8l0.1,1v0.4l-0.3-0.2l-0.4-0.2l-0.1-0.1v-0.1v-0.4l-0.4,0.2h-0.1l-0.1-0.1l-0.4-0.2l-0.3-0.2l0.3-0.2
			l1-0.4h0.1l0.1,0.1l0.4,0.3L176.7,189.8L176.7,189.8z M158.4,186.1l1.2-2.4l1.9,1l0.6-1.1l-1.9-1l0.7-1.4l2.1,1l0.6-1.1l-3.5-1.9
			l-3.1,6L158.4,186.1z"/>
		<path class="st6" d="M175.1,99.7h-6.6c-0.2,0-0.4,0-0.6,0.1c-0.2,0.1-0.2,0.2-0.3,0.2c-0.1,0.2-0.2,0.3-0.2,0.6l-0.6,1.9
			c0.2-0.1,0.3-0.2,0.4-0.2c0.2-0.1,0.3-0.2,0.5-0.2c0.2-0.1,0.4-0.1,0.7-0.1h3.1v0.7c0,0.4,0,0.8-0.2,1.1c-0.1,0.3-0.3,0.6-0.6,0.9
			s-0.6,0.4-1.1,0.6s-1.1,0.2-1.9,0.2c-3,0-4.4-1.4-4.4-4.3c0-1,0.2-1.9,0.6-2.6s1-1.3,1.7-1.6c0.7-0.4,1.6-0.6,2.7-0.6
			c0.5,0,1,0,1.4,0.1c0.5,0.1,0.9,0.2,1.4,0.3c0.4,0.2,0.8,0.2,1.1,0.4c0.3,0.2,0.6,0.3,0.8,0.6l1-3.3c-0.3,0.1-0.7,0.1-1,0.1
			c-0.3,0-0.6,0-0.9-0.1c-0.3-0.1-0.7-0.1-1.1-0.2c-0.4-0.1-0.9-0.1-1.4-0.2c-0.5-0.1-1-0.1-1.5-0.1c-1.2,0-2.3,0.2-3.2,0.4
			c-1,0.2-1.8,0.6-2.4,1.1c-0.6,0.4-1,0.9-1.4,1.4c-0.4,0.6-0.7,1.2-0.9,1.9c-0.2,0.6-0.3,1.4-0.3,2.1c0,1,0.2,2,0.6,2.8
			c0.3,0.8,0.9,1.5,1.5,2.2c0.7,0.6,1.4,1,2.3,1.4c1,0.3,1.9,0.5,3,0.5c1.4,0,2.7-0.2,3.9-0.5l1.4-0.3c0.4-0.1,0.7-0.2,1-0.2
			c0.2,0,0.3,0,0.5,0.1c0.2,0.1,0.3,0.1,0.5,0.2v-6.4c0-0.2,0-0.3,0-0.4c0-0.1,0.1-0.2,0.1-0.3C175,99.9,175,99.8,175.1,99.7
			 M158.7,94.3h-5.3c0.2,0.2,0.5,0.3,0.7,0.6c0.2,0.2,0.3,0.5,0.4,0.8s0.2,0.7,0.2,1.2v8l-5.1-9.9c0-0.1-0.1-0.1-0.1-0.2
			c0-0.1,0-0.2,0-0.2c0-0.1,0-0.2,0.1-0.2l0.1-0.1H143c0.2,0.1,0.4,0.2,0.6,0.4c0.2,0.2,0.2,0.3,0.4,0.5c0.1,0.2,0.2,0.4,0.2,0.7
			c0.1,0.2,0.1,0.6,0.1,1v8.1c0,0.4,0,0.7-0.1,1c0,0.2-0.1,0.5-0.2,0.7c-0.1,0.2-0.2,0.3-0.4,0.5c-0.2,0.2-0.3,0.2-0.6,0.4h5.2
			c-0.2-0.1-0.3-0.2-0.5-0.4c-0.2-0.2-0.2-0.3-0.3-0.5c-0.1-0.2-0.2-0.5-0.2-0.6c-0.1-0.3-0.1-0.7-0.1-1v-8.5l5.4,10.3
			c0,0,0.1,0.1,0.1,0.2l0.1,0.2c0,0.1,0,0.1,0.1,0.2c0,0.1,0,0.2-0.1,0.2c0,0.1-0.1,0.1-0.2,0.2h5.3c-0.1-0.1-0.2-0.2-0.2-0.2
			c-0.1-0.1-0.1-0.2-0.1-0.3V96.9c0-0.5,0.1-1,0.2-1.3c0.1-0.3,0.2-0.6,0.4-0.8C158.1,94.7,158.4,94.5,158.7,94.3 M136.3,102.5h-5.5
			l2.8-6.1L136.3,102.5z M142.2,107.6c-0.2-0.2-0.4-0.6-0.6-1c-0.2-0.4-0.5-0.9-0.7-1.4l-4.6-10.1c0-0.1-0.1-0.1-0.1-0.2
			c0-0.1-0.1-0.2-0.1-0.2c0-0.1,0-0.2,0.1-0.2c0-0.1,0.1-0.1,0.2-0.2h-5.2l0.1,0.1c0,0.1,0.1,0.2,0.1,0.2c0,0.1,0,0.2-0.1,0.2
			c0,0.1-0.1,0.1-0.1,0.2l-5.2,10.9c0,0.1-0.1,0.2-0.2,0.3c-0.1,0.2-0.2,0.4-0.3,0.6c-0.2,0.3-0.4,0.6-0.6,0.8h5
			c-0.1-0.1-0.2-0.2-0.3-0.3c-0.1-0.1-0.2-0.2-0.2-0.4s-0.1-0.3-0.1-0.6c0-0.2,0-0.4,0.1-0.6s0.2-0.3,0.2-0.6l0.2-0.4h7.6l0.3,0.7
			c0.1,0.2,0.1,0.2,0.2,0.4c0.1,0.2,0.1,0.3,0.1,0.5c0,0.2,0,0.4-0.1,0.5c0,0.2-0.1,0.2-0.2,0.4c-0.1,0.1-0.2,0.2-0.2,0.3
			C137.2,107.6,142.2,107.6,142.2,107.6z M127.8,94.3h-5.3c0.2,0.1,0.3,0.2,0.4,0.3c0.1,0.2,0.2,0.3,0.2,0.6c0,0.2-0.1,0.4-0.2,0.6
			c-0.1,0.2-0.2,0.3-0.3,0.5l-3,4.4l-3-4.4c-0.2-0.2-0.2-0.4-0.3-0.6s-0.1-0.3-0.2-0.6c0-0.2,0.1-0.3,0.2-0.5s0.2-0.2,0.4-0.3h-5.8
			c0.6,0.3,1,0.7,1.4,1.2c0.2,0.2,0.4,0.5,0.6,0.8l4.9,6.8v1.8c0,0.3,0,0.6-0.1,1c-0.1,0.2-0.1,0.5-0.2,0.7
			c-0.1,0.2-0.2,0.3-0.4,0.5c-0.2,0.2-0.3,0.2-0.6,0.4h5.6c-0.2-0.1-0.4-0.2-0.6-0.4c-0.2-0.2-0.3-0.3-0.4-0.5
			c-0.1-0.2-0.2-0.4-0.2-0.7c-0.1-0.3-0.1-0.6-0.1-1v-1.7l5.1-7.1c0.2-0.2,0.3-0.4,0.5-0.6C127,95.1,127.3,94.7,127.8,94.3
			 M110.4,94.3h-5.3c0.2,0.2,0.5,0.3,0.7,0.6c0.2,0.2,0.3,0.5,0.4,0.8c0.1,0.4,0.2,0.8,0.2,1.2v8l-5.1-9.9c0-0.1-0.1-0.1-0.1-0.2
			c0-0.1,0-0.2,0-0.2c0-0.1,0.1-0.2,0.2-0.2h-6.6c0.2,0.1,0.4,0.2,0.6,0.4s0.2,0.3,0.4,0.5c0.1,0.2,0.2,0.4,0.2,0.7
			c0.1,0.2,0.1,0.6,0.1,1v8.1c0,0.4,0,0.7-0.1,1c0,0.2-0.1,0.5-0.2,0.7c-0.1,0.2-0.2,0.3-0.4,0.5s-0.3,0.2-0.6,0.4h5.2
			c-0.2-0.1-0.3-0.2-0.5-0.4s-0.2-0.3-0.3-0.5c-0.1-0.2-0.2-0.5-0.2-0.6c-0.1-0.3-0.1-0.7-0.1-1v-8.5l5.4,10.3c0,0,0,0.1,0.1,0.2
			c0,0.1,0.1,0.1,0.1,0.2c0,0.1,0.1,0.1,0.1,0.2c0,0.1,0,0.2-0.1,0.2c0,0.1-0.1,0.1-0.2,0.2h5.3c-0.1-0.1-0.2-0.2-0.2-0.2
			c-0.1-0.1-0.1-0.2-0.1-0.3V96.9c0-0.5,0.1-1,0.2-1.3c0.1-0.3,0.2-0.6,0.4-0.8C110,94.7,110.2,94.5,110.4,94.3 M88.1,102.5h-5.5
			l2.8-6.1L88.1,102.5z M93.9,107.6c-0.2-0.2-0.4-0.6-0.6-1c-0.2-0.5-0.6-1-0.7-1.4L88,95.1c-0.1-0.2-0.1-0.3-0.1-0.4
			c0-0.1,0-0.2,0.1-0.2c0.1-0.1,0.1-0.1,0.2-0.2h-5.2l0.1,0.1c0,0.1,0.1,0.2,0.1,0.2c0,0.1,0,0.2-0.1,0.2c0,0.1-0.1,0.1-0.1,0.2
			l-5.2,10.9c-0.2,0.3-0.2,0.6-0.5,0.9c-0.2,0.3-0.4,0.6-0.6,0.8h5c-0.1-0.1-0.2-0.2-0.3-0.3c-0.1-0.1-0.2-0.2-0.2-0.4
			c-0.1-0.2-0.1-0.3-0.1-0.6c0-0.2,0-0.4,0.1-0.6c0.1-0.2,0.1-0.3,0.2-0.6l0.2-0.4H89l0.3,0.7c0.1,0.2,0.1,0.2,0.2,0.4
			c0,0.2,0.1,0.3,0.1,0.5c0,0.2,0,0.4-0.1,0.5c0,0.2-0.1,0.2-0.2,0.4c-0.1,0.1-0.2,0.2-0.2,0.3C89,107.6,93.9,107.6,93.9,107.6z"/>
		<path class="st3" d="M139,155.9c4-1.4,8-3.5,11.5-6.1c-2.4,8.5-9.1,15.2-17.6,17.6C135.5,163.9,137.6,159.9,139,155.9
			 M101.2,149.8c3.5,2.6,7.5,4.7,11.5,6.1c1.4,4,3.5,8,6.1,11.5C110.4,165,103.7,158.3,101.2,149.8 M112.7,129.7
			c-4,1.4-8,3.5-11.5,6.1c2.4-8.5,9.1-15.2,17.6-17.6C116.2,121.7,114.1,125.6,112.7,129.7 M150.5,135.8c-3.5-2.6-7.5-4.7-11.5-6.1
			c-1.4-4-3.5-8-6.1-11.5C141.4,120.6,148.1,127.2,150.5,135.8 M152.9,146.2L152.9,146.2c0.2-1,0.2-2.1,0.2-3.1v-0.1v-0.1v-0.1v-0.1
			c0-1-0.1-2.1-0.2-3.1l0,0c-1.5-12.4-11.3-22.2-23.7-23.7l0,0c-1-0.2-2.1-0.2-3.1-0.2H126H126h-0.1h-0.1c-1,0-2.1,0.1-3.1,0.2l0,0
			c-12.4,1.5-22.2,11.3-23.7,23.7l0,0c-0.2,1-0.2,2.1-0.2,3.1v0.1v0.1v0.1v0.1c0,1,0.1,2.1,0.2,3.1l0,0
			c1.5,12.4,11.3,22.2,23.7,23.7l0,0c1,0.2,2.1,0.2,3.1,0.2h0.3c1,0,2.2-0.1,3.1-0.2l0,0C141.6,168.4,151.5,158.5,152.9,146.2
			 M111,149.1c-3.3-1.5-6.8-3.9-9.5-6.4l0,0l0,0c2.7-2.4,6.2-4.8,9.5-6.4l0,0c-0.3,2.1-0.5,4.2-0.5,6.4
			C110.5,144.6,110.6,146.8,111,149.1L111,149.1z M140.7,136.4c3.3,1.5,6.8,3.9,9.5,6.4l0,0l0,0c-2.7,2.4-6.2,4.8-9.5,6.4l0,0
			c0.3-2.3,0.5-4.5,0.5-6.4C141.2,140.9,141.1,138.7,140.7,136.4L140.7,136.4z M132.2,157.7c-1.5,3.3-3.9,6.8-6.4,9.5l0,0l0,0
			c-2.4-2.7-4.8-6.2-6.4-9.5l0,0c2.1,0.3,4.2,0.5,6.4,0.5C127.7,158.1,129.9,158,132.2,157.7L132.2,157.7z M119.5,128
			c1.5-3.3,3.9-6.8,6.4-9.5l0,0l0,0c2.4,2.7,4.8,6.2,6.4,9.5l0,0c-2.1-0.3-4.2-0.5-6.4-0.5C124,127.5,121.9,127.6,119.5,128
			L119.5,128z M116.1,142.8c0-3,0.5-6.8,1-8.6l0,0l0,0c1.9-0.6,5.6-1,8.6-1s6.8,0.5,8.6,1l0,0l0,0c0.6,1.9,1,5.6,1,8.6
			s-0.5,6.8-1,8.6l0,0l0,0c-1.9,0.6-5.6,1-8.6,1s-6.8-0.5-8.6-1l0,0l0,0C116.6,149.5,116.1,145.8,116.1,142.8"/>
		<path class="st1" d="M174.2,98.6h-6.6c-0.2,0-0.4,0-0.6,0.1c-0.2,0.1-0.2,0.2-0.3,0.2c-0.1,0.2-0.2,0.3-0.2,0.6l-0.6,1.9
			c0.2-0.1,0.3-0.2,0.4-0.2c0.2-0.1,0.3-0.2,0.5-0.2c0.2-0.1,0.4-0.1,0.7-0.1h3.1v0.7c0,0.4,0,0.8-0.2,1.2c-0.1,0.3-0.3,0.6-0.6,0.9
			c-0.2,0.2-0.6,0.4-1.1,0.6c-0.5,0.2-1.1,0.2-1.9,0.2c-3,0-4.4-1.4-4.4-4.3c0-1,0.2-1.9,0.6-2.6c0.4-0.7,1-1.3,1.7-1.6
			c0.7-0.4,1.6-0.6,2.7-0.6c0.5,0,1,0,1.4,0.1s0.9,0.2,1.4,0.3c0.4,0.1,0.8,0.2,1.1,0.4c0.3,0.2,0.6,0.3,0.8,0.6l1-3.3
			c-0.3,0.1-0.7,0.1-1,0.1c-0.2,0-0.6,0-0.9-0.1c-0.3-0.1-0.7-0.1-1.1-0.2c-0.4-0.1-0.9-0.1-1.4-0.2c-0.5-0.1-1-0.1-1.5-0.1
			c-1.2,0-2.3,0.2-3.2,0.4c-1,0.2-1.8,0.6-2.4,1.1c-0.6,0.4-1,0.9-1.4,1.5c-0.4,0.6-0.7,1.2-0.9,1.9c-0.2,0.6-0.3,1.4-0.3,2.1
			c0,1,0.2,2,0.6,2.8c0.3,0.8,0.9,1.5,1.5,2.2c0.7,0.6,1.4,1,2.3,1.4c1,0.3,1.9,0.5,3,0.5c1.4,0,2.7-0.2,3.9-0.5l1.4-0.3
			c0.4-0.1,0.7-0.2,1-0.2c0.2,0,0.3,0,0.5,0.1c0.2,0.1,0.3,0.1,0.5,0.2v-6.4c0-0.2,0-0.3,0-0.4c0-0.1,0.1-0.2,0.1-0.3
			C174.1,98.8,174.2,98.7,174.2,98.6 M157.7,93.2h-5.3c0.3,0.2,0.6,0.3,0.7,0.6c0.2,0.2,0.3,0.5,0.4,0.8c0.1,0.3,0.2,0.7,0.2,1.2v8
			l-5.1-9.9c-0.1-0.1-0.1-0.2-0.1-0.3c0-0.1,0-0.2,0.1-0.2c0-0.1,0.1-0.1,0.1-0.1h-6.6c0.2,0.1,0.4,0.2,0.6,0.4
			c0.2,0.2,0.2,0.3,0.4,0.5c0.1,0.2,0.2,0.4,0.2,0.7c0.1,0.2,0.1,0.6,0.1,1v8.1c0,0.4,0,0.7-0.1,1c0,0.2-0.1,0.5-0.2,0.7
			c-0.1,0.2-0.2,0.3-0.4,0.5c-0.2,0.2-0.3,0.2-0.6,0.4h5.2c-0.2-0.1-0.3-0.2-0.5-0.4c-0.2-0.2-0.2-0.3-0.3-0.5
			c-0.1-0.2-0.2-0.5-0.2-0.6c-0.1-0.3-0.1-0.7-0.1-1v-8.5l5.4,10.3l0.1,0.2c0,0.1,0.1,0.1,0.1,0.2c0,0.1,0,0.1,0.1,0.2
			c0,0.1,0,0.2-0.1,0.2c0,0.1-0.1,0.1-0.2,0.2h5.3c-0.1-0.1-0.2-0.2-0.2-0.2c-0.1-0.1-0.1-0.2-0.1-0.3V95.9c0-0.5,0.1-1,0.2-1.3
			c0.1-0.3,0.2-0.6,0.4-0.8S157.5,93.4,157.7,93.2 M135.4,101.3h-5.5l2.8-6.1L135.4,101.3z M141.3,106.5c-0.2-0.2-0.4-0.6-0.6-1
			c-0.2-0.5-0.6-1-0.7-1.4l-4.6-10.1c0-0.1-0.1-0.1-0.1-0.2s-0.1-0.2-0.1-0.2c0-0.1,0-0.2,0.1-0.2c0.1-0.1,0.1-0.1,0.2-0.2h-5.2
			l0.1,0.1c0,0.1,0.1,0.2,0.1,0.2c0,0.1,0,0.2-0.1,0.2c0,0.1-0.1,0.1-0.1,0.2l-5.2,10.9c-0.1,0.3-0.2,0.6-0.5,0.9
			c-0.2,0.3-0.4,0.6-0.6,0.8h5c-0.1-0.1-0.2-0.2-0.3-0.3c-0.1-0.1-0.2-0.2-0.2-0.4c-0.1-0.2-0.1-0.3-0.1-0.6c0-0.2,0-0.4,0.1-0.6
			c0.1-0.2,0.1-0.3,0.2-0.6l0.2-0.4h7.6l0.3,0.7c0.1,0.2,0.1,0.2,0.2,0.4c0.1,0.3,0.1,0.6,0,1c0,0.2-0.1,0.2-0.2,0.4
			c-0.1,0.1-0.2,0.2-0.2,0.3L141.3,106.5z M126.9,93.2h-5.3c0.2,0.1,0.3,0.2,0.4,0.3c0.1,0.2,0.2,0.3,0.2,0.6c0,0.2-0.1,0.4-0.2,0.6
			c-0.1,0.2-0.2,0.3-0.3,0.5l-3,4.4l-3-4.4c-0.2-0.2-0.2-0.4-0.3-0.6s-0.1-0.3-0.2-0.6c0-0.2,0-0.3,0.2-0.5c0.1-0.2,0.2-0.2,0.4-0.3
			H110c0.6,0.3,1,0.7,1.4,1.2c0.2,0.2,0.4,0.5,0.6,0.8l4.9,6.8v1.8c0,0.4,0,0.7-0.1,1c-0.1,0.2-0.1,0.5-0.2,0.7
			c-0.1,0.2-0.2,0.3-0.4,0.5s-0.3,0.2-0.6,0.4h5.6c-0.2-0.1-0.3-0.2-0.5-0.4s-0.3-0.3-0.4-0.5c-0.1-0.2-0.2-0.5-0.2-0.7
			c-0.1-0.3-0.1-0.6-0.1-1v-1.8l5.1-7.1c0.2-0.2,0.3-0.4,0.5-0.6C126,94,126.4,93.6,126.9,93.2 M109.6,93.2h-5.3
			c0.3,0.2,0.6,0.3,0.7,0.6c0.2,0.2,0.3,0.5,0.4,0.8c0.1,0.3,0.2,0.7,0.2,1.2v8l-5.1-9.9c0-0.1-0.1-0.1-0.1-0.2c0-0.1,0-0.2,0-0.2
			c0-0.1,0-0.2,0.1-0.2c0-0.1,0.1-0.1,0.1-0.1h-6.6c0.2,0.1,0.4,0.2,0.6,0.4c0.2,0.2,0.2,0.3,0.4,0.5c0.1,0.2,0.2,0.4,0.2,0.7
			c0.1,0.2,0.1,0.6,0.1,1v8.1c0,0.4,0,0.7-0.1,1c0,0.2-0.1,0.5-0.2,0.7c-0.1,0.2-0.2,0.3-0.4,0.5s-0.3,0.2-0.6,0.4h5.2
			c-0.2-0.2-0.3-0.2-0.5-0.4s-0.2-0.3-0.3-0.5c-0.1-0.2-0.2-0.5-0.2-0.6c-0.1-0.3-0.1-0.7-0.1-1v-8.5l5.4,10.3c0,0,0,0.1,0.1,0.2
			c0,0.1,0.1,0.1,0.1,0.2c0,0.1,0.1,0.1,0.1,0.2c0,0.1,0,0.2-0.1,0.2c0,0.1-0.1,0.1-0.2,0.2h5.3c-0.1-0.1-0.2-0.2-0.2-0.2
			c-0.1-0.1-0.1-0.2-0.1-0.3V95.9c0-0.5,0.1-1,0.2-1.3c0.1-0.3,0.2-0.6,0.4-0.8C109,93.5,109.2,93.4,109.6,93.2 M87.2,101.3h-5.5
			l2.8-6.1L87.2,101.3z M93.1,106.5c-0.2-0.2-0.4-0.6-0.6-1c-0.2-0.5-0.6-1-0.7-1.4l-4.6-10.1c0-0.1-0.1-0.1-0.1-0.2
			s-0.1-0.2-0.1-0.2c0-0.1,0-0.2,0.1-0.2c0.1-0.1,0.1-0.1,0.2-0.2H82l0.1,0.1c0,0.1,0.1,0.2,0.1,0.2c0,0.1,0,0.2-0.1,0.2
			c0,0.1-0.1,0.1-0.1,0.2l-5.2,10.9c-0.2,0.3-0.2,0.6-0.4,0.9c-0.2,0.3-0.4,0.6-0.6,0.8h5c-0.1-0.1-0.2-0.2-0.3-0.3
			c-0.1-0.1-0.2-0.2-0.2-0.4c-0.1-0.2-0.1-0.3-0.1-0.6c0-0.2,0-0.4,0.1-0.6c0.1-0.2,0.1-0.3,0.2-0.6l0.2-0.4h7.6l0.3,0.7
			c0.1,0.2,0.1,0.2,0.2,0.4c0.1,0.3,0.1,0.6,0,1c0,0.2-0.1,0.2-0.2,0.4c-0.1,0.1-0.2,0.2-0.2,0.3C88.2,106.5,93.1,106.5,93.1,106.5z
			"/>
		<path class="st7" d="M138.1,154.8c4-1.4,8-3.5,11.5-6.1c-2.4,8.5-9.1,15.2-17.6,17.6C134.6,162.8,136.7,158.8,138.1,154.8
			 M100.3,148.6c3.5,2.6,7.5,4.7,11.5,6.1c1.4,4,3.5,8,6.1,11.5C109.4,163.9,102.7,157.2,100.3,148.6 M111.8,128.5
			c-4,1.4-8,3.5-11.5,6.1c2.4-8.5,9.1-15.2,17.6-17.6C115.3,120.6,113.3,124.5,111.8,128.5 M149.6,134.6c-3.5-2.6-7.5-4.7-11.5-6.1
			c-1.4-4-3.5-8-6.1-11.5C140.5,119.4,147.2,126.1,149.6,134.6 M152,145L152,145c0.2-1,0.2-2.1,0.2-3.1v-0.1v-0.1v-0.1v-0.1
			c0-1-0.1-2.1-0.2-3.1l0,0c-1.5-12.4-11.3-22.2-23.7-23.7l0,0c-1-0.2-2.1-0.2-3.1-0.2h-0.1H125h-0.1h-0.1c-1,0-2.1,0.1-3.1,0.2l0,0
			c-12.4,1.5-22.2,11.3-23.7,23.7l0,0c-0.2,1-0.2,2.1-0.2,3.1v0.3c0,1,0.1,2.2,0.2,3.1l0,0c1.5,12.4,11.3,22.2,23.7,23.7l0,0
			c1,0.2,2.1,0.2,3.1,0.2h0.3c1,0,2.2-0.1,3.1-0.2l0,0C140.7,167.2,150.5,157.4,152,145 M110.1,148c-3.3-1.5-6.8-3.9-9.5-6.4l0,0
			l0,0c2.7-2.4,6.2-4.8,9.5-6.4l0,0c-0.3,2.1-0.5,4.2-0.5,6.4C109.6,143.5,109.7,145.7,110.1,148L110.1,148z M139.8,135.4
			c3.3,1.5,6.8,3.9,9.5,6.4l0,0l0,0c-2.7,2.4-6.2,4.8-9.5,6.4l0,0c0.3-2.3,0.5-4.5,0.5-6.4C140.3,139.8,140.2,137.6,139.8,135.4
			L139.8,135.4z M131.3,156.5c-1.5,3.3-3.9,6.8-6.4,9.5l0,0l0,0c-2.4-2.7-4.8-6.2-6.4-9.5l0,0c2.1,0.3,4.2,0.5,6.4,0.5
			C126.9,157,129,156.9,131.3,156.5L131.3,156.5z M118.6,126.8c1.5-3.3,3.9-6.8,6.4-9.5l0,0l0,0c2.4,2.7,4.8,6.2,6.4,9.5l0,0
			c-2.1-0.3-4.2-0.5-6.4-0.5C123.1,126.4,120.9,126.4,118.6,126.8L118.6,126.8z M115.3,141.6c0-3,0.5-6.8,1-8.6l0,0l0,0
			c1.9-0.6,5.6-1,8.6-1s6.8,0.5,8.6,1l0,0l0,0c0.6,1.9,1,5.6,1,8.6s-0.5,6.8-1,8.6l0,0l0,0c-1.9,0.6-5.6,1-8.6,1c-3,0-6.8-0.5-8.6-1
			l0,0l0,0C115.7,148.4,115.3,144.7,115.3,141.6"/>
		<path class="st4" d="M124.9,50.1c8,0,14.5,6.5,14.5,14.5c0,8-6.5,14.5-14.5,14.5c-8,0-14.4-6.4-14.5-14.4v-0.1
			C110.5,56.5,116.9,50.1,124.9,50.1"/>
		<path class="st3" d="M134.4,56.7c0-0.2,0-0.5,0-0.6c-1.2-1.3-2.7-2.3-4.3-3.1c-0.2,0-0.4,0.1-0.6,0.2c0.7,0.7,1.5,1.7,1.9,2.6
			C132.6,55.8,133.4,56.2,134.4,56.7 M135.9,70.9c0.9-1.5,1.4-3.2,1.7-5c-0.1-0.2-0.2-0.4-0.3-0.6c-0.5,1-1,1.9-1.9,2.6
			c0.2,1,0.2,2.1-0.1,3.1C135.5,71.1,135.8,71,135.9,70.9 M128,76.5c-1-0.1-2.1-0.4-3.1-0.9c-0.9,0.5-1.9,0.8-3,0.9
			c0.2,0.2,0.3,0.4,0.4,0.6c1.7,0.3,3.5,0.3,5.2,0C127.7,76.9,127.8,76.6,128,76.5 M112.7,65.4c-0.2,0.2-0.2,0.3-0.3,0.6
			c0.2,1.8,0.8,3.5,1.7,5c0.2,0.1,0.4,0.2,0.6,0.2c-0.2-1-0.2-2.1-0.1-3.1C113.7,67.2,113.1,66.3,112.7,65.4 M120.4,53.1
			c-0.2-0.1-0.5-0.2-0.6-0.2c-1.6,0.7-3.1,1.9-4.3,3.1c0,0.2,0,0.4,0,0.6c1-0.5,1.9-0.9,3-1C119,54.7,119.6,53.9,120.4,53.1
			 M122.3,58.9c1.8-0.3,3.6-0.4,5.4,0c0.2-0.5,0.7-1,0.9-1.2c0.2-0.4,0.6-0.8,0.9-1.1c-0.5-0.9-1.2-1.9-2.1-2.5
			c-1.5-0.5-3.1-0.5-4.7,0c-1,0.6-1.6,1.5-2.1,2.5L122.3,58.9z M115.7,59.1c-1,1.5-1.4,2.6-1.4,4.4c0.3,1,1,2,1.8,2.8l2.7-0.9
			c0.2-1.9,0.8-3.6,1.7-5.2l-1.7-2.3C117.6,58.1,116.6,58.5,115.7,59.1 M128.9,65.9c-0.2-1.7-0.6-3.3-1.5-4.7c-1.4-0.4-3.5-0.3-5,0
			c-0.8,1.7-1.4,2.8-1.5,4.7c1.3,1.4,2.3,2.2,4,2.9C126.5,68.1,127.8,67.1,128.9,65.9 M119.4,67.5l-2.7,0.9
			c-0.2,1.1-0.2,2.2,0.2,3.2c1.2,1.4,2,2.1,3.8,2.7c1.1,0,2.2-0.2,3.2-0.8v-2.9C122.2,70,120.6,68.9,119.4,67.5 M131.2,57.9
			c-0.6,0.7-1.1,1.5-1.7,2.3c0.9,1.6,1.5,3.4,1.7,5.2l2.7,0.9c0.8-0.8,1.4-1.8,1.8-2.8c0-1.9-0.5-2.9-1.4-4.4
			C133.3,58.4,132.3,58.1,131.2,57.9 M126,70.8v2.9c1,0.5,2.1,0.8,3.2,0.7c1.8-0.6,2.7-1.2,3.8-2.7c0.4-1.1,0.4-2.1,0.2-3.2
			l-2.7-0.9C129.3,69,127.8,70,126,70.8 M124.9,49.8c8.2,0,14.8,6.6,14.8,14.8s-6.6,14.7-14.8,14.7c-8.1,0-14.7-6.5-14.7-14.6v-0.1
			C110.2,56.4,116.7,49.8,124.9,49.8"/>
	</g>
</g>
<g id="레이어_1">
	<rect x="8" y="8" class="st8" width="234" height="234"/>
</g>
<rect x="8" y="34.8" class="st8" width="234" height="180.4"/>
</svg>
