<?xml version="1.0" encoding="utf-8"?>
<!-- Generator: Adobe Illustrator 25.1.0, SVG Export Plug-In . SVG Version: 6.00 Build 0)  -->
<svg version="1.1" id="Layer_1" xmlns="http://www.w3.org/2000/svg" xmlns:xlink="http://www.w3.org/1999/xlink" x="0px" y="0px"
	 viewBox="0 0 250 250" style="enable-background:new 0 0 250 250;" xml:space="preserve">
<style type="text/css">
	.st0{fill:#231815;}
	.st1{fill:#AC2424;}
	.st2{fill:#FFFFFF;}
	.st3{fill-rule:evenodd;clip-rule:evenodd;fill:#BC7A10;}
	.st4{fill:none;}
</style>
<g id="Layer_1_1_">
	<g>
		<g>
			<path class="st0" d="M191.3,141.3C191.3,141.3,191.3,141.4,191.3,141.3c0.1,0.2,0.2,0.2,0.2,0.2L191.3,141.3z M164.5,176.4
				L164.5,176.4c-11.6,8.7-26,13.8-39.4,13.8l0,0c-13.4,0-27.8-5-39.4-13.7l0,0c-4.4-3.2-7.3-5.6-10.6-8.5c0.8-0.6,1.9-1.4,2.3-1.7
				l0.6-0.3l0.4-0.2c1.1-0.5,2.3-1.1,3.3-1.7c1.4,1.6,2.7,3.1,4.1,4.5c10.1,10.2,22,17.1,35.3,20.6c1.5,0.4,2.7,0.6,4.1,0.6
				c1.3,0,2.5-0.2,4.1-0.6c13.3-3.5,25.2-10.4,35.3-20.6c1.4-1.4,2.8-2.9,4.1-4.5c1,0.6,2.2,1.2,3.3,1.7l0.4,0.2l0.6,0.3
				c0.5,0.3,1.5,1,2.3,1.7C171.9,170.9,169,173.3,164.5,176.4 M198.4,150.8L198.4,150.8c-0.8-1.2-2-2.5-3.3-4.1
				c-0.9-1-1.8-2.1-2.8-3.3c-0.1-0.2-0.2-0.5-0.2-0.6c-0.2-0.5-0.4-1-0.7-1.5c-0.6-1.1-1.7-2.1-3.2-3.1l-0.2-0.1l-0.2-0.1
				c-1-0.5-2-0.6-3-0.6c1-2.3,1.9-4.7,2.8-7.1c4.5-12.8,5.6-27.7,5.6-43c0-8.6-0.4-17.4-0.7-26.1l-0.2-6.1c-0.2-2.9-0.2-5.2-2.1-6.8
				c-1.7-1.6-3.9-1.4-6.5-1.2c0,0-0.6,0.1-0.7,0.1C164.3,48.4,145,41,128.4,34l-0.4-0.2c-0.9-0.4-1.7-0.8-2.9-0.8s-2,0.4-2.9,0.8
				l-0.4,0.2C105.2,40.9,86,48.2,67.3,47.1c-0.1,0-0.7-0.1-0.7-0.1c-2.7-0.2-4.8-0.4-6.5,1.2c-1.8,1.6-1.9,3.9-2.1,6.8l-0.2,6.1
				C57.3,69.9,57,78.7,57,87.3c0,15.3,1.2,30.2,5.6,43c0.9,2.4,1.7,4.8,2.8,7.1c-1,0-2,0.2-3,0.6l-0.2,0.1l-0.2,0.1
				c-1.5,1-2.5,2-3.2,3.1c-0.3,0.5-0.5,1-0.7,1.5c-0.1,0.2-0.2,0.6-0.2,0.6c-1,1.2-1.9,2.2-2.8,3.3c-1.4,1.5-2.5,2.9-3.3,4.1
				c-0.6,1-0.9,2-0.9,2.9c0,0.4,0.1,0.7,0.2,1.1l0,0l0,0c0.6,2.1,1.7,3.3,3.7,4.4h0.1H55c2.7,1.2,6.1,0.5,7.9-1.7
				c0.5-0.5,0.9-1,1.3-1.6c0.1-0.2,0.2-0.2,0.2-0.3c-0.4,0.8-0.6,1.7-0.7,2.7v0.2v0.2c0,0.4,0.1,0.8,0.1,1.2c0,1.6-0.2,3.2-0.5,4.9
				v0.1c-0.5,1.9-0.9,3.3-1.9,5.3c-0.7,1.2-1.4,2.1-2.1,3c-1,1.3-1.7,2.2-2,3.4v0.1v0.1c-0.1,0.6-0.2,1.4-0.2,2.1
				c0,0.6,0.1,1.1,0.2,1.7v0.1v0.1c0.4,1.5,1,3.2,2.2,4.5c7.1,9.5,21.6,20.3,33.9,25.3h0.1c10.5,4.1,20.7,6,31.8,6.2h0.1h0.1
				c11.1-0.2,21.2-2.1,31.8-6.2h0.1c12.2-5,26.7-15.8,33.9-25.3c1.4-1.4,1.9-3,2.2-4.5v-0.1v-0.1c0.1-0.6,0.2-1.1,0.2-1.7
				c0-0.7-0.1-1.4-0.2-2.1v-0.1v-0.1c-0.3-1.2-1-2.2-2-3.4c-0.6-0.8-1.4-1.7-2.1-3c-1-2-1.4-3.4-1.9-5.3v-0.1
				c-0.2-1.7-0.5-3.3-0.5-4.9c0-0.4,0-0.8,0.1-1.2v-0.2v-0.2c-0.2-1.1-0.3-2-0.7-2.7c0.1,0.1,0.2,0.2,0.2,0.3
				c0.4,0.6,0.9,1.2,1.3,1.6c1.7,2.1,5.1,2.9,7.9,1.7h0.1h0.1c2.1-1,3.2-2.3,3.7-4.4l0,0l0,0c0.1-0.4,0.2-0.7,0.2-1.1
				C199.3,152.7,199,151.7,198.4,150.8 M58.8,141.4c0-0.1,0.1-0.1,0.1-0.2c0,0,0-0.1,0.1-0.1L58.8,141.4z"/>
		</g>
		<g>
			<path class="st1" d="M182.3,157.7c-1.5-2.2-4.9,0.2-4.9,0.2c-2.5,2.1-5.6,3.5-5.6,3.5c3.6,1.6,7.1,5.2,7.1,5.2
				c2.5-1.7,3.7-4.9,3.7-4.9C183.4,158.5,182.3,157.7,182.3,157.7"/>
		</g>
		<g>
			<path class="st1" d="M183.7,150.7c-1.3-0.4-2.5-1.4-2.5-1.4c-2.5-3.1,1-6,1-6c0.3-0.6,0.6-0.2,0.6-0.2c1,0.6,2.9,3.5,2.9,3.5
				c1,0.8,1.4-1,1.4-1c0.3-4.3-3.1-4.6-3.1-4.6c-4-0.2-8.9,4.3-8.9,4.3c-5.3,4.7-5.9,11.2-5.9,11.2c-0.2,7.1,5.3,1.9,5.3,1.9
				c3.6-3.9,7-2.9,7-2.9c0.8-1.1,2.8-2.8,2.8-2.8c0.6-0.2,0.6-0.6,0.6-0.6C184.9,151.5,183.7,150.7,183.7,150.7"/>
		</g>
		<g>
			<path class="st1" d="M181.9,147.8c2,1.6,3.6-0.2,3.6-0.2c-0.8-1.5-3-2.9-3-2.9C180.8,146.1,181.9,147.8,181.9,147.8"/>
		</g>
		<g>
			<path class="st1" d="M195,151.8c-3.7-3.2-5.4-6.4-5.4-6.4c-0.5-2.5-1.6-2.4-1.6-2.4c1.3,5.9-4.4,6.5-4.4,6.5
				c0.5,0.7,2.9,2.3,2.9,2.3c1.7,1.4,3.5,3.8,3.5,3.8c2.5,2.5,4.9-0.3,4.9-0.3C196.7,153.3,195,151.8,195,151.8"/>
		</g>
		<g>
			<path d="M194.9,155.4c0,0-2.4,2.7-4.9,0.3c0,0-1.7-2.5-3.5-3.8c0,0-2.4-1.6-2.9-2.3c0,0,5.6-0.6,4.4-6.5c0,0,1.1-0.2,1.6,2.4
				c0,0,1.7,3.2,5.4,6.4C195,151.8,196.7,153.3,194.9,155.4 M185.5,147.6c0,0-1.7,1.8-3.6,0.2c0,0-1.1-1.7,0.6-3.2
				C182.5,144.6,184.8,146.1,185.5,147.6 M184.6,152.7c0,0-2,1.7-2.8,2.8c0,0-3.5-1-7,2.9c0,0-5.4,5.2-5.3-1.9c0,0,0.5-6.5,5.9-11.2
				c0,0,4.9-4.5,8.9-4.3c0,0,3.3,0.3,3.1,4.6c0,0-0.5,1.7-1.4,1c0,0-2.1-2.9-2.9-3.5c0,0-0.3-0.3-0.6,0.2c0,0-3.4,2.9-1,6
				c0,0,1.1,1,2.5,1.4c0,0,1.2,0.8,1.4,1.4C185.2,152.2,185.1,152.5,184.6,152.7 M188.7,176.9c1.3,1.8,0.4,4.3,0.4,4.3
				c-1.7,3.6-6,7.6-6,7.6c-11.7,12.4-27.9,18.7-27.9,18.7c-10.7,4.5-21.2,5.8-30.1,5.9c-8.8-0.1-19.4-1.4-30.1-5.9
				c0,0-16.2-6.3-27.9-18.7c0,0-4.3-4-6-7.6c0,0-1-2.5,0.4-4.3c0,0,6.5-7.6,5.9-12.5c0,0,8,13,31.1,23.6c0,0,11.2,5.4,26.6,5.6l0,0
				c15.3-0.2,26.6-5.6,26.6-5.6c23.1-10.5,31.1-23.6,31.1-23.6C182.1,169.4,188.7,176.9,188.7,176.9 M65.6,152.7
				c-0.6-0.2-0.6-0.6-0.6-0.6c0.2-0.6,1.4-1.4,1.4-1.4c1.3-0.4,2.5-1.4,2.5-1.4c2.5-3.1-1-6-1-6c-0.3-0.6-0.6-0.2-0.6-0.2
				c-1,0.6-2.9,3.5-2.9,3.5c-1,0.8-1.4-1-1.4-1c-0.3-4.3,3.1-4.6,3.1-4.6c4-0.2,8.9,4.3,8.9,4.3c5.3,4.7,5.9,11.2,5.9,11.2
				c0.2,7.1-5.3,1.9-5.3,1.9c-3.6-3.9-7-2.9-7-2.9C67.6,154.4,65.6,152.7,65.6,152.7 M64.6,147.6c0.8-1.5,3-2.9,3-2.9
				c1.7,1.4,0.6,3.2,0.6,3.2C66.2,149.4,64.6,147.6,64.6,147.6 M63.7,151.9c-1.7,1.4-3.5,3.8-3.5,3.8c-2.5,2.5-4.9-0.3-4.9-0.3
				c-1.7-2.1-0.1-3.6-0.1-3.6c3.7-3.2,5.4-6.4,5.4-6.4c0.5-2.5,1.6-2.4,1.6-2.4c-1.3,5.9,4.4,6.5,4.4,6.5
				C66.1,150.2,63.7,151.9,63.7,151.9 M71.3,166.7c-2.5-1.7-3.7-4.9-3.7-4.9c-0.9-3.3,0.2-4.1,0.2-4.1c1.5-2.2,4.9,0.2,4.9,0.2
				c2.5,2.1,5.6,3.5,5.6,3.5C74.9,162.9,71.3,166.7,71.3,166.7 M171.7,161.4c0,0,3.2-1.3,5.6-3.5c0,0,3.4-2.5,4.9-0.2
				c0,0,1.1,0.8,0.2,4.1c0,0-1.2,3.2-3.7,4.9C178.8,166.7,175.3,162.9,171.7,161.4 M196.3,152.1c-1.1-1.7-3.5-4.1-6-7.1
				c-0.4-0.6-0.7-1.8-1.1-2.4c-0.5-0.9-1.4-1.7-2.4-2.3c-1.8-0.8-3.7-0.4-5.6,0.2c-4,1.6-6.8,4.5-9.7,7.4c-0.7,1.4-4,4.9-3.4,11.8
				c0,1.7,4.4,3.5,5.4,4c1.3,0.9,4.7,2.9,4.9,4.4c-4.2,4.1-7.5,6.7-12.4,10.3c-11.5,8.7-26.5,14.2-40.9,14.2
				c-14.4,0-29.4-5.6-41-14.2c-4.9-3.6-8.3-6.2-12.4-10.3c0.3-1.5,3.7-3.5,4.9-4.4c1-0.6,5.4-2.2,5.4-4c0.6-6.9-2.7-10.5-3.4-11.8
				c-2.9-2.9-5.8-5.8-9.7-7.4c-1.8-0.6-3.7-1-5.6-0.2c-1,0.6-1.9,1.4-2.4,2.3c-0.4,0.6-0.6,1.8-1.1,2.4c-2.5,3-4.9,5.4-6,7.1
				c-0.5,0.8-0.6,1.6-0.4,2.2c0.4,1.4,1.1,2.1,2.5,2.8c1.8,0.8,4.1,0.2,5.1-1.1c0.3-0.3,0.9-1,1.1-1.4c0.7-1,1.4-1.7,2.4-1.5
				c1.1,0,2.5,1.5,2.9,2.7c-0.9,0.8-1.1,1.4-1.3,3c0.2,2.3-0.2,4.5-0.5,6.8c-0.6,2.3-1,3.9-2.2,6c-1.8,3-3.5,4.5-3.8,5.8
				c-0.2,1-0.2,2-0.1,2.9c0.3,1.3,0.8,2.5,1.7,3.5c7.2,9.6,21.6,20,32.9,24.6c10.1,3.9,20,5.9,30.9,6l0,0c11-0.2,20.8-2.1,30.9-6
				c11.2-4.6,25.8-15,32.9-24.6c1-1,1.4-2.2,1.7-3.5c0.2-1,0.1-2-0.1-2.9c-0.3-1.4-2-2.8-3.8-5.8c-1.1-2.2-1.7-3.7-2.2-6
				c-0.3-2.3-0.6-4.5-0.5-6.8c-0.2-1.7-0.4-2.2-1.3-3c0.5-1.2,1.7-2.7,2.9-2.7c1-0.2,1.7,0.6,2.4,1.5c0.2,0.4,0.8,1,1.1,1.4
				c1,1.4,3.3,1.9,5.1,1.1c1.4-0.6,2.1-1.4,2.5-2.8C196.9,153.7,196.8,152.9,196.3,152.1"/>
		</g>
		<g>
			<path class="st1" d="M188.7,176.9c0,0-6.5-7.6-5.9-12.5c0,0-8,13-31.1,23.6c0,0-11.2,5.4-26.6,5.6c-15.3-0.2-26.6-5.6-26.6-5.6
				c-23.1-10.5-31.1-23.6-31.1-23.6c0.6,4.9-5.9,12.5-5.9,12.5c-1.3,1.8-0.4,4.3-0.4,4.3c1.7,3.6,6,7.6,6,7.6
				c11.7,12.4,27.9,18.7,27.9,18.7c10.7,4.5,21.2,5.8,30.1,5.9l0,0c8.8-0.1,19.4-1.4,30.1-5.9c0,0,16.2-6.3,27.9-18.7
				c0,0,4.3-4,6-7.6C189,181.2,190,178.7,188.7,176.9"/>
		</g>
		<g>
			<path class="st1" d="M67.9,157.7c1.5-2.2,4.9,0.2,4.9,0.2c2.5,2.1,5.6,3.5,5.6,3.5c-3.6,1.6-7.1,5.2-7.1,5.2
				c-2.5-1.7-3.7-4.9-3.7-4.9C66.8,158.5,67.9,157.7,67.9,157.7"/>
		</g>
		<g>
			<path class="st1" d="M66.5,150.7c1.3-0.4,2.5-1.4,2.5-1.4c2.5-3.1-1-6-1-6c-0.3-0.6-0.6-0.2-0.6-0.2c-1,0.6-2.9,3.5-2.9,3.5
				c-1,0.8-1.4-1-1.4-1c-0.3-4.3,3.1-4.6,3.1-4.6c4-0.2,8.9,4.3,8.9,4.3c5.3,4.7,5.9,11.2,5.9,11.2c0.2,7.1-5.3,1.9-5.3,1.9
				c-3.6-3.9-7-2.9-7-2.9c-0.8-1.1-2.8-2.8-2.8-2.8c-0.6-0.2-0.6-0.6-0.6-0.6C65.3,151.5,66.5,150.7,66.5,150.7"/>
		</g>
		<g>
			<path class="st1" d="M68.2,147.8c-2,1.6-3.6-0.2-3.6-0.2c0.8-1.5,3-2.9,3-2.9C69.3,146.1,68.2,147.8,68.2,147.8"/>
		</g>
		<g>
			<path class="st1" d="M55.2,151.8c3.7-3.2,5.4-6.4,5.4-6.4c0.5-2.5,1.6-2.4,1.6-2.4c-1.3,5.9,4.4,6.5,4.4,6.5
				c-0.5,0.7-2.9,2.3-2.9,2.3c-1.7,1.4-3.5,3.8-3.5,3.8c-2.5,2.5-4.9-0.3-4.9-0.3C53.5,153.3,55.2,151.8,55.2,151.8"/>
		</g>
		<g>
			<path class="st2" d="M72.7,180.7L73,181c0.5,0.5,1,0.6,1.4,0.2c0.3-0.3,0.2-0.6-0.2-1c-0.2-0.2-0.3-0.2-0.4-0.3L72.7,180.7z
				 M70.5,182.3c0.1,0.1,0.2,0.2,0.3,0.3c0.5,0.5,1.1,0.6,1.6,0.2c0.4-0.4,0.2-0.9-0.2-1.3l-0.3-0.2L70.5,182.3z M73.5,178.6
				c0.4,0.2,0.8,0.6,1.2,1c0.5,0.4,0.7,0.8,0.9,1.2c0.2,0.4,0.1,0.9-0.2,1.3c-0.5,0.6-1.2,0.5-1.8,0.2l0,0c0.3,0.5,0.2,1.1-0.2,1.6
				c-0.4,0.5-1,0.6-1.5,0.5c-0.6-0.1-1.2-0.5-1.9-1.1c-0.5-0.5-0.9-0.9-1-1.1L73.5,178.6z"/>
		</g>
		<g>
			<path class="st2" d="M78.1,182.4l-2.6,2.1c-0.2,0.2-0.3,0.3-0.5,0.5c-0.3,0.4-0.3,0.9,0.1,1.2c0.5,0.4,1.1,0.4,2-0.3l2.6-2.2
				l1,0.8l-2.6,2.1c-1.4,1.1-2.5,1.3-3.7,0.3c-1-0.8-1.1-1.7-0.3-2.7c0.2-0.2,0.4-0.4,0.6-0.6l2.5-2.1L78.1,182.4z"/>
		</g>
		<g>
			<path class="st2" d="M80.5,191.5c-0.3-0.1-0.8-0.3-1.4-0.7c-1.3-1-1.5-2.3-0.6-3.5c0.8-1,1.9-1.5,2.9-1.4c0.7,0,1.4,0.3,2.1,0.8
				c0.5,0.4,0.8,0.8,0.9,1l-0.9,0.6c-0.1-0.2-0.3-0.5-0.7-0.8s-0.9-0.5-1.4-0.4c-0.6,0-1.3,0.4-1.7,1c-0.6,0.7-0.5,1.6,0.3,2.1
				c0.3,0.2,0.7,0.4,1,0.5L80.5,191.5z"/>
		</g>
		<g>
			<path class="st2" d="M86.2,188.5l-1.6,1.7l1.7,1.2l1.6-1.7l1,0.7l-4.1,4.2l-1-0.7l1.7-1.8l-1.8-1.1l-1.7,1.8l-1-0.7l4.1-4.2
				L86.2,188.5z"/>
		</g>
		<g>
			<path class="st2" d="M90.3,195l-1.7-1l-1,1.1l2,1.2l-0.7,0.8l-3.1-1.8l3.9-4.5l2.9,1.7l-0.7,0.8l-1.9-1.1l-0.9,1l1.8,1L90.3,195z
				"/>
		</g>
		<g>
			<path class="st2" d="M92.6,198c0.9,0.5,2.1-0.5,2.6-1.4c0.3-0.6,0.4-1.4-0.4-1.8c-1-0.5-2.1,0.5-2.7,1.4
				C91.8,196.9,91.8,197.6,92.6,198L92.6,198z M91.9,198.8c-1.4-0.7-1.6-2.1-1-3.3c0.5-1,1.3-1.7,2.2-2c0.7-0.2,1.5-0.2,2.3,0.2
				c1.4,0.7,1.6,2,1,3.3c-0.5,1-1.3,1.7-2.1,2C93.5,199.3,92.7,199.2,91.9,198.8L91.9,198.8z"/>
		</g>
		<g>
			<path class="st2" d="M95,200.3l3.3-4.9l1.4,0.6l-0.2,2.4c-0.1,0.7-0.2,1.4-0.3,2.1l0,0c0.2-0.6,0.6-1.1,1.1-1.8l1.2-1.7l1.1,0.5
				l-3.3,4.9l-1.2-0.5l0.2-2.5c0.1-0.9,0.2-1.4,0.3-2.1l0,0c-0.2,0.5-0.7,1.2-1.3,2l-1.2,1.7L95,200.3z"/>
		</g>
		<g>
			<path class="st2" d="M106.2,198.5l3.3,1l-0.5,1l-2.1-0.6l-0.6,1.2l1.9,0.6l-0.5,1l-1.9-0.6l-1.1,2.1l-1.2-0.4L106.2,198.5z"/>
		</g>
		<g>
			<path class="st2" d="M110.5,204.7c1,0.2,2-1,2.2-2.1c0.2-0.7,0.1-1.4-0.8-1.7c-1-0.2-2,1-2.3,2.1
				C109.5,203.9,109.7,204.6,110.5,204.7L110.5,204.7z M110.1,205.8c-1.5-0.3-2.1-1.6-1.7-2.9c0.2-1,0.9-1.9,1.7-2.4
				c0.6-0.4,1.4-0.5,2.3-0.3c1.5,0.4,2.1,1.6,1.7,2.9c-0.2,1-0.9,1.9-1.7,2.4C111.7,205.9,110.9,205.9,110.1,205.8L110.1,205.8z"/>
		</g>
		<g>
			<path class="st2" d="M116.4,205.9c1,0.2,1.9-1.1,2.1-2.2c0.1-0.7-0.1-1.4-1-1.6c-1-0.2-1.9,1.1-2.1,2.2
				C115.3,205.1,115.5,205.9,116.4,205.9L116.4,205.9z M116.1,207c-1.5-0.2-2.1-1.4-2-2.8c0.2-1,0.7-2,1.4-2.5
				c0.6-0.5,1.4-0.6,2.2-0.5c1.5,0.2,2.1,1.4,2,2.8c-0.2,1-0.7,2-1.4,2.5C117.8,206.9,117,207.1,116.1,207L116.1,207z"/>
		</g>
		<g>
			<path class="st2" d="M121.6,202.8l-1.5-0.2l0.3-1l4.3,0.3l-0.3,1.1l-1.6-0.2l-1.3,4.7l-1.3-0.1L121.6,202.8z"/>
		</g>
		<g>
			<path class="st2" d="M125.7,204.2h0.4c0.7,0,1.2-0.2,1.2-0.8c0-0.4-0.3-0.6-0.8-0.6c-0.2,0-0.4,0-0.5,0L125.7,204.2z
				 M125.2,206.7c0.2,0,0.3,0,0.5,0c0.6,0,1.3-0.2,1.3-0.9c0-0.6-0.5-0.8-1-0.8h-0.4L125.2,206.7z M124.9,202c0.4-0.1,1-0.2,1.5-0.2
				c0.6,0,1,0.1,1.4,0.3c0.4,0.2,0.6,0.6,0.6,1.1c0,0.7-0.6,1.2-1.2,1.4l0,0c0.6,0.2,0.9,0.6,0.9,1.3c0,0.6-0.3,1.1-0.8,1.4
				c-0.5,0.3-1.3,0.5-2.2,0.5c-0.6,0-1.2-0.1-1.4-0.1L124.9,202z"/>
		</g>
		<g>
			<path class="st2" d="M131.8,205l-0.2-1.3c-0.1-0.3-0.1-0.8-0.2-1.1l0,0c-0.2,0.4-0.2,0.8-0.4,1.2l-0.5,1.3L131.8,205z
				 M130.3,206.1l-0.6,1.6l-1.4,0.1l2.5-6l1.6-0.1l1.1,5.8l-1.4,0.1L132,206L130.3,206.1z"/>
		</g>
		<g>
			<path class="st2" d="M134.5,201.3l1.3-0.2l-0.2,4.9l2.2-0.3l-0.1,1.1l-3.4,0.5L134.5,201.3z"/>
		</g>
		<g>
			<path class="st2" d="M138.3,200.8l1.2-0.2l0.1,4.9l2.2-0.5v1.1l-3.4,0.7L138.3,200.8z"/>
		</g>
		<g>
			<path class="st2" d="M149.7,203.6c-0.2,0.2-0.7,0.5-1.4,0.7c-1.5,0.5-2.7-0.1-3.2-1.6c-0.4-1.3-0.2-2.4,0.5-3.3
				c0.5-0.6,1-1,1.8-1.3c0.6-0.2,1.1-0.2,1.3-0.2v1.1c-0.2,0-0.6,0-1,0.2c-0.5,0.2-0.9,0.5-1.1,0.9c-0.3,0.6-0.5,1.3-0.2,2.1
				c0.3,0.9,1,1.4,2,1c0.4-0.2,0.8-0.3,1-0.6L149.7,203.6z"/>
		</g>
		<g>
			<path class="st2" d="M149.3,197.6l1.1-0.5l0.9,4.8l2.1-0.8l0.2,1.1l-3.3,1.3L149.3,197.6z"/>
		</g>
		<g>
			<path class="st2" d="M153.6,195.8l0.8,3.3c0.1,0.2,0.1,0.4,0.2,0.6c0.2,0.4,0.6,0.6,1.1,0.4c0.6-0.2,0.8-0.9,0.6-1.9l-0.8-3.3
				l1.1-0.6l0.8,3.3c0.4,1.7,0.1,2.9-1.4,3.5c-1.1,0.5-2,0.2-2.5-0.9c-0.1-0.2-0.2-0.5-0.2-0.8l-0.8-3.2L153.6,195.8z"/>
		</g>
		<g>
			<path class="st2" d="M159.9,198.1c0.2-0.1,0.2-0.2,0.4-0.2c0.6-0.3,1-0.9,0.7-1.4c-0.2-0.5-0.8-0.4-1.3-0.2l-0.3,0.2L159.9,198.1
				z M159.1,195.7l0.4-0.2c0.6-0.3,0.9-0.8,0.6-1.3c-0.2-0.4-0.6-0.4-1-0.2c-0.2,0.1-0.3,0.2-0.4,0.2L159.1,195.7z M157.4,194.1
				c0.3-0.2,0.8-0.6,1.3-0.9c0.6-0.3,1-0.4,1.4-0.4c0.4,0,0.9,0.2,1.1,0.6c0.3,0.6,0.1,1.3-0.4,1.7l0,0c0.6-0.1,1.1,0.2,1.4,0.7
				c0.3,0.6,0.2,1.1-0.1,1.6c-0.2,0.6-0.9,1-1.7,1.4c-0.6,0.3-1,0.6-1.4,0.6L157.4,194.1z"/>
		</g>
		<g>
			<path class="st2" d="M164.9,190.8L164.9,190.8l-0.8,1.2l-0.6-1l1.1-1.7l1-0.6l2.5,6.2l-1.2,0.8L164.9,190.8z"/>
		</g>
		<g>
			<path class="st2" d="M169.2,187.3c-0.5,0.3-0.5,1.2-0.1,1.7c0.3,0.4,0.8,0.6,1.1,0.2c0.3-0.2,0.5-0.6,0.5-0.9
				c0-0.1,0-0.2-0.1-0.3c-0.1-0.2-0.2-0.3-0.2-0.5C170.1,187.2,169.7,187,169.2,187.3L169.2,187.3z M169.9,192.4
				c0.2-0.1,0.3-0.2,0.5-0.4c0.3-0.3,0.6-0.6,0.8-1.1c0.2-0.6,0.2-1.1,0.2-1.6l0,0c-0.1,0.5-0.4,0.9-0.7,1.1
				c-0.9,0.6-1.8,0.5-2.5-0.4c-0.9-1.1-0.6-2.9,0.6-3.7c1.2-0.9,2.3-0.5,3.1,0.6c0.9,1.3,1.1,2.8,0.8,3.9c-0.2,0.9-0.8,1.7-1.5,2.2
				c-0.3,0.2-0.5,0.3-0.6,0.5L169.9,192.4z"/>
		</g>
		<g>
			<path class="st2" d="M173.4,184.1c-0.5,0.4-0.4,1.2,0,1.7c0.3,0.4,0.8,0.5,1.1,0.2c0.3-0.2,0.4-0.6,0.4-0.9c0-0.1,0-0.2-0.1-0.3
				c-0.1-0.2-0.2-0.3-0.3-0.5C174.2,183.9,173.8,183.8,173.4,184.1L173.4,184.1z M174.2,189.2c0.2-0.1,0.2-0.2,0.5-0.4
				c0.3-0.3,0.6-0.7,0.7-1.1c0.2-0.6,0.2-1.1,0.1-1.6l0,0c-0.1,0.5-0.3,0.9-0.6,1.2c-0.8,0.6-1.8,0.6-2.5-0.3
				c-0.9-1.1-0.7-2.8,0.4-3.7c1.1-1,2.3-0.6,3.1,0.4c1,1.2,1.2,2.8,1,3.8c-0.2,0.9-0.7,1.7-1.4,2.2c-0.2,0.2-0.4,0.3-0.6,0.5
				L174.2,189.2z"/>
		</g>
		<g>
			<path class="st2" d="M178.9,179.6l-1.7,1.5l0.5,1c0.1-0.1,0.2-0.2,0.2-0.2c0.3-0.2,0.8-0.6,1.3-0.6c0.6-0.1,1.1,0.2,1.5,0.6
				c1.1,1.2,0.6,2.9-0.6,4c-0.6,0.6-1.2,0.8-1.5,0.9l-0.5-1.1c0.3-0.1,0.8-0.3,1.2-0.6c0.6-0.5,0.9-1.3,0.4-1.8
				c-0.4-0.4-1-0.5-1.9,0.3c-0.2,0.2-0.4,0.4-0.6,0.6l-1.6-3.2l2.6-2.3L178.9,179.6z"/>
		</g>
		<g>
			<path class="st1" d="M187.4,55.3c-0.1-1.3-0.2-3.2-0.4-3.4c-0.2-0.2-1.7-0.1-2.9,0c0,0-0.7,0.1-0.8,0.1c-11,0.7-22-1.4-32.5-4.5
				v126.3c3.7-2.6,7.1-5.5,10.3-8.7c9.5-9.6,16.9-21.8,22-36.3c6.7-19.1,5.6-43.6,4.7-67.3L187.4,55.3z"/>
		</g>
		<g>
			<path class="st1" d="M62.8,55.3c0.1-1.3,0.2-3.2,0.4-3.4c0.2-0.2,1.7-0.1,2.9,0c0,0,0.7,0.1,0.8,0.1c11,0.7,22-1.4,32.5-4.5
				v126.3c-3.7-2.6-7.1-5.5-10.3-8.7c-9.5-9.6-16.9-21.8-22-36.3c-6.7-19.1-5.6-43.6-4.7-67.3L62.8,55.3z"/>
		</g>
		<g>
			<path d="M183,128.7c-5.1,14.5-12.5,26.7-22,36.3c-3.2,3.2-6.6,6.1-10.3,8.7V47.4c10.6,3.2,21.6,5.2,32.5,4.5l0.8-0.1
				c1.3-0.1,2.7-0.2,2.9,0s0.4,2.1,0.4,3.4l0.2,6C188.6,85.1,189.7,109.6,183,128.7 M99.5,173.7c-3.7-2.6-7.1-5.5-10.3-8.7
				c-9.5-9.6-16.9-21.8-22-36.3c-6.7-19.1-5.6-43.6-4.7-67.3l0.2-6c0.1-1.3,0.2-3.2,0.4-3.4c0.2-0.2,1.7-0.1,2.9,0
				c0,0,0.7,0.1,0.8,0.1c11,0.7,22-1.4,32.5-4.5L99.5,173.7L99.5,173.7z M190.1,61.3l-0.2-6.1c-0.2-2.6-0.2-4.2-1.3-5.2
				c-1-0.9-2.3-0.8-4.8-0.6l-0.7,0.1c-19.2,1.2-38.8-6.3-55.7-13.4l-0.5-0.2c-0.8-0.4-1.3-0.6-1.8-0.6l0,0c-0.5,0-1,0.2-1.8,0.6
				l-0.5,0.2c-16.9,7.2-36.5,14.6-55.7,13.4l-0.7-0.1c-2.4-0.2-3.7-0.3-4.8,0.6c-1,1-1.1,2.5-1.3,5.2l-0.2,6.1
				c-1,23.9-2.1,48.7,4.8,68.2c5.2,14.9,12.8,27.4,22.6,37.2c9.8,9.9,21.3,16.5,34.2,20c1.4,0.4,2.4,0.6,3.4,0.6l0,0
				c1,0,1.9-0.2,3.4-0.6c12.9-3.3,24.4-10,34.2-20c9.8-9.9,17.3-22.3,22.6-37.2C192,109.9,191,85.2,190.1,61.3"/>
		</g>
		<g>
			<path d="M125.6,101.8v2.9c0.5-0.2,0.9-0.4,1.3-0.6C126.6,103.3,126.1,102.5,125.6,101.8 M130.8,116.5c0.2,0.4,0.3,0.8,0.6,1.2
				c1,1.9,2.3,3.7,3.7,5.1c0-0.4-0.1-0.9-0.2-1.3c-0.4-1.3-1.2-2.5-2.4-3.6C131.9,117.5,131.4,117,130.8,116.5 M127.7,130.3
				c-0.8-0.8-1.5-1.7-2.1-2.7v2.5c0.3,0.2,0.7,0.3,1.3,0.5C127.1,130.5,127.4,130.4,127.7,130.3 M153,92.9c1.7,0.3,3.5,0.8,5.2,1.3
				l0,0c0.3,0.1,0.6,0.2,1,0.3c1.6,0.5,3.7,1.2,5.1,0.9c1.1-0.2,1.7-1.3,1.1-3.9l-0.3-1.4l1.2,0.9l0.2,0.1l0,0
				c0.3,0.2,0.6,0.6,0.9,1c0.2,0.3,0.5,0.7,0.6,1.1c0.8,1.9,0.5,4.1-0.6,5.9l0,0c-0.2,0.2-0.3,0.5-0.6,0.7c-0.2,0.2-0.4,0.5-0.6,0.6
				c-1.1,1-2.5,1.7-3.4,2c-0.4,0.2-0.7,0.3-1,0.6c-0.8,0.6-1.4,1.5-1.7,2.5c-0.3,1-0.3,2.1,0.1,3.2c0.2,0.5,0.4,0.9,0.7,1.3l1.2,1.5
				l-1.7-0.7c-3.7-1.5-4-3.7-4.1-5.6c-0.1-0.9-0.2-1.7-0.8-2.1l0,0l-0.1-0.1c-6-3.6-9.8-5.7-17.1-3.1c1.1,0.9,1.2,1.7,0.6,2.5
				c-0.5,0.7-1.5,1.4-2.7,1.9c1-0.2,1.9-0.2,2.9-0.2l0,0h0.1c1.3-0.1,2.5,0.2,3.7,0.3c1.1,0.2,2.2,0.3,2.9,0.2
				c1-0.1,1.4-0.7,1.3-2.5l-0.2-1.7l1.1,1.3c1.4,1.7,2.1,3.1,2,4.5c-0.1,1.4-0.9,2.9-2.4,4.3c-0.2,0.2-0.2,0.2-0.4,0.4
				c-0.6,0.8-0.8,1.6-0.6,2.5c0.2,1,0.7,1.9,1.6,2.8c0.3,0.3,0.6,0.6,1,0.9l1.6,1.3l-2-0.3c-2-0.3-3.4-0.8-4.5-1.4
				c0,0.2,0,0.4,0,0.6l0,0c0,3-1.5,6-3.9,8.7c1.2,0.6,2.4,1.2,3.7,1.7c1.4,0.6,2.8,1,4.3,1.4c6,1.6,11.7,1.7,16.1-1.9
				c1.4-1.2,2.1-1.6,3.7-3.8c-0.2,1.7-0.7,3.7-1.6,5c-2.7,4.3-7.4,6.8-12.6,7.9c-5.6,1.2-10.2,0.8-15.4-0.6
				c-2.3-0.6-4.5-1.5-6.3-2.5l0,0c-0.2-0.1-0.2-0.2-0.3-0.2c-1.9,1.1-3.9,2.1-5.9,2.7c0.3,1.8,1,3.3,1.9,4.5c1,1.4,2.5,2.6,4.2,4
				l1.3,1l-1.6-0.1h-0.1l0,0c-0.6,0-1.3-0.1-1.9-0.2c-0.6-0.1-1.3-0.2-1.9-0.3c-3-0.6-5.8-1.8-7.3-3.8l-0.1,0.1
				c-0.3,0.5-0.7,0.9-1.2,1.3c-0.5,0.4-1,0.7-1.6,1c-2.6,1.4-6.2,1.9-8.5,2h-1.9l1.6-1c1-0.6,2.1-1.4,3.2-2.8c1-1.3,1.8-2.9,2.4-5.3
				c-2.1-0.7-4.3-1.7-6.5-2.6c-4.1-1.8-8.1-3.7-11.5-3.4c-0.5,0-1,0.1-1.4,0.1c-3.4,0.2-5.5,0.2-8.5,5l-1.1,1.7l0.2-2
				c0.5-6.2,3.7-7.3,6.7-8.4c1.1-0.4,2.2-0.8,3-1.4c1.9-1.7,2.7-3.9,2.9-6.4c0.2-2.4,0-4.9-0.5-7.1c-1-0.2-1.7-0.4-2.5-0.9
				c-0.8-0.5-1.4-1.3-2-2.2l-0.7-1.4l1.4,0.6c3.3,1.5,6.1-0.8,8.8-2.9c2.6-2.1,5-4,7.7-2.7l1.5,0.7l-1.7,0.2c-0.8,0.2-1.4,0.5-2,1
				c-1,1-1.5,2.5-1.7,4.3c-0.2,1.8-0.2,3.9,0.1,5.9c0.5,3,1.5,5.7,2.7,7l0.2,0.2c0,0.2,0,0.3,0,0.5c0.1,1.3-0.6,1.7-1.5,2
				c1.9,0.2,3.7,0.6,5.6,1.2c0.2,0.1,0.5,0.2,0.7,0.2v-10c-1.3,0.8-2.5,1.7-3.5,2.8l-1.4,1.4l0.5-1.9c0.9-3.3,2.5-5.5,4.5-7.2v-12
				c-1,0.3-2.1,0.6-3.3,1l0,0c-2,0.7-4.1,1.6-6.2,2.5c-9.3,3.9-18.8,7.9-22.3,0.2l-0.6-1.4l1.4,0.7c6.7,3.7,13.8-0.6,20.2-4.7
				c3.4-2.1,6.9-4.2,10.8-5.5V90c-1.2-0.2-2.4-0.4-3.6-0.8c-3.8-1.3-8.3-4.1-10.3-9.5L99.7,78l1.4,1.2c7.5,6,14.8,3.7,23,1
				c1.2-0.4,2.4-0.8,3.6-1.1c1-0.3,2.1-0.6,3.3-1c6-1.6,13.4-3.1,19-2.9h0.1c3,0.2,6.8,0.9,8.4,3.8l0.8,1.6l-1.5-0.9
				c-1-0.6-2.4-0.6-3.7-0.3c-1.2,0.3-2.6,1.2-2.9,2.5c-0.2,0.6,0,1.4,0.5,2.1c1.3,2.1,2.4,4.6,1.7,7.1
				C153.3,92.1,153.2,92.5,153,92.9 M133.6,96.6c3.5-3,7.6-4.3,11.8-4.5c1.3-0.1,2.6,0,3.9,0.2c-0.2-1-0.9-2-1.7-2.7
				c-1.4-1.2-3.3-2.1-4.9-2.5l0,0c-1.8-0.5-3.7-0.6-5.6-0.6c-4.7,0.1-9.2,1.4-11.5,2.4v2.1c2.9,1,5,2.9,7.3,4.9L133.6,96.6z"/>
		</g>
		<g>
			<path class="st2" d="M114.6,115.1v11c1.6,0.6,3.3,1.2,4.9,1.8c1.5,0.6,3,1.3,4.5,1.9v-4.4c-0.1-0.2-0.1-0.3-0.2-0.5
				c-0.7-2.5-0.8-5.4-0.3-8.6l0,0l0.1-0.4l0,0l0.1-0.4c0.1-0.6,0.2-1.1,0.3-1.6c-1.1-0.3-2.2-0.5-3.3-0.5c-1,0-2.1,0.2-3.1,0.6
				C116.5,114.2,115.5,114.6,114.6,115.1 M126.1,141.2c-1-1.4-1.7-2.9-2.1-4.9c-1,0.3-1.8,0.6-2.6,0.7c-1,0.2-1.9,0.2-2.9,0.2
				c-1,0-2.1-0.2-3.3-0.4c-0.2-0.1-0.4-0.1-0.6-0.2h-0.1c-0.6,2.5-1.5,4.2-2.5,5.6c-0.6,0.7-1.2,1.4-1.9,2c2-0.2,4.4-0.8,6.2-1.7
				c0.5-0.2,1-0.6,1.4-0.9c0.4-0.3,0.7-0.6,1-1c0.2-0.2,0.3-0.5,0.4-0.7l0.4-1l0.6,1c1.2,2.2,4.1,3.5,7.2,4.1
				c0.6,0.2,1.2,0.2,1.8,0.3h0.2C128,143.4,127,142.3,126.1,141.2 M130.1,131.6c0.6,0.4,1,0.7,1.6,1c1.7,1,3.8,1.7,6,2.4
				c5.1,1.4,9.6,1.7,15,0.6c5.1-1.1,10.1-3.7,12.6-8.4c-5.2,5-11.4,5.1-18.2,3.3c-2.9-0.7-5.6-1.8-8.3-3.2l0,0l0,0
				c-1.5-0.8-3-1.7-4.3-2.8l0,0l0,0c-1.8-1.6-3.6-3.8-4.8-6.2c-0.4-0.9-0.8-1.7-1.1-2.6c-0.7-0.5-1.4-0.8-2-1.1
				c-0.6-0.2-1.1-0.4-1.7-0.6c-0.2,0.8-0.3,1.6-0.5,2.4c-0.5,3.1-0.4,5.8,0.3,8.2C125.6,127.7,127.5,129.8,130.1,131.6 M153.2,79
				c0.9-0.2,1.8-0.3,2.7-0.2c-0.9-0.8-2.1-1.4-3.6-1.7c-0.4-0.1-0.9-0.2-1.4-0.2c-0.5-0.1-1-0.1-1.5-0.2h-0.1
				c-5.6-0.2-12.8,1.3-18.7,2.9c-1.1,0.3-2.1,0.6-3.3,0.9c-1,0.3-1.9,0.6-2.8,0.9h-0.1l-0.7,0.2c-7.9,2.5-15,4.8-22.3-0.1
				c2.1,4,5.7,6.1,8.9,7.2c0.6,0.2,1.4,0.4,2.1,0.6c0.6,0.1,1.2,0.2,1.7,0.2h0.1h0.5V90l0.1,20c2.7-2.1,5.5-3.3,8.4-4.5l0.8-0.3
				V88.4l0.3-0.2c2.1-1,7.1-2.5,12.2-2.6c1,0,2,0,2.9,0.1c1,0.1,2,0.2,2.9,0.5l0,0c1.7,0.4,3.8,1.4,5.2,2.7c0.7,0.6,1.4,1.4,1.7,2.1
				c0.4,0.9,0.5,1.7,0.2,2.7c-0.1,0.3-0.2,0.6-0.3,0.9l0.2-0.1c1.4-0.9,2.1-1.9,2.5-3.1c0.3-1.2,0.2-2.5-0.4-4
				c-0.3-0.8-0.7-1.6-1.2-2.4c-0.6-1-0.8-2-0.6-2.9c0.2-0.8,0.6-1.5,1.4-2.1C151.6,79.6,152.4,79.3,153.2,79 M127.9,131.2
				c-0.5,0.2-1,0.4-1.4,0.6l-0.2,0.1l-0.2-0.1c-2.2-0.9-4.6-1.9-7-2.9c-4.7-1.9-9.5-3.7-14.5-3.7h-2c1.2-0.6,2.2-1.3,3.6-1.7
				c0.9-0.2,1.5-0.4,1.5-1.2c-1.4-1.4-2.4-4.3-2.9-7.4c-0.3-2.1-0.4-4.3-0.1-6.2c0.3-2,1-3.7,2.1-4.9c0.2-0.2,0.5-0.5,0.7-0.6
				c-1.6,0.2-3.3,1.5-5,2.9c-2.5,2-5.2,4.1-8.4,3.5c1,1,2.3,1.4,3.6,1.4l0.1,0.4c0.5,2.4,0.8,5.2,0.6,7.8c-0.3,2.6-1.2,5.2-3.3,7
				c-1,0.8-2.1,1.2-3.3,1.6c-2.3,0.8-4.8,1.6-5.7,5.4c2.7-3.4,4.9-3.5,8.1-3.7c0.4,0,0.9-0.1,1.4-0.1c3.6-0.2,7.8,1.6,11.9,3.5
				c3.8,1.7,7.7,3.5,11.1,3.5h0.1c3.2,0,7.4-1.4,11.4-3.7c-0.2-0.1-0.2-0.2-0.4-0.2c-0.5-0.3-0.9-0.6-1.4-1l0,0l-0.2-0.2V131.2z
				 M113.6,92.7c-3.7,1.3-7,3.3-10.3,5.3c-6.2,3.9-13,8.1-19.7,5.4c3.7,4.9,12,1.4,20.2-2.1c2.1-0.9,4.2-1.7,6.3-2.5l0,0l0,0
				c1.3-0.5,2.5-0.9,3.6-1.1L113.6,92.7z M142.3,117.7L142.3,117.7c0-5.5-7.6-8.6-12.2-10.6l-0.9-0.4l-1.1-0.5l1.1-0.5
				c0.4-0.2,1.1-0.4,2-0.7c2.1-0.7,5.2-1.7,6-2.9c0.2-0.4,0.1-0.9-0.7-1.4c-1.8-1.2-3.3-2.5-4.9-3.9c-2.1-1.8-4.1-3.6-6.6-4.6v7.9
				c1,1,1.7,2.4,2.5,4.1l0.2,0.4l-0.4,0.2c-0.7,0.4-1.4,0.7-2.2,1h-0.1c-0.6,0.3-1.3,0.6-1.9,0.8c-0.4,0.2-0.9,0.3-1.3,0.6
				c-2.5,1.1-4.9,2.3-7.2,4.2l-0.9,0.7l0,0c-1.2,1.2-2.1,2.6-2.9,4.2c2.1-1.7,4.3-2.9,6.4-3.5c1.1-0.3,2.2-0.6,3.4-0.6
				c1.3,0,2.7,0.2,4.1,0.6c1,0.2,1.7,0.5,2.5,0.8c0.7,0.3,1.4,0.7,2.2,1.2l0.2,0.1l0,0c1.1,0.6,2.1,1.4,3,2.3
				c1.3,1.2,2.2,2.6,2.6,4.1c0.2,0.8,0.3,1.6,0.2,2.5c0.6,0.5,1.2,0.9,1.8,1.3c0.5,0.2,0.9,0.6,1.4,0.8
				C140.8,123.3,142.3,120.4,142.3,117.7 M144.6,93.3c-3.9,0.2-7.6,1.3-11,4.1c0.9,0.7,1.7,1.4,2.6,2.1c8.2-3.2,12.1-0.9,18.6,2.9
				l0.1,0.1c1,0.6,1.2,1.7,1.3,2.8c0.2,1.3,0.3,2.8,2.1,3.9v-0.1c-0.5-1.3-0.4-2.6-0.1-3.8c0.4-1.2,1.1-2.3,2-3
				c0.4-0.3,0.9-0.6,1.4-0.7c0.9-0.3,2.1-0.9,3-1.8c0.2-0.2,0.4-0.4,0.6-0.6c0.2-0.2,0.3-0.4,0.5-0.6l0,0l0,0c0.9-1.5,1.2-3.4,0.6-5
				c-0.1-0.2-0.2-0.4-0.3-0.6c0.2,2.1-0.8,3.1-2.1,3.4c-1.7,0.4-3.9-0.3-5.6-0.9c-0.3-0.1-0.6-0.2-1-0.3l0,0c-1.8-0.5-3.7-1-5.5-1.4
				c-0.5,0.6-1,1.1-1.8,1.6c-0.6,0.4-1.3,0.7-2,1l-2,0.7l1.4-1.6c0.6-0.7,1-1.4,1.2-2.1c0-0.1,0-0.1,0-0.2
				C147.2,93.3,145.9,93.2,144.6,93.3 M136.7,105.5c-0.3,0-0.6,0.1-1,0.1c-1.5,0.2-3,0.5-4.5,0.9c4.4,1.8,10.5,4.6,11.8,9.2l0,0
				c1,0.6,2,1,3.1,1.3c-0.9-1-1.4-2-1.6-2.9c-0.2-1.2,0-2.3,0.8-3.3c0.2-0.2,0.3-0.3,0.5-0.6c1.4-1.3,2.1-2.5,2.1-3.7
				c0.1-0.8-0.2-1.7-0.9-2.6c-0.2,1.4-1,1.8-2.1,2c-0.9,0.1-2.1-0.1-3.3-0.2c-0.8-0.2-1.7-0.2-2.5-0.3
				C138.4,105.3,137.6,105.4,136.7,105.5"/>
		</g>
		<g>
			<path class="st2" d="M160.8,67.8h-4.1l-2.9-6.2v4.2c0,0.4,0.2,0.6,0.3,0.7s0.6,0.2,1.1,0.2v1.1h-0.4c-1.1,0-1.8-0.2-2.1-0.5
				c-0.2,0.2-0.4,0.3-0.6,0.4c-0.3,0.1-0.8,0.1-1.5,0.1h-0.5v-1.1c0.3,0,0.5-0.1,0.6-0.1c0.3,0,0.6-0.1,0.6-0.2
				c0.1-0.1,0.2-0.3,0.2-0.7v-3.2l-0.9-0.7l0.9-0.7v-2.5c0-0.4-0.1-0.6-0.3-0.7c-0.2-0.1-0.6-0.2-1.2-0.2v-1.1h4.4l2.7,6.3v-4.3
				c0-0.4-0.1-0.6-0.2-0.7c-0.2-0.2-0.6-0.2-1.3-0.2v-1.1h0.5c0.7,0,1.2,0.1,1.5,0.2c0.2,0.1,0.4,0.2,0.6,0.4
				c0.2-0.2,0.4-0.3,0.6-0.4c0.3-0.1,0.8-0.2,1.5-0.2h0.4v1.1c-0.6,0-1.1,0.1-1.2,0.2c-0.2,0.1-0.2,0.3-0.2,0.7v2.5l0.9,0.7
				l-0.9,0.7v3.2c0,0.4,0.1,0.6,0.2,0.7c0.2,0.1,0.6,0.1,1.2,0.2L160.8,67.8L160.8,67.8z M146.2,64.8c0,0.3,0,0.6-0.1,1
				c-0.1,0.5-0.5,0.7-1.1,0.7c-0.6,0-1-0.2-1.1-0.7c0-0.2,0-0.5,0-1v-2.4l0.9-0.7l-0.9-0.7v-1.7c0-0.5,0-0.7,0-1
				c0.2-0.5,0.5-0.8,1.1-0.8s1,0.2,1.1,0.8c0.1,0.2,0.1,0.5,0.1,1V61l-0.9,0.7l0.9,0.7V64.8z M150.1,61.7l-1-0.7
				c-0.2-1.6-0.7-2.9-1.6-3.7c-0.7-0.7-1.7-1.1-2.6-1.1c-0.7,0-1.4,0.2-2,0.6c-1.3,0.8-2.1,2.2-2.3,4.2l-0.9,0.7l0.9,0.7
				c0.1,1.9,0.6,3.3,1.7,4.4c0.8,0.7,1.6,1,2.6,1c0.7,0,1.4-0.2,1.9-0.6c1.5-1,2.3-2.5,2.4-4.9L150.1,61.7z M140,65.2
				c-0.1,0.7-0.6,1.4-1.5,1.9c-0.9,0.6-1.7,0.8-2.6,0.8s-1.6-0.2-2.1-0.6c-0.3,0.3-1,0.5-2.1,0.5h-0.9v-1.1c0.3,0,0.5-0.1,0.6-0.1
				c0.3,0,0.6-0.1,0.6-0.2c0.1-0.1,0.2-0.3,0.2-0.7v-3.1l-0.8-0.7l0.8-0.7v-2.5c0-0.4-0.1-0.6-0.3-0.7c-0.2-0.1-0.6-0.2-1.2-0.2
				v-1.1h0.9c0.7,0,1.2,0.1,1.5,0.2c0.2,0.1,0.4,0.2,0.6,0.4c0.4-0.4,1.2-0.6,2.2-0.6c0.9,0,1.7,0.2,2.6,0.6c0.9,0.4,1.3,1,1.3,2
				c0,0.3-0.2,0.6-0.5,0.8c-0.3,0.2-0.7,0.3-1.2,0.3c-0.4,0-0.7-0.1-1-0.3s-0.5-0.5-0.5-0.8s0.2-0.7,0.6-1.1
				c-0.3-0.2-0.7-0.3-1.1-0.3c-0.4,0-0.7,0.1-0.9,0.2c-0.2,0.2-0.2,0.4-0.2,0.7v2.5h2.9l-0.2,1.4H135v2.9c0,0.5,0.1,0.7,0.2,0.9
				c0.2,0.2,0.3,0.3,0.6,0.3c0.4,0,0.8-0.2,1.1-0.5c-0.3-0.3-0.4-0.6-0.4-1c0-0.3,0.2-0.6,0.4-0.9c0.3-0.2,0.6-0.4,1.1-0.4
				c0.6,0,1,0.2,1.4,0.5C140,64.7,140,65,140,65.2 M129.7,67.8h-0.8c-1.1,0-1.7-0.2-2.1-0.5c-0.3,0.3-1,0.5-2.1,0.5h-0.3v-1.1
				c0.5-0.1,0.7-0.2,0.9-0.2c0.1-0.2,0.2-0.3,0.2-0.6v-3.2h-2.3v3.2c0,0.3,0.1,0.5,0.2,0.6c0.1,0.2,0.4,0.2,0.8,0.2v1.1h-0.3
				c-1,0-1.7-0.2-2.1-0.5c-0.3,0.3-1,0.5-2.1,0.5h-0.8v-1.1c0.2,0,0.5-0.1,0.6-0.1c0.3,0,0.6-0.1,0.6-0.2c0.2-0.1,0.2-0.3,0.2-0.7
				v-3.1l-0.9-0.7l0.9-0.7v-2.5c0-0.4-0.1-0.6-0.3-0.7c-0.2-0.1-0.6-0.2-1.2-0.2v-1.2h0.8c1.1,0,1.8,0.2,2.1,0.5
				c0.3-0.3,1-0.5,2.1-0.5h0.3v1.1c-0.4,0.1-0.7,0.2-0.8,0.2s-0.2,0.3-0.2,0.6v2.5h2.3v-2.5c0-0.3-0.1-0.6-0.2-0.6
				c-0.2-0.1-0.4-0.2-0.9-0.2v-1.1h0.3c1.1,0,1.8,0.2,2.1,0.5c0.3-0.3,1-0.5,2.1-0.5h0.8v1.1c-0.6,0-1.1,0.1-1.3,0.2
				c-0.2,0.1-0.2,0.3-0.2,0.7v2.5l0.8,0.7l-0.8,0.7v3.1c0,0.4,0,0.6,0.2,0.7c0.2,0.1,0.6,0.2,1.3,0.2L129.7,67.8z M113.4,65.3
				c0,0.9,0.3,1.3,1.1,1.3c0.3,0,0.6-0.2,0.9-0.4c-0.3-0.4-0.5-0.7-0.5-1c0-0.3,0.1-0.6,0.4-0.8c0.3-0.2,0.6-0.3,1.1-0.3
				c0.5,0,0.9,0.1,1.2,0.3c0.3,0.2,0.5,0.5,0.5,0.9c0,0.6-0.5,1.3-1.4,1.9c-0.7,0.5-1.4,0.7-2,0.7c-1.4,0-2.4-0.5-3.2-1.4
				c-0.8-1.1-1.2-2.4-1.3-3.9l-0.8-0.7l0.9-0.7c0.2-1.2,0.6-2.1,1.1-2.9c0.8-1.1,1.8-1.7,3.2-1.7c0.6,0,1.3,0.2,2,0.8
				c0.9,0.6,1.4,1.3,1.4,1.9c0,0.3-0.2,0.6-0.5,0.9c-0.3,0.2-0.7,0.3-1.2,0.3c-0.4,0-0.8-0.1-1.1-0.3c-0.3-0.2-0.4-0.5-0.4-0.9
				c0-0.3,0.2-0.6,0.5-1c-0.2-0.2-0.5-0.4-0.9-0.4c-0.7,0-1.1,0.5-1.1,1.4v2.1l0.9,0.7l-0.9,0.7L113.4,65.3z M109.2,57.5
				c-0.5,0-0.9,0.1-1,0.2c-0.2,0.2-0.2,0.3-0.2,0.6v2.5l0.8,0.7l-0.8,0.7v2.1c0,1.4-0.5,2.4-1.4,2.9c-0.6,0.3-1.5,0.5-2.5,0.5
				c-1.4,0-2.4-0.3-3.1-0.9c-0.6-0.5-0.8-1.3-0.8-2.4v-2.1l-0.9-0.7l0.9-0.7v-2.5c0-0.3-0.1-0.6-0.2-0.6c-0.2-0.2-0.5-0.2-1.1-0.2
				v-1.1h0.6c1.1,0,1.8,0.2,2.1,0.5c0.2-0.2,0.4-0.3,0.6-0.4c0.3-0.1,0.8-0.1,1.5-0.1h0.5v1.1c-0.2,0-0.4,0-0.6,0.1
				c-0.2,0.1-0.4,0.1-0.5,0.2c-0.1,0.1-0.2,0.3-0.2,0.6V61l0.9,0.7l-0.9,0.7v2.8c0,0.9,0.5,1.3,1.4,1.3c0.9,0,1.4-0.4,1.4-1.3v-2.8
				l-0.8-0.7l0.8-0.6v-2.5c0-0.4-0.1-0.6-0.2-0.7c-0.2-0.1-0.5-0.2-1-0.2v-1.1h0.3c1,0,1.6,0.2,1.9,0.5c0.3-0.3,1-0.5,2-0.5h0.3
				L109.2,57.5z M95.6,65.2v-1c0-0.7-0.2-1.1-0.3-1.3c-0.3-0.2-0.8-0.3-1.4-0.3h-0.2v3.3c0,0.6,0.3,0.9,1,0.9c0.5,0,0.8-0.2,0.9-0.4
				C95.6,66,95.6,65.7,95.6,65.2 M95.6,59.8V59c0-0.6-0.1-0.9-0.2-1c-0.2-0.2-0.4-0.2-0.8-0.2c-0.4,0-0.6,0.1-0.7,0.2
				c-0.2,0.1-0.2,0.3-0.2,0.6v2.6h0.2c0.7,0,1.2-0.1,1.4-0.2C95.5,60.8,95.6,60.5,95.6,59.8 M98.6,64.5c0,1-0.5,1.9-1.4,2.6
				c-0.7,0.6-1.7,0.9-2.8,0.9c-1,0-1.7-0.2-2.1-0.6c-0.3,0.3-1,0.5-2.1,0.5h-0.8v-1.1c0.3,0,0.5-0.1,0.6-0.1c0.3,0,0.6-0.1,0.6-0.2
				s0.2-0.3,0.2-0.7v-3.2l-0.9-0.7l0.9-0.7v-2.5c0-0.4-0.1-0.6-0.3-0.7c-0.2-0.1-0.6-0.2-1.2-0.2v-1.1H90c0.7,0,1.2,0.1,1.5,0.2
				c0.2,0.1,0.5,0.2,0.6,0.4c0.5-0.4,1.2-0.6,2.2-0.6c1.4,0,2.5,0.4,3.2,1.1c0.6,0.6,0.8,1.1,0.8,1.8c0,1-0.6,1.7-1.7,2.3
				C98,62.2,98.6,63.2,98.6,64.5"/>
		</g>
		<g>
			<path class="st2" d="M111,155.2l0.3-2c1.6-0.9,2.9-1.8,3.7-2.9h1.1l-2,11.6h-1.8l1.4-8c-0.4,0.3-0.9,0.6-1.4,0.8
				C111.9,154.9,111.4,155,111,155.2"/>
		</g>
		<g>
			<path class="st2" d="M122.4,153.8c0-0.6-0.1-1-0.3-1.4c-0.2-0.3-0.5-0.4-0.7-0.4c-0.4,0-0.6,0.2-1,0.6c-0.3,0.6-0.5,1.3-0.5,2.2
				c0,0.6,0.1,1,0.3,1.4c0.2,0.3,0.4,0.4,0.7,0.4c0.2,0,0.5-0.1,0.6-0.3c0.2-0.2,0.4-0.5,0.6-1C122.3,154.9,122.4,154.4,122.4,153.8
				 M117.7,159.1l1.7-0.2c0.1,0.5,0.2,0.8,0.2,1c0.2,0.2,0.3,0.2,0.6,0.2c0.4,0,0.7-0.2,1-0.6c0.3-0.4,0.5-1,0.7-1.9
				c-0.4,0.3-0.8,0.5-1.3,0.5c-0.7,0-1.4-0.3-1.8-0.9c-0.5-0.6-0.7-1.4-0.7-2.5c0-1.2,0.3-2.2,1-3.2c0.6-0.9,1.4-1.4,2.4-1.4
				c0.6,0,1,0.2,1.4,0.5c0.4,0.3,0.7,0.8,1,1.4c0.2,0.6,0.4,1.5,0.4,2.5c0,2.1-0.4,4-1.2,5.3c-0.8,1.4-1.7,2.1-2.9,2.1
				c-0.7,0-1.3-0.2-1.7-0.7C117.9,160.8,117.7,160.1,117.7,159.1"/>
		</g>
		<g>
			<path class="st2" d="M129.8,153.8c0-0.6-0.1-1-0.3-1.4c-0.2-0.3-0.5-0.4-0.7-0.4c-0.4,0-0.6,0.2-1,0.6c-0.3,0.6-0.6,1.3-0.6,2.2
				c0,0.6,0.1,1,0.3,1.4c0.2,0.3,0.4,0.4,0.7,0.4c0.2,0,0.5-0.1,0.7-0.3c0.2-0.2,0.4-0.5,0.6-1C129.7,154.9,129.8,154.4,129.8,153.8
				 M125,159.1l1.7-0.2c0,0.5,0.1,0.8,0.2,1c0.2,0.2,0.3,0.2,0.6,0.2c0.4,0,0.7-0.2,1-0.6c0.3-0.4,0.5-1,0.7-1.9
				c-0.4,0.3-0.8,0.5-1.3,0.5c-0.7,0-1.4-0.3-1.8-0.9c-0.5-0.6-0.7-1.4-0.7-2.5c0-1.2,0.3-2.2,0.9-3.2c0.6-0.9,1.4-1.4,2.4-1.4
				c0.5,0,1,0.2,1.4,0.5c0.4,0.3,0.7,0.8,1,1.4c0.2,0.6,0.4,1.5,0.4,2.5c0,2.1-0.4,4-1.2,5.3c-0.8,1.4-1.7,2.1-2.9,2.1
				c-0.7,0-1.3-0.2-1.7-0.7C125.3,160.8,125.1,160.1,125,159.1"/>
		</g>
		<g>
			<path class="st2" d="M132.3,158.5l1.8-0.2v0.2c0,0.6,0.1,1,0.3,1.2c0.2,0.2,0.5,0.4,0.7,0.4c0.5,0,0.9-0.2,1.2-0.8
				c0.3-0.5,0.6-1.2,0.6-2.1c0-0.6-0.1-1-0.3-1.2c-0.2-0.2-0.5-0.4-0.8-0.4c-0.2,0-0.5,0.1-0.7,0.2c-0.2,0.2-0.5,0.3-0.6,0.6
				l-1.5-0.2l1.4-5.9h4.8l-0.3,2.1h-3.2l-0.4,1.7c0.2-0.1,0.4-0.2,0.6-0.2c0.2-0.1,0.4-0.1,0.6-0.1c0.7,0,1.3,0.3,1.7,0.9
				c0.5,0.6,0.7,1.4,0.7,2.4c0,0.9-0.2,1.7-0.6,2.5c-0.3,0.8-0.8,1.4-1.4,1.7s-1.1,0.6-1.7,0.6c-0.8,0-1.4-0.3-2-1
				C132.6,160.4,132.3,159.6,132.3,158.5"/>
		</g>
		<path class="st3" d="M127.1,171L127.1,171c-0.2-0.4-0.5-0.7-0.8-1c-0.2-0.3-0.6-0.6-0.9-0.8c-1.6-1.2-3.5-1.6-5.6-1.5
			c-0.1,0.1-0.2,0.2-0.3,0.3l0,0c-0.6,0.6-1,1.4-1.4,2.1c0.3-0.1,0.6-0.1,0.9-0.2c0.4,0,0.7,0,1.1,0c1.7,0.2,3.3,1.1,4.5,2.7
			c0.5-0.1,1.3-0.2,1.9-0.4C127.1,172.1,127.5,171.7,127.1,171 M125.9,178.9L125.9,178.9c0.4,0,0.7-0.1,1.1-0.2
			c0.3-0.1,0.7-0.2,1-0.3c1.7-0.6,3.1-1.7,4-3.4l0,0c0-0.2,0.1-0.2,0.1-0.4c0.2-0.6,0.2-1.4,0.2-2.1c-0.8,1.3-1.7,2.2-2.9,2.9
			c-1.2,0.7-2.6,1.1-4.2,1.1l0,0c-0.1,0-0.1,0-0.2,0l0,0c-0.2,0.1-0.3,0.2-0.4,0.3c-0.2,0.2-0.2,0.4-0.2,0.6c0,0.1,0,0.2,0.1,0.3
			l0,0c0.1,0.2,0.1,0.2,0.2,0.3s0.2,0.2,0.2,0.2C125.2,179,125.6,179,125.9,178.9L125.9,178.9L125.9,178.9 M130.3,178
			c-0.1,0.1-0.2,0.2-0.3,0.2c-1.2,0.8-2.6,1.3-4.1,1.4l0,0h-0.2l0,0c-0.1,0-0.2,0-0.2,0.1c-0.2,0-0.2,0.1-0.2,0.3l0,0
			c0.1,0.2,0.2,0.2,0.2,0.3c0.2,0.1,0.3,0.1,0.6,0l0,0l0,0C127.8,180.1,129.2,179.2,130.3,178 M125.2,176L125.2,176
			c0.5,0,0.9-0.1,1.3-0.2c0.4-0.1,0.8-0.2,1.2-0.3c1.9-0.6,3.4-2.1,4.4-4c0-0.1,0-0.2-0.1-0.2c0-0.1-0.1-0.2-0.1-0.3
			c-0.2-0.4-0.3-0.9-0.5-1.3l0,0c-0.3,0.2-0.6,0.5-1,0.6c-0.2,0.2-0.3,0.4-0.5,0.6c-0.2,0.2-0.4,0.4-0.6,0.6c-1,0.9-2.4,1.5-3.7,1.7
			l0,0c-0.2,0.1-0.5,0.1-0.6,0.3c-0.2,0.2-0.4,0.5-0.5,1l0,0c-0.1,0.2-0.1,0.4-0.1,0.6c0,0.2,0.1,0.3,0.2,0.5
			c0.1,0.1,0.2,0.2,0.4,0.2C124.9,176,125.1,176,125.2,176L125.2,176 M119,171.7L119,171.7c-0.2,0.2-0.2,0.5-0.3,0.8
			c-0.1,0.2-0.2,0.5-0.2,0.8c-0.2,1.4-0.1,2.8,0.4,4.1l0,0c0.2,0.2,0.4,0.6,0.6,0.8c0.5,0.6,1.1,1,1.7,1.4c-0.3-0.6-0.5-1.1-0.7-1.7
			c-0.6-1.8-0.5-3.8,0.6-5.4c0.2-0.4,0.4-0.7,0.3-1c0-0.2-0.2-0.4-0.6-0.5l0,0l0,0c-0.2-0.1-0.6-0.2-0.9-0.1
			C119.6,170.9,119.3,171.3,119,171.7 M117.6,174.2c0.1-1,0.3-2,0.8-2.8c0.1-0.1,0.1-0.2,0.1-0.3V171l0,0l0,0c-0.1,0-0.1,0-0.2,0
			l0,0l0,0c-0.2,0-0.2,0.1-0.4,0.2l0,0c-0.1,0.1-0.2,0.2-0.2,0.5l0,0l0,0l0,0c-0.1,0.3-0.2,0.7-0.2,1.1
			C117.5,173.3,117.5,173.7,117.6,174.2 M121.7,172.7L121.7,172.7c-0.2,0.3-0.4,0.6-0.6,1c-0.2,0.3-0.2,0.7-0.3,1
			c-0.3,1.8,0.4,3.7,1.4,5.3c0.1,0,0.2,0.1,0.3,0.1s0.2,0.1,0.3,0.1c0.6,0.2,1.1,0.2,1.7,0.2c-0.1-0.2-0.1-0.2-0.1-0.4
			c-0.1-0.2-0.1-0.4-0.1-0.6c-0.6-0.9-1-1.7-1-2.6c-0.1-0.9,0.1-1.7,0.3-2.6l0.1-0.3l0,0c0.2-0.7,0.2-0.9-0.3-1.4l0,0
			c-0.1-0.1-0.2-0.1-0.2-0.2c-0.2-0.2-0.5-0.3-0.7-0.3c-0.2,0-0.5,0.1-0.7,0.3C121.8,172.5,121.8,172.6,121.7,172.7 M126.8,166
			c0.4,0.2,0.8,0.5,1.2,0.7c0.7,0.6,1.3,1.3,1.8,2.1c0.2,0.3,0.4,0.5,0.6,0.6s0.2,0.1,0.4,0h0.1l0,0c0.1-0.1,0.2-0.2,0.2-0.2
			c0-0.1,0-0.2-0.1-0.4c0-0.1-0.1-0.1-0.1-0.2l0,0c-0.2-0.2-0.3-0.4-0.6-0.6l0,0c-0.2-0.2-0.4-0.4-0.6-0.6
			C128.7,166.7,127.8,166.3,126.8,166 M129.1,169.1L129.1,169.1L129.1,169.1c-0.2-0.3-0.4-0.6-0.6-0.9c-0.2-0.2-0.5-0.5-0.7-0.7
			c-1.3-1.1-2.9-1.7-4.6-1.6c-0.2,0-0.3,0.1-0.4,0.1c-0.2,0.1-0.2,0.1-0.4,0.2c-0.6,0.2-1.1,0.5-1.6,0.8c0.3,0,0.6,0,1,0.1
			c0.4,0.1,0.8,0.1,1.2,0.2c2,0.5,3.7,1.6,4.8,3.3l0,0c0.2,0.2,0.4,0.5,0.6,0.6c0.2,0.1,0.5,0,0.9-0.3l0,0l0,0
			c0.2-0.2,0.3-0.4,0.3-0.7l0,0C129.5,169.8,129.3,169.4,129.1,169.1L129.1,169.1L129.1,169.1z"/>
	</g>
</g>
<g id="레이어_1">
	<rect x="8" y="8" class="st4" width="234" height="234"/>
</g>
<rect x="8" y="34.8" class="st4" width="234" height="180.4"/>
</svg>
