<?xml version="1.0" encoding="utf-8"?>
<!-- Generator: Adobe Illustrator 25.1.0, SVG Export Plug-In . SVG Version: 6.00 Build 0)  -->
<svg version="1.1" id="Layer_1" xmlns="http://www.w3.org/2000/svg" xmlns:xlink="http://www.w3.org/1999/xlink" x="0px" y="0px"
	 viewBox="0 0 250 250" style="enable-background:new 0 0 250 250;" xml:space="preserve">
<style type="text/css">
	.st0{fill-rule:evenodd;clip-rule:evenodd;fill:#020315;fill-opacity:0;}
	.st1{opacity:0.58;}
	.st2{fill-rule:evenodd;clip-rule:evenodd;fill:url(#SVGID_1_);}
	.st3{fill-rule:evenodd;clip-rule:evenodd;fill:url(#SVGID_2_);}
	.st4{fill:#9E9E9F;}
	.st5{fill:#CA1529;}
	.st6{fill:#FFFFFF;}
	.st7{fill:none;}
</style>
<g id="Layer_1_1_">
	<g>
		<path class="st0" d="M44.5,33.1h160.9v183.8H44.5V33.1z"/>
		<g>
			<g>
				<g transform="matrix(.41901 0 0 -.41901 -370.667 1028.73)" class="st1">
					
						<linearGradient id="SVGID_1_" gradientUnits="userSpaceOnUse" x1="2998.645" y1="6288.1606" x2="2998.926" y2="6288.1606" gradientTransform="matrix(134.992 -110.9469 -110.9469 -134.992 294044.75 1183751.875)">
						<stop  offset="0" style="stop-color:#FFFFFF"/>
						<stop  offset="1" style="stop-color:#231916"/>
					</linearGradient>
					<path class="st2" d="M1007.6,2351l-13.2-2.9l0.2-13.5c0.1-4.5,1.3-108.9,4.1-134.1c1.5-13.3,3.5-26.2,6.4-39.6
						c21.3-100.2,81.7-176.2,170-213.9l6.5-2.8l6.5,2.8c88.3,37.9,148.7,113.8,169.9,213.9c2.8,13.4,4.9,26.3,6.4,39.6
						c2.7,25.4,4.1,129.7,4.1,134.2l0.2,13.5l-13.2,2.9c-4,0.9-98.2,21.1-174.4,21.1C1104.7,2372.1,1011.5,2351.8,1007.6,2351"/>
				</g>
			</g>
		</g>
		
			<linearGradient id="SVGID_2_" gradientUnits="userSpaceOnUse" x1="0.49" y1="-1.0173" x2="0.7711" y2="-1.0173" gradientTransform="matrix(322.1689 264.7833 -264.7833 322.1689 -300.8248 300.5838)">
			<stop  offset="0" style="stop-color:#FFFFFF"/>
			<stop  offset="1" style="stop-color:#231916"/>
		</linearGradient>
		<path class="st3" d="M51.6,43.6l-5.5,1.2l0.1,5.7c0,1.9,0.5,45.6,1.7,56.2c0.6,5.6,1.5,11,2.7,16.6c9,42,34.2,73.8,71.2,89.7
			l2.7,1.2l2.7-1.2c37-15.9,62.3-47.7,71.2-89.6c1.2-5.6,2-11,2.7-16.6c1.1-10.6,1.7-54.3,1.7-56.2l-0.1-5.7l-5.5-1.2
			c-1.6-0.3-41.2-8.9-73.1-8.9C92.2,34.8,53.2,43.3,51.6,43.6"/>
		<path class="st4" d="M52.4,47.6L50.1,48v2.4c0,1.9,0.5,45.4,1.7,55.8c0.6,5.4,1.4,10.8,2.6,16.2c11.7,54.9,48.1,77.9,68.9,86.8
			l1.2,0.5l1.2-0.5c35.7-15.3,60.2-46.1,68.9-86.8c1.2-5.4,2-10.8,2.6-16.2c1.1-10.4,1.6-54,1.7-55.8V48l-2.4-0.5
			c-0.4-0.1-40.8-8.7-72.3-8.7C92.6,38.8,52.8,47.5,52.4,47.6"/>
		<path class="st5" d="M124.4,41.2c0,0-5.7-1-21.4,0.8c-8.9,1-14.1,1.6-28.6,3.8C57.2,48.3,53,50.5,53,50.5s0.5,35.8,1.6,46.3
			c0.6,5.6-0.2,5.2,0.9,10.2h68.8L124.4,41.2L124.4,41.2z"/>
		<path class="st6" d="M124.4,106.4h69.2c1.1-5-0.1-4.6,0.5-10.2c1.1-10.4,1.6-46.3,1.6-46.3s0.5-2-35.6-6
			c-36-3.9-35.8-2.4-35.8-2.4L124.4,106.4L124.4,106.4z"/>
		<path class="st5" d="M124.4,106.9v99.7c9-3.8,63.6-28.9,68.8-99.7C193.2,106.9,124.4,106.9,124.4,106.9z"/>
		<path class="st6" d="M124.4,106.9H55.2c4.2,68,60.1,95.9,69.1,99.7V106.9z"/>
		<path class="st6" d="M79.5,62.2h0.3c3.7,0,6.7,3,6.7,6.7v15.2c0,3.7-3,6.7-6.7,6.7h-0.3v4.3h23.3v-4.3h-0.3c-3.7,0-6.7-3-6.7-6.7
			V68.9c0-3.7,3-6.7,6.7-6.7h0.3v-4.3H79.5V62.2z"/>
		<path class="st4" d="M193.2,106.9c-1.1,8.9-1.1,8.9-2.3,14.2c-8.4,39.4-32,69.3-66.5,84.1c-20.1-8.6-55.2-31-66.5-84.1
			c-1.1-5.3-2-10.5-2.5-15.9c-1-9.7-1.6-50.2-1.6-55c4.6-0.9,39.2-8.6,70.5-8.6c29.3,0,66.4,7.6,71,8.6 M52.9,49.1l-0.5,0.1v0.5
			c0,0.5,0.5,45.3,1.6,55.6c0.6,5.3,1.4,10.6,2.6,15.9c11.5,53.9,47.2,76.5,67.5,85.1l0.2,0.1l0.2-0.1c35-15,59.1-45.2,67.5-85.1
			c1.2-5.3,2-10.6,2.6-15.9c1.1-10.3,1.6-55.2,1.7-55.6v-0.5l-0.5-0.1c-0.4-0.1-40.4-8.7-71.8-8.7C92.9,40.4,53.3,49.1,52.9,49.1"/>
	</g>
</g>
<g id="레이어_1">
	<rect x="8" y="8" class="st7" width="234" height="234"/>
</g>
<rect x="8" y="34.8" class="st7" width="234" height="180.4"/>
</svg>
