<?xml version="1.0" encoding="utf-8"?>
<!-- Generator: Adobe Illustrator 25.1.0, SVG Export Plug-In . SVG Version: 6.00 Build 0)  -->
<svg version="1.1" id="Layer_1" xmlns="http://www.w3.org/2000/svg" xmlns:xlink="http://www.w3.org/1999/xlink" x="0px" y="0px"
	 viewBox="0 0 250 250" style="enable-background:new 0 0 250 250;" xml:space="preserve">
<style type="text/css">
	.st0{fill:#1C235A;}
	.st1{fill:#E8343D;}
	.st2{fill:#FFFFFF;}
	.st3{fill:none;}
</style>
<g id="Layer_1_1_">
	<g>
		<path class="st0" d="M73,34.8L20.9,125L73,215.3h104.2l51.9-89.9l-51.9-90.7H73z"/>
		<path class="st1" d="M106.6,52.8V49H80.6l-44.2,76.4l44.2,76.4h88.3l43.8-76.4L169.1,49h-26.5v3.8l21.2,2.9l40.1,69.6l-39.3,68.4
			H85.3l-39.6-68.4l39.8-69.6L106.6,52.8z"/>
		<path class="st2" d="M124.1,47.5c-3.5,8.2-8,15.9-13.5,23c2.2,4.2,4.1,8.4,6.3,12.7v4.9l7,12.5l7.2-12.5v-4.9l6.2-12.7
			c-2.9-3.5-6.3-7.8-9.3-13.5C126.8,54,125.4,50.8,124.1,47.5L124.1,47.5z M93.7,64.4l4.7,17.7l13.8,13.3l1.2-11.6l-5.9-12
			L93.7,64.4z M154.8,64.4l-4.7,17.7l-13.8,13.3l-1.2-11.6l5.9-12L154.8,64.4z M80.7,98.2l22-6.4L95.1,84L80.7,98.2z"/>
		<path class="st2" d="M75.9,106.1L68.8,130l27.9-12l-24.9,22.4l19.9,36.4l14.9-28.1l18.4,28.1h31.3l-41-51.5l6.9-20.7l-6.3-9.9
			l-0.4,7.9l-10.9-9.8L75.9,106.1z"/>
		<path class="st2" d="M180.2,118.2l-12.2-4.7l-5.4-13.9L147,90.2l-13.6,12.4l-1-7.2l-7.4,26.7l8.7,12.2l8.7-12.5l3.9,4.9l10-2.6
			L139.6,141l18.6,34.4l-4.2-25.9l4.9-6.3l12.9,7.7V142l5.6-6.7v-7.9l3.7-1.5L180.2,118.2L180.2,118.2z M159.7,113l-11.9-9.2h12.5
			l-2.6,5.3C157.7,109.2,159.7,113,159.7,113z"/>
	</g>
</g>
<g id="레이어_1">
	<rect x="8" y="8" class="st3" width="234" height="234"/>
</g>
<g id="_레이어_2">
</g>
<rect x="8" y="34.8" class="st3" width="234" height="180.4"/>
</svg>
