<?xml version="1.0" encoding="utf-8"?>
<!-- Generator: Adobe Illustrator 25.1.0, SVG Export Plug-In . SVG Version: 6.00 Build 0)  -->
<svg version="1.1" id="Layer_1" xmlns="http://www.w3.org/2000/svg" xmlns:xlink="http://www.w3.org/1999/xlink" x="0px" y="0px"
	 viewBox="0 0 250 250" style="enable-background:new 0 0 250 250;" xml:space="preserve">
<style type="text/css">
	.st0{fill:#FFFFFF;}
	.st1{fill:#5FB4E5;}
	.st2{fill:#231916;}
	.st3{fill:none;}
</style>
<g id="Layer_1_1_">
	<g transform="matrix(2.66683 0 0 -2.66683 -86.135 534.425)">
		<path class="st0" d="M102.8,151v33c0,0-9.3,3.4-23.6,3.4S55.6,184,55.6,184v-33c0-6.3-0.5-13.1,8.2-21.6
			c7.4-7.2,15.3-9.6,15.3-9.6s7.9,2.5,15.3,9.6C103.3,137.9,102.8,144.6,102.8,151"/>
		<path class="st1" d="M79.2,123.5c-2.2,0.8-7.7,3.4-12.9,8.4c-7.2,7-7.2,12.1-7.2,18v19.5c3.4,0.9,10.6,2.5,20,2.5
			c9.5,0,16.7-1.5,20-2.5V150c0-5.9,0.1-11-7.2-18C86.8,126.8,81.3,124.3,79.2,123.5"/>
		<path class="st0" d="M88.1,130.5c0,4.9,3.4,9,7.9,10.2c-5.3,9.1-8.5,19.6-8.9,30.8c-1,0.1-1.9,0.2-2.9,0.2
			c-0.1-9.9-1.9-19.3-5-28.2c-3.2,8.8-4.9,18.3-5,28.2c-1-0.1-2-0.2-2.9-0.2c-0.4-11.2-3.6-21.7-8.9-30.8c4.5-1.2,7.9-5.2,7.9-10.2
			c0-0.6-0.1-1.3-0.2-1.9c0.5-0.3,0.9-0.7,1.4-1c3.3-2.3,6.2-3.6,7.7-4.2l0,0l0,0c1.4,0.5,4.3,1.9,7.7,4.2c0.5,0.3,0.9,0.6,1.4,1
			C88.1,129.3,88.1,129.9,88.1,130.5"/>
		<path class="st2" d="M63.1,173.8c-1.3-0.3-2.5,0.5-2.5,1.7v4.1c0.9,0.2,1.8,0.4,2.7,0.6v1.4c-1.4-0.3-2.8-0.6-4.2-0.9v-5.5
			c0-2,1.8-3.2,3.9-2.8l0.2,0.1v1.4C63.2,173.8,63.2,173.8,63.1,173.8"/>
		<path class="st2" d="M79.4,177.2c0-0.7-0.3-1.3-0.9-1.8c-0.5,0.4-0.9,1.1-0.9,1.7v4.5c0.6,0,1.2,0,1.9,0V177.2 M76,183v-5.9
			c0-1,0.4-1.9,1.2-2.5c0.4-0.3,0.8-0.5,1.2-0.7l0.1-0.1l0.1,0.1c0.5,0.2,0.8,0.5,1.2,0.8c0.8,0.7,1.2,1.6,1.2,2.5v5.9
			C79.4,183.1,77.7,183.1,76,183"/>
		<path class="st2" d="M91.7,177.8c-0.6,0.1-1.2,0.2-1.9,0.2v1.1c0,0.7,0.3,1.3,0.9,1.6c0.5-0.5,0.9-1.2,0.9-1.9L91.7,177.8
			 M90.8,182.3L90.8,182.3l-0.2,0.1c-0.5-0.1-0.8-0.3-1.2-0.6c-0.8-0.6-1.2-1.5-1.2-2.5v-5.9c0.5-0.1,1-0.2,1.5-0.2
			c0,1.2,0,2.3,0,3.5c0.6-0.1,1.2-0.2,1.9-0.2V173c0.5-0.1,1-0.2,1.5-0.2v5.9c0,1-0.4,2-1.2,2.8C91.7,181.8,91.3,182.1,90.8,182.3"
			/>
		<path class="st2" d="M67.9,182.3v-3.8c-0.6-0.1-1.2-0.2-1.9-0.3v3.8c-0.5-0.1-1-0.2-1.5-0.3v-9.2c0.5,0.1,1,0.2,1.5,0.3v4
			c0.6,0.1,1.2,0.2,1.8,0.3v-4c0.5,0.1,1,0.2,1.5,0.2v9.2C68.9,182.5,68.3,182.4,67.9,182.3"/>
		<path class="st2" d="M74.7,175.3c-1.4-0.1-2.5,0.8-2.5,2.1v0.3c0.9,0.1,1.9,0.2,2.7,0.2v1.4c-0.9-0.1-1.9-0.1-2.7-0.2v2.3
			c0.9,0.1,1.9,0.2,2.7,0.2v1.4c-1.5-0.1-2.9-0.2-4.2-0.3v-5.5c0-2,1.8-3.5,4-3.3h0.2v1.4C74.8,175.3,74.7,175.3,74.7,175.3"/>
		<path class="st2" d="M85.6,178.8c-0.5,1.5-1.1,2.9-1.8,4.2c0,0-1.1,0.1-1.6,0.1v-9.2c0.5,0,1-0.1,1.5-0.1v5.9
			c0.9-2.4,1.8-4.6,2.1-6c0.5,0,0.8-0.1,1.3-0.2c0,3.1,0,6.1,0,9.2c-0.5,0.1-1,0.1-1.5,0.2L85.6,178.8"/>
		<path class="st2" d="M97.7,181v-4.1c-0.5,1.5-1.1,3-1.8,4.5c-0.5,0.1-1,0.2-1.5,0.3c0-3.1,0-6.1,0-9.2c0.5-0.1,1-0.2,1.5-0.3v5.9
			c0.9-2.5,1.5-4.8,1.9-6.2c0.5-0.2,1-0.2,1.5-0.4v9.2C98.7,180.7,98.2,180.9,97.7,181"/>
		<path class="st1" d="M79.4,135.9c2,2.5-0.1,4.5-0.5,4.9c0.1-0.9-0.1-2.2-1.6-3.7c-2.1-2.2-3.7-3.5-4.1-5.9
			c-0.1-0.5-0.5-2.8,1.3-4.9c-0.1,0.2-0.5,1.4,0.2,3.5C75.5,132.5,78,134.1,79.4,135.9"/>
		<path class="st2" d="M84.5,133.2c-0.1-0.9-0.6-1.8-1.3-2.5c-1.9-2.2-3.4-3.2-4-4.5c-0.8-1.5-0.3-2-0.2-2.1c0.1,0,1,0,1.9,0.3
			c2.2,0.8,3.8,2.5,4.2,4.7C85.6,131.2,84.8,132.8,84.5,133.2"/>
		<path class="st2" d="M77.4,126.5c0.8,2.2,3.3,3.9,5.1,6.3c1.6,2.3-0.1,4-0.5,4.4c-0.1-1.2-1-2.5-2.1-3.7c-1.1-1.2-2.9-2.7-3.7-4.4
			c-1.9-4.2,1.5-4.8,1.5-4.8S76.9,125.1,77.4,126.5"/>
		<path class="st2" d="M70.3,130.5c0,5.7-4.5,10.3-10.3,10.5c0.9-2.8,2.7-5.8,6.2-9.1c1.2-1.2,2.5-2.2,3.9-3.2
			C70.3,129.2,70.3,129.9,70.3,130.5"/>
		<path class="st2" d="M88.1,130.5c0-0.7,0.1-1.3,0.2-1.9c1.3,1,2.6,2.1,3.9,3.2c3.5,3.4,5.3,6.3,6.2,9.1
			C92.6,140.9,88.1,136.2,88.1,130.5"/>
	</g>
</g>
<g id="레이어_1">
	<rect x="8" y="8" class="st3" width="234" height="234"/>
</g>
<g id="_레이어_2">
</g>
<rect x="8" y="34.8" class="st3" width="234" height="180.4"/>
</svg>
