<?xml version="1.0" encoding="utf-8"?>
<!-- Generator: Adobe Illustrator 25.1.0, SVG Export Plug-In . SVG Version: 6.00 Build 0)  -->
<svg version="1.1" id="Layer_1" xmlns="http://www.w3.org/2000/svg" xmlns:xlink="http://www.w3.org/1999/xlink" x="0px" y="0px"
	 viewBox="0 0 250 250" style="enable-background:new 0 0 250 250;" xml:space="preserve">
<style type="text/css">
	.st0{fill:#FFFFFF;}
	.st1{fill:#F5CF2C;}
	.st2{fill:#FFDF23;}
	.st3{fill:#244694;}
	.st4{fill:none;}
</style>
<g id="Layer_1_1_">
	<g>
		<path class="st0" d="M202.2,91.9c-0.8-2.1-2.8-3.4-5-3.4h-0.3c-1.4,0.1-2.9,0.2-4.2,0.2c-2.3,0-4.4-0.2-6.2-0.3
			c-10.6-1.5-17.9-9.9-18.6-21.5v-0.2v-0.1l-0.1-0.5c-0.2-1.5-0.2-2.5-0.4-3.7c-0.6-3.4-3.1-4.9-5.2-4.9c-1.6,0-3.2,0.8-4.2,2.2
			c-0.6,0.8-1.1,1.1-1.2,1.2c-0.2,0.1-0.4,0.1-0.6,0.1c-2.5,0.4-4.9,0.7-7.4,0.9c0.3-1.1,0.8-2.2,1.3-3.4c1.1-2.4,1.6-4.8,1.6-7.2
			c0-0.8,0-1.7-0.2-2.5c-0.3-2.5-2.5-4.4-5-4.3c-0.8,0-1.7,0.2-2.4,0.6c-0.8-3.9-2.9-7.6-6.3-9.4c-2.1-1.1-4.7-0.6-6.2,1.2
			c-0.9,1.2-1.4,2.7-1.1,4.2c0.8,4.3-0.5,8-1.3,9.9c-1.5,0.5-2.9,1.2-4.2,2.2c-1.2-1-2.7-1.7-4.2-2.2c-0.8-1.9-2.1-5.6-1.3-9.9
			c0.5-2.8-1.3-5.4-4.1-5.9c-0.2-0.2-0.5-0.2-0.8-0.2c-0.8,0-1.6,0.2-2.3,0.6c-3.5,1.9-5.5,5.6-6.3,9.4c-0.8-0.4-1.5-0.6-2.4-0.6
			c-2.5,0-4.6,1.9-5,4.3c-0.1,0.8-0.2,1.7-0.2,2.5c0,2.4,0.6,4.8,1.6,7.2c0.5,1.1,0.9,2.2,1.2,3.2c-3.3-0.3-6-0.7-8.1-1
			c-0.2-0.2-0.6-0.5-1.2-1.1c-1.1-1.4-2.6-2.2-4.2-2.2c-2.2,0-4.6,1.5-5.2,4.9c-0.2,1.2-0.3,2.2-0.4,3.7L82,66.7
			c-0.4,6.2-2.8,11.8-6.7,15.8l-0.1,0.2c-2.9,3.2-8.9,5.2-13.3,5.7c-2,0.2-3.9,0.4-5.9,0.4c-1,0-1.9,0-2.9-0.1h-0.3
			c-2.2,0-4.2,1.4-5,3.4c-0.8,2.1-0.2,4.4,1.4,5.9l8.7,7.9v37.6c0,3.9,3.2,7.1,7.1,7.1h5.2c11.4,27.3,29.1,48.6,52.6,63.2l2.2,1.4
			l2.2-1.4c23.5-14.6,41.3-35.9,52.6-63.2h5.2c3.9,0,7.1-3.2,7.1-7.1v-37.7l8.7-7.9C202.5,96.3,203,93.9,202.2,91.9"/>
		<path class="st1" d="M158.4,70.3c-33.7,5.9-66.8,0-66.8,0c-1.8,15-10.9,25-24.5,27.2c3.8,41.9,23.7,84.3,57.9,106.1
			c34.3-21.8,54.2-64.2,57.9-106.1C169.2,95.2,160.2,85.2,158.4,70.3"/>
		<path class="st2" d="M102.9,71.7c-2.5-0.2-4.5-0.5-6.2-0.7l-5.8,3.2c0,0.1,0,0.1,0,0.2c-0.4,1.6-0.8,3.2-1.5,4.9L102.9,71.7z"/>
		<path class="st2" d="M135.5,72.6c-2.6,0.2-5.2,0.2-7.9,0.2l-2.6,1.5l-2.6-1.5c-2.9-0.1-5.5-0.2-8-0.3l10.7,5.9L135.5,72.6z"/>
		<path class="st2" d="M160.2,78.2l-0.1-0.2c-0.1-0.2-0.2-0.5-0.2-0.8c-0.2-0.7-0.5-1.5-0.6-2.2c-0.1-0.3-0.2-0.6-0.2-0.9l-5.6-3.1
			c-2.1,0.3-4.1,0.5-6.2,0.8l13.3,7.3C160.4,78.8,160.3,78.5,160.2,78.2"/>
		<path class="st2" d="M107.8,184.7l-3.3,1.8c0.8,0.9,1.7,1.9,2.6,2.7l0.7-0.4l12.1,6.6v4.6c1.2,0.9,2.5,1.8,3.8,2.6v-9.3
			L107.8,184.7z"/>
		<path class="st2" d="M126.2,193.5v9.3c1.3-0.8,2.5-1.7,3.8-2.6v-4.6l12.1-6.6l0.7,0.4c0.8-0.8,1.8-1.8,2.6-2.7l-3.3-1.8
			L126.2,193.5z"/>
		<path class="st2" d="M82.4,153.9l0.1,0.2L82.4,153.9L82.4,153.9z"/>
		<path class="st2" d="M84,157.2L84,157.2c-0.2-0.5-0.5-0.9-0.7-1.4C83.7,156.2,83.8,156.7,84,157.2"/>
		<path class="st2" d="M85.3,159.4c0.5,1.1,1.2,2.2,1.8,3.2l0,0C86.4,161.5,85.9,160.5,85.3,159.4L85.3,159.4z"/>
		<path class="st2" d="M100.4,181.9c0.8,0.9,1.6,1.9,2.4,2.8l0.1-0.1C102,183.7,101.2,182.8,100.4,181.9L100.4,181.9z"/>
		<path class="st2" d="M147.1,184.8c0.8-0.9,1.6-1.9,2.4-2.8h-0.1C148.7,182.8,147.9,183.8,147.1,184.8L147.1,184.8z"/>
		<path class="st2" d="M82.4,97.6h6.9V79.3c-0.9,2.5-2.2,4.9-3.8,7v9.6L82.4,97.6z"/>
		<path class="st2" d="M91.9,97.6h6.9l-3.2-1.8V82.5l12.1-6.6l12.1,6.6v13.3l-3.2,1.8h6.9V80.4l-15-8.3c-0.5,0-1.1-0.1-1.6-0.2
			l-15.2,8.4V97.6z"/>
		<path class="st2" d="M126.2,97.6h6.9l-3.2-1.8V82.5l12.1-6.6l12.1,6.6v13.3l-3.2,1.8h6.9V80.4l-15-8.3c-0.7,0.1-1.3,0.1-2,0.2
			l-14.7,8.1L126.2,97.6L126.2,97.6z"/>
		<path class="st2" d="M167.6,97.6l-3.2-1.8v-9.6c-0.6-0.8-1.2-1.8-1.8-2.7l-0.2-0.3c-0.5-0.9-1-1.9-1.5-2.9c0,0,0-0.1-0.1-0.1
			l-0.1-0.2c-0.1-0.2-0.2-0.5-0.3-0.8v18.4H167.6z"/>
		<path class="st2" d="M89.4,146.4h-3.8v5.8l-3.2,1.8c0,0.1,0.1,0.1,0.1,0.2c0.3,0.6,0.5,1.2,0.8,1.7c0.2,0.5,0.5,0.9,0.7,1.4
			l5.3-2.9V146.4z"/>
		<path class="st2" d="M120,152.1l-12.1,6.6l-12.2-6.6v-5.8h-3.8v7.9l15.9,8.7l15.9-8.7v-7.9h-3.8L120,152.1L120,152.1z"/>
		<path class="st2" d="M154.3,152.1l-12.1,6.6l-12.1-6.6v-5.8h-3.8v7.9l15.9,8.7l15.9-8.7v-7.9h-3.8V152.1z"/>
		<path class="st2" d="M160.6,154.2l5.2,2.9c0.5-1.1,1.1-2.2,1.6-3.2l-3.2-1.7v-5.8h-3.8L160.6,154.2L160.6,154.2z"/>
		<path class="st2" d="M106.6,165.2l-15.9-8.7l-5.4,2.9c0.5,1.1,1.2,2.2,1.8,3.2l3.6-2l12.1,6.6v13.3l-2.3,1.3
			c0.8,0.9,1.6,1.9,2.5,2.8l3.7-2L106.6,165.2L106.6,165.2z"/>
		<path class="st2" d="M137.1,180.6l-12.1,6.6l-12.1-6.6v-13.3l12.1-6.6l12.1,6.6V180.6z M109.1,165.2v17.5l15.9,8.7l15.9-8.7v-17.5
			l-15.9-8.7L109.1,165.2z"/>
		<path class="st2" d="M159.3,156.5l-15.9,8.7v17.5l3.6,2c0.8-0.9,1.6-1.9,2.5-2.8l-2.3-1.3v-13.3l12.1-6.6l3.6,2
			c0.4-0.6,0.7-1.2,1-1.9c0.2-0.5,0.5-0.8,0.7-1.3L159.3,156.5z"/>
		<path class="st2" d="M162.9,162.6c0.4-0.6,0.7-1.2,1-1.9C163.6,161.3,163.2,161.9,162.9,162.6L162.9,162.6z"/>
		<path class="st3" d="M125,203.6L125,203.6c-20.7-13.2-36.1-33.8-45.9-57.2h91.8C161.1,169.9,145.7,190.5,125,203.6 M91.6,70.3
			c0,0,5.2,0.9,13.6,1.7c-2.3,5.9-7.6,11.6-11.5,23.8l-2.2-2.2c-0.8-0.8-1.9-1.2-2.9-1.2h-9C86.1,87.6,90.4,80,91.6,70.3
			 M158.4,70.3c1.2,9.7,5.4,17.3,12,22.1h-8.8c-1.1,0-2.2,0.5-2.9,1.2l-2.4,2.4c-3.8-12.3-9.2-18-11.5-24
			C149.3,71.6,153.8,71,158.4,70.3 M197.2,92.7c-2.9,0.2-7.2,0.2-11.3-0.2c-13.2-1.9-21.4-12.7-22.2-25.5v-0.1
			c-0.2-1.8-0.2-2.9-0.4-4c-0.3-1.6-1.2-1.8-2-0.8c-1.8,2.3-3.4,2.6-3.4,2.6s-0.3,0.1-1.1,0.2c-4.3,0.6-8.7,1.2-13.1,1.5
			c0-2.7,0.7-5.9,2.5-9.8c0.8-1.7,1.2-3.6,1.3-5.5c0-0.6,0-1.3-0.1-1.9c-0.1-0.8-1.1-0.9-1.5-0.3c-2,3.5-5.6,3.7-5.6,3.7
			c0.8-4.3-0.5-11.3-4.4-13.4c-0.6-0.3-1.3,0.2-1.2,0.8c1.5,8-2.6,14.3-2.6,14.3c-5.6,1-7,5.1-7.1,5.2l0,0c-0.1-0.2-1.5-4.2-7.1-5.2
			c0,0-4-6.2-2.6-14.3c0.2-0.7-0.5-1.2-1.2-0.8c-3.9,2.1-5.2,9-4.4,13.4c-0.1,0-3.5-0.3-5.6-3.7c-0.4-0.7-1.4-0.5-1.5,0.3
			c-0.1,0.6-0.2,1.3-0.1,1.9c0,1.9,0.5,3.8,1.3,5.5c1.8,3.9,2.5,7,2.5,9.7c-4.8-0.4-9.5-0.9-14.2-1.5c-0.2,0-1.7-0.4-3.4-2.6
			c-0.7-0.9-1.7-0.8-2,0.8c-0.2,1.2-0.3,2.2-0.4,4.1c-0.5,7.2-3.2,13.8-7.9,18.5c-3.7,4-10.5,6.4-15.8,7c-3.2,0.4-6.5,0.5-9.6,0.3
			c-0.6,0-1.2,0.5-1.2,1.1c0,0.3,0.1,0.7,0.4,0.9l10.1,9.3v39.4c0,1.6,1.3,2.9,2.9,2.9h8c10.2,25.5,26.9,48.2,52,63.8l0,0
			c25.1-15.7,41.9-38.3,52-63.8h8c1.6,0,2.9-1.3,2.9-2.9l0,0v-39.6l10.1-9.3C198.8,93.9,198.2,92.6,197.2,92.7"/>
		<path class="st0" d="M85.4,113.8h-9.5v-7.6h8.8l0.7,0.7V113.8z M88.2,97.6H63l4.4,4v39.9h8.5v-19.2h9.5v19.2h8.5v-38.2l-1.7-1.7
			L88.2,97.6z"/>
		<path class="st0" d="M106.6,116.1l0.7-0.7h13v-8.5h-16.6l-5.6,5.6v15.9h14.2v4.7H98v8.5h22.7v-21.7h-14.2L106.6,116.1L106.6,116.1
			z"/>
		<path class="st0" d="M143.3,119.8h-9.5v-4.5h8.8l0.7,0.7L143.3,119.8L143.3,119.8z M125.3,106.8v34.7h8.5v-13.2h9.5v13.2h8.5
			v-29.1l-5.6-5.6C146.1,106.8,125.3,106.8,125.3,106.8z"/>
		<path class="st0" d="M182.9,97.6h-20.8l-4.2,4.2l-1.7,1.7v38h8.5v-35.4h8.8l0.7,0.7v34.7h8.5v-39.9l4.3-3.9L182.9,97.6L182.9,97.6
			z"/>
		<path class="st3" d="M138.4,168.9v-4.4h-7.9l-0.4-0.4v-2v-2.2v-2.2v-2l0.4-0.4h7.9v-4.4h-9.8l-2.9,2.9V166l2.9,2.9H138.4
			L138.4,168.9z"/>
		<path class="st3" d="M115.8,162.7h6.3v-4.4h-6.2v-0.6v-2l0.4-0.4h7.9v-4.4h-9.8l-2.9,2.9v15.1h4.4L115.8,162.7z"/>
		<path class="st3" d="M120,186.4c0-0.9-0.6-1.5-1.9-1.5c-0.6,0-1.2,0.1-1.5,0.3l0.1,0.9c0.3-0.2,0.7-0.2,0.9-0.2
			c0.5,0,0.9,0.2,0.9,0.7c0,0.5-0.7,1.2-1.4,2l-0.7,0.7v0.8h3.4v-1h-1.7l0.3-0.4C118.8,188.5,120,187.4,120,186.4"/>
		<path class="st3" d="M123.4,187.7c0,1.1-0.2,1.5-0.8,1.5c-0.5,0-0.8-0.5-0.8-1.6v-0.2c0-1.1,0.2-1.5,0.8-1.5
			c0.5,0,0.8,0.5,0.8,1.6V187.7z M122.6,184.9c-1.2,0-2.2,0.7-2.2,2.6v0.2c0,1.8,0.9,2.5,2.2,2.5c1.2,0,2.2-0.6,2.2-2.5v-0.2
			C124.8,185.7,123.8,184.9,122.6,184.9"/>
		<path class="st3" d="M128.6,186.4c0-0.9-0.6-1.5-1.9-1.5c-0.6,0-1.2,0.1-1.5,0.3l0.1,0.9c0.3-0.2,0.7-0.2,0.9-0.2
			c0.5,0,0.9,0.2,0.9,0.7c0,0.5-0.7,1.2-1.4,2l-0.7,0.7v0.8h3.4v-1h-1.7l0.3-0.4C127.5,188.5,128.6,187.4,128.6,186.4"/>
		<path class="st3" d="M132.1,187.7c0,1.1-0.2,1.5-0.8,1.5c-0.5,0-0.8-0.5-0.8-1.6v-0.2c0-1.1,0.2-1.5,0.8-1.5
			c0.5,0,0.8,0.5,0.8,1.6V187.7z M131.3,184.9c-1.2,0-2.2,0.7-2.2,2.6v0.2c0,1.8,0.9,2.5,2.2,2.5c1.2,0,2.2-0.6,2.2-2.5v-0.2
			C133.5,185.7,132.4,184.9,131.3,184.9"/>
		<path class="st3" d="M104.2,182.3h6.5v-4.6c-1.9,0.2-4.1,0.3-6.5,0.3V182.3z"/>
		<path class="st3" d="M117.7,176.5c-2.2,0.5-4.3,0.8-6.5,1.1v4.7h6.5V176.5z"/>
		<path class="st3" d="M139.3,182.3h6.5V178c-2.4,0-4.5-0.1-6.5-0.3V182.3z"/>
		<path class="st3" d="M132.3,182.3h6.5v-4.7c-2.2-0.2-4.3-0.5-6.5-1.1V182.3z"/>
		<path class="st3" d="M126.1,177.8h-0.8v4.4h6.5v-5.9c-2.9-0.7-4.8-1.5-5.7-2.1V177.8z"/>
		<path class="st3" d="M118.2,176.4v5.9h6.5v-4.4h-0.8v-3.5C123.1,174.8,121.1,175.7,118.2,176.4"/>
		<path class="st3" d="M125.5,173.9c0-1.7-0.2-2.7-0.2-2.7s0.5-0.4,0.5-0.7h-1.6c0,0.3,0.5,0.7,0.5,0.7s-0.2,1-0.2,2.7v3.5h1V173.9z
			"/>
		<path class="st1" d="M97.8,100.2c0,0.2,0,0.4,0,0.6c0,0.2,0,0.3,0.1,0.5v0.2c0.1,0.2,0.1,0.5,0.2,0.7v0.1c0.1,0.1,0.1,0.2,0.2,0.3
			c0,0,0,0.1,0.1,0.1c0.2,0.2,0.3,0.3,0.5,0.5l0,0c0.1,0.1,0.2,0.1,0.3,0.2c0.2,0.1,0.5,0.2,0.8,0.2c0.2,0,0.4,0,0.5,0
			c0.1,0,0.2,0,0.3-0.1c1.1-0.2,1.5-0.3,2.6-0.5v-1.5c-0.8,0.2-1.1,0.2-1.9,0.3c-1.3,0.2-2-0.2-2-1.3v-0.8c0-1.2,0.7-1.9,2-2.1
			c0.8-0.2,1.1-0.2,1.9-0.3v-1.6c-0.8,0.2-1.8,0.3-2.6,0.5c-1.9,0.4-2.9,1.7-2.9,3.9l0,0C97.8,99.9,97.8,100,97.8,100.2"/>
		<path class="st1" d="M104.2,102.6c0.7-0.1,1-0.2,1.7-0.2v-2.9c1-0.2,1.5-0.2,2.5-0.3v2.4l0,0v0.5c0.7-0.1,1-0.2,1.7-0.2v-7.3
			c-0.7,0.1-1,0.2-1.7,0.2v2.9c-0.8,0.1-1.6,0.2-2.5,0.3v-2.9c-0.7,0.1-1,0.2-1.7,0.2v6.2l0,0V102.6z"/>
		<path class="st1" d="M113.9,101.6c2-0.2,3.1-1.3,3.1-3.4v-4.2c-0.6,0-1.2,0.1-1.8,0.2v4.2c0,1.1-0.5,1.6-1.3,1.7s-1.3-0.4-1.3-1.5
			v-4.2c-0.6,0.1-1.2,0.1-1.8,0.2v4.2C110.8,100.8,111.8,101.7,113.9,101.6"/>
		<path class="st1" d="M119.5,97.2c1.1,1.4,1.6,2.1,2.7,3.5c0.1,0.2,0.2,0.2,0.5,0.3c0.4,0.1,0.8,0,1-0.3c0.1-0.2,0.2-0.3,0.2-0.5
			v-6.6c-0.5,0-1.2,0-1.7,0v3.9c-1.1-1.4-1.6-2.2-2.7-3.5c-0.1-0.2-0.2-0.2-0.5-0.3c-0.2-0.1-0.4,0-0.5,0c-0.2,0.1-0.3,0.2-0.5,0.3
			c-0.1,0.2-0.2,0.3-0.2,0.5v6.6c0.7,0,1-0.1,1.7-0.1C119.5,101,119.5,97.2,119.5,97.2z"/>
		<path class="st1" d="M127.6,101c1,0,1.5,0,2.6,0.1v-3.5c-0.7,0-1.1,0-1.8-0.1v2h-0.2c-1.3,0-1.9-0.6-1.9-1.7V97
			c0-1.2,0.7-1.7,2-1.7c0.7,0,1.1,0,1.9,0.1v-1.6c-0.8,0-1.7-0.1-2.6-0.1c-2-0.1-3,1.2-3,3.6C124.6,99.8,125.6,100.9,127.6,101"/>
		<path class="st1" d="M132.8,97.3c1.1,1.5,1.6,2.3,2.7,3.8c0.1,0.2,0.2,0.2,0.5,0.3c0.2,0.1,0.4,0.1,0.5,0.1
			c0.3-0.1,0.6-0.4,0.6-0.7v-6.6c-0.7-0.1-1-0.1-1.7-0.2v3.9c-1.1-1.5-1.6-2.3-2.7-3.8c-0.2-0.3-0.6-0.5-1-0.3
			c-0.2,0.1-0.3,0.2-0.5,0.3c-0.1,0.2-0.2,0.3-0.2,0.5v6.5c0.7,0,1,0.1,1.7,0.1V97.3z"/>
		<path class="st1" d="M141,97.7l0.6,1.6c-0.5-0.1-0.8-0.1-1.2-0.2L141,97.7 M139.3,101.7l0.5-1c1,0.1,1.5,0.2,2.5,0.3l0.2,0.5l0,0
			l0.2,0.6c0.7,0.1,1.1,0.2,1.8,0.2c-1.1-2.9-1.6-4.4-2.8-7.3c-0.1-0.2-0.2-0.3-0.3-0.4c-0.2-0.1-0.3-0.2-0.5-0.2
			c-0.2,0-0.3,0-0.5,0.1c-0.2,0.1-0.2,0.2-0.3,0.3c-0.9,2.2-1.9,4.4-2.7,6.6c0.1,0,0.2,0,0.2,0h0.1
			C138.4,101.6,138.8,101.7,139.3,101.7"/>
		<path class="st1" d="M145.3,102.6c0.7,0.1,1,0.2,1.7,0.3v-3.4l0.9,2.2l0,0l0.1,0.2c0.1,0.2,0.2,0.3,0.3,0.4s0.3,0.2,0.5,0.2
			c0.1,0,0.2,0,0.2,0l0,0c0.1,0,0.2,0,0.2-0.1c0.2-0.1,0.2-0.2,0.3-0.2c0.4-0.8,0.6-1.2,1-1.9v3.3l0.4,0.1l0,0
			c0.5,0.1,0.8,0.2,1.3,0.3v-6.7c0-0.2-0.1-0.4-0.2-0.5c-0.2-0.2-0.3-0.3-0.5-0.4c-0.2-0.1-0.5-0.2-0.7-0.1c-0.2,0-0.3,0.2-0.4,0.3
			c-0.7,1.2-1,1.8-1.6,3c-0.7-1.5-1-2.2-1.7-3.6c-0.1-0.2-0.2-0.3-0.4-0.4c-0.2-0.2-0.5-0.2-0.7-0.2c-0.2,0-0.3,0.1-0.5,0.2
			c-0.2,0.1-0.2,0.3-0.2,0.5v5.6l0,0v0.8H145.3z"/>
		<path class="st1" d="M126.3,66.9c-0.4-0.2-0.8-0.3-1.3-0.3c-0.5,0-0.9,0.2-1.3,0.3c-1.1,0.6-1.2,1.9-1.2,1.9
			c0.2,1.4,0.5,2.8,0.9,4.1c0.7,1.8,1.5,2.6,1.5,2.6s0.8-0.8,1.5-2.6c0.4-1,0.8-2.4,0.9-4.1C127.4,68.8,127.3,67.6,126.3,66.9"/>
		<path class="st0" d="M131.5,77.1l9.3,8.6c-0.5-1.2-0.9-2.4-1.5-3.5c-1.9-3.9-3.6-6.8-5.2-9.4c-0.9-1.5-1.9-2.9-2.7-4.4l0,0l0,0
			l0,0c0,0,1.7,0.8,3.4,0.8c0.8,0,1.5-0.2,2.2-0.7c0.7-0.5,1.2-1.2,1.4-1.9c0.4-1.2,0.2-2.5-0.1-3.5c-0.4-1.7,0.9-3.3,0.9-3.3
			c-0.1,0-3.5,1-5.4,2.7c-1.5,1.3-2.7,2.8-3.7,4.5c-0.7,1.2-1.2,2.5-1.3,3.8c-0.1,0.7-0.2,1.5-0.4,2.2c-0.6,2-1.9,3.6-3.3,5.1l0,0
			c-1.5-1.5-2.8-3.1-3.3-5.2c0-0.1-0.1-0.2-0.1-0.3c-0.1-0.2-0.1-0.4-0.2-0.6l0,0c0-0.1,0-0.2,0-0.2c-0.1-0.3-0.1-0.6-0.1-0.9
			c0-0.4-0.1-0.8-0.2-1.2c-0.2-0.9-0.6-1.8-1.2-2.7c-1-1.7-2.2-3.2-3.6-4.4c-0.2-0.2-0.5-0.5-0.8-0.6c-0.7-0.5-1.5-0.8-2.2-1.2
			c-0.8-0.3-1.6-0.6-2.4-0.8c0.4,0.5,0.6,0.9,0.8,1.5c0.2,0.5,0.3,1.2,0.2,1.8c-0.2,0.8-0.3,1.6-0.3,2.5c0,0.3,0.1,0.7,0.2,1v0.1
			c0,0.2,0.1,0.2,0.2,0.4c0.2,0.5,0.6,1.2,1.2,1.6s1.4,0.7,2.2,0.7c0.6,0,1.2-0.1,1.8-0.2c0.2-0.1,0.5-0.2,0.7-0.2
			c0.5-0.2,0.9-0.4,0.9-0.4l0,0c-0.8,1.5-1.8,2.9-2.6,4.3c-1.7,2.6-3.4,5.5-5.3,9.5c-0.2,0.4-0.4,0.8-0.5,1.2
			c-0.3,0.8-0.7,1.6-1,2.4l9.3-8.6L116.1,90l8.9-9.6l9,9.5L131.5,77.1z"/>
	</g>
</g>
<g id="레이어_1">
	<rect x="8" y="8" class="st4" width="234" height="234"/>
</g>
<g id="_레이어_2">
</g>
<rect x="8" y="34.8" class="st4" width="234" height="180.4"/>
</svg>
