<?xml version="1.0" encoding="utf-8"?>
<!-- Generator: Adobe Illustrator 25.1.0, SVG Export Plug-In . SVG Version: 6.00 Build 0)  -->
<svg version="1.1" id="Layer_1" xmlns="http://www.w3.org/2000/svg" xmlns:xlink="http://www.w3.org/1999/xlink" x="0px" y="0px"
	 viewBox="0 0 250 250" style="enable-background:new 0 0 250 250;" xml:space="preserve">
<style type="text/css">
	.st0{fill:none;}
	.st1{fill:#FFFFFF;}
	.st2{fill:#0068B7;}
	.st3{fill:#D5D8DD;}
	.st4{fill:#A0D2F2;}
	.st5{fill:#231916;}
	.st6{fill:#F39700;}
</style>
<g id="Layer_1_1_">
	<rect x="29.8" y="29.8" class="st0" width="190.4" height="190.4"/>
	<g transform="matrix(3.4638 0 0 -3.4638 -557.666 1942.331)">
		<path class="st1" d="M198.3,544.8c0,0,1.1,2.4,1.7,2.5C199.9,547.3,199.7,545.4,198.3,544.8 M194.8,544.8c0,0,1.1,2.4,1.7,2.5
			C196.5,547.3,196.2,545.4,194.8,544.8 M193.4,545.4l-0.2,0.2l-0.6-0.6c0,0.1-0.3,0.2-0.3,0.2c0.3,0.1,1.2,0.7,1.2,0.7
			C193.4,545.6,193.4,545.4,193.4,545.4 M202.9,548.4c0,0-1.1-0.1-1.8-1c0,0-0.1,0.7-0.9,1c0,0-1.1,0.3-2.5-1.2c0,0,0.1,1.2-1.2,1.3
			c0,0-1,0-2.4-1.4c0,0,0,1.3-1.4,1.4c0,0-1.3,0.2-2.2-1.3c0,0-0.4-1,0.6-1.2c0,0-1.2-0.7-1.3-1.5c0,0,0-0.4,0.3-0.6
			c0,0,0.3-0.2,0.7,0.4c0,0,0.9-0.5,1.4-0.4c0,0,0.7,0.1,1.5,1c0,0,0.3-0.9,1.2-1c0,0,1-0.1,2.1,1.5c0,0,0-1,1.1-1.4
			c0,0,1.5-0.4,3,2.4c0,0,0.2-0.3,0.5-0.3c0,0-1.2-0.7-1.3-1.5c0,0-0.1-0.5,0.4-0.5c0,0,0.2-0.1,0.6,0.4c0,0,1.1-0.7,1.7-0.3
			c0,0,1.1,0.4,1.1,1.4l-0.5,0.4l-0.6-0.6l-0.3,0.2c0,0,2,0.7,1.9,1.8C204.5,547,204.5,548.4,202.9,548.4"/>
		<path class="st1" d="M201.5,550.5c0,0,10.7,2.1,10.7-5.5c0,0,3.4-3.8,4.4-6.5c0,0,0.1,0.3,0.2,1c0,0-0.4,0.7-1.7,1.3
			c0,0-0.9,1.2-0.6,2.8c0,0,0,2.8-2,4.1c0,0,4.4-0.2,6.3-4.1c0,0,0.8-2.3-0.8-4.2c0,0,0.2-1.5-0.3-3.5c0,0,1.1-3.7,1-5.6
			c0,0,0.1,0.3,0.4,0.7c0,0-0.9,0.8-1.1,2c0,0-0.2,1.8,0.6,3.2c0,0,1.1,2.1,1.5,4.5c0,0,5.9-7.3,0.2-9.9c0,0-1-2.8-1.6-3.8
			c0,0,0-2.5-1-6c0,0,0.9,1,1.1,1.1c0,0-1.1,2.4,1.1,5c0,0,3,3.2,4.5,4.1c0,0,2-11.4-4.7-9.9c0,0-2.1-2.5-2.9-3.3
			c0,0-0.9-2.4-2.7-5.3c0,0,1-0.1,1.5,0.7c0,0-0.7,3.2,3.3,4.6c0,0,2.9,1,4.8,2.9c0,0-0.5-11.2-7.2-8.6c0,0-0.9-0.8-3.6-1.3
			c0,0-1.4-2.1-3.3-3.8c0,0,0.7-0.2,1.4,0.2c0,0,2.1,6.3,9.4,2c0,0-1.6-0.4-4.1-2.8c0,0-2.5-2-5-0.3c0,0-2-0.5-3.3-0.4
			c0,0-2.8-2.4-3.1-2.7l-1.3,2c0,0,1.4,0.5,3.9,2.8c0,0-0.1,0.2,0.1,0.6c0,0-0.2,0-0.7,1c0,0-0.8,0-2.3-1.5c0,0-3-2.7-5.6-1.3
			c0,0,1.5-0.2,3.3,3.3c0,0,2.6,3.6,5.4,0.7c0,0,0-0.6,0.2-0.9c0,0,0.2,0.8,0.3,1c0,0-2.4,2.3-0.8,4.6c0,0,1.5,1,1.2,4.1
			c0,0,2-0.7,3.1-4.4c0,0,0.6-3.2-2.4-4.5l-0.2-0.7c0,0,2.1,2.5,3.3,4.3c0,0-0.1,2.7,0.1,3.3c0,0-3.5,2.2-1.3,5.1
			c0,0,1.1,1.8,0.5,4.9c0,0,5.9-4.5,2.2-9.8c0,0,0.1-1.1,0.2-1.2c0,0,1.5,3.1,1.8,5.2c0,0-0.3,1.8-1.5,4.9c0,0-3.7,1.9-1.5,5.6
			c0,0,0.7,2.4-0.1,4.6c0,0,6.7-4.4,2.8-10.2l1-2c0,0,2,6.8-1.3,13.6c0,0-4.1,3.2-6.3,2.8c0,0-3.7-0.3-5.6,2.2c0,0,1.5-0.7,3.7,0.6
			c0,0,3.5,2,5.3-2.2c0,0,1.7-1.1,2-1.1c0,0-2,3.2-3,4.1c0,0-2.6-0.3-4.7,2.5C206.6,547,204.1,549.6,201.5,550.5"/>
		<path class="st1" d="M192.6,550.5c0,0-10.7,2.1-10.7-5.5c0,0-3.4-3.8-4.4-6.5c0,0-0.1,0.3-0.2,1c0,0,0.4,0.7,1.7,1.3
			c0,0,0.9,1.2,0.6,2.8c0,0,0,2.8,2,4.1c0,0-4.4-0.2-6.3-4.1c0,0-0.8-2.3,0.8-4.2c0,0-0.2-1.5,0.3-3.5c0,0-1.1-3.7-1-5.6
			c0,0-0.1,0.3-0.4,0.7c0,0,0.9,0.8,1.1,2c0,0,0.2,1.8-0.6,3.2c0,0-1.1,2.1-1.5,4.5c0,0-5.9-7.3-0.2-9.9c0,0,1-2.8,1.6-3.8
			c0,0,0-2.5,1-6c0,0-0.9,1-1.1,1.1c0,0,1.1,2.4-1.1,5c0,0-3,3.2-4.5,4.1c0,0-2-11.4,4.7-9.9c0,0,2.1-2.5,2.9-3.3
			c0,0,0.9-2.4,2.7-5.3c0,0-1-0.1-1.5,0.7c0,0,0.7,3.2-3.3,4.6c0,0-2.9,1-4.8,2.9c0,0,0.5-11.2,7.2-8.6c0,0,0.9-0.8,3.6-1.3
			c0,0,1.4-2.1,3.3-3.8c0,0-0.7-0.2-1.4,0.2c0,0-2.1,6.3-9.4,2c0,0,1.6-0.4,4.1-2.8c0,0,2.5-2,5-0.3c0,0,2-0.5,3.3-0.4
			c0,0,2.8-2.4,3.1-2.7l1.3,2c0,0-1.4,0.5-3.9,2.8c0,0,0.1,0.2-0.1,0.6c0,0,0.2,0,0.7,1c0,0,0.8,0,2.3-1.5c0,0,3.1-2.7,5.6-1.3
			c0,0-1.5-0.2-3.3,3.3c0,0-2.6,3.6-5.4,0.7c0,0,0-0.6-0.2-0.9c0,0-0.2,0.8-0.3,1c0,0,2.4,2.3,0.8,4.6c0,0-1.5,1-1.2,4.1
			c0,0-2-0.7-3.1-4.4c0,0-0.6-3.2,2.4-4.5l0.2-0.7c0,0-2.1,2.5-3.3,4.3c0,0,0.1,2.7-0.1,3.3c0,0,3.5,2.2,1.3,5.1
			c0,0-1.1,1.8-0.5,4.9c0,0-5.9-4.5-2.2-9.8c0,0-0.1-1.1-0.2-1.2c0,0-1.5,3.1-1.8,5.2c0,0,0.3,1.8,1.5,4.9c0,0,3.7,1.9,1.5,5.6
			c0,0-0.7,2.4,0.1,4.6c0,0-6.7-4.4-2.8-10.2l-1-2c0,0-2,6.8,1.3,13.6c0,0,4.1,3.2,6.3,2.8c0,0,3.7-0.3,5.6,2.2c0,0-1.5-0.7-3.7,0.6
			c0,0-3.5,2-5.3-2.2c0,0-1.7-1.1-2-1.1c0,0,2,3.2,3,4.1c0,0,2.6-0.3,4.7,2.5C187.6,547,190,549.6,192.6,550.5"/>
		<path class="st1" d="M176.8,544.5c0,0,1.5-5.9,5.5-7.6c0,0-0.1,1.4-0.1,1.9l0.3,0.1c0,0,0.5,1.5,1.4,2.4c0,0,0.1-1.9,0.2-2.2
			c0,0,3.2,0.5,6.3,1.9c0,0,3.9,1.5,6.8,1.5c0,0,2.4,0.2,6.7-1.5c0,0,4.2-1.5,4.6-1.5c0,0,0.3,1.1,0.2,1.9c0,0,1.3-1.3,1.3-2.1
			c0,0,1.5-0.2,2-0.2L212,538c0,0,2.2,1.3,3.7,6.5c0,0,2.1-7.9-3.9-11.3l-0.1-0.2c0,0,3,0.1,6.6-2.2c0,0-3.7,0.7-6.7-0.5
			c0,0,0.9-12.5-14.6-23.9c0,0-9.6,7.6-12.5,15.1c0,0-2,5-2.1,11C182.5,532.3,174.9,534,176.8,544.5"/>
		<path class="st2" d="M207.2,510c0,0,0.1-1.2,1-1.5l0.2,0.2c0,0-0.9,0.6-1,1.4L207.2,510z"/>
		<path class="st2" d="M204.5,508.4c0,0,1.1,1.2,2.8,1.6c0,0,0,1.5-2.2,1.4c0,0-1.8,0.1-2.8-2c0,0-1.2-2.4-2.2-2.7
			C200.1,506.7,202.1,506.3,204.5,508.4"/>
		<path class="st2" d="M220.3,539.7c0,0-0.2-1.4-1.8-4.5c0,0-0.8-2.4,1-3.9c0,0-1.4-3.4-1.7-3.3c0,0-0.2-1.9,0-1.6c0,0,1.1,2,2,4.9
			C219.8,531.1,225.1,532.5,220.3,539.7"/>
		<path class="st1" d="M220.7,536.9c0,0,0.2-3.5-0.7-4.8c-0.2-0.3-0.2,0.2-0.2,0.2S220.4,533.5,220.7,536.9"/>
		<path class="st2" d="M213.2,517.5c0,0,4,3.8-1,8.8c0,0,0.3-2.1-1-4.5C211.3,521.8,209.7,519.5,213.2,517.5"/>
		<path class="st1" d="M213,522.2c0,0-0.7-3.7-0.2-3.9c0.4-0.2,0.1,0.2,0.1,0.2S212.9,518.9,213,522.2"/>
		<path class="st2" d="M213.4,518.2l0.3-4.3l-0.9-1.3l0.1,6L213.4,518.2z"/>
		<path class="st2" d="M215.2,526.6c0,0,3.8,4.2-1.6,9c0,0,0.5-2.2-0.7-4.6C212.8,531,211.3,528.4,215.2,526.6"/>
		<path class="st1" d="M214.7,531.4c0,0-0.4-3.9,0.1-4.1c0.4-0.1,0.1,0.2,0.1,0.2S214.7,528.1,214.7,531.4"/>
		<path class="st2" d="M214.8,527.4l2.2-4.7l-0.3-1.8l-2,6.3L214.8,527.4z"/>
		<path class="st2" d="M211.3,541c0,0,2.7-1.1,4.6-2.9l-0.4,1.2c0,0-3.7,1.7-4.1,2.4L211.3,541z"/>
		<path class="st2" d="M208.8,541.4c0,0,1.5,0.2,3.2-0.6c0,0,0.5,1.3-1.4,2.5c0,0-1.5,1.1-3.2,0.1c0,0-2-1.1-2.9-0.7
			C204.4,542.6,206,541.2,208.8,541.4"/>
		<path class="st2" d="M209.1,518.7c0,0,0.2-2.3-1.4-3.7c0,0-0.9-1-0.1-2.8c0,0,0.7-1.1,1.1-1.5c0,0,3.5,1.4,2.4,4.8
			C211.2,515.4,210.2,518.1,209.1,518.7"/>
		<path class="st1" d="M209.6,515.6c0,0,0.2-3.1-0.4-4.2c-0.2-0.3-0.2,0.2-0.2,0.2S209.3,511.3,209.6,515.6"/>
		<path class="st2" d="M208.7,511.2c0,0-1.2-3.3-0.9-4.6l0.7,1c0,0,0,2.8,0.6,3.5L208.7,511.2z"/>
		<path class="st2" d="M213.9,547.1c0,0,0.9-0.8,1.1-3.5c0,0-0.4-1.9,1.1-2.8c0,0,0.9-0.5,1.4-1.3c0,0,1.9,1.4,1,4
			C218.4,543.6,217.3,546.3,213.9,547.1"/>
		<path class="st1" d="M216.6,543.6c0,0,1.1-2.9,0.8-3.2c-0.2-0.2-0.2,0.1-0.2,0.1S217.2,541.9,216.6,543.6"/>
		<path class="st2" d="M216.7,537c0,0,0.8,2.5,0.6,3l0.2,0.2c0,0,0.7-1.4-0.2-4.2L216.7,537z"/>
		<path class="st2" d="M203,550.2c0,0,3.3-1.7,4.2-3.3c0,0,1.9-2.5,4.6-2C211.9,545,212.8,551.1,203,550.2"/>
		<path class="st1" d="M207.4,548.5c0,0,3.7-2.3,3.7-2.7c0-0.3-0.2-0.1-0.2-0.1S209.6,547,207.4,548.5"/>
		<path class="st2" d="M219.6,509.4c0,0-1.4-0.4-3.7-2.5c0,0-2.4-1.6-4.6-0.2c0,0-2.3-0.6-3.5-0.4c0,0,0.2,0.2,0.3,0.6
			c0,0,2.2-0.3,3.1,0.2C211.2,507.1,213,512.7,219.6,509.4"/>
		<path class="st1" d="M216.4,508.9c0,0-3.8-0.8-4.3-1.5c-0.2-0.3,0.2-0.2,0.2-0.2S213.2,507.9,216.4,508.9"/>
		<path class="st2" d="M223,519.7c0,0-1.1-1.1-4.6-2.4c0,0-3.2-1.2-2.5-4.1c0,0-0.2-1.4-3.6-1.1c0,0-0.3-0.5-0.6-1
			c0,0,3.5,0.5,4.5,1.5C216.3,512.7,221.7,509.3,223,519.7"/>
		<path class="st1" d="M220.9,517c0,0-3.4-3.9-4-3.8c-0.4,0.1,0.2,0.4,0.2,0.4S219.1,515.2,220.9,517"/>
		<path class="st2" d="M223.9,530.3c0,0-1.7-1.2-3.5-3.3c0,0-2.4-2-1.2-5.1c0,0-2.7-2.8-2.8-2.4c0,0-0.9-1.9-0.5-1.9
			c0,0,2,1.9,3.6,3.9C219.5,521.6,225.3,519.2,223.9,530.3"/>
		<path class="st1" d="M222.6,527.1c0,0-2.1-4.3-2.5-4.7c-0.2-0.2-0.1,0.3-0.1,0.3S221.2,524.8,222.6,527.1"/>
		<path class="st2" d="M210.9,545.6c0,0,4.2-4.4,4.6-7.1c0,0,3-5.1,1.7-12.7c0,0-1.5-8.3-3.4-10.6c0,0-5.1-8.3-9.6-10.3l0.8-1.2
			c0,0,6.3,4.5,9.6,10.7c0,0,3.2,5.2,3.6,12c0,0,1,6.2-2,12.5c0,0-0.5,1.6-4.9,6.8L210.9,545.6z"/>
		<path class="st2" d="M187,510c0,0-0.1-1.2-1-1.5l-0.2,0.2c0,0,0.9,0.6,1,1.4L187,510z"/>
		<path class="st2" d="M189.7,508.4c0,0-1.1,1.2-2.8,1.6c0,0,0,1.5,2.2,1.4c0,0,1.8,0.1,2.8-2c0,0,1.2-2.4,2.2-2.7
			C194,506.7,192.1,506.3,189.7,508.4"/>
		<path class="st2" d="M173.9,539.7c0,0,0.2-1.4,1.8-4.5c0,0,0.8-2.4-1-3.9c0,0,1.4-3.4,1.7-3.3c0,0,0.2-1.9,0-1.6c0,0-1.1,2-2,4.9
			C174.4,531.1,169,532.5,173.9,539.7"/>
		<path class="st1" d="M173.5,536.9c0,0-0.2-3.5,0.7-4.8c0.2-0.3,0.2,0.2,0.2,0.2S173.7,533.5,173.5,536.9"/>
		<path class="st2" d="M181,517.5c0,0-4,3.8,1,8.8c0,0-0.3-2.1,1-4.5C182.9,521.8,184.5,519.5,181,517.5"/>
		<path class="st1" d="M181.1,522.2c0,0,0.7-3.7,0.2-3.9c-0.4-0.2-0.1,0.2-0.1,0.2S181.3,518.9,181.1,522.2"/>
		<path class="st2" d="M180.8,518.2l-0.3-4.3l0.9-1.3l-0.1,6L180.8,518.2z"/>
		<path class="st2" d="M179,526.6c0,0-3.8,4.2,1.6,9c0,0-0.5-2.2,0.7-4.6C181.3,531,182.8,528.4,179,526.6"/>
		<path class="st1" d="M179.5,531.4c0,0,0.4-3.9-0.1-4.1c-0.4-0.1-0.1,0.2-0.1,0.2S179.5,528.1,179.5,531.4"/>
		<path class="st2" d="M179.4,527.4l-2.2-4.7l0.3-1.8l2,6.3L179.4,527.4z"/>
		<path class="st2" d="M182.9,541c0,0-2.7-1.1-4.6-2.9l0.4,1.2c0,0,3.7,1.7,4.1,2.4L182.9,541z"/>
		<path class="st2" d="M185.4,541.4c0,0-1.5,0.2-3.2-0.6c0,0-0.5,1.3,1.4,2.5c0,0,1.5,1.1,3.2,0.1c0,0,2-1.1,2.9-0.7
			C189.7,542.6,188.2,541.2,185.4,541.4"/>
		<path class="st2" d="M185.1,518.7c0,0-0.2-2.3,1.4-3.7c0,0,0.9-1,0.1-2.8c0,0-0.7-1.1-1.1-1.5c0,0-3.5,1.4-2.4,4.8
			C183,515.4,184,518.1,185.1,518.7"/>
		<path class="st1" d="M184.6,515.6c0,0-0.2-3.1,0.4-4.2c0.2-0.3,0.2,0.2,0.2,0.2S184.9,511.3,184.6,515.6"/>
		<path class="st2" d="M185.5,511.2c0,0,1.2-3.3,0.9-4.6l-0.7,1c0,0,0,2.8-0.6,3.5L185.5,511.2z"/>
		<path class="st2" d="M180.2,547.1c0,0-0.9-0.8-1.1-3.5c0,0,0.4-1.9-1.1-2.8c0,0-0.9-0.5-1.4-1.3c0,0-1.9,1.4-1,4
			C175.7,543.6,176.9,546.3,180.2,547.1"/>
		<path class="st1" d="M177.6,543.6c0,0-1.1-2.9-0.8-3.2c0.2-0.2,0.2,0.1,0.2,0.1S177,541.9,177.6,543.6"/>
		<path class="st2" d="M177.5,537c0,0-0.8,2.5-0.6,3l-0.2,0.2c0,0-0.7-1.4,0.2-4.2L177.5,537z"/>
		<path class="st2" d="M191.2,550.2c0,0-3.3-1.7-4.2-3.3c0,0-1.9-2.5-4.6-2C182.3,545,181.4,551.1,191.2,550.2"/>
		<path class="st1" d="M186.7,548.5c0,0-3.7-2.3-3.7-2.7c0-0.3,0.2-0.1,0.2-0.1S184.5,547,186.7,548.5"/>
		<path class="st2" d="M174.6,509.4c0,0,1.4-0.4,3.7-2.5c0,0,2.4-1.6,4.6-0.2c0,0,2.3-0.6,3.5-0.4c0,0-0.2,0.2-0.3,0.6
			c0,0-2.2-0.3-3.1,0.2C183,507.1,181.2,512.7,174.6,509.4"/>
		<path class="st1" d="M177.8,508.9c0,0,3.8-0.8,4.3-1.5c0.2-0.3-0.2-0.2-0.2-0.2S181,507.9,177.8,508.9"/>
		<path class="st2" d="M171.2,519.7c0,0,1.1-1.1,4.6-2.4c0,0,3.2-1.2,2.5-4.1c0,0,0.2-1.4,3.6-1.1c0,0,0.3-0.5,0.6-1
			c0,0-3.5,0.5-4.5,1.5C177.9,512.7,172.4,509.3,171.2,519.7"/>
		<path class="st1" d="M173.3,517c0,0,3.4-3.9,4-3.8c0.4,0.1-0.2,0.4-0.2,0.4S175.1,515.2,173.3,517"/>
		<path class="st2" d="M170.2,530.3c0,0,1.7-1.2,3.5-3.3c0,0,2.4-2,1.2-5.1c0,0,2.7-2.8,2.8-2.4c0,0,0.9-1.9,0.5-1.9
			c0,0-2,1.9-3.6,3.9C174.7,521.6,168.9,519.2,170.2,530.3"/>
		<path class="st1" d="M171.6,527.1c0,0,2.1-4.3,2.5-4.7c0.2-0.2,0.1,0.3,0.1,0.3S173,524.8,171.6,527.1"/>
		<path class="st2" d="M183.3,545.6c0,0-4.2-4.4-4.6-7.1c0,0-3-5.1-1.7-12.7c0,0,1.5-8.3,3.4-10.6c0,0,5.1-8.3,9.6-10.3l-0.8-1.2
			c0,0-6.3,4.5-9.6,10.7c0,0-3.2,5.2-3.6,12c0,0-1,6.2,2,12.5c0,0,0.5,1.6,4.9,6.8L183.3,545.6z"/>
		<path class="st2" d="M193.7,547.1c0-0.5-0.3-0.9-1.1-1.1c-0.3-0.2-0.7-0.3-1-0.4c-0.4-0.2-0.7-0.3-0.9-0.5
			c0.2,0.1,0.3,0.2,0.6,0.2c0.2,0,0.4,0,0.7-0.2c0.2-0.1,0.4-0.2,0.7-0.2c0.1,0,0.2,0.1,0.3,0.2c0.1,0.1,0.2,0.2,0.3,0.3l0,0
			c0-0.1-0.2-0.2-0.4-0.5c-0.3-0.2-0.6-0.4-0.9-0.4c-0.2,0-0.5,0.1-0.8,0.3c-0.2,0.1-0.3,0.2-0.4,0.2c-0.2,0-0.2-0.1-0.3-0.2
			c-0.1-0.2-0.2-0.2-0.2-0.2s0,0-0.1,0l0,0c0,0.1,0,0.1,0,0.2s0.1,0.2,0.2,0.3c0.1,0.1,0.2,0.2,0.3,0.3c0.1,0.1,0.3,0.2,0.7,0.6
			c0.5,0.3,0.9,0.7,1.1,0.9c0.2,0.3,0.4,0.6,0.4,0.9c0,0.2-0.2,0.4-0.4,0.4c-0.2,0-0.6-0.1-0.8-0.3c-0.2-0.2-0.3-0.2-0.4-0.4
			c-0.1-0.2-0.2-0.3-0.2-0.4c0-0.2,0.1-0.2,0.2-0.2c0.2,0,0.3,0.1,0.4,0.2c0.2,0.2,0.2,0.3,0.4,0.5c0,0,0.1,0,0.1-0.1
			c0-0.1-0.1-0.2-0.2-0.4c-0.2-0.2-0.4-0.3-0.7-0.3c-0.2,0-0.3,0.1-0.3,0.3c0,0.3,0.2,0.6,0.5,0.9c0.4,0.3,0.8,0.5,1.2,0.5
			c0.3,0,0.6-0.1,0.8-0.2C193.6,547.5,193.7,547.3,193.7,547.1"/>
		<path class="st2" d="M196.9,547.2c0,0.3-0.2,0.5-0.4,0.5c-0.2,0-0.3-0.1-0.5-0.2c-0.2-0.2-0.3-0.3-0.5-0.7
			c-0.3-0.6-0.7-1.1-0.8-1.5s-0.2-0.7-0.2-0.8c0-0.2,0.1-0.4,0.4-0.4s0.7,0.2,1.1,0.8c0.3,0.4,0.6,0.9,0.8,1.3
			C196.9,546.7,196.9,547.1,196.9,547.2 M197.3,547.1c0-0.3-0.1-0.7-0.2-1c-0.2-0.3-0.5-0.7-0.8-1.1c-0.6-0.6-1-0.8-1.4-0.8
			c-0.2,0-0.5,0.1-0.7,0.3c-0.2,0.2-0.2,0.5-0.2,0.8c0,0.7,0.4,1.3,1.2,2c0.6,0.4,1,0.7,1.5,0.7c0.2,0,0.4-0.1,0.6-0.2
			C197.2,547.6,197.3,547.3,197.3,547.1"/>
		<path class="st2" d="M200.4,547.2c0,0.3-0.2,0.5-0.4,0.5c-0.2,0-0.3-0.1-0.5-0.2c-0.2-0.2-0.3-0.3-0.5-0.7
			c-0.3-0.6-0.7-1.1-0.8-1.5s-0.2-0.7-0.2-0.8c0-0.2,0.2-0.4,0.4-0.4c0.3,0,0.7,0.2,1.1,0.8c0.3,0.4,0.6,0.9,0.8,1.3
			C200.3,546.7,200.4,547.1,200.4,547.2 M200.8,547.1c0-0.3-0.1-0.7-0.2-1c-0.2-0.3-0.5-0.7-0.8-1.1c-0.6-0.6-1-0.8-1.5-0.8
			c-0.2,0-0.5,0.1-0.7,0.3c-0.2,0.2-0.2,0.5-0.2,0.8c0,0.7,0.4,1.3,1.2,2c0.6,0.4,1,0.7,1.5,0.7c0.2,0,0.4-0.1,0.6-0.2
			C200.7,547.6,200.8,547.3,200.8,547.1"/>
		<path class="st2" d="M204.1,547.1c0-0.5-0.3-0.9-1.1-1.1c-0.3-0.2-0.7-0.3-1-0.4c-0.4-0.2-0.7-0.3-0.9-0.5
			c0.2,0.1,0.3,0.2,0.6,0.2c0.2,0,0.4,0,0.7-0.2c0.2-0.1,0.4-0.2,0.7-0.2c0.1,0,0.2,0.1,0.3,0.2c0.1,0.1,0.2,0.2,0.3,0.3h0.1
			c0-0.1-0.2-0.2-0.4-0.5c-0.3-0.2-0.6-0.4-0.9-0.4c-0.2,0-0.5,0.1-0.8,0.3c-0.2,0.1-0.3,0.2-0.4,0.2c-0.2,0-0.2-0.1-0.3-0.2
			c-0.1-0.2-0.2-0.2-0.2-0.2s0,0-0.1,0l0,0c0,0.1,0,0.1,0,0.2s0.1,0.2,0.2,0.3c0.1,0.1,0.2,0.2,0.3,0.3c0.1,0.1,0.3,0.2,0.7,0.6
			c0.5,0.3,0.9,0.7,1.1,0.9c0.2,0.3,0.4,0.6,0.4,0.9c0,0.2-0.2,0.4-0.4,0.4c-0.2,0-0.6-0.1-0.8-0.3c-0.2-0.2-0.3-0.2-0.4-0.4
			c-0.1-0.2-0.2-0.3-0.2-0.4c0-0.2,0.1-0.2,0.2-0.2c0.2,0,0.3,0.1,0.4,0.2c0.2,0.2,0.2,0.3,0.4,0.5c0,0,0.1,0,0.1-0.1
			c0-0.1-0.1-0.2-0.2-0.4c-0.2-0.2-0.4-0.3-0.7-0.3s-0.3,0.1-0.3,0.3c0,0.3,0.2,0.6,0.5,0.9c0.4,0.3,0.8,0.5,1.2,0.5
			c0.3,0,0.6-0.1,0.8-0.2C203.9,547.5,204.1,547.3,204.1,547.1"/>
		<path class="st1" d="M192.1,501.7l-1.1-3.1h1.9l0.2,0.6h3.6l1,2.6L192.1,501.7L192.1,501.7z"/>
		<path class="st1" d="M202.2,501.7h-3.2c-1,0-2-0.7-2.3-1.5c-0.2-0.4-0.1-0.8,0.1-1.1c0.2-0.3,0.7-0.6,1.2-0.6h3.9l0.6,1.5h-3.9
			c-0.2,0,0,0.2,0.2,0.2h3.7l0.5,1.5L202.2,501.7L202.2,501.7z"/>
		<path class="st2" d="M192.6,499h-1.1l0.9,2.4h4.8l-0.3-0.8h-3.7l-0.2-0.3h3.6l-0.2-0.7h-3.6L192.6,499z"/>
		<path class="st2" d="M198.2,498.9c-0.8,0-1.3,0.6-1.1,1.2c0.2,0.7,1.1,1.2,2,1.2h3.7l-0.2-0.8H199c-0.3,0-0.7-0.2-0.7-0.5
			c-0.1-0.2,0.1-0.5,0.4-0.5h3.5l-0.3-0.8h-3.7V498.9z"/>
		<path class="st1" d="M187,504.4c-0.1-0.2-0.2-0.5-0.3-0.8c0,0-0.1-0.1-0.2-0.1H185c0.2,0.4,0.2,0.6,0.3,0.8L187,504.4L187,504.4z
			 M183.6,505.7l-1.1-2.8l0.8-1.1h3.3c0.9,0,1.8,0.6,2,1.2l0.6,1.5c0.2,0.4,0.1,0.7-0.2,1.1c-0.2,0.4-0.7,0.6-1.3,0.6h-3h-1.1
			L183.6,505.7z"/>
		<path class="st1" d="M205.1,506h-3.5c-0.9,0-1.8-0.6-2-1.2l-0.5-1.4c-0.2-0.4-0.1-0.8,0.2-1.1c0.2-0.4,0.7-0.6,1.3-0.6h3.1
			l1.2,0.7l0.8,2.3h-0.1c0.1,0.2,0.5,1.2,0.5,1.2H205.1L205.1,506z"/>
		<path class="st1" d="M210.8,506h-1.5c0,0-0.9-2.4-0.9-2.5c0,0-0.1-0.1-0.2-0.1h-1.4c0.2,0.5,1,2.6,1,2.6h-2.3l-1-2.7
			c-0.2-0.4-0.1-0.7,0.2-1.1c0.2-0.4,0.7-0.6,1.3-0.6h2.5c0.9,0,1.8,0.6,2,1.3l1.1,3.1L210.8,506L210.8,506z"/>
		<path class="st1" d="M199.7,506h-4.8l-1.2-3.3l1-1h4.5l0.7,1.7h-0.1l0.5,1.3l0,0c0.1,0.1,0.5,1.2,0.5,1.2L199.7,506L199.7,506z"/>
		<path class="st1" d="M190.9,506.1c-0.9,0-1.8-0.6-2-1.3l-1.1-3.1h2.3c0,0,0.3,1,0.5,1.3h1.4c-0.1-0.2-0.5-1.3-0.5-1.3h2.3l1,2.7
			c0.2,0.4,0.1,0.7-0.2,1.1c-0.2,0.4-0.7,0.6-1.3,0.6L190.9,506.1L190.9,506.1z"/>
		<path class="st2" d="M187.3,503.3c-0.1-0.2-0.4-0.4-0.7-0.4h-2.4l0.7,2h2.4c0.3,0,0.5-0.2,0.4-0.4L187.3,503.3z M187.8,505.5h-3.7
			l-1-2.6l0.5-0.7h3c0.7,0,1.3,0.4,1.5,0.8l0.6,1.5C188.8,505.1,188.5,505.5,187.8,505.5"/>
		<path class="st2" d="M204.7,504.2h-2.9l-0.2-0.6h2l-0.2-0.7H201c-0.3,0-0.5,0.2-0.4,0.4l0.4,1.1c0.1,0.2,0.4,0.4,0.7,0.4h3.2
			l0.2,0.6h-3.5c-0.7,0-1.3-0.4-1.5-0.9l-0.5-1.4c-0.2-0.5,0.2-0.9,0.8-0.9h2.9l0.9,0.6L204.7,504.2z"/>
		<path class="st2" d="M210,503.1c-0.2-0.5-0.8-0.9-1.5-0.9H206c-0.7,0-1.1,0.4-0.8,0.9l0.8,2.4h1.1l-0.8-2.2
			c-0.1-0.2,0.1-0.4,0.4-0.4h1.7c0.3,0,0.6,0.2,0.7,0.4l0.8,2.2h1.1L210,503.1z"/>
		<path class="st2" d="M195.2,505.4h4.4l-0.2-0.6H196l-0.2-0.7h3.4l-0.2-0.6h-3.3l-0.2-0.7h3.4l-0.2-0.6h-3.8l-0.5,0.5L195.2,505.4z
			"/>
		<path class="st2" d="M190.3,504.2l0.1,0.3c0.1,0.2,0.4,0.5,0.7,0.5h1.5c0.3,0,0.4-0.2,0.3-0.5l-0.1-0.3H190.3z M193.3,505.5h-2.4
			c-0.7,0-1.3-0.4-1.5-0.9l-0.8-2.4h1l0.5,1.3h2.6l-0.5-1.3h1.1l0.8,2.4C194.2,505.1,193.9,505.5,193.3,505.5"/>
		<path class="st3" d="M197.2,541.9c4.9,0,9.7-3.5,14.6-3.5c-0.7-12.2,0.5-19-14.6-31.5c-15.1,12.4-13.9,19.3-14.6,31.5
			C187.5,538.4,192.3,541.9,197.2,541.9"/>
		<path class="st1" d="M197.2,540.8c4.5,0,8.9-3.3,13.4-3.3c-0.6-11.3,0.5-17.6-13.4-29.1c-13.9,11.6-12.9,17.8-13.4,29.1
			C188.2,537.5,192.7,540.8,197.2,540.8"/>
		<path class="st4" d="M197.2,540.3c4.3,0,8.7-3.1,13-3.1c-0.6-10.9,0.5-17.1-13-28.2c-13.5,11.1-12.4,17.2-13,28.2
			C188.5,537.1,192.8,540.3,197.2,540.3"/>
		<path class="st5" d="M202.3,524.4c-2.6-2.6-6.6-1.5-8.1,0.9c-1,1.6-0.9,3.3-0.2,4.3s1.6,1.7,3.3,1.8c2.1,0.2,4-1.9,3-4.1
			s-3.7-2.2-5.2-0.7C195.5,524.1,198.8,522.1,202.3,524.4 M187.1,526.6c0.2-4.1,2.8-6.3,5.5-8.8c2.4-2.1,3-4.4,3.5-6.8
			c0.7,2.3,0.8,4.7-0.2,6.4c2.9-1.8,6.5-1.3,9.4,0.4c-1.5-0.1-3.5-0.1-4.7,0.5c5.8,1.2,6.2,5.5,8.1,9.4c1.7,3.7,5.4,3.5,8,3.4
			c-4.1,2-8.7,1.7-11.2-2c1.3,2.7,3.4,3.2,5.9,4.1c3.1,1.1,4.9,5.9,4.2,9.5c-1.5-4.1-3.1-5.6-6.7-7.1c0.9,0.7,1.3,2.7,0.2,4.1
			c-0.1-1.3-0.7-2.4-1.8-3.3c-2.4-1.9-2.8-2.6-3-5.7c-0.9,5.1-7.3,6.8-11.6,4.6c0.2,1.1-0.9,2.8-2,3.5c0.2-1.7-0.1-3.3-1.3-5.1
			C187.9,531.8,187,529.4,187.1,526.6"/>
		<path class="st5" d="M187.2,527.4c-0.2,4.5-3.3,4.9-5.9,5.9c-3.3,1.4-4.9,6-4.3,9.6c1.5-4.1,3.1-5.6,6.7-7.1
			c-0.9,0.7-1.3,2.7-0.2,4.1c0.1-1.3,0.7-2.4,1.8-3.3C187.6,534.8,189.1,533.2,187.2,527.4"/>
		<path class="st6" d="M211.2,534c2.2,0.9,3.7,4.1,4.1,6.8c0,0-1.2-3.3-4.6-4.7c-3.4-1.3-4.4-3.1-5.3-6.1
			C206.5,532.7,209,533.1,211.2,534"/>
		<path class="st6" d="M181.5,534c-2.2,0.9-3.7,4.1-4.1,6.8c0,0,1.2-3.3,4.6-4.7c3.4-1.3,4.4-3.1,5.3-6.1
			C186,532.7,183.7,533.1,181.5,534"/>
		<path class="st6" d="M207.8,535.3c1.1,0.8,1.7,2.4,1.5,3.5c0,0-0.2-1.6-1.9-2.8c-1.7-1.2-2-2.2-2-3.6
			C205.6,533.7,206.7,534.5,207.8,535.3"/>
		<path class="st6" d="M184.9,535.3c-1.1,0.8-1.7,2.4-1.5,3.5c0,0,0.2-1.6,2-2.8c1.7-1.2,2-2.2,2-3.6
			C187.1,533.7,186,534.5,184.9,535.3"/>
		<path class="st6" d="M203.9,529.6c-0.3,5.5-7,7.7-11.8,5c0,0,0.6,1.8-0.7,3.3c0.2-1.8-0.2-2.8-1.7-5c-1.5-2-2.4-5-1.5-8
			c0.7-3.1,3.3-5.2,4.5-6.1c1.1-1,2.9-2.4,3.6-5.5c0.1,3.3-0.7,4.6-2.3,6.3c4.6-4.1,9.4-2.3,9.4-2.3c-3.1-0.1-4.9,1.1-5.5,1.6
			c1.5-0.6,4.2,0.2,5.6,1.2c2.5,1.9,3.6,5.3,4.4,7.4c0.8,1.9,2.9,4.4,6.7,4c-4.1,1.2-7.8-0.6-9.6-4.3c-1.6-3.5-3.1-4.6-5.4-5
			c-2.2-0.4-4.8,0.8-6,2.6c0.2-1.5,2.4-4.3,6.1-4.2c-4.1-0.8-6.7,2.4-7.3,4.4c-1.1,3.7,0.9,7.2,4.9,7.8c-0.9-0.3-2.3-1.1-2.7-2
			c0.7,0.7,2.1,1.3,3.7,1c1.5-0.2,3-1.5,3-3.7c0-2.3-2.7-4.2-5-2.8c0.6-1.1,2.8-1.9,4.5-1.3C202.3,524.8,204.1,526.6,203.9,529.6"/>
	</g>
</g>
<g id="레이어_1">
</g>
<rect x="8" y="34.8" class="st0" width="234" height="180.4"/>
</svg>
