<?xml version="1.0" encoding="utf-8"?>
<!-- Generator: Adobe Illustrator 25.1.0, SVG Export Plug-In . SVG Version: 6.00 Build 0)  -->
<svg version="1.1" id="Layer_1" xmlns="http://www.w3.org/2000/svg" xmlns:xlink="http://www.w3.org/1999/xlink" x="0px" y="0px"
	 viewBox="0 0 250 250" style="enable-background:new 0 0 250 250;" xml:space="preserve">
<style type="text/css">
	.st0{fill:#114540;fill-opacity:0;}
	.st1{fill:#FFE900;}
	.st2{fill:#FFFFFF;}
	.st3{fill:#9F2943;}
	.st4{fill:#007D6F;}
	.st5{fill:#002F6D;}
	.st6{fill:none;}
</style>
<g id="Layer_1_1_">
	<g>
		<path class="st0" d="M65.8,34.2h118.4v181.5H65.8V34.2z"/>
		<path class="st1" d="M179.4,116.5c-15.8-9.6-34.5-15.4-44.3-18l-2.8-0.8c10.6-4,16.2-22,6.5-30.6c1.7-2.4,1.7-5.3,1.3-7.9
			c3.1-5,0.1-8.5-3.9-9.1c-2.1-4.1-15.3-4.7-11.3-0.7c-8.8,4.5-14,10.9-14.7,12.3c-5.3-10-19.6-19.1-34.1-25.1
			c-0.6,6.2,0.8,11,8.5,19c0.5,7.6,5.5,4.2,11.6,11.9c8.8,14.7,6.3,24.8,20.8,30.4l-3,0.8c-11.6,3.2-28.5,8.8-43,17.7l-3.1,1.9v42.5
			c0,17.6,10,32.2,28.8,42.4c13.5,7.3,26.8,9.7,27.3,9.8l1.1,0.2l1.1-0.2c0.5-0.1,13.8-2.5,27.3-9.8c18.9-10.2,28.8-24.8,28.8-42.4
			v-42.5L179.4,116.5z"/>
		<path class="st2" d="M77.9,124v36.8c0,31.2,41.6,41,47.3,42.2c5.7-1.2,47.3-10.9,47.3-42.2V124c-19-11.1-42.8-16.7-47.3-17.7
			C120.7,107.3,96.9,112.9,77.9,124"/>
		<path class="st3" d="M128.1,109.7h-5.9l-2.1,39.5l-39.5,2.1v5.9l39.5,2.1l10.1-10.1L128.1,109.7z"/>
		<path class="st4" d="M130.2,149.2l-10.1,10.1l2.1,39.5h5.9l2.1-39.5l39.5-2.1v-5.9L130.2,149.2z"/>
		<path class="st5" d="M96.2,129.6h10.1c1.9,0,3.6,0,3.6,5.3c0,5.3-1.7,5.3-3.6,5.3H96.2V129.6z M91.9,144.4h14.4c2,0,7.9,0,7.9-9.6
			s-6-9.6-7.9-9.6H91.9V144.4z"/>
		<path class="st5" d="M136,173.7c0,9.6,6,9.6,7.9,9.6h14.4V179H144c-1.9,0-3.6,0-3.6-5.3c0-5.3,1.7-5.3,3.6-5.3h13l1.4-4.3H144
			C142,164.1,136,164.1,136,173.7"/>
		<path class="st5" d="M158.4,125.3h-4.3v6.3h-12.5l1.4,4.3h11.1v8.5h4.3L158.4,125.3L158.4,125.3z"/>
		<path class="st5" d="M140.3,125.3H136v19.2h4.3V125.3z"/>
		<path class="st5" d="M98.8,176h13v-4.3H97.4L98.8,176z"/>
		<path class="st5" d="M96.2,168.4h16.6v-4.3H91.9v19.2h4.3C96.2,183.3,96.2,168.4,96.2,168.4z"/>
		<path class="st5" d="M172.3,160.9c0,31.2-41.6,41-47.3,42.2c-5.7-1.2-47.3-10.9-47.3-42.2V124c19-11.1,42.8-16.7,47.3-17.7
			c4.5,1,28.2,6.6,47.3,17.7V160.9z M128.4,60.5c0.8-0.7,2.9-0.4,4.8,0.9c-0.2-0.1-0.5-0.1-0.6-0.1c-1.4,0-2.6,1.1-2.6,2.6
			c0,0.6,0.2,1.1,0.5,1.5C126.5,63.5,127,61.5,128.4,60.5 M177.9,118.9c-18.5-11.3-41.2-17.3-49.2-19.2v-4.1
			c0.8-0.2,10.2-2.3,12.1-13.4c1.4-8.5-3.9-14-8-15.8c1.3-0.2,2.3-1.2,2.3-2.6c0-0.4-0.1-0.7-0.2-1.1c0.6,0.7,1.1,1.4,1.5,2.3
			c0,0,2-2.4,0.2-7.2c0,0,1.1-0.2,1.5-1.3c0.4-0.9,0.8-2.9-1.7-3.7c-0.9-0.3-1.8,0.5-2.9-1.4c-0.3-0.6-0.8-1.2-1.6-1.4
			c-2.3-0.7-2.4,0.9-1.7,2.6c0.2,0.4,0.2,0.8,0.2,1.1c0,0-2.7-0.4-5.1,1c-0.3-0.6-0.5-1.4-0.2-2.3c0,0-3.2,0.9-2.7,5.6
			c-2.3,5.1,2.2,9.1,2.2,9.1s-6.4-0.3-7-10.2c0,0-6.9,3.5-3.5,15c0.8,2.9,3.9,4.8,3.9,4.8s-1.7,0.8-3.5-0.8c0,0,0,4.9,6.9,5.9
			c0,0-1.7,3,3.5,2.6c0,0-3.3,2.2-7.5-0.1c-4.2-2.3-5.2-5.9-6.9-14c-1.8-9.1-9.5-19.5-31.5-29.3c0,0,0.2,4.7,6,11
			c4,4.3,8.3,3.8,13.2,9.4c0,0-5.5-4.3-9.5-2.9c0,0,12.4,4.6,15.1,18.1c2.6,13.4,10.7,17.7,17.7,19.3v3.6
			c-7.9,1.9-30.7,7.9-49.2,19.2l-1.7,1.1v40.9c0,16.5,9.4,30.3,27.3,39.9c13.1,7,26,9.4,26.5,9.5l0.6,0.1l0.6-0.1
			c0.5-0.1,13.4-2.4,26.5-9.5c17.9-9.7,27.3-23.4,27.3-39.9V120L177.9,118.9z"/>
		<path class="st1" d="M130.1,75.5c0,0-7.4-0.5-9.9-7.4c0,0,7.1,3.8,13.7,2c0,0,6.3,3.8,4,13.5c0,0-1-3.3-2.8-4.6
			c0,0-4.9,1.4-9.4-1.6C125.6,77.4,128.6,76.8,130.1,75.5"/>
		<path class="st1" d="M84.4,46.3c0,0,9.1,3.9,16.3,11.7c3.8,4.1,6.9,9.4,8.3,15.9l-5-5.8c0,0-0.8-10.7-15-15.9
			C89,52.2,85.9,49.3,84.4,46.3"/>
		<path class="st1" d="M130.7,55.5c4.8,0.9,5.3,4.7,5.3,4.7c-2.3-3.2-2.7-1.1-2.7-1.1s-0.8-0.5-1.4-1.2
			C130.9,56.6,130.7,55.5,130.7,55.5"/>
	</g>
</g>
<g id="레이어_1">
</g>
<rect x="8" y="34.8" class="st6" width="234" height="180.4"/>
</svg>
