<?xml version="1.0" encoding="utf-8"?>
<!-- Generator: Adobe Illustrator 25.1.0, SVG Export Plug-In . SVG Version: 6.00 Build 0)  -->
<svg version="1.1" id="Layer_1" xmlns="http://www.w3.org/2000/svg" xmlns:xlink="http://www.w3.org/1999/xlink" x="0px" y="0px"
	 viewBox="0 0 250 250" style="enable-background:new 0 0 250 250;" xml:space="preserve">
<style type="text/css">
	.st0{fill:none;}
	.st1{fill:#FABF00;}
	.st2{fill:#DC5310;}
	.st3{fill:#00615A;}
	.st4{fill:#002928;}
	.st5{fill:#EFEFF0;}
</style>
<g id="Layer_1_1_">
	<rect x="33.7" y="33.7" class="st0" width="182.6" height="182.6"/>
	<g>
		<path class="st1" d="M201.9,76.9l-5.9,0.4h-0.5c-9.8,0.5-18.7-5.6-21.7-14.8c-0.5-1.6-0.8-3.2-0.7-4.8c0-0.8,0.2-1.6,0.3-2.4
			l0.8-3.4l-3.2-2.5c-7.6-5.9-23.6-15.8-45-15.8c-21.5,0.1-37.5,9.9-45,15.8l-3.3,2.6l0.8,3.4c0.2,0.8,0.3,1.6,0.3,2.4
			c0,1.6-0.2,3.2-0.7,4.8c-3,9.1-11.9,15.1-21.8,14.8L49.8,77v7.4c0,7.3,0.8,32.7,10.4,57.5c11.3,29,30.5,52.3,57.2,69.4
			c1.9,1.2,3.7,2.3,5.6,3.4l2.8,1.6l2.8-1.6c1.9-1.1,3.7-2.3,5.6-3.4c26.7-17.1,46-40.4,57.2-69.4c9.7-24.8,10.5-50.3,10.5-57.5
			L201.9,76.9L201.9,76.9z"/>
		<path class="st2" d="M125.9,39.2c-19.6,0-34.2,8.8-41.6,14.7c16.4,30.2,35,104.9,36.2,152.7c1.8,1.2,3.6,2.3,5.5,3.4
			c1.9-1.1,3.7-2.2,5.5-3.4c1.2-47.9,19.7-122.5,36.2-152.7C160,48.1,145.4,39.2,125.9,39.2z"/>
		<path class="st3" d="M196.3,82.9c-0.2,0-0.5,0-0.7,0c-12.3,0.5-23.5-7.3-27.2-18.6c-0.7-2.3-1.1-4.4-1-6.6c0-1.2,0.2-2.3,0.4-3.5
			c-0.2-0.2-0.3-0.2-0.5-0.4c-16.4,30.2-35,104.9-36.2,152.7c25.7-16.4,44.2-38.9,55.1-66.7c9-23,10.1-47.1,10.1-55.5
			c0-0.2,0-0.5,0-0.8C196.3,83.3,196.3,83.1,196.3,82.9L196.3,82.9z M83.7,54.2c0.2,1.2,0.4,2.3,0.4,3.5c0.1,2.2-0.3,4.4-1,6.6
			c-3.7,11.3-14.8,19-27.2,18.5c-0.2,0-0.5,0-0.7,0c0,0.2,0,0.5,0,0.8c0,0.2,0,0.5,0,0.8c0,8.4,1.1,32.5,10.1,55.5
			c10.8,27.9,29.4,50.3,55.1,66.7c-1.2-47.9-19.7-122.5-36.2-152.7C84,54,83.9,54.1,83.7,54.2z"/>
		<g>
			<path class="st4" d="M117.6,157.6v-3.8h5.3v-5.7l3,1.6v10.5l3.7,3.9h11.9l3.7-3.9v-22.7l-3.6-3.6h-12.2l-3.6,3.6l-3.1-3.6h-19.9
				l4.1,5.5v24.7h14.8L117.6,157.6z"/>
			<path class="st4" d="M157.3,133.3c0,0,1.6-12,2.8-21v17.6l4.1,4.9l12.8,3.3l5.6-3.4v5l26.4,11.9l4.8-62.4h-34.5l1.1,2.2
				c-1.1-0.9-2.4-2-2.4-2h-13.3l-1.6,1.4l0.2-1.5h-45.4l-4.8,3.2v-3.4l-25.1-0.1c0,0,2,6.3,2,6.5v20.8c-1.5-9.5-4.2-27.2-4.2-27.2
				H69.8c0,0,2.3,6.4,2.3,6.7c0,0.2-2.3,16.1-3.7,26.4v-10.1h0.2c0,0-0.1,0-0.2-0.1V94.8l-4.3-5.5H42.8l-6.7,6.2l6.8,51.7l8,3.7
				l15.4-8.9l24.7-7.9l21.9-3.2v-3l5,3.5H130l5.4-3.7v-19.9l2.6,23.6L157.3,133.3L157.3,133.3z"/>
		</g>
		<g>
			<path class="st5" d="M143,152.1v6.2l-2.5,2.6h-10l-2.5-2.6v-20.9l2.3-2.3h10.3l2.3,2.3v9.6l-4.8-2.7v-4.9H133v17.2h5.2v-7
				L143,152.1z M121.7,135.1h-14.6l1.9,2.6v23.1h7.2l-2.3-3.7v-6.6h6.7v-4.2h-6.7v-7.1h5.4v3.3l4.9,2.7V138L121.7,135.1z"/>
		</g>
		<g>
			<path class="st5" d="M83,91H74c0,0,1.2,3.4,1.2,3.6c0,0.2-5.9,41.4-5.9,41.4l9.6-2.9c0,0-1.7-2.9-1.8-3c0-0.2,0.2-4.1,0.3-4.5
				c0.4-0.1,4.4-0.9,4.8-1c0.1,0.5,1.2,7.3,1.2,7.3l7.4-2.3c0,0-2.1-2.5-2.2-2.7C88.6,126.7,83,91,83,91L83,91z M81.3,119.2
				c-0.4,0.1-2.9,0.5-3.4,0.5c0.1-0.6,1.3-12.9,1.7-16.9C80,106.8,81.2,118.7,81.3,119.2z M104.6,94v14.2c-0.9-3-5.2-17.3-5.2-17.3
				h-7.8c0,0,0.9,3.1,1,3.2v35.3l6.9-1c0,0-1.5-3.1-1.6-3.3v-18.7l6.8,21.5l5.2-0.8V90.9h-6.3C103.7,90.9,104.6,93.9,104.6,94
				L104.6,94z M152.4,91c0,0,0.9,3,0.9,3c0,0.1-1.1,10.5-1.5,14.4c-0.5-4.1-2-17.4-2-17.4h-3.6l-2.1,17.1
				c-0.4-3.8-1.7-17.1-1.7-17.1h-7.2c0,0,1.7,2.9,1.8,3l3.7,33.4l4.9,0.5c0,0,1.8-11.3,2.3-14.1c0.5,2.9,2.2,14.6,2.2,14.6l4.8,0.5
				l5.2-37.9L152.4,91L152.4,91z M210.5,91h-10.1c0,0,1.5,5.5,1.5,5.5s-1.1,19-1.2,22.5c-0.8-3.5-6.2-28-6.2-28H184
				c0,0,1.6,3.7,1.7,3.8v42.1l7.4,3.4l-0.9-4.8c0,0,0-20.7,0-25.1c1,4.4,7.2,32.5,7.2,32.5l7.2,3.3l4.3-55.3L210.5,91L210.5,91z
				 M165.7,91.1l-2.6,2.3v34.3l2.8,3.4l10.7,2.7l3.4-2V93.8l-3.2-2.7H165.7L165.7,91.1z M169.3,96.8h4.3V127
				c-0.5-0.1-3.8-0.7-4.2-0.8L169.3,96.8L169.3,96.8z M121.7,121.7V96.4h4.5v6.1l6.2,3.4V93.2l-3.2-2.1h-10.5l-3.2,2.1v31.6l3.4,2.3
				h10.1l3.4-2.3v-16.9h-10.7l2.4,5.3h2v8.5H121.7L121.7,121.7z M65.5,111.3V94.6L62.7,91H44l-4.8,4.4l6.4,48.6l5.2,2.3l13.1-7.6
				l1.6-4.5v-20.9l-14.4,1.3l4.1,6.9l3.2-0.5v13c-1.2,0.5-5.4,2.3-5.9,2.5c-0.1-0.9-2.5-37.7-2.6-38.3h8.5v8.5L65.5,111.3z"/>
		</g>
		<g>
			<path class="st1" d="M101.2,173.8H99V173c0-0.5,0-0.8-0.1-0.9c-0.1-0.2-0.2-0.2-0.3-0.2c-0.2,0-0.2,0.1-0.2,0.2
				c-0.1,0.1-0.1,0.4-0.1,0.8v4.1c0,0.4,0,0.6,0.1,0.8c0.1,0.2,0.2,0.2,0.3,0.2s0.2-0.1,0.3-0.2c0.1-0.2,0.1-0.4,0.1-0.8v-1h-0.4
				v-1.2h2.6v4.5h-1.4l-0.2-0.6c-0.2,0.2-0.3,0.5-0.5,0.6c-0.2,0.2-0.5,0.2-0.8,0.2c-0.4,0-0.7-0.1-1-0.2c-0.3-0.2-0.5-0.4-0.7-0.6
				c-0.2-0.2-0.2-0.5-0.3-0.9c-0.1-0.3-0.1-0.7-0.1-1.3v-2.5c0-0.8,0.1-1.4,0.2-1.7c0.1-0.4,0.3-0.7,0.8-1c0.4-0.3,0.9-0.5,1.6-0.5
				c0.6,0,1.2,0.2,1.6,0.4s0.7,0.5,0.9,0.9c0.2,0.4,0.2,0.9,0.2,1.6L101.2,173.8L101.2,173.8z M105.3,172.2c0.1,0.1,0.2,0.2,0.2,0.5
				v0.5c0,0.4-0.1,0.6-0.2,0.6c-0.1,0.1-0.2,0.1-0.5,0.1v-1.9C105,172.1,105.2,172.1,105.3,172.2z M102.6,179.1h2.2v-3.7
				c0.3,0,0.5,0.1,0.5,0.2s0.1,0.4,0.1,0.9v2.8h2V177c0-0.7,0-1.1-0.1-1.2c0-0.2-0.2-0.3-0.3-0.5c-0.2-0.2-0.5-0.3-0.9-0.5
				c0.5-0.1,0.8-0.2,0.9-0.4s0.2-0.7,0.2-1.3c0-0.7-0.1-1.2-0.3-1.6c-0.2-0.3-0.5-0.5-0.9-0.6c-0.4-0.1-1.1-0.2-2.1-0.2h-1.6
				L102.6,179.1L102.6,179.1z M108.8,170.7h3.7v1.7H111v1.6h1.3v1.6H111v1.9h1.6v1.6h-3.7L108.8,170.7L108.8,170.7z M115.6,176.1
				c0.1-0.7,0.2-2,0.4-3.5c0.1,1.4,0.2,2.6,0.3,3.5H115.6L115.6,176.1z M114.4,170.7l-1.1,8.4h2.3l0.2-1.5h0.8l0.2,1.5h2.2l-1.2-8.4
				H114.4L114.4,170.7z M123.5,170.7v1.7h-1.3v6.7H120v-6.7h-1.2v-1.7H123.5L123.5,170.7z M131.9,170.7v5.6c0,0.6,0,1.1-0.1,1.3
				c-0.1,0.2-0.2,0.5-0.4,0.8s-0.5,0.5-0.8,0.6c-0.3,0.2-0.7,0.2-1.2,0.2c-0.5,0-0.9-0.1-1.3-0.2c-0.4-0.2-0.7-0.4-0.9-0.6
				s-0.3-0.5-0.3-0.9c0-0.3-0.1-0.9-0.1-1.9v-5h2.2v6.3c0,0.4,0,0.6,0.1,0.7c0,0.1,0.2,0.2,0.2,0.2c0.2,0,0.2-0.1,0.2-0.2
				c0.1-0.1,0.1-0.4,0.1-0.8v-6.2L131.9,170.7L131.9,170.7z M138.1,170.7v8.4h-2l-1.2-3.8v3.8h-1.8v-8.4h1.8l1.2,3.7v-3.7H138.1
				L138.1,170.7z M141.7,170.7v8.4h-2.2v-8.4H141.7z M145.9,176.7c0,0.5,0,0.8-0.1,0.9c-0.1,0.2-0.2,0.2-0.3,0.2
				c-0.2,0-0.2-0.1-0.3-0.2c0-0.1-0.1-0.4-0.1-0.9v-3.9c0-0.5,0-0.7,0.1-0.8s0.2-0.2,0.2-0.2c0.2,0,0.2,0.1,0.2,0.2
				c0.1,0.1,0.1,0.4,0.1,0.8L145.9,176.7L145.9,176.7z M148.1,174.2c0-0.9,0-1.5-0.1-1.8c-0.1-0.3-0.2-0.7-0.4-0.9
				c-0.2-0.3-0.5-0.5-0.9-0.6c-0.4-0.2-0.8-0.2-1.2-0.2c-0.5,0-0.9,0.1-1.2,0.2s-0.6,0.4-0.9,0.7c-0.2,0.3-0.3,0.6-0.4,0.9
				c0,0.3-0.1,0.9-0.1,1.8v1.4c0,0.9,0,1.5,0.1,1.8c0,0.3,0.2,0.7,0.4,0.9c0.2,0.3,0.5,0.5,0.9,0.6c0.4,0.2,0.8,0.2,1.2,0.2
				c0.5,0,0.9-0.1,1.2-0.2c0.4-0.2,0.6-0.4,0.9-0.7c0.2-0.3,0.3-0.6,0.4-0.9s0.1-0.9,0.1-1.8V174.2L148.1,174.2z M154.3,170.7v8.4
				h-2l-1.2-3.8v3.8h-1.8v-8.4h1.8l1.2,3.7v-3.7H154.3z M118.1,190.1v1.4h-4.6v-1.2c1.3-2.3,2.2-3.6,2.4-4.1
				c0.2-0.5,0.4-0.9,0.4-1.2c0-0.2-0.1-0.4-0.1-0.5c-0.1-0.1-0.2-0.2-0.4-0.2c-0.2,0-0.3,0.1-0.4,0.2c-0.1,0.2-0.1,0.4-0.1,0.7v0.8
				h-1.9v-0.3c0-0.5,0-0.9,0.1-1.1c0.1-0.2,0.2-0.5,0.4-0.8c0.2-0.2,0.5-0.5,0.7-0.6c0.3-0.2,0.7-0.2,1.1-0.2c0.9,0,1.5,0.2,1.9,0.6
				s0.6,0.9,0.6,1.6c0,0.5-0.2,1-0.4,1.6c-0.2,0.5-0.9,1.6-2.1,3.4L118.1,190.1L118.1,190.1z M122.3,189.4c0,0.4,0,0.7-0.1,0.8
				c-0.1,0.1-0.2,0.2-0.3,0.2c-0.2,0-0.2-0.1-0.3-0.2c-0.1-0.1-0.1-0.4-0.1-0.9v-4.1c0-0.5,0-0.7,0.1-0.9c0.1-0.2,0.2-0.2,0.3-0.2
				c0.2,0,0.2,0.1,0.3,0.2c0.1,0.1,0.1,0.4,0.1,0.9V189.4L122.3,189.4z M124.4,184.6c-0.1-0.3-0.2-0.5-0.4-0.8
				c-0.2-0.2-0.5-0.4-0.8-0.6c-0.4-0.2-0.8-0.2-1.2-0.2c-0.5,0-1,0.1-1.4,0.3c-0.4,0.2-0.6,0.5-0.8,0.9c-0.2,0.4-0.2,0.9-0.2,1.7v3
				c0,0.6,0.1,1,0.2,1.3c0.1,0.2,0.2,0.5,0.4,0.8c0.2,0.2,0.5,0.4,0.8,0.5c0.3,0.2,0.8,0.2,1.2,0.2c0.4,0,0.7-0.1,1-0.2
				c0.3-0.1,0.5-0.3,0.8-0.5c0.2-0.2,0.4-0.5,0.4-0.8c0.1-0.3,0.1-0.8,0.1-1.4V186C124.5,185.3,124.5,184.9,124.4,184.6z
				 M128.6,189.4c0,0.4,0,0.7-0.1,0.8c-0.1,0.1-0.2,0.2-0.3,0.2c-0.2,0-0.2-0.1-0.3-0.2c-0.1-0.1-0.1-0.4-0.1-0.9v-4.1
				c0-0.5,0-0.7,0.1-0.9c0.1-0.2,0.2-0.2,0.3-0.2c0.2,0,0.2,0.1,0.3,0.2c0,0.1,0.1,0.4,0.1,0.9V189.4L128.6,189.4z M130.5,184.6
				c-0.1-0.3-0.2-0.5-0.4-0.8c-0.2-0.2-0.5-0.4-0.8-0.6c-0.4-0.2-0.8-0.2-1.2-0.2c-0.5,0-1,0.1-1.4,0.3c-0.4,0.2-0.6,0.5-0.8,0.9
				c-0.2,0.4-0.2,0.9-0.2,1.7v3c0,0.6,0.1,1,0.2,1.3c0.1,0.2,0.2,0.5,0.4,0.8c0.2,0.2,0.5,0.4,0.8,0.5c0.3,0.2,0.8,0.2,1.2,0.2
				c0.4,0,0.7-0.1,1-0.2c0.3-0.1,0.5-0.3,0.8-0.5c0.2-0.2,0.4-0.5,0.4-0.8c0.1-0.3,0.1-0.8,0.1-1.4V186
				C130.7,185.3,130.6,184.9,130.5,184.6L130.5,184.6z M135.9,186.7c0.3,0.2,0.5,0.3,0.7,0.5c0.2,0.2,0.2,0.9,0.2,1.8
				c0,0.7-0.1,1.2-0.2,1.5c-0.2,0.3-0.4,0.5-0.8,0.8c-0.4,0.2-0.9,0.3-1.6,0.3c-0.6,0-1.1-0.1-1.5-0.3c-0.4-0.2-0.6-0.5-0.8-0.8
				c-0.2-0.3-0.2-0.9-0.2-1.6c0-0.5,0.1-0.9,0.1-1.3c0.1-0.4,0.3-0.7,0.7-0.9c-0.2-0.2-0.5-0.3-0.5-0.6c-0.2-0.2-0.2-0.6-0.2-1
				c0-0.7,0.2-1.2,0.6-1.6c0.4-0.4,1-0.5,1.8-0.5c0.9,0,1.6,0.2,1.9,0.5c0.3,0.4,0.5,0.9,0.5,1.6c0,0.5-0.1,0.8-0.2,1
				C136.6,186.4,136.3,186.6,135.9,186.7L135.9,186.7z M134.8,184.9c0-0.3,0-0.5-0.1-0.5c-0.1-0.1-0.2-0.2-0.3-0.2
				c-0.2,0-0.2,0.1-0.3,0.2c-0.1,0.1-0.1,0.3-0.1,0.5v0.6c0,0.2,0,0.4,0.1,0.5c0.1,0.1,0.2,0.2,0.3,0.2c0.2,0,0.2-0.1,0.3-0.2
				c0.1-0.1,0.1-0.3,0.1-0.6V184.9L134.8,184.9z M134.8,188.5c0-0.3,0-0.5-0.1-0.6s-0.2-0.2-0.3-0.2c-0.2,0-0.2,0.1-0.3,0.2
				c-0.1,0.1-0.1,0.3-0.1,0.6v1.1c0,0.4,0,0.6,0.1,0.7c0.1,0.1,0.2,0.2,0.3,0.2c0.2,0,0.2-0.1,0.3-0.2c0.1-0.1,0.1-0.3,0.1-0.7
				V188.5L134.8,188.5z"/>
		</g>
		<path class="st1" d="M143.3,47.7l-2-2.7h-5.2l-4.9-0.7h-3.1l-2.4,0.3l-2.1,0.4l-3.7,2.7l-0.1-1l1.6-1.7H118l-2,2.7l1.5,2.9
			l-1.4,4.8l1.6,6.9l4.4,3.6l1.6,2l2.7-6.9l1.9,7.4h3.2l-0.9,2.3h-2.4l-3.9-1.7l2.1,2.5l2.1,0.6h2.1l2.1-0.6l4.3-5.7l4.6-3.6
			l1.6-6.9l-1.4-4.8C141.8,50.6,143.3,47.7,143.3,47.7z M123.8,58.6l-0.2-0.9l2.3,0.5l0.2,2L123.8,58.6z M135.1,58.6l-2.3,1.5l0.2-2
			l2.3-0.5L135.1,58.6z"/>
		<path class="st1" d="M99.5,77.7l8.3,3.7l-2.3,3.2h36.4l-3.7-2.1l1.4-1.6l4.8,3.7h2.8l-4.1-2.8l1.9-1l3.8,3.8h2.3l-3.5-5.9
			l-9.4-5.2l-16.4,2.1l-8.5-5l0.2-0.5l8.2,3l0.3-0.3l-8-7.9l-2.9-6.7l3.6-5.7l-11.2-1.5l-11.3,4.1C94.5,60.7,97.7,71.7,99.5,77.7
			L99.5,77.7z"/>
	</g>
</g>
<g id="레이어_1">
</g>
<rect x="8" y="34.8" class="st0" width="234" height="180.4"/>
</svg>
