<?xml version="1.0" encoding="utf-8"?>
<!-- Generator: Adobe Illustrator 25.1.0, SVG Export Plug-In . SVG Version: 6.00 Build 0)  -->
<svg version="1.1" xmlns="http://www.w3.org/2000/svg" xmlns:xlink="http://www.w3.org/1999/xlink" x="0px" y="0px"
	 viewBox="0 0 250 250" style="enable-background:new 0 0 250 250;" xml:space="preserve">
<style type="text/css">
	.st0{fill:none;}
	.st1{fill:#002749;}
	.st2{fill:#C9A970;}
	.st3{fill:#FFFFFF;}
	.st4{fill:#B91D22;}
</style>
<g id="Layer_1">
	<rect x="8" y="8" class="st0" width="234" height="234"/>
	<g>
		<g>
			<path class="st1" d="M216.3,59.4h-20.7l-40.2-39.2l-10.7,11.6L125,11.6l-20.2,19.5L94.6,20.2L55.1,59.4H33.7
				c-3,0-5.4,2.4-5.4,5.4v16.6c0,1.1,0,4.7,0,5.7v61.4c0,1.6,0.7,3.2,2,4.2c1.3,1,2.9,1.4,4.5,1.1c6.3-1.3,12.6-2.4,18.9-3.4
				c3.5,17.6,10.4,33.6,20.3,47.6l0,0c0.7,1,1.4,2,2.2,2.9c0.6,0.8,1.3,1.7,2,2.5l0.1,0.1c0.1,0.1,0.2,0.2,0.3,0.4
				c0.6,0.8,1.3,1.5,1.9,2.3c0.1,0.1,0.2,0.3,0.4,0.4L81,207c0.8,0.9,1.6,1.8,2.4,2.7c0.5,0.6,1,1.1,1.6,1.7
				c0.3,0.3,0.6,0.6,0.8,0.9c0.6,0.6,1.1,1.2,1.7,1.7c1.3,1.3,2.7,2.6,4.1,3.9l0.1,0.1c0.1,0.1,0.3,0.3,0.4,0.4
				c1.5,1.3,3,2.6,4.6,3.9l0.1,0.1l0.1,0c1.1,0.9,2.1,1.7,3.2,2.5l0,0c6,4.5,12.4,8.5,19.2,12c1.9,1,3.8,1.5,5.7,1.5
				s3.7-0.5,5.7-1.5c6.9-3.5,13.4-7.5,19.3-12c0.6-0.5,1.2-0.9,1.8-1.4l0,0l0,0c0.6-0.5,1.2-0.9,1.8-1.4l0.1-0.1
				c0.6-0.5,1.2-1,1.7-1.5l0,0c5.4-4.6,10.3-9.6,14.8-15l0,0l0,0c0.5-0.6,0.9-1.2,1.4-1.7l0.1-0.1l0,0c0.5-0.6,0.9-1.2,1.4-1.7
				l0-0.1l0.1-0.1c0.5-0.6,0.9-1.2,1.3-1.8l0,0l0-0.1c0.5-0.6,0.9-1.3,1.4-1.9c1.8-2.6,3.6-5.3,5.2-8c7.2-12,12.2-25.2,15.1-39.4
				c6.3,1,12.7,2.1,19,3.4c1.6,0.3,3.2-0.1,4.5-1.1c1.3-1,2-2.6,2-4.2V87.2c0-1,0-4.7,0-5.7V64.8C221.7,61.8,219.3,59.4,216.3,59.4"
				/>
		</g>
		<g>
			<path class="st2" d="M221.7,81.4c0,1.1,0,4.7,0,5.7v61.4c0,1.6-0.7,3.2-2,4.2c-1.3,1-2.9,1.4-4.5,1.1c-6.3-1.3-12.6-2.4-19-3.4
				c-2.8,14.2-7.9,27.4-15.1,39.4c-1.6,2.7-3.4,5.4-5.2,8l0,0c-0.4,0.6-0.9,1.3-1.4,1.9l0,0.1l0,0c-0.4,0.6-0.9,1.2-1.3,1.8
				l-0.1,0.1l0,0.1c-0.4,0.6-0.9,1.2-1.4,1.7l0,0l-0.1,0.1c-0.5,0.6-0.9,1.2-1.4,1.8l0,0c-4.5,5.4-9.4,10.5-14.8,15l0,0
				c-0.6,0.5-1.2,1-1.7,1.5l-0.1,0.1c-0.6,0.5-1.2,0.9-1.8,1.4l0,0l0,0c-0.6,0.5-1.2,1-1.8,1.4c-5.9,4.5-12.4,8.5-19.3,12
				c-1.9,1-3.8,1.5-5.7,1.5c-1.9,0-3.7-0.5-5.7-1.5c-6.7-3.4-13.1-7.4-19.2-12l0,0c-1.1-0.8-2.1-1.7-3.2-2.5l-0.1,0l-0.1-0.1
				c-1.6-1.3-3.1-2.6-4.6-3.9c-0.1-0.1-0.3-0.3-0.4-0.4l-0.1-0.1c-1-0.9-2-1.9-3-2.8c-0.4-0.4-0.7-0.7-1.1-1.1
				c-0.6-0.6-1.1-1.1-1.7-1.7c-0.3-0.3-0.6-0.6-0.8-0.9c-0.8-0.8-1.5-1.6-2.2-2.4c-0.6-0.6-1.1-1.3-1.7-2l-0.1-0.2
				c-0.1-0.1-0.3-0.3-0.4-0.4c-0.7-0.9-1.5-1.8-2.2-2.7l-0.1-0.1c-0.7-0.8-1.3-1.7-2-2.5c-0.4-0.5-0.7-1-1.1-1.5
				c-0.3-0.4-0.7-0.9-1.1-1.5l0,0c-10-14-16.8-30-20.3-47.6c-6.3,1-12.6,2.1-18.9,3.4c-1.6,0.3-3.2-0.1-4.5-1.1c-1.3-1-2-2.6-2-4.2
				V87.2c0-1,0-4.7,0-5.7V64.8c0-3,2.4-5.4,5.4-5.4h21.3l39.5-39.2l10.2,10.9L125,11.6l19.7,20.2l10.7-11.6l40.2,39.2h20.7
				c3,0,5.4,2.4,5.4,5.4L221.7,81.4z M216.3,55.8H197l-39.1-38.2c-0.7-0.7-1.6-1-2.5-1l-0.1,0c-1,0-1.9,0.4-2.6,1.2l-8.1,8.8
				L127.6,9.1C126.9,8.4,126,8,125,8c-0.9,0-1.8,0.4-2.5,1l-17.6,17l-7.7-8.3c-0.7-0.7-1.6-1.1-2.6-1.1l-0.1,0c-1,0-1.9,0.4-2.5,1
				L53.6,55.8H33.7c-5,0-9,4.1-9,9v16.6c0,0.5,0,1.7,0,2.9c0,1.2,0,2.3,0,2.8v61.4c0,2.7,1.2,5.3,3.3,7c1.6,1.3,3.6,2,5.7,2
				c0.6,0,1.2-0.1,1.8-0.2c5.1-1,10.2-2,15.4-2.8c3.8,16.7,10.6,32.1,20.2,45.6l0,0c0.7,1,1.5,2,2.2,3c0.7,0.9,1.3,1.7,2,2.6
				l0.1,0.1c0.1,0.1,0.2,0.3,0.3,0.4c0.8,1,1.5,1.9,2.3,2.8l0.1,0.2c0.8,0.9,1.6,1.9,2.4,2.8c1.4,1.5,2.8,3,4.2,4.4
				c0.4,0.4,0.7,0.7,1.1,1.1c0.3,0.3,0.6,0.6,0.9,0.9c0.7,0.7,1.4,1.3,2.2,2l0.1,0.1c1.7,1.5,3.4,3,5.2,4.5l0.1,0.1l0.1,0
				c1.1,0.9,2.2,1.7,3.3,2.6l0,0c6.2,4.7,12.8,8.8,19.7,12.3c2.5,1.2,4.9,1.8,7.3,1.8c2.5,0,4.9-0.6,7.3-1.8
				c7-3.6,13.7-7.7,19.8-12.4c0.6-0.5,1.3-1,1.9-1.5l0,0l0,0c0.6-0.5,1.2-1,1.8-1.5l0.1-0.1c0.6-0.5,1.2-1,1.8-1.5l0,0
				c5.5-4.7,10.6-9.9,15.2-15.5l0-0.1v0l0,0c0.5-0.6,1-1.2,1.5-1.8l0.1-0.1l0,0c0.5-0.6,0.9-1.2,1.4-1.8l0-0.1l0.1-0.1
				c0.5-0.6,0.9-1.2,1.4-1.8l0,0l0,0c0.5-0.7,1-1.3,1.4-2c1.9-2.7,3.7-5.4,5.3-8.2c6.8-11.4,11.8-23.9,14.8-37.1
				c5.2,0.9,10.3,1.8,15.4,2.8c0.6,0.1,1.2,0.2,1.8,0.2c2.1,0,4.1-0.7,5.7-2c2.1-1.7,3.3-4.3,3.3-7V87.2c0-0.5,0-1.6,0-2.8
				c0-1.2,0-2.4,0-2.9V64.8C225.3,59.8,221.2,55.8,216.3,55.8"/>
		</g>
		<g>
			<path class="st3" d="M124.8,185.4c0,0,2.8,1.8,0.6,6.3l-3.1,5.2c0,0-1.9,3.8-0.5,6.9c0,0,0.7,1.1,1.1,1.3c0,0,0.6,0.1,0.1-1
				c0,0-1.7-3.4,1.3-7.8c0,0,3-4.4,3-5.6c0,0,0.2-1.2,0-1.9c0,0,2.7,0.8,2.3,5.3c0,0-0.1,2.4-2.9,6.1c0,0-1.1,1.7,0,3.1
				c0,0,0.7,0.7,0.5-0.3c0,0,0.2-2.1,2-4.5c0,0,2.2-3,1.8-5.8c0,0,3,3.2,1.5,9.2c0,0-1.7,6.6-9.1,5.5c0,0-7.4-1-6.1-10.9
				c0,0,0.7-3.6,4.5-6.3C121.7,190.4,124.6,187.7,124.8,185.4"/>
		</g>
		<g>
			<path class="st3" d="M116.3,195.7c0,0-2.3,5.7,2.6,10.6c0,0-5.2-0.3-5.4-6.6C113.5,199.7,113.7,196.7,116.3,195.7"/>
		</g>
		<g>
			<path class="st3" d="M133.7,195.7c0,0,2.3,5.7-2.6,10.6c0,0,5.2-0.3,5.4-6.6C136.5,199.7,136.3,196.7,133.7,195.7"/>
		</g>
		<g>
			<path class="st3" d="M120.4,176c0,0,0.5-0.6,1.7-0.6c0,0,1,0,0.9,0.8l-0.7,5.4c0,0-3.2-0.5-5-3.7c0,0,0-0.5,0.8-0.5
				c0,0,1.8-1.3-0.3-2.5c0,0-1.1-0.7-2.5,0.9l-5.9,7.3l2.2,0.1l3.5-4.1c0,0,0.7-0.4,0.7,0.3l-8.2,9.9l2.4-0.1l7-8
				c0,0,0.5-0.4,0.4,0.2l-9.5,11.6l2.4,0.1l8.7-10.3c0,0,0.7-0.4,0.6,0.3L109,195.8l2.4,0.1l10.2-12.1c0,0,0.7-0.3,0.5,0.4
				L110,198.8l2.4,0.1l11.9-14.2c0,0,0.7-0.5,1.3,0l11.9,14.2l2.3,0L127.8,184c0,0-0.1-0.5,0.5-0.3l10.4,12.2l2.3-0.1L130.4,183
				c0,0-0.1-0.6,0.5-0.4l9,10.4l2.2,0l-9.6-11.6c0,0-0.2-0.8,0.7-0.4l6.9,8.2l2.3-0.2l-8.1-9.7c0,0-0.1-0.6,0.6-0.4l3.6,4.1h2.1
				l-6.4-7.6c0,0-1.7-1.6-3.1,0.4c0,0-0.5,1,0.8,1.6c0,0,0.9,0,0.5,0.9c0,0-0.9,1.8-3.8,3.2c0,0-0.9,0.5-1.2-0.6l-1.5-5.6
				c0,0,0.2-0.5,0.5-0.6l0.8-0.5l-2.3-0.1l-1.1,0.7c0,0-0.5,0.4-0.8-0.6c0,0-1.8-0.6-2.5,0.4C120.6,174.4,120.2,175.4,120.4,176"/>
		</g>
		<g>
			<path class="st3" d="M131.3,216.8l-2.5,2.9h3.6v1.5h-6v-1.4l3.4-3.9c0.4-0.5,0.6-0.9,0.6-1.4c0-0.8-0.4-1.3-1.1-1.3
				c-0.7,0-1.1,0.5-1.1,1.3v0.3h-1.9v-0.3c0-1.6,1.1-2.8,3-2.8c1.9,0,3,1.3,3,2.8C132.2,215.5,132,216,131.3,216.8"/>
		</g>
		<g>
			<path class="st3" d="M135.7,221.2v-7.6l-2,0.9v-1.7l2.3-1h1.6v9.4H135.7z"/>
		</g>
		<g>
			<path class="st3" d="M117.4,216.8l-2.5,2.9h3.6v1.5h-6v-1.4l3.4-3.9c0.4-0.5,0.6-0.9,0.6-1.4c0-0.8-0.4-1.3-1.1-1.3
				c-0.7,0-1.1,0.5-1.1,1.3v0.3h-1.9v-0.3c0-1.6,1.1-2.8,3-2.8c1.9,0,3,1.3,3,2.8C118.4,215.5,118.1,216,117.4,216.8"/>
		</g>
		<g>
			<path class="st3" d="M121.2,219.4c0.2,0.3,0.5,0.5,0.9,0.5c0.4,0,0.7-0.1,0.9-0.5c0.3-0.5,0.4-1.3,0.4-2.9c0-1.6-0.1-2.4-0.4-2.8
				c-0.2-0.3-0.5-0.5-0.9-0.5c-0.4,0-0.7,0.1-0.9,0.5c-0.3,0.5-0.4,1.3-0.4,2.8C120.8,218.1,120.9,218.9,121.2,219.4 M124.4,220.5
				c-0.5,0.6-1.3,0.9-2.2,0.9c-1,0-1.7-0.3-2.2-0.9c-0.7-0.8-1-1.9-1-4c0-2,0.3-3.2,1-4c0.5-0.6,1.3-0.9,2.2-0.9
				c1,0,1.7,0.3,2.2,0.9c0.7,0.8,1,1.9,1,4C125.4,218.5,125,219.7,124.4,220.5"/>
		</g>
		<g>
			<path class="st2" d="M181,52.9l-3.1-1.6l-0.1-0.1l-0.1-0.1l-6.2-6.2l-0.1-0.1l0-0.1l-1.1-1.9l-7.4-5.7l-0.1-0.1l-0.1-0.1l-3-4
				l-3.8-3.6l-0.9,0.8l-0.9,1.4l-0.1,0.1L154,32l-1.5,0.9l-1.8,2.9l-0.1,0.1l-0.1,0.1l-3.5,2.1l-1.7,1.6l-0.4,0.3l-0.4-0.2l-2-1
				l-0.1-0.1l-0.1-0.1l-3.5-3.5l-2.1-1.8l-3.5-2.1l-0.1-0.1l-0.1-0.1l-4.7-6.3l-3.4-3.2l-5.5,6.8l0,0.1l-0.1,0l-5.5,4.6l-0.1,0.1
				l-0.1,0l-1.7,0.6l-3.4,3.8l-2.4,3.8l-0.6,0.9l-0.6-0.8l-3.6-4.6l-3.6-2.1l-0.1-0.1l-0.1-0.1l-3.8-4.7l-8.5,10.1L84.9,40h-3.1
				L76,46.7l0,0l0,0l-7.3,6.1l-5.5,6.9l7.1-3.4l7.5-5.2l5.1-6.1l0.1-0.1l0.1-0.1l3-1.5l7.1-6.7l0.5-0.5l0.5,0.5l3.3,3.1l2.7,1.2
				l0.3,0.1l0.1,0.3l1.2,3.1L102,45l-0.6,0.3l-4.2,2.1L95,51.9l0,0.1l0,0.1l-3.1,3.9l4.7-1.4l3.3-4.9l0.1-0.2l0.2-0.1l7.2-3.7l3-4.4
				l0.1-0.1l0.1-0.1l3.7-3.1l0,0l0,0l4.2-3l6-6.5l0.4-0.5l0.5,0.4l2.8,2l0.1,0.1l0.1,0.1l3.3,4.5l4.4,3.5l0.1,0.1l0.1,0.1l1.5,2.4
				l5.6,3.6l0.1,0.1l0.1,0.1l3.5,3.9l2.4,1.1l0.1,0.1l0.1,0.1l3.4,4.2l4.4,1.7l-1.9-3l0,0l0,0l-2.4-4.6l-1.3-1.3l-2.2-1.5l-0.1-0.1
				l-0.1-0.2l-0.8-1.5l-0.3-0.5l0.4-0.4l2.3-2.2l0.1-0.1l0.1,0l2-1l0.8-1.6l0.1-0.1l0.1-0.1l1.2-1.2l0.5-0.4l0.5,0.4l2.1,1.7
				l0.1,0.1l0.1,0.1l1.5,2.5l4,2.6l2.9,1.8l0.1,0.1l0.1,0.1l1.5,2.5l6.2,4.9l0.1,0.1l0.1,0.1l1.6,2.3l5.1,2l0,0l0,0l5,2.1l-2.1-2.7
				L181,52.9z"/>
		</g>
		<path class="st2" d="M216.3,64.8H33.7v16.6h182.5L216.3,64.8z"/>
		<g>
			<path class="st1" d="M49.7,69.1c2,0,3.2,1.1,3.2,2.9h-2.1c0-0.8-0.4-1.2-1.1-1.2c-0.8,0-1.2,0.4-1.2,2.4c0,1.9,0.4,2.4,1.2,2.4
				c0.7,0,1.1-0.5,1.2-1.3h-1.2v-1.4h3.2v4.2h-1.5l-0.2-0.8c-0.3,0.6-1,1-1.8,1c-2,0-3-1.6-3-4.1C46.4,70.6,47.3,69.1,49.7,69.1"/>
		</g>
		<path class="st1" d="M60.1,77.1H58v-7.9h2.1V77.1z"/>
		<g>
			<path class="st1" d="M68.6,77.1l-1.3-3.6v3.6h-2v-7.9h2l2.2,5.8l2.2-5.8h1.9v7.9h-2v-3.6l-1.3,3.6H68.6z"/>
		</g>
		<g>
			<path class="st1" d="M79.3,70c0.6-0.6,1.4-0.9,2.4-0.9c2,0,3.2,1.1,3.2,2.9h-2.1c0-0.8-0.4-1.2-1.1-1.2c-0.4,0-0.6,0.1-0.8,0.4
				c-0.2,0.4-0.3,0.9-0.3,2c0,1.1,0.1,1.6,0.3,2c0.2,0.3,0.5,0.4,0.8,0.4c0.7,0,1.1-0.5,1.1-1.2h2.1c-0.1,1.8-1.2,2.9-3.2,2.9
				c-1.1,0-1.9-0.3-2.4-0.9c-0.6-0.7-0.9-1.8-0.9-3.1C78.5,71.8,78.7,70.7,79.3,70"/>
		</g>
		<g>
			<path class="st1" d="M93.7,73.9H92v3.2h-2.1v-7.9H92v3h1.7v-3h2.1v7.9h-2.1V73.9z"/>
		</g>
		<g>
			<path class="st1" d="M101,69.2h5.1v1.7h-3v1.3h2.6v1.7h-2.6v1.5h3v1.7H101V69.2z"/>
		</g>
		<g>
			<path class="st1" d="M115.1,71.2c-0.2-0.3-0.5-0.4-0.9-0.4c-0.4,0-0.6,0.1-0.8,0.4c-0.2,0.4-0.3,0.9-0.3,2c0,1.1,0.1,1.6,0.3,2
				c0.2,0.3,0.5,0.4,0.8,0.4c0.4,0,0.7-0.1,0.9-0.4c0.2-0.4,0.3-0.9,0.3-2C115.4,72.1,115.3,71.5,115.1,71.2 M116.7,76.3
				c-0.6,0.6-1.4,0.9-2.4,0.9c-1.1,0-1.9-0.3-2.4-0.9c-0.6-0.7-0.9-1.8-0.9-3.1c0-1.3,0.2-2.4,0.9-3.1c0.6-0.6,1.4-0.9,2.4-0.9
				s1.9,0.3,2.4,0.9c0.6,0.7,0.8,1.8,0.8,3.1C117.5,74.5,117.3,75.5,116.7,76.3"/>
		</g>
		<g>
			<path class="st1" d="M124.6,72.8v4.3h-2v-7.9h2l1.9,4.3v-4.3h2v7.9h-2L124.6,72.8z"/>
		</g>
		<g>
			<path class="st1" d="M142.3,77.2c-1.9,0-3-1-3-2.4v-0.2h2.1v0.2c0,0.5,0.3,0.8,0.8,0.8s0.8-0.3,0.8-0.8s-0.3-0.7-1-0.9l-0.6-0.1
				c-1.3-0.3-2.3-1-2.3-2.4c0-1.3,1.1-2.3,2.8-2.3c1.8,0,2.8,1,2.8,2.2v0.1h-2.1v-0.1c0-0.4-0.3-0.6-0.7-0.6c-0.5,0-0.7,0.2-0.7,0.6
				c0,0.4,0.3,0.7,1,0.8l0.6,0.1c1.4,0.3,2.2,1.1,2.2,2.5C145.2,76.2,144.2,77.2,142.3,77.2"/>
		</g>
		<g>
			<path class="st1" d="M153.2,71.5l-0.7,2.7h1.4L153.2,71.5z M154.2,69.2l2.5,7.9h-2.1l-0.3-1.3h-2.2l-0.3,1.3h-2.1l2.5-7.9H154.2z
				"/>
		</g>
		<g>
			<path class="st1" d="M163.5,72.8v4.3h-2v-7.9h2l1.9,4.3v-4.3h2v7.9h-2L163.5,72.8z"/>
		</g>
		<g>
			<path class="st1" d="M175.7,69.1c2,0,3.2,1.1,3.2,2.9h-2.1c0-0.8-0.4-1.2-1.1-1.2c-0.8,0-1.2,0.4-1.2,2.4c0,1.9,0.4,2.4,1.2,2.4
				c0.7,0,1.1-0.5,1.2-1.3h-1.2v-1.4h3.2v4.2h-1.5l-0.2-0.8c-0.3,0.6-1,1-1.8,1c-2,0-3-1.6-3-4.1C172.4,70.6,173.4,69.1,175.7,69.1"
				/>
		</g>
		<g>
			<path class="st1" d="M187.4,77.1l-1.3-3.6v3.6h-2v-7.9h2l2.2,5.8l2.2-5.8h1.9v7.9h-2v-3.6l-1.3,3.6H187.4z"/>
		</g>
		<g>
			<path class="st1" d="M197.4,74.1v-4.9h2.1v5c0,0.9,0.4,1.3,1,1.3c0.7,0,1-0.4,1-1.3v-5h2.1v4.9c0,1.9-1,3.1-3.1,3.1
				C198.4,77.2,197.4,76,197.4,74.1"/>
		</g>
		<g>
			<path class="st2" d="M67.4,149h8.3v2.9h-5.1v2.5h5v2.7h-5v5.6h-3.2V149z"/>
		</g>
		<g>
			<path class="st2" d="M79.8,159.3c0,0.6,0.5,0.9,1.1,0.9c0.6,0,1.1-0.3,1.1-0.9v-7c0-0.6-0.5-0.9-1.1-0.9c-0.6,0-1.1,0.3-1.1,0.9
				V159.3z M76.7,151.8c0-2.3,1.9-3.2,4.2-3.2c2.3,0,4.2,0.8,4.2,3.2v8c0,2.3-1.9,3.2-4.2,3.2c-2.3,0-4.2-0.8-4.2-3.2V151.8z"/>
		</g>
		<g>
			<path class="st2" d="M89.3,159.3c0,0.6,0.5,0.9,1.1,0.9c0.6,0,1.1-0.3,1.1-0.9v-7c0-0.6-0.5-0.9-1.1-0.9c-0.6,0-1.1,0.3-1.1,0.9
				V159.3z M86.2,151.8c0-2.3,1.9-3.2,4.2-3.2c2.3,0,4.2,0.8,4.2,3.2v8c0,2.3-1.9,3.2-4.2,3.2c-2.3,0-4.2-0.8-4.2-3.2V151.8z"/>
		</g>
		<g>
			<path class="st2" d="M103.5,149v2.8h-2.5v10.9h-3.3v-10.9h-2.5V149H103.5z"/>
		</g>
		<g>
			<path class="st2" d="M107.7,159.3l0.9,0.2c0.8,0.2,1.2,0.1,1.2-0.7v-1.4c0-0.7-0.6-0.8-1.1-0.8h-1.1V159.3z M108.7,151.7h-1.1
				v2.4h1.1c0.7,0,0.9-0.3,0.9-1.1v-0.3C109.7,152.1,109.5,151.7,108.7,151.7 M107.7,162v0.6h-3.2V149h5.3c2,0,3,0.4,3,2.4v1.9
				c0,1-0.9,1.9-2,2c1.2,0.1,2.2,1.1,2.2,2.2v2.8c0,1.9-0.7,2.8-3,2.3L107.7,162z"/>
		</g>
		<g>
			<path class="st2" d="M117.6,157.6h1.6l-0.8-6.3L117.6,157.6z M117,162.7h-3.2l1.9-13.7h5.5l1.9,13.7h-3.2l-0.3-2.3h-2.3
				L117,162.7z"/>
		</g>
		<g>
			<path class="st2" d="M132.2,159.8v2.9h-8.3V149h3.3v10.8H132.2z"/>
		</g>
		<g>
			<path class="st2" d="M141.3,159.8v2.9H133V149h3.3v10.8H141.3z"/>
		</g>
		<g>
			<path class="st2" d="M153.6,157.7v2.1c0,2.3-1.9,3.2-4.2,3.2c-2.3,0-4.3-0.8-4.3-3.2v-8c0-2.3,1.9-3.2,4.2-3.2
				c2.3,0,4.2,0.8,4.2,3.2v1.6h-3.2v-1.1c0-0.6-0.4-0.9-1-0.9c-0.6,0-1,0.3-1,0.9v7c0,0.6,0.4,0.9,1,0.9c0.6,0,1-0.3,1-0.9v-1.6
				H153.6z"/>
		</g>
		<g>
			<path class="st2" d="M163,159.8v2.9h-8.3V149h3.3v10.8H163z"/>
		</g>
		<g>
			<path class="st2" d="M172.3,149v10.8c0,2.3-1.9,3.2-4.2,3.2c-2.3,0-4.2-0.8-4.2-3.2V149h3.2v10.3c0,0.6,0.4,0.9,1,0.9
				c0.6,0,1-0.3,1-0.9V149H172.3z"/>
		</g>
		<g>
			<path class="st2" d="M176.6,159.3l0.9,0.2c0.8,0.2,1.2,0.1,1.2-0.7v-1.4c0-0.7-0.6-0.8-1.1-0.8h-1.1V159.3z M177.6,151.7h-1.1
				v2.4h1.1c0.7,0,0.9-0.3,0.9-1.1v-0.3C178.6,152.1,178.4,151.7,177.6,151.7 M176.6,162v0.6h-3.2V149h5.3c2,0,3,0.4,3,2.4v1.9
				c0,1-0.9,1.9-2.1,2c1.2,0.1,2.2,1.1,2.2,2.2v2.8c0,1.9-0.7,2.8-3,2.3L176.6,162z"/>
		</g>
		<g>
			<path class="st3" d="M33.7,87.4h25.7l0,6.6c0.1,16.3-10.6,23.9-25.7,25.5v-10.4c7.5-0.5,15.9-2.8,15.9-11.8
				c-5.3,0.2-10.6,0.3-15.9,0.5V87.4z"/>
		</g>
		<g>
			<path class="st3" d="M63.6,87.4h10.8l-0.1,28.8c-3.6,0.2-7.2,0.4-10.8,0.7L63.6,87.4z"/>
		</g>
		<g>
			<path class="st3" d="M175.6,118c13.6,0.9,27.1,2.1,40.6,3.5v11.7c-4.9-0.7-9.9-1.4-14.9-2.1l0,14.8c-3.6-0.6-7.2-1.2-10.8-1.7
				l0-14.4c-5-0.5-10-1-14.9-1.4L175.6,118z"/>
		</g>
		<g>
			<path class="st3" d="M156,87.4h10.5l0,9.8c2,0,3,0.1,5,0.1l0,10.1c-2-0.1-3-0.1-5-0.2l0,9.6c-3.5-0.2-7-0.3-10.6-0.5L156,87.4z"
				/>
		</g>
		<g>
			<path class="st3" d="M124.9,106.4c6.6-1.9,9.1-9.2,9.1-15.4l0-3.6h10.4l0,3.6c-0.2,6.4,2.8,12.9,9.1,15.1l0,10.2
				c-5.7-1.4-10.9-5-14.3-9.8c-3,5.2-8.7,8.4-14.4,9.9V106.4z"/>
		</g>
		<g>
			<path class="st3" d="M103.4,101.4c2.7,0,4.1,0,6.9-0.1l0-14h10.5l0,34.4c-3.5,0-7.1,0.1-10.6,0.1l0-11.6c-2.7,0-4.1,0.1-6.9,0.1
				L103.4,101.4z"/>
		</g>
		<g>
			<path class="st3" d="M106.2,122c-5.5-0.6-11-2.8-14.3-7.3c-3.1,4.8-8.5,7.4-13.8,8.7l0-9.9c5.8-1.2,8.9-5.7,8.8-11.7l0-1
				c-3.5,0.1-5.2,0.1-8.7,0.2l0-9.8c3.5,0,5.2,0,8.7-0.1l0-3.7h10.4l0,3.7c3.4,0,5.1,0,8.6,0l0,9.4c-3.5,0-5.2,0.1-8.7,0.1l0,1
				c-0.4,5.8,3.5,10.3,9.2,10.9L106.2,122z"/>
		</g>
		<g>
			<path class="st3" d="M44.3,136.1c6.4-1.2,12.8-2.3,19.3-3.4l0-4.1c-6.4,0.7-12.8,1.4-19.3,2.2L44.3,136.1z M33.7,122.6
				c13.5-1.5,27-2.7,40.5-3.6l-0.1,23c-3.6,0.4-7.1,0.8-10.6,1.3l0-1.6c-10,1.9-19.9,4-29.8,6.5V122.6z"/>
		</g>
		<g>
			<path class="st3" d="M120.8,139.1c-13.8,0.2-27.6,0.9-41.3,2.2l0.1-16.6c3.7-0.3,7.5-0.5,11.2-0.7l0,7c10-0.6,20-0.9,30.1-1
				L120.8,139.1z"/>
		</g>
		<g>
			<path class="st3" d="M155.1,131.8c1.3,0.1,2.3-0.3,2.3-1.7c0-1.5-0.9-1.9-2.3-2c-5.6-0.3-11.2-0.5-16.8-0.6
				c-1.2,0-2.1,0.3-2.1,1.8c0,1.3,0.9,1.8,2.1,1.8C143.9,131.3,149.5,131.5,155.1,131.8 M134.9,119.1c7.8,0.1,15.7,0.4,23.5,0.7
				c5.5,0.5,9.4,5.8,9.4,11c0,5.1-4.1,9.9-9.4,9.7c-7.9-0.5-15.7-0.9-23.6-1.1c-5.5,0.1-9.3-5.4-9.3-10.2
				C125.6,124.4,129.4,118.8,134.9,119.1"/>
		</g>
		<g>
			<path class="st3" d="M185.9,103.1c6.7,0.3,13.4,0.6,20.1,0.9l0-5.9c-6.7-0.2-13.4-0.4-20.1-0.6L185.9,103.1z M175.5,87.4h40.7
				v28.1c-13.5-1.2-27.1-2.2-40.7-2.9L175.5,87.4z"/>
		</g>
		<g>
			<path class="st4" d="M78.5,169.6v25.3c0.7,1,1.4,1.9,2.1,2.8c5.1,6.7,10.8,12.8,17,18.2v-46.3L78.5,169.6z"/>
		</g>
		<g>
			<path class="st4" d="M152.5,169.5v46.3c7.2-6.2,13.6-13.3,19.1-21.1v-25.2H152.5z"/>
		</g>
	</g>
</g>
<g id="레이어_1">
</g>
</svg>
