<?xml version="1.0" encoding="utf-8"?>
<!-- Generator: Adobe Illustrator 25.1.0, SVG Export Plug-In . SVG Version: 6.00 Build 0)  -->
<svg version="1.1" id="Layer_1" xmlns="http://www.w3.org/2000/svg" xmlns:xlink="http://www.w3.org/1999/xlink" x="0px" y="0px"
	 viewBox="0 0 250 250" style="enable-background:new 0 0 250 250;" xml:space="preserve">
<style type="text/css">
	.st0{fill:none;}
	.st1{fill:#002749;}
	.st2{fill:#C9A970;}
	.st3{fill:#FFFFFF;}
	.st4{fill:#B91D22;}
</style>
<g id="Layer_1_1_">
	<rect x="34.8" y="34.8" class="st0" width="180.4" height="180.4"/>
	<g>
		<g>
			<path class="st1" d="M195.4,74.4h-16l-31-30.2l-8.3,8.9L125,37.6l-15.6,15l-7.9-8.4L71.1,74.4H54.6c-2.3,0-4.2,1.9-4.2,4.2v12.8
				c0,0.8,0,3.6,0,4.4v47.3c0,1.2,0.5,2.5,1.5,3.2c1,0.8,2.2,1.1,3.5,0.8c4.9-1,9.7-1.9,14.6-2.6c2.7,13.6,8,25.9,15.7,36.7l0,0
				c0.5,0.8,1.1,1.5,1.7,2.2c0.5,0.6,1,1.3,1.5,1.9l0.1,0.1c0.1,0.1,0.2,0.2,0.2,0.3c0.5,0.6,1,1.2,1.5,1.8c0.1,0.1,0.2,0.2,0.3,0.3
				l0.1,0.3c0.6,0.7,1.2,1.4,1.9,2.1c0.4,0.5,0.8,0.8,1.2,1.3c0.2,0.2,0.5,0.5,0.6,0.7c0.5,0.5,0.8,0.9,1.3,1.3c1,1,2.1,2,3.2,3
				l0.1,0.1c0.1,0.1,0.2,0.2,0.3,0.3c1.2,1,2.3,2,3.5,3l0.1,0.1h0.1c0.8,0.7,1.6,1.3,2.5,1.9l0,0c4.6,3.5,9.6,6.6,14.8,9.3
				c1.5,0.8,2.9,1.2,4.4,1.2s2.9-0.4,4.4-1.2c5.3-2.7,10.3-5.8,14.9-9.3c0.5-0.4,0.9-0.7,1.4-1.1l0,0l0,0c0.5-0.4,0.9-0.7,1.4-1.1
				l0.1-0.1c0.5-0.4,0.9-0.8,1.3-1.2l0,0c4.2-3.5,7.9-7.4,11.4-11.6l0,0l0,0c0.4-0.5,0.7-0.9,1.1-1.3l0.1-0.1l0,0
				c0.4-0.5,0.7-0.9,1.1-1.3v-0.1l0.1-0.1c0.4-0.5,0.7-0.9,1-1.4l0,0v-0.1c0.4-0.5,0.7-1,1.1-1.5c1.4-2,2.8-4.1,4-6.2
				c5.6-9.3,9.4-19.4,11.6-30.4c4.9,0.8,9.8,1.6,14.6,2.6c1.2,0.2,2.5-0.1,3.5-0.8c1-0.8,1.5-2,1.5-3.2V95.9c0-0.8,0-3.6,0-4.4V78.6
				C199.6,76.3,197.7,74.4,195.4,74.4"/>
		</g>
		<g>
			<path class="st2" d="M199.6,91.4c0,0.8,0,3.6,0,4.4v47.3c0,1.2-0.5,2.5-1.5,3.2c-1,0.8-2.2,1.1-3.5,0.8c-4.9-1-9.7-1.9-14.6-2.6
				c-2.2,10.9-6.1,21.1-11.6,30.4c-1.2,2.1-2.6,4.2-4,6.2l0,0c-0.3,0.5-0.7,1-1.1,1.5v0.1l0,0c-0.3,0.5-0.7,0.9-1,1.4l-0.1,0.1v0.1
				c-0.3,0.5-0.7,0.9-1.1,1.3l0,0l-0.1,0.1c-0.4,0.5-0.7,0.9-1.1,1.4l0,0c-3.5,4.2-7.2,8.1-11.4,11.6l0,0c-0.5,0.4-0.9,0.8-1.3,1.2
				l-0.1,0.1c-0.5,0.4-0.9,0.7-1.4,1.1l0,0l0,0c-0.5,0.4-0.9,0.8-1.4,1.1c-4.5,3.5-9.6,6.6-14.9,9.3c-1.5,0.8-2.9,1.2-4.4,1.2
				s-2.9-0.4-4.4-1.2c-5.2-2.6-10.1-5.7-14.8-9.3l0,0c-0.8-0.6-1.6-1.3-2.5-1.9h-0.1l-0.1-0.1c-1.2-1-2.4-2-3.5-3
				c-0.1-0.1-0.2-0.2-0.3-0.3l-0.1-0.1c-0.8-0.7-1.5-1.5-2.3-2.2c-0.3-0.3-0.5-0.5-0.8-0.8c-0.5-0.5-0.8-0.8-1.3-1.3
				c-0.2-0.2-0.5-0.5-0.6-0.7c-0.6-0.6-1.2-1.2-1.7-1.9c-0.5-0.5-0.8-1-1.3-1.5l-0.1-0.2c-0.1-0.1-0.2-0.2-0.3-0.3
				c-0.5-0.7-1.2-1.4-1.7-2.1l-0.1-0.1c-0.5-0.6-1-1.3-1.5-1.9c-0.3-0.4-0.5-0.8-0.8-1.2c-0.2-0.3-0.5-0.7-0.8-1.2l0,0
				c-7.7-10.8-13-23.1-15.7-36.7c-4.9,0.8-9.7,1.6-14.6,2.6c-1.2,0.2-2.5-0.1-3.5-0.8c-1-0.8-1.5-2-1.5-3.2V95.9c0-0.8,0-3.6,0-4.4
				V78.6c0-2.3,1.9-4.2,4.2-4.2h16.4l30.5-30.2l7.9,8.4l15.6-15l15.2,15.6l8.3-8.9l31,30.2h16c2.3,0,4.2,1.9,4.2,4.2L199.6,91.4z
				 M195.4,71.6h-14.9l-30.1-29.5c-0.5-0.5-1.2-0.8-1.9-0.8h-0.1c-0.8,0-1.5,0.3-2,0.9l-6.2,6.8L127,35.6c-0.5-0.5-1.2-0.8-2-0.8
				c-0.7,0-1.4,0.3-1.9,0.8l-13.6,13.1l-5.9-6.4c-0.5-0.5-1.2-0.8-2-0.8h-0.1c-0.8,0-1.5,0.3-1.9,0.8L69.9,71.6H54.6
				c-3.9,0-6.9,3.2-6.9,6.9v12.8c0,0.4,0,1.3,0,2.2s0,1.8,0,2.2v47.3c0,2.1,0.9,4.1,2.5,5.4c1.2,1,2.8,1.5,4.4,1.5
				c0.5,0,0.9-0.1,1.4-0.2c3.9-0.8,7.9-1.5,11.9-2.2c2.9,12.9,8.2,24.8,15.6,35.2l0,0c0.5,0.8,1.2,1.5,1.7,2.3c0.5,0.7,1,1.3,1.5,2
				l0.1,0.1c0.1,0.1,0.2,0.2,0.2,0.3c0.6,0.8,1.2,1.5,1.8,2.2l0.1,0.2c0.6,0.7,1.2,1.5,1.9,2.2c1.1,1.2,2.2,2.3,3.2,3.4
				c0.3,0.3,0.5,0.5,0.8,0.8c0.2,0.2,0.5,0.5,0.7,0.7c0.5,0.5,1.1,1,1.7,1.5l0.1,0.1c1.3,1.2,2.6,2.3,4,3.5l0.1,0.1h0.1
				c0.8,0.7,1.7,1.3,2.5,2l0,0c4.8,3.6,9.9,6.8,15.2,9.5c1.9,0.9,3.8,1.4,5.6,1.4c1.9,0,3.8-0.5,5.6-1.4c5.4-2.8,10.6-5.9,15.3-9.6
				c0.5-0.4,1-0.8,1.5-1.2l0,0l0,0c0.5-0.4,0.9-0.8,1.4-1.2l0.1-0.1c0.5-0.4,0.9-0.8,1.4-1.2l0,0c4.2-3.6,8.2-7.6,11.7-12v-0.1l0,0
				l0,0c0.4-0.5,0.8-0.9,1.2-1.4l0.1-0.1l0,0c0.4-0.5,0.7-0.9,1.1-1.4v-0.1l0.1-0.1c0.4-0.5,0.7-0.9,1.1-1.4l0,0l0,0
				c0.4-0.5,0.8-1,1.1-1.5c1.5-2.1,2.9-4.2,4.1-6.3c5.2-8.8,9.1-18.4,11.4-28.6c4,0.7,7.9,1.4,11.9,2.2c0.5,0.1,0.9,0.2,1.4,0.2
				c1.6,0,3.2-0.5,4.4-1.5c1.6-1.3,2.5-3.3,2.5-5.4V95.9c0-0.4,0-1.2,0-2.2s0-1.9,0-2.2V78.6C202.3,74.7,199.2,71.6,195.4,71.6"/>
		</g>
		<g>
			<path class="st3" d="M124.8,171.6c0,0,2.2,1.4,0.5,4.9l-2.4,4c0,0-1.5,2.9-0.4,5.3c0,0,0.5,0.8,0.8,1c0,0,0.5,0.1,0.1-0.8
				c0,0-1.3-2.6,1-6c0,0,2.3-3.4,2.3-4.3c0,0,0.2-0.9,0-1.5c0,0,2.1,0.6,1.8,4.1c0,0-0.1,1.9-2.2,4.7c0,0-0.8,1.3,0,2.4
				c0,0,0.5,0.5,0.4-0.2c0,0,0.2-1.6,1.5-3.5c0,0,1.7-2.3,1.4-4.5c0,0,2.3,2.5,1.2,7.1c0,0-1.3,5.1-7,4.2c0,0-5.7-0.8-4.7-8.4
				c0,0,0.5-2.8,3.5-4.9C122.5,175.4,124.7,173.3,124.8,171.6"/>
		</g>
		<g>
			<path class="st3" d="M118.3,179.5c0,0-1.8,4.4,2,8.2c0,0-4-0.2-4.2-5.1C116.1,182.6,116.3,180.3,118.3,179.5"/>
		</g>
		<g>
			<path class="st3" d="M131.7,179.5c0,0,1.8,4.4-2,8.2c0,0,4-0.2,4.2-5.1C133.9,182.6,133.7,180.3,131.7,179.5"/>
		</g>
		<g>
			<path class="st3" d="M121.5,164.3c0,0,0.4-0.5,1.3-0.5c0,0,0.8,0,0.7,0.6l-0.5,4.2c0,0-2.5-0.4-3.9-2.9c0,0,0-0.4,0.6-0.4
				c0,0,1.4-1-0.2-1.9c0,0-0.8-0.5-1.9,0.7l-4.5,5.6l1.7,0.1l2.7-3.2c0,0,0.5-0.3,0.5,0.2l-6.3,7.6l1.9-0.1l5.4-6.2
				c0,0,0.4-0.3,0.3,0.2l-7.3,8.9l1.9,0.1l6.7-7.9c0,0,0.5-0.3,0.5,0.2l-8.2,9.8l1.9,0.1l7.9-9.3c0,0,0.5-0.2,0.4,0.3l-9.3,11.3
				l1.9,0.1l9.2-10.9c0,0,0.5-0.4,1,0l9.2,10.9h1.8l-9.3-11.5c0,0-0.1-0.4,0.4-0.2l8,9.4l1.8-0.1l-8.2-9.9c0,0-0.1-0.5,0.4-0.3
				l6.9,8h1.7l-7.4-8.9c0,0-0.2-0.6,0.5-0.3l5.3,6.3l1.8-0.2l-6.2-7.5c0,0-0.1-0.5,0.5-0.3l2.8,3.2h1.6l-4.9-5.9
				c0,0-1.3-1.2-2.4,0.3c0,0-0.4,0.8,0.6,1.2c0,0,0.7,0,0.4,0.7c0,0-0.7,1.4-2.9,2.5c0,0-0.7,0.4-0.9-0.5l-1.2-4.3
				c0,0,0.2-0.4,0.4-0.5l0.6-0.4l-1.8-0.1l-0.8,0.5c0,0-0.4,0.3-0.6-0.5c0,0-1.4-0.5-1.9,0.3C121.6,163.1,121.3,163.9,121.5,164.3"
				/>
		</g>
		<g>
			<path class="st3" d="M129.9,195.8l-1.9,2.2h2.8v1.2h-4.6v-1.1l2.6-3c0.3-0.4,0.5-0.7,0.5-1.1c0-0.6-0.3-1-0.8-1
				c-0.5,0-0.8,0.4-0.8,1v0.2H126V194c0-1.2,0.8-2.2,2.3-2.2c1.5,0,2.3,1,2.3,2.2C130.6,194.8,130.4,195.2,129.9,195.8"/>
		</g>
		<g>
			<path class="st3" d="M133.3,199.2v-5.9l-1.5,0.7v-1.3l1.8-0.8h1.2v7.2L133.3,199.2L133.3,199.2z"/>
		</g>
		<g>
			<path class="st3" d="M119.1,195.8l-1.9,2.2h2.8v1.2h-4.6v-1.1l2.6-3c0.3-0.4,0.5-0.7,0.5-1.1c0-0.6-0.3-1-0.8-1
				c-0.5,0-0.8,0.4-0.8,1v0.2h-1.5V194c0-1.2,0.8-2.2,2.3-2.2c1.5,0,2.3,1,2.3,2.2C119.9,194.8,119.7,195.2,119.1,195.8"/>
		</g>
		<g>
			<path class="st3" d="M122.1,197.8c0.2,0.2,0.4,0.4,0.7,0.4c0.3,0,0.5-0.1,0.7-0.4c0.2-0.4,0.3-1,0.3-2.2c0-1.2-0.1-1.9-0.3-2.2
				c-0.2-0.2-0.4-0.4-0.7-0.4c-0.3,0-0.5,0.1-0.7,0.4c-0.2,0.4-0.3,1-0.3,2.2C121.8,196.8,121.8,197.4,122.1,197.8 M124.5,198.6
				c-0.4,0.5-1,0.7-1.7,0.7c-0.8,0-1.3-0.2-1.7-0.7c-0.5-0.6-0.8-1.5-0.8-3.1c0-1.5,0.2-2.5,0.8-3.1c0.4-0.5,1-0.7,1.7-0.7
				c0.8,0,1.3,0.2,1.7,0.7c0.5,0.6,0.8,1.5,0.8,3.1C125.3,197.1,125,198,124.5,198.6"/>
		</g>
		<g>
			<path class="st2" d="M168.2,69.4l-2.4-1.2l-0.1-0.1l-0.1-0.1l-4.8-4.8l-0.1-0.1v-0.1l-0.8-1.5l-5.7-4.4l-0.1-0.1l-0.1-0.1
				l-2.3-3.1l-2.9-2.8l-0.7,0.6l-0.7,1.1l-0.1,0.1l0,0.3l-1.2,0.7l-1.4,2.2l-0.1,0.1l-0.1,0.1L142,58l-1.3,1.2l-0.3,0.2l-0.3-0.2
				l-1.5-0.8l-0.1-0.1l-0.1-0.1l-2.7-2.7l-1.6-1.4l-2.7-1.6l-0.1-0.1l-0.1-0.1l-3.6-4.9l-2.6-2.5l-4.2,5.2v0.1h-0.1l-4.2,3.5
				l-0.1,0.1h-0.1l-1.3,0.5l-2.6,2.9l-1.9,2.9l-0.5,0.7l-0.5-0.6l-2.8-3.5l-2.8-1.6l-0.1-0.1l-0.1-0.1l-2.9-3.6l-6.6,7.8l-0.2,0.1
				h-2.4l-4.5,5.2l0,0l0,0l-5.6,4.7l-4.2,5.3l5.5-2.6l5.8-4l3.9-4.7l0.1-0.1l0.1-0.1L95,62l5.5-5.2l0.4-0.4l0.4,0.4l2.5,2.4l2.1,0.9
				l0.2,0.1l0.1,0.2l0.9,2.4l0.2,0.5l-0.5,0.2l-3.2,1.6l-1.7,3.5v0.1v0.1l-2.4,3l3.6-1.1l2.5-3.8l0.1-0.2l0.2-0.1l5.6-2.9l2.3-3.4
				l0.1-0.1l0.1-0.1l2.9-2.4l0,0l0,0l3.2-2.3l4.6-5l0.3-0.4l0.4,0.3l2.2,1.5l0.1,0.1l0.1,0.1l2.5,3.5l3.4,2.7l0.1,0.1l0.1,0.1
				l1.2,1.9l4.3,2.8l0.1,0.1l0.1,0.1l2.7,3l1.9,0.8l0.1,0.1l0.1,0.1l2.6,3.2l3.4,1.3l-1.5-2.3l0,0l0,0l-1.9-3.5l-1-1l-1.7-1.2
				l-0.1-0.1l-0.1-0.2l-0.6-1.2l-0.2-0.4l0.3-0.3l1.8-1.7l0.1-0.1h0.1l1.5-0.8l0.6-1.2l0.1-0.1l0.1-0.1l0.9-0.9l0.4-0.3l0.4,0.3
				l1.6,1.3l0.1,0.1l0.1,0.1l1.2,1.9l3.1,2l2.2,1.4l0.1,0.1l0.1,0.1l1.2,1.9l4.8,3.8l0.1,0.1l0.1,0.1l1.2,1.8l3.9,1.5l0,0l0,0
				l3.9,1.6l-1.6-2.1L168.2,69.4z"/>
		</g>
		<path class="st2" d="M195.4,78.6H54.6v12.8h140.7L195.4,78.6z"/>
		<g>
			<path class="st1" d="M66.9,81.9c1.5,0,2.5,0.8,2.5,2.2h-1.6c0-0.6-0.3-0.9-0.8-0.9c-0.6,0-0.9,0.3-0.9,1.9c0,1.5,0.3,1.9,0.9,1.9
				c0.5,0,0.8-0.4,0.9-1h-0.9v-1.1h2.5v3.2h-1.2l-0.2-0.6c-0.2,0.5-0.8,0.8-1.4,0.8c-1.5,0-2.3-1.2-2.3-3.2
				C64.4,83.1,65.1,81.9,66.9,81.9"/>
		</g>
		<path class="st1" d="M75,88.1h-1.6V82H75V88.1z"/>
		<g>
			<path class="st1" d="M81.5,88.1l-1-2.8v2.8H79V82h1.5l1.7,4.5l1.7-4.5h1.5v6.1h-1.5v-2.8l-1,2.8H81.5z"/>
		</g>
		<g>
			<path class="st1" d="M89.8,82.6c0.5-0.5,1.1-0.7,1.9-0.7c1.5,0,2.5,0.8,2.5,2.2h-1.6c0-0.6-0.3-0.9-0.8-0.9
				c-0.3,0-0.5,0.1-0.6,0.3c-0.2,0.3-0.2,0.7-0.2,1.5c0,0.8,0.1,1.2,0.2,1.5c0.2,0.2,0.4,0.3,0.6,0.3c0.5,0,0.8-0.4,0.8-0.9h1.6
				c-0.1,1.4-0.9,2.2-2.5,2.2c-0.8,0-1.5-0.2-1.9-0.7c-0.5-0.5-0.7-1.4-0.7-2.4C89.1,84,89.3,83.1,89.8,82.6"/>
		</g>
		<g>
			<path class="st1" d="M100.9,85.6h-1.3v2.5h-1.6V82h1.6v2.3h1.3V82h1.6v6.1h-1.6V85.6z"/>
		</g>
		<g>
			<path class="st1" d="M106.5,82h3.9v1.3h-2.3v1h2v1.3h-2v1.2h2.3v1.3h-3.9V82z"/>
		</g>
		<g>
			<path class="st1" d="M117.4,83.5c-0.2-0.2-0.4-0.3-0.7-0.3c-0.3,0-0.5,0.1-0.6,0.3c-0.2,0.3-0.2,0.7-0.2,1.5s0.1,1.2,0.2,1.5
				c0.2,0.2,0.4,0.3,0.6,0.3c0.3,0,0.5-0.1,0.7-0.3c0.2-0.3,0.2-0.7,0.2-1.5S117.5,83.7,117.4,83.5 M118.6,87.4
				c-0.5,0.5-1.1,0.7-1.9,0.7c-0.8,0-1.5-0.2-1.9-0.7c-0.5-0.5-0.7-1.4-0.7-2.4c0-1,0.2-1.9,0.7-2.4c0.5-0.5,1.1-0.7,1.9-0.7
				s1.5,0.2,1.9,0.7c0.5,0.5,0.6,1.4,0.6,2.4C119.2,86.1,119.1,86.8,118.6,87.4"/>
		</g>
		<g>
			<path class="st1" d="M124.7,84.8v3.3h-1.5V82h1.5l1.5,3.3V82h1.5v6.1h-1.5L124.7,84.8z"/>
		</g>
		<g>
			<path class="st1" d="M138.3,88.1c-1.5,0-2.3-0.8-2.3-1.9v-0.2h1.6v0.2c0,0.4,0.2,0.6,0.6,0.6s0.6-0.2,0.6-0.6
				c0-0.4-0.2-0.5-0.8-0.7l-0.5-0.1c-1-0.2-1.8-0.8-1.8-1.9c0-1,0.8-1.8,2.2-1.8c1.4,0,2.2,0.8,2.2,1.7v0.1h-1.6v-0.1
				c0-0.3-0.2-0.5-0.5-0.5c-0.4,0-0.5,0.2-0.5,0.5c0,0.3,0.2,0.5,0.8,0.6l0.5,0.1c1.1,0.2,1.7,0.8,1.7,1.9
				C140.6,87.4,139.8,88.1,138.3,88.1"/>
		</g>
		<g>
			<path class="st1" d="M146.7,83.7l-0.5,2.1h1.1L146.7,83.7z M147.5,82l1.9,6.1h-1.6l-0.2-1h-1.7l-0.2,1H144L146,82H147.5z"/>
		</g>
		<g>
			<path class="st1" d="M154.7,84.8v3.3h-1.5V82h1.5l1.5,3.3V82h1.5v6.1h-1.5L154.7,84.8z"/>
		</g>
		<g>
			<path class="st1" d="M164.1,81.9c1.5,0,2.5,0.8,2.5,2.2h-1.6c0-0.6-0.3-0.9-0.8-0.9c-0.6,0-0.9,0.3-0.9,1.9
				c0,1.5,0.3,1.9,0.9,1.9c0.5,0,0.8-0.4,0.9-1h-0.9v-1.1h2.5v3.2h-1.2l-0.2-0.6c-0.2,0.5-0.8,0.8-1.4,0.8c-1.5,0-2.3-1.2-2.3-3.2
				C161.5,83.1,162.3,81.9,164.1,81.9"/>
		</g>
		<g>
			<path class="st1" d="M173.1,88.1l-1-2.8v2.8h-1.5V82h1.5l1.7,4.5l1.7-4.5h1.5v6.1h-1.5v-2.8l-1,2.8H173.1z"/>
		</g>
		<g>
			<path class="st1" d="M180.8,85.8V82h1.6v3.9c0,0.7,0.3,1,0.8,1c0.5,0,0.8-0.3,0.8-1V82h1.6v3.8c0,1.5-0.8,2.4-2.4,2.4
				C181.6,88.1,180.8,87.2,180.8,85.8"/>
		</g>
		<g>
			<path class="st2" d="M80.6,143.5H87v2.2h-3.9v1.9h3.9v2.1h-3.9v4.3h-2.5C80.6,154.1,80.6,143.5,80.6,143.5z"/>
		</g>
		<g>
			<path class="st2" d="M90.1,151.4c0,0.5,0.4,0.7,0.8,0.7s0.8-0.2,0.8-0.7V146c0-0.5-0.4-0.7-0.8-0.7s-0.8,0.2-0.8,0.7V151.4z
				 M87.8,145.7c0-1.8,1.5-2.5,3.2-2.5c1.8,0,3.2,0.6,3.2,2.5v6.2c0,1.8-1.5,2.5-3.2,2.5s-3.2-0.6-3.2-2.5V145.7z"/>
		</g>
		<g>
			<path class="st2" d="M97.5,151.4c0,0.5,0.4,0.7,0.8,0.7c0.5,0,0.8-0.2,0.8-0.7V146c0-0.5-0.4-0.7-0.8-0.7c-0.5,0-0.8,0.2-0.8,0.7
				V151.4z M95.1,145.7c0-1.8,1.5-2.5,3.2-2.5s3.2,0.6,3.2,2.5v6.2c0,1.8-1.5,2.5-3.2,2.5c-1.8,0-3.2-0.6-3.2-2.5V145.7z"/>
		</g>
		<g>
			<path class="st2" d="M108.4,143.5v2.2h-1.9v8.4H104v-8.4H102v-2.2H108.4z"/>
		</g>
		<g>
			<path class="st2" d="M111.7,151.4l0.7,0.2c0.6,0.2,0.9,0.1,0.9-0.5V150c0-0.5-0.5-0.6-0.8-0.6h-0.8L111.7,151.4L111.7,151.4z
				 M112.4,145.6h-0.8v1.9h0.8c0.5,0,0.7-0.2,0.7-0.8v-0.2C113.2,145.9,113,145.6,112.4,145.6 M111.7,153.5v0.5h-2.5v-10.5h4.1
				c1.5,0,2.3,0.3,2.3,1.9v1.5c0,0.8-0.7,1.5-1.5,1.5c0.9,0.1,1.7,0.8,1.7,1.7v2.2c0,1.5-0.5,2.2-2.3,1.8L111.7,153.5z"/>
		</g>
		<g>
			<path class="st2" d="M119.3,150.1h1.2l-0.6-4.9L119.3,150.1z M118.8,154.1h-2.5l1.5-10.6h4.2l1.5,10.6h-2.5l-0.2-1.8h-1.8
				L118.8,154.1z"/>
		</g>
		<g>
			<path class="st2" d="M130.6,151.8v2.2h-6.4v-10.6h2.5v8.3H130.6z"/>
		</g>
		<g>
			<path class="st2" d="M137.6,151.8v2.2h-6.4v-10.6h2.5v8.3H137.6z"/>
		</g>
		<g>
			<path class="st2" d="M147.1,150.2v1.6c0,1.8-1.5,2.5-3.2,2.5c-1.8,0-3.3-0.6-3.3-2.5v-6.2c0-1.8,1.5-2.5,3.2-2.5
				c1.8,0,3.2,0.6,3.2,2.5v1.2h-2.5V146c0-0.5-0.3-0.7-0.8-0.7s-0.8,0.2-0.8,0.7v5.4c0,0.5,0.3,0.7,0.8,0.7s0.8-0.2,0.8-0.7v-1.2
				H147.1z"/>
		</g>
		<g>
			<path class="st2" d="M154.3,151.8v2.2h-6.4v-10.6h2.5v8.3H154.3z"/>
		</g>
		<g>
			<path class="st2" d="M161.5,143.5v8.3c0,1.8-1.5,2.5-3.2,2.5c-1.8,0-3.2-0.6-3.2-2.5v-8.3h2.5v7.9c0,0.5,0.3,0.7,0.8,0.7
				c0.5,0,0.8-0.2,0.8-0.7v-7.9H161.5z"/>
		</g>
		<g>
			<path class="st2" d="M164.8,151.4l0.7,0.2c0.6,0.2,0.9,0.1,0.9-0.5V150c0-0.5-0.5-0.6-0.8-0.6h-0.8L164.8,151.4L164.8,151.4z
				 M165.6,145.6h-0.8v1.9h0.8c0.5,0,0.7-0.2,0.7-0.8v-0.2C166.3,145.9,166.2,145.6,165.6,145.6 M164.8,153.5v0.5h-2.5v-10.5h4.1
				c1.5,0,2.3,0.3,2.3,1.9v1.5c0,0.8-0.7,1.5-1.6,1.5c0.9,0.1,1.7,0.8,1.7,1.7v2.2c0,1.5-0.5,2.2-2.3,1.8L164.8,153.5z"/>
		</g>
		<g>
			<path class="st3" d="M54.6,96h19.8v5.1c0.1,12.6-8.2,18.4-19.8,19.7v-8c5.8-0.4,12.3-2.2,12.3-9.1c-4.1,0.2-8.2,0.2-12.3,0.4
				C54.6,104,54.6,96,54.6,96z"/>
		</g>
		<g>
			<path class="st3" d="M77.7,96H86l-0.1,22.2c-2.8,0.2-5.6,0.3-8.3,0.5L77.7,96z"/>
		</g>
		<g>
			<path class="st3" d="M164,119.6c10.5,0.7,20.9,1.6,31.3,2.7v9c-3.8-0.5-7.6-1.1-11.5-1.6v11.4c-2.8-0.5-5.6-0.9-8.3-1.3v-11.1
				c-3.9-0.4-7.7-0.8-11.5-1.1L164,119.6z"/>
		</g>
		<g>
			<path class="st3" d="M148.9,96h8.1v7.6c1.5,0,2.3,0.1,3.9,0.1v7.8c-1.5-0.1-2.3-0.1-3.9-0.2v7.4c-2.7-0.2-5.4-0.2-8.2-0.4
				L148.9,96z"/>
		</g>
		<g>
			<path class="st3" d="M124.9,110.7c5.1-1.5,7-7.1,7-11.9V96h8v2.8c-0.2,4.9,2.2,9.9,7,11.6v7.9c-4.4-1.1-8.4-3.9-11-7.6
				c-2.3,4-6.7,6.5-11.1,7.6L124.9,110.7L124.9,110.7z"/>
		</g>
		<g>
			<path class="st3" d="M108.3,106.8c2.1,0,3.2,0,5.3-0.1V95.9h8.1v26.5c-2.7,0-5.5,0.1-8.2,0.1v-8.9c-2.1,0-3.2,0.1-5.3,0.1
				L108.3,106.8z"/>
		</g>
		<g>
			<path class="st3" d="M110.5,122.7c-4.2-0.5-8.5-2.2-11-5.6c-2.4,3.7-6.6,5.7-10.6,6.7v-7.6c4.5-0.9,6.9-4.4,6.8-9v-0.8
				c-2.7,0.1-4,0.1-6.7,0.2v-7.6c2.7,0,4,0,6.7-0.1V96h8v2.9c2.6,0,3.9,0,6.6,0v7.2c-2.7,0-4,0.1-6.7,0.1v0.8
				c-0.3,4.5,2.7,7.9,7.1,8.4L110.5,122.7z"/>
		</g>
		<g>
			<path class="st3" d="M62.8,133.6c4.9-0.9,9.9-1.8,14.9-2.6v-3.2c-4.9,0.5-9.9,1.1-14.9,1.7V133.6z M54.6,123.1
				c10.4-1.2,20.8-2.1,31.2-2.8l-0.1,17.7c-2.8,0.3-5.5,0.6-8.2,1v-1.2c-7.7,1.5-15.3,3.1-23,5V123.1z"/>
		</g>
		<g>
			<path class="st3" d="M121.8,135.9c-10.6,0.2-21.3,0.7-31.8,1.7l0.1-12.8c2.9-0.2,5.8-0.4,8.6-0.5v5.4c7.7-0.5,15.4-0.7,23.2-0.8
				L121.8,135.9z"/>
		</g>
		<g>
			<path class="st3" d="M148.2,130.2c1,0.1,1.8-0.2,1.8-1.3c0-1.2-0.7-1.5-1.8-1.5c-4.3-0.2-8.6-0.4-13-0.5c-0.9,0-1.6,0.2-1.6,1.4
				c0,1,0.7,1.4,1.6,1.4C139.6,129.9,143.9,130,148.2,130.2 M132.6,120.5c6,0.1,12.1,0.3,18.1,0.5c4.2,0.4,7.2,4.5,7.2,8.5
				c0,3.9-3.2,7.6-7.2,7.5c-6.1-0.4-12.1-0.7-18.2-0.8c-4.2,0.1-7.2-4.2-7.2-7.9C125.5,124.5,128.4,120.2,132.6,120.5"/>
		</g>
		<g>
			<path class="st3" d="M172,108.1c5.2,0.2,10.3,0.5,15.5,0.7v-4.5c-5.2-0.2-10.3-0.3-15.5-0.5V108.1z M163.9,96h31.4v21.7
				c-10.4-0.9-20.9-1.7-31.4-2.2V96z"/>
		</g>
		<g>
			<path class="st4" d="M89.1,159.4v19.5c0.5,0.8,1.1,1.5,1.6,2.2c3.9,5.2,8.3,9.9,13.1,14v-35.7H89.1z"/>
		</g>
		<g>
			<path class="st4" d="M146.2,159.3V195c5.6-4.8,10.5-10.3,14.7-16.3v-19.4H146.2z"/>
		</g>
	</g>
</g>
<g id="레이어_1">
</g>
<rect x="8" y="34.8" class="st0" width="234" height="180.4"/>
</svg>
