<?xml version="1.0" encoding="utf-8"?>
<!-- Generator: Adobe Illustrator 25.1.0, SVG Export Plug-In . SVG Version: 6.00 Build 0)  -->
<svg version="1.1" id="Layer_1" xmlns="http://www.w3.org/2000/svg" xmlns:xlink="http://www.w3.org/1999/xlink" x="0px" y="0px"
	 viewBox="0 0 250 250" style="enable-background:new 0 0 250 250;" xml:space="preserve">
<style type="text/css">
	.st0{fill:none;}
	.st1{fill:#213D40;}
	.st2{fill:#C6AB60;}
	.st3{fill:#CCAF61;}
	.st4{fill:#2E533E;}
	.st5{fill:#FFFFFF;}
</style>
<g id="Layer_1_1_">
</g>
<g id="레이어_1">
	<rect x="8" y="8" class="st0" width="234" height="234"/>
</g>
<g id="_레이어_1">
</g>
<g id="svg2">
	<g id="g12">
		<g id="g18" transform="translate(113.38 58.06)">
			<path id="path20" class="st1" d="M97.6,66.9c0,47.4-38.5,86-86,86s-85.9-38.5-85.9-86S-35.8-19,11.6-19S97.6,19.5,97.6,66.9"/>
		</g>
		<g id="g22" transform="translate(58.06 116.12)">
			<path id="path24" class="st2" d="M66.9-81.3c-49.7,0-90.2,40.5-90.2,90.2s40.5,90.2,90.2,90.2s90.2-40.5,90.2-90.2
				S116.7-81.3,66.9-81.3 M66.9-77.1c47.4,0,86,38.5,86,86s-38.5,85.9-86,85.9S-19,56.3-19,8.9S19.5-77.1,66.9-77.1"/>
		</g>
		<g id="g26" transform="translate(38.618 68.138)">
			<path id="path28" class="st3" d="M56.2,41.2c-4.9-3.5-10.2-3.7-14-3c2.5-6,6.2-11.4,11-15.9c0.2-3.5,0.8-7.1,2-10.6
				c0.3-1,0.7-2,1.1-2.9c-13.3,8.3-22.8,22-25.7,37.9l0,0l0,0l0,0c3.7-2.9,7.9-4.9,12.6-5.9C47.5,39.9,52,40,56.2,41.2"/>
		</g>
		<g id="g30" transform="translate(69.873 23.751)">
			<path id="path32" class="st3" d="M73.5,154.6l0.8,0.2l-0.3-0.4c0.1,0,0.1,0,0.2-0.1c-4.4-1.8-8.3-4.5-11.6-8
				c-2.9-3.2-4.9-6.9-6-10.9c-0.5,5.7,1.8,10.1,4.1,13.1c-1.9,0.2-3.9,0.4-5.9,0.4c-4.6,0-9.1-0.7-13.3-1.9
				c-3.2,1.6-6.6,2.8-10.1,3.5c-1.1,0.2-2.1,0.4-3.2,0.5c7.9,4.2,17,6.6,26.5,6.6C61.4,157.7,67.7,156.6,73.5,154.6"/>
		</g>
		<g id="g34" transform="translate(76.664 70.342)">
			<path id="path36" class="st3" d="M77.2,35.6L77,36.3c5.3-2.5,8-6.7,9.5-10.3c3.7,5,6.5,10.7,8,17c2.9,2,5.7,4.3,8.2,7
				c0.7,0.8,1.4,1.6,2.1,2.5c-0.5-16.2-7.9-30.7-19.4-40.7l-0.2-0.5L85,11.6c-0.1-0.1-0.2-0.2-0.3-0.3c0.6,4.6,0.2,9.3-1.2,13.9
				C82.2,29.2,80,32.7,77.2,35.6"/>
		</g>
		<g id="g38" transform="translate(58.049 64.665)">
			<path id="path40" class="st3" d="M66.9,50.1c-8.7,8.8-7.6,12.9-7.6,12.9c0,4.2,3.5,7.7,7.7,7.7s7.7-3.5,7.7-7.7v-0.2
				C74.8,61.7,74.5,57.7,66.9,50.1"/>
		</g>
		<g id="g42" transform="translate(27.266 32.918)">
			<path id="path44" class="st3" d="M49.9,131.1c4.9,3.2,10.6,4.9,16.4,4.9c2.2,0,4.4-0.2,6.6-0.7c12.3-2.7,21.8-11.2,26.4-22
				c2.3-0.2,4.6-0.7,6.6-1.5c-2.5,7-1.2,15.3,4.1,21.1c4.9,5.4,11.8,8.3,18.6,8.3c5.2,0,10.4-1.6,14.8-4.9
				c-11.6,12-27.7,19.4-45.6,19.4c-22.4,0-42-11.6-53.4-29.1C46,128.3,47.8,129.9,49.9,131.1 M46.3,97.2c2.5-3.9,6.5-6.6,11-7.6
				c7.2-1.5,14.3,3,15.8,10.2c0.5,2.5,0.1,5.2-1.3,7.4c-1.5,2.2-3.6,3.7-6.2,4.3c-1.9,0.4-3.8,0.1-5.4-1c-1.6-1-2.7-2.6-3.2-4.6
				c-0.5-2.1-2.5-3.3-4.5-2.9c-2.1,0.5-3.3,2.5-2.9,4.5c0.8,3.9,3.1,7.1,6.4,9.3c3.3,2.2,7.2,2.9,11.1,2c4.6-1,8.4-3.7,11-7.6
				c1.2-2,2.1-4.1,2.5-6.3c2.6,3.5,6.3,6.2,10.6,7.5c-3.9,7.6-11.1,13.6-20.1,15.6c-6,1.3-12.1,0.2-17.3-3.1
				c-5.2-3.3-8.7-8.4-9.9-14.4C42.9,105.8,43.8,101.1,46.3,97.2 M40,93.1c-2.8,4.3-4.1,9.3-4,14.3c-1.2-4.9-1.9-10-1.9-15.3
				c0-33.8,26.5-61.5,59.8-63.5c-9.8,2.5-18.2,9.8-21.5,20.2c-3.9,12.1-1.2,24.8,6.2,34.2c-0.9,2.1-1.6,4.2-1.9,6.6
				c-4.8-6.1-12.8-9.3-20.7-7.5C49.3,83.5,43.6,87.4,40,93.1 M108.3,36.3c4.5,1.5,8.1,4.6,10.3,8.6c2.2,4.2,2.5,8.9,1.2,13.4
				c-2.2,7-9.7,10.9-16.7,8.6c-2.5-0.8-4.6-2.5-5.8-4.9c-1.2-2.4-1.5-5-0.6-7.6c0.6-1.9,1.9-3.3,3.5-4.2c1.7-0.8,3.6-1,5.5-0.5
				c2,0.6,4.1-0.5,4.8-2.5c0.6-2-0.5-4.1-2.5-4.8c-3.7-1.2-7.7-0.8-11.2,0.9s-6.1,4.9-7.2,8.6c-2.2,6.9,0.2,14.3,5.4,18.7
				c-4.6,0.6-8.6,2.6-11.7,5.6c-4.9-7.2-6.5-16.5-3.6-25.5C83.4,39.1,96.3,32.5,108.3,36.3 M161.3,92.1c0,11-2.9,21.4-7.9,30.5
				c1-2.9,1.6-5.9,1.8-9c0.4-8.1-2.4-15.9-7.9-21.9c-8.5-9.4-20.6-13.3-32.2-11.9c-1.3-1.9-2.9-3.5-4.9-4.9
				c7.5-1.2,14.1-6.5,16.6-14.2c2.1-6.4,1.5-13.2-1.6-19.1c-2.5-4.8-6.2-8.5-10.9-10.9C141.4,38.1,161.3,62.8,161.3,92.1
				 M97.7,108.5c-9,0-16.3-7.3-16.3-16.3s7.3-16.3,16.3-16.3S114,83.1,114,92.1S106.7,108.5,97.7,108.5 M140.3,129.1
				c-7.2,6.6-18.3,6-24.8-1.2c-4.9-5.4-4.6-13.9,0.9-18.8c4-3.7,10.3-3.3,14,0.7c2.6,2.9,2.5,7.4-0.5,10.1c-1.5,1.4-1.6,3.8-0.2,5.3
				s3.8,1.6,5.3,0.2c2.9-2.6,4.6-6.2,4.8-10.2c0.2-3.9-1.2-7.7-3.8-10.6c-4.8-5.2-12-6.9-18.4-4.8c0.9-2.5,1.5-5,1.5-7.9
				c0-1.7-0.2-3.4-0.6-4.9c8.6-0.4,17.2,2.9,23.4,9.6c4.1,4.6,6.2,10.4,5.9,16.5C147.6,119.3,144.8,125,140.3,129.1 M97.7,158.8
				c36.8,0,66.7-29.9,66.7-66.7s-29.9-66.7-66.7-66.7S31,55.3,31,92.1S60.9,158.8,97.7,158.8"/>
		</g>
		<g id="g46" transform="translate(79.99 58.06)">
			<path id="path48" class="st4" d="M79.1,66.9C79.1,85.7,63.8,101,45,101S11,85.7,11,66.9s15.3-34,34-34S79.1,48.1,79.1,66.9"/>
		</g>
		<g id="g50" transform="translate(58.06 78.896)">
			<path id="path52" class="st3" d="M66.9,13.7c-17.8,0-32.4,14.5-32.4,32.4S49,78.5,66.9,78.5S99.3,64,99.3,46.1
				S84.8,13.7,66.9,13.7 M66.9,81.9c-19.7,0-35.8-16-35.8-35.8s16-35.8,35.8-35.8s35.8,16,35.8,35.8S86.6,81.9,66.9,81.9"/>
		</g>
		<g id="g54" transform="translate(10.778 69.967)">
			<path id="path56" class="st5" d="M40.7,36.6L40.7,36.6c0.5,0.1,0.8,0.2,1.1,0.2c0.3,0.1,0.5,0.2,0.6,0.2c0.5,0.2,0.8,0.5,1,0.8
				c0.1,0.2,0.2,0.5,0.2,0.8c0,0.3,0,0.6-0.1,1L43,41.9c-0.1,0.5-0.2,0.8-0.3,1.2c-0.2,0.3-0.3,0.5-0.5,0.8
				c-0.2,0.2-0.4,0.3-0.6,0.4c-0.2,0.1-0.5,0.2-0.8,0.2c-0.2,0-0.5,0-0.8-0.1c-0.4,0-0.8-0.2-1.3-0.2c-1.2-0.2-2-0.6-2.3-1.2
				s-0.3-1.4-0.1-2.5l0.4-2.2c0.2-0.8,0.4-1.3,0.8-1.7c0.4-0.3,0.9-0.4,1.5-0.3l0,0c0.1,0,0.1,0,0.1,0.1L39.1,37
				c0,0.1,0,0.1-0.1,0.1c-0.2,0-0.4,0-0.5,0c-0.2,0-0.3,0.2-0.4,0.3c-0.1,0.1-0.2,0.2-0.2,0.4c-0.1,0.2-0.2,0.4-0.2,0.6l-0.5,2.2
				c-0.1,0.4-0.1,0.7-0.1,1s0,0.5,0.1,0.6c0.1,0.3,0.4,0.5,0.8,0.7c0.2,0.1,0.8,0.2,1.6,0.4c0.9,0.2,1.5,0.2,1.9,0
				c0.3-0.2,0.5-0.7,0.8-1.6l0.5-2.5c0.1-0.6,0.1-1.1-0.1-1.2c-0.1-0.1-0.2-0.2-0.4-0.3c-0.2-0.1-0.5-0.2-0.8-0.2l-0.8,3.2
				c0,0.1-0.1,0.1-0.2,0.1L40,40.5c-0.1,0-0.1-0.1-0.1-0.2L40.7,36.6L40.7,36.6L40.7,36.6L40.7,36.6z"/>
		</g>
		<g id="g58" transform="translate(9.659 69.793)">
			<path id="path60" class="st5" d="M40.1,36.9C40.1,36.9,40.1,37,40.1,36.9z M37.8,43c0.3,0.5,1,0.8,2.2,1c0.5,0.1,0.9,0.2,1.2,0.2
				c0.3,0,0.6,0.1,0.8,0.1c0.2,0,0.5,0,0.7-0.1c0.2-0.1,0.4-0.2,0.5-0.4c0.2-0.2,0.3-0.4,0.4-0.7c0.1-0.3,0.2-0.7,0.3-1.2l0.5-2.4
				c0.1-0.4,0.1-0.7,0.1-0.9s0-0.5-0.1-0.6c-0.2-0.3-0.4-0.5-0.8-0.7c-0.2-0.1-0.4-0.1-0.6-0.2S42.3,37.1,42,37l-0.7,3.5l0.4,0.1
				l0.5-2.9l0.3-0.2c0.4,0.1,0.6,0.2,0.8,0.2c0.2,0.1,0.4,0.2,0.5,0.4c0.2,0.3,0.3,0.8,0.2,1.5l-0.5,2.4c-0.2,0.9-0.5,1.5-0.8,1.8
				c-0.4,0.2-1,0.2-2,0c-0.8-0.2-1.5-0.3-1.7-0.4c-0.5-0.2-0.8-0.5-0.9-0.8C38,42.2,38,42,38,41.7c0-0.3,0-0.6,0.1-1l0.5-2.2
				c0-0.2,0.1-0.5,0.2-0.7c0.1-0.2,0.2-0.4,0.2-0.5c0.2-0.2,0.4-0.3,0.5-0.4c0.2,0,0.3,0,0.5,0l0.1-0.4c-0.5-0.1-0.8,0-1.2,0.3
				c-0.4,0.3-0.6,0.8-0.8,1.5l-0.4,2.2C37.5,41.8,37.5,42.6,37.8,43L37.8,43z M42,44.8c-0.2,0-0.5,0-0.8-0.1c-0.4,0-0.8-0.2-1.3-0.2
				c-1.2-0.2-2.1-0.6-2.5-1.2c-0.4-0.5-0.5-1.5-0.2-2.8l0.4-2.2c0.2-0.8,0.5-1.5,0.9-1.9c0.5-0.4,1.1-0.5,1.8-0.4
				c0.2,0,0.4,0.2,0.3,0.4l-0.2,0.7c0,0.2-0.1,0.2-0.2,0.2c0,0-0.2,0.1-0.3,0c-0.2,0-0.3,0-0.4,0s-0.2,0.1-0.3,0.2
				c-0.1,0.1-0.2,0.2-0.2,0.4c-0.1,0.2-0.1,0.4-0.2,0.5l-0.5,2.2c-0.1,0.4-0.1,0.7-0.1,0.9s0,0.4,0.1,0.5c0.1,0.2,0.3,0.4,0.6,0.5
				c0.2,0.1,0.5,0.2,1.6,0.4c1.2,0.2,1.5,0.2,1.6,0.1c0.2-0.1,0.4-0.4,0.6-1.4l0.5-2.5c0.2-0.7,0-1,0-1.1c0,0-0.1-0.1-0.3-0.2
				c-0.1-0.1-0.3-0.1-0.5-0.2L42,40.6c0,0.2-0.1,0.2-0.2,0.2c0,0-0.2,0.1-0.3,0L41,40.9c-0.2,0-0.2-0.1-0.2-0.2c0,0-0.1-0.2,0-0.3
				l0.8-3.8l0.1-0.2l0.1-0.1H42c0.4,0.1,0.8,0.2,1.1,0.2s0.5,0.2,0.7,0.2c0.5,0.2,0.9,0.5,1.1,1c0.1,0.2,0.2,0.5,0.2,0.8
				c0,0.3,0,0.7-0.1,1.1l-0.5,2.4c-0.1,0.5-0.2,0.8-0.4,1.2c-0.2,0.4-0.3,0.6-0.5,0.8c-0.2,0.2-0.4,0.4-0.7,0.5
				C42.6,44.7,42.3,44.8,42,44.8"/>
		</g>
		<g id="g62" transform="translate(13.988 73.199)">
			<path id="path64" class="st5" d="M42.5,28.3C42.5,28.3,42.4,28.4,42.5,28.3l-6.3-2.2c-0.1,0-0.1-0.1-0.1-0.1l0.2-0.5
				c0,0,0.1-0.1,0.2,0l6.2,2.2c0.1,0,0.1,0.1,0.1,0.1L42.5,28.3z"/>
		</g>
		<g id="g66" transform="translate(14.002 73.428)">
			<path id="path68" class="st5" d="M36.4,25.8l5.9,2.1l0.1-0.2l-5.9-2.1L36.4,25.8z M42.4,28.4c0,0-0.1,0-0.2,0L36,26.2
				c-0.2,0-0.2-0.2-0.2-0.2v-0.2l0.2-0.5c0-0.1,0.1-0.2,0.2-0.2c0.1,0,0.2,0,0.2,0l6.2,2.2c0.2,0,0.2,0.1,0.2,0.2v0.2l-0.2,0.5
				C42.7,28.2,42.6,28.4,42.4,28.4"/>
		</g>
		<g id="g70" transform="translate(18.135 82.23)">
			<path id="path72" class="st5" d="M44.8,5.2c0,0.1-0.1,0.1-0.2,0l-5.3-2.8l-0.1,0.2l3.7,5.9v0.1L42.7,9l0,0l-7,0.2l-0.1,0.2
				l5.3,2.8c0.1,0,0.1,0.1,0,0.2L40.6,13c0,0.1-0.1,0.1-0.2,0l-5.8-3.1c-0.1,0-0.1-0.1,0-0.2l0.8-1.4l0,0l6.4-0.1l-3.4-5.5V2.7
				l0.7-1.3c0,0,0.1,0,0.2,0l5.8,3.1c0.1,0,0.1,0.1,0,0.1L44.8,5.2L44.8,5.2z"/>
		</g>
		<g id="g74" transform="translate(18.129 82.351)">
			<path id="path76" class="st5" d="M35,9.7l5.6,2.9l0.2-0.3l-5.2-2.7l-0.1-0.4l0.1-0.2l0.2-0.2l6.9-0.2l0.2-0.2l-3.7-5.8V2.4
				l0.1-0.2l0.4-0.1l5.2,2.7l0.2-0.3l-5.6-2.9l-0.5,1.1l3.3,5.3l-0.2,0.4l-6.2,0.2C35.6,8.6,35,9.7,35,9.7z M40.6,13.2
				c-0.1,0-0.1,0-0.2,0l-5.8-3.1c-0.2-0.2-0.2-0.4-0.2-0.6l0.8-1.3l0.1-0.2h0.2l5.9-0.2l-3.2-5.2c0-0.1,0-0.2,0-0.3L38.9,1l0.2-0.2
				c0.1,0,0.2,0,0.3,0L45.2,4c0.2,0.1,0.2,0.3,0.2,0.5L45,5.1c-0.1,0.1-0.2,0.2-0.2,0.2s-0.2,0-0.3,0l-4.8-2.5l3.5,5.6
				c0,0.1,0,0.2,0,0.3L43,9l-0.1,0.2h-0.2l-6.4,0.2l4.7,2.5c0.2,0.1,0.2,0.3,0.2,0.5l-0.3,0.6C40.9,13.2,40.7,13.2,40.6,13.2"/>
		</g>
		<g id="g78" transform="translate(20.464 90.759)">
			<path id="path80" class="st5" d="M46.1-16.6c-0.2-0.1-0.3-0.2-0.4-0.2c-0.2,0-0.3,0-0.4,0.1c-0.1,0-0.2,0.2-0.4,0.2
				c-0.1,0.1-0.2,0.2-0.4,0.4l-2.3,2.9l1.7,1.4l2.3-2.9c0.3-0.4,0.5-0.6,0.5-0.8c0-0.2,0-0.3,0-0.4c-0.1-0.2-0.2-0.2-0.3-0.4
				L46.1-16.6L46.1-16.6z M46.9-14.2l-2.3,2.9l2.1,1.7c0,0,0,0.1,0,0.2l-0.4,0.6c0,0-0.1,0.1-0.2,0L41-13c-0.1,0-0.1-0.1,0-0.2
				l2.9-3.5c0.2-0.3,0.5-0.5,0.8-0.8c0.2-0.2,0.5-0.3,0.8-0.3c0.2,0,0.5,0,0.8,0.1c0.3,0.1,0.5,0.3,0.8,0.5
				C47.9-16.3,47.9-15.4,46.9-14.2"/>
		</g>
		<g id="g82" transform="translate(18.204 88.643)">
			<path id="path84" class="st5" d="M44.9-11.2l1.3,1.1l2.1-2.6c0.3-0.4,0.4-0.6,0.5-0.8c0-0.1,0-0.2,0-0.2c0-0.1-0.2-0.2-0.2-0.3
				l-0.2-0.2c-0.1-0.1-0.2-0.2-0.3-0.2s-0.2,0-0.3,0c-0.1,0-0.2,0.1-0.3,0.2c-0.1,0.1-0.2,0.2-0.4,0.4L44.9-11.2z M46-9.6L44.3-11
				v-0.4l2.3-2.9c0.2-0.2,0.3-0.4,0.4-0.5c0.2-0.1,0.3-0.2,0.4-0.3C47.6-15,47.8-15,48-15c0.2,0,0.4,0.2,0.5,0.3l0.2,0.2
				c0.2,0.2,0.3,0.3,0.4,0.5s0.1,0.4,0.1,0.6c-0.1,0.2-0.2,0.5-0.5,0.9l-2.3,2.9L46-9.6L46-9.6z M43.5-11l4.9,3.9l0.2-0.3l-2-1.6
				v-0.4l2.3-2.9c1.2-1.4,0.6-2.1,0.1-2.5c-0.3-0.2-0.5-0.4-0.8-0.5c-0.2-0.1-0.5-0.2-0.6-0.1c-0.2,0-0.4,0.1-0.6,0.3
				c-0.2,0.2-0.5,0.4-0.7,0.7L43.5-11z M48.5-6.5c-0.1,0-0.2,0-0.2-0.1l-5.1-4.2c-0.2-0.2-0.2-0.4-0.1-0.5l2.9-3.5
				c0.2-0.3,0.5-0.6,0.8-0.8c0.3-0.2,0.5-0.3,0.8-0.4c0.3,0,0.5,0,0.8,0.2c0.3,0.1,0.6,0.3,0.9,0.5c0.7,0.6,1.3,1.6,0,3.2l-2.2,2.6
				l1.9,1.5c0.1,0.1,0.2,0.2,0.2,0.2s0,0.2-0.1,0.3l-0.5,0.5C48.7-6.5,48.6-6.5,48.5-6.5L48.5-6.5"/>
		</g>
		<g id="g86" transform="translate(27.57 96.433)">
			<path id="path88" class="st5" d="M50-31.1c-0.2-0.3-0.5-0.5-0.6-0.7c-0.2-0.2-0.4-0.3-0.5-0.4c-0.3-0.2-0.5-0.2-0.8,0
				c-0.2,0.2-0.7,0.5-1.3,1L46-30.5c-0.6,0.5-1,0.9-1.2,1.2c-0.2,0.3-0.2,0.5-0.2,0.8c0.1,0.3,0.4,0.8,0.8,1.3l0.4,0.5
				c0.5,0.5,0.8,0.9,1.2,1.1c0.3,0.2,0.6,0.1,0.8,0c0.2-0.2,0.7-0.5,1.3-1l0.8-0.7c0.6-0.5,1-0.8,1.2-1.2c0.2-0.3,0.3-0.5,0.2-0.8
				c0-0.2-0.2-0.4-0.3-0.5c-0.2-0.2-0.4-0.5-0.6-0.8L50-31.1L50-31.1z M51.8-30.2c0.2,0.3,0.3,0.5,0.4,0.8s0.1,0.5,0,0.7
				c-0.1,0.2-0.1,0.5-0.2,0.7c-0.1,0.2-0.3,0.4-0.5,0.6c-0.2,0.2-0.5,0.5-0.8,0.8l-0.8,0.7c-0.8,0.7-1.5,1.2-1.9,1.2
				c-0.5,0.2-1,0.1-1.5-0.2c-0.2-0.1-0.4-0.3-0.7-0.5c-0.2-0.3-0.5-0.6-0.9-1c-0.3-0.4-0.5-0.6-0.8-0.9c-0.2-0.3-0.3-0.5-0.4-0.8
				c-0.1-0.2-0.1-0.5,0-0.7c0-0.2,0.1-0.5,0.2-0.7c0.2-0.4,0.7-0.8,1.4-1.5l0.8-0.7c0.8-0.7,1.4-1.1,1.9-1.2c0.2-0.1,0.5-0.1,0.8,0
				c0.2,0,0.5,0.2,0.8,0.3c0.2,0.2,0.4,0.3,0.6,0.5c0.2,0.2,0.5,0.6,0.9,1C51.4-30.9,51.6-30.6,51.8-30.2"/>
		</g>
		<g id="g90" transform="translate(26.55 97.016)">
			<path id="path92" class="st5" d="M49.5-32.5c-0.1,0-0.2,0-0.4,0.1c-0.2,0.1-0.5,0.3-1.2,0.9L47-30.8c-0.6,0.5-0.9,0.8-1.2,1.1
				s-0.2,0.4-0.2,0.6c0.1,0.3,0.4,0.7,0.8,1.2l0.4,0.5c0.5,0.5,0.8,0.8,1.1,1c0.2,0.1,0.4,0.1,0.7,0c0.2-0.1,0.7-0.4,1.2-0.9
				l0.8-0.7c0.8-0.6,1-0.9,1.1-1.1c0.2-0.2,0.2-0.4,0.2-0.6c0-0.2-0.2-0.3-0.2-0.5c-0.2-0.2-0.4-0.5-0.5-0.7l-0.4-0.5
				c-0.2-0.3-0.5-0.5-0.6-0.7c-0.2-0.2-0.3-0.2-0.5-0.3C49.7-32.5,49.6-32.5,49.5-32.5 M48.4-25.8c-0.2,0-0.3,0-0.5-0.1
				c-0.4-0.2-0.8-0.5-1.2-1.2l-0.5-0.5c-0.5-0.6-0.8-1.1-0.9-1.4c-0.2-0.4-0.1-0.8,0.2-1.1c0.2-0.2,0.5-0.6,1.2-1.2l0.8-0.6
				c0.6-0.5,1.1-0.8,1.3-1c0.5-0.2,0.8-0.2,1.2,0c0.2,0.1,0.4,0.2,0.5,0.4c0.2,0.2,0.4,0.4,0.7,0.7l0.4,0.5c0.2,0.3,0.5,0.5,0.6,0.8
				c0.2,0.2,0.3,0.5,0.3,0.7c0.1,0.2,0.2,0.6-0.2,1.1c-0.2,0.2-0.5,0.6-1.2,1.2l-0.8,0.7c-0.6,0.5-1.1,0.8-1.3,1
				C48.9-25.9,48.7-25.8,48.4-25.8 M45.2-30.1c-0.1,0.2-0.2,0.4-0.2,0.6c0,0.2,0,0.4,0,0.6c0,0.2,0.2,0.4,0.4,0.7
				c0.2,0.3,0.4,0.5,0.7,0.9c0.4,0.4,0.7,0.8,0.9,1c0.2,0.2,0.5,0.4,0.6,0.5c0.4,0.3,0.8,0.4,1.2,0.2c0.4-0.1,1-0.5,1.9-1.2l0.8-0.7
				c0.4-0.3,0.6-0.5,0.8-0.8c0.2-0.2,0.4-0.4,0.5-0.6l0,0c0.1-0.2,0.2-0.4,0.2-0.5c0-0.2,0-0.4,0-0.6c-0.1-0.2-0.2-0.4-0.4-0.7
				c-0.2-0.3-0.4-0.5-0.7-0.9c-0.4-0.4-0.7-0.8-0.9-1c-0.2-0.2-0.5-0.5-0.6-0.5c-0.2-0.2-0.4-0.2-0.6-0.2s-0.4,0-0.6,0
				c-0.5,0.2-1.1,0.5-1.8,1.2l-0.8,0.7C45.8-30.9,45.3-30.5,45.2-30.1L45.2-30.1z M48.4-24.9c-0.4,0-0.8-0.1-1.2-0.4
				c-0.2-0.2-0.4-0.3-0.7-0.6c-0.3-0.3-0.6-0.6-0.9-1s-0.5-0.7-0.8-0.9c-0.2-0.3-0.4-0.5-0.4-0.8c0-0.3-0.1-0.5,0-0.8
				c0-0.2,0.2-0.5,0.3-0.8c0.2-0.4,0.7-0.8,1.5-1.5l0.8-0.7c0.8-0.7,1.5-1.2,2-1.3c0.3-0.1,0.5-0.1,0.8-0.1s0.5,0.2,0.8,0.4
				c0.2,0.2,0.4,0.4,0.7,0.6c0.3,0.3,0.6,0.6,0.9,1c0.3,0.4,0.5,0.7,0.8,0.9c0.2,0.3,0.4,0.6,0.4,0.8c0.1,0.3,0.1,0.5,0,0.8
				c0,0.2-0.2,0.5-0.3,0.8c-0.1,0.2-0.3,0.4-0.5,0.7c-0.2,0.2-0.5,0.5-0.8,0.8L51-26.4c-0.8,0.8-1.5,1.2-2,1.3
				C48.8-25,48.6-24.9,48.4-24.9"/>
		</g>
		<g id="g94" transform="translate(31.169 100.692)">
			<path id="path96" class="st5" d="M52.1-41.9l1,1.7l4.1-2.5c0,0,0.1,0,0.2,0l0.4,0.5c0,0.1,0,0.1,0,0.2l-4.1,2.5l1.5,2.5
				c0,0.1,0,0.1,0,0.2l-0.5,0.4c-0.1,0-0.1,0-0.2,0l-3.4-5.6c0-0.1,0-0.1,0-0.2l4.9-2.9c0,0,0.1,0,0.2,0l0.4,0.5c0,0.1,0,0.1,0,0.2
				L52.1-41.9L52.1-41.9z"/>
		</g>
		<g id="g98" transform="translate(33.697 102.686)">
			<path id="path100" class="st5" d="M48.6-44.2l3.2,5.4l0.3-0.2l-1.5-2.4l0.1-0.4l3.9-2.4l-0.2-0.3l-4,2.4l-0.4-0.1l-1-1.7l0.1-0.4
				l4.1-2.5l-0.1-0.3L48.6-44.2L48.6-44.2z M51.9-38.2c-0.1,0-0.2-0.1-0.3-0.2L48.2-44c-0.1-0.1-0.1-0.2,0-0.3
				c0-0.1,0.1-0.2,0.2-0.2l4.9-2.9h0.2c0.1,0,0.2,0.1,0.2,0.2l0.4,0.5c0.2,0.2,0,0.4-0.1,0.5l-4,2.5l0.8,1.2l3.9-2.3h0.2
				c0.1,0,0.2,0.1,0.2,0.2l0.4,0.5c0.1,0.2,0.1,0.4-0.1,0.5l-3.9,2.3l1.4,2.3c0.1,0.2,0.1,0.4-0.1,0.5l-0.5,0.4
				C52-38.2,51.9-38.2,51.9-38.2"/>
		</g>
		<g id="g102" transform="translate(42.286 104.476)">
			<path id="path104" class="st5" d="M58.2-51.6c-0.2-0.4-0.2-0.6-0.4-0.8c-0.1-0.2-0.2-0.4-0.4-0.5c-0.2-0.2-0.5-0.3-0.8-0.3
				c-0.3,0-0.8,0.2-1.5,0.5l-0.9,0.4c-0.8,0.3-1.2,0.5-1.5,0.7c-0.3,0.2-0.5,0.5-0.5,0.8c0,0.4,0.1,0.8,0.4,1.5l0.2,0.5
				c0.2,0.7,0.5,1.2,0.8,1.4c0.2,0.2,0.5,0.3,0.8,0.2c0.3,0,0.8-0.2,1.5-0.5l0.9-0.4c0.8-0.3,1.2-0.5,1.5-0.7
				c0.3-0.2,0.5-0.5,0.5-0.8c0-0.2,0-0.4-0.1-0.6c-0.1-0.2-0.2-0.5-0.3-0.8L58.2-51.6L58.2-51.6z M59.6-50.3
				c0.1,0.3,0.1,0.6,0.1,0.8c0,0.2-0.1,0.5-0.2,0.7c-0.1,0.2-0.3,0.4-0.5,0.5c-0.2,0.2-0.4,0.3-0.7,0.4c-0.3,0.2-0.7,0.3-1.1,0.5
				l-1,0.4c-1,0.4-1.8,0.5-2.2,0.5c-0.5,0-0.9-0.3-1.3-0.8c-0.2-0.2-0.3-0.4-0.4-0.8c-0.2-0.4-0.3-0.8-0.5-1.2
				c-0.2-0.4-0.3-0.8-0.4-1.2c-0.1-0.3-0.1-0.6-0.1-0.8c0-0.2,0.1-0.5,0.2-0.7c0.1-0.2,0.3-0.4,0.5-0.5c0.3-0.3,0.9-0.5,1.9-0.9
				l1-0.4c1-0.4,1.7-0.5,2.2-0.5c0.2,0,0.5,0.1,0.7,0.2c0.2,0.1,0.4,0.3,0.6,0.5c0.1,0.2,0.2,0.4,0.4,0.8c0.2,0.4,0.4,0.8,0.5,1.2
				C59.4-51,59.5-50.6,59.6-50.3"/>
		</g>
		<g id="g106" transform="translate(41.382 105.391)">
			<path id="path108" class="st5" d="M57.7-54h-0.2c-0.2,0-0.6,0.1-1.5,0.5l-0.9,0.4c-0.9,0.4-1.2,0.5-1.5,0.7
				c-0.2,0.2-0.3,0.3-0.4,0.5c0,0.2,0,0.6,0.4,1.5l0.2,0.5c0.2,0.6,0.5,1.1,0.7,1.3c0.2,0.2,0.4,0.2,0.6,0.2c0.2,0,0.6-0.1,1.5-0.5
				l0.9-0.4c0.8-0.4,1.2-0.5,1.4-0.6c0.2-0.2,0.4-0.3,0.3-0.5c0-0.2,0-0.4-0.1-0.5c-0.1-0.2-0.2-0.5-0.3-0.8l-0.2-0.5
				c-0.2-0.3-0.2-0.6-0.4-0.8c-0.1-0.2-0.2-0.4-0.3-0.5C58.1-53.8,57.9-54,57.7-54 M55.1-47.9c-0.3,0-0.6-0.1-0.8-0.4
				c-0.3-0.3-0.5-0.8-0.8-1.5l-0.2-0.5c-0.3-0.7-0.4-1.2-0.4-1.6c0-0.4,0.2-0.8,0.5-1c0.2-0.2,0.8-0.4,1.5-0.7l0.9-0.4
				c0.8-0.3,1.3-0.5,1.6-0.5c0.5-0.1,0.8,0.2,1.1,0.4c0.2,0.1,0.3,0.3,0.4,0.5c0.1,0.2,0.2,0.5,0.4,0.8l0.2,0.5
				c0.2,0.4,0.2,0.7,0.3,0.9c0.1,0.3,0.1,0.5,0.1,0.8s-0.1,0.6-0.5,0.9c-0.2,0.2-0.8,0.4-1.5,0.7l-0.9,0.4c-0.8,0.3-1.3,0.5-1.6,0.5
				C55.2-47.9,55.1-47.9,55.1-47.9 M53-53c-0.2,0.2-0.3,0.3-0.4,0.5c-0.1,0.2-0.2,0.4-0.2,0.5c0,0.2,0,0.5,0.1,0.8
				c0.1,0.3,0.2,0.7,0.4,1.1c0.2,0.5,0.4,0.9,0.5,1.2c0.2,0.3,0.3,0.5,0.4,0.7c0.3,0.4,0.7,0.6,1.1,0.6c0.4,0,1.2-0.2,2.1-0.5l1-0.4
				c0.4-0.2,0.8-0.3,1.1-0.5c0.3-0.2,0.5-0.3,0.6-0.4c0.2-0.2,0.3-0.3,0.4-0.5c0.1-0.2,0.2-0.4,0.2-0.5c0-0.2,0-0.5-0.1-0.8
				c-0.1-0.3-0.2-0.7-0.4-1.1c-0.2-0.5-0.4-0.9-0.5-1.2c-0.2-0.3-0.3-0.5-0.4-0.8c-0.2-0.2-0.3-0.4-0.5-0.5s-0.4-0.2-0.6-0.2
				c-0.5,0-1.2,0.2-2.1,0.5l-1,0.4C53.9-53.6,53.4-53.3,53-53L53-53z M55.1-46.9h-0.2c-0.6,0-1.1-0.3-1.5-0.8
				c-0.2-0.2-0.3-0.5-0.5-0.8c-0.2-0.4-0.4-0.8-0.5-1.3c-0.2-0.4-0.3-0.8-0.4-1.2C52-51.5,51.9-51.8,52-52c0-0.3,0.1-0.5,0.2-0.8
				c0.2-0.2,0.3-0.5,0.5-0.6c0.4-0.3,0.9-0.6,1.9-0.9l1-0.4c1-0.4,1.8-0.5,2.3-0.5c0.3,0,0.5,0.1,0.8,0.2s0.5,0.4,0.7,0.6
				c0.2,0.2,0.3,0.5,0.4,0.8c0.2,0.4,0.4,0.8,0.5,1.3c0.2,0.4,0.3,0.8,0.4,1.2c0.1,0.4,0.1,0.7,0.1,0.9c0,0.3-0.1,0.5-0.2,0.8
				c-0.2,0.2-0.3,0.5-0.5,0.6c-0.2,0.2-0.4,0.3-0.8,0.5c-0.3,0.2-0.7,0.3-1.2,0.5l-1,0.4C56.2-47.2,55.5-46.9,55.1-46.9"/>
		</g>
		<g id="g110" transform="translate(51.214 106.597)">
			<path id="path112" class="st5" d="M63.1-57c-0.1-0.4-0.2-0.7-0.2-0.9c-0.1-0.2-0.2-0.5-0.3-0.6c-0.2-0.3-0.4-0.4-0.8-0.4
				c-0.3,0-0.8,0-1.6,0.2l-1,0.2c-0.8,0.2-1.3,0.3-1.6,0.4c-0.3,0.2-0.5,0.4-0.6,0.7c-0.1,0.3,0,0.8,0.1,1.6l0.1,0.5
				c0.2,0.7,0.3,1.2,0.5,1.5c0.2,0.2,0.5,0.4,0.8,0.4c0.3,0,0.8,0,1.6-0.2l1-0.2c0.8-0.2,1.3-0.3,1.5-0.4c0.3-0.2,0.5-0.4,0.5-0.7
				c0-0.2,0.1-0.4,0-0.6c0-0.3-0.1-0.5-0.2-0.9L63.1-57z M64.2-55.4c0,0.4,0,0.6-0.1,0.8c-0.1,0.2-0.2,0.4-0.3,0.6
				c-0.2,0.2-0.4,0.3-0.5,0.5c-0.2,0.1-0.5,0.2-0.8,0.3c-0.3,0.1-0.7,0.2-1.2,0.3l-1,0.2c-1.1,0.2-1.9,0.2-2.3,0.1
				c-0.5-0.1-0.8-0.4-1.2-0.9c-0.1-0.2-0.2-0.5-0.3-0.8c-0.1-0.4-0.2-0.8-0.3-1.3c-0.1-0.5-0.2-0.8-0.2-1.2c0-0.4,0-0.6,0.1-0.8
				c0.1-0.2,0.2-0.4,0.3-0.6c0.2-0.2,0.4-0.4,0.5-0.5c0.4-0.2,1-0.4,2-0.5l1-0.2c1-0.2,1.8-0.2,2.2-0.1c0.2,0.1,0.5,0.2,0.7,0.3
				c0.2,0.2,0.4,0.4,0.5,0.6c0.1,0.2,0.2,0.5,0.2,0.8c0.1,0.4,0.2,0.8,0.3,1.3C64.1-56.2,64.2-55.8,64.2-55.4"/>
		</g>
		<g id="g114" transform="translate(50.337 107.677)">
			<path id="path116" class="st5" d="M62.7-59.7c-0.2,0-0.6,0-1.5,0.2l-1,0.2c-0.9,0.2-1.3,0.3-1.5,0.4c-0.2,0.1-0.4,0.3-0.5,0.5
				c-0.1,0.3,0,0.8,0.1,1.5l0.1,0.5c0.2,0.7,0.3,1.2,0.5,1.4c0.2,0.2,0.3,0.3,0.6,0.3c0.2,0,0.6,0,1.5-0.2l1-0.2
				c0.9-0.2,1.3-0.3,1.5-0.4c0.4-0.2,0.4-0.4,0.4-0.5c0-0.2,0.1-0.4,0-0.5c0-0.2-0.1-0.5-0.2-0.9l-0.1-0.6c-0.1-0.4-0.2-0.6-0.2-0.8
				c-0.1-0.2-0.2-0.4-0.2-0.5C63.1-59.6,63-59.7,62.7-59.7L62.7-59.7 M59.6-54.3h-0.2c-0.4,0-0.8-0.2-1-0.5s-0.4-0.8-0.5-1.6
				L57.8-57c-0.2-0.8-0.2-1.3-0.1-1.7c0.1-0.4,0.4-0.7,0.8-0.8c0.3-0.2,0.8-0.2,1.6-0.4l1-0.2c0.8-0.2,1.4-0.2,1.7-0.2
				c0.5,0,0.8,0.3,1,0.5c0.1,0.2,0.2,0.4,0.3,0.6c0.1,0.3,0.2,0.6,0.2,0.9l0.1,0.5c0.1,0.4,0.1,0.7,0.2,0.9c0,0.3,0,0.5-0.1,0.8
				c0,0.2-0.2,0.6-0.7,0.8c-0.3,0.2-0.8,0.2-1.6,0.4l-1,0.2C60.4-54.3,59.9-54.3,59.6-54.3 M62.6-60.7c-0.4,0-0.9,0.1-1.5,0.2
				l-1,0.2c-0.9,0.2-1.5,0.4-1.9,0.5h-0.1c-0.2,0.1-0.3,0.2-0.5,0.4c-0.2,0.2-0.2,0.3-0.3,0.5c0,0.2-0.1,0.5,0,0.8
				c0,0.3,0.1,0.7,0.2,1.2c0.1,0.5,0.2,1,0.3,1.3c0.1,0.4,0.2,0.6,0.2,0.8c0.2,0.5,0.5,0.7,1,0.8c0.4,0.1,1.2,0.1,2.2-0.1l1-0.2
				c0.5-0.1,0.8-0.2,1.2-0.2c0.3-0.1,0.5-0.2,0.7-0.3c0.2-0.1,0.4-0.2,0.5-0.4c0.2-0.2,0.2-0.3,0.3-0.5c0-0.2,0.1-0.5,0-0.8
				c0-0.3-0.1-0.7-0.2-1.2c-0.1-0.5-0.2-1-0.3-1.3c-0.1-0.4-0.2-0.6-0.2-0.8c-0.1-0.2-0.2-0.4-0.4-0.5c-0.2-0.2-0.4-0.2-0.5-0.3
				C63-60.6,62.8-60.7,62.6-60.7 M59.6-53.4c-0.3,0-0.5,0-0.8-0.1c-0.5-0.2-1-0.5-1.3-1.1c-0.1-0.2-0.2-0.5-0.3-0.8
				c-0.1-0.4-0.2-0.8-0.3-1.4c-0.1-0.5-0.2-0.8-0.2-1.2c0-0.4,0-0.7,0.1-0.9c0.1-0.3,0.2-0.5,0.4-0.7c0.2-0.2,0.4-0.4,0.7-0.5h0.1
				c0.4-0.2,1-0.4,2-0.5l1-0.2c1.1-0.2,1.9-0.2,2.4-0.1c0.3,0.1,0.5,0.2,0.8,0.4c0.2,0.2,0.4,0.4,0.5,0.8c0.1,0.2,0.2,0.5,0.3,0.8
				c0.1,0.4,0.2,0.8,0.3,1.4c0.1,0.5,0.2,0.8,0.2,1.2c0,0.4,0,0.7-0.1,0.9c-0.1,0.3-0.2,0.5-0.4,0.7s-0.4,0.4-0.6,0.5
				c-0.2,0.1-0.5,0.2-0.8,0.3c-0.3,0.1-0.8,0.2-1.2,0.3l-1,0.2C60.6-53.5,60-53.4,59.6-53.4"/>
		</g>
		<g id="g118" transform="translate(58.236 108.45)">
			<path id="path120" class="st5" d="M67-61.8l0.1,5.8c0,0.1,0,0.1-0.1,0.1h-0.7c-0.1,0-0.1,0-0.1-0.1l-0.1-5.8h-3.1
				c-0.1,0-0.1,0-0.1-0.1v-0.7c0-0.1,0-0.1,0.1-0.1l7-0.1c0.1,0,0.1,0,0.1,0.1v0.7c0,0.1,0,0.1-0.1,0.1L67-61.8L67-61.8z"/>
		</g>
		<g id="g122" transform="translate(60.106 108.985)">
			<path id="path124" class="st5" d="M64.3-62.5l0.2,0.2l0.1,5.6H65l-0.1-5.6l0.2-0.2h2.9v-0.4l-6.7,0.1v0.4
				C61.3-62.4,64.3-62.5,64.3-62.5z M64.5-56.1c-0.1,0-0.2,0-0.2-0.1c0,0-0.1-0.2-0.1-0.2L64.1-62h-2.8c-0.2,0-0.4-0.2-0.4-0.4V-63
				c0-0.2,0-0.2,0.1-0.2c0.1,0,0.2-0.1,0.2-0.1l7-0.1c0.2,0,0.2,0,0.2,0.1c0,0,0.1,0.2,0.1,0.2v0.7c0,0.2,0,0.2-0.1,0.3
				c0,0-0.2,0.1-0.2,0.1h-2.9l0.1,5.6c0,0.2-0.2,0.4-0.4,0.4H64.5L64.5-56.1z"/>
		</g>
		<g id="g126" transform="translate(68.274 107.281)">
			<path id="path128" class="st5" d="M72.6-58.8c-0.2-0.2-0.5-0.3-0.8-0.4l-4.1-0.7l-0.3,1.9l4.1,0.7c0.4,0.1,0.7,0.1,0.8,0
				c0.2-0.1,0.4-0.3,0.5-0.7C72.8-58.3,72.7-58.6,72.6-58.8 M72.4-56c-0.1-0.1-0.2-0.1-0.4-0.2c-0.2-0.1-0.4-0.1-0.5-0.2l-4.4-0.8
				l-0.4,2.2l4.4,0.8c0.4,0.1,0.8,0,1-0.1c0.2-0.2,0.4-0.4,0.5-0.8C72.7-55.5,72.7-55.8,72.4-56 M73.1-54c-0.2,0.2-0.4,0.4-0.6,0.5
				c-0.2,0.1-0.5,0.2-0.8,0.2s-0.6,0-1-0.1l-4.9-0.8c-0.1,0-0.1,0-0.1-0.1l1.2-6.5c0-0.1,0-0.1,0.1-0.1l4.6,0.8c1.5,0.3,2.2,1,2,2.1
				c-0.1,0.7-0.4,1.1-0.8,1.3c0.5,0.4,0.7,0.9,0.5,1.7C73.4-54.6,73.3-54.2,73.1-54"/>
		</g>
		<g id="g130" transform="translate(65.047 106.91)">
			<path id="path132" class="st5" d="M70.8-57.8l3.9,0.7c0.5,0.1,0.7,0,0.8,0c0.1,0,0.3-0.1,0.4-0.5c0-0.2,0-0.4-0.1-0.5
				c-0.2-0.2-0.4-0.2-0.8-0.3l-3.9-0.7L70.8-57.8z M75.2-56.6c-0.2,0-0.3,0-0.5,0l-4.1-0.7l-0.2-0.3l0.3-1.9l0.3-0.2L75-59
				c0.5,0.1,0.8,0.2,1,0.5c0.2,0.2,0.3,0.6,0.2,1c-0.1,0.6-0.4,0.8-0.7,0.9C75.5-56.6,75.3-56.6,75.2-56.6 M70.2-54.8l4.2,0.8
				c0.4,0.1,0.6,0,0.8-0.1c0.2-0.1,0.3-0.3,0.4-0.6c0.1-0.3,0-0.5-0.1-0.7c-0.1-0.1-0.2-0.1-0.3-0.2c-0.2-0.1-0.3-0.1-0.5-0.2
				l-4.1-0.7C70.5-56.5,70.2-54.8,70.2-54.8z M74.8-53.5c-0.2,0-0.3,0-0.4,0L70-54.2l-0.2-0.3l0.4-2.2l0.3-0.2l4.4,0.8
				c0.2,0,0.5,0.1,0.6,0.2s0.3,0.2,0.4,0.3c0.2,0.2,0.3,0.6,0.2,1.2c-0.1,0.5-0.3,0.8-0.5,1C75.3-53.5,75.1-53.5,74.8-53.5
				L74.8-53.5z M69.3-54.1l4.8,0.8c0.4,0.1,0.7,0.1,0.9,0.1c0.2,0,0.5-0.1,0.6-0.2c0.2-0.1,0.4-0.2,0.5-0.5c0.2-0.2,0.2-0.5,0.3-0.8
				c0.1-0.7,0-1.2-0.4-1.5v-0.4c0.3-0.2,0.5-0.5,0.6-1.2c0.1-0.5,0-0.8-0.3-1.2c-0.3-0.3-0.8-0.5-1.5-0.7l-4.5-0.8L69.3-54.1
				L69.3-54.1z M74.8-52.6c-0.3,0-0.5,0-0.9-0.1l-4.9-0.8c-0.2,0-0.3-0.2-0.3-0.4l1.2-6.5c0-0.2,0.1-0.2,0.2-0.2
				c0,0,0.2-0.1,0.3-0.1l4.6,0.8c0.8,0.2,1.5,0.4,1.8,0.8c0.4,0.4,0.5,0.9,0.4,1.6c-0.1,0.5-0.3,1-0.6,1.3c0.4,0.4,0.5,1,0.4,1.7
				c-0.1,0.4-0.2,0.8-0.4,1s-0.4,0.5-0.7,0.7c-0.2,0.1-0.5,0.2-0.8,0.2C74.9-52.6,74.9-52.6,74.8-52.6"/>
		</g>
		<g id="g134" transform="translate(73.868 103.58)">
			<path id="path136" class="st5" d="M75.7-49.3l3.4,1.2L78.7-52L75.7-49.3L75.7-49.3z M79.5-45.3L79.5-45.3L79.5-45.3l-0.3-1.9
				l-4.2-1.5l-1.2,1.2l0,0l0,0L73-47.8c-0.1,0-0.1-0.1-0.1-0.2l0,0l0,0l5.5-5h0.1l1,0.4l0,0l0,0l0.8,7.4l0,0l0,0
				c0,0.1-0.1,0.1-0.1,0.1L79.5-45.3z"/>
		</g>
		<g id="g138" transform="translate(74.18 103.641)">
			<path id="path140" class="st5" d="M75.9-49.5l2.6,1l-0.3-3L75.9-49.5L75.9-49.5z M78.6-47.9l-3.3-1.2l-0.1-0.4l2.9-2.7l0.4,0.2
				l0.4,3.9L78.6-47.9L78.6-47.9z M73.5-47.5L73.5-47.5L73.5-47.5z M79.3-45.5l0.4,0.2l-0.8-7l-0.8-0.3l-5.2,4.8l0.3,0.2l1.2-1.1
				h0.3l4.2,1.6l0.2,0.2C79.2-47.2,79.3-45.5,79.3-45.5z M79.9-44.9c0,0-0.1,0-0.2,0l-0.8-0.3l-0.1-0.2h-0.1l0,0l0,0l0,0l0,0
				l-0.2-1.6l-3.9-1.5l-1.2,1.1h-0.1l-0.2,0.1l-0.8-0.3c-0.1,0-0.2-0.2-0.2-0.2c0-0.1,0-0.2,0-0.3l0.1-0.1l5.6-5.1
				c0.1,0,0.2,0,0.2,0l1,0.4l0.2,0.2v0.1l0.8,7.4v0.2C80.2-44.9,80-44.9,79.9-44.9"/>
		</g>
		<g id="g142" transform="translate(80.097 99.145)">
			<path id="path144" class="st5" d="M79.1-38c-0.1,0-0.1-0.1,0-0.2l3.3-5.7c0-0.1,0.1-0.1,0.2,0l0.6,0.4c0.1,0,0.1,0.1,0,0.2
				l-2.9,5l4.1,2.4c0.1,0,0.1,0.1,0,0.2L84-35.2c0,0.1-0.1,0.1-0.2,0L79.1-38L79.1-38z"/>
		</g>
		<g id="g146" transform="translate(82.21 102.781)">
			<path id="path148" class="st5" d="M77.3-41.7l4.5,2.6l0.2-0.3L78-41.7L78-42.1l2.9-4.9l-0.3-0.2L77.3-41.7L77.3-41.7z M81.9-38.6
				c-0.1,0-0.2,0-0.2,0L77-41.3c-0.1-0.1-0.2-0.2-0.2-0.2s0-0.2,0-0.3l3.3-5.7c0.1-0.1,0.2-0.2,0.2-0.2c0.1,0,0.2,0,0.3,0l0.6,0.4
				c0.1,0.1,0.2,0.2,0.2,0.2c0,0.1,0,0.2,0,0.3L78.7-42l3.9,2.2c0.1,0.1,0.2,0.2,0.2,0.2s0,0.2,0,0.3l-0.4,0.6
				C82-38.6,82-38.6,81.9-38.6"/>
		</g>
		<g id="g150" transform="translate(86.113 95.288)">
			<path id="path152" class="st5" d="M82.5-28.1c0,0-0.1-0.1,0-0.2l4.1-5.1c0-0.1,0.1-0.1,0.2,0l0.5,0.4c0,0,0,0.1,0,0.2l-3.6,4.6
				l3.7,2.9c0,0,0.1,0.1,0,0.2l-0.4,0.5c0,0-0.1,0.1-0.2,0L82.5-28.1z"/>
		</g>
		<g id="g154" transform="translate(89.095 98.287)">
			<path id="path156" class="st5" d="M79.8-31.2l4,3.2l0.2-0.3l-3.5-2.9v-0.4l3.5-4.4l-0.3-0.2L79.8-31.2z M83.9-27.4
				c-0.1,0-0.2,0-0.2-0.1L79.3-31c-0.2-0.2-0.2-0.3-0.1-0.5l4.1-5.1c0.2-0.2,0.4-0.2,0.5-0.1l0.5,0.4c0.1,0.1,0.2,0.2,0.2,0.2
				s0,0.2-0.1,0.3l-3.5,4.3l3.5,2.9c0.1,0.1,0.2,0.2,0.2,0.2c0,0.1,0,0.2-0.1,0.2l-0.4,0.5C84.1-27.4,83.9-27.4,83.9-27.4L83.9-27.4
				"/>
		</g>
		<g id="g158" transform="translate(95.696 87.759)">
			<path id="path160" class="st5" d="M87.8-8.9L87.8-8.9c-0.5,0.5-1.2,0.7-1.6,0.5c-0.4-0.1-0.9-0.5-1.4-1.1l-1.6-1.9
				c-0.3-0.4-0.5-0.7-0.8-1c-0.2-0.3-0.3-0.5-0.4-0.8c0-0.2,0-0.5,0-0.7c0.1-0.2,0.2-0.5,0.4-0.7c0.2-0.3,0.8-0.8,1.5-1.5
				c0.9-0.8,1.7-1.2,2.3-1.2c0.6,0,1.3,0.5,2.1,1.4l1.5,1.7c0.5,0.6,0.8,1.2,0.8,1.7c0,0.5-0.2,1-0.7,1.4c0,0-0.1,0-0.2,0l-0.5-0.5
				c0,0,0-0.1,0-0.2c0.5-0.5,0.5-1.1-0.2-1.9l-1.5-1.7c-0.2-0.3-0.5-0.5-0.7-0.7c-0.2-0.2-0.4-0.3-0.5-0.4c-0.3-0.1-0.6,0-1,0.2
				c-0.1,0.1-0.3,0.2-0.5,0.4c-0.2,0.2-0.5,0.4-0.8,0.7c-0.4,0.3-0.6,0.6-0.8,0.8c-0.2,0.2-0.3,0.5-0.4,0.6c0,0.4,0.2,0.8,0.8,1.5
				l1.7,1.9c0.4,0.4,0.6,0.6,0.8,0.8c0.3,0.2,0.6,0,0.9-0.2l0,0c0,0,0.1,0,0.2,0L87.8-8.9L87.8-8.9L87.8-8.9z"/>
		</g>
		<g id="g162" transform="translate(96.849 89.428)">
			<path id="path164" class="st5" d="M85-18.5c-0.5,0-1.2,0.4-2.1,1.1c-0.8,0.7-1.2,1.2-1.5,1.4c-0.2,0.2-0.3,0.4-0.3,0.6
				c-0.1,0.2-0.1,0.4,0,0.6c0,0.2,0.2,0.5,0.3,0.8c0.2,0.3,0.4,0.6,0.7,0.9l1.6,1.9c0.5,0.5,0.9,0.8,1.3,1c0.4,0.1,0.8,0,1.2-0.4
				l-0.2-0.2c-0.5,0.4-0.8,0.3-1.2,0.2c-0.3-0.1-0.6-0.4-1-0.8l-1.6-1.9c-0.6-0.8-0.9-1.3-0.8-1.8c0-0.2,0.2-0.5,0.4-0.8
				c0.2-0.2,0.5-0.5,0.8-0.8c0.3-0.3,0.6-0.5,0.8-0.7c0.2-0.2,0.4-0.3,0.5-0.4c0.4-0.3,0.8-0.4,1.2-0.2c0.2,0.1,0.4,0.2,0.6,0.4
				s0.5,0.4,0.8,0.7l1.5,1.7c0.9,1,0.7,1.7,0.3,2.2l0.2,0.2c0.4-0.4,0.5-0.7,0.5-1.2c0-0.5-0.3-0.9-0.8-1.5L87-17.2
				C86.3-17.8,85.6-18.3,85-18.5L85-18.5 M85.3-9.7c-0.2,0-0.3,0-0.4,0c-0.5-0.2-1-0.5-1.5-1.2l-1.6-1.9c-0.3-0.4-0.5-0.7-0.8-1
				c-0.2-0.3-0.3-0.6-0.4-0.9c0-0.3,0-0.5,0.1-0.8c0.1-0.3,0.2-0.5,0.4-0.8c0.2-0.3,0.8-0.8,1.5-1.5c1-0.8,1.8-1.2,2.5-1.2
				c0.7,0,1.5,0.5,2.3,1.5l1.5,1.8c0.5,0.6,0.8,1.2,0.8,1.9s-0.2,1.2-0.8,1.6c-0.2,0.2-0.4,0.2-0.5,0l-0.5-0.5
				c-0.2-0.2-0.2-0.4,0-0.5c0.2-0.2,0.6-0.5-0.2-1.5l-1.5-1.7c-0.2-0.3-0.5-0.5-0.7-0.7c-0.2-0.2-0.4-0.2-0.5-0.3
				c-0.2-0.1-0.5,0-0.8,0.2c-0.1,0-0.2,0.2-0.5,0.4c-0.2,0.2-0.5,0.4-0.8,0.7c-0.4,0.3-0.6,0.5-0.8,0.8c-0.2,0.2-0.3,0.4-0.3,0.5
				c0,0.2,0.1,0.6,0.8,1.3l1.6,1.9c0.3,0.4,0.5,0.5,0.8,0.7c0.2,0.1,0.4,0.1,0.7-0.2c0.1-0.1,0.2-0.1,0.3-0.1s0.2,0,0.2,0.2l0.5,0.5
				v0.2h0.1v0.1l-0.1,0.2C86.3-9.9,85.8-9.7,85.3-9.7"/>
		</g>
		<g id="g166" transform="translate(96.936 83.786)">
			<path id="path168" class="st5" d="M88.5,1.3c0-0.1,0-0.1,0-0.2l5.6-3.5c0.1,0,0.1,0,0.2,0l0.4,0.5c0,0.1,0,0.1,0,0.2l-4.9,3
				l2.5,4c0,0.1,0,0.1,0,0.2l-0.6,0.4c-0.1,0-0.1,0-0.2,0L88.5,1.3L88.5,1.3z"/>
		</g>
		<g id="g170" transform="translate(100.745 85.623)">
			<path id="path172" class="st5" d="M85-0.6l2.7,4.4L88,3.6l-2.4-3.9l0.1-0.4l4.9-2.9l-0.2-0.3L85-0.6L85-0.6z M87.7,4.4
				c-0.1,0-0.2-0.1-0.3-0.2l-2.9-4.7c-0.1-0.2-0.1-0.4,0.1-0.5l5.6-3.5c0.2-0.1,0.4-0.1,0.5,0.1l0.4,0.5c0.1,0.1,0.1,0.2,0,0.3
				c0,0.1-0.1,0.2-0.2,0.2l-4.7,2.9l2.4,3.8c0.1,0.1,0.1,0.2,0,0.3c0,0.1-0.1,0.2-0.2,0.2l-0.6,0.4C87.8,4.4,87.7,4.4,87.7,4.4"/>
		</g>
		<g id="g174" transform="translate(102.863 73.442)">
			<path id="path176" class="st5" d="M91.7,27.6c-0.5,0-0.8-0.2-1.2-0.6c-0.2-0.2-0.3-0.4-0.4-0.7c-0.2-0.3-0.3-0.7-0.5-1.1
				l-0.4-0.9c-0.2-0.4-0.3-0.8-0.4-1.2c-0.1-0.3-0.2-0.6-0.2-0.8l0,0c0-0.3,0-0.5,0.1-0.8c0.1-0.2,0.2-0.4,0.4-0.6
				c0.2-0.2,0.4-0.4,0.7-0.5s0.7-0.4,1.1-0.5l3.3-1.3c0.1,0,0.1,0,0.2,0l0.2,0.6c0,0.1,0,0.1-0.1,0.2l-3.3,1.3
				c-0.7,0.3-1.2,0.5-1.4,0.8c-0.2,0.2-0.3,0.5-0.2,0.8c0,0.3,0.2,0.8,0.5,1.5l0.4,0.9c0.3,0.8,0.5,1.2,0.7,1.5
				c0.2,0.3,0.5,0.4,0.8,0.4c0.2,0,0.4,0,0.6-0.1s0.5-0.2,0.8-0.3l3.3-1.3c0.1,0,0.1,0,0.2,0.1l0.2,0.6c0,0.1,0,0.1-0.1,0.2
				l-3.3,1.5C92.9,27.5,92.2,27.7,91.7,27.6"/>
		</g>
		<g id="g178" transform="translate(104.502 78.748)">
			<path id="path180" class="st5" d="M90.1,22.1c0.4,0,1.1-0.2,1.9-0.5l3.2-1.2L95,20.1l-3.2,1.2c-0.4,0.2-0.7,0.2-0.9,0.3
				c-0.3,0.1-0.5,0.1-0.8,0.1c-0.4,0-0.7-0.2-0.9-0.5c-0.2-0.2-0.4-0.8-0.8-1.5L88,18.7c-0.3-0.8-0.5-1.3-0.5-1.6
				c-0.1-0.4,0-0.8,0.3-1.1c0.3-0.3,0.8-0.5,1.5-0.8l3.2-1.2l-0.2-0.3l-3.2,1.2c-0.4,0.2-0.8,0.3-1,0.5c-0.3,0.2-0.5,0.3-0.6,0.5
				c-0.2,0.2-0.2,0.3-0.3,0.5c-0.1,0.2-0.1,0.4-0.1,0.6l0,0c0,0.2,0.1,0.5,0.2,0.8c0.1,0.3,0.2,0.7,0.4,1.2l0.4,0.9
				c0.2,0.4,0.3,0.8,0.5,1.1c0.2,0.3,0.3,0.5,0.4,0.6C89.4,21.8,89.7,22.1,90.1,22.1 M90.2,22.6L90.2,22.6c-0.6,0-1.1-0.3-1.5-0.8
				l0,0l0,0c-0.2-0.2-0.3-0.4-0.5-0.8c-0.2-0.3-0.3-0.7-0.5-1.2L87.4,19c-0.2-0.5-0.3-0.8-0.4-1.2c-0.1-0.4-0.2-0.6-0.2-0.8l0,0
				c0-0.3,0-0.6,0.1-0.8c0.1-0.2,0.2-0.5,0.4-0.7c0.2-0.2,0.4-0.4,0.8-0.5c0.3-0.2,0.7-0.4,1.1-0.5l3.3-1.3c0.2,0,0.2,0,0.3,0
				l0.2,0.2l0.2,0.6c0.1,0.2,0,0.4-0.2,0.5l-3.3,1.3c-0.6,0.2-1.1,0.5-1.3,0.7c-0.2,0.2-0.2,0.4-0.2,0.6c0,0.2,0.2,0.6,0.5,1.5
				l0.4,0.9c0.3,0.7,0.5,1.2,0.7,1.4c0.2,0.2,0.3,0.3,0.5,0.3c0.2,0,0.4,0,0.5-0.1c0.2-0.1,0.5-0.2,0.8-0.3l3.3-1.3
				c0.1,0,0.2,0,0.3,0c0.1,0,0.2,0.1,0.2,0.2l0.2,0.6c0,0.1,0,0.2,0,0.3s-0.1,0.2-0.2,0.2L92.2,22C91.4,22.5,90.7,22.6,90.2,22.6"/>
		</g>
		<g id="g182" transform="translate(107.647 66.302)">
			<path id="path184" class="st5" d="M94.4,45.9c0.1-0.2,0.2-0.5,0-0.9l-0.8-4.1l-1.9,0.4l0.8,4.1c0.1,0.4,0.2,0.7,0.4,0.8
				c0.2,0.2,0.5,0.3,0.8,0.2C94,46.3,94.3,46.1,94.4,45.9 M91.8,46.8c0-0.1,0.1-0.2,0.1-0.4c0-0.2,0-0.4-0.1-0.6L91,41.4l-2.2,0.4
				l0.8,4.4c0.1,0.4,0.2,0.8,0.5,0.8c0.2,0.2,0.5,0.2,0.9,0.2C91.4,47.1,91.6,47,91.8,46.8 M90.2,48.1c-0.3,0-0.5-0.2-0.8-0.4
				c-0.2-0.2-0.3-0.4-0.5-0.6c-0.1-0.3-0.2-0.6-0.3-1l-0.9-4.9c0-0.1,0-0.1,0.1-0.1l6.5-1.2c0.1,0,0.1,0,0.2,0.1l0.9,4.6
				c0.3,1.5-0.1,2.5-1.2,2.6c-0.7,0.2-1.2,0.1-1.5-0.2c-0.2,0.6-0.6,0.9-1.4,1.1C90.7,48.1,90.4,48.1,90.2,48.1"/>
		</g>
		<g id="g186" transform="translate(106.142 69.18)">
			<path id="path188" class="st5" d="M93.5,38.5l0.8,3.9c0.1,0.5,0.2,0.6,0.2,0.7c0.1,0.1,0.2,0.2,0.6,0.2c0.2,0,0.4-0.2,0.5-0.3
				c0.1-0.2,0.1-0.5,0-0.8l-0.8-3.9L93.5,38.5L93.5,38.5z M95,43.8c-0.4,0-0.6-0.2-0.8-0.3c-0.2-0.2-0.3-0.5-0.4-0.9L93,38.5
				l0.2-0.3l1.9-0.4l0.3,0.2l0.8,4.1c0.1,0.5,0.1,0.8-0.1,1.1c-0.2,0.3-0.4,0.5-0.8,0.6C95.2,43.8,95.1,43.8,95,43.8 M90.5,39.2
				l0.8,4.1c0.1,0.4,0.2,0.6,0.4,0.8c0.2,0.1,0.4,0.2,0.7,0.1c0.3-0.1,0.5-0.2,0.6-0.4c0-0.1,0-0.2,0-0.3c0-0.2,0-0.3-0.1-0.5
				l-0.8-4.1L90.5,39.2z M92.1,44.6c-0.3,0-0.5-0.1-0.8-0.2c-0.3-0.2-0.5-0.5-0.5-1.1L90,38.9l0.2-0.3l2.2-0.4l0.3,0.2l0.8,4.3
				c0,0.2,0.1,0.5,0.1,0.6c0,0.2,0,0.4-0.1,0.5l0,0c-0.2,0.3-0.5,0.5-1,0.6C92.4,44.6,92.2,44.6,92.1,44.6L92.1,44.6z M91.7,44.9
				c0.2,0,0.5,0,0.8,0c0.7-0.2,1.1-0.4,1.2-0.9l0.4-0.2c0.3,0.2,0.7,0.3,1.2,0.2c0.5-0.1,0.8-0.3,1-0.7c0.2-0.4,0.2-0.9,0.1-1.6
				l-0.8-4.5l-6.2,1.2l0.9,4.7c0.1,0.4,0.2,0.7,0.3,0.9c0.1,0.2,0.2,0.4,0.4,0.5C91.3,44.8,91.5,44.9,91.7,44.9 M92,45.5
				c-0.2,0-0.3,0-0.4,0c-0.4-0.1-0.6-0.2-0.8-0.4s-0.4-0.4-0.5-0.7c-0.1-0.3-0.2-0.6-0.3-1l-0.9-4.9c0-0.2,0-0.2,0-0.3
				c0,0,0.1-0.1,0.2-0.2l6.5-1.2c0.2,0,0.2,0,0.3,0c0.1,0,0.1,0.1,0.2,0.2l0.9,4.6c0.2,0.8,0.2,1.5-0.1,2c-0.2,0.5-0.7,0.8-1.3,1
				c-0.5,0.1-1.1,0.1-1.4-0.1c-0.2,0.5-0.8,0.8-1.5,1C92.5,45.5,92.2,45.5,92,45.5"/>
		</g>
		<g id="g190" transform="translate(71.802 8.9)">
			<path id="path192" class="st5" d="M74.6,192.5c-0.3,0.3-1,0.5-1.9,0.8l-1.2,0.3c-0.8,0.2-1.5,0.3-1.9,0.2c-0.5-0.1-1-0.6-1.2-1.4
				c0-0.1,0-0.1,0.1-0.1l0.6-0.2c0.1,0,0.1,0,0.1,0.1c0.1,0.2,0.2,0.4,0.3,0.5c0.2,0.2,0.3,0.2,0.5,0.2c0.2,0,0.7,0,1.3-0.2l1.1-0.2
				c0.8-0.2,1.2-0.4,1.5-0.5c0.4-0.2,0.5-0.6,0.5-1.2c-0.2-0.7-0.8-0.9-1.9-0.7c-0.1,0-0.2,0.1-0.4,0.1c-0.2,0-0.3,0.1-0.5,0.2
				c-0.2,0.1-0.4,0.1-0.5,0.2c-0.2,0-0.2,0.1-0.3,0.1c0,0-0.1,0-0.1-0.1l-0.2-0.6c0-0.1,0-0.1,0-0.1c0.1,0,0.2,0,0.3-0.1
				c0.1,0,0.3,0,0.5-0.1c0.2,0,0.4-0.1,0.5-0.1c0.2,0,0.2,0,0.4-0.1c1.2-0.3,1.6-0.8,1.5-1.5c0-0.2-0.2-0.4-0.3-0.5
				c-0.2-0.1-0.4-0.2-0.6-0.2c-0.2,0-0.3,0-0.5,0.1c-0.2,0-0.5,0.1-0.8,0.2l-0.9,0.2c-0.6,0.2-1.1,0.3-1.3,0.5
				c-0.4,0.2-0.5,0.6-0.4,1.1c0,0.1,0,0.1-0.1,0.1l-0.6,0.2c-0.1,0-0.1,0-0.1-0.1c-0.2-0.8-0.1-1.4,0.4-1.8c0.3-0.3,0.9-0.5,1.7-0.8
				l1.2-0.3c0.5-0.1,0.8-0.2,1.2-0.2c0.3,0,0.6-0.1,0.8,0c0.7,0.1,1.1,0.5,1.3,1.3c0,0.2,0.1,0.4,0.1,0.5c0,0.2,0,0.3,0,0.4
				c-0.1,0.2-0.2,0.4-0.4,0.5c0.3,0.1,0.5,0.2,0.7,0.4c0.1,0.1,0.2,0.2,0.2,0.4c0.1,0.2,0.1,0.3,0.2,0.5
				C75.2,191.5,75.1,192.1,74.6,192.5"/>
		</g>
		<g id="g194" transform="translate(67.396 10.875)">
			<path id="path196" class="st5" d="M73,190.5c0.2,0.6,0.5,0.9,0.9,1.1c0.2,0.1,0.8,0.1,1.8-0.2l1.2-0.3c0.9-0.2,1.5-0.5,1.9-0.7
				c0.4-0.3,0.5-0.8,0.4-1.6c0-0.2-0.1-0.4-0.2-0.5c0-0.1-0.1-0.2-0.2-0.3c-0.2-0.2-0.3-0.2-0.5-0.3l-0.1-0.5
				c0.2-0.2,0.2-0.2,0.3-0.4c0-0.1,0.1-0.2,0-0.3c0-0.2,0-0.3-0.1-0.5c-0.2-0.7-0.5-1.1-1.1-1.2c-0.2,0-0.4,0-0.7,0
				s-0.7,0.1-1.2,0.2l-1.2,0.3c-0.8,0.2-1.3,0.4-1.6,0.7c-0.4,0.4-0.5,0.8-0.4,1.4l0.4-0.1c-0.1-0.5,0.1-0.9,0.5-1.2
				c0.3-0.2,0.8-0.4,1.4-0.5l0.9-0.2c0.4-0.1,0.7-0.2,0.8-0.2c0.2,0,0.5-0.1,0.6-0.1c0.3,0,0.5,0.1,0.8,0.2c0.2,0.2,0.4,0.4,0.5,0.6
				c0.1,0.4,0,0.8-0.3,1.2c-0.3,0.3-0.7,0.5-1.3,0.6c-0.1,0-0.2,0-0.4,0.1c-0.2,0-0.3,0.1-0.5,0.1s-0.3,0.1-0.5,0.1h-0.1l0.1,0.4
				h0.1l0.9-0.3c0.2,0,0.3-0.1,0.4-0.1c0.7-0.2,1.2-0.2,1.6,0.1c0.3,0.2,0.5,0.4,0.5,0.8c0.2,0.8-0.2,1.2-0.5,1.5
				c-0.2,0.2-0.8,0.3-1.5,0.5l-1,0.2c-0.7,0.2-1.2,0.2-1.4,0.2c-0.2,0-0.5-0.1-0.7-0.3c-0.2-0.2-0.2-0.3-0.3-0.5L73,190.5L73,190.5z
				 M74.4,192c-0.2,0-0.4,0-0.5-0.1c-0.7-0.2-1.2-0.7-1.4-1.6c0-0.2,0.1-0.4,0.2-0.4l0.6-0.2c0.2,0,0.4,0.1,0.4,0.2
				c0,0.2,0.2,0.3,0.2,0.4c0.1,0.1,0.2,0.2,0.4,0.2c0.2,0,0.5,0,1.2-0.2l1.1-0.2c0.8-0.2,1.2-0.4,1.4-0.5c0.3-0.2,0.4-0.5,0.3-0.8
				c-0.1-0.2-0.2-0.4-0.3-0.5c-0.2-0.2-0.7-0.2-1.2,0c-0.1,0-0.2,0.1-0.4,0.1l-1,0.3c-0.2,0-0.2,0.1-0.3,0.1c-0.2,0-0.3,0-0.4-0.3
				l-0.2-0.6c0-0.1,0-0.2,0-0.3l0.2-0.2c0.1,0,0.2,0,0.3-0.1c0.1,0,0.3,0,0.5-0.1c0.2,0,0.4-0.1,0.5-0.1c0.2,0,0.2,0,0.4-0.1
				c0.5-0.2,0.8-0.3,1.1-0.5c0.2-0.2,0.2-0.4,0.2-0.7c0-0.2-0.1-0.3-0.2-0.4c-0.2-0.1-0.3-0.1-0.5-0.1c-0.1,0-0.2,0-0.5,0.1
				c-0.2,0-0.5,0.1-0.8,0.2l-0.9,0.2c-0.8,0.2-1.1,0.3-1.2,0.4c-0.3,0.2-0.4,0.5-0.3,0.8c0,0.2-0.1,0.4-0.2,0.4l-0.8,0.2
				c-0.1,0-0.2,0-0.3,0c-0.1,0-0.2-0.1-0.2-0.2c-0.2-0.8,0-1.5,0.5-2.1c0.4-0.4,1-0.6,1.9-0.8l1.2-0.3c0.5-0.1,0.8-0.2,1.2-0.2
				c0.4,0,0.6-0.1,0.8,0c0.8,0.1,1.3,0.6,1.5,1.5c0,0.2,0.1,0.4,0.1,0.6c0,0.2,0,0.4-0.1,0.5c0,0.1-0.1,0.2-0.2,0.4
				c0.2,0.1,0.3,0.2,0.4,0.3c0.1,0.1,0.2,0.2,0.2,0.4c0.1,0.2,0.1,0.4,0.2,0.5c0.2,0.9,0.1,1.7-0.5,2.2c-0.4,0.3-1,0.5-2,0.8
				l-1.2,0.3C75.3,192,74.8,192,74.4,192"/>
		</g>
		<g id="g198" transform="translate(63.136 7.108)">
			<path id="path200" class="st5" d="M69.7,197C69.7,197,69.7,197,69.7,197l-0.6-5.6l-1.4,1.7h-0.1h-0.1l-0.5-0.4c0,0,0,0,0-0.1
				v-0.1l1.6-2.1c0,0,0,0,0.1,0l1-0.1c0.1,0,0.1,0,0.1,0.1l0.6,6.5c0,0.1,0,0.1-0.1,0.1H69.7L69.7,197z"/>
		</g>
		<g id="g202" transform="translate(62.558 11.229)">
			<path id="path204" class="st5" d="M69.4,186.5L69.4,186.5 M67.7,188.4L67.7,188.4C67.8,188.4,67.8,188.4,67.7,188.4z M69.5,187.1
				l0.5,0.2l0.5,5.4h0.4l-0.5-6.2l-0.8,0.1l-1.5,1.9l0.2,0.2L69.5,187.1L69.5,187.1z M70.3,193.2c-0.2,0-0.3-0.2-0.4-0.3l-0.5-4.9
				l-1,1.2c-0.1,0-0.2,0.1-0.2,0.1l-0.2-0.1l-0.4-0.4c-0.1,0-0.2-0.2-0.2-0.3c0-0.1,0-0.2,0.1-0.3l1.6-2.1c0.1-0.1,0.2-0.2,0.2-0.2
				l0.9-0.1c0.1,0,0.2,0,0.2,0.1c0,0,0.1,0.1,0.2,0.2l0.6,6.5c0,0.2,0,0.2-0.1,0.2c0,0-0.1,0.1-0.2,0.1L70.3,193.2"/>
		</g>
		<g id="g206" transform="translate(57.082 9.184)">
			<path id="path208" class="st5" d="M66.4,191.8c0-0.8,0-1.2-0.1-1.5c-0.1-0.3-0.3-0.5-0.7-0.6c-0.3-0.1-0.8-0.2-1.6-0.2h-0.8
				c-0.8,0-1.3,0-1.6,0c-0.4,0-0.6,0.2-0.7,0.5c-0.2,0.3-0.2,0.8-0.3,1.5v0.5c0,0.4,0,0.7,0,0.9s0.1,0.5,0.1,0.6
				c0.1,0.3,0.3,0.5,0.7,0.5c0.3,0.1,0.8,0.2,1.6,0.2h0.8c0.8,0,1.3,0,1.6,0c0.4-0.1,0.6-0.2,0.7-0.5c0.2-0.3,0.2-0.8,0.3-1.5V191.8
				L66.4,191.8z M67,193.5c-0.1,0.3-0.2,0.6-0.2,0.8c-0.1,0.2-0.3,0.4-0.5,0.5c-0.2,0.2-0.4,0.2-0.7,0.3c-0.2,0-0.5,0.1-0.8,0.1
				h-1.2h-0.8c-1.1-0.1-1.8-0.2-2.2-0.4c-0.5-0.2-0.8-0.6-0.8-1.2c0-0.2-0.1-0.5-0.1-0.8c0-0.4,0-0.8,0-1.4c0-0.5,0.1-0.8,0.2-1.2
				s0.2-0.6,0.2-0.8c0.2-0.2,0.3-0.4,0.5-0.5c0.2-0.2,0.4-0.2,0.7-0.3c0.4-0.1,1.1-0.2,2-0.1H64c1,0.1,1.8,0.2,2.2,0.4
				c0.5,0.2,0.8,0.6,0.8,1.2c0,0.2,0.1,0.5,0.1,0.8s0,0.8,0,1.4C67.2,192.9,67.1,193.2,67,193.5"/>
		</g>
		<g id="g210" transform="translate(54.499 10.582)">
			<path id="path212" class="st5" d="M64.9,188.2c-0.3,0-0.5,0-0.6,0c-0.3,0-0.4,0.2-0.5,0.4c-0.1,0.2-0.2,0.5-0.2,1.5v0.5
				c0,0.4,0,0.6,0,0.9c0,0.2,0,0.4,0.1,0.5c0.1,0.2,0.2,0.4,0.5,0.4c0.2,0.1,0.6,0.2,1.5,0.2h0.8c0.9,0,1.4,0,1.5,0
				c0.3,0,0.5-0.2,0.5-0.4c0.1-0.2,0.2-0.5,0.2-1.5v-0.6c0-0.8,0-1.2-0.1-1.5c-0.1-0.2-0.2-0.4-0.5-0.4c-0.2-0.1-0.6-0.2-1.5-0.2
				h-0.8C65.6,188.2,65.2,188.2,64.9,188.2 M67.3,193.3c-0.2,0-0.5,0-0.9,0h-0.8c-0.8,0-1.3-0.1-1.6-0.2c-0.4-0.1-0.7-0.4-0.8-0.8
				c-0.1-0.2-0.1-0.4-0.2-0.7v-0.9v-0.5c0-0.8,0.2-1.3,0.3-1.6c0.2-0.4,0.5-0.6,0.9-0.6c0.3-0.1,0.8-0.1,1.6,0h0.8
				c0.8,0,1.4,0.1,1.6,0.2c0.4,0.1,0.7,0.4,0.8,0.8c0.1,0.3,0.2,0.8,0.1,1.6v0.5c0,0.8-0.2,1.3-0.3,1.6c-0.2,0.4-0.5,0.5-0.9,0.6
				L67.3,193.3 M64,187.4c-0.2,0.1-0.4,0.2-0.5,0.2c-0.2,0.1-0.3,0.3-0.4,0.5s-0.2,0.4-0.2,0.7c-0.1,0.3-0.1,0.7-0.2,1.2
				c0,0.5,0,1,0,1.3c0,0.4,0,0.6,0.1,0.8c0.1,0.5,0.4,0.8,0.8,1c0.4,0.2,1.1,0.4,2.1,0.4h0.8c0.5,0,0.8,0,1.2,0c0.3,0,0.5,0,0.8-0.1
				l0,0c0.2,0,0.4-0.2,0.5-0.2c0.2-0.1,0.3-0.3,0.4-0.5c0.1-0.2,0.2-0.4,0.2-0.8c0.1-0.3,0.1-0.7,0.2-1.2c0-0.5,0-1,0-1.3
				c0-0.4,0-0.6-0.1-0.8c-0.1-0.5-0.4-0.8-0.8-1c-0.4-0.2-1.2-0.4-2.1-0.4h-0.8C65,187.3,64.4,187.3,64,187.4 M67.1,194.2
				c-0.2,0-0.5,0-0.8,0h-0.8c-1.2-0.1-1.9-0.2-2.3-0.5c-0.5-0.2-0.8-0.7-1-1.3c0-0.2-0.1-0.5-0.1-0.9c0-0.4,0-0.8,0-1.4
				c0-0.5,0.1-0.8,0.2-1.2c0.1-0.4,0.2-0.6,0.3-0.8s0.3-0.5,0.5-0.6s0.5-0.3,0.8-0.4c0.5-0.1,1.2-0.2,2.1-0.1h0.8
				c1.1,0.1,1.9,0.2,2.3,0.5c0.5,0.3,0.8,0.8,1,1.4c0,0.2,0.1,0.5,0.1,0.9s0,0.8,0,1.4c0,0.5-0.1,0.8-0.2,1.2
				c-0.1,0.4-0.2,0.6-0.3,0.8c-0.2,0.2-0.3,0.4-0.5,0.6c-0.2,0.2-0.5,0.3-0.8,0.4l0,0h-0.1c-0.2,0-0.4,0.1-0.8,0.1L67.1,194.2"/>
		</g>
		<g id="g214" transform="translate(48.571 9.932)">
			<path id="path216" class="st5" d="M61.7,189.8c-0.2,0.2-0.5,0.4-0.8,0.5c-0.2,0.1-0.5,0.1-0.8,0.1s-0.7-0.1-1.2-0.2l-0.5-0.1
				h-0.1c0,0,0,0-0.1,0c0,0,0,0-0.1,0c0,0,0,0-0.1,0l0,0h-0.2c-0.1,0-0.2-0.1-0.2-0.1c-0.1,0-0.2,0-0.2,0c-0.6-0.2-1.2-0.2-1.5-0.2
				c-0.2,0.1-0.4,0.2-0.5,0.3c-0.2,0.2-0.2,0.3-0.3,0.5l-0.1,0.4l6,1.5c0.1,0,0.1,0.1,0.1,0.1l-0.2,0.7c0,0.1,0,0.1-0.1,0.1
				l-6.8-1.6c0,0-0.1,0,0-0.1l0.3-1.1c0.2-0.8,0.6-1.2,1.2-1.5c0.5-0.1,1.2-0.1,2,0.2c0.1,0,0.2,0,0.3,0.1c0.1,0,0.2,0.1,0.4,0.1
				s0.3,0.1,0.4,0.1c0.1,0,0.2,0,0.3,0.1c0.7,0.2,1.2,0.2,1.5,0.2c0.4-0.1,0.7-0.4,0.8-0.8c0.1-0.3,0.1-0.5,0-0.8
				c-0.1-0.2-0.2-0.4-0.4-0.5s-0.8-0.4-1.5-0.5l-0.8-0.2c-0.4-0.1-0.7-0.2-0.9-0.2c-0.2,0-0.4-0.1-0.5-0.1c-0.3,0-0.5,0-0.6,0.2
				c-0.2,0.2-0.3,0.3-0.3,0.5c0,0.1-0.1,0.1-0.2,0.1l-0.7-0.2c-0.1,0-0.1,0-0.1-0.1c0.2-0.8,0.7-1.2,1.5-1.3c0.5-0.1,1.2,0,2.1,0.2
				l0.8,0.2c0.5,0.2,0.9,0.2,1.3,0.4c0.4,0.2,0.6,0.3,0.8,0.5c0.2,0.2,0.4,0.5,0.5,0.8c0.1,0.4,0,0.8-0.1,1.2
				C62.1,189.3,61.9,189.6,61.7,189.8"/>
		</g>
		<g id="g218" transform="translate(45.008 11.86)">
			<path id="path220" class="st5" d="M58,189.4l6.5,1.6l0.1-0.4l-5.9-1.5l-0.2-0.3l0.1-0.4c0.1-0.3,0.2-0.5,0.4-0.7
				c0.2-0.2,0.4-0.3,0.6-0.4l0,0l0,0c0.4-0.1,0.8,0,1.5,0.2h0.2c0.1,0,0.2,0,0.3,0.1l0.2,0.1c0.1,0,0.1,0,0.2,0l0.6,0.2
				c0.4,0.1,0.8,0.2,1.1,0.2c0.3,0,0.5,0,0.8-0.1c0.3-0.1,0.5-0.2,0.7-0.4c0.2-0.2,0.3-0.5,0.4-0.8c0.1-0.5,0.2-0.8,0.1-1.2
				c-0.1-0.3-0.2-0.5-0.4-0.8c-0.2-0.2-0.4-0.3-0.7-0.4c-0.4-0.2-0.8-0.2-1.2-0.4l-0.8-0.2c-0.9-0.2-1.5-0.3-2-0.2
				c-0.6,0.1-1,0.4-1.2,1l0.4,0.1c0.1-0.2,0.2-0.4,0.4-0.5c0.2-0.2,0.5-0.2,0.8-0.2c0.2,0,0.4,0,0.6,0.1c0.2,0,0.5,0.1,0.9,0.2
				l0.8,0.2c0.8,0.2,1.4,0.4,1.6,0.6c0.2,0.2,0.4,0.4,0.5,0.7c0.1,0.3,0.1,0.6,0,0.9c-0.2,0.5-0.5,0.9-1,1c-0.4,0.1-0.9,0-1.6-0.2
				l-0.3-0.1c-0.1,0-0.2-0.1-0.4-0.1c-0.2,0-0.2-0.1-0.4-0.1l-0.3-0.1c-0.8-0.2-1.4-0.2-1.9-0.2c-0.5,0.2-0.9,0.5-1.1,1.2L58,189.4
				L58,189.4z M64.6,191.5L64.6,191.5l-6.9-1.6c-0.2,0-0.3-0.2-0.2-0.4l0.3-1.1c0.2-0.8,0.7-1.5,1.5-1.6c0.5-0.1,1.2-0.1,2.1,0.2
				l0.2,0.1c0.1,0,0.2,0.1,0.4,0.1c0.2,0,0.3,0.1,0.4,0.1l0.3,0.1c0.6,0.2,1.1,0.2,1.4,0.2c0.4-0.1,0.5-0.2,0.6-0.6
				c0.1-0.3,0.1-0.5,0-0.7c0-0.2-0.2-0.3-0.3-0.4c-0.2-0.1-0.5-0.3-1.5-0.5l-0.8-0.2c-0.4-0.1-0.6-0.2-0.8-0.2s-0.4-0.1-0.5-0.1
				c-0.2,0-0.4,0-0.5,0.2c-0.1,0.1-0.2,0.2-0.2,0.4c0,0.1-0.1,0.2-0.2,0.2c-0.1,0-0.2,0.1-0.3,0l-0.7-0.2c-0.1,0-0.2-0.1-0.2-0.2
				c0-0.1-0.1-0.2,0-0.3c0.2-0.8,0.8-1.4,1.7-1.5c0.5-0.1,1.2,0,2.2,0.2l0.8,0.2c0.5,0.2,1,0.3,1.3,0.4c0.4,0.2,0.7,0.3,0.8,0.5
				c0.3,0.2,0.5,0.6,0.5,1c0.1,0.4,0.1,0.8-0.1,1.4c-0.1,0.4-0.3,0.8-0.5,1.1c-0.2,0.3-0.5,0.5-0.9,0.6c-0.3,0.1-0.6,0.1-0.9,0.1
				c-0.3,0-0.8-0.1-1.2-0.2l-0.6-0.2h-0.1c-0.1,0-0.1,0-0.2,0h-0.2c-0.1,0-0.2-0.1-0.2-0.1h-0.2c-0.6-0.2-1.1-0.2-1.3-0.2
				c-0.2,0-0.2,0.1-0.3,0.2c-0.1,0.1-0.2,0.2-0.2,0.4v0.1l5.8,1.4c0.2,0,0.2,0.1,0.2,0.2c0,0.1,0.1,0.2,0,0.3l-0.2,0.7
				c0,0.2-0.1,0.2-0.2,0.2C64.7,191.5,64.6,191.5,64.6,191.5"/>
		</g>
		<g id="g222" transform="translate(57.2 64.65)">
			<path id="path224" class="st5" d="M66.5,50.1l-12.3,6.6V64l6.2-3.4v15.8l-11.7-6.3V50.6l17.7-9.7v-7.1L42.7,46.6V74l23.8,13V50.1
				L66.5,50.1z"/>
		</g>
		<g id="g226" transform="translate(59.28 70.554)">
			<path id="path228" class="st5" d="M67.6,35.1l17.2,9.4v9.1l-17.2-9.5v36.6l5.9-3.2V54.6l17.3,9.4V40.4L67.7,27.7L67.6,35.1
				L67.6,35.1z"/>
		</g>
		<g id="g230" transform="translate(35.854 12.707)">
			<path id="path232" class="st5" d="M54.6,182.7c-40.8-19.4-42.6-67.1-42.6-67.6l2-0.1c0,0.5,1.8,47,41.4,65.9L54.6,182.7
				L54.6,182.7z"/>
		</g>
		<g id="g234" transform="translate(79.48 12.707)">
			<path id="path236" class="st5" d="M78.8,182.7l-0.8-1.8c39.6-18.8,41.4-65.4,41.4-65.9l2,0.1C121.4,115.6,119.5,163.4,78.8,182.7
				"/>
		</g>
	</g>
</g>
<rect x="8" y="34.8" class="st0" width="234" height="180.4"/>
</svg>
