<?xml version="1.0" encoding="utf-8"?>
<!-- Generator: Adobe Illustrator 25.1.0, SVG Export Plug-In . SVG Version: 6.00 Build 0)  -->
<svg version="1.1" id="Layer_1" xmlns="http://www.w3.org/2000/svg" xmlns:xlink="http://www.w3.org/1999/xlink" x="0px" y="0px"
	 viewBox="0 0 250 250" style="enable-background:new 0 0 250 250;" xml:space="preserve">
<style type="text/css">
	.st0{fill:none;}
	.st1{fill:#9C2130;}
</style>
<g id="Layer_1_1_">
	<rect x="33.9" y="33.9" class="st0" width="182.1" height="182.1"/>
	<g>
		<path class="st1" d="M145.8,180.2c0.3-1.3,0.7-2.7,1.1-3.7v-0.1c0.7,0.8,1.5,1.6,2.2,2.3C147.9,178.9,146.7,179.5,145.8,180.2
			 M145.6,174.9c-0.9-0.3-1.9-0.5-2.9-0.5c-1,0-2,0.2-2.9,0.4c0.9-1.1,2.3-1.7,4.2-1.9C144.6,173.6,145.1,174.3,145.6,174.9
			 M106.2,97.6c0,0,0.6-0.3,2.5-0.5c0,0-0.3,1.7-1.3,1.9C106.4,99.1,106.2,98.1,106.2,97.6 M107.5,188.2c0,0-10,0-15.2-8.9
			c-5.3-8.9-1.6-15-1.6-15s-10.4,5.2-11.8,10c-1.1,3.9,1.3,11.5,4.5,15.7c8.3,10.7,21.6,12.2,21.6,12.2S102.9,194.7,107.5,188.2
			 M81.7,178.7c-0.3-0.2-0.5-0.5-0.7-0.9c-0.3-0.5-0.3-1.1-0.1-1.6c0.2-0.7,1-1.3,2-1.8c2.1-1.1,3.5-0.5,4.1,0.5
			c0.2,0.2,0.2,0.5,0.2,0.9l-1.1,0.3c0-0.2,0-0.5-0.2-0.6c-0.3-0.6-1.1-0.9-2.6-0.2c-1.4,0.7-1.6,1.4-1.4,1.9l0.1,0.2l1.4-0.7
			l-0.2-0.5l0.9-0.5l0.7,1.3L81.7,178.7z M81.9,180.3l5.4-3.7l0.5,1l-2.2,1.3c-0.7,0.4-1.3,0.8-2,1.2l0,0c0.8-0.2,1.5-0.5,2.2-0.7
			l2.5-0.8l0.4,0.8l-2.2,1.4c-0.6,0.4-1.2,0.9-1.9,1.2l0,0c0.8-0.3,1.5-0.5,2.2-0.8l2.4-0.9l0.5,0.9l-6.3,1.9l-0.5-1l1.8-1.2
			c0.5-0.3,1.2-0.7,1.9-1.2l0,0c-0.8,0.2-1.5,0.5-2.1,0.6l-2.1,0.6L81.9,180.3z M86.2,185.5l-1.3,0.7l-0.6-0.9l5.9-3l0.8,1l-4.6,4.7
			l-0.6-0.9l1-1.1L86.2,185.5z M87.6,185.6l1-1c0.3-0.3,0.8-0.7,1.1-1l0,0c-0.4,0.2-1,0.5-1.3,0.7l-1.2,0.6L87.6,185.6z M87.3,189.1
			l4.5-4.7l0.7,0.7l-1.2,2.4c-0.2,0.5-0.6,1.2-0.9,1.8l0,0c0.5-0.5,1.2-1.4,2-2.3l1-1l0.7,0.6l-4.5,4.7l-0.7-0.7l1.1-2.4
			c0.2-0.5,0.6-1.3,1-1.8l0,0c-0.5,0.5-1.1,1.2-2,2.2l-1,1L87.3,189.1z M93.5,194c-0.4-0.1-0.8-0.2-1.1-0.5
			c-0.5-0.3-0.8-0.8-0.9-1.4c-0.1-0.7,0.2-1.6,0.9-2.6c1.3-1.9,2.9-2.1,3.8-1.5c0.3,0.2,0.5,0.5,0.6,0.7l-0.8,0.8
			c-0.1-0.2-0.2-0.4-0.5-0.5c-0.6-0.4-1.4-0.2-2.4,1.2c-0.9,1.3-0.8,2.1-0.4,2.3c0.1,0.1,0.2,0.1,0.2,0.1l0.9-1.3l-0.4-0.2l0.6-0.9
			l1.3,0.9L93.5,194z M98,189.3l1,0.5l-2,4c-0.9,1.7-1.6,1.6-2.3,1.2c-0.2-0.1-0.3-0.2-0.5-0.3l0.5-0.9c0.1,0.1,0.2,0.2,0.3,0.2
			c0.3,0.2,0.5,0.2,0.9-0.6L98,189.3z M100.7,190.5l-1.4,4c-0.3,0.9-0.2,1.2,0.1,1.3c0.3,0.1,0.6-0.1,0.9-1l1.4-4l1,0.4l-1.3,3.7
			c-0.5,1.6-1.3,2.3-2.4,1.9c-1.1-0.4-1.2-1.4-0.7-3l1.3-3.8L100.7,190.5z"/>
		<path class="st1" d="M106.9,161.7c-1.6,2.3-3.3,2.3-3.3,2.3c1-0.7,1.7-1.6,2.2-2.5c-0.6-0.2-1.2-0.2-1.8-0.3c-1.6,2.1-3.1,2-3.1,2
			c0.9-0.6,1.5-1.4,1.9-2.1c-0.7-0.1-1.4-0.1-2-0.1c-1.4,1.6-2.6,1.5-2.6,1.5c0.5-0.5,1.1-0.9,1.5-1.5h-0.6c-0.9,0-1.9,0-3,0.1
			c-0.9,0.8-1.8,1.6-2.6,2.5c-1.4,1.6-2.2,3.5-2.3,5.5c0.6-0.9,1.6-2.2,2.9-2.9c0,0-1.8,2.1-2.8,5.3c0.1,0.4,0.2,0.9,0.2,1.2
			c0.5-0.9,1.6-2.6,3.3-3.6c0,0-1.8,2.1-2.9,5.4c0.1,0.3,0.2,0.5,0.3,0.9c0.5-0.9,1.6-2.8,3.4-3.7c0,0-1.7,2-2.8,5.1
			c0.6,1.4,1.2,2.3,1.2,2.3c0.3-6.8,8-10.8,14.4-14.4C109.3,164.1,110.8,162.8,106.9,161.7"/>
		<path class="st1" d="M96.6,171.4c0-0.2-0.1-0.4-0.2-0.5c-0.2-0.2-0.5-0.4-0.8-0.4c-0.2,0-0.3,0.1-0.5,0.2s-0.3,0.2-0.5,0.3
			c0.5-0.9,0.9-1.3,0.9-1.3c0.3-0.4,0.3-0.9,0-1.2c-0.2-0.2-0.5-0.4-0.8-0.4c-0.2,0-0.3,0.1-0.5,0.1c-0.3,0.2-0.5,0.3-0.8,0.5
			c0.7-1.2,1.3-1.9,1.3-1.9c0.3-0.4,0.3-0.9,0-1.2c-0.2-0.2-0.5-0.4-0.8-0.4c-0.2,0-0.3,0.1-0.5,0.1l-0.4,0.2c0.2-0.5,0.6-0.9,1-1.3
			c0.6-0.7,1.4-1.4,2.3-2.2c0.3,0,0.6,0,0.9-0.1c-0.2,0.2-0.2,0.5-0.1,0.8c0.2,0.4,0.5,0.7,0.9,0.7c0.6,0,1.2-0.2,1.8-0.5
			c-0.1,0.2-0.1,0.5,0,0.6c0.2,0.4,0.5,0.7,0.9,0.7c0.3,0,1-0.1,1.8-0.5c-0.1,0.2-0.1,0.4,0,0.6c0.2,0.4,0.5,0.7,0.9,0.7
			c0.5,0,2-0.2,3.7-2.1c0.6,0.2,0.9,0.4,1,0.5c-0.2,0.2-0.3,0.2-0.5,0.3l-0.6,0.3C103.5,166.2,99.4,168.4,96.6,171.4 M69.7,136.5
			c0,0,5.4-3,4.9-7.7c0,0-2.3,2.3-7.2,5c-2.5,1.4-4.9,3.4-6.4,6.2c0.6-0.5,1.3-0.8,2.1-0.9c0,0-1.6,0.9-3,3
			c-0.2,0.5-0.3,1.1-0.4,1.6c0.7-0.9,1.7-1.9,3.1-2.1c0,0-2.1,1.4-3.3,4.3c0,0.5,0,1.2,0,1.7c0.4-1,1.4-3,3.2-3.5c0,0-2.4,2-3,5.8
			c0.1,0.5,0.2,1.2,0.4,1.8c0,0,4.2-15.3,14.4-9.2C74.5,142.5,75.3,136.7,69.7,136.5"/>
		<path class="st1" d="M63.4,143.4c-0.2-0.2-0.4-0.2-0.7-0.2c-0.1,0-0.2,0-0.2,0c0.5-0.5,0.9-0.7,0.9-0.7c0.4-0.2,0.5-0.8,0.4-1.2
			c-0.2-0.4-0.5-0.6-0.9-0.6h0c0.5-0.5,0.9-0.7,0.9-0.7c0.4-0.2,0.6-0.7,0.5-1.2c-0.1-0.3-0.3-0.5-0.6-0.6c1.2-1.3,2.6-2.5,4.4-3.6
			c1.9-1,3.7-2.2,5.4-3.5c-1,2.7-4,4.5-4.1,4.6c-0.4,0.2-0.5,0.7-0.5,1.1s0.5,0.7,0.9,0.8c1.3,0,2.3,0.4,3,1.2
			c0.5,0.6,0.8,1.5,0.9,2.2c-1.1-0.5-2.3-0.8-3.6-0.9C67.2,140.1,65,141.6,63.4,143.4 M144.6,171.9c-2.3,0.1-5.7,0.8-6.5,4.4
			c0,0,4.7-1.9,7.8-0.2c0,0-1.7,5-1.4,6.8c0,0,1.6-3.3,6.7-3.6C148.7,177.1,146.5,174.7,144.6,171.9"/>
		<path class="st1" d="M145.7,180.1c0.3-1.2,0.6-2.5,1.1-3.7c0-0.1,0-0.1,0-0.1c0.7,0.8,1.4,1.6,2.2,2.3
			C147.8,178.9,146.7,179.4,145.7,180.1 M145.5,174.9c-0.9-0.3-1.9-0.5-2.9-0.5s-2.1,0.2-2.9,0.4c0.9-1.1,2.3-1.7,4.3-1.9
			C144.6,173.6,145.1,174.3,145.5,174.9 M162,185.8c0.5,0.2,0.9,0.3,1.4,0.5c-0.5,1.3-1.2,2.6-2.1,3.7
			c-8.2,10.7-21.6,12.2-21.6,12.2s2.1-7.5-2.4-14c0,0,9.3,0,14.7-8.1c0.4,0.4,0.9,0.7,1.3,1l0.1,0.1l1.2,0.8c-0.7,1.3-1.8,2.5-3,3.3
			c0,0,2.3-0.5,4.2-2.5c0.1,0.1,0.2,0.2,0.3,0.2s0.1,0.1,0.2,0.1c0.4,0.2,0.7,0.4,1.1,0.6c-0.6,1.1-1.6,2.3-2.9,3.1
			c0,0,2.3-0.5,4.2-2.5l0.3,0.2c0.1,0.1,0.2,0.1,0.2,0.1c0.4,0.2,0.7,0.3,1.1,0.5c-0.6,1.2-1.6,2.3-3,3.3c0,0,2.5-0.5,4.4-2.7
			l0.2,0.1C161.9,185.8,162,185.8,162,185.8 M145.2,196.8l1-0.4l-0.9-2.6l1.2-0.4l-0.4-1l-1.2,0.4l-0.5-1.6l1.3-0.5l-0.4-1.1
			l-2.4,0.8L145.2,196.8z M151.2,192.9c-0.2,0.2-0.3,0.2-0.5,0.3c-0.6,0.3-1.3,0-2.1-1.5c-0.8-1.5-0.5-2.3,0-2.6
			c0.2-0.1,0.3-0.2,0.5-0.2l-0.3-1c-0.2-0.1-0.4,0-0.8,0.2c-1,0.5-1.6,1.9-0.5,4.2c0.9,1.7,2.2,2.6,3.4,1.9c0.3-0.2,0.5-0.3,0.7-0.5
			L151.2,192.9z M69.7,152.6c-0.2,1.4-0.1,2.1,0.4,2.2s0.9-0.9,1-2c0.2-1.1,0.2-2.1-0.4-2.2C70.4,150.6,70,151.3,69.7,152.6
			 M78.5,153.2h0.2c0.5,0,0.9-0.4,0.9-0.9s-0.2-0.9-0.7-0.9c-0.1,0-0.2,0-0.3,0L78.5,153.2z M84.1,153.3c0.1,0,0.1,0,0.2,0
			c0.6,0,0.9-0.5,0.9-1c0-0.5-0.2-0.9-0.8-0.9c-0.1,0-0.2,0-0.3,0.1V153.3z M88.2,153.1h0.2c0.5,0,0.8-0.5,0.8-1
			c0-0.5-0.2-0.9-0.8-0.9c-0.1,0-0.2,0-0.2,0.1V153.1z M95,155.4c0.1,0,0.2,0,0.2,0c0.5,0,1.1-0.5,1.1-2.3c0-1.2-0.3-2-1-2
			c-0.1,0-0.2,0-0.2,0L95,155.4z M129.3,212.5c0.2-0.1,0.3-0.1,0.5-0.2c1.1-0.5,2.6-1,3.7-1.1c1.6-0.1,4.3,2.3,5.3,3
			c-0.7-1-3.1-3.7-3-5.4c0.1-1.2,0.6-2.6,1.1-3.7c0.1-0.2,0.2-0.3,0.2-0.5c0.5-1.4,0.9-2.9,1.1-4.4c-0.5,1.8-2.1,5.5-4.3,6.2
			c-1.3,0.4-3-0.6-3.7-1.1c0.5,0.7,1.5,2.4,1.1,3.7c-0.7,2.3-4.4,3.8-6.2,4.3C126.4,213.5,127.9,213.1,129.3,212.5"/>
		<path class="st1" d="M135.1,210.6c-0.5-0.2-1.1-0.4-1.6-0.4h-0.1c-0.5,0-1.1,0.2-1.8,0.3c0.2-0.3,0.3-0.6,0.5-0.9
			c0.2-0.6,0.2-1.3,0-2c0.3,0.1,0.7,0.2,1,0.2c0.3,0,0.7-0.1,1-0.2c0.3-0.1,0.6-0.2,0.9-0.5c-0.2,0.7-0.3,1.2-0.3,1.7
			C134.7,209.4,134.9,210,135.1,210.6 M107.8,191c0.1-0.2,0.2-0.3,0.2-0.5c0.5-1.1,1-2.6,1.1-3.7c0.1-1.6-2.3-4.3-3-5.3
			c1,0.7,3.7,3.1,5.3,3c1.2-0.1,2.6-0.6,3.7-1.1c1.6-0.7,3.2-1.2,4.8-1.3c-1.8,0.5-5.5,2-6.2,4.3c-0.4,1.3,0.6,3.1,1.1,3.7
			c-0.7-0.5-2.4-1.5-3.7-1.1c-2.3,0.7-3.9,4.4-4.3,6.2C106.8,193.9,107.2,192.4,107.8,191"/>
		<path class="st1" d="M109.7,188.7c0.2-0.7,0.3-1.2,0.3-1.8c0-0.6-0.2-1.2-0.4-1.7c0.5,0.2,1.1,0.4,1.6,0.4h0.1
			c0.5,0,1.1-0.1,1.7-0.3c-0.2,0.3-0.3,0.6-0.5,0.9c-0.2,0.7-0.2,1.4,0,2c-0.7-0.2-1.3-0.2-2,0C110.3,188.3,110,188.4,109.7,188.7
			 M107.8,204.8l0.2,0.5c0.5,1.1,1,2.6,1.1,3.7c0.1,1.6-2.3,4.3-3,5.3c1-0.7,3.7-3.1,5.3-3c1.2,0.1,2.6,0.6,3.7,1.1
			c0.2,0.1,0.3,0.2,0.5,0.2c1.4,0.6,2.9,1,4.4,1.1c-1.8-0.5-5.5-2-6.2-4.3c-0.4-1.3,0.6-3,1.1-3.7c-0.7,0.5-2.4,1.5-3.7,1.1
			c-2.3-0.7-3.9-4.4-4.3-6.2C106.8,201.9,107.2,203.4,107.8,204.8"/>
		<path class="st1" d="M109.7,210.6c0.2-0.6,0.4-1.2,0.4-1.8c0-0.6-0.2-1.2-0.3-1.7c0.3,0.2,0.6,0.4,0.9,0.5c0.3,0.1,0.6,0.2,1,0.2
			s0.7-0.1,1.1-0.2c-0.2,0.6-0.2,1.3,0,2c0.1,0.3,0.2,0.6,0.5,0.9c-0.5-0.2-1.2-0.2-1.8-0.3h-0.1
			C110.7,210.2,110.1,210.4,109.7,210.6 M129.3,183.3l0.5,0.2c1.1,0.5,2.6,1,3.7,1.1c1.6,0.1,4.3-2.3,5.3-3c-0.7,1-3.1,3.7-3,5.3
			c0.1,1.1,0.6,2.6,1.1,3.7c0.1,0.2,0.2,0.3,0.2,0.5c0.6,1.4,1,2.9,1.1,4.4c-0.5-1.8-2.1-5.5-4.3-6.2c-1.3-0.4-3.1,0.6-3.7,1.1
			c0.5-0.7,1.5-2.4,1.1-3.7c-0.7-2.3-4.4-3.9-6.2-4.3C126.4,182.3,127.9,182.7,129.3,183.3"/>
		<path class="st1" d="M135,188.7c-0.3-0.2-0.6-0.3-0.9-0.5c-0.7-0.2-1.3-0.2-2,0c0.3-1,0.1-2.1-0.5-3c0.5,0.2,1.2,0.3,1.7,0.3h0.1
			c0.5,0,1.1-0.2,1.6-0.4c-0.2,0.5-0.4,1.2-0.4,1.7C134.7,187.4,134.9,188,135,188.7 M119.2,197.9c0,2-1.9,4.8-3.4,6.7
			c1.8-1.5,4.6-3.4,6.6-3.5l0,0c2,0,4.8,1.9,6.7,3.5c-1.5-1.8-3.5-4.7-3.5-6.7s1.9-4.8,3.5-6.7c-1.8,1.5-4.7,3.4-6.7,3.4l0,0
			c-2,0-4.8-1.9-6.6-3.4C117.2,193,119.2,195.9,119.2,197.9"/>
		<path class="st1" d="M119.3,201c0.5-1,0.9-2.1,0.9-3.1c0-1-0.4-2-0.9-3.1c1,0.5,2.1,0.9,3.1,0.9c1.1-0.1,2.2-0.4,3.1-0.9
			c-0.5,1.1-0.9,2.1-0.9,3.1c0,0.9,0.4,2,0.9,3.1c-0.9-0.5-2-0.8-3.1-0.9C121.3,200.2,120.3,200.5,119.3,201 M96.4,67.2
			c0.9-5.4,3.8-8,3.8-8c0.2-1.6,1.5-5.7,1.5-5.7c0.9-6.1-2.2-7.9-2.2-7.9c-6.1,5.1-6.8,18.4-6.8,18.4C94.5,64.5,96.4,67.2,96.4,67.2
			 M151.3,62.3c0.2,2.6-1.5,7.3-1.5,7.3c1.9-0.8,5.1-0.4,5.1-0.4s1.7-1.9,4.7-8.2c3.9-8,2.5-11,2.5-11c-5.1,0.1-7.5,6.1-7.5,6.1
			C153.6,59.1,151.3,62.3,151.3,62.3 M104.5,62.9c0.8-5.6,5-8.3,5-8.3c0.2-4.1,3-8.3,3-8.3c0.2-3.7-1.7-6-1.7-6s-3.3,1.1-5.8,6.5
			s-3.9,12.4-3.9,12.4C102.8,60,104.5,62.9,104.5,62.9 M88.4,74.1c0.5-6.9,3.3-9.7,3.3-9.7c0.6-9.2-2.9-12.3-2.9-12.3
			c-1.4,1.1-2.6,3-3.3,4.4c-2.4,5.8-1.9,14.4-1.9,14.4C86.3,71.1,88.4,74.1,88.4,74.1 M81.4,80.2c-0.4-6.7,1.1-8.6,1.1-8.6
			c-0.9-7.6-5.6-9.7-5.6-9.7c-3.3,4.8-0.8,17.6-0.8,17.6C78.9,79,81.4,80.2,81.4,80.2 M158.9,78.7c-0.1,2.6-1.2,5.1-3.1,6.8
			c1.6-0.2,3.3,0.8,3.3,0.8s6.8-4,10.4-8.3c4.4-5.3,3-9,3-9c-3.1-0.1-5.4,2.6-7.5,4.6C162.7,75.7,158.9,78.7,158.9,78.7 M167.7,91.7
			c-3.8,1.7-9.2,2.2-9.2,2.2c0.8,0.2,1.3,0.5,1.3,0.5c-0.8,3-3.3,5.2-3.3,5.2s5.1,0.2,11.4-1.9c6.7-2.1,7.5-6.8,7.5-6.8
			C174.3,90,171.5,90,167.7,91.7 M160.2,87.3c-0.5,4.4-5.4,6.7-5.4,6.7s7.2-1,13.5-4.7c6.4-3.7,6.5-8.4,6.5-8.4
			c-1.6-0.7-4,0-6.8,1.9S160.2,87.3,160.2,87.3 M76.7,88.7c-1.7-3.9-1.5-6.8-1.5-6.8c-3-7.6-7.9-7.5-7.9-7.5c-1.8,6.9,4,15.2,4,15.2
			C73.5,88.3,76.7,88.7,76.7,88.7 M155.7,69.8c0.2,3.8-1.7,6.9-1.7,6.9c2.6,0.2,3.9,0.9,3.9,0.9s5.1-5.1,8.3-10.1s1.7-9,1.7-9
			c-1.2-0.1-3.3,0.4-4.8,2.6c-1.6,2.3-4.4,5.2-4.4,5.2C157.7,67.7,156.8,68.8,155.7,69.8 M189.8,161.6c-1.5-2.4-3.7-1.6-3.7-1.6
			c3.9,2.6,0.5,7.6-5.4,9.9c-5.4,2.1-13,1.9-18.9-1.6c-12.4-7.1-16.9-17.7-16.8-20.5c0.1-2.9,8.6-3.9,14.7-4
			c6.1-0.1,10.7,2.4,10.3,5.4c-0.5,3.1-3.9,2.9-3.9,2.9c5.8,3.2,9.8-0.8,10.8-4.2c1.1-3.4-0.4-10.5-6.3-12.4
			c-5.9-1.9-12.2,1.2-17.5,0.9c-5.4-0.3-8.7-4.4-8.7-4.4s1.5,3-1.5,3.8c-2.9,0.9-6.5-2.2-6.5-2.2s1.2,3.4-1.9,3.4s-5.1-2.2-5.1-2.2
			c-0.6,2.3-2.6,2.2-4.3,1.4c-1.7-0.9-3.1-2.4-3.1-2.4c-1.3,9.3,7,16.3,10.3,18.4c3.3,2,5.6,5.5,10.4,14.2
			c6.5,11.5,16.6,20,29.3,19.4c10-0.5,9.7-8.6,9.7-8.6c-2.5,2.3-13,2.7-23.2-2.6c-10.2-5.4-11.2-11.5-11.2-11.5
			c5.8,10,27.8,16.9,36,12C191.5,170.2,191.2,164,189.8,161.6 M71,99.5c1.4-1.4,4.7-1.2,4.7-1.2c-4-2.6-4.7-6.7-4.7-6.7
			c-5.4-5.7-9.6-3.8-9.6-3.8C61.2,94.7,71,99.5,71,99.5 M91.6,126.7c-0.2-0.7-0.2-2-0.2-2c-3.2,1.7-6.5,1.2-6.5,1.2
			c-0.2-0.6-0.5-1.2-0.6-1.8c0,0-1.5,1.1-3.2,2.7c-1.8,1.6-1.3,4.3-1.3,4.3C86.6,132.1,91.6,126.7,91.6,126.7 M109,129.8
			c3-6,6.5-9.5,10-14.2c3.6-4.7,4.7-9.7,3.4-12.5c-1.3-2.8-4.5-3.1-5.6-5.1c-1-1.9,4.4-2.6,4.4-2.6c-0.2-2.7,3.1-4.4,5.1-5.1
			c2-0.6,4.1-2.9,4.1-2.9c-1.8,0-4.7,0.4-7.3,1.9c-2.6,1.6-6.1,3.1-8.6,3.1c-2.6,0-5.2,0.5-5.2,0.5c-0.5-2.1,1.2-4.4,3.5-5.7
			s7.3-3.4,11.1-8.4c3.7-5,3-11.1,3-11.1s-1,2.8-3.4,4.7c-2,1.6-4.4,1.4-4.4,1.4c-1.3,7.2-7.5,9.7-11.1,11.3c-3.5,1.5-3,3.8-2.6,4.5
			c0.5,0.7,1.2,2.8,1.2,3.2c0,0.4-0.4,0.8-0.4,0.8c-0.9,0.4-2.1,1.4-2.5,2.2c-0.4,0.9-0.7,1.2-1.6,1.7c-1.3,0.7-4,0.9-4.7,3.4
			c-0.8,2.5,0.5,3.4,0.5,3.4c0.2-0.9,0.8-1.7,1.7-2.3c-0.2,0.2-0.2,0.5-0.2,0.8c0,0.9,0.8,1.7,1.6,1.7c-0.7,0.8-0.9,1.6-0.9,1.6
			s1.9-1,3.4-1.9c1.6-0.9,3.6-1.2,3.6-1.2c-0.1-0.8-0.3-1.5-0.9-2c1.6,0.5,2.3,1.6,2.1,2.6c-0.2,1.5,0.5,2.9,0.5,2.9
			c1-1.4,3.3-2.7,3.3-2.7c0.1-1.9-1.7-3.9-1.7-3.9c2.5,0.5,2.9,3.1,2.9,3.1s1.4,0.1,2.2,1.9c1.2,2.6-3.9,7.5-8,9
			c-4.1,1.5-9.3,1.2-13.1-0.6c-3.2-1.6-7.8-9.3-4.4-18.1c3.3-8.9,15.5-13.3,19.4-15.3c3.9-2,4-4,4.5-14.4
			c0.5-10.4,7.1-19.2,9.7-23.4c2.6-4.2,1.2-6.4,1.2-6.4c-6.8,2.3-12.8,11.7-13.8,15.2c-0.7,2.6-0.9,3.2,0.2,6.7
			c1.6,4.7-0.5,10.4-0.5,10.4s0.4-3,0.2-6.5c-0.2-3.5-1.5-5.7-1.5-5.7c-1.6,1.2-2.9,2.9-3.5,4.8c-1.9,5.4-1.9,12.3-1.9,12.3
			c-1.6-2.6-0.1-8.5-0.1-8.5c-0.4-1.9-3.7-4.4-3.7-4.4c-1,0.9-2,2.5-2.5,3.9c-2.3,6.3-0.7,12.8-0.7,12.8c-2-1.2-1.4-7.8-1.4-7.8
			c-0.7-2.8-3.7-4-3.7-4c-1.2,1.2-1.8,2.8-2.2,4.4C88,76,90.1,83,90.1,83c-1.9-1.5-1.9-7.2-1.9-7.2c-1.4-3.6-4.7-4-4.7-4
			c-1.3,3.1-1.4,6.7-0.9,9.5c0.9,4.5,3.4,7.6,3.4,7.6c-3.2-1.2-4.4-6.8-4.4-6.8c-1.2-2.6-5.5-1.7-5.5-1.7s-0.5,3.5,1.7,8.1
			s6.1,6.2,6.1,6.2c-4.2-0.1-6.8-5.2-6.8-5.2c-2.7-0.8-5.4,0.7-5.4,0.7c-0.2,1.1,0.8,4,3.2,6.1c3.3,3,8.3,4.4,8.3,4.4
			c-3.3,0.6-6.1-1.6-6.1-1.6c-5.1-0.7-6.4,1.9-6.4,1.9c0.3,2.6,2.6,4,5.9,4.9c3.3,0.9,7.5,0.7,7.5,0.7c-2.6,1.5-6.9,0.5-6.9,0.5
			c-3.2,0.7-4.2,3.7-4.2,3.7c1.6,2.2,3.5,2.7,5.8,2.6c3.7-0.2,7.5-2.1,7.5-2.1c-1.6,2.4-5.7,3-5.7,3c-1.4,2.3-1.9,5.1-1.9,5.1
			c5.4,2.5,11.8-4,11.8-4c-0.1,2.5-5.3,4.7-5.3,4.7c-0.5,2.5,0.4,4.6,0.4,4.6c7.8,0.2,11-7.1,11-7.1c0.5,2.8-4.2,6.2-4.2,6.2
			c-0.4,1.3,0.5,3.4,0.5,3.4c3.2,0.3,5.1-1.4,5.1-1.4c1.2-3.9,3.7-6.2,5.6-7.8c2.6-2,6.3-3.3,6.3-3.3s-9,4.6-10.7,12.7
			c-1.7,7.9,1.2,10.5,4.1,12.8c2.3,1.8,4.8,4.3,4.8,4.3c-0.2-0.8-0.9-2.5-1.1-4.7C106.8,136.7,107.4,133.1,109,129.8 M102.9,103.5
			c0-0.2,0.1-0.3,0.1-0.5c0-0.8-0.5-1.5-1.2-1.6c0.6-0.2,1.3-0.3,2.2-0.4c0.6-0.1,1.2-0.1,1.7,0C105.4,102,104.1,102.8,102.9,103.5
			 M109.4,97.1c0,0-0.2,2.4-1.8,2.6c-1.6,0.3-2.1-1.2-2-1.9c0,0-0.7,0.2-1.1,0.7c0,0-0.5-1.4,2.2-1.8c2.6-0.4,3.3-0.4,4.6-1
			C111.2,95.7,110.6,96.7,109.4,97.1 M134,182.2c0,0,0.5-0.5,0.2-1.4c-0.5-1.5-4.7-3.7-6-4.9c-1.2-1.3-1.9-1.1-2.4-6.3
			c-0.5-5.2-0.7-7.9-1.9-10.8c-0.5-1.3-0.9-2.3-0.5-3.6c0.4-1.2,7.3-1.9,7.3-1.9c-10.9-7.5-11.8-16.9-9.5-23c0.4,0.4,0.7,0.9,1,1.4
			c1.9,3.5,4.6,3.6,4.6,3.6c1.1-1.9-0.6-5.4-1.2-7.8c-0.5-2.3,0.3-3.4,0.3-3.4s0.2,2.8,1.9,6.1c2.3,4.3,5.4,4.2,5.4,4.2
			c2.1-1.2-1.1-6.2-1.7-8.3c-0.6-2.1-0.1-3-0.1-3s1.6,4.8,4.8,7.9c2.4,2.3,4.8,1.5,4.8,1.5c1.6-2.7-1.8-5.8-3.2-7.7
			c-1.4-1.8-1.2-3.3-1.2-3.3s1.4,2.2,4.8,5.4c3.5,3.2,7.3,2.8,7.3,2.8c0.8-3-2.8-5.9-4.7-7.5c-1.8-1.6-2.1-3.1-2.1-3.1
			s2.6,2.5,6.1,4.6c5.1,3,8.4,1.6,8.4,1.6c0.5-3-5-5.6-7.2-6.9c-2.3-1.3-2.4-2.5-2.4-2.5s5.1,2.9,10.7,3.6s7.5-1.8,7.5-1.8
			c-1.2-2.7-5.8-3.5-9.3-4s-4.4-2.1-4.4-2.1c0.9,0.2,9.1,0.9,14.1-0.3c5-1.2,6.4-4.7,6.4-4.7c-0.2-0.5-1.2-1.9-6-1
			c-4.9,1-12.6,0.9-12.6,0.9s0.6,1.2,0.3,2.3c0,0-1.2,1.9-3.8,2.3c0,0,0.4,1.5-0.3,2.6c0,0-0.9,1.6-4.1,1.5c0,0,0.2,1.2-0.4,2.2
			c0,0-2.1,1.2-4.2,0.9c0,0-0.7,1.6-1.5,2.3c0,0-2.3,0.5-3.5,0.1c0,0-1.2,1.6-2.3,1.9c0,0-1.5,0.4-3.1-0.3c0,0-1.6,1.3-2.6,1.7
			c0,0-0.9,0.1-2.3-0.9l0,0c3-4.3,4.5-7.6,4.5-7.6c3.1,0.4,4.4-0.2,4.2-0.6c-0.2-0.4,0.4-1.1,0.4-1.1c3.7,0.1,4.6-1,4.4-1.6
			c-0.1-0.5,0.2-1.1,0.2-1.1c4.7-0.5,4.7-2.3,4.5-2.8c-0.2-0.5,0-1.4,0-1.4c3.7-0.2,4.6-3.3,3.7-4.2c-0.5-0.5-0.9-1.8-0.9-1.8
			s1.9,0.9,6.1-0.4c4.3-1.3,5.6-5.7,5.6-5.7c-2.3-0.9-4.7,0.2-7.5,0.2s-3.5,0-3.5,0s3.9-0.2,7.3-2.3s3.8-5.3,3.8-5.3
			c-1.7-1.2-4.1-1-4.1-1c-5.6,3.7-7.4,3-7.4,3c10.7-4.3,10.3-10.6,10.3-10.6c-2.1-1.2-4.7-1-4.7-1s-0.3,0.9-3.6,3.3
			c-3.2,2.4-4.1,1.9-4.1,1.9s4.8-2.9,7-6.1c2-2.9,2.2-6.6,2.2-6.6c-1.9-0.3-3.8-0.2-5.5,0.5c-3.9,5.7-6.8,6.3-6.8,6.3s4.2-4.1,5.9-7
			c1.7-2.9,2.1-7.1,2.1-7.1s-2.2-0.3-4.6,1.7c-2.5,1.9-5.3,6.6-5.3,6.6c0.2-2.5,1.9-4.8,4.4-7.2c2.4-2.3,5.4-2.4,5.4-2.4
			s2.2-3.9,3.7-10.1c1.8-7.3-0.6-10-0.6-10c-3.4,1.2-5.1,6.1-7.2,12.8c-2,6.5-11.1,20.1-12.2,21.5c-1,1.4-3.9,4.2-0.3,6.1
			c3.6,1.9,6.1,6.9,6.2,12.5c0.1,5.6-4.4,11.3-9.5,13c-5,1.7-6.1,0.5-6.1,0.5c-0.2,4.8-5.2,10.1-8.3,14c-3.1,3.9-6.7,8.3-7.3,16
			c-0.6,7.9,5.3,12.9,9.4,17.5c4.1,4.7,4.4,12.8,4.5,15.4c0.2,2.6-0.4,4.7-2.2,5.7c-1.8,0.9-6.1,1.5-7.9,2.3s-1.2,1.9-1.2,1.9
			c-2.3,1.6-0.6,4.2-0.6,4.2c0.2-2.2,1.8-3,1.8-3c1.4,1.2,6.8-1.4,7.8-1.9c1-0.6,3.7-1.5,4.2-1.6c0.5-0.1,2.6,0.7,3.8,1.5
			c1.2,0.8,2.1,1.9,2.9,2.7c0.8,0.9,1.5,0.6,1.5,0.6c1.9,1.2,1.7,1.9,1.7,1.9c0.8-0.1,0.6-1.4,0.3-2
			C134.4,182.5,134,182.2,134,182.2 M92.5,128.7c-0.5-0.5-0.5-1.1-0.5-1.1c-0.9,1-2.3,2.5-2.3,2.5c-2.3,2.1,0.9,3.8,0.9,3.8
			c1.6,0.1,3.8-0.9,5.1-1.7c1.3-0.8,1.8,0.5,1.8,0.5c-0.5-1.9,0.4-5.4,0.4-5.4C95.5,129.3,92.5,128.7,92.5,128.7 M75.7,107
			c-6.2-2.3-5.7-5.9-5.7-5.9c-7.1-2.6-9.8,0.5-9.8,0.5c3,5.7,12.7,7.6,12.7,7.6C73.3,108.3,75.7,107,75.7,107 M78.4,117.2
			c0.2-0.8,1.1-2.4,1.1-2.4c-5.9,0.2-7.5-3.5-7.5-3.5c-6.5-0.2-8.3,3.3-8.3,3.3s1.3,2.6,5.4,3C73.3,118.1,78.4,117.2,78.4,117.2
			 M84.2,120.9c-4.7,1-6.5-0.4-6.5-0.4c0-0.9,0.4-2,0.4-2c-6.7,1.3-7.2,6.4-7.2,6.4s1.2,1.5,5.4,0.8c2.7-0.5,5.3-1.3,7.8-2.6
			C84,122.4,84.2,120.9,84.2,120.9"/>
		<path class="st1" d="M170.8,185c-14.5,0-23.3-11.8-27.2-18.9c-4.9-8.9-7.3-12.4-10.8-14.6c-3.6-2.2-9.8-8.1-10-15.4
			c0.5,0.4,1.2,0.9,1.8,1.2c0.9,0.4,1.6,0.6,2.4,0.6c1,0,2-0.5,2.6-1.3c1,0.7,2.6,1.6,4.7,1.6c1.5,0,2.3-0.6,2.6-1.2
			c0.2-0.4,0.4-0.8,0.5-1.2c1.2,0.7,2.7,1.3,4.3,1.3c0.5,0,0.9-0.1,1.4-0.2c1.3-0.4,1.9-1.2,2.2-1.9c0.1-0.2,0.2-0.3,0.2-0.5
			c1.6,1.2,4.2,2.6,7.5,2.9c0.2,0,0.5,0,0.8,0c1.9,0,4-0.4,6.1-0.8h0.2c1.9-0.4,4.1-0.7,6.2-0.7c1.5,0,2.8,0.2,4,0.5
			c5.4,1.7,6.6,8.2,5.7,11.2c-0.7,2.3-2.8,4.7-5.8,4.7c-0.3,0-0.6,0-1-0.1c0.9-0.6,1.6-1.7,1.8-2.9c0.2-1.2-0.2-2.4-1-3.3
			c-1.8-2.1-5.5-3.3-9.9-3.3h-0.4c-4.7,0.1-15.5,0.7-15.6,5c-0.1,3.3,4.7,14.2,17.3,21.4c3.3,1.9,7.5,3,11.8,3c2.9,0,5.6-0.5,8-1.4
			c4.4-1.6,7.3-4.6,7.6-7.5c0.1-0.7,0-1.3-0.2-1.9c0.2,0.2,0.4,0.4,0.5,0.6c0.5,0.9,0.9,2.6,0.5,4.7c-0.5,1.9-2,4.9-6.5,7.5
			c-1.6,0.9-4,1.5-6.8,1.5c-9.5,0-23.4-5.6-27.8-13.2c-0.2-0.3-0.5-0.5-0.9-0.5c-0.1,0-0.2,0-0.3,0.1c-0.5,0.2-0.7,0.6-0.6,1.1
			c0.1,0.2,1.2,6.7,11.8,12.2c5.3,2.8,11.4,4.4,16.8,4.4c2.2,0,4.1-0.3,5.6-0.8c-0.5,2.2-2.4,5.6-8.6,5.8
			C171.5,185,171.2,185,170.8,185 M133,182.4c-0.2-0.1-0.4-0.1-0.6-0.1c-0.1,0-0.2-0.1-0.5-0.3l-0.4-0.5c-0.7-0.8-1.6-1.7-2.7-2.4
			c-1.1-0.7-3.2-1.6-4.2-1.6c-0.2,0-0.2,0-0.3,0.1c-0.5,0.2-3.3,1-4.5,1.6c-1,0.6-4.4,2.2-6.1,2.2c-0.4,0-0.5-0.1-0.5-0.1
			c-0.2-0.2-0.4-0.2-0.7-0.2c-0.1,0-0.1,0-0.1,0c0.1-0.2,0-0.5-0.2-0.6c0-0.1,0.2-0.3,0.7-0.5c0.8-0.3,2.1-0.6,3.3-0.9
			c1.8-0.4,3.6-0.8,4.7-1.4c1.9-1,3-3.4,2.7-6.6c0-0.2-0.1-0.4-0.1-0.6c-0.2-3.2-0.6-10.7-4.7-15.3c-0.5-0.6-1.1-1.2-1.7-1.8
			c-3.7-4-8-8.6-7.5-14.9c0.5-7.2,3.8-11.4,6.8-15.1l0.3-0.5c0.5-0.5,1-1.2,1.6-1.9c2.7-3.3,6.1-7.4,6.8-11.4c0.2,0,0.5,0.1,0.8,0.1
			c1.3,0,3-0.3,4.9-1c5.7-1.9,10.2-8.2,10.1-13.9c-0.1-5.9-2.8-11.3-6.8-13.3c-0.7-0.4-1.2-0.8-1.2-1.2c-0.2-0.9,0.8-2,1.4-2.8
			c0.2-0.2,0.3-0.4,0.5-0.5c1-1.3,10.2-15,12.4-21.8c1.9-5.9,3.4-10.4,5.9-11.8c0.5,1.1,1.2,3.7,0.1,8.6c-0.8,3.3-1.9,6.5-3.4,9.4
			c-2.1,0.2-4,1.2-5.5,2.6c-3,2.9-4.5,5.4-4.7,7.9c0,0.5,0.2,0.9,0.7,1c0.1,0.1,0.2,0.1,0.3,0.1c0.3,0,0.7-0.2,0.9-0.5
			c0-0.1,2.8-4.5,5.1-6.4c1.2-0.9,2.2-1.2,2.9-1.4c-0.2,1.4-0.7,3.8-1.8,5.5c-1.6,2.7-5.7,6.8-5.7,6.8c-0.3,0.3-0.4,0.8-0.2,1.2
			c0.2,0.3,0.5,0.5,0.9,0.5c0.1,0,0.2,0,0.2,0c0.3-0.1,3.3-0.9,7.2-6.5c0.5-0.2,1.7-0.5,3.1-0.5c0.2,0,0.5,0,0.7,0
			c-0.2,1.2-0.6,3.4-1.9,5.2c-2,3-6.6,5.8-6.7,5.8c-0.3,0.2-0.5,0.5-0.5,0.9c0,0.4,0.2,0.7,0.6,0.9c0.1,0.1,0.3,0.1,0.5,0.1
			c1,0,2.6-0.7,4.5-2.2c2.1-1.5,3-2.5,3.5-3.1c0.6,0,1.9,0.2,3.1,0.6c-0.2,1.5-1.5,5.8-9.6,9.1c-0.4,0.2-0.6,0.5-0.6,0.9
			c0,0.4,0.2,0.8,0.6,0.9c0.2,0.1,0.4,0.2,0.9,0.2c1.2,0,3.4-0.5,7.2-3.1c0.5,0,1.6,0.1,2.7,0.5c-0.5,1.6-1.7,3-3.2,4
			c-2.1,1.2-4.5,1.9-6.9,2.2c-0.5,0-0.9,0.4-0.9,0.9c0,0.5,0.3,0.9,0.8,1c0.1,0,0.5,0.1,1.7,0.1c0.6,0,1.3,0,2.1-0.1
			c0.9-0.1,1.9-0.2,2.9-0.3c0.9-0.2,1.8-0.2,2.6-0.2c0.2,0,0.5,0,0.7,0.1c-0.6,1.2-2,3.2-4.5,4c-1.2,0.4-2.6,0.6-3.9,0.7
			c-0.5,0-1-0.1-1.6-0.2c-0.3-0.2-0.8-0.1-1,0.2c-0.3,0.2-0.4,0.6-0.3,1c0.1,0.2,0.4,1.5,1.1,2.2c0,0.1,0.1,0.5-0.2,1
			c-0.2,0.4-1,1.5-2.9,1.6c-0.5,0-0.8,0.3-0.9,0.8c-0.1,0.2-0.2,1.2,0.1,2c0,0.2-0.7,1.1-3.7,1.4c-0.3,0-0.6,0.2-0.7,0.5
			c-0.3,0.5-0.5,1.1-0.4,1.6c-0.2,0.2-1.1,0.5-3,0.5h-0.5c-0.3,0-0.5,0.1-0.7,0.3c-0.4,0.4-0.6,0.9-0.7,1.3
			c-0.5,0.1-0.9,0.2-1.4,0.2c-0.5,0-1.1-0.1-1.7-0.1h-0.1c-0.4,0-0.8,0.2-0.9,0.5c0,0-1.5,3.3-4.4,7.5c-0.2,0.3-0.2,0.7,0,1.1
			l-0.1,0.1c-0.1,0.2-1.1,1.5-0.5,4.3c0.2,0.7,0.4,1.4,0.6,2.2c0.5,1.4,1,3.1,0.9,4.2c-0.8-0.3-2-1-3.1-2.9
			c-0.3-0.6-0.7-1.2-1.2-1.6c-0.2-0.2-0.5-0.3-0.7-0.3h-0.2c-0.3,0.1-0.6,0.3-0.8,0.6c-2.4,6.2-1.5,15.3,7.8,22.6
			c-5.2,0.8-5.5,1.9-5.7,2.4c-0.5,1.5-0.1,2.7,0.5,4.2c1,2.6,1.2,4.9,1.6,9.2l0.2,1.4c0.5,4.6,1.1,5.4,2.2,6.4l0.5,0.5
			c0.5,0.5,1.6,1.2,2.6,1.9c1.2,0.8,3,2,3.2,2.6c0.1,0.2,0.1,0.4,0.1,0.5C133.1,181.8,133,182.1,133,182.4 M106.2,141.9
			c-0.8-0.7-1.6-1.3-2.3-2c-2.5-2-5.4-4.3-3.7-11.8c1.6-7.5,10.1-12,10.3-12c0.5-0.2,0.6-0.8,0.5-1.2c-0.2-0.4-0.5-0.6-0.9-0.6
			c-0.1,0-0.2,0-0.3,0.1c0,0-0.2,0.1-0.3,0.1c3-1.5,6.1-4.3,7.2-6.6c0.5-1.2,0.5-2.2,0.2-3.1c-0.4-1.1-1.2-1.9-2.3-2.3
			c-0.3-1-1.2-2.8-3.5-3.3c-0.1,0-0.2,0-0.2,0c-0.3,0-0.7,0.2-0.9,0.5c-0.2,0.4-0.2,0.9,0.1,1.2c0.4,0.4,1.2,1.6,1.4,2.7
			c-0.6,0.4-1.2,0.9-1.8,1.3c-0.1-0.2-0.1-0.5,0-0.8c0.2-1.2-0.4-2.5-1.8-3.3c1.6-0.3,2.3-1.7,2.5-2.9c1.2-0.5,1.7-1.4,1.8-1.5
			c0.2-0.4,0.2-0.9-0.1-1.2c-0.2-0.2-0.5-0.3-0.7-0.3c-0.2,0-0.3,0-0.4,0.1c-1,0.4-1.6,0.5-3.1,0.7c-0.4,0.1-0.8,0.1-1.2,0.2
			c-0.5,0.1-1.1,0.2-1.6,0.5c0.5-0.5,1.1-1,1.8-1.4c0.2-0.1,0.2-0.2,0.3-0.2c0.2-0.2,0.7-0.7,0.7-1.5c0-0.7-0.9-3-1.3-3.7
			c-0.2-0.3-0.2-0.8-0.1-1.1c0.2-0.8,1-1.5,2.3-1.9h0.1c3.4-1.5,9.7-4.1,11.4-11.2c1.6-0.1,3-0.6,4.2-1.6c0.6-0.5,1.2-1,1.6-1.6
			c-0.3,2.4-1.2,4.7-2.7,6.6c-3,4-6.9,6.1-9.5,7.4c-0.5,0.2-0.9,0.5-1.3,0.7c-2.4,1.4-4.6,4-4,6.8c0.1,0.5,0.5,0.8,0.9,0.8
			c0.1,0,0.1,0,0.2,0c0,0,2.6-0.5,5.1-0.5c2.8,0,6.5-1.7,9.2-3.3c1.2-0.7,2.3-1.2,3.7-1.5c-0.4,0.2-0.8,0.5-1.2,0.5
			c-2.6,0.8-5.5,2.5-5.8,5.1c-1.4,0.2-3.7,0.9-4.4,2.1c-0.3,0.5-0.2,1.2,0.1,1.8c0.6,1.1,1.6,1.8,2.7,2.4c1.2,0.7,2.3,1.3,2.8,2.6
			c1.2,2.6-0.2,7.3-3.3,11.4c-0.9,1.2-1.9,2.4-2.8,3.6c-2.6,3.2-5.1,6.2-7.3,10.7c-1.6,3.4-2.3,7.2-2.1,11
			C106.1,140.9,106.2,141.4,106.2,141.9 M133,133.4c-0.8-0.2-2.6-0.8-4.1-3.7c-0.9-1.6-1.5-3.3-1.8-5.1c0.5,0.2,0.9,0.2,1.2,0.2l0,0
			c0.2,0,0.2,0,0.2,0c0.1,0,0.2,0,0.2-0.1c0.5-0.2,1.1-0.5,1.6-0.9c-0.1,0.6,0,1.5,0.3,2.5c0.2,0.6,0.5,1.4,0.9,2.3
			C132.2,129.8,133.4,132.6,133,133.4 M90.8,132.9c-0.4-0.2-0.9-0.8-1-1.2c-0.1-0.2,0.2-0.5,0.5-0.9c0.1-0.1,0.8-0.8,1.5-1.5l0,0
			c0.2,0.2,0.4,0.3,0.5,0.3c0.1,0,0.5,0.1,1.2,0.1c0.9,0,1.9-0.2,3-0.5c-0.1,0.6-0.2,1.2-0.2,1.8c-0.4,0-0.9,0.2-1.2,0.4
			C93.9,132.2,92.2,132.9,90.8,132.9 M140.1,131.6c-1.2,0-2.3-0.5-3-1.3c-2.3-2.2-3.7-5.3-4.3-6.8h0.3c0.5,0,0.9-0.1,1.3-0.2
			c0.1,0,0.1,0,0.1-0.1c0.5-0.2,1-0.5,1.4-0.9c0.2,0.8,0.5,1.9,1.4,3c0.2,0.3,0.5,0.6,0.9,1c1.6,1.9,3,3.7,2.5,5.2
			C140.5,131.6,140.3,131.6,140.1,131.6 M81.6,130.1c-0.2,0-0.5,0-0.9-0.1c0-0.7,0.2-1.9,1.1-2.6c0.8-0.7,1.5-1.3,2-1.8
			c0.1,0.2,0.2,0.4,0.2,0.5c0.2,0.3,0.4,0.5,0.7,0.5c0.1,0,0.6,0.1,1.5,0.1c1.1,0,2.6-0.2,4.2-0.7c0,0.1,0,0.1,0,0.2
			C89.5,127.3,86,130.1,81.6,130.1 M148.1,128.6c-2.2-0.2-4.2-1.1-5.8-2.6c-1.5-1.4-2.9-2.9-4.2-4.4c1-0.1,1.9-0.2,1.9-0.2
			c0.2-0.1,0.3-0.2,0.5-0.2c0.3-0.3,0.7-0.9,0.9-1.3c0.2,0.7,0.9,1.9,2.2,3.1l0.2,0.2C145.4,124.3,148,126.6,148.1,128.6
			 M93.7,126.7L93.7,126.7c-0.2-0.6-0.4-1.3-0.4-1.9c1.2-0.9,4.7-4,4.2-6.9c-0.1-0.5-0.4-0.8-0.9-0.9h-0.2c-0.4,0-0.7,0.2-0.9,0.5
			c-0.1,0.2-2.9,6.3-9.3,6.5c-0.2-0.6-0.4-1.7-0.2-3c1.6-0.7,5.3-2.8,5.4-5.4c0-0.4-0.2-0.8-0.6-0.9c-0.2-0.1-0.2-0.1-0.4-0.1
			c-0.2,0-0.5,0.1-0.7,0.3c0,0-4.2,4.3-8.4,4.3c-0.5,0-1-0.1-1.5-0.2c0.2-0.9,0.7-2.3,1.4-3.6c1.2-0.2,4.4-1.1,5.9-3.3
			c0.2-0.4,0.2-0.9-0.1-1.2c-0.2-0.2-0.5-0.3-0.7-0.3c-0.2,0-0.3,0.1-0.5,0.1c-0.1,0-3.7,1.9-7.2,2h-0.5c-1.7,0-3-0.5-4.1-1.8
			c0.6-1.2,1.8-2.2,3.1-2.6c0.5,0.1,1.6,0.2,2.9,0.2c1.8,0,3.3-0.3,4.4-0.9c0.5-0.3,0.6-0.9,0.4-1.4c-0.2-0.3-0.5-0.5-0.9-0.5h-0.1
			c0,0-0.5,0.1-1.4,0.1c-1.6,0-3.8-0.1-5.8-0.6c-3.1-0.9-4.7-2-5.1-3.7c0.4-0.4,1.3-1.2,3.6-1.2c0.5,0,0.9,0,1.4,0.1
			c0.7,0.5,2.9,1.7,5.4,1.7c0.5,0,0.9-0.1,1.3-0.2c0.5-0.1,0.8-0.5,0.8-0.9s-0.2-0.9-0.7-1c-0.1,0-4.7-1.4-7.9-4.2
			c-1.9-1.6-2.7-3.7-2.9-4.7c0.5-0.2,1.6-0.5,2.7-0.5c0.3,0,0.7,0,1,0.1c0.8,1.3,3.3,5.2,7.4,5.3l0,0c0.5,0,0.9-0.3,1-0.8
			c0.1-0.5-0.2-0.9-0.6-1.1c0,0-3.7-1.6-5.6-5.8c-1-2.1-1.6-4.4-1.6-6.8c0.2,0,0.4-0.1,0.6-0.1c1.1,0,2.5,0.2,3,1.2
			c0.2,0.9,1.6,6.1,5,7.3c0.1,0.1,0.2,0.1,0.4,0.1c0.3,0,0.6-0.2,0.8-0.4c0.2-0.4,0.2-0.9-0.1-1.2c0-0.1-2.3-3-3.2-7.2
			c-0.5-2.7-0.4-5.4,0.5-8.1c0.9,0.3,2.3,1.2,3.1,3c0,1.4,0.2,6.2,2.3,7.8c0.2,0.1,0.4,0.2,0.5,0.2s0.4-0.1,0.5-0.2
			c0.3-0.2,0.5-0.7,0.4-1.1c0-0.1-1.9-6.8-0.1-13.2c0.2-1,0.7-2.3,1.5-3.4c0.8,0.5,2,1.4,2.5,2.9c-0.2,1.9-0.4,7.2,1.9,8.6
			c0.3,0.2,0.8,0.2,1.1-0.1s0.5-0.6,0.4-1c0-0.1-1.6-6.4,0.6-12.3c0.4-1,1-2.2,1.7-3c1,0.9,2.2,2.1,2.5,3c-0.3,1.3-1.3,6.3,0.2,9
			c0.2,0.3,0.5,0.5,0.9,0.5c0.1,0,0.2,0,0.2-0.1c0.5-0.1,0.8-0.5,0.7-0.9c0-0.1-0.1-6.8,1.8-12c0.5-1.3,1.2-2.6,2.3-3.6
			c0.4,0.9,0.8,2.3,0.9,4.1c0.2,3.3-0.2,6.3-0.2,6.3c-0.1,0.5,0.2,0.9,0.7,1.1c0.1,0,0.2,0,0.2,0c0.4,0,0.8-0.2,0.9-0.6
			c0.1-0.2,2.3-6.1,0.5-11.1c-1.1-3.1-0.9-3.5-0.3-5.8l0.1-0.2c0.9-3.1,6.1-11.4,12.1-14.2c0.1,0.9-0.1,2.4-1.4,4.6l-1.1,1.6
			c-3.1,4.8-8.3,12.8-8.8,22.3c-0.5,10.4-0.7,11.8-4,13.5c-0.7,0.4-1.4,0.7-2.1,1c-5.1,2.4-14.8,6.9-17.8,14.9
			c-3.6,9.3,1.3,17.6,4.9,19.4c2.3,1.1,4.9,1.7,7.6,1.7c1.9,0,3.9-0.3,5.6-0.9c-1.6,0.7-3.1,1.6-4.5,2.6c-2.1,1.6-4.6,4-5.9,7.9
			C96.7,126,95.5,126.7,93.7,126.7 M74.3,124.9c-0.8,0-1.6-0.1-2.2-0.4c0.3-1.1,1.3-3.4,4.7-4.6c0,0.2-0.1,0.4-0.1,0.6
			c0,0.3,0.2,0.5,0.4,0.8c0.1,0.1,1.3,1,3.9,1c0.7,0,1.3-0.1,2.1-0.2v0.5c-2.2,1-4.5,1.8-6.8,2.2C75.6,124.8,74.9,124.9,74.3,124.9
			 M154.7,124.5c-1.2,0-3.3-0.3-5.8-1.8c-1.9-1.1-3.7-2.4-5.3-3.9c1.3-0.3,2.3-0.9,2.3-0.9c0.2-0.1,0.3-0.2,0.4-0.4
			c0.1-0.2,0.2-0.4,0.2-0.6c0.4,0.6,1.1,1.4,2.5,2.2c0.3,0.2,0.7,0.4,1.2,0.6c1.9,1,5.2,2.9,5.6,4.7
			C155.5,124.5,155.1,124.5,154.7,124.5 M159.8,118.5c-0.5,0-1.2-0.1-1.8-0.1c-3.9-0.5-7.5-2.1-9.3-2.9c1.4-0.5,1.9-1.3,2-1.5
			c0.3-0.5,0.5-1.1,0.5-1.7c0.5,0.6,1.9,1.8,4.8,2.2c2.2,0.3,6.6,1,8.1,2.9C163.5,117.9,162.2,118.5,159.8,118.5 M72,116.7
			c-1,0-1.9-0.1-2.7-0.2c-2.5-0.3-3.7-1.4-4.3-2c0.7-0.8,2.5-2.2,6.5-2.3c0.7,1,2.5,3.1,6.5,3.4l-0.2,0.6
			C75.7,116.6,73.9,116.7,72,116.7 M158.8,110.9c-2.1,0-4.1-0.1-5.4-0.2c0.6-0.4,1.1-0.9,1.5-1.6c0.2-0.5,0.3-1.2,0.2-1.8h0.2
			c2.6,0,7.7-0.1,11.3-0.9c1-0.2,1.9-0.3,2.7-0.3c1.1,0,1.6,0.2,1.9,0.4c-0.5,0.9-2,2.8-5.4,3.7C164,110.7,161.7,110.9,158.8,110.9
			 M72.4,108.1c-1.9-0.5-8.3-2.3-11-6.2c0.5-0.4,1.6-0.8,3.3-0.8c1.2,0,2.7,0.2,4.2,0.8c0.2,1.2,0.9,3.6,4.5,5.4
			C73.2,107.5,72.8,107.8,72.4,108.1 M102,104.3c-0.2-0.3-0.5-0.5-0.9-0.5c-0.4,0-0.7-0.3-0.7-0.7l0,0c0-0.1,0-0.2,0.1-0.3
			c0.2-0.4,0.1-0.9-0.2-1.2c-0.2-0.2-0.4-0.2-0.6-0.2c-0.2,0-0.4,0.1-0.5,0.2c-0.4,0.2-0.7,0.5-1,0.9c0-0.3,0.1-0.5,0.2-0.9
			c0.4-1.3,1.4-1.8,2.9-2.3c0.5-0.2,0.9-0.3,1.3-0.5c0.3-0.2,0.5-0.4,0.8-0.5c0,0.3,0.1,0.5,0.1,0.6c0.1,0.3,0.4,0.5,0.7,0.6
			c0.1,0,0.2,0,0.2,0c0.2,0,0.3-0.1,0.5-0.1c0.1,0.2,0.2,0.4,0.4,0.5l0.1,0.1c-0.2,0-0.4,0-0.6,0c-1.2,0-2.3,0.2-3.4,0.5
			c-0.4,0.2-0.7,0.5-0.7,0.9c0,0.5,0.3,0.9,0.8,0.9c0.3,0.1,0.5,0.4,0.5,0.7c0,0.1,0,0.1,0,0.2C101.7,103.6,101.8,104,102,104.3
			L102,104.3 M105.9,102.5c0-0.1,0.1-0.2,0.2-0.2c0,0.1,0.1,0.1,0.1,0.2L105.9,102.5 M158.9,98.5c0.8-1,1.6-2.3,1.9-3.9v-0.1
			c1.9-0.3,4.8-0.9,7.3-1.9c2.5-1.1,4.1-1.3,5.1-1.3c0.5,0,0.8,0.1,1,0.2c-0.5,1.2-2.1,4-6.6,5.4C164.8,97.7,161.9,98.3,158.9,98.5
			 M70.9,98.4c-1.9-1-8.1-4.8-8.5-9.8c0.2-0.1,0.5-0.1,0.9-0.1c1.6,0,4,0.6,6.8,3.7c0.2,0.9,0.9,3.3,3,5.4
			C72.4,97.7,71.6,97.9,70.9,98.4 M159,91.9c1-1.2,1.8-2.6,2.1-4c1.3-0.7,5.1-2.7,7.5-4.4c2.5-1.6,4-2,5-2c0.1,0,0.2,0,0.2,0
			c-0.3,1.3-1.6,4.3-5.9,6.8C165.1,89.9,162.1,91.1,159,91.9 M71.8,88.2c-1.2-1.9-4.4-7.7-3.7-12.8c1.3,0.3,4.2,1.6,6.2,6.5
			c0,0.7,0,2.9,1,5.7C74.1,87.6,72.9,87.8,71.8,88.2 M159,85.2c-0.4-0.2-0.9-0.3-1.3-0.5c0.9-1.2,1.8-3,2-5.5c1-0.8,4-3.2,5.8-4.8
			c0.2-0.2,0.5-0.5,0.8-0.8c1.6-1.6,3.3-3.2,5.2-3.5c0.1,1.2-0.1,3.8-3,7.2C165.7,80.9,160.6,84.2,159,85.2 M80.4,78.8
			c-0.9-0.2-1.9-0.4-3-0.4c-0.2,0-0.4,0-0.5,0c-0.6-3.7-1.4-11.4,0.3-15.1c1.2,0.9,3.6,3.2,4.3,8.2C81.1,72.3,80.3,74.4,80.4,78.8
			 M157.7,76.5c-0.7-0.2-1.4-0.5-2.1-0.5c0.8-1.8,1.2-3.7,1.2-5.8c0.6-0.6,1.9-2,2.7-3c0.4-0.4,2.9-3.1,4.4-5.3
			c1.2-1.6,2.4-2.1,3.3-2.3c0.2,1.2,0.3,4-1.8,7.4C162.8,71.1,159,75.1,157.7,76.5 M87.6,71.8c-0.9-0.8-1.9-1.4-3-1.8
			c-0.1-2.2,0.1-8.7,1.9-13.2c0.4-1,1.2-2.3,2.2-3.3c0.9,1.3,2.3,4.4,2,10.4C90.1,64.7,88.3,67.2,87.6,71.8 M151.3,68.3
			c0.5-1.6,1.1-3.9,1-5.7c0.6-0.9,2.4-3.5,3.1-6.1c0.2-0.5,2.3-4.7,5.9-5.4c0.1,1.2,0,4.1-2.6,9.5c-2.2,4.5-3.7,6.8-4.3,7.5
			c-0.5,0-0.9-0.1-1.4-0.1C152.4,68.2,151.8,68.2,151.3,68.3 M95.8,65.1c-0.6-0.6-1.3-1.2-2.2-1.6c0.3-2.6,1.5-12,5.8-16.4
			c0.7,0.8,1.7,2.6,1.2,6.3c-0.2,0.5-1.2,3.7-1.5,5.4C98.5,59.5,96.7,61.6,95.8,65.1 M104.1,60.6c-0.5-0.7-1.2-1.2-1.9-1.8
			c0.4-1.9,1.7-7.2,3.7-11.4c1.6-3.5,3.7-5.1,4.6-5.7c0.5,0.8,1.1,2.3,1.1,4.4c-0.6,0.9-2.6,4.4-3,8C106.5,55.8,104.9,58,104.1,60.6
			"/>
		<path class="st1" d="M106.2,97.5c0,0,0.6-0.3,2.5-0.5c0,0-0.3,1.8-1.3,1.9C106.4,99.1,106.1,98.1,106.2,97.5"/>
		<path class="st1" d="M106.2,97.5c0,0,0.6-0.3,2.5-0.5c0,0-0.3,1.8-1.3,1.9C106.4,99.1,106.1,98.1,106.2,97.5 M143.2,205.3
			c-1.6,0-2.9,1.3-2.9,2.9s1.3,2.9,2.9,2.9c1.6,0,2.9-1.3,2.9-2.9C146.1,206.6,144.8,205.2,143.2,205.3L143.2,205.3 M143.2,210.5
			c-1.2,0-2.3-1.1-2.3-2.3c0-1.2,1.1-2.3,2.3-2.3c1.2,0,2.3,1.1,2.3,2.3C145.5,209.4,144.5,210.5,143.2,210.5 M143.9,208.2
			L143.9,208.2c0.4-0.2,0.6-0.5,0.6-0.9c0-0.2-0.1-0.5-0.3-0.7c-0.2-0.2-0.6-0.2-1.1-0.2c-0.4,0-0.8,0.1-1,0.1v3.3h0.8v-1.3h0.2
			c0.3,0,0.5,0.2,0.5,0.5c0.1,0.2,0.2,0.5,0.2,0.8h0.8c-0.1-0.2-0.2-0.5-0.3-0.9C144.3,208.5,144.1,208.3,143.9,208.2 M143.1,207.9
			h-0.3V207c0.1,0,0.2,0,0.3,0c0.4,0,0.5,0.2,0.5,0.5C143.7,207.7,143.5,207.9,143.1,207.9 M112.1,157.9c-0.5,3.8-1.1,4.8-1.1,4.8
			s-0.9-3.8-15.7-3c-17.4,0.9-33.2,2.5-33.8-6.4c0,0-0.1-2.8,2.4-7c0.9-1.6,2.3-3,3.9-3.7c0.5,1.6,2.5,4.5,10.3,4.3
			c11.1-0.4,34-2.2,34.2,6.1C112.2,153.2,112.3,156.1,112.1,157.9 M71,149.6c-1.3-0.2-2.2,1.2-2.5,2.8c-0.2,1.6,0.1,3.2,1.5,3.4
			c1.2,0.2,2.1-0.6,2.4-3C72.6,151.5,72.5,149.8,71,149.6 M70.8,150.6c0.5,0.1,0.5,1.1,0.4,2.2c-0.2,1.2-0.5,2.1-1,2
			c-0.5-0.1-0.6-0.8-0.5-2.2C70,151.3,70.4,150.6,70.8,150.6 M73.2,150l-0.3,3.8c-0.1,1.6,0.3,2.5,1.6,2.6c1.2,0.1,1.9-0.7,1.9-2.3
			l0.3-3.7l-1.2-0.1l-0.3,4c-0.1,0.9-0.3,1.2-0.7,1.1c-0.3,0-0.5-0.3-0.5-1.2l0.3-4L73.2,150z M77.3,156.4l1.2,0.1l0.1-2.5h0.2
			c0.4,0,0.5,0.2,0.7,1c0.1,0.7,0.2,1.3,0.2,1.5l1.2,0.1c-0.2-0.5-0.3-1.1-0.4-1.7c-0.1-0.6-0.3-1-0.7-1.2c0.6-0.2,1-0.9,1-1.5
			c0-0.5-0.1-0.9-0.5-1.3s-0.9-0.5-1.6-0.5c-0.5,0-0.9,0-1.3,0.1L77.3,156.4z M78.6,151.3c0.1,0,0.2-0.1,0.3,0
			c0.5,0,0.7,0.4,0.7,0.9s-0.3,0.9-0.9,0.9h-0.2L78.6,151.3z M83,156.6h1.2l-0.1-2.3h0.2c0.5,0,1.1-0.2,1.5-0.6s0.5-0.9,0.5-1.5
			c0-0.5-0.2-1-0.5-1.3c-0.4-0.4-0.9-0.5-1.6-0.5c-0.5,0-0.9,0.1-1.2,0.2L83,156.6z M84.1,151.4c0.1-0.1,0.2-0.1,0.3-0.1
			c0.5,0,0.8,0.4,0.8,0.9c0,0.5-0.2,1-0.9,1c-0.1,0-0.2,0-0.2,0L84.1,151.4z M87.2,156.5l1.2-0.1l-0.1-2.5h0.2
			c0.4,0,0.6,0.2,0.7,0.9c0.2,0.7,0.3,1.3,0.4,1.5l1.2-0.1c-0.2-0.5-0.3-1.1-0.5-1.6c-0.2-0.7-0.4-1-0.8-1.2
			c0.6-0.3,0.9-0.9,0.9-1.6c0-0.5-0.2-0.9-0.5-1.2c-0.4-0.4-1-0.4-1.6-0.4c-0.5,0-0.9,0.1-1.3,0.2L87.2,156.5z M88.1,151.2
			c0.1,0,0.2-0.1,0.3-0.1c0.5,0,0.8,0.4,0.8,0.9c0,0.5-0.2,1-0.8,1h-0.2L88.1,151.2z M91.3,150.1l0.2,6.1l1.2-0.1l-0.2-6.1
			L91.3,150.1z M93.7,156.2c0.2,0,0.6,0.1,1,0.1c0.9,0,1.5-0.2,1.9-0.5c0.5-0.5,0.9-1.3,0.9-2.6c0-1.2-0.2-2-0.8-2.5
			c-0.4-0.4-0.9-0.5-1.7-0.5c-0.5,0-0.9,0.1-1.2,0.1L93.7,156.2z M95,151.1c0.1,0,0.2,0,0.2,0c0.7,0,1,0.8,1,2
			c0,1.7-0.5,2.3-1.1,2.3c-0.1,0-0.2,0-0.2,0L95,151.1z M101,152.8l-1.4-0.1l0.1-1.4l1.5,0.1l0.1-1l-2.6-0.2l-0.3,6.1l2.8,0.2l0.1-1
			l-1.6-0.1l0.1-1.6l1.4,0.1L101,152.8z"/>
	</g>
</g>
<g id="레이어_1">
</g>
<rect x="8" y="34.8" class="st0" width="234" height="180.4"/>
</svg>
