<?xml version="1.0" encoding="utf-8"?>
<!-- Generator: Adobe Illustrator 25.1.0, SVG Export Plug-In . SVG Version: 6.00 Build 0)  -->
<svg version="1.1" id="Layer_1" xmlns="http://www.w3.org/2000/svg" xmlns:xlink="http://www.w3.org/1999/xlink" x="0px" y="0px"
	 viewBox="0 0 250 250" style="enable-background:new 0 0 250 250;" xml:space="preserve">
<style type="text/css">
	.st0{fill:#120E07;}
	.st1{fill:url(#SVGID_1_);}
	.st2{fill:url(#SVGID_2_);}
	.st3{fill:url(#SVGID_3_);}
	.st4{opacity:0.6;}
	.st5{fill:#FFCF00;}
	.st6{fill:url(#SVGID_4_);}
	.st7{fill:url(#SVGID_5_);}
	.st8{fill:url(#SVGID_6_);}
	.st9{fill:url(#SVGID_7_);}
	.st10{fill:url(#SVGID_8_);}
	.st11{fill:url(#SVGID_9_);}
	.st12{fill:url(#SVGID_10_);}
	.st13{fill:url(#SVGID_11_);}
	.st14{fill:#EF4134;}
	.st15{fill:url(#SVGID_12_);}
	.st16{fill:url(#SVGID_13_);}
	.st17{fill:url(#SVGID_14_);}
	.st18{fill:url(#SVGID_15_);}
	.st19{fill:url(#SVGID_16_);}
	.st20{fill:url(#SVGID_17_);}
	.st21{fill:url(#SVGID_18_);}
	.st22{fill:url(#SVGID_19_);}
	.st23{fill:#FFFFFF;}
	.st24{fill:url(#SVGID_20_);}
	.st25{fill:url(#SVGID_21_);}
	.st26{fill:url(#SVGID_22_);}
	.st27{fill:url(#SVGID_23_);}
	.st28{fill:url(#SVGID_24_);}
	.st29{fill:url(#SVGID_25_);}
	.st30{fill:none;}
</style>
<g id="Layer_1_1_">
	<g>
		<path class="st0" d="M154,201.4c-0.8,0-1.7-0.1-2.5-0.3c-4.8-1.1-15.1-2.3-26.5-2.3s-21.7,1.2-26.5,2.3c-0.8,0.2-1.6,0.2-2.5,0.3
			c-4.9,0-7.8-3.4-7.9-3.5l-0.2-0.2c-0.1-0.2-0.2-0.2-0.2-0.4l-0.1-0.2l-0.4-1.1l-0.1-0.3l-0.1-0.2l-1.3-3.3l-0.4,0.3
			c-0.5,0.4-2.8,2.2-6.6,3.2c-0.8,0.2-1.5,0.3-2.2,0.3c-3.9,0-6.1-2.7-6.8-4.3l-4.1-10.8c-0.9-2.4,1.1-4.4,2.5-5.4
			c4.8-3.7,13.6-4.2,17.3-4.2c3,0,5.5,0.2,6.9,0.6c3,0.8,4.8,2.5,5.6,5.2l1.6,4.5c5.1-0.9,12-1.7,25.4-1.7s20.4,0.8,25.5,1.7
			l1.6-4.6c0.8-2.7,2.5-4.4,5.5-5.1c1.3-0.4,4-0.6,6.9-0.6c3.6,0,12.5,0.4,17.3,4.2c1.3,0.9,3.4,3,2.5,5.4l-4,10.8
			c-0.1,0.2-1.9,4.4-6.8,4.4c-0.7,0-1.5-0.1-2.2-0.3c-3.9-1-6.3-2.9-6.6-3.1l-0.4-0.3l-1.3,3.3l-0.1,0.2l-0.2,0.3l-0.4,1.1l-0.1,0.2
			c-0.1,0.2-0.2,0.3-0.2,0.4l-0.2,0.2C161.7,198,158.9,201.4,154,201.4L154,201.4z"/>
		<path class="st0" d="M186.7,110.8c-0.1-1.3-1-2.5-2.3-2.7c-0.2,0-14.4-3.3-20.1-13.1c-5.2-8.6,5.5-17.3,5.9-17.7
			c0.8-0.6,1.2-1.6,1.1-2.5c-0.1-1-0.6-1.8-1.4-2.4c-1.3-0.7-2.5-1.5-3.8-2.1c0.9-1.7,1-3.6,0.6-5.6c-0.8-2.9-3.2-5.5-5.8-6.3
			c-0.6-0.2-1.3-0.3-1.9-0.3c-2.2,0-4.1,1.3-4.8,3.2c-0.3,1-0.2,2.1,0.3,3c-0.4,0.1-0.8,0.2-1.1,0.4c-1.1-0.4-2.1-0.7-3.2-1.1
			c0.2-0.8,0.3-1.7,0.3-2.5c0-4-2.3-7.8-5.8-9.6c-1.7-0.9-3.5-1.3-5.4-1.3c-0.2,0-0.3,0-0.4,0c0-0.3,0-0.6,0-0.9c0-2.9-1.4-5.4-4-7
			c-5.1-3.2-7.3-6.8-7.3-6.8c-0.9-1.4-2.7-1.9-4.1-1c-0.4,0.2-0.8,0.6-1,1c0,0-2.2,3.6-7.3,6.8c-2.5,1.6-4,4-4,7c0,0.3,0,0.6,0,0.9
			c-0.2,0-0.3,0-0.4,0c-1.9,0-3.7,0.4-5.4,1.3c-3.5,1.8-5.8,5.5-5.8,9.6c0,0.9,0.2,1.7,0.3,2.5c-1.1,0.3-2.1,0.7-3.2,1.1
			c-0.3-0.2-0.7-0.4-1.1-0.4c0.5-0.9,0.6-2,0.3-3c-0.6-1.9-2.5-3.2-4.8-3.2c-0.6,0-1.3,0.1-1.9,0.3c-2.6,0.8-5,3.3-5.8,6.3
			c-0.6,2-0.3,3.9,0.6,5.6c-1.3,0.7-2.5,1.4-3.8,2.1c-0.9,0.5-1.3,1.3-1.4,2.4c-0.1,1,0.3,1.9,1.1,2.5c-0.2,0.1,10.9,9,5.8,17.7
			c-5.8,9.7-20,13-20.2,13.1c-1.3,0.3-2.2,1.4-2.3,2.7c0,0.6-0.8,16.2,6.2,37.3c6.4,19.3,21,47,53.8,69.3c0.5,0.3,1.1,0.6,1.7,0.5
			c0.6,0,1.2-0.2,1.7-0.5c32.8-22.3,47.4-50,53.8-69.3C187.5,127,186.7,111.4,186.7,110.8L186.7,110.8z"/>
		
			<linearGradient id="SVGID_1_" gradientUnits="userSpaceOnUse" x1="76.2017" y1="157.8886" x2="211.5378" y2="157.8886" gradientTransform="matrix(0.8682 0 0 0.8682 0.1318 1.8646)">
			<stop  offset="0.2637" style="stop-color:#FFD200"/>
			<stop  offset="1" style="stop-color:#F5821F"/>
		</linearGradient>
		<path class="st1" d="M144.1,65.1c0,0,11.2,2.1,24.3,9.9c0,0-13.3,10.5-6.7,21.5c6.5,11,22.1,14.4,22.1,14.4s3.4,61.8-58.7,104l0,0
			l0,0l0,0l0,0c-62.2-42.2-58.8-104-58.8-104s15.5-3.5,22.1-14.4c6.5-11-6.7-21.5-6.7-21.5c13.1-7.8,24.3-9.9,24.3-9.9
			s8.5-2.1,19.1-2.1C135.5,63,144.1,65.1,144.1,65.1L144.1,65.1z"/>
		
			<linearGradient id="SVGID_2_" gradientUnits="userSpaceOnUse" x1="98.987" y1="73.5559" x2="109.4266" y2="73.5559" gradientTransform="matrix(0.8682 0 0 0.8682 0.1318 1.8646)">
			<stop  offset="0.2637" style="stop-color:#FFD200"/>
			<stop  offset="1" style="stop-color:#F5821F"/>
		</linearGradient>
		<path class="st2" d="M87.6,70.4c0,0,5.8-2.7,7.5-3.2c0,0-2.6-0.1-3.2-1.3c-0.6-1.3,0.1-2.5,0.9-2.9c0.8-0.5-0.2-2.5-2.8-1.7
			C87.4,61.9,84.1,66.7,87.6,70.4z"/>
		<path class="st0" d="M158.6,97.3c-1.2-2-1.9-4-2.2-5.9c-9.3-3.8-20.6-6.3-31.4-6.3s-22.1,2.5-31.4,6.3c-0.4,1.9-1.1,3.9-2.2,5.9
			c-5.6,9.4-16.3,14.2-22.1,16.2c0.2,5.7,1.2,17.8,6.2,32.5c8.9,26.2,25.5,48.1,49.6,65.2c24.1-17.1,40.7-39,49.6-65.2
			c5-14.6,5.9-26.8,6.2-32.5C175,111.4,164.2,106.8,158.6,97.3L158.6,97.3z"/>
		
			<linearGradient id="SVGID_3_" gradientUnits="userSpaceOnUse" x1="118.0201" y1="105.5906" x2="180.2954" y2="203.6819" gradientTransform="matrix(0.8682 0 0 0.8682 0.1318 1.8646)">
			<stop  offset="0.2747" style="stop-color:#EE3423"/>
			<stop  offset="1" style="stop-color:#AD2213"/>
		</linearGradient>
		<path class="st3" d="M125,208.3c-23-16.7-38.9-37.9-47.4-63.1c-4.4-13.1-5.6-24-5.9-30.2c6.3-2.4,16.2-7.3,21.7-16.5
			c1-1.7,1.7-3.5,2.2-5.3c9.3-3.6,20-5.6,29.4-5.6s20,2.1,29.4,5.6c0.5,1.8,1.3,3.6,2.2,5.3c5.5,9.3,15.4,14.2,21.7,16.5
			c-0.3,6.2-1.6,17.1-5.9,30.2C163.9,170.3,148,191.6,125,208.3L125,208.3z"/>
		<g class="st4">
			<path d="M125,208.3c-23-16.7-38.9-37.9-47.4-63.1c-4.4-13.1-5.6-24-5.9-30.2c6.3-2.4,16.2-7.3,21.7-16.5c1-1.7,1.7-3.5,2.2-5.3
				c9.3-3.6,20-5.6,29.4-5.6s20,2.1,29.4,5.6c0.5,1.8,1.3,3.6,2.2,5.3c5.5,9.3,15.4,14.2,21.7,16.5c-0.3,6.2-1.6,17.1-5.9,30.2
				C163.9,170.3,148,191.6,125,208.3L125,208.3z"/>
		</g>
		<path class="st0" d="M178.4,115c-6.3-2.4-16.2-7.3-21.7-16.5c-0.2-0.3-0.4-0.7-0.6-1l-75.5,55.4c4.1,9.9,9.4,19.2,15.9,27.8
			l81.5-60.2C178.1,118.3,178.3,116.5,178.4,115L178.4,115z"/>
		<path class="st5" d="M177.1,156.9C177.1,156.8,177.1,156.8,177.1,156.9C177.1,156.8,177.1,156.8,177.1,156.9z"/>
		
			<linearGradient id="SVGID_4_" gradientUnits="userSpaceOnUse" x1="178.2301" y1="73.5559" x2="188.6682" y2="73.5559" gradientTransform="matrix(0.8682 0 0 0.8682 0.1318 1.8646)">
			<stop  offset="0.2637" style="stop-color:#FFD200"/>
			<stop  offset="1" style="stop-color:#F5821F"/>
		</linearGradient>
		<path class="st6" d="M162.4,70.4c0,0-5.8-2.7-7.5-3.2c0,0,2.6-0.1,3.2-1.3c0.6-1.3-0.1-2.5-0.9-2.9c-0.8-0.5,0.2-2.5,2.8-1.7
			C162.6,61.9,165.9,66.7,162.4,70.4L162.4,70.4z"/>
		
			<linearGradient id="SVGID_5_" gradientUnits="userSpaceOnUse" x1="102.4163" y1="90.0298" x2="185.2319" y2="90.0298" gradientTransform="matrix(0.8682 0 0 0.8682 0.1318 1.8646)">
			<stop  offset="0" style="stop-color:#790B00"/>
			<stop  offset="0.2582" style="stop-color:#EE3423"/>
			<stop  offset="0.7747" style="stop-color:#EE3423"/>
			<stop  offset="1" style="stop-color:#790B00"/>
		</linearGradient>
		<path class="st7" d="M89,80.5c1.1,1.5,2.2,3.5,2.7,6c9.6-4.3,21.1-6.7,33.3-6.7s23.7,2.3,33.3,6.7c0.6-2.5,1.7-4.6,2.7-6
			c-10.2-4.4-22.6-7-36-7C111.7,73.4,99.3,76,89,80.5z"/>
		
			<linearGradient id="SVGID_6_" gradientUnits="userSpaceOnUse" x1="105.7909" y1="95.7312" x2="181.8573" y2="95.7312" gradientTransform="matrix(0.8682 0 0 0.8682 0.1318 1.8646)">
			<stop  offset="0" style="stop-color:#790B00"/>
			<stop  offset="0.2582" style="stop-color:#EE3423"/>
			<stop  offset="0.7747" style="stop-color:#EE3423"/>
			<stop  offset="1" style="stop-color:#790B00"/>
		</linearGradient>
		<path class="st8" d="M125,82c12.1,0,23.5,2.4,32.9,6.8c0-0.3,0-0.6,0.1-0.9c-9.5-4.4-20.9-6.7-33-6.7c-12.1,0-23.5,2.4-33,6.7
			c0,0.2,0.1,0.6,0.1,0.9C101.5,84.3,112.9,82,125,82L125,82z"/>
		
			<linearGradient id="SVGID_7_" gradientUnits="userSpaceOnUse" x1="100.7745" y1="84.6952" x2="186.8736" y2="84.6952" gradientTransform="matrix(0.8682 0 0 0.8682 0.1318 1.8646)">
			<stop  offset="0" style="stop-color:#790B00"/>
			<stop  offset="0.2582" style="stop-color:#EE3423"/>
			<stop  offset="0.7747" style="stop-color:#EE3423"/>
			<stop  offset="1" style="stop-color:#790B00"/>
		</linearGradient>
		<path class="st9" d="M125,72.2c13.6,0,26.4,2.7,36.8,7.3c0.2-0.2,0.4-0.4,0.6-0.6c-10.6-4.7-23.5-7.4-37.4-7.4s-26.8,2.8-37.4,7.4
			c0.2,0.2,0.4,0.4,0.6,0.6C98.6,74.8,111.4,72.2,125,72.2L125,72.2z"/>
		<path class="st0" d="M125,101.1l-1.1-1.3c-3.6-4-10.3-4.2-11-4.2h-2.5l1.1-2.2c0.4-0.7,0.8-2,0.6-2.5c0-0.1-0.1-0.1-0.2-0.2
			c-0.1-0.1-0.2-0.1-0.3-0.1c-0.4,0-1.2,0.9-1.9,1.7c-1.4,1.6-3.3,3.8-6.7,4.4c-0.7,0.2-1.3,0.2-2.1,0.2c-5.1,0-7.5-4-7.7-4.1
			l-0.9-1.4l1.6-0.6c5.8-2.5,18.8-6.5,30.9-6.5s25,4.1,30.9,6.5l1.6,0.6l-0.9,1.5c-0.1,0.2-2.5,4.1-7.7,4.1l0,0
			c-0.6,0-1.3-0.1-2.1-0.2c-3.2-0.6-5.2-2.8-6.7-4.4c-0.7-0.8-1.5-1.7-1.9-1.7c-0.1,0-0.2,0.1-0.3,0.1c-0.1,0.1-0.1,0.1-0.2,0.2
			c-0.2,0.6,0.2,1.8,0.6,2.5l1.2,2.2H137c-0.7,0-7.4,0.1-11,4.2L125,101.1L125,101.1z"/>
		<path class="st0" d="M125,102.4l-1.1-1.3c-3.6-4-10.3-4.2-11-4.2h-2.5v-1.3c0.4-0.7,1.9-2.9,1.7-3.4c0-0.1-0.1-0.1-0.2-0.2
			c-0.1-0.1-0.2-0.1-0.3-0.1c-0.4,0-1.2,0.9-1.9,1.7c-1.4,1.6-3.3,3.8-6.7,4.4c-0.6,0.2-1.3,0.2-2.1,0.2c-5.1,0-7.5-4-7.7-4.1
			l-0.9-1.3v-1.3c5.8-2.5,20.4-5.8,32.5-5.9c12,0,26.6,3.4,32.5,5.9v1.3l-0.9,1.5c-0.1,0.2-2.5,4.1-7.7,4.1l0,0
			c-0.6,0-1.3-0.1-2.1-0.2c-3.2-0.6-5.2-2.8-6.7-4.4c-0.7-0.8-1.5-1.7-1.9-1.7c-0.1,0-0.2,0.1-0.3,0.1c-0.1,0.1-0.1,0.1-0.2,0.2
			c-0.2,0.6,1.4,2.7,1.8,3.4v1.3H137c-0.7,0-7.4,0.1-11,4.2L125,102.4z"/>
		
			<linearGradient id="SVGID_8_" gradientUnits="userSpaceOnUse" x1="108.8919" y1="104.031" x2="178.6801" y2="104.031" gradientTransform="matrix(0.8682 0 0 0.8682 0.1318 1.8646)">
			<stop  offset="0" style="stop-color:#790B00"/>
			<stop  offset="0.2582" style="stop-color:#EE3423"/>
			<stop  offset="0.7747" style="stop-color:#EE3423"/>
			<stop  offset="1" style="stop-color:#790B00"/>
		</linearGradient>
		<path class="st10" d="M125,85.6c-12.2,0-25.2,4.3-30.3,6.4c0,0,2.5,4.3,8.2,3.2c5.5-1,6.7-7.4,9.8-5.9c2.1,1.1,0.2,4.8,0.2,4.8
			s8-0.2,12.3,4.7c4.3-4.8,12.3-4.7,12.3-4.7s-2-3.6,0.2-4.8c3.2-1.6,4.3,4.8,9.8,5.9c5.5,1.1,8.2-3.2,8.2-3.2
			C150.2,89.9,137.2,85.7,125,85.6z"/>
		<path class="st0" d="M125,95.1l-0.3-0.1c-4.2-0.8-6.7-2.5-7.6-5c-0.8-2.2,0.1-4.5,1.2-5.9c0.2-0.2,0.5-0.6,0.6-0.8l-1.9-0.7
			c-2.1-0.8-5.9-3.6-5.2-7.8c0.5-2.7,2.5-4.3,5.6-4.3c0.2,0,0.4,0,0.6,0c-0.3-1.6-1.3-3.5-2.5-4.8c-0.7-0.8-1.9-1.8-3.3-1.8
			c-0.2,0-0.3,0-0.5,0c-3.2,0.5-2.8,4.2-2.8,4.4l0.3,2.8l-2.5-1.3c-3.7-1.9-5.9-5.1-5.9-8.8c0-3.5,2-6.7,5-8.3
			c1.4-0.7,3-1.1,4.7-1.1c0.8,0,1.6,0.1,2.2,0.2c-0.2-0.8-0.4-1.7-0.4-2.5c0-2.4,1.2-4.4,3.3-5.7c5.5-3.4,7.8-7.3,7.8-7.4l1.3-2.1
			l1.3,2.2c0,0.1,2.3,4,7.8,7.4c2.1,1.3,3.2,3.3,3.3,5.7c0,0.9-0.1,1.7-0.4,2.5c0.7-0.2,1.5-0.2,2.2-0.2c1.7,0,3.2,0.4,4.7,1.1
			c3,1.6,5,4.8,5,8.3c0,3.6-2.1,6.9-5.9,8.8l-2.5,1.3l0.3-2.8c0.1-0.4,0.3-3.9-2.8-4.4c-0.2,0-0.3,0-0.5,0c-1.4,0-2.6,1-3.3,1.8
			c-1.2,1.3-2.1,3.2-2.5,4.8c0.2,0,0.4,0,0.6,0c3.2,0,5.1,1.6,5.6,4.3c0.7,4.4-3.1,7-5.2,7.8l-1.9,0.7c0.2,0.3,0.5,0.6,0.6,0.8
			c1.2,1.3,2,3.7,1.2,5.9c-0.9,2.5-3.5,4.2-7.6,5L125,95.1L125,95.1z M130.6,79.7c-0.2,0-0.5,0-0.9,0.2c-0.2,0.1-0.2,0.2-0.2,0.2
			c-0.1,0.4,0.2,1.4,1.2,2.9l0.2-1.9C131,80.5,130.9,79.8,130.6,79.7L130.6,79.7L130.6,79.7z M119.4,79.7c-0.2,0.2-0.4,0.9-0.3,1.4
			l0.2,1.9c1-1.4,1.3-2.5,1.2-2.9c0-0.1,0-0.1-0.2-0.2C119.8,79.8,119.5,79.7,119.4,79.7L119.4,79.7z"/>
		
			<linearGradient id="SVGID_9_" gradientUnits="userSpaceOnUse" x1="118.0106" y1="73.0664" x2="169.741" y2="73.0664" gradientTransform="matrix(0.8682 0 0 0.8682 0.1318 1.8646)">
			<stop  offset="0.2637" style="stop-color:#FFD200"/>
			<stop  offset="1" style="stop-color:#F5821F"/>
		</linearGradient>
		<path class="st11" d="M143.3,54.2c-4.7-2.4-9.5,0.4-10.1,0.8c2.1-1.2,4.8-7.1,0.2-10c-6-3.7-8.4-7.9-8.4-7.9s-2.4,4.2-8.3,7.8
			c-4.7,2.9-2,8.9,0.2,10c-0.6-0.4-5.5-3.2-10.1-0.8c-5.1,2.6-6.4,10.7,0.9,14.4c0,0-0.6-5.3,4-6c4.7-0.7,8.4,5.9,8.1,9.7
			c0,0-5.7-1.6-6.4,2.7c-0.7,4.3,4.3,6.3,4.3,6.3s-0.4-4.2,3.2-2.7c2.2,1,1,3.9-1.3,6.6c-1.5,1.8-2.9,6.8,5.5,8.5v-0.1v0.1
			c8.5-1.7,7.1-6.7,5.5-8.5c-2.3-2.7-3.6-5.7-1.3-6.6c3.6-1.5,3.2,2.7,3.2,2.7s5-2,4.3-6.3c-0.7-4.3-6.4-2.7-6.4-2.7
			c-0.3-3.8,3.5-10.5,8.1-9.7c4.7,0.7,4,6,4,6C149.6,64.9,148.3,56.7,143.3,54.2L143.3,54.2z"/>
		
			<linearGradient id="SVGID_10_" gradientUnits="userSpaceOnUse" x1="133.2614" y1="50.8178" x2="155.4823" y2="87.592" gradientTransform="matrix(0.8682 0 0 0.8682 0.1318 1.8646)">
			<stop  offset="0.2747" style="stop-color:#EE3423"/>
			<stop  offset="1" style="stop-color:#AD2213"/>
		</linearGradient>
		<path class="st12" d="M125,92.1c-2.9-0.6-4.7-1.7-5.1-3c-0.4-1.3,0.2-2.5,0.6-3c1.3-1.5,3.3-4.4,2.8-6.7c-0.2-1-1-1.8-2-2.2
			c-0.7-0.3-1.3-0.5-2-0.5c-1,0-1.7,0.3-2.3,1c-0.3,0.3-0.6,0.7-0.7,1.1c-1-0.8-1.9-2-1.7-3.6c0.1-0.6,0.3-1.7,2.7-1.7
			c1,0,1.8,0.2,1.8,0.2l1.7,0.5l0.2-1.7c0.2-2.7-1.2-6.3-3.3-8.6c-1.7-1.8-3.6-2.8-5.5-2.8c-0.3,0-0.6,0-1,0.1
			c-3.2,0.5-4.6,2.7-5.1,4.8c-1.9-1.7-2.2-3.6-2.2-4.8c0-2.4,1.3-4.6,3.4-5.6c1-0.6,2.1-0.8,3.3-0.8c2.5,0,4.6,1.1,5.1,1.4l1.6-2.5
			c-0.8-0.5-1.9-2.3-1.9-4.2c0-1.3,0.6-2.5,1.9-3.2c3.8-2.4,6.2-4.9,7.5-6.6c1.3,1.7,3.7,4.2,7.5,6.6c1.3,0.8,1.9,1.8,1.9,3.2
			c0,1.9-1.1,3.6-1.9,4.2L134,56c0.6-0.3,2.7-1.4,5.1-1.4c1.2,0,2.3,0.2,3.3,0.8c2.1,1,3.4,3.2,3.4,5.6c0,1.2-0.3,3.1-2.2,4.8
			c-0.5-2.1-1.9-4.4-5.1-4.8c-0.3-0.1-0.6-0.1-1-0.1c-2,0-3.9,1-5.5,2.8c-2.2,2.4-3.6,5.9-3.3,8.6l0.2,1.7l1.7-0.5
			c0,0,0.9-0.2,1.8-0.2c2.5,0,2.6,1.3,2.7,1.7c0.2,1.7-0.7,2.9-1.7,3.6c-0.2-0.4-0.4-0.8-0.7-1.1c-0.6-0.6-1.3-1-2.3-1
			c-0.6,0-1.3,0.2-2,0.5c-1,0.4-1.7,1.3-2,2.2c-0.6,2.4,1.5,5.2,2.8,6.7c0.4,0.5,1.1,1.7,0.6,3C129.6,90.4,127.9,91.6,125,92.1
			L125,92.1z"/>
		<path class="st0" d="M125,76.4c-7.1,0-13-5.8-13-13c0-7.1,5.9-13,13-13c7.1,0,13,5.9,13,13S132.1,76.4,125,76.4z"/>
		
			<linearGradient id="SVGID_11_" gradientUnits="userSpaceOnUse" x1="130.5991" y1="70.923" x2="157.0894" y2="70.923" gradientTransform="matrix(0.8682 0 0 0.8682 0.1318 1.8646)">
			<stop  offset="0.2637" style="stop-color:#FFD200"/>
			<stop  offset="1" style="stop-color:#F5821F"/>
		</linearGradient>
		<path class="st13" d="M136.5,63.4c0,6.3-5.1,11.5-11.5,11.5c-6.3,0-11.5-5.1-11.5-11.5S118.7,52,125,52
			C131.3,52,136.5,57.1,136.5,63.4z"/>
		<path class="st0" d="M135.2,63.4c0,5.6-4.6,10.2-10.2,10.2s-10.2-4.6-10.2-10.2s4.6-10.2,10.2-10.2
			C130.6,53.2,135.2,57.8,135.2,63.4z"/>
		<path class="st14" d="M133.9,62c0,0-1,4.8-4.5,5.4c-1.9,0.3-2.9-0.6-2.9-1.3c0.2-0.2,0.5-0.3,0.7-0.5c0.6,0.3,2,0.7,3.4-0.1
			c1.9-1.1,3.4-4.9,1.3-7.9c-2-2.9-5.4-4-8.2-3.2c0,0,4.8,1,5.4,4.5c0.3,1.9-0.6,2.9-1.3,2.9c-0.2-0.2-0.3-0.5-0.5-0.7
			c0.3-0.6,0.7-2-0.1-3.4c-1.1-1.9-4.9-3.4-7.9-1.3c-2.9,2-4,5.4-3.2,8.2c0,0,1-4.8,4.5-5.4c1.9-0.3,2.9,0.6,2.9,1.3
			c-0.2,0.2-0.5,0.3-0.7,0.5c-0.6-0.3-2-0.7-3.4,0.1c-1.9,1.1-3.4,4.9-1.3,7.9c2,2.9,5.4,4,8.2,3.2c0,0-4.8-1-5.4-4.5
			c-0.3-1.9,0.6-2.9,1.3-2.9c0.2,0.2,0.3,0.5,0.5,0.7c-0.3,0.6-0.7,2,0.1,3.4c1.1,1.9,4.9,3.4,7.9,1.3
			C133.6,68.3,134.7,64.9,133.9,62L133.9,62z M122.5,63.4c0-1.3,1.1-2.5,2.5-2.5l0,0c1.3,0,2.5,1.1,2.5,2.5c0,1.3-1.1,2.5-2.5,2.5
			C123.7,65.9,122.5,64.8,122.5,63.4z"/>
		<path class="st0" d="M87.4,74.7c0,0.6-0.6,1.2-1.2,1.2c-0.6,0-1.2-0.5-1.2-1.1s0.5-1.2,1.1-1.2h0.1C86.9,73.5,87.4,74.1,87.4,74.7
			z M95.1,71.1c0,0.6-0.6,1.2-1.2,1.2c-0.6,0-1.2-0.6-1.2-1.2s0.6-1.2,1.2-1.2C94.5,69.9,95.1,70.5,95.1,71.1z M103,68.3
			c0,0.6-0.6,1.2-1.2,1.2c-0.6,0-1.2-0.6-1.2-1.2s0.6-1.2,1.2-1.2C102.4,67.2,103,67.6,103,68.3z M112.4,66.3c0,0.6-0.6,1.2-1.2,1.2
			c-0.6,0-1.2-0.6-1.2-1.2l0,0c0-0.6,0.6-1.2,1.2-1.2C111.9,65.1,112.4,65.7,112.4,66.3z"/>
		<circle class="st0" cx="163.8" cy="74.7" r="1.2"/>
		<path class="st0" d="M154.9,71.1c0,0.6,0.6,1.2,1.2,1.2s1.2-0.6,1.2-1.2l0,0c0-0.6-0.6-1.2-1.2-1.2l0,0
			C155.5,69.9,154.9,70.5,154.9,71.1z M147,68.3c0,0.6,0.6,1.2,1.2,1.2s1.2-0.6,1.2-1.2s-0.6-1.2-1.2-1.2S147,67.6,147,68.3z
			 M137.6,66.3c0,0.6,0.6,1.2,1.2,1.2s1.2-0.6,1.2-1.2l0,0c0-0.6-0.6-1.2-1.2-1.2S137.6,65.7,137.6,66.3z M175.8,117
			c0,0-0.5,7.8-12.6,7.8h-12.2l0.5,1.1h12.2c12.1,0,12.6-7.8,12.6-7.8L175.8,117z"/>
		
			<linearGradient id="SVGID_12_" gradientUnits="userSpaceOnUse" x1="124.6086" y1="124.3307" x2="133.0477" y2="138.8384" gradientTransform="matrix(0.8682 0 0 0.8682 0.1318 1.8646)">
			<stop  offset="0.2637" style="stop-color:#FFD200"/>
			<stop  offset="1" style="stop-color:#F5821F"/>
		</linearGradient>
		<path class="st15" d="M85.2,124.9c-0.1,0.4,0.1,0.7,0.3,1c0.2,0.2,0.4,0.3,0.7,0.3c0.7,0,1.4-0.6,1.6-1.3c0.1-0.5-0.1-0.8-0.4-1
			c-0.2-0.2-0.4-0.2-0.6-0.2C86,123.6,85.3,124.2,85.2,124.9z M83.8,133.6c0.5-0.2,0.7-0.7,0.4-1.6l0,0c0,0-2.2-0.2-2.5-0.5
			c-0.2-0.2-1.3,0.6-0.2,1.7c0.2,0.2,0.4,0.3,0.6,0.5C82.2,133.7,83.2,133.9,83.8,133.6z M101.2,109.5c-1.1,0.2-0.6,2.2-2.3,4.8
			c-0.9,1.3-1.7,1.8-2.1,1.8s-0.8-0.3-0.8-0.6c-0.1-0.9-0.2-1.6-0.7-1.7c0,0,0,0-0.1,0l0,0c-0.2,0-0.3,0-0.6,0.1
			c-0.9,0.4-0.8,2.9-1.3,4c-0.6,1.2-1.8,1.6-3.4,1.8c-5.2,0.3-5.6,2.1-5.9,3.3c-0.3,1.3-1.5,1.3-2,1s-2.3-2-3.2-0.4
			c-1,1.5-0.4,2.9-1.1,4c-0.6,1-0.8,1.5-0.5,1.8c0.1,0.1,0.1,0.1,0.2,0.1c0.5,0.2,0.7,0.2,1,0.9c0,0.2,0.1,0.2,0.1,0.5
			c0.1,0.3,0.2,0.6,0.3,0.7c0.4,0.6,1,0.5,1.2-0.6c0.2-1.3,1-1.7,3.9-1.5c1,0.1,1.5,0.5,1.8,1.1c0.7,1.3,0.3,3.4-0.2,4.1
			c-0.7,1-4.6,0.8-6.1,0.6c-1.5-0.2-1.5,1.8-1.6,2.4c-0.1,0.4,0.6,2,1.6,2.8c0.2,0.2,0.4,0.2,0.6,0.3c1.4,0.4,1.2-0.8,2.1-1.7
			c0.9-0.9,6.3,0.1,7.1,0.2l2.2-10.7c0.4-1.8,1-3.6,1.7-5.4c-1.6,1.4-3.8,1.3-3.8,1.3c0,0.2,0,0.3-0.1,0.5c-0.3,1.7-1.9,2.9-3.6,2.9
			c-0.5,0-0.9-0.1-1.3-0.3c-0.4-0.2-0.7-0.6-1-1c-0.2-0.2-0.2-0.6-0.2-0.9c0-0.2,0-0.5,0.1-0.7c0.3-1.7,1.9-2.9,3.6-2.9
			c0.2,0,0.2,0,0.3,0c1.5,0.5,5,0.6,7.4-1.8c2-3.2,4.7-5.9,7.7-8.1c0.1-1.1-0.2-1.9-0.5-2.3C101.7,109.5,101.5,109.4,101.2,109.5z
			 M140.1,101l0.1-0.6c0-0.3-0.1-0.6-0.2-0.8c-0.3-0.6-1-0.9-1-0.9s-1.3,0.6-1.5,1.7l-0.2,0.6c-4.7,0.1-9.3-0.2-9.7-0.2l-0.9,4.4h8
			c7.8,0,12.3-2.5,14.3-3.8l0.4-2.1c-2.5,0.9-5.5,1.3-8.5,1.6C140.8,101,140.4,101,140.1,101L140.1,101z"/>
		<g>
			<path class="st0" d="M86.2,126.2c-0.2,0-0.6-0.1-0.7-0.3l0,0c0,0,0.9,1.1,1.6,1.1c0.7,0,1.4-0.6,1.6-1.3c0.1-0.5-0.1-0.9-0.5-1.3
				l-0.6-0.6l0,0c0.3,0.2,0.5,0.6,0.4,1C87.6,125.6,86.9,126.2,86.2,126.2L86.2,126.2z M80.7,131.8c0.2-1.3,1-1.7,3.9-1.5
				c0.3,0,0.7,0.1,1,0.3c-0.3-0.6-0.9-1-1.8-1.1c-2.9-0.2-3.6,0.2-3.9,1.5c-0.2,1-0.8,1.1-1.2,0.6C79.3,132.6,80.5,133.1,80.7,131.8
				z"/>
			<path class="st0" d="M84.5,127.5c-0.1-0.1-0.1-0.2-0.2-0.2c-0.2-0.2-0.2-0.6-0.2-0.9c0-0.2,0-0.5,0.1-0.7
				c0.3-1.7,1.9-2.9,3.6-2.9c0.2,0,0.2,0,0.3,0c1.5,0.5,5,0.6,7.4-1.8c2-3.2,4.7-5.9,7.7-8.1c0.1-1.2-0.2-2-0.6-2.4
				c0,0-0.4-0.5-0.7-0.7c0.3,0.4,0.6,1.2,0.5,2.3c-3,2.1-5.6,4.8-7.7,8.1c-2.5,2.5-5.9,2.3-7.4,1.8c-0.1,0-0.2,0-0.3,0
				c-1.7,0-3.2,1.3-3.6,2.9c-0.1,0.2-0.1,0.5-0.1,0.7c0,0.3,0.1,0.6,0.2,0.9C83.7,126.9,84.1,127.3,84.5,127.5z M91.4,128.5
				l-2.2,10.7c-0.9-0.2-6.3-1.1-7.1-0.2c-0.9,1-0.6,2.1-2.1,1.7c-0.2-0.1-0.5-0.2-0.6-0.3c0.4,0.6,0.9,1,1.5,1.1
				c1.4,0.4,1.2-0.8,2.1-1.7c0.9-0.9,6.3,0.1,7.1,0.2l2.2-10.7c0.4-1.8,1-3.6,1.7-5.4l-0.8-0.8C92.4,124.8,91.8,126.6,91.4,128.5
				L91.4,128.5z"/>
			<path class="st0" d="M83.8,133.6c-0.6,0.2-1.6,0.1-1.6,0.1c-0.2-0.2-0.5-0.3-0.6-0.5c0,0,0,0,0,0.1c0.2,0.2,1,1,1.4,1.3
				c0,0,1,0.2,1.6-0.1c0.5-0.2,0.7-0.7,0.4-1.6c0,0-0.4-0.8-0.7-0.8h-0.1C84.5,132.9,84.3,133.4,83.8,133.6z M135.6,106
				c7.8,0,12.3-2.5,14.3-3.8l0.4-2.1l-0.8-0.8l-0.4,2.1c-2,1.4-6.5,3.8-14.3,3.8h-8l0.8,0.8H135.6L135.6,106z M95.9,115.5
				c0,0.3,0.3,0.7,0.8,0.6c-0.1-0.7-0.2-1.2-0.5-1.5c0,0-0.7-0.9-1-1C95.6,113.9,95.9,114.6,95.9,115.5z M140.1,101
				c0.3,0,0.6-0.1,0.9-0.1c-0.1-0.8-0.6-1.1-1-1.3c0.1,0.2,0.2,0.5,0.2,0.8L140.1,101L140.1,101z M98.9,150.2
				c-1.3,6.3-1.1,11.2,2.4,14.3c-2.8-3.1-2.9-7.8-1.6-13.5l4.1-20c2-9.6,11.7-15.4,22.4-15.4H137c6.7,0,12.7-1.3,14.9-4.9l1.5-7.2
				l-0.8-0.8l-1.5,7.2c-2.1,3.6-8.2,4.9-14.9,4.9h-10.8c-10.7,0-20.4,5.8-22.4,15.4L98.9,150.2z"/>
			<path class="st0" d="M104.2,161c1.6,1.9,4.4,3,8.6,3.6l1.3-6.5l-0.8-0.8l-1.3,6.5C108.4,163.3,105.8,162.4,104.2,161z
				 M129.4,125.7h19.5l2.1-10.2l-0.8-0.8l-2.1,10.2h-19.5c-8.6,0-12.8,1.3-14.7,10.5l-2.7,13.2c-1,4.4-1.2,6.7,0.6,8
				c-1-1.3-0.6-3.6,0.2-7.1l2.7-13.2C116.6,126.9,120.8,125.7,129.4,125.7L129.4,125.7z M77.4,129.5c-0.1,0-0.1-0.1-0.2-0.1
				c0.1,0.2,0.8,0.8,1,1l0.2,0.1C78.1,129.6,77.9,129.7,77.4,129.5z M127.5,164.4l0.8,0.8h3.6c4.1,0,7.3,1.8,9.6,4
				c-2.5-2.5-5.9-4.8-10.5-4.8H127.5L127.5,164.4z M132.4,145.4h11.5l0.2-0.8h-12.4L132.4,145.4z M156.8,143.9l0.8,0.8
				c3.2-0.2,6-1.6,8.4-3.7l-0.8-0.8C162.7,142.3,159.9,143.7,156.8,143.9z M156,138.3c-2.1,4-3.8,8.6-4.8,13.1l-5.1,25l0.8,0.8
				l5.1-25c1-4.6,2.6-9.1,4.8-13.1L156,138.3L156,138.3z M167.3,138h-7.4l0.8,0.8h7.4c1.2-1.3,2.3-2.9,3.3-4.4l-0.8-0.8
				C169.7,135.2,168.6,136.7,167.3,138z"/>
			<path class="st0" d="M175.6,122.2c-0.6,3.1-1.8,6.6-2.9,7.8c-0.8,1-3.5,2.1-5.9,2.1c-0.6,0-1,0.1-1.3,0.2c1.4-2.2,2-4,2.1-5.1
				c-0.3,0.1-0.6,0.2-1,0.2c-0.8,4-4.4,7.6-6.7,9.3c0,0,0,0-0.1,0.1v1.2c1.7-1.3,3.1-2.5,4.1-3.8h0.2c0.5-0.6,1.8-1.3,3.3-1.3
				c2.4,0,5.1-1.1,5.9-2.1c1.1-1.3,2.2-4.8,2.9-7.8C176.4,123.1,175.6,122.3,175.6,122.2z M126,154.5l-3.9,19.1
				c-0.8,3.6,1,6.1,2.5,7.6c-1.3-1.5-2.4-3.7-1.7-6.7l3.9-19.1h12.4l1.3-6.3l-0.8-0.8l-1.3,6.3L126,154.5L126,154.5z M156.4,134.7
				h-26.2l-2.8,13.5h1l2.6-12.6h27.8c0.6,0,1,0.1,1.2,0.3C159.7,134.9,158.4,134.7,156.4,134.7L156.4,134.7z M112,168.7l-0.8-0.8
				l-1.3,6.3c-6.8-0.4-11.8-2.5-15.1-5.5c3.3,3.6,8.6,5.9,16,6.4L112,168.7L112,168.7z M108.9,182.8l0.8,0.8h18.2l-0.8-0.8H108.9z"
				/>
			<path class="st0" d="M138.4,171.3c1.3,1.5,2,2.9,2,2.9h-14.8l0.8,0.8h14.8C141.2,175,140.3,173,138.4,171.3L138.4,171.3z"/>
		</g>
		
			<linearGradient id="SVGID_13_" gradientUnits="userSpaceOnUse" x1="123.1376" y1="126.2522" x2="170.5701" y2="196.2715" gradientTransform="matrix(0.8682 0 0 0.8682 0.1318 1.8646)">
			<stop  offset="0.1648" style="stop-color:#FFFFFF"/>
			<stop  offset="0.456" style="stop-color:#FFFFFF"/>
			<stop  offset="1" style="stop-color:#94CEF1"/>
		</linearGradient>
		<path class="st16" d="M157.7,128.4H119c0.4,0.2,0.6,0.6,1,0.8c0.1,0.1,0.2,0.2,0.3,0.4c2,2.4,1.3,5.4,0.6,8.5l-7.7,37l0,0
			c-1,4.8-4.3,7.8-4.3,7.8h18.2c0,0-1.2-0.5-2.5-1.6c-1.7-1.4-3.3-3.9-2.5-7.6l3.9-19.1h12.4l1.3-6.3h-12.4l2.8-13.5h26.2
			c2.1,0,3.4,0.2,3.6,1.1c0.1,0.2,0.1,0.6,0,1l0,0c2.2-1.7,5.9-5.5,6.7-9.3C164.4,128,161.4,128.4,157.7,128.4L157.7,128.4z
			 M111.2,167.8c-4.7-0.3-7.8-1.5-9.9-3.2c-3.6-3.1-3.7-8.2-2.4-14.3l4.1-20c2-9.6,11.7-15.4,22.4-15.4h10.8
			c6.7,0,12.7-1.3,14.9-4.9l1.5-7.2c0,0-5.3,5.8-17.7,5.8h-12.3c-10.1,0-25,6.7-27.9,20.5l-4.7,21.4c-1.7,7.2-0.2,13.7,4.5,18.1
			c3.3,3.1,8.4,5.1,15.1,5.5C109.9,174.2,111.2,167.8,111.2,167.8z M113.8,135.3c1.9-9.3,6.1-10.5,14.7-10.5H148l2.1-10.2
			c0,0-2.9,3.9-13.5,3.9H127c-9.3,0-18.8,2.5-21.2,14.4l-3.3,16c-1.3,6-1.1,9.8,1.7,12.1c1.7,1.4,4.2,2.2,7.8,2.8l1.3-6.5
			c-0.6-0.2-1.2-0.4-1.6-0.7c-1.9-1.3-1.6-3.6-0.6-8L113.8,135.3L113.8,135.3z M131.1,168h-4.4l-1.3,6.3h14.8c0,0-0.6-1.4-2-2.9
			C136.9,169.6,134.5,168,131.1,168L131.1,168z M131.6,144.6H144l-0.2,0.8l-2.6,12.6h-12.4l-1.3,6.3h3.6c4.6,0,8,2.3,10.5,4.8
			c3.2,3.3,4.6,7.2,4.6,7.2l5.1-25c1-4.6,2.6-9.1,4.8-13.1h-23.1L131.6,144.6L131.6,144.6z"/>
		<path class="st0" d="M176.9,117c0,0-1.6,7.8-13.7,7.8H151l0.8,0.8H164c12.1,0,13.7-7.8,13.7-7.8L176.9,117L176.9,117z"/>
		
			<linearGradient id="SVGID_14_" gradientUnits="userSpaceOnUse" x1="181.4416" y1="130.6205" x2="200.8038" y2="148.3694" gradientTransform="matrix(0.8682 0 0 0.8682 0.1318 1.8646)">
			<stop  offset="0.2637" style="stop-color:#FFD200"/>
			<stop  offset="1" style="stop-color:#F5821F"/>
		</linearGradient>
		<path class="st17" d="M173.5,117c-1.5,5.4-4.4,6.6-11,4c-5.4-2.1-10.3-2.5-10.3-2.5l-1.3,6.4h12.2c12.1,0,13.7-7.8,13.7-7.8
			L173.5,117L173.5,117z"/>
		
			<linearGradient id="SVGID_15_" gradientUnits="userSpaceOnUse" x1="175.7044" y1="136.8838" x2="195.0633" y2="154.6296" gradientTransform="matrix(0.8682 0 0 0.8682 0.1318 1.8646)">
			<stop  offset="0.2637" style="stop-color:#FFD200"/>
			<stop  offset="1" style="stop-color:#F5821F"/>
		</linearGradient>
		<path class="st18" d="M156.8,143.9c3.2-0.2,6-1.6,8.4-3.7h-6.6C157.9,141.4,157.2,142.5,156.8,143.9z M167.6,127.2
			c-0.2,1.1-0.7,3-2.1,5.1c0.4-0.2,0.8-0.2,1.3-0.2c2.4,0,5.1-1.1,5.9-2.1c1.1-1.3,2.2-4.8,2.9-7.8
			C173.9,123.9,171.9,125.9,167.6,127.2z M164,134.2c-1,1.2-2.4,2.5-4.1,3.8h7.4c1.2-1.3,2.3-2.9,3.3-4.4c-1.2,0.4-2.4,0.6-3.6,0.6
			H164L164,134.2z"/>
		<path class="st0" d="M181,176.5c-4.4-3.5-12.9-3.9-16.4-3.9c-2.7,0-5.2,0.2-6.6,0.6c-2.4,0.6-3.9,1.8-4.6,4.2l-2.1,5.9
			c-4.9-1-11.7-1.9-26.4-1.9l0,0l0,0c-14.7,0-21.5,1-26.4,1.9l-2.1-5.9c-0.7-2.4-2.1-3.6-4.6-4.2c-1.3-0.3-3.9-0.6-6.6-0.6
			c-3.5,0-12,0.4-16.4,3.9c0,0-2.7,1.7-2,3.6l4.3,10.8c0.1,0.2,1.5,3.4,5.5,3.4c0.6,0,1.3-0.1,1.9-0.2c3.6-1,5.9-2.8,5.9-2.9l1-0.9
			l-1-0.9c-0.8-0.7-1.7-1.3-2.5-2c1.2,0,2.3,0.3,3.3,0.9l0.9,0.5l0.9,2.3l0,0l1.4,3.8l0.1,0.2l0.1,0.3l0,0l0.4,1.1l0.1,0.2l0.2,0.2
			c0.1,0.2,2.6,3,6.8,3c0.7,0,1.4-0.1,2.1-0.2c4.9-1.1,15.4-2.3,26.8-2.3s21.9,1.2,26.8,2.3c0.7,0.2,1.4,0.2,2.1,0.2
			c4.2,0,6.7-2.9,6.8-3l0.2-0.2l0.1-0.2l0.4-1.1l0,0l0.1-0.3l0.1-0.2l1.4-3.8l0,0l0.9-2.3l0.9-0.5c1-0.6,2.1-0.8,3.3-0.9
			c-0.9,0.6-1.8,1.3-2.5,2l-1,0.9l1,0.9c0.1,0.1,2.3,1.9,5.9,2.9c0.6,0.2,1.3,0.2,1.9,0.2c3.9,0,5.4-3.2,5.5-3.4l4-10.8
			C183.7,178.3,181,176.5,181,176.5L181,176.5z"/>
		
			<linearGradient id="SVGID_16_" gradientUnits="userSpaceOnUse" x1="78.6311" y1="211.8536" x2="96.1596" y2="211.8536" gradientTransform="matrix(0.8682 0 0 0.8682 0.1318 1.8646)">
			<stop  offset="0" style="stop-color:#F36D20"/>
			<stop  offset="0.2308" style="stop-color:#FFD200"/>
			<stop  offset="0.4945" style="stop-color:#FAA21A"/>
			<stop  offset="0.7967" style="stop-color:#FFD200"/>
			<stop  offset="1" style="stop-color:#F15D21"/>
		</linearGradient>
		<path class="st19" d="M77.6,186.4c2.5-2.8,0.9-7.8,0.9-7.8s-0.6,1.3-4.8,2.5c-4.2,1.1-5.2-0.7-5.2-0.7L69,182
			c2.3,0.7,4,0.4,4.9,0.2c1.7-0.5,2.9-1,3.8-1.4c0.2,1.6,0.1,3.6-1,4.8l-1,1.1l1.3,0.7c0,0,2.5,1.3,4.6,2.9
			c-0.9,0.5-2.1,1.1-3.7,1.5c-0.4,0.1-0.9,0.2-1.3,0.2c-1.9,0-3.5-1-4.5-2l0.2,0.4c0,0,1.6,3.6,5.9,2.5c3.4-0.9,5.5-2.6,5.5-2.6
			C81.4,188.3,77.6,186.4,77.6,186.4L77.6,186.4z"/>
		<path class="st0" d="M77.9,191.8c1.6-0.4,2.9-1,3.7-1.5c-2.1-1.5-4.5-2.9-4.6-2.9l-1.3-0.7l1-1.1c1.1-1.3,1.2-3.3,1-4.8
			c-0.9,0.5-2.1,1-3.8,1.4c-1,0.2-2.6,0.6-4.9-0.2l3,8c1,1,2.6,2,4.5,2C77,192,77.4,191.9,77.9,191.8z"/>
		
			<linearGradient id="SVGID_17_" gradientUnits="userSpaceOnUse" x1="178.5473" y1="201.4788" x2="208.6754" y2="201.4788" gradientTransform="matrix(0.8682 0 0 0.8682 0.1318 1.8646)">
			<stop  offset="0" style="stop-color:#F36D20"/>
			<stop  offset="0.2308" style="stop-color:#FFD200"/>
			<stop  offset="0.4945" style="stop-color:#FAA21A"/>
			<stop  offset="0.7967" style="stop-color:#FFD200"/>
			<stop  offset="1" style="stop-color:#F15D21"/>
		</linearGradient>
		<path class="st20" d="M170.5,175.4c-1.8-0.2-3.8-0.4-5.9-0.4c-2.9,0-5.1,0.2-5.9,0.5c-2.1,0.6-2.9,1.7-3.3,2.5
			c-0.1-0.2-0.1-0.3-0.2-0.5c0,0-0.2-2.2,3.2-3.1c3-0.7,16.4-1.3,21.9,3.1c0.4,0.3,0.8,0.7,1.1,1.2c-0.2,0.4-0.4,0.7-0.7,1
			c0,0-0.1,0.1-0.2,0.1C179,176.8,173.6,176,170.5,175.4z"/>
		
			<linearGradient id="SVGID_18_" gradientUnits="userSpaceOnUse" x1="189.0626" y1="212.3686" x2="196.4503" y2="212.3686" gradientTransform="matrix(0.8682 0 0 0.8682 0.1318 1.8646)">
			<stop  offset="0" style="stop-color:#F36D20"/>
			<stop  offset="0.2308" style="stop-color:#FFD200"/>
			<stop  offset="0.4945" style="stop-color:#FAA21A"/>
			<stop  offset="0.7967" style="stop-color:#FFD200"/>
			<stop  offset="1" style="stop-color:#F15D21"/>
		</linearGradient>
		<path class="st21" d="M170.4,185.3c0.1,0.2,0.2,0.5,0.3,0.6c-0.2,0.2-0.6,0.3-0.8,0.5c-1.7-0.2-3.6-0.1-5.6,0.9l0.5-1.3l0.1-0.2
			C167,185.2,168.9,185.1,170.4,185.3z"/>
		<path class="st0" d="M158.6,175.5c0.9-0.2,3.2-0.5,5.9-0.5c2.1,0,4.1,0.2,5.9,0.4c3.1,0.6,8.6,1.4,10,4.4
			c-0.2,0.2-0.7,0.4-1.7,0.4c-0.6,0-1.3-0.1-2.1-0.3c-3.4-0.9-4.1-1.8-4.1-1.9c-0.6-0.6-1.3-1.6-1.3-1.6s-0.6,0.8-0.8,1.8
			c-0.1,0.2-1.2,4,0,7c-1.5-0.2-3.4-0.1-5.5,0.5l0.6-1.9c0,0,0.6-3.9-3.3-4.1c-3.3-0.2-5.4,0.6-6.5-1c-0.2-0.2-0.2-0.5-0.4-0.8
			C155.6,177.2,156.5,176,158.6,175.5L158.6,175.5z"/>
		
			<linearGradient id="SVGID_19_" gradientUnits="userSpaceOnUse" x1="191.491" y1="211.8536" x2="209.0229" y2="211.8536" gradientTransform="matrix(0.8682 0 0 0.8682 0.1318 1.8646)">
			<stop  offset="0" style="stop-color:#F36D20"/>
			<stop  offset="0.2308" style="stop-color:#FFD200"/>
			<stop  offset="0.4945" style="stop-color:#FAA21A"/>
			<stop  offset="0.7967" style="stop-color:#FFD200"/>
			<stop  offset="1" style="stop-color:#F15D21"/>
		</linearGradient>
		<path class="st22" d="M172.4,186.4c-2.5-2.8-0.9-7.8-0.9-7.8s0.6,1.3,4.8,2.5c4.2,1.1,5.2-0.7,5.2-0.7l-0.6,1.7
			c-2.3,0.7-4,0.4-4.9,0.2c-1.7-0.5-2.9-1-3.8-1.4c-0.2,1.6-0.2,3.6,1,4.8l1,1.1l-1.3,0.7c0,0-2.5,1.3-4.6,2.9
			c1.2,0.7,2.5,1.2,3.7,1.5c0.5,0.1,0.9,0.2,1.3,0.2c1.9,0,3.5-1,4.5-2l-0.2,0.4c0,0-1.6,3.6-5.9,2.5c-3.4-0.9-5.5-2.6-5.5-2.6
			C168.6,188.3,172.4,186.4,172.4,186.4L172.4,186.4z"/>
		<path class="st0" d="M172.1,191.8c-1.3-0.3-2.6-0.9-3.7-1.5c2.1-1.5,4.5-2.9,4.6-2.9l1.3-0.7l-1-1.1c-1.1-1.3-1.2-3.3-1-4.8
			c0.9,0.5,2.1,1,3.8,1.4c1,0.2,2.6,0.6,4.9-0.2l-3,8c-1,1-2.6,2-4.5,2C173,192,172.6,191.9,172.1,191.8z M159.2,187.1
			c-1.3,0-2.9-0.2-5.5-0.7l-0.6-0.2c-5.3-1.1-11.2-2.3-28.2-2.3s-23,1.2-28.2,2.3l-0.6,0.2c-2.5,0.5-4.1,0.7-5.5,0.7
			c-0.8,0-3-0.2-4.4-0.9l3.2,8.5c1.3,1,3.6,2.5,6.4,2.5c0.5,0,1-0.1,1.5-0.2c5-1.1,15.8-2.4,27.5-2.4s22.4,1.3,27.5,2.4
			c0.5,0.1,1,0.2,1.5,0.2c2.8,0,5.1-1.6,6.5-2.5l3.2-8.5C162.2,186.9,160.1,187.1,159.2,187.1L159.2,187.1z"/>
		<g>
			<path class="st23" d="M100.5,193.6c-0.2,0.2-0.8,0.3-1.3,0.4c-0.7,0.1-1.3,0-1.8-0.3c-0.6-0.4-1.1-1.3-1.3-2.4
				c-0.3-2.3,0.9-3.4,2.2-3.6c0.5-0.1,0.9,0,1.1,0l-0.1,1.1c-0.2-0.1-0.5-0.1-0.8,0c-0.9,0.2-1.4,0.8-1.2,2.5c0.2,1.5,1,2,1.5,1.8
				c0.1,0,0.2-0.1,0.2-0.1l-0.2-1.5l-0.6,0.1l-0.2-1l1.7-0.2L100.5,193.6L100.5,193.6z M102.4,193.5l-0.3-2.4l-1.9-3.7l1.3-0.2
				l0.6,1.4c0.2,0.4,0.3,0.9,0.5,1.3l0,0c0-0.5,0.1-1,0.2-1.4l0.2-1.5l1.3-0.2l-1,4l0.3,2.5L102.4,193.5L102.4,193.5z M108.3,190.2
				l-1.5,0.2l0.2,1.7l1.7-0.2l0.1,1l-2.9,0.2l-0.6-6.3l2.9-0.2l0.1,1l-1.6,0.2l0.2,1.4l1.5-0.2L108.3,190.2z M113.4,189.3
				c0.2,2.4-0.6,3.4-1.9,3.5c-1.5,0.1-2.1-1.3-2.3-3.1c-0.1-1.7,0.5-3.2,1.9-3.3C112.8,186.3,113.4,187.9,113.4,189.3z M110.6,189.7
				c0.1,1.4,0.4,2.1,1,2.1c0.6,0,0.6-1,0.6-2.3c-0.1-1.1-0.3-2.1-0.9-2.1C110.7,187.4,110.5,188.3,110.6,189.7z M114.7,192.5
				l-0.2-6.3l1.2-0.1l1.1,2.5c0.2,0.5,0.6,1.3,0.8,1.8l0,0c-0.1-0.6-0.2-1.7-0.2-2.9l-0.1-1.4h1.1l0.2,6.3l-1.2,0.1l-1.1-2.4
				c-0.2-0.6-0.6-1.3-0.7-1.9l0,0c0.1,0.6,0.2,1.6,0.2,2.9l0.1,1.4L114.7,192.5L114.7,192.5z M123.6,192.1c-0.3,0.1-0.9,0.2-1.3,0.2
				c-0.7,0-1.3-0.2-1.7-0.6c-0.6-0.6-0.9-1.4-0.9-2.5c0-2.3,1.3-3.2,2.7-3.3c0.5,0,0.9,0.1,1,0.2l-0.2,1c-0.2-0.1-0.4-0.2-0.7-0.2
				c-0.9,0-1.5,0.6-1.5,2.2c0,1.5,0.6,2.1,1.2,2.1c0.1,0,0.2,0,0.2,0v-1.5h-0.6v-1h1.7L123.6,192.1L123.6,192.1z M124.7,192.4
				l0.1-6.3h1.2l1,2.5c0.2,0.5,0.5,1.3,0.7,1.8l0,0c0-0.6-0.1-1.7-0.1-2.9v-1.4h1.1l-0.1,6.3h-1.2l-1-2.4c-0.2-0.6-0.5-1.3-0.6-1.9
				l0,0c0,0.6,0.1,1.6,0.1,2.9v1.4L124.7,192.4L124.7,192.4z M131,190.9l-0.3,1.4h-1.2l1.6-6.3l1.5,0.1l1,6.3h-1.2l-0.2-1.4
				L131,190.9L131,190.9z M132.1,190.1l-0.2-1.3c-0.1-0.4-0.2-1-0.2-1.4l0,0c-0.1,0.4-0.2,1.1-0.2,1.4l-0.3,1.3L132.1,190.1
				L132.1,190.1z M138.7,190.5c0-0.6,0-1.4,0.1-2.1l0,0c-0.2,0.6-0.3,1.3-0.6,1.9l-0.7,2.2l-0.9-0.1l-0.4-2.2
				c-0.1-0.5-0.2-1.3-0.2-2l0,0c-0.1,0.7-0.2,1.4-0.2,2.1l-0.2,2.2l-1.1-0.1l0.9-6.3l1.3,0.1l0.4,2.3c0.2,0.8,0.2,1.5,0.3,2.2l0,0
				c0.2-0.7,0.3-1.4,0.6-2.2l0.6-2.2l1.3,0.1v6.3l-1.1-0.1L138.7,190.5L138.7,190.5z M143.5,186.8l2.9,0.3l-0.1,1l-1.6-0.2l-0.2,1.6
				l1.4,0.2l-0.1,1l-1.4-0.2l-0.2,2.6l-1.3-0.2L143.5,186.8z M146.6,193.5c-0.4-0.1-0.7-0.4-0.6-0.9s0.5-0.8,0.9-0.7
				c0.4,0.1,0.7,0.4,0.6,0.9C147.4,193.3,147,193.6,146.6,193.5L146.6,193.5z M151.5,194c-0.2,0.1-0.6,0.1-1,0
				c-1.7-0.2-2.2-1.7-2-3.4c0.3-2.4,1.8-3.1,3.1-2.9c0.5,0.1,0.7,0.2,0.9,0.3l-0.4,1c-0.2-0.1-0.3-0.2-0.6-0.2
				c-0.7-0.1-1.4,0.4-1.7,2c-0.2,1.5,0.2,2.1,1,2.3c0.2,0,0.4,0,0.6,0V194L151.5,194z M153,194.5c-0.4-0.1-0.6-0.4-0.6-1
				c0.1-0.5,0.5-0.7,0.9-0.7c0.4,0.1,0.6,0.4,0.6,1C153.8,194.3,153.5,194.6,153,194.5L153,194.5L153,194.5z"/>
		</g>
		
			<linearGradient id="SVGID_20_" gradientUnits="userSpaceOnUse" x1="98.4032" y1="210.7884" x2="189.0626" y2="210.7884" gradientTransform="matrix(0.8682 0 0 0.8682 0.1318 1.8646)">
			<stop  offset="0" style="stop-color:#F36D20"/>
			<stop  offset="0.2308" style="stop-color:#FFD200"/>
			<stop  offset="0.4945" style="stop-color:#FAA21A"/>
			<stop  offset="0.7967" style="stop-color:#FFD200"/>
			<stop  offset="1" style="stop-color:#F15D21"/>
		</linearGradient>
		<path class="st24" d="M96.2,186.4l0.6-0.2c5.3-1.1,11.2-2.3,28.2-2.3s23,1.2,28.2,2.3l0.6,0.2c2.5,0.5,4.1,0.7,5.5,0.7
			c0.8,0,3-0.2,4.4-0.9l0.7-1.8c-3.5,1.5-4.9,1.7-10.3,0.6c-5.3-1.1-11.4-2.5-29.1-2.5l0,0l0,0c-17.7,0-23.8,1.3-29.1,2.5
			c-5.3,1.1-6.8,0.9-10.3-0.6l0.7,1.8c1.4,0.7,3.6,0.9,4.4,0.9C92.1,187.1,93.7,186.9,96.2,186.4z"/>
		
			<linearGradient id="SVGID_21_" gradientUnits="userSpaceOnUse" x1="103.0547" y1="224.4581" x2="184.5935" y2="224.4581" gradientTransform="matrix(0.8682 0 0 0.8682 0.1318 1.8646)">
			<stop  offset="0" style="stop-color:#F36D20"/>
			<stop  offset="0.2308" style="stop-color:#FFD200"/>
			<stop  offset="0.4945" style="stop-color:#FAA21A"/>
			<stop  offset="0.7967" style="stop-color:#FFD200"/>
			<stop  offset="1" style="stop-color:#F15D21"/>
		</linearGradient>
		<path class="st25" d="M152.5,197.1c-5-1.1-15.8-2.4-27.5-2.4s-22.4,1.3-27.5,2.4c-0.5,0.1-1,0.2-1.5,0.2c-2.8,0-5.1-1.6-6.4-2.5
			l0.6,1.4c0,0,3,3.5,7.8,2.4c4.8-1.1,15.3-2.4,27.1-2.4s22.3,1.3,27.1,2.4c4.8,1.1,7.8-2.4,7.8-2.4l0.6-1.4c-1.3,1-3.6,2.5-6.5,2.5
			C153.4,197.3,153,197.2,152.5,197.1L152.5,197.1z"/>
		<path class="st0" d="M88.3,182.2c-1.4-0.1-1.3,1-1.2,1.5c3.9,1.7,10.1-0.5,10.1-0.5l-1-2.9C95.1,182.8,90.1,182.3,88.3,182.2z"/>
		
			<linearGradient id="SVGID_22_" gradientUnits="userSpaceOnUse" x1="98.5761" y1="206.5473" x2="110.7199" y2="206.5473" gradientTransform="matrix(0.8682 0 0 0.8682 0.1318 1.8646)">
			<stop  offset="0" style="stop-color:#F36D20"/>
			<stop  offset="0.2308" style="stop-color:#FFD200"/>
			<stop  offset="0.4945" style="stop-color:#FAA21A"/>
			<stop  offset="0.7967" style="stop-color:#FFD200"/>
			<stop  offset="1" style="stop-color:#F15D21"/>
		</linearGradient>
		<path class="st26" d="M88.3,182.2c1.7,0.1,6.7,0.6,7.9-1.7l-0.7-1.9c0,0,0,2.7-5.2,2.3c-5.2-0.5-4.6,2.1-4.6,2.1
			c0.4,0.4,0.9,0.7,1.4,0.9C87,183.2,86.9,182.1,88.3,182.2L88.3,182.2z"/>
		
			<linearGradient id="SVGID_23_" gradientUnits="userSpaceOnUse" x1="176.9321" y1="206.4105" x2="189.0748" y2="206.4105" gradientTransform="matrix(0.8682 0 0 0.8682 0.1318 1.8646)">
			<stop  offset="0" style="stop-color:#F36D20"/>
			<stop  offset="0.2308" style="stop-color:#FFD200"/>
			<stop  offset="0.4945" style="stop-color:#FAA21A"/>
			<stop  offset="0.7967" style="stop-color:#FFD200"/>
			<stop  offset="1" style="stop-color:#F15D21"/>
		</linearGradient>
		<path class="st27" d="M159.7,180.8c-5.2,0.5-5.2-2.3-5.2-2.3l-0.7,1.9c1.1,2.3,6.2,1.9,7.9,1.7c1.4-0.1,1.3,1,1.2,1.5
			c0.5-0.2,1-0.6,1.4-0.9C164.3,182.9,165,180.4,159.7,180.8L159.7,180.8z"/>
		<path class="st0" d="M161.7,182.2c-1.7,0.1-6.7,0.6-7.9-1.7l-1,2.9c0,0,6.3,2.2,10.1,0.5C163,183.2,163.1,182.1,161.7,182.2z"/>
		
			<linearGradient id="SVGID_24_" gradientUnits="userSpaceOnUse" x1="78.9761" y1="201.4788" x2="109.1027" y2="201.4788" gradientTransform="matrix(0.8682 0 0 0.8682 0.1318 1.8646)">
			<stop  offset="0" style="stop-color:#F36D20"/>
			<stop  offset="0.2308" style="stop-color:#FFD200"/>
			<stop  offset="0.4945" style="stop-color:#FAA21A"/>
			<stop  offset="0.7967" style="stop-color:#FFD200"/>
			<stop  offset="1" style="stop-color:#F15D21"/>
		</linearGradient>
		<path class="st28" d="M79.5,175.4c1.8-0.2,3.8-0.4,5.9-0.4c2.9,0,5.1,0.2,5.9,0.5c2.1,0.6,2.9,1.7,3.3,2.5
			c0.1-0.2,0.1-0.3,0.2-0.5c0,0,0.2-2.2-3.2-3.1c-3-0.7-16.4-1.3-21.9,3.1c-0.4,0.3-0.8,0.7-1.1,1.2c0.2,0.4,0.4,0.7,0.7,1
			c0,0,0.1,0.1,0.2,0.1C71,176.8,76.5,176,79.5,175.4z"/>
		
			<linearGradient id="SVGID_25_" gradientUnits="userSpaceOnUse" x1="91.2058" y1="212.3686" x2="98.5935" y2="212.3686" gradientTransform="matrix(0.8682 0 0 0.8682 0.1318 1.8646)">
			<stop  offset="0" style="stop-color:#F36D20"/>
			<stop  offset="0.2308" style="stop-color:#FFD200"/>
			<stop  offset="0.4945" style="stop-color:#FAA21A"/>
			<stop  offset="0.7967" style="stop-color:#FFD200"/>
			<stop  offset="1" style="stop-color:#F15D21"/>
		</linearGradient>
		<path class="st29" d="M79.6,185.3c-0.1,0.2-0.2,0.5-0.3,0.6c0.2,0.2,0.6,0.3,0.8,0.5c1.7-0.2,3.6-0.1,5.6,0.9l-0.5-1.3l-0.1-0.2
			C83,185.2,81.1,185.1,79.6,185.3z"/>
		<path class="st0" d="M91.3,175.5c-0.9-0.2-3.1-0.5-5.9-0.5c-2.1,0-4.1,0.2-5.9,0.4c-3.1,0.6-8.6,1.4-10,4.4
			c0.2,0.2,0.7,0.4,1.7,0.4c0.6,0,1.3-0.1,2.1-0.3c3.4-0.9,4.1-1.8,4.1-1.9c0.6-0.6,1.3-1.6,1.3-1.6s0.6,0.8,0.8,1.8
			c0.1,0.2,1.2,4,0,7c1.5-0.2,3.4-0.1,5.5,0.5l-0.6-1.9c0,0-0.6-3.9,3.3-4.1c3.3-0.2,5.4,0.6,6.5-1c0.2-0.2,0.2-0.5,0.4-0.8
			C94.4,177.2,93.5,176,91.3,175.5z"/>
		<path d="M166.8,198.7L166.8,198.7c0.3-0.2,0.6-0.4,0.6-0.9c0-0.3-0.1-0.6-0.3-0.7s-0.6-0.2-1-0.2c-0.3,0-0.7,0-1,0.1v3.3h0.6v-1.4
			h0.3c0.3,0,0.6,0.2,0.6,0.6c0.1,0.4,0.2,0.7,0.2,0.8h0.6c-0.1-0.2-0.2-0.6-0.2-1C167.2,199,167.1,198.8,166.8,198.7L166.8,198.7z
			 M166.2,198.5h-0.4v-1.1c0.1,0,0.2,0,0.4,0c0.4,0,0.6,0.2,0.6,0.6C166.8,198.2,166.6,198.5,166.2,198.5z M166.3,195.8
			c-1.6,0-2.8,1.3-2.8,2.9l0,0c0,1.6,1.3,2.8,2.8,2.8c1.5,0,2.8-1.3,2.8-2.8C169.1,197.1,167.8,195.8,166.3,195.8z M166.3,201.1
			c-1.3,0-2.5-1.1-2.5-2.5c0-1.3,1.1-2.5,2.5-2.5c1.3,0,2.5,1.1,2.5,2.5C168.7,200,167.6,201.1,166.3,201.1z"/>
	</g>
</g>
<g id="레이어_1">
	<rect x="8" y="8" class="st30" width="234" height="234"/>
</g>
<g id="_레이어_1">
</g>
<rect x="8" y="34.8" class="st30" width="234" height="180.4"/>
</svg>
