<?xml version="1.0" encoding="utf-8"?>
<!-- Generator: Adobe Illustrator 25.1.0, SVG Export Plug-In . SVG Version: 6.00 Build 0)  -->
<svg version="1.1" id="Layer_1" xmlns="http://www.w3.org/2000/svg" xmlns:xlink="http://www.w3.org/1999/xlink" x="0px" y="0px"
	 viewBox="0 0 250 250" style="enable-background:new 0 0 250 250;" xml:space="preserve">
<style type="text/css">
	.st0{fill:#FFFFFF;}
	.st1{fill:#002856;}
	.st2{fill:#E74E0F;}
	.st3{fill:none;}
</style>
<g id="Layer_1_1_">
	<g>
		<g>
			<path class="st0" d="M190.2,158.8c0,2.2-1.1,4.2-2.9,5.5c-3.2,2.2-4.2,2.8-4.5,3l-5.6,3.8v0.3c0,5.3-2.6,10.3-7,13.3L125,215.2
				l-45.2-30.5c-4.4-2.9-7-7.9-7-13.3v-0.3l-5.6-3.8l0,0c-0.3-0.2-1.3-0.8-4.5-3c-1.9-1.2-2.9-3.3-2.9-5.5V47.3
				c0-2.2,1.1-4.2,2.9-5.5l4.5-3l5.8-4l2.1,2.9h99.8l2.1-2.9l5.9,3.9l4.5,3c1.9,1.2,2.9,3.3,2.9,5.5V158.8z"/>
		</g>
		<g>
			<path class="st1" d="M128.6,61.9h9.7v-3.2H132v-5.7h5.4v-3.2H132v-5.7h6.4V41h-9.7L128.6,61.9L128.6,61.9z"/>
		</g>
		<g>
			<path class="st1" d="M158.7,51.1l-3-9.7l-0.1-0.4h-3.2v20.8h3.3V51.8l3.2,10.1h3.2V41h-3.4L158.7,51.1L158.7,51.1z"/>
		</g>
		<path class="st1" d="M111.4,49.9h-3v-5.7h3V49.9z M113.9,41.9c-0.5-0.5-1.2-0.8-2.1-0.8h-4.1c-0.8,0-1.5,0.2-2,0.8
			c-0.5,0.5-0.8,1.2-0.8,1.9v18.2h3.3v-8.9h3.1v8.9h3.3V43.7C114.7,43,114.4,42.4,113.9,41.9L113.9,41.9z"/>
		<g>
			<path class="st1" d="M125.7,51.5c-0.5-0.5-1.1-0.8-1.9-1l-3.5-1.1c-0.1,0-0.2-0.1-0.2-0.2c-0.1-0.2-0.2-0.3-0.2-0.4v-4.6h3V47
				h3.3v-3.4c0-0.8-0.3-1.4-0.8-1.9l0,0c-0.5-0.5-1.2-0.8-1.9-0.8h-4.1c-0.8,0-1.4,0.2-1.9,0.8c-0.5,0.5-0.8,1.2-0.8,1.9v5.9
				c0,0.7,0.2,1.3,0.8,1.9l0,0c0.5,0.5,1.1,0.8,1.9,1.1l3.5,1.1c0.1,0,0.2,0.1,0.2,0.2c0.1,0.2,0.1,0.2,0.1,0.3v4.7h-3v-2.9h-3.3
				v3.4c0,0.7,0.3,1.3,0.8,1.9l0,0c0.5,0.5,1.2,0.7,1.9,0.7h4.1c0.7,0,1.4-0.2,1.9-0.7c0.5-0.5,0.8-1.2,0.8-1.9v-5.9
				C126.5,52.7,126.2,52.1,125.7,51.5L125.7,51.5z"/>
		</g>
		<g>
			<path class="st1" d="M146.9,58.8h-3.2V44.2h3.2V58.8z M149.4,41.9c-0.5-0.5-1.2-0.8-1.9-0.8h-4.2c-0.8,0-1.4,0.2-1.9,0.8
				c-0.5,0.5-0.8,1.1-0.8,1.9v15.6c0,0.7,0.2,1.3,0.8,1.9l0,0c0.5,0.5,1.2,0.8,2,0.8h4.2c0.8,0,1.5-0.3,2-0.8l0,0
				c0.5-0.5,0.8-1.2,0.8-1.9V43.7C150.2,43,149.9,42.3,149.4,41.9"/>
		</g>
		<g>
			<path class="st1" d="M173,41.9c-0.5-0.5-1.2-0.8-2-0.8H167c-0.7,0-1.4,0.2-1.9,0.7l0,0c-0.5,0.5-0.9,1.2-0.8,1.9v15.5
				c0,0.8,0.3,1.5,0.8,2l0,0c0.6,0.5,1.2,0.7,1.9,0.7h4.1c0.8,0,1.4-0.2,2-0.8c0.5-0.5,0.8-1.2,0.8-1.9V50H169v3.2h1.6v5.7h-3.1
				V44.2h3.1v2.9h3.3v-3.4C173.9,43,173.6,42.3,173,41.9"/>
		</g>
		<g>
			<path class="st1" d="M98.4,53.1l-1.5-12V41h-2.8l-1.5,12l-1.5-12V41h-3.5l3.1,20.8h3.5l1.3-9.2l1.3,9.2h3.5l3.1-20.8H100
				L98.4,53.1z"/>
		</g>
		<g>
			<path class="st1" d="M82.5,49.9h-3.1v-8.8h-3.3v20.8h3.3v-8.9h3.1v8.9h3.3V41.1h-3.3V49.9z"/>
		</g>
		<g>
			<path class="st1" d="M125,197.6l-48.9-38v11.9c0,4.2,2.1,8.1,5.6,10.5l43.3,29.3l43.3-29.3c3.5-2.3,5.6-6.2,5.6-10.5v-11.9
				L125,197.6z"/>
		</g>
		<g>
			<path class="st1" d="M125,153.5l18.4,12.4v-7.4L125,146.1l-18.4,12.4v7.4L125,153.5z"/>
		</g>
		<g>
			<path class="st2" d="M134.7,188.4l-2.8,1.9l-2.8,1.9l-2.8,1.9v-3.3l2.8-1.9l2.8-1.9v-6.7l2.8-1.9v6.7l2.8,1.5L134.7,188.4z
				 M123.6,164v10l-2.8-1.9v-8.8l0.9-0.6l1.9-1.3L123.6,164L123.6,164z M123.6,194.1L123.6,194.1l-2.8-1.9l-2.8-1.9l-2.8-1.9
				l-2.8-1.9l2.8-1.5v-6.7l2.8,1.9v6.7l2.8,1.9l2.8,1.9V194.1z M126.4,170.6v-9.2l1.9,1.3l0.9,0.6v8.8l-2.8,1.9L126.4,170.6
				L126.4,170.6z M160.8,97.3h13.1V69.3h-44.6v68.9l14.1,9.6v-22.2h16.3v31.4c0,3-1.5,5.8-3.9,7.4l-12.4,8.4l-4.3,2.9v-3.5l-1.5,1.1
				l-2.8,1.9l-2.5,1.7l-3,2.1v6.6l-2.8,1.9v-10l2.8-1.9l2.8-1.9v-8.4l1.2,0.8l1.5,1v4.6l2.8-1.9l5.9-3.9L125,153.5l-18.4,12.4
				l8.3,5.6l0.4,0.2V167l1.5-1l1.2-0.8v8.4l2.8,1.9l2.8,1.9v10l-2.8-1.9v-6.6l-2.8-1.9l-2.8-1.9l-2.8-1.9l-1.5-1.1v3.5l-4.3-2.9
				l-12.5-8.5c-2.5-1.7-3.9-4.5-3.9-7.4v-31.4h16.3v22.2l14.1-9.6V69.3h-13.1c-0.5,0-1,0.5-1,1v41.1H90.2V70.3c0-0.5-0.5-1-1-1l0,0
				H76.1v93.4c0,4.2,2.1,8.1,5.6,10.5l43.3,29.3l0,0l43.3-29.3c3.5-2.3,5.6-6.2,5.6-10.5v-51.3h-30.5v-28h16.3v13
				C159.8,96.9,160.2,97.3,160.8,97.3L160.8,97.3"/>
		</g>
		<g>
			<path class="st1" d="M186.9,99.9V47.3c0-1.1-0.5-2.1-1.5-2.7l-4.5-3l-0.6-0.5V165l0.6-0.5l4.5-3c0.9-0.6,1.5-1.6,1.5-2.7v-52.6
				l-3.2-3.2L186.9,99.9z"/>
		</g>
		<g>
			<path class="st1" d="M63.1,99.9V47.3c0-1.1,0.5-2.1,1.5-2.7l4.5-3l0.6-0.5V165l-0.6-0.5l-4.5-3c-0.9-0.6-1.5-1.6-1.5-2.7v-52.6
				l3.2-3.2L63.1,99.9z"/>
		</g>
	</g>
</g>
<g id="레이어_1">
	<rect x="8" y="8" class="st3" width="234" height="234"/>
</g>
<g id="_레이어_2">
</g>
<rect x="8" y="34.8" class="st3" width="234" height="180.4"/>
</svg>
