<?xml version="1.0" encoding="utf-8"?>
<!-- Generator: Adobe Illustrator 25.1.0, SVG Export Plug-In . SVG Version: 6.00 Build 0)  -->
<svg version="1.1" xmlns="http://www.w3.org/2000/svg" xmlns:xlink="http://www.w3.org/1999/xlink" x="0px" y="0px"
	 viewBox="0 0 250 250" style="enable-background:new 0 0 250 250;" xml:space="preserve">
<style type="text/css">
	.st0{fill:#FFDB00;}
	.st1{fill:#231916;}
	.st2{clip-path:url(#SVGID_2_);}
	.st3{fill:#00509E;}
	.st4{fill:none;}
</style>
<g id="Layer_1">
	<g>
		<g>
			<path class="st0" d="M209.8,125c0,64.6-38,117-84.8,117c-46.8,0-84.8-52.4-84.8-117S78.2,8,125,8C171.8,8,209.8,60.4,209.8,125"
				/>
		</g>
		<g>
			<path class="st1" d="M200.8,125c0,59.3-33.9,107.3-75.8,107.3S49.2,184.3,49.2,125c0-59.3,33.9-107.3,75.8-107.3
				S200.8,65.7,200.8,125"/>
		</g>
		<g>
			<g>
				<defs>
					<path id="SVGID_1_" d="M49.2,125c0,59.3,33.9,107.3,75.8,107.3c41.9,0,75.8-48.1,75.8-107.3c0-59.3-33.9-107.3-75.8-107.3
						C83.1,17.7,49.2,65.7,49.2,125"/>
				</defs>
				<clipPath id="SVGID_2_">
					<use xlink:href="#SVGID_1_"  style="overflow:visible;"/>
				</clipPath>
				<g transform="matrix(1.613 0 0 -1.613 -146.541 823.007)" class="st2">
					<path class="st3" d="M131.5,364.7h-10.2v136.1h10.2V364.7z M152.5,364.7h-10.2v136.1h10.2V364.7z M173.4,364.7h-10.2v136.1
						h10.2V364.7z M194.4,364.7h-10.2v136.1h10.2V364.7z M215.4,364.7h-10.2v136.1h10.2V364.7z"/>
				</g>
			</g>
			<g>
				<path class="st0" d="M111.6,211.5l-1.6-0.2l0.3-0.5l2-3.2l0.1-0.2c0.5-1,1.2-2.1,1.2-3.2c0-1.8-1.8-2.8-3.5-2.8
					c-1,0-2,0.2-3,0.6l-0.6,2.1c0.7-0.5,1.6-1,2.6-1c0.8,0,1.3,0.5,1.3,1.3c0,0.7-0.5,1.5-0.7,2l-1.3,2.4l-2.6,4.2h8l0.7-2.2
					C113.6,211.2,112.7,211.5,111.6,211.5"/>
			</g>
			<g>
				<path class="st0" d="M119.7,211.4c-1.5,0-1.6-2.9-1.6-3.8c0-1,0-2.1,0.3-3c0.2-0.6,0.7-1.3,1.4-1.3c1.6,0,1.6,2.8,1.6,3.8
					C121.4,208,121.2,211.4,119.7,211.4 M124.2,207.3c0-1.7-0.4-3-1.1-4.1c-0.8-1.1-2-1.7-3.3-1.7c-1.4,0-2.8,0.8-3.6,2
					c-0.6,1.1-1,2.4-1,3.9c0,1.5,0.4,3,1.1,4c0.8,1.1,2.1,1.8,3.4,1.8c1.3,0,2.6-0.8,3.4-2C124,209.9,124.2,208.4,124.2,207.3"/>
			</g>
			<g>
				<path class="st0" d="M130.1,211.4c-1.5,0-1.6-2.6-1.6-3.8c0-1,0-2.1,0.3-3c0.2-0.6,0.7-1.3,1.4-1.3c1.6,0,1.6,2.8,1.6,3.8
					C131.8,208,131.6,211.4,130.1,211.4 M134.6,207.3c0-1.7-0.4-3-1.1-4.1c-0.8-1.1-2-1.7-3.3-1.7c-1.4,0-2.8,0.8-3.6,2
					c-0.6,1.1-1,2.4-1,3.9c0,1.5,0.4,3,1.1,4c0.8,1.1,2.1,1.8,3.4,1.8c1.3,0,2.6-0.8,3.4-2C134.4,209.9,134.6,208.4,134.6,207.3"/>
			</g>
			<g>
				<path class="st0" d="M141.1,206.5l-0.4-0.1l0.4-0.1c1.1-0.3,1.9-1.2,1.9-2.3c0-0.8-0.5-1.5-1.4-2c-0.7-0.4-1.5-0.6-2.4-0.6
					c-0.9,0-1.9,0.1-2.8,0.3l-0.5,1.7c0.6-0.3,1.4-0.6,2.2-0.6c0.9,0,1.8,0.4,1.8,1.5c0,1.7-1.9,1.7-2.6,1.7h-0.3v1.3h0.7
					c0.7,0,1.4,0,2,0.5c0.5,0.4,0.7,0.9,0.7,1.6c0,1.3-1,2.3-2.4,2.3c-0.8,0-1.8-0.3-2.6-0.7c0.1,0.4,0.4,1.6,0.4,1.8c0,0,0,0,0,0
					c0.9,0.2,1.7,0.3,2.6,0.3c2.5,0,5.1-1.2,5.1-3.7C143.6,208,142.6,206.9,141.1,206.5"/>
			</g>
			<g>
				<path class="st0" d="M106,151.1c-2.4,3.6-8.4,5.3-8.4,5.4c-3.8,0.5-11-0.8-11-0.8c-7.9-0.2-2.7-2.6-2.7-2.6
					c-9.7,0.4-3.6-2-3.6-2c-12.4,1.4,1.9-4.2,1.9-4.2c-22.9,3.2-5.4-2.2-5.4-2.2c-27.2-1.2-5.7-3.3-5.7-3.3
					c-22.9-3.7-11.4-4.5-11.4-4.5c-13.3-4.9,4.1-3.6,4.1-3.6c-8.2-3.2-11-8.1-11-8.1c-1.9-4.4,2-1.3,2-1.3c2,2.1,6.6,3.7,6.6,3.7
					c-7.7-5-9.8-9.6-9.8-9.6c-0.7-3.6,1.9-0.1,1.9-0.1c4.1,4.8,11.9,7.5,11.9,7.5c-12.8-11.4-13.2-16.5-13.2-16.5
					c0.2-4.4,3.1-0.2,3.1-0.2c4.8,7.3,7.4,7.7,7.4,7.7c-10-13.4-9.1-16-9.1-16c1.6-3.5,3.3,0.9,3.3,0.9c5.4,10.2,9.4,12.3,9.4,12.3
					l-4.8-7.9c-5.8-8.7-5.6-13-5.6-13c0-2.7,1.9-1.7,1.9-1.7L56.9,89c-1-4.3,3.5-2.6,3.5-2.6l-0.5-1.3c-0.2-10.5,3.8-11,3.8-11
					c3.5,0.3,2.1,4.6,2.1,4.6c-0.7,1.5-0.7,6.5-0.7,6.5c3.5,10.9,22.9,26.2,22.9,26.2c13.2,10.1,22.5,27.8,22.5,27.8l2.4,9.8
					C112.8,149.1,108.5,147.2,106,151.1"/>
			</g>
			<g>
				<path class="st3" d="M80.8,152.8c0,0-4.4,0.1-0.1-1.3c0,0,5.8-1.6,8.5-2.7c0,0-0.2,1.9,2.1,1.8
					C91.3,150.6,87.2,153.3,80.8,152.8 M76.5,151.1c-4,0.1,3.8-2.8,3.8-2.8c2.6-1.1,4.4-1.8,5.2-2.1c0.3,1.1,3.4,1.9,3.4,1.9
					c-0.9,0.4-5.1,1.9-5.1,1.9C81.7,151,76.5,151.1,76.5,151.1 M73.1,147.7c-6,0.5,1.9-1.9,1.9-1.9c4.2-1.8,9.1-2,9.1-2
					c0.1,0.5,1.3,1.2,1.6,1.5c-0.3,0.2-0.6,0.5-0.6,0.5C82.2,147.1,73.1,147.7,73.1,147.7 M66.7,143.9c0,0-7.4-0.9-0.2-1.3
					c0,0,4.2-0.8,6.4-0.9c0,0,10.4,0.5,11.5,0.8c0,0-0.6,0.2-0.9,0.7C83.5,143.2,76.2,145,66.7,143.9 M59.6,138.8
					c0,0-4.7-0.5,0.7-1.4c0,0,4.5,1.4,11.2,2c0,0,7.3,1.1,11.7,0.7l0.9,1.9C84,141.9,64.9,141.2,59.6,138.8 M57.8,135.8
					c0,0-4.9-2-0.8-2.1l8.5,0.2c0,0,2.2,0.3,1.9,0.1c0,0,3.3,0.7,5.2,0.3l0.7,0c0,0,5,2.7,9.9,3.5c0,0-0.2,1,0.1,1.7
					c0,0-2.9-0.1-4.5,0.1C78.8,139.4,65.3,139.1,57.8,135.8 M53,125.1c0,0-1-2.8,1-1.5c0,0,6.9,5.9,13,6.9c0,0,1.1,0.7,1.4,0.7
					c0,0,3.3,2.1,3.8,2.3c0,0-8.2-0.5-8-0.3C64.2,133.3,55.9,130.2,53,125.1 M52.4,118.8c0,0-1.7-3.5,0.6-1.1c0,0,2.9,3.7,8.7,6.6
					c0,0,4.2,1.8,5.8,2.7c0,0,2.3,1.8,2.7,1.8c0,0,3.3,3.1,13,5.9c0,0-0.3,1.5,0,2.2c0,0-8-1.4-14.7-6.4c0,0-0.8-0.2-2.5-1.2
					c0,0-0.6-0.3-0.7-0.1C65.4,129.5,56.6,125.8,52.4,118.8 M56.5,116c0,0-3.5-3.5-3.8-7.8c0,0-0.1-2.3,2,0.3c0,0,4.5,7.7,14.3,14
					l1.5,1.5c0,0,2.2,2.5,2.8,3.2c0.1,0,0.2,0.1,0.3,0.2c0,0,6.5,4,11.7,5.2c0,0-1.2,0.5-0.3,1.9c0,0-6.6-0.2-14.2-6
					c0,0-2.9-2.1-2.9-2C68,126.5,63.4,124.6,56.5,116 M56,106.2c-3.5-5.9-1.1-6.8-1.1-6.8c1.2-0.2,2.3,3,2.3,3
					c4.3,8.8,12.3,15,12.3,15c3.1,2.6,4.1,4.9,4.4,5.2l2.7,2.8l0.9,0.5c2,1.3,9,4.2,9,4.2c-0.6,0.4,0.1,1.6,0.1,1.6l0,0.5
					c-9.6-3.1-13.4-6.6-13.4-6.6c-1.5-2.1-1.4-1.5-3.1-3.2c-1.6-1-4.6-3.8-4.6-3.8C61.7,115.8,56,106.2,56,106.2 M59.2,101.3
					c-3.7-6.2-2.8-9.1-2.8-9.1c0.4-2.5,1.7,0.3,1.7,0.3c0.7,1.3,3.3,6.5,3.3,6.5c4.6,7.4,11,13.9,11,13.9c0.4,1.5,4.3,6.8,4.3,6.8
					c-0.1,0.1,1.4,1.6,3.8,2.9c0,0,3.1,2.4,8.5,5.1l-0.2,0.8c0,0,0,0.6,0.1,0.6c0,0,1,1.2-0.2,0.7c0,0-1-0.6-1.9-0.3
					c0,0-7.6-3-11.3-6.4l-1.8-2.6l-1.7-2.2c-1.8-1.2-1.6-1.5-5.5-5.3C65.1,111.3,59.2,101.3,59.2,101.3 M57.1,87.4c0,0,1-1.7,3-0.5
					c0,0,3.3,7.5,6,10.4c0,0,4,3.9,8,7c0,0,6.2,5,8.8,8.1c0,0,0.7,0.5,3.2,3.2c0,0,5.3,6.1,6.9,8.4c0,0-1.4,0.1-1.5,0.9
					c0,0-0.2,1.6,0.3,2.5l-2.4-0.1c0,0-9.7-6.3-9.5-6.1c0,0-3.1-2.6-6.1-7.2c0,0-0.4-1.4-0.7-1.5c0,0-7.6-8.2-11-13.9
					c0,0-3.3-6.2-3.9-7.2C58.3,91.5,56.4,88.1,57.1,87.4 M93.5,124.7l4.5,6.5c0.3,0.5,0.7,1.5,0.7,1.5c-0.1,0,1.2,1.1,2.3,3.3
					l-1.5-0.3l-0.9-0.1l-1.5,0c-0.9-1-2.7-3.4-2.7-3.3c-1.2-1.4-3.7-3-3.9-4c-0.2-0.9,1.7,0.2,1.9-0.4
					C91.6,124.5,93.5,124.7,93.5,124.7 M103.6,141.8c0,0-5.2-1-7.2-4.1c0,0-1.1-1.1,0.4-1.2c0,0,3-0.4,4.6,0.1
					C101.4,136.6,103.2,140.2,103.6,141.8 M103.8,143.6c0,0-3.4,1.2-8.8-1.7c0,0-2.9-2.2-0.7-2.5c0,0,1.7-0.5,4.1,0.9
					c0,0,4.5,2,5.3,2.2C103.7,142.5,104.4,143,103.8,143.6 M104,145.5c0,0-6,2-8.6-2c0,0-0.7-1.1,0.4-0.5c0,0,2.3,1.4,5.5,1.3
					l2.7,0.1C104.1,144.3,104.3,145.1,104,145.5 M103.7,147.2c-0.1,0.2-0.4,0.8-0.3,0.9c0,0-0.1,0.8-0.3,1c0,0-1.6,0.1-2.7-1.3
					c0,0-1-1.2-1.6-1.5c0,0,3.5,0.5,4.8-0.1C103.6,146.2,103.9,147.2,103.7,147.2 M100.8,151.5c0,0-7.7,0.5-7.5-1.3
					c0,0,3.4-1.5,3.3-1.5l2.7-1c0,0,1.7,1.4,2.7,1.8c0,0,0.3,0.1,0.5,0.3C102.6,149.9,101.8,151,100.8,151.5 M87.1,145.7l2-0.2
					c0,0,0,0,0.1,0h0c0.7-0.3,4-1.1,5.8-1.1c0,0,1.5,1.1,2,1.6c0,0-1.7,0.9-3.7,0.9c-0.6,0.2-1.1,0.3-1.7,0.5
					c-0.1,0.1-1.5,1.3-4.4-0.4C87.3,146.9,84.9,146.1,87.1,145.7 M85.8,142.9l1.3,0.2c0,0,1.6,1.3,3.5,1.3c0,0-2.2,0.5-2.6,0.8
					c-0.7,0.1-2,0-3-1.1C85.1,144.1,84.3,142.7,85.8,142.9 M85.7,135.6c0,0,0.4,0.8,1.2,1.4c0,0,1,0.6,1.4,1l4.4,2.1
					c0,0,0.1,1.1,1.2,1.7c-0.9-0.2-5.5-1.4-5.3-1.3c-1.6-0.8-5.5-2.8-4.8-4.9C83.9,135.5,84.5,134.4,85.7,135.6 M90.5,134.9
					c0.3,0.3,0.6,0.3,1.3,1c0.8,0.7,2.9,2.1,3.9,2.8c-1.7-0.3-2.9,0.8-2.9,0.8c-0.8-0.4-2.4-1.3-2.4-1.3c-3.8-2.1-4.5-3.5-4.5-3.5
					c-0.5-0.8-0.3-1.4-0.3-1.4C86.2,132.2,88.8,133.8,90.5,134.9 M90.2,130c-2.2-3.7,4.9,3.8,4.9,3.8l1.3,2c-1.6,0.1-1.3,1.1-0.7,2
					c-1.5-1.1-3.7-2.6-3.6-2.6l-4-2.6c-3.1-3.7,1.5-1.7,1.5-1.7C91.3,131.8,90.2,130,90.2,130 M83.8,138c0,0,1.5,1.5,3.5,2.3
					c-0.1,0,1.4,0.7,1.3,0.7c0.3,0.1,0.8,0.3,1.1,0.4c1.7,0.3,3.4,0.6,4.9,0.9c-0.1,0.2-0.4,0.8,0,1.5c0,0-5.5,0.9-7.1-1.3
					c-0.3,0-0.7,0.1-0.7,0.1s-2.6,0.1-3.1-2.6c0,0,0.4-0.4,0.3-0.6C83.8,139,83.7,138.5,83.8,138 M90.1,149.8c0,0-1-0.7,0.3-1.3
					l1.7-0.5c0,0,1-0.1,1.1-0.1c0,0,1.3-0.5,2.7-0.6c0,0,1.3-0.5,2-0.8l0.9,0.9c0,0-1.4,1-3.6,1.3c0,0-1.8,0.7-1.6,0.7
					C93.5,149.2,91.9,150.8,90.1,149.8 M105.6,150.9c-2.3,3.4-8.1,5.2-8.2,5.2c-3.6,0.5-10.7-0.8-10.8-0.8c-3.1-0.1-3.8-0.5-4-0.6
					c0.2-0.1,0.4-0.3,0.5-0.4c0,0,0.3-0.8,2.7-1.2c0,0,5.2-0.8,6.9-2.3c0,0,2.7,2.2,8.8,1.5c0,0,1.3-1.3,2.8-4.3
					c1.5-3.1-1.1-8.9-1.1-8.9c-1.5-3.9-8.2-13.3-8.2-13.3c-5.4-8-11.1-13.3-11.1-13.3c-7.8-7.7-13.7-11.9-13.7-11.9
					c-5.9-4.9-9.5-14.4-9.5-14.4c-1.6-4.3,0.9-9.4,0.9-9.4c0.9-2.7,2.7-2.1,2.7-2.1c2,0.6,1.3,3.4,1.3,3.4c-0.5,1.7-1.1,4.9-1.1,4.9
					c-0.5,5.3,6.2,12.7,6.2,12.7c3.8,4.7,17.9,16.9,17.9,16.9c11.1,10,16,18,16,18c2.7,3.6,4.4,6.7,5.4,9.1c0.2-0.1,0.4-0.2,0.7-0.3
					c-1.5-3.4-4.5-8.7-10.5-15.9c0,0-3.2-4.8-15.5-15.3c0,0-12.4-10.3-16.1-16.6c0,0-4.2-4.8-2.8-10.7c0,0,2.3-5.1-1.2-6.7
					c0,0-2.1-1-3.9,3.3c0,0-1.7,3.8-1.2,8.1c0.6,1.1-1.5,0-2.1,0.5c0,0-0.9,0.5-0.9,1.5c0,0-0.4,1.1,0.9,3.2c0,0-2.8-0.5-1.5,5.3
					c0,0,0.6,1.9,2.2,4.7l6.3,10.6c0,0,1.4,2.1-0.5,0c0,0-4.6-5.4-7.1-11c0,0-0.4-1.4-2-1.5c0,0-2.6,0.7-1.1,4.4
					c0,0,2.4,5.1,6.5,10.8c0,0,1.6,2.3-0.4,0.2l-4.5-5.8c0,0-1.4-2.1-2.9-1.4c0,0-2.2,2.5,3.1,9.1c0,0,5.6,6.5,8.6,8.7
					c0,0-5.4-1.1-11.1-7.6c0,0-2.1-2.2-1.6,0.7c0,0,1,4.3,9.4,9.7c0,0-2-0.6-4.8-3c0,0-4.6-4-3.6,0.3c0,0,1.8,5,10.3,8.4
					c0,0-16.1-0.9-3.7,3.7c0,0-11.5,2,11.6,4.8c0,0-16.5,1-2.4,3.2l7.5,0.2c0,0-13.6,4.3-0.6,3.2l5.7-0.8c0,0-13.4,5.5-1.3,4.1
					c0,0-5.5,1.9,3.7,2.1c0,0-1.2,0.9-1.6,1.3c0,0,0,0,0,0c-0.1,0.1-0.1,0.2,0,0.2c-0.1,0-0.1,0,0.4,0.1l0,0c0.4,0.4,1.3,0.9,4.6,1
					c0.2,0,6.2,1.1,10.1,0.9c0.1,0,0.2,0,0.3,0l0,0c0.2,0,0.4,0,0.6-0.1c0.1,0,6.3-1.8,8.7-5.6c2.3-3.5,6.1-1.9,6.3-1.9l0.4-0.8
					C112.9,148.7,108.4,146.7,105.6,150.9"/>
			</g>
			<g>
				<path class="st0" d="M144,151.1c2.4,3.6,8.4,5.3,8.4,5.4c3.8,0.5,11-0.8,11-0.8c7.9-0.2,2.7-2.6,2.7-2.6c9.7,0.4,3.6-2,3.6-2
					c12.4,1.4-1.8-4.2-1.8-4.2c22.9,3.2,5.4-2.2,5.4-2.2c27.2-1.2,5.7-3.3,5.7-3.3c22.9-3.7,11.4-4.5,11.4-4.5
					c13.3-4.9-4.1-3.6-4.1-3.6c8.2-3.2,11-8.1,11-8.1c1.9-4.4-2-1.3-2-1.3c-2,2.1-6.6,3.7-6.6,3.7c7.7-5,9.8-9.6,9.8-9.6
					c0.7-3.6-1.9-0.1-1.9-0.1c-4.1,4.8-11.9,7.5-11.9,7.5c12.8-11.4,13.2-16.5,13.2-16.5c-0.2-4.4-3.1-0.2-3.1-0.2
					c-4.8,7.3-7.4,7.7-7.4,7.7c10-13.4,9.1-16,9.1-16c-1.6-3.5-3.3,0.9-3.3,0.9c-5.4,10.2-9.4,12.3-9.4,12.3l4.8-7.9
					c5.8-8.7,5.6-13,5.6-13c0-2.7-1.9-1.7-1.9-1.7l0.9-2.1c1-4.3-3.5-2.6-3.5-2.6l0.5-1.3c0.2-10.5-3.8-11-3.8-11
					c-3.5,0.3-2.1,4.6-2.1,4.6c0.7,1.5,0.7,6.5,0.7,6.5c-3.5,10.9-22.9,26.2-22.9,26.2c-13.2,10.1-22.5,27.8-22.5,27.8l-2.4,9.8
					C137.2,149.1,141.4,147.2,144,151.1"/>
			</g>
			<g>
				<path class="st3" d="M184.6,129.5c-0.1-0.2-0.7,0.1-0.7,0.1c-1.7,0.9-2.5,1.2-2.5,1.2c-6.6,4.9-14.7,6.4-14.7,6.4
					c0.3-0.8,0-2.2,0-2.2c9.7-2.9,13-5.9,13-5.9c0.4-0.1,2.7-1.8,2.7-1.8c1.6-0.9,5.8-2.7,5.8-2.7c5.8-2.9,8.7-6.6,8.7-6.6
					c2.3-2.4,0.6,1.1,0.6,1.1C193.4,125.8,184.6,129.5,184.6,129.5 M196.1,123.6c2-1.3,1,1.5,1,1.5c-3,5.1-11.2,8.2-11.2,8.2
					c0.2-0.2-8,0.3-8,0.3c0.5-0.2,3.8-2.3,3.8-2.3c0.3,0,1.4-0.7,1.4-0.7C189.1,129.5,196.1,123.6,196.1,123.6 M193,133.7
					c4.1,0.1-0.8,2.1-0.8,2.1c-7.5,3.3-21,3.6-21,3.6c-1.6-0.1-4.5-0.1-4.5-0.1c0.3-0.7,0.1-1.7,0.1-1.7c4.9-0.7,9.9-3.5,9.9-3.5
					l0.7,0c1.8,0.4,5.2-0.3,5.2-0.3c-0.3,0.3,1.9-0.1,1.9-0.1L193,133.7z M190.4,138.8c-5.3,2.4-24.3,3.1-24.3,3.1l0.9-1.9
					c4.4,0.4,11.7-0.7,11.7-0.7c6.7-0.6,11.2-2,11.2-2C195.1,138.3,190.4,138.8,190.4,138.8 M183.5,142.6c7.2,0.4-0.2,1.3-0.2,1.3
					c-9.5,1.1-16.8-0.7-16.8-0.7c-0.3-0.5-0.9-0.7-0.9-0.7c1.1-0.3,11.5-0.8,11.5-0.8C179.3,141.8,183.5,142.6,183.5,142.6
					 M175,145.9c0,0,7.8,2.4,1.9,1.9c0,0-9.1-0.6-11.9-1.9c0,0-0.3-0.3-0.6-0.5c0.4-0.2,1.5-0.9,1.6-1.5
					C165.9,143.9,170.8,144.1,175,145.9 M169.7,148.4c0,0,7.8,2.9,3.8,2.8c0,0-5.2-0.2-7.3-1c0,0-4.2-1.6-5.1-1.9
					c0,0,3.1-0.8,3.4-1.9C166.3,146.9,168,147.6,169.7,148.4 M169.2,152.8c-6.4,0.5-10.5-2.2-10.5-2.2c2.3,0.1,2.1-1.8,2.1-1.8
					c2.6,1.1,8.5,2.7,8.5,2.7C173.6,152.8,169.2,152.8,169.2,152.8 M156.5,149.2c0.1,0-1.6-0.7-1.6-0.7c-2.2-0.4-3.6-1.3-3.6-1.3
					l0.9-0.9c0.7,0.4,2,0.8,2,0.8c1.4,0.2,2.7,0.6,2.7,0.6c0.1,0,1.1,0.1,1.1,0.1l1.7,0.5c1.3,0.6,0.3,1.3,0.3,1.3
					C158.1,150.8,156.5,149.2,156.5,149.2 M149.2,151.5c-1-0.5-1.7-1.6-1.7-1.6c0.2-0.2,0.5-0.3,0.5-0.3c1-0.4,2.7-1.8,2.7-1.8
					l2.7,1c-0.1,0,3.3,1.5,3.3,1.5C156.9,152,149.2,151.5,149.2,151.5 M146.9,149.1c-0.2-0.2-0.3-1-0.3-1c0.1,0-0.2-0.6-0.3-0.9
					c-0.2,0,0.2-1.1,0.2-1.1c1.3,0.6,4.8,0.1,4.8,0.1c-0.6,0.3-1.6,1.5-1.6,1.5C148.5,149.2,146.9,149.1,146.9,149.1 M145.9,144.3
					l2.7-0.1c3.2,0.1,5.5-1.3,5.5-1.3c1.2-0.6,0.4,0.5,0.4,0.5c-2.6,4-8.6,2-8.6,2C145.7,145.1,145.9,144.3,145.9,144.3
					 M146.3,142.5c0.9-0.1,5.3-2.2,5.3-2.2c2.4-1.4,4.1-0.9,4.1-0.9c2.2,0.3-0.7,2.5-0.7,2.5c-5.4,2.9-8.8,1.7-8.8,1.7
					C145.6,143,146.3,142.5,146.3,142.5 M148.6,136.6c1.5-0.5,4.6-0.1,4.6-0.1c1.6,0.1,0.4,1.2,0.4,1.2c-2,3.2-7.2,4.1-7.2,4.1
					C146.8,140.2,148.6,136.6,148.6,136.6 M151.2,132.7c0,0,0.4-1,0.7-1.5l4.5-6.5c0,0,2-0.2,1.1,3.3c0.2,0.6,2.1-0.5,1.9,0.4
					c-0.2,1-2.7,2.6-3.9,4c0.1-0.1-1.8,2.3-2.7,3.3l-1.5,0l-0.9,0.1L149,136C150,133.7,151.3,132.7,151.2,132.7 M163.8,115.7
					c2.5-2.6,3.2-3.2,3.2-3.2c2.6-3.1,8.8-8.1,8.8-8.1c4.1-3.2,8-7,8-7c2.8-2.9,6-10.4,6-10.4c2-1.2,3,0.5,3,0.5
					c0.7,0.7-1.1,4.1-1.1,4.1c-0.6,1-3.9,7.2-3.9,7.2c-3.4,5.8-11,13.9-11,13.9c-0.3,0-0.7,1.5-0.7,1.5c-3,4.7-6.1,7.2-6.1,7.2
					c0.2-0.2-9.5,6.1-9.5,6.1l-2.4,0.1c0.5-0.9,0.3-2.5,0.3-2.5c-0.1-0.8-1.5-0.9-1.5-0.9C158.5,121.8,163.8,115.7,163.8,115.7
					 M193.6,92.2c0,0,0.9,3-2.8,9.1c0,0-5.9,10-7.3,11.8c-3.9,3.8-3.7,4.1-5.5,5.3l-1.7,2.2l-1.8,2.6c-3.6,3.5-11.3,6.4-11.3,6.4
					c-0.9-0.3-1.9,0.3-1.9,0.3c-1.2,0.5-0.2-0.7-0.2-0.7c0.1,0,0.1-0.6,0.1-0.6l-0.2-0.8c5.4-2.7,8.5-5.1,8.5-5.1
					c2.4-1.3,3.9-2.8,3.8-2.9c0,0,3.9-5.3,4.3-6.8c0,0,6.4-6.5,11-13.9c0,0,2.5-5.2,3.3-6.5C191.9,92.5,193.2,89.7,193.6,92.2
					 M192.8,102.4c0,0,1.1-3.2,2.3-3c0,0,2.4,0.9-1.1,6.8c0,0-5.7,9.6-9.4,12.6c0,0-3.1,2.7-4.6,3.8c-1.7,1.6-1.6,1-3.1,3.2
					c0,0-3.8,3.5-13.4,6.6l0-0.5c0,0,0.7-1.2,0.1-1.6c0,0,7-2.9,9-4.2l0.9-0.5l2.7-2.8c0.3-0.3,1.3-2.6,4.4-5.2
					C180.6,117.4,188.5,111.3,192.8,102.4 M157.2,140l4.4-2.1c0.5-0.3,0.9-0.7,1.4-1c0.9-0.6,1.2-1.4,1.2-1.4
					c1.2-1.2,1.8-0.1,1.8-0.1c0.7,2.1-3.2,4.1-4.8,4.9c0.1-0.1-4.4,1-5.3,1.3C157.1,141.1,157.2,140,157.2,140 M158.2,135.9
					c0.6-0.7,0.9-0.7,1.3-1c1.7-1.1,4.3-2.7,4.8-1.5c0,0,0.3,0.6-0.3,1.4c0,0-0.6,1.4-4.5,3.5c0,0-1.6,0.8-2.4,1.3
					c0,0-1.2-1.2-2.9-0.8C155.3,138,157.4,136.6,158.2,135.9 M160.5,131c0,0,4.6-1.9,1.5,1.7l-4,2.6c0,0-2.2,1.4-3.6,2.6
					c0.5-0.9,0.8-1.9-0.7-2l1.3-2c0,0,7.1-7.6,4.9-3.8C159.8,130,158.7,131.8,160.5,131 M163.2,142.6c0,0-0.5-0.1-0.7-0.1
					c-1.5,2.2-7.1,1.3-7.1,1.3c0.4-0.7,0.2-1.3,0-1.5c1.5-0.3,3.2-0.6,4.9-0.9c0.3-0.2,0.8-0.3,1.1-0.4c0,0,1.4-0.7,1.3-0.7
					c2-0.8,3.5-2.3,3.5-2.3c0.1,0.5,0,1-0.3,1.4c-0.1,0.1,0.3,0.6,0.3,0.6C165.8,142.6,163.2,142.6,163.2,142.6 M162.7,146.9
					c-2.9,1.6-4.2,0.5-4.4,0.4c-0.3-0.1-1.4-0.4-1.7-0.5c-2,0-3.7-0.9-3.7-0.9c0.5-0.5,2-1.6,2-1.6c1.7,0,5.1,0.8,5.8,1.1h0
					c0,0,0.1,0,0.1,0l2,0.2C165.1,146.1,162.7,146.9,162.7,146.9 M161.9,145.2c-0.4-0.2-2.6-0.8-2.6-0.8c1.9,0,3.5-1.3,3.5-1.3
					l1.3-0.2c1.5-0.2,0.7,1.2,0.7,1.2C163.9,145.2,162.7,145.3,161.9,145.2 M195.3,108.5c2.1-2.5,2-0.3,2-0.3
					c-0.3,4.3-3.8,7.8-3.8,7.8c-6.9,8.7-11.5,10.5-11.5,10.5c0-0.1-2.9,2-2.9,2c-7.6,5.8-14.2,6-14.2,6c0.9-1.4-0.3-1.9-0.3-1.9
					c5.3-1.2,11.7-5.2,11.7-5.2c0.1-0.1,0.2-0.1,0.3-0.2c0.6-0.7,2.8-3.2,2.8-3.2l1.5-1.5C190.8,116.2,195.3,108.5,195.3,108.5
					 M198.7,117.7c0.4-2.8-1.6-0.7-1.6-0.7c-5.7,6.5-11.1,7.6-11.1,7.6c3-2.3,8.6-8.7,8.6-8.7c5.3-6.6,3.1-9.1,3.1-9.1
					c-1.5-0.6-2.9,1.4-2.9,1.4l-4.5,5.8c-2,2.1-0.4-0.2-0.4-0.2c4.1-5.8,6.5-10.8,6.5-10.8c1.5-3.7-1.1-4.4-1.1-4.4
					c-1.6,0.1-2,1.5-2,1.5c-2.5,5.6-7.1,11-7.1,11c-1.9,2.1-0.5,0-0.5,0l6.3-10.6c1.7-2.8,2.2-4.7,2.2-4.7c1.3-5.9-1.5-5.3-1.5-5.3
					c1.3-2.1,0.9-3.2,0.9-3.2c0-1-0.9-1.5-0.9-1.5c-0.6-0.5-2.6,0.6-2.1-0.5c0.4-4.3-1.2-8.1-1.2-8.1c-1.8-4.3-3.9-3.3-3.9-3.3
					c-3.6,1.6-1.2,6.7-1.2,6.7c1.4,5.9-2.8,10.7-2.8,10.7c-3.8,6.3-16.1,16.6-16.1,16.6c-12.3,10.5-15.5,15.3-15.5,15.3
					c-6,7.2-9,12.5-10.5,15.9c0.3,0.1,0.5,0.2,0.7,0.3c1-2.4,2.6-5.5,5.4-9.1c0,0,5-8,16-18c0,0,14.1-12.2,17.9-16.9
					c0,0,6.6-7.4,6.2-12.7c0,0-0.6-3.2-1.1-4.9c0,0-0.7-2.8,1.3-3.4c0,0,1.8-0.6,2.7,2.1c0,0,2.5,5.1,0.9,9.4c0,0-3.6,9.5-9.5,14.4
					c0,0-5.8,4.2-13.7,11.9c0,0-5.7,5.3-11.1,13.3c0,0-6.7,9.4-8.2,13.3c0,0-2.6,5.8-1.1,8.9c1.5,3.1,2.8,4.3,2.8,4.3
					c6,0.6,8.8-1.5,8.8-1.5c1.7,1.5,6.9,2.3,6.9,2.3c2.4,0.5,2.7,1.2,2.7,1.2c0,0,0.3,0.2,0.5,0.4c-0.1,0.1-0.8,0.5-3.9,0.6
					c-0.1,0-7.2,1.3-10.9,0.8c0,0-5.9-1.8-8.1-5.2c-2.8-4.2-7.3-2.2-7.4-2.2l0.4,0.8c0.2-0.1,3.9-1.6,6.3,1.9
					c2.5,3.7,8.7,5.5,8.7,5.6c0.2,0,0.4,0,0.6,0.1l0,0c0.1,0,0.2,0,0.4,0c4,0.2,9.9-0.8,10.2-0.9c3.2-0.1,4.2-0.6,4.5-1l0,0
					c0.5-0.1,0.5-0.1,0.4-0.1c0.2,0,0.2-0.1,0-0.2c0,0,0,0,0,0c-0.4-0.4-1.6-1.3-1.6-1.3c9.2-0.2,3.7-2.1,3.7-2.1
					c12.1,1.4-1.3-4.1-1.3-4.1l5.7,0.8c13,1.1-0.6-3.2-0.6-3.2l7.5-0.2c14.1-2.2-2.4-3.2-2.4-3.2c23.1-2.8,11.6-4.8,11.6-4.8
					c12.3-4.5-3.7-3.7-3.7-3.7c8.5-3.4,10.3-8.4,10.3-8.4c1-4.3-3.6-0.3-3.6-0.3c-2.9,2.5-4.8,3-4.8,3
					C197.7,122,198.7,117.7,198.7,117.7"/>
			</g>
			<g>
				<path class="st3" d="M123,170.4c0-0.1,0.1-0.3,0.1-0.4l0.1-0.1v0.1C123.1,170.2,123,170.3,123,170.4 M112.5,170.3L112.5,170.3
					l0.2-0.1c0.2-0.1,0.4-0.2,0.5-0.3c0.3,0,0.8-0.2,2.7-0.8l1.2-0.4l0-0.1l1.3-0.4c0.1,0,0.2,0.1,0.4,0.1c0.3,0,0.6-0.2,0.9-0.4
					c-0.3,0.2-0.5,0.4-0.6,0.7h0c0,0-0.1,0.3-0.1,0.5c-0.2,0.3-0.5,0.6-0.7,1c0,0,0,0-0.1,0l-2.4,3.3c-0.1,0.1-0.3,0.2-0.4,0.4
					l0,0.2c-0.1,0.1-0.3,0.4-0.9,1.1c-1.3-1.3-2.4-2.7-3.2-4.4C111.7,170.6,112.5,170.3,112.5,170.3 M119.8,167.7l0.2,0
					C120,167.7,119.9,167.8,119.8,167.7c0,0.1,0,0.1-0.1,0.1C119.7,167.8,119.8,167.8,119.8,167.7 M119.8,160.1c0,0,0,0.1,0.1,0.1
					l-0.2-0.1c0,0,0-0.1-0.1-0.1C119.7,160.1,119.8,160.1,119.8,160.1 M118.5,163.9c0.1,0,0.1,0.1,0.2,0.1c0,0-0.1,0-0.2,0.1
					c-0.1,0-0.2-0.1-0.2-0.1C118.3,164,118.4,163.9,118.5,163.9 M111.2,161.7L111.2,161.7l0.1,0.1c0.2,0.1,0.4,0.1,0.7,0.1
					c0.3,0.1,0.9,0.3,2.5,0.9l1.2,0.4l0-0.1l1.2,0.4c0.1,0.1,0.2,0.2,0.3,0.3c0.3,0.2,0.5,0.2,0.9,0.2c-0.3,0-0.6,0.1-0.8,0.2
					c-0.1,0.1-0.2,0.2-0.3,0.3c-0.4,0.1-0.8,0.2-1.2,0.4l0-0.1l-3.8,1.2c-0.3,0-0.5,0.1-0.7,0.1l-0.1,0.1c-0.2,0-0.5,0.1-1.5,0.4
					c-0.2-1-0.3-1.9-0.3-2.8c0-0.8,0.1-1.7,0.3-2.7L111.2,161.7L111.2,161.7z M122.9,150.1c0,0-0.4,0.6-0.4,0.6l0.3-0.3l0.1,0.3
					l0,2.9v1.3h0.1v1.3c-0.1,0.1-0.2,0.2-0.2,0.3c0,0-0.1,0.4-0.1,0.4c0,0.3,0.1,0.6,0.3,0.9l0,0.1l-0.1-0.1
					c-0.1-0.4-0.2-0.9-0.6-1.1c-0.1-0.1-0.2-0.1-0.4-0.1c-0.1-0.2-0.4-0.5-0.8-1.1l0.1,0l-2.4-3.3l-0.1,0c-0.1-0.2-0.2-0.5-0.2-0.5
					l-0.2-0.1c-0.1-0.2-0.2-0.4-0.8-1.2c1.6-0.9,3.4-1.4,5.2-1.7L122.9,150.1L122.9,150.1 M115.2,154.1c0.1,0.2,0.3,0.3,0.5,0.4
					c0.1,0.2,0.4,0.7,1.6,2.3l0.7,1l0.1,0l0.7,1l0.1,0.5c0.1,0.3,0.3,0.5,0.6,0.7c-0.3-0.2-0.5-0.3-0.9-0.4c-0.2,0-0.3,0.1-0.4,0.1
					c-0.2-0.1-0.6-0.2-1.2-0.4l0-0.1l-3.9-1.3l0,0c-0.1-0.1-0.3-0.2-0.5-0.3l-0.2,0c-0.1-0.1-0.4-0.2-1.4-0.5
					c0.8-1.7,1.9-3.1,3.2-4.4l0.8,1.1l0.1,0l0.1,0.3L115.2,154.1z M123.1,177.1c-0.1,0.1-0.4,0.8-0.4,0.8l0.3-0.3l0.1,0.1
					c0,0.1,0,0.2,0,0.3l0,1.2c-1.8-0.2-3.6-0.8-5.2-1.7l0.8-1.2l0-0.1l0.1-0.1l0.2-0.5c0.2-0.1,0.5-0.5,1.7-2.3l0.7-1
					c0,0-0.1,0-0.1,0l0.8-1.1c0.1-0.1,0.2,0,0.3-0.1c0.2-0.2,0.4-0.5,0.5-0.7c0,0.1-0.1,0.3-0.1,0.4l0.1,0.4c0,0.2,0.1,0.2,0.2,0.3
					l0,1.3h-0.1L123.1,177.1C123.1,177,123.1,177.1,123.1,177.1 M132.8,171l-0.7-1l-0.1,0l-0.7-1l-0.1-0.4c-0.1-0.3-0.4-0.6-0.6-0.8
					c0.3,0.2,0.6,0.3,0.9,0.4c0.2,0,0.3-0.1,0.4-0.1c0.2,0.1,0.6,0.2,1.2,0.4c0,0,0,0,0,0.1l3.9,1.3l0,0c0.1,0.1,0.3,0.2,0.5,0.3
					l0.2,0c0.1,0.1,0.4,0.2,1.2,0.5c-0.8,1.6-1.8,3.1-3.1,4.3l-0.7-1l-0.1,0l0-0.2c-0.1-0.2-0.3-0.4-0.5-0.5
					C134.2,172.9,133.8,172.4,132.8,171 M127,157.6c0,0.1,0,0.2-0.1,0.3l0,0.1v-0.1C127,157.7,127,157.6,127,157.6 M137.6,157.6
					L137.6,157.6c-0.1,0.1-0.2,0.1-0.2,0.1c-0.3,0.1-0.4,0.2-0.6,0.3c-0.3,0-0.8,0.2-2.6,0.8c0,0-0.1,0-0.1,0l-1,0.3l0,0.1l-1.3,0.4
					c-0.1,0-0.2-0.1-0.4-0.1c-0.3,0-0.7,0.2-0.9,0.4c0.3-0.2,0.5-0.4,0.6-0.7c0,0,0.1-0.3,0.1-0.5c0.1-0.2,0.4-0.5,0.7-0.9l0.1,0
					l2.4-3.3c0.1-0.1,0.3-0.2,0.4-0.4c0,0,0-0.1,0.1-0.2c0.1-0.1,0.3-0.4,0.9-1.1c1.3,1.3,2.4,2.7,3.2,4.4L137.6,157.6 M130.3,167.7
					c0,0,0-0.1-0.1-0.1L130.3,167.7c0.1,0,0.1,0,0.2,0.1C130.4,167.7,130.3,167.7,130.3,167.7 M130.3,160.1c-0.1,0-0.1,0-0.2,0
					C130.1,160.2,130.2,160.1,130.3,160.1c0-0.1,0-0.1,0.1-0.1C130.3,160,130.3,160.1,130.3,160.1 M131.6,163.9
					c-0.1,0-0.1,0-0.2-0.1l0.1,0l0.2-0.1c0.1,0,0.2,0.1,0.2,0.1C131.7,163.9,131.7,163.9,131.6,163.9 M138.8,166.2l-0.1-0.1
					c-0.2-0.1-0.4-0.1-0.7-0.1c-0.3-0.1-0.8-0.3-2.5-0.9c0,0-0.1,0-0.1,0l-1.1-0.3l0,0.1l-1.2-0.4c-0.1-0.1-0.2-0.2-0.3-0.3
					c-0.3-0.2-0.5-0.2-0.9-0.2c0.3,0,0.6-0.1,0.8-0.2c0.1-0.1,0.2-0.2,0.3-0.3c0.2-0.1,0.6-0.2,1.2-0.4l0,0.1c0,0,3.7-1.2,3.8-1.2
					c0.3,0,0.5-0.1,0.6-0.1l0.1-0.1c0.2,0,0.4-0.1,1.5-0.4c0.2,1,0.3,1.9,0.3,2.8c0,0.8-0.2,1.7-0.4,2.6L138.8,166.2L138.8,166.2z
					 M126.9,150.7l0.4-0.8l-0.3,0.3l0-0.1c0-0.1,0-0.4,0-0.4l0-1.2c1.8,0.2,3.6,0.8,5.2,1.7c-0.3,0.4-0.9,1.2-0.9,1.2l0,0.1
					c0,0-0.1,0-0.1,0c0,0-0.1,0.3-0.2,0.5c-0.2,0.1-0.5,0.5-1.7,2.3l-0.1,0.1l-0.7,0.9l0.1,0l-0.8,1.1c-0.1,0.1-0.2,0-0.3,0.1
					c-0.2,0.2-0.4,0.4-0.5,0.6c0-0.1,0-0.2,0-0.3l-0.1-0.4c0-0.2-0.1-0.2-0.2-0.3l0-1.3h0.1L126.9,150.7L126.9,150.7 M127.1,177.8
					l0.4-0.6l-0.3,0.3l-0.1-0.3l0-0.3l0-2.6V173h-0.1v-1.3c0.1-0.1,0.2-0.2,0.2-0.3c0-0.1,0.1-0.4,0.1-0.4c0-0.3-0.1-0.6-0.3-0.9
					v-0.1l0.1,0.1c0.1,0.4,0.2,0.9,0.6,1.1c0.1,0.1,0.2,0.1,0.4,0.1c0.1,0.2,0.4,0.5,0.8,1.1l-0.1,0l2.4,3.3l0.1,0l0.2,0.5l0.2,0.1
					c0.1,0.2,0.2,0.4,0.7,1.2c-1.6,0.9-3.3,1.5-5.1,1.8L127.1,177.8L127.1,177.8 M149.4,169.7l-0.1-0.1c-0.5-0.6-2.1-1.2-3.5-1.1
					l-0.1-0.1c0.3-1.5,0.6-3,0.6-4.4v0c0-1.6-0.2-3.1-0.6-4.7c1.4,0.1,3-0.6,3.6-1.2c0,0,0.1-0.1,0.1-0.1c0.3-0.3,1-1,0.6-2.2
					c-0.4-1.2-1.4-1.4-1.8-1.5l-0.2,0c-0.7-0.2-2.4,0.3-3.5,1.2c0,0,0,0,0,0c-1.3-2.9-3.1-5.4-5.5-7.4c1.2-0.8,2.1-2.2,2.2-3l0-0.2
					c0,0,0-0.5,0-0.5c0-0.7-0.3-1.2-0.9-1.6c-1-0.8-2-0.3-2.3-0.1c-0.1,0-0.1,0.1-0.2,0.1c-0.7,0.3-1.8,1.6-2.1,3l0,0
					c-2.7-1.6-5.7-2.5-8.8-2.8l0,0c0.3-0.7,0.4-1.5,0.4-1.9c0-0.5,0-1.3-0.4-1.8c0,0-0.1-0.1-0.1-0.1c-0.2-0.3-0.6-1.3-1.9-1.3
					c-1.3,0-1.8,0.9-1.9,1.3c0,0.1-0.1,0.1-0.1,0.2c-0.3,0.5-0.3,1.3-0.3,1.8c0,0.4,0.1,1.2,0.4,1.9l0,0.1c-3.1,0.3-6.1,1.3-8.8,2.9
					c-0.4-1.4-1.5-2.7-2.2-3c0.1,0-0.1-0.1-0.1-0.1c-0.4-0.2-1.3-0.6-2.3,0.1c-0.6,0.4-0.9,1-0.9,1.7l0,0.5l0,0.2
					c0.1,0.7,1,2.2,2.2,2.9l0,0c-2.3,2.1-4.2,4.6-5.4,7.5c-1.1-0.9-2.8-1.3-3.6-1.2c0,0-0.2,0-0.2,0c-0.4,0.1-1.4,0.2-1.8,1.4
					c-0.4,1.3,0.3,2,0.6,2.3l0.1,0.1c0.5,0.6,2.1,1.2,3.5,1.1l0,0c-0.3,1.5-0.6,3-0.6,4.5c0,1.5,0.2,3.1,0.6,4.7
					c-1.4-0.1-3,0.6-3.5,1.2l-0.1,0.1c-0.3,0.3-1,1-0.6,2.2c0.4,1.2,1.4,1.4,1.8,1.5l0.2,0c0.7,0.2,2.4-0.3,3.5-1.2c0,0,0,0,0,0
					c1.3,2.9,3.1,5.4,5.5,7.4c-1.2,0.8-2.1,2.2-2.2,3l0,0.2c0,0,0,0.5,0,0.5c0,0.7,0.3,1.2,0.9,1.6c1,0.8,2,0.3,2.3,0.1l0.2-0.1
					c0.7-0.3,1.8-1.6,2.1-3l0,0c2.7,1.6,5.7,2.5,8.8,2.8l0,0c-0.3,0.7-0.4,1.5-0.4,1.9c0,0.5,0,1.3,0.4,1.8l-0.2-0.6l0.2,0.7
					c0.2,0.3,0.6,1.2,1.9,1.2c1.3,0,1.7-0.9,1.9-1.3l0.1-0.2c0.3-0.5,0.3-1.3,0.3-1.8c0-0.4-0.1-1.2-0.4-1.9l0-0.1
					c3.1-0.3,6.1-1.3,8.8-2.9c0.4,1.4,1.4,2.7,2.2,3l0.2,0.1c0.3,0.2,1.3,0.6,2.3-0.1c0.6-0.4,0.9-1,0.9-1.6l-0.1-0.6l0,0l0-0.2
					c-0.1-0.7-1-2.2-2.2-3l0,0c2.3-2.1,4.1-4.7,5.3-7.5l0.1,0c1.1,0.9,2.8,1.4,3.6,1.2c0,0,0.2,0,0.2,0c0.4-0.1,1.4-0.2,1.8-1.4
					C150.4,170.7,149.7,170,149.4,169.7"/>
			</g>
			<g>
				<path class="st3" d="M134.9,173.7l0-0.1L134.9,173.7L134.9,173.7"/>
			</g>
			<g>
				<path class="st3" d="M138.6,165.9l0.2,0.2l0,0c0,0,0,0,0,0L138.6,165.9z"/>
			</g>
			<g>
				<path class="st3" d="M111.4,161.8l0.2,0.2L111.4,161.8"/>
			</g>
			<g>
				<path class="st0" d="M124.1,178.1l0,2.5c-2.8-0.2-5.5-1-7.9-2.5c0.2-0.2,1.4-1.9,1.4-1.9c0,0,0,0,0-0.1c0-0.1,0-0.2,0-0.3
					c0.2,0,0.3-0.1,0.4-0.2c0.1-0.1,0.2-0.3,0.2-0.5c0,0,0-0.1,0-0.1l0.2,0c0.1-0.1,1.6-2.1,1.6-2.1l0.1-0.1l-0.1-0.1
					c-0.1-0.1-0.1-0.1-0.1-0.2c0-0.1,0-0.2,0.1-0.3c0.1-0.1,0.2-0.2,0.4-0.1l0.1,0.1l1-1.4c0,0,0-0.2,0-0.3c0.2,0,0.4,0,0.5-0.1
					c0.2-0.1,0.3-0.4,0.3-0.6c0-0.1,0-0.2-0.1-0.3l0.2,0c0.1-0.1,1.4-1.8,1.5-2l0.6,0.2v2.4c0,0.1,0.1,0.2,0.2,0.2
					c-0.3,0.2-0.4,0.4-0.4,0.7c0,0.1,0,0.1,0,0.2c0,0.2,0.2,0.2,0.4,0.3l-0.1,0.2l0,1.6v0.1h0.1c0.2,0,0.2,0.2,0.2,0.3
					c0,0.2-0.1,0.4-0.3,0.4h-0.1v2.6c0.1,0.1,0.1,0.2,0.2,0.2c-0.1,0.1-0.3,0.3-0.3,0.5l0,0.1c0,0.2,0.2,0.3,0.3,0.4L124.1,178.1
					 M111.8,169.4c0.1-0.1,0.1-0.2,0.2-0.3c0.1,0.1,0.3,0.2,0.4,0.1c0.2,0,0.3-0.2,0.4-0.4l0.2,0.1c0.1,0,2.5-0.8,2.5-0.8l0.1,0
					l0-0.1c-0.1-0.2,0.1-0.4,0.3-0.4c0.1,0,0.3-0.1,0.3,0.1l0,0.1l1.6-0.5c0,0,0.1-0.2,0.2-0.2c0.1,0.1,0.2,0.3,0.4,0.3
					c0.3,0,0.5-0.2,0.7-0.6l0.2,0.1c0.1,0,2.2-0.7,2.5-0.8l0.4,0.5l-1.4,2c0,0,0,0.1,0,0.1c0,0.1,0,0.1,0,0.2
					c-0.4,0-0.7,0.2-0.8,0.5c0,0.1,0,0.1,0,0.2c0,0.1,0.1,0.2,0.2,0.3c-0.1,0-0.2,0.1-0.2,0.1c-0.1,0.1-1,1.3-1,1.3l-0.1,0.1
					l0.1,0.1c0.1,0,0.1,0.1,0.1,0.2v0c0,0.1-0.1,0.3-0.3,0.4c-0.1,0-0.2,0.1-0.3,0l-0.1-0.1l-1.5,2.1c0,0,0,0.1,0,0.1
					c0,0.1,0,0.2,0,0.2c-0.2,0-0.4,0.1-0.5,0.3c-0.1,0.1-0.1,0.2-0.1,0.3c0,0,0,0.1,0,0.1l-0.3,0c-0.1,0.1-1.2,1.6-1.5,2
					c-2.2-1.8-3.9-4.1-4.9-6.7C109.9,170,111.8,169.4,111.8,169.4 M111.8,160.8c0.2,0.1,0.4,0,0.6-0.1l0.1,0.2
					c0.1,0.1,2.5,0.8,2.5,0.8l0.1,0l0-0.1c0-0.1,0.1-0.2,0.2-0.2c0.2,0,0.4,0,0.5,0.1c0.1,0.1,0.1,0.1,0,0.2l0,0.1l1.6,0.5
					c0,0,0.1,0,0.2-0.1c0,0.2,0.1,0.3,0.2,0.4c0.2,0.1,0.6,0.1,0.9-0.1c0,0.1,0.1,0.2,0.1,0.2c0.1,0.1,2.5,0.9,2.5,0.9
					c-0.1,0-0.1,0.2-0.1,0.2l0,0.4c-0.1,0-2.3,0.7-2.3,0.7c-0.1,0.1-0.1,0.1-0.2,0.2c-0.3-0.2-0.7-0.3-0.9-0.1
					c-0.1,0.1-0.2,0.3-0.2,0.4c0,0-0.1,0-0.1,0c-0.1,0-1.6,0.5-1.6,0.5l-0.1,0l0,0.1c0.1,0.2-0.1,0.3-0.2,0.3
					c-0.2,0.1-0.5,0-0.5-0.2l0-0.1l-2.5,0.8c-0.1,0.1-0.1,0.2-0.2,0.2c-0.2-0.1-0.4-0.2-0.6-0.1c-0.1,0.1-0.2,0.2-0.2,0.4
					c-0.1-0.1-0.3-0.1-0.3-0.1c-0.1,0-1.9,0.6-2.4,0.7c-0.4-1.4-0.6-2.8-0.6-4.2c0-1.3,0.2-2.7,0.5-4.1c0.3,0.1,2.2,0.7,2.2,0.7
					c0.1,0,0.3-0.1,0.4-0.2C111.6,160.6,111.7,160.7,111.8,160.8 M124.2,150c-0.1,0.1-0.2,0.2-0.3,0.4c0,0,0,0,0,0.1
					c0,0.2,0.1,0.3,0.3,0.5c-0.1,0-0.1,0.1-0.2,0.1l0,2.6v0.1h0.1c0.2,0,0.3,0.2,0.3,0.4c0,0.1,0,0.3-0.2,0.3h-0.1v1.7
					c0,0.1,0.1,0.2,0.2,0.3c-0.2,0.1-0.4,0.1-0.4,0.3c0,0.1,0,0.1,0,0.2c0,0.2,0.1,0.5,0.4,0.7l-0.1,0.1l0,2.6l-0.6,0.2l-1.4-2
					c-0.1,0-0.2-0.1-0.3-0.1c0-0.1,0.1-0.2,0.1-0.3c0-0.3-0.1-0.5-0.2-0.6c-0.1-0.1-0.3-0.1-0.5-0.1c0-0.1,0-0.2,0-0.2
					c0-0.1-0.9-1.3-0.9-1.3l-0.1-0.1l-0.1,0.1c-0.2,0.1-0.3,0-0.4-0.1c-0.1-0.1-0.1-0.2-0.1-0.3c0-0.1,0-0.2,0.1-0.2l0.1-0.1
					l-1.6-2.1c-0.1,0-0.2-0.1-0.3-0.1c0,0,0-0.1,0-0.1c0-0.2-0.1-0.3-0.2-0.5c-0.1-0.1-0.3-0.2-0.4-0.2c0-0.1,0-0.2,0-0.2
					c0-0.1-1.2-1.7-1.4-2c2.4-1.5,5.1-2.4,7.9-2.6v2.4C124,149.8,124.1,149.9,124.2,150 M116.2,153.6c0.1,0.2,0.3,0.2,0.5,0.3
					c0,0.1,0,0.2,0,0.2c0,0.1,1.5,2.1,1.5,2.1l0.1,0.1l0.1-0.1c0.1-0.1,0.2,0,0.3,0c0.2,0.1,0.3,0.2,0.3,0.4c0,0,0,0,0,0
					c0,0.1,0,0.1-0.1,0.2l-0.1,0.1l1,1.4c0.1,0,0.2,0.1,0.3,0.1c-0.1,0.1-0.2,0.2-0.2,0.3c0,0.1,0,0.1,0,0.2
					c0.1,0.2,0.4,0.5,0.8,0.5c0,0,0,0.1,0,0.1c0,0.1,1.3,1.9,1.5,2.1c-0.1,0.1-0.2,0.4-0.3,0.5l-2.3-0.7c-0.1,0-0.2,0-0.3,0.1
					c-0.1-0.4-0.4-0.6-0.7-0.6c-0.2,0-0.3,0.1-0.4,0.3l-0.1-0.2c-0.1-0.1-1.5-0.5-1.5-0.5l-0.1,0l0,0.1c-0.1,0.2-0.2,0.2-0.4,0.1
					c-0.2-0.1-0.4-0.3-0.3-0.4l0-0.1l-2.5-0.8c-0.1,0-0.2,0.1-0.3,0.1c-0.1-0.2-0.2-0.4-0.4-0.4c-0.2,0-0.3,0-0.4,0.1l-0.1-0.3
					c-0.1-0.1-1.9-0.7-2.3-0.8c1-2.6,2.7-4.9,4.8-6.8l1.4,1.9c0.1,0,0.2,0.1,0.3,0.1c0,0,0,0.1,0,0.1
					C116.1,153.4,116.1,153.5,116.2,153.6 M138.3,167.1c-0.2-0.1-0.4,0-0.6,0.1l-0.1-0.2c-0.1-0.1-2.5-0.8-2.5-0.8l-0.1,0l0,0.1
					c0,0.1-0.1,0.2-0.2,0.2c-0.2,0-0.4,0-0.5-0.1c-0.1-0.1-0.1-0.1,0-0.2l0-0.1l-1.6-0.5c-0.1,0-0.2,0-0.2,0.1
					c0-0.2-0.1-0.4-0.2-0.4c-0.2-0.1-0.6-0.1-0.9,0.1c0-0.1-0.1-0.2-0.1-0.2c-0.1-0.1-2.5-0.9-2.5-0.9c0.1,0,0.1-0.2,0.1-0.2
					s0-0.4,0-0.4c0.1,0,2.3-0.7,2.3-0.7c0.1,0,0.1-0.1,0.2-0.2c0.3,0.2,0.7,0.3,0.9,0.1c0.2-0.1,0.2-0.3,0.2-0.4l0.1,0
					c0.1,0,1.6-0.5,1.6-0.5l0.1,0l0-0.1c0-0.1,0-0.2,0-0.2c0.1-0.1,0.3-0.2,0.5-0.1c0.1,0,0.2,0.1,0.2,0.2l0,0.1l2.5-0.8
					c0.1-0.1,0.1-0.2,0.2-0.2c0.2,0.1,0.4,0.2,0.6,0.1c0.1-0.1,0.2-0.2,0.3-0.4l0.3,0.1c0.1,0,1.9-0.6,2.4-0.7
					c0.4,1.4,0.6,2.8,0.6,4.2c0,1.3-0.3,2.7-0.7,4l-2.1-0.7c-0.1,0-0.3,0.1-0.4,0.2C138.5,167.3,138.4,167.1,138.3,167.1 M126,149.8
					l0-2.5c2.8,0.2,5.5,1,7.9,2.5l-1.4,1.9c0,0,0,0.1,0,0.1c0,0.1,0,0.2,0,0.3c-0.2,0-0.3,0.1-0.4,0.2c-0.1,0.1-0.2,0.3-0.2,0.5
					c0,0,0,0.1,0,0.1c-0.1,0-0.2,0-0.2,0c-0.1,0.1-1.6,2.1-1.6,2.1l-0.1,0.1l0.1,0.1c0.1,0.1,0.1,0.1,0.1,0.2l0,0
					c0,0.2-0.1,0.3-0.3,0.4c-0.1,0-0.1,0-0.2,0l-0.1-0.1l-1,1.4c0,0,0,0.2,0,0.3c-0.2,0-0.4,0-0.5,0.1c-0.2,0.1-0.3,0.4-0.2,0.6
					c0,0.1,0,0.2,0.1,0.3l-0.2,0c-0.1,0.1-1.4,1.8-1.5,2c-0.1,0-0.4-0.1-0.6-0.2v-2.4c0-0.1-0.1-0.2-0.2-0.2
					c0.3-0.2,0.4-0.5,0.4-0.7c0-0.1,0-0.1,0-0.2c0-0.2-0.2-0.2-0.4-0.3l0.1-0.2l0-1.6v-0.1h-0.1c-0.2,0-0.2-0.2-0.2-0.3
					c0-0.2,0.1-0.4,0.3-0.4h0.1v-2.6c-0.1-0.1-0.1-0.2-0.2-0.2c0.1-0.1,0.3-0.3,0.3-0.5l0-0.1c0-0.2-0.1-0.3-0.3-0.4L126,149.8
					 M138.2,158.5c-0.1,0.1-0.2,0.2-0.2,0.3c-0.1-0.1-0.3-0.2-0.4-0.1c-0.2,0-0.3,0.2-0.4,0.4c-0.1,0-0.2-0.1-0.2-0.1
					c-0.1,0-2.5,0.8-2.5,0.8l-0.1,0l0,0.1c0,0.1,0,0.2-0.1,0.3c-0.1,0.1-0.3,0.2-0.4,0.2c-0.1,0-0.1-0.1-0.2-0.1l0-0.1l-1.6,0.5
					c-0.1,0.1-0.1,0.2-0.2,0.3c-0.1-0.1-0.2-0.3-0.4-0.3c-0.3,0-0.5,0.2-0.7,0.6l-0.2-0.1c-0.1,0-2.2,0.7-2.4,0.8l-0.4-0.5l1.4-2
					c0,0,0-0.1,0-0.1c0-0.1,0-0.1,0-0.2c0.4,0,0.7-0.2,0.8-0.5c0-0.1,0-0.1,0-0.2c0-0.1-0.1-0.2-0.2-0.3l0.2-0.1
					c0.1-0.1,1-1.3,1-1.3l0.1-0.1l-0.1-0.1c-0.1,0-0.1-0.1-0.1-0.2l0,0c0-0.1,0.1-0.3,0.3-0.4c0.1,0,0.2-0.1,0.3,0l0.1,0.1l1.6-2.1
					c0,0,0-0.1,0-0.1c0-0.1,0-0.1,0-0.2c0.2,0,0.4-0.1,0.5-0.3c0.1-0.1,0.1-0.2,0.1-0.3c0,0,0-0.1,0-0.1l0.3,0
					c0.1-0.1,1.2-1.6,1.5-2c2.2,1.8,3.9,4.1,4.9,6.7L138.2,158.5 M125.9,177.8c0.1-0.1,0.2-0.2,0.3-0.4c0,0,0,0,0-0.1
					c0-0.2-0.1-0.3-0.3-0.5l0.1-0.1l0-2.6v-0.1h-0.1c-0.2,0-0.3-0.2-0.3-0.4c0-0.1,0-0.3,0.2-0.3h0.1v-1.7c-0.1-0.1-0.1-0.2-0.2-0.3
					c0.2-0.1,0.4-0.1,0.4-0.3c0-0.1,0-0.1,0-0.2c0-0.2-0.1-0.5-0.4-0.7c0.1-0.1,0.1-0.1,0.1-0.1s0-2.4,0-2.6l0.6-0.2
					c0.1,0.2,1.4,2,1.4,2c0.1,0,0.2,0.1,0.3,0.1c0,0.1-0.1,0.2-0.1,0.3c0,0.3,0.1,0.5,0.3,0.6c0.1,0.1,0.3,0.1,0.5,0.1l0,0.2
					c0,0.1,0.9,1.3,0.9,1.3l0.1,0.1l0.1-0.1c0.1-0.1,0.1-0.1,0.2,0c0.1,0.1,0.2,0.2,0.3,0.4l0,0c0,0.1,0,0.2-0.1,0.2l-0.1,0.1
					l1.6,2.1c0.1,0,0.2,0.1,0.3,0.1c0,0,0,0.1,0,0.1c0,0.2,0.1,0.3,0.2,0.5c0.1,0.1,0.3,0.2,0.4,0.2c0,0.1,0,0.3,0,0.3
					c0,0.1,1.1,1.6,1.3,1.9c-2.3,1.6-5,2.5-7.8,2.7v-2.4C126.1,178.1,126,177.9,125.9,177.8 M133.9,174.2c-0.1-0.2-0.3-0.2-0.5-0.3
					l0-0.2c0-0.1-1.5-2.1-1.5-2.1l-0.1-0.1l-0.1,0.1c-0.1,0.1-0.2,0-0.3,0c-0.2-0.1-0.3-0.2-0.3-0.4v0c0-0.1,0-0.1,0.1-0.2l0.1-0.1
					l-1-1.4c-0.1,0-0.2-0.1-0.3-0.1c0.1-0.1,0.2-0.2,0.2-0.3c0-0.1,0-0.1,0-0.2c-0.1-0.2-0.4-0.5-0.8-0.5l0-0.1
					c0-0.1-1.3-1.9-1.5-2.1c0.1-0.1,0.3-0.4,0.3-0.5c0.2,0.1,2.3,0.8,2.3,0.8c0.1,0,0.2,0,0.3-0.1c0.1,0.4,0.4,0.6,0.7,0.6
					c0.2,0,0.3-0.1,0.4-0.3l0.1,0.2c0.1,0.1,1.5,0.5,1.5,0.5l0.1,0l0-0.1c0.1-0.2,0.3-0.2,0.4-0.1c0.2,0.1,0.4,0.3,0.3,0.4l0,0.1
					l2.5,0.8c0.1,0,0.2-0.1,0.3-0.1c0.1,0.2,0.2,0.4,0.4,0.4c0.2,0,0.3,0,0.4-0.1l0.1,0.3c0.1,0.1,1.8,0.6,2.2,0.8
					c-1.1,2.6-2.7,4.8-4.8,6.7c-0.2-0.2-1.3-1.8-1.3-1.8c-0.1,0-0.2-0.1-0.3-0.1c0,0,0-0.1,0-0.1C134,174.4,134,174.3,133.9,174.2
					 M148.7,170.5l-0.2-0.2c-0.3-0.4-2-1-3.2-0.7l-0.3-0.3c-0.2-0.1-0.4-0.2-0.6-0.2c0.5-1.7,0.7-3.4,0.8-5.1v0
					c0-1.8-0.3-3.6-0.7-5.3l0.5-0.2c0.1,0,0.3-0.3,0.4-0.3c1.2,0.3,2.8-0.4,3.2-0.8l0.2-0.2c0.3-0.3,0.5-0.5,0.3-1.1
					c-0.2-0.6-0.6-0.7-0.9-0.7l-0.2,0c-0.5-0.1-2.2,0.3-3,1.2l-0.4-0.1c-0.2,0-0.4,0.1-0.5,0.2c-1.3-3.3-3.4-6.2-6.2-8.5l0.3-0.4
					c0-0.1,0.1-0.4,0.1-0.5c1.1-0.4,2.1-2,2.1-2.5l0-0.2c0-0.1,0-0.2,0-0.3c0-0.3-0.1-0.5-0.4-0.8c-0.5-0.4-0.9-0.2-1.2,0l-0.2,0.1
					c-0.5,0.2-1.6,1.6-1.7,2.8l-0.4,0.2c-0.1,0.1-0.2,0.3-0.3,0.4c-3-1.9-6.4-3-10-3.2v-0.5c0-0.1-0.2-0.4-0.2-0.5
					c0.3-0.5,0.5-1.3,0.5-2c0-0.6-0.1-1.1-0.2-1.3l-0.1-0.2c-0.2-0.3-0.3-0.7-1-0.7c-0.6,0-0.8,0.4-1,0.7l-0.1,0.2
					c-0.1,0.2-0.2,0.7-0.2,1.3c0,0.7,0.1,1.4,0.5,2c-0.1,0.1-0.1,0.3-0.2,0.4c0,0,0,0.4,0,0.6c-3.6,0.2-7,1.3-10,3.3l-0.3-0.4
					c-0.1-0.1-0.3-0.2-0.4-0.2c-0.1-1.2-1.2-2.6-1.7-2.8l-0.2-0.1c-0.3-0.2-0.7-0.3-1.2,0c-0.3,0.3-0.4,0.5-0.4,0.8
					c0,0.1,0,0.2,0,0.4l0,0.2c0,0.5,1,2,2.1,2.5l0.1,0.4c0.1,0.2,0.2,0.3,0.3,0.5c-2.8,2.2-4.9,5.2-6.1,8.5l-0.5-0.2
					c-0.1,0-0.4,0-0.5,0.1c-0.8-0.9-2.5-1.4-3-1.2c-0.1,0-0.1,0-0.2,0c-0.4,0.1-0.8,0.1-0.9,0.7c-0.2,0.6,0.1,0.9,0.4,1.1l0.2,0.2
					c0.3,0.4,2,1,3.1,0.8l0.3,0.3c0,0,0.4,0.1,0.5,0.2c-0.5,1.7-0.7,3.4-0.7,5.2c0,1.8,0.3,3.5,0.7,5.3c-0.2,0-0.5,0.2-0.5,0.2
					c-0.1,0-0.3,0.3-0.4,0.3c-1.1-0.3-2.8,0.4-3.1,0.7l-0.2,0.2c-0.3,0.3-0.5,0.5-0.3,1.1c0.2,0.6,0.6,0.7,0.9,0.7l0.2,0
					c0.5,0.1,2.2-0.3,3-1.2c0.1,0,0.4,0.1,0.4,0.1c0.1,0,0.4-0.1,0.5-0.2c1.3,3.3,3.4,6.2,6.2,8.5l-0.3,0.4c0,0.2-0.1,0.3-0.1,0.5
					c-1.1,0.5-2.1,2-2.1,2.5l0,0.2c0,0.1,0,0.2,0,0.4c0,0.3,0.1,0.5,0.4,0.8c0.5,0.4,0.9,0.2,1.2,0l0.2-0.1c0.5-0.2,1.6-1.6,1.7-2.8
					c0.1,0,0.4-0.2,0.4-0.2c0,0,0.2-0.3,0.3-0.4c3,1.9,6.4,3,10,3.2v0.5c0,0.1,0.2,0.4,0.2,0.4c-0.3,0.5-0.5,1.3-0.5,2
					c0,0.6,0.1,1.1,0.2,1.3l0.1,0.2c0.2,0.3,0.3,0.7,1,0.7s0.8-0.4,1-0.7l0.1-0.2c0.1-0.2,0.2-0.7,0.2-1.3c0-0.7-0.1-1.4-0.5-2
					l0.2-0.4l0-0.6c3.6-0.2,7.1-1.3,10-3.2l0.3,0.4c0,0,0.3,0.2,0.4,0.2c0.1,1.2,1.2,2.6,1.7,2.8c0,0,0.2,0.1,0.2,0.1
					c0.3,0.2,0.7,0.3,1.2,0c0.3-0.2,0.4-0.5,0.4-0.8c0-0.1,0-0.2,0-0.4l0-0.2c0-0.5-1-2-2.1-2.5l-0.1-0.4c-0.1-0.1-0.2-0.3-0.3-0.4
					c2.7-2.2,4.8-5.2,6-8.6l0.5,0.2c0.1,0,0.4,0,0.5-0.1c0.8,0.9,2.5,1.4,3,1.2l0.2,0c0.3-0.1,0.7-0.1,0.9-0.7
					C149.2,171,148.9,170.7,148.7,170.5"/>
			</g>
			<g>
				<path class="st3" d="M125,99.6c-1.6,0-2.9-1.3-2.9-2.9c0-1.6,1.4-2.9,3-2.8c1.5,0,2.8,1.3,2.8,2.8C128,98.3,126.7,99.6,125,99.6
					 M145,121.9l-9.6,5.7c0,0,2.3,0.4,2.9,0.5l-0.1,0.9l-0.2,1c0,0-0.3,0.8-0.3,0.8c0,0-0.4,0.8-0.4,0.8c0,0-0.5,0.7-0.5,0.7
					c0,0-0.5,0.6-0.5,0.7c0,0-0.6,0.6-0.6,0.6l-0.7,0.6l-0.6,0.5c0,0-0.7,0.5-0.7,0.5c-0.3,0.1-0.5,0.3-0.8,0.4l-0.8,0.4l-0.7,0.3
					c0,0-0.8,0.3-0.8,0.3l-0.8,0.3c0,0-0.1,0-0.2,0v-25.7h17.7v-7.3h-16c2-1.8,3.3-4.4,3.3-7.2c0-5.4-4.4-9.8-9.8-9.8
					c-5.4,0-9.8,4.4-9.8,9.8c0,2.8,1.2,5.4,3.3,7.2h-16v7.3h17.4v25.7c-0.6-0.1-1.4-0.2-1.4-0.2c0,0-0.8-0.3-0.8-0.3l-0.9-0.4
					c0,0-0.7-0.4-0.7-0.4c0,0-0.7-0.5-0.7-0.5c0,0-0.7-0.5-0.8-0.5c0,0-0.5-0.6-0.5-0.6l-0.6-0.7c0,0-0.4-0.7-0.5-0.7
					c0,0-0.4-0.7-0.4-0.8l-0.3-0.8l-0.3-0.8c0,0-0.2-0.8-0.2-0.8c0,0-0.1-0.8-0.1-0.8l0-0.6l3-0.5l-9.6-5.7l-6.3,8.6l3.1-0.5
					l0.3,2.5c0,0.1,0.7,2,0.7,2c0,0.1,1,1.7,1,1.7c0,0.1,1.2,1.5,1.2,1.5c0,0.1,1.5,1.4,1.5,1.4c0,0,1.6,1.2,1.6,1.2
					c0,0,1.7,1.1,1.7,1.1l1.9,1.1l1.8,1l1.9,1l1.9,1l1.8,1l1.8,1c0,0,1.5,1.2,1.5,1.2c0,0,1.4,1.2,1.4,1.2l1,1c0,0,2.5-2.2,2.5-2.2
					c0,0,1.6-1.1,1.6-1.1c0,0,1.7-1,1.7-1l1.8-0.9l1.9-0.9c0,0,1.9-1,1.9-1c0,0,1.8-1,1.8-1c0,0,1.8-1,1.8-1c0,0,1.7-1.1,1.7-1.1
					c0,0,1.6-1.3,1.6-1.3c0,0,1.4-1.5,1.4-1.5c0-0.1,1.2-1.6,1.2-1.6l1-1.9c0-0.1,0.6-2.1,0.6-2.1c0-0.1,0.4-2.3,0.4-2.3l0-0.1
					l3.4,0.6L145,121.9z"/>
			</g>
			<g>
				<path class="st0" d="M125,100.6c-2.2,0-4-1.8-4-4c0-2.2,1.8-4,4-4c2.2,0,4,1.8,4,4C129,98.9,127.2,100.6,125,100.6 M130.2,145.8
					l1.9-1l1.9-0.9l1.9-1l1.8-1l1.8-1c0,0,1.7-1.1,1.7-1.1c0,0,1.5-1.2,1.5-1.2c0,0,1.3-1.4,1.3-1.4c0,0,1.1-1.5,1.1-1.5
					c0,0,0.9-1.7,1-1.7c0,0,0.6-1.9,0.6-1.9l0.4-2.3l0.3-1.1l0.7,0.1l1.1,0.2c-1.1-1.4-3.8-5.2-4.2-5.8l-6.3,3.7l1.1,0.2
					c0,0-0.2,1.9-0.2,1.9c0,0-0.2,1-0.2,1.1c0,0-0.3,0.9-0.3,0.9c0,0-0.4,0.9-0.4,0.9c0,0-0.5,0.8-0.5,0.9l-0.6,0.7
					c0,0-0.6,0.6-0.6,0.7c0,0-0.7,0.6-0.7,0.7l-0.7,0.6c0,0-0.7,0.5-0.8,0.5c0,0-0.8,0.4-0.8,0.5l-0.8,0.4l-0.8,0.4l-0.8,0.3
					c0,0-0.8,0.3-0.9,0.3l-1.4,0.2v-28h17.7v-5.3h-18l1.4-1c2.5-1.6,3.9-4.4,3.9-7.3c0-4.8-3.9-8.8-8.8-8.8c-4.8,0-8.8,3.9-8.8,8.8
					c0,2.9,1.5,5.7,3.9,7.3l1.4,1h-18v5.3H121v28l-0.6-0.1c0,0-2-0.3-2.1-0.3l-1-0.3c0,0-0.9-0.4-1-0.4c0,0-0.8-0.5-0.9-0.5
					l-0.7-0.6c0,0-0.7-0.5-0.8-0.6l-0.6-0.7c0,0-0.6-0.7-0.6-0.7c0,0-0.5-0.7-0.5-0.8l-0.4-0.8c0,0-0.3-0.8-0.4-0.8l-0.3-0.9
					c0,0-0.2-0.9-0.3-0.9l-0.1-0.9c0,0-0.1-0.9-0.1-1v-0.2l0.1-0.5l1-0.2c-1.6-1-5.7-3.4-6.3-3.7l-4.2,5.8l1.1-0.2l0.6-0.1l0.1,0.5
					c0,0,0.3,2.9,0.3,3v0c0.2,0.6,0.4,1.2,0.6,1.8c0,0,0.9,1.6,0.9,1.6c0,0,1.1,1.4,1.1,1.4c0,0,1.4,1.3,1.4,1.3l1.5,1.2l1.7,1.1
					l1.8,1l1.8,1l1.9,1l1.9,1l1.8,1c0,0,1.8,1,1.9,1.1l1.6,1.2l1.7,1.6c0.6-0.5,1.9-1.6,1.9-1.6c0,0,1.6-1.2,1.7-1.2
					C128.4,146.9,130.2,145.8,130.2,145.8"/>
			</g>
			<g>
				<path class="st0" d="M100.8,51.2c0-1.1,0.1-2.2,1.1-2.9h-7.1c1,0.7,1.1,1.8,1.1,2.9v12.2c0,1.1-0.1,2.2-1.1,2.9h7.1
					c-1-0.7-1.1-1.8-1.1-2.9V51.2z"/>
			</g>
			<g>
				<path class="st0" d="M129.2,58h0.8c2,0,4.6,0.1,5,1h0v-3.7c0,0,0,0,0,0c-0.2,0.1-0.5,0.1-1,0.1h-4.7v-4.6h1.4c1.7,0,5,0,5.9,1.1
					v-3.8c-0.3,0.2-0.7,0.2-1.1,0.2h-12.1c1,0.7,1.1,1.7,1.1,2.9v12.2c0,1.1-0.1,2.2-1.1,2.9h7.2c-1.2-1.1-1.2-2.4-1.2-3.9V58z"/>
			</g>
			<g>
				<path class="st0" d="M149,63.9c-3.8,0-6-2.6-6-7c0-4.2,1.7-6.4,4.9-6.4c1.6,0,3.1,0.5,4.5,1.4l-0.2-3.6l-4.1-0.3
					c-3.1,0-5.8,0.9-7.6,2.4c-1.8,1.6-3,4.2-3,6.8c0,2.8,1.1,5.4,3.2,7.1c1.9,1.7,4,2.3,7.3,2.3c2.1,0,3.8-0.2,5.4-0.6l1.3-3.8
					C153.2,63,151.2,63.9,149,63.9"/>
			</g>
			<g>
				<path class="st0" d="M120,51.2c0-1.1,0.1-2.2,1.1-2.9h-7.1c1,0.7,1.1,1.8,1.1,2.9v9c0,0.9,0,1.8-0.6,2.6
					c-0.4,0.6-1.1,0.9-1.9,0.9h-0.3c-0.7,0-1.4-0.3-1.9-0.9c-0.6-0.8-0.6-1.7-0.6-2.6v-8.9c0-1.1,0.1-2.2,1.1-2.9H104
					c1,0.7,1.1,1.8,1.1,2.9l0,9.6c0,1.7,0.1,3,1.3,4.2c1.2,1.3,2.8,1.5,4,1.5h4.5c1.1,0,2.7-0.3,3.9-1.5c1.2-1.2,1.3-2.5,1.3-4.2
					L120,51.2z"/>
			</g>
		</g>
	</g>
</g>
<g id="레이어_1">
	<rect x="8" y="8" class="st4" width="234" height="234"/>
</g>
<g id="_레이어_2">
</g>
</svg>
