<?xml version="1.0" encoding="utf-8"?>
<!-- Generator: Adobe Illustrator 25.1.0, SVG Export Plug-In . SVG Version: 6.00 Build 0)  -->
<svg version="1.1" id="Layer_1" xmlns="http://www.w3.org/2000/svg" xmlns:xlink="http://www.w3.org/1999/xlink" x="0px" y="0px"
	 viewBox="0 0 250 250" style="enable-background:new 0 0 250 250;" xml:space="preserve">
<style type="text/css">
	.st0{fill:#FFDB00;}
	.st1{fill:#231916;}
	.st2{clip-path:url(#SVGID_2_);}
	.st3{clip-path:url(#SVGID_4_);}
	.st4{fill:#00509E;}
	.st5{fill:none;}
</style>
<g id="Layer_1_1_">
	<g>
		<g>
			<path class="st0" d="M190.5,125c0,49.9-29.4,90.4-65.5,90.4S59.5,174.9,59.5,125S88.8,34.6,125,34.6S190.5,75.1,190.5,125"/>
		</g>
		<g>
			<path class="st1" d="M181.8,125c0,45.8-26.2,82.9-58.6,82.9S64.7,170.8,64.7,125s26.2-82.9,58.6-82.9S181.8,79.2,181.8,125"/>
		</g>
		<g>
			<g>
				<defs>
					<path id="SVGID_1_" d="M181.8,125c0,45.8-26.2,82.9-58.6,82.9S64.7,170.8,64.7,125s26.2-82.9,58.6-82.9S181.8,79.2,181.8,125"
						/>
				</defs>
				<clipPath id="SVGID_2_">
					<use xlink:href="#SVGID_1_"  style="overflow:visible;"/>
				</clipPath>
				<g class="st2">
					<g>
						<defs>
							<path id="SVGID_3_" d="M28.8,128.1C28.8,54.2,71-5.6,123.3-5.6s94.5,60,94.5,133.7c0,73.9-42.3,133.7-94.5,133.7
								S28.8,202,28.8,128.1"/>
						</defs>
						<clipPath id="SVGID_4_">
							<use xlink:href="#SVGID_3_"  style="overflow:visible;"/>
						</clipPath>
						<g transform="matrix(1.613 0 0 -1.613 -146.541 823.007)" class="st3">
							<path class="st4" d="M140.9,380.2h-7.9v105.2h7.9V380.2z M157.2,380.2h-7.9v105.2h7.9V380.2z M173.3,380.2h-7.9v105.2h7.9
								V380.2z M189.6,380.2h-7.9v105.2h7.9V380.2z M205.8,380.2h-7.9v105.2h7.9V380.2z"/>
						</g>
					</g>
				</g>
			</g>
			<g>
				<path class="st0" d="M114.6,191.8l-1.2-0.2l0.2-0.4l1.5-2.5l0.1-0.2c0.4-0.8,0.9-1.6,0.9-2.5c0-1.4-1.4-2.2-2.7-2.2
					c-0.8,0-1.5,0.2-2.3,0.5l-0.5,1.6c0.5-0.4,1.2-0.8,2-0.8c0.6,0,1,0.4,1,1c0,0.5-0.4,1.2-0.5,1.5l-1,1.9l-2,3.2h6.2l0.5-1.7
					C116.2,191.6,115.5,191.8,114.6,191.8"/>
			</g>
			<g>
				<path class="st0" d="M120.9,191.8c-1.2,0-1.2-2.2-1.2-2.9c0-0.8,0-1.6,0.2-2.3c0.2-0.5,0.5-1,1.1-1c1.2,0,1.2,2.2,1.2,2.9
					C122.2,189.1,122.1,191.8,120.9,191.8 M124.4,188.6c0-1.3-0.3-2.3-0.9-3.2c-0.6-0.9-1.5-1.3-2.6-1.3c-1.1,0-2.2,0.6-2.8,1.5
					c-0.5,0.9-0.8,1.9-0.8,3s0.3,2.3,0.9,3.1c0.6,0.9,1.6,1.4,2.6,1.4c1,0,2-0.6,2.6-1.5C124.2,190.6,124.4,189.5,124.4,188.6"/>
			</g>
			<g>
				<path class="st0" d="M128.9,191.8c-1.2,0-1.2-2-1.2-2.9c0-0.8,0-1.6,0.2-2.3c0.2-0.5,0.5-1,1.1-1c1.2,0,1.2,2.2,1.2,2.9
					C130.3,189.1,130.1,191.8,128.9,191.8 M132.4,188.6c0-1.3-0.3-2.3-0.9-3.2c-0.6-0.9-1.5-1.3-2.6-1.3c-1.1,0-2.2,0.6-2.8,1.5
					c-0.5,0.9-0.8,1.9-0.8,3s0.3,2.3,0.9,3.1c0.6,0.9,1.6,1.4,2.6,1.4c1,0,2-0.6,2.6-1.5C132.3,190.6,132.4,189.5,132.4,188.6"/>
			</g>
			<g>
				<path class="st0" d="M137.4,188l-0.3-0.1l0.3-0.1c0.9-0.2,1.5-0.9,1.5-1.8c0-0.6-0.4-1.2-1.1-1.5c-0.5-0.3-1.2-0.5-1.9-0.5
					s-1.5,0.1-2.2,0.2l-0.4,1.3c0.5-0.2,1.1-0.5,1.7-0.5c0.7,0,1.4,0.3,1.4,1.2c0,1.3-1.5,1.3-2,1.3h-0.2v1h0.5c0.5,0,1.1,0,1.5,0.4
					c0.4,0.3,0.5,0.7,0.5,1.2c0,1-0.8,1.8-1.9,1.8c-0.6,0-1.4-0.2-2-0.5c0.1,0.3,0.3,1.2,0.3,1.4l0,0c0.7,0.2,1.3,0.2,2,0.2
					c1.9,0,3.9-0.9,3.9-2.9C139.4,189.1,138.6,188.3,137.4,188"/>
			</g>
			<g>
				<path class="st0" d="M110.3,145.2c-1.9,2.8-6.5,4.1-6.5,4.2c-2.9,0.4-8.5-0.6-8.5-0.6c-6.1-0.2-2.1-2-2.1-2
					c-7.5,0.3-2.8-1.5-2.8-1.5c-9.6,1.1,1.5-3.2,1.5-3.2c-17.7,2.5-4.2-1.7-4.2-1.7c-21-0.9-4.4-2.6-4.4-2.6
					c-17.7-2.9-8.8-3.5-8.8-3.5c-10.3-3.8,3.2-2.8,3.2-2.8c-6.3-2.5-8.5-6.3-8.5-6.3c-1.5-3.4,1.5-1,1.5-1c1.5,1.6,5.1,2.9,5.1,2.9
					c-6-3.9-7.6-7.4-7.6-7.4c-0.5-2.8,1.5-0.1,1.5-0.1c3.2,3.7,9.2,5.8,9.2,5.8c-9.9-8.8-10.2-12.8-10.2-12.8
					c0.2-3.4,2.4-0.2,2.4-0.2c3.7,5.6,5.7,6,5.7,6c-7.7-10.4-7-12.4-7-12.4c1.2-2.7,2.6,0.7,2.6,0.7c4.2,7.9,7.3,9.5,7.3,9.5
					l-3.7-6.1c-4.5-6.7-4.3-10-4.3-10c0-2.1,1.5-1.3,1.5-1.3l-0.7-1.5c-0.8-3.3,2.7-2,2.7-2l-0.4-1c-0.2-8.1,2.9-8.5,2.9-8.5
					c2.7,0.2,1.6,3.6,1.6,3.6c-0.5,1.2-0.5,5-0.5,5c2.7,8.4,17.7,20.2,17.7,20.2c10.2,7.8,17.4,21.5,17.4,21.5l1.9,7.6
					C115.6,143.6,112.2,142.2,110.3,145.2"/>
			</g>
			<g>
				<path class="st4" d="M90.8,146.5c0,0-3.4,0.1-0.1-1c0,0,4.5-1.2,6.6-2.1c0,0-0.2,1.5,1.6,1.4C99,144.8,95.8,146.9,90.8,146.5
					 M87.5,145.2c-3.1,0.1,2.9-2.2,2.9-2.2c2-0.9,3.4-1.4,4-1.6c0.2,0.9,2.6,1.5,2.6,1.5c-0.7,0.3-3.9,1.5-3.9,1.5
					C91.5,145.1,87.5,145.2,87.5,145.2 M84.9,142.5c-4.6,0.4,1.5-1.5,1.5-1.5c3.2-1.4,7-1.5,7-1.5c0.1,0.4,1,0.9,1.2,1.2
					c-0.2,0.2-0.5,0.4-0.5,0.4C91.9,142.1,84.9,142.5,84.9,142.5 M79.9,139.6c0,0-5.7-0.7-0.2-1c0,0,3.2-0.6,4.9-0.7
					c0,0,8,0.4,8.9,0.6c0,0-0.5,0.2-0.7,0.5C92.9,139.1,87.3,140.5,79.9,139.6 M74.5,135.7c0,0-3.6-0.4,0.5-1.1c0,0,3.5,1.1,8.7,1.5
					c0,0,5.6,0.9,9,0.5l0.7,1.5C93.3,138.1,78.6,137.5,74.5,135.7 M73.1,133.3c0,0-3.8-1.5-0.6-1.6l6.6,0.2c0,0,1.7,0.2,1.5,0.1
					c0,0,2.6,0.5,4,0.2H85c0,0,3.9,2.1,7.7,2.7c0,0-0.2,0.8,0.1,1.3c0,0-2.2-0.1-3.5,0.1C89.3,136.1,78.9,135.9,73.1,133.3
					 M69.4,125.1c0,0-0.8-2.2,0.8-1.2c0,0,5.3,4.6,10,5.3c0,0,0.9,0.5,1.1,0.5c0,0,2.6,1.6,2.9,1.8c0,0-6.3-0.4-6.2-0.2
					C78,131.4,71.6,129,69.4,125.1 M68.9,120.2c0,0-1.3-2.7,0.5-0.9c0,0,2.2,2.9,6.7,5.1c0,0,3.2,1.4,4.5,2.1c0,0,1.8,1.4,2.1,1.4
					c0,0,2.6,2.4,10,4.6c0,0-0.2,1.2,0,1.7c0,0-6.2-1.1-11.4-4.9c0,0-0.6-0.2-1.9-0.9c0,0-0.5-0.2-0.5-0.1
					C78.9,128.5,72.1,125.6,68.9,120.2 M72.1,118c0,0-2.7-2.7-2.9-6c0,0-0.1-1.8,1.5,0.2c0,0,3.5,6,11.1,10.8l1.2,1.2
					c0,0,1.7,1.9,2.2,2.5c0.1,0,0.2,0.1,0.2,0.2c0,0,5,3.1,9,4c0,0-0.9,0.4-0.2,1.5c0,0-5.1-0.2-11-4.6c0,0-2.2-1.6-2.2-1.5
					C81,126.2,77.4,124.7,72.1,118 M71.7,110.5c-2.7-4.6-0.9-5.3-0.9-5.3c0.9-0.2,1.8,2.3,1.8,2.3c3.3,6.8,9.5,11.6,9.5,11.6
					c2.4,2,3.2,3.8,3.4,4l2.1,2.2l0.7,0.4c1.5,1,7,3.2,7,3.2c-0.5,0.3,0.1,1.2,0.1,1.2v0.4c-7.4-2.4-10.4-5.1-10.4-5.1
					c-1.2-1.6-1.1-1.2-2.4-2.5c-1.2-0.8-3.6-2.9-3.6-2.9C76.1,117.9,71.7,110.5,71.7,110.5 M74.2,106.7c-2.9-4.8-2.2-7-2.2-7
					c0.3-1.9,1.3,0.2,1.3,0.2c0.5,1,2.6,5,2.6,5c3.6,5.7,8.5,10.7,8.5,10.7c0.3,1.2,3.3,5.3,3.3,5.3c-0.1,0.1,1.1,1.2,2.9,2.2
					c0,0,2.4,1.9,6.6,3.9l-0.2,0.6c0,0,0,0.5,0.1,0.5c0,0,0.8,0.9-0.2,0.5c0,0-0.8-0.5-1.5-0.2c0,0-5.9-2.3-8.7-4.9l-1.4-2l-1.3-1.7
					c-1.4-0.9-1.2-1.2-4.3-4.1C78.7,114.4,74.2,106.7,74.2,106.7 M72.5,95.9c0,0,0.8-1.3,2.3-0.4c0,0,2.6,5.8,4.6,8
					c0,0,3.1,3,6.2,5.4c0,0,4.8,3.9,6.8,6.3c0,0,0.5,0.4,2.5,2.5c0,0,4.1,4.7,5.3,6.5c0,0-1.1,0.1-1.2,0.7c0,0-0.2,1.2,0.2,1.9
					l-1.9-0.1c0,0-7.5-4.9-7.3-4.7c0,0-2.4-2-4.7-5.6c0,0-0.3-1.1-0.5-1.2c0,0-5.9-6.3-8.5-10.7c0,0-2.6-4.8-3-5.6
					C73.5,99.1,72,96.5,72.5,95.9 M100.7,124.8l3.5,5c0.2,0.4,0.5,1.2,0.5,1.2c-0.1,0,0.9,0.9,1.8,2.6l-1.2-0.2l-0.7-0.1h-1.2
					c-0.7-0.8-2.1-2.6-2.1-2.6c-0.9-1.1-2.9-2.3-3-3.1c-0.2-0.7,1.3,0.2,1.5-0.3C99.2,124.6,100.7,124.8,100.7,124.8 M108.5,138
					c0,0-4-0.8-5.6-3.2c0,0-0.9-0.9,0.3-0.9c0,0,2.3-0.3,3.6,0.1C106.8,134,108.2,136.7,108.5,138 M108.6,139.4c0,0-2.6,0.9-6.8-1.3
					c0,0-2.2-1.7-0.5-1.9c0,0,1.3-0.4,3.2,0.7c0,0,3.5,1.5,4.1,1.7C108.5,138.5,109.1,138.9,108.6,139.4 M108.8,140.8
					c0,0-4.6,1.5-6.6-1.5c0,0-0.5-0.9,0.3-0.4c0,0,1.8,1.1,4.3,1l2.1,0.1C108.8,139.9,109,140.5,108.8,140.8 M108.5,142.2
					c-0.1,0.2-0.3,0.6-0.2,0.7c0,0-0.1,0.6-0.2,0.8c0,0-1.2,0.1-2.1-1c0,0-0.8-0.9-1.2-1.2c0,0,2.7,0.4,3.7-0.1
					C108.5,141.4,108.7,142.2,108.5,142.2 M106.3,145.5c0,0-6,0.4-5.8-1c0,0,2.6-1.2,2.6-1.2l2.1-0.8c0,0,1.3,1.1,2.1,1.4
					c0,0,0.2,0.1,0.4,0.2C107.7,144.2,107.1,145.1,106.3,145.5 M95.7,141l1.5-0.2c0,0,0,0,0.1,0l0,0c0.5-0.2,3.1-0.9,4.5-0.9
					c0,0,1.2,0.9,1.5,1.2c0,0-1.3,0.7-2.9,0.7c-0.5,0.2-0.9,0.2-1.3,0.4c-0.1,0.1-1.2,1-3.4-0.3C95.9,141.9,94,141.3,95.7,141
					 M94.7,138.8l1,0.2c0,0,1.2,1,2.7,1c0,0-1.7,0.4-2,0.6c-0.5,0.1-1.5,0-2.3-0.9C94.2,139.8,93.5,138.7,94.7,138.8 M94.6,133.2
					c0,0,0.3,0.6,0.9,1.1c0,0,0.8,0.5,1.1,0.8l3.4,1.6c0,0,0.1,0.9,0.9,1.3c-0.7-0.2-4.3-1.1-4.1-1c-1.2-0.6-4.3-2.2-3.7-3.8
					C93.2,133.1,93.7,132.3,94.6,133.2 M98.3,132.7c0.2,0.2,0.5,0.2,1,0.8c0.6,0.5,2.2,1.6,3,2.2c-1.3-0.2-2.2,0.6-2.2,0.6
					c-0.6-0.3-1.9-1-1.9-1c-2.9-1.6-3.5-2.7-3.5-2.7c-0.4-0.6-0.2-1.1-0.2-1.1C95,130.6,97,131.8,98.3,132.7 M98.1,128.9
					c-1.7-2.9,3.8,2.9,3.8,2.9l1,1.5c-1.2,0.1-1,0.9-0.5,1.5c-1.2-0.9-2.9-2-2.8-2l-3.1-2c-2.4-2.9,1.2-1.3,1.2-1.3
					C99,130.3,98.1,128.9,98.1,128.9 M93.2,135c0,0,1.2,1.2,2.7,1.8c-0.1,0,1.1,0.5,1,0.5c0.2,0.1,0.6,0.2,0.9,0.3
					c1.3,0.2,2.6,0.5,3.8,0.7c-0.1,0.2-0.3,0.6,0,1.2c0,0-4.3,0.7-5.5-1c-0.2,0-0.5,0.1-0.5,0.1s-2,0.1-2.4-2c0,0,0.3-0.3,0.2-0.5
					C93.2,135.8,93.1,135.4,93.2,135 M98,144.2c0,0-0.8-0.5,0.2-1l1.3-0.4c0,0,0.8-0.1,0.9-0.1c0,0,1-0.4,2.1-0.5c0,0,1-0.4,1.5-0.6
					l0.7,0.7c0,0-1.1,0.8-2.8,1c0,0-1.4,0.5-1.2,0.5C100.7,143.7,99.4,144.9,98,144.2 M110,145c-1.8,2.6-6.3,4-6.3,4
					c-2.8,0.4-8.3-0.6-8.3-0.6c-2.4-0.1-2.9-0.4-3.1-0.5c0.2-0.1,0.3-0.2,0.4-0.3c0,0,0.2-0.6,2.1-0.9c0,0,4-0.6,5.3-1.8
					c0,0,2.1,1.7,6.8,1.2c0,0,1-1,2.2-3.3c1.2-2.4-0.9-6.9-0.9-6.9c-1.2-3-6.3-10.3-6.3-10.3c-4.2-6.2-8.6-10.3-8.6-10.3
					c-6-6-10.6-9.2-10.6-9.2c-4.6-3.8-7.3-11.1-7.3-11.1c-1.2-3.3,0.7-7.3,0.7-7.3c0.7-2.1,2.1-1.6,2.1-1.6c1.5,0.5,1,2.6,1,2.6
					c-0.4,1.3-0.9,3.8-0.9,3.8c-0.4,4.1,4.8,9.8,4.8,9.8c2.9,3.6,13.8,13.1,13.8,13.1c8.6,7.7,12.4,13.9,12.4,13.9
					c2.1,2.8,3.4,5.2,4.2,7c0.2-0.1,0.3-0.2,0.5-0.2c-1.2-2.6-3.5-6.7-8.1-12.3c0,0-2.5-3.7-12-11.8c0,0-9.6-8-12.4-12.8
					c0,0-3.2-3.7-2.2-8.3c0,0,1.8-3.9-0.9-5.2c0,0-1.6-0.8-3,2.6c0,0-1.3,2.9-0.9,6.3c0.5,0.9-1.2,0-1.6,0.4c0,0-0.7,0.4-0.7,1.2
					c0,0-0.3,0.9,0.7,2.5c0,0-2.2-0.4-1.2,4.1c0,0,0.5,1.5,1.7,3.6l4.9,8.2c0,0,1.1,1.6-0.4,0c0,0-3.6-4.2-5.5-8.5
					c0,0-0.3-1.1-1.5-1.2c0,0-2,0.5-0.9,3.4c0,0,1.9,3.9,5,8.3c0,0,1.2,1.8-0.3,0.2l-3.5-4.5c0,0-1.1-1.6-2.2-1.1c0,0-1.7,1.9,2.4,7
					c0,0,4.3,5,6.6,6.7c0,0-4.2-0.9-8.6-5.9c0,0-1.6-1.7-1.2,0.5c0,0,0.8,3.3,7.3,7.5c0,0-1.5-0.5-3.7-2.3c0,0-3.6-3.1-2.8,0.2
					c0,0,1.4,3.9,8,6.5c0,0-12.4-0.7-2.9,2.9c0,0-8.9,1.5,9,3.7c0,0-12.8,0.8-1.9,2.5l5.8,0.2c0,0-10.5,3.3-0.5,2.5l4.4-0.6
					c0,0-10.4,4.3-1,3.2c0,0-4.3,1.5,2.9,1.6c0,0-0.9,0.7-1.2,1l0,0c-0.1,0.1-0.1,0.2,0,0.2c-0.1,0-0.1,0,0.3,0.1l0,0
					c0.3,0.3,1,0.7,3.6,0.8c0.2,0,4.8,0.9,7.8,0.7c0.1,0,0.2,0,0.2,0l0,0c0.2,0,0.3,0,0.5-0.1c0.1,0,4.9-1.4,6.7-4.3
					c1.8-2.7,4.7-1.5,4.9-1.5l0.3-0.6C115.6,143.3,112.2,141.8,110,145"/>
			</g>
			<g>
				<path class="st0" d="M139.7,145.2c1.9,2.8,6.5,4.1,6.5,4.2c2.9,0.4,8.5-0.6,8.5-0.6c6.1-0.2,2.1-2,2.1-2
					c7.5,0.3,2.8-1.5,2.8-1.5c9.6,1.1-1.4-3.2-1.4-3.2c17.7,2.5,4.2-1.7,4.2-1.7c21-0.9,4.4-2.6,4.4-2.6c17.7-2.9,8.8-3.5,8.8-3.5
					c10.3-3.8-3.2-2.8-3.2-2.8c6.3-2.5,8.5-6.3,8.5-6.3c1.5-3.4-1.5-1-1.5-1c-1.5,1.6-5.1,2.9-5.1,2.9c6-3.9,7.6-7.4,7.6-7.4
					c0.5-2.8-1.5-0.1-1.5-0.1c-3.2,3.7-9.2,5.8-9.2,5.8c9.9-8.8,10.2-12.8,10.2-12.8c-0.2-3.4-2.4-0.2-2.4-0.2c-3.7,5.6-5.7,6-5.7,6
					c7.7-10.4,7-12.4,7-12.4c-1.2-2.7-2.6,0.7-2.6,0.7c-4.2,7.9-7.3,9.5-7.3,9.5l3.7-6.1c4.5-6.7,4.3-10,4.3-10
					c0-2.1-1.5-1.3-1.5-1.3l0.7-1.6c0.8-3.3-2.7-2-2.7-2l0.4-1c0.2-8.1-2.9-8.5-2.9-8.5c-2.7,0.2-1.6,3.6-1.6,3.6
					c0.5,1.2,0.5,5,0.5,5c-2.7,8.4-17.7,20.2-17.7,20.2c-10.2,7.8-17.4,21.5-17.4,21.5l-1.9,7.6
					C134.4,143.6,137.7,142.2,139.7,145.2"/>
			</g>
			<g>
				<path class="st4" d="M171.1,128.5c-0.1-0.2-0.5,0.1-0.5,0.1c-1.3,0.7-1.9,0.9-1.9,0.9c-5.1,3.8-11.4,4.9-11.4,4.9
					c0.2-0.6,0-1.7,0-1.7c7.5-2.2,10-4.6,10-4.6c0.3-0.1,2.1-1.4,2.1-1.4c1.2-0.7,4.5-2.1,4.5-2.1c4.5-2.2,6.7-5.1,6.7-5.1
					c1.8-1.9,0.5,0.9,0.5,0.9C177.9,125.6,171.1,128.5,171.1,128.5 M179.9,123.9c1.5-1,0.8,1.2,0.8,1.2c-2.3,3.9-8.7,6.3-8.7,6.3
					c0.2-0.2-6.2,0.2-6.2,0.2c0.4-0.2,2.9-1.8,2.9-1.8c0.2,0,1.1-0.5,1.1-0.5C174.5,128.5,179.9,123.9,179.9,123.9 M177.5,131.7
					c3.2,0.1-0.6,1.6-0.6,1.6c-5.8,2.6-16.2,2.8-16.2,2.8c-1.2-0.1-3.5-0.1-3.5-0.1c0.2-0.5,0.1-1.3,0.1-1.3
					c3.8-0.5,7.7-2.7,7.7-2.7h0.5c1.4,0.3,4-0.2,4-0.2c-0.2,0.2,1.5-0.1,1.5-0.1H177.5z M175.5,135.7c-4.1,1.9-18.8,2.4-18.8,2.4
					l0.7-1.5c3.4,0.3,9-0.5,9-0.5c5.2-0.5,8.7-1.5,8.7-1.5C179.2,135.3,175.5,135.7,175.5,135.7 M170.2,138.6c5.6,0.3-0.2,1-0.2,1
					c-7.3,0.9-13-0.5-13-0.5c-0.2-0.4-0.7-0.5-0.7-0.5c0.9-0.2,8.9-0.6,8.9-0.6C167,138,170.2,138.6,170.2,138.6 M163.6,141.2
					c0,0,6,1.9,1.5,1.5c0,0-7-0.5-9.2-1.5c0,0-0.2-0.2-0.5-0.4c0.3-0.2,1.2-0.7,1.2-1.2C156.6,139.6,160.4,139.8,163.6,141.2
					 M159.5,143.1c0,0,6,2.2,2.9,2.2c0,0-4-0.2-5.6-0.8c0,0-3.2-1.2-3.9-1.5c0,0,2.4-0.6,2.6-1.5
					C156.9,141.9,158.2,142.5,159.5,143.1 M159.2,146.5c-4.9,0.4-8.1-1.7-8.1-1.7c1.8,0.1,1.6-1.4,1.6-1.4c2,0.9,6.6,2.1,6.6,2.1
					C162.6,146.5,159.2,146.5,159.2,146.5 M149.3,143.7c0.1,0-1.2-0.5-1.2-0.5c-1.7-0.3-2.8-1-2.8-1l0.7-0.7
					c0.5,0.3,1.5,0.6,1.5,0.6c1.1,0.2,2.1,0.5,2.1,0.5c0.1,0,0.9,0.1,0.9,0.1l1.3,0.4c1,0.5,0.2,1,0.2,1
					C150.6,144.9,149.3,143.7,149.3,143.7 M143.7,145.5c-0.8-0.4-1.3-1.2-1.3-1.2c0.2-0.2,0.4-0.2,0.4-0.2c0.8-0.3,2.1-1.4,2.1-1.4
					l2.1,0.8c-0.1,0,2.6,1.2,2.6,1.2C149.7,145.9,143.7,145.5,143.7,145.5 M141.9,143.6c-0.2-0.2-0.2-0.8-0.2-0.8
					c0.1,0-0.2-0.5-0.2-0.7c-0.2,0,0.2-0.9,0.2-0.9c1,0.5,3.7,0.1,3.7,0.1c-0.5,0.2-1.2,1.2-1.2,1.2
					C143.2,143.7,141.9,143.6,141.9,143.6 M141.2,139.9l2.1-0.1c2.5,0.1,4.3-1,4.3-1c0.9-0.5,0.3,0.4,0.3,0.4
					c-2,3.1-6.6,1.5-6.6,1.5C141,140.5,141.2,139.9,141.2,139.9 M141.5,138.5c0.7-0.1,4.1-1.7,4.1-1.7c1.9-1.1,3.2-0.7,3.2-0.7
					c1.7,0.2-0.5,1.9-0.5,1.9c-4.2,2.2-6.8,1.3-6.8,1.3C140.9,138.9,141.5,138.5,141.5,138.5 M143.2,134c1.2-0.4,3.6-0.1,3.6-0.1
					c1.2,0.1,0.3,0.9,0.3,0.9c-1.5,2.5-5.6,3.2-5.6,3.2C141.8,136.7,143.2,134,143.2,134 M145.2,131c0,0,0.3-0.8,0.5-1.2l3.5-5
					c0,0,1.5-0.2,0.9,2.6c0.2,0.5,1.6-0.4,1.5,0.3c-0.2,0.8-2.1,2-3,3.1c0.1-0.1-1.4,1.8-2.1,2.6h-1.2l-0.7,0.1l-1.1,0.2
					C144.3,131.7,145.3,131,145.2,131 M155,117.8c1.9-2,2.5-2.5,2.5-2.5c2-2.4,6.8-6.3,6.8-6.3c3.2-2.5,6.2-5.4,6.2-5.4
					c2.2-2.2,4.6-8,4.6-8c1.5-0.9,2.3,0.4,2.3,0.4c0.5,0.5-0.9,3.2-0.9,3.2c-0.5,0.8-3,5.6-3,5.6c-2.6,4.5-8.5,10.7-8.5,10.7
					c-0.2,0-0.5,1.2-0.5,1.2c-2.3,3.6-4.7,5.6-4.7,5.6c0.2-0.2-7.3,4.7-7.3,4.7l-1.9,0.1c0.4-0.7,0.2-1.9,0.2-1.9
					c-0.1-0.6-1.2-0.7-1.2-0.7C150.9,122.5,155,117.8,155,117.8 M178,99.7c0,0,0.7,2.3-2.2,7c0,0-4.6,7.7-5.6,9.1
					c-3,2.9-2.9,3.2-4.3,4.1l-1.3,1.7l-1.4,2c-2.8,2.7-8.7,4.9-8.7,4.9c-0.7-0.2-1.5,0.2-1.5,0.2c-0.9,0.4-0.2-0.5-0.2-0.5
					c0.1,0,0.1-0.5,0.1-0.5l-0.2-0.6c4.2-2.1,6.6-3.9,6.6-3.9c1.9-1,3-2.2,2.9-2.2c0,0,3-4.1,3.3-5.3c0,0,4.9-5,8.5-10.7
					c0,0,1.9-4,2.6-5C176.7,99.9,177.7,97.7,178,99.7 M177.4,107.5c0,0,0.9-2.5,1.8-2.3c0,0,1.9,0.7-0.9,5.3c0,0-4.4,7.4-7.3,9.7
					c0,0-2.4,2.1-3.6,2.9c-1.3,1.2-1.2,0.8-2.4,2.5c0,0-2.9,2.7-10.4,5.1v-0.4c0,0,0.5-0.9,0.1-1.2c0,0,5.4-2.2,7-3.2l0.7-0.4
					l2.1-2.2c0.2-0.2,1-2,3.4-4C168,119.1,174.1,114.4,177.4,107.5 M149.9,136.6l3.4-1.6c0.4-0.2,0.7-0.5,1.1-0.8
					c0.7-0.5,0.9-1.1,0.9-1.1c0.9-0.9,1.4-0.1,1.4-0.1c0.5,1.6-2.5,3.2-3.7,3.8c0.1-0.1-3.4,0.8-4.1,1
					C149.8,137.4,149.9,136.6,149.9,136.6 M150.7,133.4c0.5-0.5,0.7-0.5,1-0.8c1.3-0.9,3.3-2.1,3.7-1.2c0,0,0.2,0.5-0.2,1.1
					c0,0-0.5,1.1-3.5,2.7c0,0-1.2,0.6-1.9,1c0,0-0.9-0.9-2.2-0.6C148.4,135,150,134,150.7,133.4 M152.4,129.6c0,0,3.6-1.5,1.2,1.3
					l-3.1,2c0,0-1.7,1.1-2.8,2c0.4-0.7,0.6-1.5-0.5-1.5l1-1.5c0,0,5.5-5.9,3.8-2.9C151.9,128.9,151,130.3,152.4,129.6 M154.5,138.6
					c0,0-0.4-0.1-0.5-0.1c-1.2,1.7-5.5,1-5.5,1c0.3-0.5,0.2-1,0-1.2c1.2-0.2,2.5-0.5,3.8-0.7c0.2-0.2,0.6-0.2,0.9-0.3
					c0,0,1.1-0.5,1-0.5c1.5-0.6,2.7-1.8,2.7-1.8c0.1,0.4,0,0.8-0.2,1.1c-0.1,0.1,0.2,0.5,0.2,0.5
					C156.5,138.6,154.5,138.6,154.5,138.6 M154.1,141.9c-2.2,1.2-3.2,0.4-3.4,0.3c-0.2-0.1-1.1-0.3-1.3-0.4c-1.5,0-2.9-0.7-2.9-0.7
					c0.4-0.4,1.5-1.2,1.5-1.2c1.3,0,3.9,0.6,4.5,0.9l0,0h0.1l1.5,0.2C156,141.3,154.1,141.9,154.1,141.9 M153.5,140.6
					c-0.3-0.2-2-0.6-2-0.6c1.5,0,2.7-1,2.7-1l1-0.2c1.2-0.2,0.5,0.9,0.5,0.9C155.1,140.6,154.1,140.7,153.5,140.6 M179.3,112.2
					c1.6-1.9,1.5-0.2,1.5-0.2c-0.2,3.3-2.9,6-2.9,6c-5.3,6.7-8.9,8.1-8.9,8.1c0-0.1-2.2,1.5-2.2,1.5c-5.9,4.5-11,4.6-11,4.6
					c0.7-1.1-0.2-1.5-0.2-1.5c4.1-0.9,9-4,9-4c0.1-0.1,0.2-0.1,0.2-0.2c0.5-0.5,2.2-2.5,2.2-2.5l1.2-1.2
					C175.8,118.2,179.3,112.2,179.3,112.2 M182,119.4c0.3-2.2-1.2-0.5-1.2-0.5c-4.4,5-8.6,5.9-8.6,5.9c2.3-1.8,6.6-6.7,6.6-6.7
					c4.1-5.1,2.4-7,2.4-7c-1.2-0.5-2.2,1.1-2.2,1.1l-3.5,4.5c-1.5,1.6-0.3-0.2-0.3-0.2c3.2-4.5,5-8.3,5-8.3c1.2-2.9-0.9-3.4-0.9-3.4
					c-1.2,0.1-1.5,1.2-1.5,1.2c-1.9,4.3-5.5,8.5-5.5,8.5c-1.5,1.6-0.4,0-0.4,0l4.9-8.2c1.3-2.2,1.7-3.6,1.7-3.6
					c1-4.6-1.2-4.1-1.2-4.1c1-1.6,0.7-2.5,0.7-2.5c0-0.8-0.7-1.2-0.7-1.2c-0.5-0.4-2,0.5-1.6-0.4c0.3-3.3-0.9-6.3-0.9-6.3
					c-1.4-3.3-3-2.6-3-2.6c-2.8,1.2-0.9,5.2-0.9,5.2c1.1,4.6-2.2,8.3-2.2,8.3c-2.9,4.9-12.4,12.8-12.4,12.8
					c-9.5,8.1-12,11.8-12,11.8c-4.6,5.6-7,9.7-8.1,12.3c0.2,0.1,0.4,0.2,0.5,0.2c0.8-1.9,2-4.3,4.2-7c0,0,3.9-6.2,12.4-13.9
					c0,0,10.9-9.4,13.8-13.1c0,0,5.1-5.7,4.8-9.8c0,0-0.5-2.5-0.9-3.8c0,0-0.5-2.2,1-2.6c0,0,1.4-0.5,2.1,1.6c0,0,1.9,3.9,0.7,7.3
					c0,0-2.8,7.3-7.3,11.1c0,0-4.5,3.2-10.6,9.2c0,0-4.4,4.1-8.6,10.3c0,0-5.2,7.3-6.3,10.3c0,0-2,4.5-0.9,6.9
					c1.2,2.4,2.2,3.3,2.2,3.3c4.6,0.5,6.8-1.2,6.8-1.2c1.3,1.2,5.3,1.8,5.3,1.8c1.9,0.4,2.1,0.9,2.1,0.9s0.2,0.2,0.4,0.3
					c-0.1,0.1-0.6,0.4-3,0.5c-0.1,0-5.6,1-8.4,0.6c0,0-4.6-1.4-6.3-4c-2.2-3.2-5.6-1.7-5.7-1.7l0.3,0.6c0.2-0.1,3-1.2,4.9,1.5
					c1.9,2.9,6.7,4.3,6.7,4.3c0.2,0,0.3,0,0.5,0.1l0,0c0.1,0,0.2,0,0.3,0c3.1,0.2,7.7-0.6,7.9-0.7c2.5-0.1,3.2-0.5,3.5-0.8l0,0
					c0.4-0.1,0.4-0.1,0.3-0.1c0.2,0,0.2-0.1,0-0.2l0,0c-0.3-0.3-1.2-1-1.2-1c7.1-0.2,2.9-1.6,2.9-1.6c9.4,1.1-1-3.2-1-3.2l4.4,0.6
					c10,0.9-0.5-2.5-0.5-2.5l5.8-0.2c10.9-1.7-1.9-2.5-1.9-2.5c17.9-2.2,9-3.7,9-3.7c9.5-3.5-2.9-2.9-2.9-2.9c6.6-2.6,8-6.5,8-6.5
					c0.8-3.3-2.8-0.2-2.8-0.2c-2.2,1.9-3.7,2.3-3.7,2.3C181.2,122.7,182,119.4,182,119.4"/>
			</g>
			<g>
				<path class="st4" d="M123.5,160.1c0-0.1,0.1-0.2,0.1-0.3l0.1-0.1v0.1C123.5,159.9,123.5,160,123.5,160.1 M115.3,160L115.3,160
					l0.2-0.1c0.2-0.1,0.3-0.2,0.4-0.2c0.2,0,0.6-0.2,2.1-0.6l0.9-0.3v-0.1l1-0.3c0.1,0,0.2,0.1,0.3,0.1c0.2,0,0.5-0.2,0.7-0.3
					c-0.2,0.2-0.4,0.3-0.5,0.5l0,0c0,0-0.1,0.2-0.1,0.4c-0.2,0.2-0.4,0.5-0.5,0.8c0,0,0,0-0.1,0l-1.9,2.6c-0.1,0.1-0.2,0.2-0.3,0.3
					v0.2c-0.1,0.1-0.2,0.3-0.7,0.9c-1-1-1.9-2.1-2.5-3.4C114.7,160.2,115.3,160,115.3,160 M121,158h0.2
					C121.1,158,121.1,158.1,121,158C121,158.1,121,158.1,121,158C120.9,158.1,121,158.1,121,158 M121,152.1
					C121,152.1,121,152.2,121,152.1L121,152.1c-0.1,0-0.1-0.1-0.2-0.1C120.9,152.1,121,152.1,121,152.1 M120,155.1
					c0.1,0,0.1,0.1,0.2,0.1c0,0-0.1,0-0.2,0.1c-0.1,0-0.2-0.1-0.2-0.1S119.9,155.1,120,155.1 M114.3,153.4L114.3,153.4L114.3,153.4
					c0.2,0.2,0.4,0.2,0.6,0.2c0.2,0.1,0.7,0.2,1.9,0.7l0.9,0.3v-0.1l0.9,0.3c0.1,0.1,0.2,0.2,0.2,0.2c0.2,0.2,0.4,0.2,0.7,0.2
					c-0.2,0-0.5,0.1-0.6,0.2c-0.1,0.1-0.2,0.2-0.2,0.2c-0.3,0.1-0.6,0.2-0.9,0.3v-0.1l-2.9,0.9c-0.2,0-0.4,0.1-0.5,0.1l-0.1,0.1
					c-0.2,0-0.4,0.1-1.2,0.3c-0.2-0.8-0.2-1.5-0.2-2.2c0-0.6,0.1-1.3,0.2-2.1L114.3,153.4L114.3,153.4z M123.4,144.4l-0.3,0.5
					l0.2-0.2l0.1,0.2v2.2v1h0.1v1c-0.1,0.1-0.2,0.2-0.2,0.2l-0.1,0.3c0,0.2,0.1,0.5,0.2,0.7v0.1l-0.1-0.1c-0.1-0.3-0.2-0.7-0.5-0.9
					c-0.1-0.1-0.2-0.1-0.3-0.1c-0.1-0.2-0.3-0.4-0.6-0.9h0.1l-1.9-2.6h-0.1c-0.1-0.2-0.2-0.4-0.2-0.4l-0.2-0.1
					c-0.1-0.2-0.2-0.3-0.6-0.9c1.2-0.7,2.6-1.1,4-1.3L123.4,144.4L123.4,144.4 M117.4,147.5c0.1,0.2,0.2,0.2,0.4,0.3
					c0.1,0.2,0.3,0.5,1.2,1.8l0.5,0.8h0.1l0.5,0.8l0.1,0.4c0.1,0.2,0.2,0.4,0.5,0.5c-0.2-0.2-0.4-0.2-0.7-0.3
					c-0.2,0-0.2,0.1-0.3,0.1c-0.2-0.1-0.5-0.2-0.9-0.3v-0.1l-3-1l0,0c-0.1-0.1-0.2-0.2-0.4-0.2h-0.2c-0.1-0.1-0.3-0.2-1.1-0.4
					c0.6-1.3,1.5-2.4,2.5-3.4l0.6,0.9h0.1L117.4,147.5L117.4,147.5z M123.5,165.3c-0.1,0.1-0.3,0.6-0.3,0.6l0.2-0.2l0.1,0.1
					c0,0.1,0,0.2,0,0.2v0.9c-1.4-0.2-2.8-0.6-4-1.3l0.6-0.9v-0.1l0.1-0.1l0.2-0.4c0.2-0.1,0.4-0.4,1.3-1.8l0.5-0.8h-0.1l0.6-0.9
					c0.1-0.1,0.2,0,0.2-0.1c0.2-0.2,0.3-0.4,0.4-0.5c0,0.1-0.1,0.2-0.1,0.3l0.1,0.3c0,0.2,0.1,0.2,0.2,0.2v1h-0.1L123.5,165.3
					C123.5,165.2,123.5,165.3,123.5,165.3 M131,160.5l-0.5-0.8h-0.1l-0.5-0.8l-0.1-0.3c-0.1-0.2-0.3-0.5-0.5-0.6
					c0.2,0.2,0.5,0.2,0.7,0.3c0.2,0,0.2-0.1,0.3-0.1c0.2,0.1,0.5,0.2,0.9,0.3c0,0,0,0,0,0.1l3,1l0,0c0.1,0.1,0.2,0.2,0.4,0.2h0.2
					c0.1,0.1,0.3,0.2,0.9,0.4c-0.6,1.2-1.4,2.4-2.4,3.3l-0.5-0.8h-0.1v-0.2c-0.1-0.2-0.2-0.3-0.4-0.4
					C132.1,162,131.8,161.6,131,160.5 M126.5,150.2c0,0.1,0,0.2-0.1,0.2v0.1v-0.1C126.5,150.3,126.5,150.2,126.5,150.2 M134.7,150.2
					L134.7,150.2c-0.1,0.1-0.2,0.1-0.2,0.1c-0.2,0.1-0.3,0.2-0.5,0.2c-0.2,0-0.6,0.2-2,0.6H132l-0.8,0.2v0.1l-1,0.3
					c-0.1,0-0.2-0.1-0.3-0.1c-0.2,0-0.5,0.2-0.7,0.3c0.2-0.2,0.4-0.3,0.5-0.5c0,0,0.1-0.2,0.1-0.4c0.1-0.2,0.3-0.4,0.5-0.7h0.1
					l1.9-2.6c0.1-0.1,0.2-0.2,0.3-0.3c0,0,0-0.1,0.1-0.2c0.1-0.1,0.2-0.3,0.7-0.9c1,1,1.9,2.1,2.5,3.4L134.7,150.2 M129.1,158
					C129.1,158,129.1,157.9,129.1,158L129.1,158c0.1,0,0.1,0,0.2,0.1C129.2,158,129.1,158,129.1,158 M129.1,152.1
					c-0.1,0-0.1,0-0.2,0C128.9,152.2,129,152.1,129.1,152.1C129.1,152,129.1,152,129.1,152.1C129.1,152,129.1,152.1,129.1,152.1
					 M130.1,155.1c-0.1,0-0.1,0-0.2-0.1L130.1,155.1l0.1-0.2c0.1,0,0.2,0.1,0.2,0.1C130.2,155.1,130.2,155.1,130.1,155.1
					 M135.7,156.8L135.7,156.8c-0.2-0.2-0.4-0.2-0.6-0.2c-0.2-0.1-0.6-0.2-1.9-0.7H133l-0.9-0.2v0.1l-0.9-0.3
					c-0.1-0.1-0.2-0.2-0.2-0.2c-0.2-0.2-0.4-0.2-0.7-0.2c0.2,0,0.5-0.1,0.6-0.2c0.1-0.1,0.2-0.2,0.2-0.2c0.2-0.1,0.5-0.2,0.9-0.3
					v0.1c0,0,2.9-0.9,2.9-0.9c0.2,0,0.4-0.1,0.5-0.1l0.1-0.1c0.2,0,0.3-0.1,1.2-0.3c0.2,0.8,0.2,1.5,0.2,2.2c0,0.6-0.2,1.3-0.3,2
					L135.7,156.8L135.7,156.8z M126.5,144.9l0.3-0.6l-0.2,0.2v-0.1c0-0.1,0-0.3,0-0.3v-0.9c1.4,0.2,2.8,0.6,4,1.3
					c-0.2,0.3-0.7,0.9-0.7,0.9v0.1h-0.1c0,0-0.1,0.2-0.2,0.4c-0.2,0.1-0.4,0.4-1.3,1.8l-0.1,0.1l-0.5,0.7h0.1l-0.6,0.9
					c-0.1,0.1-0.2,0-0.2,0.1c-0.2,0.2-0.3,0.3-0.4,0.5c0-0.1,0-0.2,0-0.2l-0.1-0.3c0-0.2-0.1-0.2-0.2-0.2v-1h0.1L126.5,144.9
					L126.5,144.9 M126.6,165.8l0.3-0.5l-0.2,0.2l-0.1-0.2v-0.2v-2v-1h-0.1v-1c0.1-0.1,0.2-0.2,0.2-0.2c0-0.1,0.1-0.3,0.1-0.3
					c0-0.2-0.1-0.5-0.2-0.7v-0.1l0.1,0.1c0.1,0.3,0.2,0.7,0.5,0.9c0.1,0.1,0.2,0.1,0.3,0.1c0.1,0.2,0.3,0.4,0.6,0.9h-0.1l1.9,2.6
					h0.1l0.2,0.4l0.2,0.1c0.1,0.2,0.2,0.3,0.5,0.9c-1.2,0.7-2.6,1.2-3.9,1.4L126.6,165.8L126.6,165.8 M143.9,159.5L143.9,159.5
					c-0.5-0.5-1.7-1-2.8-0.9l-0.1-0.1c0.2-1.2,0.5-2.3,0.5-3.4l0,0c0-1.2-0.2-2.4-0.5-3.6c1.1,0.1,2.3-0.5,2.8-0.9l0.1-0.1
					c0.2-0.2,0.8-0.8,0.5-1.7s-1.1-1.1-1.4-1.2h-0.2c-0.5-0.2-1.9,0.2-2.7,0.9l0,0c-1-2.2-2.4-4.2-4.3-5.7c0.9-0.6,1.6-1.7,1.7-2.3
					v-0.2V140c0-0.5-0.2-0.9-0.7-1.2c-0.8-0.6-1.5-0.2-1.8-0.1c-0.1,0-0.1,0.1-0.2,0.1c-0.5,0.2-1.4,1.2-1.6,2.3l0,0
					c-2.1-1.2-4.4-1.9-6.8-2.2l0,0c0.2-0.5,0.3-1.2,0.3-1.5c0-0.4,0-1-0.3-1.4l-0.1-0.1c-0.2-0.2-0.5-1-1.5-1c-1,0-1.4,0.7-1.5,1
					c0,0.1-0.1,0.1-0.1,0.2c-0.2,0.4-0.2,1-0.2,1.4c0,0.3,0.1,0.9,0.3,1.5v0.1c-2.4,0.2-4.7,1-6.8,2.2c-0.3-1.1-1.2-2.1-1.7-2.3
					c0.1,0-0.1-0.1-0.1-0.1c-0.3-0.2-1-0.5-1.8,0.1c-0.5,0.3-0.7,0.8-0.7,1.3v0.4v0.2c0.1,0.5,0.8,1.7,1.7,2.2l0,0
					c-1.8,1.6-3.2,3.6-4.2,5.8c-0.9-0.7-2.2-1-2.8-0.9H107c-0.3,0.1-1.1,0.2-1.4,1.1c-0.3,1,0.2,1.5,0.5,1.8l0.1,0.1
					c0.4,0.5,1.6,0.9,2.7,0.9l0,0c-0.2,1.2-0.5,2.3-0.5,3.5c0,1.2,0.2,2.4,0.5,3.6c-1.1-0.1-2.3,0.5-2.7,0.9l-0.1,0.1
					c-0.2,0.2-0.8,0.8-0.5,1.7c0.3,0.9,1.1,1.1,1.4,1.2h0.2c0.5,0.2,1.9-0.2,2.7-0.9l0,0c1,2.2,2.4,4.2,4.3,5.7
					c-0.9,0.6-1.6,1.7-1.7,2.3v0.2v0.4c0,0.5,0.2,0.9,0.7,1.2c0.8,0.6,1.5,0.2,1.8,0.1l0.2-0.1c0.5-0.2,1.4-1.2,1.6-2.3l0,0
					c2.1,1.2,4.4,1.9,6.8,2.2l0,0c-0.2,0.5-0.3,1.2-0.3,1.5c0,0.4,0,1,0.3,1.4l-0.2-0.5l0.2,0.5c0.2,0.2,0.5,0.9,1.5,0.9
					c1,0,1.3-0.7,1.5-1l0.1-0.2c0.2-0.4,0.2-1,0.2-1.4c0-0.3-0.1-0.9-0.3-1.5v-0.1c2.4-0.2,4.7-1,6.8-2.2c0.3,1.1,1.1,2.1,1.7,2.3
					l0.2,0.1c0.2,0.2,1,0.5,1.8-0.1c0.5-0.3,0.7-0.8,0.7-1.2l-0.1-0.5l0,0v-0.2c-0.1-0.5-0.8-1.7-1.7-2.3l0,0
					c1.8-1.6,3.2-3.6,4.1-5.8h0.1c0.9,0.7,2.2,1.1,2.8,0.9h0.2c0.3-0.1,1.1-0.2,1.4-1.1C144.6,160.3,144.1,159.8,143.9,159.5"/>
			</g>
			<g>
				<path class="st4" d="M132.7,162.6L132.7,162.6L132.7,162.6L132.7,162.6"/>
			</g>
			<g>
				<path class="st4" d="M135.5,156.6l0.2,0.2l0,0l0,0L135.5,156.6z"/>
			</g>
			<g>
				<path class="st4" d="M114.5,153.4l0.2,0.2L114.5,153.4"/>
			</g>
			<g>
				<path class="st0" d="M124.3,166v1.9c-2.2-0.2-4.3-0.8-6.1-1.9c0.2-0.2,1.1-1.5,1.1-1.5s0,0,0-0.1s0-0.2,0-0.2
					c0.2,0,0.2-0.1,0.3-0.2c0.1-0.1,0.2-0.2,0.2-0.4v-0.1h0.2c0.1-0.1,1.2-1.6,1.2-1.6l0.1-0.1l-0.1-0.1c-0.1-0.1-0.1-0.1-0.1-0.2
					c0-0.1,0-0.2,0.1-0.2s0.2-0.2,0.3-0.1l0.1,0.1l0.8-1.1c0,0,0-0.2,0-0.2c0.2,0,0.3,0,0.4-0.1c0.2-0.1,0.2-0.3,0.2-0.5
					c0-0.1,0-0.2-0.1-0.2h0.2c0.1-0.1,1.1-1.4,1.2-1.5l0.5,0.2v1.9c0,0.1,0.1,0.2,0.2,0.2c-0.2,0.2-0.3,0.3-0.3,0.5
					c0,0.1,0,0.1,0,0.2c0,0.2,0.2,0.2,0.3,0.2l-0.1,0.2v1.2v0.1h0.1c0.2,0,0.2,0.2,0.2,0.2c0,0.2-0.1,0.3-0.2,0.3h-0.1v2
					c0.1,0.1,0.1,0.2,0.2,0.2c-0.1,0.1-0.2,0.2-0.2,0.4v0.1c0,0.2,0.2,0.2,0.2,0.3L124.3,166 M114.8,159.3c0.1-0.1,0.1-0.2,0.2-0.2
					c0.1,0.1,0.2,0.2,0.3,0.1c0.2,0,0.2-0.2,0.3-0.3l0.2,0.1c0.1,0,1.9-0.6,1.9-0.6h0.1v-0.1c-0.1-0.2,0.1-0.3,0.2-0.3
					c0.1,0,0.2-0.1,0.2,0.1v0.1l1.2-0.4c0,0,0.1-0.2,0.2-0.2c0.1,0.1,0.2,0.2,0.3,0.2c0.2,0,0.4-0.2,0.5-0.5l0.2,0.1
					c0.1,0,1.7-0.5,1.9-0.6l0.3,0.4l-1.1,1.5v0.1c0,0.1,0,0.1,0,0.2c-0.3,0-0.5,0.2-0.6,0.4c0,0.1,0,0.1,0,0.2
					c0,0.1,0.1,0.2,0.2,0.2c-0.1,0-0.2,0.1-0.2,0.1c-0.1,0.1-0.8,1-0.8,1l-0.1,0.1l0.1,0.1c0.1,0,0.1,0.1,0.1,0.2l0,0
					c0,0.1-0.1,0.2-0.2,0.3c-0.1,0-0.2,0.1-0.2,0l-0.1-0.1l-1.2,1.6v0.1c0,0.1,0,0.2,0,0.2c-0.2,0-0.3,0.1-0.4,0.2
					c-0.1,0.1-0.1,0.2-0.1,0.2v0.1H118c-0.1,0.1-0.9,1.2-1.2,1.5c-1.7-1.4-3-3.2-3.8-5.2C113.3,159.8,114.8,159.3,114.8,159.3
					 M114.8,152.7c0.2,0.1,0.3,0,0.5-0.1l0.1,0.2c0.1,0.1,1.9,0.6,1.9,0.6h0.1v-0.1c0-0.1,0.1-0.2,0.2-0.2c0.2,0,0.3,0,0.4,0.1
					s0.1,0.1,0,0.2v0.1l1.2,0.4c0,0,0.1,0,0.2-0.1c0,0.2,0.1,0.2,0.2,0.3c0.2,0.1,0.5,0.1,0.7-0.1c0,0.1,0.1,0.2,0.1,0.2
					c0.1,0.1,1.9,0.7,1.9,0.7c-0.1,0-0.1,0.2-0.1,0.2v0.3c-0.1,0-1.8,0.5-1.8,0.5c-0.1,0.1-0.1,0.1-0.2,0.2
					c-0.2-0.2-0.5-0.2-0.7-0.1c-0.1,0.1-0.2,0.2-0.2,0.3h-0.1c-0.1,0-1.2,0.4-1.2,0.4h-0.1v0.1c0.1,0.2-0.1,0.2-0.2,0.2
					c-0.2,0.1-0.4,0-0.4-0.2v-0.1l-1.9,0.6c-0.1,0.1-0.1,0.2-0.2,0.2c-0.2-0.1-0.3-0.2-0.5-0.1c-0.1,0.1-0.2,0.2-0.2,0.3
					c-0.1-0.1-0.2-0.1-0.2-0.1c-0.1,0-1.5,0.5-1.9,0.5c-0.3-1.1-0.5-2.2-0.5-3.2c0-1,0.2-2.1,0.4-3.2c0.2,0.1,1.7,0.5,1.7,0.5
					c0.1,0,0.2-0.1,0.3-0.2C114.6,152.5,114.7,152.6,114.8,152.7 M124.4,144.3c-0.1,0.1-0.2,0.2-0.2,0.3c0,0,0,0,0,0.1
					c0,0.2,0.1,0.2,0.2,0.4c-0.1,0-0.1,0.1-0.2,0.1v2v0.1h0.1c0.2,0,0.2,0.2,0.2,0.3c0,0.1,0,0.2-0.2,0.2h-0.1v1.3
					c0,0.1,0.1,0.2,0.2,0.2c-0.2,0.1-0.3,0.1-0.3,0.2c0,0.1,0,0.1,0,0.2c0,0.2,0.1,0.4,0.3,0.5l-0.1,0.1v2l-0.5,0.2l-1.1-1.5
					c-0.1,0-0.2-0.1-0.2-0.1c0-0.1,0.1-0.2,0.1-0.2c0-0.2-0.1-0.4-0.2-0.5c-0.1-0.1-0.2-0.1-0.4-0.1c0-0.1,0-0.2,0-0.2
					c0-0.1-0.7-1-0.7-1l-0.1-0.1l-0.1,0.1c-0.2,0.1-0.2,0-0.3-0.1c-0.1-0.1-0.1-0.2-0.1-0.2s0-0.2,0.1-0.2l0.1-0.1l-1.2-1.6
					c-0.1,0-0.2-0.1-0.2-0.1v-0.1c0-0.2-0.1-0.2-0.2-0.4c-0.1-0.1-0.2-0.2-0.3-0.2c0-0.1,0-0.2,0-0.2c0-0.1-0.9-1.3-1.1-1.5
					c1.9-1.2,3.9-1.9,6.1-2v1.9C124.2,144.2,124.3,144.2,124.4,144.3 M118.2,147.1c0.1,0.2,0.2,0.2,0.4,0.2c0,0.1,0,0.2,0,0.2
					c0,0.1,1.2,1.6,1.2,1.6l0.1,0.1l0.1-0.1c0.1-0.1,0.2,0,0.2,0c0.2,0.1,0.2,0.2,0.2,0.3l0,0c0,0.1,0,0.1-0.1,0.2l-0.1,0.1l0.8,1.1
					c0.1,0,0.2,0.1,0.2,0.1c-0.1,0.1-0.2,0.2-0.2,0.2c0,0.1,0,0.1,0,0.2c0.1,0.2,0.3,0.4,0.6,0.4v0.1c0,0.1,1,1.5,1.2,1.6
					c-0.1,0.1-0.2,0.3-0.2,0.4l-1.8-0.5c-0.1,0-0.2,0-0.2,0.1c-0.1-0.3-0.3-0.5-0.5-0.5c-0.2,0-0.2,0.1-0.3,0.2l-0.1-0.2
					c-0.1-0.1-1.2-0.4-1.2-0.4h-0.1v0.1c-0.1,0.2-0.2,0.2-0.3,0.1c-0.2-0.1-0.3-0.2-0.2-0.3v-0.1l-1.9-0.6c-0.1,0-0.2,0.1-0.2,0.1
					c-0.1-0.2-0.2-0.3-0.3-0.3s-0.2,0-0.3,0.1l-0.1-0.2c-0.1-0.1-1.5-0.5-1.8-0.6c0.8-2,2.1-3.8,3.7-5.3l1.1,1.5
					c0.1,0,0.2,0.1,0.2,0.1v0.1C118.1,146.9,118.1,147,118.2,147.1 M135.3,157.5c-0.2-0.1-0.3,0-0.5,0.1l-0.1-0.2
					c-0.1-0.1-1.9-0.6-1.9-0.6h-0.1v0.1c0,0.1-0.1,0.2-0.2,0.2c-0.2,0-0.3,0-0.4-0.1s-0.1-0.1,0-0.2v-0.1l-1.2-0.4
					c-0.1,0-0.2,0-0.2,0.1c0-0.2-0.1-0.3-0.2-0.3c-0.2-0.1-0.5-0.1-0.7,0.1c0-0.1-0.1-0.2-0.1-0.2c-0.1-0.1-1.9-0.7-1.9-0.7
					c0.1,0,0.1-0.2,0.1-0.2v-0.3c0.1,0,1.8-0.5,1.8-0.5c0.1,0,0.1-0.1,0.2-0.2c0.2,0.2,0.5,0.2,0.7,0.1c0.2-0.1,0.2-0.2,0.2-0.3h0.1
					c0.1,0,1.2-0.4,1.2-0.4h0.1v-0.1c0-0.1,0-0.2,0-0.2c0.1-0.1,0.2-0.2,0.4-0.1c0.1,0,0.2,0.1,0.2,0.2v0.1l1.9-0.6
					c0.1-0.1,0.1-0.2,0.2-0.2c0.2,0.1,0.3,0.2,0.5,0.1c0.1-0.1,0.2-0.2,0.2-0.3l0.2,0.1c0.1,0,1.5-0.5,1.9-0.5
					c0.3,1.1,0.5,2.2,0.5,3.2c0,1-0.2,2.1-0.5,3.1l-1.6-0.5c-0.1,0-0.2,0.1-0.3,0.2C135.4,157.7,135.4,157.5,135.3,157.5
					 M125.8,144.2v-1.9c2.2,0.2,4.3,0.8,6.1,1.9l-1.1,1.5v0.1c0,0.1,0,0.2,0,0.2c-0.2,0-0.2,0.1-0.3,0.2c-0.1,0.1-0.2,0.2-0.2,0.4
					v0.1c-0.1,0-0.2,0-0.2,0c-0.1,0.1-1.2,1.6-1.2,1.6l-0.1,0.1l0.1,0.1c0.1,0.1,0.1,0.1,0.1,0.2l0,0c0,0.2-0.1,0.2-0.2,0.3
					c-0.1,0-0.1,0-0.2,0l-0.1-0.1l-0.8,1.1c0,0,0,0.2,0,0.2c-0.2,0-0.3,0-0.4,0.1c-0.2,0.1-0.2,0.3-0.2,0.5c0,0.1,0,0.2,0.1,0.2
					h-0.2c-0.1,0.1-1.1,1.4-1.2,1.5c-0.1,0-0.3-0.1-0.5-0.2v-1.9c0-0.1-0.1-0.2-0.2-0.2c0.2-0.2,0.3-0.4,0.3-0.5c0-0.1,0-0.1,0-0.2
					c0-0.2-0.2-0.2-0.3-0.2l0.1-0.2v-1.2v-0.1h-0.1c-0.2,0-0.2-0.2-0.2-0.2c0-0.2,0.1-0.3,0.2-0.3h0.1v-2c-0.1-0.1-0.1-0.2-0.2-0.2
					c0.1-0.1,0.2-0.2,0.2-0.4v-0.1c0-0.2-0.1-0.2-0.2-0.3L125.8,144.2 M135.2,150.9c-0.1,0.1-0.2,0.2-0.2,0.2
					c-0.1-0.1-0.2-0.2-0.3-0.1c-0.2,0-0.2,0.2-0.3,0.3c-0.1,0-0.2-0.1-0.2-0.1c-0.1,0-1.9,0.6-1.9,0.6h-0.1v0.1c0,0.1,0,0.2-0.1,0.2
					s-0.2,0.2-0.3,0.2s-0.1-0.1-0.2-0.1v-0.1l-1.2,0.4c-0.1,0.1-0.1,0.2-0.2,0.2c-0.1-0.1-0.2-0.2-0.3-0.2c-0.2,0-0.4,0.2-0.5,0.5
					l-0.2-0.1c-0.1,0-1.7,0.5-1.9,0.6l-0.3-0.4l1.1-1.5v-0.1c0-0.1,0-0.1,0-0.2c0.3,0,0.5-0.2,0.6-0.4c0-0.1,0-0.1,0-0.2
					c0-0.1-0.1-0.2-0.2-0.2l0.2-0.1c0.1-0.1,0.8-1,0.8-1l0.1-0.1l-0.1-0.1c-0.1,0-0.1-0.1-0.1-0.2l0,0c0-0.1,0.1-0.2,0.2-0.3
					c0.1,0,0.2-0.1,0.2,0l0.1,0.1l1.2-1.6v-0.1c0-0.1,0-0.1,0-0.2c0.2,0,0.3-0.1,0.4-0.2c0.1-0.1,0.1-0.2,0.1-0.2v-0.1h0.2
					c0.1-0.1,0.9-1.2,1.2-1.5c1.7,1.4,3,3.2,3.8,5.2L135.2,150.9 M125.7,165.8c0.1-0.1,0.2-0.2,0.2-0.3c0,0,0,0,0-0.1
					c0-0.2-0.1-0.2-0.2-0.4l0.1-0.1v-2v-0.1h-0.1c-0.2,0-0.2-0.2-0.2-0.3c0-0.1,0-0.2,0.2-0.2h0.1V161c-0.1-0.1-0.1-0.2-0.2-0.2
					c0.2-0.1,0.3-0.1,0.3-0.2c0-0.1,0-0.1,0-0.2c0-0.2-0.1-0.4-0.3-0.5c0.1-0.1,0.1-0.1,0.1-0.1s0-1.9,0-2l0.5-0.2
					c0.1,0.2,1.1,1.5,1.1,1.5c0.1,0,0.2,0.1,0.2,0.1c0,0.1-0.1,0.2-0.1,0.2c0,0.2,0.1,0.4,0.2,0.5c0.1,0.1,0.2,0.1,0.4,0.1v0.2
					c0,0.1,0.7,1,0.7,1l0.1,0.1l0.1-0.1c0.1-0.1,0.1-0.1,0.2,0c0.1,0.1,0.2,0.2,0.2,0.3l0,0c0,0.1,0,0.2-0.1,0.2l-0.1,0.1l1.2,1.6
					c0.1,0,0.2,0.1,0.2,0.1v0.1c0,0.2,0.1,0.2,0.2,0.4c0.1,0.1,0.2,0.2,0.3,0.2c0,0.1,0,0.2,0,0.2c0,0.1,0.9,1.2,1,1.5
					c-1.8,1.2-3.9,1.9-6,2.1V166C125.9,166,125.8,165.9,125.7,165.8 M131.9,163c-0.1-0.2-0.2-0.2-0.4-0.2v-0.2
					c0-0.1-1.2-1.6-1.2-1.6l-0.1-0.1l-0.1,0.1c-0.1,0.1-0.2,0-0.2,0c-0.2-0.1-0.2-0.2-0.2-0.3l0,0c0-0.1,0-0.1,0.1-0.2l0.1-0.1
					l-0.8-1.1c-0.1,0-0.2-0.1-0.2-0.1c0.1-0.1,0.2-0.2,0.2-0.2s0-0.1,0-0.2c-0.1-0.2-0.3-0.4-0.6-0.4v-0.1c0-0.1-1-1.5-1.2-1.6
					c0.1-0.1,0.2-0.3,0.2-0.4c0.2,0.1,1.8,0.6,1.8,0.6c0.1,0,0.2,0,0.2-0.1c0.1,0.3,0.3,0.5,0.5,0.5c0.2,0,0.2-0.1,0.3-0.2l0.1,0.2
					c0.1,0.1,1.2,0.4,1.2,0.4h0.1v-0.1c0.1-0.2,0.2-0.2,0.3-0.1c0.2,0.1,0.3,0.2,0.2,0.3v0.1l1.9,0.6c0.1,0,0.2-0.1,0.2-0.1
					c0.1,0.2,0.2,0.3,0.3,0.3s0.2,0,0.3-0.1l0.1,0.2c0.1,0.1,1.4,0.5,1.7,0.6c-0.9,2-2.1,3.7-3.7,5.2c-0.2-0.2-1-1.4-1-1.4
					c-0.1,0-0.2-0.1-0.2-0.1v-0.1C132,163.2,132,163.1,131.9,163 M143.3,160.2l-0.2-0.2c-0.2-0.3-1.5-0.8-2.5-0.5l-0.2-0.2
					c-0.2-0.1-0.3-0.2-0.5-0.2c0.4-1.3,0.5-2.6,0.6-3.9l0,0c0-1.4-0.2-2.8-0.5-4.1l0.4-0.2c0.1,0,0.2-0.2,0.3-0.2
					c0.9,0.2,2.2-0.3,2.5-0.6l0.2-0.2c0.2-0.2,0.4-0.4,0.2-0.9c-0.2-0.5-0.5-0.5-0.7-0.5h-0.2c-0.4-0.1-1.7,0.2-2.3,0.9l-0.3-0.1
					c-0.2,0-0.3,0.1-0.4,0.2c-1-2.6-2.6-4.8-4.8-6.6l0.2-0.3c0-0.1,0.1-0.3,0.1-0.4c0.9-0.3,1.6-1.5,1.6-1.9v-0.2c0-0.1,0-0.2,0-0.2
					c0-0.2-0.1-0.4-0.3-0.6c-0.4-0.3-0.7-0.2-0.9,0l-0.2,0.1c-0.4,0.2-1.2,1.2-1.3,2.2l-0.3,0.2c-0.1,0.1-0.2,0.2-0.2,0.3
					c-2.3-1.5-4.9-2.3-7.7-2.5v-0.4c0-0.1-0.2-0.3-0.2-0.4c0.2-0.4,0.4-1,0.4-1.5c0-0.5-0.1-0.9-0.2-1l-0.1-0.2
					c-0.2-0.2-0.2-0.5-0.8-0.5c-0.5,0-0.6,0.3-0.8,0.5l-0.1,0.2c-0.1,0.2-0.2,0.5-0.2,1c0,0.5,0.1,1.1,0.4,1.5
					c-0.1,0.1-0.1,0.2-0.2,0.3c0,0,0,0.3,0,0.5c-2.8,0.2-5.4,1-7.7,2.6l-0.2-0.3c-0.1-0.1-0.2-0.2-0.3-0.2c-0.1-0.9-0.9-2-1.3-2.2
					l-0.2-0.1c-0.2-0.2-0.5-0.2-0.9,0c-0.2,0.2-0.3,0.4-0.3,0.6c0,0.1,0,0.2,0,0.3v0.2c0,0.4,0.8,1.5,1.6,1.9l0.1,0.3
					c0.1,0.2,0.2,0.2,0.2,0.4c-2.2,1.7-3.8,4-4.7,6.6l-0.4-0.2c-0.1,0-0.3,0-0.4,0.1c-0.6-0.7-1.9-1.1-2.3-0.9c-0.1,0-0.1,0-0.2,0
					c-0.3,0.1-0.6,0.1-0.7,0.5c-0.2,0.5,0.1,0.7,0.3,0.9l0.2,0.2c0.2,0.3,1.5,0.8,2.4,0.6l0.2,0.2c0,0,0.3,0.1,0.4,0.2
					c-0.4,1.3-0.5,2.6-0.5,4c0,1.4,0.2,2.7,0.5,4.1c-0.2,0-0.4,0.2-0.4,0.2c-0.1,0-0.2,0.2-0.3,0.2c-0.9-0.2-2.2,0.3-2.4,0.5
					l-0.2,0.2c-0.2,0.2-0.4,0.4-0.2,0.9c0.2,0.5,0.5,0.5,0.7,0.5h0.2c0.4,0.1,1.7-0.2,2.3-0.9c0.1,0,0.3,0.1,0.3,0.1
					c0.1,0,0.3-0.1,0.4-0.2c1,2.6,2.6,4.8,4.8,6.6l-0.2,0.3c0,0.2-0.1,0.2-0.1,0.4c-0.9,0.4-1.6,1.5-1.6,1.9v0.2c0,0.1,0,0.2,0,0.3
					c0,0.2,0.1,0.4,0.3,0.6c0.4,0.3,0.7,0.2,0.9,0l0.2-0.1c0.4-0.2,1.2-1.2,1.3-2.2c0.1,0,0.3-0.2,0.3-0.2s0.2-0.2,0.2-0.3
					c2.3,1.5,4.9,2.3,7.7,2.5v0.4c0,0.1,0.2,0.3,0.2,0.3c-0.2,0.4-0.4,1-0.4,1.5c0,0.5,0.1,0.9,0.2,1l0.1,0.2
					c0.2,0.2,0.2,0.5,0.8,0.5s0.6-0.3,0.8-0.5l0.1-0.2c0.1-0.2,0.2-0.5,0.2-1c0-0.5-0.1-1.1-0.4-1.5l0.2-0.3v-0.5
					c2.8-0.2,5.5-1,7.7-2.5l0.2,0.3c0,0,0.2,0.2,0.3,0.2c0.1,0.9,0.9,2,1.3,2.2l0.2,0.1c0.2,0.2,0.5,0.2,0.9,0
					c0.2-0.2,0.3-0.4,0.3-0.6c0-0.1,0-0.2,0-0.3v-0.2c0-0.4-0.8-1.5-1.6-1.9l-0.1-0.3c-0.1-0.1-0.2-0.2-0.2-0.3
					c2.1-1.7,3.7-4,4.6-6.6l0.4,0.2c0.1,0,0.3,0,0.4-0.1c0.6,0.7,1.9,1.1,2.3,0.9h0.2c0.2-0.1,0.5-0.1,0.7-0.5
					C143.7,160.5,143.5,160.3,143.3,160.2"/>
			</g>
			<g>
				<path class="st4" d="M125,105.4c-1.2,0-2.2-1-2.2-2.2s1.1-2.2,2.3-2.2c1.2,0,2.2,1,2.2,2.2C127.3,104.4,126.3,105.4,125,105.4
					 M140.5,122.6L133,127c0,0,1.8,0.3,2.2,0.4l-0.1,0.7l-0.2,0.8l-0.2,0.6l-0.3,0.6l-0.4,0.5c0,0-0.4,0.5-0.4,0.5l-0.5,0.5
					l-0.5,0.5l-0.5,0.4l-0.5,0.4c-0.2,0.1-0.4,0.2-0.6,0.3l-0.6,0.3l-0.5,0.2l-0.6,0.2l-0.6,0.2c0,0-0.1,0-0.2,0v-19.9h13.7v-5.6
					h-12.4c1.5-1.4,2.6-3.4,2.6-5.6c0-4.2-3.4-7.6-7.6-7.6c-4.2,0-7.6,3.4-7.6,7.6c0,2.2,0.9,4.2,2.6,5.6h-12.4v5.6h13.4v19.9
					c-0.5-0.1-1.1-0.2-1.1-0.2l-0.6-0.2l-0.7-0.3l-0.5-0.3l-0.5-0.4c0,0-0.5-0.4-0.6-0.4l-0.4-0.5l-0.5-0.5c0,0-0.3-0.5-0.4-0.5
					c0,0-0.3-0.5-0.3-0.6l-0.2-0.6l-0.2-0.6l-0.2-0.6l-0.1-0.6v-0.5l2.3-0.4l-7.4-4.4l-4.9,6.6l2.4-0.4l0.2,1.9
					c0,0.1,0.5,1.5,0.5,1.5c0,0.1,0.8,1.3,0.8,1.3c0,0.1,0.9,1.2,0.9,1.2c0,0.1,1.2,1.1,1.2,1.1l1.2,0.9l1.3,0.9l1.5,0.9l1.4,0.8
					l1.5,0.8l1.5,0.8l1.4,0.8l1.4,0.8l1.2,0.9l1.1,0.9l0.8,0.8l1.9-1.7l1.2-0.9l1.3-0.8l1.4-0.7l1.5-0.7l1.5-0.8l1.4-0.8l1.4-0.8
					l1.3-0.9l1.2-1l1.1-1.2c0-0.1,0.9-1.2,0.9-1.2l0.8-1.5c0-0.1,0.5-1.6,0.5-1.6c0-0.1,0.3-1.8,0.3-1.8v-0.1l2.6,0.5L140.5,122.6z"
					/>
			</g>
			<g>
				<path class="st0" d="M125,106.1c-1.7,0-3.1-1.4-3.1-3.1c0-1.7,1.4-3.1,3.1-3.1s3.1,1.4,3.1,3.1
					C128.1,104.8,126.7,106.1,125,106.1 M129,141.1l1.5-0.8l1.5-0.7l1.5-0.8l1.4-0.8l1.4-0.8l1.3-0.9l1.2-0.9l1-1.1l0.9-1.2
					c0,0,0.7-1.3,0.8-1.3l0.5-1.5l0.3-1.8l0.2-0.9l0.5,0.1l0.9,0.2c-0.9-1.1-2.9-4-3.2-4.5l-4.9,2.9l0.9,0.2l-0.2,1.5
					c0,0-0.2,0.8-0.2,0.9l-0.2,0.7l-0.3,0.7c0,0-0.4,0.6-0.4,0.7l-0.5,0.5c0,0-0.5,0.5-0.5,0.5c0,0-0.5,0.5-0.5,0.5l-0.5,0.5
					c0,0-0.5,0.4-0.6,0.4c0,0-0.6,0.3-0.6,0.4l-0.6,0.3l-0.6,0.3l-0.6,0.2c0,0-0.6,0.2-0.7,0.2l-1.1,0.2v-21.6H142v-4.1h-13.9
					l1.1-0.8c1.9-1.2,3-3.4,3-5.6c0-3.7-3-6.8-6.8-6.8c-3.7,0-6.8,3-6.8,6.8c0,2.2,1.2,4.4,3,5.6l1.1,0.8h-13.9v4.1h13.1v21.6
					l-0.5-0.1c0,0-1.5-0.2-1.6-0.2l-0.8-0.2c0,0-0.7-0.3-0.8-0.3c0,0-0.6-0.4-0.7-0.4l-0.5-0.5c0,0-0.5-0.4-0.6-0.5l-0.5-0.5
					l-0.5-0.5c0,0-0.4-0.5-0.4-0.6l-0.3-0.6c0,0-0.2-0.6-0.3-0.6l-0.2-0.7c0,0-0.2-0.7-0.2-0.7l-0.1-0.7c0,0-0.1-0.7-0.1-0.8V127
					l0.1-0.4l0.8-0.2c-1.2-0.8-4.4-2.6-4.9-2.9l-3.2,4.5l0.9-0.2l0.5-0.1l0.1,0.4c0,0,0.2,2.2,0.2,2.3l0,0c0.2,0.5,0.3,0.9,0.5,1.4
					l0.7,1.2l0.9,1.1l1.1,1l1.2,0.9l1.3,0.9l1.4,0.8l1.4,0.8l1.5,0.8l1.5,0.8l1.4,0.8c0,0,1.4,0.8,1.5,0.9l1.2,0.9l1.3,1.2
					c0.5-0.4,1.5-1.2,1.5-1.2s1.2-0.9,1.3-0.9C127.6,141.9,129,141.1,129,141.1"/>
			</g>
			<g>
				<path class="st0" d="M106.3,68c0-0.9,0.1-1.7,0.9-2.2h-5.5c0.8,0.5,0.9,1.4,0.9,2.2v9.4c0,0.9-0.1,1.7-0.9,2.2h5.5
					c-0.8-0.5-0.9-1.4-0.9-2.2V68z"/>
			</g>
			<g>
				<path class="st0" d="M128.2,73.2h0.6c1.5,0,3.6,0.1,3.9,0.8l0,0v-2.9l0,0c-0.2,0.1-0.4,0.1-0.8,0.1h-3.6v-3.6h1.1
					c1.3,0,3.9,0,4.6,0.9v-2.9c-0.2,0.2-0.5,0.2-0.9,0.2h-9.4c0.8,0.5,0.9,1.3,0.9,2.2v9.4c0,0.9-0.1,1.7-0.9,2.2h5.6
					c-0.9-0.9-0.9-1.9-0.9-3v-3.4H128.2z"/>
			</g>
			<g>
				<path class="st0" d="M143.5,77.8c-2.9,0-4.6-2-4.6-5.4c0-3.2,1.3-4.9,3.8-4.9c1.2,0,2.4,0.4,3.5,1.1l-0.2-2.8l-3.2-0.2
					c-2.4,0-4.5,0.7-5.9,1.9c-1.4,1.2-2.3,3.2-2.3,5.3c0,2.2,0.9,4.2,2.5,5.5c1.5,1.3,3.1,1.8,5.6,1.8c1.6,0,2.9-0.2,4.2-0.5l1-2.9
					C146.8,77.1,145.2,77.8,143.5,77.8"/>
			</g>
			<g>
				<path class="st0" d="M121.1,68c0-0.9,0.1-1.7,0.9-2.2h-5.5c0.8,0.5,0.9,1.4,0.9,2.2v7c0,0.7,0,1.4-0.5,2
					c-0.3,0.5-0.9,0.7-1.5,0.7h-0.2c-0.5,0-1.1-0.2-1.5-0.7c-0.5-0.6-0.5-1.3-0.5-2V68c0-0.9,0.1-1.7,0.9-2.2h-5.3
					c0.8,0.5,0.9,1.4,0.9,2.2v7.4c0,1.3,0.1,2.3,1,3.2c0.9,1,2.2,1.2,3.1,1.2h3.5c0.9,0,2.1-0.2,3-1.2c0.9-0.9,1-1.9,1-3.2L121.1,68
					z"/>
			</g>
		</g>
	</g>
</g>
<rect x="8" y="34.8" class="st5" width="234" height="180.4"/>
<g id="레이어_1">
	<rect x="8" y="8" class="st5" width="234" height="234"/>
</g>
<g id="_레이어_2">
</g>
</svg>
