<?xml version="1.0" encoding="utf-8"?>
<!-- Generator: Adobe Illustrator 25.1.0, SVG Export Plug-In . SVG Version: 6.00 Build 0)  -->
<svg version="1.1" id="Layer_1" xmlns="http://www.w3.org/2000/svg" xmlns:xlink="http://www.w3.org/1999/xlink" x="0px" y="0px"
	 viewBox="0 0 250 250" style="enable-background:new 0 0 250 250;" xml:space="preserve">
<style type="text/css">
	.st0{fill:none;}
	.st1{fill:#FFFFFF;}
	.st2{fill:#0A1561;}
	.st3{fill:#EE7501;}
	.st4{fill:#E1002A;}
</style>
<g id="Layer_1_1_">
</g>
<g id="레이어_1">
	<rect x="8" y="8" class="st0" width="234" height="234"/>
</g>
<g id="_레이어_1">
	<g>
		<path class="st1" d="M127.8,208.6l-2.8,1.7l-2.8-1.7c-53.5-32.7-57.1-73.2-57.1-74.6v-1.5c12.6-3.5,32.2-7,59.8-7
			c27.5,0,47.1,3.5,59.7,7v1.5C184.8,135.3,181.3,175.8,127.8,208.6 M65.3,76.6l40.3-36.9h38.9l40.3,36.9v13.2
			C172.1,86,152.3,82,125.1,82s-47,3.9-59.8,7.9L65.3,76.6z M51.1,137.2c2.2-0.9,5.2-2.2,9.2-3.4v0.1c0,0.1,0.1,3.2,1.5,8.6
			C56.8,140.5,53.3,138.6,51.1,137.2 M189.8,133.9L189.8,133.9c4,1.2,7.1,2.4,9.2,3.3c-2.2,1.3-5.7,3.2-10.6,5.3
			C189.6,137.2,189.8,134,189.8,133.9"/>
		<path class="st2" d="M202.9,97.2c0,0-4.3-2.6-13.1-5.7V76.6c0-1.4-0.6-2.7-1.6-3.6l-40.3-36.9c-0.9-0.8-2.1-1.3-3.3-1.3h-39
			c-1.2,0-2.5,0.5-3.3,1.3L61.9,73c-1,0.9-1.6,2.2-1.6,3.6v14.8c-8.9,3.1-13.1,5.7-13.1,5.7v42c2.2,1.5,7.3,4.7,15.9,7.9
			c1.3,4.2,3.3,9.1,6.2,14.6c4.5,8.7,10.6,17,17.9,24.8c8.9,9.6,19.9,18.4,32.5,26.1l2.8,1.7c0.8,0.5,1.7,0.7,2.6,0.7
			c0.9,0,1.8-0.2,2.6-0.7l2.8-1.7c12.6-7.7,23.6-16.5,32.5-26.1c7.2-7.8,13.3-16.2,17.9-24.8c2.9-5.6,4.9-10.6,6.2-14.6
			c8.6-3.3,13.7-6.5,15.9-7.9v-42H202.9z M65.3,76.6l40.3-36.9h38.9l40.3,36.9v13.2C172.1,86,152.3,82,125.1,82s-47,3.9-59.8,7.9
			L65.3,76.6z M51.1,137.2c2.2-0.9,5.2-2.2,9.2-3.4v0.1c0,0.1,0.1,3.2,1.5,8.6C56.8,140.5,53.3,138.6,51.1,137.2 M127.8,208.6
			l-2.8,1.7l-2.8-1.7c-53.5-32.7-57.1-73.2-57.1-74.6v-1.5c12.6-3.5,32.2-7,59.8-7c27.5,0,47.1,3.5,59.7,7v1.5
			C184.8,135.3,181.3,175.8,127.8,208.6 M189.8,133.9L189.8,133.9c4,1.2,7.1,2.4,9.2,3.3c-2.2,1.3-5.7,3.2-10.6,5.3
			C189.6,137.2,189.8,134,189.8,133.9"/>
		<path class="st3" d="M153.8,157.1c2.2,5.5,4.6,11.4,5.2,18.3c5.9-6.2,10.8-12.4,13.6-18c5.5-10.4,7.2-18.5,7.8-21.9
			c-7.2-1.8-16.3-3.5-27.4-4.7C147.1,140.6,150.1,148.1,153.8,157.1 M91.1,175.5c0.6-6.9,3-12.9,5.2-18.3c3.6-8.9,6.7-16.4,0.8-26.1
			c-11.2,1.2-20.3,2.9-27.4,4.7c0.5,3.5,2.3,11.6,7.8,21.9C80.3,163,85.2,169.3,91.1,175.5"/>
		<path class="st4" d="M149.8,158.7c-3.6-8.9-7.1-17.5-1.5-28.1c-7-0.6-14.8-0.9-23.4-0.9c-8.6,0-16.3,0.4-23.4,0.9
			c5.6,10.6,2.2,19.2-1.5,28.1c-2.6,6.4-5.2,12.9-5,20.8c9.2,8.7,20,16.7,29.9,21.1c9.9-4.5,20.7-12.4,29.9-21.1
			C155.1,171.6,152.5,165.1,149.8,158.7 M180.6,78.6L142.8,44h-35.7L69.4,78.6v10.1c12.8-3.5,31.1-6.6,55.6-6.6s42.8,3.2,55.6,6.6
			L180.6,78.6z"/>
		<path class="st1" d="M110,165.2c0.8-0.5,1.6-1,2.2-1.8h2.2V175h-2.5v-8.9c-0.6,0.5-1.3,0.9-1.9,1.3V165.2z M119.1,172.2
			c0,0.3,0,0.6,0.2,0.8c0.2,0.2,0.4,0.4,0.7,0.4c1.2,0,1-0.9,1-3.7c-0.5,0.5-1.2,0.8-1.9,0.8c-1.8,0-2.5-1.6-2.5-3.1
			c0-2.2,0.7-4.1,3.3-4.1c3.4,0,3.4,2.7,3.4,5.9c0,2.9-0.1,5.9-3.4,5.9c-2,0-3.2-0.7-3.1-2.9H119.1z M119.9,168.9c1,0,1-1.3,1-2.1
			c0-0.7,0-2-1-2c-1,0-1,1.3-1,2.1S118.9,168.9,119.9,168.9 M124.9,172c0-1.4,0.2-2.6,1.7-3.1l0,0c-1.3-0.3-1.6-1.3-1.6-2.5
			c0-2.1,1.1-3.1,3.2-3.1c2.2,0,3.2,0.9,3.2,3.1c0,1.2-0.3,2.2-1.6,2.5l0,0c1.5,0.5,1.7,1.7,1.7,3.1c0,2.2-1.2,3.1-3.3,3.1
			C126.1,175.1,124.9,174.2,124.9,172 M127.3,171.9c0,0.7,0.2,1.5,1,1.5c0.9,0,1-0.9,1-1.5c0-0.7,0-2.1-1-2.1
			C127.3,169.8,127.3,171.2,127.3,171.9 M127.3,166.5c0,0.6,0.1,1.5,0.9,1.5s0.9-0.9,0.9-1.5c0-0.5-0.1-1.5-0.9-1.5
			C127.5,165,127.3,165.9,127.3,166.5 M133.2,174.9v-2c3.6-4.9,4.4-5.4,4.4-6.9c0-0.5-0.2-1.2-0.8-1.2c-0.9,0-1,0.9-1,1.6h-2.3
			c-0.2-2.2,1.1-3.3,3.2-3.3c2,0,3.4,0.8,3.4,3c0,2.6-3,5.6-4.2,6.9h4.4v1.8H133.2z M98.3,114.6c-3.5,0.4-5.3,0.6-8.9,1.2v-8.1
			c3-0.5,4.5-0.7,7.6-1v-4.7c-3.1,0.4-4.5,0.5-7.6,1v-6.2c3.5-0.5,5.3-0.8,8.9-1.2v-4.7c-5.1,0.5-10.2,1.3-15.3,2.2v28.4
			c5.1-0.9,10.2-1.6,15.3-2.2C98.3,119.2,98.3,114.6,98.3,114.6z M180.1,110.4l5.5-12.8c-2.6-0.7-3.9-1.1-6.6-1.7l-4.7,10.9V94.9
			c-2.5-0.5-3.9-0.8-6.4-1.3V122c2.5,0.5,3.9,0.8,6.4,1.3v-12l4.7,13.1c2.6,0.6,3.9,1,6.6,1.7L180.1,110.4z M62.5,120.5
			c0,4.6,5,5,8.5,4c4.2-1.2,8.5-3.4,8.5-8.7V93.7c-4.2,0.8-6.4,1.3-10.6,2.3v4.7c1.4-0.3,2.8-0.7,4.2-1v17.2c0,2-0.8,2.5-2.1,2.9
			c-1.3,0.3-2.1,0.1-2.1-1.9v-3.5l-6.4-2.1L62.5,120.5z M100.3,113.3c0,5.1,5.6,5.8,8.6,5.6c4.2-0.3,8.6-2.2,8.6-6.7V89.5
			c-4.3,0.2-6.5,0.2-10.8,0.5v4.7c1.7-0.2,2.5-0.2,4.3-0.3v17.2c0,2-0.8,2.4-2.2,2.5c-1.3,0.1-2.2-0.2-2.2-2.2v-3.5l-6.5-3.2
			L100.3,113.3L100.3,113.3z M121.2,112.1c0,4.7,4.9,6.2,8.6,6.4c4.1,0.1,8.6-1.5,8.6-5.9V89.8c-2.6-0.2-3.9-0.2-6.5-0.3v21.9
			c0,2-0.8,2.3-2.2,2.3c-1.3,0-2.2-0.5-2.2-2.4V89.4c-2.6-0.1-3.9-0.1-6.5,0V112.1z M164.3,111c0-1.3-0.7-2.4-1.8-3.2l-8.2-6.6
			c-0.5-0.4-0.6-0.7-0.6-1v-2.4c0-2,0.8-2.2,2.2-2.1c1.3,0.2,2.2,0.7,2.2,2.7v1.9c2.5,0.4,3.9,0.6,6.4,1v-1.9
			c0.1-5.3-3.9-7.6-8.6-8.4c-4-0.7-8.6,0.6-8.6,5.4v3.5c0,1.3,0.6,2.2,1.8,3.2l8.3,6.4c0.5,0.3,0.6,0.7,0.6,1.1v3.2
			c0,2-0.8,2.2-2.2,2.1c-1.3-0.2-2.2-0.8-2.2-2.7v-2.2l-6.5-4.5v5.9c0,5.2,4.2,7.2,8.6,8c4.1,0.7,8.6-0.5,8.6-4.7V111L164.3,111z
			 M119.5,70.1l0.5-10.5c0-0.4-0.5-0.5-0.7-0.3l-7.8,8.6c-0.1,0.1-0.2,0.2-0.3,0.2l-25.8,10l4-3.9l13-10.2c0.3-0.2,0.8,0.1,0.5,0.5
			l-3.8,5.7c-0.2,0.2,0.2,0.5,0.4,0.4l4.1-2.9l0.1-0.1l4.9-10.3c0.2-0.4-0.2-0.7-0.6-0.5l-15.9,11l-6.8,2.5l23.5-21.8l4.5,1.4h3.8
			l2.5,1.2l6.6,0.5l5.2-0.5l6-1.1l3.9-1.5l28.2,25.8l-8.4-3.1l-15.3-11.4l-5.2-3.2c-0.3-0.2-0.7,0.2-0.5,0.5l1.8,7l6.4,5.2
			c0.2,0.2,0.5-0.2,0.4-0.4l-4.1-6.4c-0.2-0.3,0.2-0.6,0.5-0.4l18.4,15.4l-7.7-1.2l-20.7-10.4l-7.7-10.6c-0.2-0.3-0.8-0.2-0.7,0.3
			v6.8L119.5,70.1z"/>
	</g>
</g>
<rect x="8" y="34.8" class="st0" width="234" height="180.4"/>
</svg>
