<?xml version="1.0" encoding="utf-8"?>
<!-- Generator: Adobe Illustrator 25.1.0, SVG Export Plug-In . SVG Version: 6.00 Build 0)  -->
<svg version="1.1" id="Layer_1" xmlns="http://www.w3.org/2000/svg" xmlns:xlink="http://www.w3.org/1999/xlink" x="0px" y="0px"
	 viewBox="0 0 250 250" style="enable-background:new 0 0 250 250;" xml:space="preserve">
<style type="text/css">
	.st0{fill:#FFDE00;}
	.st1{fill:none;}
</style>
<g id="Layer_1_1_">
	<g>
		<g>
			<g transform="matrix(.35278 0 0 -.35278 0 297)">
				<path d="M146.4,743.6V495c0-45.7,4-99,33.9-148.5c43.6-78.7,174-123.9,174-123.9s130.4,45.1,174,123.9
					c29.8,49.5,33.9,102.9,33.9,148.5v248.6H146.4L146.4,743.6z"/>
				<path class="st0" d="M229.4,685v12.8h6l7.3,7.3h-13.3v10.1h14.4v7.3h-21.8v-44.8h22.1v7.3L229.4,685L229.4,685z"/>
				<path class="st0" d="M352.7,722.5v-24l-13,24h-4.5v-44.8h7.3v24.6l13.9-24.6h3.6v44.8H352.7z"/>
				<path class="st0" d="M412.2,722.5v-24l-13,24h-4.5v-44.8h7.3v24.6l13.9-24.6h3.6v44.8H412.2z"/>
				<path class="st0" d="M541.1,722.5h-26.8l-7.3-7.3v-37.5h7.3v37.5h6v-37.5h7.3v37.5h6v-37.5h7.3L541.1,722.5z"/>
				<path class="st0" d="M294.3,685h-10.2v30.2h10.2V685z M301.7,722.5h-17.5c-4,0-7.3-3.3-7.3-7.3v-37.5h17.5l7.3,7.3V722.5z"/>
				<path class="st0" d="M167.5,722.5l7.3-7.3h7.4v-30.2h-7.4v12.8l-7.3,7.3v-20.1c0-4,3.3-7.3,7.3-7.3h14.7v44.7H167.5z"/>
				<path class="st0" d="M470,705h-10.2v10.2H470V705z M459.9,722.5c-4,0-7.3-3.3-7.3-7.3v-37.5h7.3v20h6.5l3.6,3.6v-23.7h7.3v44.9
					H459.9z"/>
				<path class="st0" d="M471.9,662.5v-18l-9.8,18h-3.3v-33.6h5.5v18.4l10.4-18.4h2.7v33.6H471.9z"/>
				<path class="st0" d="M414.1,634.3h-7.6v22.6h7.6V634.3z M419.5,634.3v28.1h-13.1c-3,0-5.5-2.5-5.5-5.5v-28.1H414L419.5,634.3z
					 M173,656.9h7.6v-22.6H173C173,634.3,173,656.9,173,656.9z M186.1,634.3v22.6c0,3-2.5,5.5-5.5,5.5h-13.1v-33.6h13.1L186.1,634.3
					z"/>
				<path class="st0" d="M238.7,649.3h-7.6v7.6h7.6V649.3c3,0,5.5,2.5,5.5,5.5l0,0v2.2c0,3-2.5,5.5-5.5,5.5h-13.1v-33.6h5.5v15h7.6
					v-15h5.5v15L238.7,649.3z"/>
				<path class="st0" d="M296.2,649.3h-7.6v7.6h7.6V649.3z M301.7,662.5h-13.1c-3,0-5.5-2.5-5.5-5.5v-28.1h5.5v15h4.9l2.7,2.7v-17.7
					h5.5V662.5z"/>
				<path class="st0" d="M360,634.3V649h-8.5v-5.5h3v-9.1h-7.6v22.6h7.6l5.5,5.5h-13.1c-3,0-5.5-2.5-5.5-5.5v-28.1h13.1
					C357.6,628.8,360,631.2,360,634.3"/>
				<path class="st0" d="M541.1,634.3v7.1l-10.3,11.9v3.5h10.4v5.5h-10.4l0,0l-5.5-5.5v-6.2l10.4-12v-4.4h-10.4v-5.5h10.4
					C538.7,628.8,541.1,631.2,541.1,634.3L541.1,634.3"/>
				<path class="st0" d="M228.6,603.6v-35.9l35.9-35.9v70.3l0,0c19.8,0,35.9-16,35.9-35.9v-224l0,0c-19.5,16.7-35.9,41.4-35.9,70.5
					v88.4l-35.9,35.9v-42.2c0-40.8,3.4-74,20.1-103.2c16.2-28.4,45-52.9,87.7-74.3v286.2H228.6z"/>
				<path class="st0" d="M444.1,412.9c0-29.1-16.4-53.9-35.9-70.5l0,0v259.8c19.8,0,35.9-16.1,35.9-35.9V412.9z M444.2,603.6h-71.9
					V317.5c42.7,21.4,71.5,45.9,87.7,74.3C476.6,420.9,480,454.1,480,495v74.4C479.2,588.4,463.5,603.6,444.2,603.6"/>
				<path class="st0" d="M192.7,603.6h-25.1v-20.7l25.1-25.1V603.6z"/>
				<path class="st0" d="M516,603.6v-45.8l25.1,25.1v20.7H516L516,603.6z"/>
				<path class="st0" d="M516,495c0-83.7-12.2-162.1-161.7-223.2C204.9,332.8,192.6,411.2,192.6,495v32.3l-25.1,25.1V495
					c0-42.9,3.6-92.7,31-137.9c32.4-57.4,110.8-95.8,155.8-112.1c45,16.4,123.4,54.7,155.8,112.1c27.3,45.2,31,95,31,137.9v57.4
					L516,527.3V495z"/>
			</g>
		</g>
	</g>
</g>
<g id="레이어_1">
	<rect x="8" y="8" class="st1" width="234" height="234"/>
</g>
<g id="_레이어_2">
</g>
<rect x="8" y="34.8" class="st1" width="234" height="180.4"/>
</svg>
