<?xml version="1.0" encoding="utf-8"?>
<!-- Generator: Adobe Illustrator 25.1.0, SVG Export Plug-In . SVG Version: 6.00 Build 0)  -->
<svg version="1.1" id="Layer_1" xmlns="http://www.w3.org/2000/svg" xmlns:xlink="http://www.w3.org/1999/xlink" x="0px" y="0px"
	 viewBox="0 0 250 250" style="enable-background:new 0 0 250 250;" xml:space="preserve">
<style type="text/css">
	.st0{fill:#FFFFFF;}
	.st1{fill:#034F36;}
	.st2{fill:#FFDD00;}
	.st3{fill:#004281;}
	.st4{fill:none;}
</style>
<g id="Layer_1_1_">
	<g>
		<path class="st0" d="M63.2,129.4l0.2,1.2c1.9,9.9,13.4,60.3,61.7,84.9c48.3-24.6,59.8-74.9,61.7-84.8l0.2-1.2l1.2,0.2
			c5.9,1,21,5,27.1,6.6l-13.4-26.1L213.3,89h-23.2l0.1-8.6l-18.5-28.8c-2.6,1.5-5.6,2.3-9,2.4c-9.5,0-21.9-6.3-37.7-19.2
			C109.2,47.8,96.9,54,87.4,54c-3.3,0-6.3-0.8-9-2.3L60,80.4V89H42.2l9,9.9V118l-1,0.2c-1.2,0.2-4.8,1-6.2,1.3l-9.2,16.8
			c8.7-2.4,20.1-5.3,27.2-6.8L63.2,129.4z"/>
		<path class="st1" d="M125.1,124.1c-17.8,0-35.5,1.8-52.9,5.3c14.1,32.3,34.3,53.2,52.9,64c18.5-10.7,38.7-31.7,52.9-64
			C160.6,125.9,142.9,124.1,125.1,124.1"/>
		<path class="st1" d="M167.5,66.8c-7.9,0.8-20.4,1.6-42.4-13.6c-21.9,15.2-34.5,14.4-42.4,13.6L74.6,75c13.1-2.2,30.9-3.6,50.5-3.6
			s37.4,1.4,50.5,3.6L167.5,66.8z"/>
		<path class="st1" d="M69,76l12.8-13.7c0,0,15.9,5.6,43.3-15.1c27.3,20.7,43.3,15.1,43.3,15.1L181.2,76c0.5,0.2,1.1,0.2,1.6,0.4
			l-12.7-19.7c-2.8,1.3-16.5,6.3-45-16.8C96.5,63.1,82.7,58,80,56.7L67.4,76.4C67.9,76.3,68.5,76.1,69,76"/>
		<path class="st1" d="M125.1,211c0,0,45.4-21.7,57.6-80.7c-0.1,0-0.5,0-0.6,0c-19.9,51.1-52.6,67.9-56.9,70.2
			c-4.4-2.2-37.1-19-56.9-70.2c-0.1,0-0.5,0-0.5,0C79.7,189.2,125.1,211,125.1,211"/>
		<path class="st2" d="M124.9,145.6c1.8,0.2,3,0.1,3,0.1C127.3,148.1,124.9,145.6,124.9,145.6 M148,153.9c-0.7-9-5.7-10.9-9-9.5
			c-2.4,1-3.2,3.6-2.1,5.3c-2.2-0.8-4.2,0-4.9,1.9c-0.7,1.8,0.3,3.9,2.3,4.1c1.4,0.2,2.8-0.5,2.5-2.1c-0.2,0.5-1,1-1.8,0.8
			c-0.9-0.2-1.2-1.1-1.1-1.7c0.2-0.7,0.8-1.3,1.8-1.3c1.1-0.1,2.1,0.5,2.5,1.6c0.7,2.2-1.4,4.6-4.6,3.9c-3-0.7-6.3-4.8-5.3-7.6
			c0.5-1.5,2.4-1.9,3.2-1c0.1-1.7-1.6-2.7-3-2.7c0,0,1-0.2,1-1.1c0-0.5-0.2-1.2-1.4-1.5c-2.7-0.8-5.9,1.2-6.3-0.2
			c0,0-1.5,2.2,3.4,2.2c-2.6,0.4-2.3,2.7-4,3.1c-0.5,0.2-1.5,0-1.5-0.8c0.6,0.1,1.5-0.7,1-1.5c-0.5-0.8-2.1-0.5-2.2,0.8
			c-0.4,2.1,1.9,4.1,5.8,2.6c-2,0.9-2.4,3.4-0.8,4.6c-0.2-0.8,0.2-1.9,1-2.3c0,0-0.1,2.5,1.3,4.2c-1.6-1.2-3.7-1.3-5.5-0.3
			c0.3-1.2-0.1-2.6-1.1-3.5c-1.2-1-3.2-1.3-4.6-0.2c-2.2,1.7-0.8,4.6,0.8,4.4c-0.4-0.2-1-1.5,0.2-2.3c0.9-0.6,1.9,0,2.2,0.5
			c0.6,1,0.2,2.5-1.2,3.1c0,0-2.9,1.2-4.7-1.7c-0.9-1.6-1.3-4-0.6-6.6c0.2-0.6,1.3-4.6,5.8-5.8c0,0-0.5-0.8-1.9-0.6
			c0.2-0.1,0.2-0.2,0.4-0.3c4.7-4.2,11.2-4.5,15.1-3.1c0,0-6.2-4-13.8-0.2c-8.8,4.4-10.3,14.9-5.9,19.2c2.3,2.3,5.3,2,5.9,1.9
			c-0.2,0.8,0.2,2.8,1.5,3.2c-4.7,0.2-9.7-3.6-10.4-6.6c0.2,4.6,5.1,9.7,12.4,9c3.6-0.4,6-2.8,5.2-5.6c-0.5-1.8-2.5-2.6-4-1.4
			c-0.9,0.8-0.6,2.2,0.2,2.5c1.2,0.4,2.2-0.5,2.1-1.5c1,1.2,0.3,2.8-1.2,3.2c-2.3,0.5-3.7-1.5-3.5-3.1c0.2-1.5,1.2-2.4,2.5-2.8
			c2.5-0.8,5,0.8,5.6,2.8c1.2,4.4-1.9,7.6-6.7,8.1c-4.1,0.5-8.4-1.1-11.7-4.4c-4.9-4.8-5.5-15.8-0.2-17.8c-0.4-0.6-1.8-0.8-2.5,0
			c1.1-4.6,7.5-11.2,11.6-9.7c-0.1-1-0.9-1.4-1.7-1.2c3.2-1.4,13.3-3.9,22.8,1.9c-4.4-4-10.4-6.1-16.8-5.4
			c-8.8,1-16.3,7.1-18.7,15.1c-1.9,6.2-0.7,12.2,1.6,16.1c3,5.2,8.2,7.3,11.7,8.3c2.2,0.6,1.5,2.7-1.9,1.9c-3-0.6-6.6-3.1-8.7-5.4
			c1.2,1.9,2.8,3.7,4.6,5.2c5.5,4.5,10,2.5,10.3,0.7c0.2-0.7-0.5-1.5-0.9-1.8c2.1,0.4,4.9,0.5,7.3-0.1c-0.5,0.5-0.3,1.2,0.1,1.5
			c1.8,1.2,4.9-0.3,5.8,0.2c1.6,0.8-3.9,5.2-14.5,3.6c5.2,2.1,11.7,1.7,17.1-1.2c1.5-0.8,2.3-2,1.9-3.2c-0.3-1-1.5-1.6-3.3-1.4
			c-2,0.2-3.7,0.5-3.9,0c-0.1-0.2,0-0.7,0.5-1c2.5-1.9,5.3-5.6,2.7-10.4c3.2,1.1,7.7-0.8,8-4.9c1.1,4.6-0.6,10-3,12.9
			c5.9-5.1,5.9-13.8,4-17.5c0.2,0.8-0.5,1.5-1.2,1.6c-1.2,0.3-2-0.5-2.3-1.1c-0.5-1.2,0.2-2.5,1.2-2.9c2.5-0.9,4.6,0.6,5.4,4.4
			c1.6,7.6-1.3,15.4-6.1,19.5C144.2,169.1,148.6,161.7,148,153.9"/>
		<path class="st3" d="M77.1,83.2h-3.6v-3h-1.7v7.8h1.7v-3.2h3.6v3.2h1.7v-7.8h-1.7V83.2z"/>
		<path class="st3" d="M114.1,80.6c-0.4,0.4-0.4,0.9-0.4,1.2V88h1.7v-2.5h3.6V88h1.7v-7.8h-5.3C115,80.1,114.5,80.2,114.1,80.6
			 M115.9,81.7h3.2v2.2h-3.6v-1.9c0-0.1,0-0.2,0.1-0.4C115.6,81.7,115.7,81.7,115.9,81.7"/>
		<path class="st3" d="M102.1,80.1h-5.3v7.8h1.7v-6.3h3.2c0.2,0,0.3,0,0.4,0.1c0.1,0.1,0.1,0.2,0.1,0.3v5.9h1.7v-6.2
			c0-0.3,0-0.8-0.4-1.2C103.1,80.2,102.6,80.1,102.1,80.1"/>
		<path class="st3" d="M93.6,85.9c0,0.1,0,0.2-0.1,0.3c-0.1,0.2-0.2,0.2-0.4,0.2h-3.2v-6.3h-1.7v7.8h5.3c0.5,0,1-0.1,1.3-0.5
			c0.4-0.4,0.4-0.9,0.4-1.2v-6.2h-1.7V85.9z"/>
		<path class="st3" d="M112.3,81.8c0-0.3,0-0.8-0.4-1.2s-0.8-0.5-1.3-0.5h-5.3v7.8h5.3c0.5,0,1-0.1,1.3-0.5c0.4-0.4,0.4-0.9,0.4-1.2
			V81.8 M110.6,85.9c0,0.1,0,0.2-0.1,0.3s-0.2,0.1-0.4,0.1H107v-4.8h3.2c0.2,0,0.3,0,0.4,0.1c0.1,0.1,0.1,0.2,0.1,0.4V85.9z"/>
		<path class="st3" d="M83.5,83.5l-2.1-3.4h-2l3.2,4.9v2.9h1.9v-2.9l3.2-4.9h-2L83.5,83.5z"/>
		<path class="st3" d="M122.5,87.9h1.8v-7.8h-1.8V87.9z"/>
		<path class="st3" d="M168.7,85.4c0.4-0.1,0.7-0.2,0.9-0.4c0.3-0.4,0.4-0.9,0.4-1.2v-2c0-0.3,0-0.8-0.4-1.2
			c-0.4-0.4-0.8-0.5-1.3-0.5H163v7.8h1.7v-2.5h2.2l1.7,2.5h1.8L168.7,85.4 M168.5,83.5c0,0.1,0,0.2-0.1,0.2
			c-0.1,0.1-0.2,0.1-0.4,0.1h-3.2v-2h3.2c0.2,0,0.3,0,0.4,0.1s0.1,0.2,0.1,0.2V83.5z"/>
		<path class="st3" d="M146.6,80.1v1.7h2.6v6.1h1.7v-6.1h2.7v-1.7H146.6z"/>
		<path class="st3" d="M128.8,80.1v7.8h1.7V83l1.6,4.9h1.5l1.7-4.9v4.9h1.7v-7.8h-2.2l-1.9,5.5l-1.9-5.5H128.8z"/>
		<path class="st3" d="M161.2,80.6c-0.4-0.4-0.8-0.5-1.3-0.5h-3.6c-0.5,0-1,0.1-1.3,0.5c-0.4,0.4-0.4,0.9-0.4,1.2v4.5
			c0,0.3,0,0.8,0.4,1.2c0.3,0.4,0.8,0.5,1.3,0.5h3.6c0.5,0,1-0.1,1.3-0.5c0.4-0.4,0.4-0.9,0.4-1.2v-4.6
			C161.6,81.5,161.6,80.9,161.2,80.6 M159.9,85.9c0,0.1,0,0.2-0.1,0.2c-0.1,0.1-0.2,0.1-0.4,0.1h-2.8c-0.2,0-0.3,0-0.4-0.1
			c0-0.1-0.1-0.2-0.1-0.2v-3.8c0-0.1,0-0.2,0.1-0.2c0.1-0.1,0.2-0.1,0.4-0.1h2.8c0.2,0,0.3,0,0.4,0.1c0.1,0.1,0.1,0.2,0.1,0.2V85.9z
			"/>
		<path class="st3" d="M145.1,80.6c-0.4-0.4-0.8-0.5-1.3-0.5h-3.6c-0.5,0-1,0.1-1.3,0.5c-0.4,0.4-0.4,0.9-0.4,1.2v4.5
			c0,0.3,0,0.8,0.4,1.2c0.4,0.4,0.8,0.5,1.3,0.5h3.6c0.5,0,1-0.1,1.3-0.5c0.4-0.4,0.4-0.9,0.4-1.2v-4.5
			C145.5,81.5,145.5,80.9,145.1,80.6 M143.8,85.9c0,0.1,0,0.2-0.1,0.2c-0.1,0.1-0.2,0.1-0.4,0.1h-2.8c-0.2,0-0.3,0-0.4-0.1
			s-0.1-0.2-0.1-0.2v-3.8c0-0.1,0-0.2,0.1-0.2c0.1-0.1,0.2-0.1,0.4-0.1h2.8c0.2,0,0.3,0,0.4,0.1c0.1,0.1,0.1,0.2,0.1,0.2V85.9z"/>
		<path class="st3" d="M176.8,83.3h-3.2c-0.3,0-0.5-0.2-0.5-0.5v-0.8c0-0.3,0.2-0.4,0.5-0.4h4.5v-1.5h-4.9c-1.2,0-1.7,0.5-1.7,1.7
			v1.3c0,1.1,0.5,1.6,1.6,1.6h3.2c0.3,0,0.5,0.2,0.5,0.4v0.8c0,0.3-0.2,0.5-0.5,0.5h-4.6v1.5h4.9c1.2,0,1.7-0.6,1.7-1.7v-1.3
			C178.4,83.9,177.9,83.3,176.8,83.3"/>
		<path class="st1" d="M150.1,103.2c0,0.6-0.5,0.9-1.2,0.9c-1.5,0-2.9-0.1-4.3-0.1v-6.6c1.5,0,2.9,0.1,4.3,0.1
			c0.8,0,1.3,0.4,1.3,0.9L150.1,103.2z M150.1,114.7c0,0.6-0.5,0.9-1.3,0.8c-1.5-0.1-2.9-0.2-4.3-0.2v-7.1c1.5,0.1,2.9,0.1,4.3,0.2
			c0.8,0,1.3,0.4,1.3,1V114.7z M152,93h-16.6c0,0,2,1,2,3.5v22.8c4.9,0.2,9.8,0.5,14.7,0.9c3.3,0.3,5.3-0.9,5.2-3.4v-6.3
			c0-2.5-1.3-3.8-4.8-4.2c3.6,0,4.9-1.2,4.8-3.7V97C157.2,94.4,155.2,93,152,93"/>
		<path class="st1" d="M101.9,114.5c0,0.6-0.5,1-1.3,1c-1.5,0.1-3.1,0.2-4.6,0.3c-0.8,0.1-1.3-0.2-1.3-0.8V98.5c0-0.6,0.5-1,1.3-1
			c1.5,0,3-0.1,4.6-0.1c0.8,0,1.3,0.3,1.3,0.9V114.5z M103.8,93H85.6c0,0,1.9,1,1.9,3.5v20.6c0,3,1.9,4,5.2,3.6
			c3.6-0.4,7.3-0.7,11-0.9c3.3-0.2,5.3-1.9,5.3-4.4c0-6.3,0-12.3,0-18.6C109,94.4,107.1,93,103.8,93"/>
		<path class="st1" d="M174.1,116.7c0,0.7-0.5,1-1.3,0.8c-1.3-0.2-2.6-0.3-3.9-0.5c-0.8-0.1-1.3-0.5-1.3-1.2V93h-9.2c0,0,2,1,2,3.7
			c0,0,0,13.5,0,20.3c0,2.5,2,4.2,5.3,4.6c3.5,0.5,7,0.9,10.4,1.5c3.2,0.5,5.2-0.7,5.2-3.5c0-9,0-26.7,0-26.7H174L174.1,116.7z"/>
		<path class="st1" d="M126.3,107.5c-2.6-4.8-5.2-9.6-7.7-14.4h-8.4c0,0,2,1,2,3.5l0,0c0,1.7,0,22.8,0,22.8c2.4-0.1,4.7-0.2,7.1-0.2
			v-14.4c2.5,4.8,5,9.6,7.6,14.4c0,0,4.3,0.1,6.5,0.1V93h-7.1C126.3,97.8,126.3,102.6,126.3,107.5"/>
		<path class="st1" d="M55.2,97.3v24.1c-2.9,0.5-5.8,1.1-8.6,1.7c-1.2,2.2-2.5,4.5-3.8,6.9c4.7-1.3,9.7-2.5,14.5-3.6
			c3.2-0.7,5.2-2.7,5.2-6.1V93H51.4L55.2,97.3z"/>
		<path class="st1" d="M64.4,93c0,0,1.9,1.2,1.9,4.2l0,0v27.4c5.8-1.2,11.7-2.1,17.6-2.9v-4.7c-3.4,0.4-6.9,0.8-10.3,1.3V111
			c3-0.3,5.9-0.5,9-0.8v-5.2c-3,0.2-5.9,0.4-9,0.5v-7.6c3.4-0.1,6.9-0.2,10.3-0.2V93L64.4,93z"/>
		<path class="st1" d="M197.2,110.1l9.3-17.2h-7.6l-7.3,13.5V93h-8.8c0,0,1.7,1.2,1.7,4.2l0,0c0,12.4,0,27.5,0,27.5
			c2.3,0.5,4.8,0.9,7.1,1.5v-14l8.1,15.8c2.5,0.6,5.3,1.2,7.7,1.9L197.2,110.1z"/>
	</g>
</g>
<g id="레이어_1">
	<rect x="8" y="8" class="st4" width="234" height="234"/>
</g>
<rect x="8" y="34.8" class="st4" width="234" height="180.4"/>
</svg>
