<?xml version="1.0" encoding="utf-8"?>
<!-- Generator: Adobe Illustrator 25.1.0, SVG Export Plug-In . SVG Version: 6.00 Build 0)  -->
<svg version="1.1" id="Layer_1" xmlns="http://www.w3.org/2000/svg" xmlns:xlink="http://www.w3.org/1999/xlink" x="0px" y="0px"
	 viewBox="0 0 250 250" style="enable-background:new 0 0 250 250;" xml:space="preserve">
<style type="text/css">
	.st0{fill:#D1D1D1;}
	.st1{fill:#FFFFFF;}
	.st2{fill:#FB342E;}
	.st3{fill:#FAA74A;}
	.st4{fill:#707070;}
	.st5{fill:none;}
</style>
<g id="Layer_1_1_">
	<g>
		<path class="st0" d="M209.7,79.7l-5.6-7.2l-29.6-37.8l-5.7,2.3c0,0-2.5,1-2.6,1c-0.2,0.1-17.3,6.6-41.2,6.8
			c-23.7-0.2-40.9-6.7-41.1-6.8l-2.5-1l-5.7-2.3L40.3,79.7l5.5,7.3c0.1,0.1,9.6,13.6,16.4,42.6l-0.1-0.5c7.8,43.7,44.7,73.1,55.9,81
			l6.9,4.9l6.9-4.9c11.2-7.9,48.2-37.2,56-81.2l-0.1,0.5c6.8-28.8,16.3-42.4,16.4-42.6L209.7,79.7"/>
		<path class="st1" d="M169.2,45.7c-0.2,0.1-18.4,7.2-44.2,7.4c-25.7-0.2-43.9-7.3-44.2-7.4l-2.6-1L50.8,79.8l1.7,2.3
			c0.1,0.2,10.5,14.4,17.8,45.7c7.2,40.6,42,68.2,52.6,75.7l2.2,1.5l2.2-1.5c10.5-7.5,45.3-35.1,52.7-75.9
			c7.2-31.1,17.7-45.3,17.8-45.5l1.7-2.3l-1.8-2.2l-25.7-32.8L169.2,45.7z"/>
		<path d="M194.6,79.9c0,0-10.9,14.5-18.5,47.1c-7.3,41.4-44.9,69.2-51.1,73.5c-6.2-4.4-43.8-32.1-51.1-73.5
			c-7.6-32.6-18.4-47.1-18.4-47.1l24.1-30.7c0,0,18.7,7.5,45.6,7.6c26.9-0.2,45.6-7.6,45.6-7.6L194.6,79.9z"/>
		<path class="st2" d="M166.6,95.8c-2.5,2.6-6.2,7.2-9.6,13.5c-3.3,6.8-5.6,14.2-6,23.7c-13.9-13.6-9.5-28.8-9.5-28.8
			s-12.8,1.5-21,0.3c0,0-0.9,13,12.6,22.7c21.2,15.2,20.4,26.3,16.5,34.8c-3.2,7-15.9,19-24.7,26.4c0,0-39.8-29.8-43.7-67.1
			c0,0,6.1,13.5,23.2,19.8c0,0,19.7,7.2,16.8,22.5c16.5-11.3,10-27.4-6.5-37.4C102,118.6,95.3,108,91.8,99.4c0,0-3-6-7.3-7.2
			c2.3,0.2,5.9,1.7,7.7,2.2c1.9,0.5,3.7,1,5.6,1.4c33.4,6,58.9,0.9,67.9-1.5c2.3-0.6,4.2-1.4,4.2-1.4S168.2,94.2,166.6,95.8
			L166.6,95.8z"/>
		<path class="st3" d="M106.5,129c-12.3-8.1-15.5-13.1-19.7-22.7c-3.5-7.8-8.2-14.5-20-20c6.8,5.6,8.2,9.1,11.6,17.7
			c0,0.1,3.1,8.9,6.9,13.9c3.3,4.5,8.1,8.6,14.6,11.5c4.2,1.9,12.9,5.3,18,8.5C117.8,137.8,110.1,131,106.5,129L106.5,129z"/>
		<g>
			<path class="st1" d="M101.6,62.8l0.5,0.1c0.5,0.1,0.5,0.2,0.4,1.1c-0.2,0.7-0.3,0.8-0.8,0.7l-0.5-0.1L101.6,62.8z M101,65.7
				l0.5,0.1c2,0.5,2.7,0.2,2.9-0.9l0.2-1.2c0.2-1.2-0.3-1.6-2.3-2l-2.5-0.5l-1.3,6.4l2.1,0.5L101,65.7z M110.5,64.5
				c0.1-0.3,0.2-0.4,0.6-0.3c0.4,0.1,0.6,0.2,0.5,0.4l-0.5,3.7c0,0.2-0.2,0.3-0.6,0.3c-0.4-0.1-0.6-0.2-0.5-0.4L110.5,64.5z
				 M108,67.9c-0.2,1.2,0.6,1.6,2.5,1.9c1.8,0.2,2.7,0,2.9-1.2l0.5-3.7c0.2-1.2-0.6-1.6-2.5-1.9c-1.8-0.2-2.7,0-2.9,1.2L108,67.9z
				 M117.9,63.9l2.1,0.1l-0.2,2.5h1.2l0.1-2.5l2.1,0.1l-0.2,6.5l-2.1-0.1l0.1-2.9l-1.2-0.1l-0.1,2.8l-2.1-0.1L117.9,63.9z
				 M130.2,65.2L130.2,65.2l0.5,3.1h-1L130.2,65.2z M129.2,70.6l0.2-1.2h1.5l0.3,1.2h2.2l-1.9-6.5l-2.8,0.1l-1.5,6.6L129.2,70.6z
				 M141.2,63.2l1.9-0.2l0.8,6.5l-2.5,0.3l-2.3-4.3l0,0l0.5,4.5l-1.9,0.2l-0.8-6.5l2.6-0.3l2.3,4.4h0.1L141.2,63.2z M153.7,67.7
				l-1.3,0.3l-0.4-0.4c-0.3,0.5-0.6,0.8-1.5,0.9c-1.2,0.2-2.1-0.1-2.2-0.8l-0.8-3.9c-0.2-1.1,0.4-1.7,2.2-2c2-0.4,2.8-0.1,3,1
				l0.1,0.4l-2,0.4l-0.1-0.4c-0.1-0.2-0.2-0.3-0.7-0.2c-0.4,0.1-0.6,0.2-0.5,0.5l0.8,3.6c0.1,0.2,0.2,0.3,0.7,0.2
				c0.4-0.1,0.6-0.2,0.5-0.5l-0.3-1.4l-0.6,0.2l-0.2-1.2l2.6-0.5L153.7,67.7z"/>
		</g>
		<path class="st3" d="M182.8,87.8c0,0-26,20.7-25.9,57.1c0,0,6.8-5.7,11.4-27.2C168.3,117.7,173.4,97.3,182.8,87.8L182.8,87.8z"/>
		<g>
			<path class="st0" d="M101.2,72.8l-0.1,0.2l-0.2,0.6l0.2,0.1c1.2,0.4,1.5,0.5,1.5,1c0,0.2,0,0.3-0.1,0.5l-0.2,0.5l-0.2,0.5l-3,12
				l10.1,1.4l0.2-1.6h-0.4l-2.7-0.2l-1.9-0.2c-0.5-0.1-0.8-0.2-0.9-0.2c0-0.1,0-0.1,0-0.2s0-0.4,0.1-0.6c0,0,1-4.4,1.2-5.2
				c0.2,0.1,1.8,0.2,1.8,0.2l2.8,0.4l0.3-1.5L107,80c0,0-1.2-0.2-1.7-0.2l1-4.2c0.2-0.7,0.2-0.7,1.2-0.5l1.2,0.2l2.9,0.5l0.4,0.1
				l0.2-1.5l-0.3-0.1L101.2,72.8z M119.8,76.2l1.2,0.1l2.9,0.2c0.1,0,0.5,0,0.5,0V75l-11.3-0.5v0.2l-0.1,0.7l0.2,0.1
				c1.6,0.3,1.8,0.4,1.8,1.4l-0.1,0.5l-0.1,0.5l-1,12.3l10.3,0.7v-1.7l-0.5,0.1L121,89l-2.2-0.2c-0.8-0.1-0.9-0.1-0.9-0.5
				c0-0.1,0.1-0.2,0.1-0.4c0,0,0.3-4.4,0.3-5.2c0.3,0,1.8,0.1,1.8,0.1l2.9,0.2l0.1-1.5l-2.9-0.1c0,0-1.3,0-1.8-0.1
				c0.1-0.4,0.3-4.2,0.3-4.2C118.8,76.2,118.8,76.1,119.8,76.2L119.8,76.2z M149.4,87.8l-2.7,0.5l-1.9,0.2c-1.1,0.2-1.1,0.2-1.3-0.8
				c0,0-0.8-4.5-0.9-5.4c0.3,0,1.7-0.2,1.7-0.2l2.9-0.2l-0.3-1.5l-2.9,0.3c0,0-1.3,0.1-1.8,0.2c-0.1-0.3-0.8-4.2-0.8-4.2
				c-0.1-0.2-0.1-0.3-0.1-0.4c0-0.1,0-0.2,0.1-0.2c0.1-0.1,0.4-0.2,0.8-0.2l1.3-0.2l3-0.2h0.4l-0.4-1.5h-0.2l-11,0.9l0.2,0.8h0.2
				c1.7,0.1,1.9,0.2,2.1,1.2l0.1,0.5L138,78l2,12.5l10-1.2l-0.4-1.5L149.4,87.8z M135.7,89.1l-3.9,0.1c-0.1,0-0.2,0-0.2-0.1
				s-0.1-0.2-0.1-0.2l-0.2-13.6v-0.2H131l-5.6-0.1l-0.1,0.7h0.2c1.6,0.2,1.8,0.3,1.9,1.2l0.1,0.4l-0.1,13.6l10.7-0.2v-1.5h-0.4
				L135.7,89.1z M178.3,76.8c-2.1-3-5.4-3.5-8.3-3.8h-0.1c-2.2-0.3-4.4-0.5-5.2-2c-0.3-0.5-0.5-1.1-0.3-1.5c0.2-0.5,0.9-0.8,1.2-0.9
				c0.6-0.2,1.2-0.3,2-0.4c0.8,0,1.9,0.1,2.9,0.8c0-0.1,0.2,0.2,0.2,0.2l0.1,0.1l0.1-0.1l0.8-0.2l-2.2-3.1h-0.1h-0.2
				c-0.7,0.1-2.4,0.3-4,0.8c-2.1,0.6-3.5,1.6-3.9,2.9c-0.4,0.9-0.3,2,0.3,3.1c1.5,2.9,4.7,3.3,7.8,3.7c2.5,0.3,4.8,0.6,6,2.5
				c0.6,0.9,0.8,1.8,0.6,2.4c-0.2,0.6-0.8,1.2-1.7,1.5c-2,0.8-4.7,0.4-6.1,0.2l-0.8-0.2l1.9,3.4h0.5c1-0.1,3.3-0.3,5.2-1.1
				c1.8-0.7,3.9-1.9,4.5-3.9C179.9,80,179.5,78.4,178.3,76.8L178.3,76.8z M100.2,73.3l0.3-1l-11.2-2.5l-0.1,0.1L88.6,71l3.2,0.8
				c0,0,0.5,0.1,0.8,0.2c-0.2,0.4-4.9,11.6-4.9,11.6l-1.8,4.3l0.8-0.4c0.5-0.2,1.5-0.8,2.4-1.4H89c0.1,0,0.2-0.2,0.6-0.5l0.2-0.1
				c0.5-0.4,0.9-0.8,1.3-1.2l0.6-0.8c0-0.1,0.1-0.1,0.1-0.1l0.5-1.1c0,0,3.4-8.4,3.9-9.6c0.2,0.1,0.8,0.2,0.8,0.2l3.2,0.7
				L100.2,73.3z M159.8,79.5c1.3-0.6,2-1.5,1.9-2.7c0-0.5-0.2-0.9-0.3-1.5c-1.5-3.9-6.2-3.1-7.7-2.8l-6.2,1.1l0.1,0.2l0.2,0.7h0.2
				c1.5-0.1,1.8,0,2.1,0.5l0.1,0.2c0,0,0,0,5.6,16.7l0.1,0.4l0.4-0.7c0,0,0.6-1.2,1-2.2l0.2-0.6l0.1-0.2c0.2-0.5,0.2-1.1,0.2-1.7
				l-0.1-1v-0.1l-0.2-1.2c0,0-0.1-0.1-1.5-4.4c0.1-0.1,0.2-0.1,0.2-0.1c0.2,0.2,6.8,6.2,6.8,6.2l3.9-0.8l-0.5-0.5
				C166.3,85.4,160.2,79.8,159.8,79.5L159.8,79.5z M155.5,74c1.2-0.2,2.1,0.5,2.7,2.1c0.1,0.3,0.2,0.5,0.2,0.8c0,0.4-0.1,0.7-0.2,1
				c-0.2,0.5-0.6,0.7-1.2,0.8c0,0-1.2,0.2-1.5,0.3c-0.1-0.3-1.3-3.9-1.3-3.9c0-0.1-0.1-0.1-0.1-0.2C154.1,74.6,154.3,74.3,155.5,74
				L155.5,74z M89.2,67.3l-0.3-0.2c-0.5-0.3-2.1-1.2-3.8-1.7c-3.7-1.2-6.9-0.3-8.5,2.4c-1.8,2.9-0.2,4.9,1.5,6.9
				c1.3,1.6,2.5,3.1,1.5,4.9c-1.3,2.3-3.2,2.2-4.5,1.8c-1.9-0.7-3.2-2.3-3.9-3.2L71,77.7l-1.9,3l0.4,0.3c0.6,0.5,2.2,1.5,4.1,2.2
				c2.6,0.9,7.5,1.8,10.3-3.2c1.8-3.2-0.2-5.6-1.8-7.3l0,0c-1.3-1.5-2.4-2.8-1.5-4.3c1.1-1.9,2.7-1.5,3.2-1.3
				c0.6,0.2,1.2,0.5,1.9,0.8c0.6,0.5,1.2,1,1.1,2.2c0-0.1-0.1,0.3-0.1,0.3v0.2l0.2,0.1l0.8,0.2L89.2,67.3z"/>
		</g>
		<g>
			<path class="st4" d="M103,87.1c-0.1-0.3,0.1-0.6,0.1-0.6l0.7-3l1.4-5.9l0.5-2.1c0,0,0.1-0.3,0.2-0.5s0.5-0.4,0.5-0.4
				s-0.5,0-0.8,0.2c-0.2,0.2-0.3,0.6-0.3,0.6l-0.5,2.1l-1.4,5.9l-0.8,3c0,0-0.2,0.5-0.1,0.8c0.2,0.4,0.8,0.5,0.8,0.5
				S103,87.4,103,87.1L103,87.1z M117.2,88.5c-0.2-0.3,0-0.6,0-0.6l0.2-3.1l0.5-5.9l0.2-2.1c0,0,0-0.3,0.2-0.5
				c0.2-0.2,0.5-0.4,0.5-0.4s-0.6,0-0.8,0.3c-0.2,0.2-0.2,0.7-0.2,0.7l-0.2,2.1l-0.5,5.9l-0.2,3.1c0,0-0.1,0.5,0.1,0.8
				c0.2,0.4,0.8,0.4,0.8,0.4S117.4,88.8,117.2,88.5L117.2,88.5z M143,88.5c-0.2-0.3-0.2-0.6-0.2-0.6l-0.5-3.3l-1-5.9l-0.4-2.1
				c0,0-0.1-0.3,0-0.6s0.3-0.5,0.3-0.5s-0.6,0.1-0.8,0.4c-0.1,0.2,0,0.7,0,0.7l0.4,2.1l1,5.9l0.5,3.3c0,0,0.1,0.5,0.3,0.7
				c0.3,0.3,0.9,0.3,0.9,0.3S143.1,88.8,143,88.5L143,88.5z M176.5,75.7c1.9,1.5,3.9,5.4,0.2,7.9C178.3,81.4,179,79,176.5,75.7z
				 M165.2,72.6c-1.2-1.2-2.9-3.1-0.2-4.5C163.2,68.3,161.7,70.6,165.2,72.6z M88.5,85.5c1.9-1.3,2.5-2.1,3-3
				c0.5-0.9,4.1-10.1,4.1-10.1l-0.4-0.1l-3.6,9C90.9,82.5,89.9,84.3,88.5,85.5L88.5,85.5z M152.8,74.6c-0.1,0.3,0.2,0.7,0.2,0.7v0.1
				l3.1,8.9c0.4,1.3,0.7,3.2,0.4,4.9c0.7-1.9,0.7-2.9,0.5-3.9c-0.2-1-3.5-10.1-3.5-10.1v-0.1c0,0-0.1-0.3-0.1-0.6s0.2-0.5,0.2-0.5
				S152.9,74.3,152.8,74.6L152.8,74.6z M83.6,78.2c-0.2,2.1-2.9,5.6-7.6,5C79.2,82.8,82,81.7,83.6,78.2z M79.4,69.7
				c0.3-1.5,1.2-3.9,4.5-3.4C82.2,65.5,78.8,66.4,79.4,69.7z M158.8,79.3c2.2-1.1,2.1-2.5,2.1-2.5c-0.3,1.3-2.1,2.2-2.8,2.5l6.7,6.3
				l0.5-0.1L158.8,79.3z M130.1,76.3l0.2,12.4c0,0-0.1,0.5,0.2,0.8c0.2,0.3,0.8,0.3,0.8,0.3s-0.2-0.2-0.4-0.5
				c-0.2-0.3-0.2-0.7-0.2-0.7l-0.2-12.3H130.1z"/>
		</g>
	</g>
</g>
<g id="레이어_1">
	<rect x="8" y="8" class="st5" width="234" height="234"/>
</g>
<g id="_레이어_1">
</g>
<rect x="8" y="34.8" class="st5" width="234" height="180.4"/>
</svg>
