<?xml version="1.0" encoding="utf-8"?>
<!-- Generator: Adobe Illustrator 25.1.0, SVG Export Plug-In . SVG Version: 6.00 Build 0)  -->
<svg version="1.1" xmlns="http://www.w3.org/2000/svg" xmlns:xlink="http://www.w3.org/1999/xlink" x="0px" y="0px"
	 viewBox="0 0 250 250" style="enable-background:new 0 0 250 250;" xml:space="preserve">
<style type="text/css">
	.st0{fill:#D1D1D1;}
	.st1{fill:#FFFFFF;}
	.st2{fill:#FB342E;}
	.st3{fill:#FAA74A;}
	.st4{fill:#707070;}
	.st5{fill:none;}
</style>
<g id="Layer_1">
	<g>
		<path class="st0" d="M234.8,66.3l-7.3-9.3c0,0-38.4-49-38.4-49l-7.4,3c0,0-3.3,1.3-3.4,1.3c-0.2,0.1-22.4,8.6-53.4,8.8
			c-30.8-0.2-53.1-8.7-53.3-8.8c0,0-3.3-1.3-3.3-1.3l-7.4-3L15.2,66.2l7.1,9.5c0.1,0.1,12.5,17.7,21.3,55.3l-0.1-0.6
			c10.1,56.7,58,94.8,72.5,105.1l9,6.4l9-6.4c14.5-10.3,62.5-48.3,72.6-105.3l-0.1,0.6c8.8-37.4,21.2-55,21.3-55.2L234.8,66.3"/>
		<path class="st1" d="M182.3,22.2c-0.3,0.1-23.9,9.4-57.3,9.6c-33.4-0.2-57-9.5-57.3-9.6l-3.4-1.3L28.7,66.4l2.2,3
			C31,69.6,44.5,88.1,54,128.7c9.3,52.7,54.5,88.5,68.2,98.2l2.8,2l2.8-2c13.6-9.7,58.8-45.5,68.3-98.5c9.4-40.3,22.9-58.8,23.1-59
			l2.2-3l-2.3-2.9l-33.4-42.6L182.3,22.2z"/>
		<path d="M215.3,66.5c0,0-14.1,18.8-24,61.1c-9.5,53.7-58.3,89.7-66.3,95.3c-8-5.7-56.8-41.7-66.3-95.3
			c-9.9-42.3-23.9-61.1-23.9-61.1l31.2-39.8c0,0,24.2,9.7,59.1,9.9c34.9-0.2,59.1-9.9,59.1-9.9L215.3,66.5z"/>
		<path class="st2" d="M179,87.1c-3.2,3.4-8.1,9.3-12.4,17.5c-4.3,8.8-7.3,18.4-7.8,30.7c-18-17.7-12.3-37.3-12.3-37.3
			s-16.6,1.9-27.2,0.4c0,0-1.2,16.8,16.4,29.5c27.5,19.7,26.5,34.1,21.4,45.1c-4.2,9.1-20.6,24.6-32.1,34.2c0,0-51.6-38.6-56.7-87
			c0,0,7.9,17.5,30.1,25.7c0,0,25.5,9.4,21.8,29.2c21.4-14.7,13-35.5-8.4-48.5C95.2,116.7,86.5,103,81.9,91.8c0,0-3.9-7.8-9.5-9.3
			c3,0.2,7.7,2.2,10,2.8c2.4,0.7,4.8,1.3,7.3,1.8c43.3,7.8,76.4,1.2,88.1-1.9c3-0.8,5.5-1.8,5.5-1.8S181,85,179,87.1L179,87.1z"/>
		<path class="st3" d="M101,130.2c-15.9-10.5-20.1-17-25.6-29.5c-4.5-10.1-10.6-18.8-26-26c8.8,7.2,10.7,11.8,15,22.9
			c0,0.1,4,11.6,8.9,18c4.3,5.9,10.5,11.2,18.9,14.9c5.5,2.4,16.7,6.9,23.3,11C115.6,141.6,105.7,132.8,101,130.2L101,130.2z"/>
		<g>
			<path class="st1" d="M94.7,44.3l0.7,0.1c0.6,0.1,0.7,0.2,0.5,1.4c-0.2,0.9-0.4,1.1-1,0.9l-0.7-0.1L94.7,44.3z M93.9,48.1l0.6,0.1
				c2.6,0.6,3.5,0.3,3.8-1.2l0.3-1.6c0.3-1.5-0.4-2.1-3-2.6l-3.3-0.7l-1.7,8.3l2.7,0.6L93.9,48.1z M106.2,46.6
				c0.1-0.4,0.3-0.5,0.8-0.4c0.5,0.1,0.8,0.2,0.7,0.5l-0.6,4.8c0,0.3-0.3,0.4-0.8,0.4c-0.5-0.1-0.8-0.2-0.7-0.5L106.2,46.6z
				 M102.9,51c-0.2,1.6,0.8,2.1,3.2,2.4c2.3,0.3,3.5,0,3.7-1.6l0.6-4.8c0.2-1.6-0.8-2.1-3.2-2.4c-2.3-0.3-3.5,0-3.7,1.5L102.9,51z
				 M115.8,45.7l2.7,0.1l-0.2,3.3l1.6,0l0.1-3.3l2.7,0.1l-0.3,8.4l-2.7-0.1l0.1-3.7l-1.5-0.1l-0.1,3.6l-2.7-0.1L115.8,45.7z
				 M131.7,47.4L131.7,47.4l0.7,4l-1.3,0L131.7,47.4z M130.5,54.5l0.3-1.5l1.9,0l0.4,1.5l2.8,0l-2.4-8.4l-3.6,0.1l-2,8.5L130.5,54.5
				z M146,44.9l2.5-0.3l1,8.4l-3.3,0.4l-3-5.6h0l0.7,5.9l-2.5,0.3l-1-8.4l3.4-0.4l3,5.7h0.1L146,44.9z M162.2,50.7l-1.7,0.4
				l-0.5-0.5c-0.4,0.6-0.8,1-2,1.2c-1.5,0.3-2.7-0.1-2.9-1.1l-1-5c-0.3-1.4,0.5-2.2,2.9-2.6c2.6-0.5,3.6-0.1,3.9,1.3l0.1,0.5
				l-2.6,0.5l-0.1-0.5c-0.1-0.3-0.3-0.4-0.9-0.3c-0.5,0.1-0.8,0.3-0.7,0.6l1,4.7c0.1,0.3,0.3,0.4,0.9,0.3c0.5-0.1,0.8-0.3,0.7-0.6
				l-0.4-1.8l-0.8,0.2l-0.3-1.5l3.4-0.7L162.2,50.7z"/>
		</g>
		<path class="st3" d="M200,76.8c0,0-33.7,26.9-33.6,74c0,0,8.8-7.4,14.8-35.3C181.2,115.5,187.8,89.1,200,76.8L200,76.8z"/>
		<g>
			<path class="st0" d="M94.1,57.3L94,57.5l-0.2,0.8l0.3,0.1c1.6,0.5,2,0.6,2,1.3c0,0.2,0,0.4-0.1,0.6L95.8,61l-0.2,0.6l-3.9,15.6
				l13.1,1.8l0.3-2.1l-0.5,0l-3.5-0.3l-2.5-0.3c-0.6-0.1-1.1-0.2-1.2-0.3c0-0.1,0-0.1,0-0.3c0-0.2,0-0.5,0.1-0.8
				c0,0,1.3-5.7,1.6-6.7c0.3,0.1,2.3,0.3,2.3,0.3L105,69l0.4-1.9l-3.7-0.5c0,0-1.6-0.2-2.2-0.3l1.3-5.5c0.2-0.9,0.2-0.9,1.5-0.7
				l1.5,0.2l3.8,0.6l0.5,0.1l0.3-1.9l-0.4-0.1L94.1,57.3z M118.2,61.7l1.5,0.1l3.8,0.3c0.1,0,0.6,0,0.6,0v-1.9l-14.6-0.7l0,0.2
				l-0.1,0.9l0.3,0.1c2.1,0.4,2.3,0.5,2.3,1.8c0,0-0.1,0.6-0.1,0.6l-0.1,0.7l-1.3,15.9l13.4,0.9l0-2.2c0,0-0.6,0.1-0.6,0.1l-3.5-0.2
				L117,78c-1.1-0.1-1.2-0.1-1.2-0.7c0-0.1,0.1-0.3,0.1-0.5c0,0,0.4-5.7,0.4-6.8c0.4,0,2.3,0.1,2.3,0.1l3.8,0.2l0.1-1.9l-3.7-0.1
				c0,0-1.7,0-2.3-0.1c0.1-0.5,0.4-5.5,0.4-5.5C116.9,61.7,116.9,61.6,118.2,61.7L118.2,61.7z M156.6,76.7l-3.5,0.6l-2.5,0.3
				c-1.4,0.2-1.4,0.2-1.7-1.1c0,0-1-5.9-1.2-7c0.4,0,2.2-0.2,2.2-0.2l3.7-0.3l-0.4-1.9l-3.7,0.4c0,0-1.7,0.1-2.3,0.2
				c-0.1-0.4-1-5.5-1-5.5c-0.1-0.2-0.1-0.4-0.1-0.5c0-0.1,0-0.2,0.1-0.3c0.1-0.1,0.5-0.2,1.1-0.2L149,61l3.9-0.2h0.5l-0.5-1.9
				l-0.2,0l-14.3,1.2l0.2,1.1l0.3,0c2.2,0.1,2.4,0.2,2.7,1.5l0.1,0.6c0,0,0.1,0.7,0.1,0.7l2.6,16.2l13-1.6l-0.5-2L156.6,76.7z
				 M138.9,78.5l-5,0.1c-0.1,0-0.2,0-0.3-0.1c-0.1-0.1-0.1-0.3-0.1-0.3l-0.3-17.6v-0.2h-0.4l-7.2-0.1l-0.1,0.9l0.3,0
				c2.1,0.3,2.3,0.4,2.4,1.5l0.1,0.5l-0.1,17.6l13.9-0.2l0-2h-0.5L138.9,78.5z M194.2,62.5c-2.7-3.9-7-4.5-10.8-4.9h-0.1
				c-2.9-0.4-5.7-0.7-6.8-2.6c-0.4-0.7-0.6-1.4-0.4-1.9c0.3-0.7,1.2-1.1,1.5-1.2c0.8-0.2,1.6-0.4,2.6-0.5c1.1,0,2.4,0.1,3.7,1.1
				c0-0.1,0.3,0.3,0.3,0.3l0.1,0.1l0.1-0.1l1.1-0.3l-2.9-4h-0.1l-0.3,0c-0.9,0.1-3.1,0.4-5.2,1c-2.7,0.8-4.5,2.1-5.1,3.7
				c-0.5,1.2-0.4,2.6,0.4,4c2,3.7,6.1,4.3,10.1,4.8c3.3,0.4,6.2,0.8,7.8,3.2c0.8,1.2,1.1,2.3,0.8,3.1c-0.3,0.8-1,1.5-2.2,1.9
				c-2.6,1-6.1,0.5-7.9,0.2l-1-0.2l2.4,4.4l0.7,0c1.3-0.1,4.3-0.4,6.8-1.4c2.3-0.9,5.1-2.4,5.8-5.1
				C196.2,66.6,195.7,64.6,194.2,62.5L194.2,62.5z M92.8,57.9l0.4-1.3l-14.5-3.3l-0.1,0.1L77.8,55l4.1,1c0,0,0.6,0.1,1,0.2
				c-0.2,0.5-6.3,15.1-6.3,15.1l-2.3,5.6l1-0.5c0.6-0.3,2-1,3.1-1.8h-0.1c0.1,0,0.3-0.2,0.8-0.6l0.2-0.1c0.6-0.5,1.2-1,1.7-1.6
				c0,0,0.8-1.1,0.8-1.1c0-0.1,0.1-0.1,0.1-0.1l0.7-1.4c0,0,4.4-10.9,5-12.4c0.3,0.1,1,0.2,1,0.2l4.2,0.9L92.8,57.9z M170.2,66
				c1.7-0.8,2.6-2,2.5-3.5c0-0.6-0.2-1.2-0.4-1.9c-1.9-5.1-8-4-10-3.6l-8,1.4l0.1,0.2l0.3,0.9l0.2,0c1.9-0.1,2.3,0,2.7,0.7
				c0,0,0.1,0.3,0.1,0.3s0,0,7.2,21.6l0.1,0.5l0.5-0.9c0,0,0.8-1.5,1.3-2.8c0,0,0.2-0.8,0.2-0.8l0.1-0.2c0.2-0.7,0.3-1.4,0.3-2.2
				l-0.1-1.3c0,0,0-0.1,0-0.1l-0.3-1.6c0,0-0.1-0.1-2-5.7c0.1-0.1,0.3-0.1,0.3-0.1c0.2,0.2,8.8,8.1,8.8,8.1l5-1l-0.6-0.6
				C178.6,73.7,170.7,66.4,170.2,66L170.2,66z M164.5,58.9c1.6-0.3,2.7,0.6,3.5,2.7c0.1,0.4,0.2,0.7,0.3,1.1c0,0.5-0.1,0.9-0.3,1.3
				c-0.3,0.6-0.8,0.9-1.5,1c0,0-1.6,0.3-1.9,0.4c-0.1-0.4-1.7-5-1.7-5c0-0.1-0.1-0.1-0.1-0.2C162.7,59.6,163,59.2,164.5,58.9
				L164.5,58.9z M78.6,50.2l-0.4-0.2c-0.7-0.4-2.7-1.5-4.9-2.2c-4.8-1.5-8.9-0.4-11,3.1c-2.3,3.7-0.2,6.4,1.9,8.9
				c1.7,2.1,3.2,4,2,6.3c-1.7,3-4.1,2.9-5.9,2.3c-2.5-0.9-4.2-3-5-4.2l-0.4-0.6l-2.4,3.9l0.5,0.4c0.8,0.6,2.8,2,5.3,2.9
				c3.4,1.2,9.7,2.3,13.3-4.2c2.3-4.2-0.2-7.2-2.3-9.5l0,0c-1.7-1.9-3.1-3.6-1.9-5.6c1.4-2.4,3.5-1.9,4.1-1.7
				c0.8,0.3,1.6,0.6,2.4,1.1c0.8,0.6,1.6,1.3,1.4,2.9c0-0.1-0.1,0.4-0.1,0.4l0,0.2l0.2,0.1l1,0.3L78.6,50.2z"/>
		</g>
		<g>
			<path class="st4" d="M96.4,75.8c-0.1-0.4,0.1-0.8,0.1-0.8l0.9-3.9l1.8-7.6l0.6-2.7c0,0,0.1-0.4,0.3-0.7c0.2-0.3,0.6-0.5,0.6-0.5
				s-0.7,0-1.1,0.3c-0.3,0.3-0.4,0.8-0.4,0.8l-0.7,2.7l-1.8,7.6l-1,3.9c0,0-0.2,0.6-0.1,1c0.2,0.5,1,0.6,1,0.6S96.5,76.2,96.4,75.8
				L96.4,75.8z M114.9,77.7c-0.2-0.4,0-0.8,0-0.8l0.3-4l0.6-7.7l0.2-2.7c0,0,0-0.4,0.2-0.7c0.2-0.3,0.6-0.5,0.6-0.5s-0.8,0-1.1,0.4
				c-0.2,0.3-0.3,0.9-0.3,0.9l-0.2,2.7l-0.6,7.7l-0.3,4c0,0-0.1,0.6,0.1,1c0.3,0.5,1.1,0.5,1.1,0.5S115.1,78.1,114.9,77.7
				L114.9,77.7z M148.3,77.7c-0.2-0.4-0.3-0.8-0.3-0.8l-0.7-4.3l-1.3-7.6l-0.5-2.7c0,0-0.1-0.4,0-0.8c0.1-0.4,0.4-0.6,0.4-0.6
				s-0.8,0.1-1,0.5c-0.1,0.3,0,0.9,0,0.9l0.5,2.7l1.3,7.6l0.7,4.3c0,0,0.1,0.6,0.4,0.9c0.4,0.4,1.2,0.4,1.2,0.4
				S148.5,78.1,148.3,77.7L148.3,77.7z M191.8,61.1c2.5,1.9,5.1,7,0.3,10.2C194.2,68.4,195.1,65.4,191.8,61.1z M177.2,57
				c-1.6-1.5-3.8-4-0.2-5.8C174.5,51.5,172.6,54.5,177.2,57z M77.6,73.8c2.5-1.7,3.3-2.7,3.9-3.9c0.6-1.2,5.3-13.1,5.3-13.1
				l-0.5-0.1l-4.7,11.7C80.8,69.9,79.5,72.2,77.6,73.8L77.6,73.8z M161,59.7c-0.1,0.4,0.2,0.9,0.2,0.9l0,0.1l4,11.6
				c0.5,1.7,0.9,4.2,0.5,6.3c0.9-2.4,0.9-3.7,0.6-5c-0.3-1.3-4.5-13.1-4.5-13.1l0-0.1c0,0-0.1-0.4-0.1-0.8c0-0.4,0.3-0.6,0.3-0.6
				S161.2,59.3,161,59.7L161,59.7z M71.3,64.3c-0.3,2.7-3.7,7.3-9.8,6.5C65.6,70.3,69.2,68.9,71.3,64.3z M65.8,53.3
				c0.4-2,1.5-5.1,5.9-4.4C69.5,47.8,65.1,49,65.8,53.3z M168.8,65.8c2.9-1.4,2.7-3.3,2.7-3.3c-0.4,1.7-2.7,2.8-3.6,3.2l8.7,8.2
				l0.7-0.1L168.8,65.8z M131.6,61.9l0.2,16.1c0,0-0.1,0.6,0.2,1c0.3,0.4,1.1,0.4,1.1,0.4s-0.3-0.2-0.5-0.6
				c-0.2-0.4-0.2-0.9-0.2-0.9l-0.2-16L131.6,61.9z"/>
		</g>
	</g>
</g>
<g id="레이어_1">
	<rect x="8" y="8" class="st5" width="234" height="234"/>
</g>
<g id="_레이어_1">
</g>
</svg>
