<?xml version="1.0" encoding="utf-8"?>
<!-- Generator: Adobe Illustrator 25.1.0, SVG Export Plug-In . SVG Version: 6.00 Build 0)  -->
<svg version="1.1" id="Layer_1" xmlns="http://www.w3.org/2000/svg" xmlns:xlink="http://www.w3.org/1999/xlink" x="0px" y="0px"
	 viewBox="0 0 250 250" style="enable-background:new 0 0 250 250;" xml:space="preserve">
<style type="text/css">
	.st0{fill:#FFFFFF;}
	.st1{fill:#1E1C1E;}
	.st2{fill:none;}
</style>
<g id="Layer_1_1_">
	<g>
		<path class="st0" d="M128.2,34.8c-17.4,0-34.3,4.9-48.8,14.3c-14.1,9.1-25.5,21.9-32.7,37c-7.5-4.3-15.2-9.2-23.1-14.8l-4.8-3.4
			l4.9,27.6l1,0.6c5.1,2.8,10.4,5.3,15.7,7.8l-0.1,0.5c-1.6,6.8-2.4,13.8-2.4,20.7c0,49.8,40.5,90.2,90.2,90.2s90.2-40.5,90.2-90.2
			C218.4,75.2,178,34.8,128.2,34.8"/>
		<path class="st1" d="M127.6,150.8l-6.8,6.9l-1.8,0.5l12.3,20.9l6.1-1.6l6.4,0.7l0.2-0.8l-6.6-1.8l-4.1,0.5l-8.7-15.3l17.8-9.9
			C137.2,151.6,128.1,150.8,127.6,150.8"/>
		<path class="st1" d="M103.9,158.3l-1.7,0.6l12.3,20.2l6.1-1.6l6.4,0.7l0.2-0.8l-6.6-1.8l-4.1,0.5l-8.7-15.3l18.1-10.3
			c-4.2-0.5-7.9-1.2-11.6-2.5 M151.1,146.7c-0.1,0-0.2,0-0.3,0c-1.2,0.1-2.9,0.2-4.8,0.2c-9.1,0-23.7-1.7-23.8-9.4
			c-0.1-5.3,11.7-11.6,16.1-13.4c0.9-0.4,0.9-0.7,0.3-0.7c-0.2,0-0.5,0-0.9,0.1c-17.7,3.2-31.4,3.9-39.5,3.9c-5.2,0-8.1-0.3-8.1-0.3
			s6.3,13.3,25.8,19.1c2.2,0.7,4.4,1.1,6.6,1.5c2.3,0.4,4.7,0.8,7.3,0.9c1.9,0.1,3.8,0.2,5.6,0.2c5.9,0,11-0.7,15.8-1.7
			C151.6,147.1,151.8,146.7,151.1,146.7"/>
		<path class="st1" d="M187.9,106.9c0,0-0.9,2.8-2.3,2c-1-0.7-2-1.8-4.1-2.2c-0.6-0.1-0.9-0.3-1-0.3c-0.4-0.1,0-0.1,0-0.1h8.5
			L187.9,106.9z M207.8,108.7c-4.7-2.5-13-2.8-13-2.8c-8.3-6.6-18.8-2.8-21.4-1.9c-45.1,14-90.1,12.4-151.2-30.8l3.7,20.6
			c41.7,22.5,74.8,24.8,74.8,24.8l0.4,0.5c-9.5,0.8-34.2-3.7-49.1-10.9l3.4,10.9c38.8,12,72.5,3.1,80.4,2.2
			c9.5-1.1,28.5-4.3,32.5,6.2c3.5,9.1-10.6,16.5-15,18.6c-0.7,0.3-0.2,0.6,0.2,0.5c27.2-6.8,41.7-32.8,41.7-32.8
			c1.7-1.9,10.6-4.3,12.5-4.8c0.2-0.1,0.5-0.1,0.5-0.1C208.3,108.9,208,108.8,207.8,108.7 M122.3,52.1l1.1-0.1l-0.7-1.5 M112.7,55.8
			c0-0.2-0.1-0.4-0.3-0.6c-0.1-0.2-0.3-0.3-0.5-0.4c-0.2-0.1-0.4-0.2-0.7-0.2s-0.7,0-1,0.1l0,0l0.8,2.9h0.1c0.1,0,0.2,0,0.3,0h0.1
			l0,0h0.1c0.2-0.1,0.4-0.2,0.6-0.2c0.2-0.1,0.3-0.2,0.4-0.3c0.1-0.1,0.2-0.2,0.2-0.4c0-0.2,0-0.5-0.1-0.8 M110.7,52.6L110.7,52.6
			c0.1-0.1,0.2-0.2,0.2-0.3c0-0.1,0-0.3,0-0.5v-0.1v-0.1v-0.1c-0.1-0.3-0.3-0.5-0.4-0.6c-0.1-0.1-0.2-0.2-0.4-0.2l0,0
			c-0.2,0-0.3,0-0.5,0c-0.1,0-0.2,0-0.3,0L110,53c0.2-0.1,0.3-0.1,0.4-0.2C110.4,52.8,110.6,52.7,110.7,52.6 M81.1,71.3
			c-0.2-0.4-0.5-0.8-0.8-1l-0.2-0.2c0,0-0.1,0-0.1-0.1l0,0c0,0-0.1,0-0.1-0.1l0,0c-0.4-0.3-0.7-0.5-1.1-0.7
			c-0.4-0.2-0.9-0.3-1.3-0.4c-0.4-0.1-0.8-0.1-1.1,0c-0.4,0.1-0.7,0.3-0.9,0.5c-0.2,0.2-0.4,0.5-0.5,0.9c-0.1,0.4-0.2,0.8-0.2,1.1
			s0.1,0.9,0.3,1.1c0.2,0.4,0.5,0.9,0.9,1.2l0.2,0.2c0.4,0.4,0.8,0.8,1.2,0.9c0.4,0.2,0.9,0.3,1.3,0.4c0.4,0,0.8,0,1.1-0.1
			c0.3-0.1,0.7-0.3,0.9-0.5c0.3-0.3,0.4-0.6,0.5-0.9c0.1-0.3,0.1-0.7,0.1-1C81.4,72.2,81.3,71.7,81.1,71.3 M91.6,62.2L91.5,62
			c0,0,0,0-0.1-0.1l0,0c0,0,0-0.1-0.1-0.1l0,0c-0.3-0.4-0.6-0.7-0.9-0.9c-0.4-0.3-0.8-0.5-1.2-0.7C88.8,60.1,88.4,60,88,60
			s-0.8,0.1-1,0.3c-0.3,0.2-0.5,0.5-0.6,0.8c-0.2,0.3-0.3,0.7-0.4,1c-0.1,0.4-0.1,0.9,0,1.2c0.1,0.5,0.3,0.9,0.7,1.3l0.1,0.2
			c0.3,0.5,0.7,0.9,1,1.1c0.4,0.3,0.8,0.5,1.2,0.6c0.3,0.1,0.7,0.1,0.9,0.1c0.1,0,0.2,0,0.3,0c0.4,0,0.7-0.1,0.9-0.3
			c0.3-0.2,0.5-0.5,0.7-0.8s0.3-0.7,0.3-1c0-0.5,0-0.9-0.1-1.3C92,63,91.8,62.6,91.6,62.2 M192.7,84.2c0-0.2-0.1-0.3-0.2-0.4
			c0-0.1-0.1-0.2-0.1-0.3l-1.9,1.2c0.1,0.1,0.2,0.2,0.3,0.3c0.1,0.1,0.3,0.2,0.4,0.3l0,0c0.1,0.1,0.2,0.1,0.4,0.1
			c0.2,0,0.3-0.1,0.4-0.2l0.1-0.1l0,0h0.1c0.2-0.2,0.4-0.4,0.5-0.6C192.7,84.4,192.7,84.3,192.7,84.2 M189.1,85.5L189.1,85.5
			l-2.6,1.6c0,0,0,0,0,0.1s0.1,0.2,0.1,0.3c0,0,0,0.1,0.1,0.1c0,0,0,0.1,0.1,0.1c0.1,0.2,0.3,0.3,0.4,0.5c0.1,0.1,0.3,0.2,0.4,0.3
			c0.1,0.1,0.3,0.1,0.5,0.1s0.4-0.1,0.7-0.3l0.2-0.1c0.2-0.1,0.3-0.3,0.5-0.4c0.1-0.2,0.2-0.4,0.3-0.6c0-0.2,0-0.4,0-0.7
			C189.4,86.3,189.3,85.9,189.1,85.5 M181.5,175.1l1.3-1.5l-2.8-1.1 M91.3,182.6c-0.2-0.5-0.6-0.9-1-1.2l0,0
			c-0.4-0.2-0.9-0.4-1.4-0.4s-1.1,0-1.6,0.1c-0.6,0.1-1.1,0.4-1.6,0.8c-0.5,0.4-1,0.9-1.4,1.6l-0.2,0.3c-0.5,0.7-0.8,1.4-0.9,2.1
			s-0.2,1.3-0.1,2.1c0.1,0.7,0.3,1.1,0.6,1.6c0.3,0.5,0.6,0.9,0.9,1.1c0.5,0.3,0.9,0.4,1.4,0.5c0.5,0,1,0,1.6-0.3
			c0.6-0.2,1.1-0.5,1.7-0.9c0.5-0.4,0.9-0.9,1.3-1.4l0.2-0.3v-0.1v-0.1c0,0,0-0.1,0.1-0.1l0,0c0.3-0.6,0.5-1.2,0.7-1.8
			c0.1-0.7,0.2-1.3,0.1-2C91.7,183.6,91.5,183.1,91.3,182.6"/>
		<path class="st1" d="M204.8,150.5l-0.6-0.2c0-0.1,0-0.1,0-0.2c0-0.1-0.1-0.2-0.1-0.2c-0.1-0.1-0.1-0.2-0.2-0.2
			c-0.1-0.1-0.2-0.1-0.2-0.2c-0.1-0.1-0.2-0.1-0.3-0.2h-0.1c0,0-0.1,0-0.1-0.1l-0.3-0.1c0,0,0,0-0.1,0l-0.1-0.1l-6.5-1.8l7.4,6.5
			l-0.4,0.9l-0.2,0.1l-0.1,0.1c-0.1,0.1-0.3,0.2-0.5,0.3s-0.5,0.2-0.7,0.2c-0.2,0.1-0.5,0.1-0.8,0.1s-0.5,0.1-0.8,0.1l0,0l-7.7-0.1
			l6.1,3.3c0.2,0.1,0.4,0.1,0.5,0.2c0.1,0,0.3,0.1,0.4,0.1l0,0c0.1,0,0.2,0,0.3,0s0.2,0,0.4-0.1h0.1h0.1h0.1h0.1c0,0,0,0,0.1,0l0,0
			l0.6,0.3l-1.6,4l-0.6-0.1c0-0.1,0-0.1-0.1-0.2c0-0.1-0.1-0.2-0.1-0.2c-0.1-0.1-0.1-0.2-0.2-0.3c-0.1-0.1-0.1-0.2-0.2-0.3l-0.1-0.1
			c-0.1,0-0.1-0.1-0.2-0.1c0,0-0.1,0-0.1-0.1l-0.1-0.1l0,0c-0.1,0-0.1-0.1-0.2-0.1c-0.1,0-0.1-0.1-0.2-0.1h-0.1l-8.6-4.7l0,0
			c-0.1,0-0.1-0.1-0.2-0.1c-0.1,0-0.1-0.1-0.2-0.1h-0.1c0,0-0.1,0-0.1-0.1l-0.1-0.1c-0.1,0-0.2-0.1-0.3-0.1H188l0,0l0,0h-0.1h-0.1
			h-0.1h-0.1h-0.1l0,0c0,0-0.1,0-0.1,0.1l-0.2,0.1l-0.7,0.2l1.4-3.7l0.4-0.9l9.4,0.1l-7-6l2.1-5.2l0.2,1c0,0.1,0.1,0.2,0.1,0.3
			c0,0.1,0.1,0.2,0.1,0.3l0,0c0,0,0,0.1,0.1,0.1l0,0l0,0l0.1,0.1l0.1,0.1l0,0l0,0l0,0l0.3,0.1h0.1h0.1l0,0l0,0h0.1h0.1l10,2.7l0,0
			c0.1,0,0.1,0,0.1,0h0.1h0.1l0,0h0.1h0.1l0,0l0,0l0,0c0.2,0,0.3,0,0.5,0l0,0c0.2,0,0.3,0,0.5,0c0.1,0,0.3-0.1,0.4-0.1
			c0.1-0.1,0.2-0.1,0.3-0.2l0.5,0.3L204.8,150.5z M189.6,177.3l-0.5-0.3c0-0.1,0.1-0.2,0.1-0.3s0-0.2,0-0.2c0-0.1,0-0.1-0.1-0.2
			c0-0.1-0.1-0.1-0.1-0.1l-0.1-0.1c0,0,0,0-0.1,0s-0.1,0-0.1-0.1c0,0,0,0-0.1,0h-0.1l0,0l0,0h-0.1h-0.1h-0.1c0,0-0.1,0-0.1-0.1
			l-3.1-1.3l-2.4,2.6l1.8,3.1l0.1,0.2c0.1,0.1,0.1,0.1,0.1,0.2l0,0l0.1,0.1c0.1,0.1,0.2,0.1,0.3,0.2h0.1c0.1,0,0.1,0,0.2,0l0,0l0,0
			c0,0,0.1,0,0.2,0l0,0h0.1l0,0h0.1l0,0c0,0-0.1,0-0.1,0.1l0.5,0.4l-3,3.4l-0.4-0.4h-0.1l0,0c0,0,0,0,0,0.1v-0.1v-0.1v-0.1
			c0-0.2,0-0.5,0-0.7s-0.1-0.4-0.1-0.6c-0.1-0.2-0.1-0.4-0.2-0.5c-0.1-0.1-0.1-0.3-0.2-0.4l0,0l-5.2-9.7l0,0l-0.1-0.1l0,0
			c0-0.1-0.1-0.1-0.1-0.1c-0.1-0.1-0.1-0.1-0.2-0.1h-0.1l0,0l0,0c-0.1,0-0.1,0-0.2,0c-0.1,0-0.2,0-0.3,0l-0.9,0.2l2.6-2.9l0.7-0.8
			l12.3,4.8c0.2,0.1,0.4,0.1,0.5,0.2c0.1,0,0.3,0.1,0.4,0.1c0.1,0,0.3,0,0.4,0s0.2,0,0.3,0s0.1,0,0.2,0l0,0h0.2c0.1,0,0.1,0,0.2,0
			l0,0h0.1c0,0,0,0,0.1,0l0,0l0.3,0.5L189.6,177.3z M172,193.8c-0.1,0-0.2,0.1-0.3,0.1s-0.2,0-0.3,0.1l0,0c-0.1,0-0.2,0-0.3,0
			c-0.1,0-0.2,0-0.3,0s-0.2,0-0.3,0s-0.2,0-0.3,0l0,0l-0.3-0.1c-0.1,0-0.2-0.1-0.3-0.1s-0.1,0-0.2,0h-0.1l0,0l0,0l0,0c0,0,0,0-0.1,0
			l0,0l-9.3-4.6l3.3,6c0.1,0.3,0.3,0.5,0.4,0.7s0.3,0.3,0.4,0.4c0.1,0.1,0.3,0.1,0.4,0.2c0.2,0.1,0.4,0.1,0.6,0.1v0.3l0.2,0.3
			l-3.8,2.1l-0.4-0.5c0,0,0,0,0-0.1c0,0,0-0.1,0.1-0.1c0,0,0,0,0-0.1v-0.1l0,0l0,0c0-0.1,0.1-0.2,0.1-0.3c0-0.1,0-0.2,0.1-0.4
			c0-0.1,0-0.3-0.1-0.4c-0.1-0.2-0.1-0.4-0.2-0.6l0,0l-4.7-8.5c-0.1-0.3-0.3-0.5-0.5-0.7c-0.2-0.2-0.3-0.3-0.4-0.4
			c-0.1-0.1-0.2-0.2-0.4-0.2c-0.1,0-0.2-0.1-0.3-0.1l0,0h-0.1l0,0c-0.1,0-0.1,0-0.1,0l0,0h-0.1l0,0h-0.1l-0.8-0.3l1.3-0.8
			c0.2-0.1,0.3-0.2,0.5-0.3l2.2-1.1l10.2,4.8l-3.1-5.7c-0.1-0.2-0.3-0.5-0.5-0.7c-0.2-0.2-0.3-0.3-0.5-0.5c-0.2-0.1-0.3-0.2-0.5-0.2
			c-0.1,0-0.3,0-0.4,0l-0.3-0.6l3.3-1.9l1.2-0.7l-0.1,0.6c0,0.1,0,0.2-0.1,0.3v0.1l0,0l0,0l0,0l0,0l0,0l0,0c0,0.1-0.1,0.2-0.1,0.3
			s0,0.2,0,0.3l0,0c0,0,0,0.2,0.1,0.4s0.2,0.5,0.3,0.8l6.3,11.3L172,193.8z M145.6,203.9c-0.3,0.1-0.6,0.3-0.9,0.4
			c-0.3,0.1-0.6,0.2-0.9,0.3c-0.3,0.1-0.7,0.2-0.9,0.3s-0.7,0.2-0.9,0.2l0,0l-1.2,0.2c-0.5,0.1-1,0.1-1.5,0.1c-0.6,0-1,0-1.6-0.1
			c-1-0.2-2-0.5-2.9-0.9c-0.9-0.5-1.8-1.1-2.4-2.1c-0.6-0.9-0.9-2.1-1.2-3.4v-0.1c-0.1-1.3,0.1-2.6,0.4-3.5c0.4-1,0.9-1.9,1.6-2.6
			c0.7-0.7,1.5-1.2,2.4-1.6s1.8-0.7,2.8-0.9l0.8-0.1c0.3,0,0.6,0,0.8-0.1c0.3,0,0.6,0,0.9,0c0.3,0,0.6,0,0.8,0c0.3,0,0.6,0,0.9,0.1
			h0.2l0.4,3l-1.1,0.2l-0.1-0.1c-0.3-0.2-0.6-0.3-0.8-0.5c-0.3-0.1-0.5-0.2-0.8-0.3l0,0c-0.2-0.1-0.5-0.1-0.7-0.1s-0.4,0-0.7,0
			c-0.6,0.1-1,0.3-1.5,0.6c-0.5,0.3-0.9,0.7-1.3,1.1c-0.5,0.5-0.8,1.1-0.9,1.8c-0.2,0.7-0.2,1.4-0.1,2.2v0.1v0.1v0.2
			c0.2,0.9,0.4,1.6,0.8,2.2c0.3,0.6,0.7,1,1.1,1.3c0.5,0.3,0.9,0.6,1.4,0.8c0.5,0.2,0.9,0.3,1.4,0.4c0.1,0,0.1,0,0.2,0
			c0.1,0,0.1,0,0.2,0c0.1,0,0.1,0,0.2,0h0.1h0.2l0,0l0,0c0.2,0,0.3-0.1,0.5-0.1s0.3-0.1,0.5-0.1c0.2-0.1,0.4-0.1,0.5-0.2
			c0.1,0,0.2-0.1,0.2-0.1l-0.4-3c0-0.3-0.1-0.5-0.1-0.8c0-0.2-0.1-0.4-0.2-0.6l0,0c-0.1-0.1-0.2-0.3-0.3-0.4
			c-0.1-0.1-0.3-0.2-0.5-0.3l-0.9-0.5l3.9-0.6l1.2-0.2l-0.1,0.6v0.1c0,0.1,0,0.1,0,0.2c0,0.1,0,0.1,0,0.2l0.8,5.6l0,0v0.1v0.1v0.1
			v0.1c0,0.1,0.1,0.1,0.1,0.2L145.6,203.9L145.6,203.9z M121,191.4c-0.1,0.1-0.2,0.1-0.3,0.2h-0.1l0,0l0,0l0,0l0,0l0,0l0,0
			c-0.2,0.1-0.4,0.2-0.5,0.3l0,0c0,0-0.1,0.1-0.2,0.4c-0.1,0.2-0.2,0.5-0.3,0.8l-2.8,12.6l-1-0.2c-0.1,0-0.2-0.1-0.3-0.1
			c-0.1,0-0.2-0.1-0.2-0.1l0,0c-0.1-0.1-0.2-0.1-0.2-0.2c-0.1-0.1-0.2-0.2-0.2-0.2c-0.1-0.1-0.1-0.1-0.2-0.2
			c-0.1-0.1-0.1-0.2-0.2-0.2l0,0c-0.1-0.1-0.1-0.2-0.2-0.3c-0.1-0.1-0.1-0.2-0.2-0.3l-0.1-0.1c0,0,0-0.1-0.1-0.1l0,0l0,0l0,0
			c0,0,0,0,0-0.1l0,0l-4-9.5l-1.5,6.7c-0.1,0.3-0.1,0.5-0.1,0.8c0,0.2,0,0.4,0,0.5s0.1,0.3,0.2,0.4c0.1,0.2,0.2,0.3,0.3,0.5
			l-0.2,0.2l-0.1,0.4l0,0l-4.3-0.9V202c0,0,0,0,0.1,0h0.1c0,0,0,0,0.1,0h0.1l0,0l0,0c0.1,0,0.2-0.1,0.3-0.2c0.1-0.1,0.2-0.2,0.3-0.2
			c0.1-0.1,0.2-0.2,0.2-0.3c0.1-0.2,0.2-0.4,0.3-0.6l2.1-9.4c0.1-0.3,0.1-0.6,0.1-0.9c0-0.2,0-0.4,0-0.6c0-0.1-0.1-0.3-0.1-0.4
			c0-0.1-0.1-0.2-0.2-0.3l0,0c0,0-0.1,0-0.1-0.1l-0.1-0.1l0,0l-0.1-0.1l0,0l-0.1-0.1l-0.4-0.7l1.4,0.3c0.2,0.1,0.4,0.1,0.6,0.1
			l2.4,0.6l4.4,10.4l1.4-6.4c0.1-0.3,0.1-0.6,0.1-0.8s0-0.5-0.1-0.7c-0.1-0.2-0.1-0.3-0.2-0.5c-0.1-0.1-0.2-0.2-0.3-0.3l0.2-0.6
			l3.7,0.8l1.3,0.3L121,191.4z M95.1,187.3c-0.2,0.9-0.7,2-1.2,2.9l0,0c-0.1,0.1-0.1,0.2-0.2,0.2c0,0.1-0.1,0.1-0.1,0.2l0,0
			c-0.1,0.1-0.1,0.2-0.2,0.2c-0.1,0.1-0.1,0.1-0.2,0.2c-0.1,0.2-0.3,0.3-0.4,0.5c-0.1,0.1-0.3,0.3-0.5,0.4c-0.6,0.5-1.1,0.9-1.8,1.2
			c-0.7,0.3-1.4,0.6-2.2,0.8c-0.4,0.1-0.8,0.1-1.2,0.1c-0.4,0-0.9-0.1-1.2-0.1c-0.8-0.2-1.6-0.6-2.4-1l-0.7-0.5
			c-1-0.7-1.8-1.4-2.4-2.3c-0.6-0.8-0.9-1.7-1-2.7s-0.1-1.9,0.1-2.8c0.2-0.9,0.6-1.9,1-2.8v-0.1c0.1-0.1,0.2-0.3,0.3-0.5
			s0.3-0.3,0.4-0.5c0.1-0.1,0.2-0.2,0.2-0.3c0.1-0.1,0.2-0.2,0.3-0.3l0,0c0.1-0.1,0.2-0.1,0.2-0.2c0.1-0.1,0.2-0.2,0.3-0.2
			c0.6-0.5,1.1-0.9,1.8-1.1c0.7-0.3,1.3-0.6,2.1-0.7c0.8-0.2,1.6-0.1,2.5,0.1c0.9,0.2,1.7,0.6,2.6,1.2l0.7,0.4
			c0.9,0.6,1.5,1.2,2.1,2c0.6,0.8,0.9,1.6,1.1,2.6C95.3,185.4,95.3,186.3,95.1,187.3 M75.3,169.8l-0.8-0.9v-0.2c0-0.2,0.1-0.4,0-0.6
			c0-0.2-0.1-0.4-0.1-0.6l0,0c-0.1-0.2-0.1-0.4-0.2-0.5c-0.1-0.2-0.2-0.3-0.3-0.5c-0.1-0.1-0.1-0.1-0.2-0.2l-0.1-0.2
			c-0.1-0.1-0.2-0.2-0.3-0.3l-0.1-0.1l-2.6,2l0.5,0.6l0,0c0.1,0.2,0.3,0.4,0.4,0.6l0,0c0.1,0.1,0.1,0.1,0.2,0.2
			c0.1,0,0.1,0.1,0.2,0.1h0.1l0.8,0.9l-2.4,1.8l-0.8-0.9v-0.2c0-0.1,0-0.2,0-0.3s0-0.3-0.1-0.4c-0.1-0.2-0.1-0.3-0.2-0.4
			c-0.1-0.1-0.2-0.3-0.3-0.4l0,0v-0.1l-0.2-0.2l-3.6,2.8c0,0,0,0,0,0.1l0.1,0.1l0,0l0,0c0.1,0.2,0.2,0.3,0.3,0.5
			c0.1,0.2,0.2,0.3,0.3,0.5c0.1,0.1,0.1,0.2,0.2,0.3l0,0c0.1,0.1,0.1,0.2,0.2,0.3l0.1,0.1l0.1,0.1c0.1,0.1,0.2,0.2,0.3,0.3
			c0.1,0.1,0.2,0.2,0.3,0.3c0.1,0.1,0.2,0.1,0.3,0.2c0.1,0.1,0.2,0.2,0.3,0.2c0.2,0.1,0.5,0.2,0.7,0.3c0.3,0.1,0.6,0.2,0.9,0.2h0.1
			l0.9,1l-3.5,1l-5.9-7.7l0.8,0.2c0.1,0,0.1,0,0.2,0s0.2,0,0.3,0l0,0l0,0h0.1c0,0,0.1,0,0.2,0l0,0l0.2-0.1c0.1,0,0.1-0.1,0.2-0.1
			s0.1-0.1,0.2-0.1c0.1,0,0.1-0.1,0.2-0.2l0,0l7.8-5.9c0.1-0.1,0.3-0.2,0.5-0.4c0.2-0.1,0.3-0.3,0.5-0.4c0.1-0.1,0.2-0.3,0.3-0.5
			c0.1-0.2,0.1-0.4,0.1-0.6l0.1-0.8l4.4,5.6v0.1c0,0,0,0.1,0.1,0.1l0.1,0.1l0,0l0,0l0,0c0,0,0,0,0.1,0H77l0,0c0.1,0,0.1,0.1,0.1,0.1
			l0,0l0.8,0.9L75.3,169.8z M60.4,151.4c0,0.1-0.1,0.1-0.1,0.2c0,0.1,0,0.2-0.1,0.3c0,0.1-0.1,0.2-0.1,0.4c0,0.1-0.1,0.2-0.1,0.4
			c-0.1,0.3-0.2,0.5-0.3,0.8c-0.1,0.3-0.3,0.5-0.5,0.8s-0.4,0.5-0.7,0.7c-0.3,0.2-0.5,0.3-0.9,0.5c-0.6,0.2-1.1,0.3-1.6,0.3
			c-0.2,0-0.3,0-0.5,0c-0.7-0.1-1.3-0.3-1.9-0.7c-0.6-0.4-1-0.9-1.4-1.4c-0.4-0.6-0.8-1.2-1-2l-0.3-0.8c-0.1-0.2-0.2-0.5-0.2-0.7
			c-0.1-0.2-0.1-0.5-0.2-0.8c0-0.3-0.1-0.5-0.1-0.8c0-0.3-0.1-0.5-0.1-0.8l0,0l0,0l0,0v-0.1c0-0.1,0-0.1,0-0.2c0-0.1,0-0.1,0-0.2
			v-0.1V147l2.9-1.6l0.4,1.2l-0.1,0.1c-0.1,0.2-0.2,0.4-0.3,0.6c-0.1,0.2-0.1,0.4-0.2,0.6c0,0.1,0,0.2-0.1,0.3c0,0.1,0,0.2,0,0.3
			l0,0c0,0.1,0,0.2,0,0.3s0,0.2,0,0.3l0,0c0,0.1,0,0.2,0,0.3s0,0.1,0,0.2l0,0l0,0c0,0.1,0,0.1,0,0.2l0,0c0,0.1,0,0.1,0,0.2
			c0,0.1,0,0.2,0,0.2c0,0.1,0,0.1,0.1,0.2c0.1,0.2,0.2,0.5,0.4,0.7c0.1,0.2,0.3,0.4,0.5,0.5c0.2,0.2,0.4,0.3,0.7,0.4
			c0.2,0.1,0.4,0.1,0.7,0.1h0.1c0.1,0,0.1,0,0.2,0l0,0h0.1h0.1c0.1,0,0.2-0.1,0.3-0.2c0.1-0.1,0.2-0.1,0.2-0.2l0,0l0.1-0.1l0.1-0.1
			c0-0.1,0.1-0.1,0.1-0.2s0.1-0.1,0.1-0.2c0-0.1,0.1-0.2,0.1-0.4c0-0.1,0.1-0.2,0.1-0.4c0-0.1,0.1-0.3,0.1-0.4
			c0-0.1,0.1-0.3,0.1-0.5l0.5-2.3v-0.1l0,0v-0.1c0-0.1,0-0.1,0-0.2c0-0.1,0-0.2,0.1-0.3c0-0.1,0-0.1,0.1-0.2
			c0.2-0.6,0.4-1.1,0.8-1.6c0.2-0.3,0.4-0.6,0.7-0.8c0.3-0.2,0.6-0.4,0.9-0.6h0.1c0.7-0.3,1.3-0.4,2-0.3c0.7,0.1,1.1,0.3,1.7,0.7
			c0.5,0.4,0.9,0.8,1.2,1.2c0.4,0.5,0.6,1,0.8,1.5l0.3,0.8v0.1l0.1,0.3l0,0l0.1,0.3l0,0v0.1l0.1,0.2c0,0.1,0.1,0.2,0.1,0.3
			c0,0.1,0.1,0.3,0.1,0.4c0,0.2,0.1,0.3,0.1,0.5s0,0.3,0.1,0.4c0,0.2,0,0.3,0,0.4c0,0.1,0,0.3,0,0.4v0.2l-2.7,0.9l-0.4-1.1v-0.1
			c0.1-0.2,0.1-0.4,0.2-0.6c0.1-0.2,0.1-0.5,0.1-0.7c0-0.3,0-0.5,0-0.8c0-0.2,0-0.5-0.1-0.7l0,0v-0.1c0-0.1,0-0.1,0-0.2
			s-0.1-0.2-0.2-0.3c-0.1-0.1-0.2-0.2-0.3-0.3s-0.3-0.2-0.5-0.3c-0.2-0.1-0.4-0.1-0.6-0.2c-0.1,0-0.1,0-0.2,0c-0.1,0-0.1,0-0.2,0H62
			h-0.1c-0.2,0.1-0.4,0.2-0.5,0.3c-0.2,0.2-0.3,0.4-0.4,0.6c-0.1,0.3-0.2,0.6-0.3,0.8c-0.1,0.3-0.1,0.6-0.2,0.9l0,0L60.4,151.4
			L60.4,151.4z M194.9,85.5L194.9,85.5c-0.1,0.4-0.2,0.8-0.4,1c-0.4,0.5-0.9,0.9-1.4,1c-0.2,0.1-0.5,0.1-0.7,0.1s-0.5,0-0.7-0.1
			c0,0.2,0,0.4,0,0.6c0,0.3-0.1,0.6-0.1,0.8c-0.1,0.3-0.2,0.6-0.5,0.9c-0.2,0.3-0.5,0.5-0.9,0.7l0,0c-0.4,0.2-0.8,0.4-1.1,0.5
			c-0.2,0-0.4,0.1-0.6,0.1c-0.2,0-0.4,0-0.5-0.1c-0.6-0.1-1.1-0.4-1.6-0.8l0,0c-0.1-0.1-0.2-0.2-0.3-0.3s-0.2-0.2-0.3-0.3l0,0
			c-0.1-0.1-0.2-0.2-0.2-0.3l-2.3-3.6l0.4-0.5l0,0l0,0l0,0l0,0h0.1c0.1,0,0.1,0,0.2,0c0.1,0,0.1,0,0.2,0c0.1,0,0.1-0.1,0.2-0.1
			c0.1,0,0.2-0.1,0.3-0.2l0,0L191,81l0.1-0.1h0.1c0,0,0.1,0,0.1-0.1l0,0l0.1-0.1l0.1-0.1c0,0,0-0.1,0.1-0.1l0.1-0.1
			c0,0,0.1-0.1,0.1-0.2c0-0.1,0-0.1,0-0.2l0.6-0.2l1.7,2.7l0.3,0.5c0.2,0.4,0.4,0.8,0.5,1.1C194.9,84.8,195,85.2,194.9,85.5
			 M182.6,81.6c-0.1,0.1-0.2,0.2-0.3,0.3c-0.1,0.1-0.2,0.2-0.2,0.3c0,0.1-0.1,0.1-0.1,0.2s0,0.2,0.1,0.2l-0.5,0.4l-1.9-2.1l0.1-0.1
			c-0.1,0-0.2-0.1-0.2-0.1c-0.2-0.1-0.4-0.2-0.6-0.4c-0.2-0.2-0.4-0.4-0.6-0.6l-0.4-0.4c-0.4-0.4-0.7-0.9-0.9-1.2s-0.3-0.9-0.2-1.2
			s0.1-0.8,0.3-1.1c0.1-0.4,0.3-0.7,0.6-0.9c0,0,0-0.1,0.1-0.1c0,0,0-0.1,0.1-0.1l0.1-0.1h0.1c0-0.1,0.1-0.1,0.1-0.2l4.3-3.8
			c0.2-0.1,0.3-0.3,0.4-0.5c0.1-0.2,0.1-0.4,0.1-0.6l0.1-0.7l2.1,2.3l0.8,0.9l-0.6,0.1c-0.1,0-0.3,0-0.4,0.1h-0.1H185l0,0h-0.1
			c0,0-0.1,0-0.1,0.1l0,0h-0.1c0,0,0,0-0.1,0l0,0l0,0l-0.1,0.1l-3.9,3.5c-0.3,0.3-0.5,0.5-0.7,0.8c-0.1,0.2-0.2,0.4-0.3,0.6
			c0,0.2,0,0.4,0,0.6c0,0.2,0.1,0.3,0.1,0.5l0.1,0.1c0,0,0,0,0,0.1l0,0c0.2,0.2,0.4,0.3,0.6,0.5c0.2,0.1,0.5,0.2,0.8,0.2
			c0.2,0,0.3,0,0.5-0.1s0.4-0.2,0.6-0.4l3.9-3.5c0.2-0.1,0.3-0.3,0.4-0.4c0.1-0.1,0.2-0.2,0.2-0.4l0,0c0.1-0.1,0.1-0.2,0.1-0.3
			c0-0.1,0-0.2,0-0.4v-0.8l2.3,2.5l0.8,0.9h-0.7c-0.2,0-0.3,0-0.4,0.1c-0.1,0-0.3,0.1-0.4,0.1c-0.1,0.1-0.3,0.2-0.4,0.2
			c-0.1,0.1-0.3,0.2-0.4,0.3L182.6,81.6z M176.6,65.3c-0.1,0.1-0.2,0.2-0.3,0.3l-4.4,5.3c0.1,0.1,0.1,0.1,0.2,0.2
			c0.1,0.1,0.2,0.2,0.3,0.4c0.1,0.1,0.1,0.1,0.2,0.2c0.1,0.1,0.1,0.1,0.2,0.2l0.2,0.1c0.1,0,0.1,0.1,0.2,0.1l0,0
			c0.1,0.1,0.2,0.1,0.3,0.1s0.3,0.1,0.4,0.1l0,0c0.1,0,0.1,0,0.2,0c0.1,0,0.1,0,0.2,0c0.1,0,0.2,0,0.3,0s0.1,0,0.2,0h0.2l0.9,0.7
			l-2.4,1.4l-4.9-4l0.2-0.3v-0.3h0.1h0.1l0,0l0,0l0,0h0.1c0.1,0,0.2,0,0.2-0.1c0.1,0,0.1-0.1,0.2-0.1c0.1-0.1,0.1-0.1,0.2-0.2
			c0.1,0,0.1-0.1,0.1-0.2l4.6-5.6c0.1-0.1,0.1-0.2,0.2-0.3c0-0.1,0.1-0.1,0.1-0.2V63c0,0,0,0,0-0.1l0,0c0,0,0,0,0-0.1v-0.1v-0.2
			c0-0.1,0-0.1,0-0.2l0.1-0.6l2.5,2l0.9,0.8l-0.8,0.1l0,0h-0.1H177h-0.1h-0.1h-0.1c-0.1,0-0.2,0.1-0.2,0.1
			C176.7,65.2,176.6,65.3,176.6,65.3 M168.3,60.6c-0.1-0.3-0.3-0.5-0.5-0.7c-0.1-0.2-0.3-0.4-0.5-0.5c-0.1-0.1-0.2-0.2-0.4-0.3
			c-0.1-0.1-0.2-0.2-0.3-0.2c-0.4-0.2-0.7-0.3-0.9-0.3l0,0c-0.3,0-0.6,0.1-0.9,0.2c-0.4,0.2-0.7,0.4-0.9,0.7
			c-0.3,0.3-0.6,0.6-0.8,0.9l-0.1,0.2l0,0v0.1c-0.2,0.4-0.4,0.9-0.5,1.2c-0.1,0.5-0.1,0.9-0.1,1.3c0,0.4,0.2,0.8,0.4,1
			s0.4,0.6,0.8,0.8l0,0h0.1c0.1,0.1,0.3,0.2,0.4,0.2c0.1,0.1,0.3,0.1,0.4,0.1l0,0c0.3,0.1,0.5,0.1,0.8,0.1l0,0h0.2
			c0.1,0,0.1,0,0.2,0l0,0l0,0c0.1,0,0.1,0,0.2,0l0,0c0.1,0,0.2,0,0.3,0h0.1L167,66l-1.7,1.6h-0.1c-0.2,0-0.4,0-0.5-0.1
			c-0.2,0-0.3-0.1-0.5-0.2s-0.3-0.1-0.5-0.2c-0.1-0.1-0.3-0.1-0.4-0.2l0,0l-0.9-0.5c-0.6-0.3-1-0.8-1.5-1.1c-0.5-0.5-0.8-1-1-1.6
			c-0.3-0.7-0.4-1.3-0.3-2c0.1-0.7,0.3-1.4,0.7-2.2l0,0l0.3-0.5l0.1-0.1c0,0,0-0.1,0.1-0.1l0.1-0.1c0.3-0.5,0.8-0.9,1.1-1.3
			c0.5-0.4,0.9-0.8,1.5-0.9c0.6-0.3,1.2-0.4,1.9-0.3c0.7,0.1,1.3,0.4,2.1,0.8l0.5,0.3c0.1,0.1,0.2,0.1,0.3,0.2
			c0.1,0.1,0.2,0.2,0.4,0.3c0.1,0.1,0.3,0.2,0.4,0.3c0.1,0.1,0.2,0.2,0.4,0.3c0.1,0.1,0.3,0.2,0.4,0.3l0.1,0.1l0,0l0,0l0,0l0.1,0.1
			l0.1,0.1l0.2,0.2l-1.1,2L168.3,60.6L168.3,60.6z M148.1,60.1l-6.2-1.6l0.1-0.4L142,58l0,0c0,0,0,0-0.1,0h0.1l0,0l0,0l0,0l0,0h0.1
			c0.1-0.1,0.1-0.1,0.2-0.2c0,0,0.1-0.1,0.1-0.2c0-0.1,0.1-0.2,0.1-0.2c0-0.1,0.1-0.1,0.1-0.2l0.1-0.4l1.7-6.6
			c0-0.1,0.1-0.2,0.1-0.3s0-0.1,0-0.2v-0.1c0,0,0,0,0-0.1l0,0l0,0c0,0,0-0.1-0.1-0.1c0-0.1-0.1-0.2-0.1-0.3l-0.2-0.6l3.1,0.8
			l1.2,0.3l-0.6,0.4l0,0l-0.1,0.1h-0.1c0,0,0,0-0.1,0l0,0l0,0c0,0-0.1,0-0.1,0.1c-0.1,0.1-0.1,0.1-0.2,0.2c0,0.1-0.1,0.2-0.1,0.2
			c0,0.1-0.1,0.2-0.1,0.4l-1.7,6.6c0.1,0,0.2,0.1,0.2,0.1c0.2,0.1,0.3,0.1,0.5,0.2c0.1,0,0.2,0.1,0.3,0.1s0.2,0.1,0.3,0.1
			s0.2,0,0.3,0s0.2,0,0.3,0l0,0c0.1,0,0.2,0,0.4,0c0.1,0,0.3,0,0.4-0.1l0,0c0.1,0,0.1,0,0.2,0c0.1,0,0.1,0,0.2-0.1
			c0.1,0,0.2-0.1,0.2-0.1c0.1,0,0.2-0.1,0.2-0.1h0.1l1,0.3L148.1,60.1z M138,57.9l-6.3-0.7v-0.4l-0.1-0.2l0,0c0,0,0,0-0.1,0
			c0,0,0.1,0,0.1-0.1l0,0l0,0l0,0l0,0c0,0,0.1,0,0.1-0.1c0.1-0.1,0.1-0.1,0.2-0.2c0-0.1,0.1-0.1,0.1-0.2s0.1-0.2,0.1-0.3
			c0-0.1,0-0.1,0-0.2l0.8-7.2c0-0.1,0-0.2,0-0.3c0-0.1,0-0.1,0-0.2v-0.1c0,0,0,0,0-0.1l0,0l0,0l-0.1-0.1l-0.1-0.1l-0.1-0.1l-0.3-0.5
			l3.2,0.3l1.2,0.1l-0.6,0.5l0,0l-0.1,0.1c0,0-0.1,0-0.1,0.1c0,0,0,0-0.1,0l0,0l0,0l-0.1,0.1c0,0.1-0.1,0.1-0.1,0.2
			c0,0.1-0.1,0.1-0.1,0.3c0,0.1-0.1,0.3-0.1,0.4l-0.7,6.8c0.1,0,0.2,0,0.3,0.1c0.2,0,0.3,0.1,0.5,0.1c0.1,0,0.2,0,0.3,0
			c0.1,0,0.2,0,0.3,0.1h0.3c0.1,0,0.2,0,0.3,0l0,0c0.1,0,0.2,0,0.4-0.1c0.1,0,0.3-0.1,0.4-0.1l0,0c0.1,0,0.1,0,0.2-0.1
			c0.1,0,0.1-0.1,0.2-0.1c0.1,0,0.1-0.1,0.2-0.1c0.1,0,0.1-0.1,0.2-0.1l0.1-0.1l1.1,0.1L138,57.9z M128.6,57.1l-3.3,0.3l-0.2-0.6
			c0.1,0,0.1-0.1,0.2-0.1l0.1-0.1v-0.1v-0.1v-0.1l0,0c0,0,0-0.1-0.1-0.1l0,0c0,0,0,0,0-0.1c0,0,0,0,0-0.1l0,0c0,0,0,0,0-0.1v-0.1
			v-0.1l-0.9-2.1l-2.3,0.2l-0.6,2.4c0,0.1,0,0.2,0,0.3v0.1v0.1c0,0,0,0,0,0.1c0,0,0,0,0,0.1c0,0,0,0,0.1,0.1l0,0l0,0l0.1,0.1
			c0,0,0,0,0.1,0l0,0l0,0l0,0l0,0l0,0l0,0h-0.1v0.3v0.4v-0.2v0.2v-0.1v0.1l-3.1,0.2v-0.5l-0.1-0.1l0,0l0,0c0,0,0,0,0.1,0
			c0,0,0,0,0.1-0.1c0,0,0,0,0.1-0.1s0.2-0.2,0.3-0.4c0.1-0.1,0.2-0.2,0.2-0.4c0.1-0.1,0.1-0.3,0.1-0.4c0-0.1,0.1-0.2,0.1-0.3l0,0
			l2.1-7.4v-0.1l0,0v-0.1l0,0v-0.1l0,0l0,0l0,0c-0.1-0.1-0.2-0.1-0.2-0.2l-0.8-0.5l3-0.3l0.8-0.1l3.9,8.4c0.1,0.1,0.1,0.2,0.2,0.3
			c0.1,0.1,0.1,0.2,0.2,0.2c0.1,0.1,0.1,0.1,0.2,0.2c0.1,0.1,0.1,0.1,0.2,0.1c0.1,0,0.1,0.1,0.1,0.1l0.1,0.1c0,0,0.1,0,0.1,0.1l0,0
			l0,0l0,0l0,0L128.6,57.1z M115.5,56.3c0,0.4-0.2,0.7-0.3,0.9c-0.2,0.3-0.3,0.5-0.6,0.8c-0.2,0.2-0.4,0.4-0.7,0.6l0,0
			c-0.1,0.1-0.3,0.2-0.4,0.2c-0.1,0.1-0.3,0.1-0.4,0.2l0,0c-0.1,0-0.3,0.1-0.4,0.1l-4.1,0.9l-0.3-0.6l0,0l0,0l0,0l0,0v-0.1l0.1-0.1
			c0-0.1,0-0.1,0-0.2c0-0.2,0-0.4-0.1-0.6l-1.7-7.1v-0.1v-0.1v-0.1l0,0V51v-0.1c0,0,0-0.1-0.1-0.1l-0.1-0.1l-0.1-0.1
			c0,0-0.1,0-0.1-0.1V50l3-0.8l0.6-0.1c0.4-0.1,0.9-0.1,1.2-0.1c0.4,0,0.8,0.1,1.1,0.3l0,0c0.4,0.2,0.7,0.4,0.9,0.7
			c0.2,0.3,0.4,0.6,0.5,0.9c0.1,0.2,0.1,0.5,0.1,0.7c0,0.2-0.1,0.5-0.2,0.7c-0.1,0.2-0.2,0.4-0.3,0.6c0.2,0.1,0.4,0.1,0.6,0.2
			c0.3,0.1,0.5,0.2,0.7,0.4c0.3,0.2,0.5,0.4,0.7,0.7c0.2,0.3,0.3,0.6,0.4,1l0,0C115.5,55.6,115.5,56,115.5,56.3 M103.3,61.9l-2.5,1
			l-0.3-0.5c0.1,0,0.1-0.1,0.1-0.2c0-0.1,0.1-0.1,0.1-0.2c0-0.1,0-0.2,0-0.2c0-0.1,0-0.2-0.1-0.3l0,0l-2.8-6.8l-0.2,0.1
			c-0.2,0.1-0.3,0.2-0.5,0.3c-0.1,0.1-0.3,0.2-0.4,0.3c-0.1,0.1-0.2,0.2-0.3,0.3c-0.1,0.1-0.1,0.2-0.2,0.3l-0.1,0.1l-0.9,0.4
			l-0.5-2.5l0.9-0.4l0.1,0.1l0,0l0,0l0,0l0,0l0,0l0.1-0.1l4.6-1.9l0.4-0.2l0.1-0.1l0.1-0.1l0,0l0.9-0.4l0.3,2.6l-0.9,0.4l-0.2-0.2
			c0,0,0,0-0.1-0.1c-0.1,0-0.2,0-0.2-0.1l0,0c-0.1,0-0.2,0-0.3,0s-0.2,0-0.3,0.1l0,0l0,0.1l2.8,6.8c0,0.1,0.1,0.2,0.1,0.3l0.1,0.1
			l0,0c0.1,0,0.1,0.1,0.2,0.1s0.1,0,0.2,0.1h0.1h0.1l0.7,0.3L103.3,61.9z M94.6,65.1c-0.1,0.6-0.4,1.1-0.7,1.6
			c-0.4,0.5-0.9,0.9-1.4,1.2L92,68.2c-0.8,0.5-1.4,0.8-2.1,0.9c-0.3,0.1-0.6,0.1-0.9,0.1c-0.4,0-0.8-0.1-1.1-0.2
			c-0.7-0.2-1.2-0.5-1.8-0.9c-0.6-0.4-1-0.9-1.4-1.5l0,0c-0.1-0.1-0.1-0.2-0.2-0.3c-0.1-0.2-0.2-0.4-0.3-0.7c0-0.1-0.1-0.1-0.1-0.2
			l0,0c0-0.1,0-0.1-0.1-0.2c0-0.1-0.1-0.2-0.1-0.3c-0.1-0.5-0.2-0.9-0.2-1.4c0-0.6,0.1-1,0.2-1.5c0.1-0.6,0.4-1.1,0.8-1.5
			c0.4-0.5,0.9-0.9,1.5-1.3l0.5-0.3c0.6-0.4,1.2-0.7,1.9-0.8s1.3-0.1,2,0s1.3,0.4,1.9,0.9c0.6,0.4,1,0.9,1.5,1.6l0,0
			c0,0.1,0.1,0.1,0.1,0.2l0.1,0.1l0,0c0,0.1,0.1,0.1,0.1,0.2c0,0.1,0.1,0.1,0.1,0.2c0.1,0.1,0.1,0.3,0.2,0.4c0,0.1,0.1,0.3,0.1,0.4
			c0.2,0.5,0.3,1,0.3,1.5C94.7,63.9,94.7,64.5,94.6,65.1 M83.4,74.2c-0.3,0.5-0.7,1-1.1,1.5l-0.4,0.4c-0.7,0.6-1.2,1-1.9,1.3
			c-0.5,0.2-1,0.4-1.6,0.4c-0.1,0-0.3,0-0.4,0c-0.7-0.1-1.3-0.2-1.9-0.5c-0.7-0.3-1.2-0.7-1.7-1.1l0,0c-0.1-0.1-0.2-0.2-0.3-0.3
			c-0.1-0.1-0.2-0.2-0.3-0.4c-0.1-0.1-0.1-0.1-0.1-0.2s-0.1-0.1-0.1-0.2l0,0c0-0.1-0.1-0.1-0.1-0.2s-0.1-0.2-0.1-0.2
			c-0.2-0.5-0.4-0.9-0.5-1.4c-0.1-0.5-0.2-1-0.1-1.6c0-0.6,0.2-1.1,0.5-1.7c0.3-0.6,0.7-1,1.2-1.5l0.4-0.4c0.6-0.5,1.1-0.9,1.7-1.1
			c0.6-0.3,1.2-0.4,1.9-0.4h0.1c0.7,0,1.3,0.2,2,0.5c0.7,0.3,1.2,0.8,1.8,1.3l0,0c0,0.1,0.1,0.1,0.1,0.2l0.1,0.1l0,0
			c0,0.1,0.1,0.1,0.1,0.1c0,0.1,0.1,0.1,0.1,0.2c0.1,0.1,0.2,0.2,0.3,0.4c0.1,0.1,0.1,0.2,0.2,0.4c0.3,0.5,0.5,0.9,0.6,1.4
			s0.2,1,0.2,1.6C83.7,73.1,83.7,73.6,83.4,74.2 M72.8,85.9l-0.6-0.3c0-0.1,0-0.1,0-0.2c0-0.1,0-0.1,0-0.2c-0.1-0.1-0.1-0.2-0.2-0.3
			c0,0,0,0-0.1-0.1l0,0h-0.1l0,0l-0.1-0.1l-0.1-0.1l-5.6-4.3c-0.1-0.1-0.2-0.1-0.3-0.2s-0.2-0.1-0.3-0.1c-0.1,0-0.2,0-0.2,0
			c-0.1,0-0.2,0-0.3,0.1l-0.9,0.3l3-4l0.4-0.6l0,0l0,0c0,0,0,0,0-0.1v-0.1l0.6-0.8l2,1.5l-0.6,0.9h-0.2c-0.1,0-0.2,0-0.3,0
			c-0.1,0-0.2,0.1-0.4,0.2s-0.4,0.3-0.5,0.4L68.1,78c0,0,0,0.1-0.1,0.1c0,0,0,0.1-0.1,0.1l-0.1,0.1c0,0,0,0,0,0.1l0,0
			c0,0-0.1,0.1-0.1,0.2l1.6,1.2l0.8-0.9l0,0l0,0v-0.1l0.6-0.8l1.8,1.3l-0.6,0.8h-0.2c-0.1,0-0.1,0-0.2,0s-0.2,0.1-0.2,0.2
			c-0.1,0.1-0.1,0.1-0.2,0.2s-0.1,0.1-0.2,0.2c0,0,0,0.1-0.1,0.1c0,0.1-0.1,0.1-0.1,0.2l2.4,1.8l0,0l0.2,0.1
			c0.1,0.1,0.2,0.1,0.3,0.1c0.1,0,0.2,0.1,0.3,0.1c0.1,0,0.2,0,0.2,0c0.1,0,0.2-0.1,0.2-0.1l0.4,0.5L72.8,85.9z M128.2,37.2
			c-34.9,0-65.2,20.5-79.3,50c8.9,5,17.7,9.1,26.2,12.4c9.5-19.8,29.7-33.5,53.1-33.5c23.5,0,43.7,13.8,53.2,33.6
			c0.7-0.1,1.3-0.1,2.1-0.1c4.7,0,8.8,1.2,12.3,3.8c2.2,0.1,8.7,0.7,13.2,3.1l0,0c0.8,0.4,1.7,1.1,2.1,1.5c0.3,0.3,0.6,0.7,0.6,1.1
			c-0.1,0.6-0.6,0.8-1,1c-0.3,0.2-1.6,0.7-2,0.9c-0.5,0.2-1.2,0.4-2.2,0.8c-1.1,0.4-2.6,0.9-3.9,1.3c-3.4,1.1-4.7,1.9-5,2.2
			c-0.4,0.7-1.2,2.1-2.7,4c-1.6,2.3-4.3,5.8-7.8,9.5c-2,30.7-27.5,54.9-58.7,54.9c-32.4,0-58.8-26.3-58.9-58.7
			c-4.9-0.9-9.8-2.2-14.5-3.6l-1.2-0.4l-4.2-13.5c-2.2-0.9-4.5-1.8-6.6-2.8c-1.5,6.6-2.4,13.4-2.3,20.1c0,48.5,39.3,87.8,87.8,87.8
			s87.8-39.3,87.8-87.8C216,76.5,176.7,37.2,128.2,37.2"/>
	</g>
</g>
<g id="레이어_1">
	<rect x="8" y="8" class="st2" width="234" height="234"/>
</g>
<rect x="8" y="34.8" class="st2" width="234" height="180.4"/>
</svg>
