<?xml version="1.0" encoding="utf-8"?>
<!-- Generator: Adobe Illustrator 25.1.0, SVG Export Plug-In . SVG Version: 6.00 Build 0)  -->
<svg version="1.1" id="Layer_1" xmlns="http://www.w3.org/2000/svg" xmlns:xlink="http://www.w3.org/1999/xlink" x="0px" y="0px"
	 viewBox="0 0 250 250" style="enable-background:new 0 0 250 250;" xml:space="preserve">
<style type="text/css">
	.st0{fill:none;}
	.st1{fill:#231F20;}
	.st2{fill:#B4921F;}
	.st3{fill:#D91920;}
	.st4{fill:#FFFFFF;}
</style>
<g id="Layer_1_1_">
	<rect x="34.9" y="34.9" class="st0" width="180.3" height="180.3"/>
	<g transform="matrix(3.17105 0 0 -3.17105 -559.456 1888.805)">
		<path class="st1" d="M239.6,541.8v1.9c-0.2,0-0.3,0-0.5-0.1v-1.8C239.4,541.8,239.5,541.8,239.6,541.8"/>
		<path class="st1" d="M236.8,553.2v8.9c0,0.8,0.1,1.2,0.2,2.1c-0.2-0.1-0.3-0.2-0.5-0.3l0,0c-0.2-0.8-0.2-1.2-0.2-2v-18.3
			c0.2,0,0.3,0,0.5,0V553.2z"/>
		<path class="st1" d="M201.6,559.9c-0.2,0.1-0.3,0.2-0.5,0.2v-5.6c0.2-0.1,0.3-0.1,0.5-0.2V559.9z"/>
		<path class="st1" d="M197,560.9c-0.1,0-0.1,0.1-0.2,0.1c-0.2,0-0.2,0-0.3,0c-0.1-0.1-0.2-0.2-0.2-0.4l0,0l0,0
			c0-0.1-0.1-0.3-0.1-0.6v-2.7c0-1.1,0.1-1.4,0.2-1.5c0.4-0.8,1.4-1.5,2.2-2.1c0.6-0.5,1.3-0.9,1.7-1.4c0.9-1.2,0.9-2.5,0.9-3.7
			v-3.8c0-1.1,0-2-0.7-2.7c-0.3-0.3-0.8-0.5-1.4-0.5c0.8,0.1,1.5,0.2,1.8,0.5c0.7,0.7,0.7,1.6,0.7,2.7v3.4c0,1.2,0.1,2.7-0.9,3.9
			c-1.1,1.2-3.3,2.1-4,3.4c-0.1,0.2-0.2,0.5-0.2,1.5v2.6c0,0.4,0,0.5,0.1,0.6c0.1,0.3,0.2,0.5,0.3,0.5
			C197.1,560.8,197,560.9,197,560.9"/>
		<path class="st1" d="M196.3,544c0,0.2,0,0.6,0,0.9v5.5c-0.2,0-0.3,0.1-0.5,0.1v-5.5c0-0.3,0-0.8,0-0.9c0.1-0.5,0.2-0.6,0.5-0.8
			c0.1,0,0.2-0.1,0.2-0.1s0.1,0,0.2,0.1C196.5,543.3,196.3,543.6,196.3,544"/>
		<path class="st1" d="M206.6,553.5c-0.3-0.1-0.3-0.4-0.3-0.6c0-0.1,0-0.1,0-0.2v-0.2v-2.5c0.2,0,0.3,0,0.5-0.1v2.5
			c0,0.3-0.1,0.8,0.3,0.9l-0.1,0.1C206.7,553.5,206.6,553.5,206.6,553.5"/>
		<path class="st1" d="M206.6,544.4v4.2c-0.2,0-0.3,0-0.5,0v-4.2V544c0-0.1,0-0.2,0-0.3c0-0.8,0.1-0.9,0.7-1c0,0,0,0,0.1,0
			C206.6,543,206.6,543.3,206.6,544.4"/>
		<path class="st1" d="M211,544.6c0-1.5,0-1.9-0.2-2.2l0,0c-0.2-0.2-0.3-0.5-1-0.8c-0.1,0-0.2-0.1-0.5-0.1c0.4,0,0.7,0.1,0.9,0.2
			c0.7,0.2,0.8,0.5,0.9,0.7c0.2,0.3,0.2,0.8,0.2,2.2v2.8c-0.2,0-0.3,0-0.5,0L211,544.6L211,544.6z"/>
		<path class="st1" d="M211,551.6v-0.3v-3c0.2,0,0.3,0,0.5,0v3c0,1,0.1,1.7-0.5,2.3c-0.4,0.3-0.8,0.5-1.7,0.7
			c0.6-0.2,0.9-0.3,1.2-0.6C211.1,553,211,552.4,211,551.6"/>
		<path class="st1" d="M220.5,552v-8.5c0-0.7,0-1.5-1.2-1.9c-0.2-0.1-0.3-0.1-0.5-0.1c0.5,0,0.8,0.1,1,0.2c1.1,0.4,1.1,1.2,1.1,1.9
			v8.6c0,0.7,0,1.4-1.1,1.7c-0.2,0-0.5,0.1-0.8,0.1c0.2,0,0.3,0,0.4-0.1C220.5,553.5,220.5,552.7,220.5,552"/>
		<path class="st1" d="M216,552v-8.7c0-0.5,0.2-0.7,0.5-0.7c0.1,0,0.1,0.1,0.2,0.1c-0.2,0.1-0.2,0.3-0.2,0.6c0,2.5,0,6.4,0,8.7
			c0,0.3,0.1,0.5,0.2,0.6c0,0-0.1,0.1-0.2,0.1C216.1,552.7,216,552.6,216,552"/>
		<path class="st1" d="M226.3,543.6v9.6c0,0.7,0,1.2,0.2,1.7c-0.2,0-0.3-0.1-0.5-0.1l0,0c-0.1-0.5-0.2-0.9-0.2-1.6v-9.6
			c0-0.5,0.2-0.7,0.5-0.8c0.1,0,0.1,0.1,0.2,0.1C226.4,543,226.3,543.3,226.3,543.6"/>
		<path class="st1" d="M230.9,541.7h0.5c-0.2,0.5-0.3,1.4-0.3,2v10.5c0,0.8,0,1.4,0.1,1.9c-0.2-0.1-0.3-0.1-0.5-0.2l0,0
			c-0.1-0.5-0.1-1.2-0.1-1.9v-10.3C230.5,543.1,230.6,542.3,230.9,541.7L230.9,541.7z"/>
		<path class="st2" d="M215.4,558.1v-0.3c-0.2,0-0.8,0-1.2,0.1v-0.9c0.4,0,0.9,0,1.1,0v-0.3c-0.2,0-0.7,0-1.1,0V555
			c0-0.1,0-0.2,0.1-0.2H213c0.1,0.1,0.1,0.2,0.1,0.2v2.7c0,0.1,0,0.2-0.1,0.3L215.4,558.1z"/>
		<path class="st2" d="M218.7,558.1v-1.3h-0.9v0.3c0,0.2,0,0.6-0.2,0.7c-0.1,0-0.2,0-0.3,0c-0.2-0.1-0.2-0.2-0.2-0.4v-2
			c0-0.2,0-0.3,0.2-0.4c0.1,0,0.2,0,0.3,0c0.2,0.1,0.2,0.2,0.2,0.4v0.6h0.9v-0.8c0-0.2,0-0.3-0.2-0.5c-0.2-0.1-0.4-0.2-1.1-0.2h-0.3
			c-0.7,0-1.1,0.1-1.1,0.4v2.3c0,0.1,0,0.3,0.2,0.5c0.3,0.2,1.5,0.2,1.8,0.2L218.7,558.1z"/>
		<path class="st2" d="M202.5,559.5v-0.5c2.9-1.1,6.1-1.8,9.4-2.1v0.5C208.6,557.7,205.4,558.4,202.5,559.5"/>
		<path class="st2" d="M219.8,557.4V557c4.1,0.4,7.9,1.4,11.2,2.9v0.5C227.8,558.8,224,557.8,219.8,557.4"/>
		<path class="st2" d="M196.1,539.9h0.3v-2c0-0.1,0-0.2,0-0.2h-0.5c0,0.1,0.1,0.2,0.1,0.2v1.5h-0.2v0.2
			C195.9,539.7,196,539.7,196.1,539.9"/>
		<path class="st2" d="M201.2,539v0.5c0,0.2,0,0.2-0.1,0.2h-0.1c-0.1,0-0.1-0.1-0.1-0.2v-0.4c0-0.1,0-0.2,0-0.2
			c0-0.1,0.1-0.2,0.2-0.1C201.2,538.9,201.2,538.9,201.2,539 M200.6,538.5h0.5v-0.2c0-0.2,0-0.3,0.1-0.3h0.1c0.1,0,0.1,0.2,0.1,0.3
			v0.5c-0.2-0.1-0.5-0.1-0.6,0c-0.1,0.1-0.1,0.2-0.1,0.2v0.6c0,0.2,0,0.3,0.1,0.4s0.4,0.1,0.5,0.1h0.2c0.1,0,0.4,0,0.5-0.1
			c0.1-0.1,0.1-0.2,0.1-0.3v-1.5c0-0.1,0-0.2-0.1-0.4c-0.1-0.1-0.4-0.1-0.5-0.1h-0.2c-0.1,0-0.3,0-0.4,0.1s-0.1,0.2-0.1,0.4
			L200.6,538.5L200.6,538.5z"/>
		<path class="st2" d="M205.9,538.7v-0.6c0-0.1,0-0.2,0.1-0.2h0.1c0.1,0,0.1,0.1,0.1,0.2v0.6c0,0.1,0,0.1-0.1,0.2c0,0-0.1,0-0.2,0
			C205.9,538.8,205.9,538.7,205.9,538.7 M205.9,539.6v-0.4c0-0.1,0-0.2,0.1-0.2h0.1c0.1,0,0.1,0.1,0.1,0.2v0.4c0,0.1,0,0.1-0.1,0.2
			c0,0-0.1,0-0.2,0C205.9,539.7,205.9,539.6,205.9,539.6 M206.5,538.9c0.2-0.1,0.2-0.1,0.2-0.3v-0.5c0-0.2,0-0.3-0.2-0.4
			s-0.8-0.1-0.9,0s-0.1,0.3-0.1,0.4v0.5c0,0.2,0,0.2,0.2,0.3c-0.2,0.1-0.2,0.2-0.2,0.3v0.3c0,0.1,0,0.3,0.1,0.4
			c0.1,0.1,0.3,0.1,0.5,0.1h0.1c0.1,0,0.4,0,0.5-0.1c0.1-0.1,0.1-0.3,0.1-0.4v-0.3C206.6,539.1,206.6,539,206.5,538.9"/>
		<path class="st2" d="M211.4,538.9c0.2-0.1,0.2-0.2,0.2-0.3v-0.5c0-0.1,0-0.3-0.1-0.4c-0.1-0.1-0.2-0.1-0.4-0.1h-0.3
			c-0.2,0-0.3,0-0.4,0.1c-0.1,0.1-0.1,0.2-0.1,0.4v0.5h0.5v-0.3c0-0.2,0-0.3,0.1-0.3h0.1c0.1,0,0.1,0.2,0.1,0.3v0.2
			c0,0.2,0,0.2-0.1,0.3c0,0-0.1,0-0.2,0v0.2c0.1,0,0.2,0,0.2,0c0,0,0,0.2,0,0.2v0.2c0,0.1,0,0.1-0.1,0.2c0,0-0.1,0-0.2,0
			c-0.1-0.1-0.1-0.1-0.1-0.2v-0.3h-0.4v0.8c0,0,0.5,0,0.5,0c0.2,0,0.5,0,0.5-0.1c0.1-0.1,0.1-0.2,0.1-0.4v-0.2
			C211.5,539.1,211.5,539,211.4,538.9C211.5,538.9,211.5,538.9,211.4,538.9"/>
		<path class="st2" d="M220.3,538.1h0.4c0.2,0,0.2,0,0.3,0v-0.4h-1.2v0.4l0.5,0.5c0.2,0.2,0.3,0.3,0.3,0.5c0,0.1,0,0.4,0,0.5
			s0,0.1-0.1,0.1h-0.1c-0.1-0.1-0.1-0.2-0.1-0.4v-0.2h-0.5v0.8c0.2,0,0.4,0.1,0.5,0.1c0.2,0,0.5,0,0.6-0.1c0.1-0.1,0.1-0.3,0.1-0.4
			v-0.2c0-0.3,0-0.3-0.3-0.7L220.3,538.1z"/>
		<path class="st2" d="M225.4,539.6c0,0.1,0,0.2-0.1,0.2s-0.2-0.1-0.2-0.2v-1.5c0-0.1,0-0.2,0.2-0.2c0.1,0,0.1,0.1,0.1,0.2V539.6z
			 M225.9,538.1c0-0.2,0-0.2-0.1-0.3c-0.1-0.1-0.2-0.1-0.5-0.1c-0.3,0-0.4,0-0.5,0.1c-0.2,0.1-0.1,0.2-0.1,0.4v1.5
			c0,0.2,0,0.2,0.1,0.4c0.1,0.1,0.2,0.1,0.5,0.1c0.3,0,0.5,0,0.5-0.1c0.1-0.1,0.1-0.2,0.1-0.3V538.1z"/>
		<path class="st2" d="M230.5,539.6c0,0.1,0,0.2-0.1,0.2s-0.2-0.1-0.2-0.2v-1.5c0-0.1,0-0.2,0.2-0.2c0.1,0,0.1,0.1,0.1,0.2V539.6z
			 M230.9,538.1c0-0.2,0-0.2-0.1-0.3c-0.1-0.1-0.2-0.1-0.5-0.1c-0.3,0-0.4,0-0.5,0.1c-0.2,0.1-0.1,0.2-0.1,0.4v1.5
			c0,0.2,0,0.2,0.1,0.4c0.1,0.1,0.2,0.1,0.5,0.1c0.3,0,0.5,0,0.5-0.1c0.1-0.1,0.1-0.2,0.1-0.3V538.1z"/>
		<path class="st2" d="M234.8,538.6h0.4v0.8L234.8,538.6z M235.2,539.9h0.5c0-0.1,0-0.1,0-0.2v-1.1h0.2v-0.4h-0.2v-0.4
			c0-0.1,0-0.1,0-0.2h-0.5c0,0.1,0,0.2,0,0.2v0.4h-0.7v0.4L235.2,539.9z"/>
		<path class="st2" d="M215.1,537.9l0.7,0.5l0.7-0.5l-0.3,0.8l0.7,0.5H216l-0.2,0.8l-0.2-0.8h-0.8l0.7-0.5L215.1,537.9z"/>
		<path class="st2" d="M192.1,536.3v-0.8h3.8l0,0c4.9-2,6.2-5.4,6.7-7.3h26.5c0.5,1.9,1.8,5.3,6.7,7.3l0,0h3.8v0.8H192.1z"/>
		<path class="st3" d="M238.5,541.8v1.8c-1-0.2-1.5-0.2-2.8-0.2v18c0,0.8,0.1,1.2,0.2,2c-1.4-1-2.7-1.8-4-2.6
			c0.2-0.5,0.2-0.7,0.2-1.4v-16c0-0.7-0.1-1.1-0.2-1.7C234.2,541.7,236.3,541.7,238.5,541.8"/>
		<path class="st3" d="M192.3,555.3c0.3-0.8,1-1.6,2.4-2.9c0.2-0.2,0.3-0.2,0.5-0.4c1.2-0.9,1.9-1.4,2.2-2.8
			c0.1-0.2,0.1-0.8,0.1-1.5V545c0-0.8,0-1.4-0.5-1.8c-0.1,0-0.1-0.1-0.2-0.1c-0.1,0-0.1,0-0.2-0.1c-0.3-0.1-0.6-0.1-0.8,0
			c-0.3,0.2-0.5,0.3-0.5,0.8c0,0.2,0,0.6,0,0.9v5.6c-1.1,0.2-2.1,0.4-3.2,0.6v-9.4c1.1-0.1,3.2-0.2,4-0.2c1.6,0,3.2-0.1,3.9,0.6
			c0.7,0.7,0.7,1.7,0.7,2.8v3.5c0,1.3,0.1,2.8-0.9,4c-1.1,1.2-3.3,2.2-4,3.5c-0.1,0.2-0.2,0.5-0.2,1.6v2.8c0,0.4,0,0.6,0.1,0.7
			c0.1,0.5,0.3,0.5,0.5,0.5c0.3-0.1,0.5-0.3,0.8-0.5c0.1-0.1,0.1-0.1,0.2-0.2l0,0c0.5-0.6,0.5-1.4,0.5-2.1v-3.2
			c1-0.3,1.9-0.6,2.9-0.9v5.8c-2.5,1.4-5.2,3.4-6,3.9c-0.8,0.5-1.4,0.8-1.8,0.6c-0.3-0.2-0.5-0.5-0.6-1.2c-0.1-0.7-0.1-1.4-0.1-1.7
			V559C192.1,557.1,192,556.2,192.3,555.3"/>
		<path class="st3" d="M205.9,553.7c0.2,0.1,0.7,0,0.9-0.2c0,0,0.1,0,0.1-0.1l0,0c0.3-0.2,0.3-0.5,0.3-1v-2.5
			c-0.5,0.1-1.2,0.1-1.7,0.2v2.5C205.6,553,205.5,553.5,205.9,553.7 M202.6,542.7c0.1-0.2,0.4-0.8,0.9-1c0.7-0.2,1.8-0.2,2.6-0.2
			c0.2,0,0.2,0,0.3,0c0.3,0,2.2,0,2.9,0.2c0.7,0.2,0.8,0.5,0.9,0.8c0.2,0.3,0.2,0.8,0.2,2.2v2.8c-1.1,0.1-2.1,0.1-3.2,0.2
			c0-0.7,0-2.6,0-3.2c0-1.1,0.1-1.4-0.3-1.6c0,0,0,0-0.1,0l0,0c-0.1,0-0.3,0-0.5,0c-1,0-0.9,0.2-0.8,1.8v4.3
			c1.6-0.2,3.2-0.2,4.9-0.3v3c0,1.1,0.1,1.8-0.5,2.3c-0.5,0.5-1.2,0.6-3.1,1c-0.2,0.1-0.5,0.1-0.7,0.2c-1.2,0.3-2.2,0.5-2.6,0.4
			c-0.3-0.1-0.5-0.2-0.7-0.4c-0.3-0.5-0.3-0.8-0.3-2.2v-8.2C202.5,543.5,202.4,543.1,202.6,542.7"/>
		<path class="st3" d="M216,552.8c0.2,0,0.3,0,0.4-0.1c0.1,0,0.1-0.1,0.2-0.1c0.2-0.1,0.2-0.3,0.2-0.6v-8.7c0-0.3-0.1-0.5-0.2-0.6
			c-0.1,0-0.1-0.1-0.2-0.1c-0.1-0.1-0.2-0.1-0.4-0.1c-0.5,0-0.8,0.2-0.8,0.8v8.7C215.3,552.7,215.5,552.8,216,552.8 M212.2,543.6
			c0-0.4-0.1-1.2,0.8-1.8c0.5-0.3,1.8-0.3,3.1-0.3c1.5,0,2.4,0.1,2.8,0.2c1.1,0.4,1.1,1.2,1.1,1.8v8.5c0,0.7,0,1.4-1.1,1.7
			c-0.4,0.1-1.2,0.1-2.8,0.1c-1.3,0-2.6,0-3.1-0.2c-0.8-0.5-0.8-1.2-0.8-1.6V543.6z"/>
		<path class="st3" d="M221.9,543.5c0-0.6,0.1-1.1,0.8-1.6c0.8-0.5,3.4-0.6,4.2,0.2c0.1-0.2,0.1-0.2,0.2-0.4l0,0h0.2c1,0,2,0,3,0
			c-0.2,0.5-0.3,1.4-0.3,2V554c0,0.8,0,1.4,0.2,1.8c-1.2-0.4-2.3-0.7-3.5-0.9c0.1-0.4,0.1-0.9,0.1-1.5v-9.9c0-0.3-0.1-0.5-0.2-0.7
			c-0.1,0-0.1-0.1-0.2-0.1c-0.1-0.1-0.2-0.1-0.4-0.1c-0.5,0-0.8,0.1-0.8,0.8v9.4c0,0.7,0,1.2,0.2,1.6c-1.2-0.2-2.3-0.5-3.5-0.6
			c0.1-0.4,0.1-0.8,0.1-1.3V543.5z"/>
		<path class="st3" d="M213.3,530.2h5.1v5.2h-5.1V530.2z"/>
		<path class="st3" d="M203,535.6v-3.2c0.4-0.7,0.8-1.3,1-2h4.1v5.2H203z"/>
		<path class="st3" d="M223.5,535.6v-5.2h4.1c0.2,0.7,0.6,1.3,1,2v3.2H223.5z"/>
		<path class="st2" d="M195.3,566.8c0.3-0.2,0.5-0.5,0.8-0.7c0.5-0.5,1.2-0.8,1.7-1.2l0.1-0.1c0.2-0.1,0.3-0.2,0.5-0.3
			c0.1,0,0.1-0.1,0.2-0.1c0.2-0.2,0.5-0.3,0.7-0.4h0.1c0.2-0.2,0.4-0.2,0.6-0.4c3.8-2.1,8.2-3.5,12.8-3.9c-0.4,0.3-0.7,0.6-1,0.9
			c-1.2,0.2-2.4,0.4-3.5,0.6c-1.8,0.4-3.5,1-5.1,1.7c-1.8,0.8-3.5,1.7-5.1,2.9v6.4c2.4,1.2,4,2.9,5.1,4.6c0.4,0.6,0.7,1.3,1,2h4.1
			l0,0c0,0.9-0.4,1.4-0.9,1.7c1.3,0,1.8-1,1.8-1.6c0.5,0.8,1.2,1.3,1.5,2.1h-8c-0.5-1.9-1.8-5.3-6.7-7.3v-6.1
			c-1.5,1.3-2.8,2.8-3.8,4.2v-1.5C193,569.1,194.1,567.9,195.3,566.8"/>
		<path class="st2" d="M235.8,567.5v6.1c-4.9,2-6.2,5.4-6.7,7.3H221c0.2-0.7,1-1.3,1.5-2.1c0.1,0.6,0.6,1.6,1.8,1.6
			c-0.5-0.2-0.9-0.8-0.9-1.7l0,0h4.2c0.2-0.7,0.6-1.3,1-2c1.1-1.7,2.7-3.4,5.1-4.6v-6.4c-1.5-1.1-3.3-2.1-5.1-2.9
			c-1.6-0.7-3.3-1.2-5.1-1.7c-1.2-0.2-2.3-0.5-3.5-0.6c-0.3-0.4-0.6-0.7-1-0.9c4.5,0.4,8.7,1.6,12.4,3.6c1.5,0.8,2.9,1.7,4.1,2.7
			c0.3,0.2,0.5,0.5,0.8,0.7c1.2,1.1,2.3,2.2,3.3,3.5v1.5C238.5,570.2,237.2,568.8,235.8,567.5"/>
		<path class="st2" d="M224.8,570.2c0,0-0.2,0.2-0.3,0.5c0.7,0.5,1.2,1.5,0.3,3.5C226.4,571.6,225.4,570.6,224.8,570.2 M215.8,577.5
			c-0.2,0-0.5-0.1-0.8-0.2c0.2,0.4,0.6,1,0.8,1.5c0.2-0.5,0.5-1.1,0.8-1.5C216.3,577.5,216,577.5,215.8,577.5 M206.7,570.2
			c-0.6,0.4-1.5,1.5,0,4.1c-0.9-2.2-0.3-3.1,0.3-3.5C206.9,570.5,206.7,570.2,206.7,570.2 M225.8,575.4c-0.5,0.9-0.1,2.3,0.1,2.5
			c-1.2-0.5-1.4-1.7-1.3-2.2c-0.4,0.8-1,1.7-1.2,2.9c0,0.1,0,0.2,0,0.3l0,0c0,0.9,0.4,1.4,0.9,1.7c-1.2,0-1.8-1-1.8-1.6
			c-0.5,0.8-1.2,1.3-1.5,2.1c-0.1,0.2-0.1,0.3-0.1,0.5c0,0.2,0.1,0.9,0.6,1.3c-0.8-0.2-1.1-0.6-1.2-1.2c0-0.1-0.1-0.2-0.1-0.3
			c0-0.1,0-0.2,0-0.2s0-0.1,0-0.2c0-0.8,0.3-1.5,0.6-1.9c0.2-0.2,0.3-0.5,0.3-0.5c-0.2,0.2-0.4,0.4-0.5,0.5
			c-0.5,0.6-0.7,1.3-0.8,2.1l0,0c-0.1,0.1-0.2,0.2-0.2,0.2c-0.1,0.1-0.2,0.2-0.3,0.3c-1,1.1-1,2.1-0.6,2.8l0,0
			c-0.3-0.3-0.5-0.7-0.6-1.2c-0.1-0.2-0.1-0.5-0.1-0.7c0-2.9,3.5-3.8,3.5-6.5c1.2,0,1.5-0.9,1.5-1.2c0-0.3-0.2-0.8-0.7-1.1
			c0.9,0,1.2-0.6,1.2-1.1c0-0.5-0.4-0.8-0.8-0.8c-0.7,0-0.9,0.6-0.8,0.9c-0.1-0.2,0.2-0.7,0.6-0.6c0.5,0,0.7,0.5,0.7,0.7
			c-0.1,0.8-0.6,0.9-1.2,0.9c-0.5,0-0.9,0.1-1.1,0.5c0.3-0.3,0.7-0.3,1-0.2c0.2,0.1,0.7,0.4,0.6,0.9c-0.1,0.8-0.8,1-1.3,0.9
			c0,3.2-4.2,4-4.2,5.8c0,0.5,0.5,0.9,0.5,1c-0.9-0.5-1.1-1.2-1.1-1.5c0-2.6,2.9-3.4,2.9-5.2c0-0.8-0.5-1-0.7-1.1
			c0.1,0.1,0.1,0.3,0.1,0.5c0,0.5-0.4,0.9-0.8,1c-0.5,0.1-1.2-0.4-1.2-1.5c0-0.4,0.2-1.1,0.8-1.5c-0.2-0.2-0.2-0.4-0.2-0.6
			c0-0.1,0-0.2,0-0.2c-0.2,0.2-0.5,0.4-0.7,0.5c0.3,0.2,0.5,0.5,0.5,0.5c-0.4,0.3-0.8,0.8-0.8,1.7c0,1.1,0.8,1.5,1.5,1.5
			c0.5-0.1,1.1-0.5,1.2-1c0.2,0.9-0.9,1.7-1.7,2.6c-0.8,1-1.5,2.4-0.8,3.6c-0.2-0.2-0.6-0.8-0.8-1.2c-0.1,0.4-0.5,0.9-0.8,1.2
			c0.7-1.2,0.1-2.6-0.8-3.6c-0.8-0.9-1.8-1.7-1.7-2.6c0.1,0.5,0.5,0.9,1.2,1s1.5-0.4,1.5-1.5c0-0.8-0.5-1.4-0.8-1.7
			c0,0,0.2-0.3,0.5-0.5c-0.2-0.2-0.5-0.3-0.7-0.5c0,0.1,0,0.2,0,0.2c0,0.2-0.1,0.5-0.2,0.6c0.6,0.5,0.8,1.2,0.8,1.5
			c0.1,1.1-0.6,1.5-1.2,1.5c-0.5-0.1-0.8-0.5-0.8-1c0-0.2,0-0.4,0.1-0.5c-0.2,0.1-0.7,0.3-0.7,1.1c0,1.8,2.9,2.6,2.9,5.2
			c0,0.5-0.2,1.1-1.1,1.5c0.1-0.1,0.5-0.5,0.5-1c0-1.8-4.2-2.7-4.2-5.8c-0.4,0.1-1.2-0.2-1.3-0.9c-0.1-0.6,0.4-0.9,0.6-0.9
			c0.2-0.1,0.7-0.1,1,0.2c-0.2-0.4-0.6-0.5-1.1-0.5c-0.5,0-1.1-0.2-1.2-0.9c0-0.2,0.1-0.6,0.7-0.7c0.5,0,0.7,0.4,0.6,0.6
			c0.2-0.3-0.2-0.9-0.8-0.9c-0.5,0-0.8,0.4-0.8,0.8s0.3,1.1,1.2,1.1c-0.5,0.2-0.6,0.7-0.7,1.1c0,0.3,0.2,1.2,1.5,1.2
			c0,2.8,3.5,3.6,3.5,6.5c0,0.2,0,0.5-0.1,0.7c-0.1,0.4-0.3,0.8-0.6,1.2l0,0c0.4-0.7,0.4-1.7-0.6-2.8c-0.2-0.2-0.3-0.3-0.5-0.5
			l-0.1-0.1l0,0c0-0.8-0.3-1.5-0.8-2.1c-0.2-0.2-0.3-0.4-0.5-0.5c0.1,0.2,0.2,0.3,0.3,0.5c0.2,0.5,0.5,1.2,0.6,1.9
			c0,0.1,0,0.1,0,0.2c0,0.2,0,0.3-0.1,0.5v0.1c-0.2,0.5-0.5,1.1-1.2,1.2c0.5-0.4,0.6-1.1,0.6-1.3c0-0.2-0.1-0.3-0.1-0.5
			c-0.2-0.7-1-1.3-1.5-2.1c-0.1,0.6-0.6,1.6-1.8,1.6c0.5-0.2,0.9-0.8,0.9-1.7l0,0c0-1.3-0.7-2.4-1.2-3.2c0.1,0.5-0.2,1.8-1.3,2.2
			c0.2-0.2,0.5-1.5,0.1-2.5c-0.8-1.8-1.9-2.5-1.8-4.2c0.1-1.2,0.8-2.4,2.3-2.8c-0.1-1.5,0.9-2.4,1.8-2.6c0.2-0.1,0.5-0.2,0.7-0.2
			c1,0,1.6,0.5,1.8,0.8c-0.1-0.4-0.9-1.5-2.3-1.2c0.8-0.9,1.7-0.9,2.1-0.9c0-0.1,0-0.2,0-0.2c0-1.2,0.4-2.4,1.2-3.4
			c0.3-0.4,0.6-0.7,1-0.9c0.9-0.7,2-1,3.1-1c1.2,0,2.2,0.4,3.1,1c0.4,0.3,0.7,0.6,1,0.9c0.8,0.9,1.2,2.2,1.2,3.4c0,0.1,0,0.2,0,0.2
			c0.4,0,1.3,0.1,2,0.9c-1.4-0.2-2.2,0.8-2.2,1.2c0.2-0.3,0.8-0.8,1.8-0.8c0.2,0,0.5,0.1,0.8,0.2c0.9,0.3,1.9,1.1,1.8,2.6
			c1.5,0.5,2.2,1.7,2.3,2.8C227.8,572.8,226.7,573.5,225.8,575.4"/>
		<path class="st3" d="M206.3,568.4c-1.5,0.5-2.2,1.7-2.3,2.8c-0.1,1.7,0.9,2.4,1.8,4.2c0.5,0.9,0.1,2.3-0.1,2.5
			c1.2-0.5,1.4-1.7,1.3-2.2c0.5,0.8,1.2,1.9,1.2,3.2h-4.1c-0.3-0.7-0.6-1.4-1-2V563c1.6-0.7,3.3-1.2,5.1-1.7v4.4
			C207.3,566,206.2,566.8,206.3,568.4"/>
		<path class="st3" d="M224.6,575.5c-0.1,0.5,0.2,1.8,1.3,2.2c-0.2-0.2-0.5-1.5-0.1-2.5c0.8-1.8,1.9-2.5,1.8-4.2
			c-0.1-1.2-0.8-2.4-2.3-2.8c0.1-1.5-0.9-2.4-1.8-2.6v-4.4c1.8,0.4,3.5,1,5.1,1.7v13.8c-0.4,0.7-0.8,1.3-1,2h-4.1v-0.3
			C223.6,577.3,224.2,576.3,224.6,575.5"/>
		<path class="st4" d="M213.2,572.4c0.1,0,0.2,0.1,0.2,0.2c0,0.1-0.1,0.2-0.2,0.2c-0.1,0-0.2-0.1-0.2-0.2l0,0
			C213,572.5,213.1,572.4,213.2,572.4"/>
		<path class="st4" d="M212.7,571.5c0.2,0,0.5,0.1,0.8,0.3c-0.1,0-0.2-0.1-0.3-0.1c-0.5,0-0.8,0.4-0.8,0.8c0,0.1,0,0.2,0,0.2
			c-0.2,0-0.5,0.2-0.7,0.3c0-0.1-0.1-0.3-0.1-0.5C211.6,571.8,212.3,571.5,212.7,571.5"/>
		<path class="st4" d="M218.4,572.4c0.1,0,0.2,0.1,0.2,0.2c0,0.1-0.1,0.2-0.2,0.2c-0.1,0-0.2-0.1-0.2-0.2l0,0
			C218.2,572.5,218.3,572.4,218.4,572.4"/>
		<path class="st4" d="M220,572.6c0,0.2-0.1,0.4-0.1,0.5c-0.2-0.2-0.5-0.2-0.7-0.3c0-0.1,0-0.2,0-0.2c0-0.5-0.4-0.8-0.8-0.8
			c-0.1,0-0.2,0-0.3,0.1c0.2-0.2,0.5-0.2,0.8-0.3C219.3,571.5,220,571.8,220,572.6"/>
		<path class="st4" d="M221,570.9c0,0,0.3,0.6,0,1.5c0.2-1.6-1.2-2.6-2.6-1.9c0-0.2,0-0.3,0-0.5c0-0.4-0.2-1-0.8-1
			c-0.2,0-0.5,0.1-0.6,0.2c0,0.3,0.2,1.1,0.8,0.8c-0.1,0.2-0.3,0.2-0.5,0.2c-0.2,0-0.5-0.2-0.5-0.5c-0.2-0.5-0.5-0.8-0.9-0.8
			c-0.5,0-0.8,0.4-0.9,0.8c-0.2,0.4-0.4,0.5-0.5,0.5c-0.2,0-0.4-0.1-0.5-0.2c0.7,0.3,0.8-0.5,0.8-0.8c-0.2-0.2-0.4-0.2-0.6-0.2
			c-0.7,0-0.8,0.7-0.8,1c0,0.2,0,0.4,0,0.5c-1.4-0.7-2.8,0.3-2.6,1.9c-0.4-0.8,0-1.5,0-1.5c-1.6,0.2-2.4-1-2.4-1.8s0.6-1.2,1.2-1.3
			c0.6-0.1,1.2,0.5,0.9,1.2c0.1-0.7-0.5-0.8-0.8-0.8s-0.8,0.2-0.8,1s0.8,1.4,1.6,1.3c1.2-0.1,1.8-1.2,1.8-2.2c0.1-0.2,0.6-1,1.6-1
			c1.2,0,1.5,0.9,2.2,0.9c0.8,0,1.1-0.9,2.2-0.9c1,0,1.5,0.8,1.6,1c-0.2,1.1,0.5,2.2,1.8,2.2c0.8,0.1,1.6-0.5,1.6-1.3s-0.6-1-0.8-1
			c-0.3,0-0.8,0.2-0.8,0.8c-0.2-0.7,0.3-1.2,0.9-1.2c0.5,0.1,1.2,0.5,1.2,1.3S222.7,571.1,221,570.9"/>
		<path class="st4" d="M214,565.6c-0.2,0.2-0.3,0.8,0.2,1.1c0.8,0.2,1.2,0.8,1.6,0.8c0-0.3,0-1.4,0-1.5c-0.7-0.4-1.2-0.8-1.8-1.3
			c-0.1,0-1.4,0.5-1.5,0.5c0,0.2-0.1,0.3-0.1,0.5c0,0.3,0.1,0.6,0.1,1v0.1c0.1-0.1,0.2-0.1,0.4-0.2l0,0
			C212.9,566.3,213.2,565.6,214,565.6"/>
		<path class="st4" d="M218.7,566.7L218.7,566.7c0.2,0.1,0.3,0.2,0.5,0.2c0-0.1,0-0.2,0-0.2c0.1-0.3,0.1-0.6,0.1-0.9
			c0-0.2,0-0.4-0.1-0.5c-0.1,0-1.4-0.5-1.5-0.5c-0.5,0.5-1.2,1-1.8,1.3v1.4c0.4-0.2,0.8-0.6,1.5-0.8c0.5-0.3,0.4-0.8,0.2-1.1
			C218.4,565.6,218.7,566.3,218.7,566.7"/>
		<path class="st4" d="M214.6,562.4c0,0-0.8-1.2-0.9-1.2c-0.5,0.1-1,0.3-1.4,0.5l-0.2,0.2c-0.3,0.5-0.5,1.1-0.5,1.7l0.1,0.2
			c0.2,0.4,0.4,0.8,0.8,1.2c0.1,0,1.4-0.5,1.5-0.5C214,563.8,214.3,563.1,214.6,562.4"/>
		<path class="st4" d="M214.7,562.4c0.8-0.2,1.5-0.2,2.2,0l0.8-1.1c0,0,0.1-0.1,0.1-0.2c-0.2-0.5-0.6-0.8-0.9-1.2l-0.2-0.2
			c-0.3-0.1-0.6-0.1-0.9-0.1s-0.6,0-0.9,0.1l-0.2,0.2l-0.5,0.5c-0.2,0.2-0.3,0.5-0.5,0.7C213.9,561.2,214.7,562.4,214.7,562.4"/>
		<path class="st4" d="M217.1,562.4c0.3,0.7,0.5,1.4,0.7,2.2c0.1,0,1.4,0.5,1.5,0.5c0.2-0.2,0.3-0.3,0.4-0.5
			c0.2-0.2,0.3-0.5,0.5-0.8l0.1-0.2c-0.1-0.6-0.2-1.2-0.5-1.7l-0.2-0.1c-0.4-0.2-0.8-0.5-1.4-0.5C218,561.3,217.2,562.4,217.1,562.4
			"/>
		<path class="st4" d="M211.8,561.5c0,0,0-0.2-0.1-0.4c-0.2,0.4-0.5,0.8-0.6,1.2c-0.2,0.5-0.2,1-0.3,1.5c0.2-0.2,0.5-0.4,0.5-0.5
			c0.1-0.6,0.2-1.2,0.5-1.7V561.5"/>
		<path class="st4" d="M215.9,559.1c-0.5,0-1,0.1-1.5,0.2c0.3,0.2,0.5,0.3,0.5,0.3c0.6-0.2,1.2-0.2,1.8,0c0.1,0,0.2-0.2,0.5-0.3
			C216.8,559.1,216.3,559.1,215.9,559.1"/>
		<path class="st4" d="M220,561.2c0,0.4-0.2,0.6-0.2,0.6c0.3,0.5,0.5,1.1,0.5,1.7c0.1,0.1,0.3,0.2,0.5,0.5
			C220.8,563,220.5,562,220,561.2"/>
		<path class="st1" d="M210.5,564.3c-0.3,0-1.3,0-2.1,0.9c1.4-0.2,2.2,0.8,2.3,1.2c-0.2-0.3-0.8-0.8-1.8-0.8c-0.2,0-0.5,0.1-0.7,0.2
			v-4.4c1.2-0.3,2.4-0.5,3.5-0.6c-0.8,0.9-1.2,2.2-1.2,3.4C210.5,564.1,210.5,564.2,210.5,564.3"/>
		<path class="st1" d="M197.9,572.2v-6.4c1.5-1.1,3.3-2.1,5.1-2.9v13.8C201.9,575.1,200.3,573.4,197.9,572.2"/>
		<path class="st1" d="M233.7,565.8v6.4c-2.4,1.2-4,2.9-5.1,4.6V563C230.4,563.8,232.1,564.8,233.7,565.8"/>
		<path class="st1" d="M222.7,565.6c-1,0-1.6,0.5-1.8,0.8c0.1-0.4,0.9-1.5,2.2-1.2c-0.7-0.8-1.6-0.9-2-0.9c0-0.1,0-0.2,0-0.2
			c0-1.3-0.5-2.5-1.2-3.4c1.2,0.2,2.4,0.4,3.5,0.6v4.4C223.2,565.6,223,565.6,222.7,565.6"/>
		<path class="st1" d="M215.9,565.9c0.7-0.3,1.2-0.8,1.8-1.3c-0.2-0.8-0.4-1.5-0.7-2.1c-0.8-0.2-1.5-0.2-2.2,0
			c-0.3,0.7-0.5,1.4-0.7,2.1C214.6,565.2,215.2,565.6,215.9,565.9"/>
		<path class="st1" d="M211.6,566.8c0.3,0.1,0.5,0.1,0.7,0.1l0,0c0-0.1,0-0.2,0-0.2c-0.1-0.3-0.2-0.6-0.2-1c0-0.2,0-0.4,0.1-0.5
			c-0.5-0.5-0.6-0.8-0.8-1.3l-0.1-0.2c-0.2,0.2-0.4,0.3-0.5,0.5C210.9,565.2,211.2,566.1,211.6,566.8"/>
		<path class="st1" d="M212,561l0.1,0.5c0,0,0.1,0.2,0.1,0.2c0.1,0,0.2-0.1,0.2-0.1c0.4-0.2,0.8-0.5,1.5-0.5
			c0.1-0.2,0.2-0.4,0.4-0.6l0.5-0.5l0.1-0.1c0,0,0.1-0.1,0.2-0.2c-0.1-0.1-0.3-0.2-0.7-0.3C213.3,559.7,212.5,560.2,212,561"/>
		<path class="st1" d="M217.6,559.4c-0.2,0.1-0.5,0.2-0.7,0.3c0.1,0.1,0.2,0.2,0.2,0.2c0.4,0.4,0.7,0.7,1,1.2c0.6,0.1,1,0.3,1.5,0.5
			l0.2,0.1c0.1-0.2,0.1-0.4,0.2-0.8C219.2,560.2,218.4,559.7,217.6,559.4"/>
		<path class="st1" d="M220.3,563.7l-0.1,0.2c-0.2,0.4-0.3,0.6-0.5,0.9l-0.3,0.4c0.1,0.2,0.1,0.4,0.1,0.6c0,0.3-0.1,0.6-0.1,1
			c0,0,0,0.1,0,0.2l0,0c0.1,0,0.4,0,0.8-0.2c0.5-0.8,0.8-1.6,0.8-2.5C220.7,564.1,220.5,563.8,220.3,563.7"/>
		<path class="st1" d="M208.2,530.2h5.1v5.2h-5.1V530.2z"/>
		<path class="st1" d="M200.1,535.6c1.3-1,2.2-2.1,3-3.2v3.2H200.1z"/>
		<path class="st1" d="M228.6,532.2c0.7,1.2,1.7,2.3,3,3.2h-3V532.2z"/>
		<path class="st1" d="M218.4,530.2h5.1v5.2h-5.1V530.2z"/>
	</g>
</g>
<g id="레이어_1">
</g>
<rect x="8" y="34.8" class="st0" width="234" height="180.4"/>
</svg>
