<?xml version="1.0" encoding="utf-8"?>
<!-- Generator: Adobe Illustrator 25.1.0, SVG Export Plug-In . SVG Version: 6.00 Build 0)  -->
<svg version="1.1" id="Layer_1" xmlns="http://www.w3.org/2000/svg" xmlns:xlink="http://www.w3.org/1999/xlink" x="0px" y="0px"
	 viewBox="0 0 250 250" style="enable-background:new 0 0 250 250;" xml:space="preserve">
<style type="text/css">
	.st0{fill:#FFC627;}
	.st1{fill:#EB0029;}
	.st2{fill:#003A70;}
	.st3{fill:#FFFFFF;}
	.st4{fill:none;}
</style>
<g id="Layer_1_1_">
	<g>
		<path class="st0" d="M211.3,124.1l-2.1-0.4c-0.1,0-0.8-0.2-2.1-0.4l2.7-9.7l-4.9-1.5c-0.1,0-2.3-0.7-6.5-1.6
			c0.1-3.4,0.2-6.8,0.2-10.4V51.2l-3.9-0.3c-15.2-1.2-29.7-4.9-43-11c-8-3.6-16.9-5.5-26.6-5.5c-9.6,0-18.5,1.9-26.6,5.5
			c-13.4,6.1-27.9,9.8-43,11l-3.9,0.3V100c0,3.6,0.1,7.1,0.2,10.4c-4.1,0.9-6.5,1.6-6.6,1.6l-4.9,1.5l2.7,9.7c-1.3,0.3-2,0.4-2,0.4
			l-2.1,0.4L24.2,146l15.6,18.7l3-0.5c0.1,0,7.2-1.3,17.9-2.8c1.6,3.9,3.6,7.7,5.9,11.3c10.6,17,27.6,29.7,56.8,42.4l1.6,0.7
			l1.6-0.7c29.2-12.6,46.2-25.3,56.8-42.4c2.2-3.6,4.2-7.3,5.9-11.3c10.7,1.6,17.8,2.8,17.9,2.8l3,0.5l15.6-18.7L211.3,124.1z
			 M208.4,160.1l-0.6-0.1c-0.1,0-7.9-1.5-19.5-3.1l-1.9-0.3c-9.2,24.7-28,39.8-61.6,54.4c-33.6-14.6-52.3-29.8-61.6-54.4l-1.9,0.3
			c-11.5,1.6-19.4,3.1-19.4,3.1l-0.6,0.1l-12.1-14.4l12.1-17.9l0.4-0.1c0,0,2.4-0.5,6.4-1.3l-2.8-10.1l0.9-0.3c0.1,0,3.5-1,9.7-2.2
			c-0.2-4.6-0.3-9.2-0.3-13.8V55.1c18.3-1.5,33.2-6.3,44.5-11.4c7.9-3.6,16.4-5.2,24.8-5.1c8.5,0,16.9,1.6,24.8,5.1
			c11.3,5.2,26.2,9.9,44.5,11.4V100c0,4.8-0.1,9.4-0.3,13.8c6.2,1.3,9.6,2.2,9.7,2.2l0.9,0.3l-2.8,10.1c4,0.8,6.4,1.3,6.5,1.3
			l0.4,0.1l11.8,17.9L208.4,160.1L208.4,160.1z"/>
		<g>
			<path class="st1" d="M115.5,197.3c3.1,1.6,6.3,3.1,9.5,4.5c3.1-1.4,6.1-2.8,9.1-4.3v-13.5h-18.6V197.3z M152.8,186.4
				c8-5.7,14-11.7,18.6-18.6v-19.9c-6.2-0.8-12.4-1.4-18.6-1.8C152.8,146.1,152.8,186.4,152.8,186.4z M78.3,167.4
				c4.6,6.9,10.6,13,18.6,18.8v-40.1c-6.8,0.5-13,1.1-18.6,1.8C78.3,147.9,78.3,167.4,78.3,167.4z M115.5,145.2v23.9h18.6v-23.9
				C127.9,145,121.7,145,115.5,145.2z"/>
			<path class="st1" d="M187.5,143.6c0.1,0,0.2,0,0.3,0.1c0.5,0.1,0.9,0.2,1.4,0.3l0.4,0.1c0.3,0,0.4,0.1,0.6,0.1
				c0.3,0.1,0.7,0.2,1,0.2c0.2,0,0.3,0.1,0.3,0.1l1.2,0.3c1.2,0.3,2.4,0.5,3.5,0.8c0.3,0.1,0.7,0.2,0.9,0.3c0.1,0,0.2,0,0.3,0.1
				l1.1,0.3c0.1,0,0.2,0,0.3,0.1c0.6,0.2,1.1,0.3,1.7,0.4c0.1,0,0.3,0.1,0.3,0.1c0.3,0.1,0.6,0.2,0.9,0.3h0.1l-3.5-15.8l0.2-0.5
				l3.5-12.8c-1.4-0.3-4.1-1-8.3-1.9c-1.8-0.3-3.7-0.8-5.6-1.1c-4.7-0.9-9.5-1.6-14.2-2.2c-5.4-0.8-11.6-1.4-18.4-2
				c-7-0.5-13.9-0.9-20.9-1.1c-0.7,0-1.3,0-2-0.1c-5.3-0.1-10.5-0.1-15.7,0c-0.7,0-1.3,0-2,0.1c-7,0.2-14,0.5-21,1.1
				c-6.7,0.5-12.9,1.2-18.4,2c-4.7,0.6-9.5,1.4-14.2,2.2c-0.9,0.2-1.9,0.3-2.8,0.5c-0.9,0.2-1.9,0.3-2.8,0.6
				c-4.1,0.9-6.9,1.6-8.3,1.9l2.3,8.4l1.4,4.9L48,146.9c1-0.3,2.1-0.5,3.2-0.8h0.2c0.2,0,0.3-0.1,0.5-0.1c2.1-0.5,4.7-1,8-1.6
				c1.8-0.3,3.7-0.7,5.5-1l0.4-0.1c13.7-2.3,34.1-4.7,59.3-4.7c25.8,0,46.3,2.5,59.4,4.7l0.4,0.1l0.7,0.1c0.7,0.1,1.3,0.3,1.9,0.3
				C187.4,143.6,187.5,143.6,187.5,143.6z"/>
			<path class="st1" d="M49.4,131l-0.7-2.7c-3.1,0.6-5.3,1-6.1,1.2l-10.6,16L42.4,158c5.6-0.9,11.3-1.9,17-2.8l-13.8-6.6
				C45.5,148.7,49.4,131,49.4,131z"/>
			<path class="st1" d="M49.3,148.5l13.5,6.2c-0.9-2.8-1.8-5.7-2.6-8.6C57.4,146.7,53.3,147.5,49.3,148.5z M207.5,129.7
				c-0.9-0.2-3-0.6-6.1-1.2l-0.7,2.7l4,17.6l-13.8,6.6c5.7,0.9,11.3,1.7,17,2.8l10.4-12.4C218,145.5,207.5,129.7,207.5,129.7z"/>
			<path class="st1" d="M189.8,146.1c-0.7,2.9-1.6,5.8-2.6,8.6l13.5-6.2C196.7,147.5,192.6,146.7,189.8,146.1z"/>
		</g>
		<g>
			<path class="st2" d="M149.8,43.7c-7.9-3.6-16.3-5.1-24.8-5.1s-16.9,1.6-24.8,5.1C88.9,48.9,74,53.7,55.7,55.1V100
				c0,4.8,0.1,9.4,0.3,13.8c0.9-0.2,1.8-0.3,2.8-0.6c-0.2-4.4-0.3-8.8-0.3-13.3V57.7c15.1-1.5,29.4-5.3,42.8-11.4
				c7.1-3.3,15.1-4.9,23.6-4.9c8.6,0,16.6,1.6,23.6,4.9c13.4,6.1,27.8,9.9,42.9,11.4V100c0,4.7-0.1,9.1-0.3,13.3
				c1,0.2,1.9,0.3,2.8,0.6c0.2-4.4,0.3-9,0.3-13.8V55.1C176.1,53.7,161.1,48.9,149.8,43.7z"/>
			<path class="st2" d="M125,96.4c-4.3,0-7.9,3.5-7.9,7.9v3.2c5.3-0.1,10.5-0.1,15.7,0v-3.2C132.9,99.9,129.3,96.4,125,96.4
				L125,96.4z M65.9,145.7c2.2,8.4,5.2,15.4,9.1,21.7c9.2,14.8,24.2,26.1,50,37.5c25.8-11.5,40.8-22.7,50-37.5
				c3.9-6.2,6.9-13.3,9.1-21.7l0.1-0.6c-12.9-2.2-33.5-4.7-59.3-4.7c-25.2,0-45.6,2.4-59.3,4.7C65.7,145.1,65.9,145.7,65.9,145.7z
				 M152.8,146.1c6.9,0.5,13.1,1.1,18.6,1.8v19.9c-4.6,6.8-10.6,12.9-18.6,18.6V146.1z M115.5,145.2c6.2-0.2,12.4-0.2,18.6,0v23.9
				h-18.6C115.5,169.1,115.5,145.2,115.5,145.2z M115.5,183.9h18.6v13.5c-3,1.6-6,2.9-9.1,4.3c-3.2-1.5-6.4-2.9-9.5-4.5
				C115.5,197.3,115.5,183.9,115.5,183.9z M78.3,147.9c6.2-0.8,12.4-1.4,18.6-1.8v40.1c-8-5.8-14.1-11.9-18.6-18.8V147.9z
				 M188.4,112.7c0.2-3.5,0.3-4.6,0.3-8.5c-2.8-0.7-8.2-1.3-11.2-1.8v8.5C181.5,111.5,185.2,112.1,188.4,112.7L188.4,112.7z
				 M61.6,112.7c3.2-0.6,6.9-1.2,11-1.8v-8.5c-3,0.6-8.5,1.2-11.3,1.8C61.3,108.2,61.4,109.3,61.6,112.7z"/>
			<path class="st2" d="M188.7,60.2c-14.4-1.7-28.3-5.5-41.2-11.4c-6.7-3.1-14.3-4.7-22.5-4.7s-15.8,1.6-22.5,4.7
				c-12.9,5.9-26.7,9.7-41.2,11.4v42c2.8-0.7,8.2-1.3,11.3-1.8v-3.1c0,0,1.6-1.1,6-2.2v2.5c1.1-0.3,2.2-0.6,3.5-0.9v-2.5
				c2.3-0.5,5.3-0.9,8.7-1.4v2.5c1.1-0.1,2.3-0.3,3.5-0.3v-2.5c0.2,0,0.3,0,0.6-0.1c2.2-0.2,4.5-0.3,7-0.4c1.2-0.1,2.4-0.1,3.7-0.1
				v2.5c1,0,2.2,0,3.3,0h0.2v-2.5h32.4v2.5h0.2c1.1,0,2.2,0,3.3,0v-2.5c1.3,0,2.5,0.1,3.7,0.1c2.5,0.1,4.8,0.3,7,0.4
				c0.2,0,0.4,0,0.6,0.1V95c1.2,0.1,2.3,0.2,3.5,0.3v-2.5c3.5,0.4,6.3,0.9,8.7,1.4v2.5c1.3,0.3,2.4,0.5,3.5,0.9v-2.5
				c4.3,1.2,6,2.2,6,2.2v3.1c3,0.6,8.5,1.2,11.3,1.8L188.7,60.2L188.7,60.2z M133.6,88.9h-17.8c-5.3,0-7.7-0.8-7.7-0.8
				c3.3-0.4,4.7-2.8,4.7-2.8c1.5,0.3,6.8,0.3,11.9,0.3c5,0,10.4-0.1,11.9-0.3c0,0,1.4,2.3,4.7,2.8C141.2,88.2,139,88.9,133.6,88.9z
				 M98.5,82.3c-1.6,0-3-0.1-4.2-0.2c-3.7-0.3-6.2-0.9-7.8-1.5c0.2,0,0.3,0,0.5,0c2.3,0,4.6-0.1,6.3-0.3c1.4-0.1,2.8-0.3,4.2-0.3
				c0,0,5.1,0.4,8.9,0.4h37.1c3.8,0,8.9-0.4,9-0.4c0,0,1.6,0.2,4.1,0.3c1.8,0.1,4,0.3,6.4,0.3c0.2,0,0.3,0,0.5,0
				c-1.5,0.5-4.1,1.1-7.8,1.5c-1.3,0.1-2.7,0.2-4.2,0.2H98.5z M93.9,67.7c-0.7-0.1-1.4-0.2-2.1-0.3c2.8-0.2,5.4-0.5,7.9-1
				c0.9-0.2,1.8-0.4,2.5-0.7c1.5-0.4,2.6-0.9,3.4-1.2s1.3-0.7,1.6-0.8c0.6,0.1,1.3,0.1,2,0.1c3.2,0.2,6.6,0.3,9.9,0.3h6h6.1
				c3.3,0,6.6,0,9.9-0.2c0.7,0,1.4-0.1,2-0.1c0.2,0.1,0.7,0.4,1.6,0.8c0.8,0.3,1.9,0.8,3.4,1.2c0.9,0.3,1.7,0.4,2.6,0.7
				c2.4,0.5,5.1,0.9,7.9,1c-0.6,0.1-1.3,0.2-2.1,0.3c-2.2,0.3-5,0.4-8.1,0.6H148c-1.2,0-3.5,0.1-6.9,0.1c-3.9,0-9.1,0-15.9,0
				c-6.7,0-12,0-15.9,0c-3.4,0-5.7-0.1-6.9-0.1h-0.3C98.9,68.1,96.1,68,93.9,67.7z M165,85.7l1.1,0.9l-0.5,1.1v3.9
				c-1.3-0.2-2.1-0.2-2.1-0.2v-4.2l-0.9-0.6h-3.5l-0.7,0.7v2.1h-14.2l1.7-1.6h10.6v-0.9l2.2-2.1h3.7l5-3.3l-0.9-1.3v-1.5
				c-0.4,0-0.8,0-1.1,0c-2.6,0.1-5.2-0.1-7.7-0.3c-2.4-0.3-4-0.7-4.7-0.9V76l2.2-2l1.9,0.3l3.7-3.2l3.7-3.2l-1.7-2.3l-0.3-0.5
				c-6.5,0.3-11.6-1-14.7-2c-2.1-0.7-3.2-1.2-3.2-1.2l0.2-0.9c-0.3,0-0.8,0-1.2-0.2c-0.4-0.2-1.4-0.3-1.7,0
				c-0.3,0.4-0.3,0.8-0.3,0.8c-0.2,0-0.4,0-0.7,0.1c-3.4,0.3-9,0.3-16,0.3l0,0l0,0c-7,0-12.6,0-16-0.3c-0.3,0-0.4,0-0.7-0.1
				c0,0,0.1-0.3-0.3-0.8s-1.3-0.2-1.7,0c-0.4,0.2-0.9,0.2-1.2,0.2l0.2,0.9c0,0-1.1,0.6-3.2,1.2c-3.1,1-8.2,2.2-14.7,2l-0.3,0.5
				L85.5,68l3.7,3.2l3.7,3.2l1.9-0.3l2.2,2v1.5c-0.7,0.2-2.2,0.6-4.7,0.9c-2,0.3-4.6,0.4-7.7,0.3c-0.3,0-0.8,0-1.1,0v1.5l-0.9,1.3
				l5,3.3h3.7l2.2,2.1v0.9h10.6l1.7,1.6H91.4v-2.1l-0.7-0.7h-3.5l-0.9,0.6v4.2c0,0-0.8,0.1-2.1,0.3v-4l-0.5-1l1.1-0.9l-5.4-3.9
				l1.7-2.3v-2.9l2.2,0.1c0.3,0,0.8,0,1.1,0c0.3,0,0.7,0,1,0c2.2,0,4.4-0.1,6.4-0.3c0,0,0,0,0.1,0l-9.3-8l3.7-5.1h1.2
				c0.5,0,0.9,0,1.5,0c5.4,0,9.7-1,12.4-1.9c0.6-0.2,1.1-0.3,1.6-0.5l-0.3-1.6l2.8-0.1c0.6-0.2,1.2-0.3,1.8-0.3
				c0.9,0,1.7,0.3,2.2,0.9c0.1,0.1,0.1,0.1,0.2,0.2c3.4,0.2,8.5,0.2,15.2,0.2c6.6,0,11.8,0,15.2-0.2c0.1-0.1,0.1-0.1,0.2-0.2
				c0.5-0.6,1.4-0.9,2.2-0.9c0.8,0,1.5,0.3,1.8,0.3c0.1,0,0.4,0,0.4,0l2.4,0.1l-0.3,1.6c0.4,0.2,0.9,0.3,1.6,0.5
				c2.7,0.9,7,1.9,12.4,1.9c0.5,0,0.9,0,1.5,0h1.2l3.7,5.1l-9.3,8c0,0,0,0,0.1,0c2,0.3,4.1,0.3,6.4,0.3c0.7,0,1.4,0,2.1,0l2.2-0.1
				v2.9l1.7,2.3L165,85.7L165,85.7z"/>
			<path class="st2" d="M74.5,98.5v12h1.1c10.7-1.5,24.1-2.7,39.5-3.1v-3.2c0-5.4,4.4-9.8,9.8-9.8c5.4,0,9.8,4.4,9.8,9.8v3.2
				c15.4,0.4,28.7,1.6,39.5,3.1l1.1,0.2V98.5c-0.7-0.3-1.4-0.6-2.1-0.8v2.4l-2.5-0.7c-1.1-0.3-2.2-0.6-3.4-0.8l-1.6-0.3v-2.5
				c-1.6-0.3-3.2-0.5-4.7-0.8v2.5l-2.2-0.3c-1-0.1-2.2-0.3-3.4-0.3l-1.8-0.2v-2.5c-1.8-0.1-3.7-0.3-5.6-0.3c-0.5,0-1.1,0-1.7-0.1
				v2.5h-2.3c-0.9,0-1.9,0-2.9,0h-2.2v-2.5h-28.4v2.5h-2.2c-1,0-2,0-2.9,0h-2.3v-2.5c-0.6,0-1.1,0-1.7,0.1c-1.9,0.1-3.7,0.2-5.6,0.3
				v2.5L94.2,97c-1.2,0.1-2.3,0.2-3.4,0.3l-2.1,0.3v-2.5c-1.6,0.2-3.2,0.4-4.7,0.8v2.5l-1.6,0.3c-1.1,0.3-2.2,0.5-3.4,0.8l-2.5,0.7
				v-2.4C75.7,98,75,98.3,74.5,98.5z M185.8,150.2c-0.6,2.1-1.3,4.1-2.1,6.1c-1.7,4.6-3.8,8.7-6.2,12.6
				c-9.7,15.5-25.4,27.3-52.5,39.1c-27.1-11.8-42.8-23.6-52.5-39.1c-2.4-3.9-4.5-8-6.2-12.6c-0.8-2-1.5-4.1-2.1-6.1
				c-0.4-1.5-0.9-3-1.3-4.6c-0.6,0.1-1.6,0.3-2.8,0.5c0.7,2.9,1.6,5.8,2.6,8.6c0.3,0.6,0.4,1.3,0.7,1.9c9.2,24.7,28,39.8,61.6,54.4
				c33.6-14.6,52.3-29.8,61.6-54.4c0.3-0.6,0.4-1.3,0.7-1.9c0.9-2.8,1.8-5.7,2.6-8.6c-1.2-0.3-2.1-0.4-2.8-0.5
				C186.7,147.2,186.3,148.6,185.8,150.2z"/>
		</g>
		<g>
			<path class="st3" d="M83.8,86.5l0.5,1v4c0.7-0.1,1.4-0.2,2.1-0.3V87l0.9-0.6h3.5l0.7,0.7v2.1h14.3l-1.7-1.6H93.3v-0.9l-2.2-2.1
				h-3.7l-5-3.3l0.9-1.3v-1.5c0.4,0,0.8,0,1.1,0c2.6,0.1,5.2-0.1,7.7-0.3c2.4-0.3,4-0.7,4.7-0.9v-1.5l-2-1.9l-1.9,0.3l-3.7-3.2
				L85.5,68l1.7-2.3l0.3-0.5c6.5,0.3,11.6-0.9,14.7-2c2.1-0.7,3.2-1.2,3.2-1.2l-0.2-0.9c0.3,0,0.8,0,1.2-0.2c0.4-0.2,1.4-0.3,1.7,0
				c0.3,0.4,0.3,0.8,0.3,0.8c0.2,0,0.4,0,0.7,0.1c3.4,0.3,9,0.3,16,0.3l0,0l0,0c7,0,12.6,0,16-0.3c0.3,0,0.4,0,0.7-0.1
				c0,0-0.1-0.3,0.3-0.8c0.3-0.4,1.3-0.2,1.7,0c0.4,0.2,0.9,0.2,1.2,0.2l-0.2,0.9c0,0,1.1,0.6,3.2,1.2c3.1,1,8.3,2.2,14.7,2l0.3,0.5
				l1.7,2.3l-3.7,3.2l-3.7,3.2l-1.9-0.3l-2.2,2v1.5c0.7,0.2,2.2,0.6,4.7,0.9c2,0.3,4.6,0.4,7.7,0.3c0.3,0,0.8,0,1.1,0v1.5l0.9,1.3
				l-5,3.3h-3.7l-2.2,2.1v0.9h-10.6l-1.7,1.6h14.2v-2.1l0.7-0.7h3.5l0.9,0.6v4.2c0,0,0.8,0.1,2.1,0.2v-3.9l0.5-1.1l-1.1-0.9l5.4-3.9
				l-1.7-2.3v-2.9l-2.2,0.1c-0.7,0-1.4,0-2.1,0c-2.2,0-4.2-0.1-6.4-0.3c0,0,0,0-0.1,0l9.3-8l-3.7-5.1h-1.2c-0.5,0-0.9,0-1.5,0
				c-5.4,0-9.7-1-12.4-1.9c-0.6-0.2-1.1-0.3-1.6-0.5l0.3-1.6l-2.4-0.1h-0.4c-0.6-0.3-1.2-0.3-1.8-0.3c-0.9,0-1.7,0.3-2.2,0.9
				c-0.1,0.1-0.1,0.1-0.2,0.2C136.8,60,131.6,60,125,60c-6.6,0-11.8,0-15.2-0.2c-0.1-0.1-0.1-0.1-0.2-0.2c-0.5-0.6-1.4-0.9-2.2-0.9
				c-0.6,0-1.2,0.1-1.8,0.3l-2.8,0.1l0.3,1.6c-0.4,0.2-0.9,0.3-1.6,0.5c-2.7,0.9-7,1.9-12.4,1.9c-0.5,0-0.9,0-1.5,0h-1.2l-3.6,5.2
				l9.3,8H92c-2.2,0.3-4.2,0.3-6.4,0.3c-0.3,0-0.7,0-1,0s-0.7,0-1.1,0l-2.2-0.1v2.9l-1.7,2.3l5.4,3.9L83.8,86.5L83.8,86.5z"/>
			<path class="st3" d="M109.1,68.4c3.9,0,9.1,0,15.9,0s12,0,15.9,0c3.4,0,5.7-0.1,6.9-0.1h0.3c3.1-0.2,5.9-0.3,8.1-0.6
				c0.7-0.1,1.4-0.2,2.1-0.3c-2.8-0.2-5.4-0.5-7.9-1c-0.9-0.2-1.7-0.4-2.6-0.7c-1.1-0.3-2.2-0.7-3.4-1.2c-0.5-0.3-1-0.5-1.6-0.8
				c-0.6,0.1-1.3,0.1-2,0.1c-3.2,0.2-6.6,0.2-9.9,0.2h-6.1h-6c-3.3,0-6.6,0-9.9-0.3c-0.7,0-1.3-0.1-2-0.1c-0.2,0.1-0.7,0.4-1.6,0.8
				c-0.8,0.3-1.9,0.8-3.4,1.2c-0.9,0.3-1.7,0.4-2.5,0.7c-2.4,0.5-5.1,0.9-7.9,1c0.6,0.1,1.3,0.2,2.1,0.3c2.2,0.3,5,0.4,8.1,0.6h0.3
				C103.4,68.3,105.7,68.4,109.1,68.4z M155.8,82.1c3.7-0.3,6.2-0.9,7.8-1.5c-0.2,0-0.3,0-0.5,0c-2.3,0-4.6-0.1-6.4-0.3
				c-2.5-0.2-4.1-0.3-4.1-0.3c-0.1,0-5.2,0.4-9,0.4h-37.1c-3.8,0-8.9-0.4-8.9-0.4s-1.7,0.2-4.2,0.3c-1.8,0.1-4,0.3-6.3,0.3
				c-0.2,0-0.3,0-0.5,0c1.5,0.5,4.1,1.1,7.8,1.5c1.3,0.1,2.7,0.2,4.2,0.2h53.1C153.1,82.3,154.5,82.3,155.8,82.1z M136.6,85.4
				c-1.5,0.3-6.8,0.3-11.9,0.3c-5,0-10.4-0.1-11.9-0.3c0,0-1.4,2.3-4.7,2.8c0,0,2.3,0.8,7.7,0.8h17.8c5.3,0,7.7-0.8,7.7-0.8
				C137.9,87.7,136.6,85.4,136.6,85.4z"/>
			<path class="st3" d="M208.7,127.8l-0.4-0.1c0,0-2.4-0.5-6.5-1.3l2.8-10.1l-0.9-0.3c-0.1,0-3.5-1-9.7-2.2
				c-0.9-0.2-1.8-0.3-2.8-0.6c0.2-4.2,0.3-8.6,0.3-13.3V57.7c-15.1-1.5-29.4-5.3-42.9-11.4c-7.1-3.3-15-4.9-23.6-4.9
				s-16.6,1.6-23.6,4.9c-13.3,6-27.7,9.9-42.8,11.4V100c0,4.7,0.1,9.1,0.3,13.3c-0.9,0.2-1.9,0.3-2.8,0.6c-6.2,1.3-9.6,2.2-9.7,2.2
				l-0.9,0.3l2.8,10.1c-4,0.8-6.4,1.2-6.4,1.3l-0.4,0.1l-11.8,17.9l12.1,14.4l0.6-0.1c0.1,0,7.9-1.5,19.4-3.1l1.9-0.3
				c-0.3-0.6-0.4-1.3-0.7-1.9l-13.5-6.2c4-1,8-1.8,10.9-2.4c1.2-0.3,2.1-0.4,2.8-0.5c0.4,1.6,0.8,3.1,1.3,4.6
				c0.6,2.1,1.3,4.1,2.1,6.1c1.7,4.6,3.8,8.7,6.2,12.6C82.2,184.4,98,196.2,125,208c27.1-11.8,42.8-23.6,52.5-39.1
				c2.4-3.9,4.5-8,6.2-12.6c0.8-2,1.5-4.1,2.1-6.1c0.4-1.5,0.9-3,1.3-4.6c0.6,0.1,1.6,0.3,2.8,0.5c2.8,0.5,6.9,1.4,10.9,2.4
				l-13.5,6.2c-0.3,0.6-0.4,1.3-0.7,1.9l1.9,0.3c11.5,1.6,19.4,3.1,19.5,3.1l0.6,0.1l12.1-14.4L208.7,127.8L208.7,127.8z M61.3,60.2
				c14.4-1.7,28.3-5.5,41.2-11.4c6.7-3.1,14.3-4.7,22.5-4.7s15.8,1.6,22.5,4.7c12.9,5.9,26.7,9.7,41.2,11.4v42
				c-2.8-0.7-8.2-1.3-11.3-1.8v-3.1c0,0-1.6-1.1-6-2.2v2.5c-1.1-0.3-2.2-0.6-3.5-0.9v-2.5c-2.3-0.5-5.3-0.9-8.7-1.4v2.5
				c-1.1-0.1-2.3-0.3-3.5-0.3v-2.5c-0.2,0-0.3,0-0.6-0.1c-3.5-0.3-7.2-0.4-10.7-0.5v2.5c-1,0-2.2,0-3.3,0H141v-2.5h-32.4v2.5h-0.2
				c-1.1,0-2.2,0-3.3,0v-2.5c-1.3,0-2.5,0.1-3.7,0.1c-2.5,0.1-4.8,0.3-7,0.4c-0.2,0-0.3,0-0.6,0.1V95c-1.2,0.1-2.3,0.2-3.5,0.3v-2.5
				c-3.5,0.4-6.3,0.9-8.7,1.4v2.5c-1.1,0.3-2.3,0.5-3.5,0.9v-2.5c-4.3,1.2-6,2.2-6,2.2v3.1c-3,0.6-8.5,1.2-11.3,1.8
				C61.3,102.2,61.3,60.2,61.3,60.2z M177.5,102.5c3,0.6,8.5,1.2,11.2,1.8c0,3.9-0.1,4.9-0.3,8.5c-3.6-0.7-7.3-1.3-11-1.8
				C177.4,110.9,177.5,102.5,177.5,102.5z M125,94.4c-5.4,0-9.8,4.4-9.8,9.8v3.2c-15.4,0.4-28.8,1.6-39.5,3.1h-1.1v-12
				c0.4-0.2,1.1-0.5,2.1-0.8v2.4l2.5-0.7c1.1-0.3,2.2-0.6,3.4-0.8l1.6-0.3v-2.5c1.6-0.3,3.2-0.5,4.7-0.8v2.5l2.2-0.3
				c1.1-0.1,2.2-0.3,3.4-0.3l1.8-0.2v-2.5c1.8-0.1,3.7-0.3,5.6-0.3c0.6,0,1.1,0,1.7-0.1v2.5h2.3c0.9,0,1.9,0,2.9,0h2.2v-2.5h28.4
				v2.5h2.2c1,0,2,0,2.9,0h2.3v-2.5c0.6,0,1.1,0,1.7,0.1c2,0.1,3.8,0.2,5.6,0.3v2.5l1.8,0.2c1.2,0.1,2.3,0.2,3.4,0.3l2.2,0.3v-2.5
				c1.6,0.3,3.3,0.5,4.7,0.8v2.5l1.6,0.3c1.1,0.3,2.2,0.5,3.4,0.8l2.5,0.7v-2.4c0.9,0.3,1.6,0.6,2.1,0.8v12.2l-1.1-0.2
				c-10.7-1.5-24.1-2.7-39.5-3.1v-3.2C134.8,98.9,130.4,94.4,125,94.4z M132.9,104.2v3.2c-5.3-0.1-10.5-0.1-15.7,0v-3.2
				c0-4.3,3.5-7.9,7.9-7.9C129.3,96.4,132.9,99.9,132.9,104.2L132.9,104.2z M72.6,110.9c-4.1,0.6-7.9,1.2-11,1.8
				c-0.2-3.5-0.3-4.6-0.3-8.5c2.8-0.7,8.2-1.3,11.3-1.8V110.9z M59.3,155.3c-5.7,0.9-11.3,1.7-17,2.8l-10.4-12.4l10.6-16
				c0.9-0.2,3-0.6,6.1-1.2l0.7,2.7l-4,17.6C45.5,148.7,59.3,155.3,59.3,155.3z M184.1,145.7c-2.2,8.4-5.2,15.4-9.1,21.7
				c-9.2,14.8-24.2,26.1-50,37.5c-25.8-11.5-40.8-22.7-50-37.5c-3.9-6.2-6.9-13.3-9.1-21.7l-0.1-0.6c13.6-2.3,34-4.7,59.3-4.7
				c25.7,0,46.3,2.5,59.3,4.7C184.3,145.1,184.1,145.7,184.1,145.7z M200.1,146.3l-0.3-0.1l-0.8-0.2c-0.1,0-0.2,0-0.3-0.1l-1.1-0.3
				c-0.1,0-0.2,0-0.3-0.1l-0.9-0.3c-0.1,0-0.3-0.1-0.3-0.1c-0.9-0.2-1.8-0.3-2.8-0.6l-0.4-0.1c-0.4-0.1-0.8-0.2-1.2-0.3l-0.3-0.1
				c-0.3-0.1-0.7-0.2-1-0.2c-0.2,0-0.4-0.1-0.6-0.1s-0.3-0.1-0.4-0.1c-0.4-0.1-0.9-0.2-1.4-0.3c-0.1,0-0.2,0-0.3-0.1h-0.3
				c-0.6-0.1-1.2-0.3-1.9-0.3l-0.7-0.1l-0.4-0.1c-13-2.2-33.6-4.7-59.4-4.7c-25.2,0-45.6,2.4-59.3,4.7l-0.4,0.1
				c-1.8,0.3-3.7,0.6-5.5,1c-3.2,0.6-5.9,1.2-8,1.6c-0.2,0.1-0.3,0.1-0.5,0.1c-0.1,0-0.1,0-0.2,0c-1,0.3-2.1,0.5-3.2,0.8l3.5-15.8
				l-1.4-4.9l-2.3-8.4c1.4-0.3,4.1-1,8.3-1.9c0.9-0.2,1.8-0.3,2.8-0.6c0.9-0.2,1.8-0.3,2.8-0.5c4.7-0.9,9.5-1.6,14.2-2.2
				c5.4-0.8,11.6-1.4,18.4-2c7-0.5,14-0.9,21-1.1c0.7,0,1.3,0,2-0.1c5.3-0.1,10.5-0.1,15.7,0c0.7,0,1.3,0,2,0.1
				c7.5,0.2,14.5,0.6,20.9,1.1c6.7,0.5,12.9,1.2,18.4,2c5.4,0.8,10.3,1.6,14.2,2.2c1.9,0.3,3.7,0.7,5.6,1.1c4.1,0.9,6.9,1.6,8.3,1.9
				l-3.5,12.8l-0.2,0.5l3.5,15.8h-0.1c-0.2,0-0.3-0.1-0.4-0.1s-0.3-0.1-0.5-0.1c-0.1,0-0.3-0.1-0.3-0.1
				C200.6,146.4,200.3,146.4,200.1,146.3L200.1,146.3z M207.6,158c-1.8-0.3-8.7-1.6-17-2.8l13.8-6.6l-4-17.6l0.7-2.7
				c3.1,0.6,5.3,1,6.1,1.2l10.5,16L207.6,158L207.6,158z"/>
		</g>
		<g>
			<path class="st3" d="M122.2,172.7h-2c-1.7,0-2.9,0.8-3.1,2l-0.5,3.5c-0.2,1.2,0.9,2,2.6,2h2c1.7,0,2.9-0.8,3.1-2l0.5-3.5
				C125,173.5,124,172.7,122.2,172.7 M122.8,175.1l-0.3,2.7c-0.1,0.6-0.3,1.4-1.9,1.4h-0.2c-1.6,0-1.6-0.8-1.6-1.4l0.3-2.7
				c0.1-0.6,0.3-1.4,1.9-1.4h0.2C122.8,173.8,122.8,174.6,122.8,175.1 M131,172.7h-2c-1.7,0-2.9,0.8-3.1,2l-0.5,3.5
				c-0.2,1.2,0.9,2,2.6,2h2c1.7,0,2.9-0.8,3.1-2l0.5-3.5C133.8,173.5,132.8,172.7,131,172.7 M131.6,175.1l-0.3,2.7
				c-0.1,0.6-0.3,1.4-1.9,1.4h-0.2c-1.6,0-1.6-0.8-1.6-1.4l0.3-2.7c0.1-0.6,0.3-1.4,1.9-1.4h0.2
				C131.6,173.8,131.6,174.6,131.6,175.1 M113.4,172.7h-2c-1.7,0-2.9,0.8-3.1,2h2.1c0.2-0.4,0.6-0.9,1.8-0.9h0.2
				c1.6,0,1.8,0.9,1.5,1.4c-0.8,1.2-5.8,1.4-6.1,4.1l-0.2,1.1h7.2l0.6-1.1h-5.7c0,0,0.1-0.8,2.3-1.6c2.1-0.7,3.6-0.9,4-2.9
				C116.1,173.5,115.1,172.7,113.4,172.7 M139.9,172.7h-2c-1.7,0-2.9,0.8-3.1,2h2.1c0.2-0.4,0.6-0.9,1.8-0.9h0.2
				c1.6,0,1.8,0.9,1.5,1.4c-0.2,0.3-0.5,0.5-1,0.7h-2.8l-0.6,1.1h3.3c0.3,0,1,0.1,0.9,0.7v0.3c-0.1,0.6-0.3,1.4-1.9,1.4h-3.5
				l-0.6,1.1h4.8c1.7,0,2.9-0.8,3.1-2l0.1-0.6c0.1-0.5-0.1-0.9-0.5-1.3c0.5-0.3,0.8-0.9,0.9-1.7
				C142.7,173.5,141.7,172.7,139.9,172.7"/>
		</g>
		<g>
			<path class="st3" d="M174.1,130.1c0.5-2,0.8-3,1.3-5c0.3-1,1-2.6,3.8-2.2c2.5,0.3,3.8,0.5,6.3,0.9c0.6-0.8,0.9-1.1,1.4-1.9
				c-2.9-0.4-5.9-0.9-8.8-1.3c-3.1-0.4-5.5,0.9-6.1,3.2c-0.6,2.2-1.1,4.5-1.6,6.7c-0.6,2.3,1,4.1,4.1,4.5c3.1,0.4,4.7,0.6,7.7,1.1
				c0.5-0.8,0.8-1.1,1.4-1.9c-2.3-0.3-4.7-0.7-7-1C173.7,132.7,173.8,131.1,174.1,130.1 M155.2,132.9c1.4,0.1,2.2,0.2,3.5,0.3
				c0.6-2.9,0.9-4.3,1.6-7.2c3.2,0.3,4.8,0.4,8,0.8c0.5-0.8,0.8-1.2,1.3-2c-2.9-0.3-5.9-0.7-8.9-0.9c0.3-1.2,0.4-1.8,0.7-3.1
				c3.8,0.3,5.7,0.5,9.5,1c0.5-0.8,0.8-1.2,1.3-2c-5.9-0.7-8.8-1-14.8-1.5c0,0,0.6,0.4,0.1,2.6C156.8,124.9,156,128.9,155.2,132.9
				 M127.2,117c-1.2,0-2.4,0-3.7,0c-3.2,0-5.3,1.6-5.6,4c-0.3,2.3-0.5,4.6-0.7,6.9c-0.3,2.3,1.6,3.9,4.6,3.9c1.2,0,2.3,0,3.5,0
				c3,0,5.3-1.6,5.5-3.9c0.3-2.8,0.6-4.1,0.9-6.8C132.1,118.6,130.3,117,127.2,117 M127.3,126.9c-0.2,1.1-0.7,2.7-3.4,2.7h-0.3
				c-2.8,0-2.8-1.6-2.8-2.6c0.3-2.1,0.3-3.1,0.6-5.2c0.1-1.1,0.6-2.7,3.5-2.7h0.3c2.8,0,2.9,1.6,2.8,2.7
				C127.8,123.4,127.5,125.2,127.3,126.9 M70.9,124.3c-0.9-0.7-0.4-1.5,0.9-1.6c2.8-0.4,4.3-0.6,7.2-0.9l0.9-2.2
				c-4.1,0.5-6.2,0.8-10.4,1.3c-3,0.4-5.5,2.7-1.9,5.3c2.4,1.7,4.7,3.5,7.2,5.2c0.9,0.7,0.3,1.5-0.9,1.6c-3.1,0.4-4.7,0.6-7.7,1.1
				c-0.3,0.9-0.4,1.4-0.7,2.2c4.3-0.7,6.5-0.9,10.8-1.6c2.8-0.3,5.4-2.6,1.9-5.3C75.7,127.8,73.3,126,70.9,124.3 M111.8,117.2
				c0,0,0.6,0.3,0.4,2.6c-0.3,2.4-0.4,4.9-0.7,7.3c0,0.3-0.1,0.7-0.2,0.9c-0.3,0.9-1,1.7-1.8,1.7s-1.4-0.6-1.6-1.6
				c0,0-0.1-0.4,0-0.9v-0.3l0,0c0.3-3.9,0.4-5.8,0.8-9.7c-1.7,0.1-2.6,0.1-4.4,0.2c0,0,0.6,0.3,0.5,2.6c-0.3,2.9-0.3,4.4-0.5,7.4
				c0,0.6-0.2,0.9-0.2,0.9c-0.3,1-1,1.7-1.8,1.8s-1.4-0.6-1.6-1.6c0,0-0.1-0.4-0.1-0.9c0.3-4,0.3-6,0.6-10c-1.7,0.1-2.6,0.2-4.4,0.3
				c0,0,0.7,0.3,0.5,2.6c-0.2,3.3-0.3,4.9-0.4,8.2c-0.1,1.7,0.9,2.9,2.6,3.4c0.6,0.2,1.4,0.3,2.2,0.2c0.3,0,0.4,0,0.7,0
				c0.8,0,1.6-0.2,2.2-0.4c0.3-0.2,0.7-0.3,1-0.5c0.3,0.2,0.6,0.3,0.9,0.4c0.7,0.2,1.5,0.3,2.2,0.3c0.3,0,0.4,0,0.7,0
				c0.8,0,1.6-0.2,2.2-0.4c1.8-0.6,2.9-2,3.1-3.7c0.4-4.3,0.6-6.5,1.1-10.8C114.4,117.1,113.5,117.1,111.8,117.2 M91.2,118.4
				c0,0,0.7,0.3,0.5,2.6c-0.1,2.5-0.2,4.9-0.3,7.4c0,1.1-0.4,2.7-3.2,2.9c-0.2,0-0.2,0-0.3,0c-2.8,0.3-3-1.2-3-2.3
				c0.1-4,0.1-6,0.3-10c-1.7,0.2-2.6,0.3-4.3,0.4c0,0,0.7,0.3,0.6,2.5c-0.1,3.3-0.1,4.9-0.1,8.3c0,2.4,1.9,3.7,4.9,3.4
				c0.9-0.1,2-0.2,2.9-0.3c0.3,0,0.3,0,0.6-0.1c3-0.3,5.1-2,5.2-4.4c0.2-4.3,0.3-6.5,0.5-10.9C93.9,118.2,93,118.3,91.2,118.4
				 M144.2,117.5c0,0,0.6,0.4,0.2,2.6c-0.5,3.1-0.9,4.7-1.4,7.8c-1.5-3.5-2.9-7.1-4.5-10.6c-1.6-0.1-3.1-0.1-4.7-0.2
				c0,0,0.6,0.4,0.3,2.6c-0.6,4.1-1.2,8-1.7,12.1c1.5,0,2.2,0.1,3.5,0.1c0.6-4.1,0.9-6.2,1.6-10.4c1.6,3.5,3,7.1,4.5,10.6
				c1.6,0.1,2.3,0.1,3.9,0.2c1-5.9,1.6-8.7,2.7-14.6C146.7,117.6,145.9,117.6,144.2,117.5"/>
		</g>
	</g>
</g>
<g id="레이어_1">
	<rect x="8" y="8" class="st4" width="234" height="234"/>
</g>
<rect x="8" y="34.8" class="st4" width="234" height="180.4"/>
</svg>
