<?xml version="1.0" encoding="utf-8"?>
<!-- Generator: Adobe Illustrator 25.1.0, SVG Export Plug-In . SVG Version: 6.00 Build 0)  -->
<svg version="1.1" id="Layer_1" xmlns="http://www.w3.org/2000/svg" xmlns:xlink="http://www.w3.org/1999/xlink" x="0px" y="0px"
	 viewBox="0 0 250 250" style="enable-background:new 0 0 250 250;" xml:space="preserve">
<style type="text/css">
	.st0{fill:#0058A7;}
	.st1{fill:#FFFFFF;}
	.st2{fill:#E83534;}
	.st3{fill:#03428C;}
	.st4{fill:none;}
</style>
<g id="Layer_1_1_">
	<g>
		<path class="st0" d="M125,216.8c27.9-29.4,41.1-49.3,49.4-66.6c8.2-17.3,14.4-40.7,17.6-59.3s3.7-35.2,3.7-35.2l-37.8-22.5
			c-11,6.1-21.2,7.7-32.6,7.8h-0.2c-11.5,0-21.7-1.6-32.7-7.8L54.3,55.7c0,0,0.5,16.5,3.7,35.1c3.1,18.7,9.3,41.9,17.6,59.3
			S97.1,187.5,125,216.8L125,216.8L125,216.8L125,216.8z"/>
		<path class="st1" d="M158.3,171.7c14.4-20.8,30.7-55.7,34-114.3l-34.4-20.5c0,0-11.5,7.2-32.7,7.2h-0.5
			c-21.1-0.1-32.6-7.2-32.6-7.2L57.7,57.4c3.4,58.5,19.7,93.5,34,114.3c15.2,22.1,33.3,40.2,33.3,40.2S143,193.8,158.3,171.7z"/>
		<path class="st0" d="M91.5,43.1v119.4c0,0-25.2-36.4-28.6-102.3C80.2,50.5,91.5,43.1,91.5,43.1z"/>
		<path class="st2" d="M158.5,43.1v119.4c0,0,25.2-36.4,28.6-102.3C169.8,50.5,158.5,43.1,158.5,43.1L158.5,43.1z"/>
		<g>
			<path class="st0" d="M97.8,121.9v-5.3h6.3v3.7h3.4v-3.8h6.5v3.8h4.7v1.7h-6.4v-3.8h-3.1v3.8h-6.8v-3.7h-2.8v3.6L97.8,121.9z
				 M152.2,121.9v-5.3h-6.3v3.7h-3.4v-3.8H136v3.8h-4.7v1.7h6.4v-3.8h3.1v3.8h6.8v-3.7h2.8v3.6L152.2,121.9z M125.1,114.2
				c1.3,0,2.8,0.9,2.8,2.7v5.2h1.7v-5.4c0-0.3-0.1-1.9-1.5-3.1c-1.2-1-2.7-1.1-3.1-1.1h-0.2c-0.3,0-1.9,0.1-3.1,1.1
				c-1.3,1.2-1.5,2.7-1.5,3.1v5.4h1.7v-5.2c0-1.8,1.5-2.7,2.8-2.7H125.1z"/>
			<path class="st0" d="M125.1,108.8c0.5,0,4.9,0,8.2-0.2c3.5-0.2,6.2-0.5,8.3-0.9l0.5,3.8h4.7c0,0-1.5,1-4.6,1.4l0.4,3.5h1.8
				l-0.2-2c0,0,1.2-0.2,3.1-1.2c1.9-0.9,4.6-3.1,5.2-3.5h-8.8l-0.5-4.2c0,0-2.4,0.5-5.7,0.9c-3.2,0.3-7.4,0.5-12.3,0.5h-0.2
				c-4.9,0-9-0.2-12.2-0.5c-3.3-0.3-5.7-0.9-5.7-0.9l-0.5,4.2h-8.8c0.5,0.5,3.2,2.5,5.2,3.5c1.9,0.9,3.1,1.2,3.1,1.2l-0.2,2h1.8
				l0.4-3.5c-3.1-0.4-4.6-1.4-4.6-1.4h4.7l0.5-3.8c2,0.3,4.9,0.7,8.3,0.9C120,108.8,124.1,108.8,125.1,108.8L125.1,108.8
				L125.1,108.8z M112.4,126.9h-1c0,0-0.7,0.9-2.1,1.3v0.7c0,0,0.9-0.1,1.2,0.2c0.2,0.2,0.2,0.7,0.2,1.1v4.4h1.7L112.4,126.9z
				 M121.9,128.5c-0.1-0.8-0.5-1.7-2.3-1.7c-1.7,0-2.1,1-2.2,1.6c-0.1,0.7-0.1,2.3,0.1,2.7c0.2,0.5,0.8,0.8,1.3,0.8
				c0.5,0,0.9-0.2,1-0.5l0.2,0.1c0,0,0,0.9,0,1.6c0,0.7-0.5,0.6-0.5,0.6s-0.3,0-0.4-0.2c-0.1-0.2-0.1-0.6-0.1-0.8h-1.7
				c0,0-0.2,2,2.3,2c2.5,0,2.3-1.8,2.3-3.2C121.9,130.1,122,129.3,121.9,128.5L121.9,128.5z M120.2,130.3c0,0.3-0.1,0.6-0.5,0.6
				c-0.4,0-0.5-0.3-0.5-0.7s0-1.8,0-1.8s0-0.7,0.5-0.7c0.4,0,0.5,0.4,0.5,0.7L120.2,130.3L120.2,130.3z M131.3,128.5
				c-0.1-0.8-0.5-1.7-2.3-1.7c-1.7,0-2.1,1-2.2,1.6c-0.1,0.7-0.1,2.3,0.1,2.7c0.2,0.5,0.8,0.8,1.3,0.8c0.5,0,0.9-0.2,1-0.5l0.2,0.1
				c0,0,0,0.9,0,1.6c0,0.7-0.5,0.6-0.5,0.6s-0.3,0-0.4-0.2c-0.1-0.2-0.1-0.6-0.1-0.8h-1.7c0,0-0.2,2,2.3,2s2.3-1.8,2.3-3.2
				C131.3,130.1,131.3,129.3,131.3,128.5L131.3,128.5z M129.5,130.3c0,0.3-0.1,0.6-0.5,0.6s-0.5-0.3-0.5-0.7s0-1.8,0-1.8
				s0-0.7,0.5-0.7c0.4,0,0.5,0.4,0.5,0.7L129.5,130.3L129.5,130.3z M140.3,126.9h-4l-0.1,3.8h1.7c0,0-0.1-0.7,0.5-0.7
				c0.5,0,0.5,0.5,0.5,0.7v2.1c0,0.8-0.1,0.9-0.5,0.9s-0.5-0.2-0.5-1c0-0.8,0-0.9,0-0.9h-1.7c0,0,0,1,0.2,1.6
				c0.2,0.5,0.7,1.3,2.2,1.3c1.5,0,2-0.8,2.1-1.5c0.1-0.7,0.1-2,0-2.7c0-0.8-0.4-1.6-1.5-1.6c-1.1,0-1.3,0.7-1.3,0.7v-1.7h2.4V126.9
				L140.3,126.9z"/>
		</g>
		<path class="st3" d="M147.6,56.8c0,0,2.4-0.5,3-0.7c-0.1-0.1-0.3-0.1-0.3-0.1c-1,0-2.7,0.6-2.7,0.6
			C147.4,56.7,147.6,56.8,147.6,56.8z"/>
		<path class="st0" d="M104.1,60.8h-5l1.7,2.9l0.9-1.4h0.9c0.9,0,0.3,0.9,0.3,0.9c-0.3,0.6-1.2,0.7-1.2,0.7h-3.1L96,68.8h3.8
			c2.4,0,3.8-2.2,3.8-2.2c1-1.4-0.2-2-0.2-2c1.4-0.4,2.3-2,2.3-2C106.2,61,104.1,60.8,104.1,60.8z M100.6,66.9
			c-0.4,0.5-1.1,0.5-1.1,0.5h-0.7l1.1-1.9l0.9,0.1C101.4,65.8,100.6,66.9,100.6,66.9z M107.1,60.8h2.2l-4.3,8h-2.2l3.8-7.1h-0.5
			L107.1,60.8z M108,64.8h-0.5l1.1-0.9h2l-1.9,3.4c0,0-0.6,0.9,0.7,0.5c0,0,0.2-0.1,0.4-0.5l1.3-2.4h-0.5l1-0.9h2.1l-2.7,4.9h-1.9
			l0.2-0.4c0,0-1,0.7-1.8,0.6c0,0-0.7,0.1-1.2-0.4c0,0-0.2-0.2,0.1-0.9L108,64.8L108,64.8z M117.5,63.7c-2.7-0.2-3.7,1.6-3.7,1.6
			l-1.2,2c-0.5,0.8,0,1.3,0,1.3c0.9,0.5,2,0.5,2,0.5c2.4,0,3.4-1.9,3.4-1.9h-2c-0.5,0.9-1.1,0.9-1.1,0.9c-0.7,0-0.3-0.6-0.3-0.6
			l0.5-0.8h3.4l0.9-1.6C119.8,63.8,117.5,63.7,117.5,63.7L117.5,63.7z M117.1,65.2l-0.2,0.4h-1.4c0.6-1,1.1-0.9,1.1-0.9
			C117.5,64.6,117.1,65.2,117.1,65.2z M102.4,72h-1.3v-0.1l1.8-1.6h3.6l-3.5,8.9l6.3-8.8h3.6l-3.2,8.8l6-8.8h3.6l-9.4,12.4h-4.2
			l3.4-8.5l-6,8.4h-4.1L102.4,72z M116.7,76h-0.9l1.9-1.6h3.2l-4.5,8.2h-3.5L116.7,76z M129.2,74.2c-2.1-0.2-3.6,1-4,1.3l0.5-1.1
			h-3.2l-1.9,1.6h0.9l-3.8,6.7h3.5l2.8-5.3c0.9-1.1,1.7-1.3,1.7-1.3c0.9-0.1,0.5,0.7,0.5,0.7l-3.4,5.9h3.5l3.8-6.9
			C131,74.6,129.2,74.2,129.2,74.2L129.2,74.2z M138.2,74.5l-0.7,1.2c0,0,0.1-1.3-1.6-1.4c0,0-2.4-0.5-4.6,2.4l-2.1,3.7
			c0,0-0.9,1.7,0.9,2.2c0,0,1.6,0.5,3.7-0.8l-0.9,1.4c0,0-0.3,0.8-1.5,0.9c0,0-1.4,0.2-0.6-0.8h-3.4c0,0-1,1.8,0.9,2.2
			c0,0,3.2,0.6,5.7-0.4c0,0,1.6-0.6,2.8-2.5l4.5-8L138.2,74.5L138.2,74.5z M136.4,77.1l-1.4,2.5c0,0-0.5,1.1-1.6,0.9
			c0,0-0.9,0-0.4-0.9l1.3-2.5c0,0,0.7-1.2,1.7-1.1C136,76.1,136.8,76.2,136.4,77.1L136.4,77.1z M149.6,76.8c0,0,0.4-0.5,0.4-1.2l0,0
			c0-0.1,0-0.2,0-0.2l0,0c-0.2-0.6-0.9-0.9-1.5-1c-1-0.2-3.4-0.4-5.2,0.4c0,0-2.4,0.9-2.7,2.7c0,0,0,1.2,1.8,1.8l1.4,0.5
			c0,0,1.6,0.7-0.3,1.5c0,0-0.6,0.2-1,0.1l0,0c0,0,0,0-0.1,0c0,0,0,0-0.1,0c-0.9-0.3-0.4-1-0.2-1.2H139c0,0-1.3,2,1.1,2.7
			c0,0,4.4,0.7,6.5-1.1c0,0,1.6-1.3,1.6-2.5c-0.1-0.5-0.5-0.8-0.9-1l-1.9-0.9c0,0-1.6-0.5-0.9-1.2c0,0,0.4-0.3,0.9-0.5
			c0.2-0.1,0.5-0.1,0.8-0.1h0.1l0,0c0.2,0.1,0.5,0.3,0.2,1.1L149.6,76.8L149.6,76.8L149.6,76.8z M154.1,54.4c-0.1-0.2-1.4,0-1.4,0
			c-16.2,2.4-26,6.4-26,6.4c-4.2,1.5-5.7,3.5-5.7,3.5c-0.9,1.3,0.2,1.8,0.2,1.8c0.3,0.2,0.9,0.2,0.9,0.2l1.3,0.2
			c1.4,0.2,0.5,1.7,0.5,1.7l-2.7,4.8c-0.2,0.2,0.2,0.1,0.2,0.1l6.4-2.8l1.8-3.4h4.1l2.5-1.3c0.3-0.2,0.4-0.3,0.4-0.3
			c0-0.2-0.3-0.1-0.3-0.1l-1.3,0.3c-0.5,0.2-0.5,0.1-0.5,0.1l3.3-1.4c0.9-0.4,0.6-0.5,0.6-0.5c-0.1-0.2-1.2,0.3-1.2,0.3
			c-0.5,0.2-0.5,0.1-0.5,0.1l4.7-2.1c0.6-0.2,0.5-0.2,0.5-0.2c0-0.2-0.5,0-0.5,0l-3.4,1.2c-0.6,0.2,0-0.2,0-0.2l5.3-2
			c0.8-0.3,0.7-0.4,0.7-0.4c-0.1-0.2-1.1,0.2-1.1,0.2c-0.5,0.2-0.4,0-0.4,0l2.5-0.9c0.5-0.2,0.4-0.4,0.4-0.4
			c-0.1-0.2-2.1,0.3-2.1,0.3c-0.1-0.2-1.1,0-1.1,0l0,0c-3.9,1-3.5,0.6-3.5,0.6c0.3-0.2,4.6-1.3,7.3-2l2-0.6c0.5-0.2,0.4-0.2,0.4-0.2
			c-0.1-0.1-0.6,0-0.6,0l-0.3,0.1c-2.7,0.7-3.3,0.7-3.3,0.7c0.3-0.2,1.6-0.5,2-0.7c0.2-0.1,0.2-0.2,0.2-0.2c0-0.1-0.8,0-0.8,0
			l-0.4,0.1c-1.3,0.2-2,0.4-2.4,0.4l-0.2,0.1l0.4-0.2c-0.2,0-0.2,0-0.2,0l7.2-1.9l3.1-0.9C154.2,54.4,154.1,54.4,154.1,54.4
			L154.1,54.4z M135.9,63.7c0,0,0.1-0.3,0.7-0.5c0,0,0.5-0.2,0.8-0.2C137.4,63,137.3,63.3,135.9,63.7z M142.3,60.5
			c0,0,0.3,0.2-1.3,0.5c-0.2,0.1-0.4,0.1-0.5,0.2h-0.1c0,0-0.1,0-0.2,0c-0.3,0.1-0.5,0-0.5,0c0.8-0.3,1.4-0.5,1.9-0.6
			C141.9,60.5,142.1,60.5,142.3,60.5L142.3,60.5z"/>
		<path class="st2" d="M129.9,66.8l-3.3,6l14.8-6H129.9z"/>
		<g>
			<path class="st0" d="M105.8,162v-0.3c0-0.5-0.1-0.9-0.2-1.2c-0.2-0.2-0.4-0.3-0.8-0.3c-0.4,0-0.6,0.1-0.9,0.3
				c-0.2,0.2-0.3,0.5-0.3,0.9c0,0.3,0.1,0.6,0.3,0.9c0.2,0.2,0.6,0.5,1.2,0.7c1.1,0.5,1.8,1,2.3,1.5c0.4,0.5,0.6,1.1,0.6,1.8
				c0,1-0.3,1.9-0.9,2.4c-0.5,0.5-1.4,0.8-2.5,0.8c-1.2,0-2-0.2-2.6-0.7c-0.5-0.5-0.8-1.3-0.8-2.4V166h2.1v0.3
				c0,0.5,0.1,0.9,0.3,1.2c0.2,0.2,0.5,0.4,0.9,0.4c0.4,0,0.7-0.1,0.9-0.3s0.3-0.5,0.3-1c0-0.3-0.2-0.6-0.4-0.9
				c-0.2-0.2-0.6-0.5-1.3-0.8c-1-0.5-1.7-0.9-2.2-1.4c-0.4-0.5-0.6-1-0.6-1.7c0-1,0.3-1.8,0.9-2.3c0.5-0.5,1.4-0.8,2.5-0.8
				c1.2,0,2,0.2,2.4,0.7c0.5,0.5,0.6,1.2,0.6,2.2v0.2v0.3h-2V162z M116.9,166.4c0,1-0.2,1.8-0.8,2.4c-0.5,0.5-1.3,0.8-2.4,0.8
				s-1.9-0.2-2.4-0.8s-0.8-1.3-0.8-2.4v-7.6h2.2v7.8c0,0.5,0.1,0.9,0.2,1.1c0.2,0.2,0.5,0.3,0.9,0.3c0.4,0,0.7-0.1,0.9-0.3
				c0.2-0.2,0.2-0.5,0.2-1.1v-7.8h2.2v7.6H116.9z M133.5,168.6c-0.5-0.5-0.7-1.5-0.7-2.8v-4.3c0-1,0.2-1.7,0.8-2.2
				c0.5-0.5,1.3-0.7,2.4-0.7s2,0.2,2.5,0.7c0.5,0.5,0.9,1.3,0.9,2.2v4.3c0,1.3-0.2,2.3-0.7,2.8c-0.5,0.5-1.3,0.8-2.6,0.8
				C134.9,169.5,134,169.2,133.5,168.6z M137,167.5c0.2-0.3,0.2-0.8,0.2-1.5v-4.3c0-0.5-0.1-0.9-0.3-1.1c-0.2-0.2-0.5-0.4-0.9-0.4
				c-0.4,0-0.6,0.2-0.9,0.4c-0.2,0.2-0.3,0.6-0.3,1.1v4.3c0,0.7,0.1,1.2,0.2,1.5c0.2,0.3,0.5,0.4,0.9,0.4
				C136.5,167.9,136.8,167.7,137,167.5L137,167.5z M143.4,169.3h-1.8v-10.6h3.2l1.9,8.9v-8.9h1.8v10.6h-3.1l-1.9-9L143.4,169.3
				L143.4,169.3L143.4,169.3z"/>
		</g>
		<path class="st0" d="M128.5,168.9h-2l-1.5-7l0,0l-1.4,7h-2l-2.3-10.2h1.9l1.4,7l0,0l1.5-7h1.8l1.5,7.1l0,0l1.4-7.1h1.9
			L128.5,168.9z"/>
	</g>
</g>
<g id="레이어_1">
	<rect x="8" y="8" class="st4" width="234" height="234"/>
</g>
<rect x="8" y="34.8" class="st4" width="234" height="180.4"/>
</svg>
