<?xml version="1.0" encoding="utf-8"?>
<!-- Generator: Adobe Illustrator 25.1.0, SVG Export Plug-In . SVG Version: 6.00 Build 0)  -->
<svg version="1.1" id="Layer_1" xmlns="http://www.w3.org/2000/svg" xmlns:xlink="http://www.w3.org/1999/xlink" x="0px" y="0px"
	 viewBox="0 0 250 250" style="enable-background:new 0 0 250 250;" xml:space="preserve">
<style type="text/css">
	.st0{fill:#013F8A;}
	.st1{fill:#FFFFFF;}
	.st2{fill:none;}
</style>
<g id="Layer_1_1_">
	<g>
		<path class="st0" d="M124.9,34.1c-4.6,3.2-8.9,6.6-14.1,9.2c-6.6,3.4-7.2,4.3-16.5,4.4l-38.9,0.6v85.7
			c3.9,48.5,49.2,76.4,69.5,81.6c20.3-5.3,65.8-33.1,69.7-81.6V48.4l-38.9-0.3c-9.3-0.1-10-1.4-16.7-4.7
			C133.8,40.7,129.5,37.3,124.9,34.1z"/>
		<path class="st1" d="M124.4,37.5c-4.1,2.9-8.2,5.9-12.7,8.2c-2.5,1.2-4.8,2.6-7.5,3.3c-2.7,0.7-5.6,1.5-8.4,1.6c-3,0-5.8,0-8.8,0
			H57.4v83.3c0.1,0.9,0.2,1.8,0.2,2.7c0.2,1.1,0.3,2.3,0.5,3.3c0.3,1.9,0.7,3.9,1.2,5.7c0.1,0.4,0.2,0.7,0.2,1.1
			c0.8,3,1.6,5.8,2.7,8.6c0.2,0.5,0.3,0.9,0.5,1.3c0.1,0.2,0.2,0.5,0.3,0.9c0.5,1.1,0.9,2.1,1.4,3.2c2.3,4.9,5,9.6,8.2,13.9
			c1,1.4,2.1,2.8,3.2,4.2c3,3.7,6.4,7.3,9.9,10.6c5.4,5,11.3,9.6,17.6,13.4c4.6,2.8,9.3,5.4,14.3,7.4c2.3,0.9,4.8,1.9,7.2,2.5
			c0.6-0.2,1.2-0.4,1.9-0.5c2.8-0.9,5.5-1.9,8.2-3.2c5.9-2.7,11.5-6,16.9-9.7c4.3-3,8.5-6.4,12.3-10c5.4-5,10.2-10.6,14.3-16.6
			c0.5-0.9,1.1-1.6,1.6-2.5c0.5-0.9,1-1.7,1.6-2.6c1.6-2.7,3-5.5,4.3-8.4c0.8-1.8,1.6-3.6,2.2-5.4c0.3-0.9,0.6-1.9,0.9-2.9
			c1.2-3.7,2.1-7.6,2.7-11.5c0.2-1.5,0.4-2.9,0.5-4.3c0.1-0.8,0.2-1.6,0.1-2.4l-0.1-82.1c-12.3,0.2-24.8-0.1-37.1,0
			c-3-0.1-5.7-0.4-8.8-1.2c-3-0.9-4.3-1.8-6.3-2.8c-2.1-1.1-4.2-2.2-6.2-3.4c-3-1.9-5.9-4-8.9-6.1L124.4,37.5z"/>
		<path class="st0" d="M124.4,42.7c-3.7,2.6-7.4,5-11.4,7c-2.6,1.4-5.4,2.7-8.3,3.4c-3.5,0.8-7.1,1.4-10.6,1.4
			c-5.4,0-10.7,0.1-16.1,0H61.8v79.1c0.1,0.9,0.2,1.7,0.2,2.6c0,0.2,0.1,0.5,0.1,0.9c0.2,1.7,0.5,3.3,0.9,5c0.4,2.1,0.9,4.1,1.6,6.1
			c1.4,4.7,3.3,9.3,5.5,13.7c3.3,6.4,7.5,12.3,12.2,17.6c2.3,2.6,4.7,5.1,7.3,7.5c3,2.7,6,5.2,9.2,7.5c4.1,3,8.5,5.7,12.9,8.2
			c0.3,0.2,0.6,0.3,0.9,0.5c2.4,1.2,5,2.5,7.5,3.5c0.2,0.1,0.5,0.2,0.8,0.3c0.9,0.3,1.7,0.6,2.6,0.9c0.2,0.1,0.5,0.2,0.8,0.2
			c0.2,0.1,0.5,0.2,0.7,0.2c1.7-0.5,3.3-1.1,5-1.8c0.4-0.2,0.9-0.3,1.2-0.5c2.3-1,4.7-2.1,6.8-3.3c0.4-0.2,0.8-0.4,1.1-0.6
			c4.6-2.5,8.9-5.4,13.1-8.5c0.4-0.3,0.8-0.6,1.2-0.9c6.5-5,12.4-10.9,17.6-17.3c1.9-2.3,3.6-4.7,5.1-7.2c0.2-0.3,0.4-0.6,0.6-1
			c4.1-6.6,7.2-13.8,9.2-21.3c0.1-0.4,0.2-0.7,0.3-1.1c0.1-0.2,0.2-0.5,0.2-0.8c0.8-3.3,1.3-6.6,1.6-9.9c0.1-1.6,0-3.2,0.1-4.8
			c0-25.2,0-49.5,0-74.8c-11.1,0.1-22.3-0.1-33.3,0c-3.4-0.1-6.8-0.7-10.1-1.6c-3.1-0.9-6-2.4-8.9-3.9c-3.4-1.7-6.6-3.8-9.7-6
			c-0.4-0.3-0.9-0.5-1.2-0.9L124.4,42.7z"/>
		<path class="st1" d="M94.7,77.8v9.6c0,0.6-0.1,1.2-0.3,1.6s-0.5,0.9-0.9,1.3c-0.4,0.4-0.9,0.7-1.4,0.9c-0.5,0.2-1.1,0.3-1.6,0.3
			h-9.9c-0.5,0-1.2-0.1-1.6-0.3c-0.5-0.2-0.9-0.5-1.3-0.9c-0.4-0.4-0.7-0.9-0.9-1.3c-0.2-0.5-0.3-1.1-0.3-1.6v-9.6h3.5v9.9
			c0,0.3,0.1,0.6,0.3,0.9c0.2,0.2,0.5,0.4,0.9,0.4h9c0.3,0,0.6-0.2,0.9-0.4s0.4-0.5,0.4-0.9v-9.9H94.7L94.7,77.8z M100.2,77.8V89
			h12.7v2.8H96.7V77.8H100.2z M131.9,77.8v2.8h-13.3c-0.3,0-0.5,0.1-0.7,0.3c-0.2,0.2-0.3,0.5-0.3,0.7v0.8c0,0.3,0.1,0.5,0.3,0.7
			c0.2,0.2,0.5,0.3,0.7,0.3H129c1.2,0,2.2,0.3,2.7,1c0.5,0.6,0.9,1.5,0.9,2.6v1.2c0,0.5-0.1,0.9-0.2,1.3c-0.2,0.4-0.4,0.9-0.6,1.2
			c-0.3,0.3-0.6,0.6-1.1,0.8c-0.5,0.2-1,0.3-1.6,0.3h-14.6V89h13.7c0.3,0,0.5-0.1,0.7-0.3c0.2-0.2,0.3-0.5,0.3-0.7v-0.8
			c0-0.3-0.1-0.5-0.3-0.7c-0.2-0.2-0.5-0.3-0.7-0.3h-10.4c-0.5,0-0.9-0.1-1.4-0.2c-0.5-0.2-0.9-0.4-1.2-0.6
			c-0.3-0.2-0.5-0.6-0.8-0.9c-0.2-0.4-0.2-0.8-0.2-1.2v-1.9c0-0.5,0.1-0.9,0.2-1.3c0.2-0.4,0.5-0.8,0.8-1.1s0.7-0.5,1.2-0.7
			c0.5-0.2,0.9-0.2,1.4-0.2L131.9,77.8L131.9,77.8z M141.3,77.8l-8,13.9h3.8l6.6-11.6l6.7,11.6h3.8l-8-13.9H141.3z M173.5,77.8v13.9
			h-4.7l-10.3-10.9v10.9h-3.4V77.8h4.7l10.3,10.9V77.8H173.5z M124,60.1v11.7h-2.9v-4.7h-6.4l-2.3-2.3h8.6v-4.7H124z M111.7,60.1
			v11.7h-2.9V60.1H111.7z M137.6,60.1c0.5,0,0.9,0.1,1.4,0.3c0.4,0.2,0.8,0.5,1.1,0.8s0.5,0.7,0.8,1.2c0.2,0.5,0.3,0.9,0.3,1.4v4.5
			c0,0.5-0.1,0.9-0.3,1.4c-0.2,0.4-0.5,0.8-0.8,1.1s-0.7,0.6-1.1,0.8c-0.4,0.2-0.9,0.3-1.4,0.3h-6.2l-2.3-2.3h8.1
			c0.3,0,0.5-0.1,0.7-0.3c0.2-0.2,0.3-0.5,0.3-0.8v-5c0-0.3-0.1-0.5-0.3-0.7c-0.2-0.2-0.5-0.3-0.7-0.3h-8.5v9.4h-2.9V60.1H137.6z
			 M87.1,106.4l-1.7,16.4l5.1,5.1l-6.8,11.4L82.3,154l4.3,1.5l1.8,7l0.6,6.1l2,0.3l3.2,0.3l0.3-1.2l4.3,3.2l4.1,6.1l3-1.2l3,1.2
			l2.5,8.2l13.4,4.5l13.5-4.5l2.3-7.9l3.2-1.5l3,1.2l4.1-6.1l4.3-3.2l0.6,1.5l3-0.6h2l0.6-6.4l1.5-7l4.3-1.5l-0.9-14.3l-7-11.7l5-5
			l-1.8-16.4h-10.5l-7,2.6l-19.9-5l-20.4,5l-7.1-2.6L87.1,106.4z"/>
		<path class="st0" d="M89,108.7l-1.5,12.9l7,7l-3.2-7.9L89,108.7z M89.2,108.7l14.8,7l16.4-8.5l-15.8,4.3l-7.8-2.8H89.2z
			 M125,107.6l-12.9,7.5l12.8-4l13.1,4L125,107.6z"/>
		<path class="st0" d="M125,113.2l-15.8,7.5L123,118l2,8.5l2-8.5l13.7,2.6L125,113.2z M160.8,108.7l-14.8,7l-16.4-8.5l15.8,4.3
			l7.8-2.8H160.8z M161,108.6l1.5,12.9l-7,7l3.2-7.9L161,108.6z M94.8,117.1l3.3,9.3L93.4,139l8.2,10.8l-5-11.4l5-12.5L94.8,117.1z
			 M109.8,126.5l-8.2,6.1l6.4,8.8l5.6,0.9l-1.2,12l4.1-12.6l-3.5-5l-8.3-3.7L109.8,126.5z"/>
		<path class="st0" d="M113.9,130.3l5.7-5.8l-2.2,5.4l3,12.4L113.9,130.3z M136.2,130.2l-5.7-5.8l2.2,5.4l-3,12.4L136.2,130.2z
			 M140.1,126.4l8.2,6.1l-6.4,8.8l-5.6,0.9l1.2,12l-4.1-12.6l3.5-5l8.2-3.8L140.1,126.4z M155.2,117.2l-3.3,9.3l4.7,12.6l-8.2,10.8
			l5-11.4l-5-12.5L155.2,117.2z M92.8,144.3l7.3,15.2l8.2-8.8l-7,3.2L92.8,144.3z"/>
		<path class="st0" d="M92.7,128.3l-4,12.6l4.7,19l10.6,12.3l0.9,4.1l-4.1-6.4l-7.9-5.5l-1.8,4.3l-0.6-6.4l-3-12.9l-3,4.7l0.9-13.7
			L92.7,128.3z M157.2,144.2l-7.3,15.2l-8.2-8.8l7,3.2L157.2,144.2z"/>
		<path class="st0" d="M157.3,128.2l4,12.6l-4.7,19L146,172.1l-0.9,4.1l4.1-6.4l7.9-5.5l1.8,4.3l0.6-6.4l3-12.9l3,4.7l-0.9-13.7
			L157.3,128.2z M111.1,176.1l2.3,7.9l11.6,3.9l11.8-3.9l2.4-7.9l-4.4,5.3l-9.6,2.3l-9.6-2.3L111.1,176.1z"/>
		<path class="st0" d="M119.2,146.3l-4.3,14.3l8.8,5.5v4.7l-6.1,2.6l-7.9-1.5l-1.8-3l9.1,1.8l-11.7-5.8l1.5-3.2l10.3,5.8L108,158
			l1.5-4.1l-8.2,9.6l5.8,10.8l10.4,1.8l7.5-3l7.6,3l10.3-1.8l5.8-10.8l-8.2-9.6l1.5,4.1l-8.5,9.3l9.9-5.5l1.5,3.2l-11.7,5.8l9.1-1.8
			l-1.8,3l-7.6,1.5l-6.4-2.6v-4.7l8.8-5.5l-4.4-14.3l0.7,12.9l-6.4,1.7l-6.4-1.7L119.2,146.3z"/>
	</g>
</g>
<g id="레이어_1">
	<rect x="8" y="8" class="st2" width="234" height="234"/>
</g>
<rect x="8" y="34.8" class="st2" width="234" height="180.4"/>
</svg>
