<svg width="16" height="16" viewBox="0 0 16 16" fill="none" xmlns="http://www.w3.org/2000/svg">
<path d="M2 3.33326H14C14.1215 3.33364 14.2406 3.36715 14.3444 3.43018C14.4483 3.49321 14.533 3.58337 14.5895 3.69097C14.6459 3.79856 14.6719 3.9195 14.6647 4.04079C14.6575 4.16207 14.6174 4.27909 14.5487 4.37926L8.54866 13.0459C8.3 13.4053 7.70133 13.4053 7.452 13.0459L1.452 4.37926C1.38255 4.2793 1.34182 4.16222 1.33424 4.04073C1.32666 3.91925 1.35252 3.79801 1.40901 3.69019C1.46549 3.58237 1.55045 3.49209 1.65464 3.42917C1.75883 3.36624 1.87828 3.33307 2 3.33326Z" fill="black"/>
</svg>
