<svg width="32" height="32" viewBox="0 0 32 32" fill="none" xmlns="http://www.w3.org/2000/svg">
<path d="M23.5333 8.46664C22.4158 7.339 21.0592 6.47679 19.5637 5.94369C18.0683 5.4106 16.4722 5.22023 14.8933 5.38664C9.99999 5.87998 5.97332 9.85331 5.42665 14.7466C4.69332 21.2133 9.69332 26.6666 16 26.6666C18.0135 26.6666 19.9856 26.0953 21.6873 25.0191C23.389 23.9428 24.7504 22.4058 25.6133 20.5866C26.04 19.6933 25.4 18.6666 24.4133 18.6666C23.92 18.6666 23.4533 18.9333 23.24 19.3733C22.4659 21.0387 21.1418 22.3866 19.4905 23.1904C17.8393 23.9942 15.9616 24.2047 14.1733 23.7866C11.2133 23.1333 8.82665 20.72 8.19999 17.76C7.93656 16.5897 7.93961 15.3751 8.20891 14.2061C8.47821 13.0371 9.00687 11.9436 9.75579 11.0065C10.5047 10.0694 11.4547 9.31268 12.5355 8.79227C13.6164 8.27185 14.8004 8.00107 16 7.99998C18.2133 7.99998 20.1867 8.91998 21.6267 10.3733L19.6133 12.3866C18.7733 13.2266 19.36 14.6666 20.5467 14.6666H25.3333C26.0667 14.6666 26.6667 14.0666 26.6667 13.3333V8.54664C26.6667 7.35998 25.2267 6.75998 24.3867 7.59998L23.5333 8.46664Z" fill="#8E8E8E"/>
</svg>
