<?xml version="1.0" encoding="utf-8"?>
<!-- Generator: Adobe Illustrator 25.1.0, SVG Export Plug-In . SVG Version: 6.00 Build 0)  -->
<svg version="1.1" id="Layer_1" xmlns="http://www.w3.org/2000/svg" xmlns:xlink="http://www.w3.org/1999/xlink" x="0px" y="0px"
	 viewBox="0 0 2040 2040" style="enable-background:new 0 0 2040 2040;" xml:space="preserve">
<style type="text/css">
	.st0{fill-rule:evenodd;clip-rule:evenodd;fill:#1003A3;}
</style>
<path class="st0" d="M0,391.6v391.6l159.5,158.2l159.5,158.2v4.3l-159.5,157.7L0,1419.3v149.8l154-152.3l154-152.3l44.8-41.7
	l44.8-41.7l1.4-0.5l1.4-0.5l29,28.9l29,28.9l-229.2,227.4L0,1692.7v149.2l266.8-264.7l266.8-264.7l31.5,31.2l31.5,31.2l-298.2,295
	L0,1965v75h77.2l297.4-295l297.4-295l29.6,29.4l29.6,29.4l-263.3,261.2L204.6,2031v3h147.4l150.4-149.4l150.4-149.4l57.2-53.9
	l57.2-53.9l21.1-20.6l21.1-20.6l30,29.9l30,29.9l-197.1,195.5l-197.1,195.5v3h147.4l161-159.7l161-159.7l161,159.7l161,159.7H2040
	v-797l-153.4-152.3l-153.4-152.3l153.4-152.2L2040,633.9V484.6l-191.1,189.6l-191.1,189.6l-29.9-29.7l-29.9-29.7l148.3-148.9
	l148.3-148.9l72.7-72.8L2040,361V210l-260.3,258.2l-260.3,258.2l-29.6-29.4l-29.6-29.4l289.8-287.6L2040,92.6V0h-57.2L1684,296.5
	l-298.9,296.5l-31.6-31.3l-31.6-31.3l267.3-265.2L1856.4,0H1706l-229.7,227.9l-229.7,227.9l-29.4-29.4l-29.4-29.4l54.2-56.7
	l54.2-56.7l141.3-140.3L1578.6,3V0h-147.4l-161,159.7l-161,159.7l-161-159.7L787.3,0H0V391.6"/>
</svg>
