<?xml version="1.0" encoding="utf-8"?>
<!-- Generator: Adobe Illustrator 25.1.0, SVG Export Plug-In . SVG Version: 6.00 Build 0)  -->
<svg version="1.1" xmlns="http://www.w3.org/2000/svg" xmlns:xlink="http://www.w3.org/1999/xlink" x="0px" y="0px"
	 viewBox="0 0 250 250" style="enable-background:new 0 0 250 250;" xml:space="preserve">
<style type="text/css">
	.st0{fill:none;}
	.st1{clip-path:url(#SVGID_2_);}
	.st2{fill:#221E1F;}
	.st3{fill:#CF1D24;}
</style>
<g id="Layer_1">
</g>
<g id="레이어_1">
	<rect x="8" y="8" class="st0" width="234" height="234"/>
	<g>
		<g>
			<defs>
				<rect id="SVGID_1_" x="47" y="8" width="156" height="234"/>
			</defs>
			<clipPath id="SVGID_2_">
				<use xlink:href="#SVGID_1_"  style="overflow:visible;"/>
			</clipPath>
			<g class="st1">
				<path class="st2" d="M78.6,8.1v6.6c0,0.4-0.1,0.8-0.2,1.1s-0.4,0.7-0.7,0.9c-0.7,0.5-1.6,0.8-2.5,0.8h-0.6l-0.4-0.1l-0.5-0.1
					l-0.6-0.1v-1.9c0.7,0.1,1.3,0.2,2,0.2c0.5,0,0.8-0.1,0.9-0.3c0.1-0.3,0.2-0.7,0.2-1V8.1C76.3,8.1,78.6,8.1,78.6,8.1z M84.9,8.1
					h2.3v6.7c0,0.4-0.1,0.8-0.2,1.1s-0.4,0.6-0.7,0.9c-0.8,0.6-1.7,0.9-2.6,0.8c-0.9,0.1-1.9-0.2-2.6-0.8c-0.3-0.3-0.5-0.6-0.7-0.9
					s-0.2-0.7-0.2-1.1V8.1h2.3v6.7c0,0.1,0,0.3,0.1,0.4c0.1,0.1,0.2,0.2,0.3,0.3c0.3,0.1,0.6,0.2,0.9,0.2c0.3,0,0.6-0.1,0.9-0.2
					c0.1-0.1,0.2-0.2,0.3-0.3c0.1-0.1,0.1-0.3,0.1-0.4L84.9,8.1L84.9,8.1z M95.7,8.1v9.3h-2l-2.4-3.8l-0.5-1.2h-0.1l0.1,1.5v3.5
					h-2.1V8.1h2l2.4,4l0.4,1h0.1l-0.1-1.5V8.1H95.7L95.7,8.1z M100.6,17.5c-0.9,0.1-1.8-0.2-2.6-0.8c-0.3-0.3-0.5-0.6-0.7-0.9
					c-0.2-0.4-0.2-0.8-0.2-1.1v-3.9c0-0.4,0.1-0.8,0.2-1.1C97.5,9.3,97.7,9,98,8.8c0.7-0.5,1.6-0.8,2.6-0.8c0.9,0,1.8,0.1,2.7,0.3
					v1.9c-0.9-0.2-1.8-0.3-2.7-0.3c-0.2,0-0.4,0-0.5,0.1s-0.3,0.2-0.5,0.3c-0.2,0.3-0.3,0.6-0.3,0.9v3.2c0,0.2,0,0.4,0.1,0.5
					c0.1,0.2,0.2,0.3,0.3,0.4s0.3,0.2,0.5,0.3c0.2,0.1,0.3,0.1,0.5,0c0.4,0,0.8,0,1.2-0.1v-2.8h2v4.4
					C102.8,17.4,101.7,17.5,100.6,17.5L100.6,17.5z M106.9,17.4V8.1h2.3v9.3L106.9,17.4z M111.9,12.7l2.2-4.6h-2.5l-2.2,4.8l2.3,4.6
					h2.6C114.3,17.4,111.9,12.7,111.9,12.7z M124.2,17.4h-2.2l-1.1-3.8l-1.1,3.8h-2.2l-2.7-9.3h2.4l1.1,4.3l0.3,2.2h0.1l0.3-2.2
					l0.7-2.6l-0.5-1.7h2.4l1.1,4.3l0.3,2.2h0.1l0.3-2.2l1.2-4.3h2.3L124.2,17.4z M131.6,8.1l2.7,9.3h-2.4l-0.5-1.7h-2.1l-0.5,1.7
					h-2.3l2.7-9.3H131.6L131.6,8.1z M129.8,13.9h1.1l-0.2-0.7l-0.3-2.2h-0.1l-0.3,2.2L129.8,13.9z M142.2,8.1v9.3h-2l-2.3-3.8
					l-0.5-1.2h-0.1l0.1,1.5v3.5h-2.1V8.1h2l2.4,4l0.4,1h0.1l-0.1-1.5V8.1H142.2z M150.2,8.1v6.6c0,0.4,0,0.8-0.2,1.1
					s-0.4,0.7-0.6,0.9c-0.7,0.5-1.6,0.8-2.5,0.8h-0.6l-0.4-0.1l-0.5-0.1l-0.5-0.1v-1.9c0.7,0.1,1.3,0.2,2,0.2c0.5,0,0.8-0.1,0.9-0.3
					c0.1-0.3,0.2-0.7,0.2-1V8.1H150.2L150.2,8.1z M155.9,8.1l2.7,9.3h-2.4l-0.5-1.7h-2.1l-0.5,1.7h-2.3l2.7-9.3H155.9z M154.2,13.9
					h1.1l-0.2-0.7l-0.3-2.2h-0.1l-0.3,2.2L154.2,13.9z M166.6,8.1v9.3h-2l-2.4-3.8l-0.5-1.2h-0.1l0.1,1.5v3.5h-2.1V8.1h2l2.4,4
					l0.4,1h0.1l-0.1-1.5V8.1H166.6z M171.4,17.5c-0.9,0.1-1.8-0.2-2.5-0.8c-0.3-0.3-0.5-0.6-0.7-0.9c-0.2-0.4-0.2-0.8-0.2-1.1v-3.9
					c0-0.4,0.1-0.8,0.2-1.1c0.2-0.4,0.4-0.7,0.7-0.9c0.7-0.5,1.6-0.8,2.6-0.8c0.9,0,1.8,0.1,2.7,0.3v1.9c-0.9-0.2-1.8-0.3-2.7-0.3
					c-0.2,0-0.3,0-0.5,0c-0.2,0.1-0.3,0.1-0.5,0.3c-0.1,0.1-0.2,0.3-0.3,0.4s-0.1,0.3,0,0.5v3.2c0,0.2,0,0.4,0,0.5
					c0.1,0.2,0.2,0.3,0.3,0.4c0.1,0.1,0.3,0.2,0.4,0.3s0.3,0.1,0.5,0.1c0.4,0,0.8,0,1.2-0.1v-2.9h2v4.4
					C173.6,17.4,172.5,17.5,171.4,17.5z M57.7,41.9l2.6,7.9h-5.2l-2.4-7.9H52v8h-5V24.8h9.5l3.4,3.2v11.6
					C59.9,39.7,57.7,41.9,57.7,41.9z M52,29.2v8.6h2.5c0.4,0,0.5-0.1,0.5-0.5v-7.6c0-0.3-0.1-0.5-0.5-0.5C54.5,29.2,52,29.2,52,29.2
					z M187.3,41.9l2.6,8h-5.2l-2.4-8h-0.7v7.9h-5v-25h9.5l3.4,3.2v11.6L187.3,41.9L187.3,41.9z M181.7,29.2v8.6h2.5
					c0.4,0,0.5-0.1,0.5-0.5v-7.6c0-0.3-0.1-0.5-0.5-0.5H181.7z M62,24.8h9.7l0.9,4.7h-5.5v6h4.2v4.3h-4.2v5.5h5.3l-0.9,4.7H62
					C62,49.9,62,24.8,62,24.8z M83.3,49.9h-8.9V24.8h9.8l3,3.1V46C87.2,46,83.3,49.9,83.3,49.9z M79.4,29.2v16.3h2.3
					c0.4,0,0.5-0.1,0.5-0.5V29.7c0-0.3-0.1-0.5-0.4-0.5C81.8,29.2,79.4,29.2,79.4,29.2z M106.6,39.5V46l-3.9,3.9h-9.1V24.8h9.8
					l3,3.1v6.9l-1.7,2.6L106.6,39.5z M98.6,29.2v6.6h2.3c0.1,0,0.2,0,0.3,0c0.1,0,0.2-0.1,0.2-0.1c0.1-0.1,0.1-0.1,0.1-0.2
					c0-0.1,0-0.2,0-0.3v-5.5c0-0.3-0.1-0.5-0.4-0.5H98.6z M101.6,40.3c0-0.6-0.3-0.7-0.8-0.7h-2.3v5.9h2.5c0.4,0,0.5-0.1,0.5-0.5
					V40.3L101.6,40.3z M118.1,49.9h-5.8l-3.6-3.5V28.1l3.4-3.2h6.2l3.4,3.2v18.3L118.1,49.9z M114.2,29.2c-0.3,0-0.4,0.2-0.4,0.5V45
					c0,0.4,0.1,0.5,0.5,0.5h1.9c0.4,0,0.5-0.1,0.5-0.5V29.7c0-0.3-0.1-0.5-0.4-0.5L114.2,29.2L114.2,29.2z M133.1,49.9h-5.8
					l-3.6-3.5V28.1l3.4-3.2h6.2l3.4,3.2v18.3L133.1,49.9z M129.2,29.2c-0.3,0-0.4,0.2-0.4,0.5V45c0,0.4,0.1,0.5,0.5,0.5h1.9
					c0.4,0,0.5-0.1,0.5-0.5V29.7c0-0.3-0.1-0.5-0.4-0.5L129.2,29.2L129.2,29.2z M146.2,49.9h-6.2l-0.9-4.7h5.4
					c0.4,0,0.6-0.1,0.6-0.5v-4.6c0-0.7-0.3-0.7-0.9-0.7h-2.6l-2.8-2.8v-8.5l3.4-3.2h6.9l0.9,4.7h-5.7c-0.4,0-0.6,0.2-0.6,0.6v4.6
					c0,0.5,0.3,0.7,0.8,0.7h3.2l2.5,2.6v8.3L146.2,49.9L146.2,49.9z M199.1,49.9h-6.2l-0.9-4.6h5.4c0.4,0,0.6-0.1,0.6-0.5v-4.6
					c0-0.7-0.3-0.7-0.9-0.7h-2.6l-2.8-2.8v-8.5l3.4-3.2h6.9l0.9,4.7h-5.7c-0.4,0-0.6,0.2-0.6,0.6v4.6c0,0.5,0.3,0.7,0.8,0.7h3.2
					l2.5,2.6v8.3L199.1,49.9L199.1,49.9z M161.7,24.8l1.3,4.7h-3.3v20.4h-5.1V29.5h-3.3l1.3-4.7H161.7z M164.4,24.8h9.7l0.9,4.7
					h-5.5v6h4.1v4.3h-4.1v5.5h5.3l-0.9,4.7h-9.5L164.4,24.8L164.4,24.8z M125.9,100.7V146l11,4.8l-11,91.3l64.1-41.5v-47.8
					l-12.2-5.2l12.2-13.1v-25.2l11.8-19.7h-60.1c-1.3,3.2-3.5,5.8-6.3,7.8C132.6,99.4,129.3,100.5,125.9,100.7L125.9,100.7z
					 M150.2,109.3h15.4v32.9l-15.4-6.8V109.3L150.2,109.3z M150.2,156.5l15.4,6.7l-0.7,24.5l-15.3,9.9L150.2,156.5L150.2,156.5z"/>
				<path class="st3" d="M108.3,89.6H48.2L60,109.3v91.3l24.3,15.8v-51.9l15.4,6.6v55.2L124,242v-84.5l-15.4-6.7l12.7-50.4
					c-2.9-0.6-5.6-1.9-7.8-3.8C111.2,94.7,109.4,92.3,108.3,89.6L108.3,89.6z M90.8,142.9l-6.4-2.8v-30.9H98L90.8,142.9z M203,60.2
					H47v19.7h60.1c0.6-4.3,2.8-8.2,6.1-11s7.5-4.4,11.8-4.4s8.5,1.5,11.8,4.4s5.5,6.7,6.1,11h60.1L203,60.2z"/>
				<path class="st3" d="M141.2,79.9c-1-2.4-2.5-4.5-4.4-6.2c-1.9-1.8-4.1-3.1-6.5-4c1-0.6,2.2-0.9,3.3-1c2,1.2,3.7,2.9,5,4.8
					C140,75.4,140.9,77.6,141.2,79.9L141.2,79.9z M128.3,73.4c0.6,0.9,1.2,1.9,1.9,2.8c3.5,4.6,8.7,11.6,3.1,20.6
					c-2.3,1.4-4.9,2.2-7.6,2.3V70.5c0.7,0,1.3,0.1,2,0.2C127.6,71.6,127.8,72.6,128.3,73.4L128.3,73.4z M119.7,76.2
					c0.7-0.9,1.4-1.8,1.9-2.8c0.5-0.8,0.7-1.8,0.6-2.7c0.6-0.1,1.3-0.2,2-0.2V99c-2.7-0.1-5.3-0.9-7.6-2.3
					C111,87.8,116.2,80.8,119.7,76.2L119.7,76.2z M118.5,67.5c1.8-0.8,3.7-1.2,5.7-1.3v2.6c-0.9,0-1.8,0.2-2.7,0.3
					C120.7,68.3,119.6,67.7,118.5,67.5z M125.8,68.8v-2.6c2,0.1,3.9,0.5,5.7,1.3c-1.1,0.3-2.2,0.9-3,1.7
					C127.6,69,126.7,68.9,125.8,68.8L125.8,68.8L125.8,68.8z M116.2,68.6c1.2,0.1,2.3,0.5,3.4,1c-2.4,0.9-4.6,2.2-6.5,4
					c-1.9,1.8-3.3,3.9-4.4,6.2c0.4-2.3,1.3-4.5,2.6-6.4C112.6,71.5,114.3,69.9,116.2,68.6L116.2,68.6z M108.8,85.4
					c1.1-7.1,5.8-12.6,11.8-14.4c0,0.5-0.1,1.1-0.4,1.5c-0.5,0.9-1.1,1.8-1.8,2.6c-3.2,4.2-8.2,10.8-4.8,19.3
					C111.1,92.1,109.4,88.9,108.8,85.4L108.8,85.4z M136.4,94.5c3.4-8.4-1.6-15.1-4.8-19.3c-0.6-0.8-1.3-1.7-1.8-2.6
					c-0.3-0.5-0.4-1-0.4-1.5c6,1.8,10.7,7.3,11.8,14.4C140.6,88.9,138.9,92.1,136.4,94.5z"/>
			</g>
		</g>
	</g>
</g>
</svg>
