<?xml version="1.0" encoding="utf-8"?>
<!-- Generator: Adobe Illustrator 25.1.0, SVG Export Plug-In . SVG Version: 6.00 Build 0)  -->
<svg version="1.1" xmlns="http://www.w3.org/2000/svg" xmlns:xlink="http://www.w3.org/1999/xlink" x="0px" y="0px"
	 viewBox="0 0 250 250" style="enable-background:new 0 0 250 250;" xml:space="preserve">
<style type="text/css">
	.st0{fill:#03061A;fill-opacity:0;}
	.st1{fill:#231F20;}
	.st2{fill:#FFFFFF;}
	.st3{fill:#F68712;}
	.st4{fill:url(#SVGID_1_);}
	.st5{fill:#254AA5;}
	.st6{fill:#ED1C24;}
	.st7{fill:#127BCA;}
	.st8{fill:none;}
</style>
<g id="Layer_1">
	<g>
		<path class="st0" d="M3.5,53.3h243v143.4H3.5V53.3z"/>
		<g>
			<g>
				<path class="st1" d="M204.1,96.3L204.1,96.3L204.1,96.3z"/>
			</g>
			<g>
				<path class="st2" d="M232.1,101.2l11.5-1.1l-11-3.7c-26.1-8.9-42.3-5.7-53.6-1.3c-1.1-1.5-2.3-3-3.5-4.5l-0.4-0.5
					c-2.8-3.2-5.8-6-9.1-8.6l-0.2-0.2l2.8-15c0.3-1.4,0-2.8-0.9-3.9c-0.8-1-2.1-1.6-3.4-1.6h-29.8l4.8-5.2h-14.2l-4.8,5.2H99.2
					c-2.7,0-5,1.9-5.6,4.5l-3.1,15c-1,0.7-2,1.5-3,2.3l-0.3,0.2l-0.5,0.4c-4.5,3.8-8.4,8.1-11.7,13c-15.4-6-29.1-10.4-40.5-13
					l-10.3-2.4l8.2,6.7c13.3,11,14.7,21.7,14.8,22.9c-0.4,2.5-4.3,24.4-5.8,32.9l-0.7,4.1c-2.2,9.3-19.1,26.4-25.4,32.1l-8.8,8.1
					l12.4-4.2c21.7-7.5,40.3-13.1,55.4-16.8l3.9,4.6l1,1.4l0-0.1l0.1,0.2l0.5,0.5l0.2,0.2c1.3,1.5,2.6,2.9,4.1,4.2l0.2,0.2
					c0.9,0.9,1.8,1.7,2.8,2.5l0.3,0.3c6.3,5.2,13.6,9.1,21.4,11.5l0.7,0.2c0.6,0.2,1.2,0.4,1.8,0.5l-0.1,0.1l3.6,0.7
					c2.4,0.5,4.8,0.8,7.2,1c0.3,0,0.6,0,0.9,0l0.6,0c0.6,0,1.3,0.1,1.9,0.1c1.6,0.1,3.1,0.1,4.7,0l0.9,0c4.3-0.2,8.4-0.8,12.3-1.8
					l7.8-2l-0.7-0.2c6.4-2.5,12.4-6,17.8-10.6c0.4-0.3,0.8-0.7,1.1-1l0.8-0.7c2.8-2.5,5.3-5.3,7.5-8.2l0.7-0.2
					c2-0.8,5.9-2.2,5.9-2.2c7.8-2.5,17.4-2.8,24.4-0.5l19.6,6.2l-17.6-10.7c-10.6-6.5-11.8-9.7-10.1-17.5h0
					c1.6-7.5-1.4-12.6-3.3-14.9C209.9,103.7,231.2,101.3,232.1,101.2"/>
			</g>
			<g>
				<path class="st3" d="M110.5,170.7c0.2-0.7,0.4-1.4,0.5-2.2c0.5-4.2-1-11.7-11-23.6c-0.3-0.3-25.5-33.1,4.9-69.6
					c-6,2.4-11.6,5.8-16.5,9.9C76,95.5,68.3,110.4,66.9,126.4c-0.4,4.5-0.3,8.9,0.3,13.4l0.2-0.1C80.2,155.4,94.7,165.8,110.5,170.7
					"/>
			</g>
			<g>
				<path class="st3" d="M108.4,173.9c0,0,0.5-0.4,1.1-1.2c-13.8-4.7-28.2-14.1-41.9-30.6c1.6,9.5,5.5,18.5,11.4,26.2l0.1-0.1
					C79.2,168.4,97.6,182,108.4,173.9"/>
			</g>
			<g>
				<path class="st3" d="M102.6,142.8c4.9,5.8,8.3,11,10.2,15.8V72.7c-1.9,0.5-3.7,1-5.6,1.7C77.3,109.3,101.6,141.5,102.6,142.8"/>
			</g>
			<g>
				<path class="st3" d="M114.3,169c-0.1,0.9-0.3,1.8-0.6,2.6c2.5,0.7,5,1.2,7.5,1.5c9.4-21.2,20.3-58.7,7-102.3
					c-5.2-0.1-10.4,0.5-15.5,1.8v85.9C114.2,162.4,114.7,165.9,114.3,169"/>
			</g>
			<g>
				<path class="st3" d="M172,128.3c-5.1,22.5-26,33.1-27.9,34c-6.7,3.6-9.9,7.9-10.9,11.8c3.6,0,7.2-0.3,10.9-0.8
					c13.2-1.9,25.9-6.4,37.3-13.4c15.3-29.4,4.3-65.6-24.8-81.5C170.1,96.6,175.6,112.1,172,128.3"/>
			</g>
			<g>
				<path class="st3" d="M112.7,173.7L112.7,173.7c-0.6,1.1-1.4,2.1-2.4,2.8c-10,7.5-23.4-1-29.1-5.4c8,9.5,18.7,16.2,30.7,19.4
					l0.8-1.2c1.6-2.6,4.4-7.3,7.4-13.8C117.7,175.1,115.2,174.5,112.7,173.7"/>
			</g>
			<g>
				<path class="st3" d="M129.8,178.3c-0.1-0.5-0.1-1.1-0.2-1.6c-2.1-0.1-4.2-0.3-6.3-0.7c-2.3,5.3-4.9,10.4-7.9,15.3
					c9.1,1.8,18.4,1.6,27.4-0.7C138.5,189.2,131,185.7,129.8,178.3"/>
			</g>
			<g>
				<path class="st3" d="M133,176.9c0,0.3,0,0.7,0.1,1c0.9,6.7,9.9,10.9,12.4,12c13.3-4.1,24.7-12.7,32.5-24.2
					C169.4,170.2,152.8,177.3,133,176.9"/>
			</g>
			<g>
				<path class="st3" d="M124.3,173.6c1.8,0.2,3.6,0.3,5.4,0.4c0.8-5.1,4.4-10.5,12.6-14.5l0.1-0.1l0.1,0c0.2-0.1,21.8-10.7,27-32.2
					c3.6-15-1.4-31.8-15-49.9c-7.7-3.9-16.2-6-24.8-6.3C143.4,114.5,133.5,151.9,124.3,173.6"/>
			</g>
			<g>
				<path class="st3" d="M112.7,173.7L112.7,173.7L112.7,173.7L112.7,173.7z"/>
			</g>
			<g>
				<path class="st3" d="M145.6,191.5L145.6,191.5L145.6,191.5L145.6,191.5z"/>
			</g>
			<g>
				<path class="st1" d="M34,85.6c15.4,12.7,15.7,25,15.7,25c0,0.2-6.5,37-6.6,37.4c-2.9,12.1-26.2,33.4-26.2,33.4
					c7.9-2.7,62.1-21.7,85.7-22.1c2.3,1,4.8,1.8,7.5,2.3c2.1,0.4,4.4,0.7,6.6,0.8c3.1,0.1,7.8-0.5,14.2-1.8c2.8-0.2,4.8,0.1,5.5,0.5
					c5.8,2.9,14.3,6.6,21.9,7.7c3.9,0.8,8.5,1.4,14,0.3c0,0,3.6-0.8,5.2-1.5l6-2.3c7.4-2.4,17.5-3.2,25.9-0.5
					c-11.2-6.8-13.2-10.9-11.2-20.2c1.9-8.9-3.8-13.9-3.8-13.9c13.1-29.8,37.3-32,37.3-32c-30.6-10.5-46.6-3.7-56,0.4
					c-12.9,5.5-4.6-0.6-4.6-0.6c-15,5.2-35.5,16.5-35.5,16.5s-15.9-10.3-32.9-8.3c9,4.9,6.1,7.1-0.9,3.7
					C102,110.3,64.6,92.7,34,85.6"/>
			</g>
			<g>
				
					<linearGradient id="SVGID_1_" gradientUnits="userSpaceOnUse" x1="-4.4433" y1="185.4338" x2="-4.0833" y2="185.4338" gradientTransform="matrix(0 14.2022 14.2022 0 -2506.9197 189.3027)">
					<stop  offset="0" style="stop-color:#00ADEF"/>
					<stop  offset="1" style="stop-color:#176FC1"/>
				</linearGradient>
				<path class="st4" d="M55.4,110c0,0-5.6,33.6-6.6,39.4c-1.5,9.3-12.4,19-14.7,20.9c11.3-3.9,45.8-15,69.1-15.1
					c2.3,1,4.8,1.9,7.5,2.4c1.9,0.4,3.9,0.6,6,0.7c3.3,0.2,8.8-0.8,13.5-1.8c1.8-0.1,5.7-0.2,7.9,0.9c5.2,2.6,13.5,6.3,20.8,7.3
					c5.2,1.1,10.8,1.4,17.6-1.1c6.9-2.5,12.5-7.5,15.7-14.1c3.2-6.7,2-11.5-2.1-15.7c-3.3-3.3-7.6-4.7-11.9-6.1
					c-0.4-0.1-5-1.8-5.2-5.2c-0.3-4.1,6.7-5.3,8.8-5.7c5.6-0.9,9.1,1.3,12.7,3.6c4.6-6.8,16.5-20.3,24.6-21.9
					c-1.5-0.3-5.6-1.3-13.1-1.6c-6.8-0.4-14.6,0.8-21.7,2.9c-6.9,2.1-14.7,5.6-20.6,10.4c0,0-10.3,8.3-9,20.8
					c0.6,11.9,19.9,11.7,16.2,21.3c-1.8,4.6-7.2,5.2-10.6,4.8c0,0-9-0.4-10.2-7.9c0.7-9.3,1.8-23,2.3-29.6c0,0,0,0,0,0
					c0-7.3,10.2-13.7,10.2-13.7c-22.2,9.1-25.2,13-25.2,13l-2.7,33.2c-1.9-0.9-3.5-1.5-3.5-4.4l1.4-13.8l-16.3-1.2
					c0,0,4.2,1.9,3.6,6.7c0,0-1.3,8.7-1.6,10.5c-3.2,0-5.7-0.9-7.4-2.8c-3.1-3.5-2.7-9.4-2.2-12.6c0.7-4.2,2.5-7.5,5.2-9.5
					c2.5-1.9,5.7-2.6,9.5-2.2c5.3,0.6,9.4,5.5,9.4,5.5s2.5-7,0.7-10.2c-1.8-3.2-21-8.4-21-8.4s7.6,3.2,2,4.9
					c-4.8,0.6-9.4,2.5-13.3,5.4c-2.6,1.9-4.7,4.3-6.3,7.1c-1.2,0.6-3.1,1.3-4.5,0.8l-14.1-2.4l1.4-12.8l11.7,3.8
					c4.8,2.4,3.1,4.6,3.1,4.6l7.7-6.7c0,0-31.7-14.6-53.2-20.3C46.9,94.1,56.9,101.1,55.4,110 M75.3,133.8l10,0.8
					c4.5,0.2,6,2.4,6.5,3.9c-0.1,2.6,0.4,5.1,1.5,7.5c-0.9,1.9-2.9,4.2-7.2,4.2l-12.6,0.2L75.3,133.8z"/>
			</g>
			<g>
				<path class="st2" d="M51.2,96.3c18.8,5.6,42.8,15.8,47.8,18.1c-3.5,2.2-5.9,5.4-5.9,5.4c-0.5-3.2-4.7-4.5-4.7-4.5l-11.7-3.8
					l-1.6,14.8l14.9,2.5c0,0,4.2,0.8,6.2-2.2c1.5-2.6,2.8-3.9,5.3-5.8c3.6-2.7,8-4.5,12.9-5.2c2.9-0.3,2.6-2.5,2.6-2.5
					c0-0.8-0.8-1.6-2.2-2.4c12.9,3.5,18,7.9,18,7.9l-0.8,7.8c0,0-3.5-3.8-8.8-4.5c-4.1-0.5-7.5,0.3-10.2,2.4
					c-2.9,2.2-4.8,5.7-5.5,10.1c-0.5,3.3-1,9.5,2.4,13.3c1.9,2.1,4.6,3.2,8.1,3.1l0.8,0l0.1-0.8c0.4-1.8,1.6-10.2,1.6-10.5
					c0-0.3,0-0.6,0-0.8c0-2-0.5-3.7-1.7-4.8c4.3,0.3,11.1,0.8,12.5,0.9c-0.2,1.7-1.2,12.1-1.2,12.1c0,2.8,2.2,4.1,4.9,5.4
					c0,0,3-32.1,3.1-33c1.2-0.9,5.9-4.5,18.9-10.3c-3.2,2.8-5.5,6-5.8,10.5l-2.3,30.6c0,7,10.3,7.8,11.1,7.9
					c4.4,0.5,9.7-0.6,11.6-5.4c2.2-5.6-2-8.3-6.5-11c-4.4-2.6-9-5.3-9.3-10.8c-1.2-11.8,9.1-19.9,9.2-20c4.9-4.2,11.6-7.9,19.5-10.3
					c7.5-2.2,15-3.2,21.3-2.8h0c4,0.2,7,0.5,9.2,0.9c-6,2.3-15.4,10.6-20.9,19.7c-4.6-2.8-8.1-3.8-12.7-3.4
					c-2.2,0.2-9.1,1.7-10.2,7.3c-0.7,3.6,4.1,5.2,7,6.4c2.5,1,8.1,2.7,11.1,5.7c4.2,4.2,4.8,8.7,2,14.6c-3.1,6.4-8.5,11.3-15.2,13.6
					c-7,2.5-12.6,1.9-17.1,1h0l0,0c-7-0.9-15-4.4-20.5-7.2c-2.4-1.2-6.3-1.2-8.4-1l-0.1,0l-0.1,0c-6,1.3-10.6,1.9-13.2,1.8
					c-2-0.1-3.9-0.3-5.8-0.7c-2.6-0.5-5.1-1.3-7.3-2.3l-0.2-0.1h-0.2c-21.1,0.1-51.5,9.3-65.2,13.8c4.2-4.1,10.5-11.3,11.7-18.4
					l6.6-39.4C57.6,103.6,51.2,96.3,51.2,96.3 M133.3,131.7l1.5-13.6c-11.5-9-26.3-9.8-26.3-9.8c7.5,3.2,6.8,4.8,6.8,4.8
					c0,0.1-0.1,0.5-1.1,0.6c-10.1,0.9-16.8,7.1-18.7,10.7c-1.7,3.1-4.8,2.5-4.8,2.5l-13.3-2.3c0.2-1.4,1-9,1.2-10.7
					c1.8,0.6,9.4,2.9,9.4,2.9c5,1.6,4.6,7.5,4.6,7.5c2.5-4.3,6.2-7.9,10.6-10.2C102.8,114.1,67.7,98,45,92.5c0,0,8.8,8.8,8.3,17.3
					l-6.6,39.4c0,0-2.8,13.2-17,23.6c10.2-3.5,50-16.5,73.4-16.7c2.3,1,4.8,1.8,7.5,2.4c2,0.4,4,0.6,6.1,0.7
					c2.8,0.1,7.4-0.5,13.6-1.8c1.6-0.1,5.4-0.2,7.4,0.8c5.6,2.9,13.8,6.4,21,7.4c4.8,1,10.2,1.6,17.9-1.1c7.6-2.7,13.7-7.9,17-14.6
					c3.3-6.7,2.5-12-2.4-16.8c-3.5-3.3-10.8-5.7-12.3-6.3c-2-0.8-6-1.6-5.3-4.7c0.8-3.2,5.3-4.8,8.4-4.9c5.9-0.1,9.5,2,12.9,5.4
					c4.9-10.9,19.8-22.7,26.7-24c-6.4-2.1-15.7-2.7-15.7-2.7c-7.4-0.2-14.9,0.8-22,2.9c-4.7,1.4-13.2,4.7-20.1,10.6
					c-0.4,0.3-11.1,8.8-9.8,21.6c0.3,6.4,5.5,9.5,10.2,12.2c5,2.9,7.1,4.8,5.7,8.6c-1.9,4.9-8.3,4.4-9.6,4.2h-0.1
					c-0.3,0-9.3-0.6-9.3-6.2c0.7-9.1,2.3-30.3,2.3-30.3s0.6-7.4,11.7-15.5c-19.5,7.4-28.5,14.3-28.5,14.3s-2.4,27.9-2.6,30.7
					c-1.7-0.7-1.7-2.7-1.7-4.3l1.4-11.8l-18.9-0.9c0.2,0.1,4.3,3.2,4.3,6.6l0,0.6c0,0-1,6.9-1.5,9.6c-2.5-0.1-4.6-0.9-5.9-2.4
					c-1.8-2.1-2.3-5-2.3-7.7c0-1.5,0.2-3,0.3-4.1c0.6-4,2.3-7.1,4.8-8.9c2.3-1.7,5.3-2.4,8.9-2C123.2,123.8,132,125.2,133.3,131.7"
					/>
			</g>
			<g>
				<path class="st2" d="M76.2,134.8l9.1,0.7c3.8,0.1,5.2,1.8,5.6,3.2c0,2.6,0.5,5,1.4,7.3c-1.2,2.2-3.2,3.3-6.2,3.3l-11.5,0.2
					L76.2,134.8 M74.4,133.7l-1.9,17.6l13.7-0.2h0c4.8,0,7-2.6,8.1-4.7l0.2-0.4l-0.2-0.4c-1-2.2-1.5-4.7-1.4-7.1v-0.1l0-0.2
					c-0.5-1.6-2.2-4.4-7.4-4.6l-10-0.8l-0.9-0.1L74.4,133.7z"/>
			</g>
			<g>
				<path class="st2" d="M91.1,138.4c0,0-1.4,10.8,9.6,13.1c0,0-6.8-2-7.9-13"/>
			</g>
			<g>
				<path class="st2" d="M155.3,155.2c0,0-10.1-3.5-12.7-8.3c0,0,2.1,7.3,12.5,10.1L155.3,155.2z"/>
			</g>
			<g>
				<path class="st5" d="M157.2,100.3c1.5-0.1,2.7-1.1,3-2.5l5.9-32c0.3-1.4-0.6-2.5-1.9-2.5H99.2c-1.5,0-2.8,1.1-3.1,2.5l-6.5,32
					c-0.3,1.4,0.6,2.5,2,2.5H157.2z"/>
			</g>
			<g>
				<path class="st2" d="M119.9,76.5l-2.5,12.3c0,0-1.7,7.1,7.6,7.1c0,0,8.2,0.3,10.5-6.2l0.8-3.6h-6.4l-0.6,2.9
					c0,0-0.6,2.4-3.3,2.2c0,0-2.7,0.3-2.1-2l2.6-12.7c0,0,0.1-2.1,3-2.3c0,0,2.7,0,2.4,2l-0.7,3.2h6.4l0.7-3.2c0,0,1.3-6.8-7.8-6.6
					C130.4,69.6,121.6,70,119.9,76.5"/>
			</g>
			<g>
				<path class="st2" d="M139.4,76.5l-2.5,12.3c0,0-1.7,7.1,7.6,7.1c0,0,8.2,0.3,10.5-6.2l0.7-3.6h-6.4l-0.6,2.9
					c0,0-0.6,2.4-3.3,2.2c0,0-2.7,0.3-2.1-2l2.6-12.7c0,0,0.1-2.1,3-2.3c0,0,2.7,0,2.4,2l-0.7,3.2h6.4l0.6-3.2c0,0,1.3-6.8-7.8-6.6
					C149.9,69.6,141.1,70,139.4,76.5"/>
			</g>
			<g>
				<path class="st2" d="M128.7,63.4h-7.4l-13.1,14.3l2.1-9.3l-6.8,0l-5.8,26.9h6.8l1.5-7.5l1.8-2l2.3,9.5h6.7L113,80.6L128.7,63.4z
					"/>
			</g>
			<g>
				<path class="st6" d="M133.6,58.1h-7.4l-4.9,5.3l7.4,0L133.6,58.1z"/>
			</g>
			<g>
				<path class="st2" d="M92.8,139.9c0,0-0.3-8.4,5-15.6l-0.6-1.7l-2,2.2c-2.6,4-4.3,4.3-4.4,13.2L92.8,139.9z"/>
			</g>
			<g>
				<path class="st2" d="M96.3,123c0,0-6.6,6.6-5.4,17.5l1.5-0.3c0,0-0.7-10.7,5.6-16.6L96.3,123z"/>
			</g>
			<g>
				<path class="st1" d="M92.5,124.5c0,0-3.5,3.8-3.7,13.8l2,0.2c0,0-0.2-7.3,4-13.6L92.5,124.5z"/>
			</g>
			<g>
				<path class="st2" d="M91.3,126.4c0,0-1.9,3.5-2.6,10.8c0,0-0.2-1.2-2.1-1.7c0,0,1.2-5.6,2.6-8.7C89.2,126.8,90.4,127,91.3,126.4
					"/>
			</g>
			<g>
				<path class="st7" d="M87,128.4c0,0,1.2,0.3,1.9-0.1c0,0-0.9,2.2-1.3,5.8c0,0-0.4-0.5-2-0.5L87,128.4z"/>
			</g>
		</g>
	</g>
</g>
<g id="레이어_1">
	<rect x="8" y="8" class="st8" width="234" height="234"/>
</g>
</svg>
