<?xml version="1.0" encoding="utf-8"?>
<!-- Generator: Adobe Illustrator 25.1.0, SVG Export Plug-In . SVG Version: 6.00 Build 0)  -->
<svg version="1.1" xmlns="http://www.w3.org/2000/svg" xmlns:xlink="http://www.w3.org/1999/xlink" x="0px" y="0px"
	 viewBox="0 0 250 250" style="enable-background:new 0 0 250 250;" xml:space="preserve">
<style type="text/css">
	.st0{fill:none;}
	.st1{clip-path:url(#SVGID_2_);}
	.st2{fill:#223E63;}
	.st3{fill:#72A3CD;}
</style>
<g id="Layer_1">
</g>
<g id="레이어_1">
	<rect x="8" y="8" class="st0" width="234" height="234"/>
	<g>
		<g>
			<defs>
				<rect id="SVGID_1_" x="37.6" y="8" width="174.8" height="234"/>
			</defs>
			<clipPath id="SVGID_2_">
				<use xlink:href="#SVGID_1_"  style="overflow:visible;"/>
			</clipPath>
			<g class="st1">
				<path class="st2" d="M185.2,201.4c15-15.2,23.8-35.6,24.7-57.1l2.4-1.7l-2.3-3.4c-0.1-16.8-5.1-33.1-14.3-47.1l-5.4-8.2l-8,14.6
					c-0.4,0.8-0.8,1.6-1.3,2.4c-4.5-4.1-9.5-7.6-14.8-10.6l-1.3-0.7l0.3-1.7l10.1-12.4l-7.4-3.1c-0.5-0.2-1.1-0.4-1.7-0.6v-10
					l10.2-12.2l-7.6-3.2c-3.8-1.6-7.8-3-11.8-4.2v-1.4c0-8.6-3.3-16.8-9.3-23c-5.9-6.1-14-9.6-22.5-9.6h-0.3
					c-8.5,0-16.6,3.5-22.5,9.5c-6,6.1-9.3,14.4-9.3,23v1.4c-4,1.2-8,2.6-11.8,4.2l-7.6,3.2l10.2,12.2v10c-0.8,0.3-1.3,0.4-1.7,0.6
					l-7.4,3.1l10.1,12.4l0.3,1.7l-1.3,0.7c-5.3,3-10.2,6.6-14.8,10.6c-0.4-0.8-0.9-1.6-1.3-2.4l-8-14.6L54.2,92
					c-9.2,14.1-14.1,30.4-14.3,47.2l-2.3,3.4l2.4,1.7c1,21.5,9.8,41.9,24.7,57.1c1.2,1.2,2.5,2.5,3.8,3.7l0.3,0.3
					c-1.1,2.9-2.5,5.8-4.1,8.5l-3.1,5.2l16.4,10.2l3.1-5.2c1.4-2.4,2.7-4.8,3.8-7.3c5.7,3.1,11.7,5.5,17.9,7.2l2.4,18.1h39.5
					l2.4-18.1c6.2-1.7,12.2-4.1,17.9-7.2c1.1,2.5,2.5,4.9,3.8,7.3l3.1,5.2l16.3-10.2l-3.1-5.2c-1.6-2.7-3-5.6-4.1-8.5l0.3-0.3
					C182.7,203.9,184,202.7,185.2,201.4L185.2,201.4z M175.5,170.3c0.1-3.9,0.6-7.9,1.3-11.7l0.5-0.1c0.9-0.2,6.2-1.6,12.2-3.8
					c-1.9,10.7-6.6,20.6-13.5,28.9C175.4,179.2,175.3,174.7,175.5,170.3z M184,136.3c1.3-2.8,2.8-5.9,4.7-9.3l0.7-1.2
					c0.5,2.5,1,5.1,1.2,7.7C188.6,134.4,186.4,135.3,184,136.3z M158.8,197.7c-2.8,1.7-5.7,3.2-8.8,4.5l5-37.8l1.6-0.3
					c-0.2,1.8-0.3,3.6-0.3,5.5C155.9,179,156.8,188.5,158.8,197.7z M157.8,143.9l4.4-33.1c3.3,2.3,6.3,4.9,9.2,7.6
					c-4.3,7.9-7.8,16.2-10.6,24.8L157.8,143.9z M130.4,207c-3.6,0.3-7.1,0.3-10.7,0l-0.6-6.2l3-33.8c0.9,0,1.9,0,3,0
					c1.1,0,2.1,0,3,0l3,33.8L130.4,207L130.4,207z M125,147.7h-1.6l1.6-19.3l1.6,19.3H125z M87.8,110.8l4.4,33.1c-1-0.2-2-0.5-3-0.7
					c-2.7-8.5-6.3-16.8-10.6-24.7C81.5,115.7,84.5,113.1,87.8,110.8z M93.7,169.6c-0.1-1.8-0.2-3.7-0.3-5.5l1.6,0.3l5,37.8
					c-3-1.3-6-2.7-8.8-4.5C93.2,188.5,94.1,179,93.7,169.6L93.7,169.6z M59.4,133.4c0.3-2.6,0.6-5.2,1.2-7.7l0.6,1.2
					c1.6,3.1,3.2,6.2,4.7,9.3C63.8,135.4,61.6,134.5,59.4,133.4L59.4,133.4z M72.8,158.5l0.5,0.1c0.7,3.9,1.1,7.8,1.3,11.7
					c0.2,4.4,0,8.9-0.5,13.3c-7-8.3-11.6-18.3-13.5-28.9C66.6,156.8,71.9,158.3,72.8,158.5z"/>
				<path class="st3" d="M183.2,199.4c14.8-15,23.4-35.3,23.9-56.6l1.3-0.9l-1.2-1.8c0-16.5-4.8-32.6-13.8-46.4l-2.8-4.3l-5.7,10.4
					c-1,1.9-2.1,3.7-3.1,5.6c-5.1-4.9-10.7-9.2-16.9-12.7l-3-1.7l0.6-4.5l8.1-10l-3.8-1.6c-0.5-0.3-1.8-0.6-3.5-1.1V60.5l8.4-10
					l-3.9-1.6c-4.4-1.9-9-3.4-13.6-4.7v-3.6c0-7.8-3-15.4-8.5-20.9c-5.5-5.5-12.9-8.7-20.6-8.7h-0.4c-3.8,0-7.6,0.8-11.1,2.2
					s-6.7,3.7-9.4,6.4c-2.7,2.7-4.8,6-6.3,9.6c-1.4,3.6-2.2,7.4-2.2,11.3v3.6c-4.6,1.3-9.2,2.8-13.6,4.7l-3.9,1.6l8.4,10v13.3
					c-1.6,0.5-2.9,0.8-3.5,1.1l-3.8,1.6l8.1,10l0.6,4.5l-3,1.7c-6.1,3.5-11.8,7.7-16.9,12.7c-1-1.9-2.1-3.7-3.1-5.6l-5.7-10.4
					l-2.8,4.3c-9.1,13.8-13.8,29.9-13.8,46.4l-1.2,1.8l1.3,0.9c0.5,21.3,9.1,41.5,23.9,56.6c1.1,1.2,2.4,2.4,3.7,3.6l1.8,1.6
					c-1.4,3.8-3,7.4-5.1,10.9l-1.6,2.7l11.5,7.1l1.6-2.7c1.9-3.2,3.6-6.5,4.9-9.9c6.8,4.1,14.1,7.1,21.8,9l2.3,17.6h34.5l2.3-17.6
					c7.7-1.9,15-4.9,21.8-9c1.4,3.4,3,6.8,4.9,9.9l1.6,2.7l11.5-7.1l-1.6-2.7c-2-3.5-3.8-7.1-5.1-10.9l1.7-1.6
					C180.8,201.7,182.1,200.5,183.2,199.4L183.2,199.4z M59.7,118.1l4.1,7.4c2.8,5.1,5.2,10.4,7.4,15.9c-5.1-1.7-10-3.8-14.8-6.3
					C56.8,129.3,58,123.6,59.7,118.1L59.7,118.1z M76.1,190c-10.7-10.3-17.1-23.6-19.2-39.7c5.4,2.1,10.9,3.9,16.5,5.4l2.3,0.5
					c1,4.7,1.6,9.3,1.7,14.1C77.6,176.8,77.2,183.4,76.1,190z M75.1,117.9c4.2-4.4,9-8.2,14.1-11.5l0.8-0.5l5.5,41.7
					c-2.9-0.5-5.8-1.2-8.6-1.9C83.9,135.2,79.3,125.9,75.1,117.9z M88,199.1c2.3-9.6,3.3-19.5,2.9-29.4c-0.1-3.1-0.4-6.2-0.8-9.3
					c2.5,0.5,4.9,1.1,7.4,1.5l6,44.8C97.9,204.9,92.7,202.3,88,199.1z M124.8,96.3h0.4l4.6,54.2c-2.2,0.1-3.4,0.2-4.7,0.1
					c-1.6,0-3.2,0-4.7-0.1L124.8,96.3z M107.1,134l4.5-24.9l1.6,41c-1.4-0.1-2.7-0.3-4-0.4L107.1,134L107.1,134z M110.5,163.4
					l3.7,0.5l0.3,19.3L110.5,163.4L110.5,163.4z M130.9,225.4h-11.7l-0.2-1.7c2,0.1,4.1,0.2,6.1,0.2c2,0,4.1-0.1,6.1-0.2
					L130.9,225.4L130.9,225.4z M133,209.7c-5.3,0.6-10.6,0.6-15.9,0l-0.9-8.8l3.3-36.8c1.9,0.1,3.4,0.1,5.6,0.1
					c2.2,0,3.6-0.1,5.6-0.1l3.3,36.8L133,209.7z M135.6,183.2l0.3-19.3l3.7-0.5C139.5,163.4,135.6,183.2,135.6,183.2L135.6,183.2z
					 M140.8,149.6c-1.4,0.2-2.7,0.3-4,0.4l1.6-41l4.5,24.9L140.8,149.6z M186.2,125.5l4.1-7.4c1.8,5.5,2.9,11.3,3.3,17
					c-4.8,2.4-9.7,4.5-14.8,6.3C180.9,136,183.4,130.7,186.2,125.5L186.2,125.5z M146.6,206.7l6-44.8c2.5-0.5,5-1,7.4-1.5
					c-0.4,3.1-0.7,6.2-0.8,9.3c-0.4,9.9,0.6,19.8,2.9,29.4C157.2,202.3,152,204.8,146.6,206.7z M163.1,145.7
					c-2.7,0.7-5.7,1.3-8.6,1.9l5.5-41.8l0.8,0.5c5.1,3.3,9.9,7.1,14.1,11.5C170.7,125.9,166.1,135.2,163.1,145.7z M174,190
					c-1.1-6.5-1.6-13.1-1.4-19.8c0.2-4.7,0.8-9.4,1.7-14.1l2.3-0.5c5.6-1.5,11.1-3.3,16.5-5.4C191,166.3,184.6,179.6,174,190
					L174,190z"/>
				<path class="st2" d="M204,140.2c0-15.9-4.6-31.5-13.3-44.8l-3.3,5.9c-1.4,2.6-2.9,5.2-4.3,7.7l-0.8,1.5c-5.5-6-12-11.1-19-15.1
					l-1,8.2c6,3.8,11.4,8.4,16.2,13.7c-5.2,9.5-10.1,19.5-13.2,30.8c-4.6,1.2-9.6,2.3-14.7,3.1l8.8-66.2l6-7.4
					c-1.5-0.6-11.5-3.3-18.3-4.8l1.1-17.3c1.5,0.4,3,0.8,4.5,1.2v11.8c2.5,0.6,4.9,1.4,7.3,2.1V59.2l6.4-7.6
					c-5.7-2.4-11.5-4.3-17.5-5.6v-6.5c-0.1-6.3-2.7-12.4-7.1-17c-4.4-4.4-10.4-6.9-16.7-6.9c-6.3,0-12.3,2.5-16.8,7
					c-4.5,4.5-7,10.6-7.1,17v6.5c-6,1.4-11.9,3.3-17.6,5.7l6.3,7.6v11.5c2.4-0.8,4.8-1.5,7.3-2.1V56.9c1.5-0.4,3-0.8,4.4-1.2
					l1.1,17.3C96,74.6,86,77.3,84.5,77.9l6,7.4l8.9,66.2c-4.9-0.8-9.9-1.9-14.7-3.1c-3.1-11.3-8-21.3-13.2-30.8
					c4.7-5.3,10.2-9.9,16.2-13.8l-1-8.2c-6.5,3.7-12.4,8.2-17.6,13.5c-0.5,0.5-1,1.1-1.5,1.6l-0.8-1.5c-1.4-2.5-2.9-5.1-4.3-7.7
					l-3.3-5.9c-8.7,13.3-13.3,28.9-13.2,44.8v0.8c0.2,21.1,8.5,41.2,23.1,56c1.1,1.2,2.3,2.3,3.6,3.4l2.3-7.5
					c-13.2-12.3-20.2-28.5-21.5-47.8c6.7,3,13.6,5.4,20.6,7.3c-0.5-2.2-1.7-6-2.2-7.7c-6.4-2.1-12.6-4.7-18.5-7.9
					c0.4-9,2.4-17.9,6-26.1c0.4,0.6,0.8,1.3,1.1,1.9c0.7,1.3,1.4,2.5,2.1,3.7l3.9,7.1c7.4,13.9,13.5,28.2,14.1,46.4
					c0.6,17.2-3.4,34.7-10.7,47l6.2,3.9c2.5-4.1,4.5-8.4,6.1-12.9c7.8,5.2,16.5,9,25.8,11l2.2,17h29.5l2.2-17
					c9.2-2,17.9-5.8,25.8-11c1.6,4.5,3.6,8.8,6,12.9l6.2-3.9c-7.3-12.2-11.3-29.8-10.7-47c0.7-18.1,6.7-32.4,14.1-46.4l3.9-7.1
					c0.7-1.2,1.4-2.5,2.1-3.7c0.4-0.7,0.8-1.3,1.1-1.9c3.6,8.2,5.6,17.1,6,26.1c-5.9,3.1-12.1,5.8-18.5,7.9
					c-0.5,1.6-1.7,5.5-2.2,7.7c7.1-1.9,14-4.3,20.6-7.2c-1.3,19.3-8.3,35.5-21.5,47.8l2.3,7.5c1.2-1.1,2.4-2.2,3.6-3.4
					c14.6-14.8,22.9-35,23.1-56C203.9,140.8,204,140.5,204,140.2L204,140.2z M143.3,72.1c-0.7-0.1-1.2-0.3-1.6-0.3
					c-5.3-1.1-10.7-1.6-16.2-1.7l0.4-17.2c5.7,0.1,11.4,0.6,17,1.7L143.3,72.1L143.3,72.1z M142.7,39.8v5.1c-4.3-4-6.9-9.5-7.4-15.4
					c2.2,1,4.4,2.3,6.3,3.9C142.3,35.4,142.7,37.6,142.7,39.8z M135.3,25.1c2.2,1.6,4.1,3.7,5.3,6.1c-1.7-1.2-3.5-2.2-5.4-3
					C135.1,27.2,135.2,26.1,135.3,25.1z M126.5,23.6c0-0.6,0.1-1.2,0.3-1.7c2.1,0.2,4.2,0.8,6.1,1.8c0,1.3,0,2.5,0.2,3.8
					c-2.2-0.7-4.4-1.1-6.6-1.1C126.5,26.3,126.5,23.6,126.5,23.6z M133.3,28.8c0.8,5.9,3.5,11.5,7.6,15.8c-4.9-0.7-9.8-1.1-14.8-1.2
					l0.4-15.9C128.8,27.5,131.1,28,133.3,28.8z M117.1,23.7c1.9-1,4-1.6,6.1-1.8c0.2,0.5,0.3,1.1,0.3,1.7l0.1,2.8
					c-2.3,0.3-4.6,0.8-6.7,1.7C117,26.6,117.1,25.1,117.1,23.7z M114.7,25.1c0.1,1.3,0.1,2.6,0,3.9c-2.3,1.2-4.4,2.7-6.3,4.5
					C109.7,30.2,111.9,27.2,114.7,25.1L114.7,25.1z M107.8,35.6c2-2.1,4.3-3.8,6.9-5.2c-0.7,5.5-3.3,10.6-7.3,14.4v-5.1
					C107.3,38.3,107.5,36.9,107.8,35.6z M116.6,29.4c2.2-1,4.5-1.6,6.9-1.8l0.4,15.8c-4.9,0-9.9,0.4-14.8,1.2
					C113.1,40.4,115.7,35.1,116.6,29.4C116.6,29.4,116.6,29.4,116.6,29.4z M107.1,54.5c5.6-1.1,11.3-1.6,17-1.7l0.4,17.2
					c-5.4,0-10.8,0.6-16.2,1.7c-0.4,0.1-0.9,0.2-1.6,0.3L107.1,54.5L107.1,54.5z M97.6,82.8c1.9-0.5,3.8-1.1,5.8-1.5l2.4,36.8
					l0.8-37.4c6-1.2,12.1-1.8,18.2-1.9l0.3,12.9l0.3-12.9c6.1,0,12.2,0.7,18.1,1.8l0.8,37.4l2.4-36.7c1.9,0.5,3.8,0.9,5.8,1.5
					l-9.2,69.6c-6,0.8-12.1,1.1-18.1,1.2c-6.1,0-12.1-0.4-18.2-1.1L97.6,82.8L97.6,82.8z M84.6,200.5c2.6-10,3.8-20.3,3.4-30.7
					c-0.2-4.6-0.7-9.1-1.5-13.6c4.6,1.2,9.2,2.2,14,3l6.9,51.9C99.2,208.9,91.5,205.4,84.6,200.5z M133.6,228.5h-17.3l-0.9-8.3
					c3.2,0.4,6.3,0.5,9.5,0.5c3.2,0,6.4-0.2,9.5-0.5L133.6,228.5z M135.6,212.5c-3.5,0.5-7.1,0.7-10.7,0.7c-3.6,0-7.1-0.3-10.7-0.7
					l-6.9-52.3c6.6,0.7,13.7,0.8,17.6,0.8c3.9,0,10.9-0.1,17.6-0.8L135.6,212.5L135.6,212.5z M142.7,211.1l6.9-51.9
					c4.7-0.8,9.3-1.7,14-3c-0.8,4.5-1.3,9-1.5,13.6c-0.4,10.4,0.7,20.7,3.3,30.7C158.5,205.4,150.8,208.9,142.7,211.1
					C142.7,211,142.7,211.1,142.7,211.1L142.7,211.1z"/>
			</g>
		</g>
	</g>
</g>
</svg>
