<?xml version="1.0" encoding="utf-8"?>
<!-- Generator: Adobe Illustrator 25.1.0, SVG Export Plug-In . SVG Version: 6.00 Build 0)  -->
<svg version="1.1" xmlns="http://www.w3.org/2000/svg" xmlns:xlink="http://www.w3.org/1999/xlink" x="0px" y="0px"
	 viewBox="0 0 250 250" style="enable-background:new 0 0 250 250;" xml:space="preserve">
<style type="text/css">
	.st0{fill:#002BFF;fill-opacity:0;}
	.st1{fill:#231916;}
	.st2{fill:#FAC10B;}
	.st3{fill:none;}
</style>
<g id="Layer_1">
	<g>
		<path class="st0" d="M3.9,85.5h242.1v79H3.9V85.5z"/>
		<path class="st1" d="M55.2,158.7v0.7c0,0.3,0.1,0.6,0.2,0.8c0.1,0.2,0.3,0.3,0.6,0.3c0.3,0,0.4-0.1,0.6-0.2
			c0.1-0.1,0.2-0.3,0.2-0.6c0-0.4-0.1-0.7-0.4-1c-0.3-0.3-0.7-0.6-1.2-1c-0.1-0.1-0.1-0.1-0.2-0.1c-0.1-0.1-0.2-0.2-0.3-0.2
			c-0.3-0.2-0.5-0.4-0.7-0.5c-0.2-0.2-0.3-0.3-0.5-0.5c-0.1-0.2-0.3-0.4-0.3-0.7c-0.1-0.3-0.1-0.6-0.1-0.9c0-1,0.3-1.7,0.8-2.1
			c0.5-0.5,1.2-0.7,2.2-0.7c1,0,1.7,0.2,2.2,0.7c0.5,0.4,0.7,1.1,0.7,1.8v0.9h-2.2v-0.5c0-0.3,0-0.6-0.1-0.8
			c-0.1-0.2-0.3-0.3-0.6-0.3c-0.2,0-0.4,0.1-0.6,0.2c-0.1,0.1-0.2,0.3-0.2,0.5c0,0.3,0.1,0.5,0.4,0.8c0.3,0.3,0.7,0.6,1.3,1.1
			l0.2,0.1c0.1,0.1,0.2,0.2,0.4,0.3c0.3,0.2,0.5,0.4,0.6,0.5c0.2,0.2,0.3,0.3,0.4,0.6c0.1,0.2,0.2,0.5,0.3,0.8
			c0.1,0.3,0.1,0.7,0.1,1.1c0,0.3-0.1,0.5-0.2,0.8c-0.1,0.3-0.3,0.6-0.5,0.8c-0.2,0.3-0.6,0.5-1,0.6c-0.4,0.2-0.9,0.2-1.5,0.2
			c-0.5,0-1-0.1-1.4-0.2c-0.4-0.2-0.7-0.4-0.9-0.6c-0.2-0.2-0.4-0.5-0.5-0.8c-0.1-0.3-0.2-0.6-0.2-0.9v-1.1H55.2z"/>
		<path class="st1" d="M65,152.1h5.1v1.9h-2.8v2h2.5v1.9h-2.5v2.2h2.9v1.9H65V152.1z"/>
		<path class="st1" d="M78.5,159.6c0,0.1,0,0.2,0,0.3c0,0.1,0,0.2,0.1,0.3c0,0.1,0.1,0.2,0.2,0.2c0.1,0.1,0.2,0.1,0.4,0.1
			c0.2,0,0.3,0,0.4-0.1c0.1-0.1,0.2-0.1,0.2-0.2c0-0.1,0.1-0.2,0.1-0.3c0-0.1,0-0.2,0-0.3v-4.9c0-0.1,0-0.2,0-0.3
			c0-0.1,0-0.2-0.1-0.3c0-0.1-0.1-0.2-0.2-0.2c-0.1-0.1-0.2-0.1-0.4-0.1c-0.2,0-0.3,0-0.4,0.1c-0.1,0.1-0.2,0.1-0.2,0.2
			c0,0.1-0.1,0.2-0.1,0.3c0,0.1,0,0.2,0,0.3V159.6z M76.2,154.9c0-0.9,0.3-1.7,0.8-2.2c0.5-0.5,1.3-0.7,2.2-0.7
			c0.9,0,1.6,0.2,2.2,0.7c0.5,0.5,0.8,1.2,0.8,2.2v4.5c0,0.9-0.3,1.6-0.8,2.1c-0.5,0.5-1.3,0.8-2.2,0.8c-0.9,0-1.6-0.3-2.2-0.8
			c-0.5-0.5-0.8-1.2-0.8-2.1V154.9z"/>
		<path class="st1" d="M88.2,152.1h2.3v7.3c0,0.3,0,0.6,0.1,0.8c0.1,0.2,0.3,0.2,0.6,0.2c0.3,0,0.5-0.1,0.6-0.2
			c0.1-0.2,0.1-0.4,0.1-0.8v-7.3h2.3v7.3c0,0.9-0.3,1.6-0.8,2.1c-0.5,0.5-1.3,0.8-2.2,0.8s-1.6-0.3-2.2-0.8
			c-0.5-0.5-0.8-1.2-0.8-2.1V152.1z"/>
		<path class="st1" d="M100.1,152.1h2.3v8.1h2.5v1.9h-4.8V152.1z"/>
		<path class="st1" d="M119.2,158.7v0.7c0,0.3,0.1,0.6,0.2,0.8c0.1,0.2,0.3,0.3,0.6,0.3c0.2,0,0.4-0.1,0.6-0.2
			c0.1-0.1,0.2-0.3,0.2-0.6c0-0.4-0.1-0.7-0.4-1c-0.3-0.3-0.7-0.6-1.2-1l-0.2-0.1c-0.1-0.1-0.2-0.2-0.3-0.2
			c-0.3-0.2-0.5-0.4-0.6-0.5c-0.2-0.2-0.3-0.3-0.5-0.5c-0.1-0.2-0.3-0.4-0.3-0.7c-0.1-0.3-0.1-0.5-0.1-0.9c0-1,0.3-1.7,0.8-2.1
			c0.5-0.5,1.2-0.7,2.2-0.7c1,0,1.7,0.2,2.2,0.7c0.5,0.4,0.7,1.1,0.7,1.8v0.9h-2.2v-0.5c0-0.3,0-0.6-0.1-0.8
			c-0.1-0.2-0.3-0.3-0.6-0.3c-0.2,0-0.4,0.1-0.6,0.2c-0.1,0.1-0.2,0.3-0.2,0.5c0,0.3,0.1,0.5,0.4,0.8c0.3,0.3,0.7,0.6,1.3,1.1
			l0.2,0.1c0.1,0.1,0.2,0.2,0.4,0.3c0.3,0.2,0.5,0.4,0.6,0.5c0.2,0.2,0.3,0.3,0.4,0.6c0.1,0.2,0.2,0.5,0.3,0.8
			c0.1,0.3,0.1,0.7,0.1,1.1c0,0.3-0.1,0.5-0.2,0.8c-0.1,0.3-0.3,0.6-0.5,0.8c-0.2,0.3-0.6,0.5-1,0.6c-0.4,0.2-0.9,0.2-1.5,0.2
			c-0.5,0-1-0.1-1.4-0.2c-0.4-0.2-0.7-0.4-0.9-0.6c-0.2-0.3-0.4-0.5-0.5-0.8c-0.1-0.3-0.2-0.6-0.2-0.9v-1.1H119.2z"/>
		<path class="st1" d="M131.4,158.6h1.2l-0.5-4.9h0L131.4,158.6z M130.5,152.1h3.1l1.9,10H133l-0.2-1.8h-1.6l-0.2,1.8h-2.3
			L130.5,152.1z"/>
		<path class="st1" d="M141,152.1h3.6l0.6,5h0l0.6-5h3.6v10h-2.2v-7.8h0l-1.3,7.8h-1.5l-1.3-7.8h0v7.8H141V152.1z"/>
		<path class="st1" d="M157.9,158.7v0.7c0,0.3,0.1,0.6,0.2,0.8c0.1,0.2,0.3,0.3,0.6,0.3c0.3,0,0.4-0.1,0.6-0.2
			c0.1-0.1,0.2-0.3,0.2-0.6c0-0.4-0.1-0.7-0.4-1c-0.3-0.3-0.7-0.6-1.2-1c0,0-0.1-0.1-0.2-0.1c-0.1-0.1-0.2-0.2-0.3-0.2
			c-0.3-0.2-0.5-0.4-0.6-0.5c-0.2-0.2-0.3-0.3-0.5-0.5c-0.1-0.2-0.2-0.4-0.3-0.7c-0.1-0.3-0.1-0.5-0.1-0.9c0-1,0.3-1.7,0.8-2.1
			c0.5-0.5,1.2-0.7,2.2-0.7c1,0,1.7,0.2,2.2,0.7c0.5,0.4,0.7,1.1,0.7,1.8v0.9h-2.2v-0.5c0-0.3,0-0.6-0.1-0.8
			c-0.1-0.2-0.3-0.3-0.6-0.3c-0.2,0-0.4,0.1-0.6,0.2c-0.1,0.1-0.2,0.3-0.2,0.5c0,0.3,0.1,0.5,0.4,0.8c0.3,0.3,0.7,0.6,1.3,1.1
			l0.2,0.1c0.1,0.1,0.2,0.2,0.4,0.3c0.3,0.2,0.5,0.4,0.6,0.5c0.2,0.2,0.3,0.3,0.4,0.6c0.1,0.2,0.2,0.5,0.3,0.8
			c0.1,0.3,0.1,0.7,0.1,1.1c0,0.3-0.1,0.5-0.2,0.8c-0.1,0.3-0.3,0.6-0.5,0.8c-0.2,0.3-0.6,0.5-1,0.6c-0.4,0.2-0.9,0.2-1.5,0.2
			c-0.5,0-1-0.1-1.4-0.2c-0.4-0.2-0.7-0.4-0.9-0.6c-0.2-0.3-0.4-0.5-0.5-0.8c-0.1-0.3-0.2-0.6-0.2-0.9v-1.1H157.9z"/>
		<path class="st1" d="M167.7,152.1h2.3v7.3c0,0.3,0,0.6,0.1,0.8c0.1,0.2,0.3,0.2,0.6,0.2c0.3,0,0.5-0.1,0.6-0.2
			c0.1-0.2,0.1-0.4,0.1-0.8v-7.3h2.3v7.3c0,0.9-0.3,1.6-0.8,2.1c-0.5,0.5-1.3,0.8-2.2,0.8c-0.9,0-1.6-0.3-2.2-0.8
			c-0.5-0.5-0.8-1.2-0.8-2.1V152.1z"/>
		<path class="st1" d="M179.6,152.1h2.5l1.8,5.9h0v-5.9h2.2v10h-2.5l-1.9-6.2h0v6.2h-2.2V152.1z"/>
		<path class="st1" d="M192.3,154.9c0-0.9,0.3-1.7,0.8-2.2c0.5-0.5,1.3-0.7,2.2-0.7c0.4,0,0.8,0,1.1,0.1c0.3,0.1,0.7,0.2,0.9,0.4
			c0.3,0.2,0.5,0.5,0.6,0.8c0.2,0.3,0.2,0.7,0.2,1.2v1.1H196v-1c0-0.3-0.1-0.5-0.2-0.6c-0.1-0.1-0.3-0.2-0.6-0.2
			c-0.1,0-0.3,0-0.4,0.1c-0.1,0.1-0.2,0.1-0.2,0.2c0,0.1-0.1,0.2-0.1,0.3c0,0.1,0,0.2,0,0.3v4.9c0,0.1,0,0.2,0,0.3
			c0,0.1,0,0.2,0.1,0.3c0,0.1,0.1,0.2,0.2,0.2c0.1,0.1,0.2,0.1,0.4,0.1c0.5,0,0.7-0.2,0.7-0.7v-1.3h-0.8v-1.9h3v5.5h-2v-0.8h0
			c-0.2,0.3-0.5,0.6-0.7,0.7c-0.3,0.2-0.6,0.2-1,0.2c-0.4,0-0.7-0.1-1-0.2c-0.3-0.1-0.5-0.4-0.7-0.6c-0.2-0.3-0.3-0.6-0.3-0.9
			c-0.1-0.3-0.1-0.7-0.1-1.1V154.9z"/>
		<path class="st1" d="M198.4,139.5l-1.5,0.9l-1.4-1.1c-1.7-1.4-4.3-2.7-6.8-4.3c-2.6-1.6-5.2-3.4-6.9-6.3l0,0l0,0
			c-1.2-2.4-2.2-5.4-2.2-5.5l-0.7-2.2h-5.1c0.5,1.6,0.9,2.8,1,3.1l1.2,3.6v5.4h-15.9c-1.6,1.2-3.2,1.7-4.3,2.3
			c-0.8,0.4-1.3,0.7-1.5,0.9l-2,2.1l-1.9-2.2c-0.7-0.8-1.6-1.4-2.9-2.1c-0.5-0.3-1.1-0.6-1.7-1h-12.3c-0.1,0.1-0.1,0.1-0.2,0.2
			c-1.2,1.1-2.9,1.6-4.3,1.6c-1,0-1.9-0.2-2.8-0.4l-0.1,0l-0.1,0c-0.9-0.3-1.6-0.7-2.3-1.3h-25c-2,2-5.2,4.6-10.4,6.9l-3.4,1.5
			c0.6-2.6-1.3-5.1-1.3-5.1c-0.2-0.3-0.9-0.9-1.8-1.7c-0.2-0.2-0.4-0.3-0.6-0.5H66.4c-0.4,0.5-0.9,0.9-1.3,1.2c-1,0.7-2,1.3-3,1.7
			c-1.1,0.5-2.3,0.9-3.5,1.2l0,0c-0.1,0-0.2,0.1-0.3,0.1c0,0-4.2,1.9-4.1,5.3l-2.9-2.3c-9.3-9.7-7.2-19.3-6-21.9
			c0,0,0.4-1.1,1.4-2.8c-14.3,3.1-40.7-15.4-40.7-15.4V96c27,6.2,47,4.7,47,4.7h0.3c1-2.5,2.3-5.9,2.3-5.9l0.7-1.7h13.1l0,0
			c0,0,9.4-1.6,14.5-6.2l-3,7c-0.5,1.2-1,2.4-1.5,3.7c0.3,0,0.6,0,0.9,0c0.5,0,1,0,1.4,0.1l31.8,0.1c1.1-0.4,2.2-0.6,3.4-0.6l0,0h0
			c2.2,0,4.2,1,5.4,2.5c0.2,0.3,0.5,0.6,0.6,1c0.1-0.1,0.2-0.2,0.2-0.3c0.9-1.1,2.3-1.9,3.8-2.2c0.5-0.1,1.1-0.2,1.6-0.2
			c0.9,0,1.8,0.2,2.6,0.5c0-0.4,0-0.7,0-1c0-0.7,0-1.4,0-1.9l0.1-2.2l2.1-0.4c0.8-0.1,1.1-0.2,1.9-0.5c0.8-0.3,1.9-0.9,3.7-2.1
			l4.3-2.7l-0.2,5.1c0,1,0,3.5,0,6.6c0.8-0.6,1.8-1.1,2.8-1.3c0.9-0.3,1.8-0.4,2.9-0.4c1.9,0,4.3,0.4,6.6,1.7l-0.4-1.6h12.1l0.1,0.5
			c0.9-0.3,1.8-0.4,2.7-0.4c0.8,0,1.5,0.1,2.3,0.3l0.1,0l0.1,0c1.3,0.5,2.4,1.2,3.4,2.1c0.2-0.4,0.4-0.7,0.6-1.1
			c1-1.4,2.7-2.3,4.4-2.5c4.7-0.7,9.5,0.3,13.5,2.8c0.5,0.3,1.1,0.7,1.5,1.1c0.6,0,1.3,0,2,0c0,0,30.5,0.2,46.6-4.6v5.4
			c0,0-19.6,13.4-41.1,15.2c0,0,2.5,5.1,3.4,7.3C207.8,125.9,210.2,131.5,198.4,139.5"/>
		<path class="st2" d="M198.9,114.9c-2-1.6-4.1-2.7-7.8-4.6c-2.3-1.4-5.8-2.5-6.3-5.2c-0.3-1.5,1.1-1.8,2.5-1.5
			c2.7,1,2.9,3.2,3.6,4.6c2.1,0.8,5.1,1.7,6.1,0.1c0.4-0.5,0.5-1.4,0.1-2.4c0,0-0.1-0.2-0.2-0.4c3.5,0.2,3.8,2.2,4.5,3.1
			c10.3-0.9,20.7-2.8,30.3-8.1c-9.1,1.8-25.9,2.9-36.6,2.7c-0.4-0.4-1.2-1.1-1.9-1.5c-4.1-2.5-8.4-2.9-11.7-2.4
			c-3.4,0.5-4.1,3.6-3.1,6.8c1.8,6.3,10.6,8.5,15.3,12.2c1.3,0.8,2.6,3.8,1.1,4.4c-0.9,0.6-2.1,0.1-3.2-0.9
			c-1.6-1.6-1.7-3.2-2.5-4.9l-6.8-0.1c0,0,1,3,2,5.1c2.3,4.4,9,6.5,13,9.8c3.6-1.9,7-4.3,6.7-7C203.8,123.4,201.7,116.9,198.9,114.9
			 M120.4,122.3l1.1-16.6c0.3-3-1.1-5.8-4.3-5.8c-2.2,0.1-4,0.7-5.9,2.6c0,0,0.2-1.1,0.4-2H96.8l-3.1,12.7
			c-0.9,3.4-2.1,9.7-4.4,10.8c-1.1-1.1-1.3-1.9-0.8-3.7l4.9-20h-8.8c0,0,1.7,1.2,1.3,4.1c-0.2,1.5-4.2,12.8-5.3,17.7
			c-0.7,3.4,3.7,5.3,5.1,7.4c0.6,0.9,1.3,1.6,1.4,2.6c10-4.5,11.8-9.3,11.8-9.3s1.8-11.6,3.9-19.4c0.6-1.3,1.3-2.4,2.4-2.8
			c-1.1,7.1-4.3,24.3-4.3,24.3h7.3c1-6.3,1.5-9.8,2.6-16.9c0.2-0.9,0.7-1.6,2-1.5c1,0.1,1.6,0.9,1.5,1.9c-0.9,5.4-1.6,11-2.3,16.5
			h10.2C120.3,124.3,120.4,122.3,120.4,122.3 M171.8,100.7c-2.9-0.7-5.5,0.4-6,2.4c-0.2-0.9-0.5-1.8-0.7-2.7h-6.4
			c1.7,6,4.2,18.8,5.9,24.5h7.7c-0.5-1.5-3.9-13.1-5.1-17.4c-0.1-2.5,2-2.5,2.9-1.1c1.2,3.3,1.6,3.6,2.5,6.4h6.7
			C178,108.7,176.1,102.1,171.8,100.7 M149.7,103.8c0.6-0.3,1.9-0.2,2.1,1.2c0.3,1.7,0.4,2.9,0.4,4.5h-3.3
			C148.7,107.6,148.5,104.5,149.7,103.8 M152.9,115.3c0.1,1.3,0.5,4.3,0.2,5.6c-0.3,1.1-0.5,1.4-1.5,1.5c-2.4-0.4-2.5-9.7-2.5-9.7
			c3.6,0,6.5,0,10.2,0c-0.3-3.4-0.8-7.6-2.7-9.4c-3.4-3.4-8.3-3.4-9.9-2.8c-3.1,0.8-4.1,3.1-4.4,6c-0.4,4.2,0.1,9.2,1.6,14.5
			c1.4,4.9,5.6,4.5,8.5,7.8c2.9-3,11-1.6,7.4-13.5C157,115.4,154.8,115.3,152.9,115.3 M57.1,127.3c0,0-4.2-0.8-2.4-5.4l5.8-13.7h4.8
			L57.1,127.3z M80.4,100.2c-2.1,0-3.3,1.1-4,1.7c-0.9,0.7-1,0.7-2.4,2.3c1.3-3,2.8-7.5,4.5-11.4c-3.4,1.8-4.8,2-7.6,2.7l-2.5,6.1
			c-2.2,0-2.7,0-5.2,0.1c1-2.5,2.3-5.9,2.3-5.9h-7.3l-2.9,7.2l-0.2,0.4c-2.1,0-13.2,0-18.1-0.2c-7.7-0.4-19.1-2.2-19.1-2.2
			c5.3,2.4,10.9,4.9,19.2,6.8c9.6,2.7,13.7-1.2,13.7-1.2s1.9-2,2.8-1.4c0.2,0.2,0.5,0.3,0.4,0.8l-0.3,0.7c-2.4,5-6,13.9-6,13.9
			s-2.9,7.1,5.1,13.3c0.8-2.3,4.9-3.6,4.9-3.6s6-1.4,7.2-4.4c0,0,5.1-11.9,7.1-17.3c0.9-1.8,2.4-1.7,2.4-1.7s1.4-0.1,0.8,2
			c-1.6,4-4.1,12.1-6.3,17.2h7.4c2.1-5.9,5.2-15,7-19.9C84.2,104.1,83.9,100.2,80.4,100.2 M133.5,109.7l-0.2,7.8
			c-0.2,3-2.2,2.6-2.2,2.6c-1.6-0.3-1.4-2.6-1.4-2.6l0.2-7.9c0.1-3.5,1.7-3.2,1.7-3.2C133.6,106.4,133.5,109.7,133.5,109.7
			 M140.9,122.2c-0.3-1.1-0.4-25.7-0.2-29.6c-3.8,2.4-5,2.7-6.6,3c-0.1,1.9,0,6.4,0,8.4c-1-1.4-1.9-2-2.3-2.3
			c-1.2-0.8-2.4-1.2-4-0.9c-3.8,0.7-4,5.8-4.3,10.5c-0.3,6.1-1.3,13.3,3.6,15c3.1,0.8,5.3,0.2,6.2-3.6c0.2,1.1,0.5,1.6,1.2,2.2h8.3
			C142.7,124.9,141.4,124.6,140.9,122.2"/>
	</g>
</g>
<g id="레이어_1">
	<rect x="8" y="8" class="st3" width="234" height="234"/>
</g>
</svg>
