<?xml version="1.0" encoding="utf-8"?>
<!-- Generator: Adobe Illustrator 25.1.0, SVG Export Plug-In . SVG Version: 6.00 Build 0)  -->
<svg version="1.1" xmlns="http://www.w3.org/2000/svg" xmlns:xlink="http://www.w3.org/1999/xlink" x="0px" y="0px"
	 viewBox="0 0 250 250" style="enable-background:new 0 0 250 250;" xml:space="preserve">
<style type="text/css">
	.st0{fill:#FFFFFF;}
	.st1{fill:#002D72;}
	.st2{fill:#DA291C;}
	.st3{fill:none;}
</style>
<g id="Layer_1">
	<g>
		<path class="st0" d="M8,78.1l12.3,14.4v46.6c0,0,19-6.1,25-7.6c2.1,28.5,22.7,72.1,80.5,90.3"/>
		<path class="st0" d="M125.7,221.7c58-19,76.5-58.6,80.3-88.7c4.1,1,11.5,4.2,15,4.2c5.6,0.1,10.9-3.7,10.9-12c0-1.8,0-12.7,0-14.5
			c0-1.9-0.1-7.6-5.6-11.3L242,78.1h-38.1V52.7c-15.6-13.5-44.8-24.4-78.3-24.4c-33.4,0-62.7,10.9-78.2,24.4v25.4H8"/>
		<path class="st1" d="M166.8,66h1.9v8.7h-1.9L166.8,66z"/>
		<g transform="matrix(2.0284 0 0 -2.0284 -205.607 939.856)">
			<g>
				<path class="st1" d="M179.8,428.3v-1h1.9c0.2,0,0.2,0.1,0.2,0.2v0.4c0,0.2-0.1,0.3-0.3,0.3H179.8z M181.8,429.7
					c0,0.2-0.1,0.2-0.2,0.2h-1.8v-1h1.7c0.2,0,0.3,0.1,0.3,0.3V429.7z M178.9,426.5v4.3h2.9c0.6,0,0.9-0.3,0.9-0.9v-0.6
					c0-0.3-0.1-0.5-0.3-0.6c0.3-0.1,0.4-0.3,0.4-0.5v-0.7c0-0.6-0.3-0.9-0.9-0.9H178.9z"/>
			</g>
		</g>
		<g>
			<path class="st1" d="M79.2,69.4h-4V66h-1.9v8.7h1.9v-3.6h4v3.6h1.9V66h-1.9V69.4z"/>
		</g>
		<g transform="matrix(2.0284 0 0 -2.0284 -205.607 939.856)">
			<g>
				<path class="st1" d="M161.8,430h1.7v-1.2h-2v1c0,0,0,0.1,0,0.2C161.6,430,161.7,429.9,161.8,430 M160.8,430.6
					c-0.2-0.2-0.2-0.5-0.2-0.7v-3.4h0.9v1.4h2v-1.4h0.9v4.3h-2.9C161.2,430.8,161,430.8,160.8,430.6"/>
			</g>
			<g>
				<path class="st1" d="M154.2,430.8h-2.9v-4.3h0.9v3.4h1.8c0.1,0,0.2,0,0.2-0.1c0.1-0.1,0-0.1,0-0.2v-3.2h0.9v3.4
					c0,0.2,0,0.5-0.2,0.7C154.7,430.8,154.4,430.8,154.2,430.8"/>
			</g>
			<g>
				<path class="st1" d="M149.5,427.6c0-0.1,0-0.1,0-0.2c-0.1-0.1-0.1,0-0.2,0h-1.8v3.4h-0.9v-4.3h2.9c0.3,0,0.5,0.1,0.7,0.2
					c0.2,0.2,0.2,0.5,0.2,0.7v3.4h-0.9V427.6z"/>
			</g>
			<g>
				<path class="st1" d="M158.9,427.6c0-0.1,0-0.1,0-0.2c0-0.1-0.1,0-0.2,0h-1.8v2.6h1.8c0.1,0,0.2,0,0.2-0.1c0-0.1,0-0.1,0-0.2
					V427.6z M159.8,429.9c0,0.2,0,0.5-0.2,0.7c-0.2,0.2-0.5,0.2-0.7,0.2h-2.9v-4.3h2.9c0.3,0,0.5,0.1,0.7,0.2
					c0.2,0.2,0.2,0.5,0.2,0.7V429.9z"/>
			</g>
		</g>
		<g>
			<path class="st1" d="M86.4,69.8L84.1,66h-2.3l3.5,5.5v3.2h2v-3.2l3.5-5.5h-2.2L86.4,69.8z"/>
		</g>
		<path class="st1" d="M129.9,74.7h2V66h-2V74.7z"/>
		<g>
			<path class="st1" d="M136.9,66v8.7h1.9v-5.5l1.9,5.5h1.7l1.8-5.5v5.5h1.9V66h-2.5l-2.1,6.1l-2.1-6.1H136.9z"/>
		</g>
		<g>
			<path class="st1" d="M153.6,72.5c0,0.1,0,0.2-0.1,0.2c-0.1,0.1-0.2,0.1-0.4,0.1h-3.1c-0.2,0-0.3,0-0.4-0.1c0-0.1-0.1-0.2-0.1-0.2
				v-4.2c0-0.1,0-0.2,0.1-0.2c0.1-0.1,0.2-0.1,0.4-0.1h3.1c0.2,0,0.3,0,0.4,0.1c0.1,0.1,0.1,0.2,0.1,0.2V72.5z M155.1,66.5
				c-0.4-0.4-0.9-0.5-1.5-0.5h-4c-0.6,0-1.1,0.1-1.5,0.5c-0.4,0.4-0.4,1-0.4,1.3v5c0,0.4,0,0.9,0.4,1.4c0.4,0.4,0.9,0.5,1.5,0.5h4
				c0.6,0,1.1-0.1,1.5-0.5c0.4-0.4,0.4-1,0.4-1.4v-5C155.5,67.5,155.5,66.9,155.1,66.5"/>
		</g>
		<g>
			<path class="st1" d="M176.3,69.6h-3.6c-0.3,0-0.5-0.2-0.5-0.5v-0.9c0-0.3,0.2-0.5,0.5-0.5h5V66h-5.5c-1.3,0-1.9,0.6-1.9,1.9v1.4
				c0,1.2,0.6,1.8,1.8,1.8h3.6c0.3,0,0.5,0.2,0.5,0.5v0.9c0,0.3-0.2,0.5-0.5,0.5h-5.1v1.7h5.6c1.3,0,1.9-0.6,1.9-1.9v-1.5
				C178.1,70.1,177.5,69.6,176.3,69.6"/>
		</g>
		<g>
			<path class="st1" d="M72.8,98.3c-2.5,0.2-5.2,0.3-7.7,0.5V84.3H53.8c0,0,2.7,1.5,2.7,5.3c0,11,0,33.3,0,33.3
				c2.9-0.7,5.8-1.3,8.7-1.8v-15.3c2.5-0.3,5.2-0.5,7.7-0.8v14.8c2.9-0.5,5.7-0.9,8.7-1.4V84.3h-8.7V98.3z"/>
		</g>
		<g>
			<path class="st1" d="M105.2,84.3H83.9c0,0,2.7,1.3,2.6,4.6v24c0,3.2,2.4,4.8,6.7,4.4c4-0.4,7.8-0.7,11.8-1
				c4.3-0.3,6.8-2.1,6.8-4.9V88.9C111.8,86,109.4,84.3,105.2,84.3 M103.1,109.9c0,0.7-0.6,1.2-1.7,1.3c-1.4,0.1-3,0.2-4.5,0.3
				c-1.1,0.1-1.7-0.3-1.7-1V91c0-0.8,0.6-1.2,1.6-1.2c1.4,0,3.2,0,4.7-0.1c1.1,0,1.6,0.4,1.6,1.1V109.9z"/>
		</g>
		<g>
			<path class="st1" d="M160.9,84.3H140c0,0,2.8,1.2,2.8,4.3c0,9,0,27.5,0,27.5c6.1,0.3,12.5,0.8,18.7,1.5c4.2,0.5,6.3-1,6.3-4.1
				V106c0-3.1-1.6-4.9-6.1-5.4c4.5,0,6.2-1.4,6.1-4.6v-6.8C167.7,86.2,165.2,84.3,160.9,84.3 M159.1,110.7c0,0.7-0.6,1.1-1.7,1.1
				c-1.9-0.2-3.9-0.3-5.9-0.5v-8.6c1.9,0.1,3.9,0.2,5.8,0.3c1.1,0.1,1.7,0.5,1.7,1.3V110.7z M159.1,96.8c0,0.7-0.6,1.2-1.7,1.1
				c-1.9-0.1-4-0.1-5.9-0.2v-7.9c1.9,0,4,0.1,5.8,0.1c1.1,0,1.7,0.4,1.7,1.2V96.8z"/>
		</g>
		<g>
			<path class="st1" d="M187.7,114.2c0,0.9-0.6,1.2-1.6,1.1c-1.4-0.2-2.8-0.6-4.2-0.8c-1.1-0.2-1.7-0.9-1.7-1.7V84.3h-11.6
				c0,0,2.8,1.3,2.9,4.7v24.4c0,3.5,2.6,5.7,6.8,6.4c3.9,0.6,7.7,1.6,11.5,2.3c4.2,0.9,6.6-0.6,6.6-4.3V84.3h-8.7V114.2z"/>
		</g>
		<g>
			<path class="st1" d="M45.8,84.3H21.5c0,0,5,5.8,5,6v40.2c3-1,5.9-1.9,8.9-2.7v-14.1c3.4-0.6,6.9-1.2,10.3-1.8
				c4.1-0.7,6.6-3.2,6.7-6.8c0-5,0-10.1,0-15.1C52.4,86.5,49.9,84.3,45.8,84.3 M43.5,103.4c-0.1,0.9-0.7,1.4-1.7,1.6
				c-2.2,0.3-4.2,0.6-6.4,0.9c0-4.7,0-9.4,0-14.2c2.2-0.1,4.2-0.2,6.5-0.3c1-0.1,1.6,0.4,1.6,1.3C43.4,96.3,43.5,99.9,43.5,103.4"/>
		</g>
		<g>
			<path class="st1" d="M198.4,84.3c0,0,2.8,1.5,2.9,5.5c0,2.8,0,4.1,0,7c0,2.7,1.2,4.2,3.4,5.5c2,1.2,9.7,5.1,11.5,6.2
				c0.9,0.6,1,1.3,1,2.1v9.9c0,1.1-0.6,1.6-1.6,1.4c-1.3-0.4-2.6-0.9-3.8-1.2c-1.2-0.4-1.6-1.1-1.6-2.2v-5.6c-2.8-0.5-5.7-1-8.5-1.4
				c0,0,0,4.9,0,7.3c0.1,4,2.3,6.6,6.7,8.1c3.6,1.2,7.3,2.5,10.9,3.6c4.1,1.3,6.5-0.7,6.5-5.4c0-3.5,0-10.8,0-14.3
				c0-2.5-0.5-4.9-3.3-6.5c-3.4-2-9.4-5.1-11.3-6.2c-0.7-0.4-1.1-0.8-1.1-1.9c0-1.7,0-1.8,0-3.8c0-1,0.6-1.6,1.7-1.6
				c4.1,0.2,8.9,0.3,13,0.5c1.8-2.3,3.5-4.7,5.2-7H198.4z"/>
		</g>
		<g>
			<path class="st1" d="M113.4,84.3c0,0,2.8,1.2,2.7,4.3v27.2c7.3-0.2,14.3-0.2,21.6,0.1V110c-4.2-0.1-8.6-0.2-12.9-0.2v-6.3
				c3.7,0,7.7,0,11.4,0.1v-6.7c-3.7-0.1-7.7-0.1-11.4-0.1v-6.7c4.2,0,8.7,0,12.9,0.1v-5.9h-21.5H113.4z"/>
		</g>
		<g>
			<path class="st2" d="M63.1,62.4c5.2-6.6,33.2-24.9,73.9-26.9c-3.6-0.4-44.7-8.1-83.3,20.7v20.6h9.4V62.4z"/>
		</g>
		<g>
			<path class="st2" d="M125.7,187.7c7.3-1.8,53.2-18.6,51.2-62.2c-16.7-2.8-36.3-3.9-51.2-3.9c-15,0-34.6,1.1-51.2,3.9
				C72.5,169.2,118.4,185.9,125.7,187.7"/>
		</g>
		<g>
			<path class="st2" d="M125.7,215.2c22.9-7.2,69-31.7,74.5-85c-5.1-1.3-10.4-2.3-15.7-3.3c2.1,44.8-46.7,66.7-58.8,68.6
				c-12-1.9-60.9-23.8-58.8-68.6c-5.2,1-10.6,2.1-15.7,3.3C56.7,183.5,102.8,208.1,125.7,215.2"/>
		</g>
		<g>
			<path class="st2" d="M107.8,44.9c10.2-1.8,46.8-5.9,80.6,17.5v14.4h9.4V56.3C160.4,32.1,120.1,40.8,107.8,44.9"/>
		</g>
		<g>
			<path class="st0" d="M162.1,165.5c-0.6-19.7-16.4-35.2-36.4-35.2c-20,0-35.8,15.5-36.4,35.2c0.2,0.3,0.5,0.5,0.7,0.8
				c0.2-2,0.6-4,1.1-5.9l0,0.1c6-5.6,14.3-9.4,22.7-11.2c-0.4,3.7-3.3,7.9-6.3,12.4c-3.3,4.8-5,10.2-4.8,15.2
				c0.3,0.2,0.5,0.4,0.8,0.5c0.7-4.8,3.5-9.5,6.6-14.1c3.5-5.1,7.4-10.1,7.5-14.7c2-0.3,4.1-0.5,6-0.6l1.5,39.7
				c0.1,0,0.3,0.1,0.4,0.1c0.1,0,0.3-0.1,0.4-0.1l1.5-39.7c2,0.1,4,0.3,6,0.6c0.1,4.7,4.1,9.7,7.5,14.7c3.2,4.6,5.9,9.3,6.7,14.2
				c0.3-0.2,0.6-0.4,0.8-0.6c0.2-5-1.5-10.5-4.8-15.2c-3-4.4-5.9-8.6-6.3-12.4c8.4,1.9,16.7,5.6,22.6,11.2v-0.1
				c0.6,1.9,0.9,3.9,1.2,5.9C161.6,166,161.8,165.8,162.1,165.5 M92.3,157.6c2.4-6.3,6.7-11.8,12.1-15.8c1.4-0.1,4.9-0.2,7.2,1.4
				c0.9,0.6,1.6,1.5,2,2.6C105.6,147.7,98.1,151.8,92.3,157.6 M117.3,144.9c-0.6-1.7-1.7-3.1-3.3-4.2c-1.6-1-3.4-1.6-5.1-1.9
				c4.4-2.4,9.3-3.8,14.3-4.1l0.4,9.4C121.5,144.2,119.4,144.5,117.3,144.9 M137.3,140.7c-1.6,1.1-2.7,2.5-3.3,4.2
				c-2.1-0.4-4.2-0.6-6.3-0.7l0.4-9.4c5,0.4,9.9,1.8,14.3,4.1C140.7,139.1,138.9,139.7,137.3,140.7 M137.8,145.7
				c0.4-1.1,1.1-2,2-2.6c2.3-1.5,5.8-1.5,7.2-1.4c5.4,4,9.7,9.5,12.1,15.8C153.2,151.8,145.8,147.7,137.8,145.7"/>
		</g>
	</g>
</g>
<g id="레이어_1">
	<rect x="8" y="8" class="st3" width="234" height="234"/>
</g>
</svg>
