<?xml version="1.0" encoding="utf-8"?>
<!-- Generator: Adobe Illustrator 25.1.0, SVG Export Plug-In . SVG Version: 6.00 Build 0)  -->
<svg version="1.1" xmlns="http://www.w3.org/2000/svg" xmlns:xlink="http://www.w3.org/1999/xlink" x="0px" y="0px"
	 viewBox="0 0 250 250" style="enable-background:new 0 0 250 250;" xml:space="preserve">
<style type="text/css">
	.st0{fill:#064B07;fill-opacity:0;}
	.st1{fill:#00205B;}
	.st2{fill:#B5B5B6;}
	.st3{fill:url(#SVGID_1_);}
	.st4{fill:#005226;}
	.st5{fill:#FFFFFF;}
	.st6{fill:#007F41;}
	.st7{fill:#001A54;}
	.st8{fill:#008F43;}
	.st9{fill:#E9470A;}
	.st10{fill:none;}
</style>
<g id="Layer_1">
	<g>
		<path class="st0" d="M8,7.3h234v235.4H8V7.3z"/>
		<g transform="matrix(4.21137 0 0 -4.21137 -730.137 2392.049)">
			<path class="st1" d="M176.7,538.3c0,14.5,11.8,26.3,26.3,26.3c14.5,0,26.3-11.8,26.3-26.3c0-14.5-11.8-26.3-26.3-26.3
				C188.5,512.1,176.7,523.8,176.7,538.3"/>
			<path class="st2" d="M203,565.6c-7.3,0-14.1-2.8-19.3-8c-5.2-5.2-8-12-8-19.3c0-7.3,2.8-14.1,8-19.3c5.2-5.2,12-8,19.3-8
				c7.3,0,14.1,2.8,19.3,8c5.2,5.2,8,12,8,19.3c0,7.3-2.8,14.1-8,19.3C217.1,562.8,210.3,565.6,203,565.6 M203,564.6
				c14.5,0,26.3-11.8,26.3-26.3s-11.8-26.3-26.3-26.3c-14.5,0-26.3,11.8-26.3,26.3S188.5,564.6,203,564.6"/>
		</g>
		
			<radialGradient id="SVGID_1_" cx="0.1602" cy="250.1523" r="0.2423" gradientTransform="matrix(426.8806 0 0 426.8806 56.4275 -106660.1953)" gradientUnits="userSpaceOnUse">
			<stop  offset="0" style="stop-color:#009633"/>
			<stop  offset="5.133240e-02" style="stop-color:#009633"/>
			<stop  offset="1" style="stop-color:#005226"/>
		</radialGradient>
		<path class="st3" d="M21.4,124.9c0,57,46.4,103.4,103.4,103.4S228.3,182,228.3,124.9c0-57-46.4-103.4-103.4-103.4
			S21.4,67.9,21.4,124.9"/>
		<path class="st4" d="M219.1,121.1c-6.5-6.1-14.4-8.9-23.3-8.1c-2.2-6.8-5-13.5-8.3-19.8c8-1.9,16.1-3.5,24.3-4.8
			c-0.8-2-1.7-3.9-2.7-5.9c-8.3,1.4-16.5,3.1-24.6,5c-3.3-5.7-6.7-10.9-10.4-15.6c0.9-0.5,1.8-1.1,2.6-1.8c4.8-3.6,9.3-9.3,8.4-18
			c-2.6-2.2-5.4-4.3-8.2-6.2c3.8,8.2,2.5,14.4-3.9,19.2c-0.9,0.7-1.8,1.3-2.8,1.8c-17.9-21-38.8-31.5-57.4-36.6
			c-5.3,0.6-10.5,1.6-15.6,3.1c20.1,2.9,45.7,11.9,67,36c-9.3,2.8-20,1.4-29.7-0.3c-1.6-0.3-3.3-0.6-5-0.9
			C110.1,65,90,61.4,70.8,66.8C58,70.3,45.6,78.1,35.7,88.5c-2.3,5.5-4.1,11.1-5.3,17C40,89.8,56,77.3,72.4,72.8
			c17.9-5,37.3-1.5,56,1.9c1.7,0.3,3.3,0.6,5,0.9c12,2.1,24.3,3.3,35-0.7c3.4,4.3,6.7,9.1,9.8,14.3c-13.4,3.5-26.5,7.7-39.4,12.7
			c-39,15-73.4,35.9-102.4,62.1c0.9,2,1.8,3.9,2.8,5.8c48.3-44.2,103.4-65.2,142.1-75c0.1,0.2,0.2,0.4,0.3,0.6
			c3.2,6,5.9,12.3,8,18.8c-14.8,4.6-24.8,21.8-36.2,41.5c-13.6,23.5-29,50-56.2,61.5c3.2,0.9,6.4,1.7,9.7,2.2
			c24.6-13.5,39-38.4,51.9-60.6c10.7-18.5,20.1-34.7,32.6-38.6c6.3,22.9,5.8,47.7-1.5,74c3.1-3,6.1-6.2,8.7-9.6
			c2.5-12.1,3.6-24,3.3-35.5c-0.3-10.3-1.8-20.2-4.3-29.9c8.6-0.4,15.7,3.3,21.5,11.3c0.1-1.7,0.1-3.4,0.1-5.1
			C219.2,123.9,219.2,122.5,219.1,121.1"/>
		<path class="st5" d="M74.5,57.6L71.4,60l6.1,7.8l3.1-2.4L74.5,57.6z M82.9,66.9l-6,4.7l-9.4-12l6-4.7l2.7,0.3l7.1,9L82.9,66.9z"/>
		<path class="st5" d="M92,54.2L88.4,56l1.7,3.4l3.5-1.8L92,54.2z M89.2,48.7l-3.5,1.8l1.6,3.2l3.5-1.8L89.2,48.7z M95.6,59.6
			L88.8,63L82,49.3l6.8-3.4l2.6,0.9l2,3.9l-0.5,1.6l1.6,0.5l2.1,4.2L95.6,59.6z"/>
		<path class="st5" d="M115.9,41.3l-3.9,0.5l0.5,4l3.9-0.5L115.9,41.3z M117.6,47.9l-4.8,0.6l0.8,5.8l-2.7,0.4l-2-15.1l7.5-1
			l2.1,1.6l0.7,5.5L117.6,47.9z"/>
		<path class="st5" d="M133,41.2l-3.9-0.3l-0.3,3.9l3.9,0.3L133,41.2z M132.3,53.8l-1.9-6l-1.8-0.1l-0.4,5.9l-2.8-0.2l1.1-15.2
			l7.5,0.5l1.8,2l-0.4,5.5l-2,1.8l2,6L132.3,53.8z"/>
		<path class="st5" d="M149.5,44.5l-3.8-1.1L143,53l3.8,1.1L149.5,44.5z M146.9,56.9l-5.5-1.5l-1.3-2.3l3.1-11l2.3-1.3l5.5,1.5
			l1.3,2.3l-3.1,11L146.9,56.9z"/>
		<path class="st5" d="M163.4,64.5l-2.4-1.3l3.7-7l-4.5,3.8l-1.2-0.6l0.6-5.8l-3.8,7l-2.4-1.3l7.2-13.4l2.2,1.2l-0.9,8.1l6.2-5.2
			l2.2,1.2L163.4,64.5z"/>
		<path class="st5" d="M176.1,66.5l-4,4.8l-2.1-1.8l4-4.8l2.5-9.7l2.5,2.1l-1.9,6.2l5.8-3l2.4,2L176.1,66.5z"/>
		<path class="st5" d="M53.9,157.3l-1.1-2.6l-2.7,1.2l1.1,2.6L53.9,157.3z M49.8,159.8l-1.4-3.1l-3.8,1.7l-0.8-1.8l9.9-4.3l2.1,4.9
			l-0.7,1.8l-3.6,1.6L49.8,159.8z"/>
		<path class="st5" d="M59.1,166.7l-1.5-2.4l-2.4,1.5l1.5,2.4L59.1,166.7z M51.5,171.5l2.7-3.6l-0.7-1.1l-3.6,2.2l-1-1.7l9.3-5.6
			l2.8,4.6l-0.5,1.9l-3.4,2.1l-1.9-0.5l-2.7,3.6L51.5,171.5z"/>
		<path class="st5" d="M65.3,175.1l-1.8-2.2l-5.5,4.5l1.8,2.2L65.3,175.1z M58.7,181.3l-2.5-3.1l0.2-1.9l6.3-5.1l1.9,0.2l2.5,3.1
			l-0.2,1.9l-6.3,5.1L58.7,181.3z"/>
		<path class="st5" d="M77.8,187.1l-2.2-1.7l-1.6,2l2.2,1.7L77.8,187.1z M75.1,190.5l-2.2-1.7l-1.7,2.1l2.2,1.7L75.1,190.5z
			 M72.8,194.5l-4.2-3.3l6.7-8.5l4.2,3.3l0.2,1.9l-1.9,2.5l-1.2,0.1l0.1,1.2l-2,2.6L72.8,194.5z"/>
		<path class="st5" d="M84.7,193.2l-2.4,2.4l1.4,0.9L84.7,193.2z M82.7,200.9l0.7-2.7l-2.3-1.4l-1.9,1.9l-1.7-1l8.2-7.8l1.5,0.9
			l-2.8,10.9L82.7,200.9z"/>
		<path class="st5" d="M93.2,205.9l-4.1-1.7l-0.5-1.1l0.4-1l4.3,1.8l1-2.3l-3.1-1.3l-0.7-1.8l1.4-3.3l1.8-0.7l4.1,1.7l0.5,1.1
			l-0.4,1l-4.3-1.8l-0.9,2.2l3.1,1.3l0.7,1.8l-1.5,3.5L93.2,205.9z"/>
		<path class="st5" d="M105.8,209.7l-0.8-6.2l-2.9,2.3l-0.7,2.7l-1.9-0.5l2.7-10.5l1.9,0.5l-1.3,4.9l5-4l2.2,0.6l-3.2,2.6l0.9,8
			L105.8,209.7z"/>
		<path class="st5" d="M112.1,210.9l1.2-10.8l6.7,0.7l-0.2,1.9l-4.7-0.5l-0.3,2.5l3.2,0.4l-0.2,2l-3.2-0.4l-0.3,2.5l4.7,0.5
			l-0.2,1.9L112.1,210.9z"/>
		<path class="st5" d="M130.4,202.7l-2.8,0.1l0.2,9l-2,0l-0.2-9l-2.8,0.1l0-1.9l7.6-0.2L130.4,202.7z"/>
		<path class="st5" d="M139.1,206l-2.8,0.4l0.4,2.7l2.8-0.4L139.1,206z M138.4,201.7l-2.8,0.4l0.4,2.5l2.8-0.4L138.4,201.7z
			 M140.4,210.4l-5.3,0.8l-1.7-10.7l5.3-0.8l1.5,1.1l0.5,3.1l-0.7,1l1,0.7l0.5,3.3L140.4,210.4z"/>
		<path class="st5" d="M147.6,200.8l0.1,3.4l1.6-0.5L147.6,200.8z M151.8,207.5l-1.5-2.3l-2.6,0.8l0.1,2.7l-1.9,0.6l-0.2-11.3
			l1.7-0.5l6.1,9.5L151.8,207.5z"/>
		<path class="st5" d="M157.7,205.4l-4.4-9.9l1.8-0.8l3.7,8.2l4-1.8l0.8,1.7L157.7,205.4z"/>
		<path class="st5" d="M167.5,200.6l-5.6-9.2l1.7-1l4.7,7.6l3.7-2.3l1,1.6L167.5,200.6z"/>
		<path class="st5" d="M186.2,186.4l-2.8,2.6l-1.9-0.1l-5.6-5.9l0-1.9l2.8-2.6l1.9,0l0.4,0.4l-3.3,3.1l4.9,5.1l3.3-3.2l0.4,0.4
			L186.2,186.4z"/>
		<path class="st5" d="M190.4,182l-8.4-6.8l1.2-1.5l6.9,5.7l2.7-3.4l1.5,1.2L190.4,182z"/>
		<path class="st5" d="M199.9,168.7l-2.1,3.4l-1.9,0.4l-8.1-5l1-1.7l7.6,4.7l1.5-2.4l-7.6-4.7l1-1.7l8.1,5L199.9,168.7z"/>
		<path class="st5" d="M200.8,156.7l-1.1,2.6l2.5,1.1l1.1-2.6L200.8,156.7z M196.7,154.9l-1.1,2.6l2.3,1l1.1-2.6L196.7,154.9z
			 M205.2,158l-2.2,4.9l-9.9-4.4l2.2-4.9l1.8-0.7l2.9,1.3l0.4,1.1l1.1-0.4l3,1.3L205.2,158z"/>
		<path class="st5" d="M124.8,26.7c-54.2,0-98.2,44.1-98.2,98.2c0,54.2,44.1,98.2,98.2,98.2c54.2,0,98.2-44.1,98.2-98.2
			C223,70.8,179,26.7,124.8,26.7 M124.8,30.5c52.1,0,94.4,42.3,94.4,94.4s-42.3,94.4-94.4,94.4s-94.4-42.3-94.4-94.4
			S72.7,30.5,124.8,30.5"/>
		<path class="st6" d="M151.4,126.4H99v-15h52.4L151.4,126.4z M154,100.2H89.4c-1.1,0-2.1,0.9-2.1,2.1c0,0,0,0,0,0V128l-2.9,3.8
			c-0.3,0.3-0.3,0.8,0,1.2c0,0,0,0,0,0l2.9,3.8v23.7c0,0.4,0.4,0.5,0.7,0.3l11-9.9v-13.5h52.4l10.8-9.8c0.6-0.5,0.9-1.2,0.9-2v-16.3
			c0-0.7-0.3-1.4-0.8-1.9l-6.5-6.5C155.3,100.5,154.7,100.2,154,100.2"/>
		<path class="st7" d="M100.1,125.3h50.2v-12.7h-50.2V125.3z M152.6,127.5H97.9v-17.2h54.7V127.5z M85.4,132.4l3.1,4v22.5l9.4-8.5
			v-14.1H151l10.5-9.5c0.3-0.3,0.5-0.7,0.5-1.1v-16.3c0-0.4-0.2-0.8-0.4-1.1l-6.5-6.5c-0.3-0.3-0.7-0.4-1.1-0.4H89.4
			c-0.5,0-0.9,0.4-0.9,0.9l0,0v26.1L85.4,132.4z M87.7,162.1c-0.9,0-1.5-0.7-1.5-1.5v-23.4l-2.7-3.4c-0.7-0.7-0.7-1.9,0-2.6l2.7-3.4
			v-25.4c0-1.8,1.4-3.2,3.2-3.2H154c1,0,2,0.4,2.7,1.1l6.5,6.5c0.7,0.7,1.1,1.7,1.1,2.7v16.3c0,1.1-0.5,2.1-1.2,2.8l-11.1,10.1
			h-51.7v12.8l-11.4,10.3C88.5,161.9,88.1,162.1,87.7,162.1"/>
		<path class="st1" d="M99,110.6c-0.5,0-0.8,0.4-0.8,0.8l0,0v15c0,0.5,0.4,0.8,0.8,0.8c0,0,0,0,0,0h52.4c0.5,0,0.8-0.4,0.8-0.8
			c0,0,0,0,0,0v-15c0-0.5-0.4-0.8-0.8-0.8c0,0,0,0,0,0H99z M88.2,136.8c0-0.2-0.1-0.4-0.2-0.6l-2.9-3.8l2.9-3.8
			c0.2-0.2,0.2-0.4,0.2-0.6v-25.8c0-0.7,0.6-1.2,1.2-1.2H154c0.5,0,0.9,0.2,1.3,0.5l6.5,6.5c0.3,0.3,0.5,0.8,0.5,1.3v16.3
			c0,0.5-0.2,1-0.6,1.3l-10.6,9.6H99c-0.5,0-0.8,0.4-0.8,0.8l0,0v13.1l-10,9.1V136.8z"/>
		<path class="st7" d="M99,111c-0.2,0-0.4,0.2-0.4,0.4v15c0,0.2,0.2,0.4,0.4,0.4h52.4c0.2,0,0.4-0.2,0.4-0.4v-15
			c0-0.2-0.2-0.4-0.4-0.4H99z M151.4,127.7H99c-0.7,0-1.3-0.6-1.3-1.3v-15c0-0.7,0.6-1.3,1.3-1.3h52.4c0.7,0,1.3,0.6,1.3,1.3v15
			C152.7,127.1,152.1,127.7,151.4,127.7 M88.3,135.9c0.2,0.2,0.4,0.5,0.4,0.9v21.8l9.1-8.3v-12.9c0-0.7,0.6-1.3,1.3-1.3H151
			l10.4-9.4c0.3-0.3,0.5-0.6,0.5-1v-16.3c0-0.4-0.1-0.7-0.4-1l-6.5-6.5c-0.3-0.3-0.6-0.4-1-0.4H89.4c-0.4,0-0.8,0.4-0.8,0.8v25.8
			c0,0.3-0.1,0.6-0.4,0.9l-2.7,3.5L88.3,135.9z M87.7,160.6v-23.8c0-0.1,0-0.2-0.1-0.3l0,0l-3.1-4.1l3.2-4.1
			c0.1-0.1,0.1-0.2,0.1-0.3v-25.8c0-0.9,0.8-1.7,1.7-1.7H154c0.6,0,1.2,0.2,1.6,0.7l6.5,6.5c0.4,0.4,0.7,1,0.7,1.6v16.3
			c0,0.6-0.3,1.3-0.7,1.7l-10.7,9.7H99c-0.2,0-0.4,0.2-0.4,0.4l0,0v13.3L87.7,160.6z"/>
		<path class="st6" d="M151.4,141.5v12.9H99.7l-11.5,10.4c-0.2,0.2-0.2,0.4,0,0.6c0.1,0.1,0.2,0.1,0.3,0.1H154
			c0.7,0,1.4-0.3,1.9-0.8l6.5-6.5c0.5-0.5,0.8-1.2,0.8-1.9v-17.4c0-0.7-0.3-1.4-0.8-1.9l-2.6-2.6c-0.2-0.2-0.4-0.2-0.6,0
			L151.4,141.5z"/>
		<path class="st7" d="M90.3,164.4H154c0.4,0,0.8-0.2,1.1-0.4l6.5-6.5c0.3-0.3,0.4-0.7,0.4-1.1v-17.4c0-0.4-0.2-0.8-0.4-1.1
			l-2.1-2.1l-6.9,6.2v13.5h-52.5L90.3,164.4z M154,166.6H88.4c-0.6,0-1.2-0.4-1.4-1c-0.2-0.6-0.1-1.3,0.4-1.7l11.9-10.7h51.1V141
			l8.1-7.3c0.6-0.6,1.5-0.5,2.1,0.1l2.6,2.6c0.7,0.7,1.1,1.7,1.1,2.7v17.4c0,1-0.4,2-1.1,2.7l-6.5,6.5
			C155.9,166.2,155,166.6,154,166.6"/>
		<path class="st1" d="M89.5,164.7l10.5-9.5h51.5c0.5,0,0.8-0.4,0.8-0.8c0,0,0,0,0,0v-12.5l7.2-6.5l2.3,2.3c0.3,0.3,0.5,0.8,0.5,1.3
			v17.4c0,0.5-0.2,0.9-0.5,1.3l-6.5,6.5c-0.3,0.3-0.8,0.5-1.3,0.5H89.5z"/>
		<path class="st7" d="M90.7,164.2H154c0.4,0,0.7-0.1,1-0.4l6.5-6.5c0.3-0.3,0.4-0.6,0.4-1v-17.4c0-0.4-0.1-0.7-0.4-1l-2-2l-6.7,6.1
			v12.3c0,0.7-0.6,1.3-1.3,1.3h-51.3L90.7,164.2z M154,165.1H88.3l11.5-10.4h51.6c0.2,0,0.4-0.2,0.4-0.4v-12.7l7.7-6.9l2.6,2.6
			c0.4,0.4,0.7,1,0.7,1.6v17.4c0,0.6-0.2,1.2-0.7,1.6l-6.5,6.5C155.2,164.9,154.6,165.1,154,165.1"/>
		<path class="st6" d="M133.6,170.9h-16.7v-76h16.7V170.9z M138,84.5c-0.5-0.5-1.2-0.8-1.9-0.8h-6.6l-3.8-3c-0.3-0.3-0.8-0.3-1.2,0
			l-3.8,3h-13.7c-1.1,0-2.1,0.9-2.1,2.1V180c0,1.1,0.9,2.1,2.1,2.1h13.7l3.8,2.7c0.3,0.3,0.8,0.3,1.2,0l3.8-2.7h6.4
			c0.8,0,1.5-0.3,2-0.8l6.4-6.4c0.5-0.5,0.8-1.3,0.8-2V93.6c0-1.2-0.5-2.3-1.3-3.2L138,84.5z"/>
		<path class="st7" d="M118.1,169.7h14.4V96h-14.4V169.7z M134.8,172h-19V93.7h19V172z M107.2,84.8c-0.5,0-0.9,0.4-0.9,0.9V180
			c0,0.5,0.4,0.9,0.9,0.9h0h14.1l4,2.8l4-2.8h6.8c0.5,0,0.9-0.2,1.3-0.5l6.4-6.4c0.3-0.3,0.5-0.8,0.5-1.2V93.6c0-0.9-0.3-1.7-1-2.4
			l-6-6c-0.3-0.3-0.7-0.4-1.1-0.4h-6.9l-3.9-3.1l-3.9,3.1L107.2,84.8z M125.3,186.1c-0.5,0-0.9-0.2-1.3-0.5l-3.4-2.4h-13.4
			c-1.8,0-3.2-1.4-3.2-3.2V85.8c0-1.8,1.4-3.2,3.2-3.2h13.3l3.4-2.7c0.7-0.7,1.9-0.7,2.7,0l3.4,2.7h6.2c1,0,2,0.4,2.7,1.1l6,6
			c1.1,1,1.6,2.5,1.6,4v79.2c0,1.1-0.4,2.1-1.2,2.8l-6.4,6.4c-0.8,0.8-1.8,1.2-2.8,1.2H130l-3.4,2.4
			C126.2,185.9,125.7,186.1,125.3,186.1"/>
		<path class="st1" d="M116.9,94c-0.5,0-0.8,0.4-0.8,0.8c0,0,0,0,0,0v76c0,0.5,0.4,0.8,0.8,0.8h16.7c0.5,0,0.8-0.4,0.8-0.8v-76
			c0-0.5-0.4-0.8-0.8-0.8H116.9z M121.5,181.5c-0.2-0.2-0.4-0.2-0.6-0.2h-13.7c-0.7,0-1.2-0.6-1.2-1.2V85.8c0-0.7,0.6-1.2,1.2-1.2
			h13.7c0.2,0,0.4-0.1,0.6-0.3l3.8-3l3.7,3c0.2,0.2,0.4,0.2,0.6,0.3h6.6c0.5,0,0.9,0.2,1.3,0.5l6,6c0.7,0.7,1.1,1.6,1.1,2.6v79.2
			c0,0.6-0.2,1.1-0.6,1.5l-6.4,6.4c-0.4,0.4-0.9,0.6-1.5,0.6h-6.4c-0.2,0-0.4,0.1-0.6,0.2l-3.8,2.9L121.5,181.5z"/>
		<path class="st7" d="M116.9,94.5c-0.2,0-0.4,0.2-0.4,0.4v76c0,0.2,0.2,0.4,0.4,0.4h16.7c0.2,0,0.4-0.2,0.4-0.4v-76
			c0-0.2-0.2-0.4-0.4-0.4L116.9,94.5z M133.6,172.2h-16.7c-0.7,0-1.3-0.6-1.3-1.3v-76c0-0.7,0.6-1.3,1.3-1.3h16.7
			c0.7,0,1.3,0.6,1.3,1.3v76C134.9,171.6,134.3,172.2,133.6,172.2 M121.8,181.1c0.3,0.2,2.6,2,3.5,2.6l3.5-2.6
			c0.2-0.2,0.5-0.4,0.9-0.4h6.4c0.4,0,0.8-0.2,1.1-0.5l6.4-6.4c0.3-0.3,0.5-0.7,0.5-1.1V93.6c0-0.8-0.3-1.7-0.9-2.3l-6-6
			c-0.3-0.3-0.6-0.4-1-0.4h-6.6c-0.3,0-0.7-0.1-0.9-0.4l-3.4-2.7l-3.5,2.7c-0.2,0.2-0.6,0.4-0.9,0.4h-13.7c-0.4,0-0.8,0.4-0.8,0.8
			V180c0,0.4,0.4,0.8,0.8,0.8h13.7C121.3,180.8,121.6,180.9,121.8,181.1 M125.4,184.8h-0.2c-0.2,0-0.2,0-4-3l0,0
			c-0.1-0.1-0.2-0.1-0.3-0.1h-13.7c-0.9,0-1.7-0.8-1.7-1.7V85.8c0-0.9,0.8-1.7,1.7-1.7h13.7c0.1,0,0.2,0,0.3-0.1l0,0l4-3.2l4.1,3.2
			c0.1,0.1,0.2,0.1,0.3,0.1h6.6c0.6,0,1.2,0.2,1.6,0.7l6,6c0.8,0.8,1.2,1.8,1.2,2.9v79.2c0,0.7-0.3,1.3-0.7,1.8l-6.4,6.4
			c-0.5,0.5-1.1,0.7-1.8,0.7h-6.4c-0.1,0-0.2,0-0.3,0.1l0,0L125.4,184.8z"/>
		<path class="st8" d="M154.2,123.6h-52.4v-15h52.4L154.2,123.6z M156.7,97.4H92.1c-1.1,0-2.1,0.9-2.1,2.1c0,0,0,0,0,0v25.7
			l-2.9,3.8c-0.3,0.3-0.3,0.8,0,1.2l2.9,3.8v23.7c0,0.4,0.4,0.5,0.7,0.3l11-9.9v-13.5h52.4l10.8-9.8c0.6-0.5,0.9-1.2,0.9-2v-16.3
			c0-0.7-0.3-1.4-0.8-1.9l-6.5-6.5C158.1,97.7,157.4,97.4,156.7,97.4"/>
		<path class="st7" d="M102.5,122.9h51v-13.5h-51V122.9z M154.9,124.3H101v-16.5h53.9V124.3z M92.1,98.2c-0.7,0-1.3,0.6-1.3,1.3v26
			l-3.1,4.1c0,0,0,0,0,0.1c0,0,0,0.1,0,0.1l0.1,0.1l3.1,4V157l10.2-9.2v-13.9h52.9l10.6-9.6c0.4-0.4,0.6-0.9,0.6-1.4v-16.3
			c0-0.5-0.2-1-0.6-1.4l-6.5-6.5c-0.4-0.4-0.8-0.6-1.4-0.6L92.1,98.2z M90.5,158.9c-0.6,0-1.1-0.5-1.1-1.1c0,0,0,0,0,0v-23.5
			l-2.7-3.6c-0.3-0.3-0.4-0.7-0.4-1.1c0-0.4,0.1-0.8,0.4-1.1l2.7-3.6V99.5c0-1.5,1.3-2.8,2.8-2.8h64.6c0.9,0,1.7,0.4,2.4,1l6.5,6.5
			c0.6,0.6,1,1.5,1,2.4v16.3c0,1-0.4,1.9-1.1,2.5l-11,10h-52v13.1l-11.2,10.2C91,158.8,90.8,158.9,90.5,158.9"/>
		<path class="st5" d="M101.8,108.1c-0.3,0-0.5,0.2-0.5,0.5v15c0,0.3,0.2,0.5,0.5,0.5h52.4c0.3,0,0.5-0.2,0.5-0.5v-15
			c0-0.3-0.2-0.5-0.5-0.5H101.8z M154.2,124.7h-52.4c-0.6,0-1.1-0.5-1.1-1.1v-15c0-0.6,0.5-1.1,1.1-1.1h52.4c0.6,0,1.1,0.5,1.1,1.1
			v15C155.3,124.2,154.8,124.7,154.2,124.7 M90.9,133.2c0.2,0.2,0.3,0.5,0.3,0.8v22.1l9.4-8.5v-13c0-0.6,0.5-1.1,1.1-1.1h52
			l10.5-9.5c0.3-0.3,0.5-0.7,0.5-1.1v-16.3c0-0.4-0.2-0.8-0.4-1.1l-6.5-6.5c-0.3-0.3-0.7-0.4-1.1-0.4H92.1c-0.5,0-0.9,0.4-0.9,0.9
			v25.8c0,0.3-0.1,0.6-0.3,0.8l-2.8,3.6L90.9,133.2z M90.6,157.5V134c0-0.1-0.1-0.3-0.2-0.4l0,0l-3.1-4l3.1-4
			c0.1-0.1,0.2-0.2,0.2-0.4V99.5c0-0.8,0.7-1.5,1.5-1.5h64.6c0.6,0,1.1,0.2,1.5,0.6l6.5,6.5c0.4,0.4,0.6,0.9,0.6,1.5v16.3
			c0,0.6-0.3,1.2-0.7,1.6l-10.6,9.6h-52.2c-0.3,0-0.5,0.2-0.5,0.5c0,0,0,0,0,0v13.2L90.6,157.5z"/>
		<path class="st8" d="M154.2,138.7v12.9h-51.8L90.9,162c-0.2,0.2-0.2,0.4,0,0.6c0.1,0.1,0.2,0.1,0.3,0.1h65.6
			c0.7,0,1.4-0.3,1.9-0.8l6.5-6.5c0.5-0.5,0.8-1.2,0.8-1.9v-17.4c0-0.7-0.3-1.4-0.8-1.9l-2.6-2.6c-0.2-0.2-0.4-0.2-0.6,0
			L154.2,138.7z"/>
		<path class="st7" d="M92,162h64.7c0.5,0,1-0.2,1.4-0.6l6.5-6.5c0.4-0.4,0.6-0.8,0.6-1.4v-17.4c0-0.5-0.2-1-0.6-1.4l-2.4-2.4
			l-7.3,6.6v13.3h-52.2L92,162z M156.7,163.4H91.2c-0.5,0-0.9-0.3-1.1-0.7c-0.2-0.4-0.1-0.9,0.3-1.3l11.8-10.6h51.3v-12.4l8-7.2
			c0.5-0.4,1.1-0.4,1.6,0l2.6,2.6c0.6,0.6,1,1.5,1,2.4v17.4c0,0.9-0.4,1.7-1,2.4l-6.5,6.5C158.5,163.1,157.6,163.4,156.7,163.4"/>
		<path class="st5" d="M101.8,107.8c-0.5,0-0.8,0.4-0.8,0.8c0,0,0,0,0,0v15c0,0.5,0.4,0.8,0.8,0.8c0,0,0,0,0,0h52.4
			c0.5,0,0.8-0.4,0.8-0.8c0,0,0,0,0,0v-15c0-0.5-0.4-0.8-0.8-0.8c0,0,0,0,0,0H101.8z M90.9,134c0-0.2-0.1-0.4-0.2-0.6l-2.9-3.8
			l2.9-3.8c0.2-0.2,0.2-0.4,0.2-0.6V99.5c0-0.7,0.6-1.2,1.2-1.2h64.6c0.5,0,0.9,0.2,1.3,0.5l6.5,6.5c0.3,0.3,0.5,0.8,0.5,1.3v16.3
			c0,0.5-0.2,1-0.6,1.3l-10.6,9.6h-52.1c-0.5,0-0.8,0.4-0.8,0.8c0,0,0,0,0,0v13.1l-10,9.1V134z"/>
		<path class="st5" d="M92.2,161.9l10.5-9.5h51.4c0.5,0,0.8-0.4,0.8-0.8V139l7.2-6.5l2.3,2.3c0.3,0.3,0.5,0.8,0.5,1.3v17.4
			c0,0.5-0.2,0.9-0.5,1.3l-6.5,6.5c-0.3,0.3-0.8,0.5-1.3,0.5H92.2z"/>
		<path class="st5" d="M93,161.6h63.7c0.4,0,0.8-0.2,1.1-0.4l6.5-6.5c0.3-0.3,0.4-0.7,0.4-1.1v-17.4c0-0.4-0.2-0.8-0.4-1.1l-2.1-2.1
			l-6.9,6.2v12.4c0,0.6-0.5,1.1-1.1,1.1h-51.3L93,161.6z M156.7,162.2H91.5l11.2-10.1h51.6c0.3,0,0.5-0.2,0.5-0.5v-12.6l7.5-6.8
			l2.5,2.5c0.4,0.4,0.6,0.9,0.6,1.5v17.4c0,0.6-0.2,1.1-0.6,1.5l-6.5,6.5C157.8,161.9,157.3,162.2,156.7,162.2"/>
		<path class="st6" d="M100.7,123.8v-13.7h-0.6c-0.5,0-0.8,0.4-0.8,0.8c0,0,0,0,0,0v15c0,0.5,0.4,0.8,0.8,0.8h52.4
			c0.5,0,0.8-0.4,0.8-0.8c0,0,0,0,0,0v-1.3h-51.8C101,124.6,100.7,124.2,100.7,123.8"/>
		<path class="st6" d="M164.5,105.3l-6.5-6.5c-0.3-0.3-0.8-0.5-1.3-0.5H92.1c-0.7,0-1.2,0.6-1.2,1.2v0.9h64.4c0.5,0,0.9,0.2,1.3,0.5
			l6.5,6.5c0.3,0.3,0.5,0.8,0.5,1.3V125l0.8-0.8c0.4-0.3,0.6-0.8,0.6-1.3v-16.3C165,106.1,164.8,105.6,164.5,105.3"/>
		<path class="st6" d="M99.2,136.7V149l1.4-1.3v-11.8h-0.6C99.6,135.9,99.2,136.3,99.2,136.7C99.2,136.7,99.2,136.7,99.2,136.7"/>
		<path class="st6" d="M153,154.5c0.5,0,0.8-0.4,0.8-0.8l0,0v-1.3H103l-10.5,9.5h1l8.1-7.4H153z"/>
		<path class="st6" d="M88.3,130l-0.3-0.4l3-3.8v0.5c0,0.3-0.1,0.5-0.3,0.7L88.3,130z"/>
		<path class="st6" d="M162.2,132.8l-7.2,6.5v0.9l5.8-5.2l2.3,2.3c0.3,0.3,0.5,0.8,0.5,1.3V156l0,0l0.9-0.9c0.3-0.3,0.5-0.8,0.5-1.3
			v-17.4c0-0.5-0.2-0.9-0.5-1.3L162.2,132.8z"/>
		<path class="st5" d="M101.8,108.1c-0.3,0-0.5,0.2-0.5,0.5v15c0,0.3,0.2,0.5,0.5,0.5h52.4c0.3,0,0.5-0.2,0.5-0.5v-15
			c0-0.3-0.2-0.5-0.5-0.5H101.8z M154.2,124.7h-52.4c-0.6,0-1.1-0.5-1.1-1.1v-15c0-0.6,0.5-1.1,1.1-1.1h52.4c0.6,0,1.1,0.5,1.1,1.1
			v15C155.3,124.2,154.8,124.7,154.2,124.7 M90.9,133.2c0.2,0.2,0.3,0.5,0.3,0.8v22.1l9.4-8.5v-13c0-0.6,0.5-1.1,1.1-1.1h52
			l10.5-9.5c0.3-0.3,0.5-0.7,0.5-1.1v-16.3c0-0.4-0.2-0.8-0.4-1.1l-6.5-6.5c-0.3-0.3-0.7-0.4-1.1-0.4H92.1c-0.5,0-0.9,0.4-0.9,0.9
			v25.8c0,0.3-0.1,0.6-0.3,0.8l-2.8,3.6L90.9,133.2z M90.6,157.5V134c0-0.1-0.1-0.3-0.2-0.4l0,0l-3.1-4l3.1-4
			c0.1-0.1,0.2-0.2,0.2-0.4V99.5c0-0.8,0.7-1.5,1.5-1.5h64.6c0.6,0,1.1,0.2,1.5,0.6l6.5,6.5c0.4,0.4,0.6,0.9,0.6,1.5v16.3
			c0,0.6-0.3,1.2-0.7,1.6l-10.6,9.6h-52.2c-0.3,0-0.5,0.2-0.5,0.5c0,0,0,0,0,0v13.2L90.6,157.5z"/>
		<path class="st5" d="M93,161.6h63.7c0.4,0,0.8-0.2,1.1-0.4l6.5-6.5c0.3-0.3,0.4-0.7,0.4-1.1v-17.4c0-0.4-0.2-0.8-0.4-1.1l-2.1-2.1
			l-6.9,6.2v12.4c0,0.6-0.5,1.1-1.1,1.1h-51.3L93,161.6z M156.7,162.2H91.5l11.2-10.1h51.6c0.3,0,0.5-0.2,0.5-0.5v-12.6l7.5-6.8
			l2.5,2.5c0.4,0.4,0.6,0.9,0.6,1.5v17.4c0,0.6-0.2,1.1-0.6,1.5l-6.5,6.5C157.8,161.9,157.3,162.2,156.7,162.2"/>
		<path class="st6" d="M118.5,93.2h-0.3c-0.5,0-0.8,0.4-0.8,0.8c0,0,0,0,0,0v28.8h1.1V93.2z"/>
		<path class="st6" d="M146.4,171.2c0.3-0.3,0.5-0.8,0.5-1.3v-6.6h-1.1v8.4L146.4,171.2z"/>
		<path class="st6" d="M118.5,168.1v-32.7h-1.1V170c0,0.5,0.4,0.8,0.8,0.8c0,0,0,0,0,0H135c0.5,0,0.8-0.4,0.8-0.8v-0.8h-16.1
			C119,169.2,118.5,168.7,118.5,168.1"/>
		<path class="st6" d="M145.9,88.4l-6-6c-0.2-0.2-0.5-0.4-0.8-0.4h0c-0.1,0-0.2,0-0.2,0c0,0,0,0-0.1,0h-6.5c-0.1,0-0.1,0-0.2,0
			c-0.2,0-0.4-0.1-0.6-0.3l-3.5-2.8l-3.6,2.8c-0.2,0.2-0.4,0.3-0.6,0.3c-0.1,0-0.1,0-0.2,0H110c-0.1,0-0.1,0-0.2,0
			c-0.4,0.1-0.7,0.5-0.7,0.9v1.4c0.2-0.1,0.4-0.2,0.7-0.2h12.5c0.2,0,0.4-0.1,0.6-0.3l3.8-3l3.7,3c0.2,0.2,0.4,0.2,0.6,0.3h6.5
			c0.5,0,0.9,0.2,1.3,0.5l6,6c0.7,0.7,1.1,1.6,1.1,2.6v3.5h1.1v-5.9C146.9,89.9,146.6,89.1,145.9,88.4"/>
		<path class="st5" d="M147.2,163.4h-0.3v6.6c0,0.5-0.2,0.9-0.5,1.3l-0.6,0.6l-5.7,5.7c-0.3,0.3-0.8,0.5-1.3,0.5h-6.4
			c-0.3,0-0.6,0.1-0.8,0.3l-3.6,2.7c-0.7-0.5-3.3-2.6-3.6-2.7c-0.2-0.2-0.5-0.3-0.8-0.3H110c-0.5,0-0.9-0.4-0.9-0.9v-41.8h-0.6v41.8
			c0,0.8,0.7,1.5,1.5,1.5h13.7c0.1,0,0.3,0.1,0.4,0.2l0,0c3.8,2.9,3.8,2.9,3.9,2.9h0.1l3.8-2.9l0,0c0.1-0.1,0.2-0.2,0.4-0.2h6.4
			c0.6,0,1.2-0.2,1.7-0.7l6.4-6.4c0.4-0.4,0.7-1,0.7-1.7v-6.6H147.2L147.2,163.4z"/>
		<path class="st5" d="M137.1,96.7h0.4v-4.6c0-0.6-0.5-1.1-1.1-1.1h-16.7c-0.6,0-1.1,0.5-1.1,1.1v30.8h0.6V92.1
			c0-0.3,0.2-0.5,0.5-0.5h16.7c0.3,0,0.5,0.2,0.5,0.5v4.6H137.1z"/>
		<path class="st5" d="M146.4,88l-6-6c-0.4-0.4-0.9-0.6-1.5-0.6h-6.5c-0.1,0-0.3-0.1-0.4-0.2l-3.9-3.1l-3.9,3.1l0,0
			c-0.1,0.1-0.2,0.2-0.4,0.2H110c-0.8,0-1.5,0.7-1.5,1.5v39.9h0.6V83c0-0.4,0.3-0.8,0.7-0.9c0.1,0,0.1,0,0.2,0h13.7
			c0.1,0,0.1,0,0.2,0c0.2,0,0.4-0.1,0.6-0.3l3.6-2.8l3.5,2.8c0.2,0.2,0.4,0.3,0.6,0.3c0.1,0,0.1,0,0.2,0h6.5l0.1,0
			c0.1,0,0.2,0,0.2,0h0c0.3,0.1,0.6,0.2,0.8,0.4l6,6c0.6,0.6,1,1.5,1,2.4v5.9h0.6v-5.9C147.5,89.7,147.1,88.8,146.4,88"/>
		<path class="st5" d="M118.5,168.1c0,0.6,0.5,1.1,1.1,1.1h16.7c0.6,0,1.1-0.5,1.1-1.1v-4.6h-0.6v4.6c0,0.3-0.2,0.5-0.5,0.5h-16.7
			c-0.3,0-0.5-0.2-0.5-0.5v-32.7h-0.6V168.1z"/>
		<path class="st7" d="M136.4,91.5h-16.7c-0.3,0-0.5,0.2-0.5,0.5v30.8h1.3V92.8h15.2v3.9h1.3v-4.6C136.9,91.8,136.7,91.5,136.4,91.5
			"/>
		<path class="st7" d="M136.4,163.4h-0.7v3.9h-15.2v-32h-1.3v32.7c0,0.3,0.2,0.5,0.5,0.5h16.7c0.3,0,0.5-0.2,0.5-0.5v-4.6H136.4z"/>
		<path class="st7" d="M136.4,109.3h-0.7v41.5h1.3v-41.5H136.4z"/>
		<path class="st7" d="M148,163.4h-0.5v6.6c0,0.6-0.2,1.2-0.7,1.7l-6.4,6.4c-0.4,0.4-1,0.7-1.7,0.7h-6.4c-0.1,0-0.3,0.1-0.4,0.2l0,0
			l-3.8,2.9H128c-0.1,0-0.1,0-3.9-2.9l0,0c-0.1-0.1-0.2-0.2-0.4-0.2H110c-0.8,0-1.5-0.7-1.5-1.5c0,0,0,0,0,0v-41.8h-1.3v41.8
			c0,1.5,1.3,2.8,2.8,2.8h13.5l3.5,2.5c0.3,0.3,0.7,0.4,1.1,0.4c0.4,0,0.8-0.1,1-0.4l3.5-2.5h6.2c1,0,1.9-0.4,2.6-1.1l6.4-6.4
			c0.7-0.7,1.1-1.6,1.1-2.6v-6.6H148z"/>
		<path class="st7" d="M147.2,87.1l-6-6c-0.6-0.6-1.5-1-2.4-1h-6.3l-3.5-2.8c-0.6-0.6-1.5-0.6-2.1,0l-3.5,2.8H110
			c-1.5,0-2.8,1.3-2.8,2.8v39.9h1.3V83c0-0.8,0.7-1.5,1.5-1.5h13.7c0.1,0,0.3-0.1,0.4-0.2l0,0l3.9-3.1l3.9,3.1
			c0.1,0.1,0.2,0.2,0.4,0.2h6.6c0.6,0,1.1,0.2,1.5,0.6l6,6c0.7,0.7,1.2,1.7,1.2,2.8v5.9h1.3v-5.9C148.8,89.4,148.2,88.1,147.2,87.1"
			/>
		<path class="st7" d="M148,109.3h-0.5v41.5h1.3v-41.5H148z"/>
		<path class="st5" d="M136.4,169.2h-0.6v0.8c0,0.5-0.4,0.8-0.8,0.8h-16.7c-0.5,0-0.8-0.4-0.8-0.8v-34.6H109v41.8
			c0,0.5,0.4,0.9,0.9,0.9h13.7c0.3,0,0.6,0.1,0.8,0.3l3.6,2.7l3.6-2.7c0.2-0.2,0.5-0.3,0.8-0.3h6.4c0.5,0,0.9-0.2,1.3-0.5l5.7-5.7
			v-8.4h-8.3v4.6C137.5,168.7,137,169.2,136.4,169.2"/>
		<path class="st5" d="M144.7,90.7l-6-6c-0.3-0.3-0.8-0.5-1.3-0.5h-6.5c-0.2,0-0.4-0.1-0.6-0.2l-3.7-3l-3.8,3
			c-0.2,0.2-0.4,0.2-0.6,0.2h-12.5c-0.3,0-0.5,0.1-0.7,0.2v38.5h8.4V94c0-0.5,0.4-0.8,0.8-0.8h0.3v-1.1c0-0.6,0.5-1.1,1.1-1.1h16.7
			c0.6,0,1.1,0.5,1.1,1.1v4.6h8.3v-3.5C145.8,92.3,145.4,91.3,144.7,90.7"/>
		<path class="st5" d="M137.5,150.8h8.3v-41.5h-8.3V150.8z"/>
		<path class="st6" d="M145.8,150.8h1.1v-41.5h-1.1V150.8z"/>
		<path class="st5" d="M137.2,109.3h-0.3v41.5h0.6v-41.5H137.2z"/>
		<path class="st5" d="M147.3,109.3h-0.4v41.5h0.6v-41.5H147.3z"/>
		<path class="st7" d="M127.8,71.3l-4,2.8c-0.2,0.1-0.4-0.1-0.4-0.3l1.5-4.5c0-0.1,0-0.2-0.1-0.3l-3.9-2.9c-0.2-0.1-0.1-0.4,0.1-0.4
			h4.8c0.1,0,0.2-0.1,0.2-0.2l1.5-4.6c0.1-0.2,0.4-0.2,0.5,0l1.5,4.6c0,0.1,0.1,0.2,0.2,0.2h4.9c0.2,0,0.3,0.3,0.1,0.4l-4,2.9
			c-0.1,0.1-0.1,0.2-0.1,0.3l1.6,4.6c0.1,0.2-0.2,0.4-0.4,0.3l-4-2.8C128,71.2,127.9,71.2,127.8,71.3"/>
		<path class="st9" d="M133.6,66.3h-4.4l-1.3-4.1l-1.4,4.1h-4.2l3.5,2.6l-1.3,4l3.5-2.5l3.5,2.5l-1.4-4L133.6,66.3z"/>
		<path class="st5" d="M122.9,66.5l3.1,2.3l-1.2,3.6l3.1-2.2l3.1,2.2l-1.3-3.6l3.2-2.3h-3.9l-1.2-3.6l-1.2,3.6H122.9z M131.8,73.4
			l-3.9-2.8l-3.9,2.7l1.5-4.5l-3.8-2.8h4.7l1.5-4.5l1.5,4.5h4.8l-4,2.9L131.8,73.4z"/>
	</g>
</g>
<g id="레이어_1">
	<rect x="8" y="8" class="st10" width="234" height="234"/>
</g>
</svg>
