<?xml version="1.0" encoding="utf-8"?>
<!-- Generator: Adobe Illustrator 25.1.0, SVG Export Plug-In . SVG Version: 6.00 Build 0)  -->
<svg version="1.1" id="Layer_1" xmlns="http://www.w3.org/2000/svg" xmlns:xlink="http://www.w3.org/1999/xlink" x="0px" y="0px"
	 viewBox="0 0 2040 2040" style="enable-background:new 0 0 2040 2040;" xml:space="preserve">
<style type="text/css">
	.st0{fill:#0B50F2;}
</style>
<path class="st0" d="M1466,13.2L573.9,358.6v223.9L1466,237.1V13.2z M1273.1,630.5v574.3L1020,1363.3l-253.6-158.7v-156.9
	l-192.4,74.5v153.6c0,37.9,19.8,73.2,52.4,93.6l318,198.6c46.3,28.9,105,28.9,151.3,0l317.3-198.6c32.5-20.4,53-55.6,53.1-93.5
	V555.9L1273.1,630.5z"/>
<path class="st0" d="M1466,284.3L573.9,629.7v444.7l192.4-74.5V778.8L1466,508.2L1466,284.3z M1016.8,1770.4l-18.1-40.6
	c-5.9-13.9-18-20.4-34-20.4H767v9.7l29.6,29h153c5.5,0,10.2,3.2,12.3,7.7l14.8,28.6c0.6,1.5,0.6,3.2,0,4.7l-14.8,28.6
	c-2.2,4.8-7.1,7.8-12.3,7.7H832.3c-2.2,0-3.9-1.7-4-3.9v-23.3l-31.6-31h-9.9v85.2c0,6.4,5.3,11.6,11.9,11.6h166
	c16,0,28.1-6.5,34-20.4l18.2-40.6C1021.1,1792.7,1021.1,1780.9,1016.8,1770.4 M1263,1709.4l-31.6,31v78.5c0,2.1-1.4,4.1-3.6,4.5
	c-1.5,0.3-3-0.1-4.1-1.2l-101.7-99.7c-9.5-9.2-22.4-14-35.6-13c-24.1,1.6-42.8,21.6-42.8,45.7v109.1h9.9l31.6-31v-78.5
	c0-2.2,1.5-4,3.6-4.5c1.5-0.3,3,0.1,4.1,1.2l101.7,99.7c9,8.8,21.7,14,35.6,13.1c24.1-1.7,42.8-21.7,42.8-45.8v-109H1263z
	 M685,1939.1l25.4-25H573.9v111.8h34.4v-44.4h62.1l23.3-22.7h-85.4v-19.8H685z M830.7,1914.1H718.2v111.4h34.3v-37.2H818l9.3,8.9
	c0.6,0.6,1,1.4,1,2.3v26h34.3v-27c0-3.1-1.3-6.2-3.5-8.4l-16.1-15.8l14.3-18.8c3.2-4.2,3.2-10,0-14.1l-16.9-22.4
	C838.1,1915.9,834.5,1914.1,830.7,1914.1 M816.4,1963h-60.6c-1.8,0-3.3-1.5-3.3-3.3v0v-17.5c0-1.8,1.4-3.2,3.3-3.2h60.9
	c1.1,0,2.2,0.5,2.9,1.4l6.8,8.7c0.6,0.8,0.6,2,0,2.8l-7,9.5C818.6,1962.4,817.5,1963,816.4,1963L816.4,1963z M1188.3,1968.8
	l12.1-24.2c1.6-3.2,5-5.3,8.6-5.3h74.6l23.9-25.2h-119c-4.6,0-8.9,2.7-10.9,6.9l-20.8,44.4c-1.5,3.2-1.5,7,0,10.2l20.8,44.4
	c2,4.2,6.2,6.9,10.9,6.9h90.9l24.1-25.2h-95.9c-2.7,0-5.2-1.5-6.4-3.9l-12.8-25.6C1187.9,1971,1187.9,1969.8,1188.3,1968.8
	L1188.3,1968.8z"/>
<path class="st0" d="M1350.4,1958.1l-6.9-7c-1.1-1.3-1.1-3.3,0.1-4.6l6.8-6.5c0.5-0.5,1.2-0.8,1.9-0.8h88.2l25.6-25.1h-126.5
	c-3.8,0-7.5,1.8-9.8,4.8l-20.6,22.6c-3.2,4.2-3.2,10,0,14.2l19.8,21.2c2.3,3,5.9,4.8,9.8,4.8h81l6.3,7.8c1.1,1.3,1.1,3.3-0.1,4.6
	l-6.2,7h-87l-25.4,25.1h126.6c3.9,0,7.5-1.8,9.8-4.8l16.9-22.4c4.8-6.4,4.8-7.9,0-14.2l-16.1-21c-2.3-3-5.9-4.8-9.7-4.8h-82.5
	C1351.5,1959,1350.8,1958.7,1350.4,1958.1L1350.4,1958.1z M990.7,1939.1l25.3-25H879.6v111.8h106.9l25.5-25h-97.9v-19.4h62.1
	l23.3-22.7h-85.4v-19.8H990.7z M1139.3,1939.1l25.3-25h-136.4v111.8H1135l25.6-25h-97.9v-19.4h62.1l23.3-22.7h-85.3v-19.8H1139.3z"
	/>
</svg>
