<svg xmlns="http://www.w3.org/2000/svg" xml:space="preserve" width="640" height="860" viewBox="0 0 169.33333 227.54167"><path d="m3.704 87.048 51.33-1.058 17.991-30.957 21.431 51.859 20.638-21.96 52.123 6.933c-.162 16.272.302 26.955-.287 37.144-1.165 20.16-9.132 38.515-19.623 51.464-2.95 3.64-5.118 6.246-9.666 10.5-9.688 9.059-18.579 14.107-29.31 20.187-14.445 8.184-15.344 9.266-23.664 13.736-14.004-8.144-29.44-16.653-39.57-23.219-4.569-2.96-8.29-6.12-11.198-8.725-11.69-10.467-18.374-21.597-20.588-25.65-7.269-13.301-10.998-31.3-10.88-39.614l-.149-35.696Z" style="display:inline;fill:#000;fill-opacity:1;stroke-width:.916001;stroke-opacity:.493562"/><path d="M84.667 3.368c-4.605 4.507-10.997 8.061-18.327 11.09-21.104 8.718-49.744 11.875-64.013 11.477L2.245 81.01l50.701 3.555L72.03 51.075l25.257 58.185 17.212-21.89 52.595-.132.124-61.373c-6.154.251-13.86-.175-22.308-1.159-13.755-1.602-29.448-4.927-43.4-11.036-6.217-2.722-13.758-6.748-16.842-10.302Z" style="display:inline;fill:#ec1b24;fill-opacity:1;stroke-width:.916001;stroke-opacity:.493562"/><path d="m2.315 80.998-.011 10.944 57.52-.015 11.831-30.375 26.297 67.479 14.549-37.286 54.716.104V80.822L105.073 81 97.94 99.157 71.596 31.91 52.324 81.12Z" style="display:inline;fill:#fff;fill-opacity:1;stroke-width:.916001;stroke-opacity:.493562"/><g style="display:inline;fill:#ec1b24;fill-opacity:1;stroke:#fbe1e7;stroke-opacity:1;stroke-width:.25;stroke-dasharray:none"><path d="m36.248 143.801-.066 22.258 6.019-.033.132-16.007 16.746-.033c1.561-.003 1.849 1.288 1.793 1.984l-16.587-.033v6.1l12.303 8.022 11.095-.066-12.04-7.871 11.351-.034.053-6.894c-.027-2.804-3.454-7.315-7.753-7.327zM70.589 143.738l29.533.047-.047 6.155-23.283.047-.047 1.892h23.33v6.061l-23.33.14.047 1.946h23.283l.047 6.047h-29.44ZM103.767 143.797v6.086l22.774.058 1.964 5.022-1.951 4.944-16.59.003.015-7.986-6.242-.035.112 14.137 26.954-.016 4.234-11.096-4.2-11.13zM36.168 169.844l.033 9.656h1.931l-.033-3.435 8.766-.033-.033-1.947-8.667.033v-2.353l8.667-.033.033-1.888zM58.225 169.8l.047 9.794 10.57-.047.024-9.723zm1.908 1.994 6.824-.024v5.913l-6.812.023z" style="display:inline;fill:#ec1b24;fill-opacity:1;stroke:#fbe1e7;stroke-width:.25;stroke-dasharray:none;stroke-opacity:1"/><path d="m80.223 169.8.024 9.747 1.815.023.023-7.823 5.309-.047c1.058-.009 1.543.873 1.543 1.783l-5.414.047-.023 1.77 4.993 4.27 2.935-.023-4.76-4.153 4.214-.047-.023-2.384c-.015-1.546-1.937-3.162-3.044-3.162z" style="fill:#ec1b24;fill-opacity:1;stroke:#fbe1e7;stroke-width:.25;stroke-dasharray:none;stroke-opacity:1"/><path d="M102.316 169.844h10.615v1.856l-8.766-.017-.033 5.952 8.75.016.032 1.849h-10.598zM124.387 169.811l10.61.033v1.856h-8.766l-.033 2.002 8.832.033-.033 1.865h-8.766l.033 2.068 8.766.033-.033 1.799h-10.643z" style="display:inline;fill:#ec1b24;fill-opacity:1;stroke:#fbe1e7;stroke-width:.25;stroke-dasharray:none;stroke-opacity:1"/></g></svg>