<?xml version="1.0" encoding="utf-8"?>
<!-- Generator: Adobe Illustrator 25.1.0, SVG Export Plug-In . SVG Version: 6.00 Build 0)  -->
<svg version="1.1" id="Layer_1" xmlns="http://www.w3.org/2000/svg" xmlns:xlink="http://www.w3.org/1999/xlink" x="0px" y="0px"
	 viewBox="0 0 250 250" style="enable-background:new 0 0 250 250;" xml:space="preserve">
<style type="text/css">
	.st0{clip-path:url(#SVGID_2_);}
	.st1{fill:#1A1B2E;}
	.st2{fill:#FFFFFF;}
	.st3{fill:#E22531;}
	.st4{fill:none;}
</style>
<g>
	<defs>
		<rect id="SVGID_1_" x="-260.9" y="-2296.3" width="2778.7" height="3056.5"/>
	</defs>
	<clipPath id="SVGID_2_">
		<use xlink:href="#SVGID_1_"  style="overflow:visible;"/>
	</clipPath>
	<g transform="matrix(4.90128 0 0 -4.90128 -140.24 880.954)" class="st0">
		<g>
			<path class="st1" d="M73.3,156.9c1-0.2,1.9-0.6,2.4-1.1c0.5-0.5,0.8-1.2,0.7-1.9c0-0.3-0.1-0.6-0.2-0.9l1.3,1.3l-1.2,1.2
				l-3.5,3.5C73.1,158.1,73.2,157.4,73.3,156.9"/>
		</g>
		<g>
			<path class="st1" d="M49.7,141.4c-0.5,0.2-1,0.4-1.5,0.6c-0.1-0.3-0.2-0.6-0.2-0.9C48.5,141.2,49.1,141.3,49.7,141.4"/>
		</g>
		<g>
			<path class="st1" d="M32.5,154.2L32,155c-0.1,0.1-0.1,0.2-0.2,0.4l-1.1-1.1l3.6-3.6l0.4,5.6L32.5,154.2z"/>
		</g>
		<g>
			<path class="st1" d="M66.4,148.6c-0.9-1.9-2.2-3.6-3.8-4.9c1.6-0.1,2.7-0.6,3.4-1l3.8,3.8l3.8,3.8C72,149.5,69.4,149,66.4,148.6"
				/>
		</g>
		<g>
			<path class="st1" d="M41.5,149.3c-0.7-0.3-1.6-0.5-2.6-0.7l-2.4-0.3l5.5-5.5c0.3,1.1,0.7,2.1,1.4,3
				C42.6,146.9,41.9,148.1,41.5,149.3"/>
		</g>
		<g>
			<path class="st1" d="M59.6,136.3c-1.5-0.2-3.1-0.6-4.8-1.1c-1.3-0.4-2.6-0.8-4-1.1l3.3-3.3L59.6,136.3z"/>
		</g>
		<g>
			<path class="st2" d="M76.3,152.9c0.1,0.3,0.2,0.6,0.2,0.9c0,0.7-0.2,1.4-0.7,1.9c-0.6,0.6-1.4,1-2.4,1.1c0,0.7-0.2,1.4-0.4,2
				l4.7-4.7L76.3,152.9z M66.1,142.7c-0.7,0.4-1.9,0.9-3.4,1c1.6,1.3,2.9,3,3.8,4.9c2.9,0.4,5.5,0.9,7.3,1.8L66.1,142.7z
				 M58.1,167.2c1.4,0.3,2.4,0.5,3.1,0.6l0,0c1.8,0.3,2.4,0,2.4,0s-0.1,1.1-2.2,0.8c-0.7-0.1-1.6-0.1-7-1.6l-0.2,0c0,0-0.1,0-0.1,0
				c-0.3-0.1-0.6-0.1-0.9-0.2c-0.5-0.1-1-0.2-1.5-0.4l-0.2-0.1c-0.6-0.1-1.1-0.2-1.7-0.3l-0.2,0c-1-0.1-1.9-0.2-2.8-0.2l0,0
				c-0.1,0-0.2,0-0.3,0c0,0,0,0-0.1,0c-0.1,0-0.2,0-0.2,0l0,0c-2.8,0.2-4.2,1.5-4.2,1.5l0,0c0,0,0,0,0,0l0,0c0,0,0,0,0,0l0,0l0.1,0
				l0.1,0c0,0,0.1,0,0.1,0.1c0.1,0.1,0.3,0.2,0.4,0.3l0.1,0.1c0.4,0.3,1,0.8,1.4,1.2c-0.3,0.8-0.4,1.6-0.5,2.1c0,0,0,0.1,0,0.1
				c0,0.1,0,0.2,0,0.2c0,0.1,0,0.1,0,0.1l0,0l0,0.1l0,0.8l0.8-0.3c0.1,0,0.2-0.1,0.3-0.1c0,0,0.1,0,0.1,0c0.1,0,0.1-0.1,0.2-0.1
				l0.1,0c0.1,0,0.2-0.1,0.3-0.1c0,0,0,0,0.1,0c0.1,0,0.1,0,0.2-0.1c0,0,0.1,0,0.1,0c0.2,0,0.4-0.1,0.5-0.1c0,0,0,0,0.1,0
				c0.1,0,0.1,0,0.2,0l0.1,0c0.1,0,0.2,0,0.3,0c0,0,0,0,0,0c0.1,0,0.2,0,0.2,0l0.1,0c0.1,0,0.1,0,0.2,0l0,0c0.1,0,0.2,0,0.3,0l0.1,0
				l0.1,0l0.1,0l0.3,0l0.1,0c0.1,0,0.3,0,0.4,0c0.1,0,0.2,0,0.3,0l0.1,0c0.1,0,0.2,0,0.2,0l0.1,0c0.1,0,0.2,0,0.3,0c0,0,0,0,0.1,0
				c0.1,0,0.2,0,0.3,0.1c0,0,0.1,0,0.1,0c0.1,0,0.2,0,0.3,0.1c0,0,0.1,0,0.1,0l0.3,0.1c0,0,0.1,0,0.1,0c0.1,0,0.2,0.1,0.3,0.1
				c0,0,0,0,0,0c0.1,0,0.2,0.1,0.3,0.1c0,0,0.1,0,0.1,0l0.2,0.1c0,0,0.1,0,0.1,0c0.1,0,0.2,0.1,0.3,0.1c0,0,0,0,0.1,0
				c0.1,0,0.2,0.1,0.4,0.1c0,0,0.1,0,0.1,0c0.1,0,0.2,0.1,0.3,0.1c0,0,0.1,0,0.1,0l0.3,0.1c0,0,0.1,0,0.1,0l0.3,0.1c0,0,0,0,0,0
				c0.2,0.1,0.4,0.1,0.6,0.2l0.2,0.1l0.6,0.2c0.1,0,0.2,0,0.2,0.1c0.1,0,0.1,0,0.2,0.1c1.6,0.4,3.1,0.8,4.8,0.8
				c1.1,0,2.1-0.3,2.9-0.9c0.2-0.1,0.3-0.3,0.5-0.4c0.3-0.4,0.6-0.8,0.7-1.3c0.1-0.1,0.3-0.2,0.4-0.4c0.1-0.1,0.1-0.1,0.2-0.2
				c0.3-0.4,0.6-0.9,0.6-1.7c0-0.4-0.1-0.8-0.2-1.2c-0.1-0.3-0.3-0.5-0.5-0.8c-0.1-0.1-0.1-0.1-0.2-0.2l5.2-5.2l-2.1-0.3l-0.1-0.5
				c0,0-0.1-0.5-0.3-1.2l-1.7,1.4c-0.6,1-1.4,1.9-2.2,2.7C61.9,165.5,60.1,166.6,58.1,167.2 M54.1,130.8l-3.3,3.3
				c1.4,0.3,2.7,0.7,4,1.1c1.7,0.5,3.2,1,4.8,1.1L54.1,130.8z M47.9,141.1c0,0.3,0.1,0.6,0.2,0.9c0.5-0.2,1-0.5,1.5-0.6
				C49.1,141.3,48.5,141.2,47.9,141.1 M45.9,165c-0.8-0.7-1.6-1.4-2.3-2.2c-0.1,0.2-0.3,0.4-0.5,0.6c-0.5,0.6-1.2,1-2,1.4l1.2,1.2
				C43.1,165.5,44.3,165.1,45.9,165L45.9,165z M42,142.9l-5.5,5.5l2.4,0.3c1,0.1,1.9,0.3,2.6,0.7c0.5-1.2,1.1-2.4,2-3.5
				C42.7,145,42.3,144,42,142.9 M54.1,177.7l3.1-3.1h0c-1.3-0.3-2.5-0.6-3.8-1c-1.6-0.5-3.1-0.9-4.7-1.1L54.1,177.7z M34.2,150.7
				l-3.6,3.6l1.1,1.1c0.1-0.1,0.1-0.3,0.2-0.4l0.5-0.8l2.1,2.1L34.2,150.7z M78.8,154.2l-0.6,0.6l-12.4,12.4c0.3,0.4,0.6,1.1,0.6,2
				v0c0,0.8-0.2,1.9-1.3,2.8c-0.3,0.8-0.9,1.5-1.7,2c-0.8,0.5-1.9,0.8-3,0.8c-0.7,0-1.3-0.1-2-0.1l-3.6,3.6l-0.6,0.6l-0.6-0.6
				l-5.9-5.9c-2.4,0-5,1.4-5,1.4c0,0-0.1-2.4,0.6-4.6c-0.7-0.6-2.5-1.8-2.5-1.8c0,0,0.3-0.5,1-1.1l0,0l-1.4-1.4
				c-0.3,0.1-0.7,0.2-1.1,0.2c-3.6,0.5-7.3-2-7.9-5.4c-0.3-1.6-0.1-2.8,0.2-3.7l-1.4-1.4l-0.6-0.6l0.6-0.6l4.1-4.1l-0.1-1.5l1.4,0.2
				l6.4-6.4c0-0.2,0-0.4,0-0.7c-0.1-1.8,0.5-3.4,1.5-4.6c0.7-1.7,2.5-2.9,4.7-2.9c0.6,0,1.2,0,1.8,0.1l3.7-3.7l0.6-0.6l0.6,0.6
				l6.1,6.1c1,0,2.1-0.2,3-0.6l1.9-0.8l-0.1,2.1c0,0.1-0.1,1.3-0.5,2.5c0.7,0.7,1.7,1.3,1.7,1.3l0.8,0.5l-0.7,0.7
				c0,0-0.1,0.1-0.3,0.2l11.4,11.4L78.8,154.2z"/>
		</g>
		<g>
			<path class="st1" d="M35.7,160.7L34.9,149l3.9,0.5c3.1,0.4,4.4,1.7,4.7,3.4c0.6,3-2.3,3.8-2.3,3.8s2.4,0.9,2.4,3.5
				c0,1.8-1.5,3.9-4.6,4.3c-3.3,0.5-6.5-1.8-7.1-4.7c-0.4-2.1,0.1-3.5,0.6-4.3l1.9,1.9c-1.1,3.2,1.5,5.1,4,4.7
				c1.8-0.2,2.4-1.4,2.4-2.4c0-1-0.5-2.1-1.7-2.3c-0.3-0.1-0.7-0.1-0.7-0.1l-0.1-1.6c0,0,0.5,0,0.7,0c0.9-0.2,1.7-1,1.5-2.3
				c-0.2-1.1-0.9-1.7-2.1-1.8c-0.3,0-0.7-0.1-1-0.1l0.7,9.8L35.7,160.7z"/>
		</g>
		<g>
			<path class="st1" d="M72.5,156.2c0,0,0.4,2.6-1.9,5.1l-2.2-0.3c0,0-1.4-5.9-2.5-6c-1.2-0.2-0.8,2.7,0,5.1l-0.6,0.5l-2.8-0.4
				c0,0-0.2,0.4,0.2,1.2c0,0-2.3-0.2-2.3-0.2c-0.3-0.8-0.3-2,0.5-2.8c-0.3-1.4-1-4.4-2.1-4.5c-1.3-0.2-0.3,3.3,0.5,6l-2.3-0.3
				l-0.2-0.8c-0.4,0.5-1,0.9-1.9,0.8c-1.6-0.2-2.9-1.8-3.4-3.7c-0.7-1.6-1.7-3-3.3-3.2c-2.8-0.2-2.4,3.7-0.7,4
				c1.1,0.1,1-1.6-0.4-1.5l0.1-1.3c2-0.5,3,1,3.1,2.1c0.2,1.4-0.9,2.8-3.2,2.6c-4.9-0.6-4.7-8.7,1.1-8.1c1.4,0.2,2.4,1,3.2,2.1
				c0.4-0.9,1.2-1.5,2.6-1.3c1,0.1,1.4,0.8,1.4,0.8l-0.3,1.6c-0.8-0.5-1.9,0-1.4,1.9c0.2,0.7,0.6,1.6,1.4,1.7
				c1.2,0.1,0.7-1.8,0.7-1.8c-0.4-2.2,0.4-4,2.8-3.7c2.9,0.4,3.8,6.2,3.8,6.2l0.9,0.1c-0.8-3.3-0.4-5.8,1.9-5.5
				c2.7,0.4,4.2,6.4,4.2,6.4c0.6-1,0.8-2.1,0.8-2.9c-0.7-0.2-1.4-0.4-1.9-0.7l0-0.3c0-1.8,2.2-2.7,3.4-0.5l0,0c1,0.3,2.1,0,1.9-0.8
				c-0.5-2.7-10-1.8-18.5-2.9c-7-0.9-12.7-4.3-12.9-9.7c-0.1-1.9,0.5-3.2,1.4-4.1c0.5-1.5,2.1-2.5,4-2.5c2.3,0,4.5,0.7,6.6,1.3
				c3.3,1,6.3,1.9,9.6,0.6l0.8-0.3l0,0.8c0,0.1-0.1,1.5-0.6,2.7c0.7,0.9,2.2,1.8,2.2,1.8c0,0-1.6,1.5-4.8,1.5
				c-2.4,0-5.1-0.7-7.7-1.3c-3.5-1-5.6-1.3-6.9-1.4c-0.2,4.7,5.4,7.6,12.1,8.4c5.8,0.6,11.8,0.9,14.7,2.8c1,0.6,1.8,1.4,1.8,2.5
				C75.7,155.3,74.2,156.2,72.5,156.2"/>
		</g>
		<g>
			<path class="st2" d="M49.2,137.7v0.6c0.3,0,0.5,0,0.8,0.1v-0.2c0.2,0,0.2,0,0.4,0.1h0l0,0.7h0c-0.1,0-0.2,0-0.4-0.1v-0.2
				l-0.2,0.2c-0.2,0-0.5-0.1-0.7-0.1c-0.1-0.1-0.2-0.2-0.3-0.3v-0.9c0.1-0.1,0.2-0.2,0.3-0.3c0.4,0,0.5,0,0.9,0.1v-0.6
				c-0.3,0-0.5-0.1-0.8-0.1v0.2c-0.1,0-0.3,0-0.4,0l0-0.7c0.1,0,0.2,0,0.4,0v0.2c0.1-0.1,0.1-0.1,0.2-0.2c0.3,0,0.4,0,0.7,0.1
				c0.1,0.1,0.2,0.2,0.3,0.3v0.9c-0.1,0.1-0.2,0.1-0.3,0.2C49.8,137.8,49.5,137.8,49.2,137.7"/>
		</g>
		<g>
			<path class="st2" d="M54.6,138l-0.8-0.2l0,1.6c0.3,0.1,0.5,0.1,0.8,0.2L54.6,138z M53.6,139.8c-0.1-0.1-0.2-0.2-0.3-0.4l0-1.9
				c0.1-0.1,0.2-0.1,0.3-0.2c0.5,0.1,0.7,0.2,1.1,0.3l0.3,0.4l0,1.9c-0.1,0.1-0.2,0.1-0.3,0.2C54.3,140,54.1,139.9,53.6,139.8"/>
		</g>
		<g>
			<path class="st2" d="M56.8,140.2l0.2,0c0-0.6,0-1,0-1.6c-0.3-0.1-0.4-0.1-0.7-0.2l0,1.6c0.1,0,0.1,0,0.2,0v0.4
				c-0.3-0.1-0.6-0.1-0.9-0.2V140c0.1,0,0.1,0,0.2,0.1l0-1.8l0.3-0.2c0.4,0.1,0.6,0.2,1.1,0.3l0.3,0.3l0,1.8c0.1,0,0.1,0,0.2,0v0.4
				c-0.3-0.1-0.6-0.1-0.9-0.2V140.2z"/>
		</g>
		<g>
			<path class="st2" d="M51,139.1v-0.4c0.1,0,0.2,0,0.3,0.1l0-1.6c-0.1,0-0.2,0-0.3-0.1v-0.4c0.7,0.2,1,0.3,1.7,0.4v0.7l-0.4-0.1
				v-0.3c-0.2-0.1-0.3-0.1-0.5-0.1v0.7c0.3,0.1,0.4,0.1,0.7,0.2l0,0.3c-0.2-0.1-0.5-0.1-0.7-0.2v0.7c0.2,0.1,0.3,0.1,0.5,0.1v-0.3
				l0.4,0.1l0,0.7l0,0C52,139.3,51.7,139.2,51,139.1"/>
		</g>
		<g>
			<path class="st3" d="M44.8,137.8L44.8,137.8l0.1-0.2c0.1-0.5,0.7-2.2,3.1-2.2c2.1,0,4.3,0.6,6.3,1.3c3.1,0.9,6.3,1.9,9.6,0.7
				c-0.1,0.4-0.2,1.1-0.4,1.7c-0.1,0.2-0.1,0.3-0.2,0.5l-0.1,0.2l0.1,0.2c0.2,0.2,0.4,0.4,0.6,0.6c0.1,0.1,0.1,0.1,0.2,0.2l0,0
				c0.1,0.1,0.3,0.3,0.4,0.4l0,0c0.1,0.1,0.1,0.1,0.2,0.2l0,0l0.1,0.1c-2.8,1.4-7.6,0.2-11.7-0.9c-4.1-1.1-7.6-2-9.1-0.5l0,0
				c-0.3,0.4-0.5,0.8-0.6,1.3C43.4,140.2,43.6,138.8,44.8,137.8"/>
		</g>
		<g>
			<path class="st2" d="M59.8,139c-0.2,0-0.4,0-0.6,0l0,1.6c0.1,0,0.2,0,0.3,0v0.4c-0.4,0-0.7-0.1-1.1-0.1v-0.4c0.1,0,0.2,0,0.3,0
				V139c-0.1,0-0.2,0-0.3,0l0-0.4c0.7,0.1,1.1,0.1,1.8,0.1v0.7c-0.1,0-0.2,0-0.4,0V139z"/>
		</g>
		<g>
			<path class="st1" d="M57.3,174.6l-3.1,3.1l-5.3-5.3c1.5,0.2,3.1,0.6,4.7,1.1C54.7,173.9,56,174.3,57.3,174.6"/>
		</g>
		<g>
			<path class="st1" d="M41.1,164.7c0.8-0.3,1.4-0.8,2-1.4c0.2-0.2,0.3-0.4,0.5-0.6c0.2,0.3,0.5,0.5,0.7,0.8c0.5,0.5,1,1,1.6,1.4
				c-1.6,0.1-2.7,0.5-3.5,0.9L41.1,164.7z"/>
		</g>
		<g>
			<path class="st1" d="M64.7,167.1c0,0,0.1,0.1,0.2,0.2l0.1,0.1c0,0,0,0,0,0c0,0,0,0,0,0.1c0,0,0,0,0,0l0,0.1l0,0l0,0.1
				c0,0,0,0,0,0l0,0.1c0,0,0,0,0,0l0,0.1l0,0l0,0.1c0,0,0,0,0,0c0,0,0,0.1,0.1,0.1c0.2,0.4,0.2,0.8,0.2,1.2c0,0.8-0.3,1.3-0.6,1.7
				c-0.1,0.1-0.1,0.2-0.2,0.2c-0.1,0.1-0.3,0.3-0.4,0.4c-0.1,0.5-0.4,0.9-0.7,1.3c-0.1,0.1-0.3,0.3-0.5,0.4
				c-0.7,0.5-1.7,0.9-2.9,0.9c-1.6,0-3.2-0.3-4.8-0.8c-0.1,0-0.1,0-0.2-0.1c-0.1,0-0.2,0-0.2-0.1c-0.2-0.1-0.4-0.1-0.6-0.2l-0.2-0.1
				c-0.2-0.1-0.4-0.1-0.6-0.2l0,0l-0.3-0.1c0,0-0.1,0-0.1,0c-0.1,0-0.2,0-0.3-0.1c0,0-0.1,0-0.1,0l-0.3-0.1c0,0-0.1,0-0.1,0
				c-0.1,0-0.2-0.1-0.4-0.1c0,0,0,0-0.1,0c-0.1,0-0.2-0.1-0.3-0.1c0,0-0.1,0-0.1,0l-0.2-0.1c0,0-0.1,0-0.1,0c-0.1,0-0.2-0.1-0.3-0.1
				l0,0c-0.1,0-0.2-0.1-0.3-0.1c0,0-0.1,0-0.1,0l-0.3-0.1l-0.1,0c-0.1,0-0.2,0-0.3-0.1c0,0-0.1,0-0.1,0c-0.1,0-0.2,0-0.3-0.1l-0.1,0
				c-0.1,0-0.2,0-0.3,0c0,0-0.1,0-0.1,0c-0.1,0-0.2,0-0.2,0c-0.1,0-0.3,0-0.4,0l-0.1,0c-0.1,0-0.2,0-0.3,0l-0.1,0
				c-0.1,0-0.2,0-0.3,0l-0.1,0c0,0-0.1,0-0.1,0l-0.1,0c-0.1,0-0.2,0-0.3,0c0,0,0,0,0,0l-0.2,0l-0.1,0c-0.1,0-0.2,0-0.2,0
				c0,0,0,0,0,0c-0.1,0-0.2,0-0.3,0c0,0,0,0-0.1,0c-0.1,0-0.1,0-0.2,0c-0.1,0-0.2,0-0.3,0.1l0,0c-0.1,0-0.2,0-0.2,0.1
				c0,0-0.1,0-0.1,0c-0.1,0-0.1,0-0.2,0.1c0,0,0,0-0.1,0c-0.1,0-0.2,0.1-0.3,0.1c0,0,0,0-0.1,0c-0.1,0-0.1,0-0.2,0.1
				c0,0-0.1,0-0.1,0c-0.1,0-0.2,0.1-0.3,0.1l-0.8,0.3l0-0.8l0-0.1v0l0-0.1l0-0.2l0-0.1c0.1-0.5,0.2-1.3,0.5-2.1
				c-0.4-0.4-0.9-0.9-1.4-1.2l-0.1-0.1c-0.2-0.1-0.3-0.2-0.5-0.3c0,0,0,0-0.1,0l-0.1,0c0,0,0,0,0,0l0,0l0,0c0,0,0,0,0,0c0,0,0,0,0,0
				c0,0,1.4-1.3,4.2-1.5l0,0c0.1,0,0.2,0,0.2,0l0.1,0c0.1,0,0.2,0,0.3,0l0,0c0.9,0,1.8,0.1,2.8,0.2l0.2,0c0.7,0.1,1.3,0.2,2,0.4
				c0.5,0.1,1,0.2,1.5,0.4c0.3,0.1,0.6,0.1,0.9,0.2l0.1,0l0.2,0c4.4,1.2,5.8,1.4,6.6,1.5c0.2,0,0.3,0,0.4,0.1
				c1.8,0.3,2.2-0.5,2.2-0.7c0,0,0,0,0,0s-0.6,0.2-2.4,0l0,0c-0.7-0.1-1.8-0.3-3.1-0.6c2-0.6,3.8-1.7,5.4-3.1
				c0.8-0.8,1.6-1.7,2.2-2.7l1.7-1.4c0.2,0.7,0.3,1.2,0.3,1.2l0.1,0.5l2.1,0.3L64.7,167.1z"/>
		</g>
		<g>
			<path class="st2" d="M49.2,137.7v0.6c0.3,0,0.5,0,0.8,0.1v-0.2c0.2,0,0.2,0,0.4,0.1h0l0,0.7h0c-0.1,0-0.2,0-0.4-0.1v-0.2
				l-0.2,0.2c-0.2,0-0.5-0.1-0.7-0.1c-0.1-0.1-0.2-0.2-0.3-0.3v-0.9c0.1-0.1,0.2-0.2,0.3-0.3c0.4,0,0.5,0,0.9,0.1v-0.6
				c-0.3,0-0.5-0.1-0.8-0.1v0.2c-0.1,0-0.3,0-0.4,0l0-0.7c0.1,0,0.2,0,0.4,0v0.2c0.1-0.1,0.1-0.1,0.2-0.2c0.3,0,0.4,0,0.7,0.1
				c0.1,0.1,0.2,0.2,0.3,0.3v0.9c-0.1,0.1-0.2,0.1-0.3,0.2C49.8,137.8,49.5,137.8,49.2,137.7"/>
		</g>
		<g>
			<path class="st2" d="M54.6,138l-0.8-0.2l0,1.6c0.3,0.1,0.5,0.1,0.8,0.2L54.6,138z M53.6,139.8c-0.1-0.1-0.2-0.2-0.3-0.4l0-1.9
				c0.1-0.1,0.2-0.1,0.3-0.2c0.5,0.1,0.7,0.2,1.1,0.3l0.3,0.4l0,1.9c-0.1,0.1-0.2,0.1-0.3,0.2C54.3,140,54.1,139.9,53.6,139.8"/>
		</g>
		<g>
			<path class="st2" d="M56.8,140.2l0.2,0c0-0.6,0-1,0-1.6c-0.3-0.1-0.4-0.1-0.7-0.2l0,1.6c0.1,0,0.1,0,0.2,0v0.4
				c-0.3-0.1-0.6-0.1-0.9-0.2V140c0.1,0,0.1,0,0.2,0.1l0-1.8l0.3-0.2c0.4,0.1,0.6,0.2,1.1,0.3l0.3,0.3l0,1.8c0.1,0,0.1,0,0.2,0v0.4
				c-0.3-0.1-0.6-0.1-0.9-0.2V140.2z"/>
		</g>
		<g>
			<path class="st2" d="M51,139.1v-0.4c0.1,0,0.2,0,0.3,0.1l0-1.6c-0.1,0-0.2,0-0.3-0.1v-0.4c0.7,0.2,1,0.3,1.7,0.4v0.7l-0.4-0.1
				v-0.3c-0.2-0.1-0.3-0.1-0.5-0.1v0.7c0.3,0.1,0.4,0.1,0.7,0.2l0,0.3c-0.2-0.1-0.5-0.1-0.7-0.2v0.7c0.2,0.1,0.3,0.1,0.5,0.1v-0.3
				l0.4,0.1l0,0.7l0,0C52,139.3,51.7,139.2,51,139.1"/>
		</g>
		<g>
			<path class="st2" d="M59.8,139c-0.2,0-0.4,0-0.6,0l0,1.6c0.1,0,0.2,0,0.3,0v0.4c-0.4,0-0.7-0.1-1.1-0.1v-0.4c0.1,0,0.2,0,0.3,0
				V139c-0.1,0-0.2,0-0.3,0l0-0.4c0.7,0.1,1.1,0.1,1.8,0.1v0.7c-0.1,0-0.2,0-0.4,0V139z"/>
		</g>
		<g>
			<path class="st3" d="M54.5,168c0.4,0.1,0.8,0.2,1.1,0.3l0.7,0.2c2.6,0.7,4.9,1.2,6.5,1.1c1-0.1,1.4-0.8,1.5-1.2
				c0.2,0.2,0.3,0.6,0.3,1c0,0.8-0.4,1.3-1,1.7l-0.1,0.1l0,0.1c0,0.2-0.1,0.3-0.2,0.5c-0.5,1-1.7,1.6-3.1,1.6
				c-2.1,0-4.3-0.6-6.3-1.3c-3.1-0.9-6.3-1.9-9.7-0.7c0.1-0.4,0.2-1.1,0.4-1.7c0.1-0.2,0.1-0.4,0.2-0.5l0.1-0.2l-0.1-0.2
				c-0.2-0.2-0.4-0.4-0.6-0.6c-0.1-0.1-0.1-0.1-0.2-0.2l0,0c-0.1-0.1-0.3-0.3-0.4-0.4l0,0c-0.1-0.1-0.1-0.1-0.2-0.2l0,0l-0.1-0.1
				C46.2,165.8,50.4,166.9,54.5,168"/>
		</g>
		<g>
			<path class="st2" d="M48,168c-0.2,0-0.4,0-0.6,0l0,1.6c0.3,0,0.4,0,0.6,0L48,168z M48.5,167.9l0,1.9c-0.1,0.1-0.2,0.1-0.3,0.2
				c-0.6-0.1-0.9-0.1-1.6-0.1v-0.4c0.1,0,0.2,0,0.3,0l0-1.6c-0.1,0-0.2,0-0.3,0v-0.4c0.6,0,0.9,0,1.6,0.1
				C48.3,167.7,48.4,167.7,48.5,167.9"/>
		</g>
		<g>
			<path class="st2" d="M49.6,169.8c0.3,0.1,0.5,0.1,0.8,0.2l0-1.6c-0.3-0.1-0.5-0.1-0.8-0.1L49.6,169.8z M50.6,167.9
				c0.1,0.1,0.2,0.2,0.3,0.3l0,1.9c-0.1,0.1-0.2,0.1-0.3,0.2c-0.4-0.1-0.8-0.2-1.1-0.2l-0.3-0.3l0-1.9c0.1-0.1,0.2-0.1,0.3-0.2
				C49.9,167.8,50.1,167.8,50.6,167.9"/>
		</g>
		<g>
			<path class="st2" d="M52,170.3c0.3,0.1,0.5,0.1,0.8,0.2l0-1.7c-0.3-0.1-0.5-0.1-0.8-0.2L52,170.3z M53,168.5l0.3,0.4l0,2
				c-0.1,0.1-0.2,0.1-0.3,0.2c-0.5-0.1-0.7-0.2-1.1-0.3l-0.3-0.3l0-1.9l0.3-0.2C52.3,168.3,52.5,168.3,53,168.5"/>
		</g>
		<g>
			<path class="st2" d="M57.1,170.4l0.2,0.9l0.2-0.8C57.3,170.5,57.2,170.5,57.1,170.4z M57.7,169.7c0.2,0.1,0.3,0.1,0.6,0.1l0,0.4
				l-0.2,0c-0.2,0.7-0.4,1.3-0.6,2l-0.1,0l-0.4-0.1l-0.4-0.1l0-0.4l0.3,0.1c-0.2-0.6-0.3-1.2-0.5-1.8l-0.2-0.1l0-0.4
				c0.2,0.1,0.3,0.1,0.6,0.1l0,0v0L57,170c0.3,0.1,0.4,0.1,0.6,0.1C57.6,170,57.7,169.9,57.7,169.7L57.7,169.7z"/>
		</g>
		<g>
			<path class="st2" d="M61,172.1v0.4c-0.4,0-0.6,0-0.9,0l0-0.4c0.1,0,0.2,0,0.3,0l0-1c-0.3,0.6-0.4,0.8-0.7,1.4
				c-0.2,0-0.4,0-0.7-0.1l0-0.4c0.1,0,0.2,0,0.3,0c0-0.7,0-1,0-1.6c-0.1,0-0.2,0-0.3,0l0-0.4c0.4,0.1,0.6,0.1,0.9,0.1l0,0.4
				c-0.1,0-0.1,0-0.2,0l0,1.1c0.3-0.6,0.4-0.8,0.7-1.4c0.3,0,0.4,0,0.7,0.1v0.4l-0.3,0l0,1.6C60.8,172.1,60.9,172.1,61,172.1"/>
		</g>
		<g>
			<path class="st2" d="M54.5,170.3l0,0.6c0.3,0.1,0.5,0.1,0.8,0.2l0-0.3c0.1,0,0.2,0.1,0.4,0.1h0l0,0.7c0,0,0,0,0,0
				c-0.2,0-0.2-0.1-0.4-0.1l0-0.2c-0.1,0.1-0.1,0.1-0.2,0.2c-0.3-0.1-0.4-0.1-0.7-0.2L54,171c0-0.4,0-0.5,0-0.9
				c0.1-0.1,0.2-0.1,0.3-0.2l0.9,0.2l0-0.6c-0.3-0.1-0.5-0.1-0.8-0.2l0,0.3l-0.4-0.1v-0.7l0.4,0.1c0,0.1,0,0.1,0,0.2
				c0.1-0.1,0.1-0.1,0.2-0.2c0.3,0.1,0.4,0.1,0.7,0.2l0.3,0.4l0,0.9l-0.3,0.2C55,170.5,54.8,170.4,54.5,170.3"/>
		</g>
		<g>
			<path class="st3" d="M33.5,154.2l1.1,1.1l0.1,1l-2.1-2.1l1.8-1.8l0.1,0.9L33.5,154.2z"/>
		</g>
		<g>
			<path class="st3" d="M54.1,133.6l-1,1c-0.2-0.1-0.5-0.1-0.7-0.2l1.7-1.7l3.1,3.1c-0.4-0.1-0.9-0.2-1.3-0.4L54.1,133.6z"/>
		</g>
		<g>
			<path class="st3" d="M69.6,149.1l-5.6-5.6c0.2-0.1,0.5-0.1,0.7-0.2l6.1,6.1C70.4,149.3,70,149.2,69.6,149.1"/>
		</g>
		<g>
			<path class="st3" d="M39,148.7c0,0-0.1,0-0.1,0l-0.7-0.1l4.3-4.3c0.1,0.2,0.2,0.4,0.3,0.6L39,148.7z"/>
		</g>
		<g>
			<path class="st3" d="M52.5,173.3l1.6,1.6L55,174c0.2,0.1,0.5,0.1,0.7,0.2l-1.6,1.6l-2.9-2.9C51.6,173,52.1,173.1,52.5,173.3"/>
		</g>
		<g>
			<path class="st3" d="M62,167.9c-0.3,0-0.5-0.1-0.8-0.1c0,0,0,0,0,0l6.5-6.5l0.1,0.4l0.4,0.1L62,167.9z"/>
		</g>
		<g>
			<path class="st3" d="M43.7,165.4l-1.4-1.3c0.2-0.1,0.4-0.3,0.5-0.4l1.6,1.6C44.1,165.2,43.9,165.3,43.7,165.4"/>
		</g>
		<g>
			<path class="st3" d="M60.4,162.7c0.1,0.2,0.2,0.3,0.3,0.5c0.1,0.2,0.2,0.3,0.2,0.5c-0.1,0-0.2-0.1-0.3-0.1
				c-0.1,0-0.2-0.1-0.3-0.1c-0.1-0.2-0.2-0.3-0.3-0.5c-0.1-0.2-0.2-0.3-0.3-0.5c0.1,0,0.2,0,0.3,0.1
				C60.2,162.7,60.3,162.7,60.4,162.7"/>
		</g>
		<g>
			<path class="st3" d="M60.7,162.8c0.2-0.1,0.3-0.2,0.5-0.3c0.2-0.1,0.4-0.2,0.5-0.3l-0.3-0.1l-0.3-0.1c-0.4,0.2-0.7,0.4-1,0.6
				l0.2,0l0.2,0C60.5,162.7,60.6,162.8,60.7,162.8"/>
		</g>
		<g>
			<path class="st3" d="M62.1,163.2c0.1,0.2,0.1,0.4,0.2,0.5c0.1,0.2,0.1,0.4,0.2,0.5c-0.1,0-0.2-0.1-0.3-0.1
				c-0.1,0-0.2-0.1-0.3-0.1c-0.1-0.2-0.1-0.3-0.2-0.5c-0.1-0.2-0.2-0.3-0.3-0.5c0.1,0,0.2,0.1,0.3,0.1
				C61.8,163.2,61.9,163.2,62.1,163.2"/>
		</g>
		<g>
			<path class="st3" d="M62.3,163.3c0.2-0.1,0.3-0.2,0.5-0.2c0.2-0.1,0.4-0.1,0.6-0.2c-0.1-0.1-0.2-0.1-0.3-0.2l-0.3-0.1
				c-0.4,0.2-0.7,0.3-1.1,0.5l0.2,0l0.2,0.1C62.1,163.3,62.2,163.3,62.3,163.3"/>
		</g>
		<g>
			<path class="st3" d="M58.7,162.5c0.3,0.3,0.5,0.6,0.7,0.9c-0.1,0-0.2,0-0.3,0l-0.1,0l-0.1,0c-0.2-0.3-0.5-0.6-0.8-0.8
				c0.1,0,0.2,0,0.3,0L58.7,162.5z"/>
		</g>
		<g>
			<path class="st3" d="M59,162.5c0.3-0.3,0.6-0.5,0.9-0.8l-0.2,0l-0.2,0l-0.2,0l-0.2,0c-0.3,0.3-0.6,0.5-0.8,0.8c0.1,0,0.2,0,0.3,0
				C58.8,162.5,58.9,162.5,59,162.5"/>
		</g>
		<g>
			<path class="st3" d="M57,162.6c0.3,0.2,0.6,0.5,0.8,0.8c-0.2,0-0.4,0-0.6,0.1c-0.3-0.3-0.6-0.5-0.9-0.7
				C56.6,162.7,56.8,162.7,57,162.6"/>
		</g>
		<g>
			<path class="st3" d="M57.3,162.6c0.2-0.3,0.5-0.6,0.7-0.9c-0.2,0-0.5,0-0.7,0.1c-0.2,0.3-0.5,0.6-0.7,0.9
				C56.9,162.7,57.1,162.6,57.3,162.6"/>
		</g>
		<g>
			<path class="st3" d="M55.3,162.9c0.3,0.2,0.6,0.4,0.9,0.7c-0.2,0-0.4,0.1-0.6,0.1c-0.3-0.2-0.6-0.4-0.9-0.7
				C54.9,163,55.1,163,55.3,162.9"/>
		</g>
		<g>
			<path class="st3" d="M55.6,162.9c0.2-0.3,0.4-0.7,0.6-1c-0.2,0-0.4,0.1-0.7,0.1c-0.2,0.3-0.4,0.7-0.6,1
				C55.2,163,55.4,162.9,55.6,162.9"/>
		</g>
		<g>
			<path class="st3" d="M53.6,163.3l1,0.7l-0.6,0.1c-0.3-0.2-0.6-0.4-1-0.7C53.2,163.4,53.4,163.4,53.6,163.3"/>
		</g>
		<g>
			<path class="st3" d="M53.9,163.3l0.6-1l-0.6,0.1c-0.2,0.3-0.4,0.7-0.6,1L53.9,163.3z"/>
		</g>
		<g>
			<path class="st3" d="M52,163.6c0.3,0.2,0.6,0.5,0.9,0.7c-0.2,0-0.4,0.1-0.7,0.1c-0.3-0.2-0.6-0.5-0.9-0.7
				C51.5,163.7,51.7,163.7,52,163.6"/>
		</g>
		<g>
			<path class="st3" d="M52.2,163.6c0.2-0.3,0.4-0.6,0.6-1c-0.2,0-0.4,0.1-0.6,0.1c-0.2,0.3-0.4,0.6-0.6,1l0.3,0L52.2,163.6z"/>
		</g>
		<g>
			<path class="st3" d="M50.2,163.8c0.3,0.3,0.6,0.5,0.9,0.8l-0.3,0l-0.4,0c-0.2-0.2-0.4-0.4-0.6-0.6c-0.1-0.1-0.1-0.1-0.2-0.2
				c0.1,0,0.2,0,0.3,0l0.2,0L50.2,163.8z"/>
		</g>
		<g>
			<path class="st3" d="M50.5,163.8c0.2-0.3,0.5-0.6,0.7-0.9l-0.3,0c-0.1,0-0.2,0-0.3,0c-0.2,0.3-0.5,0.6-0.7,0.9
				C50.1,163.8,50.3,163.8,50.5,163.8"/>
		</g>
		<g>
			<path class="st3" d="M48.5,163.7c0.1,0.2,0.2,0.3,0.3,0.5c0.1,0.2,0.2,0.3,0.4,0.5c-0.1,0-0.2,0-0.4,0c-0.1,0-0.2,0-0.4,0
				c-0.1-0.2-0.2-0.3-0.3-0.5c-0.1-0.2-0.2-0.3-0.3-0.5C48.1,163.6,48.3,163.7,48.5,163.7"/>
		</g>
		<g>
			<path class="st3" d="M48.8,163.8c0.1-0.1,0.3-0.3,0.4-0.4c0.1-0.1,0.3-0.3,0.4-0.4c-0.2,0-0.4,0-0.6,0c-0.1,0.1-0.3,0.3-0.4,0.4
				c-0.1,0.1-0.3,0.2-0.4,0.3C48.4,163.7,48.6,163.7,48.8,163.8"/>
		</g>
		<g>
			<path class="st3" d="M46.9,163.3c0.1,0.4,0.3,0.7,0.5,1.1c-0.1,0-0.2-0.1-0.3-0.1c-0.1,0-0.2-0.1-0.3-0.1
				c-0.2-0.4-0.3-0.7-0.4-1.1c0.1,0,0.2,0.1,0.3,0.1l0.2,0.1L46.9,163.3z"/>
		</g>
		<g>
			<path class="st3" d="M47.1,163.4c0.1,0,0.2-0.1,0.2-0.1c0.1,0,0.2-0.1,0.2-0.1c0.2-0.1,0.3-0.2,0.5-0.3c-0.2,0-0.4-0.1-0.6-0.2
				c-0.2,0.1-0.5,0.3-0.7,0.4c-0.1,0-0.2,0.1-0.3,0.1c0.1,0,0.2,0.1,0.3,0.1C46.9,163.3,47,163.3,47.1,163.4"/>
		</g>
		<g>
			<path class="st3" d="M45.3,162.5c0.1,0.4,0.2,0.8,0.3,1.1c-0.3-0.2-0.7-0.7-0.7-0.7c0-0.2,0-0.1-0.1-0.3c0-0.2-0.1-0.4-0.1-0.6
				l0.3,0.2C45.2,162.4,45.2,162.4,45.3,162.5"/>
		</g>
		<g>
			<path class="st3" d="M45.6,162.6c0.1,0,0.2-0.1,0.3-0.1c0.1,0,0.2-0.1,0.3-0.1c0.1,0,0.2-0.1,0.3-0.1c0.1,0,0.2-0.1,0.3-0.1
				c-0.2-0.1-0.4-0.2-0.5-0.3c-0.3,0.1-0.7,0.2-1.1,0.3c0.1,0.1,0.2,0.1,0.3,0.2l0.1,0.1L45.6,162.6z"/>
		</g>
		<g>
			<path class="st3" d="M50,144c-0.2-0.3-0.5-0.6-0.8-0.9l0.2,0l0.2,0l0.2,0l0.2,0c0.3,0.3,0.5,0.6,0.7,1c-0.1,0-0.2,0-0.3-0.1
				C50.2,144,50.1,144,50,144"/>
		</g>
		<g>
			<path class="st3" d="M51.9,144.5c-0.3,0.2-0.7,0.4-1,0.6c0.2,0.1,0.4,0.1,0.6,0.2c0.3-0.2,0.7-0.4,1-0.6
				C52.4,144.6,52.2,144.5,51.9,144.5"/>
		</g>
		<g>
			<path class="st3" d="M51.7,144.4c-0.2-0.4-0.4-0.7-0.6-1c0.2,0.1,0.5,0.1,0.7,0.2c0.2,0.4,0.4,0.7,0.5,1.1
				C52.1,144.5,51.9,144.4,51.7,144.4"/>
		</g>
		<g>
			<path class="st3" d="M53.6,145.1c-0.4,0.2-0.7,0.3-1,0.5c0.2,0.1,0.4,0.2,0.6,0.2c0.3-0.2,0.7-0.3,1.1-0.5
				C54,145.2,53.8,145.2,53.6,145.1"/>
		</g>
		<g>
			<path class="st3" d="M53.3,145c-0.1-0.4-0.3-0.7-0.4-1.1c0.2,0.1,0.4,0.2,0.6,0.2c0.1,0.4,0.3,0.7,0.4,1.1
				C53.7,145.1,53.5,145.1,53.3,145"/>
		</g>
		<g>
			<path class="st3" d="M55.2,145.8l-1.1,0.5l0.6,0.3c0.4-0.2,0.7-0.3,1.1-0.5C55.6,145.9,55.4,145.8,55.2,145.8"/>
		</g>
		<g>
			<path class="st3" d="M54.9,145.6l-0.4-1.1l0.6,0.3c0.1,0.4,0.3,0.7,0.4,1.1L54.9,145.6z"/>
		</g>
		<g>
			<path class="st3" d="M56.8,146.4c-0.3,0.2-0.7,0.4-1.1,0.5c0.2,0.1,0.4,0.2,0.6,0.2c0.4-0.2,0.7-0.4,1-0.5
				C57.2,146.5,57,146.5,56.8,146.4"/>
		</g>
		<g>
			<path class="st3" d="M56.5,146.3c-0.1-0.4-0.3-0.7-0.4-1.1c0.2,0.1,0.4,0.2,0.6,0.2c0.1,0.4,0.3,0.7,0.4,1.1l-0.3-0.1L56.5,146.3
				z"/>
		</g>
		<g>
			<path class="st3" d="M58.5,146.9c-0.3,0.2-0.7,0.4-1,0.6l0.3,0.1l0.3,0.1c0.2-0.1,0.3-0.2,0.5-0.3c0.1-0.1,0.2-0.1,0.2-0.2
				c0.1-0.1,0.2-0.1,0.2-0.2c-0.1,0-0.2,0-0.3-0.1l-0.2,0L58.5,146.9z"/>
		</g>
		<g>
			<path class="st3" d="M58.2,146.8c-0.2-0.3-0.4-0.7-0.5-1l0.3,0.1c0.1,0,0.2,0.1,0.3,0.1c0.2,0.3,0.4,0.7,0.6,1
				C58.6,146.9,58.4,146.9,58.2,146.8"/>
		</g>
		<g>
			<path class="st3" d="M60.2,147.1c-0.1,0.1-0.3,0.3-0.4,0.4c-0.1,0.1-0.3,0.3-0.5,0.4c0.1,0,0.2,0,0.4,0c0.1,0,0.2,0,0.4,0
				c0.3-0.3,0.6-0.6,0.8-0.9C60.6,147.1,60.4,147.1,60.2,147.1"/>
		</g>
		<g>
			<path class="st3" d="M59.9,147.1c-0.1-0.1-0.2-0.3-0.4-0.5c-0.1-0.2-0.2-0.3-0.3-0.5c0.2,0,0.4,0.1,0.6,0.1
				c0.2,0.3,0.5,0.6,0.7,0.9C60.4,147.1,60.1,147.1,59.9,147.1"/>
		</g>
		<g>
			<path class="st3" d="M61.9,147c-0.2,0.3-0.4,0.7-0.7,1c0.1,0,0.2,0,0.4,0c0.1,0,0.2,0,0.4-0.1c0.2-0.3,0.4-0.7,0.6-1
				c-0.1,0-0.2,0.1-0.3,0.1l-0.2,0L61.9,147z"/>
		</g>
		<g>
			<path class="st3" d="M61.7,147c-0.1-0.1-0.2-0.1-0.2-0.2c-0.1-0.1-0.1-0.1-0.2-0.2c-0.1-0.1-0.3-0.3-0.4-0.4c0.2,0,0.4,0,0.6-0.1
				c0.2,0.2,0.4,0.4,0.7,0.5c0.1,0.1,0.2,0.1,0.2,0.2c-0.1,0-0.2,0.1-0.3,0.1C61.9,147,61.8,147,61.7,147"/>
		</g>
		<g>
			<path class="st3" d="M63.6,146.5c-0.1,0.4-0.3,0.7-0.5,1.1c0.1,0,0.2-0.1,0.3-0.1l0.3-0.1c0.1-0.2,0.2-0.4,0.2-0.6
				c0.1-0.2,0.1-0.4,0.2-0.6l-0.3,0.1C63.8,146.4,63.7,146.4,63.6,146.5"/>
		</g>
		<g>
			<path class="st3" d="M63.3,146.6c-0.1,0-0.2-0.1-0.3-0.1c-0.1,0-0.2-0.1-0.3-0.1c-0.1,0-0.2-0.1-0.2-0.1
				c-0.1-0.1-0.2-0.1-0.2-0.2c0.2-0.1,0.4-0.1,0.6-0.2c0.3,0.2,0.7,0.4,1,0.5c-0.1,0-0.2,0.1-0.3,0.1l-0.2,0.1L63.3,146.6z"/>
		</g>
		<g>
			<path class="st3" d="M50.2,144.7c-0.1-0.1-0.3-0.2-0.4-0.3c0.1-0.1,0.3-0.2,0.4-0.3l0.3,0.1c0.1,0,0.2,0,0.3,0.1
				C50.7,144.3,50.4,144.5,50.2,144.7"/>
		</g>
	</g>
</g>
<rect x="8" y="8" class="st4" width="234" height="234"/>
</svg>
