<?xml version="1.0" encoding="utf-8"?>
<!-- Generator: Adobe Illustrator 25.1.0, SVG Export Plug-In . SVG Version: 6.00 Build 0)  -->
<svg version="1.1" id="Layer_1" xmlns="http://www.w3.org/2000/svg" xmlns:xlink="http://www.w3.org/1999/xlink" x="0px" y="0px"
	 viewBox="0 0 250 250" style="enable-background:new 0 0 250 250;" xml:space="preserve">
<style type="text/css">
	.st0{fill:#FFFFFF;}
	.st1{fill:#06141F;}
	.st2{fill:#EA0029;}
	.st3{fill:none;}
</style>
<g>
	<path class="st0" d="M60.4,37.7v38.2L8,75.9l14,18.7L33.2,94l0,40.1l27.1-6.5v38.6l64.6,46l64.6-46.1v-38.5l28.1,7.6
		c8.5,0.2,10.7-4.6,11.3-7.7c0.3-1.6,0.4-3.3,0.5-4.6c0.1-1,0.1-1.9,0.1-2.9c0-1.3,0-3,0-4.7c0-3.4,0-6.8,0-6.8v0
		c0-1.9-0.2-4.1-1.4-6.3c-0.8-1.5-2.1-2.8-3.6-3.8L242,76l-52.4,0V37.7H60.4z"/>
	<path class="st1" d="M125,193.3l-59.9-34v4.5l59.9,42.6l59.9-42.6v-4.5L125,193.3z"/>
	<path class="st1" d="M114.5,166.6h21l5,10.5l44.3-22.8l0,0l0,0v-25.9c-39.5-8.6-80.3-8.6-119.8,0v25.9l44.3,22.8L114.5,166.6z"/>
	<path class="st2" d="M109.2,80.8H79.6c0.5,0.2,4.2,1.5,4.2,5.3l0,25.7c-0.1,3.7,2.6,5.4,7.9,4.9c8.5-0.8,17-1.3,25.5-1.5V96.6
		c-5.6,0.1-10.4,0.2-15.9,0.4v6.2c1.8-0.1,2.8-0.2,4.6-0.2v6.4c-3.2,0.1-5.8,0.3-9,0.5c-0.8,0.1-1.2-0.2-1.2-0.9V87.9
		c0-0.6,0.4-0.8,1.2-0.8c2.6,0,4.9-0.1,7.5-0.1c0.8,0,1.1,0.3,1.1,0.9v3.7c3.9-0.1,7.8-0.1,11.7-0.1l0-5.2
		C117.2,82.8,114.3,80.8,109.2,80.8"/>
	<path class="st2" d="M177.4,88.8v9.1c0,0.7-0.4,1.1-1.2,1c-3-0.2-5.3-0.4-8.3-0.6V87.4c3,0.1,5.3,0.2,8.2,0.2
		C177,87.6,177.4,88,177.4,88.8 M189.2,100.7V87.2c-0.1-4-3.4-6.5-8.6-6.5H152c0.5,0.2,4.4,1.5,4.4,5.1l0,30.7
		c3.8,0.4,7.8,0.8,11.6,1.3v-13.4c1.9,0.2,3.9,0.3,5.8,0.5c2,4.7,3.5,9.4,5.5,14.4c3.8,0.6,8,1.5,11.8,2.3
		c-2.1-5.3-4.2-10.5-6.3-15.7C187.6,105.5,189.2,103.6,189.2,100.7"/>
	<path class="st2" d="M24.5,89.6c4.6-0.3,9-0.5,13.6-0.7v37.6c3.8-1,7.9-2,11.7-2.9V88.4c2.8-0.1,6-0.2,8.7-0.3v-7.3H17.7
		C19.9,83.8,22.2,86.7,24.5,89.6 M220.5,101.6c-3.5-1.6-11.6-5.3-14.1-6.4c-0.9-0.4-1.3-1.2-1.3-1.7v-3.7c0-0.8,0.4-1.2,1.2-1.1
		c6,0.3,13,0.6,19,0.9l6.9-8.9h-43c0.6,0.3,4.5,1.6,4.5,6c0,0,0,4.7,0,7.2c0,2.5,1.3,4.5,4.4,5.9c3.1,1.4,13.2,5.8,14,6.2
		c1,0.5,1.2,1.1,1.2,2.6v9.2c0,1.2-0.9,1-1.2,1c-2.1-0.5-3.8-0.8-5.8-1.3c-0.3-0.1-1-0.3-1-1.4V110c-3.8-0.6-7.5-1.2-11.3-1.7v7
		c0.1,4.5,3.3,7.8,8.5,9.1c4.8,1.2,9.5,2.5,14.3,3.9c5.1,1.5,8-0.6,8-6c0-0.1,0-13.7,0-13.7C224.8,105.3,224.1,103.2,220.5,101.6
		 M64.6,86.5v34c3.9-0.7,7.8-1.4,11.8-1.9V80.8h-16C61.5,81.1,64.6,82.8,64.6,86.5 M118.5,80.8c0.6,0.3,4.5,1.5,4.5,4.9
		c0,9.8,0,19.6,0,29.3c9.2,0,18.2,0.3,27.3,1v-6.3c-5.3-0.3-10.6-0.6-15.9-0.7v-7.9c4.7,0.1,9.4,0.2,14.1,0.4v-6.4
		c-4.7-0.1-9.4-0.2-14.1-0.3c0-7.8,0-7.8,0-8c5.3,0,10.2,0.1,15.5,0.2v-6.3L118.5,80.8z"/>
	<path class="st0" d="M85.7,140.8c0.4,0,0.6-0.2,0.8-0.4c0.2-0.2,0.2-0.5,0.2-0.8c0-0.4-0.1-0.6-0.3-0.7c-0.2-0.1-0.4-0.2-0.8-0.1
		c-0.5,0.1-1.1,0.1-1.6,0.2v2C84.6,140.9,85.1,140.9,85.7,140.8 M85.5,137.6c0.4-0.1,0.6-0.2,0.8-0.4c0.2-0.2,0.2-0.4,0.2-0.8
		c0-0.4-0.1-0.6-0.3-0.7c-0.2-0.1-0.4-0.2-0.8-0.1c-0.5,0.1-0.9,0.1-1.4,0.2v2C84.5,137.7,85,137.6,85.5,137.6 M85.5,134.4
		c0.4-0.1,0.8-0.1,1.1,0c0.3,0,0.6,0.1,0.8,0.3c0.2,0.2,0.3,0.4,0.4,0.6c0.1,0.3,0.1,0.6,0.1,1c0,0.3-0.1,0.6-0.1,0.9
		c-0.1,0.2-0.3,0.5-0.5,0.7c0.3,0.1,0.5,0.3,0.6,0.5c0.1,0.3,0.2,0.6,0.2,1.1c0,0.4-0.1,0.8-0.2,1.1c-0.1,0.3-0.3,0.5-0.5,0.7
		c-0.2,0.2-0.5,0.4-0.8,0.5c-0.3,0.1-0.7,0.2-1.1,0.3c-1,0.1-2,0.3-2.9,0.4v-7.6C83.6,134.6,84.5,134.5,85.5,134.4 M91.7,138.2
		c0.6-0.1,1.2-0.1,1.9-0.2c-0.3-0.9-0.6-1.9-0.9-2.8C92.3,136.2,92,137.2,91.7,138.2 M94,139.2c-0.9,0.1-1.8,0.2-2.6,0.3
		c-0.2,0.6-0.4,1.3-0.6,1.9c-0.5,0.1-1,0.1-1.5,0.2c0.8-2.6,1.7-5.3,2.5-7.9c0.6-0.1,1.2-0.1,1.8-0.2l2.5,7.4c-0.5,0-1,0.1-1.5,0.2
		C94.3,140.4,94.2,139.8,94,139.2 M102,134.1c-0.4-0.1-0.8-0.1-1.2-0.1c-0.4,0-0.7,0-1,0c-0.2,0-0.3,0-0.5,0.1
		c-0.2,0-0.3,0.1-0.4,0.2c-0.1,0.1-0.2,0.2-0.3,0.3c-0.1,0.1-0.1,0.3-0.1,0.5c0,0.1,0,0.3,0.1,0.4c0.1,0.1,0.1,0.2,0.3,0.3
		c0.1,0.1,0.3,0.1,0.5,0.2c0.2,0,0.4,0.1,0.7,0.1c0.4,0.1,0.7,0.1,1,0.2c0.3,0.1,0.6,0.2,0.8,0.4c0.2,0.2,0.4,0.3,0.5,0.6
		c0.1,0.2,0.2,0.5,0.2,0.8c0,0.8-0.2,1.4-0.7,1.9c-0.5,0.4-1.2,0.7-2,0.7c-0.4,0-0.8,0-1.2,0c-0.4,0-0.8-0.1-1.2-0.2v-1.1
		c0.5,0.1,0.9,0.1,1.3,0.1c0.4,0,0.8,0,1.1,0c0.5,0,0.8-0.2,1-0.4c0.2-0.2,0.3-0.5,0.3-0.9c0-0.3-0.1-0.5-0.4-0.6
		c-0.1-0.1-0.3-0.1-0.5-0.1c-0.2,0-0.4-0.1-0.7-0.1c-0.4-0.1-0.7-0.1-1-0.2c-0.3-0.1-0.5-0.2-0.8-0.4c-0.2-0.2-0.4-0.4-0.5-0.6
		c-0.1-0.3-0.2-0.6-0.2-0.9c0-0.7,0.2-1.2,0.6-1.6c0.4-0.4,1.1-0.6,2.1-0.7c0.8-0.1,1.5,0,2.3,0.2V134.1z M104,132.5
		c1.7-0.1,3.4-0.2,5.2-0.3c0,0.4,0,0.8,0,1.2c-1.2,0.1-2.5,0.1-3.7,0.2v2c1.2-0.1,2.4-0.1,3.6-0.2c-0.2,0.4-0.3,0.8-0.5,1.2
		c-1,0.1-2.1,0.1-3.1,0.2v2c1.2-0.1,2.5-0.2,3.7-0.2c0,0.4,0,0.8,0,1.2c-1.7,0.1-3.5,0.2-5.2,0.3V132.5z M113.9,138.4
		c0.4,0,0.6-0.1,0.8-0.3c0.2-0.2,0.2-0.4,0.2-0.8c0-0.4-0.1-0.6-0.3-0.8c-0.2-0.1-0.4-0.2-0.8-0.2c-0.5,0-1.1,0-1.6,0.1v2
		C112.8,138.5,113.3,138.4,113.9,138.4 M113.7,135.2c0.4,0,0.6-0.1,0.8-0.3c0.2-0.2,0.2-0.4,0.2-0.7c0-0.4-0.1-0.6-0.3-0.8
		c-0.2-0.1-0.4-0.2-0.8-0.2c-0.5,0-0.9,0-1.4,0.1v2C112.7,135.2,113.2,135.2,113.7,135.2 M113.7,132c0.4,0,0.8,0,1.1,0.1
		c0.3,0.1,0.6,0.2,0.8,0.4c0.2,0.2,0.3,0.4,0.4,0.7c0.1,0.3,0.1,0.6,0.1,1c0,0.3,0,0.6-0.1,0.9c-0.1,0.2-0.3,0.4-0.5,0.6
		c0.3,0.1,0.5,0.3,0.6,0.6c0.1,0.3,0.2,0.6,0.2,1.1c0,0.4-0.1,0.8-0.2,1c-0.1,0.3-0.3,0.5-0.5,0.7c-0.2,0.2-0.5,0.3-0.8,0.4
		c-0.3,0.1-0.7,0.1-1.1,0.2c-1,0-2,0.1-3,0.1v-7.6C111.8,132.1,112.8,132,113.7,132 M120,136.4l1.9,0c-0.3-1-0.6-2-0.9-2.9
		C120.6,134.4,120.3,135.4,120,136.4 M122.2,137.6c-0.9,0-1.8,0-2.6,0c-0.2,0.6-0.4,1.2-0.6,1.9c-0.5,0-1,0-1.5,0
		c0.8-2.6,1.7-5.1,2.5-7.7c0.6,0,1.2,0,1.8,0c0.8,2.5,1.6,5.1,2.5,7.6c-0.5,0-1,0-1.5,0C122.6,138.8,122.4,138.2,122.2,137.6
		 M125.5,139.4v-7.7c0.5,0,1,0,1.5,0v6.4c1.2,0,2.3,0,3.5,0c-0.2,0.4-0.3,0.8-0.5,1.2C128.5,139.4,127,139.4,125.5,139.4
		 M131.7,139.5v-7.6c0.5,0,1,0,1.4,0v6.4c1.2,0,2.3,0.1,3.5,0.1c-0.2,0.4-0.3,0.8-0.5,1.2C134.7,139.6,133.2,139.5,131.7,139.5
		 M146.5,139.9c-0.4,0.1-0.8,0.2-1.2,0.2c-0.4,0-0.8,0.1-1.1,0c-0.6,0-1-0.2-1.4-0.4c-0.4-0.2-0.7-0.5-0.9-0.9
		c-0.2-0.4-0.4-0.8-0.5-1.3c-0.1-0.5-0.2-1-0.2-1.6c0-0.6,0.1-1.1,0.2-1.6c0.1-0.5,0.3-0.9,0.5-1.2c0.2-0.3,0.6-0.6,0.9-0.7
		c0.4-0.2,0.9-0.2,1.4-0.2c0.4,0,0.8,0.1,1.2,0.2c0.4,0.1,0.8,0.2,1.2,0.4v1.1c-0.2-0.1-0.4-0.1-0.6-0.2c-0.2,0-0.4-0.1-0.5-0.1
		c-0.2,0-0.3-0.1-0.5-0.1c-0.2,0-0.3,0-0.5,0c-0.6,0-1.1,0.2-1.3,0.6c-0.3,0.5-0.4,1.1-0.4,1.9c0,0.4,0,0.8,0.1,1.1
		c0.1,0.3,0.2,0.6,0.3,0.9c0.1,0.2,0.3,0.4,0.5,0.6c0.2,0.1,0.5,0.2,0.8,0.2c0.2,0,0.3,0,0.5,0c0.2,0,0.3,0,0.5,0
		c0.2,0,0.3,0,0.5-0.1c0.2,0,0.4,0,0.6-0.1L146.5,139.9z M148.1,140.3v-7.6c0.5,0,1,0.1,1.5,0.1v6.4c1.2,0.1,2.3,0.2,3.5,0.3
		c-0.2,0.4-0.3,0.8-0.5,1.2C151,140.5,149.5,140.4,148.1,140.3 M155.8,138.5c0,0.5,0.1,0.8,0.4,1.1c0.3,0.2,0.6,0.4,1,0.4
		c0.4,0.1,0.8,0,1-0.2c0.3-0.2,0.4-0.5,0.4-1v-5.1c0.5,0.1,1,0.1,1.5,0.2v5.2c0,0.5-0.1,0.8-0.2,1.2c-0.1,0.3-0.3,0.5-0.6,0.7
		c-0.2,0.2-0.6,0.3-0.9,0.3c-0.4,0.1-0.8,0.1-1.2,0c-0.4,0-0.8-0.1-1.2-0.3c-0.3-0.1-0.6-0.3-0.9-0.5c-0.2-0.2-0.4-0.5-0.5-0.9
		c-0.1-0.4-0.2-0.8-0.2-1.2v-5.2c0.5,0,1,0.1,1.4,0.1V138.5z M165,140.9c0.4,0,0.6,0,0.8-0.2c0.2-0.2,0.2-0.4,0.2-0.7
		c0-0.4-0.1-0.6-0.3-0.8c-0.2-0.2-0.4-0.3-0.8-0.3c-0.5-0.1-1.1-0.1-1.6-0.2v2C163.9,140.7,164.4,140.8,165,140.9 M164.8,137.6
		c0.4,0.1,0.6,0,0.8-0.2c0.2-0.1,0.2-0.4,0.2-0.7c0-0.4-0.1-0.6-0.3-0.8c-0.2-0.2-0.4-0.3-0.8-0.3c-0.5-0.1-0.9-0.1-1.4-0.2v2
		C163.8,137.5,164.3,137.5,164.8,137.6 M164.8,134.4c0.4,0.1,0.8,0.2,1.1,0.3c0.3,0.1,0.6,0.3,0.8,0.5c0.2,0.2,0.3,0.5,0.4,0.7
		c0.1,0.3,0.1,0.6,0.1,1c0,0.3-0.1,0.6-0.2,0.9c-0.1,0.2-0.3,0.4-0.5,0.5c0.3,0.2,0.5,0.4,0.6,0.7c0.1,0.3,0.2,0.7,0.2,1.2
		c0,0.4-0.1,0.7-0.2,1c-0.1,0.2-0.3,0.5-0.5,0.6c-0.2,0.2-0.5,0.2-0.8,0.3c-0.4,0-0.7,0-1.1,0c-1-0.1-2-0.3-3-0.4V134
		C162.9,134.2,163.8,134.3,164.8,134.4"/>
	<path class="st1" d="M72.3,72.8V49.7h14.6l10.3,23.1h55.1l10.8-23.1h14.6v23.1h7.2V42.5H65.1v30.3H72.3z"/>
	<path class="st0" d="M129.2,64.6c0,0.1,0,0.1,0.1,0.1c0,0,0.1,0,0.1,0l14.9-9.7c0.3-0.2,0.6-0.3,0.9-0.3h3.3c0.5,0,0.8,0.3,0.8,0.8
		v6.2c0,0.8-0.2,1.2-0.8,1.6l-4,2.4c0,0-0.1,0-0.1,0c0,0-0.1,0-0.1-0.2v-7.3c0-0.1,0-0.1-0.1-0.1c0,0-0.1,0-0.1,0l-10.9,7.1
		c-0.2,0.2-0.5,0.3-0.8,0.3h-7.2c-0.5,0-0.8-0.3-0.8-0.8v-9c0-0.1,0-0.1-0.1-0.1c0,0-0.1,0-0.1,0l-7.2,4.3c-0.1,0-0.1,0.1-0.1,0.1
		c0,0,0,0.1,0.1,0.1l5.1,5.1c0.1,0.1,0.1,0.1,0.1,0.2c0,0-0.1,0.1-0.2,0.1h-4.6c-0.4,0-0.6-0.1-0.8-0.2l-3.1-3.1c0,0-0.1,0-0.1,0
		c0,0-0.1,0-0.1,0l-5.2,3.1c-0.3,0.2-0.5,0.2-0.8,0.2h-4.8c-0.5,0-0.8-0.3-0.8-0.8v-6.1c0-0.8,0.2-1.2,0.8-1.6l4-2.4
		c0,0,0.1,0,0.1,0c0.1,0,0.1,0.1,0.1,0.2v8.2c0,0.1,0,0.1,0.1,0.1c0,0,0.1,0,0.1,0l13.5-8.1c0.3-0.2,0.6-0.3,0.9-0.2h7.3
		c0.5,0,0.8,0.3,0.8,0.8V64.6L129.2,64.6z"/>
</g>
<rect x="8" y="8" class="st3" width="234" height="234"/>
</svg>
