<?xml version="1.0" encoding="utf-8"?>
<!-- Generator: Adobe Illustrator 25.1.0, SVG Export Plug-In . SVG Version: 6.00 Build 0)  -->
<svg version="1.1" id="Layer_1" xmlns="http://www.w3.org/2000/svg" xmlns:xlink="http://www.w3.org/1999/xlink" x="0px" y="0px"
	 viewBox="0 0 250 250" style="enable-background:new 0 0 250 250;" xml:space="preserve">
<style type="text/css">
	.st0{fill:none;}
	.st1{fill:#E2E3E4;}
	.st2{fill:#FFFFFF;}
	.st3{fill:#ED1B23;}
</style>
<rect x="8" y="8" class="st0" width="234" height="234"/>
<g>
	<path class="st1" d="M219,141.6l22.6-37.7h-37.2c3.1-10.9,7.6-21.2,13.5-30.1c-33-1-68.3-9-92.9-33.7
		c-24.6,24.7-59.8,32.7-92.9,33.7c6,8.9,10.4,19.2,13.5,30.1H8.4L31,141.6l-15.2,29.7h34.9c-0.8,7.5-2.1,14.6-3.7,21.1
		c0,0,45.2,8.4,78,38.2c32.8-29.8,78-38.2,78-38.2c-1.6-6.5-2.9-13.6-3.7-21.1h34.9C234.2,171.3,219,141.6,219,141.6z"/>
	<path d="M210.1,141.6l14.9-28.7h-35.8c2-11.1,5.2-21.4,9.7-29.7c-23.1-0.2-58.5-10.3-73.9-27.1c-15.4,16.7-50.8,26.8-73.9,27.1
		c4.6,8.3,7.7,18.6,9.7,29.7H25.1l14.9,28.7l-13,24.2h35.8c-0.7,7.8-1.9,14.9-3.3,21c0,0,32.4,7.3,65.5,36.3
		c33.1-29,65.5-36.3,65.5-36.3c-1.4-6.1-2.6-13.3-3.3-21h35.8L210.1,141.6L210.1,141.6z"/>
	<path class="st1" d="M125,188.4c-12.6,0-23.4,7.4-28.4,18.1l28.4,19l28.4-19C148.4,195.8,137.6,188.4,125,188.4"/>
	<path class="st2" d="M76.7,158.1l-14-16.1l12.1-13.3H66L56.5,139v-19.6H45c2.2,1.8,4,4.2,4,7.5v31.1h7.4v-12.5l11,12.5
		C67.5,158.1,76.7,158.1,76.7,158.1z M172.9,128.6v29.4h-7.4v-22c0-3.3-1.8-5.7-4-7.5H172.9z M204.1,151.9l3.6,6.2h-29.2l15-23.2
		h-14v-6.2H207l-16.3,23.2H204.1z M90.8,149.6v-14.7H96l3.6-6.2h-8.8v-9.2l-7.4,4.2v4.9h-5.5v6.2h5.5V150c0,4.5,3.6,8.1,8.1,8.1
		c0,0,0,0,0,0h5.9v-6.2h-4.3C91.8,151.9,90.8,150.8,90.8,149.6 M150.2,128.6l-7.4,15.5l-8.6-16.3l-8.6,16.3l-7.4-15.5h-11.6
		c2.6,1.5,5.6,4,7.4,7.6c1.8,3.6,11.2,22.6,11.2,22.6l8.9-17l8.9,17l15-30.2H150.2z"/>
	<path class="st1" d="M176.8,95.8c-8.6-4.3-12.3-8.4-12.3-8.4C154.1,25.9,80.2,10.8,47.1,23.7c21,5.4,39.7,13.2,52.5,27.1
		c-17.6-4.5-41.8-5.4-55.9-1.1C61.4,52,88,64.1,104.2,86.9c12.6,17.7,19.5,25.3,33.4,33c8.8-3.4,16.4-11.8,18.8-17.9
		C163.7,102.4,172.5,99.3,176.8,95.8"/>
	<path class="st3" d="M172.2,96c-34.2-6.9-36.3-42.9-92.4-42.9c31.4,17.3,31.8,47.1,58.3,62.4c0,0,3-3.2,5.9-10.1l5,1.2
		c0.9-6.1-0.2-12.3-0.2-12.3C152.1,95.7,162.4,99.2,172.2,96"/>
	<path d="M109.3,53.5c21.3,6.6,37.7,17.8,47.6,27.6c-8-40.2-58-65.2-100.5-57.6C56.4,23.5,89.5,28.2,109.3,53.5"/>
	<path class="st2" d="M132,95.2c-0.7-5.2-4.4-11.1-9.6-15.4c5.7,2,10.5,1,12.8-2.5c0.7,5.2,4.4,11.1,9.6,15.4
		C139.1,90.7,134.2,91.6,132,95.2"/>
	<path class="st1" d="M158.2,166.6c-1.6,0-2.9,0.6-3.7,1.6l-0.4-1.4h-3.9c0.8,0.7,1.5,1.6,1.5,2.9v8.4h2.8v-6.7
		c0.3-1,1.6-2.3,2.9-2.3c1.5,0,2.2,1.4,2.2,3v6.1h2.8v-6.4C162.6,168.2,160.3,166.6,158.2,166.6 M109.4,172.9c0,1.9-0.8,3-2.4,3
		s-2.4-1.2-2.4-3v-6.1h-4.3c0.8,0.7,1.5,1.6,1.5,2.9v3.7h0c0,3.9,3.3,4.9,5.2,4.9c1.9,0,5.2-1,5.2-4.9v-6.6h-2.8V172.9z
		 M130.8,166.9l-2.8,6l-3.3-6.4l-3.3,6.4l-2.8-6h-4.4c1,0.6,2.1,1.5,2.8,2.9c0.7,1.4,4.2,8.8,4.2,8.8l3.4-6.7l3.4,6.7l5.7-11.6
		C133.9,166.9,130.8,166.9,130.8,166.9z M141.9,166.6c-3.5,0-6.2,2.5-6.2,5.9c0,3.5,2.7,5.9,6.2,5.9c3.5,0,6.2-2.5,6.2-5.9
		C148.1,169,145.3,166.6,141.9,166.6 M141.9,176.2c-1.8,0-3.2-1.5-3.2-3.7c0-2.1,1.4-3.7,3.2-3.7c1.8,0,3.2,1.5,3.2,3.7
		C145.1,174.6,143.7,176.2,141.9,176.2 M92.2,176.2c-1.7,0-3.3-1.2-3.4-2.1l-1.4,2.9c0.9,0.8,2.7,1.4,4.9,1.4c3.4,0,5.4-1.5,5.4-3.5
		c0-1.7-1-2.7-3.8-3.4c-2-0.5-3.1-0.7-3.1-1.4c0-0.8,1-1.2,2.2-1.2c1.1,0,2.1,0.3,3,0.9l1.1-2c-0.7-0.6-2.7-1-4-1
		c-3.3,0-5.3,1.6-5.3,3.6c0,1.3,0.9,2.4,3.9,3.2c1.9,0.5,3,0.7,3,1.5C94.7,175.8,93.7,176.2,92.2,176.2"/>
	<path class="st3" d="M140.6,206.5c-0.5-0.5-0.7-1.6-0.4-2.5l0,0l0,0l0,0c-0.4,0.5-1.1,0.8-1.6,0.8c-0.4,0-3,0-3,0
		c-0.4,0-0.8,0.3-0.8,0.8c0,0.4,0.3,0.8,0.8,0.8c0,0,2.3,0,2.6,0c0.4,0,1-0.2,1.3-0.6l0.2-0.4c-0.1,0.3-0.2,0.6-0.3,0.8
		c-0.2,0.7,0,1.1,0.6,1.6c0.6,0.5,1.5,1.3,1.5,1.3h0c0.3,0.3,0.7,0.2,1-0.1s0.2-0.7-0.1-1l0,0C142.3,208,140.9,206.8,140.6,206.5
		 M142.4,202.3c-0.4-0.5-0.5-1.7-0.2-2.6l0,0l0,0l0,0c-0.5,0.5-1.2,0.7-1.7,0.6c-0.4-0.1-3-0.4-3-0.4c-0.4-0.1-0.8,0.2-0.9,0.7
		c-0.1,0.4,0.2,0.8,0.7,0.9l0,0c0,0,2.3,0.3,2.6,0.3c0.4,0,1-0.1,1.3-0.4l0.2-0.4c-0.1,0.3-0.3,0.5-0.4,0.8
		c-0.2,0.7-0.1,1.1,0.4,1.7l1.3,1.4h0c0.3,0.3,0.7,0.3,1,0c0.3-0.3,0.3-0.7,0-1l0,0C143.9,204,142.6,202.6,142.4,202.3 M136.9,217.8
		c-0.2,0.6-0.8,1.2-1.3,1.3c-0.4,0.1-2.8,0.9-2.8,0.9c-0.4,0.2-0.6,0.6-0.5,1c0.1,0.4,0.6,0.6,0.9,0.5c0,0,2.2-0.7,2.5-0.8
		c0.4-0.1,1-0.6,1-1L136.9,217.8L136.9,217.8C136.9,217.8,136.9,217.8,136.9,217.8z M146,200.2c0,0-1.1-1.5-1.3-1.8
		c-0.4-0.6-0.3-1.7,0.1-2.6l0,0l0,0l0,0c-0.5,0.4-1.3,0.5-1.8,0.4c-0.4-0.1-2.9-0.7-2.9-0.7c-0.4-0.1-0.8,0.2-0.9,0.6
		s0.2,0.8,0.6,0.9c0,0,2.2,0.6,2.6,0.6c0.4,0.1,1,0,1.4-0.3l0.2-0.3c-0.2,0.2-0.3,0.5-0.5,0.7c-0.3,0.6-0.2,1.1,0.2,1.7l1.2,1.6
		c0.2,0.3,0.7,0.4,1,0.2C146.1,201,146.2,200.5,146,200.2C146,200.2,146,200.2,146,200.2 M140.4,216.5c0,0-1.7-0.9-2-1
		c-0.6-0.3-1.1-1.4-1-2.4l0,0l0,0v0l0,0c-0.3,0.6-0.9,1.1-1.4,1.2c-0.4,0.1-2.9,0.6-2.9,0.6c-0.4,0.1-0.7,0.5-0.6,0.9
		s0.5,0.7,0.9,0.6c0,0,0,0,0.1,0v0c0,0,2.2-0.5,2.6-0.6c0.4-0.1,0.9-0.5,1.1-0.9l0.1-0.4c0,0.3-0.1,0.6-0.1,0.9
		c0,0.7,0.3,1.1,0.9,1.5l1.7,0.9c0.3,0.2,0.8,0.1,1-0.3S140.8,216.7,140.4,216.5C140.5,216.5,140.4,216.5,140.4,216.5 M139.3,210.9
		c-0.6-0.4-0.9-1.5-0.7-2.5l0,0l0,0l0,0c-0.3,0.6-1,0.9-1.5,1c-0.4,0-3,0.3-3,0.3c-0.4,0.1-0.7,0.5-0.7,0.9c0.1,0.4,0.4,0.7,0.8,0.7
		h0c0,0,2.3-0.2,2.6-0.3c0.4-0.1,1-0.4,1.2-0.7l0.1-0.4c-0.1,0.3-0.1,0.6-0.2,0.9c-0.1,0.7,0.2,1.1,0.8,1.5l1.6,1.1
		c0.3,0.2,0.8,0.1,1-0.2s0.1-0.8-0.2-1l0,0C141.1,212.2,139.6,211.2,139.3,210.9 M109.4,206.5c0.5-0.5,0.7-1.6,0.4-2.5l0,0l0,0l0,0
		c0.4,0.5,1.1,0.8,1.6,0.8c0.4,0,3,0,3,0c0.4,0,0.8,0.3,0.8,0.8c0,0.4-0.3,0.8-0.8,0.8c0,0-2.3,0-2.6,0c-0.4,0-1-0.2-1.3-0.6
		l-0.2-0.4c0.1,0.3,0.2,0.6,0.3,0.8c0.2,0.7,0,1.1-0.6,1.6c-0.6,0.5-1.5,1.3-1.5,1.3h0c-0.3,0.3-0.7,0.2-1-0.1
		c-0.3-0.3-0.2-0.7,0.1-1l0,0C107.7,208,109.1,206.8,109.4,206.5 M107.6,202.3c0.5-0.5,0.5-1.7,0.2-2.6l0,0l0,0v0
		c0.5,0.5,1.2,0.7,1.7,0.6c0.4-0.1,3-0.4,3-0.4c0.4-0.1,0.8,0.2,0.9,0.6s-0.2,0.8-0.6,0.9c0,0,0,0-0.1,0c0,0-2.3,0.3-2.6,0.3
		c-0.4,0-1-0.1-1.3-0.4l-0.2-0.4c0.1,0.3,0.3,0.5,0.4,0.8c0.2,0.7,0.1,1.1-0.4,1.7l-1.3,1.4c-0.3,0.3-0.7,0.3-1,0
		c-0.3-0.3-0.3-0.7,0-1C106.1,204,107.4,202.6,107.6,202.3 M113.1,217.8c0.2,0.6,0.8,1.2,1.3,1.3c0.4,0.1,2.8,0.9,2.8,0.9
		c0.4,0.2,0.6,0.6,0.5,1c-0.1,0.4-0.6,0.6-0.9,0.5c0,0-2.2-0.7-2.5-0.8c-0.4-0.1-1-0.6-1-1L113.1,217.8L113.1,217.8
		C113.1,217.8,113.1,217.8,113.1,217.8z M104,200.2c0,0,1.1-1.5,1.3-1.8c0.4-0.6,0.3-1.7-0.1-2.6l0,0l0,0l0,0
		c0.5,0.4,1.3,0.5,1.8,0.4c1-0.2,1.9-0.5,2.9-0.7c0.4-0.1,0.8,0.2,0.9,0.6c0.1,0.4-0.2,0.8-0.6,0.9l0,0c0,0-2.2,0.6-2.6,0.6
		c-0.4,0.1-1,0-1.4-0.3L106,197c0.2,0.2,0.3,0.5,0.5,0.7c0.3,0.6,0.2,1.1-0.2,1.7l-1.2,1.6c-0.2,0.3-0.7,0.4-1,0.2
		C103.9,200.9,103.8,200.5,104,200.2 M109.6,216.5c0,0,1.7-0.9,2-1c0.6-0.3,1.1-1.4,1-2.4l0,0l0,0v0l0,0c0.3,0.6,0.9,1.1,1.4,1.2
		c0.4,0.1,2.9,0.6,2.9,0.6c0.4,0.1,0.7,0.5,0.6,0.9c-0.1,0.4-0.5,0.7-0.9,0.6c0,0,0,0-0.1,0v0c0,0-2.2-0.5-2.6-0.6
		c-0.4-0.1-0.9-0.5-1.1-0.9l-0.1-0.4c0,0.3,0.1,0.6,0.1,0.9c0,0.7-0.3,1.1-0.9,1.5c-0.7,0.4-1.7,0.9-1.7,0.9c-0.3,0.2-0.8,0.1-1-0.3
		C109.1,217.1,109.2,216.7,109.6,216.5C109.5,216.5,109.6,216.5,109.6,216.5 M110.7,210.9c0.6-0.4,0.9-1.5,0.7-2.5l0,0l0,0l0,0
		c0.3,0.6,1,0.9,1.5,1c0.4,0,3,0.3,3,0.3c0.4,0.1,0.7,0.5,0.7,0.9c-0.1,0.4-0.4,0.7-0.8,0.7h0c0,0-2.3-0.2-2.6-0.3
		c-0.4-0.1-1-0.4-1.2-0.7l-0.1-0.4c0.1,0.3,0.1,0.6,0.2,0.9c0.1,0.7-0.2,1.1-0.8,1.5l-1.6,1.1c-0.3,0.2-0.8,0.1-1-0.2
		c-0.2-0.3-0.1-0.8,0.2-1C108.9,212.2,110.4,211.2,110.7,210.9"/>
</g>
</svg>
