<?xml version="1.0" encoding="utf-8"?>
<!-- Generator: Adobe Illustrator 25.1.0, SVG Export Plug-In . SVG Version: 6.00 Build 0)  -->
<svg version="1.1" id="Layer_1" xmlns="http://www.w3.org/2000/svg" xmlns:xlink="http://www.w3.org/1999/xlink" x="0px" y="0px"
	 viewBox="0 0 250 250" style="enable-background:new 0 0 250 250;" xml:space="preserve">
<style type="text/css">
	.st0{fill:none;}
	.st1{fill:#BEC0C2;}
	.st2{fill:#FFFFFF;}
	.st3{fill:#A1A1A4;}
	.st4{fill:#0066B3;}
</style>
<rect x="8" y="8" class="st0" width="234" height="234"/>
<g>
	<path class="st1" d="M128.9,210.5c-35.6,0.5-66.5-21.1-79.7-52c0.6-0.2,1.1-0.5,1.7-0.9c12.8,30.3,43,51.5,78,51
		c37.8-0.5,69.5-26.1,79.2-60.8c0.6,0.2,1.2,0.4,1.8,0.5C199.9,183.7,167.5,210,128.9,210.5 M42.5,126.3
		c-0.6-47,37.2-85.8,84.2-86.4c46.2-0.6,84.4,35.8,86.4,81.6c-0.6-0.2-1.3-0.2-1.9-0.2c-2.1-44.7-39.3-80-84.4-79.5
		c-46.1,0.6-82.9,38.5-82.3,84.5c0,2,0.1,3.9,0.3,5.8c-0.6,0.1-1.3,0.3-1.9,0.5C42.6,130.5,42.5,128.4,42.5,126.3 M221.5,134.8
		c0-6-3-11-7.1-12.8c-1.7-46.8-40.7-84-87.7-83.4c-47.8,0.7-86.1,40.1-85.5,87.8c0,2.4,0.2,4.7,0.4,7c-3.5,2.2-6,6.8-6,12.2
		c0,7.5,4.7,13.6,10.5,13.6c0.6,0,1.3-0.1,1.9-0.2c13.3,31.5,44.7,53.4,81,53c39.4-0.5,72.3-27.4,82.4-63.5
		C217,148.1,221.5,142.1,221.5,134.8"/>
	<path class="st2" d="M71.8,108.9c9-30.8,41.2-48.4,72-39.4c30.8,9,48.4,41.2,39.4,72c-9,30.8-41.2,48.4-72,39.4
		C80.5,171.9,62.9,139.7,71.8,108.9"/>
	<path class="st1" d="M158.7,85.9l1.7-5.9l1.6-0.7l-5.9-3.1c-0.5-0.3-1-0.1-1.1,0.2l-0.2,0.4c-0.2,0.3,0,0.8,0.5,1l4.6,2.4l-1.6,0.7
		l-1.3,4.5c-0.2,0.5,0.1,1,0.4,1.1l0.4,0.1C158.1,86.7,158.5,86.5,158.7,85.9"/>
	<path class="st1" d="M152.6,88l2.1-5.7l1.6-0.6l-5.7-3.5c-0.5-0.3-1-0.2-1.1,0.1l-0.2,0.3c-0.2,0.3,0,0.8,0.4,1.1l4.4,2.7l-1.6,0.6
		l-1.6,4.4c-0.2,0.5,0,1,0.3,1.1l0.4,0.1C152,88.8,152.4,88.6,152.6,88"/>
	<path class="st1" d="M146.5,89.6l2.5-5.6l1.7-0.5l-5.4-3.9c-0.5-0.4-0.9-0.2-1.1,0l-0.2,0.3c-0.2,0.3-0.1,0.8,0.4,1.1l4.2,3
		l-1.6,0.5l-1.9,4.3c-0.2,0.5-0.1,1,0.2,1.1l0.4,0.2C145.8,90.3,146.3,90.2,146.5,89.6"/>
	<path class="st1" d="M140.3,90.8l2.9-5.4l1.7-0.3l-5.1-4.3c-0.5-0.4-0.9-0.3-1.1-0.1l-0.3,0.3c-0.2,0.3-0.1,0.8,0.3,1.1l4,3.3
		l-1.7,0.3l-2.2,4.1c-0.3,0.5-0.1,1,0.2,1.1l0.4,0.2C139.5,91.5,140,91.4,140.3,90.8"/>
	<path class="st1" d="M133.9,91.5l3.2-5.2l1.7-0.2l-4.8-4.6c-0.4-0.4-0.9-0.4-1.1-0.1l-0.3,0.3c-0.2,0.3-0.2,0.7,0.2,1.1l3.8,3.6
		l-1.7,0.2l-2.4,3.9c-0.3,0.5-0.2,1,0.1,1.1l0.3,0.2C133.2,92.1,133.6,92.1,133.9,91.5"/>
	<path class="st1" d="M127.6,91.8l3.6-4.9l1.7-0.1l-4.5-5c-0.4-0.5-0.9-0.4-1.1-0.2l-0.3,0.3c-0.2,0.2-0.2,0.7,0.1,1.1l3.5,3.9
		l-1.7,0.1l-2.7,3.8c-0.3,0.4-0.3,0.9,0,1.1l0.3,0.2C126.8,92.3,127.3,92.3,127.6,91.8"/>
	<path class="st1" d="M121.3,91.6l3.9-4.6l1.7,0l-4.2-5.3c-0.4-0.5-0.8-0.5-1.1-0.3l-0.3,0.3c-0.3,0.2-0.3,0.7,0.1,1.1l3.2,4.1
		l-1.7,0l-2.9,3.6c-0.4,0.4-0.3,0.9-0.1,1.1l0.3,0.3C120.4,92.1,120.9,92.1,121.3,91.6"/>
	<path class="st1" d="M114.9,91l4.2-4.3l1.7,0.2l-3.8-5.6c-0.3-0.5-0.8-0.6-1-0.4l-0.3,0.2c-0.3,0.2-0.3,0.7,0,1.1l2.9,4.3l-1.7-0.1
		l-3.2,3.3c-0.4,0.4-0.4,0.9-0.2,1.1l0.3,0.3C114.1,91.4,114.5,91.4,114.9,91"/>
	<path class="st1" d="M108.7,89.9l4.5-4l1.7,0.3l-3.4-5.8c-0.3-0.5-0.8-0.6-1-0.5l-0.3,0.2c-0.3,0.2-0.4,0.7-0.1,1.1l2.6,4.5
		l-1.7-0.3l-3.4,3.1c-0.4,0.4-0.5,0.8-0.2,1.1l0.3,0.3C107.8,90.2,108.2,90.3,108.7,89.9"/>
	<path class="st1" d="M102.5,88.3l4.7-3.7l1.7,0.4l-3-6.1c-0.3-0.6-0.7-0.7-1-0.5l-0.4,0.2c-0.3,0.2-0.4,0.6-0.2,1.1l2.3,4.7
		l-1.7-0.4l-3.6,2.8c-0.4,0.3-0.5,0.8-0.3,1.1l0.2,0.3C101.6,88.6,102,88.7,102.5,88.3"/>
	<path class="st1" d="M96.5,86.3l5-3.3l1.7,0.5l-2.6-6.3c-0.2-0.6-0.7-0.7-1-0.6l-0.4,0.2c-0.3,0.1-0.5,0.6-0.3,1.1l2,4.9l-1.6-0.5
		l-3.8,2.6c-0.4,0.3-0.6,0.8-0.4,1.1l0.2,0.3C95.5,86.5,96,86.6,96.5,86.3"/>
	<path class="st1" d="M90.5,83.9l5.2-3l1.6,0.7l-2.1-6.4c-0.2-0.6-0.6-0.8-0.9-0.7l-0.4,0.1c-0.3,0.1-0.5,0.6-0.3,1.1l1.6,5L93.7,80
		l-4,2.3c-0.5,0.3-0.6,0.7-0.5,1l0.2,0.4C89.6,84,90,84.2,90.5,83.9 M93.1,165.7l-0.9,5.6l-1.4,0.9l5.9,2.1c0.5,0.2,0.9,0,1-0.3
		l0.1-0.4c0.1-0.3-0.1-0.7-0.6-0.9l-4.6-1.6l1.4-0.8l0.7-4.3c0.1-0.5-0.2-0.9-0.5-0.9l-0.4-0.1C93.5,164.9,93.2,165.2,93.1,165.7"/>
	<path class="st1" d="M98.5,163l-1.3,5.6l-1.5,0.7l5.8,2.5c0.5,0.2,0.9,0,1-0.2l0.1-0.4c0.1-0.3-0.1-0.7-0.5-0.9l-4.5-1.9l1.4-0.7
		l0.9-4.2c0.1-0.5-0.1-0.9-0.4-1l-0.4-0.1C99,162.3,98.7,162.5,98.5,163"/>
	<path class="st1" d="M104.1,160.7l-1.7,5.4l-1.5,0.6l5.6,2.9c0.5,0.3,0.9,0.1,1.1-0.2l0.2-0.3c0.1-0.3,0-0.7-0.5-1L103,166l1.5-0.6
		l1.3-4.2c0.1-0.5,0-0.9-0.4-1l-0.4-0.1C104.7,160,104.3,160.2,104.1,160.7"/>
	<path class="st1" d="M109.9,158.8l-2,5.3l-1.6,0.5l5.4,3.3c0.5,0.3,0.9,0.2,1.1-0.1l0.2-0.3c0.2-0.3,0-0.7-0.4-1l-4.2-2.5l1.5-0.5
		l1.5-4.1c0.2-0.5,0-0.9-0.3-1l-0.4-0.1C110.5,158.2,110.1,158.3,109.9,158.8"/>
	<path class="st1" d="M115.8,157.3l-2.4,5.2l-1.6,0.4l5.1,3.6c0.5,0.3,0.9,0.2,1.1,0l0.2-0.3c0.2-0.3,0.1-0.7-0.3-1l-4-2.8l1.6-0.4
		l1.8-4c0.2-0.4,0.1-0.9-0.2-1l-0.3-0.2C116.4,156.7,116,156.8,115.8,157.3"/>
	<path class="st1" d="M121.8,156.3l-2.8,5l-1.6,0.3l4.9,4c0.4,0.4,0.9,0.3,1.1,0.1l0.2-0.3c0.2-0.2,0.1-0.7-0.3-1l-3.8-3.1l1.6-0.3
		l2.1-3.8c0.2-0.5,0.1-0.9-0.1-1.1l-0.3-0.2C122.5,155.7,122,155.8,121.8,156.3"/>
	<path class="st1" d="M127.8,155.6l-3.1,4.8l-1.7,0.2l4.6,4.3c0.4,0.4,0.9,0.4,1.1,0.1l0.3-0.3c0.2-0.2,0.2-0.7-0.2-1l-3.6-3.4
		l1.6-0.2l2.4-3.6c0.3-0.4,0.2-0.9-0.1-1.1l-0.3-0.2C128.5,155.1,128.1,155.1,127.8,155.6"/>
	<path class="st1" d="M133.9,155.4l-3.4,4.5l-1.7,0.1l4.3,4.6c0.4,0.4,0.8,0.4,1,0.2l0.3-0.3c0.2-0.2,0.2-0.7-0.1-1l-3.3-3.6
		l1.6-0.1l2.6-3.5c0.3-0.4,0.3-0.9,0-1.1l-0.3-0.2C134.6,154.9,134.2,154.9,133.9,155.4"/>
	<path class="st1" d="M139.9,155.6l-3.7,4.3l-1.7,0l3.9,4.9c0.4,0.4,0.8,0.5,1,0.3l0.3-0.2c0.3-0.2,0.3-0.7,0-1.1l-3-3.8l1.6,0
		l2.8-3.3c0.3-0.4,0.3-0.9,0.1-1.1l-0.3-0.2C140.7,155.1,140.3,155.1,139.9,155.6"/>
	<path class="st1" d="M146,156.2l-4,4l-1.6-0.1l3.6,5.2c0.3,0.5,0.8,0.5,1,0.4l0.3-0.2c0.3-0.2,0.3-0.6,0-1.1l-2.8-4l1.6,0.1
		l3.1-3.1c0.4-0.4,0.4-0.8,0.2-1L147,156C146.8,155.8,146.4,155.8,146,156.2"/>
	<path class="st1" d="M151.9,157.2l-4.3,3.7l-1.6-0.3l3.2,5.4c0.3,0.5,0.7,0.6,1,0.4l0.3-0.2c0.3-0.2,0.4-0.6,0.1-1.1l-2.5-4.2
		l1.6,0.3l3.3-2.9c0.4-0.3,0.4-0.8,0.2-1l-0.2-0.3C152.8,156.9,152.4,156.9,151.9,157.2"/>
	<path class="st1" d="M157.8,158.7l-4.6,3.4l-1.6-0.4l2.8,5.6c0.2,0.5,0.7,0.6,0.9,0.5l0.3-0.2c0.3-0.1,0.4-0.6,0.2-1l-2.2-4.4
		l1.6,0.4l3.5-2.6c0.4-0.3,0.5-0.8,0.3-1l-0.2-0.3C158.7,158.4,158.3,158.4,157.8,158.7"/>
	<path class="st1" d="M163.6,160.6l-4.8,3.1l-1.6-0.5l2.4,5.8c0.2,0.5,0.6,0.7,0.9,0.6l0.3-0.1c0.3-0.1,0.5-0.6,0.3-1l-1.9-4.5
		l1.5,0.5l3.6-2.4c0.4-0.3,0.5-0.7,0.4-1l-0.2-0.3C164.5,160.4,164.1,160.3,163.6,160.6"/>
	<path class="st1" d="M169.2,162.8l-5,2.7l-1.5-0.6l2,6c0.2,0.5,0.6,0.7,0.9,0.6l0.4-0.1c0.3-0.1,0.5-0.5,0.3-1l-1.5-4.6l1.5,0.6
		l3.8-2.1c0.4-0.2,0.6-0.7,0.4-1l-0.2-0.3C170.2,162.7,169.7,162.6,169.2,162.8"/>
	<path class="st3" d="M87.8,86.4c-6,1.1-10.9,6-11.2,11.3c0,0.2,0,0.4,0,0.6c0,2.4,0.9,4.5,2.7,6.1c2.2,1.9,5.3,2.7,8.7,2.1
		c6-1,10.9-6,11.2-11.3c0.2-2.6-0.8-5-2.6-6.7C94.3,86.6,91.2,85.8,87.8,86.4 M30.3,101.5l-2.6,10.3c0,0,2-0.5,3.4-0.9
		c-1.8,7.8-10.8,48.2-10.9,48.4c-0.5,1.5-2.5,2.7-4.2,3.2l-1.5,0.5L10,178.3l5.7-2.4c18.7-7.8,46.7-15.3,46.9-15.3l1.5-0.4l6.5-17.9
		l-7,1.6c-0.9,0.2-1.5,0.6-1.9,1.1c-0.9,1.1-3.7,4-6.4,4.9L43,153.3l-0.1,0c0.1-0.3,14-61.2,14-61.2L30.3,101.5z"/>
	<path class="st3" d="M73,111l-2.5,10c0,0,1.5-0.4,2.9-0.8c-1.6,6.3-5.2,20-5.2,20c-0.4,1.7-0.6,3.3-0.6,4.8c0,3.4,1,6.3,2.8,8.3
		c1.8,1.9,5.2,4.1,11.3,3.2c4.8-0.7,9.3-3,13.3-6.9l2.7-2.7l-8.3-5l-1.6,1.5c-0.1,0.1-0.2,0.2-0.4,0.3c0-0.4,0.1-0.8,0.2-1.3
		c0,0,8.6-35.1,8.6-35.1l1.3-5.3L73,111z"/>
	<path class="st3" d="M125.3,104.6c0.3,0,0.7,0,1.1,0l-7.5,30.3c-0.3,1.1-2,2.1-3.9,2.2c-0.1,0-0.2,0-0.3,0c0.4-1.6,7.8-31,7.8-31.1
		C122.8,105.5,124.2,104.7,125.3,104.6 M127.2,93.2c-14.1,1.7-24.8,10.2-27.8,22l-4.2,17l0-0.1c-1.5,5.4-0.9,9.7,1.7,12.8
		c3,3.5,8.4,4.8,15.8,3.8c14.2-1.9,24.7-9.6,27.5-20.2c0,0,4.8-18.9,4.8-18.9c1.3-5.5,0.7-9.8-2-12.8
		C139.9,93.5,134.6,92.3,127.2,93.2 M185.5,81.1c-2.9,0.5-6.3,1.7-9.4,3.2c0.3-1.1,0.6-2.2,0.6-2.2l-24.7,9.2l-2.4,9.9l2.9-0.9
		l-9.9,40.4l20.9-5.1l8.5-35c0.5-2.1,1.5-3.4,3.3-4.1l-5,21.1c0,0-0.3,1.1-0.3,1.1c-1.1,4.3-2.6,10.1,0.6,13.7
		c1.8,2,4.5,2.8,8.2,2.3c6.5-0.9,12.1-4.3,16.9-10l2.1-2.6c0,0-7.1-4.5-7.8-4.9c1.6-6.6,5.5-22.9,5.5-22.9c0.4-1.6,0.6-3.1,0.6-4.5
		c0-2.6-0.7-4.7-2.2-6.3C191.8,81.4,188.8,80.5,185.5,81.1 M26,189.4l-1.3-3.7l4.4-2c23.5-10,55.9-21.3,88.9-30.9
		c33.9-9.9,63.9-16.7,82.5-18.7l3.3-0.4l-0.2,9.4l-2.3,0.5c-16,3.1-72.8,16.2-129.4,54.3l-1.6,1.1l-1.6-1
		c-12.3-7.7-29.4-8.7-38.5-8.7C28.9,189.2,26,189.4,26,189.4"/>
	<path class="st3" d="M216.4,75.6c-12,2.5-18.7,11.1-18.4,23.5c0.2,7.5,4.8,13.6,9.3,19.5c3.8,5.1,7.5,9.9,7.6,14.8
		c0.2,9-3.7,10.3-5.1,10.6c-2.3,0.5-4-0.9-4.5-1.5c4-1.9,8.1-5.5,8.1-10.6c0-0.3,0-0.7-0.1-1c-0.3-3.3-1.9-5.1-3.2-6.1
		c-2.9-2.1-6.2-1.6-7.2-1.4c-7,1.5-11.5,8.4-10.2,15.8c2.1,12,13.4,15.7,22.9,14.1c6.9-1.2,12.6-4.7,16.2-9.8
		c3.5-5.1,4.7-11.4,3.4-18.3c-1.3-7.1-5.1-12.8-8.8-18.2c-3.8-5.7-7.5-11-7.7-17.4c-0.1-2,0.5-3.6,1.1-4.2c0.2-0.2,0.4-0.2,0.5-0.2
		c0.2,0,0.7,0.1,1.3,0.9c1.2,1.9,1.4,5.8,0.4,8.7l-0.3,1l1.8,5l16.9-7.9l-0.2-2.1c-0.6-5-3.1-9.4-7-12.3
		C228.5,75.3,222.6,74.3,216.4,75.6"/>
	<path class="st2" d="M88.2,88.5c-5,0.9-9.2,5.1-9.5,9.4c0,0.2,0,0.3,0,0.5c0,1.8,0.7,3.4,2,4.5c1.7,1.5,4.2,2.1,6.9,1.6
		c5-0.9,9.2-5.1,9.5-9.4c0.1-2-0.6-3.7-1.9-5C93.4,88.6,90.9,88,88.2,88.5 M32.1,103.1l-1.5,5.7c0,0,2.4-0.6,3.3-0.9
		c-0.6,2.5-11.6,51.9-11.6,51.9c-0.8,2.9-4.2,4.2-5.6,4.6l-0.4,0.1l-3,10l1.6-0.7c18.8-7.8,46.9-15.3,47.2-15.4l0.4-0.1l4.8-13.2
		l-2.5,0.6c-1.1,0.3-1.5,0.4-1.6,0.7c-0.7,0.8-3.8,4.3-7.2,5.4l-12.4,3.4c-1.2,0.3-2.2,0.3-2.5-0.1c-0.3-0.4-0.4-1.1-0.1-2.2
		c0,0,13.2-57.6,13.2-57.6L32.1,103.1z M74.7,112.6l-1.4,5.4c0,0,2.2-0.6,3-0.8c-0.6,2.4-6.1,23.5-6.1,23.5c-0.4,1.5-0.6,3-0.6,4.3
		c0,2.8,0.8,5.2,2.3,6.9c1.4,1.6,4.2,3.3,9.5,2.6c4.3-0.6,8.4-2.7,12.1-6.3l0.8-0.7l-4.6-2.8l-0.5,0.4c-1,0.9-2,1.5-2.9,1.6
		c-0.4,0.1-0.6-0.1-0.7-0.2c-0.4-0.4-0.6-1.8,0-4.4l8.9-36.6L74.7,112.6z M120.5,105.3c0.4-1.4,3-2.6,4.6-2.8
		c1.4-0.2,3.3,0.1,3.7,0.6c0,0,0.1,0.1,0,0.2l-7.9,32.1c-0.5,2-2.9,3.6-5.8,3.8c-0.9,0.1-1.8-0.3-2.3-0.9c-0.2-0.2-0.3-0.5-0.3-0.8
		c0-0.1,0-0.1,0-0.2C112.5,137.3,120.5,105.3,120.5,105.3 M127.4,95.3c-13.3,1.6-23.2,9.5-26,20.5l-4.2,17
		c-1.3,4.7-0.9,8.3,1.3,10.8c2.5,2.9,7.4,4,14,3.1c13.3-1.7,23.2-8.9,25.7-18.6l4.8-18.8c1.2-4.8,0.6-8.4-1.5-10.8
		C138.8,95.5,134.1,94.4,127.4,95.3 M185.8,83.1c-4.1,0.7-9.5,3-13.1,5.5l0.8-3.2l-19.9,7.4l-1.3,5.2c0,0,2.2-0.7,3-0.9l-9.9,40.6
		l16.3-4l8.2-33.7c0.7-3,2.4-4.9,5.3-5.9c1.1-0.4,2-0.2,2.3,0.1c0.1,0.1,0.3,0.3,0.2,0.9l-5.4,22.8c0,0-0.3,1.1-0.3,1.1
		c-1,3.8-2.3,9,0.1,11.8c1.3,1.4,3.4,2,6.3,1.6c5.9-0.8,11.1-3.9,15.6-9.3l0.6-0.7l-4.7-3l-0.4,0.6c-1.1,1.5-2.3,2.2-2.7,2.1
		c0-0.1,0-0.2,0-0.3c0-0.1,0-0.3,0.1-0.5l0,0l6.7-27.8c0.4-1.5,0.5-2.8,0.5-4c0-2.1-0.5-3.7-1.6-4.9
		C190.8,83.3,188.5,82.7,185.8,83.1 M200.8,136.1c-18.5,2-48.4,8.8-82.2,18.6c-32.9,9.6-65.3,20.9-88.7,30.9l-0.9,0.4l0.3,1.2l0.9,0
		c9.4-0.1,26.9,1,39.7,9l0.5,0.3l0.4-0.3c56.9-38.4,114-51.6,130.1-54.7l0.7-0.1l0.1-5.4L200.8,136.1z"/>
	<path class="st2" d="M216.9,77.6c-11,2.3-17,9.9-16.8,21.4c0.1,6.8,4.6,12.6,8.8,18.3c4.1,5.4,7.9,10.5,8,16
		c0.2,7.1-2.1,11.3-6.6,12.5c-1.7,0.4-4,0-5.7-1.2c-1.2-0.8-2-2-2.4-3.2c3.9-1.2,9-4.5,9-9.6c0-0.3,0-0.5,0-0.8
		c-0.2-2-1-3.6-2.4-4.6c-1.7-1.3-4-1.4-5.5-1c-6,1.3-9.7,7-8.6,13.4c1.9,10.6,11.9,13.8,20.5,12.4c6.3-1.1,11.6-4.3,14.8-8.9
		c3.2-4.6,4.3-10.4,3.1-16.7c-1.2-6.7-4.9-12.2-8.5-17.4c-4-5.9-7.8-11.5-8.1-18.5c-0.1-2.4,0.6-4.6,1.8-5.8
		c0.6-0.6,1.4-0.9,2.2-0.8c1.2,0.1,2.2,0.7,2.9,1.8c1.6,2.5,1.9,7,0.6,10.6l-0.1,0.3l0.8,2.1l13.4-6.3l-0.1-0.6
		c-0.5-4.4-2.7-8.2-6.2-10.8C227.8,77.4,222.5,76.4,216.9,77.6"/>
	<path class="st4" d="M96.2,95c-0.3,4-4.2,7.8-8.8,8.6c-4.6,0.8-8.1-1.7-7.9-5.7c0.3-4,4.2-7.8,8.8-8.7C92.9,88.5,96.5,91,96.2,95
		 M63.9,146.8l2-0.5l-4.1,11.4c0,0-28.2,7.5-47.3,15.4l2.4-7.9c2.6-0.8,5.4-2.5,6.1-5.2L35,106.7l-3.3,0.9l1-3.9l20.1-7.1L40,152.8
		c-0.8,2.9,0.5,4.1,3.7,3.3l12.5-3.4C60.3,151.3,63.9,146.8,63.9,146.8 M89.8,145.7c-1.1,1-2.2,1.7-3.4,1.8
		c-2.1,0.3-2.4-2.4-1.6-5.6l8.6-35.1l-17.9,6.4l-0.9,3.6l3-0.8L71,140.9c-1.7,7.1,0.6,14.1,10.3,12.8c4.4-0.6,8.3-2.8,11.6-6.1
		L89.8,145.7z M142.1,109c2.6-10.7-3.9-14.2-14.6-12.9c-12.4,1.5-22.5,8.7-25.3,19.8L98,133c-2.9,10.7,3.6,14.3,14.4,12.9
		c12.3-1.6,22.4-8.1,25-18L142.1,109z M115.2,140c-1.8,0.1-3.9-1.1-3.5-2.8l8-32.1c0.5-1.9,3.5-3.2,5.3-3.5c1.6-0.2,5.1,0,4.7,1.8
		l-7.9,32.1C121.1,138.2,118.2,139.8,115.2,140 M154.3,93.5l-0.8,3.4l3-0.9l-9.9,40.7l14.5-3.5l8-33.2c0.8-3.6,3-5.5,5.8-6.5
		c2.2-0.7,4,0.1,3.6,2l-5.4,22.8c-1.2,5-4.5,14.8,5.2,13.5c7.3-1,12.1-5.4,15-9l-3.3-2.1c-1.2,1.7-2.7,2.7-3.7,2.4
		c-0.6-0.2-0.7-1-0.4-1.8l6.6-27.8c2.1-8.4-2.6-10.2-6.6-9.6c-5,0.8-11.5,4-14.6,6.8l1-4L154.3,93.5z"/>
	<path class="st4" d="M215.7,89.8c-0.2-4.1,1.7-7.7,4.8-7.5c4.9,0.3,6.1,8.2,4.2,13.5l0.3,1l12.1-5.6c-1-9.1-9.5-15-20.2-12.8
		c-11.5,2.4-16.3,10.5-16.1,20.6c0.3,12.8,16.6,22.5,16.9,34.3c0.2,8.8-3.3,12.3-7.3,13.3c-3.5,0.9-8.7-1.4-9.3-5.8
		c4.1-1,9.7-4.5,9.1-9.7c-0.5-5.1-5-5.3-6.9-4.9c-5,1-8.5,5.6-8.1,11.3c-41.2,5.7-119.1,29.1-165.1,48.7c12.9-0.1,28.7,2,40.1,9.1
		c45.7-30.8,94.5-47.2,125.9-53.9c2.8,7.6,11,10.2,18.7,8.9c11.7-2,19.7-11.2,17.3-24.6C229.8,111.9,216.3,103.4,215.7,89.8
		 M88,75.7c-2.9,2.3-4.8,1-6.2-1.1l2.4-1.8c0.8,1.1,1.6,2,2.9,0.9c0.8-0.6,0.8-1.4,0.2-2.2c-1.6-2-6.4,1.5-9-1.9
		c-1.4-1.8-1.6-3.8,1.3-6.1c2.3-1.8,4.2-1.6,5.9,0.9l-2.3,1.8c-0.7-0.8-1.5-1.6-2.4-0.9c-0.8,0.6-0.9,1.4-0.3,2.2
		c1.7,2.1,6.3-1.7,9,1.8C91.7,72.3,89.8,74.3,88,75.7 M93.6,58.3L93.6,58.3l1.5,6.2l2.6-1.3L93.6,58.3z M93.5,71.2l-2.8-14.6
		l3.5-1.8l9.8,11.1l-2.8,1.4l-2.1-2.5l-3.7,1.8l0.7,3.2L93.5,71.2z M106.3,65.1l-3.1-13.9l4.7-1.1l4.3,9l0,0l0.2-10l4.5-1l3.1,13.9
		l-2.8,0.6l-2.4-10.8l0,0l-0.3,11.4l-2.8,0.6l-5-10.2l0,0l2.4,10.8L106.3,65.1z M127.4,62.2c-3.7,0-4.4-2.2-4.2-4.7l3,0
		c0,1.4,0,2.5,1.7,2.5c1,0,1.5-0.6,1.5-1.6c0-2.6-6-2.8-6-7c0-2.2,1.1-4,4.7-4c2.9,0,4.3,1.3,4.1,4.3l-2.9,0c0-1.1-0.2-2.2-1.4-2.2
		c-1,0-1.5,0.5-1.6,1.5c0,2.7,6,2.5,6,7C132.4,61.8,129.7,62.2,127.4,62.2 M147.9,50.2l-2,9.9c-0.4,2.1-2.1,4.1-5.6,3.3
		c-3.2-0.7-4.4-2.7-3.9-5.3l2-9.9l2.9,0.6l-2,9.7c-0.4,1.7,0.2,2.6,1.3,2.8c1.3,0.3,2-0.5,2.4-2l2-9.7L147.9,50.2z M148.4,65.2
		l5.8-13.1l3.7,1.6l-0.5,10.6l0,0l4-9.1l2.6,1.1l-5.8,13.1l-3.6-1.6l0.7-11.1l0,0l-4.2,9.6L148.4,65.2z M172.2,67.2
		c0.8-1.1,1.3-2.1,0-3.1c-1.5-1.1-3,0.9-4.6,3.2c-2.6,3.6-2.7,4.5-1.4,5.5c0.4,0.3,0.9,0.5,1.4,0.7l1.9-2.6l-1.3-1l1.3-1.8l3.7,2.7
		l-4.3,5.9c-0.8-0.4-2.6-1.3-3.5-2c-4.1-3-3.3-5-0.1-9.4c2.1-2.9,4.4-5.8,8.4-2.9c2.4,1.7,2.9,4.1,1,6.4L172.2,67.2z M105,191.7
		l1.4,0.5c0.5,0.1,1.2,0,1.5-0.9c0.2-0.7-0.1-1.5-0.8-1.7l-1.3-0.4L105,191.7z M103.6,196.2l1.2,0.4c0.5,0.1,1.5,0.5,1.9-1
		c0.3-0.9,0.1-1.6-0.9-1.9l-1.2-0.4L103.6,196.2z M101,197.1l3.2-10.2l3.8,1.2c1.6,0.5,2.8,1.4,2.1,3.6c-0.4,1.2-1.2,1.8-2.4,1.7
		l0,0c1.4,0.7,1.5,1.8,1.1,3.2c-0.8,2.6-3.1,2-4,1.7L101,197.1z M115.2,192L115.2,192l-1.9,4.3l2.1,0.4L115.2,192z M109.4,199.7
		l4.8-10l2.9,0.5l0.9,11l-2.3-0.4l-0.2-2.4l-3-0.5l-1,2.2L109.4,199.7z M122.6,201.7c-2.8-0.2-3.2-1.8-3-3.6l2.2,0.1
		c-0.1,1-0.1,1.9,1.2,1.9c0.8,0,1.1-0.4,1.2-1.1c0.1-1.9-4.4-2.3-4.2-5.5c0.1-1.7,1-2.9,3.7-2.8c2.2,0.1,3.2,1.2,2.9,3.4l-2.2-0.1
		c0-0.8,0-1.6-0.9-1.7c-0.7,0-1.2,0.3-1.2,1.1c-0.1,2,4.4,2.1,4.2,5.5C126.3,201.6,124.3,201.8,122.6,201.7 M128.5,201.7l-0.6-10.7
		l5.8-0.3l0.1,1.6l-3.6,0.2l0.1,2.6l3.3-0.2l0.1,1.6l-3.3,0.2l0.2,3.1l3.7-0.2l0.1,1.6L128.5,201.7z M138.4,199.2l1.2-0.2
		c0.5-0.1,1.5-0.3,1.3-1.7c-0.2-0.9-0.6-1.4-1.7-1.3l-1.3,0.2L138.4,199.2z M137.6,194.6l1.5-0.2c0.5-0.1,1.1-0.5,0.9-1.5
		c-0.1-0.8-0.8-1.3-1.5-1.1l-1.4,0.2L137.6,194.6z M136.5,201.2l-1.8-10.5l3.9-0.7c1.7-0.3,3.1,0,3.5,2.2c0.2,1.2-0.2,2.2-1.4,2.6
		l0,0c1.6,0,2.2,0.9,2.4,2.3c0.5,2.7-1.8,3.2-2.8,3.3L136.5,201.2z M146.8,190.2L146.8,190.2l0.3,4.7l2-0.6L146.8,190.2z
		 M145.1,199.7l-0.3-11.1l2.8-0.9l5.9,9.4l-2.2,0.7l-1.3-2.1l-2.9,0.9l0.1,2.4L145.1,199.7z M155.1,196.5l-4.2-9.8l2.1-0.9l3.5,8.2
		l3.1-1.3l0.7,1.6L155.1,196.5z M161.6,193.5l-5.1-9.4l2-1.1l4.3,7.8l2.9-1.6l0.8,1.6L161.6,193.5z M167.7,183.7
		c-1.7-2.2-3.4-4.4-0.5-6.6c1.8-1.4,3.3-1,4.6,0.9l-1.7,1.3c-0.9-1.1-1.4-1.4-1.9-1c-1,0.8-0.4,1.8,1.3,4c1.7,2.2,2.5,3,3.5,2.2
		c0.8-0.6,0-1.7-0.5-2.3l1.7-1.3c1.7,2.3,1.4,3.7-0.3,5C171.1,188.1,169.4,185.9,167.7,183.7 M177.9,182.4l-7.4-7.7l1.6-1.5l6.1,6.4
		l2.4-2.3l1.2,1.3L177.9,182.4z M179.5,165l5.8,4.9c1.2,1,1.9,2.8,0.2,4.9c-1.6,1.9-3.3,2-4.9,0.7l-5.8-4.9l1.4-1.7l5.7,4.8
		c1,0.8,1.8,0.8,2.3,0.1c0.6-0.7,0.4-1.5-0.5-2.3l-5.7-4.8L179.5,165z"/>
	<path class="st4" d="M189,167.1l0.7-1c0.3-0.4,0.8-1.3-0.4-2.1c-0.8-0.5-1.5-0.5-2.1,0.4l-0.7,1.1L189,167.1z M185.1,164.6l0.8-1.3
		c0.3-0.4,0.4-1.2-0.5-1.7c-0.7-0.4-1.4-0.3-1.8,0.3l-0.7,1.2L185.1,164.6z M189.2,169.9l-9-5.8l2.1-3.3c0.9-1.4,2.1-2.3,4-1.1
		c1,0.7,1.4,1.7,1,2.8l0,0c1-1.2,2.1-1,3.4-0.2c2.3,1.5,1.1,3.5,0.6,4.3L189.2,169.9z"/>
</g>
</svg>
