<?xml version="1.0" encoding="utf-8"?>
<!-- Generator: Adobe Illustrator 25.1.0, SVG Export Plug-In . SVG Version: 6.00 Build 0)  -->
<svg version="1.1" xmlns="http://www.w3.org/2000/svg" xmlns:xlink="http://www.w3.org/1999/xlink" x="0px" y="0px"
	 viewBox="0 0 250 250" style="enable-background:new 0 0 250 250;" xml:space="preserve">
<style type="text/css">
	.st0{fill:#26358A;}
	.st1{fill:#FFFFFF;}
	.st2{fill:#ED192F;}
	.st3{fill:none;}
</style>
<g id="Layer_1">
	<g transform="matrix(4.81164 0 0 -4.81164 -1774.917 5987.774)">
		<g>
			<path class="st0" d="M409.1,1213.4c-0.1,0.7-0.3,1.3-0.6,1.9c-0.1,0.3-0.6,1.4-0.7,1.7c-0.3,0.6-0.5,1.3-0.7,1.9l-0.5-0.6
				c-0.3,0.3-0.7,0.3-0.9,0.3c-0.4,0-0.6-0.3-0.6-0.6c0-0.1,0-0.2,0.1-0.3c0.1-0.1,0.2-0.1,0.3-0.1l0.6,0c0.4,0,0.7-0.1,0.9-0.3
				c0.3-0.2,0.4-0.6,0.4-1.2c0-1.1-0.8-2-1.9-2.4c-0.7-0.2-1.3-0.3-1.8,0.3l0.8,1.2c0.2-0.3,0.7-0.3,1.1-0.2
				c0.5,0.1,0.7,0.4,0.7,0.7c0,0.1,0,0.3-0.1,0.3c-0.1,0.1-0.2,0.1-0.3,0.1l-0.6,0c-0.4,0-0.7,0.1-1,0.4c-0.2,0.3-0.3,0.7-0.3,1.3
				c0,1.1,0.5,1.9,1.3,2.1h-19.5v-6.8l-1.2,0.4v2.5l-1.3,0.3v-2.4l-1.2,0.4v3.7c-0.1-0.3-0.2-0.6-0.4-0.9c-0.1-0.3-0.6-1.4-0.7-1.7
				c-0.2-0.6-0.4-1.3-0.6-1.9c-0.3-1.3-0.4-2.8-0.1-4.1c0.3-1.2,0.8-2.3,1.6-3.3c0.5-0.6,1.1-1.1,1.8-1.5c1-0.6,2-1,3.1-1.4
				c0.7-0.2,1.4-0.3,2-0.6c0.6-0.2,1.3-0.5,1.8-0.8c0.6-0.3,1.1-0.7,1.5-1.1c0.6-0.6,1.2-1.2,1.6-2c0.1-0.2,0.2-0.4,0.3-0.6
				c0.2-0.4,0.3-0.8,0.4-1.3c0,0,0,0,0,0c0,0,0,0,0,0c0.1,0.4,0.2,0.9,0.4,1.3c0.1,0.2,0.2,0.4,0.3,0.6c0.4,0.7,1,1.4,1.6,2
				c0.5,0.4,1,0.8,1.5,1.1c0.6,0.3,1.2,0.6,1.8,0.8c0.7,0.2,1.4,0.4,2,0.6c1.1,0.3,2.2,0.8,3.1,1.4c0.7,0.4,1.3,0.9,1.8,1.5
				c0.8,0.9,1.4,2.1,1.6,3.3C409.5,1210.7,409.4,1212.1,409.1,1213.4"/>
		</g>
		<g>
			<path class="st0" d="M407,1219.9h-0.7c0.3,0,0.5-0.1,0.7-0.3C407,1219.7,407,1219.8,407,1219.9"/>
		</g>
		<g>
			<path class="st0" d="M384.7,1217.4v2.5h-1.3v-2.3L384.7,1217.4z"/>
		</g>
		<path class="st1" d="M384.7,1219.9h1.2v0L384.7,1219.9z"/>
		<g>
			<path class="st1" d="M383.5,1213.9v2.4l1.3-0.3v-2.5l1.2-0.4v6.8h-1.2v-2.5l-1.3,0.2v2.3h-0.7c-0.1-0.6-0.2-1.3-0.5-1.9v-3.7
				L383.5,1213.9z"/>
		</g>
		<g>
			<path class="st0" d="M410.4,1209.8c0-0.3-0.1-0.6-0.1-0.9c-0.1-0.6-0.3-1.2-0.6-1.7c-0.3-0.7-0.8-1.4-1.3-2
				c-0.6-0.6-1.2-1.1-1.9-1.5c-0.4-0.2-0.8-0.5-1.3-0.7c-0.3-0.1-0.5-0.2-0.8-0.3c-0.2-0.1-0.3-0.1-0.5-0.2c0,0-0.4-0.1-0.4-0.1
				c-0.3-0.1-0.6-0.2-0.9-0.3c-0.3-0.1-0.6-0.2-0.9-0.3c-0.6-0.2-1.2-0.4-1.8-0.7c-0.1,0-0.2-0.1-0.3-0.1c-0.3-0.1-0.6-0.3-0.8-0.5
				c-0.3-0.2-0.7-0.4-1-0.7c-0.5-0.4-0.9-0.8-1.3-1.3c-0.3-0.4-0.6-0.8-0.8-1.2c-0.2-0.3-0.3-0.6-0.4-0.9c-0.1-0.3-0.2-0.6-0.3-0.9
				c0,0,0,0,0,0c0,0,0,0,0,0c-0.1,0.3-0.2,0.6-0.3,0.9c-0.1,0.3-0.3,0.6-0.4,0.9c-0.2,0.4-0.5,0.8-0.8,1.2c-0.4,0.5-0.9,0.9-1.3,1.3
				c-0.3,0.2-0.6,0.5-1,0.7c-0.3,0.2-0.6,0.3-0.8,0.5c-0.1,0-0.2,0.1-0.3,0.1c-0.6,0.3-1.2,0.5-1.8,0.7c-0.3,0.1-0.6,0.2-0.9,0.3
				c-0.3,0.1-0.6,0.2-0.9,0.3c0,0-0.4,0.1-0.4,0.1c-0.2,0.1-0.3,0.1-0.5,0.2c-0.5,0.2-1.1,0.4-1.6,0.7c-0.2,0.1-0.3,0.2-0.5,0.3
				c-0.7,0.4-1.3,0.9-1.9,1.5c-0.2,0.2-0.3,0.3-0.4,0.5c-0.4,0.5-0.7,0.9-0.9,1.5c-0.3,0.5-0.5,1.1-0.6,1.7
				c-0.1,0.3-0.1,0.6-0.1,0.9c-0.1,0.8-0.1,1.6,0.1,2.5c0.1,1,0.4,2,0.8,3c0.1,0.3,0.2,0.6,0.3,0.8c0.4,0.9,0.8,1.8,1.1,2.7
				c0.2,0.7,0.3,1.5,0.3,2.3c0,0.6,0,1.3-0.2,1.9c0,0.2-0.1,0.4-0.1,0.5c-0.4,1.8-1.3,3.5-2.3,4.7c-0.3,0.3-0.5,0.7-0.8,1
				c0,0,0.5,0.6,1.3,1.6h0c0,0,0.3,0.4,0.6,0.8c0.3,0.4,1.2,1.9,1.2,1.9l0,0c1-0.3,5.7-2.7,13.1-2.7h0.3c7.4,0,12.1,2.4,13.1,2.7
				l0,0c0,0,0.9-1.5,1.2-1.9c0.3-0.4,0.6-0.8,0.6-0.8h0c0.8-1,1.3-1.6,1.3-1.6c-0.3-0.3-0.6-0.6-0.8-1c-1-1.2-1.8-2.9-2.3-4.7
				c0-0.2-0.1-0.3-0.1-0.5c-0.1-0.6-0.2-1.3-0.2-1.9c0-0.8,0.1-1.5,0.3-2.3c0.3-0.9,0.7-1.8,1.1-2.7c0.1-0.3,0.2-0.5,0.3-0.8
				c0.3-1,0.6-2,0.8-3C410.5,1211.4,410.5,1210.6,410.4,1209.8 M411,1217.9c-0.7,1.3-1,2.5-1.1,3.6c-0.1,0.7-0.1,1.4,0,2
				c0,0.4,0.1,0.8,0.2,1.2c0.1,0.6,0.4,1.1,0.7,1.7c0.6,1.1,1.4,2.1,2.3,3c0.2,0.2,0.3,0.4,0.5,0.5c-0.1,0-0.1,0.1-0.2,0.1
				c-0.4,0.3-0.8,0.6-1.2,1c-0.2,0.2-0.4,0.4-0.7,0.6c-0.8,0.8-1.4,1.6-2,2.5c-0.4,0.6-0.7,1.2-0.9,1.7c-0.1,0.1-0.1,0.3-0.1,0.4
				c-0.5-0.3-1.1-0.5-1.7-0.7c-0.5-0.1-0.9-0.3-1.4-0.4c0.1,0.1,0.3,0.2,0.4,0.4c0.9,0.9,1,1.6,0.6,2.1c-0.1,0.2-0.2,0.2-0.4,0.1
				c-0.9-1-2.4-2-3.6-2.6c1.4,1.1,2.9,2.3,3.5,3.8c0.5,1.1,0.3,1.9-0.5,2.5c-0.2,0.2-0.4,0.2-0.4,0c-0.8-2.1-2.7-4.6-4.9-6.1
				c-0.2-0.1-0.3-0.2-0.5-0.3c0,0,0,0,0.1,0c-0.8,0.1-1.7,0.3-2.5,0.6c-0.6,0.2-1.3,0.5-1.9,0.8c-0.1,0.1-0.2,0.1-0.3,0.2l0,0l0,0
				c-0.1-0.1-0.2-0.1-0.3-0.2c-0.6-0.3-1.2-0.6-1.9-0.8c-0.8-0.3-1.6-0.4-2.5-0.6c0,0,0,0,0.1,0c-0.2,0.1-0.4,0.2-0.5,0.3
				c-2.2,1.6-4.1,4.1-4.9,6.1c-0.1,0.2-0.2,0.1-0.4,0c-0.8-0.6-1-1.5-0.5-2.5c0.6-1.4,2.1-2.7,3.5-3.8c-1.2,0.5-2.7,1.6-3.6,2.6
				c-0.1,0.1-0.2,0.1-0.4-0.1c-0.4-0.5-0.3-1.2,0.6-2.1c0.1-0.1,0.3-0.2,0.4-0.4c-0.5,0.1-0.9,0.2-1.4,0.4c-0.6,0.2-1.1,0.4-1.7,0.7
				c0-0.1-0.1-0.3-0.1-0.4c-0.2-0.5-0.5-1.1-0.9-1.7c-0.6-0.9-1.3-1.7-2-2.5c-0.2-0.2-0.4-0.4-0.7-0.6c-0.4-0.4-0.8-0.7-1.2-1
				c-0.1,0-0.1-0.1-0.2-0.1c0.2-0.2,0.3-0.3,0.5-0.5c0.9-0.9,1.6-1.9,2.3-3c0.3-0.5,0.6-1.1,0.7-1.7c0.1-0.4,0.2-0.8,0.2-1.2
				c0.1-0.7,0.1-1.4,0-2c-0.1-1.1-0.5-2.2-1.1-3.6c-1.2-2.4-1.8-4.6-2.1-6.5c-0.1-1.2-0.1-2.4,0.1-3.5c0.2-1.3,0.7-2.5,1.4-3.5
				c0.2-0.3,0.5-0.7,0.8-1c0.3-0.3,0.6-0.6,0.9-0.9c0.3-0.3,0.7-0.5,1-0.8c0.4-0.2,0.8-0.5,1.2-0.7c0.4-0.2,0.8-0.4,1.3-0.6
				c0.7-0.3,1.4-0.5,2.1-0.7c0.2-0.1,0.4-0.1,0.6-0.2c0.5-0.1,1-0.2,1.4-0.4c0.4-0.1,0.7-0.2,1.1-0.3c0.4-0.1,0.7-0.3,1.1-0.4
				c0.5-0.2,1.1-0.5,1.6-0.7c0.5-0.3,1.1-0.6,1.5-1c0.1-0.1,0.3-0.2,0.4-0.3c0.2-0.2,0.4-0.3,0.6-0.5c0.3-0.3,0.5-0.6,0.8-0.9
				c0.1-0.1,0.1-0.2,0.2-0.3c0.1-0.2,0.2-0.3,0.2-0.5l0,0l0,0c0,0,0,0,0,0c0,0,0,0,0,0c0,0,0,0,0,0c0,0,0,0,0,0l0,0l0,0
				c0.1,0.2,0.1,0.3,0.2,0.5c0.1,0.1,0.1,0.2,0.2,0.3c0.2,0.3,0.5,0.7,0.8,0.9c0.2,0.2,0.4,0.4,0.6,0.5c0.1,0.1,0.3,0.2,0.4,0.3
				c0.5,0.4,1,0.7,1.5,1c0.5,0.3,1,0.5,1.6,0.7c0.3,0.1,0.7,0.3,1.1,0.4c0.4,0.1,0.7,0.2,1.1,0.3c0.5,0.1,1,0.3,1.4,0.4
				c0.2,0.1,0.4,0.1,0.6,0.2c0.7,0.2,1.4,0.4,2.1,0.7c0.4,0.2,0.9,0.4,1.3,0.6c0.4,0.2,0.8,0.4,1.2,0.7c0.4,0.2,0.7,0.5,1,0.8
				c0.3,0.3,0.6,0.6,0.9,0.9c0.3,0.3,0.5,0.6,0.8,1c0.7,1,1.2,2.2,1.4,3.5c0.2,1.1,0.2,2.2,0.1,3.5
				C412.9,1213.3,412.2,1215.5,411,1217.9"/>
		</g>
		<g>
			<path class="st1" d="M394.7,1227.8c4.1-0.1,7.5,3.2,7.6,7.3c0.1,4.1-3.2,7.5-7.3,7.6c-4.1,0.1-7.5-3.2-7.6-7.3
				C387.3,1231.3,390.6,1227.9,394.7,1227.8"/>
		</g>
		<g>
			<path class="st2" d="M397.4,1240.1c-0.6-0.1-1.3-0.2-1.9-0.4c-1.2-0.4-2.2-1.1-3.3-2c0,0,0,0,0,0c0.7-0.7,1.5-1.2,2.5-1.6
				l0.1,0.2c0.2,0.2,0.3,0.4,0.5,0.5c0.7,0.7,1.5,1.2,2.4,1.5c0.8,0.3,1.6,0.5,2.5,0.5l0.1,0c-0.3,0.4-0.6,0.8-0.9,1.2
				C398.8,1240.2,398.1,1240.2,397.4,1240.1"/>
		</g>
		<g>
			<path class="st2" d="M393.2,1239.7c1.3,0.8,2.7,1.3,4.1,1.5c0.2,0,0.5,0,0.7,0c-2.4,1.3-5.4,0.9-7.4-0.9c0.2-0.7,0.6-1.3,1-1.8
				C392,1238.9,392.6,1239.3,393.2,1239.7"/>
		</g>
		<g>
			<path class="st2" d="M390.8,1233.9c0.7-0.6,1.6-1.1,2.5-1.5c0.4-0.2,0.8-0.3,1.2-0.4c0.1,0.5,0.2,1.1,0.1,1.6
				c0,0.5-0.1,1-0.2,1.5c-1,0.3-1.8,0.8-2.6,1.5c-0.9,0.8-1.7,1.8-2.2,2.9c-0.6-0.7-1-1.6-1.2-2.5
				C389,1235.8,389.8,1234.8,390.8,1233.9"/>
		</g>
		<g>
			<path class="st2" d="M410.1,1229.1c0,0-0.8,1-1.2,1.7c-0.5,0.7-1,1.5-1,1.5c-2.9-0.6-5.5-0.9-8.3-1.1c0.1,0.1,0.2,0.3,0.3,0.4
				c1.4,1.8,1.7,4.1,1,6.2c-0.8,0.1-1.6,0-2.4-0.2c0.3-0.9,0.5-1.7,0.6-2.6c0.1-0.7,0.1-1.3,0.1-2c0-0.6-0.1-1.2-0.3-1.8
				c-0.3,0-0.7,0-1,0c0.3,1.1,0.4,2.3,0.3,3.5c-0.1,0.9-0.3,1.7-0.5,2.6c-0.4-0.2-0.7-0.4-1-0.6c-0.4-0.3-0.8-0.7-1.1-1.1l0,0l0,0
				c0.1-0.4,0.2-0.8,0.3-1.3c0-0.4,0.1-0.9,0-1.3c0-0.6-0.2-1.3-0.4-1.9c-0.2,0-0.3,0-0.5,0h0c-0.2,0-0.4,0-0.6,0
				c-1.6,0.5-2.9,1.2-4.1,2.1c-0.7,0.5-1.3,1.2-1.7,1.9c0.1-1.5,0.7-2.8,1.7-3.9c-2.8,0.1-5.4,0.5-8.3,1.1c0,0-0.5-0.8-1-1.5
				c-0.5-0.7-1.2-1.7-1.2-1.7c2.1-2.5,3.4-6.1,3.1-9.2H407C406.7,1223,408,1226.6,410.1,1229.1"/>
		</g>
		<g>
			<path class="st1" d="M382.7,1211.6l-0.2,0.5l-0.1-0.1v-0.3l-0.1,0.1v0.9l0.1-0.1v-0.4l0.3,0.3l0.2-0.1l-0.3-0.3l0.3-0.7
				L382.7,1211.6z"/>
		</g>
		<g>
			<path class="st1" d="M383.4,1211.4c-0.1,0-0.1,0-0.2,0c-0.1,0-0.2,0.1-0.2,0.2c-0.1,0.1-0.1,0.2-0.1,0.4c0,0.2,0,0.3,0.1,0.3
				c0.1,0,0.1,0.1,0.2,0c0.1,0,0.2-0.1,0.2-0.2c0.1-0.1,0.1-0.2,0.1-0.4C383.5,1211.6,383.5,1211.5,383.4,1211.4 M383.3,1212.1
				C383.3,1212.1,383.3,1212.2,383.3,1212.1c-0.1,0.1-0.2,0.1-0.2,0.1c0,0,0-0.1,0-0.2c0-0.2,0-0.2,0-0.3c0,0,0.1-0.1,0.1-0.1
				c0,0,0.1,0,0.1,0c0,0,0,0.1,0,0.2C383.4,1212,383.3,1212,383.3,1212.1"/>
		</g>
		<g>
			<path class="st1" d="M384,1211l-0.1,0.4l-0.1,0v-0.4l-0.1,0.1v0.9l0.3-0.1c0.2-0.1,0.2-0.2,0.2-0.4c0-0.1-0.1-0.2-0.1-0.2
				l0.2-0.5L384,1211z M383.9,1211.9l-0.1,0.1v-0.3l0.1-0.1c0.1,0,0.1,0,0.1,0.1S384,1211.9,383.9,1211.9"/>
		</g>
		<g>
			<path class="st1" d="M384.3,1210.9v1l0.5-0.2v-0.2l-0.3,0.1v-0.2l0.3-0.1v-0.2l-0.3,0.1v-0.2l0.3-0.2v-0.2L384.3,1210.9z"/>
		</g>
		<g>
			<path class="st1" d="M385.4,1210.4l0,0.2l-0.3,0.1l0-0.2l-0.2,0.1l0.3,0.9l0.1,0l0.3-1.2L385.4,1210.4z M385.2,1211.2l-0.1-0.3
				l0.2-0.1L385.2,1211.2z"/>
		</g>
		<g>
			<path class="st1" d="M386,1210.2v1.1l0.5-0.2v-0.2l-0.4,0.1v-0.3l0.3-0.1v-0.2l-0.3,0.1v-0.3l0.4-0.2v-0.2L386,1210.2z"/>
		</g>
		<g>
			<path class="st1" d="M387,1209.7l-0.1,0.5l-0.1-0.3l-0.2,0.1l0.2,0.5l-0.2,0.6l0.2-0.1l0.1-0.4l0.1,0.3l0.2-0.1l-0.2-0.5l0.2-0.7
				L387,1209.7z"/>
		</g>
		<g>
			<path class="st1" d="M387.5,1209.9l-0.1,0.1v-0.4l-0.1,0.1v1.1l0.3-0.1c0.2-0.1,0.2-0.3,0.2-0.5
				C387.8,1210,387.7,1209.8,387.5,1209.9 M387.5,1210.4l-0.1,0.1v-0.3l0.1-0.1c0.1,0,0.1,0,0.1,0.1
				C387.6,1210.3,387.6,1210.4,387.5,1210.4"/>
		</g>
		<g>
			<path class="st1" d="M388.3,1209.1l-0.1,0.5l-0.1,0v-0.5l-0.1,0.1v1.2l0.3-0.1c0.2-0.1,0.2-0.3,0.2-0.5c0-0.2-0.1-0.2-0.1-0.3
				l0.2-0.6L388.3,1209.1z M388.2,1210.1l-0.1,0.1v-0.3l0.1-0.1c0.1,0,0.1,0,0.1,0.1C388.3,1210,388.3,1210.1,388.2,1210.1"/>
		</g>
		<g>
			<path class="st1" d="M388.6,1209v1.2l0.5-0.2v-0.2l-0.4,0.1v-0.3l0.3-0.1v-0.2l-0.3,0.1v-0.3l0.4-0.2v-0.2L388.6,1209z"/>
		</g>
		<g>
			<path class="st1" d="M389.5,1208.6c-0.1,0.1-0.2,0.1-0.3,0.3l0.1,0.1c0-0.1,0.1-0.1,0.2-0.2c0.1,0,0.1,0,0.1,0.1c0,0,0,0.1,0,0.1
				c0,0,0,0.1-0.1,0.1l-0.1,0.1c-0.1,0-0.1,0.1-0.1,0.2c0,0.1-0.1,0.2-0.1,0.3c0,0.2,0.1,0.3,0.3,0.3c0.1,0,0.2-0.1,0.2-0.2
				l-0.1-0.1c0,0.1-0.1,0.1-0.2,0.1c-0.1,0-0.1,0-0.1-0.1c0,0,0-0.1,0-0.1c0,0,0-0.1,0.1-0.1l0.1-0.1c0.1,0,0.1-0.1,0.1-0.2
				c0-0.1,0.1-0.2,0.1-0.3C389.7,1208.6,389.6,1208.5,389.5,1208.6"/>
		</g>
		<g>
			<path class="st1" d="M390.1,1208.3c-0.1,0.1-0.2,0.1-0.3,0.3l0.1,0.1c0-0.1,0.1-0.2,0.2-0.2c0.1,0,0.1,0,0.1,0.1c0,0,0,0.1,0,0.1
				c0,0,0,0.1-0.1,0.1l-0.1,0.1c-0.1,0-0.1,0.1-0.1,0.2c0,0.1-0.1,0.2-0.1,0.3c0,0.2,0.1,0.3,0.3,0.3c0.1,0,0.2-0.1,0.2-0.2
				l-0.1-0.1c0,0.1-0.1,0.1-0.2,0.2c-0.1,0-0.1,0-0.1-0.1c0-0.1,0-0.1,0.1-0.2l0.1-0.1c0.1,0,0.1-0.1,0.1-0.2c0-0.1,0.1-0.2,0.1-0.3
				C390.4,1208.3,390.2,1208.2,390.1,1208.3"/>
		</g>
		<g>
			<path class="st1" d="M391.1,1207.8l-0.1,0.1l-0.1,0.9l-0.1-0.7l-0.1,0.1l-0.2,1.4l0.2-0.1l0.1-0.9l0.1,0.8l0.1,0l0.1-0.9l0.1,0.8
				l0.2-0.1L391.1,1207.8z"/>
		</g>
		<g>
			<path class="st1" d="M391.8,1207.5l0,0.3l-0.3,0.1l0-0.2l-0.2,0.1l0.3,1.2l0.1,0l0.3-1.5L391.8,1207.5z M391.7,1208.6l-0.1-0.5
				l0.2-0.1L391.7,1208.6z"/>
		</g>
		<g>
			<path class="st1" d="M392.3,1207.9v-0.6l-0.1,0.1v0.6l-0.2,0.9l0.2-0.1l0.1-0.6l0.1,0.5l0.2-0.1L392.3,1207.9z"/>
		</g>
		<g>
			<path class="st1" d="M393.6,1206.7l-0.1,0.1l-0.1,1l-0.1-0.8l-0.1,0.1l-0.2,1.5l0.2-0.1l0.1-1l0.1,0.9l0.1,0l0.1-1l0.1,0.9
				l0.2-0.1L393.6,1206.7z"/>
		</g>
		<g>
			<path class="st1" d="M394.4,1206.5c-0.1-0.1-0.1-0.1-0.2-0.1c-0.1,0-0.2,0.1-0.2,0.3c-0.1,0.2-0.1,0.4-0.1,0.6
				c0,0.3,0,0.4,0.1,0.6c0.1,0.1,0.1,0.1,0.2,0.1c0.1,0,0.2-0.1,0.2-0.2c0.1-0.2,0.1-0.4,0.1-0.6
				C394.4,1206.8,394.4,1206.6,394.4,1206.5 M394.2,1207.6c0,0.1-0.1,0.1-0.1,0.1c0,0-0.1,0-0.1,0c0-0.1,0-0.1,0-0.4
				c0-0.3,0-0.4,0-0.4c0-0.1,0.1-0.1,0.1-0.1s0.1,0,0.1,0c0,0.1,0,0.1,0,0.4S394.3,1207.5,394.2,1207.6"/>
		</g>
		<g>
			<path class="st1" d="M398.9,1208.3c0-0.1,0.1-0.1,0.2-0.1s0.1,0.1,0.2,0.2c0.1,0.2,0.1,0.3,0.1,0.5c0,0.2,0,0.4-0.1,0.5
				c0,0.1-0.1,0.1-0.2,0.1c-0.1,0-0.1-0.1-0.2-0.2c-0.1-0.2-0.1-0.3-0.1-0.6S398.9,1208.4,398.9,1208.3 M399,1209.2
				c0,0,0,0.1,0.1,0.1c0,0,0.1,0,0.1,0c0,0,0-0.1,0-0.4s0-0.3,0-0.4c0-0.1,0-0.1-0.1-0.1c0,0-0.1,0-0.1,0c0,0,0,0.1,0,0.4
				C399,1209.1,399,1209.1,399,1209.2"/>
		</g>
		<g>
			<path class="st1" d="M395.3,1206.6v0.9l-0.1-0.6l-0.1,0l-0.1,0.5v-0.9l-0.1-0.1v1.5l0.1,0.1l0.2-0.7l0.2,0.9l0.1,0.1v-1.5
				L395.3,1206.6z"/>
		</g>
		<g>
			<path class="st1" d="M395.6,1206.7v1.5l0.5,0.2v-0.3l-0.4-0.1v-0.3l0.3,0.1v-0.3l-0.3-0.1v-0.4l0.4,0.2v-0.3L395.6,1206.7z"/>
		</g>
		<g>
			<path class="st1" d="M396.7,1207.2l-0.3,0.7v-0.9l-0.1-0.1v1.4l0.1,0.1l0.3-0.8v0.9l0.1,0.1v-1.4L396.7,1207.2z"/>
		</g>
		<g>
			<path class="st1" d="M397,1208.7v-0.4l0.1,0.3v0.2L397,1208.7z"/>
		</g>
		<g>
			<path class="st1" d="M397.5,1207.5c-0.1-0.1-0.2,0-0.3,0.1l0.1,0.2c0-0.1,0.1-0.1,0.2,0c0.1,0,0.1,0.1,0.1,0.2c0,0,0,0.1,0,0.1
				c0,0,0,0-0.1,0l-0.1,0c-0.1,0-0.1,0-0.1,0.1c0,0.1-0.1,0.1-0.1,0.3c0,0.2,0.1,0.5,0.3,0.5c0.1,0,0.2,0,0.2-0.1l-0.1-0.2
				c0,0.1-0.1,0.1-0.2,0c-0.1,0-0.1-0.1-0.1-0.2c0,0,0-0.1,0-0.1c0,0,0,0,0.1,0l0.1,0c0.1,0,0.1,0,0.1,0c0-0.1,0.1-0.1,0.1-0.3
				C397.8,1207.8,397.7,1207.6,397.5,1207.5"/>
		</g>
		<g>
			<path class="st1" d="M398.5,1208l-0.1,0l-0.2,1.2l0.2,0.1l0.2-0.8l0.2,0.9l0.2,0.1L398.5,1208z"/>
		</g>
		<g>
			<path class="st1" d="M399.5,1208.4v1.3l0.1,0.1v-1l0.3,0.1v-0.2L399.5,1208.4z"/>
		</g>
		<g>
			<path class="st1" d="M400.1,1208.7v1.2l0.1,0.1v-1l0.3,0.1v-0.2L400.1,1208.7z"/>
		</g>
		<g>
			<path class="st1" d="M400.7,1208.9v1.2l0.5,0.2v-0.2l-0.3-0.1v-0.3l0.3,0.1v-0.2l-0.3-0.1v-0.3l0.3,0.2v-0.2L400.7,1208.9z"/>
		</g>
		<g>
			<path class="st1" d="M401.7,1209.8v-0.5l-0.1-0.1v0.5l-0.2,0.6l0.2,0.1l0.1-0.4l0.1,0.5l0.2,0.1L401.7,1209.8z"/>
		</g>
		<g>
			<path class="st1" d="M402.3,1209.6l-0.3-0.1v1.1l0.3,0.1c0.1,0.1,0.2,0,0.2-0.2c0-0.1,0-0.2-0.1-0.3c0,0,0.1-0.1,0.1-0.2
				C402.5,1209.8,402.4,1209.7,402.3,1209.6 M402.3,1210.6l-0.1-0.1v-0.3l0.1,0.1C402.3,1210.3,402.4,1210.4,402.3,1210.6
				C402.4,1210.5,402.3,1210.6,402.3,1210.6 M402.3,1210.1l-0.2-0.1v-0.3l0.2,0.1C402.3,1209.8,402.4,1209.9,402.3,1210.1
				C402.4,1210.1,402.3,1210.1,402.3,1210.1"/>
		</g>
		<g>
			<path class="st1" d="M403.1,1210l0,0.2l-0.3-0.1l0-0.2l-0.2-0.1l0.3,1.2l0.1,0l0.3-1L403.1,1210z M402.9,1210.7l-0.1-0.4l0.2,0.1
				L402.9,1210.7z"/>
		</g>
		<g>
			<path class="st1" d="M403.3,1210.1v1.1l0.1,0.1v-0.9l0.3,0.1v-0.2L403.3,1210.1z"/>
		</g>
		<g>
			<path class="st1" d="M404,1210.4v1l0.1,0.1v-0.9l0.3,0.1v-0.2L404,1210.4z"/>
		</g>
		<g>
			<path class="st1" d="M405.1,1210.9c-0.1,0-0.2,0-0.2,0c-0.1,0.1-0.1,0.2-0.1,0.4s0,0.3,0.1,0.4c0.1,0.1,0.1,0.2,0.2,0.2
				c0.1,0.1,0.3,0,0.3-0.2l-0.1-0.1c0,0.1-0.1,0.1-0.1,0.1c0,0-0.1,0-0.1-0.1c0-0.1,0-0.1,0-0.3c0-0.2,0-0.2,0-0.3c0,0,0.1,0,0.1,0
				c0.1,0,0.1,0.1,0.1,0.2l0.1,0.1C405.4,1211.1,405.3,1210.9,405.1,1210.9"/>
		</g>
		<g>
			<path class="st1" d="M405.5,1211.1v1l0.1,0.1v-0.8l0.3,0.1v-0.2L405.5,1211.1z"/>
		</g>
		<g>
			<path class="st1" d="M406.4,1211.4c-0.2-0.1-0.3,0-0.3,0.2v0.6l0.1,0.1v-0.6c0-0.1,0.1-0.1,0.1-0.1c0.1,0,0.1,0.1,0.1,0.2v0.6
				l0.1,0.1v-0.6C406.7,1211.7,406.6,1211.5,406.4,1211.4"/>
		</g>
		<g>
			<path class="st1" d="M407.2,1211.8l-0.3-0.1v0.9l0.3,0.1c0.1,0.1,0.2,0,0.2-0.2c0-0.1-0.1-0.2-0.1-0.2c0,0,0.1,0,0.1-0.2
				C407.4,1212,407.3,1211.8,407.2,1211.8 M407.1,1212.5l-0.1-0.1v-0.2l0.1,0.1C407.2,1212.3,407.2,1212.4,407.1,1212.5
				C407.2,1212.5,407.2,1212.5,407.1,1212.5 M407.1,1212.1l-0.2-0.1v-0.2l0.2,0.1C407.2,1211.9,407.2,1212,407.1,1212.1
				C407.2,1212.1,407.2,1212.2,407.1,1212.1"/>
		</g>
		<g>
			<path class="st1" d="M396.4,1222.6c-0.4-0.4-0.9-0.5-1.5-0.5h-5.1c-0.4,0-0.8,0.3-0.9,0.8h-1.3c0.2-1.1,1.2-2,2.3-2h5.1
				c0.7,0,1.7,0.1,2.4,0.9l0.8,0.8l-0.9,0.9L396.4,1222.6z"/>
		</g>
		<g>
			<path class="st1" d="M389.8,1224.8h3.3c0.1,0,0.3-0.2,0.3-0.4c0-0.2-0.2-0.4-0.3-0.4h-4.3c-0.1-0.4-0.1-0.8,0-1.2h4.3
				c0.9,0,1.6,0.7,1.6,1.6s-0.7,1.6-1.6,1.6h-3.3c-1.1,0-2-0.8-2.3-2h1.3C389,1224.5,389.4,1224.8,389.8,1224.8"/>
		</g>
		<g>
			<path class="st1" d="M388.7,1223.4c0,0.2,0,0.4,0.1,0.6h-1.3c-0.1-0.4-0.1-0.8,0-1.2h1.3C388.8,1223.1,388.7,1223.3,388.7,1223.4
				"/>
		</g>
		<g>
			<path class="st1" d="M387.5,1224h-1.5c-0.4,0-0.6-0.3-0.6-0.6c0-0.3,0.3-0.6,0.6-0.6h1.5C387.4,1223.2,387.4,1223.6,387.5,1224"
				/>
		</g>
		<g>
			<path class="st1" d="M399.9,1224.3c0.4,0.4,0.9,0.5,1.5,0.5h0.4c0.4,0,0.6,0.3,0.6,0.6s-0.3,0.6-0.6,0.6h-0.4
				c-0.7,0-1.7-0.1-2.4-0.9l-0.8-0.8l0.9-0.9L399.9,1224.3z"/>
		</g>
		<g>
			<path class="st1" d="M397.3,1225.2c-0.4,0.4-0.8,0.6-1.3,0.7c-0.3,0.1-0.7-0.1-0.8-0.4c-0.1-0.3,0.1-0.6,0.4-0.7
				c0.3-0.1,0.5-0.2,0.7-0.4l1-1l0.9,0.9L397.3,1225.2z"/>
		</g>
		<g>
			<path class="st1" d="M401.9,1222.1h-0.4c-0.6,0-1.1,0.1-1.5,0.5l-0.9,0.9l-0.9-0.9l0.8-0.8c0.8-0.8,1.7-0.9,2.4-0.9h0.4
				c0.4,0,0.6,0.3,0.6,0.6C402.5,1221.8,402.2,1222.1,401.9,1222.1"/>
		</g>
		<g>
			<path class="st1" d="M398.2,1224.3l-0.9-0.9l0.9-0.9l0.9,0.9L398.2,1224.3z"/>
		</g>
		<g>
			<path class="st1" d="M386.7,1212.8v7.1h1.2v-7.5L386.7,1212.8z"/>
		</g>
		<g>
			<path class="st1" d="M388.6,1214.5v1.7l1.7-0.3v-1.8L388.6,1214.5z"/>
		</g>
		<g>
			<path class="st1" d="M393,1214l-0.7,0.2v-3.2l-1.2,0.4v8.6h1.9c1.1,0,1.6-1.5,1.6-3.1C394.7,1215.1,394.1,1213.7,393,1214
				 M393,1217.9l-0.7,0.1v-1.8l0.7-0.1c0.3,0,0.5,0.4,0.5,0.9S393.3,1217.8,393,1217.9"/>
		</g>
		<g>
			<path class="st1" d="M397.9,1211.2l-0.2,1.2l-1.5-0.4l-0.2-1.4l-1.2-0.4l1.7,9.7l0.9,0l1.7-8.2L397.9,1211.2z M397,1216.5
				l-0.4-2.5l0.8,0.2L397,1216.5z"/>
		</g>
		<g>
			<path class="st1" d="M401.4,1212.3c-0.7-0.2-1.3-0.2-1.8,0.5l0.8,1.5c0.2-0.3,0.7-0.4,1.1-0.3c0.5,0.1,0.7,0.4,0.7,0.8
				c0,0.2,0,0.3-0.1,0.4c-0.1,0.1-0.2,0.1-0.3,0.1l-0.6,0c-0.4,0-0.7,0.2-1,0.5c-0.2,0.3-0.3,0.9-0.3,1.6c0,1.5,0.7,2.5,1.8,2.5
				c0.7,0,1.2-0.2,1.6-0.8l-0.7-1.1c-0.3,0.4-0.7,0.4-0.9,0.4c-0.4,0-0.6-0.4-0.6-0.8c0-0.1,0-0.2,0.1-0.3c0.1-0.1,0.2-0.2,0.3-0.2
				l0.6-0.1c0.4,0,0.7-0.2,0.9-0.5c0.3-0.3,0.4-0.8,0.4-1.5C403.3,1213.7,402.4,1212.6,401.4,1212.3"/>
		</g>
		<g>
			<path class="st1" d="M398.8,1228.8l-0.8-0.6l0.3-1l-0.9,0.6l-0.8-0.6l0.3,1l-0.8,0.6h1l0.3,0.9l0.3-0.9H398.8z"/>
		</g>
		<g>
			<path class="st1" d="M393.6,1228.8l-0.8-0.6l0.3-1l-0.8,0.6l-0.8-0.6l0.3,1l-0.8,0.6h1l0.3,0.9l0.3-0.9H393.6z"/>
		</g>
		<g>
			<path class="st1" d="M407.1,1217.2c-0.2,0.2-0.5,0.3-0.9,0.3l-0.6,0c-0.2,0-0.3,0.1-0.3,0.1c-0.1,0.1-0.1,0.2-0.1,0.3
				c0,0.3,0.2,0.6,0.6,0.6c0.2,0,0.6,0.1,0.9-0.3l0.5,0.6c0,0.2-0.1,0.4-0.1,0.6c-0.2,0.2-0.5,0.3-0.7,0.3c-0.2,0-0.4,0-0.5,0
				c-0.1,0-0.3,0-0.4,0c-0.8-0.2-1.3-1-1.3-2.1c0-0.6,0.1-1,0.3-1.3c0.2-0.3,0.5-0.4,1-0.4l0.6,0c0.2,0,0.3,0,0.3-0.1
				c0.1-0.1,0.1-0.2,0.1-0.3c0-0.3-0.2-0.6-0.7-0.7c-0.4-0.1-0.8-0.1-1.1,0.2l-0.8-1.2c0.5-0.5,1.1-0.5,1.8-0.3
				c1,0.3,1.9,1.2,1.9,2.4C407.5,1216.6,407.4,1217,407.1,1217.2"/>
		</g>
	</g>
</g>
<g id="레이어_1">
	<rect x="8" y="8" class="st3" width="234" height="234"/>
</g>
</svg>
