<?xml version="1.0" encoding="utf-8"?>
<!-- Generator: Adobe Illustrator 25.1.0, SVG Export Plug-In . SVG Version: 6.00 Build 0)  -->
<svg version="1.1" xmlns="http://www.w3.org/2000/svg" xmlns:xlink="http://www.w3.org/1999/xlink" x="0px" y="0px"
	 viewBox="0 0 250 250" style="enable-background:new 0 0 250 250;" xml:space="preserve">
<style type="text/css">
	.st0{fill-rule:evenodd;clip-rule:evenodd;fill:#020315;fill-opacity:0;}
	.st1{opacity:0.58;clip-path:url(#SVGID_2_);}
	.st2{fill-rule:evenodd;clip-rule:evenodd;fill:url(#SVGID_3_);}
	.st3{fill-rule:evenodd;clip-rule:evenodd;fill:url(#SVGID_4_);}
	.st4{fill:#9E9E9F;}
	.st5{fill:#CA1529;}
	.st6{fill:#FFFFFF;}
	.st7{fill:none;}
</style>
<g id="Layer_1">
	<g>
		<path class="st0" d="M22.5,8h204.9v234H22.5V8z"/>
		<g>
			<defs>
				<rect id="SVGID_1_" x="24.4" y="10.2" width="199.6" height="228.3"/>
			</defs>
			<clipPath id="SVGID_2_">
				<use xlink:href="#SVGID_1_"  style="overflow:visible;"/>
			</clipPath>
			<g transform="matrix(.41901 0 0 -.41901 -370.667 1028.73)" class="st1">
				
					<linearGradient id="SVGID_3_" gradientUnits="userSpaceOnUse" x1="885.7747" y1="1856.0437" x2="886.1326" y2="1856.0437" gradientTransform="matrix(322.1689 -264.7833 -264.7833 -322.1689 207267.4219 834722.8125)">
					<stop  offset="0" style="stop-color:#FFFFFF"/>
					<stop  offset="1" style="stop-color:#231916"/>
				</linearGradient>
				<path class="st2" d="M959.7,2404l-16.8-3.7l0.2-17.2c0.1-5.7,1.7-138.6,5.2-170.8c1.9-16.9,4.5-33.4,8.1-50.4
					c27.1-127.6,104-224.4,216.4-272.4l8.3-3.6l8.3,3.6c112.4,48.2,189.3,144.9,216.3,272.4c3.6,17,6.3,33.5,8.1,50.4
					c3.5,32.3,5.2,165.2,5.2,170.9l0.2,17.2l-16.8,3.7c-5.1,1.1-125,26.9-222.1,26.9C1083.4,2430.9,964.7,2405.1,959.7,2404"/>
			</g>
		</g>
		
			<linearGradient id="SVGID_4_" gradientUnits="userSpaceOnUse" x1="0.4814" y1="251.0291" x2="0.8393" y2="251.0291" gradientTransform="matrix(322.1689 264.7833 264.7833 -322.1689 -66496.6484 80842.8125)">
			<stop  offset="0" style="stop-color:#FFFFFF"/>
			<stop  offset="1" style="stop-color:#231916"/>
		</linearGradient>
		<path class="st3" d="M31.5,21.4l-7,1.5l0.1,7.2c0,2.4,0.7,58.1,2.2,71.6c0.8,7.1,1.9,14,3.4,21.1c11.4,53.5,43.6,94,90.7,114.2
			l3.5,1.5l3.5-1.5c47.1-20.2,79.3-60.7,90.6-114.1c1.5-7.1,2.6-14,3.4-21.1c1.4-13.5,2.2-69.2,2.2-71.6L224,23l-7-1.5
			c-2.1-0.4-52.4-11.3-93.1-11.3C83.3,10.2,33.6,21,31.5,21.4"/>
		<path class="st4" d="M32.6,26.4l-3,0.6l0,3c0,2.4,0.7,57.8,2.2,71.1c0.8,6.9,1.8,13.7,3.3,20.6c14.9,69.9,61.3,99.2,87.7,110.5
			l1.5,0.6l1.5-0.6c45.5-19.5,76.7-58.7,87.7-110.5c1.5-6.9,2.6-13.7,3.3-20.6c1.4-13.3,2.1-68.7,2.2-71.1l0-3l-3-0.6
			c-0.5-0.1-51.9-11.1-92-11.1C83.8,15.3,33.1,26.3,32.6,26.4"/>
		<path class="st5" d="M124.2,18.3c0,0-7.2-1.3-27.2,1c-11.3,1.3-17.9,2.1-36.4,4.8c-21.9,3.2-27.3,6-27.3,6s0.7,45.6,2.1,58.9
			c0.8,7.1-0.2,6.6,1.1,13h87.6V18.3z"/>
		<path class="st6" d="M124.2,101.3h88.1c1.4-6.4-0.1-5.8,0.6-13c1.4-13.3,2.1-58.9,2.1-58.9s0.7-2.6-45.3-7.7
			c-45.9-5-45.6-3.1-45.6-3.1V101.3z"/>
		<path class="st5" d="M124.2,101.9v127c11.4-4.9,81-36.8,87.6-127H124.2z"/>
		<path class="st6" d="M124.2,101.9h-88c5.3,86.6,76.5,122.1,88,127V101.9z"/>
		<path class="st6" d="M67.1,45.1h0.4c4.7,0,8.5,3.8,8.5,8.5v19.3c0,4.7-3.8,8.5-8.5,8.5h-0.4v5.5h29.7v-5.5h-0.4
			c-4.7,0-8.5-3.8-8.5-8.5V53.6c0-4.7,3.8-8.5,8.5-8.5h0.4v-5.5H67.1V45.1z"/>
		<path class="st4" d="M211.8,101.9c-1.4,11.3-1.4,11.3-2.9,18.1c-10.7,50.2-40.7,88.2-84.7,107.1c-25.6-11-70.3-39.5-84.7-107.1
			c-1.4-6.8-2.5-13.4-3.2-20.2c-1.3-12.3-2-63.9-2.1-70c5.9-1.2,49.9-10.9,89.8-10.9c37.3,0,84.5,9.7,90.4,10.9 M33.2,28.4l-0.6,0.1
			l0,0.6c0,0.6,0.7,57.7,2.1,70.8c0.8,6.8,1.8,13.5,3.3,20.3c14.6,68.6,60.1,97.4,86,108.4l0.3,0.1l0.3-0.1
			c44.6-19.1,75.2-57.6,86-108.4c1.5-6.8,2.5-13.5,3.3-20.3c1.4-13.1,2.1-70.3,2.2-70.8l0-0.6l-0.6-0.1
			c-0.5-0.1-51.5-11.1-91.4-11.1C84.1,17.3,33.7,28.3,33.2,28.4"/>
	</g>
</g>
<g id="레이어_1">
	<rect x="8" y="8" class="st7" width="234" height="234"/>
</g>
</svg>
