<?xml version="1.0" encoding="utf-8"?>
<!-- Generator: Adobe Illustrator 25.1.0, SVG Export Plug-In . SVG Version: 6.00 Build 0)  -->
<svg version="1.1" xmlns="http://www.w3.org/2000/svg" xmlns:xlink="http://www.w3.org/1999/xlink" x="0px" y="0px"
	 viewBox="0 0 250 250" style="enable-background:new 0 0 250 250;" xml:space="preserve">
<style type="text/css">
	.st0{fill:#FFFFFF;}
	.st1{fill:#5FB4E5;}
	.st2{fill:#231916;}
	.st3{fill:none;}
</style>
<g id="Layer_1">
	<g transform="matrix(2.66683 0 0 -2.66683 -86.135 534.425)">
		<path class="st0" d="M109.8,150.2V193c0,0-12,4.4-30.6,4.4c-18.6,0-30.6-4.4-30.6-4.4v-42.8c0-8.2-0.7-17,10.7-28
			c9.6-9.3,19.9-12.5,19.9-12.5s10.3,3.2,19.9,12.5C110.5,133.2,109.8,142,109.8,150.2"/>
		<path class="st1" d="M79.2,114.6c-2.8,1.1-10,4.4-16.7,10.9c-9.4,9.1-9.4,15.7-9.3,23.4l0,25.3c4.4,1.2,13.8,3.2,26,3.2
			c12.3,0,21.6-2,26-3.2l0-25.2c0-7.7,0.1-14.3-9.3-23.4C89.1,118.9,81.9,115.6,79.2,114.6"/>
		<path class="st0" d="M90.7,123.7c0,6.4,4.4,11.7,10.3,13.2c-6.9,11.8-11,25.4-11.5,39.9c-1.3,0.1-2.5,0.2-3.8,0.3
			c-0.1-12.8-2.4-25.1-6.5-36.6c-4.1,11.4-6.4,23.7-6.5,36.6c-1.3-0.1-2.6-0.2-3.8-0.3c-0.5-14.5-4.7-28.1-11.5-39.9
			c5.9-1.5,10.3-6.8,10.3-13.2c0-0.8-0.1-1.7-0.2-2.5c0.6-0.4,1.2-0.9,1.8-1.3c4.3-3,8.1-4.7,10-5.4l0,0l0,0c1.8,0.7,5.6,2.4,10,5.4
			c0.6,0.4,1.2,0.8,1.8,1.3C90.8,122.1,90.7,122.9,90.7,123.7"/>
		<path class="st2" d="M58.3,179.8c-1.7-0.4-3.2,0.6-3.2,2.2l0,5.3c1.2,0.3,2.3,0.5,3.5,0.8l0,1.8c-1.8-0.4-3.6-0.8-5.5-1.2l0-7.1
			c0-2.6,2.3-4.1,5.1-3.6l0.3,0.1l0,1.8C58.5,179.8,58.4,179.8,58.3,179.8"/>
		<path class="st2" d="M79.5,184.2c0-0.9-0.4-1.7-1.2-2.3c-0.7,0.5-1.2,1.4-1.2,2.2l0,5.9c0.8,0,1.6,0,2.4,0L79.5,184.2 M75.1,191.8
			l0-7.7c0-1.3,0.5-2.4,1.5-3.3c0.5-0.4,1-0.7,1.5-0.9l0.1-0.1l0.1,0.1c0.6,0.2,1.1,0.6,1.5,1c1,0.9,1.5,2.1,1.5,3.3l0,7.7
			C79.4,191.9,77.2,191.9,75.1,191.8"/>
		<path class="st2" d="M95.4,185c-0.8,0.1-1.6,0.2-2.4,0.3l0,1.4c0,0.9,0.4,1.7,1.2,2.1c0.7-0.7,1.2-1.6,1.2-2.4L95.4,185
			 M94.3,190.9l-0.1,0.1l-0.1,0c-0.6-0.1-1.1-0.4-1.5-0.8c-1-0.8-1.5-1.9-1.5-3.2l0-7.7c0.7-0.1,1.3-0.2,2-0.2c0,1.5,0,3,0,4.5
			c0.8-0.1,1.6-0.2,2.4-0.3l0-4.5c0.7-0.1,1.3-0.2,2-0.3l0,7.7c0,1.3-0.5,2.6-1.5,3.6C95.4,190.2,94.9,190.6,94.3,190.9"/>
		<path class="st2" d="M64.5,190.9l0-4.9c-0.8-0.1-1.6-0.2-2.4-0.4l0,4.9c-0.7-0.1-1.3-0.2-2-0.4l0-11.9c0.7,0.1,1.3,0.2,2,0.4
			l0,5.2c0.8,0.1,1.6,0.2,2.3,0.4l0-5.2c0.7,0.1,1.3,0.2,2,0.3l0,11.9C65.8,191.1,65.1,191,64.5,190.9"/>
		<path class="st2" d="M73.3,181.7c-1.8-0.1-3.2,1.1-3.2,2.7l0,0.4c1.2,0.1,2.4,0.2,3.5,0.2l0,1.8c-1.2-0.1-2.4-0.1-3.5-0.2l0,3
			c1.2,0.1,2.4,0.2,3.5,0.2l0,1.8c-1.9-0.1-3.7-0.2-5.5-0.4l0-7.1c0-2.6,2.3-4.5,5.2-4.3l0.3,0l0,1.8
			C73.5,181.7,73.4,181.7,73.3,181.7"/>
		<path class="st2" d="M87.5,186.3c-0.7,1.9-1.4,3.7-2.3,5.5c0,0-1.4,0.1-2.1,0.1l0-11.9c0.7,0,1.3-0.1,2-0.1l0,7.6
			c1.2-3.1,2.3-6,2.7-7.8c0.6,0,1.1-0.1,1.7-0.2c0,4,0,7.9,0,11.9c-0.7,0.1-1.3,0.1-2,0.2L87.5,186.3"/>
		<path class="st2" d="M103.2,189.1l0-5.3c-0.7,2-1.4,3.9-2.3,5.8c-0.7,0.1-1.3,0.3-2,0.4c0-4,0-7.9,0-11.9c0.7-0.1,1.3-0.3,2-0.4
			l0,7.6c1.2-3.3,2-6.2,2.4-8.1c0.6-0.2,1.3-0.3,1.9-0.5l0,11.9C104.5,188.8,103.9,189,103.2,189.1"/>
		<path class="st1" d="M79.5,130.7c2.6,3.3-0.1,5.8-0.7,6.4c0.1-1.2-0.1-2.8-2.1-4.8c-2.7-2.8-4.8-4.5-5.3-7.6
			c-0.1-0.7-0.6-3.6,1.7-6.4c-0.1,0.2-0.6,1.8,0.2,4.6C74.4,126.2,77.7,128.3,79.5,130.7"/>
		<path class="st2" d="M86.1,127.1c-0.1-1.2-0.8-2.3-1.7-3.3c-2.5-2.8-4.4-4.1-5.2-5.8c-1-2-0.4-2.6-0.3-2.7c0.1,0,1.3,0,2.5,0.4
			c2.8,1,4.9,3.2,5.4,6.1C87.5,124.5,86.4,126.6,86.1,127.1"/>
		<path class="st2" d="M76.9,118.5c1.1,2.9,4.3,5,6.6,8.2c2.1,3-0.1,5.2-0.6,5.7c-0.1-1.5-1.3-3.2-2.7-4.8c-1.4-1.5-3.8-3.5-4.8-5.7
			c-2.4-5.4,1.9-6.2,1.9-6.2S76.2,116.6,76.9,118.5"/>
		<path class="st2" d="M67.7,123.7c0,7.4-5.9,13.4-13.3,13.6c1.2-3.6,3.5-7.5,8.1-11.8c1.6-1.5,3.2-2.9,5-4.2
			C67.6,122,67.7,122.9,67.7,123.7"/>
		<path class="st2" d="M90.7,123.7c0-0.9,0.1-1.7,0.2-2.5c1.7,1.3,3.4,2.7,5,4.2c4.5,4.4,6.9,8.2,8.1,11.8
			C96.6,137.1,90.7,131.1,90.7,123.7"/>
	</g>
</g>
<g id="레이어_1">
	<rect x="8" y="8" class="st3" width="234" height="234"/>
</g>
<g id="_레이어_2">
</g>
</svg>
