<?xml version="1.0" encoding="utf-8"?>
<!-- Generator: Adobe Illustrator 25.1.0, SVG Export Plug-In . SVG Version: 6.00 Build 0)  -->
<svg version="1.1" xmlns="http://www.w3.org/2000/svg" xmlns:xlink="http://www.w3.org/1999/xlink" x="0px" y="0px"
	 viewBox="0 0 250 250" style="enable-background:new 0 0 250 250;" xml:space="preserve">
<style type="text/css">
	.st0{fill:none;}
	.st1{fill:#9C2130;}
</style>
<g id="Layer_1">
	<rect x="8" y="8" class="st0" width="234" height="234"/>
	<g>
		<path class="st1" d="M151.7,195.9c0.4-1.7,0.9-3.5,1.4-4.8c0,0,0-0.1,0-0.1c0.9,1,1.9,2,2.8,3C154.4,194.3,152.9,195,151.7,195.9
			 M151.5,189.1c-1.2-0.4-2.4-0.7-3.7-0.6c-1.3,0-2.6,0.2-3.7,0.5c1.1-1.4,2.9-2.2,5.4-2.4C150.2,187.4,150.8,188.3,151.5,189.1
			 M100.9,89.8c0,0,0.8-0.4,3.2-0.7c0,0-0.4,2.2-1.7,2.4C101.1,91.7,100.8,90.5,100.9,89.8 M102.5,206.2c0,0-12.8,0-19.5-11.4
			c-6.8-11.4-2.1-19.3-2.1-19.3s-13.4,6.7-15.2,12.8c-1.4,5,1.7,14.8,5.8,20.2c10.6,13.8,27.8,15.7,27.8,15.7
			S96.6,214.6,102.5,206.2 M69.4,194c-0.4-0.3-0.7-0.7-0.9-1.2c-0.4-0.6-0.4-1.4-0.1-2.1c0.3-0.9,1.3-1.7,2.6-2.3
			c2.7-1.4,4.5-0.6,5.3,0.7c0.2,0.3,0.3,0.7,0.3,1.1l-1.4,0.4c0-0.3,0-0.6-0.2-0.8c-0.4-0.8-1.4-1.2-3.4-0.2
			c-1.8,0.9-2.1,1.8-1.8,2.4l0.1,0.2l1.8-0.9l-0.3-0.6l1.2-0.6l0.9,1.7L69.4,194z M69.6,196l7-4.7l0.6,1.3l-2.8,1.7
			c-0.9,0.5-1.7,1-2.6,1.5l0,0c1-0.3,1.9-0.6,2.8-0.9l3.2-1l0.5,1l-2.8,1.8c-0.8,0.5-1.6,1.1-2.5,1.6v0c1-0.4,1.9-0.7,2.8-1l3.1-1.1
			l0.6,1.2l-8.1,2.5l-0.6-1.3l2.3-1.6c0.7-0.4,1.5-0.9,2.4-1.5l0,0c-1,0.3-1.9,0.6-2.7,0.8l-2.7,0.8L69.6,196z M75.2,202.7l-1.7,0.9
			l-0.8-1.1l7.6-3.8l1,1.3l-5.9,6.1l-0.8-1.1l1.3-1.4L75.2,202.7z M76.9,202.9l1.3-1.3c0.4-0.4,1-0.9,1.4-1.3l0,0
			c-0.5,0.3-1.3,0.7-1.7,0.9l-1.5,0.8L76.9,202.9z M76.6,207.4l5.8-6l0.9,0.9l-1.5,3.1c-0.3,0.6-0.8,1.6-1.2,2.3l0,0
			c0.6-0.7,1.5-1.8,2.6-2.9l1.3-1.3l0.9,0.8l-5.8,6l-0.9-0.9l1.4-3.1c0.3-0.7,0.8-1.7,1.3-2.3l0,0c-0.6,0.6-1.4,1.6-2.6,2.8
			l-1.3,1.3L76.6,207.4z M84.5,213.7c-0.5-0.1-1-0.3-1.4-0.6c-0.6-0.4-1-1-1.1-1.8c-0.1-0.9,0.3-2.1,1.1-3.3
			c1.7-2.5,3.7-2.7,4.9-1.9c0.4,0.3,0.7,0.6,0.8,0.9l-1,1c-0.1-0.3-0.3-0.5-0.6-0.6c-0.8-0.5-1.8-0.3-3.1,1.5c-1.1,1.7-1,2.7-0.5,3
			c0.1,0.1,0.2,0.1,0.3,0.1l1.1-1.7l-0.5-0.3l0.8-1.1L87,210L84.5,213.7z M90.3,207.6l1.3,0.6l-2.6,5.1c-1.1,2.2-2.1,2.1-3,1.6
			c-0.2-0.1-0.4-0.3-0.6-0.4l0.7-1.2c0.1,0.1,0.2,0.2,0.4,0.3c0.4,0.2,0.7,0.2,1.2-0.8L90.3,207.6z M93.8,209.1l-1.8,5.1
			c-0.4,1.1-0.2,1.6,0.1,1.7c0.4,0.1,0.8-0.1,1.2-1.3l1.8-5.2l1.3,0.5l-1.7,4.8c-0.7,2-1.7,2.9-3.1,2.5c-1.4-0.5-1.5-1.8-0.9-3.8
			l1.7-4.9L93.8,209.1z"/>
		<path class="st1" d="M101.8,172.2c-2.1,3-4.2,2.9-4.2,2.9c1.3-0.9,2.2-2.1,2.8-3.2c-0.8-0.2-1.6-0.3-2.3-0.4c-2,2.7-4,2.6-4,2.6
			c1.1-0.8,1.9-1.8,2.5-2.7c-0.9-0.1-1.8-0.1-2.6-0.1c-1.8,2-3.4,1.9-3.4,1.9c0.7-0.6,1.4-1.2,1.9-1.9h-0.8c-1.2,0-2.5,0-3.9,0.1
			c-1.2,1-2.3,2-3.3,3.2c-1.8,2-2.8,4.5-2.9,7.1c0.8-1.2,2.1-2.8,3.7-3.7c0,0-2.3,2.7-3.6,6.8c0.1,0.5,0.2,1.1,0.3,1.6
			c0.7-1.2,2.1-3.4,4.3-4.6c0,0-2.3,2.7-3.7,6.9c0.1,0.4,0.3,0.7,0.4,1.1c0.7-1.2,2.1-3.6,4.4-4.8c0,0-2.2,2.6-3.6,6.6
			c0.8,1.8,1.6,3,1.6,3c0.4-8.7,10.3-13.9,18.5-18.5C104.8,175.2,106.8,173.6,101.8,172.2"/>
		<path class="st1" d="M88.5,184.6c0-0.3-0.1-0.5-0.3-0.7c-0.2-0.3-0.6-0.5-1-0.5c-0.2,0-0.4,0.1-0.6,0.2c-0.2,0.1-0.4,0.3-0.7,0.4
			c0.7-1.1,1.2-1.7,1.2-1.7c0.4-0.5,0.4-1.1,0-1.6c-0.2-0.3-0.6-0.5-1-0.5c-0.2,0-0.4,0.1-0.6,0.1c-0.4,0.2-0.7,0.4-1,0.7
			c0.9-1.6,1.7-2.5,1.7-2.5c0.4-0.5,0.4-1.1,0-1.6c-0.3-0.3-0.6-0.5-1-0.5c-0.2,0-0.4,0.1-0.6,0.1l-0.5,0.3c0.3-0.6,0.8-1.2,1.3-1.7
			c0.8-0.9,1.8-1.8,2.9-2.8c0.4,0,0.8,0,1.2-0.1c-0.2,0.3-0.2,0.7-0.1,1c0.2,0.5,0.7,0.9,1.2,0.9c0.8,0,1.6-0.3,2.3-0.7
			c-0.1,0.3-0.1,0.6,0,0.8c0.2,0.5,0.7,0.9,1.2,0.9c0.4,0,1.3-0.1,2.3-0.7c-0.1,0.3-0.1,0.5,0,0.8c0.2,0.5,0.7,0.9,1.2,0.9
			c0.6,0,2.6-0.2,4.7-2.7c0.8,0.3,1.2,0.5,1.3,0.7c-0.2,0.2-0.4,0.3-0.6,0.4l-0.8,0.4C97.4,177.9,92.1,180.8,88.5,184.6 M54,139.8
			c0,0,6.9-3.9,6.3-9.9c0,0-3,2.9-9.3,6.4c-3.2,1.8-6.3,4.4-8.2,8c0.8-0.6,1.7-1,2.7-1.1c0,0-2.1,1.2-3.9,3.8
			c-0.2,0.7-0.4,1.4-0.5,2.1c0.9-1.1,2.2-2.5,4-2.7c0,0-2.7,1.8-4.3,5.5c0,0.7,0,1.5,0,2.2c0.5-1.3,1.8-3.8,4.1-4.5
			c0,0-3.1,2.6-3.8,7.5c0.1,0.7,0.3,1.5,0.5,2.3c0,0,5.4-19.7,18.5-11.8C60.1,147.5,61.2,140,54,139.8"/>
		<path class="st1" d="M45.8,148.7c-0.2-0.2-0.5-0.3-0.9-0.3c-0.1,0-0.2,0-0.3,0c0.6-0.6,1.1-0.9,1.1-0.9c0.5-0.3,0.7-1,0.5-1.5
			c-0.2-0.5-0.6-0.8-1.2-0.8H45c0.7-0.6,1.1-0.9,1.1-0.9c0.5-0.3,0.8-0.9,0.6-1.5c-0.1-0.4-0.4-0.7-0.8-0.8c1.5-1.7,3.4-3.2,5.7-4.6
			c2.4-1.3,4.7-2.8,6.9-4.5c-1.3,3.5-5.2,5.8-5.3,5.9c-0.5,0.3-0.7,0.9-0.6,1.4c0.1,0.5,0.6,0.9,1.2,1c1.7,0,2.9,0.5,3.8,1.5
			c0.7,0.8,1,1.9,1.1,2.8c-1.4-0.7-3-1-4.6-1.1C50.7,144.4,47.9,146.3,45.8,148.7 M150.2,185.2c-3,0.1-7.3,1-8.4,5.7
			c0,0,6.1-2.5,10-0.2c0,0-2.2,6.4-1.8,8.7c0,0,2-4.2,8.6-4.6C155.5,192,152.6,188.8,150.2,185.2"/>
		<path class="st1" d="M151.6,195.8c0.4-1.6,0.8-3.2,1.4-4.7c0-0.1,0-0.1,0-0.1c0.9,1,1.8,2,2.8,3
			C154.3,194.3,152.9,194.9,151.6,195.8 M151.4,189.1c-1.2-0.4-2.4-0.6-3.7-0.6c-1.3,0-2.7,0.2-3.7,0.5c1.1-1.4,2.9-2.2,5.5-2.4
			C150.2,187.4,150.8,188.3,151.4,189.1 M172.6,203.1c0.6,0.2,1.2,0.4,1.8,0.6c-0.7,1.7-1.6,3.3-2.7,4.8
			c-10.5,13.8-27.8,15.7-27.8,15.7s2.7-9.6-3.1-18c0,0,12,0,18.9-10.4c0.5,0.5,1.1,0.9,1.7,1.3l0.1,0.1l1.5,1
			c-0.9,1.7-2.3,3.2-3.9,4.3c0,0,2.9-0.7,5.4-3.2c0.1,0.1,0.3,0.2,0.4,0.2c0.1,0,0.1,0.1,0.2,0.1c0.5,0.3,0.9,0.5,1.4,0.8
			c-0.8,1.4-2,2.9-3.7,4c0,0,2.9-0.7,5.4-3.2l0.4,0.2c0.1,0.1,0.2,0.1,0.3,0.1c0.5,0.2,0.9,0.4,1.4,0.6c-0.8,1.5-2,3-3.8,4.2
			c0,0,3.2-0.7,5.7-3.5l0.3,0.1C172.4,203.1,172.5,203.1,172.6,203.1 M150.9,217.3l1.3-0.5l-1.1-3.4l1.6-0.5l-0.5-1.3l-1.6,0.5
			l-0.7-2.1l1.7-0.6l-0.5-1.4l-3.1,1L150.9,217.3z M158.7,212.3c-0.2,0.2-0.4,0.3-0.6,0.4c-0.8,0.4-1.7,0-2.7-1.9
			c-1-1.9-0.7-3,0-3.3c0.2-0.1,0.4-0.2,0.7-0.2l-0.4-1.3c-0.2-0.1-0.5,0-1,0.2c-1.3,0.7-2.1,2.5-0.6,5.4c1.1,2.2,2.8,3.4,4.4,2.5
			c0.4-0.2,0.7-0.4,0.9-0.7L158.7,212.3z M54,160.5c-0.3,1.8-0.1,2.7,0.5,2.8c0.6,0.1,1.1-1.1,1.3-2.6c0.2-1.4,0.2-2.7-0.5-2.8
			C54.8,157.9,54.3,158.8,54,160.5 M65.3,161.2h0.3c0.7,0,1.1-0.5,1.1-1.2c0-0.7-0.2-1.2-0.9-1.2c-0.1,0-0.3,0-0.4,0L65.3,161.2z
			 M72.5,161.4c0.1,0,0.1,0,0.3,0c0.8,0,1.1-0.6,1.1-1.3c0-0.7-0.3-1.2-1-1.2c-0.1,0-0.3,0-0.4,0.1L72.5,161.4z M77.7,161.1l0.3,0
			c0.7,0,1-0.6,1-1.3c0-0.7-0.3-1.1-1-1.1c-0.1,0-0.2,0-0.3,0.1L77.7,161.1z M86.4,164c0.1,0,0.2,0,0.3,0c0.7,0,1.4-0.7,1.4-2.9
			c0-1.6-0.4-2.6-1.3-2.6c-0.1,0-0.2,0-0.3,0L86.4,164z M130.5,237.4c0.2-0.1,0.4-0.1,0.6-0.3c1.4-0.6,3.3-1.3,4.8-1.4
			c2.1-0.1,5.5,2.9,6.8,3.9c-0.9-1.3-4-4.7-3.9-6.9c0.1-1.5,0.8-3.4,1.4-4.8c0.1-0.2,0.2-0.4,0.3-0.6c0.7-1.8,1.2-3.7,1.4-5.7
			c-0.6,2.3-2.7,7.1-5.5,8c-1.7,0.5-3.9-0.8-4.8-1.4c0.6,0.9,1.9,3.1,1.4,4.8c-0.9,2.9-5.7,4.9-8,5.5
			C126.8,238.7,128.7,238.2,130.5,237.4"/>
		<path class="st1" d="M138,235c-0.7-0.3-1.4-0.5-2.1-0.5h-0.1c-0.7,0-1.4,0.2-2.3,0.4c0.2-0.4,0.4-0.8,0.6-1.2
			c0.2-0.8,0.3-1.7,0-2.6c0.4,0.1,0.9,0.2,1.3,0.2c0.4,0,0.9-0.1,1.3-0.2c0.4-0.1,0.8-0.3,1.2-0.6c-0.2,0.9-0.4,1.6-0.4,2.2
			C137.5,233.5,137.7,234.2,138,235 M102.9,209.8c0.1-0.2,0.2-0.4,0.3-0.6c0.6-1.4,1.3-3.3,1.4-4.8c0.1-2.1-2.9-5.5-3.9-6.8
			c1.3,0.9,4.7,4,6.8,3.9c1.5-0.1,3.4-0.8,4.8-1.4c2-0.9,4.1-1.5,6.2-1.7c-2.3,0.6-7.1,2.6-8,5.5c-0.5,1.7,0.8,4,1.4,4.8
			c-0.9-0.6-3.1-1.9-4.8-1.4c-2.9,0.9-5,5.7-5.5,8C101.6,213.5,102.1,211.6,102.9,209.8"/>
		<path class="st1" d="M105.4,206.8c0.3-0.9,0.4-1.6,0.4-2.3c0-0.8-0.2-1.5-0.5-2.2c0.7,0.3,1.4,0.5,2.1,0.5h0.1
			c0.7,0,1.4-0.1,2.2-0.4c-0.2,0.4-0.4,0.8-0.6,1.2c-0.2,0.9-0.2,1.8,0,2.6c-0.9-0.2-1.7-0.2-2.6,0
			C106.1,206.3,105.7,206.5,105.4,206.8 M102.9,227.5l0.3,0.6c0.6,1.4,1.3,3.3,1.4,4.8c0.1,2.1-2.9,5.5-3.9,6.8
			c1.3-0.9,4.7-4,6.8-3.9c1.5,0.1,3.4,0.8,4.8,1.4c0.2,0.1,0.4,0.2,0.6,0.3c1.8,0.8,3.7,1.3,5.6,1.4c-2.3-0.6-7.1-2.6-8-5.5
			c-0.5-1.7,0.8-3.9,1.4-4.8c-0.9,0.6-3.1,1.9-4.8,1.4c-2.9-0.9-5-5.7-5.5-8C101.6,223.8,102.1,225.7,102.9,227.5"/>
		<path class="st1" d="M105.3,235c0.3-0.8,0.5-1.5,0.5-2.3c0-0.8-0.2-1.5-0.4-2.2c0.4,0.3,0.8,0.5,1.2,0.6c0.4,0.1,0.8,0.2,1.3,0.2
			c0.5,0,0.9-0.1,1.4-0.2c-0.2,0.8-0.2,1.7,0,2.6c0.1,0.4,0.3,0.8,0.6,1.2c-0.7-0.2-1.5-0.3-2.3-0.4h-0.1
			C106.6,234.5,105.9,234.7,105.3,235 M130.5,199.9l0.6,0.3c1.4,0.6,3.3,1.3,4.8,1.4c2.1,0.1,5.5-2.9,6.8-3.9
			c-0.9,1.3-4,4.7-3.8,6.8c0.1,1.4,0.8,3.4,1.4,4.7c0.1,0.2,0.2,0.4,0.3,0.6c0.8,1.8,1.3,3.7,1.4,5.6c-0.6-2.3-2.7-7.1-5.5-8
			c-1.7-0.5-4,0.8-4.8,1.4c0.6-0.9,1.9-3.1,1.4-4.8c-0.9-2.9-5.7-5-8-5.5C126.8,198.6,128.7,199.1,130.5,199.9"/>
		<path class="st1" d="M137.9,206.8c-0.4-0.2-0.8-0.4-1.2-0.6c-0.9-0.2-1.7-0.2-2.6,0c0.4-1.3,0.1-2.7-0.6-3.8
			c0.7,0.2,1.5,0.4,2.2,0.4h0.1c0.7,0,1.4-0.2,2.1-0.5c-0.3,0.7-0.5,1.5-0.5,2.2C137.5,205.2,137.7,205.9,137.9,206.8 M117.5,218.7
			c0,2.6-2.5,6.2-4.4,8.6c2.3-1.9,5.9-4.4,8.5-4.5h0c2.6,0,6.2,2.5,8.6,4.5c-1.9-2.3-4.5-6-4.5-8.6c0-2.6,2.5-6.2,4.5-8.6
			c-2.3,1.9-6,4.4-8.6,4.4h0c-2.6,0-6.2-2.5-8.5-4.4C115,212.4,117.5,216.1,117.5,218.7"/>
		<path class="st1" d="M117.7,222.6c0.7-1.3,1.1-2.7,1.1-4c0-1.3-0.5-2.6-1.1-4c1.3,0.7,2.7,1.1,4,1.1c1.4-0.1,2.8-0.5,4-1.1
			c-0.7,1.4-1.1,2.7-1.1,4c0,1.2,0.5,2.6,1.1,4c-1.2-0.7-2.6-1-4-1.1C120.3,221.6,118.9,222,117.7,222.6 M88.2,50.8
			c1.1-6.9,4.9-10.3,4.9-10.3c0.2-2.1,1.9-7.3,1.9-7.3c1.2-7.8-2.8-10.1-2.8-10.1c-7.8,6.5-8.8,23.6-8.8,23.6
			C85.8,47.3,88.2,50.8,88.2,50.8 M158.8,44.4c0.3,3.4-1.9,9.4-1.9,9.4c2.4-1,6.6-0.5,6.6-0.5s2.2-2.5,6-10.5
			c5-10.3,3.2-14.1,3.2-14.1c-6.5,0.1-9.7,7.9-9.7,7.9C161.8,40.3,158.8,44.4,158.8,44.4 M98.7,45.2c1-7.2,6.4-10.6,6.4-10.6
			c0.3-5.3,3.9-10.6,3.9-10.6c0.2-4.8-2.2-7.7-2.2-7.7s-4.3,1.4-7.5,8.4c-3.2,7-5,15.9-5,15.9C96.5,41.5,98.7,45.2,98.7,45.2
			 M78,59.6c0.6-8.9,4.2-12.5,4.2-12.5c0.8-11.8-3.7-15.8-3.7-15.8c-1.8,1.4-3.4,3.8-4.2,5.6c-3.1,7.4-2.5,18.5-2.5,18.5
			C75.3,55.7,78,59.6,78,59.6 M69,67.5c-0.5-8.6,1.4-11,1.4-11C69.2,46.7,63.2,44,63.2,44c-4.3,6.2-1,22.6-1,22.6
			C65.8,65.9,69,67.5,69,67.5 M168.5,65.5c-0.1,3.3-1.6,6.5-4,8.8c2-0.3,4.3,1,4.3,1s8.7-5.1,13.3-10.7c5.6-6.8,3.8-11.5,3.8-11.5
			c-4-0.1-6.9,3.3-9.6,5.9C173.5,61.6,168.5,65.5,168.5,65.5 M179.9,82.2c-4.9,2.2-11.8,2.8-11.8,2.8c1,0.2,1.7,0.7,1.7,0.7
			c-1,3.9-4.3,6.7-4.3,6.7s6.6,0.2,14.7-2.4c8.6-2.7,9.7-8.8,9.7-8.8C188.3,80,184.8,80,179.9,82.2 M170.2,76.5
			c-0.6,5.7-6.9,8.6-6.9,8.6s9.2-1.3,17.4-6.1c8.2-4.8,8.4-10.8,8.4-10.8c-2-0.9-5.1,0-8.8,2.5C176.6,73.2,170.2,76.5,170.2,76.5
			 M63,78.3c-2.2-5-1.9-8.8-1.9-8.8c-3.8-9.8-10.2-9.6-10.2-9.6c-2.3,8.9,5.2,19.5,5.2,19.5C58.8,77.8,63,78.3,63,78.3 M164.5,54.1
			c0.3,4.9-2.2,8.9-2.2,8.9c3.4,0.2,5,1.1,5,1.1s6.6-6.5,10.6-13c4-6.5,2.2-11.5,2.2-11.5c-1.6-0.1-4.2,0.5-6.2,3.4
			c-2.1,2.9-5.7,6.7-5.7,6.7C167,51.4,165.8,52.8,164.5,54.1 M208.2,172c-1.9-3.1-4.8-2-4.8-2c5,3.4,0.7,9.8-6.9,12.7
			c-6.9,2.7-16.7,2.4-24.3-2c-15.9-9.1-21.7-22.7-21.6-26.4c0.1-3.7,11.1-5,18.9-5.2c7.8-0.1,13.8,3.1,13.2,7c-0.6,4-5,3.7-5,3.7
			c7.5,4.1,12.6-1,13.9-5.4c1.4-4.4-0.5-13.5-8.1-15.9c-7.6-2.5-15.7,1.5-22.5,1.1c-7-0.4-11.2-5.6-11.2-5.6s1.9,3.8-1.9,4.9
			c-3.7,1.1-8.4-2.8-8.4-2.8s1.6,4.4-2.5,4.4c-4.1,0-6.5-2.8-6.5-2.8c-0.8,3-3.4,2.8-5.5,1.8c-2.2-1.1-4-3.1-4-3.1
			c-1.7,12,9,21,13.2,23.6c4.2,2.6,7.2,7.1,13.4,18.2c8.3,14.8,21.3,25.7,37.6,24.9c12.8-0.6,12.5-11.1,12.5-11.1
			c-3.2,3-16.7,3.5-29.8-3.4c-13.1-6.9-14.4-14.8-14.4-14.8c7.4,12.8,35.7,21.7,46.3,15.4C210.5,183.1,210,175.1,208.2,172
			 M55.6,92.3c1.8-1.8,6-1.5,6-1.5c-5.2-3.4-6-8.6-6-8.6c-6.9-7.3-12.3-4.9-12.3-4.9C43,86.1,55.6,92.3,55.6,92.3 M82.1,127.2
			c-0.2-0.9-0.2-2.6-0.2-2.6c-4.1,2.2-8.3,1.5-8.3,1.5c-0.3-0.8-0.6-1.5-0.8-2.3c0,0-1.9,1.4-4.1,3.5c-2.3,2.1-1.7,5.5-1.7,5.5
			C75.6,134.1,82.1,127.2,82.1,127.2 M104.4,131.2c3.9-7.7,8.4-12.2,12.9-18.2c4.6-6,6.1-12.4,4.4-16c-1.7-3.6-5.8-4-7.2-6.5
			c-1.3-2.5,5.6-3.4,5.6-3.4c-0.3-3.5,4-5.7,6.6-6.5c2.6-0.8,5.3-3.7,5.3-3.7c-2.3,0-6.1,0.5-9.4,2.5c-3.3,2-7.8,4-11.1,4
			c-3.3,0-6.7,0.6-6.7,0.6c-0.7-2.7,1.5-5.6,4.5-7.3c3-1.7,9.4-4.4,14.2-10.8c4.8-6.4,3.9-14.3,3.9-14.3s-1.3,3.6-4.4,6.1
			c-2.6,2.1-5.7,1.8-5.7,1.8c-1.7,9.2-9.7,12.5-14.2,14.5c-4.5,1.9-3.9,4.9-3.4,5.8c0.6,0.9,1.5,3.6,1.5,4.1c0,0.5-0.5,1-0.5,1
			c-1.2,0.5-2.7,1.8-3.2,2.8c-0.5,1.1-0.9,1.5-2.1,2.2c-1.7,0.9-5.1,1.2-6,4.4c-1,3.2,0.7,4.4,0.7,4.4c0.3-1.2,1-2.2,2.2-3
			c-0.2,0.3-0.3,0.6-0.3,1c0,1.2,1,2.2,2.1,2.2c-0.9,1-1.1,2-1.1,2s2.4-1.3,4.4-2.5c2-1.2,4.6-1.5,4.6-1.5c-0.1-1-0.4-1.9-1.1-2.6
			c2,0.6,2.9,2,2.7,3.3c-0.3,1.9,0.7,3.7,0.7,3.7c1.3-1.8,4.2-3.5,4.2-3.5c0.1-2.4-2.2-5-2.2-5c3.2,0.7,3.7,4,3.7,4s1.8,0.1,2.8,2.4
			c1.5,3.4-5,9.6-10.3,11.5s-11.9,1.6-16.8-0.8c-4.1-2-10-11.9-5.6-23.3c4.3-11.4,19.9-17.1,24.9-19.7c5-2.6,5.2-5.1,5.8-18.5
			c0.7-13.4,9.1-24.7,12.5-30.1c3.3-5.4,1.6-8.2,1.6-8.2c-8.8,3-16.5,15-17.7,19.5c-0.9,3.4-1.2,4.1,0.3,8.6
			c2.1,6-0.7,13.4-0.7,13.4s0.5-3.8,0.3-8.3c-0.2-4.5-1.9-7.3-1.9-7.3c-2.1,1.5-3.7,3.7-4.5,6.2c-2.5,7-2.4,15.8-2.4,15.8
			c-2-3.4-0.1-10.9-0.1-10.9c-0.5-2.5-4.7-5.6-4.7-5.6c-1.3,1.1-2.6,3.2-3.2,5c-3,8.1-0.9,16.5-0.9,16.5c-2.6-1.5-1.8-10-1.8-10
			c-0.9-3.6-4.8-5.2-4.8-5.2c-1.5,1.5-2.3,3.6-2.8,5.6c-2.5,8.7,0.1,17.6,0.1,17.6c-2.5-1.9-2.5-9.2-2.5-9.2c-1.8-4.6-6-5.2-6-5.2
			c-1.7,4-1.8,8.6-1.1,12.2c1.2,5.8,4.4,9.8,4.4,9.8c-4.1-1.5-5.6-8.7-5.6-8.7c-1.6-3.3-7.1-2.2-7.1-2.2s-0.6,4.5,2.2,10.4
			c2.8,5.9,7.9,8,7.9,8c-5.4-0.1-8.7-6.7-8.7-6.7c-3.5-1-6.9,0.9-6.9,0.9c-0.2,1.4,1,5.1,4.1,7.9c4.3,3.8,10.6,5.7,10.6,5.7
			c-4.2,0.8-7.9-2-7.9-2c-6.6-0.9-8.2,2.4-8.2,2.4c0.4,3.3,3.3,5.1,7.6,6.3c4.3,1.2,9.6,0.9,9.6,0.9c-3.4,1.9-8.9,0.7-8.9,0.7
			c-4.1,0.9-5.4,4.7-5.4,4.7c2,2.8,4.5,3.5,7.4,3.3c4.7-0.2,9.7-2.7,9.7-2.7c-2,3.1-7.3,3.9-7.3,3.9c-1.8,2.9-2.5,6.5-2.5,6.5
			c7,3.2,15.1-5.2,15.1-5.2c-0.1,3.2-6.8,6.1-6.8,6.1c-0.7,3.2,0.5,5.9,0.5,5.9c10,0.3,14.1-9.1,14.1-9.1c0.6,3.6-5.4,8-5.4,8
			c-0.5,1.7,0.7,4.4,0.7,4.4c4.1,0.4,6.5-1.8,6.5-1.8c1.5-5,4.7-8,7.2-10c3.3-2.6,8.1-4.2,8.1-4.2s-11.6,5.9-13.8,16.3
			c-2.2,10.2,1.6,13.5,5.3,16.4c2.9,2.3,6.2,5.5,6.2,5.5c-0.2-1-1.1-3.2-1.4-6C101.6,140,102.4,135.4,104.4,131.2 M96.6,97.4
			c0-0.2,0.1-0.4,0.1-0.6c0-1-0.7-1.9-1.6-2.1c0.8-0.2,1.7-0.4,2.8-0.5c0.8-0.1,1.5-0.1,2.2,0C99.8,95.5,98.1,96.5,96.6,97.4
			 M104.9,89.1c0,0-0.2,3.1-2.3,3.4c-2.1,0.4-2.7-1.5-2.6-2.4c0,0-0.9,0.3-1.4,0.9c0,0-0.6-1.8,2.8-2.3c3.3-0.5,4.2-0.5,5.9-1.3
			C107.3,87.4,106.5,88.7,104.9,89.1 M136.6,198.5c0,0,0.6-0.6,0.2-1.8c-0.7-1.9-6.1-4.7-7.7-6.3c-1.6-1.7-2.4-1.4-3.1-8.1
			c-0.7-6.7-0.9-10.1-2.4-13.9c-0.6-1.7-1.1-3-0.6-4.6c0.5-1.6,9.4-2.5,9.4-2.5c-14-9.6-15.2-21.7-12.2-29.5
			c0.5,0.5,0.9,1.1,1.3,1.8c2.5,4.5,5.9,4.6,5.9,4.6c1.4-2.4-0.8-6.9-1.5-10c-0.7-3,0.4-4.4,0.4-4.4s0.3,3.6,2.5,7.8
			c2.9,5.5,6.9,5.4,6.9,5.4c2.7-1.6-1.4-8-2.2-10.7c-0.8-2.7-0.1-3.9-0.1-3.9s2,6.2,6.2,10.2c3.1,3,6.2,1.9,6.2,1.9
			c2.1-3.5-2.3-7.5-4.1-9.9c-1.8-2.3-1.6-4.3-1.6-4.3s1.8,2.8,6.2,6.9c4.5,4.1,9.4,3.6,9.4,3.6c1-3.8-3.6-7.6-6-9.6
			c-2.3-2-2.7-4-2.7-4s3.3,3.2,7.9,5.9c6.6,3.9,10.8,2.1,10.8,2.1c0.7-3.9-6.4-7.2-9.3-8.9c-2.9-1.7-3.1-3.2-3.1-3.2
			s6.5,3.7,13.8,4.6c7.3,0.9,9.7-2.3,9.7-2.3c-1.5-3.5-7.5-4.5-11.9-5.2c-4.4-0.7-5.6-2.7-5.6-2.7c1.2,0.2,11.7,1.2,18.1-0.4
			c6.4-1.6,8.2-6,8.2-6c-0.2-0.6-1.5-2.5-7.7-1.3c-6.3,1.3-16.2,1.1-16.2,1.1s0.8,1.5,0.4,2.9c0,0-1.5,2.5-4.9,2.9
			c0,0,0.5,1.9-0.4,3.4c0,0-1.2,2-5.3,1.9c0,0,0.2,1.5-0.5,2.8c0,0-2.7,1.5-5.4,1.2c0,0-0.9,2-1.9,2.9c0,0-2.9,0.7-4.5,0.1
			c0,0-1.6,2-2.9,2.5c0,0-1.9,0.5-4-0.4c0,0-2,1.7-3.4,2.2c0,0-1.2,0.1-2.9-1.1h0c3.8-5.5,5.8-9.8,5.8-9.8c4,0.5,5.6-0.2,5.4-0.8
			c-0.2-0.5,0.5-1.4,0.5-1.4c4.7,0.1,5.9-1.3,5.7-2c-0.1-0.7,0.3-1.4,0.3-1.4c6.1-0.7,6.1-3,5.8-3.6c-0.3-0.6,0-1.8,0-1.8
			c4.7-0.3,5.9-4.3,4.8-5.4c-0.7-0.7-1.1-2.3-1.1-2.3s2.4,1.1,7.9-0.5c5.5-1.7,7.2-7.3,7.2-7.3c-2.9-1.1-6,0.2-9.7,0.3
			c-3.7,0.1-4.5,0-4.5,0s5-0.3,9.4-3c4.4-2.7,4.9-6.8,4.9-6.8c-2.2-1.5-5.3-1.3-5.3-1.3c-7.2,4.8-9.5,3.9-9.5,3.9
			c13.7-5.5,13.2-13.6,13.2-13.6c-2.7-1.5-6-1.3-6-1.3s-0.4,1.2-4.6,4.3c-4.1,3.1-5.3,2.5-5.3,2.5s6.2-3.7,9-7.8
			c2.6-3.7,2.8-8.5,2.8-8.5c-2.4-0.4-4.9-0.2-7.1,0.6c-5,7.3-8.8,8.1-8.8,8.1s5.4-5.3,7.6-9c2.2-3.7,2.7-9.1,2.7-9.1
			s-2.8-0.4-5.9,2.2c-3.2,2.5-6.8,8.5-6.8,8.5c0.2-3.2,2.5-6.2,5.7-9.3c3.1-3,7-3.1,7-3.1s2.8-5,4.8-13c2.3-9.4-0.8-12.8-0.8-12.8
			c-4.4,1.5-6.6,7.9-9.3,16.4c-2.6,8.4-14.3,25.8-15.7,27.6c-1.3,1.8-5,5.4-0.4,7.8c4.6,2.4,7.9,8.9,8,16.1
			c0.1,7.2-5.7,14.5-12.2,16.7c-6.4,2.2-7.9,0.7-7.9,0.7c-0.2,6.2-6.7,13-10.6,18c-4,5-8.6,10.6-9.4,20.6
			c-0.8,10.1,6.8,16.6,12.1,22.5c5.3,6,5.6,16.5,5.8,19.8c0.2,3.3-0.5,6.1-2.8,7.3c-2.3,1.2-7.8,1.9-10.2,2.9
			c-2.4,1-1.6,2.4-1.6,2.4c-3,2.1-0.8,5.4-0.8,5.4c0.3-2.8,2.3-3.9,2.3-3.9c1.8,1.6,8.7-1.8,10-2.5c1.3-0.8,4.7-1.9,5.4-2
			c0.7-0.1,3.3,0.9,4.9,1.9c1.6,1,2.7,2.5,3.7,3.5c1,1.1,1.9,0.8,1.9,0.8c2.4,1.5,2.2,2.5,2.2,2.5c1-0.1,0.8-1.8,0.4-2.6
			C137.1,198.9,136.6,198.5,136.6,198.5 M83.3,129.8c-0.6-0.7-0.7-1.4-0.7-1.4c-1.1,1.3-3,3.2-3,3.2c-3,2.7,1.1,4.9,1.1,4.9
			c2.1,0.1,4.9-1.1,6.6-2.2c1.7-1,2.3,0.7,2.3,0.7c-0.6-2.4,0.5-7,0.5-7C87.1,130.5,83.3,129.8,83.3,129.8 M61.6,101.9
			c-8-3-7.3-7.6-7.3-7.6C45.2,91,41.7,95,41.7,95c3.8,7.3,16.3,9.8,16.3,9.8C58.6,103.5,61.6,101.9,61.6,101.9 M65.1,115
			c0.2-1,1.4-3.1,1.4-3.1c-7.6,0.2-9.6-4.5-9.6-4.5c-8.3-0.2-10.6,4.2-10.6,4.2s1.7,3.3,6.9,3.9C58.6,116.1,65.1,115,65.1,115
			 M72.6,119.7c-6.1,1.3-8.3-0.5-8.3-0.5c0-1.2,0.5-2.6,0.5-2.6c-8.6,1.7-9.2,8.2-9.2,8.2s1.6,1.9,7,1c3.5-0.6,6.8-1.7,10-3.3
			C72.3,121.7,72.6,119.7,72.6,119.7"/>
		<path class="st1" d="M183.8,202.1c-18.6,0-29.9-15.2-35-24.3c-6.3-11.4-9.4-15.9-13.9-18.7c-4.6-2.8-12.6-10.4-12.8-19.8
			c0.7,0.5,1.5,1.1,2.3,1.5c1.1,0.5,2.1,0.8,3.1,0.8c1.3,0,2.6-0.6,3.4-1.7c1.3,0.9,3.3,2,6.1,2c1.9,0,2.9-0.8,3.4-1.5
			c0.3-0.5,0.5-1,0.6-1.6c1.5,0.9,3.5,1.7,5.5,1.7c0.6,0,1.2-0.1,1.8-0.2c1.7-0.5,2.5-1.6,2.8-2.4c0.1-0.2,0.2-0.4,0.2-0.6
			c2.1,1.6,5.4,3.4,9.6,3.7c0.3,0,0.7,0,1,0c2.5,0,5.1-0.5,7.8-1l0.2,0c2.5-0.5,5.3-0.9,8-0.9c1.9,0,3.6,0.2,5.2,0.7
			c7,2.2,8.5,10.5,7.3,14.4c-0.9,3-3.6,6-7.4,6c-0.4,0-0.8,0-1.3-0.1c1.2-0.8,2-2.2,2.3-3.7c0.2-1.5-0.3-3.1-1.3-4.2
			c-2.3-2.7-7.1-4.3-12.7-4.3h-0.5c-6,0.1-19.9,0.9-20.1,6.4c-0.1,4.3,6,18.3,22.2,27.5c4.3,2.5,9.7,3.9,15.1,3.9
			c3.7,0,7.2-0.6,10.3-1.8c5.6-2.1,9.4-5.9,9.8-9.6c0.1-0.9,0-1.7-0.3-2.5c0.3,0.2,0.5,0.5,0.7,0.8c0.7,1.2,1.2,3.3,0.6,6
			c-0.7,2.5-2.6,6.3-8.4,9.7c-2.1,1.2-5.2,1.9-8.8,1.9c-12.2,0-30.1-7.2-35.7-16.9c-0.2-0.4-0.7-0.6-1.1-0.6c-0.1,0-0.3,0-0.4,0.1
			c-0.6,0.2-0.9,0.8-0.8,1.4c0.1,0.3,1.6,8.6,15.1,15.7c6.8,3.6,14.7,5.7,21.6,5.7c2.8,0,5.3-0.4,7.2-1c-0.7,2.8-3.1,7.2-11,7.5
			C184.8,202.1,184.3,202.1,183.8,202.1 M135.3,198.7c-0.2-0.1-0.5-0.1-0.8-0.1c-0.1,0-0.3-0.1-0.7-0.4l-0.5-0.6
			c-0.9-1-2-2.2-3.5-3.1c-1.4-0.9-4.1-2.1-5.4-2.1c-0.2,0-0.3,0-0.4,0.1c-0.7,0.2-4.3,1.3-5.8,2.1c-1.3,0.8-5.7,2.8-7.9,2.8
			c-0.5,0-0.6-0.1-0.6-0.1c-0.2-0.2-0.5-0.3-0.9-0.3c-0.1,0-0.1,0-0.1,0c0.1-0.3,0-0.6-0.2-0.8c0-0.1,0.3-0.4,0.9-0.7
			c1-0.4,2.7-0.8,4.3-1.2c2.3-0.5,4.6-1,6-1.8c2.5-1.3,3.8-4.4,3.5-8.5c0-0.3-0.1-0.5-0.1-0.8c-0.2-4.1-0.8-13.8-6-19.7
			c-0.7-0.8-1.4-1.5-2.2-2.3c-4.8-5.2-10.3-11-9.6-19.2c0.7-9.3,4.9-14.7,8.7-19.4l0.4-0.6c0.6-0.7,1.3-1.6,2-2.4
			c3.5-4.3,7.8-9.5,8.8-14.7c0.3,0,0.6,0.1,1,0.1c1.7,0,3.8-0.4,6.3-1.3c7.3-2.5,13.1-10.5,13-17.9c-0.1-7.6-3.6-14.5-8.7-17.1
			c-0.9-0.5-1.5-1-1.6-1.6c-0.2-1.1,1-2.6,1.8-3.6c0.2-0.3,0.4-0.5,0.6-0.7c1.3-1.7,13.1-19.3,15.9-28c2.4-7.6,4.4-13.3,7.6-15.2
			c0.7,1.4,1.6,4.8,0.1,11c-1,4.2-2.5,8.3-4.4,12.1c-2.7,0.3-5.2,1.5-7.1,3.4c-3.9,3.7-5.8,6.9-6,10.1c0,0.6,0.3,1.1,0.9,1.3
			c0.1,0.1,0.3,0.1,0.4,0.1c0.4,0,0.9-0.2,1.1-0.6c0-0.1,3.6-5.8,6.5-8.2c1.5-1.1,2.8-1.6,3.7-1.8c-0.3,1.8-0.9,4.9-2.3,7.1
			c-2.1,3.5-7.3,8.7-7.3,8.8c-0.4,0.4-0.5,1-0.2,1.5c0.2,0.4,0.7,0.7,1.1,0.7c0.1,0,0.2,0,0.3,0c0.4-0.1,4.3-1.1,9.3-8.3
			c0.7-0.2,2.2-0.7,4-0.7c0.3,0,0.6,0,0.9,0c-0.2,1.5-0.8,4.4-2.5,6.7c-2.6,3.8-8.5,7.4-8.6,7.4c-0.4,0.2-0.6,0.7-0.6,1.1
			c0,0.5,0.3,0.9,0.8,1.1c0.1,0.1,0.4,0.1,0.7,0.1c1.3,0,3.3-0.9,5.8-2.8c2.7-1.9,3.9-3.2,4.5-4c0.8,0,2.4,0.2,4,0.8
			c-0.3,1.9-1.9,7.5-12.3,11.7c-0.5,0.2-0.8,0.6-0.8,1.2c0,0.5,0.3,1,0.8,1.2c0.2,0.1,0.5,0.2,1.1,0.2c1.5,0,4.4-0.7,9.3-4
			c0.7,0,2.1,0.1,3.5,0.7c-0.7,2.1-2.2,3.9-4.1,5.1c-2.7,1.5-5.8,2.5-8.9,2.8c-0.6,0-1.1,0.5-1.2,1.2c0,0.6,0.4,1.2,1,1.3
			c0.1,0,0.7,0.1,2.2,0.1c0.8,0,1.7,0,2.7-0.1c1.2-0.1,2.5-0.2,3.7-0.4c1.2-0.2,2.3-0.3,3.3-0.3c0.3,0,0.6,0,0.9,0.1
			c-0.8,1.6-2.6,4.1-5.8,5.1c-1.6,0.5-3.3,0.8-5,0.9c-0.7,0-1.3-0.1-2-0.3c-0.4-0.2-1-0.1-1.3,0.2c-0.4,0.3-0.5,0.8-0.4,1.3
			c0.1,0.3,0.5,1.9,1.4,2.8c0,0.1,0.1,0.6-0.3,1.3c-0.3,0.5-1.3,1.9-3.7,2c-0.6,0-1,0.4-1.2,1c-0.1,0.3-0.3,1.6,0.1,2.6
			c0,0.3-0.9,1.4-4.8,1.8c-0.4,0-0.8,0.3-0.9,0.6c-0.4,0.6-0.6,1.4-0.5,2.1c-0.3,0.3-1.4,0.7-3.8,0.7h-0.7c-0.4,0-0.7,0.1-0.9,0.4
			c-0.5,0.5-0.8,1.1-0.9,1.7c-0.6,0.1-1.2,0.2-1.8,0.2c-0.7,0-1.4-0.1-2.2-0.1h-0.1c-0.5,0-1,0.3-1.2,0.7c0,0-1.9,4.3-5.6,9.6
			c-0.3,0.4-0.3,0.9,0,1.4l-0.1,0.1c-0.1,0.2-1.4,1.9-0.7,5.5c0.2,0.9,0.5,1.8,0.8,2.8c0.6,1.8,1.3,4,1.1,5.4c-1-0.4-2.6-1.3-4-3.7
			c-0.4-0.8-0.9-1.5-1.5-2.1c-0.2-0.3-0.6-0.4-0.9-0.4h-0.2c-0.4,0.1-0.8,0.4-1,0.8c-3.1,8-1.9,19.6,10,29.1c-6.7,1-7.1,2.5-7.3,3.1
			c-0.6,1.9-0.1,3.5,0.6,5.4c1.3,3.3,1.6,6.3,2.1,11.8l0.2,1.8c0.6,5.9,1.4,6.9,2.8,8.2l0.6,0.6c0.7,0.7,2,1.6,3.3,2.5
			c1.5,1,3.8,2.6,4.1,3.4c0.1,0.3,0.1,0.5,0.1,0.6C135.4,198,135.3,198.3,135.3,198.7 M100.9,146.7c-1-0.9-2-1.7-3-2.6
			c-3.2-2.6-6.9-5.5-4.8-15.1c2.1-9.7,13-15.4,13.2-15.4c0.6-0.3,0.8-1,0.6-1.6c-0.2-0.5-0.7-0.8-1.2-0.8c-0.1,0-0.3,0-0.4,0.1
			c0,0-0.2,0.1-0.4,0.1c3.9-1.9,7.8-5.5,9.2-8.5c0.7-1.5,0.7-2.8,0.3-4c-0.5-1.4-1.6-2.4-2.9-3c-0.4-1.3-1.6-3.6-4.5-4.2
			c-0.1,0-0.2,0-0.3,0c-0.4,0-0.9,0.2-1.1,0.6c-0.3,0.5-0.2,1.1,0.1,1.5c0.5,0.5,1.6,2.1,1.8,3.5c-0.8,0.5-1.6,1.1-2.3,1.7
			c-0.1-0.3-0.1-0.7,0-1c0.2-1.5-0.5-3.2-2.3-4.2c2-0.4,2.9-2.2,3.2-3.7c1.5-0.6,2.2-1.8,2.3-1.9c0.3-0.5,0.2-1.1-0.1-1.5
			c-0.2-0.3-0.6-0.4-0.9-0.4c-0.2,0-0.4,0-0.5,0.1c-1.3,0.5-2,0.7-4,0.9c-0.5,0.1-1,0.1-1.6,0.2c-0.7,0.1-1.4,0.3-2,0.6
			c0.6-0.7,1.4-1.3,2.3-1.8c0.2-0.1,0.3-0.2,0.4-0.3c0.2-0.2,0.9-0.9,0.9-1.9c0-0.9-1.1-3.8-1.7-4.8c-0.2-0.4-0.3-1-0.1-1.4
			c0.3-1,1.3-1.9,2.9-2.5h0.1c4.4-1.9,12.5-5.3,14.7-14.4c2-0.1,3.9-0.8,5.4-2.1c0.8-0.6,1.5-1.3,2.1-2c-0.4,3.1-1.6,6-3.5,8.5
			c-3.9,5.2-8.9,7.8-12.2,9.5c-0.6,0.3-1.2,0.6-1.7,0.9c-3.1,1.8-5.9,5.2-5.1,8.7c0.1,0.6,0.7,1,1.2,1c0.1,0,0.1,0,0.2,0
			c0,0,3.4-0.6,6.5-0.6c3.6,0,8.4-2.2,11.8-4.2c1.5-0.9,3-1.5,4.7-1.9c-0.5,0.3-1,0.6-1.6,0.7c-3.3,1-7.1,3.2-7.5,6.6
			c-1.8,0.3-4.7,1.1-5.6,2.7c-0.4,0.7-0.3,1.6,0.1,2.3c0.8,1.4,2.1,2.3,3.5,3.1c1.5,0.9,2.9,1.7,3.6,3.3c1.6,3.3-0.2,9.4-4.2,14.7
			c-1.2,1.6-2.4,3.1-3.6,4.6c-3.4,4.1-6.6,8-9.4,13.8c-2.1,4.4-3,9.2-2.7,14.1C100.7,145.4,100.8,146.1,100.9,146.7 M135.3,135.8
			c-1-0.2-3.4-1-5.3-4.7c-1.1-2.1-1.9-4.3-2.3-6.6c0.7,0.2,1.2,0.3,1.5,0.3h0c0.2,0,0.3,0,0.3,0c0.1,0,0.2,0,0.3-0.1
			c0.7-0.2,1.4-0.7,2-1.1c-0.1,0.8,0,1.9,0.4,3.2c0.2,0.8,0.7,1.8,1.2,2.9C134.2,131.2,135.8,134.8,135.3,135.8 M81,135.2
			c-0.5-0.3-1.2-1-1.3-1.6c-0.1-0.3,0.2-0.7,0.6-1.1c0.1-0.1,1-1,1.9-1.9c0,0,0,0,0,0c0.2,0.2,0.5,0.4,0.7,0.4
			c0.1,0,0.7,0.1,1.5,0.1c1.1,0,2.4-0.2,3.8-0.7c-0.1,0.8-0.2,1.5-0.2,2.3c-0.5,0-1.1,0.2-1.5,0.5C85,134.2,82.8,135.2,81,135.2
			 M144.4,133.5c-1.5,0-2.9-0.6-3.9-1.7c-3-2.8-4.8-6.8-5.5-8.7h0.4c0.6,0,1.2-0.1,1.7-0.2c0.1,0,0.1,0,0.1-0.1
			c0.7-0.3,1.3-0.7,1.8-1.2c0.2,1,0.6,2.4,1.8,3.9c0.3,0.4,0.7,0.8,1.1,1.3c2.1,2.4,3.8,4.8,3.2,6.7
			C144.9,133.5,144.7,133.5,144.4,133.5 M69.2,131.6c-0.3,0-0.7,0-1.1-0.1c0-0.9,0.3-2.4,1.4-3.4c1-0.9,1.9-1.7,2.6-2.3
			c0.1,0.3,0.2,0.5,0.3,0.7c0.2,0.4,0.5,0.6,0.9,0.7c0.1,0,0.8,0.1,1.9,0.1c1.4,0,3.4-0.2,5.4-0.9c0,0.1,0,0.1,0,0.2
			C79.4,128,74.9,131.6,69.2,131.6 M154.7,129.6c-2.8-0.2-5.4-1.4-7.4-3.3c-1.9-1.8-3.7-3.7-5.4-5.7c1.3-0.1,2.4-0.3,2.5-0.3
			c0.2-0.1,0.4-0.2,0.6-0.3c0.4-0.4,0.9-1.1,1.2-1.7c0.3,0.9,1.1,2.4,2.8,4l0.3,0.3C151.2,124.1,154.5,127,154.7,129.6 M84.8,127.2
			L84.8,127.2c-0.3-0.8-0.5-1.7-0.5-2.5c1.5-1.2,6-5.2,5.4-8.9c-0.1-0.6-0.5-1-1.1-1.1h-0.2c-0.5,0-0.9,0.3-1.1,0.7
			c-0.1,0.3-3.7,8.1-12,8.4c-0.2-0.8-0.5-2.2-0.3-3.8c2-0.9,6.8-3.6,6.9-6.9c0-0.5-0.3-1-0.8-1.2c-0.2-0.1-0.3-0.1-0.5-0.1
			c-0.3,0-0.7,0.1-0.9,0.4c0,0-5.4,5.5-10.8,5.5c-0.6,0-1.3-0.1-1.9-0.3c0.3-1.1,0.9-2.9,1.8-4.6c1.6-0.3,5.7-1.4,7.6-4.3
			c0.3-0.5,0.3-1.1-0.1-1.5c-0.2-0.3-0.6-0.4-0.9-0.4c-0.2,0-0.4,0.1-0.6,0.1c-0.1,0-4.8,2.4-9.2,2.6h-0.6c-2.2,0-3.9-0.7-5.3-2.3
			c0.8-1.6,2.3-2.8,4-3.3c0.6,0.1,2,0.3,3.7,0.3c2.3,0,4.3-0.4,5.7-1.2c0.6-0.4,0.8-1.1,0.5-1.8c-0.2-0.4-0.6-0.6-1.1-0.6h-0.1
			c0,0-0.7,0.1-1.8,0.1c-2,0-4.9-0.1-7.4-0.8c-4-1.1-6.1-2.6-6.6-4.8c0.5-0.5,1.7-1.6,4.6-1.6c0.6,0,1.2,0,1.8,0.1
			c0.9,0.6,3.7,2.2,6.9,2.2c0.6,0,1.2-0.1,1.7-0.2c0.6-0.1,1-0.6,1-1.2c0-0.6-0.3-1.1-0.9-1.3c-0.1,0-6.1-1.8-10.1-5.4
			c-2.4-2.1-3.5-4.8-3.7-6.1c0.7-0.3,2-0.7,3.5-0.7c0.4,0,0.9,0,1.3,0.1c1,1.7,4.3,6.7,9.5,6.8h0c0.6,0,1.1-0.4,1.3-1
			c0.1-0.6-0.2-1.2-0.8-1.4c0,0-4.7-2-7.2-7.4c-1.3-2.7-2.1-5.7-2.1-8.7c0.3,0,0.5-0.1,0.8-0.1c1.4,0,3.2,0.3,3.9,1.5
			c0.3,1.2,2,7.8,6.4,9.4c0.1,0.1,0.3,0.1,0.5,0.1c0.4,0,0.8-0.2,1-0.5c0.3-0.5,0.3-1.1-0.1-1.5c0-0.1-3-3.8-4.1-9.2
			c-0.7-3.5-0.5-7,0.6-10.4c1.1,0.4,2.9,1.5,4,3.9c0,1.8,0.2,8,3,10c0.2,0.1,0.5,0.2,0.7,0.2s0.5-0.1,0.7-0.2
			c0.4-0.3,0.6-0.9,0.5-1.4c0-0.1-2.4-8.7-0.1-16.9c0.3-1.3,0.9-3,1.9-4.4c1,0.6,2.6,1.8,3.2,3.7c-0.2,2.4-0.5,9.2,2.5,11
			c0.4,0.3,1,0.2,1.4-0.1c0.4-0.3,0.6-0.8,0.5-1.3c0-0.1-2-8.2,0.8-15.8c0.5-1.3,1.3-2.8,2.2-3.8c1.3,1.1,2.8,2.7,3.2,3.9
			c-0.4,1.7-1.7,8.1,0.3,11.5c0.2,0.4,0.7,0.6,1.1,0.6c0.1,0,0.2,0,0.3-0.1c0.6-0.1,1-0.6,0.9-1.2c0-0.1-0.1-8.7,2.3-15.4
			c0.6-1.7,1.6-3.3,2.9-4.6c0.5,1.1,1,3,1.1,5.3c0.2,4.3-0.3,8.1-0.3,8.1c-0.1,0.6,0.3,1.2,0.9,1.4c0.1,0,0.2,0,0.3,0
			c0.5,0,1-0.3,1.2-0.8c0.1-0.3,2.9-7.9,0.7-14.2c-1.4-4-1.2-4.5-0.4-7.5l0.1-0.3c1.1-4,7.8-14.7,15.6-18.2c0.1,1.1-0.1,3.1-1.8,5.9
			l-1.4,2.1c-4,6.2-10.7,16.4-11.3,28.6c-0.7,13.4-0.9,15.2-5.2,17.4c-0.9,0.5-1.8,0.9-2.7,1.3c-6.6,3.1-19,8.9-22.9,19.1
			c-4.6,12,1.7,22.6,6.3,24.9c2.9,1.4,6.3,2.2,9.8,2.2c2.5,0,5-0.4,7.2-1.1c-2.1,0.9-4,2-5.8,3.3c-2.7,2.1-5.9,5.2-7.6,10.2
			C88.6,126.3,87.1,127.2,84.8,127.2 M59.9,124.9c-1,0-2-0.1-2.8-0.5c0.4-1.4,1.7-4.4,6-5.9c0,0.3-0.1,0.5-0.1,0.8
			c0,0.4,0.2,0.7,0.5,1c0.1,0.1,1.7,1.3,5,1.3c0.9,0,1.7-0.1,2.7-0.2v0.6c-2.8,1.3-5.8,2.3-8.8,2.8
			C61.5,124.8,60.6,124.9,59.9,124.9 M163.2,124.4c-1.6,0-4.2-0.4-7.5-2.3c-2.4-1.4-4.7-3.1-6.8-5c1.7-0.4,2.9-1.1,3-1.1
			c0.2-0.1,0.4-0.3,0.5-0.5c0.1-0.3,0.2-0.5,0.3-0.8c0.5,0.8,1.4,1.8,3.2,2.8c0.4,0.3,0.9,0.5,1.5,0.8c2.4,1.3,6.7,3.7,7.2,6
			C164.2,124.4,163.7,124.4,163.2,124.4 M169.7,116.7c-0.7,0-1.5-0.1-2.3-0.1c-5-0.6-9.7-2.7-12-3.7c1.8-0.7,2.5-1.7,2.6-1.9
			c0.4-0.7,0.6-1.4,0.7-2.2c0.7,0.8,2.4,2.3,6.2,2.8c2.8,0.4,8.5,1.3,10.4,3.7C174.5,115.9,172.8,116.7,169.7,116.7 M56.9,114.4
			c-1.3,0-2.4-0.1-3.5-0.2c-3.2-0.4-4.8-1.8-5.5-2.6c0.9-1,3.2-2.8,8.3-2.9c0.9,1.3,3.2,4,8.3,4.4l-0.3,0.8
			C61.7,114.2,59.3,114.4,56.9,114.4 M168.4,106.9c-2.7,0-5.3-0.1-6.9-0.3c0.8-0.5,1.4-1.2,1.9-2c0.3-0.7,0.4-1.5,0.2-2.3h0.2
			c3.4,0,9.9-0.1,14.5-1.1c1.3-0.3,2.5-0.4,3.5-0.4c1.4,0,2.1,0.3,2.5,0.5c-0.7,1.1-2.6,3.6-7,4.7
			C175.1,106.6,172.1,106.9,168.4,106.9 M57.4,103.3c-2.5-0.6-10.7-3-14.1-8c0.7-0.5,2.1-1,4.3-1c1.6,0,3.5,0.3,5.4,1
			c0.2,1.6,1.2,4.6,5.8,6.9C58.4,102.5,57.9,102.9,57.4,103.3 M95.5,98.4c-0.2-0.4-0.6-0.6-1.1-0.6c-0.5,0-0.9-0.4-0.9-0.9
			c0,0,0,0,0,0c0-0.1,0-0.3,0.1-0.4c0.3-0.5,0.1-1.1-0.3-1.5c-0.2-0.2-0.5-0.3-0.8-0.3c-0.3,0-0.5,0.1-0.7,0.2
			c-0.5,0.3-0.9,0.7-1.3,1.1c0-0.4,0.1-0.7,0.2-1.1c0.5-1.7,1.8-2.3,3.7-2.9c0.6-0.2,1.2-0.4,1.7-0.7c0.4-0.2,0.7-0.5,1-0.7
			c0,0.4,0.1,0.7,0.1,0.8c0.1,0.4,0.5,0.7,0.9,0.8c0.1,0,0.2,0,0.3,0c0.2,0,0.4-0.1,0.6-0.1c0.1,0.2,0.3,0.5,0.5,0.7l0.1,0.1
			c-0.3,0-0.5,0-0.8,0c-1.5,0-3,0.3-4.4,0.7c-0.5,0.2-0.9,0.7-0.9,1.2c0,0.6,0.4,1.1,1,1.2c0.4,0.1,0.7,0.5,0.7,0.9
			c0,0.1,0,0.1,0,0.2c-0.1,0.4,0,0.9,0.3,1.2L95.5,98.4 M100.5,96.1c0-0.1,0.1-0.2,0.2-0.3c0,0.1,0.1,0.1,0.1,0.2L100.5,96.1
			 M168.5,91c1-1.3,2-3,2.5-5v-0.1c2.5-0.4,6.2-1.2,9.4-2.5c3.2-1.4,5.3-1.7,6.5-1.7c0.6,0,1,0.1,1.3,0.2c-0.7,1.6-2.7,5.1-8.5,7
			C176.1,89.9,172.4,90.7,168.5,91 M55.5,90.8c-2.4-1.3-10.4-6.2-10.9-12.6c0.3-0.1,0.7-0.1,1.1-0.1c2,0,5.1,0.8,8.8,4.7
			c0.3,1.1,1.2,4.2,3.9,7C57.4,89.9,56.4,90.2,55.5,90.8 M168.7,82.5c1.3-1.5,2.3-3.3,2.7-5.2c1.7-0.9,6.5-3.5,9.6-5.6
			c3.2-2.1,5.2-2.6,6.4-2.6c0.1,0,0.2,0,0.3,0c-0.4,1.7-2,5.5-7.6,8.7C176.5,79.9,172.7,81.4,168.7,82.5 M56.6,77.7
			c-1.6-2.5-5.7-9.9-4.7-16.5c1.7,0.4,5.4,2.1,8,8.4c0,0.9,0,3.7,1.3,7.3C59.6,77,58,77.2,56.6,77.7 M168.7,73.9
			c-0.5-0.2-1.1-0.4-1.7-0.6c1.1-1.5,2.3-3.9,2.6-7.1c1.3-1,5.1-4.1,7.4-6.2c0.3-0.3,0.7-0.7,1-1c2-2,4.2-4.1,6.7-4.5
			c0.1,1.5-0.1,4.9-3.8,9.3C177.3,68.3,170.7,72.6,168.7,73.9 M67.7,65.7c-1.2-0.3-2.5-0.5-3.8-0.5c-0.3,0-0.5,0-0.7,0
			c-0.8-4.8-1.8-14.6,0.4-19.4c1.6,1.1,4.6,4.1,5.5,10.5C68.6,57.3,67.6,60,67.7,65.7 M167,62.7c-0.9-0.3-1.8-0.6-2.7-0.7
			c1-2.3,1.5-4.8,1.5-7.4c0.8-0.8,2.5-2.6,3.5-3.9c0.5-0.5,3.7-4,5.7-6.8c1.5-2.1,3.1-2.7,4.2-2.9c0.3,1.6,0.4,5.1-2.3,9.5
			C173.6,55.7,168.7,60.9,167,62.7 M77,56.6c-1.1-1-2.5-1.8-3.9-2.3c-0.1-2.8,0.1-11.2,2.5-17c0.5-1.3,1.6-3,2.8-4.3
			c1.1,1.7,3,5.7,2.6,13.4C80.1,47.5,77.9,50.7,77,56.6 M158.8,52.1c0.6-2,1.4-5,1.3-7.3c0.8-1.1,3.1-4.5,4-7.8
			c0.3-0.7,2.9-6.1,7.6-6.9c0.1,1.6,0,5.3-3.4,12.2c-2.8,5.8-4.7,8.7-5.5,9.7c-0.6,0-1.2-0.1-1.8-0.1C160.2,52,159.4,52,158.8,52.1
			 M87.5,48c-0.8-0.8-1.7-1.5-2.8-2.1c0.4-3.4,1.9-15.4,7.5-21.1c0.9,1,2.2,3.4,1.5,8.1c-0.2,0.7-1.5,4.8-1.9,7
			C91,40.8,88.7,43.5,87.5,48 M98.1,42.2c-0.7-0.9-1.5-1.6-2.4-2.3c0.5-2.4,2.2-9.2,4.7-14.6c2.1-4.5,4.7-6.5,5.9-7.3
			c0.6,1,1.4,3,1.4,5.7c-0.8,1.2-3.4,5.7-3.9,10.3C101.2,36.1,99.2,38.9,98.1,42.2"/>
		<path class="st1" d="M100.9,89.7c0,0,0.8-0.4,3.2-0.7c0,0-0.4,2.3-1.7,2.5C101.1,91.7,100.7,90.4,100.9,89.7"/>
		<path class="st1" d="M100.9,89.7c0,0,0.8-0.4,3.2-0.7c0,0-0.4,2.3-1.7,2.5C101.1,91.7,100.7,90.4,100.9,89.7 M148.4,228.2
			c-2,0-3.7,1.7-3.7,3.7c0,2,1.7,3.7,3.7,3.7c2,0,3.7-1.7,3.7-3.7C152.1,229.8,150.4,228.1,148.4,228.2L148.4,228.2 M148.4,234.8
			c-1.6,0-3-1.4-3-3c0-1.6,1.4-3,3-3c1.6,0,3,1.4,3,3C151.4,233.5,150.1,234.8,148.4,234.8 M149.3,231.9L149.3,231.9
			c0.5-0.2,0.8-0.6,0.8-1.1c0-0.3-0.1-0.7-0.4-0.9c-0.3-0.2-0.8-0.3-1.4-0.3c-0.5,0-1,0.1-1.3,0.1v4.3h1v-1.7h0.3
			c0.4,0,0.6,0.2,0.7,0.7c0.1,0.3,0.2,0.7,0.3,1h1c-0.1-0.2-0.2-0.7-0.4-1.2C149.8,232.3,149.5,232,149.3,231.9 M148.3,231.5h-0.4
			v-1.2c0.1,0,0.2,0,0.4,0c0.5,0,0.7,0.2,0.7,0.6C149,231.2,148.8,231.5,148.3,231.5 M108.4,167.3c-0.7,4.9-1.4,6.2-1.4,6.2
			s-1.1-4.9-20.2-3.9c-22.3,1.2-42.7,3.2-43.4-8.2c0,0-0.1-3.6,3.1-9c1.2-2,2.9-3.8,5-4.7c0.6,2.1,3.2,5.8,13.2,5.5
			c14.2-0.5,43.7-2.8,43.9,7.9C108.6,161.2,108.7,165,108.4,167.3 M55.6,156.6c-1.7-0.3-2.8,1.5-3.2,3.6c-0.3,2.1,0.1,4.1,1.9,4.4
			c1.5,0.2,2.7-0.8,3.1-3.8C57.7,159.1,57.5,156.9,55.6,156.6 M55.4,157.9c0.7,0.1,0.7,1.4,0.5,2.8c-0.3,1.6-0.7,2.7-1.3,2.6
			c-0.6-0.1-0.8-1-0.6-2.8C54.3,158.8,54.8,157.9,55.4,157.9 M58.4,157.1L58,162c-0.1,2,0.4,3.2,2,3.3c1.5,0.1,2.4-0.9,2.5-2.9
			l0.4-4.8l-1.5-0.1l-0.4,5.1c-0.1,1.2-0.4,1.5-0.9,1.4c-0.4,0-0.7-0.4-0.6-1.6l0.4-5.1L58.4,157.1z M63.7,165.4l1.5,0.1l0.1-3.2
			h0.2c0.5,0,0.7,0.3,0.9,1.3c0.1,0.9,0.2,1.7,0.3,1.9l1.6,0.1c-0.2-0.7-0.4-1.4-0.5-2.2c-0.1-0.8-0.4-1.3-0.9-1.6
			c0.8-0.3,1.3-1.1,1.3-1.9c0-0.7-0.1-1.2-0.6-1.7c-0.5-0.5-1.2-0.6-2.1-0.7c-0.6,0-1.2,0-1.7,0.1L63.7,165.4z M65.4,158.8
			c0.1,0,0.2-0.1,0.4,0c0.7,0,0.9,0.5,0.9,1.2c0,0.7-0.4,1.2-1.1,1.2l-0.3,0L65.4,158.8z M71,165.6l1.5,0l-0.1-2.9h0.3
			c0.7,0,1.4-0.3,1.9-0.8c0.5-0.5,0.7-1.2,0.6-1.9c0-0.7-0.2-1.3-0.7-1.7c-0.5-0.5-1.2-0.6-2.1-0.6c-0.6,0-1.2,0.1-1.6,0.2L71,165.6
			z M72.5,158.9c0.1-0.1,0.2-0.1,0.4-0.1c0.7,0,1,0.5,1,1.2c0,0.7-0.3,1.3-1.1,1.3c-0.1,0-0.2,0-0.2,0L72.5,158.9z M76.4,165.5
			l1.5-0.1l-0.1-3.2H78c0.5,0,0.8,0.2,0.9,1.2c0.2,0.9,0.4,1.7,0.5,1.9l1.6-0.1c-0.2-0.7-0.4-1.4-0.6-2.1c-0.2-0.9-0.5-1.3-1-1.5
			c0.8-0.4,1.2-1.2,1.1-2.1c0-0.7-0.2-1.2-0.7-1.6c-0.5-0.5-1.3-0.5-2.1-0.5c-0.6,0-1.1,0.1-1.7,0.2L76.4,165.5z M77.6,158.7
			c0.1,0,0.2-0.1,0.4-0.1c0.7,0,1,0.5,1,1.1c0,0.7-0.3,1.3-1,1.3l-0.3,0L77.6,158.7z M81.7,157.3l0.2,7.9l1.5-0.1l-0.2-7.9
			L81.7,157.3z M84.8,165.1c0.3,0,0.8,0.1,1.3,0.1c1.1,0,1.9-0.2,2.4-0.7c0.7-0.6,1.1-1.7,1.1-3.3c0-1.5-0.3-2.6-1-3.2
			c-0.5-0.5-1.2-0.7-2.2-0.7c-0.6,0-1.2,0.1-1.6,0.1L84.8,165.1z M86.4,158.5c0.1,0,0.2,0,0.3,0c0.9,0,1.3,1,1.3,2.6
			c0,2.2-0.7,2.9-1.4,2.9c-0.1,0-0.2,0-0.3,0L86.4,158.5z M94.2,160.7l-1.8-0.1l0.1-1.8l1.9,0.1l0.1-1.3l-3.4-0.2l-0.4,7.9l3.6,0.2
			l0.1-1.3l-2-0.1l0.1-2.1l1.8,0.1L94.2,160.7z"/>
	</g>
</g>
<g id="레이어_1">
</g>
</svg>
