<?xml version="1.0" encoding="utf-8"?>
<!-- Generator: Adobe Illustrator 25.1.0, SVG Export Plug-In . SVG Version: 6.00 Build 0)  -->
<svg version="1.1" xmlns="http://www.w3.org/2000/svg" xmlns:xlink="http://www.w3.org/1999/xlink" x="0px" y="0px"
	 viewBox="0 0 250 250" style="enable-background:new 0 0 250 250;" xml:space="preserve">
<style type="text/css">
	.st0{fill:#FFFFFF;}
	.st1{fill:#002856;}
	.st2{fill:#E74E0F;}
	.st3{fill:none;}
</style>
<g id="Layer_1">
	<g>
		<g>
			<path class="st0" d="M209.6,168.8c0,2.9-1.4,5.5-3.8,7.1c-4.2,2.8-5.4,3.6-5.8,3.9l-7.2,4.9v0.4c0,6.9-3.4,13.3-9.1,17.2L125,242
				l-58.6-39.6c-5.7-3.8-9.1-10.3-9.1-17.2v-0.4l-7.2-4.9l0,0c-0.4-0.3-1.7-1.1-5.8-3.9c-2.4-1.6-3.8-4.3-3.8-7.1V24.2
				c0-2.9,1.4-5.5,3.8-7.1l5.8-3.9L57.6,8l2.7,3.8h129.4l2.7-3.8l7.6,5.1l5.8,3.9c2.4,1.6,3.8,4.3,3.8,7.1V168.8z"/>
		</g>
		<g>
			<path class="st1" d="M129.6,43.2h12.6v-4.1H134v-7.4h7v-4.1h-7v-7.4h8.3v-4.1h-12.6V43.2z"/>
		</g>
		<g>
			<path class="st1" d="M168.7,29.2l-3.9-12.6l-0.1-0.5h-4.2v27h4.3V30l4.1,13.1h4.2v-27h-4.4V29.2z"/>
		</g>
		<path class="st1" d="M107.3,27.6h-3.9v-7.4h3.9V27.6z M110.6,17.2c-0.7-0.7-1.6-1-2.7-1h-5.3c-1,0-1.9,0.3-2.6,1
			c-0.7,0.6-1.1,1.5-1.1,2.4v23.6h4.3V31.7h4v11.5h4.3V19.5C111.6,18.7,111.3,17.9,110.6,17.2L110.6,17.2z"/>
		<g>
			<path class="st1" d="M125.9,29.7c-0.6-0.6-1.4-1-2.4-1.3l-4.5-1.4c-0.1,0-0.2-0.1-0.3-0.3c-0.1-0.2-0.2-0.4-0.2-0.5v-6h3.9v3.7
				h4.3v-4.4c0-1-0.4-1.8-1.1-2.4l0,0c-0.7-0.6-1.6-1-2.5-1h-5.3c-1,0-1.8,0.3-2.5,1c-0.7,0.7-1,1.5-1,2.4v7.6c0,0.9,0.3,1.7,1,2.4
				l0,0c0.6,0.6,1.4,1.1,2.4,1.4l4.5,1.4c0.1,0,0.2,0.1,0.3,0.3c0.1,0.2,0.1,0.3,0.1,0.4v6.1h-3.9v-3.7h-4.3v4.4
				c0,0.9,0.4,1.7,1,2.4l0,0c0.7,0.6,1.6,0.9,2.5,0.9h5.3c0.9,0,1.8-0.3,2.5-0.9c0.7-0.6,1.1-1.5,1.1-2.4v-7.7
				C126.9,31.2,126.6,30.4,125.9,29.7L125.9,29.7z"/>
		</g>
		<g>
			<path class="st1" d="M153.4,39.1h-4.1V20.2h4.1V39.1z M156.6,17.2c-0.7-0.7-1.5-1-2.5-1h-5.5c-1,0-1.8,0.3-2.5,1
				c-0.7,0.6-1.1,1.4-1.1,2.4v20.2c0,0.9,0.3,1.7,1,2.4l0,0c0.7,0.7,1.6,1.1,2.6,1.1h5.5c1,0,1.9-0.4,2.6-1.1l0,0
				c0.6-0.7,1-1.5,1-2.4V19.5C157.7,18.6,157.3,17.8,156.6,17.2"/>
		</g>
		<g>
			<path class="st1" d="M187.3,17.2c-0.7-0.7-1.6-1-2.6-1h-5.3c-0.9,0-1.8,0.3-2.5,0.9l0,0c-0.7,0.6-1.2,1.6-1.1,2.5v20.1
				c0,1,0.4,1.9,1.1,2.6l0,0c0.8,0.6,1.6,0.9,2.5,0.9h5.3c1,0,1.8-0.3,2.6-1c0.7-0.7,1.1-1.5,1.1-2.5v-12H182v4.1h2.1v7.4h-4V20.2h4
				V24h4.3v-4.4C188.4,18.6,188,17.8,187.3,17.2"/>
		</g>
		<g>
			<path class="st1" d="M90.5,31.7l-2-15.5l0-0.1h-3.6l-2,15.6l-2-15.5l0-0.1h-4.5l4,27H85l1.7-11.9l1.7,11.9H93l4-27h-4.5
				L90.5,31.7z"/>
		</g>
		<g>
			<path class="st1" d="M69.9,27.6h-4V16.2h-4.3v27h4.3V31.7h4v11.5h4.3v-27h-4.3V27.6z"/>
		</g>
		<g>
			<path class="st1" d="M125,219.1l-63.4-49.3v15.4c0,5.4,2.7,10.5,7.2,13.6l56.2,38l56.2-38c4.5-3,7.2-8.1,7.2-13.6v-15.4
				L125,219.1z"/>
		</g>
		<g>
			<path class="st1" d="M125,161.9l23.8,16.1v-9.6L125,152.4l-23.8,16.1v9.6L125,161.9z"/>
		</g>
		<g>
			<path class="st2" d="M137.6,207.2l-3.6,2.4l-3.6,2.4l-3.6,2.4v-4.3l3.6-2.4l3.6-2.4v-8.7l3.6-2.4v8.7l3.6,1.9L137.6,207.2z
				 M123.2,175.6v13l-3.6-2.4v-11.4l1.2-0.8l2.5-1.7V175.6z M123.2,214.6L123.2,214.6l-3.6-2.4l-3.6-2.4l-3.6-2.4l-3.6-2.4l3.6-1.9
				v-8.7l3.6,2.4v8.7l3.6,2.4l3.6,2.4V214.6z M126.8,184.2v-11.9l2.5,1.7l1.2,0.8v11.4l-3.6,2.4V184.2z M171.4,89.1h17V52.7h-57.9
				v89.4l18.3,12.4v-28.8h21.2v40.7c0,3.9-1.9,7.5-5.1,9.6l-16.1,10.9l-5.6,3.8v-4.6l-2,1.4l-3.6,2.4l-3.3,2.2l-3.9,2.7v8.6
				l-3.6,2.4v-13l3.6-2.4l3.6-2.4v-10.9l1.6,1.1l2,1.3v6l3.6-2.4l7.6-5.1L125,161.9L101.2,178l10.7,7.2l0.5,0.3v-6l2-1.3l1.6-1.1
				V188l3.6,2.4l3.6,2.4v13l-3.6-2.4v-8.6l-3.6-2.4l-3.6-2.4l-3.6-2.4l-2-1.4v4.6l-5.6-3.8L85,176c-3.2-2.2-5.1-5.8-5.1-9.6v-40.7
				h21.2v28.8l18.3-12.4V52.7h-17c-0.7,0-1.3,0.6-1.3,1.3v53.3H79.9V54c0-0.7-0.6-1.3-1.3-1.3c0,0,0,0,0,0h-17v121.1
				c0,5.4,2.7,10.5,7.2,13.6l56.2,38h0l56.2-38c4.5-3,7.2-8.1,7.2-13.6v-66.5h-39.6V71h21.2v16.8C170.1,88.5,170.7,89.1,171.4,89.1
				C171.4,89.1,171.4,89.1,171.4,89.1"/>
		</g>
		<g>
			<path class="st1" d="M205.3,92.4V24.2c0-1.4-0.7-2.7-1.9-3.5l-5.8-3.9l-0.8-0.6v160.7l0.8-0.6l5.8-3.9c1.2-0.8,1.9-2.1,1.9-3.5
				v-68.2l-4.1-4.1L205.3,92.4z"/>
		</g>
		<g>
			<path class="st1" d="M44.7,92.4V24.2c0-1.4,0.7-2.7,1.9-3.5l5.8-3.9l0.8-0.6v160.7l-0.8-0.6l-5.8-3.9c-1.2-0.8-1.9-2.1-1.9-3.5
				v-68.2l4.1-4.1L44.7,92.4z"/>
		</g>
	</g>
</g>
<g id="레이어_1">
	<rect x="8" y="8" class="st3" width="234" height="234"/>
</g>
<g id="_레이어_2">
</g>
</svg>
