<?xml version="1.0" encoding="utf-8"?>
<!-- Generator: Adobe Illustrator 25.1.0, SVG Export Plug-In . SVG Version: 6.00 Build 0)  -->
<svg version="1.1" xmlns="http://www.w3.org/2000/svg" xmlns:xlink="http://www.w3.org/1999/xlink" x="0px" y="0px"
	 viewBox="0 0 250 250" style="enable-background:new 0 0 250 250;" xml:space="preserve">
<style type="text/css">
	.st0{fill:#FFFFFF;}
	.st1{fill:#1E1C1E;}
	.st2{fill:none;}
</style>
<g id="Layer_1">
	<g>
		<path class="st0" d="M128.7,30c-18.3,0-36.1,5.2-51.4,15.1c-14.9,9.6-26.8,23.1-34.4,39c-7.9-4.5-16-9.7-24.3-15.6l-5.1-3.6
			l5.2,29.1l1.1,0.6c5.4,2.9,10.9,5.6,16.5,8.2l-0.1,0.5c-1.7,7.2-2.5,14.5-2.5,21.8c0,52.4,42.6,95,95,95c52.4,0,95-42.6,95-95
			C223.7,72.6,181.1,30,128.7,30"/>
		<path class="st1" d="M128.1,152.2l-7.2,7.3L119,160l13,22l6.4-1.7l6.7,0.7l0.2-0.8l-7-1.9l-4.3,0.5l-9.2-16.1l18.7-10.4
			C138.2,153,128.6,152.2,128.1,152.2"/>
		<path class="st1" d="M103.1,160.1l-1.8,0.6l13,21.3l6.4-1.7l6.7,0.7l0.2-0.8l-7-1.9l-4.3,0.5l-9.2-16.1l19.1-10.8
			c-4.4-0.5-8.3-1.3-12.2-2.6 M152.8,147.8c-0.1,0-0.2,0-0.3,0c-1.3,0.1-3.1,0.2-5.1,0.2c-9.6,0-25-1.8-25.1-9.9
			c-0.1-5.6,12.3-12.2,17-14.1c1-0.4,1-0.7,0.3-0.7c-0.2,0-0.5,0-0.9,0.1c-18.6,3.4-33.1,4.1-41.6,4.1c-5.5,0-8.5-0.3-8.5-0.3
			s6.6,14,27.2,20.1c2.3,0.7,4.6,1.2,6.9,1.6c2.4,0.4,4.9,0.8,7.7,1c2,0.1,4,0.2,5.9,0.2c6.2,0,11.6-0.7,16.6-1.8
			C153.4,148.3,153.6,147.8,152.8,147.8"/>
		<path class="st1" d="M191.6,105.9c0,0-0.9,3-2.4,2.1c-1.1-0.7-2.1-1.9-4.3-2.3c-0.6-0.1-1-0.3-1.1-0.3c-0.4-0.1,0-0.1,0-0.1h8.9
			L191.6,105.9z M212.5,107.8c-4.9-2.6-13.7-2.9-13.7-2.9c-8.7-6.9-19.8-2.9-22.5-2C128.8,117.6,81.4,116,17.1,70.5L21,92.2
			c43.9,23.7,78.8,26.1,78.8,26.1l0.4,0.5c-10,0.8-36-3.9-51.7-11.5l3.6,11.5c40.9,12.6,76.3,3.3,84.7,2.3c10-1.2,30-4.5,34.2,6.5
			c3.7,9.6-11.2,17.4-15.8,19.6c-0.7,0.3-0.2,0.6,0.2,0.5c28.6-7.2,43.9-34.5,43.9-34.5c1.8-2,11.2-4.5,13.2-5.1
			c0.2-0.1,0.5-0.1,0.5-0.1C213.1,108,212.7,107.9,212.5,107.8 M122.5,48.2l1.2-0.1l-0.7-1.6 M112.4,52.1c0-0.2-0.1-0.4-0.3-0.6
			c-0.1-0.2-0.3-0.3-0.5-0.4c-0.2-0.1-0.4-0.2-0.7-0.2c-0.3,0-0.7,0-1.1,0.1h0l0.8,3.1c0,0,0.1,0,0.1,0c0.1,0,0.2,0,0.3,0
			c0,0,0.1,0,0.1,0c0,0,0,0,0,0c0,0,0.1,0,0.1,0c0.2-0.1,0.4-0.2,0.6-0.2c0.2-0.1,0.3-0.2,0.4-0.3c0.1-0.1,0.2-0.2,0.2-0.4
			c0-0.2,0-0.5-0.1-0.8 M110.3,48.8L110.3,48.8c0.1-0.1,0.2-0.2,0.2-0.3c0-0.1,0-0.3,0-0.5l0-0.1l0-0.1l0-0.1
			c-0.1-0.3-0.3-0.5-0.4-0.6c-0.1-0.1-0.2-0.2-0.4-0.2h0c-0.2,0-0.3,0-0.5,0c-0.1,0-0.2,0-0.3,0l0.6,2.3c0.2-0.1,0.3-0.1,0.4-0.2
			C110,49,110.2,48.9,110.3,48.8 M79.1,68.5c-0.2-0.4-0.5-0.8-0.8-1.1l-0.2-0.2c0,0-0.1,0-0.1-0.1l0,0c0,0-0.1,0-0.1-0.1l0,0
			c-0.4-0.3-0.7-0.5-1.2-0.7c-0.4-0.2-0.9-0.3-1.4-0.4c-0.4-0.1-0.8-0.1-1.2,0c-0.4,0.1-0.7,0.3-1,0.5c-0.2,0.2-0.4,0.5-0.5,0.9
			c-0.1,0.4-0.2,0.8-0.2,1.2c0,0.4,0.1,0.9,0.3,1.2c0.2,0.4,0.5,0.9,0.9,1.3l0.2,0.2c0.4,0.4,0.8,0.8,1.3,1c0.4,0.2,0.9,0.3,1.4,0.4
			c0.4,0,0.8,0,1.2-0.1c0.3-0.1,0.7-0.3,1-0.5c0.3-0.3,0.4-0.6,0.5-0.9c0.1-0.3,0.1-0.7,0.1-1.1C79.4,69.4,79.3,68.9,79.1,68.5
			 M90.2,58.9l-0.1-0.2c0,0,0,0-0.1-0.1l0,0c0,0,0-0.1-0.1-0.1l0,0c-0.3-0.4-0.6-0.7-1-1c-0.4-0.3-0.8-0.5-1.3-0.7
			c-0.4-0.1-0.8-0.2-1.2-0.2c-0.4,0-0.8,0.1-1.1,0.3c-0.3,0.2-0.5,0.5-0.6,0.8c-0.2,0.3-0.3,0.7-0.4,1.1c-0.1,0.4-0.1,0.9,0,1.3
			c0.1,0.5,0.3,0.9,0.7,1.4l0.1,0.2c0.3,0.5,0.7,0.9,1.1,1.2c0.4,0.3,0.8,0.5,1.3,0.6c0.3,0.1,0.7,0.1,1,0.1c0.1,0,0.2,0,0.3,0
			c0.4,0,0.7-0.1,1-0.3c0.3-0.2,0.5-0.5,0.7-0.8c0.2-0.3,0.3-0.7,0.3-1.1c0-0.5,0-0.9-0.1-1.4C90.6,59.7,90.4,59.3,90.2,58.9
			 M196.6,82c0-0.2-0.1-0.3-0.2-0.4c0-0.1-0.1-0.2-0.1-0.3l-2,1.3c0.1,0.1,0.2,0.2,0.3,0.3c0.1,0.1,0.3,0.2,0.4,0.3l0,0
			c0.1,0.1,0.2,0.1,0.4,0.1c0.2,0,0.3-0.1,0.4-0.2l0.1-0.1l0,0l0.1,0c0.2-0.2,0.4-0.4,0.5-0.6C196.6,82.2,196.6,82.1,196.6,82
			 M192.8,83.4L192.8,83.4l-2.7,1.7c0,0,0,0,0,0.1c0,0.1,0.1,0.2,0.1,0.3c0,0,0,0.1,0.1,0.1c0,0,0,0.1,0.1,0.1
			c0.1,0.2,0.3,0.3,0.4,0.5c0.1,0.1,0.3,0.2,0.4,0.3c0.1,0.1,0.3,0.1,0.5,0.1c0.2,0,0.4-0.1,0.7-0.3l0.2-0.1
			c0.2-0.1,0.3-0.3,0.5-0.4c0.1-0.2,0.2-0.4,0.3-0.6c0-0.2,0-0.4,0-0.7C193.2,84.2,193,83.8,192.8,83.4 M184.8,177.8l1.4-1.6
			l-2.9-1.2 M89.9,185.7c-0.2-0.5-0.6-0.9-1.1-1.3l0,0c-0.4-0.2-0.9-0.4-1.5-0.4c-0.6,0-1.2,0-1.7,0.1c-0.6,0.1-1.2,0.4-1.7,0.8
			c-0.5,0.4-1.1,1-1.5,1.7l-0.2,0.3c-0.5,0.7-0.8,1.5-1,2.2c-0.2,0.7-0.2,1.4-0.1,2.2c0.1,0.7,0.3,1.2,0.6,1.7
			c0.3,0.5,0.6,0.9,1,1.2c0.5,0.3,1,0.4,1.5,0.5c0.5,0,1.1,0,1.7-0.3c0.6-0.2,1.2-0.5,1.8-0.9c0.5-0.4,1-0.9,1.4-1.5l0.2-0.3
			c0,0,0-0.1,0-0.1l0-0.1c0,0,0-0.1,0.1-0.1l0,0c0.3-0.6,0.5-1.3,0.7-1.9c0.1-0.7,0.2-1.4,0.1-2.1C90.3,186.7,90.1,186.2,89.9,185.7
			"/>
		<path class="st1" d="M209.4,151.9l-0.6-0.2c0-0.1,0-0.1,0-0.2c0-0.1-0.1-0.2-0.1-0.2c-0.1-0.1-0.1-0.2-0.2-0.2
			c-0.1-0.1-0.2-0.1-0.2-0.2c-0.1-0.1-0.2-0.1-0.3-0.2l-0.1,0c0,0-0.1,0-0.1-0.1l-0.3-0.1c0,0,0,0-0.1,0l-0.1-0.1l-6.8-1.9l7.8,6.8
			l-0.4,1l-0.2,0.1l-0.1,0.1c-0.1,0.1-0.3,0.2-0.5,0.3c-0.2,0.1-0.5,0.2-0.7,0.2c-0.2,0.1-0.5,0.1-0.8,0.1c-0.3,0-0.5,0.1-0.8,0.1h0
			l-8.1-0.1l6.4,3.5c0.2,0.1,0.4,0.1,0.5,0.2c0.1,0,0.3,0.1,0.4,0.1l0,0c0.1,0,0.2,0,0.3,0c0.1,0,0.2,0,0.4-0.1l0.1,0l0.1,0l0.1,0
			c0,0,0.1,0,0.1,0c0,0,0,0,0.1,0c0,0,0,0,0,0l0.6,0.3l-1.7,4.2l-0.6-0.1c0-0.1,0-0.1-0.1-0.2c0-0.1-0.1-0.2-0.1-0.2
			c-0.1-0.1-0.1-0.2-0.2-0.3c-0.1-0.1-0.1-0.2-0.2-0.3c0,0-0.1-0.1-0.1-0.1c-0.1,0-0.1-0.1-0.2-0.1c0,0-0.1,0-0.1-0.1
			c0,0-0.1-0.1-0.1-0.1l0,0c-0.1,0-0.1-0.1-0.2-0.1c-0.1,0-0.1-0.1-0.2-0.1l-0.1,0l-9.1-5l0,0c-0.1,0-0.1-0.1-0.2-0.1
			c-0.1,0-0.1-0.1-0.2-0.1l-0.1,0c0,0-0.1,0-0.1-0.1l-0.1-0.1c-0.1,0-0.2-0.1-0.3-0.1c0,0-0.1,0-0.1,0l0,0l0,0c0,0-0.1,0-0.1,0
			c0,0-0.1,0-0.1,0c0,0-0.1,0-0.1,0c0,0-0.1,0-0.1,0l-0.1,0c0,0,0,0,0,0c0,0-0.1,0-0.1,0.1l-0.2,0.1l-0.7,0.2l1.5-3.9l0.4-1l9.9,0.1
			l-7.4-6.3l2.2-5.5l0.2,1.1c0,0.1,0.1,0.2,0.1,0.3c0,0.1,0.1,0.2,0.1,0.3l0,0c0,0,0,0.1,0.1,0.1c0,0,0,0,0,0l0,0
			c0,0,0.1,0.1,0.1,0.1c0,0,0.1,0.1,0.1,0.1l0,0c0,0,0,0,0,0c0,0,0,0,0,0l0.3,0.1l0.1,0l0.1,0c0,0,0,0,0,0c0,0,0,0,0,0l0.1,0l0.1,0
			l10.5,2.8l0,0c0.1,0,0.1,0,0.1,0c0,0,0.1,0,0.1,0l0.1,0l0,0l0.1,0l0.1,0h0l0,0l0,0c0.2,0,0.3,0,0.5,0h0c0.2,0,0.3,0,0.5,0
			c0.1,0,0.3-0.1,0.4-0.1c0.1-0.1,0.2-0.1,0.3-0.2l0.5,0.3L209.4,151.9z M193.4,180.1l-0.5-0.3c0-0.1,0.1-0.2,0.1-0.3
			c0-0.1,0-0.2,0-0.2c0-0.1,0-0.1-0.1-0.2c0-0.1-0.1-0.1-0.1-0.1c0,0-0.1-0.1-0.1-0.1c0,0,0,0-0.1,0c-0.1,0-0.1,0-0.1-0.1
			c0,0,0,0-0.1,0c0,0-0.1,0-0.1,0c0,0,0,0,0,0l0,0c0,0-0.1,0-0.1,0c0,0-0.1,0-0.1,0c0,0-0.1,0-0.1,0c0,0-0.1,0-0.1-0.1l-3.3-1.4
			l-2.5,2.7l1.9,3.3l0.1,0.2c0.1,0.1,0.1,0.1,0.1,0.2c0,0,0,0,0,0l0.1,0.1c0.1,0.1,0.2,0.1,0.3,0.2c0,0,0.1,0,0.1,0
			c0.1,0,0.1,0,0.2,0l0,0h0c0,0,0.1,0,0.2,0h0c0,0,0.1,0,0.1,0l0,0h0.1h0c0,0-0.1,0-0.1,0.1l0.5,0.4l-3.2,3.6l-0.4-0.4l-0.1,0v0
			c0,0,0,0,0,0.1c0,0,0-0.1,0-0.1c0,0,0-0.1,0-0.1c0,0,0-0.1,0-0.1c0-0.2,0-0.5,0-0.7c0-0.2-0.1-0.4-0.1-0.6
			c-0.1-0.2-0.1-0.4-0.2-0.5c-0.1-0.1-0.1-0.3-0.2-0.4l0,0l-5.5-10.2v0c0,0-0.1-0.1-0.1-0.1l0,0c0-0.1-0.1-0.1-0.1-0.1
			c-0.1-0.1-0.1-0.1-0.2-0.1c0,0-0.1,0-0.1,0l0,0l0,0c-0.1,0-0.1,0-0.2,0c-0.1,0-0.2,0-0.3,0l-0.9,0.2l2.7-3.1l0.7-0.8l12.9,5.1
			c0.2,0.1,0.4,0.1,0.5,0.2c0.1,0,0.3,0.1,0.4,0.1c0.1,0,0.3,0,0.4,0c0.1,0,0.2,0,0.3,0c0.1,0,0.1,0,0.2,0c0,0,0,0,0,0h0.2
			c0.1,0,0.1,0,0.2,0l0,0l0.1,0c0,0,0,0,0.1,0c0,0,0,0,0,0l0.3,0.5L193.4,180.1z M174.8,197.4c-0.1,0-0.2,0.1-0.3,0.1
			c-0.1,0-0.2,0-0.3,0.1l0,0c-0.1,0-0.2,0-0.3,0c-0.1,0-0.2,0-0.3,0c-0.1,0-0.2,0-0.3,0c-0.1,0-0.2,0-0.3,0l0,0l-0.3-0.1
			c-0.1,0-0.2-0.1-0.3-0.1c-0.1,0-0.1,0-0.2,0c0,0-0.1,0-0.1,0l0,0l0,0c0,0,0,0,0,0c0,0,0,0-0.1,0l0,0l-9.8-4.8l3.5,6.3
			c0.1,0.3,0.3,0.5,0.4,0.7c0.1,0.2,0.3,0.3,0.4,0.4c0.1,0.1,0.3,0.1,0.4,0.2c0.2,0.1,0.4,0.1,0.6,0.1l0,0.3l0.2,0.3l-4,2.2
			l-0.4-0.5c0,0,0,0,0-0.1c0,0,0-0.1,0.1-0.1c0,0,0,0,0-0.1c0,0,0-0.1,0-0.1l0,0l0,0c0-0.1,0.1-0.2,0.1-0.3c0-0.1,0-0.2,0.1-0.4
			c0-0.1,0-0.3-0.1-0.4c-0.1-0.2-0.1-0.4-0.2-0.6l0,0l-4.9-8.9c-0.1-0.3-0.3-0.5-0.5-0.7c-0.2-0.2-0.3-0.3-0.4-0.4
			c-0.1-0.1-0.2-0.2-0.4-0.2c-0.1,0-0.2-0.1-0.3-0.1h0c0,0-0.1,0-0.1,0h0c-0.1,0-0.1,0-0.1,0c0,0,0,0,0,0c0,0-0.1,0-0.1,0h0l-0.1,0
			l-0.8-0.3l1.4-0.8c0.2-0.1,0.3-0.2,0.5-0.3l2.3-1.2l10.7,5.1l-3.3-6c-0.1-0.2-0.3-0.5-0.5-0.7c-0.2-0.2-0.3-0.3-0.5-0.5
			c-0.2-0.1-0.3-0.2-0.5-0.2c-0.1,0-0.3,0-0.4,0l-0.3-0.6l3.5-2l1.3-0.7l-0.1,0.6c0,0.1,0,0.2-0.1,0.3c0,0,0,0.1,0,0.1l0,0l0,0
			c0,0,0,0,0,0c0,0,0,0,0,0l0,0l0,0c0,0.1-0.1,0.2-0.1,0.3c0,0.1,0,0.2,0,0.3l0,0c0,0,0,0.2,0.1,0.4c0.1,0.2,0.2,0.5,0.3,0.8
			l6.6,11.9L174.8,197.4z M147,208.1c-0.3,0.1-0.6,0.3-0.9,0.4c-0.3,0.1-0.6,0.2-1,0.3c-0.3,0.1-0.7,0.2-1,0.3
			c-0.3,0.1-0.7,0.2-1,0.2l0,0l-1.3,0.2c-0.5,0.1-1.1,0.1-1.6,0.1c-0.6,0-1.1,0-1.7-0.1c-1.1-0.2-2.1-0.5-3.1-1
			c-1-0.5-1.9-1.2-2.5-2.2c-0.6-1-1-2.2-1.3-3.6l0-0.1c-0.1-1.4,0.1-2.7,0.4-3.7c0.4-1.1,0.9-2,1.7-2.7c0.7-0.7,1.6-1.3,2.5-1.7
			c0.9-0.4,1.9-0.7,2.9-0.9l0.8-0.1c0.3,0,0.6,0,0.8-0.1c0.3,0,0.6,0,0.9,0c0.3,0,0.6,0,0.8,0c0.3,0,0.6,0,0.9,0.1l0.2,0l0.4,3.2
			l-1.2,0.2l-0.1-0.1c-0.3-0.2-0.6-0.3-0.8-0.5c-0.3-0.1-0.5-0.2-0.8-0.3h0c-0.2-0.1-0.5-0.1-0.7-0.1c-0.2,0-0.4,0-0.7,0
			c-0.6,0.1-1.1,0.3-1.6,0.6c-0.5,0.3-1,0.7-1.4,1.2c-0.5,0.5-0.8,1.2-1,1.9c-0.2,0.7-0.2,1.5-0.1,2.3l0,0.1l0,0.1l0,0.2
			c0.2,0.9,0.4,1.7,0.8,2.3c0.3,0.6,0.7,1.1,1.2,1.4c0.5,0.3,1,0.6,1.5,0.8c0.5,0.2,1,0.3,1.5,0.4c0.1,0,0.1,0,0.2,0
			c0.1,0,0.1,0,0.2,0c0.1,0,0.1,0,0.2,0c0,0,0.1,0,0.1,0l0.2,0l0,0l0,0c0.2,0,0.3-0.1,0.5-0.1c0.2,0,0.3-0.1,0.5-0.1
			c0.2-0.1,0.4-0.1,0.5-0.2c0.1,0,0.2-0.1,0.2-0.1l-0.4-3.2c0-0.3-0.1-0.5-0.1-0.8c0-0.2-0.1-0.4-0.2-0.6l0,0
			c-0.1-0.1-0.2-0.3-0.3-0.4c-0.1-0.1-0.3-0.2-0.5-0.3l-0.9-0.5l4.1-0.6l1.3-0.2l-0.1,0.6l0,0.1c0,0.1,0,0.1,0,0.2
			c0,0.1,0,0.1,0,0.2l0.8,5.9l0,0l0,0.1c0,0,0,0.1,0,0.1c0,0,0,0.1,0,0.1l0,0.1c0,0.1,0.1,0.1,0.1,0.2l0.1,0.3L147,208.1z
			 M121.1,194.9c-0.1,0.1-0.2,0.1-0.3,0.2c0,0-0.1,0-0.1,0l0,0l0,0c0,0,0,0,0,0c0,0,0,0,0,0l0,0l0,0c-0.2,0.1-0.4,0.2-0.5,0.3l0,0
			c0,0-0.1,0.1-0.2,0.4c-0.1,0.2-0.2,0.5-0.3,0.8l-2.9,13.3l-1.1-0.2c-0.1,0-0.2-0.1-0.3-0.1c-0.1,0-0.2-0.1-0.2-0.1l0,0
			c-0.1-0.1-0.2-0.1-0.2-0.2c-0.1-0.1-0.2-0.2-0.2-0.2c-0.1-0.1-0.1-0.1-0.2-0.2c-0.1-0.1-0.1-0.2-0.2-0.2l0,0
			c-0.1-0.1-0.1-0.2-0.2-0.3c-0.1-0.1-0.1-0.2-0.2-0.3c0,0-0.1-0.1-0.1-0.1c0,0,0-0.1-0.1-0.1l0,0l0,0c0,0,0,0,0,0c0,0,0,0,0-0.1
			l0,0l-4.2-10l-1.6,7.1c-0.1,0.3-0.1,0.5-0.1,0.8c0,0.2,0,0.4,0,0.5c0,0.1,0.1,0.3,0.2,0.4c0.1,0.2,0.2,0.3,0.3,0.5l-0.2,0.2
			l-0.1,0.4h0l-4.5-1l0-0.6c0,0,0,0,0.1,0c0,0,0.1,0,0.1,0c0,0,0,0,0.1,0c0,0,0.1,0,0.1,0l0,0l0,0c0.1,0,0.2-0.1,0.3-0.2
			c0.1-0.1,0.2-0.2,0.3-0.2c0.1-0.1,0.2-0.2,0.2-0.3c0.1-0.2,0.2-0.4,0.3-0.6l2.2-9.9c0.1-0.3,0.1-0.6,0.1-0.9c0-0.2,0-0.4,0-0.6
			c0-0.1-0.1-0.3-0.1-0.4c0-0.1-0.1-0.2-0.2-0.3l0,0c0,0-0.1,0-0.1-0.1c0,0-0.1-0.1-0.1-0.1c0,0,0,0,0,0l-0.1-0.1l0,0l-0.1-0.1
			l-0.4-0.7l1.5,0.3c0.2,0.1,0.4,0.1,0.6,0.1l2.5,0.6l4.6,10.9l1.5-6.7c0.1-0.3,0.1-0.6,0.1-0.8c0-0.2,0-0.5-0.1-0.7
			c-0.1-0.2-0.1-0.3-0.2-0.5c-0.1-0.1-0.2-0.2-0.3-0.3l0.2-0.6l3.9,0.8l1.4,0.3L121.1,194.9z M93.9,190.6c-0.2,1-0.7,2.1-1.3,3.1
			l0,0c-0.1,0.1-0.1,0.2-0.2,0.2c0,0.1-0.1,0.1-0.1,0.2l0,0c-0.1,0.1-0.1,0.2-0.2,0.2c-0.1,0.1-0.1,0.1-0.2,0.2
			c-0.1,0.2-0.3,0.3-0.4,0.5c-0.1,0.1-0.3,0.3-0.5,0.4c-0.6,0.5-1.2,0.9-1.9,1.3c-0.7,0.3-1.5,0.6-2.3,0.8c-0.4,0.1-0.8,0.1-1.3,0.1
			c-0.4,0-0.9-0.1-1.3-0.1c-0.8-0.2-1.7-0.6-2.5-1.1l-0.7-0.5c-1.1-0.7-1.9-1.5-2.5-2.4c-0.6-0.8-1-1.8-1.1-2.8c-0.1-1-0.1-2,0.1-3
			c0.2-1,0.6-2,1.1-2.9l0-0.1c0.1-0.1,0.2-0.3,0.3-0.5c0.1-0.2,0.3-0.3,0.4-0.5c0.1-0.1,0.2-0.2,0.2-0.3c0.1-0.1,0.2-0.2,0.3-0.3
			l0,0c0.1-0.1,0.2-0.1,0.2-0.2c0.1-0.1,0.2-0.2,0.3-0.2c0.6-0.5,1.2-0.9,1.9-1.2c0.7-0.3,1.4-0.6,2.2-0.7c0.8-0.2,1.7-0.1,2.6,0.1
			c0.9,0.2,1.8,0.6,2.7,1.3l0.7,0.4c0.9,0.6,1.6,1.3,2.2,2.1c0.6,0.8,1,1.7,1.2,2.7C94.1,188.6,94.1,189.6,93.9,190.6 M73,172.2
			l-0.8-1l0-0.2c0-0.2,0.1-0.4,0-0.6c0-0.2-0.1-0.4-0.1-0.6l0,0c-0.1-0.2-0.1-0.4-0.2-0.5c-0.1-0.2-0.2-0.3-0.3-0.5
			c-0.1-0.1-0.1-0.1-0.2-0.2l-0.1-0.2c-0.1-0.1-0.2-0.2-0.3-0.3l-0.1-0.1l-2.7,2.1l0.5,0.6l0,0c0.1,0.2,0.3,0.4,0.4,0.6l0,0
			c0.1,0.1,0.1,0.1,0.2,0.2c0.1,0,0.1,0.1,0.2,0.1l0.1,0l0.8,1l-2.5,1.9l-0.8-1l0-0.2c0-0.1,0-0.2,0-0.3c0-0.1,0-0.3-0.1-0.4
			c-0.1-0.2-0.1-0.3-0.2-0.4c-0.1-0.1-0.2-0.3-0.3-0.4l0,0l0-0.1l-0.2-0.2l-3.8,2.9c0,0,0,0,0,0.1l0.1,0.1l0,0v0
			c0.1,0.2,0.2,0.3,0.3,0.5c0.1,0.2,0.2,0.3,0.3,0.5c0.1,0.1,0.1,0.2,0.2,0.3l0,0c0.1,0.1,0.1,0.2,0.2,0.3c0,0,0.1,0.1,0.1,0.1
			l0.1,0.1c0.1,0.1,0.2,0.2,0.3,0.3c0.1,0.1,0.2,0.2,0.3,0.3c0.1,0.1,0.2,0.1,0.3,0.2c0.1,0.1,0.2,0.2,0.3,0.2
			c0.2,0.1,0.5,0.2,0.7,0.3c0.3,0.1,0.6,0.2,0.9,0.2l0.1,0l0.9,1.1l-3.7,1.1l-6.2-8.1l0.8,0.2c0.1,0,0.1,0,0.2,0c0.1,0,0.2,0,0.3,0
			h0c0,0,0,0,0,0c0,0,0.1,0,0.1,0c0,0,0.1,0,0.2,0c0,0,0,0,0,0l0.2-0.1c0.1,0,0.1-0.1,0.2-0.1c0.1,0,0.1-0.1,0.2-0.1
			c0.1,0,0.1-0.1,0.2-0.2l0,0l8.2-6.2c0.1-0.1,0.3-0.2,0.5-0.4c0.2-0.1,0.3-0.3,0.5-0.4c0.1-0.1,0.2-0.3,0.3-0.5
			c0.1-0.2,0.1-0.4,0.1-0.6l0.1-0.8l4.6,5.9l0,0.1c0,0,0,0.1,0.1,0.1c0,0,0.1,0.1,0.1,0.1l0,0l0,0c0,0,0,0,0,0c0,0,0,0,0.1,0l0.1,0
			l0,0c0.1,0,0.1,0.1,0.1,0.1l0,0l0.8,0.9L73,172.2z M57.3,152.8c0,0.1-0.1,0.1-0.1,0.2c0,0.1,0,0.2-0.1,0.3c0,0.1-0.1,0.2-0.1,0.4
			c0,0.1-0.1,0.2-0.1,0.4c-0.1,0.3-0.2,0.5-0.3,0.8c-0.1,0.3-0.3,0.5-0.5,0.8c-0.2,0.3-0.4,0.5-0.7,0.7c-0.3,0.2-0.5,0.3-0.9,0.5
			c-0.6,0.2-1.2,0.3-1.7,0.3c-0.2,0-0.3,0-0.5,0c-0.7-0.1-1.4-0.3-2-0.7c-0.6-0.4-1.1-0.9-1.5-1.5c-0.4-0.6-0.8-1.3-1.1-2.1
			l-0.3-0.8c-0.1-0.2-0.2-0.5-0.2-0.7c-0.1-0.2-0.1-0.5-0.2-0.8c0-0.3-0.1-0.5-0.1-0.8c0-0.3-0.1-0.5-0.1-0.8l0,0l0,0c0,0,0,0,0,0
			l0-0.1c0-0.1,0-0.1,0-0.2c0-0.1,0-0.1,0-0.2c0,0,0-0.1,0-0.1l0-0.2l3.1-1.7l0.4,1.3l-0.1,0.1c-0.1,0.2-0.2,0.4-0.3,0.6
			c-0.1,0.2-0.1,0.4-0.2,0.6c0,0.1,0,0.2-0.1,0.3c0,0.1,0,0.2,0,0.3l0,0c0,0.1,0,0.2,0,0.3c0,0.1,0,0.2,0,0.3v0c0,0.1,0,0.2,0,0.3
			c0,0.1,0,0.1,0,0.2l0,0l0,0c0,0.1,0,0.1,0,0.2l0,0c0,0.1,0,0.1,0,0.2c0,0.1,0,0.2,0,0.2c0,0.1,0,0.1,0.1,0.2
			c0.1,0.2,0.2,0.5,0.4,0.7c0.1,0.2,0.3,0.4,0.5,0.5c0.2,0.2,0.4,0.3,0.7,0.4c0.2,0.1,0.4,0.1,0.7,0.1c0,0,0.1,0,0.1,0
			c0.1,0,0.1,0,0.2,0l0,0c0,0,0.1,0,0.1,0l0.1,0c0.1,0,0.2-0.1,0.3-0.2c0.1-0.1,0.2-0.1,0.2-0.2l0,0c0,0,0.1-0.1,0.1-0.1l0.1-0.1
			c0-0.1,0.1-0.1,0.1-0.2c0-0.1,0.1-0.1,0.1-0.2c0-0.1,0.1-0.2,0.1-0.4c0-0.1,0.1-0.2,0.1-0.4c0-0.1,0.1-0.3,0.1-0.4
			c0-0.1,0.1-0.3,0.1-0.5l0.5-2.4c0,0,0-0.1,0-0.1l0,0V148c0-0.1,0-0.1,0-0.2c0-0.1,0-0.2,0.1-0.3c0-0.1,0-0.1,0.1-0.2
			c0.2-0.6,0.4-1.2,0.8-1.7c0.2-0.3,0.4-0.6,0.7-0.8c0.3-0.2,0.6-0.4,1-0.6l0.1,0c0.7-0.3,1.4-0.4,2.1-0.3c0.7,0.1,1.2,0.3,1.8,0.7
			c0.5,0.4,0.9,0.8,1.3,1.3c0.4,0.5,0.6,1.1,0.8,1.6l0.3,0.8v0.1l0.1,0.3l0,0l0.1,0.3l0,0c0,0,0,0.1,0,0.1l0.1,0.2
			c0,0.1,0.1,0.2,0.1,0.3c0,0.1,0.1,0.3,0.1,0.4c0,0.2,0.1,0.3,0.1,0.5c0,0.2,0,0.3,0.1,0.4c0,0.2,0,0.3,0,0.4c0,0.1,0,0.3,0,0.4
			l0,0.2l-2.8,1l-0.4-1.2l0-0.1c0.1-0.2,0.1-0.4,0.2-0.6c0.1-0.2,0.1-0.5,0.1-0.7c0-0.3,0-0.5,0-0.8c0-0.2,0-0.5-0.1-0.7l0,0
			c0,0,0-0.1,0-0.1c0-0.1,0-0.1,0-0.2c0-0.1-0.1-0.2-0.2-0.3c-0.1-0.1-0.2-0.2-0.3-0.3c-0.1-0.1-0.3-0.2-0.5-0.3
			c-0.2-0.1-0.4-0.1-0.6-0.2c-0.1,0-0.1,0-0.2,0c-0.1,0-0.1,0-0.2,0c0,0-0.1,0-0.1,0c0,0-0.1,0-0.1,0c-0.2,0.1-0.4,0.2-0.5,0.3
			c-0.2,0.2-0.3,0.4-0.4,0.6c-0.1,0.3-0.2,0.6-0.3,0.8c-0.1,0.3-0.1,0.6-0.2,0.9l0,0L57.3,152.8L57.3,152.8z M198.9,83.4L198.9,83.4
			c-0.1,0.4-0.2,0.8-0.4,1.1c-0.4,0.5-0.9,0.9-1.5,1.1c-0.2,0.1-0.5,0.1-0.7,0.1c-0.2,0-0.5,0-0.7-0.1c0,0.2,0,0.4,0,0.6
			c0,0.3-0.1,0.6-0.1,0.8c-0.1,0.3-0.2,0.6-0.5,0.9c-0.2,0.3-0.5,0.5-0.9,0.7l0,0c-0.4,0.2-0.8,0.4-1.2,0.5c-0.2,0-0.4,0.1-0.6,0.1
			c-0.2,0-0.4,0-0.5-0.1c-0.6-0.1-1.2-0.4-1.7-0.8l0,0c-0.1-0.1-0.2-0.2-0.3-0.3c-0.1-0.1-0.2-0.2-0.3-0.3l0,0
			c-0.1-0.1-0.2-0.2-0.2-0.3l-2.4-3.8l0.4-0.5c0,0,0,0,0,0c0,0,0,0,0,0l0,0l0,0l0.1,0c0.1,0,0.1,0,0.2,0c0.1,0,0.1,0,0.2,0
			c0.1,0,0.1-0.1,0.2-0.1c0.1,0,0.2-0.1,0.3-0.2l0,0l6.5-4.1c0,0,0.1-0.1,0.1-0.1l0.1,0c0,0,0.1,0,0.1-0.1l0,0c0,0,0.1-0.1,0.1-0.1
			c0,0,0.1-0.1,0.1-0.1c0,0,0-0.1,0.1-0.1c0,0,0.1-0.1,0.1-0.1c0,0,0.1-0.1,0.1-0.2c0-0.1,0-0.1,0-0.2l0.6-0.2l1.8,2.8l0.3,0.5
			c0.2,0.4,0.4,0.8,0.5,1.2C198.9,82.7,199,83.1,198.9,83.4 M186,79.3c-0.1,0.1-0.2,0.2-0.3,0.3c-0.1,0.1-0.2,0.2-0.2,0.3
			c0,0.1-0.1,0.1-0.1,0.2c0,0.1,0,0.2,0.1,0.2l-0.5,0.4l-2-2.2l0.1-0.1c-0.1,0-0.2-0.1-0.2-0.1c-0.2-0.1-0.4-0.2-0.6-0.4
			c-0.2-0.2-0.4-0.4-0.6-0.6l-0.4-0.4c-0.4-0.4-0.7-0.9-0.9-1.3c-0.2-0.4-0.3-0.9-0.2-1.3c0.1-0.4,0.1-0.8,0.3-1.2
			c0.1-0.4,0.3-0.7,0.6-1c0,0,0-0.1,0.1-0.1c0,0,0-0.1,0.1-0.1c0,0,0.1-0.1,0.1-0.1l0.1,0c0-0.1,0.1-0.1,0.1-0.2l4.5-4
			c0.2-0.1,0.3-0.3,0.4-0.5c0.1-0.2,0.1-0.4,0.1-0.6l0.1-0.7l2.2,2.4l0.8,0.9l-0.6,0.1c-0.1,0-0.3,0-0.4,0.1c0,0-0.1,0-0.1,0
			c0,0-0.1,0-0.1,0l0,0c0,0-0.1,0-0.1,0c0,0-0.1,0-0.1,0.1l0,0c0,0-0.1,0-0.1,0c0,0,0,0-0.1,0l0,0l0,0l-0.1,0.1l-4.1,3.7
			c-0.3,0.3-0.5,0.5-0.7,0.8c-0.1,0.2-0.2,0.4-0.3,0.6c0,0.2,0,0.4,0,0.6c0,0.2,0.1,0.3,0.1,0.5c0,0,0.1,0.1,0.1,0.1c0,0,0,0,0,0.1
			l0,0c0.2,0.2,0.4,0.3,0.6,0.5c0.2,0.1,0.5,0.2,0.8,0.2c0.2,0,0.3,0,0.5-0.1c0.2-0.1,0.4-0.2,0.6-0.4l4.1-3.7
			c0.2-0.1,0.3-0.3,0.4-0.4c0.1-0.1,0.2-0.2,0.2-0.4l0,0c0.1-0.1,0.1-0.2,0.1-0.3c0-0.1,0-0.2,0-0.4l0-0.8l2.4,2.6l0.8,0.9l-0.7,0
			c-0.2,0-0.3,0-0.4,0.1c-0.1,0-0.3,0.1-0.4,0.1c-0.1,0.1-0.3,0.2-0.4,0.2c-0.1,0.1-0.3,0.2-0.4,0.3L186,79.3z M179.7,62.1
			c-0.1,0.1-0.2,0.2-0.3,0.3l-4.6,5.6c0.1,0.1,0.1,0.1,0.2,0.2c0.1,0.1,0.2,0.2,0.3,0.4c0.1,0.1,0.1,0.1,0.2,0.2
			c0.1,0.1,0.1,0.1,0.2,0.2l0.2,0.1c0.1,0,0.1,0.1,0.2,0.1l0,0c0.1,0.1,0.2,0.1,0.3,0.1c0.1,0,0.3,0.1,0.4,0.1l0,0
			c0.1,0,0.1,0,0.2,0c0.1,0,0.1,0,0.2,0c0.1,0,0.2,0,0.3,0c0.1,0,0.1,0,0.2,0h0.2l0.9,0.7l-2.5,1.5l-5.2-4.2l0.2-0.3l0-0.3
			c0,0,0.1,0,0.1,0h0.1l0,0l0,0l0,0c0,0,0.1,0,0.1,0c0.1,0,0.2,0,0.2-0.1c0.1,0,0.1-0.1,0.2-0.1c0.1-0.1,0.1-0.1,0.2-0.2
			c0.1,0,0.1-0.1,0.1-0.2l4.8-5.9c0.1-0.1,0.1-0.2,0.2-0.3c0-0.1,0.1-0.1,0.1-0.2c0,0,0-0.1,0-0.1c0,0,0,0,0-0.1l0,0c0,0,0,0,0-0.1
			c0,0,0-0.1,0-0.1v-0.2c0-0.1,0-0.1,0-0.2l0.1-0.6l2.6,2.1l1,0.8l-0.8,0.1l0,0l-0.1,0c0,0-0.1,0-0.1,0c0,0-0.1,0-0.1,0h-0.1
			c0,0-0.1,0-0.1,0c-0.1,0-0.2,0.1-0.2,0.1C179.8,62,179.7,62.1,179.7,62.1 M170.9,57.2c-0.1-0.3-0.3-0.5-0.5-0.7
			c-0.1-0.2-0.3-0.4-0.5-0.5c-0.1-0.1-0.2-0.2-0.4-0.3c-0.1-0.1-0.2-0.2-0.3-0.2c-0.4-0.2-0.7-0.3-1-0.3h0c-0.3,0-0.6,0.1-1,0.2
			c-0.4,0.2-0.7,0.4-1,0.7c-0.3,0.3-0.6,0.6-0.8,1l-0.1,0.2l0,0l0,0.1c-0.2,0.4-0.4,0.9-0.5,1.3c-0.1,0.5-0.1,0.9-0.1,1.4
			c0,0.4,0.2,0.8,0.4,1.1c0.2,0.3,0.4,0.6,0.8,0.8h0L166,62c0.1,0.1,0.3,0.2,0.4,0.2c0.1,0.1,0.3,0.1,0.4,0.1l0,0
			c0.3,0.1,0.5,0.1,0.8,0.1l0,0l0.2,0c0.1,0,0.1,0,0.2,0l0,0l0,0c0.1,0,0.1,0,0.2,0h0c0.1,0,0.2,0,0.3,0l0.1,0l1,0.5l-1.8,1.7
			l-0.1,0c-0.2,0-0.4,0-0.5-0.1c-0.2,0-0.3-0.1-0.5-0.2c-0.2-0.1-0.3-0.1-0.5-0.2c-0.1-0.1-0.3-0.1-0.4-0.2l0,0l-0.9-0.5
			c-0.6-0.3-1.1-0.8-1.6-1.2c-0.5-0.5-0.8-1.1-1.1-1.7c-0.3-0.7-0.4-1.4-0.3-2.1c0.1-0.7,0.3-1.5,0.7-2.3l0,0l0.3-0.5
			c0,0,0.1-0.1,0.1-0.1c0,0,0-0.1,0.1-0.1c0,0,0.1-0.1,0.1-0.1c0.3-0.5,0.8-1,1.2-1.4c0.5-0.4,1-0.8,1.6-1c0.6-0.3,1.3-0.4,2-0.3
			c0.7,0.1,1.4,0.4,2.2,0.8l0.5,0.3c0.1,0.1,0.2,0.1,0.3,0.2c0.1,0.1,0.2,0.2,0.4,0.3c0.1,0.1,0.3,0.2,0.4,0.3
			c0.1,0.1,0.2,0.2,0.4,0.3c0.1,0.1,0.3,0.2,0.4,0.3c0,0,0.1,0.1,0.1,0.1c0,0,0,0,0,0l0,0l0,0c0,0,0.1,0.1,0.1,0.1
			c0,0,0.1,0.1,0.1,0.1l0.2,0.2l-1.2,2.1L170.9,57.2L170.9,57.2z M149.7,56.7l-6.5-1.7l0.1-0.4l-0.1-0.2l0,0c0,0,0,0-0.1,0
			c0,0,0.1,0,0.1,0c0,0,0,0,0,0l0,0l0,0l0,0c0,0,0.1,0,0.1,0c0.1-0.1,0.1-0.1,0.2-0.2c0,0,0.1-0.1,0.1-0.2c0-0.1,0.1-0.2,0.1-0.2
			c0-0.1,0.1-0.1,0.1-0.2l0.1-0.4l1.8-7c0-0.1,0.1-0.2,0.1-0.3c0-0.1,0-0.1,0-0.2c0,0,0-0.1,0-0.1c0,0,0,0,0-0.1l0,0c0,0,0,0,0,0
			c0,0,0-0.1-0.1-0.1c0-0.1-0.1-0.2-0.1-0.3l-0.2-0.6l3.3,0.8l1.3,0.3l-0.6,0.4l0,0l-0.1,0.1c0,0-0.1,0-0.1,0c0,0,0,0-0.1,0
			c0,0,0,0,0,0h0c0,0-0.1,0-0.1,0.1c-0.1,0.1-0.1,0.1-0.2,0.2c0,0.1-0.1,0.2-0.1,0.2c0,0.1-0.1,0.2-0.1,0.4l-1.8,7
			c0.1,0,0.2,0.1,0.2,0.1c0.2,0.1,0.3,0.1,0.5,0.2c0.1,0,0.2,0.1,0.3,0.1c0.1,0,0.2,0.1,0.3,0.1c0.1,0,0.2,0,0.3,0
			c0.1,0,0.2,0,0.3,0l0,0c0.1,0,0.2,0,0.4,0c0.1,0,0.3,0,0.4-0.1l0,0c0.1,0,0.1,0,0.2,0c0.1,0,0.1,0,0.2-0.1c0.1,0,0.2-0.1,0.2-0.1
			c0.1,0,0.2-0.1,0.2-0.1l0.1,0l1.1,0.3L149.7,56.7z M139,54.3l-6.6-0.7l0-0.4l-0.1-0.2c0,0,0,0,0,0c0,0,0,0-0.1,0
			c0,0,0.1,0,0.1-0.1c0,0,0,0,0,0l0,0l0,0l0,0c0,0,0.1,0,0.1-0.1c0.1-0.1,0.1-0.1,0.2-0.2c0-0.1,0.1-0.1,0.1-0.2
			c0-0.1,0.1-0.2,0.1-0.3c0-0.1,0-0.1,0-0.2l0.8-7.6c0-0.1,0-0.2,0-0.3c0-0.1,0-0.1,0-0.2c0,0,0-0.1,0-0.1c0,0,0,0,0-0.1l0,0
			c0,0,0,0,0,0c0,0-0.1-0.1-0.1-0.1c0,0-0.1-0.1-0.1-0.1c0,0-0.1-0.1-0.1-0.1l-0.3-0.5l3.4,0.3l1.3,0.1l-0.6,0.5v0l-0.1,0.1
			c0,0-0.1,0-0.1,0.1c0,0,0,0-0.1,0c0,0,0,0,0,0l0,0c0,0-0.1,0.1-0.1,0.1c0,0.1-0.1,0.1-0.1,0.2c0,0.1-0.1,0.1-0.1,0.3
			c0,0.1-0.1,0.3-0.1,0.4l-0.7,7.2c0.1,0,0.2,0,0.3,0.1c0.2,0,0.3,0.1,0.5,0.1c0.1,0,0.2,0,0.3,0c0.1,0,0.2,0,0.3,0.1h0.3
			c0.1,0,0.2,0,0.3,0l0,0c0.1,0,0.2,0,0.4-0.1c0.1,0,0.3-0.1,0.4-0.1l0,0c0.1,0,0.1,0,0.2-0.1c0.1,0,0.1-0.1,0.2-0.1
			c0.1,0,0.1-0.1,0.2-0.1c0.1,0,0.1-0.1,0.2-0.1l0.1-0.1l1.2,0.1L139,54.3z M129.1,53.5l-3.5,0.3l-0.2-0.6c0.1,0,0.1-0.1,0.2-0.1
			c0,0,0.1-0.1,0.1-0.1c0,0,0-0.1,0-0.1c0,0,0-0.1,0-0.1c0,0,0-0.1,0-0.1c0,0,0,0,0,0c0,0,0-0.1-0.1-0.1c0,0,0,0,0,0c0,0,0,0,0-0.1
			c0,0,0,0,0-0.1l0,0c0,0,0,0,0-0.1c0,0,0-0.1,0-0.1c0,0,0-0.1,0-0.1l-1-2.2l-2.4,0.2l-0.6,2.5c0,0.1,0,0.2,0,0.3l0,0.1
			c0,0,0,0.1,0,0.1c0,0,0,0,0,0.1c0,0,0,0,0,0.1c0,0,0,0,0.1,0.1l0,0l0,0c0,0,0.1,0.1,0.1,0.1c0,0,0,0,0.1,0l0,0l0,0c0,0,0,0,0,0
			l0,0l0,0l0,0c0,0-0.1,0-0.1,0v0.3l0,0.4l0-0.2l0,0.2l0-0.1l0,0.1l-3.3,0.2l0-0.5l-0.1-0.1c0,0,0,0,0,0c0,0,0,0,0,0c0,0,0,0,0.1,0
			c0,0,0,0,0.1-0.1c0,0,0,0,0.1-0.1c0.1-0.1,0.2-0.2,0.3-0.4c0.1-0.1,0.2-0.2,0.2-0.4c0.1-0.1,0.1-0.3,0.1-0.4
			c0-0.1,0.1-0.2,0.1-0.3l0,0l2.2-7.8c0,0,0-0.1,0-0.1l0,0l0-0.1v0c0,0,0-0.1,0-0.1l0,0l0,0l0,0c-0.1-0.1-0.2-0.1-0.2-0.2l-0.8-0.5
			l3.2-0.3l0.8-0.1l4.1,8.8c0.1,0.1,0.1,0.2,0.2,0.3c0.1,0.1,0.1,0.2,0.2,0.2c0.1,0.1,0.1,0.1,0.2,0.2c0.1,0.1,0.1,0.1,0.2,0.1
			c0.1,0,0.1,0.1,0.1,0.1l0.1,0.1c0,0,0.1,0,0.1,0.1l0,0l0,0l0,0c0,0,0,0,0,0L129.1,53.5z M115.3,52.7c0,0.4-0.2,0.7-0.3,1
			c-0.2,0.3-0.3,0.5-0.6,0.8c-0.2,0.2-0.4,0.4-0.7,0.6l0,0c-0.1,0.1-0.3,0.2-0.4,0.2c-0.1,0.1-0.3,0.1-0.4,0.2l0,0
			c-0.1,0-0.3,0.1-0.4,0.1l-4.3,1l-0.3-0.6c0,0,0,0,0,0c0,0,0,0,0,0l0,0l0,0l0-0.1c0,0,0.1-0.1,0.1-0.1c0-0.1,0-0.1,0-0.2
			c0-0.2,0-0.4-0.1-0.6l-1.8-7.5c0,0,0-0.1,0-0.1l0-0.1c0,0,0-0.1,0-0.1l0,0c0,0,0-0.1,0-0.1l0-0.1c0,0,0-0.1-0.1-0.1
			c0,0-0.1-0.1-0.1-0.1c0,0-0.1-0.1-0.1-0.1c0,0-0.1,0-0.1-0.1l0-0.6l3.2-0.8l0.6-0.1c0.4-0.1,0.9-0.1,1.3-0.1
			c0.4,0,0.8,0.1,1.2,0.3l0,0c0.4,0.2,0.7,0.4,0.9,0.7s0.4,0.6,0.5,1c0.1,0.2,0.1,0.5,0.1,0.7c0,0.2-0.1,0.5-0.2,0.7
			c-0.1,0.2-0.2,0.4-0.3,0.6c0.2,0.1,0.4,0.1,0.6,0.2c0.3,0.1,0.5,0.2,0.7,0.4c0.3,0.2,0.5,0.4,0.7,0.7c0.2,0.3,0.3,0.6,0.4,1.1v0
			C115.3,51.9,115.3,52.3,115.3,52.7 M102.5,58.6l-2.6,1.1l-0.3-0.5c0.1,0,0.1-0.1,0.1-0.2c0-0.1,0.1-0.1,0.1-0.2c0-0.1,0-0.2,0-0.2
			c0-0.1,0-0.2-0.1-0.3l0,0l-3-7.2l-0.2,0.1c-0.2,0.1-0.3,0.2-0.5,0.3c-0.1,0.1-0.3,0.2-0.4,0.3c-0.1,0.1-0.2,0.2-0.3,0.3
			c-0.1,0.1-0.1,0.2-0.2,0.3l-0.1,0.1l-1,0.4l-0.5-2.6l0.9-0.4l0.1,0.1l0,0c0,0,0,0,0,0l0,0l0,0c0,0,0,0,0,0l0.1-0.1l4.8-2l0.4-0.2
			l0.1-0.1c0,0,0.1-0.1,0.1-0.1l0,0l1-0.4l0.3,2.7l-1,0.4l-0.2-0.2c0,0,0,0-0.1-0.1c-0.1,0-0.2,0-0.2-0.1h0c-0.1,0-0.2,0-0.3,0
			c-0.1,0-0.2,0-0.3,0.1l0,0L99.2,50l3,7.2c0,0.1,0.1,0.2,0.1,0.3c0,0,0.1,0.1,0.1,0.1l0,0c0.1,0,0.1,0.1,0.2,0.1
			c0.1,0,0.1,0,0.2,0.1l0.1,0l0.1,0l0.7,0.3L102.5,58.6z M93.3,61.9c-0.1,0.6-0.4,1.2-0.7,1.7c-0.4,0.5-0.9,0.9-1.5,1.3l-0.5,0.3
			c-0.8,0.5-1.5,0.8-2.2,0.9c-0.3,0.1-0.6,0.1-0.9,0.1c-0.4,0-0.8-0.1-1.2-0.2c-0.7-0.2-1.3-0.5-1.9-0.9c-0.6-0.4-1.1-1-1.5-1.6l0,0
			c-0.1-0.1-0.1-0.2-0.2-0.3c-0.1-0.2-0.2-0.4-0.3-0.7c0-0.1-0.1-0.1-0.1-0.2l0,0c0-0.1,0-0.1-0.1-0.2c0-0.1-0.1-0.2-0.1-0.3
			c-0.1-0.5-0.2-1-0.2-1.5c0-0.6,0.1-1.1,0.2-1.6c0.1-0.6,0.4-1.2,0.8-1.6c0.4-0.5,0.9-0.9,1.6-1.4l0.5-0.3c0.6-0.4,1.3-0.7,2-0.8
			c0.7-0.1,1.4-0.1,2.1,0c0.7,0.1,1.4,0.4,2,0.9c0.6,0.4,1.1,1,1.6,1.7l0,0c0,0.1,0.1,0.1,0.1,0.2c0,0,0.1,0.1,0.1,0.1l0,0
			c0,0.1,0.1,0.1,0.1,0.2c0,0.1,0.1,0.1,0.1,0.2c0.1,0.1,0.1,0.3,0.2,0.4c0,0.1,0.1,0.3,0.1,0.4c0.2,0.5,0.3,1.1,0.3,1.6
			C93.4,60.7,93.4,61.3,93.3,61.9 M81.5,71.5c-0.3,0.5-0.7,1.1-1.2,1.6l-0.4,0.4c-0.7,0.6-1.3,1.1-2,1.4c-0.5,0.2-1.1,0.4-1.7,0.4
			c-0.1,0-0.3,0-0.4,0c-0.7-0.1-1.4-0.2-2-0.5c-0.7-0.3-1.3-0.7-1.8-1.2l0,0c-0.1-0.1-0.2-0.2-0.3-0.3c-0.1-0.1-0.2-0.2-0.3-0.4
			c-0.1-0.1-0.1-0.1-0.1-0.2c0-0.1-0.1-0.1-0.1-0.2l0,0c0-0.1-0.1-0.1-0.1-0.2c0-0.1-0.1-0.2-0.1-0.2c-0.2-0.5-0.4-1-0.5-1.5
			c-0.1-0.5-0.2-1.1-0.1-1.7c0-0.6,0.2-1.2,0.5-1.8c0.3-0.6,0.7-1.1,1.3-1.6l0.4-0.4c0.6-0.5,1.2-0.9,1.8-1.2c0.6-0.3,1.3-0.4,2-0.4
			h0.1c0.7,0,1.4,0.2,2.1,0.5c0.7,0.3,1.3,0.8,1.9,1.4l0,0c0,0.1,0.1,0.1,0.1,0.2c0,0,0.1,0.1,0.1,0.1l0,0c0,0.1,0.1,0.1,0.1,0.1
			c0,0.1,0.1,0.1,0.1,0.2c0.1,0.1,0.2,0.2,0.3,0.4c0.1,0.1,0.1,0.2,0.2,0.4c0.3,0.5,0.5,1,0.6,1.5c0.1,0.5,0.2,1.1,0.2,1.7
			C81.9,70.3,81.8,70.9,81.5,71.5 M70.4,83.8l-0.6-0.3c0-0.1,0-0.1,0-0.2c0-0.1,0-0.1,0-0.2c-0.1-0.1-0.1-0.2-0.2-0.3
			c0,0,0,0-0.1-0.1c0,0,0,0,0,0l-0.1,0l0,0l-0.1-0.1c0,0-0.1-0.1-0.1-0.1l-5.9-4.5c-0.1-0.1-0.2-0.1-0.3-0.2
			c-0.1-0.1-0.2-0.1-0.3-0.1c-0.1,0-0.2,0-0.2,0c-0.1,0-0.2,0-0.3,0.1l-1,0.3l3.2-4.2l0.4-0.6l0,0h0c0,0,0,0,0-0.1l0-0.1l0.6-0.8
			l2.1,1.6l-0.6,0.9l-0.2,0c-0.1,0-0.2,0-0.3,0c-0.1,0-0.2,0.1-0.4,0.2c-0.2,0.1-0.4,0.3-0.5,0.4l-0.1,0.1c0,0,0,0.1-0.1,0.1
			c0,0,0,0.1-0.1,0.1l-0.1,0.1c0,0,0,0,0,0.1l0,0c0,0-0.1,0.1-0.1,0.2l1.7,1.3l0.8-1c0,0,0,0,0,0c0,0,0,0,0,0l0-0.1l0.6-0.8l1.9,1.4
			l-0.6,0.8l-0.2,0c-0.1,0-0.1,0-0.2,0c-0.1,0-0.2,0.1-0.2,0.2c-0.1,0.1-0.1,0.1-0.2,0.2c-0.1,0.1-0.1,0.1-0.2,0.2
			c0,0,0,0.1-0.1,0.1c0,0.1-0.1,0.1-0.1,0.2l2.5,1.9l0,0l0.2,0.1c0.1,0.1,0.2,0.1,0.3,0.1c0.1,0,0.2,0.1,0.3,0.1c0.1,0,0.2,0,0.2,0
			c0.1,0,0.2-0.1,0.2-0.1l0.4,0.5L70.4,83.8z M128.7,32.5c-36.8,0-68.7,21.6-83.5,52.7c9.4,5.3,18.6,9.6,27.6,13.1
			c10-20.8,31.3-35.3,55.9-35.3c24.7,0,46,14.5,56,35.4c0.7-0.1,1.4-0.1,2.2-0.1c4.9,0,9.3,1.3,12.9,4c2.3,0.1,9.2,0.7,13.9,3.3l0,0
			c0.8,0.4,1.8,1.2,2.2,1.6c0.3,0.3,0.6,0.7,0.6,1.2c-0.1,0.6-0.6,0.8-1.1,1.1c-0.3,0.2-1.7,0.7-2.1,0.9c-0.5,0.2-1.3,0.4-2.3,0.8
			c-1.2,0.4-2.7,0.9-4.1,1.4c-3.6,1.2-4.9,2-5.3,2.3c-0.4,0.7-1.3,2.2-2.8,4.2c-1.7,2.4-4.5,6.1-8.2,10c-2.1,32.3-29,57.8-61.8,57.8
			c-34.1,0-61.9-27.7-62-61.8c-5.2-1-10.3-2.3-15.3-3.8l-1.3-0.4l-4.4-14.2c-2.3-0.9-4.7-1.9-7-2.9c-1.6,7-2.5,14.1-2.4,21.2
			c0,51.1,41.4,92.5,92.5,92.5c51.1,0,92.5-41.4,92.5-92.5C221.2,73.9,179.8,32.5,128.7,32.5"/>
	</g>
</g>
<g id="레이어_1">
	<rect x="8" y="8" class="st2" width="234" height="234"/>
</g>
</svg>
