<?xml version="1.0" encoding="utf-8"?>
<!-- Generator: Adobe Illustrator 25.1.0, SVG Export Plug-In . SVG Version: 6.00 Build 0)  -->
<svg version="1.1" xmlns="http://www.w3.org/2000/svg" xmlns:xlink="http://www.w3.org/1999/xlink" x="0px" y="0px"
	 viewBox="0 0 250 250" style="enable-background:new 0 0 250 250;" xml:space="preserve">
<style type="text/css">
	.st0{fill:none;}
	.st1{fill:#231F20;}
	.st2{fill:#B4921F;}
	.st3{fill:#D91920;}
	.st4{fill:#FFFFFF;}
</style>
<g id="Layer_1">
	<rect x="8" y="8" class="st0" width="234" height="234"/>
	<g transform="matrix(3.17105 0 0 -3.17105 -559.456 1888.805)">
		<path class="st1" d="M246.7,537.5v2.5c-0.2,0-0.4,0-0.6-0.1l0-2.4C246.4,537.5,246.5,537.5,246.7,537.5"/>
		<path class="st1" d="M243.1,552.3v11.5c0,1.1,0.1,1.6,0.3,2.7c-0.2-0.1-0.4-0.3-0.6-0.4l0,0c-0.2-1.1-0.3-1.6-0.3-2.6v-23.7
			c0.2,0,0.4,0,0.6,0V552.3z"/>
		<path class="st1" d="M197.3,561c-0.2,0.1-0.4,0.2-0.6,0.3V554c0.2-0.1,0.4-0.1,0.6-0.2V561z"/>
		<path class="st1" d="M191.4,562.3c-0.1,0-0.1,0.1-0.2,0.1c-0.2,0-0.3,0-0.4,0c-0.1-0.1-0.2-0.3-0.3-0.5v0l0,0
			c0-0.1-0.1-0.4-0.1-0.8v-3.5c0-1.4,0.1-1.8,0.2-2c0.5-1,1.8-1.9,2.9-2.7c0.8-0.6,1.7-1.2,2.2-1.8c1.2-1.5,1.2-3.2,1.2-4.8v-4.9
			c0-1.4,0-2.6-0.9-3.5c-0.4-0.4-1.1-0.6-1.8-0.7c1,0.1,1.9,0.3,2.4,0.7c0.9,0.9,0.9,2.1,0.9,3.5v4.4c0,1.6,0.1,3.5-1.2,5
			c-1.4,1.5-4.3,2.7-5.2,4.4c-0.1,0.2-0.2,0.7-0.2,2v3.4c0,0.5,0,0.7,0.1,0.8c0.1,0.4,0.2,0.6,0.4,0.6
			C191.5,562.2,191.4,562.3,191.4,562.3"/>
		<path class="st1" d="M190.5,540.3c0,0.2,0,0.8,0,1.2v7.1c-0.2,0-0.4,0.1-0.6,0.1v-7.2c0-0.4,0-1,0-1.2c0.1-0.6,0.3-0.8,0.7-1
			c0.1,0,0.2-0.1,0.3-0.1c0.1,0,0.1,0,0.2,0.1C190.7,539.5,190.5,539.8,190.5,540.3"/>
		<path class="st1" d="M203.8,552.7c-0.4-0.1-0.4-0.5-0.4-0.8c0-0.1,0-0.1,0-0.2l0-0.2v-3.2c0.2,0,0.4,0,0.6-0.1v3.2
			c0,0.4-0.1,1,0.4,1.2c0,0-0.1,0.1-0.1,0.1C204,552.7,203.9,552.7,203.8,552.7"/>
		<path class="st1" d="M203.9,540.9v5.5c-0.2,0-0.4,0-0.6,0v-5.5l0-0.5c0-0.1,0-0.3,0-0.4c0-1,0.1-1.2,0.9-1.3c0,0,0,0,0.1,0
			C203.9,539,203.9,539.5,203.9,540.9"/>
		<path class="st1" d="M209.6,541.2c0-1.9,0-2.5-0.3-2.9l0,0c-0.2-0.3-0.4-0.7-1.3-1c-0.1,0-0.3-0.1-0.6-0.1c0.5,0,0.9,0.1,1.2,0.2
			c0.9,0.3,1.1,0.7,1.2,0.9c0.3,0.4,0.3,1,0.3,2.9v3.6c-0.2,0-0.4,0-0.6,0V541.2z"/>
		<path class="st1" d="M209.6,550.2l0-0.4v-3.9c0.2,0,0.4,0,0.6,0v3.9c0,1.3,0.1,2.2-0.7,3c-0.5,0.4-1.1,0.6-2.2,0.9
			c0.8-0.2,1.2-0.4,1.6-0.8C209.7,552.1,209.6,551.3,209.6,550.2"/>
		<path class="st1" d="M221.9,550.8v-11c0-0.9,0-2-1.5-2.5c-0.2-0.1-0.4-0.1-0.6-0.1c0.6,0,1,0.1,1.3,0.2c1.4,0.5,1.4,1.5,1.4,2.5
			v11.1c0,0.9,0,1.8-1.4,2.2c-0.2,0-0.6,0.1-1.1,0.1c0.2,0,0.4,0,0.5-0.1C221.9,552.7,221.9,551.7,221.9,550.8"/>
		<path class="st1" d="M216,550.8v-11.3c0-0.7,0.2-0.9,0.7-0.9c0.1,0,0.1,0.1,0.2,0.1c-0.2,0.1-0.2,0.4-0.3,0.8c0,3.2,0,8.3,0,11.3
			c0,0.4,0.1,0.6,0.3,0.8c0,0-0.1,0.1-0.2,0.1C216.2,551.7,216,551.5,216,550.8"/>
		<path class="st1" d="M229.4,539.8v12.4c0,0.9,0,1.6,0.2,2.2c-0.2,0-0.4-0.1-0.6-0.1l0,0c-0.1-0.6-0.2-1.2-0.2-2.1v-12.4
			c0-0.7,0.2-0.9,0.7-1c0.1,0,0.1,0.1,0.2,0.1C229.5,539.1,229.4,539.4,229.4,539.8"/>
		<path class="st1" d="M235.4,537.4h0.6c-0.3,0.7-0.4,1.8-0.4,2.6v13.6c0,1.1,0,1.8,0.1,2.5c-0.2-0.1-0.4-0.1-0.6-0.2v0
			c-0.1-0.7-0.1-1.5-0.1-2.5V540C234.9,539.2,235,538.1,235.4,537.4L235.4,537.4z"/>
		<path class="st2" d="M215.3,558.6v-0.4c-0.3,0-1,0-1.6,0.1v-1.2c0.5,0,1.2,0,1.4,0v-0.4c-0.2,0-0.9,0-1.4,0v-2
			c0-0.1,0-0.2,0.1-0.3l-1.6,0c0.1,0.1,0.1,0.2,0.1,0.3v3.5c0,0.1,0,0.3-0.1,0.4L215.3,558.6z"/>
		<path class="st2" d="M219.6,558.7V557l-1.2,0v0.4c0,0.3,0,0.8-0.2,0.9c-0.1,0-0.3,0-0.4,0c-0.2-0.1-0.2-0.3-0.2-0.5v-2.6
			c0-0.2,0-0.4,0.2-0.5c0.1,0,0.3,0,0.4,0c0.2,0.1,0.2,0.2,0.2,0.5v0.8l1.2,0v-1c0-0.2,0-0.4-0.2-0.6c-0.2-0.1-0.5-0.2-1.4-0.2
			l-0.4,0c-0.9,0-1.4,0.1-1.4,0.5v3c0,0.1,0,0.4,0.3,0.6c0.4,0.2,1.9,0.2,2.3,0.2L219.6,558.7z"/>
		<path class="st2" d="M198.5,560.5v-0.6c3.8-1.4,7.9-2.3,12.2-2.7v0.6C206.4,558.2,202.3,559.1,198.5,560.5"/>
		<path class="st2" d="M221,557.8v-0.6c5.3,0.5,10.3,1.8,14.6,3.7v0.6C231.3,559.6,226.4,558.3,221,557.8"/>
		<path class="st2" d="M190.2,535.1h0.4v-2.6c0-0.1,0-0.2,0-0.3H190c0,0.1,0.1,0.2,0.1,0.3v1.9h-0.3v0.3
			C189.9,534.8,190.1,534.8,190.2,535.1"/>
		<path class="st2" d="M196.9,533.9v0.6c0,0.2,0,0.3-0.1,0.3c0,0-0.1,0-0.1,0c-0.1,0-0.1-0.1-0.1-0.3v-0.5c0-0.1,0-0.2,0-0.3
			c0-0.1,0.1-0.2,0.2-0.1C196.8,533.7,196.9,533.8,196.9,533.9 M196,533.2h0.6v-0.3c0-0.2,0-0.4,0.1-0.4c0,0,0.1,0,0.1,0
			c0.1,0,0.1,0.2,0.1,0.4v0.6c-0.2-0.1-0.6-0.1-0.8,0c-0.1,0.1-0.1,0.2-0.1,0.3v0.8c0,0.2,0,0.4,0.1,0.5c0.1,0.1,0.5,0.1,0.6,0.1
			h0.2c0.1,0,0.5,0,0.6-0.1c0.1-0.1,0.1-0.2,0.1-0.4v-1.9c0-0.1,0-0.3-0.1-0.5c-0.1-0.1-0.5-0.1-0.6-0.1h-0.2c-0.1,0-0.4,0-0.5,0.1
			c-0.1,0.1-0.1,0.2-0.1,0.5V533.2z"/>
		<path class="st2" d="M203,533.5v-0.8c0-0.1,0-0.2,0.1-0.2c0,0,0.1,0,0.1,0c0.1,0,0.1,0.1,0.1,0.2v0.8c0,0.1,0,0.1-0.1,0.2
			c0,0-0.1,0-0.2,0C203,533.6,203,533.5,203,533.5 M203,534.7v-0.5c0-0.1,0-0.2,0.1-0.2c0,0,0.1,0,0.1,0c0.1,0,0.1,0.1,0.1,0.2v0.5
			c0,0.1,0,0.1-0.1,0.2c0,0-0.1,0-0.2,0C203,534.8,203,534.7,203,534.7 M203.7,533.8c0.2-0.1,0.3-0.1,0.3-0.4v-0.7
			c0-0.2,0-0.4-0.2-0.5c-0.2-0.1-1-0.1-1.2,0c-0.2,0.1-0.1,0.4-0.1,0.5v0.6c0,0.2,0,0.3,0.2,0.4c-0.2,0.1-0.2,0.2-0.2,0.4v0.4
			c0,0.1,0,0.4,0.1,0.5c0.1,0.1,0.4,0.1,0.6,0.1h0.1c0.1,0,0.5,0,0.6-0.1c0.1-0.1,0.1-0.4,0.1-0.5v-0.4
			C203.9,534,203.9,533.9,203.7,533.8"/>
		<path class="st2" d="M210.1,533.8c0.2-0.1,0.3-0.2,0.3-0.4v-0.6c0-0.1,0-0.4-0.1-0.5c-0.1-0.1-0.2-0.1-0.5-0.1h-0.4
			c-0.2,0-0.4,0-0.5,0.1c-0.1,0.1-0.1,0.3-0.1,0.5v0.6h0.6v-0.4c0-0.2,0-0.4,0.1-0.4c0,0,0.1,0,0.1,0c0.1,0,0.1,0.2,0.1,0.4v0.3
			c0,0.2,0,0.3-0.1,0.4c0,0-0.1,0-0.3,0v0.3c0.1,0,0.2,0,0.3,0c0,0,0,0.2,0,0.3v0.3c0,0.1,0,0.1-0.1,0.2c0,0-0.1,0-0.2,0
			c-0.1-0.1-0.1-0.1-0.1-0.3v-0.4h-0.5v1c0,0,0.6,0,0.7,0c0.3,0,0.6,0,0.7-0.1c0.1-0.1,0.1-0.3,0.1-0.5v-0.3c0-0.2,0-0.3-0.1-0.4
			C210.2,533.8,210.2,533.8,210.1,533.8"/>
		<path class="st2" d="M221.6,532.7h0.5c0.2,0,0.3,0,0.4,0v-0.5H221v0.5l0.6,0.7c0.2,0.3,0.4,0.4,0.4,0.6c0,0.1,0,0.5,0,0.6
			c0,0.1,0,0.1-0.1,0.1c0,0-0.1,0-0.1,0c-0.1-0.1-0.1-0.3-0.1-0.5V534H221v1c0.2,0,0.5,0.1,0.6,0.1c0.3,0,0.6,0,0.8-0.1
			c0.1-0.1,0.1-0.4,0.1-0.5v-0.2c0-0.4,0-0.4-0.4-0.9L221.6,532.7z"/>
		<path class="st2" d="M228.3,534.7c0,0.1,0,0.2-0.1,0.2c-0.1,0-0.2-0.1-0.2-0.2v-2c0-0.1,0-0.2,0.2-0.2c0.1,0,0.1,0.1,0.1,0.2
			V534.7z M228.9,532.7c0-0.2,0-0.3-0.1-0.4c-0.1-0.1-0.2-0.1-0.7-0.1c-0.4,0-0.5,0-0.6,0.1c-0.2,0.1-0.1,0.3-0.1,0.5v1.9
			c0,0.2,0,0.3,0.1,0.5c0.1,0.1,0.2,0.1,0.6,0.1c0.4,0,0.6,0,0.7-0.1c0.1-0.1,0.1-0.2,0.1-0.4V532.7z"/>
		<path class="st2" d="M234.8,534.7c0,0.1,0,0.2-0.1,0.2c-0.1,0-0.2-0.1-0.2-0.2v-2c0-0.1,0-0.2,0.2-0.2c0.1,0,0.1,0.1,0.1,0.2
			V534.7z M235.4,532.7c0-0.2,0-0.3-0.1-0.4c-0.1-0.1-0.2-0.1-0.7-0.1c-0.4,0-0.5,0-0.6,0.1c-0.2,0.1-0.1,0.3-0.1,0.5v1.9
			c0,0.2,0,0.3,0.1,0.5c0.1,0.1,0.2,0.1,0.6,0.1c0.4,0,0.6,0,0.7-0.1c0.1-0.1,0.1-0.2,0.1-0.4V532.7z"/>
		<path class="st2" d="M240.5,533.4h0.5v1.1L240.5,533.4z M241,535.1h0.7c0-0.1,0-0.1,0-0.2v-1.4h0.3V533h-0.3v-0.5
			c0-0.1,0-0.1,0-0.2H241c0,0.1,0,0.2,0,0.2v0.5h-0.9v0.5L241,535.1z"/>
		<path class="st2" d="M214.9,532.4l0.9,0.7l0.9-0.7l-0.4,1.1l0.9,0.6l-1.1,0l-0.3,1l-0.3-1l-1.1,0l0.9-0.6L214.9,532.4z"/>
		<path class="st2" d="M185,530.4v-1.1h4.9v0c6.4-2.6,8-7,8.7-9.5H233c0.7,2.5,2.3,6.9,8.7,9.5v0h4.9v1.1H185z"/>
		<path class="st3" d="M245.3,537.5v2.4c-1.3-0.2-2-0.2-3.6-0.3V563c0,1,0.1,1.5,0.3,2.6c-1.8-1.3-3.5-2.4-5.2-3.4
			c0.2-0.6,0.3-0.9,0.3-1.8v-20.8c0-0.9-0.1-1.4-0.3-2.2C239.7,537.4,242.4,537.4,245.3,537.5"/>
		<path class="st3" d="M185.3,555c0.4-1.1,1.3-2.1,3.1-3.7c0.2-0.2,0.4-0.3,0.6-0.5c1.5-1.2,2.5-1.8,2.8-3.6
			c0.1-0.3,0.1-1.1,0.1-1.9v-3.7c0-1.1,0-1.8-0.6-2.3c-0.1,0-0.1-0.1-0.2-0.1c-0.1,0-0.1,0-0.2-0.1c-0.4-0.1-0.8-0.1-1.1,0
			c-0.4,0.2-0.6,0.4-0.7,1c0,0.2,0,0.8,0,1.2v7.3c-1.4,0.2-2.7,0.5-4.1,0.8v-12.2c1.4-0.1,4.1-0.3,5.2-0.3c2.1,0,4.2-0.1,5.1,0.8
			c0.9,0.9,0.9,2.2,0.9,3.6v4.5c0,1.7,0.1,3.6-1.2,5.2c-1.4,1.6-4.3,2.8-5.2,4.6c-0.1,0.2-0.2,0.7-0.2,2.1v3.6c0,0.5,0,0.8,0.1,0.9
			c0.1,0.6,0.4,0.7,0.7,0.6c0.4-0.1,0.7-0.4,1-0.6c0.1-0.1,0.1-0.1,0.2-0.2c0,0,0,0,0,0c0.6-0.8,0.6-1.8,0.6-2.7v-4.1
			c1.3-0.4,2.5-0.8,3.8-1.2v7.5c-3.2,1.8-6.8,4.4-7.8,5.1c-1,0.7-1.8,1-2.3,0.8c-0.4-0.2-0.7-0.7-0.8-1.6c-0.1-0.9-0.1-1.8-0.1-2.2
			v-3.8C185,557.4,184.9,556.2,185.3,555"/>
		<path class="st3" d="M203,552.9c0.3,0.1,0.9,0,1.2-0.2c0,0,0.1,0,0.1-0.1v0c0.4-0.3,0.4-0.6,0.4-1.3v-3.3
			c-0.7,0.1-1.5,0.1-2.2,0.2v3.3C202.5,552.1,202.4,552.7,203,552.9 M198.6,538.7c0.1-0.3,0.5-1.1,1.2-1.3c0.9-0.3,2.3-0.3,3.4-0.3
			c0.2,0,0.3,0,0.4,0c0.4,0,2.8,0,3.7,0.2c0.9,0.3,1.1,0.7,1.2,1c0.3,0.4,0.3,1,0.3,2.9v3.6c-1.4,0.1-2.7,0.1-4.1,0.2
			c0-0.9,0-3.4,0-4.2c0-1.4,0.1-1.8-0.4-2.1c0,0,0,0-0.1,0c0,0,0,0,0,0c-0.1,0-0.4,0-0.6,0c-1.3,0-1.2,0.3-1.1,2.3v5.6
			c2.1-0.2,4.2-0.3,6.3-0.4v3.9c0,1.4,0.1,2.3-0.7,3c-0.7,0.6-1.6,0.8-4,1.3c-0.3,0.1-0.6,0.1-0.9,0.2c-1.6,0.4-2.9,0.6-3.4,0.5
			c-0.4-0.1-0.7-0.3-0.9-0.5c-0.4-0.6-0.4-1.1-0.4-2.8v-10.7C198.5,539.7,198.4,539.2,198.6,538.7"/>
		<path class="st3" d="M216.1,551.8c0.2,0,0.4,0,0.5-0.1c0.1,0,0.1-0.1,0.2-0.1c0.2-0.1,0.2-0.4,0.2-0.8v-11.3
			c0-0.4-0.1-0.7-0.2-0.8c-0.1,0-0.1-0.1-0.2-0.1c-0.1-0.1-0.3-0.1-0.5-0.1c-0.7,0-1,0.2-1,1v11.3
			C215.1,551.6,215.4,551.8,216.1,551.8 M211.1,539.8c0-0.5-0.1-1.6,1-2.3c0.6-0.4,2.3-0.4,4-0.4c2,0,3.1,0.1,3.6,0.3
			c1.4,0.5,1.4,1.5,1.4,2.4v11c0,0.9,0,1.8-1.4,2.2c-0.5,0.1-1.5,0.1-3.6,0.1c-1.7,0-3.4,0-4-0.3c-1.1-0.6-1-1.6-1-2.1V539.8z"/>
		<path class="st3" d="M223.7,539.7c0-0.8,0.1-1.4,1.1-2.1c1.1-0.7,4.4-0.8,5.4,0.3c0.1-0.2,0.1-0.3,0.2-0.5c0,0,0,0,0,0h0.3
			c1.3,0,2.6,0,3.9,0c-0.3,0.7-0.4,1.8-0.4,2.6v13.3c0,1,0,1.8,0.2,2.4c-1.5-0.5-3-0.9-4.5-1.2c0.1-0.5,0.1-1.2,0.1-1.9v-12.8
			c0-0.4-0.1-0.7-0.3-0.9c-0.1,0-0.1-0.1-0.2-0.1c-0.1-0.1-0.3-0.1-0.5-0.1c-0.6,0-1,0.1-1,1v12.2c0,0.9,0,1.5,0.2,2.1
			c-1.5-0.3-3-0.6-4.6-0.8c0.1-0.5,0.1-1.1,0.1-1.7V539.7z"/>
		<path class="st3" d="M212.5,522.5h6.6v6.8h-6.6V522.5z"/>
		<path class="st3" d="M199.2,529.4v-4.2c0.5-0.9,1-1.7,1.3-2.6h5.3v6.8H199.2z"/>
		<path class="st3" d="M225.8,529.4v-6.8h5.3c0.3,0.9,0.8,1.7,1.3,2.6v4.2H225.8z"/>
		<path class="st2" d="M189.2,570c0.4-0.3,0.7-0.6,1.1-0.9c0.7-0.6,1.5-1.1,2.2-1.6l0.1-0.1c0.2-0.1,0.4-0.3,0.6-0.4
			c0.1,0,0.1-0.1,0.2-0.1c0.3-0.2,0.6-0.4,0.9-0.5c0,0,0.1,0,0.1,0c0.3-0.2,0.5-0.3,0.8-0.5c4.9-2.7,10.6-4.5,16.6-5
			c-0.5,0.4-0.9,0.8-1.3,1.2c-1.6,0.2-3.1,0.5-4.6,0.8c-2.3,0.5-4.5,1.3-6.6,2.2c-2.4,1-4.6,2.2-6.6,3.7v8.3c3.1,1.6,5.2,3.7,6.6,6
			c0.5,0.8,0.9,1.7,1.3,2.6h5.3v0c0,1.2-0.5,1.8-1.2,2.2c1.7,0,2.4-1.3,2.4-2.1c0.6,1,1.6,1.7,1.9,2.7h-10.4
			c-0.7-2.5-2.3-6.9-8.7-9.5v-7.9c-1.9,1.7-3.6,3.6-4.9,5.5v-1.9C186.2,572.9,187.6,571.4,189.2,570"/>
		<path class="st2" d="M241.7,570.8v7.9c-6.4,2.6-8,7-8.7,9.5h-10.5c0.3-0.9,1.3-1.7,1.9-2.7c0.1,0.8,0.8,2.1,2.4,2.1
			c-0.7-0.3-1.2-1-1.2-2.2v0h5.4c0.3-0.9,0.8-1.7,1.3-2.6c1.4-2.2,3.5-4.4,6.6-6v-8.3c-2-1.4-4.3-2.7-6.6-3.7
			c-2.1-0.9-4.3-1.6-6.6-2.2c-1.5-0.3-3-0.6-4.6-0.8c-0.4-0.5-0.8-0.9-1.3-1.2c5.8,0.5,11.3,2.1,16.1,4.7c1.9,1,3.7,2.2,5.3,3.5
			c0.4,0.3,0.7,0.6,1.1,0.9c1.6,1.4,3,2.9,4.3,4.5v1.9C245.3,574.4,243.6,572.5,241.7,570.8"/>
		<path class="st2" d="M227.5,574.4c0,0-0.2,0.3-0.4,0.7c0.9,0.6,1.6,1.9,0.4,4.6C229.5,576.2,228.3,574.9,227.5,574.4 M215.8,583.9
			c-0.2,0-0.7-0.1-1-0.2c0.3,0.5,0.8,1.3,1,1.9c0.2-0.6,0.6-1.4,1-1.9C216.5,583.8,216,583.9,215.8,583.9 M204,574.4
			c-0.8,0.5-1.9,1.9,0,5.3c-1.2-2.8-0.4-4,0.4-4.6C204.2,574.7,204,574.4,204,574.4 M228.8,581.1c-0.6,1.2-0.1,3,0.1,3.2
			c-1.5-0.6-1.8-2.2-1.7-2.9c-0.5,1-1.3,2.2-1.5,3.8c0,0.1,0,0.3,0,0.4v0c0,1.2,0.5,1.8,1.2,2.2c-1.6,0-2.4-1.3-2.4-2.1
			c-0.6,1-1.6,1.7-1.9,2.7c-0.1,0.2-0.1,0.4-0.1,0.6c0,0.3,0.1,1.2,0.8,1.7c-1-0.2-1.4-0.8-1.6-1.5c0-0.1-0.1-0.3-0.1-0.4
			c0-0.1,0-0.2,0-0.3c0-0.1,0-0.1,0-0.2c0-1,0.4-1.9,0.8-2.5c0.2-0.3,0.4-0.6,0.4-0.7c-0.2,0.2-0.5,0.5-0.7,0.7
			c-0.6,0.8-0.9,1.7-1,2.7c0,0,0,0,0,0c-0.1,0.1-0.2,0.2-0.3,0.3c-0.1,0.1-0.3,0.3-0.4,0.4c-1.3,1.4-1.3,2.7-0.8,3.6c0,0,0,0,0,0
			c-0.4-0.4-0.7-0.9-0.8-1.5c-0.1-0.3-0.1-0.6-0.1-0.9c0-3.8,4.6-4.9,4.6-8.5c1.5,0,1.9-1.2,1.9-1.5c0-0.4-0.2-1-0.9-1.4
			c1.2,0,1.6-0.8,1.6-1.4c0-0.7-0.5-1.1-1.1-1.1c-0.9,0-1.2,0.8-1.1,1.2c-0.1-0.3,0.3-0.9,0.8-0.8c0.7,0,0.9,0.6,0.9,0.9
			c-0.1,1-0.8,1.2-1.5,1.2c-0.6,0-1.2,0.1-1.4,0.6c0.4-0.4,0.9-0.4,1.3-0.3c0.3,0.1,0.9,0.5,0.8,1.2c-0.1,1-1.1,1.3-1.7,1.2
			c0,4.1-5.5,5.2-5.5,7.5c0,0.6,0.6,1.2,0.7,1.3c-1.2-0.6-1.4-1.5-1.4-2c0-3.4,3.8-4.4,3.8-6.7c0-1-0.6-1.3-0.9-1.4
			c0.1,0.1,0.1,0.4,0.1,0.7c0,0.7-0.5,1.2-1.1,1.3c-0.7,0.1-1.6-0.5-1.5-1.9c0-0.5,0.3-1.4,1.1-2c-0.2-0.2-0.2-0.5-0.2-0.8
			c0-0.1,0-0.2,0-0.3c-0.3,0.3-0.6,0.5-0.9,0.7c0.4,0.3,0.6,0.7,0.6,0.7c-0.5,0.4-1.1,1.1-1.1,2.2c0,1.4,1,2,1.9,2
			c0.7-0.1,1.4-0.6,1.5-1.3c0.2,1.2-1.2,2.2-2.2,3.4c-1.1,1.3-1.9,3.1-1,4.7c-0.3-0.3-0.8-1.1-1-1.5c-0.1,0.5-0.6,1.2-1,1.5
			c0.9-1.6,0.1-3.4-1-4.7c-1-1.2-2.4-2.2-2.2-3.4c0.1,0.7,0.7,1.2,1.5,1.3c0.8,0.1,1.9-0.5,1.9-2c0-1.1-0.6-1.8-1.1-2.2
			c0,0,0.3-0.4,0.6-0.7c-0.3-0.2-0.7-0.4-0.9-0.7c0,0.1,0,0.2,0,0.3c0,0.3-0.1,0.6-0.2,0.8c0.8,0.6,1.1,1.5,1.1,2
			c0.1,1.4-0.8,1.9-1.5,1.9c-0.6-0.1-1.1-0.6-1.1-1.3c0-0.2,0-0.5,0.1-0.7c-0.3,0.1-0.9,0.4-0.9,1.4c0,2.3,3.8,3.4,3.8,6.7
			c0,0.6-0.2,1.4-1.4,2c0.1-0.1,0.7-0.7,0.7-1.3c0-2.4-5.5-3.5-5.5-7.5c-0.5,0.1-1.6-0.2-1.7-1.2c-0.1-0.8,0.5-1.2,0.8-1.2
			c0.3-0.1,0.9-0.1,1.3,0.3c-0.2-0.5-0.8-0.6-1.4-0.6c-0.6,0-1.4-0.2-1.5-1.2c0-0.3,0.1-0.8,0.9-0.9c0.6,0,0.9,0.5,0.8,0.8
			c0.2-0.4-0.2-1.2-1.1-1.2c-0.6,0-1.1,0.5-1.1,1.1c0,0.6,0.4,1.4,1.6,1.4c-0.6,0.3-0.8,0.9-0.9,1.4c0,0.4,0.3,1.5,1.9,1.5
			c0,3.6,4.6,4.7,4.6,8.5c0,0.3,0,0.6-0.1,0.9c-0.1,0.5-0.4,1.1-0.8,1.5c0,0,0,0,0,0c0.5-0.9,0.5-2.2-0.8-3.6
			c-0.2-0.2-0.4-0.4-0.6-0.6c0,0-0.1-0.1-0.1-0.1c0,0,0,0,0,0c0-1-0.4-1.9-1-2.7c-0.2-0.3-0.4-0.5-0.7-0.7c0.1,0.2,0.3,0.4,0.4,0.7
			c0.3,0.6,0.7,1.5,0.8,2.5c0,0.1,0,0.1,0,0.2c0,0.2,0,0.4-0.1,0.6c0,0,0,0.1,0,0.1c-0.2,0.7-0.6,1.4-1.6,1.5
			c0.7-0.5,0.8-1.4,0.8-1.7c0-0.2-0.1-0.4-0.1-0.6c-0.3-0.9-1.3-1.7-1.9-2.7c-0.1,0.8-0.8,2.1-2.4,2.1c0.7-0.3,1.2-1,1.2-2.2v0
			c0-1.7-0.9-3.1-1.5-4.2c0.1,0.7-0.2,2.4-1.7,2.9c0.2-0.2,0.7-2,0.1-3.2c-1.1-2.4-2.5-3.3-2.4-5.5c0.1-1.5,1-3.1,3-3.6
			c-0.1-2,1.2-3.1,2.4-3.4c0.3-0.1,0.6-0.2,0.9-0.2c1.3,0,2.1,0.7,2.4,1.1c-0.1-0.5-1.2-1.9-3-1.5c1-1.2,2.2-1.2,2.7-1.2
			c0-0.1,0-0.2,0-0.3c0-1.6,0.5-3.1,1.6-4.4c0.4-0.5,0.8-0.9,1.3-1.2c1.2-0.9,2.6-1.3,4-1.3c1.5,0,2.9,0.5,4,1.3
			c0.5,0.4,0.9,0.8,1.3,1.2c1,1.2,1.6,2.8,1.5,4.4c0,0.1,0,0.2,0,0.3c0.5,0,1.7,0.1,2.6,1.2c-1.8-0.3-2.9,1-2.9,1.5
			c0.3-0.4,1.1-1.1,2.4-1.1c0.3,0,0.6,0.1,1,0.2c1.2,0.4,2.5,1.4,2.4,3.4c2,0.6,2.9,2.2,3,3.6C231.3,577.8,229.9,578.7,228.8,581.1"
			/>
		<path class="st3" d="M203.4,572c-2,0.6-2.9,2.2-3,3.6c-0.1,2.2,1.2,3.1,2.4,5.5c0.6,1.2,0.1,3-0.1,3.2c1.5-0.6,1.8-2.2,1.7-2.9
			c0.6,1.1,1.5,2.5,1.5,4.2h-5.3c-0.4-0.9-0.8-1.8-1.3-2.6V565c2.1-0.9,4.3-1.6,6.6-2.2v5.7C204.7,568.9,203.3,569.9,203.4,572"/>
		<path class="st3" d="M227.2,581.3c-0.1,0.7,0.2,2.4,1.7,2.9c-0.2-0.2-0.7-2-0.1-3.2c1.1-2.4,2.5-3.3,2.4-5.5c-0.1-1.5-1-3.1-3-3.6
			c0.1-2-1.2-3.1-2.4-3.4v-5.7c2.3,0.5,4.5,1.3,6.6,2.2v17.9c-0.5,0.9-1,1.7-1.3,2.6h-5.3v-0.4C225.9,583.6,226.7,582.3,227.2,581.3
			"/>
		<path class="st4" d="M212.4,577.2c0.1,0,0.3,0.1,0.3,0.3c0,0.1-0.1,0.3-0.3,0.3c-0.1,0-0.3-0.1-0.3-0.3c0,0,0,0,0,0
			C212.1,577.3,212.3,577.2,212.4,577.2"/>
		<path class="st4" d="M211.8,576.1c0.3,0,0.6,0.1,1,0.4c-0.1,0-0.3-0.1-0.4-0.1c-0.6,0-1.1,0.5-1.1,1.1c0,0.1,0,0.2,0,0.3
			c-0.3,0-0.6,0.2-0.9,0.4c0-0.1-0.1-0.4-0.1-0.6C210.4,576.5,211.3,576.1,211.8,576.1"/>
		<path class="st4" d="M219.2,577.2c0.1,0,0.3,0.1,0.3,0.3c0,0.1-0.1,0.3-0.3,0.3c-0.1,0-0.3-0.1-0.3-0.3c0,0,0,0,0,0
			C218.9,577.3,219,577.2,219.2,577.2"/>
		<path class="st4" d="M221.2,577.5c0,0.2-0.1,0.5-0.1,0.6c-0.2-0.2-0.6-0.3-0.9-0.4c0-0.1,0-0.2,0-0.3c0-0.6-0.5-1.1-1.1-1.1
			c-0.1,0-0.3,0-0.4,0.1c0.3-0.3,0.7-0.3,1-0.4C220.3,576.1,221.2,576.5,221.2,577.5"/>
		<path class="st4" d="M222.6,575.3c0,0,0.4,0.8,0,2c0.2-2.1-1.6-3.4-3.4-2.5c0-0.2,0-0.4,0-0.7c0-0.5-0.2-1.3-1.1-1.3
			c-0.3,0-0.6,0.1-0.8,0.3c0,0.4,0.2,1.4,1.1,1c-0.1,0.2-0.4,0.3-0.6,0.3c-0.3,0-0.6-0.3-0.7-0.7c-0.2-0.6-0.7-1.1-1.2-1.1
			c-0.6,0-1,0.5-1.2,1.1c-0.2,0.5-0.5,0.7-0.7,0.7c-0.3,0-0.5-0.1-0.6-0.3c0.9,0.4,1.1-0.6,1.1-1c-0.2-0.2-0.5-0.3-0.8-0.3
			c-0.9,0-1.1,0.9-1.1,1.3c0,0.2,0,0.5,0,0.7c-1.8-0.9-3.6,0.4-3.4,2.5c-0.5-1.1,0-2,0-2c-2.1,0.2-3.1-1.3-3.1-2.3s0.8-1.6,1.5-1.7
			c0.8-0.1,1.6,0.6,1.2,1.5c0.1-0.9-0.7-1.1-1-1.1c-0.3,0-1.1,0.3-1.1,1.3c0,1,1.1,1.8,2.1,1.7c1.6-0.1,2.4-1.5,2.3-2.9
			c0.1-0.2,0.8-1.3,2.1-1.3c1.5,0,1.9,1.2,2.9,1.2c1.1,0,1.4-1.2,2.9-1.2c1.3,0,2,1.1,2.1,1.3c-0.2,1.4,0.7,2.8,2.3,2.9
			c1,0.1,2.1-0.7,2.1-1.7c0-1-0.8-1.3-1.1-1.3c-0.4,0-1.1,0.2-1,1.1c-0.3-0.9,0.4-1.5,1.2-1.5c0.7,0.1,1.5,0.7,1.5,1.7
			S224.7,575.5,222.6,575.3"/>
		<path class="st4" d="M213.5,568.4c-0.3,0.3-0.4,1,0.2,1.4c1,0.3,1.6,1.1,2.1,1.1c0-0.4,0-1.8,0-1.9c-0.9-0.5-1.6-1-2.4-1.7
			c-0.1,0-1.8,0.6-1.9,0.6c0,0.2-0.1,0.4-0.1,0.7c0,0.4,0.1,0.8,0.1,1.3c0,0,0,0.1,0,0.1c0.1-0.1,0.3-0.1,0.5-0.2l0,0
			C212,569.3,212.4,568.4,213.5,568.4"/>
		<path class="st4" d="M219.5,569.8C219.5,569.8,219.5,569.8,219.5,569.8c0.2,0.1,0.4,0.2,0.6,0.2c0-0.1,0-0.2,0-0.2
			c0.1-0.4,0.1-0.8,0.1-1.2c0-0.2,0-0.5-0.1-0.7c-0.1,0-1.8-0.6-1.9-0.6c-0.7,0.7-1.5,1.3-2.4,1.7v1.8c0.5-0.2,1-0.8,1.9-1.1
			c0.6-0.4,0.5-1.1,0.2-1.4C219.2,568.4,219.6,569.3,219.5,569.8"/>
		<path class="st4" d="M214.2,564.3c0,0-1.1-1.6-1.2-1.6c-0.7,0.1-1.3,0.4-1.8,0.7l-0.3,0.2c-0.4,0.7-0.6,1.4-0.7,2.2
			c0,0,0.1,0.3,0.1,0.3c0.3,0.5,0.5,1.1,1.1,1.6c0.1,0,1.8-0.6,1.9-0.6C213.5,566.1,213.8,565.2,214.2,564.3"/>
		<path class="st4" d="M214.4,564.2c1-0.2,2-0.2,2.9,0c0,0,1-1.4,1-1.4s0.1-0.1,0.1-0.2c-0.3-0.7-0.8-1.1-1.2-1.5l-0.2-0.2
			c-0.4-0.1-0.8-0.1-1.2-0.1c-0.4,0-0.8,0-1.2,0.1c0,0-0.2,0.2-0.2,0.2l-0.6,0.6c-0.3,0.3-0.4,0.6-0.6,0.9
			C213.3,562.7,214.4,564.2,214.4,564.2"/>
		<path class="st4" d="M217.5,564.3c0.4,0.9,0.7,1.8,0.9,2.8c0.1,0,1.8,0.6,1.9,0.6c0.2-0.2,0.4-0.4,0.5-0.6c0.2-0.3,0.4-0.7,0.6-1
			l0.1-0.3c-0.1-0.8-0.3-1.5-0.7-2.2c0,0-0.3-0.1-0.3-0.1c-0.5-0.3-1.1-0.6-1.8-0.7C218.6,562.8,217.6,564.2,217.5,564.3"/>
		<path class="st4" d="M210.6,563.1c0,0,0-0.3-0.1-0.5c-0.3,0.5-0.6,1-0.8,1.6c-0.2,0.7-0.3,1.3-0.4,2c0.3-0.3,0.6-0.5,0.6-0.6
			c0.1-0.8,0.3-1.5,0.7-2.2L210.6,563.1"/>
		<path class="st4" d="M215.9,559.9c-0.7,0-1.3,0.1-1.9,0.3c0.4,0.2,0.7,0.4,0.7,0.4c0.8-0.2,1.6-0.2,2.3,0c0.1,0,0.3-0.2,0.7-0.4
			C217.1,560,216.5,559.9,215.9,559.9"/>
		<path class="st4" d="M221.2,562.7c0,0.5-0.2,0.8-0.2,0.8c0.4,0.7,0.6,1.4,0.7,2.2c0.1,0.1,0.4,0.3,0.6,0.6
			C222.3,565,221.9,563.7,221.2,562.7"/>
		<path class="st1" d="M208.9,566.7c-0.4,0-1.7,0-2.7,1.2c1.8-0.3,2.9,1,3,1.5c-0.3-0.4-1.1-1.1-2.4-1.1c-0.3,0-0.6,0.1-0.9,0.2
			v-5.7c1.5-0.4,3.1-0.6,4.6-0.8c-1,1.2-1.6,2.8-1.6,4.4C208.9,566.5,208.9,566.6,208.9,566.7"/>
		<path class="st1" d="M192.6,577v-8.3c2-1.4,4.3-2.7,6.6-3.7v17.9C197.8,580.7,195.7,578.5,192.6,577"/>
		<path class="st1" d="M239,568.7v8.3c-3.1,1.6-5.2,3.7-6.6,6V565C234.7,566,237,567.3,239,568.7"/>
		<path class="st1" d="M224.8,568.4c-1.3,0-2.1,0.7-2.4,1.1c0.1-0.5,1.2-1.9,2.9-1.5c-0.9-1.1-2.1-1.2-2.6-1.2c0-0.1,0-0.2,0-0.3
			c0-1.7-0.6-3.2-1.5-4.4c1.5,0.2,3.1,0.5,4.6,0.8v5.7C225.4,568.4,225.1,568.4,224.8,568.4"/>
		<path class="st1" d="M215.9,568.8c0.9-0.4,1.6-1,2.3-1.7c-0.2-1-0.5-1.9-0.9-2.7c-1-0.2-1.9-0.2-2.9,0c-0.4,0.9-0.7,1.8-0.9,2.7
			C214.2,567.9,215,568.4,215.9,568.8"/>
		<path class="st1" d="M210.4,570c0.4,0.1,0.7,0.1,0.9,0.1c0,0,0,0,0,0c0-0.1,0-0.2,0-0.2c-0.1-0.4-0.2-0.8-0.2-1.3
			c0-0.2,0-0.5,0.1-0.7c-0.6-0.6-0.8-1.1-1.1-1.7L210,566c-0.3,0.2-0.5,0.4-0.7,0.7C209.4,567.9,209.8,569,210.4,570"/>
		<path class="st1" d="M210.8,562.4c0,0,0.1,0.6,0.1,0.6s0.1,0.2,0.1,0.3c0.1,0,0.2-0.1,0.2-0.1c0.5-0.3,1.1-0.6,1.9-0.7
			c0.1-0.3,0.3-0.5,0.5-0.8l0.6-0.7l0.1-0.1c0,0,0.1-0.1,0.2-0.2c-0.1-0.1-0.4-0.3-0.9-0.4C212.5,560.7,211.5,561.4,210.8,562.4"/>
		<path class="st1" d="M218.1,560.3c-0.3,0.1-0.6,0.3-0.9,0.4c0.1,0.1,0.2,0.2,0.2,0.2c0.5,0.5,0.9,0.9,1.3,1.6
			c0.8,0.1,1.3,0.4,1.9,0.7l0.2,0.1c0.1-0.2,0.1-0.5,0.2-1C220.2,561.4,219.2,560.7,218.1,560.3"/>
		<path class="st1" d="M221.6,565.9l-0.1,0.2c-0.2,0.5-0.4,0.8-0.7,1.2c0,0-0.4,0.5-0.4,0.5c0.1,0.3,0.1,0.5,0.1,0.8
			c0,0.4-0.1,0.8-0.1,1.3c0,0,0,0.1,0,0.2h0c0.1,0,0.5,0,1-0.2c0.6-1,1-2.1,1-3.3C222.1,566.4,221.9,566.1,221.6,565.9"/>
		<path class="st1" d="M205.9,522.5h6.6v6.8h-6.6V522.5z"/>
		<path class="st1" d="M195.4,529.4c1.7-1.3,2.9-2.7,3.9-4.2v4.2H195.4z"/>
		<path class="st1" d="M232.4,525.1c0.9,1.5,2.2,3,3.9,4.2h-3.9V525.1z"/>
		<path class="st1" d="M219.1,522.5h6.6v6.8h-6.6V522.5z"/>
	</g>
</g>
<g id="레이어_1">
</g>
</svg>
