<?xml version="1.0" encoding="utf-8"?>
<!-- Generator: Adobe Illustrator 25.1.0, SVG Export Plug-In . SVG Version: 6.00 Build 0)  -->
<svg version="1.1" xmlns="http://www.w3.org/2000/svg" xmlns:xlink="http://www.w3.org/1999/xlink" x="0px" y="0px"
	 viewBox="0 0 250 250" style="enable-background:new 0 0 250 250;" xml:space="preserve">
<style type="text/css">
	.st0{fill:#FFC627;}
	.st1{fill:#EB0029;}
	.st2{fill:#003A70;}
	.st3{fill:#FFFFFF;}
	.st4{fill:none;}
</style>
<g id="Layer_1">
	<g>
		<path class="st0" d="M225,123.9l-2.4-0.5c-0.1,0-0.9-0.2-2.4-0.5l3.1-11.3l-5.7-1.7c-0.1,0-2.7-0.8-7.5-1.9
			c0.1-3.9,0.2-7.9,0.2-12.1V39.5l-4.5-0.4c-17.6-1.4-34.4-5.7-49.9-12.8c-9.3-4.2-19.6-6.4-30.8-6.4c-11.1,0-21.5,2.2-30.8,6.4
			c-15.5,7.1-32.3,11.4-49.9,12.8l-4.5,0.4v56.5c0,4.2,0.1,8.2,0.2,12.1c-4.8,1.1-7.5,1.8-7.6,1.9l-5.7,1.7l3.1,11.3
			c-1.5,0.3-2.3,0.5-2.3,0.5l-2.4,0.5L8.2,149.3l18.1,21.7l3.5-0.6c0.1,0,8.4-1.5,20.7-3.3c1.9,4.5,4.2,8.9,6.8,13.1
			c12.3,19.7,32,34.4,65.8,49.1l1.9,0.8l1.9-0.8c33.8-14.6,53.5-29.3,65.8-49.1c2.6-4.2,4.9-8.5,6.8-13.1
			c12.4,1.8,20.6,3.3,20.7,3.3l3.5,0.6l18.1-21.7L225,123.9z M221.7,165.7l-0.7-0.1c-0.1,0-9.2-1.7-22.6-3.6l-2.2-0.3
			c-10.7,28.6-32.4,46.1-71.4,63c-39-16.9-60.6-34.5-71.4-63l-2.2,0.3c-13.3,1.9-22.5,3.6-22.5,3.6l-0.7,0.1l-14-16.7L28,128.3
			l0.5-0.1c0,0,2.8-0.6,7.4-1.5L32.7,115l1.1-0.3c0.1,0,4.1-1.2,11.2-2.6c-0.2-5.3-0.3-10.7-0.3-16V44c21.2-1.7,38.5-7.3,51.6-13.2
			c9.2-4.2,19-6,28.8-5.9c9.8,0,19.6,1.8,28.7,5.9c13.1,6,30.4,11.5,51.6,13.2v52c0,5.6-0.1,10.9-0.3,16c7.2,1.5,11.1,2.6,11.2,2.6
			l1.1,0.3l-3.2,11.7c4.6,0.9,7.4,1.5,7.5,1.5l0.5,0.1l13.7,20.7L221.7,165.7L221.7,165.7z"/>
		<g>
			<path class="st1" d="M114,208.8c3.6,1.8,7.3,3.6,11,5.2c3.6-1.6,7.1-3.3,10.6-5v-15.7H114V208.8z M157.2,196.2
				c9.3-6.6,16.2-13.6,21.6-21.6v-23.1c-7.2-0.9-14.4-1.6-21.6-2.1C157.2,149.4,157.2,196.2,157.2,196.2z M70.9,174.1
				c5.3,8,12.3,15.1,21.6,21.8v-46.5c-7.9,0.6-15.1,1.3-21.6,2.1C70.9,151.6,70.9,174.1,70.9,174.1z M114,148.4v27.7h21.6v-27.7
				C128.4,148.2,121.2,148.2,114,148.4z"/>
			<path class="st1" d="M197.5,146.6c0.1,0,0.2,0,0.4,0.1c0.6,0.1,1.1,0.2,1.6,0.3l0.5,0.1c0.3,0,0.5,0.1,0.7,0.1
				c0.4,0.1,0.8,0.2,1.2,0.2c0.2,0,0.3,0.1,0.4,0.1l1.4,0.3c1.4,0.3,2.8,0.6,4.1,0.9c0.4,0.1,0.8,0.2,1.1,0.3c0.1,0,0.2,0,0.3,0.1
				l1.3,0.3c0.1,0,0.2,0,0.3,0.1c0.7,0.2,1.3,0.3,2,0.5c0.1,0,0.3,0.1,0.4,0.1c0.3,0.1,0.7,0.2,1,0.3c0,0,0.1,0,0.1,0l-4.1-18.3
				l0.2-0.6l4.1-14.8c-1.6-0.4-4.8-1.2-9.6-2.2c-2.1-0.4-4.3-0.9-6.5-1.3c-5.5-1-11-1.9-16.5-2.6c-6.3-0.9-13.4-1.6-21.3-2.3
				c-8.1-0.6-16.1-1.1-24.2-1.3c-0.8,0-1.5,0-2.3-0.1c-6.1-0.1-12.2-0.1-18.2,0c-0.8,0-1.5,0-2.3,0.1c-8.1,0.2-16.2,0.6-24.3,1.3
				c-7.8,0.6-15,1.4-21.3,2.3c-5.5,0.7-11,1.6-16.5,2.6c-1.1,0.2-2.2,0.4-3.2,0.6c-1.1,0.2-2.2,0.4-3.2,0.7c-4.8,1-8,1.8-9.6,2.2
				l2.7,9.7l1.6,5.7l-4.1,18.3c1.2-0.3,2.4-0.6,3.7-0.9l0.2,0c0.2,0,0.4-0.1,0.6-0.1c2.4-0.6,5.5-1.2,9.3-1.9
				c2.1-0.4,4.3-0.8,6.4-1.2l0.5-0.1c15.9-2.7,39.5-5.5,68.7-5.5c29.9,0,53.7,2.9,68.8,5.5l0.5,0.1l0.8,0.1c0.8,0.1,1.5,0.3,2.2,0.4
				C197.3,146.6,197.4,146.6,197.5,146.6z"/>
			<path class="st1" d="M37.4,132l-0.8-3.1c-3.6,0.7-6.2,1.2-7.1,1.4l-12.3,18.5l12,14.4c6.5-1.1,13.1-2.2,19.7-3.2l-16-7.6
				C32.8,152.5,37.4,132,37.4,132z"/>
			<path class="st1" d="M37.3,152.2l15.6,7.2c-1.1-3.3-2.1-6.6-3-10C46.6,150.1,41.9,151.1,37.3,152.2z M220.6,130.4
				c-1-0.2-3.5-0.7-7.1-1.4l-0.8,3.1l4.6,20.4l-16,7.6c6.6,1,13.1,2,19.7,3.2l12-14.4C232.8,148.8,220.6,130.4,220.6,130.4z"/>
			<path class="st1" d="M200.1,149.5c-0.8,3.4-1.8,6.7-3,10l15.6-7.2C208.1,151.1,203.4,150.1,200.1,149.5z"/>
		</g>
		<g>
			<path class="st2" d="M153.8,30.8c-9.1-4.2-18.9-5.9-28.7-5.9c-9.8,0-19.6,1.8-28.8,5.9c-13.1,6-30.4,11.5-51.6,13.2v52
				c0,5.6,0.1,10.9,0.3,16c1-0.2,2.1-0.4,3.2-0.7c-0.2-5.1-0.3-10.2-0.3-15.4V47c17.5-1.7,34.1-6.2,49.6-13.2
				c8.2-3.8,17.5-5.7,27.4-5.7c10,0,19.2,1.9,27.4,5.7c15.5,7.1,32.2,11.5,49.7,13.2v49c0,5.4-0.1,10.5-0.3,15.4
				c1.2,0.2,2.2,0.4,3.2,0.7c0.2-5.1,0.3-10.4,0.3-16V44C184.2,42.3,166.9,36.8,153.8,30.8z"/>
			<path class="st2" d="M125,91.8c-5,0-9.1,4.1-9.1,9.1v3.7c6.1-0.1,12.2-0.1,18.2,0v-3.7C134.1,95.9,130,91.8,125,91.8
				C125,91.8,125,91.8,125,91.8z M56.5,149c2.5,9.7,6,17.9,10.5,25.1c10.7,17.2,28.1,30.2,58,43.5c29.9-13.3,47.3-26.3,58-43.5
				c4.5-7.2,8-15.4,10.5-25.1l0.1-0.7c-15-2.5-38.8-5.5-68.7-5.5c-29.2,0-52.9,2.8-68.7,5.5C56.3,148.3,56.5,149,56.5,149z
				 M157.2,149.4c8,0.6,15.2,1.3,21.6,2.1v23.1c-5.3,7.9-12.3,14.9-21.6,21.6V149.4z M114,148.4c7.2-0.2,14.4-0.2,21.6,0v27.7H114
				C114,176.1,114,148.4,114,148.4z M114,193.3h21.6V209c-3.5,1.8-7,3.4-10.6,5c-3.7-1.7-7.4-3.4-11-5.2
				C114,208.8,114,193.3,114,193.3z M70.9,151.6c7.2-0.9,14.4-1.6,21.6-2.1V196c-9.3-6.7-16.3-13.8-21.6-21.8V151.6z M198.5,110.8
				c0.2-4.1,0.3-5.3,0.3-9.8c-3.2-0.8-9.5-1.5-13-2.1l0,9.8C190.5,109.4,194.8,110.1,198.5,110.8L198.5,110.8z M51.5,110.8
				c3.7-0.7,8-1.4,12.8-2.1l0-9.8c-3.5,0.7-9.9,1.4-13.1,2.1C51.2,105.5,51.3,106.8,51.5,110.8z"/>
			<path class="st2" d="M198.8,49.9c-16.7-2-32.8-6.4-47.7-13.2c-7.8-3.6-16.6-5.4-26.1-5.4c-9.5,0-18.3,1.8-26.1,5.4
				C84,43.5,67.9,48,51.2,49.9v48.7c3.2-0.8,9.5-1.5,13.1-2.1l0-3.6c0,0,1.9-1.3,6.9-2.6v2.9c1.3-0.4,2.6-0.7,4-1v-2.9
				c2.7-0.6,6.1-1.1,10.1-1.6v2.9c1.3-0.1,2.7-0.3,4-0.4v-2.9c0.2,0,0.4,0,0.7-0.1c2.5-0.2,5.2-0.4,8.1-0.5c1.4-0.1,2.8-0.1,4.3-0.1
				v2.9c1.2,0,2.5,0,3.8,0h0.2v-2.9h37.5v2.9h0.2c1.3,0,2.6,0,3.8,0v-2.9c1.5,0,2.9,0.1,4.3,0.1c2.9,0.1,5.6,0.3,8.1,0.5
				c0.2,0,0.5,0,0.7,0.1v2.9c1.4,0.1,2.7,0.2,4,0.4v-2.9c4,0.5,7.3,1,10.1,1.6v2.9c1.5,0.3,2.8,0.6,4,1v-2.9c5,1.4,6.9,2.6,6.9,2.6
				l0,3.6c3.5,0.7,9.9,1.4,13.1,2.1L198.8,49.9L198.8,49.9z M135,83.2h-20.6c-6.2,0-8.9-0.9-8.9-0.9c3.8-0.5,5.4-3.2,5.4-3.2
				c1.7,0.3,7.9,0.4,13.8,0.4c5.8,0,12.1-0.1,13.8-0.4c0,0,1.6,2.7,5.4,3.2C143.8,82.3,141.2,83.2,135,83.2z M94.3,75.5
				c-1.8,0-3.5-0.1-4.9-0.2c-4.3-0.3-7.2-1.1-9-1.7c0.2,0,0.4,0,0.6,0c2.7,0,5.3-0.1,7.3-0.3c1.6-0.1,3.3-0.3,4.9-0.4
				c0,0,5.9,0.5,10.3,0.5h43c4.4,0,10.3-0.5,10.4-0.5c0,0,1.9,0.2,4.8,0.4c2.1,0.1,4.6,0.3,7.4,0.3c0.2,0,0.4,0,0.6,0
				c-1.7,0.6-4.7,1.3-9,1.7c-1.5,0.1-3.1,0.2-4.9,0.2C155.8,75.5,94.3,75.5,94.3,75.5z M88.9,58.6c-0.8-0.1-1.6-0.2-2.4-0.3
				c3.3-0.2,6.3-0.6,9.2-1.2c1.1-0.2,2.1-0.5,2.9-0.8c1.7-0.5,3-1,3.9-1.4c0.9-0.4,1.5-0.8,1.8-0.9c0.7,0.1,1.5,0.1,2.3,0.1
				c3.7,0.2,7.7,0.3,11.5,0.3l7,0l7.1,0c3.8,0,7.7,0,11.5-0.2c0.8,0,1.6-0.1,2.3-0.1c0.2,0.1,0.8,0.5,1.8,0.9
				c0.9,0.4,2.2,0.9,3.9,1.4c1,0.3,2,0.5,3,0.8c2.8,0.6,5.9,1,9.2,1.2c-0.7,0.1-1.5,0.2-2.4,0.3c-2.6,0.3-5.8,0.5-9.4,0.7l-0.4,0
				c-1.4,0-4,0.1-8,0.1c-4.5,0-10.6,0-18.4,0c-7.8,0-13.9,0-18.4,0c-3.9,0-6.6-0.1-8-0.1l-0.4,0C94.7,59.1,91.5,58.9,88.9,58.6z
				 M171.4,79.4l1.3,1l-0.6,1.3v4.5c-1.5-0.2-2.4-0.2-2.4-0.2l0-4.9l-1-0.7h-4l-0.8,0.8v2.4h-16.5l2-1.8h12.3v-1.1l2.6-2.4h4.3
				l5.8-3.8l-1.1-1.5v-1.7c-0.5,0-0.9,0-1.3,0c-3,0.1-6-0.1-8.9-0.4c-2.8-0.3-4.6-0.8-5.4-1v-1.7l2.5-2.3l2.2,0.4l4.3-3.7l4.3-3.7
				l-2-2.7l-0.4-0.6c-7.5,0.3-13.4-1.2-17-2.3c-2.4-0.8-3.7-1.4-3.7-1.4l0.2-1.1c-0.3,0-0.9,0-1.4-0.2c-0.5-0.2-1.6-0.4-2,0
				c-0.4,0.5-0.3,0.9-0.3,0.9c-0.2,0-0.5,0-0.8,0.1c-3.9,0.3-10.4,0.3-18.5,0.3l0,0l0,0c-8.1,0-14.6,0-18.5-0.3
				c-0.3,0-0.5,0-0.8-0.1c0,0,0.1-0.4-0.3-0.9c-0.4-0.5-1.5-0.2-2,0c-0.5,0.2-1.1,0.2-1.4,0.2l0.2,1.1c0,0-1.3,0.7-3.7,1.4
				c-3.6,1.2-9.5,2.6-17,2.3l-0.4,0.6l-2,2.7l4.3,3.7l4.3,3.7l2.2-0.4l2.5,2.3v1.7c-0.8,0.2-2.6,0.7-5.4,1c-2.3,0.3-5.3,0.5-8.9,0.4
				c-0.4,0-0.9,0-1.3,0V73l-1.1,1.5l5.8,3.8h4.3l2.6,2.4v1.1h12.3l2,1.8H86.1v-2.4l-0.8-0.8h-4l-1,0.7l0,4.9c0,0-0.9,0.1-2.4,0.3
				v-4.6l-0.6-1.2l1.3-1L72.3,75l2-2.7v-3.4l2.5,0.1c0.4,0,0.9,0,1.3,0c0.4,0,0.8,0,1.2,0c2.6,0,5.1-0.1,7.4-0.4c0,0,0,0,0.1,0
				L76,59.3l4.3-5.9l1.4,0c0.6,0,1.1,0,1.7,0c6.3,0,11.3-1.2,14.4-2.2c0.7-0.2,1.3-0.4,1.8-0.6l-0.3-1.9l3.3-0.1
				c0.7-0.2,1.4-0.4,2.1-0.4c1.1,0,2,0.4,2.6,1.1c0.1,0.1,0.1,0.1,0.2,0.2c3.9,0.2,9.9,0.2,17.6,0.2c7.6,0,13.7,0,17.6-0.2
				c0.1-0.1,0.1-0.1,0.2-0.2c0.6-0.7,1.6-1.1,2.6-1.1c0.9,0,1.7,0.3,2.1,0.4c0.1,0,0.5,0,0.5,0l2.8,0.1l-0.3,1.9
				c0.5,0.2,1.1,0.4,1.8,0.6c3.1,1,8.1,2.2,14.4,2.2c0.6,0,1.1,0,1.7,0l1.4,0l4.3,5.9l-10.8,9.3c0,0,0,0,0.1,0
				c2.3,0.3,4.8,0.4,7.4,0.4c0.8,0,1.6,0,2.4,0l2.5-0.1v3.4l2,2.7L171.4,79.4L171.4,79.4z"/>
			<path class="st2" d="M66.5,94.3l0,13.9h1.3c12.4-1.7,27.9-3.1,45.8-3.6v-3.7c0-6.3,5.1-11.4,11.4-11.4c6.3,0,11.4,5.1,11.4,11.4
				v3.7c17.9,0.5,33.3,1.9,45.8,3.6l1.3,0.2l0-14.1c-0.8-0.3-1.6-0.7-2.4-0.9v2.8l-2.9-0.8c-1.3-0.4-2.6-0.7-3.9-0.9l-1.8-0.4v-2.9
				c-1.8-0.3-3.7-0.6-5.5-0.9v2.9l-2.5-0.3c-1.2-0.1-2.5-0.3-3.9-0.4l-2.1-0.2v-2.9c-2.1-0.1-4.3-0.3-6.5-0.3c-0.6,0-1.3,0-2-0.1
				v2.9l-2.7,0c-1.1,0-2.2,0-3.4,0h-2.5V89h-32.9v2.9h-2.5c-1.2,0-2.3,0-3.4,0l-2.7,0V89c-0.7,0-1.3,0-2,0.1
				c-2.2,0.1-4.3,0.2-6.5,0.3v2.9l-2.1,0.2c-1.4,0.1-2.7,0.2-3.9,0.4L83,93.2v-2.9c-1.8,0.2-3.7,0.5-5.5,0.9v2.9l-1.8,0.4
				c-1.3,0.3-2.6,0.6-3.9,0.9l-2.9,0.8v-2.8C67.9,93.7,67.1,94.1,66.5,94.3z M195.5,154.2c-0.7,2.4-1.5,4.7-2.4,7.1
				c-2,5.3-4.4,10.1-7.2,14.6c-11.2,18-29.4,31.6-60.8,45.3c-31.4-13.7-49.6-27.3-60.8-45.3c-2.8-4.5-5.2-9.3-7.2-14.6
				c-0.9-2.3-1.7-4.7-2.4-7.1c-0.5-1.7-1-3.5-1.5-5.3c-0.7,0.1-1.8,0.3-3.2,0.6c0.8,3.4,1.8,6.7,3,10c0.3,0.7,0.5,1.5,0.8,2.2
				c10.7,28.6,32.4,46.1,71.4,63c39-16.9,60.6-34.5,71.4-63c0.3-0.7,0.5-1.5,0.8-2.2c1.1-3.3,2.1-6.6,3-10c-1.4-0.3-2.4-0.5-3.2-0.6
				C196.5,150.7,196,152.4,195.5,154.2z"/>
		</g>
		<g>
			<path class="st3" d="M77.3,80.4l0.6,1.2v4.6c0.8-0.1,1.6-0.2,2.4-0.3l0-4.9l1-0.7h4l0.8,0.8v2.4h16.6l-2-1.8H88.3v-1.1l-2.6-2.4
				h-4.3l-5.8-3.8l1.1-1.5v-1.7c0.5,0,0.9,0,1.3,0c3,0.1,6-0.1,8.9-0.4c2.8-0.3,4.6-0.8,5.4-1v-1.7L90,65.9l-2.2,0.4l-4.3-3.7
				l-4.3-3.7l2-2.7l0.4-0.6c7.5,0.3,13.4-1.1,17-2.3c2.4-0.8,3.7-1.4,3.7-1.4l-0.2-1.1c0.3,0,0.9,0,1.4-0.2c0.5-0.2,1.6-0.4,2,0
				c0.4,0.5,0.3,0.9,0.3,0.9c0.2,0,0.5,0,0.8,0.1c3.9,0.3,10.4,0.3,18.5,0.3l0,0l0,0c8.1,0,14.6,0,18.5-0.3c0.3,0,0.5,0,0.8-0.1
				c0,0-0.1-0.4,0.3-0.9c0.4-0.5,1.5-0.2,2,0c0.5,0.2,1.1,0.2,1.4,0.2l-0.2,1.1c0,0,1.3,0.7,3.7,1.4c3.6,1.2,9.6,2.6,17,2.3l0.4,0.6
				l2,2.7l-4.3,3.7l-4.3,3.7l-2.2-0.4l-2.5,2.3v1.7c0.8,0.2,2.6,0.7,5.4,1c2.3,0.3,5.3,0.5,8.9,0.4c0.4,0,0.9,0,1.3,0V73l1.1,1.5
				l-5.8,3.8h-4.3l-2.6,2.4v1.1h-12.3l-2,1.8h16.5v-2.4l0.8-0.8h4l1,0.7l0,4.9c0,0,0.9,0.1,2.4,0.2v-4.5l0.6-1.3l-1.3-1l6.3-4.5
				l-2-2.7v-3.4l-2.5,0.1c-0.8,0-1.6,0-2.4,0c-2.5,0-4.9-0.1-7.4-0.4c0,0,0,0-0.1,0l10.8-9.3l-4.3-5.9l-1.4,0c-0.6,0-1.1,0-1.7,0
				c-6.3,0-11.3-1.2-14.4-2.2c-0.7-0.2-1.3-0.4-1.8-0.6l0.3-1.9l-2.8-0.1c0,0-0.5,0-0.5,0c-0.7-0.3-1.4-0.4-2.1-0.4
				c-1.1,0-2,0.4-2.6,1.1c-0.1,0.1-0.1,0.1-0.2,0.2c-3.9,0.2-9.9,0.2-17.6,0.2c-7.6,0-13.7,0-17.6-0.2c-0.1-0.1-0.1-0.1-0.2-0.2
				c-0.6-0.7-1.6-1.1-2.6-1.1c-0.7,0-1.4,0.1-2.1,0.4l-3.3,0.1l0.3,1.9c-0.5,0.2-1.1,0.4-1.8,0.6c-3.1,1-8.1,2.2-14.4,2.2
				c-0.6,0-1.1,0-1.7,0l-1.4,0L76,59.3l10.8,9.3c0,0-0.1,0-0.1,0c-2.5,0.3-4.9,0.4-7.4,0.4c-0.4,0-0.8,0-1.2,0c-0.4,0-0.8,0-1.3,0
				l-2.5-0.1v3.4l-2,2.7l6.3,4.5L77.3,80.4L77.3,80.4z"/>
			<path class="st3" d="M106.6,59.4c4.5,0,10.6,0,18.4,0c7.8,0,13.9,0,18.4,0c3.9,0,6.6-0.1,8-0.1l0.4,0c3.6-0.2,6.8-0.4,9.4-0.7
				c0.8-0.1,1.6-0.2,2.4-0.3c-3.3-0.2-6.3-0.6-9.2-1.2c-1-0.2-2-0.5-3-0.8c-1.3-0.4-2.6-0.8-3.9-1.4c-0.6-0.3-1.2-0.6-1.8-0.9
				c-0.7,0.1-1.5,0.1-2.3,0.1c-3.7,0.2-7.7,0.2-11.5,0.2l-7.1,0l-7,0c-3.8,0-7.7,0-11.5-0.3c-0.8,0-1.5-0.1-2.3-0.1
				c-0.2,0.1-0.8,0.5-1.8,0.9c-0.9,0.4-2.2,0.9-3.9,1.4c-1,0.3-2,0.5-2.9,0.8c-2.8,0.6-5.9,1-9.2,1.2c0.7,0.1,1.5,0.2,2.4,0.3
				c2.6,0.3,5.8,0.5,9.4,0.7l0.4,0C100,59.3,102.6,59.4,106.6,59.4z M160.7,75.3c4.3-0.3,7.2-1.1,9-1.7c-0.2,0-0.4,0-0.6,0
				c-2.7,0-5.3-0.1-7.4-0.3c-2.9-0.2-4.8-0.4-4.8-0.4c-0.1,0-6,0.5-10.4,0.5h-43c-4.4,0-10.3-0.5-10.3-0.5c0,0-2,0.2-4.9,0.4
				c-2.1,0.1-4.6,0.3-7.3,0.3c-0.2,0-0.4,0-0.6,0c1.7,0.6,4.7,1.3,9,1.7c1.5,0.1,3.1,0.2,4.9,0.2h61.5
				C157.6,75.5,159.2,75.5,160.7,75.3z M138.5,79.1c-1.7,0.3-7.9,0.4-13.8,0.4c-5.8,0-12.1-0.1-13.8-0.4c0,0-1.6,2.7-5.4,3.2
				c0,0,2.7,0.9,8.9,0.9H135c6.2,0,8.9-0.9,8.9-0.9C140,81.8,138.5,79.1,138.5,79.1z"/>
			<path class="st3" d="M222,128.3l-0.5-0.1c0,0-2.8-0.6-7.5-1.5l3.2-11.7l-1.1-0.3c-0.1,0-4-1.2-11.2-2.6c-1-0.2-2.1-0.4-3.2-0.7
				c0.2-4.9,0.3-10,0.3-15.4V47c-17.5-1.7-34.1-6.2-49.7-13.2c-8.2-3.8-17.4-5.7-27.4-5.7c-10,0-19.2,1.9-27.4,5.7
				C82.1,40.8,65.4,45.3,47.9,47v49c0,5.4,0.1,10.5,0.3,15.4c-1.1,0.2-2.2,0.4-3.2,0.7c-7.2,1.5-11.1,2.6-11.2,2.6l-1.1,0.3
				l3.2,11.7c-4.6,0.9-7.4,1.4-7.4,1.5l-0.5,0.1L14.3,149l14,16.7l0.7-0.1c0.1,0,9.2-1.7,22.5-3.6l2.2-0.3c-0.3-0.7-0.5-1.5-0.8-2.2
				l-15.6-7.2c4.6-1.2,9.3-2.1,12.6-2.8c1.4-0.3,2.4-0.5,3.2-0.6c0.5,1.8,0.9,3.6,1.5,5.3c0.7,2.4,1.5,4.7,2.4,7.1
				c2,5.3,4.4,10.1,7.2,14.6c11.2,18,29.5,31.6,60.8,45.3c31.4-13.7,49.6-27.3,60.8-45.3c2.8-4.5,5.2-9.3,7.2-14.6
				c0.9-2.3,1.7-4.7,2.4-7.1c0.5-1.7,1-3.5,1.5-5.3c0.7,0.1,1.8,0.3,3.2,0.6c3.3,0.6,8,1.6,12.6,2.8l-15.6,7.2
				c-0.3,0.7-0.5,1.5-0.8,2.2l2.2,0.3c13.3,1.9,22.5,3.6,22.6,3.6l0.7,0.1l14-16.7L222,128.3L222,128.3z M51.2,49.9
				c16.7-2,32.8-6.4,47.7-13.2c7.8-3.6,16.6-5.4,26.1-5.4c9.5,0,18.3,1.8,26.1,5.4c14.9,6.8,31,11.2,47.7,13.2v48.7
				c-3.2-0.8-9.5-1.5-13.1-2.1l0-3.6c0,0-1.9-1.3-6.9-2.6v2.9c-1.3-0.4-2.6-0.7-4-1v-2.9c-2.7-0.6-6.1-1.1-10.1-1.6v2.9
				c-1.3-0.1-2.7-0.3-4-0.4v-2.9c-0.2,0-0.4,0-0.7-0.1c-4.1-0.3-8.3-0.5-12.4-0.6v2.9c-1.2,0-2.5,0-3.8,0h-0.2v-2.9h-37.5v2.9h-0.2
				c-1.3,0-2.6,0-3.8,0v-2.9c-1.5,0-2.9,0.1-4.3,0.1c-2.9,0.1-5.6,0.3-8.1,0.5c-0.2,0-0.4,0-0.7,0.1v2.9c-1.4,0.1-2.7,0.2-4,0.4
				v-2.9c-4,0.5-7.3,1-10.1,1.6v2.9c-1.3,0.3-2.7,0.6-4,1v-2.9c-5,1.4-6.9,2.6-6.9,2.6l0,3.6c-3.5,0.7-9.9,1.4-13.1,2.1
				C51.2,98.6,51.2,49.9,51.2,49.9z M185.8,98.9c3.5,0.7,9.9,1.4,13,2.1c0,4.5-0.1,5.7-0.3,9.8c-4.2-0.8-8.5-1.5-12.8-2.1
				C185.7,108.7,185.8,98.9,185.8,98.9z M125,89.5c-6.3,0-11.4,5.1-11.4,11.4v3.7c-17.9,0.5-33.4,1.9-45.8,3.6h-1.3l0-13.9
				c0.5-0.2,1.3-0.6,2.4-0.9v2.8l2.9-0.8c1.3-0.4,2.6-0.7,3.9-0.9l1.8-0.4v-2.9c1.8-0.3,3.7-0.6,5.5-0.9v2.9l2.5-0.3
				c1.3-0.1,2.6-0.3,3.9-0.4l2.1-0.2v-2.9c2.1-0.1,4.3-0.3,6.5-0.3c0.7,0,1.3,0,2-0.1v2.9l2.7,0c1.1,0,2.2,0,3.4,0h2.5V89h32.9v2.9
				h2.5c1.2,0,2.3,0,3.4,0l2.7,0V89c0.7,0,1.3,0,2,0.1c2.3,0.1,4.4,0.2,6.5,0.3v2.9l2.1,0.2c1.4,0.1,2.7,0.2,3.9,0.4l2.5,0.3v-2.9
				c1.9,0.3,3.8,0.6,5.5,0.9v2.9l1.8,0.4c1.3,0.3,2.6,0.6,3.9,0.9l2.9,0.8v-2.8c1,0.4,1.8,0.7,2.4,0.9l0,14.1l-1.3-0.2
				c-12.4-1.7-27.9-3.1-45.8-3.6v-3.7C136.4,94.7,131.3,89.5,125,89.5z M134.1,100.9v3.7c-6.1-0.1-12.2-0.1-18.2,0v-3.7
				c0-5,4.1-9.1,9.1-9.1C130,91.8,134.1,95.9,134.1,100.9C134.1,100.9,134.1,100.9,134.1,100.9z M64.3,108.7
				c-4.8,0.7-9.1,1.4-12.8,2.1c-0.2-4.1-0.3-5.3-0.3-9.8c3.2-0.8,9.5-1.5,13.1-2.1L64.3,108.7z M48.8,160.1c-6.6,1-13.1,2-19.7,3.2
				l-12-14.4l12.3-18.5c1-0.2,3.5-0.7,7.1-1.4l0.8,3.1l-4.6,20.4C32.8,152.5,48.8,160.1,48.8,160.1z M193.5,149
				c-2.5,9.7-6,17.9-10.5,25.1c-10.7,17.2-28.1,30.2-58,43.5c-29.9-13.3-47.3-26.3-58-43.5c-4.5-7.2-8-15.4-10.5-25.1l-0.1-0.7
				c15.8-2.7,39.4-5.5,68.7-5.5c29.8,0,53.7,2.9,68.7,5.5C193.7,148.3,193.5,149,193.5,149z M212.1,149.7l-0.3-0.1l-0.9-0.2
				c-0.1,0-0.2,0-0.3-0.1l-1.3-0.3c-0.1,0-0.2,0-0.3-0.1l-1.1-0.3c-0.1,0-0.3-0.1-0.4-0.1c-1-0.2-2.1-0.4-3.2-0.7l-0.5-0.1
				c-0.5-0.1-0.9-0.2-1.4-0.3l-0.4-0.1c-0.4-0.1-0.8-0.2-1.2-0.2c-0.2,0-0.5-0.1-0.7-0.1c-0.2,0-0.3-0.1-0.5-0.1
				c-0.5-0.1-1.1-0.2-1.6-0.3c-0.1,0-0.2,0-0.4-0.1l-0.3,0c-0.7-0.1-1.4-0.3-2.2-0.4l-0.8-0.1l-0.5-0.1c-15.1-2.5-38.9-5.5-68.8-5.5
				c-29.2,0-52.8,2.8-68.7,5.5l-0.5,0.1c-2.1,0.4-4.3,0.7-6.4,1.2c-3.7,0.7-6.8,1.4-9.3,1.9c-0.2,0.1-0.4,0.1-0.6,0.1
				c-0.1,0-0.1,0-0.2,0c-1.2,0.3-2.4,0.6-3.7,0.9l4.1-18.3l-1.6-5.7l-2.7-9.7c1.6-0.4,4.8-1.2,9.6-2.2c1-0.2,2.1-0.4,3.2-0.7
				c1-0.2,2.1-0.4,3.2-0.6c5.5-1,11-1.9,16.5-2.6c6.3-0.9,13.4-1.6,21.3-2.3c8.1-0.6,16.2-1.1,24.3-1.3c0.8,0,1.5,0,2.3-0.1
				c6.1-0.1,12.2-0.1,18.2,0c0.8,0,1.5,0,2.3,0.1c8.7,0.2,16.8,0.7,24.2,1.3c7.8,0.6,15,1.4,21.3,2.3c6.3,0.9,11.9,1.8,16.5,2.6
				c2.2,0.4,4.3,0.8,6.5,1.3c4.7,1,8,1.8,9.6,2.2l-4.1,14.8l-0.2,0.6l4.1,18.3c0,0-0.1,0-0.1,0c-0.2,0-0.3-0.1-0.5-0.1
				c-0.2,0-0.4-0.1-0.6-0.1c-0.1,0-0.3-0.1-0.4-0.1C212.6,149.8,212.3,149.8,212.1,149.7L212.1,149.7z M220.8,163.2
				c-2.1-0.4-10.1-1.8-19.7-3.2l16-7.6l-4.6-20.4l0.8-3.1c3.6,0.7,6.2,1.2,7.1,1.4l12.2,18.5L220.8,163.2L220.8,163.2z"/>
		</g>
		<g>
			<path class="st3" d="M121.8,180.3h-2.3c-2,0-3.4,0.9-3.6,2.3l-0.6,4.1c-0.2,1.4,1,2.3,3,2.3h2.3c2,0,3.4-0.9,3.6-2.3l0.6-4.1
				C125,181.2,123.8,180.3,121.8,180.3 M122.4,183.1l-0.4,3.1c-0.1,0.7-0.4,1.6-2.2,1.6h-0.2c-1.8,0-1.9-0.9-1.8-1.6l0.4-3.1
				c0.1-0.7,0.4-1.6,2.2-1.6h0.2C122.4,181.6,122.4,182.5,122.4,183.1 M132,180.3h-2.3c-2,0-3.4,0.9-3.6,2.3l-0.6,4.1
				c-0.2,1.4,1,2.3,3,2.3h2.3c2,0,3.4-0.9,3.6-2.3l0.6-4.1C135.2,181.2,134,180.3,132,180.3 M132.6,183.1l-0.4,3.1
				c-0.1,0.7-0.4,1.6-2.2,1.6h-0.2c-1.8,0-1.9-0.9-1.8-1.6l0.4-3.1c0.1-0.7,0.4-1.6,2.2-1.6h0.2
				C132.6,181.6,132.7,182.5,132.6,183.1 M111.5,180.3h-2.3c-2,0-3.4,0.9-3.6,2.3h2.4c0.2-0.5,0.7-1.1,2.1-1.1h0.2
				c1.8,0,2.1,1.1,1.7,1.6c-0.9,1.4-6.7,1.6-7.1,4.7l-0.2,1.3h8.4l0.7-1.3h-6.6c0,0,0.1-0.9,2.7-1.8c2.4-0.8,4.2-1,4.6-3.4
				C114.7,181.2,113.5,180.3,111.5,180.3 M142.3,180.3H140c-2,0-3.4,0.9-3.6,2.3h2.4c0.2-0.5,0.7-1.1,2.1-1.1h0.2
				c1.8,0,2.1,1.1,1.7,1.6c-0.2,0.3-0.6,0.6-1.2,0.8h-3.3l-0.7,1.3h3.8c0.4,0,1.2,0.1,1.1,0.8l0,0.3c-0.1,0.7-0.4,1.6-2.2,1.6h-4.1
				l-0.7,1.3h5.6c2,0,3.4-0.9,3.6-2.3l0.1-0.7c0.1-0.6-0.1-1.1-0.6-1.5c0.6-0.4,0.9-1,1.1-2C145.5,181.2,144.3,180.3,142.3,180.3"/>
		</g>
		<g>
			<path class="st3" d="M181.9,130.9c0.6-2.3,0.9-3.5,1.5-5.8c0.3-1.2,1.2-3,4.4-2.5c2.9,0.4,4.4,0.6,7.3,1.1c0.7-0.9,1-1.3,1.6-2.2
				c-3.4-0.5-6.8-1-10.2-1.5c-3.6-0.5-6.4,1-7.1,3.7c-0.7,2.6-1.3,5.2-1.9,7.8c-0.7,2.7,1.2,4.7,4.7,5.2c3.6,0.5,5.4,0.7,8.9,1.3
				c0.6-0.9,0.9-1.3,1.6-2.2c-2.7-0.4-5.4-0.8-8.1-1.2C181.5,133.9,181.6,132.1,181.9,130.9 M160,134.1c1.6,0.1,2.5,0.2,4.1,0.3
				c0.7-3.4,1.1-5,1.8-8.4c3.7,0.3,5.6,0.5,9.3,0.9c0.6-0.9,0.9-1.4,1.5-2.3c-3.4-0.4-6.8-0.8-10.3-1.1c0.3-1.4,0.5-2.1,0.8-3.6
				c4.4,0.4,6.6,0.6,11,1.2c0.6-0.9,0.9-1.4,1.5-2.3c-6.8-0.8-10.2-1.2-17.1-1.7c0,0,0.7,0.5,0.1,3
				C161.9,124.9,160.9,129.5,160,134.1 M127.5,115.7c-1.4,0-2.8,0-4.3,0c-3.7,0-6.2,1.9-6.5,4.6c-0.3,2.7-0.6,5.3-0.8,8
				c-0.3,2.7,1.8,4.5,5.3,4.5c1.4,0,2.7,0,4.1,0c3.5,0,6.1-1.8,6.4-4.5c0.4-3.2,0.7-4.8,1.1-7.9
				C133.2,117.6,131.1,115.7,127.5,115.7 M127.7,127.2c-0.2,1.3-0.8,3.1-3.9,3.1h-0.4c-3.2,0-3.3-1.8-3.2-3c0.3-2.4,0.4-3.6,0.7-6
				c0.1-1.3,0.7-3.1,4-3.1h0.4c3.3,0,3.4,1.8,3.2,3.1C128.2,123.2,127.9,125.2,127.7,127.2 M62.3,124.2c-1.1-0.8-0.5-1.7,1-1.9
				c3.3-0.5,5-0.7,8.3-1.1l1-2.6c-4.8,0.6-7.2,0.9-12,1.5c-3.5,0.5-6.4,3.1-2.2,6.1c2.8,2,5.5,4,8.3,6c1,0.8,0.4,1.7-1,1.9
				c-3.6,0.5-5.4,0.7-8.9,1.3c-0.3,1-0.5,1.6-0.8,2.6c5-0.8,7.5-1.1,12.5-1.8c3.3-0.4,6.3-3,2.2-6.1
				C67.8,128.2,65.1,126.2,62.3,124.2 M109.7,116c0,0,0.7,0.4,0.5,3c-0.3,2.8-0.5,5.7-0.8,8.5c0,0.4-0.1,0.8-0.2,1.1
				c-0.4,1.1-1.2,2-2.1,2c-0.9,0-1.6-0.7-1.8-1.9c0,0-0.1-0.5,0-1.1l0-0.4h0c0.4-4.5,0.5-6.7,0.9-11.2c-2,0.1-3,0.1-5.1,0.2
				c0,0,0.7,0.4,0.6,3c-0.3,3.4-0.4,5.1-0.6,8.6c0,0.7-0.2,1.1-0.2,1.1c-0.4,1.2-1.2,2-2.1,2.1c-0.9,0.1-1.6-0.7-1.8-1.8
				c0,0-0.1-0.5-0.1-1.1c0.3-4.6,0.4-6.9,0.7-11.6c-2,0.1-3,0.2-5.1,0.3c0,0,0.8,0.4,0.6,3c-0.2,3.8-0.3,5.7-0.5,9.5
				c-0.1,2,1,3.4,3,3.9c0.7,0.2,1.6,0.3,2.6,0.2c0.3,0,0.5,0,0.8,0c0.9,0,1.8-0.2,2.6-0.5c0.4-0.2,0.8-0.4,1.2-0.6
				c0.3,0.2,0.7,0.3,1.1,0.5c0.8,0.2,1.7,0.3,2.6,0.3c0.3,0,0.5,0,0.8,0c0.9,0,1.8-0.2,2.6-0.5c2.1-0.7,3.4-2.3,3.6-4.3
				c0.5-5,0.7-7.5,1.3-12.5C112.7,115.9,111.7,115.9,109.7,116 M85.8,117.4c0,0,0.8,0.4,0.6,3c-0.1,2.9-0.2,5.7-0.3,8.6
				c0,1.3-0.5,3.1-3.7,3.4c-0.2,0-0.2,0-0.4,0c-3.2,0.3-3.5-1.4-3.5-2.7c0.1-4.6,0.1-7,0.3-11.6c-2,0.2-3,0.3-5,0.5
				c0,0,0.8,0.4,0.7,2.9c-0.1,3.8-0.1,5.7-0.1,9.6c0,2.8,2.2,4.3,5.7,3.9c1.1-0.1,2.3-0.2,3.4-0.3c0.3,0,0.4,0,0.7-0.1
				c3.5-0.3,5.9-2.3,6-5.1c0.2-5,0.4-7.5,0.6-12.6C88.9,117.1,87.9,117.2,85.8,117.4 M147.2,116.3c0,0,0.7,0.5,0.2,3
				c-0.6,3.6-1,5.4-1.6,9c-1.7-4.1-3.4-8.2-5.2-12.3c-1.8-0.1-3.6-0.1-5.5-0.2c0,0,0.7,0.5,0.3,3c-0.7,4.7-1.4,9.3-2,14
				c1.7,0,2.5,0.1,4.1,0.1c0.7-4.8,1.1-7.2,1.9-12c1.8,4.1,3.5,8.2,5.2,12.3c1.8,0.1,2.7,0.1,4.5,0.2c1.2-6.8,1.8-10.1,3.1-16.9
				C150.2,116.4,149.2,116.4,147.2,116.3"/>
		</g>
	</g>
</g>
<g id="레이어_1">
	<rect x="8" y="8" class="st4" width="234" height="234"/>
</g>
</svg>
