<?xml version="1.0" encoding="utf-8"?>
<!-- Generator: Adobe Illustrator 25.1.0, SVG Export Plug-In . SVG Version: 6.00 Build 0)  -->
<svg version="1.1" xmlns="http://www.w3.org/2000/svg" xmlns:xlink="http://www.w3.org/1999/xlink" x="0px" y="0px"
	 viewBox="0 0 250 250" style="enable-background:new 0 0 250 250;" xml:space="preserve">
<style type="text/css">
	.st0{fill:#013F8A;}
	.st1{fill:#FFFFFF;}
	.st2{fill:none;}
</style>
<g id="Layer_1">
	<g>
		<path class="st0" d="M124.9,8c-5.9,4.1-11.5,8.5-18.2,11.9c-8.5,4.4-9.3,5.6-21.3,5.7l-50.1,0.8v110.4
			c5,62.5,63.4,98.4,89.5,105.1c26.1-6.8,84.7-42.6,89.7-105.1V26.4l-50.1-0.4c-12-0.1-12.9-1.8-21.5-6.1
			C136.4,16.5,130.8,12.1,124.9,8z"/>
		<path class="st1" d="M124.2,12.3c-5.3,3.7-10.6,7.6-16.4,10.5c-3.2,1.6-6.2,3.3-9.7,4.3c-3.5,0.9-7.2,1.9-10.8,2
			c-3.8,0-7.5,0-11.3,0H38l0,107.2c0.1,1.2,0.2,2.3,0.3,3.5c0.2,1.4,0.4,2.9,0.6,4.3c0.4,2.5,0.9,5,1.5,7.4c0.1,0.5,0.2,0.9,0.3,1.4
			c1,3.8,2.1,7.5,3.5,11.1c0.2,0.6,0.4,1.2,0.7,1.7c0.1,0.3,0.3,0.7,0.4,1.1c0.6,1.4,1.2,2.7,1.8,4.1c2.9,6.3,6.5,12.3,10.5,17.9
			c1.3,1.8,2.7,3.6,4.1,5.4c3.9,4.8,8.2,9.4,12.7,13.7c6.9,6.5,14.6,12.3,22.6,17.3c5.9,3.6,12,6.9,18.4,9.5c3,1.2,6.2,2.4,9.3,3.2
			c0.8-0.2,1.6-0.5,2.4-0.7c3.6-1.1,7.1-2.5,10.6-4.1c7.6-3.5,14.8-7.7,21.7-12.5c5.6-3.9,10.9-8.2,15.8-12.9
			c6.9-6.4,13.1-13.6,18.4-21.4c0.7-1.1,1.4-2.1,2.1-3.2c0.7-1.1,1.3-2.2,2-3.3c2.1-3.5,3.9-7.1,5.5-10.8c1-2.3,2-4.6,2.8-7
			c0.4-1.2,0.8-2.4,1.2-3.7c1.5-4.8,2.7-9.8,3.5-14.8c0.3-1.9,0.5-3.7,0.7-5.6c0.1-1,0.2-2.1,0.1-3.1l-0.1-105.7
			c-15.9,0.2-31.9-0.1-47.8,0c-3.8-0.1-7.4-0.5-11.3-1.5c-3.8-1.1-5.6-2.3-8.1-3.6c-2.7-1.4-5.4-2.8-8-4.4
			c-3.9-2.4-7.6-5.2-11.4-7.8L124.2,12.3z"/>
		<path class="st0" d="M124.2,19.1c-4.7,3.3-9.5,6.5-14.7,9c-3.4,1.8-6.9,3.5-10.7,4.4c-4.5,1-9.2,1.8-13.7,1.8
			c-6.9,0-13.8,0.1-20.7,0H43.7v101.8c0.1,1.1,0.2,2.2,0.3,3.4c0,0.3,0.1,0.7,0.1,1.1c0.3,2.2,0.6,4.3,1.1,6.4
			c0.5,2.7,1.2,5.3,2,7.9c1.8,6.1,4.2,12,7.1,17.6c4.3,8.2,9.6,15.8,15.7,22.7c3,3.3,6.1,6.6,9.4,9.6c3.8,3.5,7.7,6.7,11.8,9.7
			c5.3,3.9,10.9,7.4,16.6,10.5c0.4,0.2,0.8,0.4,1.2,0.6c3.1,1.6,6.4,3.2,9.7,4.5c0.3,0.1,0.6,0.3,1,0.4c1.1,0.4,2.2,0.8,3.3,1.2
			c0.3,0.1,0.7,0.2,1,0.3c0.3,0.1,0.6,0.2,0.9,0.3c2.2-0.7,4.3-1.4,6.4-2.3c0.5-0.2,1.1-0.4,1.6-0.7c3-1.3,6-2.7,8.8-4.3
			c0.5-0.2,1-0.5,1.4-0.8c5.9-3.2,11.5-6.9,16.9-10.9c0.5-0.4,1-0.8,1.6-1.2c8.4-6.5,16-14,22.6-22.3c2.4-3,4.6-6.1,6.6-9.3
			c0.2-0.4,0.5-0.8,0.8-1.3c5.3-8.5,9.3-17.8,11.8-27.4c0.1-0.5,0.2-0.9,0.4-1.4c0.1-0.3,0.2-0.7,0.2-1c1-4.2,1.7-8.5,2.1-12.8
			c0.1-2.1,0-4.1,0.1-6.2c0-32.5,0-63.8,0-96.3c-14.3,0.1-28.7-0.1-42.9,0c-4.4-0.1-8.7-0.9-13-2c-4-1.1-7.7-3.1-11.4-5
			c-4.4-2.2-8.5-4.9-12.5-7.7c-0.5-0.4-1.1-0.7-1.6-1.1L124.2,19.1z"/>
		<path class="st1" d="M86,64.3v12.4c0,0.8-0.1,1.5-0.4,2.1c-0.3,0.6-0.7,1.2-1.2,1.7c-0.5,0.5-1.1,0.9-1.8,1.2
			c-0.7,0.3-1.4,0.4-2.1,0.4H67.7c-0.7,0-1.5-0.1-2.1-0.4c-0.7-0.3-1.2-0.7-1.7-1.2c-0.5-0.5-0.9-1.1-1.2-1.7
			c-0.3-0.7-0.4-1.4-0.4-2.1V64.3h4.5V77c0,0.4,0.1,0.8,0.4,1.1c0.3,0.3,0.7,0.5,1.1,0.5h11.6c0.4,0,0.8-0.2,1.1-0.5
			c0.3-0.3,0.5-0.7,0.5-1.1V64.3L86,64.3L86,64.3z M93.1,64.3v14.3h16.4v3.6H88.6V64.3L93.1,64.3z M133.9,64.3v3.6h-17.1
			c-0.4,0-0.7,0.1-0.9,0.4c-0.2,0.2-0.4,0.6-0.4,0.9v1c0,0.4,0.1,0.7,0.4,0.9c0.3,0.2,0.6,0.4,0.9,0.4h13.4c1.6,0,2.8,0.4,3.5,1.3
			c0.7,0.8,1.1,1.9,1.1,3.3v1.6c0,0.6-0.1,1.1-0.3,1.7c-0.2,0.5-0.5,1.1-0.8,1.5c-0.4,0.4-0.8,0.8-1.4,1c-0.6,0.3-1.3,0.4-2.1,0.4
			h-18.8v-3.6H129c0.4,0,0.7-0.1,0.9-0.4c0.3-0.3,0.4-0.6,0.4-0.9v-1c0-0.4-0.1-0.7-0.4-0.9c-0.2-0.3-0.6-0.4-0.9-0.4h-13.4
			c-0.6,0-1.2-0.1-1.8-0.3c-0.6-0.2-1.1-0.5-1.5-0.8c-0.4-0.3-0.7-0.8-1-1.2c-0.2-0.5-0.3-1-0.3-1.6v-2.4c0-0.6,0.1-1.2,0.3-1.7
			c0.2-0.5,0.6-1,1-1.4c0.4-0.4,0.9-0.7,1.5-0.9c0.6-0.2,1.2-0.3,1.8-0.3L133.9,64.3L133.9,64.3z M146,64.3l-10.3,17.9h4.9l8.5-14.9
			l8.6,14.9h4.9l-10.3-17.9H146z M187.5,64.3v17.9h-6l-13.3-14v14h-4.4V64.3h6l13.3,14v-14H187.5z M123.7,41.5v15.1H120v-6.1h-8.2
			l-2.9-3H120v-6H123.7z M107.9,41.5v15.1h-3.7V41.5H107.9z M141.3,41.5c0.6,0,1.2,0.1,1.8,0.4c0.5,0.2,1,0.6,1.4,1
			c0.4,0.4,0.7,0.9,1,1.5c0.2,0.6,0.4,1.2,0.4,1.8V52c0,0.6-0.1,1.2-0.4,1.8c-0.2,0.5-0.6,1-1,1.4c-0.4,0.4-0.9,0.8-1.4,1
			c-0.5,0.3-1.1,0.4-1.8,0.4h-8l-2.9-3h10.4c0.4,0,0.7-0.1,0.9-0.4c0.3-0.3,0.4-0.6,0.4-1v-6.4c0-0.4-0.1-0.7-0.4-0.9
			c-0.2-0.3-0.6-0.4-0.9-0.4h-10.9v12.1h-3.7V41.5H141.3z M76.2,101.1L74,122.2l6.6,6.6l-8.7,14.7L70,162.3l5.6,1.9l2.3,9l0.8,7.9
			l2.6,0.4l4.1,0.4l0.4-1.5l5.6,4.1l5.3,7.9l3.8-1.5l3.9,1.5l3.2,10.5l17.2,5.8l17.4-5.8l3-10.2l4.1-1.9l3.8,1.5l5.3-7.9l5.6-4.1
			l0.8,1.9l3.8-0.8h2.6l0.8-8.3l1.9-9l5.6-1.9l-1.1-18.4l-9-15.1l6.4-6.4l-2.3-21.1H160l-9,3.4l-25.6-6.4l-26.3,6.4l-9.1-3.4
			L76.2,101.1z"/>
		<path class="st0" d="M78.7,104l-1.9,16.6l9,9l-4.1-10.2L78.7,104z M78.9,104l19,9l21.1-10.9l-20.3,5.5l-10-3.6H78.9z M125,102.6
			l-16.6,9.6l16.5-5.1l16.9,5.1L125,102.6z"/>
		<path class="st0" d="M125,109.8l-20.3,9.6l17.7-3.4l2.6,10.9l2.6-10.9l17.7,3.4L125,109.8z M171.1,104l-19,9L131,102.1l20.3,5.5
			l10-3.6H171.1z M171.4,103.9l1.9,16.6l-9,9l4.1-10.2L171.4,103.9z M86.2,114.9l4.2,12l-6.1,16.2L94.9,157l-6.4-14.7l6.4-16.1
			L86.2,114.9z M105.4,126.9l-10.5,7.9l8.3,11.3l7.2,1.1l-1.5,15.4l5.3-16.2l-4.5-6.4L99,135.2L105.4,126.9z"/>
		<path class="st0" d="M110.7,131.8l7.3-7.5l-2.8,7l3.8,16L110.7,131.8z M139.4,131.7l-7.3-7.5l2.8,7l-3.8,16L139.4,131.7z
			 M144.5,126.8l10.5,7.9l-8.3,11.3l-7.2,1.1l1.5,15.4l-5.3-16.2l4.5-6.4l10.5-4.9L144.5,126.8z M163.9,115l-4.2,12l6.1,16.2
			l-10.5,13.9l6.4-14.7l-6.4-16.1L163.9,115z M83.6,149.9l9.4,19.6l10.5-11.3l-9,4.1L83.6,149.9z"/>
		<path class="st0" d="M83.4,129.2l-5.1,16.2l6,24.5l13.6,15.8l1.1,5.3l-5.3-8.3l-10.2-7.1l-2.3,5.6l-0.8-8.3l-3.8-16.6l-3.8,6
			l1.1-17.7L83.4,129.2z M166.5,149.8l-9.4,19.6l-10.5-11.3l9,4.1L166.5,149.8z"/>
		<path class="st0" d="M166.6,129.1l5.1,16.2l-6,24.5l-13.6,15.8l-1.1,5.3l5.3-8.3l10.2-7.1l2.3,5.6l0.8-8.3l3.8-16.6l3.8,6
			l-1.1-17.7L166.6,129.1z M107.1,190.8l2.9,10.2l15,5l15.2-5l3.1-10.2l-5.7,6.8l-12.4,3l-12.4-3L107.1,190.8z"/>
		<path class="st0" d="M117.5,152.5l-5.6,18.4l11.3,7.1v6l-7.9,3.4l-10.2-1.9l-2.3-3.8l11.7,2.3l-15.1-7.5l1.9-4.1l13.2,7.5
			l-11.3-12.4l1.9-5.3l-10.5,12.4l7.5,13.9l13.4,2.3l9.6-3.9l9.8,3.9l13.2-2.3l7.5-13.9L145,162.3l1.9,5.3l-10.9,12l12.8-7.1
			l1.9,4.1l-15.1,7.5l11.7-2.3l-2.3,3.8l-9.8,1.9l-8.3-3.4v-6l11.3-7.1l-5.7-18.4l0.9,16.6l-8.3,2.2l-8.3-2.2L117.5,152.5z"/>
	</g>
</g>
<g id="레이어_1">
	<rect x="8" y="8" class="st2" width="234" height="234"/>
</g>
</svg>
