<?xml version="1.0" encoding="utf-8"?>
<!-- Generator: Adobe Illustrator 25.1.0, SVG Export Plug-In . SVG Version: 6.00 Build 0)  -->
<svg version="1.1" id="Layer_1" xmlns="http://www.w3.org/2000/svg" xmlns:xlink="http://www.w3.org/1999/xlink" x="0px" y="0px"
	 viewBox="0 0 250 250" style="enable-background:new 0 0 250 250;" xml:space="preserve">
<style type="text/css">
	.st0{fill:none;}
	.st1{clip-path:url(#SVGID_2_);}
	.st2{fill:#221E1F;}
	.st3{fill:#CF1D24;}
</style>
<g id="Layer_1_1_">
</g>
<g id="레이어_1">
	<rect x="34.8" y="34.8" class="st0" width="180.4" height="180.4"/>
	<g>
		<g>
			<g>
				<defs>
					<rect id="SVGID_1_" x="64.9" y="34.8" width="120.3" height="180.4"/>
				</defs>
				<clipPath id="SVGID_2_">
					<use xlink:href="#SVGID_1_"  style="overflow:visible;"/>
				</clipPath>
				<g class="st1">
					<path class="st2" d="M89.2,34.9V40c0,0.3-0.1,0.6-0.2,0.8s-0.3,0.5-0.5,0.7c-0.5,0.4-1.2,0.6-1.9,0.6h-0.5L85.8,42L85.4,42
						L85,41.9v-1.5c0.5,0.1,1,0.2,1.5,0.2c0.4,0,0.6-0.1,0.7-0.2c0.1-0.2,0.2-0.5,0.2-0.8v-4.7C87.4,34.9,89.2,34.9,89.2,34.9z
						 M94.1,34.9h1.8V40c0,0.3-0.1,0.6-0.2,0.8s-0.3,0.5-0.5,0.7c-0.6,0.5-1.3,0.7-2,0.6c-0.7,0.1-1.5-0.2-2-0.6
						c-0.2-0.2-0.4-0.5-0.5-0.7s-0.2-0.5-0.2-0.8v-5.2h1.8V40c0,0.1,0,0.2,0.1,0.3c0.1,0.1,0.2,0.2,0.2,0.2c0.2,0.1,0.5,0.2,0.7,0.2
						s0.5-0.1,0.7-0.2c0.1-0.1,0.2-0.2,0.2-0.2c0.1-0.1,0.1-0.2,0.1-0.3L94.1,34.9L94.1,34.9z M102.4,34.9V42h-1.5L99,39.1l-0.4-0.9
						h-0.1l0.1,1.2V42H97v-7.2h1.5l1.9,3.1l0.3,0.8h0.1l-0.1-1.2v-2.7H102.4L102.4,34.9z M106.2,42.1c-0.7,0.1-1.4-0.2-2-0.6
						c-0.2-0.2-0.4-0.5-0.5-0.7c-0.2-0.3-0.2-0.6-0.2-0.8v-3c0-0.3,0.1-0.6,0.2-0.8c0.2-0.3,0.3-0.5,0.5-0.7c0.5-0.4,1.2-0.6,2-0.6
						c0.7,0,1.4,0.1,2.1,0.2v1.5c-0.7-0.2-1.4-0.2-2.1-0.2c-0.2,0-0.3,0-0.4,0.1c-0.1,0.1-0.2,0.2-0.4,0.2c-0.2,0.2-0.2,0.5-0.2,0.7
						v2.5c0,0.2,0,0.3,0.1,0.4c0.1,0.2,0.2,0.2,0.2,0.3c0.1,0.1,0.2,0.2,0.4,0.2c0.2,0.1,0.2,0.1,0.4,0c0.3,0,0.6,0,0.9-0.1v-2.2
						h1.5v3.4C107.9,42,107,42.1,106.2,42.1L106.2,42.1z M111,42v-7.2h1.8V42L111,42z M114.9,38.4l1.7-3.5h-1.9l-1.7,3.7l1.8,3.5h2
						C116.7,42,114.9,38.4,114.9,38.4z M124.4,42h-1.7l-0.8-2.9L121,42h-1.7l-2.1-7.2h1.9l0.8,3.3l0.2,1.7h0.1l0.2-1.7l0.5-2
						l-0.4-1.3h1.9l0.8,3.3l0.2,1.7h0.1l0.2-1.7l0.9-3.3h1.8L124.4,42z M130.1,34.9l2.1,7.2h-1.9l-0.4-1.3h-1.6l-0.4,1.3h-1.8
						l2.1-7.2L130.1,34.9L130.1,34.9z M128.7,39.3h0.8l-0.2-0.5l-0.2-1.7h-0.1l-0.2,1.7L128.7,39.3z M138.3,34.9V42h-1.5l-1.8-2.9
						l-0.4-0.9h-0.1l0.1,1.2V42h-1.6v-7.2h1.5l1.9,3.1l0.3,0.8h0.1l-0.1-1.2v-2.7H138.3z M144.4,34.9V40c0,0.3,0,0.6-0.2,0.8
						s-0.3,0.5-0.5,0.7c-0.5,0.4-1.2,0.6-1.9,0.6h-0.5l-0.3-0.1l-0.4-0.1l-0.4-0.1v-1.5c0.5,0.1,1,0.2,1.5,0.2
						c0.4,0,0.6-0.1,0.7-0.2c0.1-0.2,0.2-0.5,0.2-0.8v-4.7H144.4L144.4,34.9z M148.8,34.9l2.1,7.2h-1.9l-0.4-1.3h-1.6l-0.4,1.3h-1.8
						l2.1-7.2C147,34.9,148.8,34.9,148.8,34.9z M147.5,39.3h0.8l-0.2-0.5l-0.2-1.7h-0.1l-0.2,1.7L147.5,39.3z M157.1,34.9V42h-1.5
						l-1.9-2.9l-0.4-0.9h-0.1l0.1,1.2V42h-1.6v-7.2h1.5l1.9,3.1l0.3,0.8h0.1l-0.1-1.2v-2.7H157.1z M160.8,42.1
						c-0.7,0.1-1.4-0.2-1.9-0.6c-0.2-0.2-0.4-0.5-0.5-0.7c-0.2-0.3-0.2-0.6-0.2-0.8v-3c0-0.3,0.1-0.6,0.2-0.8
						c0.2-0.3,0.3-0.5,0.5-0.7c0.5-0.4,1.2-0.6,2-0.6c0.7,0,1.4,0.1,2.1,0.2v1.5c-0.7-0.2-1.4-0.2-2.1-0.2c-0.2,0-0.2,0-0.4,0
						c-0.2,0.1-0.2,0.1-0.4,0.2c-0.1,0.1-0.2,0.2-0.2,0.3c-0.1,0.1-0.1,0.2,0,0.4v2.5c0,0.2,0,0.3,0,0.4c0.1,0.2,0.2,0.2,0.2,0.3
						c0.1,0.1,0.2,0.2,0.3,0.2c0.1,0.1,0.2,0.1,0.4,0.1c0.3,0,0.6,0,0.9-0.1v-2.2h1.5v3.4C162.5,42,161.6,42.1,160.8,42.1z
						 M73.1,60.9l2,6.1h-4l-1.9-6.1h-0.5v6.2h-3.9V47.7h7.3l2.6,2.5v8.9C74.8,59.2,73.1,60.9,73.1,60.9z M68.7,51.1v6.6h1.9
						c0.3,0,0.4-0.1,0.4-0.4v-5.9c0-0.2-0.1-0.4-0.4-0.4C70.6,51.1,68.7,51.1,68.7,51.1z M173,60.9l2,6.2h-4l-1.9-6.2h-0.5V67h-3.9
						V47.7h7.3l2.6,2.5v8.9L173,60.9L173,60.9z M168.7,51.1v6.6h1.9c0.3,0,0.4-0.1,0.4-0.4v-5.9c0-0.2-0.1-0.4-0.4-0.4
						C170.6,51.1,168.7,51.1,168.7,51.1z M76.4,47.7h7.5l0.7,3.6h-4.2V56h3.2v3.3h-3.2v4.2h4.1l-0.7,3.6h-7.3
						C76.4,67.1,76.4,47.7,76.4,47.7z M92.8,67.1H86V47.7h7.6l2.3,2.4v14C95.9,64.1,92.8,67.1,92.8,67.1z M89.8,51.1v12.6h1.8
						c0.3,0,0.4-0.1,0.4-0.4V51.5c0-0.2-0.1-0.4-0.3-0.4H89.8z M110.8,59.1v5l-3,3h-7V47.7h7.6l2.3,2.4v5.3l-1.3,2L110.8,59.1z
						 M104.6,51.1v5.1h1.8c0.1,0,0.2,0,0.2,0c0.1,0,0.2-0.1,0.2-0.1c0.1-0.1,0.1-0.1,0.1-0.2c0-0.1,0-0.2,0-0.2v-4.2
						c0-0.2-0.1-0.4-0.3-0.4H104.6z M107,59.7c0-0.5-0.2-0.5-0.6-0.5h-1.8v4.5h1.9c0.3,0,0.4-0.1,0.4-0.4L107,59.7L107,59.7z
						 M119.7,67.1h-4.5l-2.8-2.7V50.3l2.6-2.5h4.8l2.6,2.5v14.1L119.7,67.1z M116.7,51.1c-0.2,0-0.3,0.2-0.3,0.4v11.8
						c0,0.3,0.1,0.4,0.4,0.4h1.5c0.3,0,0.4-0.1,0.4-0.4V51.5c0-0.2-0.1-0.4-0.3-0.4H116.7L116.7,51.1z M131.2,67.1h-4.5l-2.8-2.7
						V50.3l2.6-2.5h4.8l2.6,2.5v14.1L131.2,67.1z M128.2,51.1c-0.2,0-0.3,0.2-0.3,0.4v11.8c0,0.3,0.1,0.4,0.4,0.4h1.5
						c0.3,0,0.4-0.1,0.4-0.4V51.5c0-0.2-0.1-0.4-0.3-0.4H128.2L128.2,51.1z M141.3,67.1h-4.8l-0.7-3.6h4.2c0.3,0,0.5-0.1,0.5-0.4
						v-3.5c0-0.5-0.2-0.5-0.7-0.5h-2l-2.2-2.2v-6.6l2.6-2.5h5.3l0.7,3.6h-4.4c-0.3,0-0.5,0.2-0.5,0.5v3.5c0,0.4,0.2,0.5,0.6,0.5h2.5
						l1.9,2v6.4L141.3,67.1L141.3,67.1z M182.1,67.1h-4.8l-0.7-3.5h4.2c0.3,0,0.5-0.1,0.5-0.4v-3.5c0-0.5-0.2-0.5-0.7-0.5h-2
						l-2.2-2.2v-6.6l2.6-2.5h5.3l0.7,3.6h-4.4c-0.3,0-0.5,0.2-0.5,0.5v3.5c0,0.4,0.2,0.5,0.6,0.5h2.5l1.9,2v6.4L182.1,67.1
						L182.1,67.1z M153.3,47.7l1,3.6h-2.5v15.7h-3.9V51.4h-2.5l1-3.6H153.3z M155.4,47.7h7.5l0.7,3.6h-4.2V56h3.2v3.3h-3.2v4.2h4.1
						l-0.7,3.6h-7.3V47.7L155.4,47.7z M125.7,106.3v34.9l8.5,3.7l-8.5,70.4l49.4-32v-36.9l-9.4-4l9.4-10.1v-19.4l9.1-15.2h-46.3
						c-1,2.5-2.7,4.5-4.9,6C130.9,105.3,128.3,106.1,125.7,106.3L125.7,106.3z M144.4,112.9h11.9v25.4l-11.9-5.2V112.9L144.4,112.9z
						 M144.4,149.3l11.9,5.2l-0.5,18.9L144,181L144.4,149.3L144.4,149.3z"/>
					<path class="st3" d="M112.1,97.7H65.8l9.1,15.2v70.4l18.7,12.2v-40l11.9,5.1v42.6l18.7,12.1v-65.2l-11.9-5.2l9.8-38.9
						c-2.2-0.5-4.3-1.5-6-2.9C114.4,101.6,113,99.8,112.1,97.7L112.1,97.7z M98.6,138.8l-4.9-2.2v-23.8h10.5L98.6,138.8z M185.1,75
						H64.9v15.2h46.3c0.5-3.3,2.2-6.3,4.7-8.5c2.5-2.2,5.8-3.4,9.1-3.4c3.3,0,6.6,1.2,9.1,3.4c2.5,2.2,4.2,5.2,4.7,8.5h46.3V75z"/>
					<path class="st3" d="M137.5,90.2c-0.8-1.9-1.9-3.5-3.4-4.8c-1.5-1.4-3.2-2.4-5-3.1c0.8-0.5,1.7-0.7,2.5-0.8
						c1.5,0.9,2.9,2.2,3.9,3.7C136.6,86.8,137.3,88.5,137.5,90.2L137.5,90.2z M127.5,85.2c0.5,0.7,0.9,1.5,1.5,2.2
						c2.7,3.5,6.7,8.9,2.4,15.9c-1.8,1.1-3.8,1.7-5.9,1.8V83c0.5,0,1,0.1,1.5,0.2C127,83.8,127.2,84.6,127.5,85.2L127.5,85.2z
						 M120.9,87.4c0.5-0.7,1.1-1.4,1.5-2.2c0.4-0.6,0.5-1.4,0.5-2.1c0.5-0.1,1-0.2,1.5-0.2v22c-2.1-0.1-4.1-0.7-5.9-1.8
						C114.2,96.3,118.2,90.9,120.9,87.4L120.9,87.4z M120,80.7c1.4-0.6,2.9-0.9,4.4-1v2c-0.7,0-1.4,0.2-2.1,0.2
						C121.7,81.3,120.8,80.8,120,80.7z M125.6,81.7v-2c1.5,0.1,3,0.4,4.4,1c-0.8,0.2-1.7,0.7-2.3,1.3
						C127,81.8,126.3,81.7,125.6,81.7L125.6,81.7L125.6,81.7z M118.2,81.5c0.9,0.1,1.8,0.4,2.6,0.8c-1.9,0.7-3.5,1.7-5,3.1
						c-1.5,1.4-2.5,3-3.4,4.8c0.3-1.8,1-3.5,2-4.9C115.4,83.7,116.7,82.5,118.2,81.5L118.2,81.5z M112.5,94.5
						c0.8-5.5,4.5-9.7,9.1-11.1c0,0.4-0.1,0.8-0.3,1.2c-0.4,0.7-0.8,1.4-1.4,2c-2.5,3.2-6.3,8.3-3.7,14.9
						C114.3,99.6,113,97.2,112.5,94.5L112.5,94.5z M133.8,101.5c2.6-6.5-1.2-11.6-3.7-14.9c-0.5-0.6-1-1.3-1.4-2
						c-0.2-0.4-0.3-0.8-0.3-1.2c4.6,1.4,8.3,5.6,9.1,11.1C137,97.2,135.7,99.6,133.8,101.5z"/>
				</g>
			</g>
		</g>
	</g>
</g>
<rect x="8" y="34.8" class="st0" width="234" height="180.4"/>
</svg>
