<?xml version="1.0" encoding="utf-8"?>
<!-- Generator: Adobe Illustrator 25.1.0, SVG Export Plug-In . SVG Version: 6.00 Build 0)  -->
<svg version="1.1" id="Layer_1" xmlns="http://www.w3.org/2000/svg" xmlns:xlink="http://www.w3.org/1999/xlink" x="0px" y="0px"
	 viewBox="0 0 250 250" style="enable-background:new 0 0 250 250;" xml:space="preserve">
<style type="text/css">
	.st0{fill:#FFFFFF;}
	.st1{fill:#41030B;}
	.st2{fill:#BB1137;}
	.st3{fill:#FCD205;}
	.st4{fill:#656263;}
	.st5{fill:none;}
</style>
<g>
	<g>
		<path class="st0" d="M105.1,141.2c-11.3-5.6-19.9-15.8-23.6-29c-0.9-3.3-1.5-6.7-1.7-10.1c0-0.8-0.1-1.3-0.1-2.1
			c0-1.1,0.1-2.3,0.2-3.4c0.4-5.9,1.9-11.5,4.3-16.5c2.7-5.8,6.5-11,11.3-15.2c3.9-3.4,8.4-6.2,13.3-8.1c4.8-1.9,10-3.2,15.5-3.4
			c0.3,0,0.6-0.1,0.9-0.1c0.3,0,0.7,0,1.1,0c0.3,0,0.7,0,1,0c0.3,0,0.7,0.1,1,0.1c4.5,0.2,9,1.1,13.3,2.6c4,1.4,7.9,3.3,11.4,5.8
			c0.3,0.2,0.7,0.4,1,0.7c0.6,0.4,1.1,0.8,1.7,1.3c0.3,0.2,0.5,0.5,0.8,0.7c4.2,3.6,7.6,7.9,10.3,12.7c0,0-6.2-5.7-16.8-2.7
			c0,0,19,7.3,22,17.8c0,0-7-9.5-17.5-8.5c0,0,17,15.5,16.8,28.5l-1.4,8.9l-5.3-4.2l2.1,6.4L105.1,141.2z"/>
	</g>
	<g>
		<path class="st1" d="M169.8,121.1c-2.6-19.7-15.9-26.8-21.9-28.6c9.9,5.6,15.5,15,16.2,21.5c-2.3-5.2-6.2-9.5-12.8-10.8
			c7.2,4.5,9.5,9.8,10.5,15.5c-6.1-10.4-19.1-14.3-30.3-12.2c0,0,5.6-3.4,10.4-3.3c-0.3-2.7-8-2.3-15.1-4.4c-6-1.7-7.2-4.9-7.5-6.8
			c1,1.5,3.9,2.7,7.2,2.3c2.9-0.3,5.9-2.1,6.1-6.3c0,0,3.6-1.7,4.4-3.3c-0.9,0.8-11.7,3.4-18.5,3.9c-2.4,0-3-2.3-6.3-1.5
			c0-1.6,1.1-3.4,2.8-4.5c9.4-6.3,24.7-0.2,35.4,7.1c0,0-9.6-9.8-21.2-12c-12.7-2.4-20.8,4.3-19.7,10.5c-5.1,1.3-10.4,6.1-8.8,11.5
			c1.7,5.5,6,7.6,6,7.6c-3-4.8,6.5-9,19.2-4.8c-4.4-0.9-18.3-1-16.8,4.9c2.2-1.6,7.5-0.4,9,4.5c2.6,8.4-2.9,22.8-14.2,29.1
			c6.8,3.7,14.5,5.7,22.3,5.6c3.2,0,6.4-0.3,9.5-1l3.2-0.8c-0.9-2.4-2.5-4.2-8.1-6c13.1-0.8,17,12,17,12c5.5-2.5,8.1-7.4,7.8-13.1
			l6.7,6.3c1.9-4.1,2.2-12.9-1-18.7l5.4,6.2c0.3-3.8,0.2-8.9-1.6-13.2L169.8,121.1z"/>
	</g>
	<g>
		<path class="st0" d="M122.2,90.9c2.4-0.3,4.8-0.9,6.6-1.5c-0.5,1.3-2.2,2.5-4,2.6L122.2,90.9z"/>
	</g>
	<g>
		<path class="st2" d="M142.1,103.3c-4.8-0.1-10.4,3.3-10.4,3.3c11.2-2.1,24.2,1.8,30.3,12.2c-1-5.7-3.4-11.1-10.5-15.5
			c6.5,1.3,10.4,5.6,12.8,10.8c-0.7-6.5-6.3-15.9-16.2-21.5c0,0,0,0,0,0c2.2,0.7,5.4,2,8.7,4.5c-1.8-2.7-3.9-5.1-6.2-7.4l-0.5-0.4
			l-0.3-0.2c-1.3-0.9-2.8-1.7-4.2-2.6c-10.6-4.5-17.7-5.3-22.6-4.7c-4.2,0.5-7.7,2.2-8.4,5.4c1.7,0.3,2.5,1.6,4.3,1.6
			c6.7-0.5,17.5-3.1,18.5-3.9c-0.8,1.6-4.4,3.3-4.4,3.3c-0.1,4.2-3.2,6-6.1,6.3c-3.2,0.4-6.2-0.9-7.2-2.3c0.3,1.9,1.5,5,7.5,6.8
			C134.1,101,141.7,100.6,142.1,103.3"/>
	</g>
	<g>
		<path class="st2" d="M132.9,135.9c11.9-0.5,17.3,3.5,17.1,10.2C158.4,136.6,144.3,131.5,132.9,135.9"/>
	</g>
	<g>
		<path class="st2" d="M130.5,115.3c16.7,1,21.8,10.3,21.8,10.3s-11.9-2.9-22.7,8.5c15.7-7.1,26.4-2,31.3,3.5
			c-1.5-17.2-13.9-22-13.9-22s6.8,0,15.1,6.9C156.1,110,137.6,109.7,130.5,115.3"/>
	</g>
	<g>
		<path class="st2" d="M106.9,107.4c0-2.2,1.9-2.6,3.3-2.9c3.1-2.8,12.4-2.6,15.9-1.9C113.4,98.4,103.9,102.6,106.9,107.4"/>
	</g>
	<g>
		<path class="st3" d="M158.7,86.5c6.8,0.8,11,3.1,13.6,6.3C169.7,80,160,75.6,150.4,74.5c5.5-0.7,11.7-0.2,16.7,2.8
			c-2.9-5.2-6.8-9.8-11.4-13.6c-5.1,4.5-8.9,11.4-11.1,18.6c7.2,4.8,11.8,10.8,13.7,13.9c3.9,3.2,9.7,7.8,13,16
			c0.3-1.3,0.6-2.6,0.9-3.9C173.4,98.7,168.7,89.9,158.7,86.5"/>
	</g>
	<g>
		<path class="st3" d="M110,81c3-3.6,8.2-5.6,14.2-5.6c0.4,0,0.7,0,1.1,0V53.3c-10.2,0.2-20.1,3.8-28.1,10.2
			c4.4,4.8,8.7,11.7,11.4,19.7C108.9,82.4,109.4,81.7,110,81"/>
	</g>
	<g>
		<path class="st3" d="M142.6,81.1c2.6-7.9,6.9-14.5,11.4-18.7c-7.7-5.7-17-8.9-26.6-9.1v22.2c0.8,0.1,1.6,0.2,2.3,0.4
			C134.3,76.9,138.6,78.7,142.6,81.1"/>
	</g>
	<g>
		<path class="st3" d="M99.8,93.2c1.5-2.7,4.4-5,7.6-6.3c-2.4-8.9-7-16.8-11.9-22.1c-10.1,8.8-15.8,21.6-15.8,35l0,0.2h19.1
			C98.2,97.8,98.6,95.4,99.8,93.2"/>
	</g>
	<g>
		<path class="st3" d="M111.7,108.8c-1.5,0-2.8,0.9-3.3,1.7c-3.9-1.6-7-4.6-8.8-8.4H79.8c0.7,14.6,8.2,28,20.3,36.2
			c6.2-3.5,19.2-12.7,16.3-25.8C115.8,109.9,113.6,108.8,111.7,108.8"/>
	</g>
	<g>
		<path class="st3" d="M111.3,94.3c1.3-0.5,3-0.9,5.6-0.4c0,0-0.6-0.7-0.8-1.7C116.2,92.3,112.8,92.9,111.3,94.3"/>
	</g>
	<g>
		<path class="st3" d="M115.2,82.8c-1.7,1.2-2.8,3-2.8,4.5c0.8-0.2,1.4-0.2,1.9-0.1c0.6-3.2,4.2-4.9,8.4-5.4
			c4.9-0.5,12,0.2,22.6,4.8C135.3,80.9,123.2,77.4,115.2,82.8"/>
	</g>
	<g>
		<path class="st1" d="M242,167.8l-4.2-9.8h-110l-13,1.5l-7.5-1.5l-17.6,0l-7.8,6.5L82,158H58.6l-6.2,6l-2.6-6H14.3l4.3,8.2
			l-4.2,7.5l5.3,6.3L8,185.6l4.2,9.8h23.7l0,0l16.9-1.7l5-5.9l11.4,5.8l0.1,0l10.8,1.9l12.3-2.5l1.6-3.6l22.2,6h41.4l11.6-2.5
			l1.4-3.2l30,7l1.4-1.3h22.9l11.2-12.9l-4-9.8L242,167.8z"/>
	</g>
	<g>
		<path class="st3" d="M41.7,172.8l-13.2,0l-1.6-1.9l2.3-4H43l-1.5,4.7l9.8-4.7l-2.9-6.8H17.7l3.2,6.2l0,0l-4.1,7.3l5.2,6.1h13.2
			l0.8,1.9l-4.4,5.1l-12.6-0.1l1.5-4.7l-9.8,4.7l2.9,6.8h22.2l9.8-11.3L41.7,172.8z"/>
	</g>
	<g>
		<path class="st3" d="M229.7,172.8l-13.2,0l-1.6-1.9l2.3-4h13.9l-1.5,4.7l9.8-4.7l-2.9-6.8h-30.8l3.2,6.2l0,0l-4.1,7.3l5.2,6.1
			h13.2l0.8,1.9l-4.4,5.1l-12.6-0.1l1.5-4.7l-9.8,4.7l2.9,6.8h22.2l9.8-11.3L229.7,172.8z"/>
	</g>
	<g>
		<path class="st3" d="M158.3,167l6-6.9l-33.9,0l2.7,6.1l-12.3,27.2h27.6l6.2-6.9h-21.2l8.6-19.5H158.3z"/>
	</g>
	<g>
		<path class="st3" d="M153.7,179.8l3.2-6.9h-11l-7.8,6.9H153.7z"/>
	</g>
	<g>
		<path class="st3" d="M126.9,160l-11.7,1.7l-8.8,9.7l-8.7,6.9h6.7l6.2,13.2l9.3,2.4l-7.7-17.5L126.9,160z"/>
	</g>
	<g>
		<path class="st3" d="M90.1,160l3.1,5.9l-12.5,27.5l10.3-2.1l14-31.3L90.1,160z"/>
	</g>
	<g>
		<path class="st3" d="M203.5,160l-36.8,0l3,5.9l-12.5,27.5l10.3-2.3l10.9-24.5h12.7l-4,6.7h-4.9l-7.8,6.9h9.4l4.7,11.4l10.8,2.6
			l-7.2-17l6.7-7.4L203.5,160z"/>
	</g>
	<g>
		<path class="st3" d="M61.4,160l2.6,5l-24.6,28.4l12.3-1.6L71,169.6v9.2h-3.9l-7.8,6.9H71v6.3l9,1.5V160H61.4z"/>
	</g>
	<g>
		<path class="st4" d="M61.2,142.7h-9.9v-16.6h-4.8v20.6h14.6V142.7z"/>
	</g>
	<g>
		<path class="st4" d="M71.9,147.1c3.2,0,6.3-0.8,8-2v-10h-8.3v3.9h3.9v3.6c-1.1,0.4-2.3,0.5-3.4,0.5c-4.3,0-5.7-2.2-5.7-6.6
			c0-4.2,1.4-6.7,5.7-6.7c2.4,0,3.7,0.7,4.9,2.2l3-2.7c-1.8-2.6-5-3.4-7.9-3.4c-6.7,0-10.2,3.6-10.2,10.6
			C61.8,143.3,64.9,147.1,71.9,147.1"/>
	</g>
</g>
<g id="레이어_1">
	<rect x="8" y="8" class="st5" width="234" height="234"/>
</g>
</svg>
