<?xml version="1.0" encoding="utf-8"?>
<!-- Generator: Adobe Illustrator 25.1.0, SVG Export Plug-In . SVG Version: 6.00 Build 0)  -->
<svg version="1.1" id="Layer_1" xmlns="http://www.w3.org/2000/svg" xmlns:xlink="http://www.w3.org/1999/xlink" x="0px" y="0px"
	 viewBox="0 0 250 250" style="enable-background:new 0 0 250 250;" xml:space="preserve">
<style type="text/css">
	.st0{fill:none;}
	.st1{fill:#DEDDDE;}
	.st2{fill:#F25C19;}
	.st3{fill:#3948A4;}
	.st4{fill:url(#SVGID_1_);}
	.st5{fill:url(#SVGID_2_);}
	.st6{fill:url(#SVGID_3_);}
	.st7{fill:url(#SVGID_4_);}
	.st8{fill:url(#SVGID_5_);}
	.st9{fill:url(#SVGID_6_);}
	.st10{fill:url(#SVGID_7_);}
</style>
<g>
	<rect x="-41.1" y="227.7" class="st0" width="248.2" height="138.2"/>
	<g transform="matrix(1.12827 0 0 -1.12827 -58.03 437.807)">
		<g>
			<path class="st1" d="M248.6,298.3c6.3,7.8,9.9,16.4,10.6,25l0.5,7.4c0,0.5-0.6,0.7-0.9,0.3l-4.4-6c-9.2-12.6-30.6-25.3-55.8-33.2
				c-1.7-0.5-3.3-1-5-1.5c-0.7-0.2-1.4-0.4-2.1-0.6c-7.2-1.8-17.7-3-29.2-3c-11.6,0-22,1.1-29.2,3c-0.7,0.2-1.4,0.4-2.1,0.6
				c-1.7,0.5-3.4,1-5,1.5c-25.2,7.9-46.6,20.7-55.8,33.2l-4.4,6c-0.3,0.4-0.9,0.2-0.9-0.3l0.5-7.4c0.6-8.6,4.3-17.3,10.6-25
				c1.9-2.4,4.4-4.4,7.1-5.9c-1.8,0.7-3.6,1.3-5.4,2.1l-3.4,1.4c-0.3,0.1-0.5,0-0.6-0.3c0-0.1,0-0.2,0-0.3l0.5-3.7
				c0.8-5.8,5.8-11.5,14.5-16.3l-3.9,0.5c-0.2,0-0.4-0.1-0.4-0.3c0-0.1,0-0.1,0-0.2l1.8-3.8c1.9-4,6.2-7.2,12.4-9.3l-1.7-0.3
				c-0.2,0-0.3-0.2-0.3-0.4c0-0.1,0-0.1,0.1-0.2l2.6-3c1.9-2.1,4.6-3.7,8.1-4.6l-1.5-10c0-0.2,0.1-0.4,0.3-0.4h0.1l8.4,2
				c1.3,0.3,2.7,0.6,4,0.9l4.3,0.9l1,7.1c0.1-0.1,0.2-0.2,0.3-0.4c1.5-1.4,3.4-2.2,5.6-2.2c0.4,0,0.8,0,1.2,0.1
				c2.8,0.4,5.5,0.7,8.3,1c0,0,4,0.4,4.2,0.4c1.5,0.1,3.1,0.2,4.6,0.3l2.6,0.1c1,0.1,2,0.1,3,0.1l1.7,0.1c1.3,0,2.7,0.1,4,0.1h2.9
				h2.9c1.4,0,2.7,0,4-0.1c0,0,3.6-0.1,3.8-0.1c2.2-0.1,4.5-0.2,6.7-0.4c1.1-0.1,2.2,0,3.3,0.4c1-0.5,2.1-0.8,3.2-1
				c2.6-0.3,5.3-0.6,7.9-1c0.2,0,0.3,0,0.5-0.1c1.3-2.2,3.6-3.9,6.3-4.4c2.9-0.6,5.8-1.2,8.7-1.9l8.4-2c0.2,0,0.4,0.1,0.4,0.3v0.1
				l-1.4,9.9c3.6,0.9,6.4,2.4,8.3,4.6l2.6,3c0.1,0.2,0.1,0.4,0,0.5c-0.1,0-0.1,0.1-0.2,0.1l-1.7,0.3c6.2,2.1,10.4,5.3,12.4,9.3
				l1.8,3.8c0.1,0.2,0,0.4-0.2,0.5c-0.1,0-0.1,0-0.2,0l-3.9-0.5c8.7,4.8,13.8,10.4,14.5,16.3l0.5,3.7c0,0.3-0.2,0.5-0.4,0.6
				c-0.1,0-0.2,0-0.3,0l-3.4-1.4c-1.8-0.7-3.6-1.4-5.4-2.1C244.2,293.9,246.6,295.9,248.6,298.3"/>
		</g>
		<g>
			<path class="st1" d="M162.2,311.5c-24.4,0-44.3-19.8-44.3-44.3c0-24.4,19.8-44.3,44.3-44.3s44.3,19.8,44.3,44.3
				S186.7,311.5,162.2,311.5"/>
		</g>
		<g>
			<path class="st2" d="M162.2,297.1c16.5,0,29.9-13.4,29.9-29.9s-13.4-29.9-29.9-29.9s-29.9,13.4-29.9,29.9
				S145.8,297.1,162.2,297.1"/>
		</g>
		<g>
			<path class="st3" d="M142.9,288.6c-1.9-4.4-2.1-9.6-1.4-13.8c0.8-5.3,2.8-9.5,7.5-15.5c4.2-5.3,6.1-8.9,6.3-11.8
				c-11.2,2.7-20.2,11.6-21.8,22.5C134.2,277.3,137.7,283.9,142.9,288.6 M190.9,269.9c-1.6-10.9-10.6-19.9-21.8-22.5
				c0.2,2.9,2.1,6.5,6.3,11.8c4.7,6,6.8,10.2,7.5,15.5c0.6,4.2,0.4,9.4-1.4,13.8C186.8,283.9,190.2,277.3,190.9,269.9 M176.6,242.2
				c-1.4-0.3-3.2-0.1-4.7,0.5c-1,0.4-2.2,1.3-2.6,2.7c9.6,2.1,17.5,8.4,21.3,16.8C189.1,253.6,183.9,246.4,176.6,242.2 M157,245.1
				c1.4-0.2,2.8-0.4,4.2-0.4v-6.3c-3.3,0.1-6.6,0.8-9.7,2c0.6,0.1,1.2,0.3,1.8,0.6C155.3,241.9,156.6,243.3,157,245.1 M171.1,241
				c0.6-0.3,1.2-0.5,1.8-0.6c-3.1-1.2-6.4-1.9-9.7-2v6.3c1.4,0,2.8,0.2,4.2,0.4C167.9,243.3,169.1,241.9,171.1,241 M177.3,291.8
				c4-4.3,4.6-11.4,3.8-16.7c-0.7-5-2.6-8.8-7.2-14.6c-4.7-5.9-6.7-9.9-6.7-13.4c-1.3-0.2-2.7-0.4-4-0.4V296
				C168.2,295.9,173.1,294.4,177.3,291.8 M147.1,291.8c4.3,2.6,9.1,4.1,14.1,4.2v-49.4c-1.3,0-2.7,0.2-4,0.4c0,3.5-2.1,7.5-6.7,13.4
				c-4.5,5.8-6.4,9.6-7.2,14.6C142.6,280.4,143.2,287.5,147.1,291.8 M133.8,262.2c3.8-8.4,11.7-14.6,21.3-16.7
				c-0.4-1.4-1.6-2.3-2.6-2.7c-1.5-0.7-3.3-0.9-4.7-0.5C140.6,246.4,135.3,253.6,133.8,262.2 M162.2,235.8
				c17.3,0,31.4,14.1,31.4,31.4s-14.1,31.4-31.4,31.4s-31.4-14.1-31.4-31.4C130.9,249.9,144.9,235.8,162.2,235.8"/>
		</g>
		<g>
			<path class="st3" d="M149,302.2l2.5,1l-0.1,0.2l0,0l-0.8,1.9l0,0c-0.1,0.4-0.6,0.5-0.9,0.4l0,0l-5.4-2.2l0.4-1l5,2l0.3-0.8
				l-5.1-2l0.4-1l2.5,1l0.3-0.7l-2.5-1l0.4-1l5.1,2l0.4-1.1l1.1,0.4l-0.6,1.4l0,0c-0.1,0.4-0.5,0.5-0.9,0.4l0,0l0,0l0,0l0,0
				l-1.8-0.7L149,302.2z"/>
		</g>
		<g>
			<path class="st3" d="M138.8,296.4c-0.3-0.3-0.8-0.2-1.1,0.1c-0.3,0.3-0.2,0.8,0.1,1.1l0,0c0.3,0.3,0.8,0.2,1.1-0.2
				C139.2,297.1,139.1,296.7,138.8,296.4 M141,300.9L141,300.9C141,300.9,140.9,300.9,141,300.9L141,300.9L141,300.9
				c-0.3,0.3-0.7,0.4-1,0.2l0,0l0,0l0,0l0,0l-3.8-2.9l-0.3,0.4l-0.9-0.7l0.7-0.9l0,0l0.3-0.4l0.5,0.4c0-0.4,0.1-0.8,0.4-1.1
				c0.6-0.8,1.8-0.9,2.7-0.2c0.9,0.7,1.1,1.8,0.4,2.6c-0.3,0.3-0.6,0.5-1,0.6l1.4,1l2.4-3.1l-3.4-2.6l-0.5,0.7l-0.9-0.7l0.7-0.9l0,0
				l0,0l0,0l0,0c0.3-0.3,0.7-0.4,1-0.1l0,0l4.7,3.6l-0.5,0.6l0,0l-1.6,2l0.7,0.5l-0.7,0.9l-0.7-0.5L141,300.9z"/>
		</g>
		<g>
			<path class="st3" d="M175.6,299.9c-0.5,0.2-0.8,0.8-0.6,1.3l0,0c0.2,0.5,0.8,0.8,1.3,0.6s0.8-0.8,0.6-1.3
				C176.7,299.9,176.1,299.6,175.6,299.9 M180.5,302.8L180.5,302.8c0.1,0.3,0,0.7-0.4,0.9l0,0l-5.4,2.2l-0.4-1l5-2l-0.4-1l-1.7,0.7
				l0.3,0.7l-1.3,0.5l-0.3-0.7l-2.2,0.9l-0.4-1l1.4-0.6c-0.4-0.2-0.6-0.5-0.8-0.8c-0.4-1,0.2-2.2,1.4-2.8c1.2-0.5,2.5-0.1,3,0.9
				c0.2,0.4,0.2,0.8,0,1.2l1.3-0.5l0.4,1l0,0L180.5,302.8z"/>
		</g>
		<g>
			<path class="st3" d="M158,306.7L158,306.7L158,306.7c-0.1,0.4-0.4,0.7-0.8,0.7l0,0l-3.1-0.3l0.1-1.1l2.6,0.2l0.1-1.3
				c0.1-1.5-0.8-2.3-2-2.4l-0.6-0.1l0.1-1.1l0.7,0.1c1.7,0.1,3.2,1.4,3,3.6L158,306.7L158,306.7L158,306.7"/>
		</g>
		<g>
			<path class="st3" d="M159.8,307.6c-0.4-0.1-0.7-0.4-0.6-0.8l0,0l0.4-5.2l1.2,0.1l-0.4,4.9l1,0.1l-0.1,1.1L159.8,307.6
				L159.8,307.6z"/>
		</g>
		<g>
			<path class="st3" d="M164,302.1l6.6-0.9l0.1,1.1l-6.6,0.9L164,302.1z"/>
		</g>
		<g>
			<path class="st3" d="M167.9,305.6c0.5-0.6,1.3-1.1,2.3-1.2l0.7-0.1l0.1,1.1l-0.8,0.1c-1,0.2-1.7,0.7-1.6,1.5l0.1,0.4h-0.1
				l-1.1,0.1h-0.1l-0.1-0.4c-0.1-0.8-0.9-1.1-1.9-1l-0.8,0.1l-0.1-1.1l0.8-0.1C166.3,304.9,167.3,305.2,167.9,305.6"/>
		</g>
		<g>
			<path class="st3" d="M184.7,295.8c-0.9,1-0.9,2.3,0.2,3.9l0.3,0.4c0,0,0,0,0,0.1l0.2,0.2l0,0l0,0l-0.5,0.4l-0.5,0.4l0,0l0,0
				l-0.2-0.2v-0.1l-0.3-0.4c-1.2-1.6-2.3-2-3.6-1.5l-0.6-1c1-0.5,2.1-0.6,3.1-0.1c-0.2-1.2,0.2-2.1,1.1-2.9l0,0l0.2-0.2l-0.3-0.5
				l1-0.7l2.8,4l0.8-0.6l0.6,0.9l-1.2,0.9l0,0c-0.3,0.2-0.7,0.1-1-0.2l0,0L184.7,295.8L184.7,295.8z"/>
		</g>
		<g>
			<path class="st3" d="M131.6,246.2l0.5-0.7c0.3-0.4,0.7-0.5,1-0.3c0.2,0.1,0.3,0.3,0.3,0.5s-0.1,0.4-0.3,0.6l-0.4,0.6L131.6,246.2
				z M130.9,245.8l-1.2-0.9l0.5-0.8c0.2-0.2,0.3-0.3,0.5-0.4c0.2,0,0.4,0,0.6,0.1c0.4,0.3,0.5,0.7,0.2,1.1L130.9,245.8z
				 M128.3,245.2l4.5,3.3l1.1-1.5c0.4-0.5,0.6-1,0.5-1.4c0-0.4-0.2-0.8-0.6-1.1c-0.2-0.2-0.4-0.2-0.7-0.3c-0.2,0-0.5,0-0.7,0.2
				c0.1-0.3,0.1-0.5,0-0.8s-0.3-0.5-0.5-0.7c-0.4-0.3-0.9-0.4-1.3-0.3c-0.4,0.1-0.8,0.4-1.2,0.9L128.3,245.2z"/>
		</g>
		<g>
			<path class="st3" d="M134.2,241.1l0.9-1l1,1.9L134.2,241.1z M134.7,239.3l-1.3,1.4l-1.1-0.5l-0.8,0.8l5.4,2.5l0.7-0.7l-2.6-5.3
				l-0.8,0.8L134.7,239.3z"/>
		</g>
		<g>
			<path class="st3" d="M139.1,236c0.1,0.2,0.2,0.3,0.1,0.5c0,0.2-0.2,0.4-0.4,0.8c-0.2,0.3-0.4,0.6-0.5,0.9
				c-0.3,0.6-0.2,1.2,0.1,1.6c0.2,0.2,0.4,0.4,0.7,0.5s0.6,0.1,0.9,0c0.3-0.1,0.7-0.2,0.9-0.5c0.3-0.2,0.5-0.5,0.7-0.8
				c0.1-0.3,0.2-0.6,0.2-0.9c0-0.3-0.2-0.6-0.4-0.9l-0.9,0.7c0.2,0.2,0.2,0.4,0.2,0.6c0,0.2-0.2,0.4-0.4,0.6
				c-0.2,0.2-0.4,0.2-0.6,0.2c-0.2,0-0.4-0.1-0.5-0.2c-0.1-0.1-0.1-0.3-0.1-0.5c0.1-0.2,0.2-0.5,0.4-0.7c0.4-0.5,0.6-1,0.6-1.4
				s-0.1-0.8-0.3-1.1c-0.3-0.4-0.7-0.6-1.1-0.6c-0.4,0-0.9,0.2-1.4,0.5c-0.3,0.3-0.6,0.5-0.7,0.9c-0.2,0.3-0.2,0.7-0.2,1
				s0.2,0.6,0.4,0.9l0.9-0.7c-0.4-0.5-0.3-0.9,0.3-1.4c0.2-0.2,0.4-0.2,0.6-0.2C138.8,235.7,139,235.8,139.1,236"/>
		</g>
		<g>
			<path class="st3" d="M143.2,234.2l-0.8-0.3l-0.8-1.4l-1,0.5l2.7,4.9l1-0.5l-1.2-2.2l0.8,0.4l2.1,0.9l1.2-0.7l-2.9-1.2l0.2-3.7
				l-1.1,0.6L143.2,234.2z"/>
		</g>
		<g>
			<path class="st3" d="M149.8,231.4l-2,0.8l-0.5-1.4l2.3-0.9l-0.3-0.9l-3.3,1.3l2,5.2l3.3-1.3l-0.3-0.9l-2.3,0.9l-0.5-1.2l2-0.8
				L149.8,231.4z"/>
		</g>
		<g>
			<path class="st3" d="M156.4,232l-1.6,0.4l-1-4.5l-1.1,0.2l1,4.5l-1.6,0.4l0.2,0.9l4.2-1L156.4,232z"/>
		</g>
		<g>
			<path class="st3" d="M158.6,230.3l0.8-0.1c0.6,0,0.8,0.2,0.9,0.6c0,0.3,0,0.4-0.2,0.6c-0.1,0.1-0.3,0.2-0.6,0.2l-0.8,0.1
				L158.6,230.3z M158.6,229.5l-0.1-1.5l0.9-0.1c0.3,0,0.5,0,0.6,0.1c0.2,0.1,0.2,0.3,0.3,0.5c0,0.5-0.2,0.8-0.7,0.8L158.6,229.5z
				 M157.3,227.2l0.4,5.6l1.9-0.1c0.6,0,1.1-0.2,1.4-0.5c0.3-0.3,0.5-0.7,0.4-1.2c0-0.3-0.1-0.5-0.3-0.7c-0.1-0.2-0.4-0.3-0.6-0.4
				c0.3-0.1,0.5-0.3,0.6-0.5s0.2-0.5,0.2-0.8c0-0.5-0.2-0.9-0.6-1.2c-0.3-0.3-0.8-0.4-1.4-0.3L157.3,227.2z"/>
		</g>
		<g>
			<path class="st3" d="M164.2,229.1l1.3,0.1l-0.8,2L164.2,229.1z M165.9,228.3l-1.9-0.1l-0.3-1.2l-1.2-0.1l1.6,5.7l1,0.1l2.4-5.4
				l-1.2-0.1L165.9,228.3z"/>
		</g>
		<g>
			<path class="st3" d="M170,228.6l2.3,0.5l0.2-0.9l-3.3-0.7L168,233l1.1,0.2L170,228.6z"/>
		</g>
		<g>
			<path class="st3" d="M174.8,229.9l2.2,0.8l0.3-0.9l-3.2-1.1l-1.8,5.3l1,0.4L174.8,229.9z"/>
		</g>
		<g>
			<path class="st3" d="M183.7,235.3c0.3-0.5,0.3-1.1,0.2-1.5c-0.2-0.5-0.5-0.9-1-1.2c-0.6-0.3-1.2-0.4-1.7-0.2
				c-0.6,0.2-1.1,0.7-1.5,1.4l-0.2,0.3c-0.3,0.5-0.4,0.9-0.5,1.4c-0.1,0.4,0,0.8,0.2,1.2s0.5,0.7,0.8,0.9c0.5,0.3,1,0.4,1.5,0.3
				c0.5-0.1,0.9-0.4,1.3-0.9l-0.9-0.6c-0.2,0.3-0.4,0.5-0.6,0.5c-0.2,0.1-0.5,0-0.8-0.2s-0.5-0.4-0.5-0.8c0-0.3,0.1-0.7,0.4-1.2
				l0.2-0.4c0.3-0.5,0.6-0.9,0.9-1c0.3-0.2,0.6-0.1,0.9,0.1c0.3,0.2,0.5,0.4,0.5,0.6c0.1,0.2,0,0.5-0.1,0.8L183.7,235.3z"/>
		</g>
		<g>
			<path class="st3" d="M186.5,236.3l1.8,1.5l0.6-0.7l-2.7-2.1l-3.5,4.3l0.9,0.7L186.5,236.3z"/>
		</g>
		<g>
			<path class="st3" d="M188.7,244.8l2.7-2.5c0.4-0.4,0.7-0.9,0.7-1.4s-0.2-1-0.6-1.4c-0.4-0.4-0.9-0.7-1.4-0.7s-1,0.2-1.4,0.6
				L186,242l0.8,0.8l2.7-2.6c0.3-0.3,0.5-0.4,0.8-0.4c0.2,0,0.5,0.1,0.7,0.3c0.4,0.4,0.4,0.9-0.1,1.4l-2.7,2.6L188.7,244.8z"/>
		</g>
		<g>
			<path class="st3" d="M192.7,244.8l1.2-0.9l0.5,0.8c0.1,0.2,0.2,0.4,0.2,0.6c0,0.2-0.1,0.4-0.3,0.5c-0.4,0.3-0.8,0.2-1.1-0.2
				L192.7,244.8z M192,245.2l0.5,0.7c0.3,0.5,0.3,0.8-0.1,1.1c-0.2,0.1-0.4,0.2-0.6,0.1c-0.2,0-0.3-0.2-0.5-0.4l-0.4-0.6L192,245.2z
				 M194,242.5l-4.6,3.2l1.1,1.5c0.4,0.5,0.8,0.9,1.2,1s0.8,0,1.2-0.3c0.2-0.2,0.4-0.4,0.5-0.6c0.1-0.2,0.1-0.5,0.1-0.7
				c0.2,0.2,0.5,0.3,0.7,0.3c0.3,0,0.5-0.1,0.8-0.3c0.4-0.3,0.7-0.7,0.7-1.1c0-0.4-0.1-0.9-0.5-1.4L194,242.5z"/>
		</g>
		<g>
			<path class="st3" d="M247.6,291.9c-8.8-3.6-18.8-6.6-29.5-8.8c-0.6-0.1-1.2-0.2-1.8-0.4l-7,0.3l-2.2,0.1c12,2.9,23.2,6.7,32,11
				c2.9,1.4,5.4,3.4,7.4,5.9c5.9,7.3,9.2,15.2,9.9,22.7c0,0.2-0.3,0.4-0.4,0.2c-9.5-12.4-30.5-25.3-56.6-33.5
				c-3.6-1.1-7.1-2.1-10.8-3c-0.1,0-0.2,0-0.2-0.1c-4.6-1-10.2-1.8-16.4-2.3l0,0c-1.2-0.1-2.3-0.5-3.2-1.3l-0.2,1.3H156l-0.2-1.3
				c-0.9,0.8-2.1,1.2-3.3,1.3c-6.2,0.5-11.8,1.3-16.3,2.3c-0.1,0-0.2,0-0.2,0.1c-3.6,0.9-7.2,1.9-10.8,3
				c-26.1,8.2-47.2,21.1-56.6,33.5c-0.2,0.2-0.5,0.1-0.4-0.2c0.7-7.5,4-15.4,9.9-22.7c2-2.5,4.5-4.5,7.4-5.9c8.8-4.3,20-8.1,32-11
				c-1.1,0-2.3-0.1-3.6-0.1l-5.6-0.2c-0.6,0.1-1.2,0.2-1.8,0.4c-10.7,2.2-20.7,5.2-29.5,8.8c-0.1,0-0.1,0-0.2-0.1c0,0,0,0,0-0.1
				c0.8-5,5.7-10,13.3-14.2c2.1-1.2,4.4-2,6.8-2.3c2.4-0.4,4.8-0.7,7.3-0.9c2.9-0.3,5.7-0.5,8.5-0.6l0.1-0.2l-0.2-1.5
				c-8.5-0.6-16.6-0.3-23.9,0.6c-0.1,0-0.1,0-0.1-0.1c0,0,0,0,0-0.1c2-3.9,6.7-6.8,13.4-8.5c1.9-0.5,3.9-0.6,5.8-0.3
				c1.2,0.2,2.4,0.4,3.7,0.6l-0.3-2.1c-3.2-0.8-6.5-1.5-9.8-2.1c-0.1,0-0.1-0.1-0.1-0.1s0,0,0-0.1c1.9-2.1,5-3.4,8.9-4l-1.3-9.2
				l5.1,1.2c1.3,0.3,2.7,0.6,4.1,0.9l2.5,0.5l1,7.1c1,0.8,2.1,1.6,3.1,2.3c0.1-1.1,0.6-2.2,1.4-3c1-0.9,2.3-1.5,3.7-1.5
				c0.3,0,0.6,0,0.8,0.1c2.8,0.4,5.6,0.7,8.4,1c0,0,4.1,0.4,4.3,0.4c1.5,0.1,3.1,0.2,4.6,0.3l2.6,0.1c1,0.1,2,0.1,3,0.1l1.7,0.1
				c1.4,0,2.7,0.1,4.1,0.1h3h3c1.4,0,2.7,0,4.1-0.1c0,0,3.6-0.1,3.8-0.1c2.3-0.1,4.5-0.2,6.8-0.4c0.2,0,0.3,0,0.5,0
				c1,0,2,0.3,2.8,0.7c1-0.7,2.1-1.2,3.3-1.3c2.7-0.3,5.4-0.6,8-1c0.3,0,0.6-0.1,0.9-0.1c0.3,0,0.6,0,1,0.1c0.6-2.2,2.7-4,5.1-4.5
				c3-0.6,5.9-1.2,8.8-1.9l5.1-1.2l-1.3,9.1c4,0.6,7.2,1.9,9.1,4c0,0.1,0,0.1,0,0.2c0,0,0,0-0.1,0c-3.3,0.6-6.7,1.3-10,2.1l-0.3,2.1
				c1.3-0.2,2.6-0.4,3.9-0.6c1.9-0.3,3.9-0.2,5.8,0.3c6.7,1.8,11.4,4.7,13.4,8.5c0,0.1,0,0.1-0.1,0.2c0,0,0,0-0.1,0
				c-7.5-1-16-1.2-24.9-0.6l0.9,1.7c2.8,0.1,5.6,0.3,8.6,0.6c2.5,0.2,4.9,0.6,7.3,0.9c2.4,0.4,4.7,1.2,6.8,2.3
				c7.6,4.2,12.5,9.2,13.3,14.2C247.8,291.9,247.7,291.9,247.6,291.9L247.6,291.9"/>
		</g>
	</g>
	<g>
		
			<linearGradient id="SVGID_1_" gradientUnits="userSpaceOnUse" x1="-4.9041" y1="2.4554" x2="-4.6789" y2="2.4554" gradientTransform="matrix(0 32.1919 -32.1919 0 204.145 286.329)">
			<stop  offset="0" style="stop-color:#FFFFFF"/>
			<stop  offset="0.15" style="stop-color:#FFFFFF"/>
			<stop  offset="1" style="stop-color:#00ADEF"/>
		</linearGradient>
		<path class="st4" d="M121.4,121c-1.4,7.7-2.8,15.3-4.4,23c1.6,0,3.1-0.1,4.7-0.1c0.2-1.3,0.4-2.7,0.7-4c1.8,0,3.6,0,5.4,0
			c0.2,1.3,0.4,2.7,0.7,4c1.6,0,3.1,0.1,4.7,0.1c-1.6-7.6-3-15.3-4.4-23c-1.2,0-2.4,0-3.6,0C123.8,121,122.6,121,121.4,121
			 M125,126.2c0.7,3.3,1.3,6.5,2,9.8c-1.4,0-2.7,0-4.1,0C123.7,132.8,124.4,129.5,125,126.2"/>
	</g>
	<g>
		
			<linearGradient id="SVGID_2_" gradientUnits="userSpaceOnUse" x1="-4.9547" y1="2.2784" x2="-4.7295" y2="2.2784" gradientTransform="matrix(0 31.9066 -31.9066 0 181.0565 286.6072)">
			<stop  offset="0" style="stop-color:#FFFFFF"/>
			<stop  offset="0.15" style="stop-color:#FFFFFF"/>
			<stop  offset="1" style="stop-color:#00ADEF"/>
		</linearGradient>
		<path class="st5" d="M113.6,121.1c-2.9,0-5.7,0.1-8.6,0.1c-1.2,0-2.3,0.9-2.4,1.9l-1.5,20c-0.1,1,0.9,1.8,2.2,1.7
			c1.8-0.1,3.5-0.3,5.3-0.4c0.9-0.3,1.7-0.6,2.6-0.9l0.3,0.7c1.2-0.1,2.3-0.1,3.5-0.2c0.1-4.3,0.3-8.5,0.4-12.8c-2,0-4,0.1-6,0.2
			c-0.5,1.2-1.1,2.4-1.6,3.7c0.9,0,1.7-0.1,2.6-0.1c-0.1,1.9-0.2,3.7-0.3,5.6c-1.4,0.1-2.7,0.1-4.1,0.2l1-16.2
			c1.3,0,2.6-0.1,3.9-0.1l-0.2,4.5c1.6-0.9,3.2-1.7,4.8-2.6l0.1-3.6C115.8,121.9,114.8,121.1,113.6,121.1L113.6,121.1z"/>
	</g>
	<g>
		
			<linearGradient id="SVGID_3_" gradientUnits="userSpaceOnUse" x1="-3.8435" y1="2.3548" x2="-3.6183" y2="2.3548" gradientTransform="matrix(0 41.3797 -41.3797 0 269.3878 287.8418)">
			<stop  offset="0" style="stop-color:#FFFFFF"/>
			<stop  offset="0.15" style="stop-color:#FFFFFF"/>
			<stop  offset="1" style="stop-color:#00ADEF"/>
		</linearGradient>
		<path class="st6" d="M164.1,123.6l1.1,9.2c0.1,0.5,0.4,0.9,0.8,1.3c2.5,1.8,5.1,3.6,7.6,5.5l1.2,8.7c-1.2-0.2-2.3-0.4-3.5-0.6
			l-0.5-3.8c-3.1-2.2-4.7-3.2-4.7-3.1c0.3,2.8,0.7,5.5,1,8.3c0.1,1.1,1.3,2.2,2.6,2.5c3.4,0.6,6.8,1.4,10.1,2.2l-2.1-15.2
			c-0.1-0.9-0.8-1.5-1.3-1.9c-2.4-1.8-4.7-3.5-7.1-5.2c-0.2-1.8-0.5-3.6-0.7-5.4c1.1,0.1,7.5,0.6,8.6,0.7c0.8-1.5,1.6-3,2.4-4.5
			c-2.7-0.1-11.8-0.5-13.6-0.5c0,0,0,0-0.1,0C164.9,121.6,164,122.5,164.1,123.6"/>
	</g>
	<g>
		
			<linearGradient id="SVGID_4_" gradientUnits="userSpaceOnUse" x1="-5.0907" y1="2.7278" x2="-4.8654" y2="2.7278" gradientTransform="matrix(0 31.2004 -31.2004 0 226.156 287.5667)">
			<stop  offset="0" style="stop-color:#FFFFFF"/>
			<stop  offset="0.15" style="stop-color:#FFFFFF"/>
			<stop  offset="1" style="stop-color:#00ADEF"/>
		</linearGradient>
		<path class="st7" d="M136.5,121.1c-1.2,0-2.2,0.8-2.1,1.8c0.1,2.5,0.2,5.1,0.3,7.6c0,0.5,0.3,0.8,0.7,1.1c2.4,1.4,4.9,2.9,7.3,4.4
			l0.3,4.8c-1.2-0.1-2.3-0.1-3.5-0.2c0-0.8-0.1-1.5-0.1-2.3c-3-1.6-4.5-2.4-4.5-2.4c0.1,2.1,0.1,4.3,0.2,6.4c0,1,1.1,1.9,2.5,1.9
			c2.6,0.1,5.2,0.3,7.8,0.5c1.3,0.1,2.3-0.6,2.3-1.7l-0.6-8.3c-0.1-0.8-0.7-1.3-1.2-1.6c-2.3-1.4-4.5-2.8-6.8-4.2l-0.2-4.1
			c1.1,0,2.2,0,3.3,0.1l0.1,1.3c1.5,0.9,2.9,1.8,4.4,2.7l-0.4-5.9c-0.1-1-1.1-1.9-2.4-1.9C141.3,121.1,138.9,121.1,136.5,121.1
			L136.5,121.1z"/>
	</g>
	<g>
		
			<linearGradient id="SVGID_5_" gradientUnits="userSpaceOnUse" x1="-4.6362" y1="1.9537" x2="-4.411" y2="1.9537" gradientTransform="matrix(0 34.1668 -34.1668 0 160.4972 287.0166)">
			<stop  offset="0" style="stop-color:#FFFFFF"/>
			<stop  offset="0.15" style="stop-color:#FFFFFF"/>
			<stop  offset="1" style="stop-color:#00ADEF"/>
		</linearGradient>
		<path class="st8" d="M91.6,121.4c-1.2,0-2.3,1-2.4,2.1l-2.4,21.2c-0.1,1.1,0.8,1.9,2.2,1.7c3.2-0.4,6.4-0.8,9.6-1.1l0.3-3.9
			c-2.4,0.2-4.8,0.5-7.2,0.7c0.3-2.5,0.5-4.9,0.8-7.4c1.7-0.1,3.4-0.3,5.1-0.4c0.6-1.4,1.1-2.7,1.7-4c-2.1,0.1-4.2,0.2-6.3,0.4
			c0.2-1.7,0.3-3.4,0.5-5.2c2.3-0.1,4.6-0.2,6.9-0.2c0.1-1.3,0.2-2.6,0.3-3.9C97.5,121.3,94.5,121.4,91.6,121.4"/>
	</g>
	<g>
		
			<linearGradient id="SVGID_6_" gradientUnits="userSpaceOnUse" x1="-4.6604" y1="2.6856" x2="-4.4352" y2="2.6856" gradientTransform="matrix(0 33.9894 -33.9894 0 247.4435 287.0166)">
			<stop  offset="0" style="stop-color:#FFFFFF"/>
			<stop  offset="0.15" style="stop-color:#FFFFFF"/>
			<stop  offset="1" style="stop-color:#00ADEF"/>
		</linearGradient>
		<path class="st9" d="M148.4,121.2l1.7,22c0.1,1,1.2,2,2.5,2.1c3.1,0.3,6.1,0.7,9.2,1.1c1.3,0.2,2.3-0.6,2.1-1.7l-2.7-23.3
			c-1.5,0-3.1-0.1-4.6-0.1l2.1,20.9c-1.3-0.2-2.6-0.3-3.9-0.4l-1.9-20.5C151.5,121.3,150,121.2,148.4,121.2L148.4,121.2z"/>
	</g>
	<g>
		
			<linearGradient id="SVGID_7_" gradientUnits="userSpaceOnUse" x1="-3.7841" y1="1.4487" x2="-3.5589" y2="1.4487" gradientTransform="matrix(0 42.0859 -42.0859 0 139.0871 288.1168)">
			<stop  offset="0" style="stop-color:#FFFFFF"/>
			<stop  offset="0.15" style="stop-color:#FFFFFF"/>
			<stop  offset="1" style="stop-color:#00ADEF"/>
		</linearGradient>
		<path class="st10" d="M84.5,121.6c-2,0.1-12.3,0.5-14.2,0.5c0.8,1.5,1.6,3,2.4,4.5c1-0.1,8-0.6,9-0.7l-1.5,11.7
			c-1.4,1-2.7,2-4.1,3l1.3-10.1c-1.5,0.1-3,0.3-4.4,0.4l-3.2,22.7c1.5-0.4,3.1-0.7,4.6-1c0.3-2.3,0.6-4.5,0.9-6.8
			c2.2-1.7,4.5-3.4,6.7-5c1.3-1,2.6-1.9,2.8-3.6c0.5-4.6,1.1-9.1,1.6-13.7C86.6,122.5,85.8,121.6,84.5,121.6L84.5,121.6"/>
	</g>
</g>
</svg>
