<?xml version="1.0" encoding="utf-8"?>
<!-- Generator: Adobe Illustrator 25.1.0, SVG Export Plug-In . SVG Version: 6.00 Build 0)  -->
<svg version="1.1" id="Layer_1" xmlns="http://www.w3.org/2000/svg" xmlns:xlink="http://www.w3.org/1999/xlink" x="0px" y="0px"
	 viewBox="0 0 250 250" style="enable-background:new 0 0 250 250;" xml:space="preserve">
<style type="text/css">
	.st0{fill:none;}
	.st1{clip-path:url(#SVGID_2_);}
	.st2{fill:#DEDDDE;}
	.st3{fill:#F25C19;}
	.st4{fill:#3948A4;}
	.st5{fill:url(#SVGID_3_);}
	.st6{fill:url(#SVGID_4_);}
	.st7{fill:url(#SVGID_5_);}
	.st8{fill:url(#SVGID_6_);}
	.st9{fill:url(#SVGID_7_);}
	.st10{fill:url(#SVGID_8_);}
	.st11{fill:url(#SVGID_9_);}
</style>
<g id="레이어_1">
	<rect x="8" y="8" class="st0" width="234" height="234"/>
</g>
<g>
	<g>
		<defs>
			<rect id="SVGID_1_" x="8" y="59.8" width="234" height="130.3"/>
		</defs>
		<clipPath id="SVGID_2_">
			<use xlink:href="#SVGID_1_"  style="overflow:visible;"/>
		</clipPath>
		<g transform="matrix(1.12827 0 0 -1.12827 -58.03 437.807)" class="st1">
			<g>
				<path class="st2" d="M254.1,299.7c6.7,8.3,10.6,17.5,11.2,26.6l0.6,7.9c0,0.5-0.6,0.8-1,0.4l-4.7-6.4
					c-9.8-13.4-32.5-26.9-59.4-35.3c-1.8-0.6-3.6-1.1-5.3-1.6c-0.7-0.2-1.5-0.4-2.2-0.6c-7.7-1.9-18.8-3.2-31.1-3.2
					c-12.3,0-23.4,1.2-31.1,3.2c-0.7,0.2-1.5,0.4-2.2,0.6c-1.8,0.5-3.6,1-5.3,1.6c-26.8,8.4-49.6,22-59.4,35.3l-4.7,6.4
					c-0.3,0.4-1,0.2-1-0.4l0.6-7.9c0.7-9.2,4.6-18.4,11.2-26.6c2.1-2.5,4.7-4.7,7.6-6.3c-1.9,0.7-3.8,1.4-5.7,2.2l-3.6,1.5
					c-0.3,0.1-0.6,0-0.7-0.3c0-0.1,0-0.2,0-0.3l0.5-3.9c0.8-6.2,6.2-12.2,15.5-17.3l-4.2,0.6c-0.2,0-0.4-0.1-0.4-0.3
					c0-0.1,0-0.2,0-0.2l1.9-4c2-4.3,6.6-7.6,13.1-9.9l-1.8-0.3c-0.2,0-0.4-0.2-0.3-0.5c0-0.1,0-0.1,0.1-0.2l2.8-3.2
					c2-2.3,4.9-3.9,8.6-4.8l-1.6-10.7c0-0.2,0.1-0.4,0.3-0.5c0,0,0.1,0,0.1,0l8.9,2.1c1.4,0.3,2.8,0.7,4.3,1l4.6,1l1,7.5
					c0.1-0.1,0.2-0.3,0.4-0.4c1.5-1.5,3.6-2.3,5.9-2.3c0.4,0,0.9,0,1.3,0.1c2.9,0.4,5.9,0.8,8.8,1.1c0,0,4.3,0.4,4.5,0.4
					c1.6,0.1,3.3,0.3,4.9,0.4l2.7,0.2c1.1,0.1,2.1,0.1,3.2,0.1l1.8,0.1c1.4,0,2.9,0.1,4.3,0.1l3.1,0l3.1,0c1.4,0,2.9,0,4.3-0.1
					c0,0,3.8-0.1,4-0.2c2.4-0.1,4.8-0.3,7.1-0.4c1.2-0.1,2.4,0,3.5,0.4c1.1-0.5,2.2-0.9,3.4-1c2.8-0.3,5.6-0.6,8.4-1
					c0.2,0,0.4,0,0.5-0.1c1.4-2.4,3.8-4.1,6.7-4.7c3.1-0.6,6.2-1.3,9.3-2l8.9-2.1c0.2-0.1,0.4,0.1,0.5,0.3c0,0,0,0.1,0,0.1
					l-1.5,10.6c3.8,0.9,6.8,2.6,8.8,4.9l2.8,3.2c0.1,0.2,0.1,0.4,0,0.6c-0.1,0-0.1,0.1-0.2,0.1l-1.8,0.3c6.6,2.2,11.1,5.6,13.1,9.9
					l1.9,4c0.1,0.2,0,0.4-0.2,0.5c-0.1,0-0.1,0-0.2,0l-4.2-0.6c9.3,5.1,14.6,11.1,15.5,17.3l0.5,3.9c0,0.3-0.2,0.6-0.5,0.6
					c-0.1,0-0.2,0-0.3,0l-3.6-1.5c-1.9-0.8-3.8-1.5-5.7-2.2C249.4,295,252,297.1,254.1,299.7"/>
			</g>
			<g>
				<path class="st2" d="M162.2,313.7c-26,0-47.1-21.1-47.1-47.1c0-26,21.1-47.1,47.1-47.1s47.1,21.1,47.1,47.1
					C209.3,292.6,188.2,313.7,162.2,313.7"/>
			</g>
			<g>
				<path class="st3" d="M162.2,298.4c17.5,0,31.8-14.3,31.8-31.8s-14.3-31.8-31.8-31.8c-17.5,0-31.8,14.3-31.8,31.8
					S144.7,298.4,162.2,298.4"/>
			</g>
			<g>
				<path class="st4" d="M141.7,289.4c-2-4.7-2.2-10.2-1.5-14.7c0.8-5.7,3-10.1,8-16.5c4.4-5.7,6.5-9.5,6.7-12.6
					c-12,2.8-21.4,12.4-23.2,24C132.4,277.4,136.1,284.4,141.7,289.4 M192.8,269.5c-1.7-11.6-11.2-21.1-23.2-24
					c0.2,3.1,2.3,6.9,6.7,12.6c5,6.4,7.2,10.9,8,16.5c0.7,4.5,0.4,10-1.5,14.7C188.3,284.4,192,277.4,192.8,269.5 M177.5,240
					c-1.5-0.3-3.4-0.1-5,0.6c-1,0.5-2.3,1.3-2.8,2.9c10.2,2.2,18.6,8.9,22.7,17.8C190.8,252.1,185.2,244.4,177.5,240 M156.7,243.1
					c1.5-0.2,3-0.4,4.5-0.4v-6.7c-3.5,0.1-7,0.8-10.3,2.1c0.7,0.1,1.3,0.4,1.9,0.6C154.9,239.6,156.2,241.2,156.7,243.1
					 M171.7,238.7c0.6-0.3,1.2-0.5,1.9-0.6c-3.3-1.3-6.8-2-10.3-2.1v6.7c1.5,0,3,0.2,4.5,0.4C168.2,241.2,169.6,239.6,171.7,238.7
					 M178.3,292.7c4.2-4.6,4.9-12.1,4-17.8c-0.8-5.3-2.8-9.4-7.6-15.6c-5-6.3-7.1-10.6-7.2-14.3c-1.4-0.2-2.8-0.4-4.3-0.4v52.6
					C168.6,297.1,173.7,295.5,178.3,292.7 M146.2,292.7c4.5,2.8,9.7,4.3,15,4.5v-52.6c-1.4,0-2.9,0.2-4.3,0.4c0,3.7-2.2,8-7.2,14.3
					c-4.8,6.2-6.8,10.2-7.6,15.6C141.3,280.6,142,288.1,146.2,292.7 M132,261.2c4.1-8.9,12.5-15.6,22.7-17.8
					c-0.5-1.5-1.7-2.4-2.8-2.9c-1.6-0.7-3.5-0.9-5-0.6C139.2,244.4,133.6,252.1,132,261.2 M162.2,233.2c18.4,0,33.4,15,33.4,33.4
					c0,18.4-15,33.4-33.4,33.4c-18.4,0-33.4-15-33.4-33.4C128.9,248.2,143.8,233.2,162.2,233.2"/>
			</g>
			<g>
				<path class="st4" d="M148.2,303.8l2.6,1l-0.1,0.2l0,0l-0.8,2.1l0,0c-0.2,0.4-0.6,0.6-1,0.4l0,0l-5.8-2.3l0.4-1.1l5.3,2.1
					l0.3-0.8l-5.4-2.2l0.4-1.1l2.6,1.1l0.3-0.8l-2.6-1.1l0.4-1.1l5.4,2.2l0.5-1.1l1.2,0.5l-0.6,1.5l0,0c-0.2,0.4-0.6,0.6-0.9,0.4
					l0,0l0,0c0,0,0,0,0,0l0,0l-1.9-0.8L148.2,303.8z"/>
			</g>
			<g>
				<path class="st4" d="M137.3,297.6c-0.4-0.3-0.9-0.2-1.2,0.1s-0.2,0.9,0.1,1.2c0,0,0,0,0,0c0.4,0.3,0.9,0.2,1.1-0.2
					C137.7,298.4,137.6,297.9,137.3,297.6 M139.6,302.4L139.6,302.4C139.6,302.4,139.6,302.4,139.6,302.4L139.6,302.4L139.6,302.4
					c-0.3,0.3-0.7,0.4-1,0.2l0,0l0,0l0,0l0,0l-4-3.1l-0.4,0.5l-1-0.8l0.8-1l0,0l0.3-0.4l0.5,0.4c0-0.4,0.1-0.9,0.4-1.2
					c0.6-0.8,1.9-1,2.8-0.3c0.9,0.7,1.1,2,0.5,2.8c-0.3,0.3-0.7,0.6-1.1,0.7l1.4,1.1l2.5-3.3l-3.6-2.8l-0.5,0.7l-1-0.8l0.7-1l0,0
					c0,0,0,0,0,0l0,0h0c0.3-0.3,0.8-0.4,1.1-0.1l0,0l5,3.8l-0.5,0.7l0,0l-1.7,2.1l0.8,0.6l-0.7,0.9l-0.8-0.6L139.6,302.4z"/>
			</g>
			<g>
				<path class="st4" d="M176.4,301.3c-0.6,0.2-0.8,0.9-0.6,1.4c0,0,0,0,0,0c0.2,0.6,0.9,0.8,1.4,0.6c0.6-0.2,0.8-0.9,0.6-1.4
					C177.6,301.3,177,301.1,176.4,301.3 M181.6,304.5L181.6,304.5c0.1,0.4,0,0.8-0.4,0.9l0,0l-5.8,2.4l-0.4-1.1l5.3-2.2l-0.5-1.1
					l-1.8,0.7l0.3,0.7l-1.3,0.6l-0.3-0.7l-2.4,1l-0.4-1l1.5-0.6c-0.4-0.2-0.7-0.5-0.8-0.9c-0.4-1.1,0.2-2.4,1.5-2.9s2.7-0.1,3.2,1
					c0.2,0.4,0.2,0.8,0,1.2l1.4-0.6l0.4,1l0,0L181.6,304.5z"/>
			</g>
			<g>
				<path class="st4" d="M157.7,308.6L157.7,308.6L157.7,308.6c-0.1,0.4-0.4,0.7-0.8,0.7v0l-3.3-0.3l0.1-1.1l2.8,0.2l0.1-1.3
					c0.1-1.6-0.8-2.4-2.1-2.5l-0.6-0.1l0.1-1.1l0.7,0.1c1.8,0.2,3.4,1.5,3.2,3.8L157.7,308.6L157.7,308.6L157.7,308.6"/>
			</g>
			<g>
				<path class="st4" d="M159.6,309.5c-0.4-0.1-0.7-0.4-0.7-0.8h0l0.5-5.6l1.3,0.1l-0.4,5.2l1.1,0.1l-0.1,1.1L159.6,309.5
					L159.6,309.5z"/>
			</g>
			<g>
				<path class="st4" d="M164.1,303.6l7.1-0.9l0.2,1.1l-7.1,0.9L164.1,303.6z"/>
			</g>
			<g>
				<path class="st4" d="M168.2,307.4c0.5-0.6,1.4-1.1,2.5-1.3l0.8-0.1l0.2,1.1l-0.9,0.1c-1.1,0.2-1.8,0.8-1.7,1.6l0.1,0.4l-0.1,0
					l-1.2,0.2l-0.1,0l-0.1-0.4c-0.1-0.8-1-1.2-2.1-1.1l-0.9,0.1l-0.2-1.1l0.8-0.1C166.6,306.7,167.6,306.9,168.2,307.4"/>
			</g>
			<g>
				<path class="st4" d="M186.1,296.9c-1,1.1-1,2.4,0.3,4.2l0.3,0.4c0,0,0,0,0,0.1l0.2,0.3l0,0l0,0l-0.5,0.4l-0.5,0.4l0,0l0,0
					l-0.2-0.3l0-0.1l-0.3-0.4c-1.2-1.7-2.5-2.2-3.8-1.6l-0.6-1.1c1.1-0.6,2.2-0.6,3.3-0.1c-0.2-1.3,0.3-2.3,1.1-3.1l0,0l0.2-0.2
					l-0.4-0.5l1-0.7l3,4.3l0.9-0.6l0.7,0.9l-1.3,0.9l0,0c-0.3,0.2-0.8,0.2-1-0.2l0,0l-2.2-3.1L186.1,296.9z"/>
			</g>
			<g>
				<path class="st4" d="M129.6,244.3l0.5-0.7c0.4-0.5,0.7-0.6,1.1-0.3c0.2,0.2,0.3,0.3,0.3,0.5c0,0.2-0.1,0.4-0.3,0.7l-0.5,0.7
					L129.6,244.3z M128.9,243.8l-1.3-0.9l0.6-0.8c0.2-0.2,0.3-0.4,0.5-0.4c0.2,0,0.4,0,0.6,0.1c0.4,0.3,0.5,0.7,0.2,1.1L128.9,243.8
					z M126.1,243.2l4.8,3.5l1.2-1.6c0.4-0.6,0.6-1.1,0.6-1.5c0-0.4-0.2-0.8-0.7-1.1c-0.2-0.2-0.5-0.3-0.7-0.3
					c-0.3,0-0.5,0.1-0.7,0.2c0.1-0.3,0.1-0.6,0-0.8c-0.1-0.3-0.3-0.5-0.5-0.7c-0.5-0.3-0.9-0.4-1.4-0.3c-0.4,0.1-0.9,0.4-1.2,0.9
					L126.1,243.2z"/>
			</g>
			<g>
				<path class="st4" d="M132.4,238.8l1-1l1.1,2.1L132.4,238.8z M132.9,236.9l-1.4,1.5l-1.1-0.6l-0.9,0.9l5.7,2.6l0.7-0.8l-2.8-5.7
					l-0.9,0.9L132.9,236.9z"/>
			</g>
			<g>
				<path class="st4" d="M137.6,233.3c0.1,0.2,0.2,0.4,0.1,0.6c0,0.2-0.2,0.5-0.4,0.8c-0.2,0.4-0.4,0.7-0.5,0.9
					c-0.3,0.7-0.2,1.3,0.1,1.8c0.2,0.2,0.4,0.4,0.7,0.5c0.3,0.1,0.6,0.1,0.9,0c0.4-0.1,0.7-0.3,1-0.5c0.3-0.2,0.6-0.5,0.7-0.8
					c0.2-0.3,0.2-0.6,0.2-1c0-0.3-0.2-0.7-0.4-0.9l-0.9,0.7c0.2,0.2,0.2,0.4,0.2,0.7c0,0.2-0.2,0.4-0.4,0.6
					c-0.2,0.2-0.4,0.3-0.6,0.3c-0.2,0-0.4-0.1-0.5-0.3c-0.1-0.2-0.1-0.3-0.1-0.6c0.1-0.2,0.2-0.5,0.4-0.8c0.4-0.6,0.6-1.1,0.7-1.5
					c0-0.4-0.1-0.8-0.4-1.2c-0.3-0.4-0.7-0.6-1.2-0.6c-0.5,0-1,0.2-1.4,0.6c-0.3,0.3-0.6,0.6-0.8,0.9c-0.2,0.4-0.3,0.7-0.2,1
					c0,0.3,0.2,0.7,0.4,1l0.9-0.7c-0.4-0.5-0.3-1,0.3-1.5c0.2-0.2,0.4-0.3,0.6-0.3C137.3,233.1,137.5,233.2,137.6,233.3"/>
			</g>
			<g>
				<path class="st4" d="M142,231.5l-0.9-0.3l-0.8-1.5l-1,0.6l2.9,5.2l1-0.6l-1.3-2.3l0.8,0.4l2.2,1l1.2-0.7l-3-1.3l0.2-3.9
					l-1.2,0.7L142,231.5z"/>
			</g>
			<g>
				<path class="st4" d="M149.1,228.4l-2.1,0.8l-0.6-1.5l2.4-0.9l-0.4-0.9l-3.5,1.4l2.1,5.5l3.5-1.4l-0.4-0.9l-2.4,0.9l-0.5-1.3
					l2.1-0.8L149.1,228.4z"/>
			</g>
			<g>
				<path class="st4" d="M156,229.1l-1.7,0.4l-1.1-4.8l-1.1,0.3l1.1,4.8l-1.7,0.4l0.2,1l4.5-1L156,229.1z"/>
			</g>
			<g>
				<path class="st4" d="M158.4,227.4l0.9-0.1c0.6,0,0.9,0.2,0.9,0.7c0,0.3,0,0.5-0.2,0.6c-0.1,0.1-0.4,0.2-0.7,0.2l-0.8,0.1
					L158.4,227.4z M158.3,226.5l-0.1-1.6l1-0.1c0.3,0,0.5,0,0.7,0.2c0.2,0.1,0.3,0.3,0.3,0.6c0,0.5-0.2,0.8-0.7,0.9L158.3,226.5z
					 M157,224l0.4,5.9l2-0.1c0.7,0,1.2-0.2,1.5-0.5c0.3-0.3,0.5-0.7,0.4-1.2c0-0.3-0.1-0.5-0.3-0.8c-0.2-0.2-0.4-0.4-0.6-0.4
					c0.3-0.1,0.5-0.3,0.6-0.5c0.1-0.2,0.2-0.5,0.2-0.9c0-0.6-0.2-1-0.6-1.3c-0.4-0.3-0.9-0.4-1.5-0.3L157,224z"/>
			</g>
			<g>
				<path class="st4" d="M164.3,226l1.4,0.1l-0.9,2.2L164.3,226z M166.1,225.1l-2-0.1l-0.3-1.2l-1.2-0.1l1.7,6.1l1.1,0.1l2.5-5.8
					l-1.2-0.1L166.1,225.1z"/>
			</g>
			<g>
				<path class="st4" d="M170.5,225.5l2.4,0.5l0.2-1l-3.6-0.8l-1.2,5.8l1.1,0.2L170.5,225.5z"/>
			</g>
			<g>
				<path class="st4" d="M175.6,226.9l2.3,0.8l0.3-0.9l-3.4-1.2l-2,5.6l1.1,0.4L175.6,226.9z"/>
			</g>
			<g>
				<path class="st4" d="M185.1,232.7c0.3-0.6,0.4-1.1,0.2-1.6c-0.2-0.5-0.5-1-1.1-1.3c-0.6-0.4-1.2-0.4-1.9-0.2
					c-0.6,0.2-1.2,0.7-1.6,1.5l-0.2,0.3c-0.3,0.5-0.5,1-0.5,1.4c-0.1,0.5,0,0.9,0.2,1.3c0.2,0.4,0.5,0.7,0.9,0.9
					c0.6,0.3,1.1,0.4,1.6,0.3c0.5-0.1,1-0.4,1.4-1l-1-0.6c-0.2,0.3-0.5,0.5-0.7,0.6c-0.2,0.1-0.5,0-0.8-0.2
					c-0.3-0.2-0.5-0.5-0.5-0.8c0-0.4,0.1-0.8,0.4-1.3l0.2-0.4c0.3-0.6,0.6-0.9,1-1.1c0.3-0.2,0.6-0.1,1,0.1c0.3,0.2,0.5,0.4,0.6,0.6
					c0.1,0.2,0,0.5-0.1,0.8L185.1,232.7z"/>
			</g>
			<g>
				<path class="st4" d="M188.1,233.7l1.9,1.5l0.6-0.8l-2.8-2.3l-3.7,4.6l0.9,0.7L188.1,233.7z"/>
			</g>
			<g>
				<path class="st4" d="M190.4,242.7l2.8-2.7c0.5-0.5,0.7-0.9,0.7-1.5c0-0.5-0.2-1.1-0.7-1.5c-0.5-0.5-1-0.7-1.5-0.8
					c-0.5,0-1,0.2-1.5,0.6l-2.9,2.7l0.8,0.8l2.8-2.7c0.3-0.3,0.5-0.4,0.8-0.4c0.3,0,0.5,0.1,0.7,0.3c0.5,0.5,0.4,1-0.1,1.5l-2.9,2.7
					L190.4,242.7z"/>
			</g>
			<g>
				<path class="st4" d="M194.6,242.7l1.3-0.9l0.6,0.8c0.2,0.2,0.2,0.4,0.2,0.6c0,0.2-0.1,0.4-0.3,0.5c-0.4,0.3-0.8,0.3-1.1-0.2
					L194.6,242.7z M193.9,243.2l0.5,0.7c0.3,0.5,0.3,0.9-0.1,1.1c-0.2,0.2-0.4,0.2-0.6,0.2s-0.4-0.2-0.6-0.5l-0.5-0.7L193.9,243.2z
					 M196.1,240.3l-4.9,3.4l1.1,1.6c0.4,0.6,0.8,0.9,1.2,1c0.4,0.1,0.9,0,1.3-0.3c0.2-0.2,0.4-0.4,0.5-0.6c0.1-0.2,0.1-0.5,0.1-0.8
					c0.2,0.2,0.5,0.3,0.8,0.3c0.3,0,0.6-0.1,0.8-0.3c0.5-0.3,0.7-0.7,0.8-1.2c0-0.5-0.1-0.9-0.5-1.5L196.1,240.3z"/>
			</g>
			<g>
				<path class="st4" d="M253,292.9c-9.4-3.8-20-7-31.4-9.3c-0.7-0.1-1.3-0.3-2-0.4l-7.5,0.3l-2.3,0.1c12.8,3.1,24.7,7.1,34.1,11.7
					c3.1,1.5,5.8,3.6,7.9,6.2c6.3,7.8,9.8,16.2,10.6,24.1c0,0.3-0.3,0.4-0.5,0.2c-10.1-13.1-32.4-26.9-60.2-35.6
					c-3.8-1.2-7.6-2.3-11.5-3.2c-0.1,0-0.2,0-0.3-0.1c-4.9-1.1-10.8-2-17.5-2.5l0,0c-1.3-0.1-2.5-0.6-3.4-1.4l-0.3,1.4h-13.3
					l-0.3-1.4c-1,0.8-2.2,1.3-3.5,1.4c-6.6,0.5-12.5,1.4-17.4,2.5c-0.1,0-0.2,0-0.3,0.1c-3.9,1-7.7,2-11.5,3.2
					c-27.8,8.7-50.2,22.5-60.2,35.6c-0.2,0.2-0.5,0.1-0.5-0.2c0.8-7.9,4.3-16.4,10.6-24.1c2.1-2.6,4.8-4.7,7.9-6.2
					c9.4-4.6,21.3-8.6,34.1-11.7c-1.1,0-2.4-0.1-3.8-0.2l-6-0.2c-0.7,0.1-1.3,0.2-2,0.4c-11.4,2.3-22,5.6-31.4,9.3
					c-0.1,0-0.1,0-0.2-0.1c0,0,0,0,0-0.1c0.9-5.4,6-10.6,14.2-15.1c2.3-1.2,4.7-2.1,7.3-2.5c2.5-0.4,5.1-0.7,7.8-1
					c3.1-0.3,6.1-0.5,9-0.6l0.1-0.3l-0.2-1.6c-9.1-0.6-17.7-0.3-25.4,0.7c-0.1,0-0.1,0-0.2-0.1c0,0,0-0.1,0-0.1
					c2.1-4.1,7.2-7.2,14.2-9.1c2-0.5,4.1-0.6,6.2-0.3c1.3,0.2,2.6,0.4,3.9,0.6l-0.3-2.2c-3.4-0.9-6.9-1.6-10.4-2.2
					c-0.1,0-0.1-0.1-0.1-0.2c0,0,0,0,0-0.1c2-2.2,5.3-3.6,9.5-4.3l-1.4-9.8l5.5,1.3c1.4,0.3,2.9,0.7,4.3,1l2.6,0.6l1,7.5
					c1.1,0.8,2.2,1.7,3.3,2.5c0.1-1.2,0.7-2.3,1.5-3.2c1-1,2.4-1.5,3.9-1.5c0.3,0,0.6,0,0.9,0.1c3,0.4,6,0.8,8.9,1.1
					c0,0,4.3,0.4,4.5,0.4c1.6,0.1,3.3,0.3,4.9,0.4l2.7,0.2c1.1,0.1,2.1,0.1,3.2,0.1l1.8,0.1c1.4,0,2.9,0.1,4.3,0.1l3.1,0l3.1,0
					c1.4,0,2.9-0.1,4.3-0.1c0,0,3.9-0.1,4-0.2c2.4-0.1,4.8-0.3,7.2-0.4c0.2,0,0.3,0,0.5,0c1.1,0,2.1,0.3,3,0.8
					c1-0.8,2.2-1.2,3.5-1.4c2.8-0.3,5.7-0.7,8.5-1.1c0.3,0,0.6-0.1,0.9-0.1c0.3,0,0.7,0,1,0.1c0.7-2.3,2.8-4.3,5.4-4.8
					c3.2-0.6,6.3-1.3,9.4-2l5.5-1.3l-1.4,9.7c4.3,0.6,7.6,2,9.7,4.3c0,0.1,0,0.1,0,0.2c0,0,0,0-0.1,0c-3.6,0.6-7.1,1.4-10.6,2.3
					l-0.3,2.2c1.4-0.2,2.7-0.5,4.1-0.7c2.1-0.3,4.2-0.2,6.2,0.3c7.1,1.9,12.1,5,14.2,9.1c0,0.1,0,0.1-0.1,0.2c0,0-0.1,0-0.1,0
					c-8-1-17-1.3-26.5-0.6l0.9,1.8c3,0.1,6,0.3,9.1,0.6c2.6,0.3,5.2,0.6,7.8,1c2.5,0.4,5,1.2,7.3,2.5c8.1,4.5,13.3,9.7,14.2,15.1
					C253.2,292.8,253.2,292.9,253,292.9C253.1,292.9,253.1,292.9,253,292.9"/>
			</g>
		</g>
	</g>
	<g>
		
			<linearGradient id="SVGID_3_" gradientUnits="userSpaceOnUse" x1="-4.8972" y1="247.5426" x2="-4.6577" y2="247.5426" gradientTransform="matrix(0 32.1919 32.1919 0 -7843.8296 286.329)">
			<stop  offset="0" style="stop-color:#FFFFFF"/>
			<stop  offset="0.15" style="stop-color:#FFFFFF"/>
			<stop  offset="1" style="stop-color:#00ADEF"/>
		</linearGradient>
		<path class="st5" d="M121.2,120.8c-1.5,8.2-3,16.3-4.7,24.5c1.7,0,3.3-0.1,5-0.1c0.2-1.4,0.5-2.8,0.7-4.3c1.9,0,3.9,0,5.8,0
			c0.2,1.4,0.5,2.8,0.7,4.3c1.7,0,3.3,0.1,5,0.1c-1.7-8.1-3.2-16.3-4.7-24.5c-1.3,0-2.6,0-3.9,0
			C123.7,120.8,122.5,120.8,121.2,120.8 M125,126.3c0.7,3.5,1.4,6.9,2.2,10.4c-1.4,0-2.9,0-4.3,0C123.6,133.2,124.3,129.8,125,126.3
			"/>
	</g>
	<g>
		
			<linearGradient id="SVGID_4_" gradientUnits="userSpaceOnUse" x1="-4.9477" y1="247.6898" x2="-4.7081" y2="247.6898" gradientTransform="matrix(0 31.9066 31.9066 0 -7795.5938 286.6072)">
			<stop  offset="0" style="stop-color:#FFFFFF"/>
			<stop  offset="0.15" style="stop-color:#FFFFFF"/>
			<stop  offset="1" style="stop-color:#00ADEF"/>
		</linearGradient>
		<path class="st6" d="M112.9,120.8c-3.1,0-6.1,0.1-9.2,0.1c-1.3,0-2.4,0.9-2.5,2.1l-1.6,21.3c-0.1,1.1,1,1.9,2.4,1.8
			c1.9-0.2,3.8-0.3,5.6-0.4c0.9-0.3,1.8-0.6,2.8-0.9l0.4,0.7c1.2-0.1,2.5-0.1,3.7-0.2c0.1-4.5,0.3-9,0.4-13.6
			c-2.1,0-4.2,0.1-6.3,0.2c-0.6,1.3-1.1,2.6-1.7,3.9c0.9,0,1.9-0.1,2.8-0.1c-0.1,2-0.2,3.9-0.3,5.9c-1.4,0.1-2.9,0.2-4.3,0.2
			l1.1-17.2c1.4,0,2.8-0.1,4.2-0.1l-0.2,4.8c1.7-0.9,3.4-1.9,5.1-2.8l0.1-3.9C115.2,121.7,114.2,120.8,112.9,120.8L112.9,120.8z"/>
	</g>
	<g>
		
			<linearGradient id="SVGID_5_" gradientUnits="userSpaceOnUse" x1="-3.8377" y1="247.7195" x2="-3.5981" y2="247.7195" gradientTransform="matrix(0 41.3797 41.3797 0 -10075.5371 287.8418)">
			<stop  offset="0" style="stop-color:#FFFFFF"/>
			<stop  offset="0.15" style="stop-color:#FFFFFF"/>
			<stop  offset="1" style="stop-color:#00ADEF"/>
		</linearGradient>
		<path class="st7" d="M166.6,123.5l1.2,9.8c0.1,0.6,0.4,1,0.9,1.4c2.7,1.9,5.4,3.8,8.1,5.9l1.2,9.3c-1.2-0.2-2.5-0.5-3.7-0.7
			l-0.5-4.1c-3.3-2.3-5-3.4-5-3.3c0.4,2.9,0.7,5.9,1.1,8.8c0.1,1.2,1.4,2.4,2.8,2.6c3.6,0.7,7.2,1.5,10.8,2.3l-2.3-16.1
			c-0.1-1-0.9-1.6-1.4-2c-2.5-1.9-5-3.7-7.6-5.6c-0.2-1.9-0.5-3.8-0.7-5.8c1.2,0.1,8,0.6,9.2,0.7c0.9-1.6,1.7-3.2,2.6-4.8
			c-2.9-0.1-12.6-0.5-14.4-0.6c0,0,0,0-0.1,0C167.4,121.4,166.5,122.3,166.6,123.5"/>
	</g>
	<g>
		
			<linearGradient id="SVGID_6_" gradientUnits="userSpaceOnUse" x1="-5.083" y1="247.2995" x2="-4.8435" y2="247.2995" gradientTransform="matrix(0 31.2004 31.2004 0 -7573.9438 287.5667)">
			<stop  offset="0" style="stop-color:#FFFFFF"/>
			<stop  offset="0.15" style="stop-color:#FFFFFF"/>
			<stop  offset="1" style="stop-color:#00ADEF"/>
		</linearGradient>
		<path class="st8" d="M137.2,120.8c-1.3,0-2.3,0.9-2.3,1.9c0.1,2.7,0.2,5.4,0.3,8.1c0,0.5,0.3,0.9,0.7,1.2c2.6,1.5,5.2,3.1,7.7,4.7
			l0.3,5.1c-1.2-0.1-2.5-0.1-3.7-0.2c0-0.8-0.1-1.6-0.1-2.5c-3.2-1.7-4.8-2.6-4.8-2.5c0.1,2.3,0.2,4.5,0.2,6.8c0,1.1,1.2,2,2.6,2.1
			c2.8,0.1,5.5,0.3,8.3,0.5c1.4,0.1,2.5-0.7,2.4-1.8l-0.6-8.8c-0.1-0.8-0.8-1.4-1.2-1.7c-2.4-1.5-4.8-3-7.2-4.4l-0.2-4.4
			c1.2,0,2.3,0,3.5,0.1l0.1,1.4c1.6,1,3.1,1.9,4.7,2.9l-0.4-6.2c-0.1-1.1-1.2-2-2.5-2C142.3,120.9,139.8,120.8,137.2,120.8
			L137.2,120.8z"/>
	</g>
	<g>
		
			<linearGradient id="SVGID_7_" gradientUnits="userSpaceOnUse" x1="-4.6295" y1="247.9834" x2="-4.3899" y2="247.9834" gradientTransform="matrix(0 34.1668 34.1668 0 -8381.2031 287.0166)">
			<stop  offset="0" style="stop-color:#FFFFFF"/>
			<stop  offset="0.15" style="stop-color:#FFFFFF"/>
			<stop  offset="1" style="stop-color:#00ADEF"/>
		</linearGradient>
		<path class="st9" d="M89.4,121.2c-1.3,0-2.5,1-2.6,2.2L84.3,146c-0.1,1.2,0.9,2,2.3,1.8c3.4-0.5,6.8-0.9,10.2-1.2l0.3-4.2
			c-2.6,0.2-5.1,0.5-7.7,0.8c0.3-2.6,0.5-5.3,0.8-7.9c1.8-0.1,3.6-0.3,5.4-0.4c0.6-1.4,1.2-2.9,1.8-4.3c-2.2,0.1-4.5,0.2-6.7,0.4
			c0.2-1.8,0.4-3.7,0.6-5.5c2.4-0.1,4.9-0.2,7.3-0.3c0.1-1.4,0.2-2.8,0.3-4.2C95.7,121.1,92.6,121.1,89.4,121.2"/>
	</g>
	<g>
		
			<linearGradient id="SVGID_8_" gradientUnits="userSpaceOnUse" x1="-4.6536" y1="247.3746" x2="-4.4141" y2="247.3746" gradientTransform="matrix(0 33.9894 33.9894 0 -8249.9062 287.0166)">
			<stop  offset="0" style="stop-color:#FFFFFF"/>
			<stop  offset="0.15" style="stop-color:#FFFFFF"/>
			<stop  offset="1" style="stop-color:#00ADEF"/>
		</linearGradient>
		<path class="st10" d="M149.9,121l1.9,23.4c0.1,1.1,1.3,2.1,2.7,2.2c3.3,0.3,6.5,0.7,9.7,1.2c1.4,0.2,2.4-0.6,2.3-1.8l-2.8-24.8
			c-1.6,0-3.3-0.1-4.9-0.1l2.3,22.2c-1.4-0.2-2.8-0.3-4.2-0.5l-2-21.8C153.2,121,151.6,121,149.9,121L149.9,121z"/>
	</g>
	<g>
		
			<linearGradient id="SVGID_9_" gradientUnits="userSpaceOnUse" x1="-3.7783" y1="248.4818" x2="-3.5387" y2="248.4818" gradientTransform="matrix(0 42.0859 42.0859 0 -10382.3877 288.1168)">
			<stop  offset="0" style="stop-color:#FFFFFF"/>
			<stop  offset="0.15" style="stop-color:#FFFFFF"/>
			<stop  offset="1" style="stop-color:#00ADEF"/>
		</linearGradient>
		<path class="st11" d="M81.9,121.4c-2.1,0.1-13.1,0.5-15.1,0.6c0.8,1.6,1.7,3.2,2.6,4.8c1.1-0.1,8.5-0.7,9.5-0.7l-1.6,12.4
			c-1.5,1.1-2.9,2.1-4.3,3.2l1.4-10.7c-1.6,0.1-3.1,0.3-4.7,0.4l-3.4,24.2c1.6-0.4,3.3-0.8,4.9-1.1c0.3-2.4,0.6-4.8,1-7.2
			c2.4-1.9,4.8-3.6,7.1-5.3c1.4-1.1,2.7-2,3-3.9c0.6-4.8,1.1-9.7,1.7-14.5C84.2,122.3,83.3,121.4,81.9,121.4L81.9,121.4"/>
	</g>
</g>
</svg>
