<?xml version="1.0" encoding="utf-8"?>
<!-- Generator: Adobe Illustrator 25.1.0, SVG Export Plug-In . SVG Version: 6.00 Build 0)  -->
<svg version="1.1" id="Layer_1" xmlns="http://www.w3.org/2000/svg" xmlns:xlink="http://www.w3.org/1999/xlink" x="0px" y="0px"
	 viewBox="0 0 250 250" style="enable-background:new 0 0 250 250;" xml:space="preserve">
<style type="text/css">
	.st0{fill:none;}
	.st1{clip-path:url(#SVGID_2_);}
	.st2{fill:#223E63;}
	.st3{fill:#72A3CD;}
</style>
<g id="Layer_1_1_">
</g>
<g id="레이어_1">
	<rect x="34.8" y="34.8" class="st0" width="180.4" height="180.4"/>
	<g>
		<g>
			<g>
				<defs>
					<rect id="SVGID_1_" x="57.6" y="34.8" width="134.8" height="180.4"/>
				</defs>
				<clipPath id="SVGID_2_">
					<use xlink:href="#SVGID_1_"  style="overflow:visible;"/>
				</clipPath>
				<g class="st1">
					<path class="st2" d="M171.4,183.9c11.6-11.7,18.4-27.4,19-44l1.9-1.3l-1.8-2.6c-0.1-13-3.9-25.5-11-36.3l-4.2-6.3l-6.2,11.3
						c-0.3,0.6-0.6,1.2-1,1.9c-3.5-3.2-7.3-5.9-11.4-8.2l-1-0.5l0.2-1.3l7.8-9.6l-5.7-2.4c-0.4-0.2-0.8-0.3-1.3-0.5v-7.7l7.9-9.4
						l-5.9-2.5c-2.9-1.2-6-2.3-9.1-3.2v-1.1c0-6.6-2.5-13-7.2-17.7c-4.5-4.7-10.8-7.4-17.3-7.4h-0.2c-6.6,0-12.8,2.7-17.3,7.3
						c-4.6,4.7-7.2,11.1-7.2,17.7v1.1c-3.1,0.9-6.2,2-9.1,3.2l-5.9,2.5l7.9,9.4v7.7c-0.6,0.2-1,0.3-1.3,0.5l-5.7,2.4l7.8,9.6
						l0.2,1.3l-1,0.5c-4.1,2.3-7.9,5.1-11.4,8.2c-0.3-0.6-0.7-1.2-1-1.9l-6.2-11.3l-4.3,6.3c-7.1,10.9-10.9,23.4-11,36.4l-1.8,2.6
						l1.9,1.3c0.8,16.6,7.6,32.3,19,44c0.9,0.9,1.9,1.9,2.9,2.9l0.2,0.2c-0.8,2.2-1.9,4.5-3.2,6.6l-2.4,4l12.6,7.9l2.4-4
						c1.1-1.9,2.1-3.7,2.9-5.6c4.4,2.4,9,4.2,13.8,5.6l1.9,14h30.5l1.9-14c4.8-1.3,9.4-3.2,13.8-5.6c0.8,1.9,1.9,3.8,2.9,5.6l2.4,4
						l12.6-7.9l-2.4-4c-1.2-2.1-2.3-4.3-3.2-6.6l0.2-0.2C169.5,185.8,170.5,184.9,171.4,183.9L171.4,183.9z M163.9,159.9
						c0.1-3,0.5-6.1,1-9l0.4-0.1c0.7-0.2,4.8-1.2,9.4-2.9c-1.5,8.3-5.1,15.9-10.4,22.3C163.9,166.8,163.8,163.3,163.9,159.9z
						 M170.5,133.7c1-2.2,2.2-4.5,3.6-7.2l0.5-0.9c0.4,1.9,0.8,3.9,0.9,5.9C174,132.2,172.3,132.9,170.5,133.7z M151.1,181.1
						c-2.2,1.3-4.4,2.5-6.8,3.5l3.9-29.1l1.2-0.2c-0.2,1.4-0.2,2.8-0.2,4.2C148.8,166.6,149.5,174,151.1,181.1z M150.3,139.6
						l3.4-25.5c2.5,1.8,4.9,3.8,7.1,5.9c-3.3,6.1-6,12.5-8.2,19.1L150.3,139.6z M129.2,188.2c-2.8,0.2-5.5,0.2-8.3,0l-0.5-4.8
						l2.3-26.1c0.7,0,1.5,0,2.3,0s1.6,0,2.3,0l2.3,26.1L129.2,188.2L129.2,188.2z M125,142.5h-1.2l1.2-14.9l1.2,14.9H125z
						 M96.3,114.1l3.4,25.5c-0.8-0.2-1.5-0.4-2.3-0.5c-2.1-6.6-4.9-13-8.2-19C91.5,117.8,93.8,115.8,96.3,114.1z M100.9,159.4
						c-0.1-1.4-0.2-2.9-0.2-4.2l1.2,0.2l3.9,29.1c-2.3-1-4.6-2.1-6.8-3.5C100.5,174,101.2,166.6,100.9,159.4L100.9,159.4z
						 M74.4,131.5c0.2-2,0.5-4,0.9-5.9l0.5,0.9c1.2,2.4,2.5,4.8,3.6,7.2C77.8,133,76.1,132.3,74.4,131.5L74.4,131.5z M84.8,150.8
						l0.4,0.1c0.5,3,0.8,6,1,9c0.2,3.4,0,6.9-0.4,10.3c-5.4-6.4-8.9-14.1-10.4-22.3C80,149.5,84.1,150.7,84.8,150.8z"/>
					<path class="st3" d="M169.9,182.4c11.4-11.6,18-27.2,18.4-43.6l1-0.7l-0.9-1.4c0-12.7-3.7-25.1-10.6-35.8l-2.2-3.3l-4.4,8
						c-0.8,1.5-1.6,2.9-2.4,4.3c-3.9-3.8-8.3-7.1-13-9.8l-2.3-1.3l0.5-3.5l6.2-7.7l-2.9-1.2c-0.4-0.2-1.4-0.5-2.7-0.8V75.3l6.5-7.7
						l-3-1.2c-3.4-1.5-6.9-2.6-10.5-3.6v-2.8c0-6-2.3-11.9-6.6-16.1c-4.2-4.2-9.9-6.7-15.9-6.7h-0.3c-2.9,0-5.9,0.6-8.6,1.7
						s-5.2,2.9-7.2,4.9s-3.7,4.6-4.9,7.4c-1.1,2.8-1.7,5.7-1.7,8.7v2.8c-3.5,1-7.1,2.2-10.5,3.6l-3,1.2l6.5,7.7v10.3
						c-1.2,0.4-2.2,0.6-2.7,0.8l-2.9,1.2l6.2,7.7l0.5,3.5l-2.3,1.3c-4.7,2.7-9.1,5.9-13,9.8c-0.8-1.5-1.6-2.9-2.4-4.3l-4.4-8
						l-2.2,3.3c-7,10.6-10.6,23.1-10.6,35.8l-0.9,1.4l1,0.7c0.4,16.4,7,32,18.4,43.6c0.8,0.9,1.9,1.9,2.9,2.8l1.4,1.2
						c-1.1,2.9-2.3,5.7-3.9,8.4l-1.2,2.1l8.9,5.5l1.2-2.1c1.5-2.5,2.8-5,3.8-7.6c5.2,3.2,10.9,5.5,16.8,6.9l1.8,13.6h26.6l1.8-13.6
						c5.9-1.5,11.6-3.8,16.8-6.9c1.1,2.6,2.3,5.2,3.8,7.6l1.2,2.1l8.9-5.5l-1.2-2.1c-1.5-2.7-2.9-5.5-3.9-8.4l1.3-1.2
						C168,184.1,169,183.2,169.9,182.4L169.9,182.4z M74.7,119.7l3.2,5.7c2.2,3.9,4,8,5.7,12.3c-3.9-1.3-7.7-2.9-11.4-4.9
						C72.4,128.3,73.3,123.9,74.7,119.7L74.7,119.7z M87.3,175.1c-8.3-7.9-13.2-18.2-14.8-30.6c4.2,1.6,8.4,3,12.7,4.2l1.8,0.4
						c0.8,3.6,1.2,7.2,1.3,10.9C88.5,164.9,88.1,170,87.3,175.1z M86.5,119.5c3.2-3.4,6.9-6.3,10.9-8.9l0.6-0.4l4.2,32.2
						c-2.2-0.4-4.5-0.9-6.6-1.5C93.3,132.9,89.8,125.7,86.5,119.5z M96.5,182.1c1.8-7.4,2.5-15,2.2-22.7c-0.1-2.4-0.3-4.8-0.6-7.2
						c1.9,0.4,3.8,0.8,5.7,1.2l4.6,34.5C104.1,186.6,100.1,184.6,96.5,182.1z M124.8,102.9h0.3l3.5,41.8c-1.7,0.1-2.6,0.2-3.6,0.1
						c-1.2,0-2.5,0-3.6-0.1L124.8,102.9z M111.2,131.9l3.5-19.2l1.2,31.6c-1.1-0.1-2.1-0.2-3.1-0.3L111.2,131.9L111.2,131.9z
						 M113.8,154.6l2.9,0.4l0.2,14.9L113.8,154.6L113.8,154.6z M129.5,202.4h-9l-0.2-1.3c1.5,0.1,3.2,0.2,4.7,0.2s3.2-0.1,4.7-0.2
						L129.5,202.4L129.5,202.4z M131.2,190.3c-4.1,0.5-8.2,0.5-12.3,0l-0.7-6.8l2.5-28.4c1.5,0.1,2.6,0.1,4.3,0.1s2.8-0.1,4.3-0.1
						l2.5,28.4L131.2,190.3z M133.2,169.9l0.2-14.9l2.9-0.4C136.2,154.6,133.2,169.9,133.2,169.9L133.2,169.9z M137.2,144
						c-1.1,0.2-2.1,0.2-3.1,0.3l1.2-31.6l3.5,19.2L137.2,144z M172.2,125.4l3.2-5.7c1.4,4.2,2.2,8.7,2.5,13.1
						c-3.7,1.9-7.5,3.5-11.4,4.9C168.1,133.5,170,129.4,172.2,125.4L172.2,125.4z M141.7,188l4.6-34.5c1.9-0.4,3.9-0.8,5.7-1.2
						c-0.3,2.4-0.5,4.8-0.6,7.2c-0.3,7.6,0.5,15.3,2.2,22.7C149.8,184.6,145.8,186.5,141.7,188z M154.4,141c-2.1,0.5-4.4,1-6.6,1.5
						l4.2-32.2l0.6,0.4c3.9,2.5,7.6,5.5,10.9,8.9C160.2,125.7,156.7,132.9,154.4,141z M162.8,175.1c-0.8-5-1.2-10.1-1.1-15.3
						c0.2-3.6,0.6-7.2,1.3-10.9l1.8-0.4c4.3-1.2,8.6-2.5,12.7-4.2C175.9,156.8,171,167.1,162.8,175.1L162.8,175.1z"/>
					<path class="st2" d="M185.9,136.7c0-12.3-3.5-24.3-10.3-34.5l-2.5,4.5c-1.1,2-2.2,4-3.3,5.9l-0.6,1.2
						c-4.2-4.6-9.3-8.6-14.6-11.6l-0.8,6.3c4.6,2.9,8.8,6.5,12.5,10.6c-4,7.3-7.8,15-10.2,23.7c-3.5,0.9-7.4,1.8-11.3,2.4l6.8-51
						l4.6-5.7c-1.2-0.5-8.9-2.5-14.1-3.7l0.8-13.3c1.2,0.3,2.3,0.6,3.5,0.9v9.1c1.9,0.5,3.8,1.1,5.6,1.6v-8.8l4.9-5.9
						c-4.4-1.9-8.9-3.3-13.5-4.3v-5c-0.1-4.9-2.1-9.6-5.5-13.1c-3.4-3.4-8-5.3-12.9-5.3s-9.5,1.9-13,5.4c-3.5,3.5-5.4,8.2-5.5,13.1
						v5c-4.6,1.1-9.2,2.5-13.6,4.4l4.9,5.9v8.9c1.9-0.6,3.7-1.2,5.6-1.6v-9.2c1.2-0.3,2.3-0.6,3.4-0.9l0.8,13.3
						c-5.2,1.2-12.9,3.3-14,3.8l4.6,5.7l6.9,51c-3.8-0.6-7.6-1.5-11.3-2.4c-2.4-8.7-6.2-16.4-10.2-23.7c3.6-4.1,7.9-7.6,12.5-10.6
						l-0.8-6.3c-5,2.9-9.6,6.3-13.6,10.4c-0.4,0.4-0.8,0.8-1.2,1.2l-0.6-1.2c-1.1-1.9-2.2-3.9-3.3-5.9l-2.5-4.5
						c-6.7,10.3-10.3,22.3-10.2,34.5v0.6c0.2,16.3,6.6,31.8,17.8,43.2c0.8,0.9,1.8,1.8,2.8,2.6l1.8-5.8c-10.2-9.5-15.6-22-16.6-36.9
						c5.2,2.3,10.5,4.2,15.9,5.6c-0.4-1.7-1.3-4.6-1.7-5.9c-4.9-1.6-9.7-3.6-14.3-6.1c0.3-6.9,1.9-13.8,4.6-20.1
						c0.3,0.5,0.6,1,0.8,1.5c0.5,1,1.1,1.9,1.6,2.9l3,5.5c5.7,10.7,10.4,21.7,10.9,35.8c0.5,13.3-2.6,26.8-8.3,36.2l4.8,3
						c1.9-3.2,3.5-6.5,4.7-9.9c6,4,12.7,6.9,19.9,8.5l1.7,13.1h22.7l1.7-13.1c7.1-1.5,13.8-4.5,19.9-8.5c1.2,3.5,2.8,6.8,4.6,9.9
						l4.8-3c-5.6-9.4-8.7-23-8.3-36.2c0.5-14,5.2-25,10.9-35.8l3-5.5c0.5-0.9,1.1-1.9,1.6-2.9c0.3-0.5,0.6-1,0.8-1.5
						c2.8,6.3,4.3,13.2,4.6,20.1c-4.5,2.4-9.3,4.5-14.3,6.1c-0.4,1.2-1.3,4.2-1.7,5.9c5.5-1.5,10.8-3.3,15.9-5.6
						c-1,14.9-6.4,27.4-16.6,36.9l1.8,5.8c0.9-0.8,1.9-1.7,2.8-2.6c11.3-11.4,17.7-27,17.8-43.2C185.8,137.2,185.9,137,185.9,136.7
						L185.9,136.7z M139.1,84.2c-0.5-0.1-0.9-0.2-1.2-0.2c-4.1-0.8-8.3-1.2-12.5-1.3l0.3-13.3c4.4,0.1,8.8,0.5,13.1,1.3L139.1,84.2
						L139.1,84.2z M138.6,59.3v3.9c-3.3-3.1-5.3-7.3-5.7-11.9c1.7,0.8,3.4,1.8,4.9,3C138.3,55.9,138.6,57.6,138.6,59.3z M132.9,48
						c1.7,1.2,3.2,2.9,4.1,4.7c-1.3-0.9-2.7-1.7-4.2-2.3C132.8,49.6,132.9,48.7,132.9,48z M126.2,46.8c0-0.5,0.1-0.9,0.2-1.3
						c1.6,0.2,3.2,0.6,4.7,1.4c0,1,0,1.9,0.2,2.9c-1.7-0.5-3.4-0.8-5.1-0.8C126.2,48.9,126.2,46.8,126.2,46.8z M131.4,50.8
						c0.6,4.5,2.7,8.9,5.9,12.2c-3.8-0.5-7.6-0.8-11.4-0.9l0.3-12.3C127.9,49.8,129.7,50.2,131.4,50.8z M118.9,46.9
						c1.5-0.8,3.1-1.2,4.7-1.4c0.2,0.4,0.2,0.8,0.2,1.3l0.1,2.2c-1.8,0.2-3.5,0.6-5.2,1.3C118.8,49.1,118.9,48,118.9,46.9z
						 M117.1,48c0.1,1,0.1,2,0,3c-1.8,0.9-3.4,2.1-4.9,3.5C113.2,51.9,114.9,49.6,117.1,48L117.1,48z M111.7,56.1
						c1.5-1.6,3.3-2.9,5.3-4c-0.5,4.2-2.5,8.2-5.6,11.1v-3.9C111.4,58.2,111.5,57.1,111.7,56.1z M118.5,51.3
						c1.7-0.8,3.5-1.2,5.3-1.4l0.3,12.2c-3.8,0-7.6,0.3-11.4,0.9C115.8,59.8,117.8,55.7,118.5,51.3L118.5,51.3z M111.2,70.6
						c4.3-0.8,8.7-1.2,13.1-1.3l0.3,13.3c-4.2,0-8.3,0.5-12.5,1.3c-0.3,0.1-0.7,0.2-1.2,0.2L111.2,70.6L111.2,70.6z M103.9,92.5
						c1.5-0.4,2.9-0.8,4.5-1.2l1.9,28.4l0.6-28.8c4.6-0.9,9.3-1.4,14-1.5l0.2,9.9l0.2-9.9c4.7,0,9.4,0.5,14,1.4l0.6,28.8l1.9-28.3
						c1.5,0.4,2.9,0.7,4.5,1.2l-7.1,53.7c-4.6,0.6-9.3,0.8-14,0.9c-4.7,0-9.3-0.3-14-0.8L103.9,92.5L103.9,92.5z M93.8,183.2
						c2-7.7,2.9-15.7,2.6-23.7c-0.2-3.5-0.5-7-1.2-10.5c3.5,0.9,7.1,1.7,10.8,2.3l5.3,40C105.1,189.7,99.2,187,93.8,183.2z
						 M131.6,204.8h-13.3l-0.7-6.4c2.5,0.3,4.9,0.4,7.3,0.4c2.5,0,4.9-0.2,7.3-0.4L131.6,204.8z M133.2,192.5
						c-2.7,0.4-5.5,0.5-8.3,0.5c-2.8,0-5.5-0.2-8.3-0.5l-5.3-40.3c5.1,0.5,10.6,0.6,13.6,0.6c3,0,8.4-0.1,13.6-0.6L133.2,192.5
						L133.2,192.5z M138.6,191.4l5.3-40c3.6-0.6,7.2-1.3,10.8-2.3c-0.6,3.5-1,6.9-1.2,10.5c-0.3,8,0.5,16,2.5,23.7
						C150.8,187,144.9,189.7,138.6,191.4C138.6,191.3,138.6,191.4,138.6,191.4L138.6,191.4z"/>
				</g>
			</g>
		</g>
	</g>
</g>
<rect x="8" y="34.8" class="st0" width="234" height="180.4"/>
</svg>
