<?xml version="1.0" encoding="utf-8"?>
<!-- Generator: Adobe Illustrator 25.1.0, SVG Export Plug-In . SVG Version: 6.00 Build 0)  -->
<svg version="1.1" xmlns="http://www.w3.org/2000/svg" xmlns:xlink="http://www.w3.org/1999/xlink" x="0px" y="0px"
	 viewBox="0 0 250 250" style="enable-background:new 0 0 250 250;" xml:space="preserve">
<style type="text/css">
	.st0{fill:#E1002A;stroke:#FFFFFF;stroke-width:82.1379;stroke-linejoin:round;}
	.st1{fill:#FFFFFF;stroke:#FFFFFF;stroke-width:82.1379;stroke-linejoin:round;}
	.st2{fill:#E1002A;}
	.st3{fill:#FFFFFF;}
	.st4{fill:url(#SVGID_1_);}
	.st5{fill:url(#SVGID_2_);}
	.st6{fill:url(#SVGID_3_);}
	.st7{fill:url(#SVGID_4_);}
	.st8{fill:url(#SVGID_5_);}
	.st9{fill:#A6A6A6;}
	.st10{fill:url(#SVGID_6_);}
	.st11{fill:#EFEFF0;}
	.st12{fill:url(#SVGID_7_);}
	.st13{fill:url(#SVGID_8_);}
	.st14{fill:url(#SVGID_9_);}
	.st15{fill:url(#SVGID_10_);}
	.st16{fill:url(#SVGID_11_);}
	.st17{fill:url(#SVGID_12_);}
	.st18{fill:url(#SVGID_13_);}
	.st19{fill:url(#SVGID_14_);}
	.st20{fill:none;}
</style>
<g id="Layer_1">
	<g>
		<path class="st0" d="M207.9,125c0,44.2-35.7,80-79.7,80c-44,0-79.7-35.8-79.7-80c0-44.2,35.7-80,79.7-80
			C172.2,45,207.9,80.8,207.9,125z"/>
		<path class="st1" d="M127.6,70.5c-30.1,0-54.5,24.4-54.5,54.5c0,30.1,24.4,54.5,54.5,54.5c30.1,0,54.5-24.4,54.5-54.5
			C182.1,94.9,157.7,70.5,127.6,70.5L127.6,70.5z"/>
		<g>
			<path class="st1" d="M78.5,83c0.4,0.4,0.7,0.8,0.9,1.2c0.2,0.5,0.2,0.9,0.1,1.4c-0.1,0.5-0.4,1-0.7,1.5c-0.1,0.1-0.2,0.3-0.4,0.5
				c-0.2,0.2-0.4,0.4-0.8,0.6c-0.4,0.3-0.8,0.5-1.2,0.7l-1.8-1.4c0.5-0.2,0.9-0.3,1.3-0.5c0.4-0.2,0.7-0.5,1-0.8
				c0.2-0.3,0.4-0.6,0.3-0.8c-0.1-0.2-0.1-0.3-0.2-0.4c-0.2-0.1-0.4-0.2-0.7-0.1c-0.3,0.1-0.6,0.2-1,0.4c-0.4,0.2-0.8,0.4-1.3,0.5
				c-0.4,0.1-0.8,0.1-1.3,0.1c-0.4-0.1-0.8-0.2-1.2-0.6c-0.4-0.3-0.7-0.7-0.9-1.1c-0.2-0.4-0.2-0.9-0.1-1.4c0.1-0.5,0.3-1,0.7-1.5
				c0.3-0.4,0.6-0.7,0.9-0.9c0.3-0.3,0.6-0.4,0.9-0.6c0.2-0.1,0.4-0.2,0.5-0.2l1.7,1.3c-0.4,0.1-0.8,0.2-1.3,0.4
				c-0.4,0.2-0.8,0.5-1.1,0.8c-0.2,0.2-0.3,0.5-0.3,0.6c0,0.2,0.1,0.3,0.3,0.5c0.1,0.1,0.3,0.2,0.5,0.1c0.2,0,0.5-0.1,0.8-0.3
				c0.6-0.3,1.2-0.5,1.6-0.6c0.4-0.1,0.9-0.2,1.3-0.1C77.7,82.5,78.1,82.7,78.5,83L78.5,83z M85.9,79.1l-4.3,4.4l-6.5-6.4l4.3-4.3
				l1.3,1.3l-2.5,2.6l1.2,1.2l2.4-2.4l1.3,1.3l-2.4,2.4l1.4,1.4l2.6-2.6L85.9,79.1L85.9,79.1z M90.9,69.4c0.5,0.7,0.8,1.4,1,2.2
				c0.2,0.8,0.1,1.6-0.2,2.3c-0.3,0.7-0.8,1.4-1.6,2c-0.8,0.6-1.6,1-2.4,1c-0.8,0.1-1.6-0.1-2.3-0.4c-0.7-0.4-1.3-0.9-1.8-1.5
				c-0.5-0.7-0.8-1.4-1-2.1c-0.2-0.8-0.1-1.5,0.2-2.3c0.3-0.8,0.8-1.5,1.6-2.1c0.6-0.5,1.2-0.8,1.8-0.9c0.6-0.2,1.2-0.2,1.8-0.1
				c0.6,0.1,1.1,0.3,1.6,0.7C90.1,68.5,90.5,68.9,90.9,69.4L90.9,69.4z M88.9,70.9c-0.2-0.3-0.4-0.5-0.7-0.7
				c-0.2-0.2-0.5-0.3-0.8-0.3c-0.3-0.1-0.6,0-0.8,0c-0.3,0.1-0.6,0.2-0.8,0.4c-0.5,0.4-0.8,0.9-0.9,1.5c0,0.6,0.2,1.1,0.6,1.7
				c0.4,0.5,0.9,0.9,1.5,1c0.6,0.1,1.1,0,1.6-0.4c0.4-0.3,0.6-0.6,0.7-0.9c0.1-0.3,0.2-0.7,0.1-1.1C89.4,71.6,89.2,71.3,88.9,70.9
				L88.9,70.9z M100.2,64.8c0.4,0.7,0.6,1.3,0.6,1.9c0,0.6-0.1,1.2-0.3,1.6c-0.2,0.5-0.5,0.9-0.9,1.3c-0.4,0.4-0.8,0.7-1.2,0.9
				c-0.6,0.3-1.3,0.5-2,0.6c-0.7,0.1-1.4-0.1-2.1-0.4c-0.7-0.3-1.3-1-1.7-1.8l-2.4-4.4l2.2-1.2l2,3.8c0.3,0.5,0.6,0.9,0.9,1.2
				c0.3,0.3,0.6,0.4,1,0.4c0.3,0,0.7,0,1-0.2c0.3-0.2,0.5-0.4,0.7-0.7c0.2-0.3,0.2-0.6,0.2-1.1c-0.1-0.4-0.2-0.9-0.5-1.4l-2-3.8
				l2.2-1.2L100.2,64.8z M109.5,65.7l-5.8,2.1l-3.1-8.5l2.3-0.8l2.4,6.5l3.5-1.3L109.5,65.7L109.5,65.7z M119.6,60.9
				c0.1,0.6,0.1,1.1-0.1,1.5c-0.2,0.5-0.5,0.8-0.9,1.1c-0.4,0.3-0.9,0.5-1.5,0.6c-0.2,0-0.4,0.1-0.6,0.1c-0.2,0-0.6,0-1,0
				c-0.5,0-0.9-0.1-1.3-0.3l-0.4-2.2c0.4,0.2,0.9,0.4,1.3,0.5c0.4,0.1,0.9,0.1,1.3,0.1c0.4-0.1,0.7-0.2,0.8-0.4
				c0.1-0.2,0.1-0.3,0.1-0.5c0-0.2-0.2-0.4-0.4-0.6c-0.2-0.1-0.6-0.3-1-0.4c-0.5-0.1-0.9-0.3-1.3-0.5c-0.4-0.2-0.7-0.4-1-0.8
				c-0.3-0.3-0.5-0.7-0.5-1.2c-0.1-0.5-0.1-0.9,0.1-1.4c0.1-0.4,0.4-0.8,0.8-1.1c0.4-0.3,0.9-0.5,1.5-0.6c0.4-0.1,0.8-0.1,1.3-0.1
				c0.4,0,0.7,0.1,1,0.2c0.3,0.1,0.5,0.1,0.6,0.2l0.4,2.1c-0.4-0.2-0.8-0.4-1.2-0.5c-0.4-0.1-0.9-0.2-1.4-0.1
				c-0.3,0.1-0.5,0.2-0.6,0.3c-0.1,0.1-0.1,0.3-0.1,0.5c0,0.2,0.1,0.3,0.3,0.4c0.2,0.1,0.4,0.2,0.8,0.3c0.7,0.2,1.2,0.4,1.6,0.6
				c0.4,0.2,0.8,0.4,1,0.7C119.3,60,119.5,60.4,119.6,60.9L119.6,60.9z M130,63l-3,0.1l-3.3-4.1l0.2,4.2l-2.5,0.1l-0.3-9.1l2.5-0.1
				l0.1,4.1l2.8-4.2l2.7-0.1l-2.9,4.4L130,63L130,63z M143.2,64.9l-3-0.5l-2.3-4.7l-0.8,4.2l-2.4-0.4l1.6-8.9l2.4,0.4l-0.7,4
				l3.6-3.5l2.6,0.5l-3.7,3.7L143.2,64.9L143.2,64.9z M152.1,68l-2.1-0.7l-2.3-6.2l-1.7,4.8l-2.3-0.8l3-8.6l2.1,0.7l2.3,6.1l1.7-4.7
				l2.3,0.8L152.1,68L152.1,68z M156,69.9l-2.2-1.1l4-8.1l2.2,1.1L156,69.9L156,69.9z M164.3,74.2c-0.2,0-0.3-0.1-0.5-0.1
				c-0.1,0-0.3-0.1-0.4-0.1c-0.2,0-0.3-0.1-0.5-0.1c-0.4-0.1-0.7-0.3-1.1-0.4c-0.4-0.2-0.7-0.4-1-0.6c-0.7-0.4-1.3-1-1.7-1.6
				c-0.4-0.7-0.6-1.4-0.6-2.2c0-0.8,0.3-1.7,0.8-2.5c0.4-0.6,0.8-1,1.3-1.5c0.5-0.4,1.1-0.7,1.7-0.8c0.5-0.1,0.9-0.1,1.3,0
				c0.4,0.1,0.8,0.2,1.1,0.3c0.3,0.1,0.7,0.3,1.1,0.6c0.6,0.4,1.1,0.7,1.4,1.1c0.3,0.3,0.7,0.8,1,1.2l-1.1,1.8
				c-0.2-0.4-0.4-0.8-0.7-1.1c-0.3-0.4-0.7-0.7-1.2-1c-0.6-0.4-1.2-0.6-1.7-0.5c-0.5,0-1,0.2-1.3,0.4c-0.4,0.3-0.6,0.6-0.9,0.9
				c-0.2,0.4-0.4,0.8-0.4,1.2c0,0.4,0,0.8,0.2,1.3c0.2,0.4,0.5,0.8,1,1c0.3,0.2,0.6,0.3,0.9,0.4l0.6-0.9l-0.9-0.6l1-1.6l2.8,1.7
				L164.3,74.2L164.3,74.2z M171.6,81.3l-1.8-1.6l2.3-2.7l-2.8-2.4l-2.3,2.7l-1.9-1.6l6-6.8l1.8,1.6l-2.2,2.5l2.8,2.4l2.2-2.5
				l1.9,1.6L171.6,81.3z M182.8,83.8l-1.9-2.3l-5.2,4.4l-1.6-1.9l5.2-4.4l-1.9-2.3l1.7-1.4l5.5,6.5L182.8,83.8L182.8,83.8z
				 M183.3,92.2c-0.5,0.3-1,0.5-1.5,0.5c-0.5,0-0.9-0.1-1.4-0.4c-0.4-0.3-0.8-0.7-1.2-1.2c-0.1-0.1-0.2-0.3-0.3-0.6
				c-0.1-0.2-0.2-0.5-0.4-0.9c-0.1-0.4-0.2-0.8-0.3-1.3l1.9-1.2c0,0.5,0,1,0.1,1.4c0.1,0.4,0.2,0.8,0.5,1.2c0.2,0.4,0.4,0.5,0.7,0.6
				c0.2,0,0.3,0,0.5-0.1c0.2-0.1,0.3-0.3,0.3-0.6c0-0.3,0-0.6-0.1-1.1c-0.1-0.5-0.1-0.9-0.1-1.4c0-0.4,0.1-0.8,0.3-1.2
				c0.2-0.4,0.5-0.7,0.9-1c0.4-0.3,0.8-0.4,1.3-0.5c0.4,0,0.9,0.1,1.3,0.3c0.4,0.2,0.8,0.6,1.2,1.2c0.2,0.4,0.4,0.8,0.6,1.1
				c0.1,0.4,0.2,0.7,0.2,1c0,0.3,0,0.5,0,0.6l-1.8,1.2c0-0.4,0-0.9,0-1.3c-0.1-0.5-0.2-0.9-0.4-1.3c-0.2-0.3-0.4-0.4-0.5-0.4
				c-0.2,0-0.3,0-0.5,0.1c-0.2,0.1-0.2,0.2-0.3,0.4c0,0.2,0,0.5,0,0.9c0.1,0.7,0.1,1.3,0.1,1.7c0,0.5-0.1,0.9-0.3,1.2
				C184,91.6,183.7,91.9,183.3,92.2L183.3,92.2z"/>
		</g>
		<g>
			<path class="st1" d="M77.1,171.9c-0.6,0.5-1.2,0.7-1.9,0.6c-0.7-0.1-1.3-0.4-1.8-1.1l-3-3.6l7-5.8l2.5,3c0.3,0.4,0.6,0.8,0.7,1.1
				c0.2,0.4,0.2,0.7,0.2,1c0,0.3-0.1,0.6-0.2,0.8c-0.1,0.3-0.3,0.5-0.5,0.7c-0.3,0.2-0.5,0.4-0.8,0.5c-0.3,0.1-0.6,0.1-0.8,0.1
				c-0.3,0-0.5-0.1-0.6-0.2c0.2,0.6,0.2,1.1,0.1,1.6C77.8,171.2,77.6,171.6,77.1,171.9L77.1,171.9z M75.6,170
				c0.6-0.5,0.6-1.1-0.1-1.9l-0.6-0.8l-1.8,1.5l0.6,0.8C74.4,170.3,75,170.5,75.6,170L75.6,170z M78.3,167.3
				c0.3-0.3,0.5-0.6,0.4-0.9c0-0.3-0.3-0.7-0.6-1.1l-0.3-0.4l-1.7,1.4l0.3,0.4c0.4,0.4,0.7,0.7,0.9,0.8
				C77.6,167.6,77.9,167.5,78.3,167.3z M83.2,181.1l-1.9-1.7l0.7-1.8l-2.6-2.4l-1.7,0.9l-1.9-1.7l8.8-4.3l2,1.8L83.2,181.1
				L83.2,181.1z M82.7,176.1l1.3-3.3l-3.1,1.6L82.7,176.1L82.7,176.1z M90.5,183c-0.3,0.5-0.7,0.8-1.2,1c-0.5,0.2-0.9,0.2-1.5,0.1
				c-0.5-0.1-1-0.3-1.5-0.7c-0.1-0.1-0.3-0.2-0.5-0.4c-0.2-0.2-0.4-0.4-0.7-0.7c-0.3-0.3-0.5-0.7-0.8-1.1l1.3-1.8
				c0.2,0.4,0.4,0.9,0.6,1.3c0.2,0.4,0.5,0.7,0.9,1c0.3,0.2,0.6,0.3,0.8,0.3c0.2,0,0.3-0.1,0.4-0.2c0.1-0.2,0.2-0.4,0.1-0.7
				c-0.1-0.3-0.2-0.6-0.5-1c-0.2-0.4-0.4-0.8-0.6-1.2c-0.1-0.4-0.2-0.8-0.2-1.2c0-0.4,0.2-0.9,0.5-1.3c0.3-0.4,0.6-0.7,1-0.9
				c0.4-0.2,0.9-0.3,1.4-0.2c0.5,0.1,1,0.3,1.5,0.7c0.4,0.3,0.7,0.5,0.9,0.8c0.3,0.3,0.5,0.6,0.6,0.8c0.1,0.2,0.2,0.4,0.3,0.5
				l-1.2,1.7c-0.1-0.4-0.3-0.8-0.5-1.2c-0.2-0.4-0.5-0.8-0.9-1c-0.3-0.2-0.5-0.3-0.7-0.2c-0.2,0-0.3,0.1-0.5,0.3
				c-0.1,0.2-0.1,0.3-0.1,0.5c0,0.2,0.2,0.5,0.3,0.8c0.3,0.6,0.6,1.2,0.7,1.6c0.2,0.4,0.2,0.8,0.2,1.2C91,182.2,90.8,182.6,90.5,183
				L90.5,183z M98.4,190.4l-2.7-1.4l-0.8-5.2l-2,3.7l-2.2-1.2l4.2-8l2.2,1.2l-1.9,3.6l4.5-2.2l2.4,1.3l-4.7,2.3L98.4,190.4z
				 M105.7,193l-5.8-2.1l3.2-8.5l5.7,2.1l-0.6,1.7l-3.4-1.3l-0.6,1.6l3.2,1.2l-0.6,1.7l-3.2-1.2l-0.7,1.8l3.5,1.3L105.7,193
				L105.7,193z M117.3,188.8l-2.9-0.7l-1.5,6.7l-2.4-0.5l1.5-6.7l-2.9-0.7l0.5-2.1l8.2,1.9L117.3,188.8z M125.6,193.9
				c-0.1,0.8-0.4,1.4-0.9,1.8c-0.5,0.4-1.2,0.6-2.1,0.5l-4.7-0.4l0.8-9l3.9,0.3c0.5,0,0.9,0.1,1.3,0.3c0.4,0.1,0.7,0.3,0.9,0.5
				c0.2,0.2,0.4,0.4,0.5,0.7c0.1,0.3,0.1,0.6,0.1,0.9c0,0.3-0.1,0.6-0.2,0.9c-0.1,0.3-0.3,0.5-0.5,0.6c-0.2,0.2-0.4,0.3-0.6,0.3
				c0.5,0.3,0.9,0.6,1.2,1C125.6,192.8,125.7,193.3,125.6,193.9L125.6,193.9z M123.2,193.6c0.1-0.8-0.4-1.2-1.4-1.3l-1-0.1l-0.2,2.3
				l1,0.1C122.6,194.7,123.1,194.3,123.2,193.6L123.2,193.6z M123.1,189.8c0-0.4-0.1-0.7-0.3-0.9c-0.3-0.2-0.6-0.3-1.2-0.3l-0.5,0
				l-0.2,2.2l0.5,0c0.6,0,1,0,1.2-0.1C122.9,190.5,123.1,190.2,123.1,189.8L123.1,189.8z M136.4,196l-2.5,0.1l-0.8-1.8l-3.5,0.2
				l-0.6,1.9l-2.5,0.1l3.1-9.3l2.7-0.1L136.4,196z M132.5,192.8l-1.4-3.2l-1,3.4L132.5,192.8z M144.1,194.5l-6.1,1.1l-1.7-8.9
				l2.4-0.4l1.3,6.8l3.7-0.7L144.1,194.5z M151.9,192.2L146,194l-2.7-8.7l2.3-0.7l2,6.6l3.6-1.1L151.9,192.2z M162.8,186.4
				c-0.2,0.3-0.5,0.6-0.7,0.9c-0.3,0.3-0.5,0.5-0.8,0.7c-0.3,0.2-0.6,0.4-1,0.6c-0.6,0.3-1.3,0.5-1.9,0.6c-0.6,0.1-1.2,0-1.7-0.2
				c-0.6-0.2-1.1-0.5-1.5-0.9c-0.4-0.4-0.8-0.9-1.1-1.5c-0.4-0.7-0.6-1.4-0.6-2c-0.1-0.6,0-1.2,0.3-1.8c0.2-0.6,0.5-1,0.9-1.5
				c0.4-0.4,0.9-0.8,1.5-1c0.8-0.4,1.9-0.7,3.1-0.8l1.1,2.1c-0.5-0.1-0.9-0.1-1.4-0.1c-0.4,0-0.9,0.1-1.4,0.4
				c-0.4,0.2-0.8,0.5-1.1,0.9c-0.3,0.4-0.4,0.8-0.5,1.2c-0.1,0.5,0,0.9,0.3,1.4c0.2,0.4,0.5,0.7,0.9,1c0.4,0.2,0.8,0.4,1.2,0.4
				c0.4,0,0.9-0.1,1.3-0.3c0.3-0.2,0.7-0.4,0.9-0.7c0.3-0.3,0.5-0.5,0.6-0.7c0.2-0.2,0.3-0.5,0.5-0.7L162.8,186.4L162.8,186.4z
				 M170.3,182.3l-5.2,3.5l-5.1-7.5l2-1.4l3.9,5.7l3.1-2.1L170.3,182.3L170.3,182.3z M175.5,172.5c0.5,0.6,0.9,1.2,1,1.7
				c0.2,0.6,0.2,1.1,0.1,1.7c-0.1,0.5-0.3,1-0.6,1.4c-0.3,0.4-0.6,0.8-1,1.1c-0.5,0.5-1.1,0.8-1.8,1c-0.7,0.2-1.4,0.3-2.1,0.1
				c-0.7-0.2-1.5-0.6-2.1-1.4l-3.3-3.8l1.8-1.6l2.8,3.2c0.4,0.5,0.8,0.8,1.2,1c0.4,0.2,0.7,0.3,1,0.2c0.3,0,0.6-0.2,0.9-0.4
				c0.3-0.2,0.4-0.5,0.5-0.8c0.1-0.3,0.1-0.7-0.1-1.1c-0.2-0.4-0.4-0.8-0.8-1.3l-2.9-3.2l1.8-1.6L175.5,172.5L175.5,172.5z M183,166
				c0.6,0.5,0.9,1.1,1,1.8c0,0.7-0.2,1.3-0.8,2l-3,3.6l-7-5.8l2.5-3c0.3-0.4,0.7-0.7,1-0.9c0.3-0.2,0.6-0.4,0.9-0.4
				c0.3-0.1,0.6,0,0.8,0c0.3,0.1,0.5,0.2,0.8,0.4c0.3,0.2,0.4,0.5,0.6,0.7c0.1,0.2,0.2,0.5,0.2,0.8c0,0.2,0,0.5,0,0.7
				c0.5-0.3,1-0.4,1.5-0.4C182.1,165.4,182.5,165.6,183,166L183,166z M178.2,165.7c-0.3-0.3-0.7-0.4-0.9-0.3
				c-0.3,0.1-0.6,0.4-0.9,0.8l-0.3,0.4l1.7,1.4l0.4-0.4c0.4-0.4,0.6-0.8,0.6-1.1C178.6,166.3,178.5,166,178.2,165.7L178.2,165.7z
				 M181.3,167.8c-0.6-0.5-1.2-0.4-1.9,0.4l-0.6,0.8l1.8,1.5l0.6-0.8C181.9,169,181.9,168.3,181.3,167.8L181.3,167.8z"/>
		</g>
		<path class="st2" d="M207.8,125c0,44-35.6,79.6-79.6,79.6c-43.9,0-79.6-35.6-79.6-79.6c0-44,35.6-79.6,79.6-79.6
			C172.2,45.4,207.8,81,207.8,125L207.8,125z"/>
		<path class="st3" d="M128.2,70.5c-30.1,0-54.5,24.4-54.5,54.5c0,30.1,24.4,54.5,54.5,54.5c30.1,0,54.5-24.4,54.5-54.5
			C182.8,94.9,158.3,70.5,128.2,70.5L128.2,70.5z"/>
		
			<linearGradient id="SVGID_1_" gradientUnits="userSpaceOnUse" x1="-3255.2605" y1="2215.2271" x2="-3255.2605" y2="2308.3755" gradientTransform="matrix(0.5974 0 0 -0.5974 2007.1666 1474.3774)">
			<stop  offset="0" style="stop-color:#F5A200"/>
			<stop  offset="0.4" style="stop-color:#EF8000"/>
			<stop  offset="1" style="stop-color:#E1002A"/>
		</linearGradient>
		<path class="st4" d="M55.5,123.4L80,100.6l-17.7,1.4l0.7,5.8l-18.2,17.1l2.4,13.6c0.7,4.3,2.8,12.4,10.7,11.7l8.4-0.7
			c-4.4-2.6-6.8-6.8-8-12.2L55.5,123.4L55.5,123.4z"/>
		
			<linearGradient id="SVGID_2_" gradientUnits="userSpaceOnUse" x1="-3218.7434" y1="2218.6785" x2="-3218.7434" y2="2281.6333" gradientTransform="matrix(0.5974 0 0 -0.5974 2007.1666 1474.3774)">
			<stop  offset="0" style="stop-color:#F5A200"/>
			<stop  offset="0.4" style="stop-color:#EF8000"/>
			<stop  offset="1" style="stop-color:#E1002A"/>
		</linearGradient>
		<path class="st5" d="M75.6,125.5l-7.7,24l9.3-0.8l6-18.5c0.5-1.5,1-3.3,2.2-4.6c0.8-1,2-1.6,2.9-1.7c1.1-0.1,2,0.5,2.2,1.6
			c0.3,1.2-0.1,2.7-0.6,4.2l-6,18.5l9.3-0.8l5.9-18.3c1.1-3.5,2.3-6.5,1.2-9.2c-1.1-2.7-3.5-3.4-6.4-3.2c-2.7,0.2-5.4,1.5-7.7,4.1
			l1.1-3.4l-12.2,1L75.6,125.5L75.6,125.5z"/>
		
			<linearGradient id="SVGID_3_" gradientUnits="userSpaceOnUse" x1="-3136.8542" y1="2212.644" x2="-3136.8542" y2="2286.5979" gradientTransform="matrix(0.5974 0 0 -0.5974 2007.1666 1474.3774)">
			<stop  offset="0" style="stop-color:#F5A200"/>
			<stop  offset="0.4" style="stop-color:#EF8000"/>
			<stop  offset="1" style="stop-color:#E1002A"/>
		</linearGradient>
		<path class="st6" d="M129.1,144.8c-6.3,2.4-10.4-1.4-10.4-7.7c0-3.9,2.5-14.3,11.1-20.4c3.8-2.7,8.9-4.4,15.5-4.5
			c5,0,7.5,0.5,10.1,1.4c0,0-2.9,2-4.2,5.8l-7.7,24.3c-6.2,19-23.1,22.2-32.7,13.6l7.5-7.6c0.4,1.3,1.1,2.3,2,3
			c4.5,3.3,10.7,0.3,14.3-10.6l7-22c-0.2,0-0.3-0.2-0.5-0.2c-3.2-1.1-6.5,0.4-9.3,4.3c-1.2,1.8-2.2,3.9-3,7.6
			c-0.6,2.6-0.3,9.5,6.2,5.5L129.1,144.8L129.1,144.8z"/>
		
			<linearGradient id="SVGID_4_" gradientUnits="userSpaceOnUse" x1="-3175.7705" y1="2219.5303" x2="-3175.7705" y2="2283.7976" gradientTransform="matrix(0.5974 0 0 -0.5974 2007.1666 1474.3774)">
			<stop  offset="0" style="stop-color:#F5A200"/>
			<stop  offset="0.4" style="stop-color:#EF8000"/>
			<stop  offset="1" style="stop-color:#E1002A"/>
		</linearGradient>
		<path class="st7" d="M119.7,114.9l-12.2,1l0.6,7.1l-7.7,24l9.3-0.8L119.7,114.9z"/>
		
			<linearGradient id="SVGID_5_" gradientUnits="userSpaceOnUse" x1="-3164.2878" y1="2219.5334" x2="-3164.2878" y2="2283.802" gradientTransform="matrix(0.5974 0 0 -0.5974 2007.1666 1474.3774)">
			<stop  offset="0" style="stop-color:#F5A200"/>
			<stop  offset="0.4" style="stop-color:#EF8000"/>
			<stop  offset="1" style="stop-color:#E1002A"/>
		</linearGradient>
		<path class="st8" d="M114.8,112.5l-4.1-5.9l8.2-6.9l4.1,5.9L114.8,112.5z"/>
		<g>
			<path class="st3" d="M78.5,83c0.4,0.4,0.7,0.8,0.9,1.2c0.2,0.5,0.2,0.9,0.1,1.4c-0.1,0.5-0.4,1-0.7,1.5c-0.1,0.1-0.2,0.3-0.4,0.5
				c-0.2,0.2-0.4,0.4-0.8,0.6c-0.4,0.3-0.8,0.5-1.2,0.7l-1.8-1.4c0.5-0.2,0.9-0.3,1.3-0.5c0.4-0.2,0.7-0.5,1-0.8
				c0.2-0.3,0.4-0.6,0.3-0.8c-0.1-0.2-0.1-0.3-0.2-0.4c-0.2-0.1-0.4-0.2-0.7-0.1c-0.3,0.1-0.6,0.2-1,0.4c-0.4,0.2-0.8,0.4-1.3,0.5
				c-0.4,0.1-0.8,0.1-1.3,0.1c-0.4-0.1-0.8-0.2-1.2-0.6c-0.4-0.3-0.7-0.7-0.9-1.1c-0.2-0.4-0.2-0.9-0.1-1.4c0.1-0.5,0.3-1,0.7-1.5
				c0.3-0.4,0.6-0.7,0.9-0.9c0.3-0.3,0.6-0.4,0.9-0.6c0.2-0.1,0.4-0.2,0.5-0.2l1.7,1.3c-0.4,0.1-0.8,0.2-1.3,0.4
				c-0.4,0.2-0.8,0.5-1.1,0.8c-0.2,0.2-0.3,0.5-0.3,0.6c0,0.2,0.1,0.3,0.3,0.5c0.1,0.1,0.3,0.2,0.5,0.1c0.2,0,0.5-0.1,0.8-0.3
				c0.6-0.3,1.2-0.5,1.6-0.6c0.4-0.1,0.9-0.2,1.3-0.1C77.7,82.5,78.1,82.7,78.5,83L78.5,83z M85.9,79.1l-4.3,4.4l-6.5-6.4l4.3-4.3
				l1.3,1.3l-2.5,2.6l1.2,1.2l2.4-2.4l1.3,1.3l-2.4,2.4l1.4,1.4l2.6-2.6L85.9,79.1L85.9,79.1z M90.9,69.4c0.5,0.7,0.8,1.4,1,2.2
				c0.2,0.8,0.1,1.6-0.2,2.3c-0.3,0.7-0.8,1.4-1.6,2c-0.8,0.6-1.6,1-2.4,1c-0.8,0.1-1.6-0.1-2.3-0.4c-0.7-0.4-1.3-0.9-1.8-1.5
				c-0.5-0.7-0.8-1.4-1-2.1c-0.2-0.8-0.1-1.5,0.2-2.3c0.3-0.8,0.8-1.5,1.6-2.1c0.6-0.5,1.2-0.8,1.8-0.9c0.6-0.2,1.2-0.2,1.8-0.1
				c0.6,0.1,1.1,0.3,1.6,0.7C90.1,68.5,90.5,68.9,90.9,69.4L90.9,69.4z M88.9,70.9c-0.2-0.3-0.4-0.5-0.7-0.7
				c-0.2-0.2-0.5-0.3-0.8-0.3c-0.3-0.1-0.6,0-0.8,0c-0.3,0.1-0.6,0.2-0.8,0.4c-0.5,0.4-0.8,0.9-0.9,1.5c0,0.6,0.2,1.1,0.6,1.7
				c0.4,0.5,0.9,0.9,1.5,1c0.6,0.1,1.1,0,1.6-0.4c0.4-0.3,0.6-0.6,0.7-0.9c0.1-0.3,0.2-0.7,0.1-1.1C89.4,71.6,89.2,71.3,88.9,70.9
				L88.9,70.9z M100.2,64.8c0.4,0.7,0.6,1.3,0.6,1.9c0,0.6-0.1,1.2-0.3,1.6c-0.2,0.5-0.5,0.9-0.9,1.3c-0.4,0.4-0.8,0.7-1.2,0.9
				c-0.6,0.3-1.3,0.5-2,0.6c-0.7,0.1-1.4-0.1-2.1-0.4c-0.7-0.3-1.3-1-1.7-1.8l-2.4-4.4l2.2-1.2l2,3.8c0.3,0.5,0.6,0.9,0.9,1.2
				c0.3,0.3,0.6,0.4,1,0.4c0.3,0,0.7,0,1-0.2c0.3-0.2,0.5-0.4,0.7-0.7c0.2-0.3,0.2-0.6,0.2-1.1c-0.1-0.4-0.2-0.9-0.5-1.4l-2-3.8
				l2.2-1.2L100.2,64.8z M109.5,65.7l-5.8,2.1l-3.1-8.5l2.3-0.8l2.4,6.5l3.5-1.3L109.5,65.7L109.5,65.7z M119.6,60.9
				c0.1,0.6,0.1,1.1-0.1,1.5c-0.2,0.5-0.5,0.8-0.9,1.1c-0.4,0.3-0.9,0.5-1.5,0.6c-0.2,0-0.4,0.1-0.6,0.1c-0.2,0-0.6,0-1,0
				c-0.5,0-0.9-0.1-1.3-0.3l-0.4-2.2c0.4,0.2,0.9,0.4,1.3,0.5c0.4,0.1,0.9,0.1,1.3,0.1c0.4-0.1,0.7-0.2,0.8-0.4
				c0.1-0.2,0.1-0.3,0.1-0.5c0-0.2-0.2-0.4-0.4-0.6c-0.2-0.1-0.6-0.3-1-0.4c-0.5-0.1-0.9-0.3-1.3-0.5c-0.4-0.2-0.7-0.4-1-0.8
				c-0.3-0.3-0.5-0.7-0.5-1.2c-0.1-0.5-0.1-0.9,0.1-1.4c0.1-0.4,0.4-0.8,0.8-1.1c0.4-0.3,0.9-0.5,1.5-0.6c0.4-0.1,0.8-0.1,1.3-0.1
				c0.4,0,0.7,0.1,1,0.2c0.3,0.1,0.5,0.1,0.6,0.2l0.4,2.1c-0.4-0.2-0.8-0.4-1.2-0.5c-0.4-0.1-0.9-0.2-1.4-0.1
				c-0.3,0.1-0.5,0.2-0.6,0.3c-0.1,0.1-0.1,0.3-0.1,0.5c0,0.2,0.1,0.3,0.3,0.4c0.2,0.1,0.4,0.2,0.8,0.3c0.7,0.2,1.2,0.4,1.6,0.6
				c0.4,0.2,0.8,0.4,1,0.7C119.3,60,119.5,60.4,119.6,60.9L119.6,60.9z M130,63l-3,0.1l-3.3-4.1l0.2,4.2l-2.5,0.1l-0.3-9.1l2.5-0.1
				l0.1,4.1l2.8-4.2l2.7-0.1l-2.9,4.4L130,63L130,63z M143.2,64.9l-3-0.5l-2.3-4.7l-0.8,4.2l-2.4-0.4l1.6-8.9l2.4,0.4l-0.7,4
				l3.6-3.5l2.6,0.5l-3.7,3.7L143.2,64.9L143.2,64.9z M152.1,68l-2.1-0.7l-2.3-6.2l-1.7,4.8l-2.3-0.8l3-8.6l2.1,0.7l2.3,6.1l1.7-4.7
				l2.3,0.8L152.1,68L152.1,68z M156,69.9l-2.2-1.1l4-8.1l2.2,1.1L156,69.9L156,69.9z M164.3,74.2c-0.2,0-0.3-0.1-0.5-0.1
				c-0.1,0-0.3-0.1-0.4-0.1c-0.2,0-0.3-0.1-0.5-0.1c-0.4-0.1-0.7-0.3-1.1-0.4c-0.4-0.2-0.7-0.4-1-0.6c-0.7-0.4-1.3-1-1.7-1.6
				c-0.4-0.7-0.6-1.4-0.6-2.2c0-0.8,0.3-1.7,0.8-2.5c0.4-0.6,0.8-1,1.3-1.5c0.5-0.4,1.1-0.7,1.7-0.8c0.5-0.1,0.9-0.1,1.3,0
				c0.4,0.1,0.8,0.2,1.1,0.3c0.3,0.1,0.7,0.3,1.1,0.6c0.6,0.4,1.1,0.7,1.4,1.1c0.3,0.3,0.7,0.8,1,1.2l-1.1,1.8
				c-0.2-0.4-0.4-0.8-0.7-1.1c-0.3-0.4-0.7-0.7-1.2-1c-0.6-0.4-1.2-0.6-1.7-0.5c-0.5,0-1,0.2-1.3,0.4c-0.4,0.3-0.6,0.6-0.9,0.9
				c-0.2,0.4-0.4,0.8-0.4,1.2c0,0.4,0,0.8,0.2,1.3c0.2,0.4,0.5,0.8,1,1c0.3,0.2,0.6,0.3,0.9,0.4l0.6-0.9l-0.9-0.6l1-1.6l2.8,1.7
				L164.3,74.2L164.3,74.2z M171.6,81.3l-1.8-1.6l2.3-2.7l-2.8-2.4l-2.3,2.7l-1.9-1.6l6-6.8l1.8,1.6l-2.2,2.5l2.8,2.4l2.2-2.5
				l1.9,1.6L171.6,81.3z M182.8,83.8l-1.9-2.3l-5.2,4.4l-1.6-1.9l5.2-4.4l-1.9-2.3l1.7-1.4l5.5,6.5L182.8,83.8L182.8,83.8z
				 M183.3,92.2c-0.5,0.3-1,0.5-1.5,0.5c-0.5,0-0.9-0.1-1.4-0.4c-0.4-0.3-0.8-0.7-1.2-1.2c-0.1-0.1-0.2-0.3-0.3-0.6
				c-0.1-0.2-0.2-0.5-0.4-0.9c-0.1-0.4-0.2-0.8-0.3-1.3l1.9-1.2c0,0.5,0,1,0.1,1.4c0.1,0.4,0.2,0.8,0.5,1.2c0.2,0.4,0.4,0.5,0.7,0.6
				c0.2,0,0.3,0,0.5-0.1c0.2-0.1,0.3-0.3,0.3-0.6c0-0.3,0-0.6-0.1-1.1c-0.1-0.5-0.1-0.9-0.1-1.4c0-0.4,0.1-0.8,0.3-1.2
				c0.2-0.4,0.5-0.7,0.9-1c0.4-0.3,0.8-0.4,1.3-0.5c0.4,0,0.9,0.1,1.3,0.3c0.4,0.2,0.8,0.6,1.2,1.2c0.2,0.4,0.4,0.8,0.6,1.1
				c0.1,0.4,0.2,0.7,0.2,1c0,0.3,0,0.5,0,0.6l-1.8,1.2c0-0.4,0-0.9,0-1.3c-0.1-0.5-0.2-0.9-0.4-1.3c-0.2-0.3-0.4-0.4-0.5-0.4
				c-0.2,0-0.3,0-0.5,0.1c-0.2,0.1-0.2,0.2-0.3,0.4c0,0.2,0,0.5,0,0.9c0.1,0.7,0.1,1.3,0.1,1.7c0,0.5-0.1,0.9-0.3,1.2
				C184,91.6,183.7,91.9,183.3,92.2L183.3,92.2z"/>
		</g>
		<g>
			<path class="st3" d="M77.1,171.9c-0.6,0.5-1.2,0.7-1.9,0.6c-0.7-0.1-1.3-0.4-1.8-1.1l-3-3.6l7-5.8l2.5,3c0.3,0.4,0.6,0.8,0.7,1.1
				c0.2,0.4,0.2,0.7,0.2,1c0,0.3-0.1,0.6-0.2,0.8c-0.1,0.3-0.3,0.5-0.5,0.7c-0.3,0.2-0.5,0.4-0.8,0.5c-0.3,0.1-0.6,0.1-0.8,0.1
				c-0.3,0-0.5-0.1-0.6-0.2c0.2,0.6,0.2,1.1,0.1,1.6C77.8,171.2,77.6,171.6,77.1,171.9L77.1,171.9z M75.6,170
				c0.6-0.5,0.6-1.1-0.1-1.9l-0.6-0.8l-1.8,1.5l0.6,0.8C74.4,170.3,75,170.5,75.6,170L75.6,170z M78.3,167.3
				c0.3-0.3,0.5-0.6,0.4-0.9c0-0.3-0.3-0.7-0.6-1.1l-0.3-0.4l-1.7,1.4l0.3,0.4c0.4,0.4,0.7,0.7,0.9,0.8
				C77.6,167.6,77.9,167.5,78.3,167.3z M83.2,181.1l-1.9-1.7l0.7-1.8l-2.6-2.4l-1.7,0.9l-1.9-1.7l8.8-4.3l2,1.8L83.2,181.1
				L83.2,181.1z M82.7,176.1l1.3-3.3l-3.1,1.6L82.7,176.1L82.7,176.1z M90.5,183c-0.3,0.5-0.7,0.8-1.2,1c-0.5,0.2-0.9,0.2-1.5,0.1
				c-0.5-0.1-1-0.3-1.5-0.7c-0.1-0.1-0.3-0.2-0.5-0.4c-0.2-0.2-0.4-0.4-0.7-0.7c-0.3-0.3-0.5-0.7-0.8-1.1l1.3-1.8
				c0.2,0.4,0.4,0.9,0.6,1.3c0.2,0.4,0.5,0.7,0.9,1c0.3,0.2,0.6,0.3,0.8,0.3c0.2,0,0.3-0.1,0.4-0.2c0.1-0.2,0.2-0.4,0.1-0.7
				c-0.1-0.3-0.2-0.6-0.5-1c-0.2-0.4-0.4-0.8-0.6-1.2c-0.1-0.4-0.2-0.8-0.2-1.2c0-0.4,0.2-0.9,0.5-1.3c0.3-0.4,0.6-0.7,1-0.9
				c0.4-0.2,0.9-0.3,1.4-0.2c0.5,0.1,1,0.3,1.5,0.7c0.4,0.3,0.7,0.5,0.9,0.8c0.3,0.3,0.5,0.6,0.6,0.8c0.1,0.2,0.2,0.4,0.3,0.5
				l-1.2,1.7c-0.1-0.4-0.3-0.8-0.5-1.2c-0.2-0.4-0.5-0.8-0.9-1c-0.3-0.2-0.5-0.3-0.7-0.2c-0.2,0-0.3,0.1-0.5,0.3
				c-0.1,0.2-0.1,0.3-0.1,0.5c0,0.2,0.2,0.5,0.3,0.8c0.3,0.6,0.6,1.2,0.7,1.6c0.2,0.4,0.2,0.8,0.2,1.2C91,182.2,90.8,182.6,90.5,183
				L90.5,183z M98.4,190.4l-2.7-1.4l-0.8-5.2l-2,3.7l-2.2-1.2l4.2-8l2.2,1.2l-1.9,3.6l4.5-2.2l2.4,1.3l-4.7,2.3L98.4,190.4z
				 M105.7,193l-5.8-2.1l3.2-8.5l5.7,2.1l-0.6,1.7l-3.4-1.3l-0.6,1.6l3.2,1.2l-0.6,1.7l-3.2-1.2l-0.7,1.8l3.5,1.3L105.7,193
				L105.7,193z M117.3,188.8l-2.9-0.7l-1.5,6.7l-2.4-0.5l1.5-6.7l-2.9-0.7l0.5-2.1l8.2,1.9L117.3,188.8z M125.6,193.9
				c-0.1,0.8-0.4,1.4-0.9,1.8c-0.5,0.4-1.2,0.6-2.1,0.5l-4.7-0.4l0.8-9l3.9,0.3c0.5,0,0.9,0.1,1.3,0.3c0.4,0.1,0.7,0.3,0.9,0.5
				c0.2,0.2,0.4,0.4,0.5,0.7c0.1,0.3,0.1,0.6,0.1,0.9c0,0.3-0.1,0.6-0.2,0.9c-0.1,0.3-0.3,0.5-0.5,0.6c-0.2,0.2-0.4,0.3-0.6,0.3
				c0.5,0.3,0.9,0.6,1.2,1C125.6,192.8,125.7,193.3,125.6,193.9L125.6,193.9z M123.2,193.6c0.1-0.8-0.4-1.2-1.4-1.3l-1-0.1l-0.2,2.3
				l1,0.1C122.6,194.7,123.1,194.3,123.2,193.6L123.2,193.6z M123.1,189.8c0-0.4-0.1-0.7-0.3-0.9c-0.3-0.2-0.6-0.3-1.2-0.3l-0.5,0
				l-0.2,2.2l0.5,0c0.6,0,1,0,1.2-0.1C122.9,190.5,123.1,190.2,123.1,189.8L123.1,189.8z M136.4,196l-2.5,0.1l-0.8-1.8l-3.5,0.2
				l-0.6,1.9l-2.5,0.1l3.1-9.3l2.7-0.1L136.4,196z M132.5,192.8l-1.4-3.2l-1,3.4L132.5,192.8z M144.1,194.5l-6.1,1.1l-1.7-8.9
				l2.4-0.4l1.3,6.8l3.7-0.7L144.1,194.5z M151.9,192.2L146,194l-2.7-8.7l2.3-0.7l2,6.6l3.6-1.1L151.9,192.2z M162.8,186.4
				c-0.2,0.3-0.5,0.6-0.7,0.9c-0.3,0.3-0.5,0.5-0.8,0.7c-0.3,0.2-0.6,0.4-1,0.6c-0.6,0.3-1.3,0.5-1.9,0.6c-0.6,0.1-1.2,0-1.7-0.2
				c-0.6-0.2-1.1-0.5-1.5-0.9c-0.4-0.4-0.8-0.9-1.1-1.5c-0.4-0.7-0.6-1.4-0.6-2c-0.1-0.6,0-1.2,0.3-1.8c0.2-0.6,0.5-1,0.9-1.5
				c0.4-0.4,0.9-0.8,1.5-1c0.8-0.4,1.9-0.7,3.1-0.8l1.1,2.1c-0.5-0.1-0.9-0.1-1.4-0.1c-0.4,0-0.9,0.1-1.4,0.4
				c-0.4,0.2-0.8,0.5-1.1,0.9c-0.3,0.4-0.4,0.8-0.5,1.2c-0.1,0.5,0,0.9,0.3,1.4c0.2,0.4,0.5,0.7,0.9,1c0.4,0.2,0.8,0.4,1.2,0.4
				c0.4,0,0.9-0.1,1.3-0.3c0.3-0.2,0.7-0.4,0.9-0.7c0.3-0.3,0.5-0.5,0.6-0.7c0.2-0.2,0.3-0.5,0.5-0.7L162.8,186.4L162.8,186.4z
				 M170.3,182.3l-5.2,3.5l-5.1-7.5l2-1.4l3.9,5.7l3.1-2.1L170.3,182.3L170.3,182.3z M175.5,172.5c0.5,0.6,0.9,1.2,1,1.7
				c0.2,0.6,0.2,1.1,0.1,1.7c-0.1,0.5-0.3,1-0.6,1.4c-0.3,0.4-0.6,0.8-1,1.1c-0.5,0.5-1.1,0.8-1.8,1c-0.7,0.2-1.4,0.3-2.1,0.1
				c-0.7-0.2-1.5-0.6-2.1-1.4l-3.3-3.8l1.8-1.6l2.8,3.2c0.4,0.5,0.8,0.8,1.2,1c0.4,0.2,0.7,0.3,1,0.2c0.3,0,0.6-0.2,0.9-0.4
				c0.3-0.2,0.4-0.5,0.5-0.8c0.1-0.3,0.1-0.7-0.1-1.1c-0.2-0.4-0.4-0.8-0.8-1.3l-2.9-3.2l1.8-1.6L175.5,172.5L175.5,172.5z M183,166
				c0.6,0.5,0.9,1.1,1,1.8c0,0.7-0.2,1.3-0.8,2l-3,3.6l-7-5.8l2.5-3c0.3-0.4,0.7-0.7,1-0.9c0.3-0.2,0.6-0.4,0.9-0.4
				c0.3-0.1,0.6,0,0.8,0c0.3,0.1,0.5,0.2,0.8,0.4c0.3,0.2,0.4,0.5,0.6,0.7c0.1,0.2,0.2,0.5,0.2,0.8c0,0.2,0,0.5,0,0.7
				c0.5-0.3,1-0.4,1.5-0.4C182.1,165.4,182.5,165.6,183,166L183,166z M178.2,165.7c-0.3-0.3-0.7-0.4-0.9-0.3
				c-0.3,0.1-0.6,0.4-0.9,0.8l-0.3,0.4l1.7,1.4l0.4-0.4c0.4-0.4,0.6-0.8,0.6-1.1C178.6,166.3,178.5,166,178.2,165.7L178.2,165.7z
				 M181.3,167.8c-0.6-0.5-1.2-0.4-1.9,0.4l-0.6,0.8l1.8,1.5l0.6-0.8C181.9,169,181.9,168.3,181.3,167.8L181.3,167.8z"/>
		</g>
		<path class="st9" d="M242,109.4l-2.5-3.8c0,0-12.7-4.5-23.3,1.7l-0.7-1.9c0,0-2.2,0.2-3.1,0.3l2.5-8.2l-2.7-4.1l-10.4,0.9
			c-0.9,3.3-5.6,14.6-14.9,15.7l-0.5,1.4c-2-2.4-4.2-3.1-7.3-3.2l2.5-8l-2.7-4.1l-21.2,1.8l0.9,10.5l-1.2,3.8
			c-12.9-3.9-24.5-1.4-31.9,4.2l-1.4-1.2l5.1-4.2l-10.7-15.4L103.7,108l4.1,6l-6.4,0.5l0.5,4.9c-2.9-3.8-7.5-4.5-11.9-4
			c0,0-11.2,0.9-16.9,1.4c7.2-6.7,15.4-14.3,15.4-14.3l-3-4.6c0,0-22,1.8-26.3,2.2c0,0-4.3,0.4-4.3,0.4c0.1,0.5,0.6,4.5,0.8,6
			c0.1,0.9,0.2,1.7,0.3,2.1c-0.3,0.3-1.4,1.3-2.9,2.7c-2.1,2-13.3,12.7-15.9,15.1c0.1,0.5,1.9,10.6,1.9,10.6l1.3,7.5
			c1.8,11.2,8.3,16.5,19.2,15.7l48.5-3.8l-4.4,4.5c2.9,4.5,9.7,11.4,18.7,11.4h0.1c11.3,0,19.9-6.5,25.1-19l34-2.8l1.6-5.1
			c0.7,1.9,3.8,5.8,8.8,5.8c5,0,7.9-2.2,8.8-2.9l1.8-2.5l0.6,1.2c11.6,3.7,21.6,0.1,26.4-3.3c5.9-4.2,10-11.8,7.3-18.7L242,109.4
			L242,109.4z M63.3,145.4c-0.9-1.3-1.7-3-2.1-5.1c0-0.1-1.5-6.6-2.4-10.3l9.8-9.1l0.5,6.6L63.3,145.4L63.3,145.4z"/>
		<path class="st9" d="M35.1,144c-2,4.1-4.1,8.4-4.4,8.9c0.1,0.3,0.5,2.2,1,4.4l0.1,0.5l0.1,0.5l0,0l0.9,4.1c0.2,1,0.9,3.9,0.9,3.9
			l-5.1,0.6c0,0-1.5-1.7-2.5-2.9c0.7,3.2-1.3,6-2.2,6.8c-2.5,2.5-7.1,3.3-10.7-0.2c-5.1-5.1-2.6-13.1,0.9-14.1l1.6-4.8L8,142.6
			l10.6,0.4l16.3-48.8l19.6-12.6l-1.6,26.2l-9.8,20l0,0L35.1,144L35.1,144z"/>
		<path d="M39.6,132l12-24.5L53,84.1L36.1,95l-16.5,49.3l-8.6-0.3l6.4,7.7c-0.5,1.6-1.5,4.5-2,6c-0.8,0.3-1.5,0.8-2.1,1.5
			c-0.2,0.2-0.3,0.4-0.5,0.7c-1.7,2.9-0.9,7.1,1.4,9.8c4.2,4.9,12.4,1,10.6-6.2c0.2-0.3,0.6-1.5,0.9-2l3.6,4.2l3-0.4l-2.8-12.5
			l7.5-15.3"/>
		
			<linearGradient id="SVGID_6_" gradientUnits="userSpaceOnUse" x1="11.8754" y1="82.5804" x2="49.4765" y2="156.5698" gradientTransform="matrix(1 0 0 -1 0 252)">
			<stop  offset="0" style="stop-color:#F5A200"/>
			<stop  offset="0.4" style="stop-color:#EF8000"/>
			<stop  offset="1" style="stop-color:#E1002A"/>
		</linearGradient>
		<path class="st10" d="M23.4,156.1l-3.5,7.2c0.5,1.6,0.5,3.3-0.3,4.5c-1.1,1.8-3.2,1.8-4.7,0c-1.5-1.8-1.9-4.8-0.9-6.6
			c0.6-1,1.5-1.4,2.4-1.4l2.8-8.6l-4.1-4.9l5.6,0.4l16.6-50.1L48,89.9l-1.3,17.8l-21.3,44.4l2.2,8.9C27.6,161,23.4,156.1,23.4,156.1
			z M18.2,166c0.5-0.8,0.3-2.2-0.4-3c-0.7-0.8-1.7-0.8-2.1,0c-0.5,0.8-0.3,2.2,0.4,3C16.7,166.9,17.7,166.9,18.2,166z"/>
		<path class="st11" d="M22.6,148.9l-3.9-0.3l-0.8-0.9l3.9,0.3l16.6-50.2l8.1-5.2l-0.1,1.5l-7.2,4.6L22.6,148.9z M17.5,161.1
			l2.8-8.6l0.8,0.9l-2.8,8.6L17.5,161.1z"/>
		<path d="M39.7,130.6l2.4,13.5c1.4,7.5,4.9,15.4,17.6,14.5l16.8-1.4l1.1-3.2l2.4,2.9l13.7-1l1.1-3.1l2.1,2.9l14.3-1.2l4.1-12.7
			c0.4,7,5.8,10.8,13.1,8.7c-0.4,1.6-2.3,4.3-5,4.3c-3.8,0-4.9-4.1-5.5-6.1l-11.9,12.1c6,8.3,13.4,9.7,16.6,9.7
			c3.3,0,17.9,0.2,25.2-21.8l1.4,2.7l13.1-1.1l1.1-3.2l2.2,2.9l15-1.2l2.9-8.9c0.2,3.4,3,9.5,8.8,9.5c4.1,0,6.5-1.6,7.6-2.4l3.1-4.3
			l1.2,2.6c1.7,0.9,8.3,1.7,11.8,1.3c4-0.4,16-2.2,19.9-14.1c0.4-1.2,0.6-2.4,0.6-3.6c0-1.4-0.4-3-1-4.2l4.9-15.2l-1.8-2.7
			c-10.6-3.1-19.4-0.3-23.1,2.9l-1-2.8c0,0-2.2,0.2-4.2,0.3c1.3-4.2,3-9.7,3-9.7l-1.8-2.7l-8.5,0.7c-3.9,11.4-11.5,15.1-15.1,15.6
			l-1.2,3.6c-1.2-4.6-5.6-5.6-9.7-5c1.4-4.4,3-9.5,3-9.5l-1.8-2.7l-18.8,1.5c0,0,0.7,8.4,0.7,9.3c-0.1,0.2-0.8,2.4-1.8,5.6l-2.4-0.8
			c-2.9-1-5.6-1.5-11.2-1.5h0l0,0c-1,0-2,0.1-2.9,0.2l-0.1,0c-8.6,0.9-15,4-19.6,9.7l1.5-4.8l-2.1-1.8l5.4-4.5l-9-12.8l-12.3,10.3
			l4.9,7l-7.5,0.6l1,9.2l-1.3,2.7c-0.1-9.1-5.8-11.7-12.7-11L70,118.5c0,0,0.7,8.4,0.8,9.2c-0.2,0.6-4.1,12.5-6.7,20.5
			c-2.3-1.4-3.7-4.5-4.3-7.6c0,0-1.8-7.6-2.6-11.2c1.9-1.8,29.4-27.3,29.4-27.3l-1.8-2.7l-28,2.3c0,0,0.7,5.7,0.9,7.3
			c-1.2,1.2-10.7,10.1-15.7,14.8l-3,3"/>
		
			<linearGradient id="SVGID_7_" gradientUnits="userSpaceOnUse" x1="-3166.5903" y1="2214.7703" x2="-3166.5903" y2="2280.7898" gradientTransform="matrix(0.5974 0 0 -0.5974 2007.1666 1474.3774)">
			<stop  offset="0" style="stop-color:#F5A200"/>
			<stop  offset="0.4" style="stop-color:#EF8000"/>
			<stop  offset="1" style="stop-color:#E1002A"/>
		</linearGradient>
		<path class="st12" d="M113.3,114.3l-4.3-6l8.5-7.1l4.3,6L113.3,114.3z"/>
		
			<linearGradient id="SVGID_8_" gradientUnits="userSpaceOnUse" x1="-3079.3147" y1="2222.3015" x2="-3079.3147" y2="2298.0674" gradientTransform="matrix(0.5974 0 0 -0.5974 2007.1666 1474.3774)">
			<stop  offset="0" style="stop-color:#F5A200"/>
			<stop  offset="0.4" style="stop-color:#EF8000"/>
			<stop  offset="1" style="stop-color:#E1002A"/>
		</linearGradient>
		<path class="st13" d="M162.7,108.5l-11.9,37.1l9.6-0.8l6.1-19c1.3-3.9,2.8-6.3,5.3-6.5c2.5-0.2,2.9,2.1,1.6,6l-6.1,19l9.5-0.8
			l6.7-20.8c2.6-7.9-0.5-11.1-6-10.7c-2.8,0.2-5.5,1.5-8,4.2l5.1-16l-12.6,1L162.7,108.5L162.7,108.5z"/>
		
			<linearGradient id="SVGID_9_" gradientUnits="userSpaceOnUse" x1="-3260.0427" y1="2210.3459" x2="-3260.0427" y2="2306.0327" gradientTransform="matrix(0.5974 0 0 -0.5974 2007.1666 1474.3774)">
			<stop  offset="0" style="stop-color:#F5A200"/>
			<stop  offset="0.4" style="stop-color:#EF8000"/>
			<stop  offset="1" style="stop-color:#E1002A"/>
		</linearGradient>
		<path class="st14" d="M52.5,125.5l25.2-23.4l-18.1,1.5l0.8,5.9l-18.6,17.6l2.5,14c0.7,4.4,2.9,12.7,11,12l8.6-0.7
			c-4.5-2.6-7-7-8.3-12.6L52.5,125.5L52.5,125.5z"/>
		
			<linearGradient id="SVGID_10_" gradientUnits="userSpaceOnUse" x1="-3222.5305" y1="2213.8911" x2="-3222.5305" y2="2278.562" gradientTransform="matrix(0.5974 0 0 -0.5974 2007.1666 1474.3774)">
			<stop  offset="0" style="stop-color:#F5A200"/>
			<stop  offset="0.4" style="stop-color:#EF8000"/>
			<stop  offset="1" style="stop-color:#E1002A"/>
		</linearGradient>
		<path class="st15" d="M73.1,127.7l-8,24.6l9.6-0.8l6.1-19c0.5-1.5,1-3.4,2.3-4.8c0.9-1,2.1-1.7,3-1.8c1.2-0.1,2,0.5,2.3,1.7
			c0.3,1.2-0.2,2.8-0.6,4.3l-6.1,19l9.6-0.8l6-18.7c1.2-3.6,2.3-6.7,1.2-9.5c-1.1-2.8-3.5-3.5-6.5-3.2c-2.8,0.2-5.5,1.5-8,4.2
			l1.1-3.5l-12.6,1L73.1,127.7L73.1,127.7z"/>
		
			<linearGradient id="SVGID_11_" gradientUnits="userSpaceOnUse" x1="-2991.3643" y1="2230.7202" x2="-2991.3643" y2="2297.6184" gradientTransform="matrix(0.5974 0 0 -0.5974 2007.1666 1474.3774)">
			<stop  offset="0" style="stop-color:#F5A200"/>
			<stop  offset="0.4" style="stop-color:#EF8000"/>
			<stop  offset="1" style="stop-color:#E1002A"/>
		</linearGradient>
		<path class="st16" d="M206.4,132.6c2.2,1.9,5.1,3.2,8.6,2.9c1.5-0.1,4.1-0.8,4.9-3.3c1.5-4.6-11.6-3.8-8.7-13
			c1.2-3.7,3.6-6.6,6.7-8.6c3.1-2,6.2-2.6,9.1-2.9c2.9-0.2,5.6,0,8.1,0.6l-2.3,7.1c-1.5-1.5-3.7-2.3-6.2-2.1c-1.1,0.1-3.4,0.6-4,2.4
			c-0.7,2.1,1,2.5,2.1,2.9c1.7,0.6,3.8,1.2,5.1,2.4c1.7,1.6,2.7,4.2,1.6,7.6c-2.9,9.1-11.8,11.9-17.7,12.3c-3.1,0.3-6-0.2-8.8-0.8
			L206.4,132.6L206.4,132.6z"/>
		
			<linearGradient id="SVGID_12_" gradientUnits="userSpaceOnUse" x1="-3138.4097" y1="2207.6924" x2="-3138.4097" y2="2283.6621" gradientTransform="matrix(0.5974 0 0 -0.5974 2007.1666 1474.3774)">
			<stop  offset="0" style="stop-color:#F5A200"/>
			<stop  offset="0.4" style="stop-color:#EF8000"/>
			<stop  offset="1" style="stop-color:#E1002A"/>
		</linearGradient>
		<path class="st17" d="M128.1,147.5c-6.5,2.5-10.7-1.5-10.7-7.9c0-4,2.5-14.7,11.4-20.9c3.9-2.8,9.1-4.5,15.9-4.6
			c5.1,0,7.7,0.5,10.4,1.4c0,0-3,2-4.3,6l-7.9,25c-6.3,19.5-23.8,22.8-33.6,14l7.7-7.8c0.4,1.4,1.1,2.4,2.1,3.1
			c4.6,3.4,11,0.3,14.7-10.8l7.2-22.6c-0.2,0-0.3-0.2-0.5-0.2c-3.3-1.1-6.6,0.4-9.5,4.4c-1.3,1.8-2.2,4.1-3.1,7.8
			c-0.6,2.7-0.3,9.7,6.4,5.6L128.1,147.5L128.1,147.5z"/>
		
			<linearGradient id="SVGID_13_" gradientUnits="userSpaceOnUse" x1="-3027.8794" y1="2224.9705" x2="-3027.8794" y2="2291.4219" gradientTransform="matrix(0.5974 0 0 -0.5974 2007.1666 1474.3774)">
			<stop  offset="0" style="stop-color:#F5A200"/>
			<stop  offset="0.4" style="stop-color:#EF8000"/>
			<stop  offset="1" style="stop-color:#E1002A"/>
		</linearGradient>
		<path class="st18" d="M208.3,117.2l2.5-7.7l-6.9,0.6l3.9-12.6l-3.3,0.3c-5.8,13.5-14.8,15.4-14.8,15.4l-1.2,3.8l3.9-0.3l-6.3,20
			c-1.6,4.9,1.9,10.3,10,5.6l5.9-8.2c-4.2,1.7-5.5-1.1-4.9-3.1l4.9-15l3.7-0.3C206.5,115.4,207.7,115.6,208.3,117.2L208.3,117.2z"/>
		
			<linearGradient id="SVGID_14_" gradientUnits="userSpaceOnUse" x1="-3178.3862" y1="2214.7661" x2="-3178.3862" y2="2280.7852" gradientTransform="matrix(0.5974 0 0 -0.5974 2007.1666 1474.3774)">
			<stop  offset="0" style="stop-color:#F5A200"/>
			<stop  offset="0.4" style="stop-color:#EF8000"/>
			<stop  offset="1" style="stop-color:#E1002A"/>
		</linearGradient>
		<path class="st19" d="M118.4,116.8l-12.6,1l0.6,7.2l-7.9,24.7l9.5-0.8L118.4,116.8z"/>
		<g>
			<path class="st11" d="M122,132.5c3-7.9,7.3-12.7,14.2-15.6l-0.2-0.3c-7.6,2.7-12.1,7.6-15.3,16c-2.9,7.8-0.9,13.2,4.3,14.1
				l0.3-0.4C120.9,144.9,119.3,139.8,122,132.5L122,132.5z M142.7,122.5l-7.1,22.2c-2.2,6.7-5.3,10.5-8.5,11.7l0.2,0.2
				c3.6-0.7,7.3-4.5,9.7-12l6.9-21.8L142.7,122.5L142.7,122.5z M112.9,160.1l4.5-4.6l-0.5-0.8l-5.4,5.5c3.1,2.8,7.3,4,11.5,3.7
				l0.2-0.2C119.6,163.6,115.8,162.7,112.9,160.1z"/>
		</g>
		<g>
			<path class="st11" d="M189.3,136.3l6.4-20l-1.3,0.1l-6.3,20c-1.2,3.6,1,7.8,7.3,4.5l0.2-0.4C189.2,142.6,188.2,139.5,189.3,136.3
				L189.3,136.3z M205.1,99.2c-5.1,12.1-13.6,14.2-13.6,14.2l-0.7,2.1l1.3-0.1l0.6-1.6c0,0,8.5-2.2,13.3-14.8L205.1,99.2L205.1,99.2
				z"/>
		</g>
		<path class="st11" d="M112.2,108.1l5.4-4.5l-0.4-0.6l-6.2,5.2l2.9,4.1l0.8-0.8L112.2,108.1z M206.8,137.8l-0.3,1.4
			c8.2,1.7,13.7-0.3,17.1-2.6l-0.2-0.2C220.2,138.6,213.3,140.1,206.8,137.8L206.8,137.8z M232.3,112c-1.3-0.6-4.8-1.3-8,0.4
			l0.1,0.3c3.6-1.3,6-0.2,7.5,0.5L232.3,112L232.3,112z M215.9,114.5c-1.1,1-3.5,3.8-3.4,7c0.2,6,11.7,5.5,8.3,11.3l0.4,0.1
			c4-6-7-6.2-7.4-11.8c-0.2-3,1.8-5.8,2.3-6.4L215.9,114.5L215.9,114.5z M76.4,127.3l-0.6-5.8l-1.2,0.1l0.6,5.8
			c-0.1,0.4-5.2,16-7.4,23l1.3-0.1L76.4,127.3L76.4,127.3z M109.6,124.7l-0.6-5.8l-1.2,0.1l0.6,5.8c-0.1,0.4-5.2,16-7.4,23l1.3-0.1
			L109.6,124.7L109.6,124.7z M165.9,108.2l-0.7-5.8l-1.2,0.1l0.6,5.8c-0.1,0.4-9.2,28.5-11.4,35.5l1.3-0.1L165.9,108.2L165.9,108.2z
			 M89.7,125.3l-0.3,0.3c0.3,0.2,1.5,1.7,0.1,6.2c-1.2,3.6-4.3,13.5-5.5,17.2l1.3-0.1l5.5-17.2C91.9,128.2,90.9,126,89.7,125.3z
			 M175.3,118.6L175,119c0.3,0.2,1.5,1.7,0.1,6.2c-1.2,3.6-4.3,13.5-5.5,17.2l1.3-0.1l5.5-17.2C177.5,121.5,176.5,119.4,175.3,118.6
			L175.3,118.6z M47.3,140.9l-2.3-13.3l18.6-17.6l-0.7-5.2l-1.2,0.1l0.6,4.9l-18.6,17.6l2.6,14.2c1.1,5.3,2.7,8.9,6.1,10.1l0.9-0.1
			C50.1,150,48.2,145.9,47.3,140.9L47.3,140.9z"/>
	</g>
</g>
<g id="레이어_1">
	<rect x="8" y="8" class="st20" width="234" height="234"/>
</g>
</svg>
