<?xml version="1.0" encoding="utf-8"?>
<!-- Generator: Adobe Illustrator 25.1.0, SVG Export Plug-In . SVG Version: 6.00 Build 0)  -->
<svg version="1.1" xmlns="http://www.w3.org/2000/svg" xmlns:xlink="http://www.w3.org/1999/xlink" x="0px" y="0px"
	 viewBox="0 0 250 250" style="enable-background:new 0 0 250 250;" xml:space="preserve">
<style type="text/css">
	.st0{clip-path:url(#SVGID_2_);}
	.st1{fill:#221B19;}
	.st2{fill:#D92226;}
	.st3{fill:#FFFFFF;}
	.st4{fill:#BEC0C1;}
	.st5{fill:#C1C2C3;}
	.st6{fill:#C3C4C5;}
	.st7{fill:#C5C5C7;}
	.st8{fill:#C7C8C9;}
	.st9{fill:#C9C9CB;}
	.st10{fill:#CBCCCD;}
	.st11{fill:#CCCECE;}
	.st12{fill:#CFCED0;}
	.st13{fill:#D1D3D3;}
	.st14{fill:#D4D4D4;}
	.st15{fill:#D6D5D7;}
	.st16{fill:#D7D8D8;}
	.st17{fill:#DBDAD9;}
	.st18{fill:#DCDADC;}
	.st19{fill:#DEDEDD;}
	.st20{fill:#E0DFDE;}
	.st21{fill:#E3E2E1;}
	.st22{fill:#E3E4E4;}
	.st23{fill:#E6E7E5;}
	.st24{fill:#E8E7E7;}
	.st25{fill:#EBEAE9;}
	.st26{fill:#ECEBEC;}
	.st27{fill:#EEEDEF;}
	.st28{fill:#F0F0F0;}
	.st29{fill:#F3F2F2;}
	.st30{fill:#F5F4F3;}
	.st31{fill:#F8F8F7;}
	.st32{fill:#F9F9F9;}
	.st33{fill:#FCFCFC;}
	.st34{fill:#FDFDFD;}
	.st35{fill:url(#SVGID_3_);}
	.st36{fill:url(#SVGID_4_);}
	.st37{fill:url(#SVGID_5_);}
	.st38{fill:url(#SVGID_6_);}
	.st39{fill:url(#SVGID_7_);}
	.st40{fill:url(#SVGID_8_);}
	.st41{fill:url(#SVGID_9_);}
	.st42{fill:url(#SVGID_10_);}
	.st43{fill:url(#SVGID_11_);}
	.st44{fill:url(#SVGID_12_);}
	.st45{fill:url(#SVGID_13_);}
	.st46{clip-path:url(#SVGID_15_);}
	.st47{fill:#231F20;}
	.st48{fill:none;}
</style>
<g id="Layer_1">
	<g>
		<g>
			<defs>
				<rect id="SVGID_1_" x="9.3" y="45" width="231.3" height="160"/>
			</defs>
			<clipPath id="SVGID_2_">
				<use xlink:href="#SVGID_1_"  style="overflow:visible;"/>
			</clipPath>
			<g transform="matrix(6.91287 0 0 -6.91287 -390.402 803.407)" class="st0">
				<g>
					<path class="st1" d="M74.5,107l-0.6,0.8l0.9,1.1h-0.5c-0.2,0-0.4-0.1-0.5-0.2l-0.5-0.6v1.6h-0.5c-0.1,0-0.2-0.1-0.2-0.2v-3h0.5
						c0.1,0,0.2,0.1,0.2,0.2v0.8l0.4-0.5l0.3-0.4c0.1-0.1,0.1-0.1,0.2-0.1h0.7L74.5,107z"/>
				</g>
				<g>
					<path class="st1" d="M75.7,106.5c-0.4,0-0.6,0.3-0.6,0.6v2.4c0,0.1,0.1,0.2,0.2,0.2h0.5v-2.5c0-0.1,0.1-0.2,0.2-0.2h0.5v-0.4
						c0-0.1-0.1-0.2-0.2-0.2c0,0,0,0,0,0H75.7z"/>
				</g>
				<g>
					<path class="st2" d="M76.5,109.1L76.5,109.1c0,0-0.2-0.2-0.5-0.2h-1.7c-0.3,0-0.4-0.1-0.5-0.2l-0.1-0.1c0,0,0,0,0,0l-0.3-0.4
						c0.1,0.1,0.3,0.2,0.5,0.2H76c0.3,0,0.5,0.1,0.5,0.3c0,0,0,0,0,0V109.1z M73.4,108.2L73.4,108.2L73.4,108.2L73.4,108.2z"/>
				</g>
				<g>
					<path class="st1" d="M82.2,99.9c-0.2,0.6-0.5,1.2-0.9,1.7l0.1,0c0.4-0.7,1.2-1.1,2-1.1c0,0,0,0,0.1,0
						C83,100.3,82.6,100.1,82.2,99.9 M63.1,98.3c0,0.5,0.9,1.4,3.9,2.6h0.2c-0.6-1.2-0.9-2.4-0.9-3.8c-1.4,0.1-2.5,0.4-3,0.8
						C63.2,98.1,63.1,98.2,63.1,98.3 M89.1,103.6l2.1,1.6h-4l-0.4-1.1l-0.4,1.1h-1.8v-0.4c-0.7,0.5-1.6,0.6-2.4,0.2
						c-0.4,0.7-1.2,1.1-2,1.1c-0.8,0-1.6-0.4-2-1.2c-0.3,0.2-0.8,0.3-1.2,0.3l-5.3,0v0c-0.4,0-0.7-0.1-1-0.3v0.3h-3.9
						c-0.4,0.5-1.1,0.8-1.7,0.8c-0.5,0-1.1-0.2-1.5-0.6c-1,1.2-3.2,1.5-4.3,1c-0.6-0.3-1.1-0.9-1.1-1.6c0,0-0.1-1.2,1.3-2
						c0.6-0.3,1.2-0.5,1.6-0.6c0.3-0.1,0.9-0.3,0.9-0.4l0,0c-0.2-0.3-1.6,0-1.6,0l-2.5-4c0,0,1.8,0.3,3.5,0.9
						c-0.2-0.3-0.3-0.7-0.2-1.1c0-0.5,0.3-0.9,0.8-1.3c0.9-0.7,2.6-1.2,4.8-1.3c0.4-1.8,1.4-3.3,2.8-4.5c1.7-1.4,3.8-2.1,6-1.9
						c2.2,0.2,4.1,1.3,5.5,3c1.4,1.8,2,4,1.8,6.2c0.1,0,0.2,0.1,0.3,0.1c1.4,0.7,3,1.7,3.5,2.9h3.9l-1.2,0.8V103.6z"/>
				</g>
				<g>
					<path class="st3" d="M69.9,97.1c0.1,0,0.2,0,0.3,0c-0.4,1.2-0.5,2.5-0.3,3.8h-0.2C69.5,99.7,69.6,98.4,69.9,97.1"/>
				</g>
				<g>
					<path class="st3" d="M80.7,101.4c-0.3-0.9-0.7-1.7-1.2-2.5c0.2,0.1,0.4,0.1,0.6,0.2c0.3,0.6,0.6,1.3,0.8,2
						c0.3-0.5,0.5-0.9,0.7-1.4l0.1,0.1l0.1,0c-0.2,0.6-0.5,1.2-0.9,1.8C80.8,101.4,80.7,101.4,80.7,101.4L80.7,101.4"/>
				</g>
				<g>
					<path class="st3" d="M68.3,100.9h-0.5c-0.6-1.2-1-2.5-1-3.8c0.2,0,0.4,0,0.5,0C67.4,98.4,67.7,99.8,68.3,100.9"/>
				</g>
				<g>
					<path class="st3" d="M74,97.6c0.1,0,0.1,0,0.2,0c0,0.1,0.1,0.3,0.1,0.4l-0.4-0.2c0-0.1-0.1-0.2-0.1-0.3L74,97.6"/>
				</g>
				<g>
					<path class="st3" d="M80.3,92.5c-0.5-0.6-1.1-1.2-1.8-1.6c-1.8,0-3.5,0.4-4.9,1.5c0.4,0.2,0.8,0.4,1.2,0.7
						c2.5-1.8,5.8,0.9,6.8,1.9C81.3,94,80.9,93.2,80.3,92.5 M72.8,90.1c0.1,0.2,0.3,0.9-0.4,1.8c0.1,0,0.2,0.1,0.3,0.1
						c0.2,0.1,0.5,0.2,0.6,0.2c2.4-1.8,4.6-1.5,5.1-1.4C76.8,89.8,74.7,89.6,72.8,90.1 M72.5,90.2c-1,0.3-1.8,0.8-2.6,1.5
						c0.4-0.1,0.9-0.2,1.8,0c0.1,0,0.3,0.1,0.5,0.1C72.6,91.3,72.7,90.7,72.5,90.2 M81.6,95c-2.1-1.7-4.8-3-6.6-1.8
						c0.5,0.3,0.9,0.7,1.3,1c0.8,0.7,1.5,1.4,2.2,2.2c-0.3-0.1-0.5-0.1-0.8-0.2c-1.1-1.2-2.2-2.1-3.1-2.8c-0.5,0.5-0.7,1.2-0.8,2
						c-0.1,0-0.2,0-0.3,0c0-0.8,0.3-1.5,0.8-2.1c-0.4-0.2-0.8-0.5-1.2-0.7c-0.5,0.4-1,0.9-1.4,1.5c-0.2,0.3-0.5,0.7-0.7,1l-0.4,0
						c0.2-0.4,0.4-0.7,0.7-1c0.4-0.6,0.9-1.1,1.5-1.5c-0.3-0.1-0.5-0.2-0.8-0.3c-1.7,1.7-2.8,1.2-4.3,2.8l-0.1,0
						c0.4-0.5,0.9-1,1.6-1.4c0.7-0.4,1.7-0.7,2.5-1.5c-1.1-0.3-1.9-0.2-2.3-0.2c-0.9,0.9-1.5,1.9-1.8,3.1c-0.2,0-0.4,0-0.6,0
						c0.4-1.6,1.3-3.1,2.6-4.1c3.3-2.8,8.2-2.3,10.8,1c1.3,1.7,1.9,3.7,1.7,5.7c-0.1,0-0.2-0.1-0.3-0.1C82,96.7,81.9,95.8,81.6,95"
						/>
				</g>
				<g>
					<path class="st3" d="M83.3,102.1c-0.4,0-0.7,0.3-0.7,0.7c0,0.4,0.3,0.7,0.7,0.7c0.4,0,0.7-0.4,0.7-0.8
						C84,102.5,83.7,102.2,83.3,102.1 M80.3,103c-0.2,0-0.5,0.1-0.6,0.3c0.5,0.1,0.9,0.2,1.3,0.3C81,103.2,80.7,103,80.3,103
						 M80.3,104.4c0.2,0,0.4-0.1,0.6-0.3c-0.4,0-0.8-0.1-1.2-0.2C79.7,104.2,80,104.4,80.3,104.4 M77,101.3
						c-0.3-0.1-0.6-0.2-0.8-0.3v0.7h0.9C77.2,101.6,77.4,101.4,77,101.3 M76.1,103.4h0.6c0,0,0.2,0,0.2-0.2c0,0,0,0,0,0
						c-0.2-0.1-0.5-0.2-0.7-0.3c0,0-0.1,0-0.1,0V103.4z M65.1,103c-0.4,0-0.7,0.3-0.7,0.7s0.3,0.7,0.7,0.7s0.7-0.3,0.7-0.7
						S65.4,103,65.1,103 M63.2,103.4c-0.3,0.3-0.6,0.5-1,0.6c-0.7,0.3-1.3,0.4-1.5,0.7c-0.1,0.1,0,0.6,0.8,0.2
						c0.4-0.2,0.4-0.6,0.4-0.6s1.3,0,1.4,0c-0.1-0.2-0.1-0.4-0.1-0.6C63.2,103.6,63.2,103.5,63.2,103.4 M88.8,103.7l1.3,1.1h-2.5
						l-0.7-1.7l-0.6,1.7H85v-1c-0.4,0.6-1,1-1.7,1c-0.4,0-0.9-0.1-1.2-0.4c-0.3,0.8-1,1.3-1.8,1.3c-0.9,0-1.6-0.6-1.9-1.4
						c-0.3,0.4-0.8,0.6-1.4,0.6h-3.9l1.5-1.3v-0.4l-0.7-0.4l-1.4,0.6l0.4-0.9h-1c-0.3,0-0.6,0.3-0.6,0.6c0,0.4,0.3,0.6,0.6,0.6h0.9
						v1.1h-1c-0.6,0-1.1-0.3-1.4-0.7v0.7h-2.1v-1l-0.5,1h-1.1v0c-0.3,0.5-0.9,0.9-1.6,0.9c-0.6,0-1.1-0.3-1.5-0.7
						c-0.9,1.4-3.2,1.6-4.2,1.2c-0.5-0.2-0.9-0.7-0.9-1.3c0-0.4,0.1-1.1,1.1-1.6c0.5-0.3,1.1-0.5,1.6-0.6c0.6-0.2,1-0.4,1.1-0.6
						c0.2-0.8-1.8-0.5-1.8-0.5l-1.8-2.9c0,0,3.4,0.5,4.7,1.7c0.4,0.4,0.6,0.9,0.6,1.4c0,0.1,0,0.3,0,0.4c0.3-0.2,0.7-0.4,1.1-0.4
						c0.7,0,1.2,0.3,1.6,0.9v-1.3h1.1v0.8l0.4-0.8h2.2v0.7c0.3-0.4,0.8-0.7,1.4-0.7h0.9l-0.5-0.6l1.5,0.2l0.4-1.2l0.6,1.2l0,0V100
						l-1.2-2l0.7,0.3c0.1,0.1,3.3,1.5,3.8,1.7c0.3,0.1,1.1,0.6,1.1,1.5c0,0.6-0.4,1-0.9,1.1c0.1,0.1,0.1,0.1,0.2,0.2l0.1,0
						c0.3-0.7,1-1.2,1.8-1.2c0.5,0,0.9,0.2,1.2,0.4c0.3-0.8,1-1.3,1.8-1.3c0.7,0,1.3,0.4,1.7,1v-0.6h4.2l-0.5,0.5V103.7z"/>
				</g>
				<g>
					<path class="st2" d="M75,102.5c0.3,0.1,0.6,0.3,0.9,0.4h0v0.8h0.9c0.1,0,0.4-0.1,0.5-0.3c0.4,0.1,0.8,0.2,1.2,0.4
						c0,0.5-0.6,0.9-1.3,0.9h-3.3l1.1-0.9v-0.4l0.6,0.4L75,102.5z"/>
				</g>
				<g>
					<path class="st2" d="M77.1,101.8c0.1,0,0.4,0,0.4-0.3c0-0.3-0.2-0.4-0.4-0.5c-0.3-0.1-1.2-0.5-1.2-0.5v1.2
						c-0.2-0.1-0.5-0.3-0.7-0.4l0.4-0.7l-0.8,0.2v-0.9L74,98.6c0,0,3.3,1.5,3.8,1.7c0.4,0.2,1,0.5,1,1.3c0,0.8-0.9,1-1.2,1
						c-0.5-0.2-1.1-0.5-1.6-0.8H77.1z"/>
				</g>
				<g>
					<path class="st2" d="M65.1,102.7c-0.5,0-0.9,0.4-0.9,1c0,0.5,0.4,1,0.9,1s0.9-0.4,0.9-1C66,103.2,65.6,102.7,65.1,102.7
						 M65.1,105.5c-0.6,0-1.1-0.3-1.4-0.8l0,0c0,0,0,0,0-0.1l0,0l0,0l0,0c-0.1-0.2-0.2-0.5-0.2-0.8c0-1,0.7-1.7,1.7-1.7
						c0.9,0,1.7,0.8,1.7,1.7S66,105.5,65.1,105.5"/>
				</g>
				<g>
					<path class="st2" d="M59.5,106c-0.8-0.4-1.2-1.7,0.2-2.5c1.3-0.7,2.6-0.7,2.8-1.4c0.3-1.2-1.9-0.8-1.9-0.8l-1.4-2.2
						c0,0,2.7,0.3,3.9,1.4c0.9,0.8,0.7,2.6-1.1,3.3c-0.7,0.3-1.4,0.5-1.6,0.7c-0.3,0.3-0.2,0.6,0.1,0.7c0.5,0.2,1.3-0.1,1.4-0.7
						c0,0,1.4,0,1.6,0l0,0.1C62.9,106.1,60.6,106.4,59.5,106"/>
				</g>
				<g>
					<path class="st2" d="M68.5,102.8l-0.9,1.8h-0.7v-3.1h0.6v1.6l0.8-1.6h0.8v3.1h-0.6V102.8z"/>
				</g>
				<path class="st2" d="M69.3,101.5h0.8v3.1h-0.8V101.5z"/>
				<g>
					<path class="st2" d="M72.9,102.2h-1.1c-0.5,0-0.8,0.4-0.8,0.9c0,0.5,0.4,0.9,0.8,0.9h0.6v0.6h-0.8c-0.8,0-1.4-0.7-1.4-1.5
						c0-0.9,0.6-1.6,1.4-1.6h1.1l0.3,0.4L72.9,102.2z"/>
				</g>
				<g>
					<path class="st2" d="M87.8,101.5h0.8v0c-0.2,0.2-0.5,0.4-0.8,0.6V101.5z"/>
				</g>
				<g>
					<path class="st2" d="M88.6,103.8l0.9,0.8h-1.7l-0.6-1.5c0.5-0.3,1-0.7,1.5-1.1V103.8z"/>
				</g>
				<g>
					<path class="st2" d="M86.1,104.6h-0.8v-0.8c0.4-0.1,0.9-0.3,1.3-0.5L86.1,104.6z"/>
				</g>
				<g>
					<path class="st2" d="M86.9,102.5l-0.1,0.4c-0.4,0.2-0.9,0.4-1.5,0.6v-1.9h0.7v1.4l0.6-1.4h0.8l0.3,0.8
						c-0.2,0.1-0.4,0.3-0.7,0.4L86.9,102.5z"/>
				</g>
				<g>
					<path class="st2" d="M80.3,104.7c0.4,0,0.7-0.2,0.8-0.5c0.3,0,0.5,0,0.8,0c-0.3,0.9-1.3,1.4-2.2,1.1c-0.7-0.2-1.2-0.9-1.2-1.6
						c0.3,0.1,0.5,0.1,0.8,0.2C79.5,104.4,79.9,104.7,80.3,104.7"/>
				</g>
				<g>
					<path class="st2" d="M84.3,102.9c0-0.5-0.4-1-1-1c-0.5,0-1,0.4-1,1c0,0.4,0.2,0.7,0.5,0.9c-0.5,0-1.1,0-1.6-0.1
						c0-0.5-0.5-0.9-1-0.9c-0.4,0-0.7,0.2-0.8,0.5c-0.2-0.1-0.5-0.1-0.7-0.2c0.4-0.9,1.4-1.3,2.3-0.9c0.2,0.1,0.5,0.3,0.6,0.5
						c0.1-0.9,1-1.6,2-1.5c0.9,0.1,1.6,1,1.5,2c0,0.1,0,0.2-0.1,0.4c-0.4,0.1-0.7,0.1-1.1,0.2C84.2,103.5,84.3,103.2,84.3,102.9"/>
				</g>
				<g>
					<path class="st2" d="M84.7,104c-0.3,0.4-0.8,0.6-1.3,0.6c-0.4,0-0.7-0.1-1.1-0.4C83.1,104.2,83.9,104.2,84.7,104"/>
				</g>
				<g>
					<path class="st4" d="M84.6,100.9c0,0-0.1,0-0.1-0.1c-1.3-1.4-5.4-3-10.4-3.8c-6.1-1-11.3-0.4-11.4,1.2
						c-0.1,0.7,0.8,1.6,3.6,2.8v0.5c-0.5-0.2-1-0.3-1.4-0.6c-0.3-0.1-0.5-0.3-0.8-0.4c-0.1-0.2-0.3-0.5-0.5-0.6
						c-0.4-0.3-0.9-0.6-1.5-0.8c-0.4-0.5-0.6-0.9-0.6-1.4c0.2-2.1,5.9-2.9,12.6-1.8c5.9,0.9,10.8,3,11.7,4.9H84.6z"/>
				</g>
				<g>
					<path class="st4" d="M74.1,96.2c-7.1-0.9-8.3-0.1-8.4,0.1c-0.1,0.5,2.5-0.2,8.3,0.7c4.9,0.7,9.4,2.8,9.1,2.1
						C83,98.9,79.8,96.9,74.1,96.2"/>
				</g>
				<g>
					<path class="st5" d="M74.1,96.2c-6.9-0.9-8.2-0.1-8.2,0.1c-0.1,0.5,2.5-0.2,8.2,0.7c4.8,0.7,9.2,2.7,8.9,2.1
						C82.8,98.9,79.7,96.9,74.1,96.2"/>
				</g>
				<g>
					<path class="st6" d="M74.1,96.2c-6.7-0.9-8.1-0.1-8.1,0.1c-0.1,0.5,2.5-0.2,8,0.7c4.7,0.7,9,2.6,8.7,2
						C82.7,98.8,79.6,96.9,74.1,96.2"/>
				</g>
				<g>
					<path class="st7" d="M74.1,96.2c-6.6-0.8-7.9-0.1-8,0.1C66,96.8,68.6,96.2,74,97c4.6,0.7,8.8,2.6,8.6,2
						C82.5,98.8,79.5,96.9,74.1,96.2"/>
				</g>
				<g>
					<path class="st8" d="M74.1,96.2c-6.4-0.8-7.8-0.1-7.8,0.1c-0.1,0.4,2.5-0.1,7.7,0.6c4.6,0.7,8.6,2.5,8.4,1.9
						C82.4,98.7,79.4,96.9,74.1,96.2"/>
				</g>
				<g>
					<path class="st9" d="M74.1,96.2c-6.2-0.8-7.6-0.1-7.7,0.1c-0.1,0.4,2.5-0.1,7.6,0.6c4.5,0.7,8.4,2.5,8.2,1.9
						C82.2,98.7,79.2,96.9,74.1,96.2"/>
				</g>
				<g>
					<path class="st10" d="M74.1,96.3c-6-0.8-7.5-0.1-7.5,0.1c-0.1,0.4,2.4-0.1,7.5,0.6c4.4,0.7,8.2,2.4,8.1,1.8
						C82,98.6,79.1,96.9,74.1,96.3"/>
				</g>
				<g>
					<path class="st11" d="M74.1,96.3c-5.8-0.7-7.4-0.1-7.4,0c-0.1,0.4,2.4-0.1,7.3,0.6c4.3,0.6,8.1,2.3,7.9,1.8
						C81.9,98.6,79,96.9,74.1,96.3"/>
				</g>
				<g>
					<path class="st12" d="M74.1,96.3c-5.6-0.7-7.2-0.2-7.3,0c-0.1,0.4,2.4-0.1,7.2,0.6c4.2,0.6,7.9,2.2,7.7,1.8
						C81.8,98.5,78.9,96.9,74.1,96.3"/>
				</g>
				<g>
					<path class="st13" d="M74.1,96.3c-5.5-0.7-7.1-0.2-7.1,0c-0.1,0.4,2.4-0.1,7,0.6c4.1,0.6,7.7,2.2,7.6,1.7
						C81.6,98.5,78.8,96.9,74.1,96.3"/>
				</g>
				<g>
					<path class="st14" d="M74.1,96.3c-5.3-0.7-6.9-0.2-7,0c-0.1,0.3,2.4-0.1,6.9,0.6c4,0.6,7.5,2.1,7.4,1.7
						C81.5,98.4,78.7,96.9,74.1,96.3"/>
				</g>
				<g>
					<path class="st15" d="M74.1,96.3c-5.1-0.7-6.8-0.2-6.8,0c-0.1,0.3,2.3-0.1,6.8,0.6c3.9,0.6,7.4,2,7.2,1.6
						C81.3,98.4,78.5,96.9,74.1,96.3"/>
				</g>
				<g>
					<path class="st16" d="M74.1,96.3c-4.9-0.6-6.7-0.2-6.7,0c-0.1,0.3,2.3-0.1,6.6,0.6c3.8,0.6,7.2,2,7,1.6
						C81.2,98.3,78.4,96.9,74.1,96.3"/>
				</g>
				<g>
					<path class="st17" d="M74.1,96.3c-4.7-0.6-6.5-0.2-6.6,0c-0.1,0.3,2.3-0.1,6.5,0.6c3.7,0.6,7,1.9,6.9,1.5
						C81,98.3,78.3,96.9,74.1,96.3"/>
				</g>
				<g>
					<path class="st18" d="M74.1,96.4c-4.5-0.6-6.4-0.2-6.4,0c-0.1,0.3,2.3-0.1,6.3,0.6c3.6,0.5,6.8,1.9,6.7,1.5
						C80.9,98.2,78.2,96.9,74.1,96.4"/>
				</g>
				<g>
					<path class="st19" d="M74.1,96.4c-4.3-0.6-6.2-0.2-6.3-0.1c-0.1,0.3,2.3,0,6.2,0.6c3.5,0.5,6.6,1.8,6.5,1.4
						C80.7,98.2,78.1,96.9,74.1,96.4"/>
				</g>
				<g>
					<path class="st20" d="M74.2,96.4c-4.2-0.6-6.1-0.3-6.1-0.1c-0.1,0.3,2.2,0,6.1,0.5c3.4,0.5,6.5,1.7,6.4,1.4
						C80.5,98.1,78,96.9,74.2,96.4"/>
				</g>
				<g>
					<path class="st21" d="M74.2,96.4c-4-0.5-6-0.3-6-0.1c-0.1,0.2,2.2,0,5.9,0.5c3.3,0.5,6.3,1.7,6.2,1.4
						C80.4,98.1,77.8,96.9,74.2,96.4"/>
				</g>
				<g>
					<path class="st22" d="M74.2,96.4c-3.8-0.5-5.8-0.3-5.9-0.1c-0.1,0.2,2.2,0,5.8,0.5c3.2,0.5,6.1,1.6,6,1.3
						C80.2,98,77.7,96.9,74.2,96.4"/>
				</g>
				<g>
					<path class="st23" d="M74.2,96.4c-3.6-0.5-5.7-0.3-5.7-0.1c-0.1,0.2,2.2,0,5.6,0.5c3.1,0.5,5.9,1.5,5.8,1.3
						C80.1,98,77.6,96.9,74.2,96.4"/>
				</g>
				<g>
					<path class="st24" d="M74.2,96.4c-3.4-0.5-5.5-0.3-5.6-0.1c-0.1,0.2,2.2,0,5.5,0.5c3,0.5,5.7,1.5,5.7,1.2
						C79.9,97.9,77.5,96.9,74.2,96.4"/>
				</g>
				<g>
					<path class="st25" d="M74.2,96.4c-3.2-0.5-5.4-0.3-5.4-0.1c-0.1,0.2,2.1,0,5.3,0.5c2.9,0.4,5.6,1.4,5.5,1.2
						C79.8,97.9,77.4,96.9,74.2,96.4"/>
				</g>
				<g>
					<path class="st26" d="M74.2,96.4c-3-0.4-5.3-0.3-5.3-0.1c0,0.2,2.1,0,5.2,0.5c2.8,0.4,5.4,1.3,5.3,1.1
						C79.6,97.8,77.3,96.9,74.2,96.4"/>
				</g>
				<g>
					<path class="st27" d="M74.2,96.5c-2.9-0.4-5.1-0.3-5.2-0.1c0,0.2,2.1,0,5.1,0.5c2.7,0.4,5.2,1.3,5.2,1.1
						C79.5,97.8,77.2,96.9,74.2,96.5"/>
				</g>
				<g>
					<path class="st28" d="M74.2,96.5c-2.7-0.4-5-0.3-5-0.2c0,0.1,2.1,0,4.9,0.5c2.6,0.4,5,1.2,5,1.1C79.3,97.7,77,96.9,74.2,96.5"
						/>
				</g>
				<g>
					<path class="st29" d="M74.2,96.5c-2.5-0.4-4.8-0.4-4.9-0.2c0,0.1,2.1,0.1,4.8,0.5c2.6,0.4,4.8,1.1,4.8,1
						C79.2,97.7,76.9,96.9,74.2,96.5"/>
				</g>
				<g>
					<path class="st30" d="M74.2,96.5c-2.3-0.3-4.7-0.4-4.7-0.2c0,0.1,2.1,0.1,4.6,0.5c2.5,0.4,4.7,1.1,4.7,1
						C79,97.6,76.8,96.9,74.2,96.5"/>
				</g>
				<g>
					<path class="st31" d="M74.2,96.5c-2.1-0.3-4.5-0.4-4.6-0.2c0,0.1,2,0.1,4.5,0.5c2.4,0.4,4.5,1,4.5,0.9
						C78.9,97.6,76.7,96.9,74.2,96.5"/>
				</g>
				<g>
					<path class="st32" d="M74.2,96.5c-1.9-0.3-4.4-0.4-4.5-0.2c0,0.1,2,0.1,4.4,0.5c2.3,0.4,4.3,0.9,4.3,0.9
						C78.7,97.5,76.6,96.9,74.2,96.5"/>
				</g>
				<g>
					<path class="st33" d="M74.2,96.5c-1.8-0.3-4.3-0.4-4.3-0.2c0,0.1,2,0.1,4.2,0.4c2.2,0.3,4.1,0.9,4.1,0.8
						C78.6,97.5,76.5,96.9,74.2,96.5"/>
				</g>
				<g>
					<path class="st34" d="M74.2,96.5c-1.6-0.3-4.1-0.4-4.2-0.2c0,0.1,2,0.1,4.1,0.4c2.1,0.3,3.9,0.8,4,0.8
						C78.4,97.4,76.3,96.9,74.2,96.5"/>
				</g>
				<g>
					<path class="st3" d="M74.2,96.5c-1.4-0.2-4-0.4-4-0.2c0,0,2,0.1,3.9,0.4c2,0.3,3.8,0.8,3.8,0.7C78.3,97.4,76.2,96.9,74.2,96.5"
						/>
				</g>
			</g>
		</g>
		<g>
			
				<radialGradient id="SVGID_3_" cx="-0.1858" cy="249.7312" r="0.2066" gradientTransform="matrix(349.0807 0 0 356.8813 184.1798 -88950.0391)" gradientUnits="userSpaceOnUse">
				<stop  offset="0" style="stop-color:#D92226"/>
				<stop  offset="0.7418" style="stop-color:#D92226"/>
				<stop  offset="1" style="stop-color:#E88221"/>
			</radialGradient>
			<path class="st35" d="M81.9,105.7c-4.5,8.1-6.7,17.2-6.4,26.4c5.3,0.2,11.2,0.2,17.4-0.1c-2.4-8.5-2.8-17.5-1.3-26.2L81.9,105.7z
				"/>
		</g>
		<g>
			
				<radialGradient id="SVGID_4_" cx="-0.1863" cy="249.7334" r="0.2066" gradientTransform="matrix(348.8642 0 0 356.6597 184.2984 -88895.75)" gradientUnits="userSpaceOnUse">
				<stop  offset="0" style="stop-color:#D92226"/>
				<stop  offset="0.7418" style="stop-color:#D92226"/>
				<stop  offset="1" style="stop-color:#E88221"/>
			</radialGradient>
			<path class="st36" d="M77.8,146.1c2.5,8,6.8,15.3,12.7,21.3c2.4,0.5,7.8,1.1,15.7-1c-5.2-5.6-12.5-8.1-17.2-10.6
				c-4.6-2.4-8.4-6.4-10.9-9.6l0.6,0c10.3,11.2,18,7.8,29.5,19.6c1.8-0.6,3.7-1.3,5.7-2.2c-3.8-3.2-7.2-6.8-10.3-10.7
				c-1.8-2.3-3.5-4.7-4.9-7.2l2.5-0.2c1.4,2.4,3,4.7,4.7,7c2.9,3.8,6.2,7.3,9.9,10.3c2.6-1.2,5.3-2.7,8.1-4.6c-4-3.9-5.7-9-5.8-14.5
				C103.6,145.6,89.8,146.4,77.8,146.1"/>
		</g>
		<g>
			
				<radialGradient id="SVGID_5_" cx="-0.1875" cy="249.7303" r="0.2066" gradientTransform="matrix(348.2156 0 0 355.9966 184.4963 -88728.9766)" gradientUnits="userSpaceOnUse">
				<stop  offset="0" style="stop-color:#D92226"/>
				<stop  offset="0.7418" style="stop-color:#D92226"/>
				<stop  offset="1" style="stop-color:#E88221"/>
			</radialGradient>
			<path class="st37" d="M98.4,105.7h-5.6c-1.3,8.8-0.6,17.7,2.1,26.1c5-0.3,10.1-0.7,15.4-1.4l9-13.3l-2.3-8.7l-14.2,1.6l3.3-4.3
				h-0.7v0c-2.5,0-4.8-0.7-6.9-2L98.4,105.7z"/>
		</g>
		<g>
			
				<radialGradient id="SVGID_6_" cx="-0.1904" cy="249.7284" r="0.2066" gradientTransform="matrix(347.4986 0 0 355.2639 185.4288 -88545.4062)" gradientUnits="userSpaceOnUse">
				<stop  offset="0" style="stop-color:#D92226"/>
				<stop  offset="0.7418" style="stop-color:#D92226"/>
				<stop  offset="1" style="stop-color:#E88221"/>
			</radialGradient>
			<path class="st38" d="M122.9,142.9c-0.9,0.1-1.8,0.3-2.7,0.4h0c0.1,5.5,1.7,10.2,5.3,13.8c6.5-4.4,13.7-10.6,21.5-19.1
				C139,139.9,131,141.6,122.9,142.9 M120.2,143.3L120.2,143.3L120.2,143.3"/>
		</g>
		<g>
			
				<radialGradient id="SVGID_7_" cx="-0.1893" cy="249.7322" r="0.2066" gradientTransform="matrix(348.1237 0 0 355.9027 185.2348 -88706.4062)" gradientUnits="userSpaceOnUse">
				<stop  offset="0" style="stop-color:#D92226"/>
				<stop  offset="0.7418" style="stop-color:#D92226"/>
				<stop  offset="1" style="stop-color:#E88221"/>
			</radialGradient>
			<path class="st39" d="M105.3,169.7c-5.9,1.5-9.8,1-12.3,0.1c5.2,4.6,11.3,8.1,17.9,10.3c1.4-3.8,0.4-7.9-2.4-11.2
				C107.5,169.2,106.4,169.5,105.3,169.7"/>
		</g>
		<g>
			
				<radialGradient id="SVGID_8_" cx="-0.1857" cy="249.7315" r="0.2066" gradientTransform="matrix(348.8333 0 0 356.6281 183.9961 -88887)" gradientUnits="userSpaceOnUse">
				<stop  offset="0" style="stop-color:#D92226"/>
				<stop  offset="0.7418" style="stop-color:#D92226"/>
				<stop  offset="1" style="stop-color:#E88221"/>
			</radialGradient>
			<path class="st40" d="M163.4,118.7c3.3-1.1,6.6-2.4,9.8-3.8c-1.2-3.4-2.7-6.7-4.5-9.9C168,107.6,166.4,112.6,163.4,118.7"/>
		</g>
		<g>
			
				<radialGradient id="SVGID_9_" cx="-0.1859" cy="249.7328" r="0.2066" gradientTransform="matrix(348.6052 0 0 356.395 184.0086 -88829.4297)" gradientUnits="userSpaceOnUse">
				<stop  offset="0" style="stop-color:#D92226"/>
				<stop  offset="0.7418" style="stop-color:#D92226"/>
				<stop  offset="1" style="stop-color:#E88221"/>
			</radialGradient>
			<path class="st41" d="M152.4,136.5c-4.4,5.7-9.4,10.9-15,15.5c-2.9,2.6-6.1,5-9.3,7.1c12.3,8.4,30.9-0.4,45.6-12.3
				c1.8-6,2.5-12.2,2.1-18.3C168.2,131.8,160.4,134.4,152.4,136.5 M152.4,136.6L152.4,136.6C152.4,136.5,152.4,136.6,152.4,136.6"/>
		</g>
		<g>
			
				<radialGradient id="SVGID_10_" cx="-0.1895" cy="249.7296" r="0.2066" gradientTransform="matrix(347.7763 0 0 355.5475 185.1512 -88616.6328)" gradientUnits="userSpaceOnUse">
				<stop  offset="0" style="stop-color:#D92226"/>
				<stop  offset="0.7418" style="stop-color:#D92226"/>
				<stop  offset="1" style="stop-color:#E88221"/>
			</radialGradient>
			<path class="st42" d="M126.5,160.3c-2.6,1.6-5.3,3.2-8,4.5c10,7.2,21.7,10.5,34.1,10.1c4.7-3,8.8-6.7,12.3-11
				c4-4.9,7-10.6,8.9-16.6C166.6,153.7,143.5,172.4,126.5,160.3"/>
		</g>
		<g>
			
				<radialGradient id="SVGID_11_" cx="-0.1899" cy="249.7295" r="0.2066" gradientTransform="matrix(347.7077 0 0 355.4775 185.3177 -88599.1484)" gradientUnits="userSpaceOnUse">
				<stop  offset="0" style="stop-color:#D92226"/>
				<stop  offset="0.7418" style="stop-color:#D92226"/>
				<stop  offset="1" style="stop-color:#E88221"/>
			</radialGradient>
			<path class="st43" d="M112.3,167.3c-0.7,0.3-1.4,0.5-2,0.8c4.8,6.3,3.5,11.2,2.6,12.5c13.3,3.7,27.5,1.7,39.3-5.5
				c-4,0.8-19.2,2.7-35.6-9.5C115.2,166.3,113.7,166.8,112.3,167.3"/>
		</g>
		<g>
			
				<radialGradient id="SVGID_12_" cx="-0.1886" cy="249.7307" r="0.2066" gradientTransform="matrix(347.9286 0 0 355.7034 184.8421 -88656.0156)" gradientUnits="userSpaceOnUse">
				<stop  offset="0" style="stop-color:#D92226"/>
				<stop  offset="0.7418" style="stop-color:#D92226"/>
				<stop  offset="1" style="stop-color:#E88221"/>
			</radialGradient>
			<path class="st44" d="M158.7,101.4c0,5.4-3.1,9.6-9.2,12.6c-8.7,4.1-17.4,8.1-26.1,12.1c-0.3,0.9-0.6,1.8-0.9,2.7
				c-0.3,0.1-0.6,0.1-1,0.2c13.5-2.2,26.3-5.2,37.5-8.7c3.1-5.6,5.8-11.4,8.1-17.4l-0.3-0.4C164.1,102.7,161.3,102.4,158.7,101.4
				L158.7,101.4 M121.2,128.9l0.4-0.1L121.2,128.9"/>
		</g>
		<g>
			
				<radialGradient id="SVGID_13_" cx="-0.1752" cy="249.7217" r="0.2066" gradientTransform="matrix(352.0883 0 0 352.0883 180.9763 -87750.4297)" gradientUnits="userSpaceOnUse">
				<stop  offset="0" style="stop-color:#D92226"/>
				<stop  offset="0.7418" style="stop-color:#D92226"/>
				<stop  offset="1" style="stop-color:#E88221"/>
			</radialGradient>
			<path class="st45" d="M115.2,129.8c1.7-0.2,3.3-0.5,5-0.7c0.2-0.6,0.4-1.2,0.6-1.8L115.2,129.8"/>
		</g>
		<g>
			<defs>
				<rect id="SVGID_14_" x="9.3" y="45" width="231.3" height="160"/>
			</defs>
			<clipPath id="SVGID_15_">
				<use xlink:href="#SVGID_14_"  style="overflow:visible;"/>
			</clipPath>
			<g transform="matrix(6.91287 0 0 -6.91287 -390.402 803.407)" class="st46">
				<g>
					<path class="st47" d="M65.6,92.3c0,0,0,0.1,0,0.1c0,0,0,0,0,0.1l0.1,0.1c0-0.1,0-0.1,0-0.2c0-0.1,0-0.1,0-0.2
						c0,0,0.1-0.1,0.1-0.1c0,0,0.1,0,0.1,0c0.1,0,0.1,0.1,0.1,0.2l0,0.2c0,0.1,0,0.1,0,0.2c0,0.1,0.1,0.1,0.1,0.1c0.1,0,0.2,0,0.2,0
						c0.1,0,0.1-0.1,0.2-0.2c0-0.1,0.1-0.1,0.1-0.1c0,0,0,0,0.1-0.1l-0.1-0.1c0,0,0,0,0,0c0,0,0,0,0,0c0,0,0,0.1-0.1,0.1
						c-0.1,0.1-0.1,0.2-0.2,0.2c0,0-0.1,0-0.1-0.1c0,0,0-0.1,0-0.1l0-0.1c0-0.1,0-0.2,0-0.2c0-0.1-0.1-0.1-0.2-0.2
						c-0.1,0-0.2-0.1-0.3,0c-0.1,0-0.2,0.1-0.2,0.2C65.6,92.2,65.6,92.3,65.6,92.3"/>
				</g>
				<g>
					<path class="st47" d="M66,91.5c0,0.1,0,0.1,0.1,0.2c0.1,0.1,0.1,0.1,0.3,0.2l0.5,0.3c0,0,0,0,0,0c0,0,0,0,0,0l0.1-0.1l-0.5-0.3
						c-0.1,0-0.1-0.1-0.2-0.1c0,0-0.1-0.1-0.1-0.1c0,0,0-0.1,0-0.1c0,0,0.1-0.1,0.1-0.1c0,0,0.1,0,0.1,0c0.1,0,0.1,0.1,0.2,0.1
						l0.4,0.2c0,0,0.1,0,0.1,0.1c0,0,0,0,0.1,0c0,0,0,0,0,0l0.1-0.1c-0.1,0-0.1,0-0.2-0.1l-0.4-0.2c-0.1-0.1-0.2-0.1-0.3-0.1
						c-0.1,0-0.1,0-0.2,0c-0.1,0-0.1,0.1-0.2,0.2C66.1,91.3,66,91.4,66,91.5"/>
				</g>
				<g>
					<path class="st47" d="M66.6,90.6C66.6,90.6,66.6,90.6,66.6,90.6l0.7,0.9c0,0,0,0,0,0c0,0,0,0,0.1,0l0.1-0.1L67,90.7l-0.1-0.2
						l0,0l0.2,0.1l0.6,0.3c0,0,0,0,0,0c0,0,0,0,0,0l0.1-0.1c0,0,0,0,0,0c0,0,0,0,0,0l-0.5-0.5L67.2,90l0.2,0.1l0.6,0.3
						c0,0,0,0,0.1,0c0,0,0,0,0,0l0.1-0.1c0,0,0,0-0.1,0c0,0,0,0-0.1,0l-0.9-0.5c0,0,0,0,0,0c0,0,0,0,0,0L67.1,90c0,0,0,0,0,0
						c0,0,0,0,0,0l0.6,0.7l-0.8-0.5c0,0,0,0-0.1,0c0,0,0,0,0,0L66.6,90.6C66.6,90.5,66.6,90.5,66.6,90.6"/>
				</g>
				<g>
					<path class="st47" d="M68.1,89.3c0,0,0.1,0,0.1,0c0.1,0,0.1,0.1,0.2,0.2c0.1,0.1,0.1,0.2,0.2,0.2c0,0.1,0,0.1,0,0.1
						c0,0,0,0.1-0.1,0.1c0,0-0.1,0.1-0.1,0.1c0,0-0.1,0-0.1,0c-0.1,0-0.1-0.1-0.2-0.2c-0.1-0.1-0.1-0.1-0.2-0.2c0-0.1,0-0.1,0-0.1
						c0,0,0-0.1,0.1-0.1C68,89.3,68,89.3,68.1,89.3 M67.7,89.5c0,0.1,0.1,0.3,0.2,0.4c0.1,0.1,0.3,0.2,0.4,0.3c0.1,0,0.2,0,0.4-0.1
						c0.1-0.1,0.2-0.2,0.2-0.3c0-0.1-0.1-0.3-0.2-0.4c-0.1-0.1-0.3-0.2-0.4-0.3c-0.1,0-0.2,0-0.4,0.1C67.7,89.3,67.7,89.4,67.7,89.5
						"/>
				</g>
				<g>
					<path class="st47" d="M69.2,89.6l0.1-0.1c0,0,0-0.1,0-0.1l-0.2-0.9l0.1,0.2l0.3,0.5c0,0,0.1,0.1,0.1,0.1c0,0,0,0,0,0
						c0,0,0,0,0,0l0.1-0.1c0,0-0.1-0.1-0.1-0.1l-0.5-0.7c0-0.1-0.1-0.1-0.1,0l-0.1,0.1c0,0,0,0.1,0,0.1l0.2,0.9
						c0-0.1-0.1-0.1-0.1-0.2l-0.4-0.6c0,0,0,0-0.1,0l-0.1,0.1l0.6,0.9C69.1,89.6,69.1,89.6,69.2,89.6"/>
				</g>
				<g>
					<path class="st47" d="M70.4,88.8l0.1-0.1l-0.2-0.5l0.5,0.3c0,0,0,0,0.1,0c0,0,0,0,0.1,0l0.2-0.1c0,0,0,0-0.1,0c0,0-0.1,0-0.1,0
						l-0.5-0.3l0.1-0.7l-0.2,0.1c0,0,0,0,0,0c0,0,0,0,0,0l-0.1,0.6L70,87.8c0,0,0,0-0.1,0l-0.1,0.1L70.4,88.8
						C70.3,88.8,70.3,88.8,70.4,88.8"/>
				</g>
				<g>
					<path class="st47" d="M70.9,88.3l0,0.1c0,0,0,0,0.1,0l0.6-0.2c0,0,0.1,0,0.1,0c0,0,0,0,0.1,0l-0.1-0.1c0,0,0,0,0,0
						c0,0,0,0-0.1,0c0,0-0.1,0-0.1,0l-0.1,0l-0.3-0.9c0,0,0,0-0.1,0l-0.1,0.1l0.4,0.9L70.9,88.3z"/>
				</g>
				<g>
					<path class="st47" d="M72.7,87.5c0,0,0.1,0.1,0.1,0.1c0,0.1,0,0.1,0,0.1c0,0-0.1,0.1-0.1,0.1c0,0,0,0,0,0l0,0l0,0l-0.1-0.3
						l0.1,0C72.6,87.5,72.6,87.5,72.7,87.5 M72.6,87c0,0,0.1,0.1,0.1,0.1c0,0.1,0,0.1,0,0.1c0,0-0.1,0.1-0.1,0.1l-0.2,0L72.3,87
						c0,0,0.1,0,0.2,0C72.5,87,72.5,87,72.6,87 M72.2,86.9c-0.1,0-0.1,0-0.2,0.1l0.3,1.1c0.1,0,0.2,0,0.3-0.1c0.1,0,0.2-0.1,0.3-0.1
						c0.1-0.1,0.1-0.2,0-0.3c0-0.1,0-0.1-0.1-0.1c0,0-0.1-0.1-0.1-0.1c0,0,0.1-0.1,0.1-0.1c0-0.1,0-0.1,0-0.2c0-0.1-0.1-0.2-0.2-0.2
						c-0.1,0-0.2,0-0.3,0C72.3,86.8,72.3,86.8,72.2,86.9"/>
				</g>
				<g>
					<path class="st47" d="M73.5,87.6l-0.2-0.5l0.3,0L73.5,87.6z M73.8,86.6C73.8,86.6,73.7,86.6,73.8,86.6
						C73.7,86.6,73.7,86.7,73.8,86.6l-0.1,0.3l-0.4,0l-0.1-0.2c0,0,0,0,0,0c0,0,0,0,0,0l-0.1,0l0.5,1c0,0,0,0,0,0c0,0,0,0,0.1,0
						l0.1,0c0,0,0,0,0.1,0c0,0,0,0,0-0.1l0.2-1.1L73.8,86.6z"/>
				</g>
				<g>
					<path class="st47" d="M74.2,86.6c0,0-0.1,0-0.1,0c0,0,0,0,0,0.1l0,0.1c0,0,0.1,0,0.1-0.1c0.1,0,0.1,0,0.2,0c0.1,0,0.1,0,0.2,0
						c0,0,0.1,0.1,0.1,0.1c0,0.1,0,0.1-0.1,0.2l-0.1,0.1c-0.1,0-0.1,0.1-0.2,0.1c0,0.1-0.1,0.1,0,0.2c0,0.1,0,0.2,0.1,0.2
						c0.1,0,0.2,0.1,0.3,0.1c0.1,0,0.1,0,0.1,0c0,0,0.1,0,0.1,0l0-0.1c0,0,0,0,0,0c0,0,0,0-0.1,0c0,0-0.1,0-0.1,0
						c-0.2,0-0.2,0-0.3-0.1c0,0,0-0.1,0-0.1c0,0,0.1-0.1,0.1-0.1l0.1-0.1c0.1,0,0.1-0.1,0.2-0.1c0-0.1,0.1-0.1,0.1-0.2
						c0-0.1,0-0.2-0.1-0.2c-0.1-0.1-0.2-0.1-0.3-0.1C74.3,86.6,74.3,86.6,74.2,86.6"/>
				</g>
				<g>
					<path class="st47" d="M75,87.7l0.2,0l0-0.5l0.3,0.5c0,0,0,0,0.1,0.1c0,0,0,0,0.1,0l0.2,0c0,0,0,0,0,0c0,0,0,0,0-0.1l-0.3-0.5
						l0.4-0.6l-0.2,0c0,0,0,0,0,0c0,0,0,0,0,0l-0.4,0.5l0-0.5c0,0,0,0,0,0l-0.2,0L75,87.7C74.9,87.7,74.9,87.7,75,87.7"/>
				</g>
				<g>
					<path class="st47" d="M76,86.8l-0.2,0.9c0,0.1,0,0.1,0.1,0.1l0.4,0.1c0.1,0,0.2,0,0.2,0.1l0-0.1c0,0,0,0,0,0c0,0,0,0-0.1,0
						c0,0-0.1,0-0.1,0l-0.2,0c0,0,0,0,0,0c0,0,0,0,0,0l0-0.3l0.5,0.1l0-0.1c0,0,0,0,0-0.1l-0.4-0.1l0.1-0.3c0,0,0,0,0,0c0,0,0,0,0,0
						l0.3,0.1c0.1,0,0.1,0,0.2,0.1l0-0.1c0,0,0,0,0,0c0,0,0,0-0.1,0c0,0-0.1,0-0.1,0l-0.4-0.1C76,86.7,76,86.7,76,86.8"/>
				</g>
				<g>
					<path class="st47" d="M76.6,87.8l0,0.1c0,0,0,0,0,0.1l0.6,0.2c0,0,0.1,0,0.1,0c0,0,0,0,0.1,0l0-0.1c0,0,0,0,0,0c0,0,0,0-0.1,0
						c0,0-0.1,0-0.1,0l-0.1,0l0.2-0.9c0,0,0,0,0-0.1l-0.1,0l-0.3,0.9L76.6,87.8z"/>
				</g>
				<g>
					<path class="st47" d="M78.3,87.5c0,0,0,0.1,0,0.2c0,0.1-0.1,0.1-0.1,0.1c-0.1,0-0.1,0-0.2,0l-0.2-0.1l0.1-0.3
						c0,0,0.1,0,0.1,0.1C78.2,87.4,78.2,87.4,78.3,87.5 M78.1,88c0,0,0,0.1,0,0.1c0,0.1,0,0.1-0.1,0.1c0,0-0.1,0-0.2,0c0,0,0,0,0,0
						l0,0c0,0,0,0,0,0l0.1-0.3l0.1,0C78,87.9,78,87.9,78.1,88 M78.1,87.2c-0.1,0-0.1,0-0.2-0.1l-0.4,1.1c0,0,0.1,0,0.2,0.1
						c0.1,0,0.1,0.1,0.1,0.1c0.1,0,0.2,0.1,0.3,0c0.1,0,0.1-0.1,0.2-0.2c0,0,0-0.1,0-0.2c0,0,0-0.1-0.1-0.1c0.1,0,0.2-0.1,0.2-0.2
						c0-0.1,0-0.2,0-0.3c0-0.1-0.1-0.1-0.2-0.2C78.2,87.2,78.1,87.2,78.1,87.2"/>
				</g>
				<g>
					<path class="st47" d="M78.7,88.5l0.1-0.5l0.3,0.1L78.7,88.5z M79.5,87.8C79.5,87.8,79.4,87.8,79.5,87.8c-0.1,0-0.1,0-0.1,0
						L79.2,88l-0.3-0.2l0-0.3c0,0,0,0,0,0c0,0,0,0,0,0l-0.1-0.1l-0.2,1.1c0,0,0,0,0,0.1c0,0,0,0,0,0l0.1,0c0,0,0,0,0.1,0
						c0,0,0,0,0,0L79.5,87.8L79.5,87.8z"/>
				</g>
				<g>
					<path class="st47" d="M79.7,88.1l-0.5,0.8c0,0,0,0,0,0.1l0.1,0.1l0.5-0.8c0,0,0,0,0,0c0,0,0,0,0,0l0.2,0.2
						c0.1,0,0.1,0.1,0.1,0.1l0.1-0.1c0,0,0,0,0,0c0,0,0,0,0,0c0,0-0.1,0-0.1-0.1l-0.3-0.2C79.8,88,79.8,88,79.7,88.1"/>
				</g>
				<g>
					<path class="st47" d="M80.5,88.6l-0.6,0.8c0,0,0,0,0,0.1l0.1,0.1l0.6-0.7c0,0,0,0,0,0c0,0,0,0,0,0l0.2,0.2
						c0.1,0.1,0.1,0.1,0.1,0.1L81,89c0,0,0,0,0,0c0,0,0,0,0,0c0,0-0.1-0.1-0.1-0.1l-0.3-0.2C80.6,88.5,80.5,88.5,80.5,88.6"/>
				</g>
				<g>
					<path class="st47" d="M81.5,89.5c-0.1,0-0.3,0.1-0.4,0.2C81.1,89.8,81,89.9,81,90c0,0.1-0.1,0.2,0,0.3c0,0.1,0.1,0.2,0.1,0.3
						c0,0,0.1,0.1,0.1,0.1c0,0,0,0.1,0,0.1l0.1-0.1c0,0,0,0,0,0c0,0,0,0,0-0.1c0,0-0.1-0.1-0.1-0.1c-0.1-0.1-0.1-0.1-0.1-0.2
						c0-0.1,0.1-0.2,0.2-0.3c0.2-0.2,0.4-0.2,0.5-0.1c0.1,0.1,0.1,0.2,0.2,0.2l0.1-0.1c0,0,0,0,0,0c0,0,0,0,0,0c0,0,0-0.1-0.1-0.1
						c0,0-0.1-0.1-0.1-0.1C81.8,89.6,81.7,89.5,81.5,89.5"/>
				</g>
				<g>
					<path class="st47" d="M82.2,90.1l-0.8,0.6c0,0,0,0,0,0.1l0.1,0.1l0.7-0.6c0,0,0,0,0,0c0,0,0,0,0,0l0.2,0.2
						c0.1,0.1,0.1,0.1,0.1,0.2l0.1-0.1c0,0,0,0,0,0c0,0,0,0,0-0.1c0,0,0-0.1-0.1-0.1l-0.3-0.3C82.3,90.1,82.2,90.1,82.2,90.1"/>
				</g>
				<g>
					<path class="st47" d="M82.9,91c-0.1,0-0.1,0-0.2,0c-0.1,0-0.2,0.1-0.3,0.1l-0.5,0.3c0,0,0,0,0,0c0,0,0,0,0,0l0.1,0.1l0.5-0.3
						c0.1-0.1,0.2-0.1,0.2-0.1c0,0,0.1,0,0.1,0c0,0,0.1,0,0.1,0.1c0,0,0,0.1,0,0.1c0,0,0,0.1-0.1,0.1c-0.1,0.1-0.1,0.1-0.2,0.1
						l-0.3,0.2c0,0-0.1,0-0.1,0.1c0,0,0,0,0,0c0,0,0,0,0,0l0.1,0.1c0,0,0.1-0.1,0.1-0.1l0.4-0.2c0.1-0.1,0.2-0.2,0.3-0.2
						c0-0.1,0.1-0.1,0.1-0.2c0-0.1,0-0.1-0.1-0.2C83,91.1,82.9,91,82.9,91"/>
				</g>
				<g>
					<path class="st47" d="M83.5,92.3c0,0,0,0.1-0.1,0.1c-0.1,0-0.1,0-0.1,0c0,0-0.1-0.1-0.1-0.1L83,92.2l0.3-0.2c0,0,0,0.1,0.1,0.1
						C83.5,92.2,83.5,92.3,83.5,92.3 M83,92.5c0,0,0,0.1-0.1,0.1c0,0-0.1,0-0.1,0c0,0-0.1-0.1-0.1-0.1c0,0,0,0,0,0c0,0,0,0,0,0
						c0,0,0,0,0,0l0.3-0.1l0.1,0.1C83,92.4,83,92.5,83,92.5 M83.5,91.9c0-0.1-0.1-0.1-0.1-0.2l-1,0.5c0,0.1,0.1,0.2,0.1,0.3
						c0.1,0.1,0.1,0.2,0.2,0.2c0.1,0,0.2,0,0.3,0c0,0,0.1-0.1,0.1-0.1c0,0,0-0.1,0-0.1c0,0,0.1,0.1,0.1,0.1c0.1,0,0.1,0,0.2,0
						c0.1-0.1,0.2-0.1,0.2-0.2c0-0.1,0-0.2-0.1-0.3C83.6,92,83.5,92,83.5,91.9"/>
				</g>
			</g>
		</g>
	</g>
</g>
<g id="레이어_1">
	<rect x="8" y="8" class="st48" width="234" height="234"/>
</g>
</svg>
