<?xml version="1.0" encoding="utf-8"?>
<!-- Generator: Adobe Illustrator 25.1.0, SVG Export Plug-In . SVG Version: 6.00 Build 0)  -->
<svg version="1.1" id="Layer_1" xmlns="http://www.w3.org/2000/svg" xmlns:xlink="http://www.w3.org/1999/xlink" x="0px" y="0px"
	 viewBox="0 0 250 250" style="enable-background:new 0 0 250 250;" xml:space="preserve">
<style type="text/css">
	.st0{fill:#064B07;fill-opacity:0;}
	.st1{fill:#00205B;}
	.st2{fill:#B5B5B6;}
	.st3{fill:url(#SVGID_1_);}
	.st4{fill:#005226;}
	.st5{fill:#FFFFFF;}
	.st6{fill:#007F41;}
	.st7{fill:#001A54;}
	.st8{fill:#008F43;}
	.st9{fill:#E9470A;}
	.st10{fill:none;}
</style>
<g id="Layer_1_1_">
	<g>
		<path class="st0" d="M35.3,34.8h179.4v180.4H35.3V34.8z"/>
		<g transform="matrix(4.21137 0 0 -4.21137 -730.137 2392.049)">
			<path class="st1" d="M182.9,538.3c0,11.1,9,20.2,20.2,20.2s20.2-9,20.2-20.2c0-11.1-9-20.2-20.2-20.2
				C191.9,518.2,182.9,527.2,182.9,538.3"/>
			<path class="st2" d="M203,559.2c-5.6,0-10.8-2.1-14.8-6.1c-4-4-6.1-9.2-6.1-14.8c0-5.6,2.1-10.8,6.1-14.8c4-4,9.2-6.1,14.8-6.1
				s10.8,2.1,14.8,6.1c4,4,6.1,9.2,6.1,14.8c0,5.6-2.1,10.8-6.1,14.8C213.8,557.1,208.6,559.2,203,559.2 M203,558.5
				c11.1,0,20.2-9,20.2-20.2c0-11.1-9-20.2-20.2-20.2s-20.2,9-20.2,20.2C182.9,549.4,191.9,558.5,203,558.5"/>
		</g>
		
			<radialGradient id="SVGID_1_" cx="0.1604" cy="-0.1522" r="0.1857" gradientTransform="matrix(426.8806 0 0 -426.8806 56.4275 59.9585)" gradientUnits="userSpaceOnUse">
			<stop  offset="0" style="stop-color:#009633"/>
			<stop  offset="5.133240e-02" style="stop-color:#009633"/>
			<stop  offset="1" style="stop-color:#005226"/>
		</radialGradient>
		<path class="st3" d="M45.6,124.9c0,43.7,35.6,79.3,79.3,79.3s79.3-35.5,79.3-79.3c0-43.7-35.6-79.3-79.3-79.3
			S45.6,81.2,45.6,124.9"/>
		<path class="st4" d="M197.1,122c-5-4.7-11-6.8-17.9-6.2c-1.7-5.2-3.8-10.3-6.4-15.2c6.1-1.5,12.3-2.7,18.6-3.7
			c-0.6-1.5-1.3-3-2.1-4.5c-6.4,1.1-12.6,2.4-18.9,3.8c-2.5-4.4-5.1-8.4-8-12c0.7-0.4,1.4-0.8,2-1.4c3.7-2.8,7.1-7.1,6.4-13.8
			c-2-1.7-4.1-3.3-6.3-4.8c2.9,6.3,1.9,11-3,14.7c-0.7,0.5-1.4,1-2.1,1.4c-13.7-16.1-29.7-24.1-44-28.1c-4.1,0.5-8,1.2-12,2.4
			c15.4,2.2,35,9.1,51.4,27.6c-7.1,2.1-15.3,1.1-22.8-0.2c-1.2-0.2-2.5-0.5-3.8-0.7c-14.9-2.5-30.3-5.2-45-1.1
			c-9.8,2.7-19.3,8.7-26.9,16.6c-1.8,4.2-3.1,8.5-4.1,13C59.9,98,72.1,88.4,84.7,85c13.7-3.8,28.6-1.1,42.9,1.5
			c1.3,0.2,2.5,0.5,3.8,0.7c9.2,1.6,18.6,2.5,26.8-0.5c2.6,3.3,5.1,7,7.5,11c-10.3,2.7-20.3,5.9-30.2,9.7
			c-29.9,11.5-56.3,27.5-78.5,47.6c0.7,1.5,1.4,3,2.1,4.4c37-33.9,79.3-50,108.9-57.5c0.1,0.2,0.2,0.3,0.2,0.5
			c2.5,4.6,4.5,9.4,6.1,14.4c-11.3,3.5-19,16.7-27.7,31.8c-10.4,18-22.2,38.3-43.1,47.1c2.5,0.7,4.9,1.3,7.4,1.7
			c18.9-10.3,29.9-29.4,39.8-46.4c8.2-14.2,15.4-26.6,25-29.6c4.8,17.6,4.4,36.6-1.1,56.7c2.4-2.3,4.7-4.8,6.7-7.4
			c1.9-9.3,2.8-18.4,2.5-27.2c-0.2-7.9-1.4-15.5-3.3-22.9c6.6-0.3,12,2.5,16.5,8.7c0.1-1.3,0.1-2.6,0.1-3.9
			C197.2,124.2,197.2,123.1,197.1,122"/>
		<path class="st5" d="M86.3,73.3l-2.4,1.8l4.7,6l2.4-1.8L86.3,73.3z M92.7,80.5l-4.6,3.6l-7.2-9.2l4.6-3.6l2.1,0.2l5.4,6.9
			L92.7,80.5z"/>
		<path class="st5" d="M99.7,70.7l-2.8,1.4l1.3,2.6l2.7-1.4L99.7,70.7z M97.6,66.5l-2.7,1.4l1.2,2.5l2.7-1.4L97.6,66.5z M102.5,74.9
			l-5.2,2.6L92,67l5.2-2.6l2,0.7l1.5,3l-0.4,1.2l1.2,0.4l1.6,3.2L102.5,74.9z"/>
		<path class="st5" d="M118,60.8l-3,0.4l0.4,3.1l3-0.4L118,60.8z M119.3,65.9l-3.7,0.5l0.6,4.4l-2.1,0.3l-1.5-11.6l5.7-0.8L120,60
			l0.5,4.2L119.3,65.9z"/>
		<path class="st5" d="M131.1,60.8l-3-0.2l-0.2,3l3,0.2L131.1,60.8z M130.6,70.4l-1.5-4.6l-1.4-0.1l-0.3,4.5l-2.1-0.2l0.8-11.7
			l5.7,0.4l1.4,1.5l-0.3,4.2l-1.5,1.4l1.5,4.6L130.6,70.4z"/>
		<path class="st5" d="M143.8,63.3l-2.9-0.8l-2.1,7.4l2.9,0.8L143.8,63.3z M141.8,72.8l-4.2-1.1l-1-1.8l2.4-8.4l1.8-1l4.2,1.1l1,1.8
			l-2.4,8.4L141.8,72.8z"/>
		<path class="st5" d="M154.4,78.6l-1.8-1l2.8-5.4l-3.4,2.9l-0.9-0.5l0.5-4.4l-2.9,5.4l-1.8-1l5.5-10.3l1.7,0.9l-0.7,6.2l4.8-4
			l1.7,0.9L154.4,78.6z"/>
		<path class="st5" d="M164.2,80.2l-3.1,3.7l-1.6-1.4l3.1-3.7l1.9-7.4l1.9,1.6l-1.5,4.8l4.4-2.3l1.8,1.5L164.2,80.2z"/>
		<path class="st5" d="M70.5,149.8l-0.8-2l-2.1,0.9l0.8,2L70.5,149.8z M67.4,151.7l-1.1-2.4l-2.9,1.3l-0.6-1.4l7.6-3.3l1.6,3.8
			l-0.5,1.4l-2.8,1.2L67.4,151.7z"/>
		<path class="st5" d="M74.5,157l-1.1-1.8l-1.8,1.1l1.1,1.8L74.5,157z M68.7,160.6l2.1-2.8l-0.5-0.8l-2.8,1.7l-0.8-1.3l7.1-4.3
			l2.1,3.5l-0.4,1.5l-2.6,1.6l-1.5-0.4l-2.1,2.8L68.7,160.6z"/>
		<path class="st5" d="M79.2,163.4l-1.4-1.7l-4.2,3.4l1.4,1.7L79.2,163.4z M74.2,168.2l-1.9-2.4l0.2-1.5l4.8-3.9l1.5,0.2l1.9,2.4
			l-0.2,1.5l-4.8,3.9L74.2,168.2z"/>
		<path class="st5" d="M88.8,172.6l-1.7-1.3l-1.2,1.5l1.7,1.3L88.8,172.6z M86.8,175.2l-1.7-1.3l-1.3,1.6l1.7,1.3L86.8,175.2z
			 M85,178.3l-3.2-2.5l5.1-6.5l3.2,2.5l0.2,1.5l-1.5,1.9l-0.9,0.1l0.1,0.9l-1.5,2L85,178.3z"/>
		<path class="st5" d="M94.1,177.3l-1.8,1.8l1.1,0.7L94.1,177.3z M92.6,183.2l0.5-2.1l-1.8-1.1l-1.5,1.5l-1.3-0.8l6.3-6l1.1,0.7
			l-2.1,8.4L92.6,183.2z"/>
		<path class="st5" d="M100.6,187l-3.1-1.3l-0.4-0.8l0.3-0.8l3.3,1.4l0.8-1.8l-2.4-1l-0.5-1.4l1.1-2.5l1.4-0.5l3.1,1.3l0.4,0.8
			l-0.3,0.8l-3.3-1.4l-0.7,1.7l2.4,1l0.5,1.4l-1.1,2.7L100.6,187z"/>
		<path class="st5" d="M110.3,189.9l-0.6-4.8l-2.2,1.8l-0.5,2.1l-1.5-0.4l2.1-8l1.5,0.4l-1,3.8l3.8-3.1l1.7,0.5l-2.5,2l0.7,6.1
			L110.3,189.9z"/>
		<path class="st5" d="M115.1,190.8l0.9-8.3l5.1,0.5l-0.2,1.5l-3.6-0.4l-0.2,1.9l2.5,0.3l-0.2,1.5l-2.5-0.3l-0.2,1.9l3.6,0.4
			l-0.2,1.5L115.1,190.8z"/>
		<path class="st5" d="M129.1,184.6l-2.1,0.1l0.2,6.9h-1.5l-0.2-6.9l-2.1,0.1v-1.5l5.8-0.2V184.6z"/>
		<path class="st5" d="M135.8,187.1l-2.1,0.3l0.3,2.1l2.1-0.3L135.8,187.1z M135.3,183.8l-2.1,0.3l0.3,1.9l2.1-0.3L135.3,183.8z
			 M136.8,190.5l-4.1,0.6l-1.3-8.2l4.1-0.6l1.1,0.8l0.4,2.4l-0.5,0.8l0.8,0.5l0.4,2.5L136.8,190.5z"/>
		<path class="st5" d="M142.3,183.1l0.1,2.6l1.2-0.4L142.3,183.1z M145.5,188.2l-1.1-1.8l-2,0.6l0.1,2.1l-1.5,0.5l-0.2-8.7l1.3-0.4
			l4.7,7.3L145.5,188.2z"/>
		<path class="st5" d="M150.1,186.6l-3.4-7.6l1.4-0.6l2.8,6.3l3.1-1.4l0.6,1.3L150.1,186.6z"/>
		<path class="st5" d="M157.6,182.9l-4.3-7.1l1.3-0.8l3.6,5.8l2.8-1.8l0.8,1.2L157.6,182.9z"/>
		<path class="st5" d="M171.9,172.1l-2.1,2l-1.5-0.1l-4.3-4.5V168l2.1-2h1.5l0.3,0.3l-2.5,2.4l3.8,3.9l2.5-2.5l0.3,0.3L171.9,172.1z
			"/>
		<path class="st5" d="M175.1,168.7l-6.4-5.2l0.9-1.1l5.3,4.4l2.1-2.6l1.1,0.9L175.1,168.7z"/>
		<path class="st5" d="M182.4,158.5l-1.6,2.6l-1.5,0.3l-6.2-3.8l0.8-1.3l5.8,3.6l1.1-1.8l-5.8-3.6l0.8-1.3l6.2,3.8L182.4,158.5z"/>
		<path class="st5" d="M183.1,149.3l-0.8,2l1.9,0.8l0.8-2L183.1,149.3z M180,147.9l-0.8,2l1.8,0.8l0.8-2L180,147.9z M186.5,150.3
			l-1.7,3.8l-7.6-3.4l1.7-3.8l1.4-0.5l2.2,1l0.3,0.8l0.8-0.3l2.3,1L186.5,150.3z"/>
		<path class="st5" d="M124.8,49.7c-41.5,0-75.3,33.8-75.3,75.3c0,41.5,33.8,75.3,75.3,75.3c41.5,0,75.3-33.8,75.3-75.3
			S166.4,49.7,124.8,49.7 M124.8,52.6c39.9,0,72.4,32.4,72.4,72.4s-32.4,72.4-72.4,72.4s-72.4-32.4-72.4-72.4S84.9,52.6,124.8,52.6"
			/>
		<path class="st6" d="M145.2,126.1h-40.2v-11.5h40.2V126.1z M147.2,106H97.7c-0.8,0-1.6,0.7-1.6,1.6l0,0v19.7l-2.2,2.9
			c-0.2,0.2-0.2,0.6,0,0.9l0,0l2.2,2.9v18.2c0,0.3,0.3,0.4,0.5,0.2l8.4-7.6v-10.3h40.2l8.3-7.5c0.5-0.4,0.7-0.9,0.7-1.5V113
			c0-0.5-0.2-1.1-0.6-1.5l-5-5C148.2,106.2,147.8,106,147.2,106"/>
		<path class="st7" d="M105.9,125.2h38.5v-9.7h-38.5C105.9,115.5,105.9,125.2,105.9,125.2z M146.2,126.9h-41.9v-13.2h41.9V126.9z
			 M94.6,130.7l2.4,3.1V151l7.2-6.5v-10.8h40.7l8-7.3c0.2-0.2,0.4-0.5,0.4-0.8V113c0-0.3-0.2-0.6-0.3-0.8l-5-5
			c-0.2-0.2-0.5-0.3-0.8-0.3H97.7c-0.4,0-0.7,0.3-0.7,0.7l0,0v20L94.6,130.7z M96.4,153.4c-0.7,0-1.1-0.5-1.1-1.1v-17.9l-2.1-2.6
			c-0.5-0.5-0.5-1.5,0-2l2.1-2.6v-19.5c0-1.4,1.1-2.5,2.5-2.5h49.5c0.8,0,1.5,0.3,2.1,0.8l5,5c0.5,0.5,0.8,1.3,0.8,2.1v12.5
			c0,0.8-0.4,1.6-0.9,2.1l-8.5,7.7h-39.6v9.8l-8.7,7.9C97,153.3,96.7,153.4,96.4,153.4"/>
		<path class="st1" d="M105.1,114c-0.4,0-0.6,0.3-0.6,0.6l0,0v11.5c0,0.4,0.3,0.6,0.6,0.6l0,0h40.2c0.4,0,0.6-0.3,0.6-0.6l0,0v-11.5
			c0-0.4-0.3-0.6-0.6-0.6l0,0H105.1z M96.8,134c0-0.2-0.1-0.3-0.2-0.5l-2.2-2.9l2.2-2.9c0.2-0.2,0.2-0.3,0.2-0.5v-19.8
			c0-0.5,0.5-0.9,0.9-0.9h49.5c0.4,0,0.7,0.2,1,0.4l5,5c0.2,0.2,0.4,0.6,0.4,1v12.5c0,0.4-0.2,0.8-0.5,1l-8.1,7.4h-39.9
			c-0.4,0-0.6,0.3-0.6,0.6l0,0v10l-7.7,7V134z"/>
		<path class="st7" d="M105.1,114.3c-0.2,0-0.3,0.2-0.3,0.3v11.5c0,0.2,0.2,0.3,0.3,0.3h40.2c0.2,0,0.3-0.2,0.3-0.3v-11.5
			c0-0.2-0.2-0.3-0.3-0.3H105.1z M145.2,127.1h-40.2c-0.5,0-1-0.5-1-1v-11.5c0-0.5,0.5-1,1-1h40.2c0.5,0,1,0.5,1,1v11.5
			C146.2,126.6,145.8,127.1,145.2,127.1 M96.9,133.4c0.2,0.2,0.3,0.4,0.3,0.7v16.7l7-6.4v-9.9c0-0.5,0.5-1,1-1h39.8l8-7.2
			c0.2-0.2,0.4-0.5,0.4-0.8V113c0-0.3-0.1-0.5-0.3-0.8l-5-5c-0.2-0.2-0.5-0.3-0.8-0.3H97.7c-0.3,0-0.6,0.3-0.6,0.6v19.8
			c0,0.2-0.1,0.5-0.3,0.7l-2.1,2.7L96.9,133.4z M96.4,152.3V134c0-0.1,0-0.2-0.1-0.2l0,0l-2.4-3.1l2.5-3.1c0.1-0.1,0.1-0.2,0.1-0.2
			v-19.8c0-0.7,0.6-1.3,1.3-1.3h49.4c0.5,0,0.9,0.2,1.2,0.5l5,5c0.3,0.3,0.5,0.8,0.5,1.2v12.5c0,0.5-0.2,1-0.5,1.3l-8.2,7.4h-40.2
			c-0.2,0-0.3,0.2-0.3,0.3l0,0v10.2L96.4,152.3z"/>
		<path class="st6" d="M145.2,137.6v9.9h-39.6l-8.8,8c-0.2,0.2-0.2,0.3,0,0.5c0.1,0.1,0.2,0.1,0.2,0.1h50.2c0.5,0,1.1-0.2,1.5-0.6
			l5-5c0.4-0.4,0.6-0.9,0.6-1.5v-13.3c0-0.5-0.2-1.1-0.6-1.5l-2-2c-0.2-0.2-0.3-0.2-0.5,0L145.2,137.6z"/>
		<path class="st7" d="M98.4,155.2h48.8c0.3,0,0.6-0.2,0.8-0.3l5-5c0.2-0.2,0.3-0.5,0.3-0.8v-13.3c0-0.3-0.2-0.6-0.3-0.8l-1.6-1.6
			l-5.3,4.8v10.3h-40.2L98.4,155.2z M147.2,156.9H96.9c-0.5,0-0.9-0.3-1.1-0.8c-0.2-0.5-0.1-1,0.3-1.3l9.1-8.2h39.2v-9.4l6.2-5.6
			c0.5-0.5,1.1-0.4,1.6,0.1l2,2c0.5,0.5,0.8,1.3,0.8,2.1v13.3c0,0.8-0.3,1.5-0.8,2.1l-5,5C148.7,156.6,148,156.9,147.2,156.9"/>
		<path class="st1" d="M97.8,155.4l8-7.3h39.5c0.4,0,0.6-0.3,0.6-0.6l0,0V138l5.5-5l1.8,1.8c0.2,0.2,0.4,0.6,0.4,1v13.3
			c0,0.4-0.2,0.7-0.4,1l-5,5c-0.2,0.2-0.6,0.4-1,0.4H97.8z"/>
		<path class="st7" d="M98.7,155h48.5c0.3,0,0.5-0.1,0.8-0.3l5-5c0.2-0.2,0.3-0.5,0.3-0.8v-13.3c0-0.3-0.1-0.5-0.3-0.8l-1.5-1.5
			l-5.1,4.7v9.4c0,0.5-0.5,1-1,1H106L98.7,155z M147.2,155.7H96.9l8.8-8h39.5c0.2,0,0.3-0.2,0.3-0.3v-9.7l5.9-5.3l2,2
			c0.3,0.3,0.5,0.8,0.5,1.2V149c0,0.5-0.2,0.9-0.5,1.2l-5,5C148.1,155.6,147.7,155.7,147.2,155.7"/>
		<path class="st6" d="M131.6,160.2h-12.8v-58.3h12.8V160.2z M135,94c-0.4-0.4-0.9-0.6-1.5-0.6h-5.1l-2.9-2.3
			c-0.2-0.2-0.6-0.2-0.9,0l-2.9,2.3h-10.5c-0.8,0-1.6,0.7-1.6,1.6v72.2c0,0.8,0.7,1.6,1.6,1.6h10.5l2.9,2.1c0.2,0.2,0.6,0.2,0.9,0
			l2.9-2.1h4.9c0.6,0,1.1-0.2,1.5-0.6l4.9-4.9c0.4-0.4,0.6-1,0.6-1.5v-60.8c0-0.9-0.4-1.8-1-2.5L135,94z"/>
		<path class="st7" d="M119.7,159.3h11v-56.5h-11V159.3z M132.5,161h-14.6v-60h14.6V161z M111.4,94.2c-0.4,0-0.7,0.3-0.7,0.7v72.3
			c0,0.4,0.3,0.7,0.7,0.7l0,0h10.8l3.1,2.1l3.1-2.1h5.2c0.4,0,0.7-0.2,1-0.4l4.9-4.9c0.2-0.2,0.4-0.6,0.4-0.9v-60.7
			c0-0.7-0.2-1.3-0.8-1.8l-4.6-4.6c-0.2-0.2-0.5-0.3-0.8-0.3h-5.3l-3-2.4l-3,2.4L111.4,94.2z M125.2,171.8c-0.4,0-0.7-0.2-1-0.4
			l-2.6-1.8h-10.3c-1.4,0-2.5-1.1-2.5-2.5V95c0-1.4,1.1-2.5,2.5-2.5h10.2l2.6-2.1c0.5-0.5,1.5-0.5,2.1,0l2.6,2.1h4.8
			c0.8,0,1.5,0.3,2.1,0.8l4.6,4.6c0.8,0.8,1.2,1.9,1.2,3.1v60.7c0,0.8-0.3,1.6-0.9,2.1l-4.9,4.9c-0.6,0.6-1.4,0.9-2.1,0.9h-4.7
			l-2.6,1.8C125.9,171.7,125.5,171.8,125.2,171.8"/>
		<path class="st1" d="M118.8,101.2c-0.4,0-0.6,0.3-0.6,0.6l0,0v58.3c0,0.4,0.3,0.6,0.6,0.6h12.8c0.4,0,0.6-0.3,0.6-0.6v-58.3
			c0-0.4-0.3-0.6-0.6-0.6H118.8z M122.3,168.3c-0.2-0.2-0.3-0.2-0.5-0.2h-10.5c-0.5,0-0.9-0.5-0.9-0.9V95c0-0.5,0.5-0.9,0.9-0.9
			h10.5c0.2,0,0.3-0.1,0.5-0.2l2.9-2.3l2.8,2.3c0.2,0.2,0.3,0.2,0.5,0.2h5.1c0.4,0,0.7,0.2,1,0.4l4.6,4.6c0.5,0.5,0.8,1.2,0.8,2
			v60.7c0,0.5-0.2,0.8-0.5,1.1l-4.9,4.9c-0.3,0.3-0.7,0.5-1.1,0.5h-4.9c-0.2,0-0.3,0.1-0.5,0.2l-2.9,2.2L122.3,168.3z"/>
		<path class="st7" d="M118.8,101.6c-0.2,0-0.3,0.2-0.3,0.3v58.3c0,0.2,0.2,0.3,0.3,0.3h12.8c0.2,0,0.3-0.2,0.3-0.3v-58.3
			c0-0.2-0.2-0.3-0.3-0.3H118.8z M131.6,161.2h-12.8c-0.5,0-1-0.5-1-1v-58.3c0-0.5,0.5-1,1-1h12.8c0.5,0,1,0.5,1,1v58.3
			C132.6,160.7,132.1,161.2,131.6,161.2 M122.5,168c0.2,0.2,2,1.5,2.7,2l2.7-2c0.2-0.2,0.4-0.3,0.7-0.3h4.9c0.3,0,0.6-0.2,0.8-0.4
			l4.9-4.9c0.2-0.2,0.4-0.5,0.4-0.8v-60.6c0-0.6-0.2-1.3-0.7-1.8l-4.6-4.6c-0.2-0.2-0.5-0.3-0.8-0.3h-5.1c-0.2,0-0.5-0.1-0.7-0.3
			l-2.6-2.1l-2.7,2.1c-0.2,0.2-0.5,0.3-0.7,0.3h-10.5c-0.3,0-0.6,0.3-0.6,0.6v72.3c0,0.3,0.3,0.6,0.6,0.6h10.5
			C122.2,167.8,122.4,167.8,122.5,168 M125.3,170.8h-0.2c-0.2,0-0.2,0-3.1-2.3l0,0c-0.1-0.1-0.2-0.1-0.2-0.1h-10.5
			c-0.7,0-1.3-0.6-1.3-1.3V95c0-0.7,0.6-1.3,1.3-1.3h10.5c0.1,0,0.2,0,0.2-0.1l0,0l3.1-2.5l3.1,2.5c0.1,0.1,0.2,0.1,0.2,0.1h5.1
			c0.5,0,0.9,0.2,1.2,0.5l4.6,4.6c0.6,0.6,0.9,1.4,0.9,2.2v60.7c0,0.5-0.2,1-0.5,1.4l-4.9,4.9c-0.4,0.4-0.8,0.5-1.4,0.5h-4.9
			c-0.1,0-0.2,0-0.2,0.1l0,0L125.3,170.8z"/>
		<path class="st8" d="M147.4,123.9h-40.2v-11.5h40.2V123.9z M149.3,103.8H99.8c-0.8,0-1.6,0.7-1.6,1.6l0,0v19.7l-2.2,2.9
			c-0.2,0.2-0.2,0.6,0,0.9l2.2,2.9v18.2c0,0.3,0.3,0.4,0.5,0.2l8.4-7.6v-10.3h40.2l8.3-7.5c0.5-0.4,0.7-0.9,0.7-1.5v-12.5
			c0-0.5-0.2-1.1-0.6-1.5l-5-5C150.4,104.1,149.8,103.8,149.3,103.8"/>
		<path class="st7" d="M107.8,123.4h39.1V113h-39.1V123.4z M147.9,124.5h-41.3v-12.6h41.3V124.5z M99.8,104.5c-0.5,0-1,0.5-1,1v19.9
			l-2.4,3.1c0,0,0,0,0,0.1v0.1l0.1,0.1l2.4,3.1v17.7l7.8-7.1v-10.7h40.5l8.1-7.4c0.3-0.3,0.5-0.7,0.5-1.1v-12.5
			c0-0.4-0.2-0.8-0.5-1.1l-5-5c-0.3-0.3-0.6-0.5-1.1-0.5L99.8,104.5z M98.6,151c-0.5,0-0.8-0.4-0.8-0.8l0,0v-18l-2.1-2.8
			c-0.2-0.2-0.3-0.5-0.3-0.8c0-0.3,0.1-0.6,0.3-0.8l2.1-2.8v-19.5c0-1.1,1-2.1,2.1-2.1h49.5c0.7,0,1.3,0.3,1.8,0.8l5,5
			c0.5,0.5,0.8,1.1,0.8,1.8v12.5c0,0.8-0.3,1.5-0.8,1.9l-8.4,7.7h-39.9v10l-8.6,7.8C98.9,150.9,98.8,151,98.6,151"/>
		<path class="st5" d="M107.2,112c-0.2,0-0.4,0.2-0.4,0.4v11.5c0,0.2,0.2,0.4,0.4,0.4h40.2c0.2,0,0.4-0.2,0.4-0.4v-11.5
			c0-0.2-0.2-0.4-0.4-0.4H107.2z M147.4,124.8h-40.2c-0.5,0-0.8-0.4-0.8-0.8v-11.5c0-0.5,0.4-0.8,0.8-0.8h40.2
			c0.5,0,0.8,0.4,0.8,0.8v11.5C148.2,124.4,147.8,124.8,147.4,124.8 M98.9,131.3c0.2,0.2,0.2,0.4,0.2,0.6v16.9l7.2-6.5v-10
			c0-0.5,0.4-0.8,0.8-0.8H147l8-7.3c0.2-0.2,0.4-0.5,0.4-0.8v-12.5c0-0.3-0.2-0.6-0.3-0.8l-5-5c-0.2-0.2-0.5-0.3-0.8-0.3H99.8
			c-0.4,0-0.7,0.3-0.7,0.7v19.8c0,0.2-0.1,0.5-0.2,0.6l-2.1,2.8L98.9,131.3z M98.6,149.9v-18c0-0.1-0.1-0.2-0.2-0.3l0,0l-2.4-3.1
			l2.4-3.1c0.1-0.1,0.2-0.2,0.2-0.3v-19.7c0-0.6,0.5-1.1,1.1-1.1h49.5c0.5,0,0.8,0.2,1.1,0.5l5,5c0.3,0.3,0.5,0.7,0.5,1.1v12.5
			c0,0.5-0.2,0.9-0.5,1.2l-8.1,7.4h-40c-0.2,0-0.4,0.2-0.4,0.4l0,0v10.1L98.6,149.9z"/>
		<path class="st8" d="M147.4,135.5v9.9h-39.7l-8.8,8c-0.2,0.2-0.2,0.3,0,0.5c0.1,0.1,0.2,0.1,0.2,0.1h50.3c0.5,0,1.1-0.2,1.5-0.6
			l5-5c0.4-0.4,0.6-0.9,0.6-1.5v-13.3c0-0.5-0.2-1.1-0.6-1.5l-2-2c-0.2-0.2-0.3-0.2-0.5,0L147.4,135.5z"/>
		<path class="st7" d="M99.7,153.4h49.6c0.4,0,0.8-0.2,1.1-0.5l5-5c0.3-0.3,0.5-0.6,0.5-1.1v-13.3c0-0.4-0.2-0.8-0.5-1.1l-1.8-1.8
			l-5.6,5.1v10.2h-40L99.7,153.4z M149.3,154.4H99.1c-0.4,0-0.7-0.2-0.8-0.5s-0.1-0.7,0.2-1l9-8.1h39.3v-9.5l6.1-5.5
			c0.4-0.3,0.8-0.3,1.2,0l2,2c0.5,0.5,0.8,1.1,0.8,1.8v13.3c0,0.7-0.3,1.3-0.8,1.8l-5,5C150.7,154.2,150,154.4,149.3,154.4"/>
		<path class="st5" d="M107.2,111.8c-0.4,0-0.6,0.3-0.6,0.6l0,0v11.5c0,0.4,0.3,0.6,0.6,0.6l0,0h40.2c0.4,0,0.6-0.3,0.6-0.6l0,0
			v-11.5c0-0.4-0.3-0.6-0.6-0.6l0,0H107.2z M98.9,131.9c0-0.2-0.1-0.3-0.2-0.5l-2.2-2.9l2.2-2.9c0.2-0.2,0.2-0.3,0.2-0.5v-19.7
			c0-0.5,0.5-0.9,0.9-0.9h49.5c0.4,0,0.7,0.2,1,0.4l5,5c0.2,0.2,0.4,0.6,0.4,1v12.5c0,0.4-0.2,0.8-0.5,1l-8.1,7.4h-39.9
			c-0.4,0-0.6,0.3-0.6,0.6l0,0v10l-7.7,7L98.9,131.9L98.9,131.9z"/>
		<path class="st5" d="M99.9,153.3l8-7.3h39.4c0.4,0,0.6-0.3,0.6-0.6v-9.7l5.5-5l1.8,1.8c0.2,0.2,0.4,0.6,0.4,1v13.3
			c0,0.4-0.2,0.7-0.4,1l-5,5c-0.2,0.2-0.6,0.4-1,0.4L99.9,153.3L99.9,153.3z"/>
		<path class="st5" d="M100.5,153.1h48.8c0.3,0,0.6-0.2,0.8-0.3l5-5c0.2-0.2,0.3-0.5,0.3-0.8v-13.3c0-0.3-0.2-0.6-0.3-0.8l-1.6-1.6
			l-5.3,4.8v9.5c0,0.5-0.4,0.8-0.8,0.8h-39.3L100.5,153.1z M149.3,153.5h-50l8.6-7.7h39.5c0.2,0,0.4-0.2,0.4-0.4v-9.7l5.7-5.2
			l1.9,1.9c0.3,0.3,0.5,0.7,0.5,1.1v13.3c0,0.5-0.2,0.8-0.5,1.1l-5,5C150.1,153.3,149.8,153.5,149.3,153.5"/>
		<path class="st6" d="M106.4,124.1v-10.5h-0.5c-0.4,0-0.6,0.3-0.6,0.6l0,0v11.5c0,0.4,0.3,0.6,0.6,0.6h40.2c0.4,0,0.6-0.3,0.6-0.6
			l0,0v-1H107C106.6,124.7,106.4,124.4,106.4,124.1"/>
		<path class="st6" d="M155.3,109.9l-5-5c-0.2-0.2-0.6-0.4-1-0.4H99.8c-0.5,0-0.9,0.5-0.9,0.9v0.7h49.4c0.4,0,0.7,0.2,1,0.4l5,5
			c0.2,0.2,0.4,0.6,0.4,1V125l0.6-0.6c0.3-0.2,0.5-0.6,0.5-1v-12.5C155.7,110.5,155.5,110.1,155.3,109.9"/>
		<path class="st6" d="M105.2,134v9.4l1.1-1v-9h-0.5C105.5,133.4,105.2,133.7,105.2,134L105.2,134"/>
		<path class="st6" d="M146.5,147.6c0.4,0,0.6-0.3,0.6-0.6l0,0v-1h-38.9l-8,7.3h0.8l6.2-5.7H146.5z"/>
		<path class="st6" d="M96.9,128.8l-0.2-0.3l2.3-2.9v0.4c0,0.2-0.1,0.4-0.2,0.5L96.9,128.8z"/>
		<path class="st6" d="M153.5,131l-5.5,5v0.7l4.4-4l1.8,1.8c0.2,0.2,0.4,0.6,0.4,1v13.3l0,0l0.7-0.7c0.2-0.2,0.4-0.6,0.4-1v-13.3
			c0-0.4-0.2-0.7-0.4-1L153.5,131z"/>
		<path class="st5" d="M107.2,112c-0.2,0-0.4,0.2-0.4,0.4v11.5c0,0.2,0.2,0.4,0.4,0.4h40.2c0.2,0,0.4-0.2,0.4-0.4v-11.5
			c0-0.2-0.2-0.4-0.4-0.4H107.2z M147.4,124.8h-40.2c-0.5,0-0.8-0.4-0.8-0.8v-11.5c0-0.5,0.4-0.8,0.8-0.8h40.2
			c0.5,0,0.8,0.4,0.8,0.8v11.5C148.2,124.4,147.8,124.8,147.4,124.8 M98.9,131.3c0.2,0.2,0.2,0.4,0.2,0.6v16.9l7.2-6.5v-10
			c0-0.5,0.4-0.8,0.8-0.8H147l8-7.3c0.2-0.2,0.4-0.5,0.4-0.8v-12.5c0-0.3-0.2-0.6-0.3-0.8l-5-5c-0.2-0.2-0.5-0.3-0.8-0.3H99.8
			c-0.4,0-0.7,0.3-0.7,0.7v19.8c0,0.2-0.1,0.5-0.2,0.6l-2.1,2.8L98.9,131.3z M98.6,149.9v-18c0-0.1-0.1-0.2-0.2-0.3l0,0l-2.4-3.1
			l2.4-3.1c0.1-0.1,0.2-0.2,0.2-0.3v-19.7c0-0.6,0.5-1.1,1.1-1.1h49.5c0.5,0,0.8,0.2,1.1,0.5l5,5c0.3,0.3,0.5,0.7,0.5,1.1v12.5
			c0,0.5-0.2,0.9-0.5,1.2l-8.1,7.4h-40c-0.2,0-0.4,0.2-0.4,0.4l0,0v10.1L98.6,149.9z"/>
		<path class="st5" d="M100.5,153.1h48.8c0.3,0,0.6-0.2,0.8-0.3l5-5c0.2-0.2,0.3-0.5,0.3-0.8v-13.3c0-0.3-0.2-0.6-0.3-0.8l-1.6-1.6
			l-5.3,4.8v9.5c0,0.5-0.4,0.8-0.8,0.8h-39.3L100.5,153.1z M149.3,153.5h-50l8.6-7.7h39.5c0.2,0,0.4-0.2,0.4-0.4v-9.7l5.7-5.2
			l1.9,1.9c0.3,0.3,0.5,0.7,0.5,1.1v13.3c0,0.5-0.2,0.8-0.5,1.1l-5,5C150.1,153.3,149.8,153.5,149.3,153.5"/>
		<path class="st6" d="M120,100.6h-0.2c-0.4,0-0.6,0.3-0.6,0.6l0,0v22.1h0.8C120,123.3,120,100.6,120,100.6z"/>
		<path class="st6" d="M141.4,160.4c0.2-0.2,0.4-0.6,0.4-1v-5.1h-0.8v6.4L141.4,160.4z"/>
		<path class="st6" d="M120,158V133h-0.8v26.5c0,0.4,0.3,0.6,0.6,0.6l0,0h12.9c0.4,0,0.6-0.3,0.6-0.6v-0.6h-12.3
			C120.4,158.9,120,158.5,120,158"/>
		<path class="st6" d="M141,96.9l-4.6-4.6c-0.2-0.2-0.4-0.3-0.6-0.3l0,0c-0.1,0-0.2,0-0.2,0s0,0-0.1,0h-5c-0.1,0-0.1,0-0.2,0
			c-0.2,0-0.3-0.1-0.5-0.2l-2.7-2.1l-2.8,2.1c-0.2,0.2-0.3,0.2-0.5,0.2c-0.1,0-0.1,0-0.2,0h-10.4c-0.1,0-0.1,0-0.2,0
			c-0.3,0.1-0.5,0.4-0.5,0.7v1.1c0.2-0.1,0.3-0.2,0.5-0.2h9.6c0.2,0,0.3-0.1,0.5-0.2l2.9-2.3l2.8,2.3c0.2,0.2,0.3,0.2,0.5,0.2h5
			c0.4,0,0.7,0.2,1,0.4l4.6,4.6c0.5,0.5,0.8,1.2,0.8,2v2.7h0.8v-4.5C141.8,98.1,141.6,97.5,141,96.9"/>
		<path class="st5" d="M142,154.4h-0.2v5.1c0,0.4-0.2,0.7-0.4,1l-0.5,0.5l-4.4,4.4c-0.2,0.2-0.6,0.4-1,0.4h-4.9
			c-0.2,0-0.5,0.1-0.6,0.2l-2.8,2.1c-0.5-0.4-2.5-2-2.8-2.1c-0.2-0.2-0.4-0.2-0.6-0.2h-10.4c-0.4,0-0.7-0.3-0.7-0.7v-32h-0.5v32
			c0,0.6,0.5,1.1,1.1,1.1H124c0.1,0,0.2,0.1,0.3,0.2l0,0c2.9,2.2,2.9,2.2,3,2.2h0.1l2.9-2.2l0,0c0.1-0.1,0.2-0.2,0.3-0.2h4.9
			c0.5,0,0.9-0.2,1.3-0.5l4.9-4.9c0.3-0.3,0.5-0.8,0.5-1.3v-5.1L142,154.4L142,154.4z"/>
		<path class="st5" d="M134.3,103.3h0.3v-3.5c0-0.5-0.4-0.8-0.8-0.8h-12.8c-0.5,0-0.8,0.4-0.8,0.8v23.6h0.5V99.8
			c0-0.2,0.2-0.4,0.4-0.4h12.8c0.2,0,0.4,0.2,0.4,0.4v3.5H134.3z"/>
		<path class="st5" d="M141.4,96.6l-4.6-4.6c-0.3-0.3-0.7-0.5-1.1-0.5h-5c-0.1,0-0.2-0.1-0.3-0.2l-3-2.4l-3,2.4l0,0
			c-0.1,0.1-0.2,0.2-0.3,0.2h-10.6c-0.6,0-1.1,0.5-1.1,1.1v30.6h0.5V92.8c0-0.3,0.2-0.6,0.5-0.7c0.1,0,0.1,0,0.2,0H124
			c0.1,0,0.1,0,0.2,0c0.2,0,0.3-0.1,0.5-0.2l2.8-2.1l2.7,2.1c0.2,0.2,0.3,0.2,0.5,0.2c0.1,0,0.1,0,0.2,0h5h0.1c0.1,0,0.2,0,0.2,0
			l0,0c0.2,0.1,0.5,0.2,0.6,0.3l4.6,4.6c0.5,0.5,0.8,1.1,0.8,1.8v4.5h0.5v-4.5C142.2,97.9,141.9,97.3,141.4,96.6"/>
		<path class="st5" d="M120,158c0,0.5,0.4,0.8,0.8,0.8h12.8c0.5,0,0.8-0.4,0.8-0.8v-3.5H134v3.5c0,0.2-0.2,0.4-0.4,0.4h-12.8
			c-0.2,0-0.4-0.2-0.4-0.4V133H120C120,133,120,158,120,158z"/>
		<path class="st7" d="M133.7,99.3h-12.8c-0.2,0-0.4,0.2-0.4,0.4v23.6h1v-23h11.7v3h1v-3.5C134.1,99.6,134,99.3,133.7,99.3"/>
		<path class="st7" d="M133.7,154.4h-0.5v3h-11.7v-24.5h-1V158c0,0.2,0.2,0.4,0.4,0.4h12.8c0.2,0,0.4-0.2,0.4-0.4v-3.5H133.7
			L133.7,154.4z"/>
		<path class="st7" d="M133.7,113h-0.5v31.8h1V113H133.7z"/>
		<path class="st7" d="M142.6,154.4h-0.4v5.1c0,0.5-0.2,0.9-0.5,1.3l-4.9,4.9c-0.3,0.3-0.8,0.5-1.3,0.5h-4.9c-0.1,0-0.2,0.1-0.3,0.2
			l0,0l-2.9,2.2h-0.1c-0.1,0-0.1,0-3-2.2l0,0c-0.1-0.1-0.2-0.2-0.3-0.2h-10.5c-0.6,0-1.1-0.5-1.1-1.1l0,0v-32h-1v32
			c0,1.1,1,2.1,2.1,2.1h10.3l2.7,1.9c0.2,0.2,0.5,0.3,0.8,0.3c0.3,0,0.6-0.1,0.8-0.3l2.7-1.9h4.8c0.8,0,1.5-0.3,2-0.8l4.9-4.9
			c0.5-0.5,0.8-1.2,0.8-2v-5.1H142.6L142.6,154.4z"/>
		<path class="st7" d="M142,96l-4.6-4.6c-0.5-0.5-1.1-0.8-1.8-0.8h-4.8l-2.7-2.1c-0.5-0.5-1.1-0.5-1.6,0l-2.7,2.1h-10.3
			c-1.1,0-2.1,1-2.1,2.1v30.6h1V92.8c0-0.6,0.5-1.1,1.1-1.1H124c0.1,0,0.2-0.1,0.3-0.2l0,0l3-2.4l3,2.4c0.1,0.1,0.2,0.2,0.3,0.2h5.1
			c0.5,0,0.8,0.2,1.1,0.5l4.6,4.6c0.5,0.5,0.9,1.3,0.9,2.1v4.5h1v-4.5C143.2,97.7,142.8,96.7,142,96"/>
		<path class="st7" d="M142.6,113h-0.4v31.8h1V113H142.6z"/>
		<path class="st5" d="M133.7,158.9h-0.5v0.6c0,0.4-0.3,0.6-0.6,0.6h-12.8c-0.4,0-0.6-0.3-0.6-0.6V133h-6.5v32
			c0,0.4,0.3,0.7,0.7,0.7h10.5c0.2,0,0.5,0.1,0.6,0.2l2.8,2.1l2.8-2.1c0.2-0.2,0.4-0.2,0.6-0.2h4.9c0.4,0,0.7-0.2,1-0.4l4.4-4.4
			v-6.4h-6.4v3.5C134.6,158.5,134.2,158.9,133.7,158.9"/>
		<path class="st5" d="M140.1,98.7l-4.6-4.6c-0.2-0.2-0.6-0.4-1-0.4h-5c-0.2,0-0.3-0.1-0.5-0.2l-2.8-2.3l-2.9,2.3
			c-0.2,0.2-0.3,0.2-0.5,0.2h-9.6c-0.2,0-0.4,0.1-0.5,0.2v29.5h6.4v-22.2c0-0.4,0.3-0.6,0.6-0.6h0.2v-0.8c0-0.5,0.4-0.8,0.8-0.8
			h12.8c0.5,0,0.8,0.4,0.8,0.8v3.5h6.4v-2.7C140.9,99.9,140.6,99.2,140.1,98.7"/>
		<path class="st5" d="M134.6,144.8h6.4V113h-6.4V144.8z"/>
		<path class="st6" d="M140.9,144.8h0.8V113h-0.8V144.8z"/>
		<path class="st5" d="M134.4,113h-0.2v31.8h0.5V113H134.4z"/>
		<path class="st5" d="M142.1,113h-0.3v31.8h0.5V113H142.1z"/>
		<path class="st7" d="M127.1,83.8l-3.1,2.1c-0.2,0.1-0.3-0.1-0.3-0.2l1.1-3.4c0-0.1,0-0.2-0.1-0.2l-3-2.2c-0.2-0.1-0.1-0.3,0.1-0.3
			h3.7c0.1,0,0.2-0.1,0.2-0.2l1.1-3.5c0.1-0.2,0.3-0.2,0.4,0l1.1,3.5c0,0.1,0.1,0.2,0.2,0.2h3.8c0.2,0,0.2,0.2,0.1,0.3l-3.1,2.2
			c-0.1,0.1-0.1,0.2-0.1,0.2l1.2,3.5c0.1,0.2-0.2,0.3-0.3,0.2L127.1,83.8C127.3,83.8,127.2,83.8,127.1,83.8"/>
		<path class="st9" d="M131.6,80h-3.4l-1-3.1l-1.1,3.1h-3.2l2.7,2l-1,3.1l2.7-1.9l2.7,1.9l-1.1-3.1L131.6,80z"/>
		<path class="st5" d="M123.4,80.2l2.4,1.8l-0.9,2.8l2.4-1.7l2.4,1.7l-1-2.8l2.5-1.8h-3l-0.9-2.8l-0.9,2.8H123.4z M130.2,85.5
			l-3-2.1l-3,2.1l1.1-3.4l-2.9-2.1h3.6l1.1-3.4l1.1,3.4h3.7L129,82L130.2,85.5z"/>
	</g>
</g>
<g id="레이어_1">
	<rect x="35.3" y="35.3" class="st10" width="179.4" height="179.4"/>
</g>
<rect x="8" y="34.8" class="st10" width="234" height="180.4"/>
</svg>
