<?xml version="1.0" encoding="utf-8"?>
<!-- Generator: Adobe Illustrator 25.1.0, SVG Export Plug-In . SVG Version: 6.00 Build 0)  -->
<svg version="1.1" xmlns="http://www.w3.org/2000/svg" xmlns:xlink="http://www.w3.org/1999/xlink" x="0px" y="0px"
	 viewBox="0 0 250 250" style="enable-background:new 0 0 250 250;" xml:space="preserve">
<style type="text/css">
	.st0{fill:#FFFFFF;}
	.st1{fill:#1D1D1B;}
	.st2{fill:#0082CA;}
	.st3{fill:none;}
</style>
<g id="Layer_1">
	<g>
		<g transform="matrix(6.38967 0 0 -6.38967 -1464.643 1702.571)">
			<path class="st0" d="M266.1,249.3l1,3.2h-6.8v10.6H237v-10.6h-6.5c0,0,1-5.8,1.4-7.9l0.2-0.9c0,0,1.8,0.6,4.9,1.1v-8l11.6-6
				l11.6,6v8c0.7-0.1,1.4-0.3,2.2-0.5c0.4-0.1,0.8-0.2,1.2-0.3c0.1,0,0.3-0.1,0.4-0.1c0.3,0,0.5,0.1,0.7,0.2
				c0.3,0.1,0.5,0.3,0.8,0.4l0,0l0,0c0.4,0.2,1,0.7,1,2v0.7c0,0.9-0.3,1.7-0.9,2.1L266.1,249.3z"/>
			<path class="st1" d="M252.5,251.5c-0.4,0-0.8,0-1.2,0c-0.1,0-0.2,0-0.3-0.1c-0.5-0.6-1.1-1.2-1.6-1.9l0,2H248c0-1.6,0-3.2,0-4.8
				c0.4,0,0.8,0,1.2,0c0,0.7,0,1.4,0,2.1c0.6-0.7,1.1-1.3,1.6-2c0.1-0.1,0.2-0.1,0.3-0.2c0.4,0,0.9,0,1.3-0.1
				c-0.7,0.9-1.4,1.7-2.2,2.6C251.1,250,251.8,250.7,252.5,251.5"/>
			<path class="st1" d="M237.9,251.5c-0.3-1.5-0.6-3-0.9-4.5c-0.2,1.5-0.5,3-0.7,4.5c-0.6,0-1.2,0-1.8,0c-0.3-1.7-0.6-3.4-0.8-5.2
				c-0.3,1.7-0.5,3.4-0.8,5.1c-0.4,0-0.9,0-1.3,0c0.4-2.3,0.8-4.5,1.2-6.8c0.6,0.2,1.2,0.3,1.7,0.4c0.3,1.7,0.6,3.3,0.9,5
				c0.3-1.6,0.5-3.1,0.8-4.6c0.6,0.1,1.2,0.2,1.8,0.3c0.4,1.9,0.8,3.8,1.3,5.7C238.8,251.5,238.4,251.5,237.9,251.5"/>
			<path class="st1" d="M240.4,248.5c0.2,0.7,0.4,1.3,0.5,1.9c0.2-0.6,0.3-1.2,0.5-1.9C241.1,248.6,240.8,248.5,240.4,248.5
				 M240.2,251.5c-0.6-1.9-1.1-3.7-1.6-5.6c0,0,0,0,0,0c0.4,0.1,0.8,0.1,1.2,0.2c0.1,0.4,0.3,0.9,0.4,1.3c0.5,0.1,1.1,0.1,1.6,0.2
				c0,0,0,0,0,0c0.1-0.4,0.2-0.8,0.3-1.2c0.4,0,0.8,0.1,1.3,0.1c-0.5,1.7-1,3.3-1.5,5C241.3,251.5,240.8,251.5,240.2,251.5"/>
			<path class="st1" d="M243.6,247.6c0-0.4,0.3-1,1.1-1c0.4,0,0.9,0,1.3,0.1c0.2,0,0.4,0.1,0.6,0.1c0.3,0.2,0.7,0.4,1,0.5
				c0,0.1,0,0.2,0,0.3c-0.9,0-1.7,0-2.6-0.1c-0.1,0-0.1,0-0.1,0.1c0,0,0,0,0,0l0,3.8c-0.4,0-0.8,0-1.2,0L243.6,247.6z"/>
			<path class="st1" d="M256.1,249.4c-0.8,0-1.5,0.1-2.3,0.1c-0.1,0-0.1,0.1-0.1,0.1c0,0.3,0,0.5,0,0.8c0,0.1,0.1,0.1,0.1,0.1
				c0.8,0,1.6,0,2.4-0.1l0,1c-0.6,0-1.3,0-1.9,0c-0.2,0-0.4,0-0.5-0.1c-0.3-0.1-0.5-0.3-0.8-0.4c-0.4-0.2-0.5-0.5-0.5-0.9l0-2.4
				c0-0.5,0.4-1.1,1.1-1.1c0.5,0,1-0.1,1.5-0.1c0.2,0,0.4,0,0.6,0.1c0.3,0.1,0.5,0.2,0.8,0.3c0,0.2,0,0.3,0,0.5
				c-0.9,0.1-1.7,0.2-2.6,0.2c-0.1,0-0.1,0.1-0.1,0.1c0,0.3,0,0.6,0,0.9c0,0.1,0.1,0.1,0.1,0.1c0.8,0,1.5-0.1,2.3-0.1L256.1,249.4z"
				/>
			<path class="st1" d="M258.1,249.1L258.1,249.1c-0.1,0-0.1,0.1-0.1,0.1v0c0,0.3,0,0.7,0,1c0,0.1,0,0.1,0.1,0.1
				c0.5,0,0.9,0,1.4-0.1c0.1,0,0.1-0.1,0.1-0.1c0-0.4,0-0.7,0-1.1c0-0.1-0.1-0.1-0.1-0.1C259,249,258.6,249.1,258.1,249.1
				 M260.3,248.4c0.4,0.2,0.6,0.6,0.6,1.1c0,0.3,0,0.6,0,0.9c0,0.8-0.6,1.1-1,1.1c-0.1,0-0.1,0-0.2,0c-0.5-0.1-1.1-0.2-1.6-0.4
				c0,0-0.1,0-0.1,0.1c0,0.1,0,0.2,0,0.2c-0.4,0-0.8,0-1.2,0c0-1.8,0-3.6,0.1-5.4c0.4-0.1,0.8-0.1,1.2-0.2l0,1.9
				c0,0.1,0.1,0.1,0.1,0.1c0.2,0,0.5,0,0.7-0.1c0,0,0,0,0.1,0c0.3-0.7,0.7-1.3,1-2c0.1-0.1,0.2-0.2,0.3-0.3c0.4-0.1,0.8-0.2,1.2-0.2
				c-0.4,1-0.9,1.9-1.4,2.9C260.1,248.3,260.2,248.4,260.3,248.4"/>
			<path class="st1" d="M265.9,251.6c-0.7,0-1.8,0-2.6,0c-0.2,0-0.4-0.1-0.5-0.2c-0.3-0.2-0.5-0.4-0.8-0.5c-0.4-0.3-0.5-0.6-0.5-1.2
				c0-0.2,0-0.3,0-0.5c0-0.8,0.5-1.4,1.1-1.5c0.5-0.1,1.2-0.2,1.7-0.2c0.1,0,0.1-0.1,0.1-0.2c0,0,0,0,0,0l0-1.1c0,0,0,0,0,0
				c0-0.1,0-0.1-0.1-0.1c-0.8,0.2-1.8,0.4-2.7,0.5c0-0.4,0-0.8,0-1.2c0.7-0.1,1.5-0.3,2.2-0.5c0.2-0.1,0.4,0,0.5,0
				c0.3,0.1,0.5,0.3,0.8,0.4c0.4,0.2,0.5,0.6,0.5,1.2v0.7c0,1-0.6,1.7-1.1,1.7c-0.5,0.1-1.2,0.1-1.7,0.2c-0.1,0-0.1,0.1-0.1,0.2
				c0,0.3,0,0.6,0,1c0,0.1,0.1,0.1,0.1,0.1c0.8,0,1.8-0.1,2.6-0.1L265.9,251.6z"/>
			<path class="st1" d="M254.3,257.6c-0.2,0-0.2-0.1-0.3-0.2l-1-1.9l-1,1.9c-0.1,0.1-0.2,0.2-0.3,0.2h-1.8c-0.1,0-0.2,0-0.3-0.2
				l-1.7-2v2.2h-1.2v-5.2h1.2v2.3l1.7-2.2c0.1-0.1,0.2-0.2,0.3-0.2h1.3l-2.2,2.7l1.7,2l1.6-2.7c0,0,0-0.1,0-0.1v-1.9h1.2v1.9
				c0,0,0,0.1,0,0.1l1.9,3.1H254.3z"/>
			<path class="st1" d="M243.4,256.5h2.4l0.3,1h-2.2c-0.2,0-0.4,0-0.5-0.1l-0.8-0.4c-0.4-0.2-0.5-0.5-0.5-1v-0.4
				c0-0.6,0.5-1.1,1.1-1.1h1.6c0.1,0,0.1-0.1,0.1-0.1c0,0,0,0,0,0v-0.8c0,0,0,0,0,0c0-0.1-0.1-0.1-0.1-0.1h-2.6v-1h2.1
				c0.2,0,0.4,0,0.6,0.1l0.8,0.4c0.4,0.2,0.6,0.6,0.6,1v0.5c0,0.7-0.6,1.1-1.1,1.1l-1.6,0c-0.1,0-0.1,0.1-0.1,0.1v0.8
				C243.3,256.5,243.4,256.5,243.4,256.5"/>
			<path class="st1" d="M243.4,258.7C243.4,258.7,243.4,258.7,243.4,258.7l-0.2,0c0,0,0,0,0,0v0.5c0,0,0,0,0,0h-0.4c0,0,0,0,0,0
				v-0.5c0,0,0,0,0,0h-0.2c0,0,0,0,0,0v1.2c0,0,0,0,0,0h0.2c0,0,0,0,0,0v-0.4c0,0,0,0,0,0h0.4c0,0,0,0,0,0v0.4c0,0,0,0,0,0h0.2
				c0,0,0,0,0,0V258.7z"/>
			<path class="st1" d="M243.8,258.7c-0.1,0-0.2,0.1-0.2,0.2c0,0,0,0,0,0v0.7c0,0,0,0,0,0h0.2c0,0,0,0,0,0v-0.7c0,0,0,0,0,0h0.3
				c0,0,0,0,0,0v0.7c0,0,0,0,0,0h0.2c0,0,0,0,0,0v-1c0,0,0-0.1,0-0.1l-0.1-0.2c0,0,0,0,0,0h0c0,0,0,0,0,0v0.5c0,0,0,0,0,0
				L243.8,258.7C243.8,258.7,243.8,258.7,243.8,258.7"/>
			<path class="st1" d="M244.8,258.7c-0.1,0-0.2,0.1-0.2,0.2v0.7c0,0,0,0,0,0h0.2c0,0,0,0,0,0v-0.7c0,0,0,0,0,0h0.3c0,0,0,0,0,0v0.7
				c0,0,0,0,0,0h0.2c0,0,0,0,0,0v-0.9c0,0,0,0,0,0h-0.2c0,0,0,0,0,0v0c0,0,0,0,0,0L244.8,258.7C244.8,258.7,244.8,258.7,244.8,258.7
				"/>
			<path class="st1" d="M246.4,259.4v-0.7c0,0,0,0,0,0h-0.2c0,0,0,0,0,0v0.7c0,0,0,0,0,0h-0.3c0,0,0,0,0,0v-0.7c0,0,0,0,0,0h-0.2
				c0,0,0,0,0,0v0.9c0,0,0,0,0,0h0.2c0,0,0,0,0,0v0c0,0,0,0,0,0l0.3,0.1c0,0,0,0,0,0C246.4,259.6,246.4,259.5,246.4,259.4"/>
			<path class="st1" d="M247.2,258.9v0.5c0,0,0,0,0,0h-0.3c0,0,0,0,0,0v-0.5c0,0,0,0,0,0L247.2,258.9
				C247.2,258.9,247.2,258.9,247.2,258.9 M246.6,258.9v0.4c0,0.1,0,0.2,0.1,0.2l0.2,0.1c0,0,0.1,0,0.1,0h0.2c0,0,0,0,0,0v0.3
				c0,0,0,0,0,0h0.2c0,0,0,0,0,0v-1.3c0,0,0,0,0,0h-0.2c0,0,0,0,0,0v0c0,0,0,0,0,0l-0.3-0.1c0,0,0,0,0,0
				C246.7,258.7,246.6,258.8,246.6,258.9"/>
			<path class="st1" d="M248.2,258.9v0.5c0,0,0,0,0,0h-0.3c0,0,0,0,0,0v-0.5c0,0,0,0,0,0L248.2,258.9
				C248.2,258.9,248.2,258.9,248.2,258.9 M247.8,258.7c-0.1,0-0.2,0.1-0.2,0.2v0.4c0,0.1,0,0.2,0.1,0.2l0.2,0.1c0,0,0.1,0,0.1,0h0.4
				c0,0,0,0,0,0v-0.9c0,0,0,0,0,0h-0.2c0,0,0,0,0,0v0c0,0,0,0,0,0L247.8,258.7C247.8,258.7,247.8,258.7,247.8,258.7"/>
			<path class="st1" d="M248.9,258.7C248.9,258.7,248.9,258.7,248.9,258.7l-0.2,0c0,0,0,0,0,0v0.9c0,0,0,0,0,0h0.2c0,0,0,0,0,0
				V258.7z M248.9,259.8C248.9,259.8,248.9,259.8,248.9,259.8l-0.2,0c0,0,0,0,0,0v0.1c0,0,0,0,0,0h0.2c0,0,0,0,0,0V259.8z"/>
			<path class="st1" d="M249.3,258.9v0.6c0,0.1,0,0.2,0.1,0.2l0.2,0.1c0,0,0.1,0,0.1,0h0.4c0,0,0,0,0,0v-0.1c0,0,0,0,0,0h-0.6
				c0,0,0,0,0,0v-0.8c0,0,0,0,0,0h0.6c0,0,0,0,0,0c0,0,0,0,0,0l-0.1-0.1c0,0-0.1,0-0.1,0h-0.4C249.5,258.7,249.3,258.8,249.3,258.9"
				/>
			<path class="st1" d="M250.9,258.9v0.5c0,0,0,0,0,0h-0.3c0,0,0,0,0,0v-0.5c0,0,0,0,0,0L250.9,258.9
				C250.9,258.9,250.9,258.9,250.9,258.9 M250.5,258.7c-0.1,0-0.2,0.1-0.2,0.2v0.4c0,0.1,0,0.2,0.1,0.2l0.2,0.1c0,0,0.1,0,0.1,0h0.4
				c0,0,0,0,0,0v-0.9c0,0,0,0,0,0H251c0,0,0,0,0,0v0c0,0,0,0,0,0L250.5,258.7C250.6,258.7,250.6,258.7,250.5,258.7"/>
			<path class="st1" d="M252,258.9v0.5c0,0,0,0,0,0h-0.3c0,0,0,0,0,0v-0.5c0,0,0,0,0,0L252,258.9C251.9,258.9,252,258.9,252,258.9
				 M252.2,259.4V259c0-0.1,0-0.2-0.1-0.2l-0.2-0.1c0,0-0.1,0-0.1,0h-0.2c0,0,0,0,0,0v-0.3c0,0,0,0,0,0h-0.2c0,0,0,0,0,0v1.3
				c0,0,0,0,0,0h0.2c0,0,0,0,0,0v0c0,0,0,0,0,0l0.3,0.1c0,0,0,0,0.1,0C252.1,259.6,252.2,259.5,252.2,259.4"/>
			<path class="st1" d="M252.6,258.7C252.6,258.7,252.6,258.7,252.6,258.7l-0.2,0c0,0,0,0,0,0v0.9c0,0,0,0,0,0h0.2c0,0,0,0,0,0
				V258.7z M252.6,259.8C252.6,259.8,252.6,259.8,252.6,259.8l-0.2,0c0,0,0,0,0,0v0.1c0,0,0,0,0,0h0.2c0,0,0,0,0,0V259.8z"/>
			<path class="st1" d="M253,258.7c-0.1,0-0.2,0.1-0.2,0.2c0,0,0,0,0,0v0.8c0,0,0,0,0,0l0.2,0c0,0,0,0,0,0v-0.2c0,0,0,0,0,0h0.3
				c0,0,0,0,0,0v-0.1c0,0,0,0,0,0h-0.3c0,0,0,0,0,0v-0.5c0,0,0,0,0,0h0.3c0,0,0,0,0,0c0,0,0,0,0,0l-0.1-0.1c0,0-0.1,0-0.1,0H253z"/>
			<path class="st1" d="M254.1,258.9v0.5c0,0,0,0,0,0h-0.3c0,0,0,0,0,0v-0.5c0,0,0,0,0,0L254.1,258.9
				C254.1,258.9,254.1,258.9,254.1,258.9 M253.7,258.7c-0.1,0-0.2,0.1-0.2,0.2v0.4c0,0.1,0,0.2,0.1,0.2l0.2,0.1c0,0,0.1,0,0.1,0h0.4
				c0,0,0,0,0,0v-0.9c0,0,0,0,0,0h-0.2c0,0,0,0,0,0v0c0,0,0,0,0,0L253.7,258.7C253.8,258.7,253.8,258.7,253.7,258.7"/>
			<path class="st1" d="M254.8,258.7C254.8,258.7,254.8,258.7,254.8,258.7l-0.2,0c0,0,0,0,0,0v1.3c0,0,0,0,0,0h0.2c0,0,0,0,0,0
				V258.7z"/>
			<path class="st1" d="M245.9,245.7c-1.8-0.1-3.7-0.2-5.5-0.5l0-6.4l5.5-2.9V245.7z"/>
			<path class="st2" d="M251.4,245.7c1.7-0.1,3.6-0.2,5.5-0.5l0-6.4l-5.5-2.9V245.7z"/>
			<path class="st1" d="M245.7,245.7"/>
			<path class="st1" d="M259.3,252.4h-1.4v8.4h-18.6v-8.4h-1.4v9.9h21.5V252.4z"/>
			<path class="st1" d="M248.6,231.7l-10.7,5.5v7.7l0.2,0c0.3,0.1,0.7,0.1,1,0.2l0.2,0v-7l9.3-4.8l9.3,4.8v7l0.2,0
				c0.4-0.1,0.7-0.1,1-0.2l0.2,0v-7.6L248.6,231.7z"/>
			<path class="st0" d="M251.4,245.7c-1.7,0.1-3.5,0.1-5.5,0v-9.8l2.7-1.3l2.8,1.3V245.7z"/>
		</g>
	</g>
</g>
<g id="레이어_1">
	<rect x="8" y="8" class="st3" width="234" height="234"/>
</g>
</svg>
