<?xml version="1.0" encoding="utf-8"?>
<!-- Generator: Adobe Illustrator 25.1.0, SVG Export Plug-In . SVG Version: 6.00 Build 0)  -->
<svg version="1.1" xmlns="http://www.w3.org/2000/svg" xmlns:xlink="http://www.w3.org/1999/xlink" x="0px" y="0px"
	 viewBox="0 0 250 250" style="enable-background:new 0 0 250 250;" xml:space="preserve">
<style type="text/css">
	.st0{fill:#CBBFA7;}
	.st1{fill:#550709;}
	.st2{fill:#ED1C24;}
	.st3{fill:#FFFFFF;}
	.st4{fill:#FFF200;}
	.st5{fill:#F89C0E;}
	.st6{fill:none;}
</style>
<g id="Layer_1">
	<g>
		<path class="st0" d="M242,99.8c-14.5-13-27.1-20.8-45.1-28.5c10.8-11.4,20.4-20.1,35.8-29.3c-40.2-10.5-81-10.1-121,2.8l-3.8,9.8
			c-15.6,0-35.9,2.2-57.1,8.5c-3.4,12.9-4.5,23.8-4.5,23.8S26.8,90.4,8,97.4c4.7,29.1,19.1,54.2,32.5,71.1c1.8-0.7,21-8,21-8
			c17.1,28.4,44.3,48.3,85.9,55c-1.8-18.8,1.6-37.8,30.9-68.5c17.2,2.7,35.9,7.4,51.9,12.2c-1.6-2.9-8.4-14.9-9.4-16.9
			c-1.1-2.2-1.1-3.7,0.6-5.3c4.3-4.2,17-16.3,19.1-18.4c-8.7-3.7-17.9-7.1-17.9-7.1S233.6,104.5,242,99.8"/>
		<path class="st1" d="M220.6,89c4.8,3.1,9.3,6.5,13.4,10.1c-7.4,4.3-14.6,8.9-21.6,13.8c6.7,2.2,13.4,4.7,19.7,7.4
			c0,0-14.3,13.5-16,15.7c-1.5,1.9-2,3.8-0.9,5.8c1.2,2.4,5.7,10,5.7,10c-15.9-4.5-30.6-7.7-44-9.7c-21,20.7-36.1,44.4-34.2,67.8
			c-38.4-7.4-64.8-28.2-79.2-55c-6.2,2.2-13.1,4.7-21.4,8c-24.5-32.2-28.9-62.3-28.9-62.3c12.3-4,25.2-7.1,37.5-9.3
			c0.6-8.1,1.9-16.2,4-24.3c17.7-5.2,37-7.7,56.6-7.6c1.3-3.6,2.6-7.1,4-10.6c29.6-9.4,68.7-13,105.8-4.5c-10.9,7.1-21.8,17.3-32,29
			c3.1,1.2,6.2,2.4,9.2,3.8c3.7-3.5,9.9-4.6,15.3-2C217.3,76.7,221.2,81.5,220.6,89"/>
		<path class="st2" d="M109,78c-12.7-2.4-28.4-1-46,4.8c13.1-8.7,28.9-14.2,44.8-17.3c-16.7,0.2-33.1,2.3-48.1,6.4
			c-1.4,6.2-2.3,12.3-2.8,18.2c7.2-1.2,14.5-2.2,21.8-2.9C86.9,83.3,97.5,79.4,109,78"/>
		<path class="st3" d="M120.1,77.7h5.1v7.6l6.4-7.6h6.3l-7.2,7.8l8.1,12h-6.3l-5.2-8.3l-2.1,2.2v6.1h-5.1V77.7z M140.3,77.7h15.5
			v4.1h-10.5v3.4h9.6v4h-9.6V93h10.7v4.4h-15.8V77.7z M164.1,86.9h3.4c1.6,0,2.7-0.7,2.7-2.5c0-1.8-1.2-2.6-2.7-2.6h-3.4L164.1,86.9
			z M159,77.7h9.3c3.6,0,7,1.7,7,6.3c0,4.9-2.8,6.8-7,6.8h-4.2v6.6H159V77.7z M190.7,84.8c-0.3-2-1.8-3-3.9-3
			c-3.3,0-4.5,2.9-4.5,5.9c0,2.9,1.3,5.9,4.5,5.9c2.4,0,3.7-1.4,3.9-3.6h5.1c-0.3,5.1-4,8.1-8.9,8.1c-5.9,0-9.7-4.6-9.7-10.3
			c0-5.7,3.8-10.3,9.7-10.3c4.2,0,8.8,2.7,8.9,7.5L190.7,84.8z M207.3,93.5c3.3,0,4.5-2.9,4.5-5.9c0-2.9-1.3-5.9-4.5-5.9
			c-3.3,0-4.5,2.9-4.5,5.9C202.8,90.5,204,93.5,207.3,93.5 M207.3,77.3c6.1,0,9.6,4.6,9.6,10.3c0,5.7-3.5,10.3-9.6,10.3
			c-6.1,0-9.6-4.6-9.6-10.3C197.7,81.9,201.2,77.3,207.3,77.3"/>
		<path class="st2" d="M120.4,193.4c4.2-7.3,10.1-15,20.2-18.8c-2.6-0.6-17.9,2-32.8,12.3c4.8-8,12.2-14.6,18.6-18.1
			c-5.9,1-18.7,3.6-30.9,9.7c7.1-10.1,17.3-16.7,25.9-20.2c-7.5,1.2-21.8,4.3-35.8,11.3c7.4-8.8,16.8-16.3,26.3-20.1
			c-9.2,1.4-22.1,4.1-34.8,9.8c4.9-5.7,11.1-10.2,17.7-13.6c-9.6,2.5-17.2,4.6-25.3,7.2c6.2,11.1,24.5,39.2,67.3,49.4
			c0-5.3,0.8-10.6,2.4-15.7C135.4,187,128.4,188.6,120.4,193.4"/>
		<path class="st4" d="M116.4,74h51.9c3.7,0,6.9,1.4,8.7,3.8c9.8-12.2,19.3-22.5,29.4-30.2c0,0-40.4-8.1-87,6.3
			c-4.4,8.6-8.8,25.6-11.9,44.8c3-0.1,5.9-0.2,8.8-0.3L116.4,74z M130.3,133.4c-1.1,3.6-2.1,7.1-2.1,7.1c-7.7,0.6-16.7,1.6-24.8,3.1
			c-0.2,14,0.8,26.7,3.5,35.8c14.3-7.8,23.7-12,23.7-12c-1.2,10.6,1,25.9,6.2,34.7c0-21.9,14.1-42,30.4-59.5c0,0-10.3-1-31.2,4.9
			c0.9-2.4,1.9-4.8,2.9-7.2C135.8,139.6,132.1,137.7,130.3,133.4"/>
		<path class="st2" d="M204,101.3c1.5,1.5,3,3.1,4,5c-4-1.8-10-3.9-15.8-5.7c-3.2,1.3-6.7,1.3-9.5,0.4c1.7,1.4,3.2,2.9,4.6,4.5
			c5.4,1.3,11.4,2.9,17.5,4.8c6.1-4.3,12.2-8.3,18.3-12c-1.4-1.1-2.9-2.2-4.4-3.2C216,100.2,210.2,102.6,204,101.3"/>
		<path class="st5" d="M180.9,134.6c0.1-2.4,0.4-4.4,0.7-6.6c2.3-0.4,4.4-1.8,6.6-3.9C185.3,127.9,183.2,130.9,180.9,134.6
			 M179.1,120c-0.9-0.1-2.5-0.5-2.5-0.5c0.4-0.6,0.9-1.3,1.4-1.9c1.3,0.2,1.7,0.3,2.7,0.5c0.8,0.2,1,0.7,0.6,1.2
			C181,120,180.1,120.2,179.1,120 M154.9,120.3c-2.7,4.8-7.2,8.8-9.6,7.5c-2-1-0.5-5.7,1.8-9.3c2.7-4.2,7-6.5,8.9-5.3
			C157.5,114.1,157,116.5,154.9,120.3 M79.9,140.2c0.1-10.2,1.6-21.5,5-33.6c0.2-0.6,0.3-1.2,0.5-1.7c0.5,1.6,2.9,9,6,17.2
			C87.7,127.4,83.8,133.5,79.9,140.2 M212.8,118.2c-5.5,3.7-11.1,8.2-11.1,8.2s2.8-5.4,5.8-10.1c0,0-5-1.7-10-3.3
			c0,0-3.1,3.4-5.9,6.8c1.9-4,1.7-8.1-3.6-9.5c-3.3-0.9-7-1.8-13.5-3.1c-4.3,5.7-8.7,12.6-8.7,12.6c3.4-6.8,3-12.5-1.4-14.9
			c-4.5-2.4-11.9-2.6-19,2.4c0.8-1.3,1.6-2.7,2.4-4c-13.3-1.1-26.7-1.4-41-0.6c0,0-2.6,2.9-5.1,5.9c-0.5-2-1.4-5.5-1.4-5.5
			c-8.2,0.6-17.2,1.6-26.1,3.2C79.9,100,88.5,94.3,98,90.6c-20.4,1.3-38.1,4.5-38.1,4.5c-6.6,10.3-11.2,21.3-13.6,32.7
			c-1.6-4.4-4.8-15.4-2.5-22.2c2-6,8.5-9.3,8.5-9.3c-16.6,3.4-32.6,8.1-32.6,8.1c4.6,20.3,13.9,37.2,24.3,51.6
			c3.8-1.4,7.7-2.8,11.5-4.2c2.9-17.1,7.4-31.5,15.5-42c-2.8,12.9-3.7,25.3-2.6,38c8.9-2.6,15.5-4.2,22.7-5.8c0,0,3.1-5.4,5-8.2
			c1,2.2,2,4.4,2.9,6.6c6.5-1.2,12.8-2.1,12.8-2.1s-3.7-9.2-6.3-17.5c4.7-6.1,10.6-12.3,10.6-12.3c-0.6,1.6-1.3,3.1-1.9,4.7
			c0,0,3.6-0.2,8.3-0.3c-3.5,8.2-6,16.6-7.8,25c0,0,5.7-0.6,10.6-1.1c2.7-9.5,5.2-16.7,8.7-23.9c1.8,0,3.5,0.1,5.3,0.1
			c-8.3,11.3-8.1,21.1,0,23.3c8.1,2.2,16.7-1.7,23.3-11.2c-2.8,5.1-5.5,10.7-5.5,10.7s4.7,0.1,9.4,0.5c0,0,2.5-4.8,4.8-8.7
			c0.3,0,0.7,0.1,1,0.1c-0.8,4.5-0.7,9-0.7,9c0,0,7.4,0.6,16.1,2c0.9-1.5,1.9-2.9,2.8-4.4c-0.6,1.5-1.2,3-1.8,4.6
			c2.2,0.4,4.3,0.7,6.5,1.1c1.5-1.5,2.8-2.5,5-4.5c-1.1,1.8-1.7,3.4-1.9,5.1c4.6,0.9,6.6,1.4,11.2,2.4c-0.2-0.3-3.2-4,1.5-9.8
			c2.4-3,6.8-7.3,11.1-11.4C217.4,120,212.8,118.2,212.8,118.2"/>
		<path class="st3" d="M72.4,107.3c-3.2,13.9-4,26.7-3.2,38.1c2.8-0.8,5.5-1.6,8.3-2.3c-0.2-11.3,1.3-23.8,5.1-37.4
			C79.2,106.2,75.8,106.7,72.4,107.3 M155.6,120.9c-2.6,4.6-6.9,8.8-10.6,7.8c-3.4-0.9-3.5-5.2,0-10.7c3.6-5.6,8.5-8.2,11.5-6.8
			C159.1,112.4,158.1,116.6,155.6,120.9 M161.1,124c6.6-9.9,7.5-17.3,0.6-19.4c-8.4-2.6-18.1,2.6-23.7,11.9
			c-6.1,10.1-3.5,16.4,2.3,17.9C147.1,136.2,155.5,132.3,161.1,124 M182.8,119.1c-1.1,1.6-2.7,1.9-4.4,1.6c-1.5-0.3-2.9-0.5-4.4-0.7
			c1-1.6,2.1-3.1,3.2-4.7c1.8,0.3,2.5,0.5,4.2,0.8C182.8,116.4,183.7,117.7,182.8,119.1 M187.2,110.8c-2.5-0.7-7.5-1.8-12.1-2.8
			c-6.7,8.9-11.9,17.7-15.9,26c2.1,0.1,4.3,0.2,6.4,0.3c1.5-2.9,3.1-5.8,4.9-8.8c1.1,0.1,2.2,0.3,3.4,0.4c-0.6,3-0.9,6-1.1,8.9
			c2.2,0.2,4.4,0.4,6.6,0.7c0.2-3.1,0.5-6.3,1.1-9.6c2.6-0.4,6-2,8.7-5.8C192.2,115.9,191.7,112,187.2,110.8 M89.2,92.2
			c-9.4,0.8-19.2,2-29.2,3.7c-12.3,19-13.9,37.9-13.9,37.9c0,0-3.8-7.4-5.6-19.3c-1.1-7.1,0.3-12.4,5-15.8
			c-8.1,1.7-16.4,3.8-24.7,6.3c5.1,19.8,14.3,37.3,23.1,48.8c3.1-1.2,6.2-2.3,9.3-3.4C57,129.4,63.6,103.8,89.2,92.2 M213.1,119
			c-5.5,3.8-10.6,7.8-15.4,11.8c2.3-5,4.9-9.9,7.8-14.6c-2.5-0.9-5-1.7-7.6-2.5c-6.7,7.5-12.2,14.9-16.6,22.1
			c1.9,0.3,3.7,0.5,5.6,0.8c2.9-4.4,6.1-8.8,9.8-13.3c-2.5,4.8-4.5,9.4-6.2,13.9c1.4,0.2,2.8,0.5,4.2,0.7c4.1-3.9,8.6-7.7,13.4-11.4
			c-4.6,5-7.6,9.7-8,12.5c1.7,0.3,4.4,0.9,7.4,1.6c-1.1-3.7-0.1-6.1,2.8-9.3c3-3.4,6.2-6.6,9.5-9.7
			C217.6,120.8,215.4,119.9,213.1,119 M145.1,103.7c-8.2-0.7-16.8-0.9-25.5-0.8c-1.3,2.8-2.5,5.3-3.5,8c2.8-0.1,5.6-0.1,8.4-0.2
			c-3.8,8.7-6.4,17.1-8.2,24.9c2.5-0.3,5-0.6,7.5-0.8c2.1-7.6,4.9-15.7,9-24.1c2.7,0,5.6,0.1,8.2,0.2
			C142.2,108.6,143.6,106.2,145.1,103.7"/>
		<path class="st3" d="M118.4,102.9c-3.7,0.1-7.5,0.2-11.3,0.4c0,0-2.6,2.8-6.5,7.8c-1.3-4.5-1.9-7.2-2-7.2
			c-3.9,0.3-7.9,0.7-11.8,1.2c0,0,2.1,7,5.8,16.6c-4.2,5.9-8.8,12.9-13.2,20.8c3.3-0.8,6.7-1.6,10-2.4c2-3.5,4.2-7,6.4-10.2
			c1.1,2.7,2.3,5.4,3.6,8.2c3.2-0.6,6.5-1.1,9.7-1.6c-2.4-5.9-4.3-11.6-5.9-16.6C111.3,109.8,118.4,102.9,118.4,102.9"/>
		<path class="st5" d="M106.9,179.5c14.3-7.8,23.7-12,23.7-12c-1.2,10.6,1,25.9,6.2,34.7c0,0-5.1-21.4-0.4-40.8
			c0,0-17.8,6.8-24.8,9.7c-1.3-8.3-1.6-18.1-1.2-28.6c-2.3,0.3-4.7,0.7-7,1.2C103.3,157.6,104.3,170.3,106.9,179.5 M107.6,98.6
			c3-0.1,5.9-0.2,8.8-0.3V74h6.3c2.8-9,5.9-17.1,9.2-23.5c-4.2,1-8.3,2.1-12.4,3.4C115,62.4,110.6,79.4,107.6,98.6"/>
	</g>
</g>
<g id="레이어_1">
	<rect x="8" y="8" class="st6" width="234" height="234"/>
</g>
</svg>
