<?xml version="1.0" encoding="utf-8"?>
<!-- Generator: Adobe Illustrator 25.1.0, SVG Export Plug-In . SVG Version: 6.00 Build 0)  -->
<svg version="1.1" xmlns="http://www.w3.org/2000/svg" xmlns:xlink="http://www.w3.org/1999/xlink" x="0px" y="0px"
	 viewBox="0 0 250 250" style="enable-background:new 0 0 250 250;" xml:space="preserve">
<style type="text/css">
	.st0{fill:#2F1F66;}
	.st1{fill:#FFFFFF;}
	.st2{fill:#EC008C;}
	.st3{fill:#BDBCBC;}
	.st4{fill:none;}
</style>
<g id="Layer_1">
	<g transform="matrix(4.75051 0 0 -4.75051 -500.229 6429.082)">
		<g>
			<path class="st0" d="M156,1321c0,0.3,0,0.6-0.1,0.9c-0.1,0.4-0.2,0.7-0.4,1c-0.2,0.4-0.4,0.8-0.7,1.1c-0.2,0.2-0.4,0.4-0.5,0.6
				l0.4,1.6l0.2,2.9l-0.9,0.4c-1.1,0.5-2.2,0.7-3.1,0.7c-1.1,0-2.2-0.4-2.9-1.1c-0.1-0.1-0.2-0.2-0.3-0.4l-0.4,0.6l-1.1,1.5
				l-0.3,0.4c-0.6,0.8-1.3,1.6-1.9,2.4c0,0,0.5,0.6,0.6,0.7c0.4,0.6,0.8,1.2,1.2,1.8c0.1,0.2,0.2,0.4,0.3,0.6l0.3,3.1h-4.4l-0.3-0.7
				c-0.2-0.4-0.3-0.7-0.5-1v1.7h-7.3v-2.8l-1.6,2.8h-7.3v-1.1c-0.5,0.5-1.2,0.9-2,1c-0.4,0.1-0.9,0.1-1.3,0.1h-3.8v-9.7h-1.8
				l-0.4,0.1c-0.5,0.1-1,0.1-1.5,0.1c-0.6,0-1.1,0-1.6-0.1c-2.1-0.4-3.7-2-3.9-4.1l0,0l0,0c0-0.5,0-0.9,0.1-1.4
				c0.2-0.8,0.7-1.3,1.3-1.7c0.8-0.6,1.6-0.7,2.2-0.8c0.1,0,0.2,0,0.2-0.1c0-0.1-0.1-0.2-0.2-0.2c-0.1-0.1-0.1-0.1-0.2-0.1
				c-0.4-0.3-0.8-0.5-1.2-0.6c-0.1,0-0.2,0-0.3-0.1c-0.2,0-0.4-0.1-0.5-0.1c-0.6-0.1-1.1-0.1-1.1-0.1l-1.5-5.2l1.5-1.2
				c0,0,5.3,2.1,7.5,2.7l0.2,0c3.9,1.1,9.2,1.8,15.8,1.8c7.5,0,13.1-1,17.1-2.3l0.5-0.2c0.6-0.2,1.2-0.4,1.9-0.4
				c0.4,0,0.8-0.1,1.3,0c0.1,0,0.2,0,0.4,0.1c0.6,0.1,1.2,0.4,1.7,0.8c0.4,0.5,0.7,1.1,0.9,1.7c0.1,0.2,0.1,0.4,0.1,0.6
				c0,0.2,0.1,0.5,0.1,0.7c0,0,0.1,0.8,0.1,0.9l0,0C156,1320.9,156,1320.9,156,1321"/>
		</g>
		<g>
			<path class="st1" d="M120.7,1334.7h0.3c0.5,0,0.8,0,1,0.1c0.5,0.2,0.7,0.5,0.7,1.1c0,0.8-0.4,1.2-1.4,1.2h-0.6V1334.7z
				 M120.7,1330.3h-2v8.5h2.8c0.4,0,0.8,0,1.1-0.1c1.4-0.3,2.3-1.3,2.3-2.6c0-1.5-0.8-2.6-2.4-2.9c-0.4-0.1-0.9-0.1-1.6-0.1h-0.2
				V1330.3z"/>
		</g>
		<g>
			<path class="st2" d="M120.8,1337h0.5c0.9,0,1.2-0.3,1.2-1c0-0.7-0.3-0.9-0.6-1c-0.3-0.1-0.5-0.1-1-0.1h-0.1V1337z M121.4,1339h-3
				v-8.8h2.4v2.7h0c0.7,0,1.2,0,1.6,0.1c1.6,0.4,2.5,1.5,2.5,3.1c0,1.4-0.9,2.5-2.4,2.8C122.2,1338.9,121.8,1339,121.4,1339
				 M120.5,1334.5h0.4c0.5,0,0.8,0,1.1,0.1c0.6,0.2,0.8,0.7,0.8,1.3c0,1-0.6,1.4-1.5,1.4h-0.8V1334.5z M121.4,1338.6
				c0.4,0,0.8,0,1.1-0.1c1.3-0.3,2.2-1.3,2.2-2.5c0-1.3-0.7-2.4-2.3-2.8c-0.4-0.1-0.9-0.1-1.6-0.1h-0.3v-2.7h-1.7v8.2H121.4z"/>
		</g>
		<path class="st1" d="M127.7,1330.3h-2v8.5h2V1330.3z"/>
		<path class="st2" d="M127.9,1339h-2.4v-8.8h2.4V1339z M127.6,1330.5h-1.7v8.2h1.7V1330.5z"/>
		<g>
			<path class="st1" d="M136.5,1330.3h-2.4l0,0.1l-3.1,5.4v-5.4h-1.9v8.5h2.4l0-0.1l3.1-5.4v5.5h1.9V1330.3z"/>
		</g>
		<g>
			<path class="st2" d="M136.7,1339h-2.2v-5.1l-2.8,4.9l-0.1,0.2h-2.6v-8.8h2.2v5l2.8-4.8l0.1-0.2h2.7V1339z M136.4,1338.6v-8.2
				h-2.2l-3.3,5.9h0v-5.9h-1.6v8.2h2.1l3.4-5.9h0v5.9H136.4z"/>
		</g>
		<g>
			<path class="st1" d="M145.2,1330.3h-2.7l0,0.1c-0.8,1.1-1.6,2.2-2.5,3.2v-3.2h-2.1v8.5h2.1v-3.4c0.9,0.7,1.8,2,2.4,3.3l0,0.1h2.3
				l-0.1-0.2c-0.9-1.8-1.7-2.9-2.9-4c1.2-1.3,2.3-2.6,3.4-4L145.2,1330.3z"/>
		</g>
		<g>
			<path class="st2" d="M145,1339h-2.7l-0.1-0.2c-0.5-1.2-1.3-2.3-2.1-3.1v3.2h-2.4v-8.8h2.4v3c0.8-0.9,1.5-1.9,2.2-2.8l0.1-0.1h3.1
				l-0.4,0.5c-1,1.3-2.1,2.6-3.3,3.9c1.2,1.1,2,2.2,2.9,4L145,1339z M144.5,1338.6c-1-2-1.8-3-3-4.1c1.1-1.2,2.2-2.4,3.5-4.1h-2.3
				c-0.9,1.2-1.8,2.4-2.8,3.5v-3.5h-1.7v8.2h1.7v-3.6c1,0.7,2,2.1,2.7,3.6H144.5z"/>
		</g>
		<g>
			<path class="st1" d="M108.6,1316.9l0.1,0.3l0.7,2.5l0,0.1l0.1,0c0.2,0,0.6,0.1,1.1,0.2l0,0c0.1,0,0.2,0,0.3,0.1
				c0.5,0.2,1,0.4,1.5,0.7c0.1,0.1,0.2,0.1,0.3,0.2c0.1,0.1,0.3,0.3,0.4,0.5c0.2,0.4,0.2,0.9-0.2,1.2c-0.2,0.1-0.4,0.2-0.7,0.2
				l-0.3,0.1c-0.6,0.1-1.1,0.2-1.6,0.6c-0.4,0.3-0.8,0.8-0.9,1.2c-0.1,0.3-0.1,0.7-0.1,1c0.2,1.6,1.4,2.9,3.2,3.3
				c0.4,0.1,0.9,0.1,1.4,0.1c0.5,0,1,0,1.4-0.1l0.2,0l0-0.2l-0.5-2.1l-0.2,0.1c-0.3,0.1-0.7,0.2-1.1,0.2c-0.3,0-0.7,0-1-0.1
				c-0.1,0-0.2-0.1-0.4-0.1c-0.2-0.1-0.4-0.2-0.5-0.4c-0.1-0.1-0.2-0.3-0.2-0.5c0-0.3,0.1-0.6,0.8-0.7c0.8-0.1,1.6-0.3,2.2-0.8
				c0.3-0.2,0.6-0.5,0.8-0.8c0.1-0.2,0.2-0.5,0.3-0.8c0.1-0.6,0-1.3-0.3-1.9c-1.2-2.8-6.5-4-6.5-4L108.6,1316.9z"/>
		</g>
		<g>
			<path class="st2" d="M114,1329.4c-0.6,0-1.1,0-1.4-0.1c-1.8-0.4-3.1-1.7-3.3-3.4l0,0l0,0c0-0.4,0-0.7,0.1-1.1
				c0.2-0.6,0.6-1,1-1.3c0.5-0.4,1.1-0.5,1.7-0.6c0.1,0,0.2,0,0.3-0.1c0.2-0.1,0.5-0.1,0.6-0.2c0.3-0.2,0.3-0.7,0.1-1
				c-0.1-0.2-0.2-0.3-0.3-0.4c-0.1-0.1-0.2-0.1-0.3-0.2c-0.4-0.3-0.9-0.5-1.5-0.7c-0.1,0-0.2-0.1-0.3-0.1l0,0
				c-0.3-0.1-0.7-0.1-1-0.2l-0.2,0l-0.1-0.2l-0.7-2.5l-0.2-0.5l0.5,0.1c0.1,0,5.4,1.3,6.7,4.1c0.3,0.6,0.4,1.3,0.3,2
				c0,0.3-0.1,0.6-0.3,0.8c-0.2,0.4-0.5,0.6-0.9,0.9c-0.7,0.4-1.5,0.6-2.3,0.8c-0.7,0.1-0.7,0.4-0.7,0.6c0,0.1,0.1,0.3,0.2,0.4
				c0.1,0.1,0.3,0.3,0.5,0.3l0,0l0,0c0.1,0,0.2,0.1,0.3,0.1c0.1,0,0.5,0.1,1,0.1c0.4,0,0.8-0.1,1-0.2l0.4-0.2l0.1,0.4l0.4,1.9
				l0.1,0.3l-0.3,0.1C114.9,1329.4,114.5,1329.4,114,1329.4 M114,1329.1c0.5,0,0.9,0,1.4-0.1l-0.4-1.9c-0.4,0.2-0.8,0.2-1.2,0.2
				c-0.6,0-1.1-0.1-1.1-0.1c-0.1,0-0.3-0.1-0.4-0.1c-0.2-0.1-0.4-0.2-0.6-0.4c-0.1-0.2-0.2-0.4-0.2-0.6c0-0.4,0.2-0.8,0.9-0.9
				c0.8-0.1,1.5-0.3,2.2-0.7c0.3-0.2,0.6-0.4,0.7-0.7c0.1-0.2,0.2-0.5,0.3-0.7c0.1-0.6,0-1.3-0.3-1.8c-1.2-2.6-6.2-3.9-6.4-4
				l0.7,2.5c0.2,0,0.6,0.1,1.1,0.2c0.1,0,0.2,0.1,0.3,0.1c0.6,0.2,1.1,0.4,1.6,0.7c0.1,0.1,0.2,0.2,0.3,0.2c0.2,0.2,0.3,0.3,0.4,0.5
				c0.3,0.5,0.3,1.1-0.2,1.4c-0.2,0.2-0.5,0.2-0.7,0.3c-0.6,0.2-1.3,0.2-1.8,0.6c-0.4,0.2-0.7,0.7-0.8,1.1c-0.1,0.3-0.1,0.7-0.1,1
				c0.2,1.6,1.4,2.8,3.1,3.1C112.9,1329.1,113.4,1329.1,114,1329.1"/>
		</g>
		<g>
			<path class="st1" d="M118.9,1325.1h0.3c0.5,0,0.8,0,1.1,0.1c0.5,0.2,0.7,0.5,0.7,1.1c0,0.8-0.4,1.1-1.4,1.1h-0.6V1325.1z
				 M116.8,1319.8v9.3h2.8c0.4,0,0.8,0,1.1-0.1c1.4-0.3,2.3-1.3,2.3-2.5c0-1.5-0.8-2.5-2.4-2.8c-0.4-0.1-0.9-0.1-1.6-0.1h-0.2v-3.2
				l-0.1,0L116.8,1319.8z"/>
		</g>
		<g>
			<path class="st2" d="M119,1327.3h0.5c1,0,1.2-0.4,1.2-1c0-0.5-0.2-0.8-0.6-0.9c-0.3-0.1-0.5-0.1-1-0.1H119V1327.3z M119.6,1329.2
				h-3v-9.6l2.1,0.5l0.2,0.1v3.2h0c0.7,0,1.2,0,1.6,0.1c1.6,0.3,2.5,1.4,2.5,3c0,1.4-0.9,2.4-2.4,2.7
				C120.4,1329.2,120,1329.3,119.6,1329.2 M118.7,1324.9h0.4c0.5,0,0.8,0,1.1,0.1c0.6,0.2,0.8,0.7,0.8,1.2c0,1-0.6,1.3-1.5,1.3h-0.8
				V1324.9z M119.6,1328.9c0.4,0,0.8,0,1.1-0.1c1.3-0.3,2.2-1.2,2.2-2.4c0-1.3-0.7-2.3-2.3-2.7c-0.4-0.1-0.9-0.1-1.6-0.1h-0.3v-3.2
				l-1.7-0.4v8.9H119.6z"/>
		</g>
		<g>
			<path class="st1" d="M123.9,1321.1v8h2v-7.8l-1.9-0.2L123.9,1321.1z"/>
		</g>
		<g>
			<path class="st2" d="M126.1,1329.2h-2.4v-8.3l0.4,0l1.7,0.2l0.3,0V1329.2z M125.8,1328.9v-7.5l-1.7-0.2v7.7H125.8z"/>
		</g>
		<g>
			<path class="st1" d="M129.2,1323h0.6c1.8,0,2,1.7,2,2.5c0,0.6-0.1,1.6-1,1.9c-0.4,0.2-0.8,0.2-1.4,0.2h-0.2V1323z M127.3,1321.4
				v7.7h2.2c0.8,0,1.5-0.1,2-0.3c1.9-0.7,2.2-2.3,2.2-3.3c0-1.8-0.7-3.1-2-3.7c-0.6-0.3-1.4-0.4-2.3-0.4l-2-0.1L127.3,1321.4z"/>
		</g>
		<g>
			<path class="st2" d="M129.3,1327.4L129.3,1327.4c0.6,0,1.1-0.1,1.4-0.2c0.8-0.3,0.9-1.3,0.9-1.8c0-0.7-0.2-2.3-1.9-2.3h-0.4
				V1327.4z M129.5,1329.2h-2.4v-8l0.3,0l2,0.1c0.9,0,1.7,0.1,2.3,0.4c1.4,0.6,2.1,2,2.1,3.8c0,1-0.3,2.7-2.3,3.4
				C131,1329.1,130.3,1329.2,129.5,1329.2 M129,1322.8h0.8c1.6,0,2.2,1.3,2.2,2.6c0,1-0.3,1.8-1.1,2.1c-0.4,0.2-0.9,0.3-1.5,0.3H129
				V1322.8z M129.5,1328.9c0.8,0,1.4-0.1,2-0.3c1.7-0.6,2.1-2,2.1-3.1c0-1.6-0.7-3-1.9-3.5c-0.6-0.3-1.3-0.4-2.2-0.4l-2-0.1v7.4
				H129.5z"/>
		</g>
		<g>
			<path class="st1" d="M139.6,1321.2l-0.2,0l-4.7,0.2l-0.2,0v7.6h4.8v-1.6h-2.9v-1.4l2.6,0l0.2,0v-1.7l-0.2,0l-2.6,0v-1.5l2.9-0.1
				l0.2,0V1321.2z"/>
		</g>
		<g>
			<path class="st2" d="M139.6,1329.2h-5.1v-7.9l5.3-0.3v2l-0.3,0l-2.8,0.1v1.1l2.4,0l0.3,0v2l-0.3,0l-2.4,0v1h2.9V1329.2z
				 M139.3,1328.9v-1.3h-2.9v-1.7l2.8,0v-1.4l-2.8,0v-1.8l3.1-0.1v-1.3l-4.7,0.2v7.3H139.3z"/>
		</g>
		<g>
			<path class="st1" d="M142.7,1325.3h0.6c0.3,0,0.5,0,0.8,0.1c0.5,0.1,0.7,0.4,0.7,1c0,0.5-0.2,0.8-0.6,0.9c-0.3,0.1-0.6,0.1-1,0.1
				h-0.5V1325.3z M147.9,1319.6l-0.4,0.1l-2.4,0.6l-0.1,0l0,0.1l-1.8,3.3h-0.5v-2.9l-0.2,0l-1.9,0.3v8.1h2.8c3.2,0,3.4-2,3.4-2.5
				c0-1.2-0.5-2-1.5-2.5l2.3-4.1L147.9,1319.6z"/>
		</g>
		<g>
			<path class="st2" d="M142.9,1327.3h0.3c0.4,0,0.7,0,0.9-0.1c0.1,0,0.4-0.2,0.4-0.8c0-0.6-0.2-0.8-0.5-0.9
				c-0.2-0.1-0.5-0.1-0.7-0.1h-0.5V1327.3z M143.5,1329.2h-3v-8.4l0.3,0l2.1-0.3v2.9h0.2l1.8-3.2l0.1-0.1l0.1,0l3.1-0.7l-0.4,0.6
				l-2.2,4c1,0.5,1.5,1.4,1.5,2.6C147.1,1327.2,146.8,1329.2,143.5,1329.2 M142.6,1325.1h0.8c0.3,0,0.6,0,0.8,0.1
				c0.6,0.2,0.8,0.6,0.8,1.2c0,0.5-0.2,0.9-0.7,1.1c-0.3,0.1-0.6,0.1-1,0.1h-0.6V1325.1z M143.5,1328.9c2.5,0,3.2-1.2,3.2-2.4
				c0-1.2-0.6-2-1.6-2.4l2.4-4.3l-2.4,0.6l-1.9,3.4h-0.7v-2.9l-1.7,0.2v7.8H143.5z"/>
		</g>
		<g>
			<path class="st1" d="M152.3,1318.4C152.3,1318.4,152.2,1318.4,152.3,1318.4c-0.7,0-1.3,0.1-2.1,0.4l-0.3,0.1l-0.1,0
				c-0.5,0.2-0.9,0.3-1.3,0.5l-0.1,0.1l0,0.1l0.6,1.9l0.1,0.2l0.2-0.1c0,0,0.2-0.1,0.3-0.2c0.2-0.1,0.5-0.2,0.7-0.3
				c0.1,0,0.1-0.1,0.2-0.1c0.3-0.1,0.5-0.2,0.8-0.3c0.3-0.1,0.5-0.1,0.7-0.1c0,0,0.1,0,0.1,0c0.2,0,0.3,0,0.5,0.1
				c0.2,0.1,0.3,0.3,0.3,0.5c0,0.2-0.1,0.5-0.3,0.8c-0.4,0.5-1.1,0.8-1.7,1.1l-0.1,0.1c-0.2,0.1-0.4,0.2-0.6,0.3l-0.1,0
				c-0.6,0.3-1.1,0.5-1.5,1c-0.4,0.5-0.7,1.2-0.7,1.9c0,1.7,1.2,2.9,3.1,2.9c0.8,0,1.8-0.2,2.7-0.7l0.1-0.1l0-0.1l-0.5-1.6l0-0.2
				l-0.2,0.1c-0.9,0.3-1.6,0.6-2.2,0.6c-0.6,0-0.9-0.4-0.9-0.6c0-0.5,0.5-0.8,0.9-1c0.1-0.1,0.2-0.1,0.3-0.2
				c0.2-0.1,0.3-0.1,0.5-0.2c1.1-0.5,1.9-1.1,2.5-1.8c0.3-0.3,0.5-0.6,0.6-0.9c0.1-0.3,0.2-0.5,0.3-0.8c0.2-1-0.1-2.1-0.8-2.7
				C153.7,1318.6,153,1318.4,152.3,1318.4"/>
		</g>
		<g>
			<path class="st2" d="M150.9,1329.4c-1.9,0-3.2-1.2-3.2-3c0-0.7,0.3-1.5,0.7-2c0.5-0.5,1-0.8,1.6-1.1l0.1,0
				c0.2-0.1,0.4-0.2,0.6-0.3l0.1-0.1c0.6-0.3,1.2-0.6,1.6-1c0.2-0.3,0.3-0.5,0.3-0.7c0-0.2-0.1-0.3-0.2-0.4
				c-0.1-0.1-0.2-0.1-0.4-0.1c0,0-0.1,0-0.1,0c-0.2,0-0.4,0.1-0.6,0.1c-0.3,0.1-0.5,0.2-0.8,0.3c-0.1,0-0.1,0.1-0.2,0.1
				c-0.2,0.1-0.5,0.2-0.7,0.3c-0.1,0.1-0.3,0.2-0.3,0.2l-0.4,0.2l-0.1-0.4l-0.6-1.9l-0.1-0.3l0.3-0.1c0.4-0.2,0.9-0.3,1.4-0.5
				l0.4-0.1c0.8-0.3,1.4-0.4,2-0.4l0.1,0c0.8,0,1.5,0.2,2,0.7c0.8,0.6,1.1,1.8,0.8,2.9c-0.1,0.3-0.2,0.6-0.3,0.8
				c-0.2,0.3-0.4,0.6-0.6,0.9c-0.6,0.7-1.4,1.3-2.5,1.8c-0.2,0.1-0.3,0.2-0.5,0.2l-0.3,0.2c-0.5,0.2-0.9,0.5-0.9,0.9
				c0,0.2,0.2,0.5,0.7,0.5c0.6,0,1.4-0.3,2.2-0.6l0.3-0.1l0.1,0.3l0.5,1.6l0.1,0.3l-0.3,0.1C152.7,1329.2,151.7,1329.4,150.9,1329.4
				 M150.9,1329.1c0.7,0,1.7-0.2,2.7-0.6l-0.5-1.6c-0.9,0.3-1.6,0.6-2.3,0.6c-0.7,0-1-0.4-1-0.8c0-0.6,0.6-0.9,1-1.2
				c0.3-0.1,0.5-0.2,0.8-0.4c0.9-0.4,1.8-1,2.4-1.7c0.2-0.2,0.4-0.6,0.6-0.8c0.1-0.2,0.2-0.5,0.3-0.8c0.2-0.9,0-1.9-0.7-2.5
				c-0.5-0.4-1.2-0.6-1.8-0.6l-0.1,0c-0.7,0-1.3,0.2-1.9,0.4l-0.4,0.1c-0.4,0.2-0.9,0.3-1.3,0.5l0.6,1.9c0,0,0.2-0.1,0.3-0.2
				c0.2-0.1,0.5-0.2,0.7-0.3c0.1,0,0.1-0.1,0.2-0.1c0.3-0.1,0.5-0.2,0.8-0.3c0.2-0.1,0.5-0.1,0.7-0.2c0,0,0.1,0,0.1,0
				c0.2,0,0.4,0,0.5,0.1c0.2,0.1,0.4,0.4,0.4,0.6c0,0.4-0.2,0.7-0.4,0.9c-0.4,0.5-1.2,0.9-1.8,1.2c-0.2,0.1-0.4,0.2-0.6,0.3
				c-0.6,0.3-1.1,0.5-1.5,1c-0.4,0.5-0.6,1.1-0.6,1.8C148,1327.9,149.1,1329.1,150.9,1329.1"/>
		</g>
		<g>
			<path class="st2" d="M153.9,1325.3l0.2,1l0.2,1.8l-0.6-2.4L153.9,1325.3z"/>
		</g>
		<g>
			<path class="st2" d="M145.5,1338.4c0-0.1-0.1-0.2-0.1-0.3c-0.2-0.4-0.3-0.7-0.5-1c-0.6-1-1.2-1.9-1.9-2.6l0.3-0.3
				c0.6,0.7,1.3,1.5,1.8,2.5c0.1,0.1,0.2,0.3,0.3,0.5L145.5,1338.4z"/>
		</g>
		<g>
			<path class="st2" d="M153.2,1317.5c-0.3-0.1-0.6-0.1-0.9-0.1c-0.2,0-0.4,0-0.6,0c-0.6,0.1-1.2,0.2-1.8,0.4l-0.5,0.2
				c-4,1.4-9.9,2.4-17.4,2.4c-6,0-11-0.6-14.8-1.6c-0.4-0.1-0.8-0.2-1.2-0.3c-0.6-0.2-1.2-0.4-1.9-0.6c-2.8-0.9-6-2.2-6-2.2l0.6-0.5
				c1.5,0.6,4.9,1.8,4.9,1.8l0.2,0.1c4.1,1.5,10.2,2.6,18.1,2.6c7.6,0,13.3-1,17.3-2.4l0.5-0.2c0.6-0.2,1.1-0.3,1.7-0.4
				c0.2,0,0.4,0,0.5,0c0.6,0,1.1,0.1,1.6,0.4c0.2,0.1,0.5,0.3,0.7,0.4c0.1,0.1,0.2,0.2,0.3,0.4c0.1,0.2,0.2,0.3,0.2,0.3
				c0.1,0.1,0.1,0.4,0.2,0.5c0,0.1,0,0.2,0,0.2C154.8,1318.3,154.1,1317.8,153.2,1317.5"/>
		</g>
		<g>
			<path class="st3" d="M133,1325.3c0-0.1,0-0.2,0-0.3c0-0.4-0.1-0.7-0.3-1c-0.2-0.6-0.6-1.1-1.2-1.4c-0.5-0.3-1.1-0.4-1.8-0.4
				l-0.8,0v-0.3l0.8,0c0.7,0,1.4,0.1,1.9,0.4c0.6,0.3,1.1,0.9,1.3,1.5c0.1,0.3,0.2,0.7,0.3,1.1c0,0.1,0,0.2,0,0.4c0,0.2,0,0.4,0,0.6
				l-0.3-0.3C133,1325.5,133,1325.4,133,1325.3"/>
		</g>
		<g>
			<path class="st3" d="M145.5,1324.6c0.6,0.4,0.9,1,1,1.6l-0.4-0.2c-0.1-0.5-0.4-0.9-0.8-1.1c-0.1-0.1-0.3-0.1-0.4-0.2l0.1-0.3
				C145.2,1324.4,145.4,1324.5,145.5,1324.6"/>
		</g>
		<g>
			<path class="st3" d="M150.4,1323.7L150.4,1323.7c0.2-0.1,0.4-0.2,0.6-0.3l0.1,0c0.5-0.2,1.3-0.7,1.6-1.1l-0.1,0.5
				c-0.4,0.3-1,0.7-1.4,0.9l-0.1,0c-0.2,0.1-0.3,0.2-0.5,0.2l-0.1,0c-0.5,0.2-1.1,0.5-1.5,0.9c-0.3,0.4-0.6,0.9-0.6,1.5
				c0,0.4,0.1,0.8,0.3,1.1l0,0.5c-0.4-0.4-0.6-1-0.6-1.7c0-0.6,0.3-1.2,0.7-1.7C149.3,1324.2,150,1324,150.4,1323.7"/>
		</g>
		<g>
			<path class="st3" d="M154.3,1320.8c0-0.5-0.2-0.9-0.5-1.2c-0.1-0.1-0.3-0.2-0.4-0.3c-0.3-0.2-0.7-0.2-1.1-0.2
				c-0.3,0-0.6,0-0.9,0.1c-0.7,0.1-1.4,0.4-2.1,0.7l0,0l0,0l0.3,0.9l-0.2,0.3l-0.3-1.1l0-0.1l0-0.1l0.1,0l0.1-0.1
				c0.7-0.3,1.4-0.6,2.2-0.7c0.3-0.1,0.7-0.1,1-0.1c0.4,0,0.8,0.1,1.2,0.3c0.2,0.1,0.4,0.2,0.5,0.4c0.5,0.5,0.6,1.2,0.6,1.8
				L154.3,1320.8z"/>
		</g>
		<g>
			<path class="st3" d="M152.6,1327.2l0.2-0.1l0.1-0.1l0.1,0.3l0.3,0.8l-0.3-0.2l-0.2-0.5l0,0l0,0c-0.6,0.2-1.2,0.4-1.8,0.4
				l-0.4-0.3C151.2,1327.6,151.9,1327.5,152.6,1327.2"/>
		</g>
		<g>
			<path class="st3" d="M124.1,1335.9c0-0.3-0.1-0.7-0.2-1c-0.2-0.4-0.5-0.7-0.9-0.9c-0.2-0.1-0.5-0.2-0.8-0.3
				c-0.4-0.1-0.8-0.1-1.4-0.1h-0.4v-0.3h0.4c0.6,0,1.1,0,1.5,0.1c0.3,0.1,0.6,0.2,0.8,0.3c0.4,0.2,0.7,0.6,1,1
				c0.3,0.5,0.3,1,0.3,1.4L124.1,1335.9z"/>
		</g>
		<g>
			<path class="st3" d="M144.1,1338.4h-0.3c-0.8-1.5-1.5-2.5-2.7-3.5l0.2-0.2C142.5,1335.8,143.2,1336.8,144.1,1338.4"/>
		</g>
		<g>
			<path class="st3" d="M144.1,1331h-1.2c-0.7,1-2.1,2.7-3,3.8v-0.4c0.9-1.1,2.2-2.7,2.8-3.6l0-0.1h1.6L144.1,1331z"/>
		</g>
		<g>
			<path class="st3" d="M119,1330.7h1.2l-0.2,0.3h-0.8v7.1l-0.3,0.3V1330.7z"/>
		</g>
		<g>
			<path class="st3" d="M126.4,1331v7.1l-0.3,0.3v-7.7h1.2l-0.2,0.3H126.4z"/>
		</g>
		<g>
			<path class="st3" d="M129.5,1330.7h1.1l-0.2,0.3h-0.6v7.1l-0.3,0.3V1330.7z"/>
		</g>
		<g>
			<path class="st3" d="M135.9,1331h-1.4l-3.6,6.4v-0.6l3.5-6.1h1.8L135.9,1331z"/>
		</g>
		<g>
			<path class="st3" d="M138.6,1331v7.1l-0.3,0.3v-7.7h1.1l-0.2,0.3L138.6,1331z"/>
		</g>
		<g>
			<path class="st3" d="M135.3,1338l-0.3,0.3v-6l0.3-0.5V1338z"/>
		</g>
		<g>
			<path class="st3" d="M122.1,1325.4c-0.2-0.4-0.5-0.7-0.9-0.9c-0.2-0.1-0.5-0.2-0.8-0.3c-0.4-0.1-0.8-0.1-1.4-0.1h-0.4v-0.3h0.4
				c0.6,0,1.1,0,1.5,0.1c0.3,0.1,0.6,0.2,0.8,0.3c0.4,0.2,0.7,0.6,1,1c0.2,0.4,0.3,0.9,0.3,1.3l-0.3-0.4
				C122.3,1326,122.3,1325.7,122.1,1325.4"/>
		</g>
		<g>
			<path class="st3" d="M117.5,1320.7v7.6l-0.3,0.3v-8.3l1.3,0.3l-0.2,0.2L117.5,1320.7z"/>
		</g>
		<g>
			<path class="st3" d="M124.6,1321.8v6.5l-0.3,0.3v-7.2l1.3,0.1l0,0l-0.2,0.3L124.6,1321.8z"/>
		</g>
		<g>
			<path class="st3" d="M135.3,1322.1v6.2l-0.3,0.3v-6.8l4.2-0.2l-0.2,0.3L135.3,1322.1z"/>
		</g>
		<g>
			<path class="st3" d="M138.7,1325.1l-2.4,0l0-0.3l2.6,0L138.7,1325.1z"/>
		</g>
		<g>
			<path class="st3" d="M138.8,1328.2l-2.5,0l0-0.3l2.7,0L138.8,1328.2z"/>
		</g>
		<g>
			<path class="st3" d="M141.4,1321.6v6.7l-0.3,0.3v-7.3l1.3-0.2l0,0l-0.2,0.3L141.4,1321.6z"/>
		</g>
		<g>
			<path class="st3" d="M127.7,1321.8h0.3v6.6l-0.3,0.3V1321.8z"/>
		</g>
		<g>
			<path class="st3" d="M145.6,1320.9l-1.7,2.9h-0.3l1.8-3.2l1.7-0.4l-0.3,0.4L145.6,1320.9z"/>
		</g>
		<g>
			<path class="st3" d="M112.1,1327.3c0.1,0,0.2,0.1,0.3,0.1c0,0,0.4,0.1,0.9,0.2c0.1,0,0.2,0,0.3,0c0.3,0,0.5,0,0.7-0.1l0.2-0.1
				l0.1,0l0.3,1.4c-0.1,0-0.2,0-0.3,0l-0.2-1l0,0c-0.2,0.1-0.5,0.1-0.7,0.1c-0.1,0-0.2,0-0.4,0c-0.5,0-1-0.2-1-0.2l0,0L112.1,1327.3
				L112.1,1327.3z"/>
		</g>
		<g>
			<path class="st3" d="M109.7,1318l0.4,1.6c-0.1,0-0.2-0.1-0.3-0.1l-0.5-1.9l0.4,0.1c0.2,0.1,4.2,1.1,5.4,3.6l-0.4-0.2
				C113.4,1319,109.9,1318,109.7,1318"/>
		</g>
		<g>
			<path class="st3" d="M109.9,1324.8c0.1-0.1,0.3-0.6,0.9-1c0.6-0.3,1.2-0.4,1.7-0.5l0.2,0l-0.3,0.3c-0.5,0.1-1,0.2-1.4,0.4
				c-0.5,0.3-0.8,0.7-0.8,0.9l0,0.1c-0.1,0.3-0.1,0.6-0.1,0.8c0,0.3,0.1,0.7,0.3,0.9l0.1,0.6c-0.4-0.4-0.6-0.9-0.6-1.5
				c0-0.3,0-0.7,0.1-1C109.9,1324.9,109.9,1324.8,109.9,1324.8"/>
		</g>
	</g>
</g>
<g id="레이어_1">
	<rect x="8" y="8" class="st4" width="234" height="234"/>
</g>
</svg>
