<?xml version="1.0" encoding="utf-8"?>
<!-- Generator: Adobe Illustrator 25.1.0, SVG Export Plug-In . SVG Version: 6.00 Build 0)  -->
<svg version="1.1" id="Layer_1" xmlns="http://www.w3.org/2000/svg" xmlns:xlink="http://www.w3.org/1999/xlink" x="0px" y="0px"
	 viewBox="0 0 250 250" style="enable-background:new 0 0 250 250;" xml:space="preserve">
<style type="text/css">
	.st0{fill:#E9E9E9;}
	.st1{fill:#37292A;}
	.st2{fill-rule:evenodd;clip-rule:evenodd;fill:#EF381F;}
	.st3{fill-rule:evenodd;clip-rule:evenodd;fill:#FFFFFF;}
	.st4{fill-rule:evenodd;clip-rule:evenodd;fill:#D3D2D2;}
	.st5{fill:#AD964F;}
	.st6{fill:#FFFFFF;}
	.st7{fill:#F7D8CA;}
	.st8{fill:#DD3A22;}
	.st9{fill:#CE3A24;}
	.st10{fill:#F3B231;}
	.st11{fill:#ECEEEE;}
	.st12{opacity:0.78;clip-path:url(#SVGID_2_);}
	.st13{clip-path:url(#SVGID_4_);}
	.st14{fill:#EF381F;}
	.st15{fill:#59C13E;}
	.st16{fill:#F68498;}
	.st17{fill:#C88E7E;}
	.st18{fill:#74180D;}
	.st19{fill:#C62D19;}
	.st20{fill:#A07A6F;}
	.st21{fill:url(#SVGID_5_);}
	.st22{fill:url(#SVGID_6_);}
	.st23{fill:url(#SVGID_7_);}
	.st24{fill:url(#SVGID_8_);}
	.st25{fill:url(#SVGID_9_);}
	.st26{fill:url(#SVGID_10_);}
	.st27{fill:url(#SVGID_11_);}
	.st28{fill:url(#SVGID_12_);}
	.st29{fill:none;}
</style>
<g id="Layer_1_1_">
	<g>
		<g transform="matrix(5.26333 0 0 -5.26333 -414.454 3878.772)">
			<g>
				<path class="st0" d="M108.9,696.3L108.9,696.3L108.9,696.3 M95.9,696.3L95.9,696.3L95.9,696.3L95.9,696.3L95.9,696.3L95.9,696.3
					z M113.9,696.4c0,0.1,0.1,0.2,0.1,0.2c0,0.2-0.1,0.5-0.3,0.6l0,0c-0.2,0.2-0.4,0.2-0.6,0.2h-0.6c-0.1,0-0.2,0-0.2-0.1
					c-0.1,0-0.2,0.1-0.2,0.1h-0.2c-0.2,0-0.2-0.1-0.3-0.2c-0.1,0.1-0.2,0.2-0.3,0.2h-0.2c-0.2,0-0.4-0.2-0.5-0.3
					c-0.1,0.2-0.2,0.3-0.5,0.3h-0.2c-0.1,0-0.2,0-0.2-0.1c-0.1,0-0.1,0-0.2,0.1c-0.1,0-0.2,0-0.2,0.1l0,0c-0.2,0-0.5,0-0.7-0.1
					c-0.2-0.1-0.3-0.2-0.4-0.2c-0.1-0.1-0.2-0.2-0.2-0.4c-0.1-0.2-0.1-0.3-0.1-0.5v-0.1c-0.1,0.1-0.2,0.1-0.3,0.1h-0.2v0.6
					c0,0.3-0.2,0.6-0.5,0.6l0,0h-0.2c-0.2,0-0.4-0.2-0.5-0.3c-0.1,0.2-0.2,0.3-0.5,0.3h-0.2c-0.2,0-0.3-0.1-0.4-0.2c0,0,0,0-0.1,0.1
					c0,0-0.1,0.1-0.2,0.1s-0.2,0.1-0.2,0.1h-0.2c-0.1,0-0.2,0-0.3-0.1l0,0c-0.1-0.1-0.2-0.2-0.2-0.2l-0.1,0.1l0,0
					c-0.2,0.2-0.4,0.2-0.6,0.2h-0.6c-0.1,0-0.1,0-0.2,0s-0.2,0-0.2,0h-0.2c-0.1,0-0.2,0-0.2,0c-0.1,0-0.2-0.1-0.2-0.2l-0.1,0.1
					c-0.1,0-0.1,0.1-0.2,0.1s-0.1,0-0.2,0h-0.2c-0.1,0-0.1,0-0.2,0h-0.1h-1c-0.2,0-0.3-0.1-0.4-0.2c-0.1-0.1-0.1-0.2-0.2-0.2
					c-0.1,0.2-0.2,0.4-0.5,0.3h-0.2c-0.2,0-0.4-0.2-0.5-0.3c-0.1,0.2-0.2,0.3-0.5,0.3H97c-0.2,0-0.3-0.1-0.4-0.2
					c-0.1,0.1-0.2,0.1-0.2,0.2c-0.3,0.1-0.6,0.1-1,0c-0.1,0-0.1,0-0.2-0.1c-0.1,0.1-0.2,0.1-0.3,0.1h-0.2c-0.1,0-0.2,0-0.2,0h-0.1
					c-0.1,0-0.2-0.1-0.2-0.2c0,0.1-0.1,0.1-0.2,0.2c-0.1,0-0.1,0.1-0.2,0.1s-0.1,0-0.2,0h-0.2c-0.2,0-0.4-0.2-0.5-0.3
					c-0.1-0.2-0.1-0.2,0-0.4l0.6-1.3c0-0.1,0.1-0.2,0.2-0.2c0.1-0.1,0.2-0.1,0.3-0.1h0.2c0.1,0,0.2,0,0.2,0.1c0.1,0,0.1,0.1,0.2,0.1
					c0.1,0.1,0.1,0.1,0.2,0.2l0,0c0,0,0-0.1,0.1-0.1c0.2-0.1,0.2-0.2,0.4-0.2c0.2-0.1,0.3-0.1,0.5-0.1s0.3,0,0.5,0.1
					c0.1,0,0.2,0.1,0.2,0.2l0,0c0.1-0.1,0.2-0.2,0.4-0.2h0.9c0.1,0,0.1,0,0.2,0c0.1,0,0.1,0,0.2,0H99c0.1,0,0.1,0,0.2,0s0.1,0,0.2,0
					h0.9c0.2,0,0.3,0.1,0.4,0.2l0,0c0.1-0.1,0.2-0.2,0.4-0.2h0.2c0.2,0,0.3,0.1,0.4,0.2l0,0l0,0c0,0,0,0,0-0.1
					c0.1-0.1,0.2-0.2,0.4-0.2h0.6c0.2,0,0.3,0,0.4,0.1c0.1-0.1,0.2-0.1,0.2-0.1h0.2c0.1,0,0.1,0,0.2,0s0.1,0,0.2,0.1
					c0.1,0,0.1,0.1,0.2,0.2c0.1-0.1,0.2-0.2,0.2-0.2c0.1,0,0.2,0,0.2,0h0.2c0.1,0,0.1,0,0.2,0s0.1,0,0.2,0h0.9c0.1,0,0.1,0,0.2,0
					s0.1,0,0.2,0h0.9c0.2,0,0.5,0.2,0.6,0.5c0.1-0.1,0.1-0.2,0.2-0.2c0.2-0.1,0.2-0.2,0.4-0.2s0.3-0.1,0.5-0.1c0.2,0,0.3,0,0.4,0.1
					l0,0c0.1,0,0.1,0,0.2,0.1c0.1-0.1,0.2-0.1,0.3-0.1h0.9c0.1,0,0.2,0,0.3,0.1c0.1,0,0.1-0.1,0.2-0.1c0.2-0.1,0.2-0.1,0.4-0.1
					c0.2,0,0.2,0,0.4,0.1c0.1,0,0.2,0.1,0.2,0.1c0.1-0.1,0.2-0.2,0.4-0.2h0.6c0.3,0,0.5,0.1,0.7,0.2c0.2,0.2,0.3,0.4,0.3,0.7
					C114,696.1,114,696.3,113.9,696.4"/>
			</g>
			<g>
				<path class="st0" d="M114.6,707.7c-0.2,0-0.3,0-0.5,0c1.1,1.8,1.7,4,1.7,6.1c0,4.1-2.1,7.9-5.5,10.2c-0.2,0.3-0.5,0.6-0.7,0.9
					c-0.9,1-2.1,1.7-3.6,2.1l0.2,0.5c0.1,0.2,0.2,0.7,0,1.2c-0.2,0.4-0.5,0.7-1,0.9c-0.1,0-0.1,0-0.2,0c-0.2,0.5-0.7,0.9-1.5,0.9
					l0,0c-0.5,0-0.8-0.2-1.1-0.4c-0.2-0.2-0.2-0.3-0.3-0.5c-0.1,0-0.1,0-0.2,0c-0.5-0.2-0.8-0.4-1-0.9c-0.2-0.5-0.1-1,0-1.3l0.2-0.5
					l0,0c-1.4-0.4-2.6-1.1-3.6-2.1c-0.2-0.2-0.5-0.6-0.7-0.9c-3.5-2.2-5.6-6-5.6-10.2v-0.1c-1.7-0.7-2.8-2.5-2.8-4.3
					c0-0.8,0.1-1.3,0.2-1.8c-1-0.4-1.7-1.3-1.7-2.5v-0.6c0-1,0.6-2,1.5-2.4c-0.1-0.2-0.2-0.5-0.2-0.7c0,0,0,0,0-0.1c0-0.2,0-0.7,0-1
					c0-0.6,0.3-1.3,0.8-1.7c0.5-0.5,1.2-0.8,1.8-0.8c0.7,0,1.3,0.2,1.8,0.8l0.3,0.3l0.3-0.3c0.5-0.5,1.2-0.8,1.8-0.8
					c0.7,0,1.3,0.2,1.8,0.8c0.2,0.2,0.5,0.6,0.6,0.9c0.5-0.6,1.1-0.9,1.8-0.9c0.5,0,1,0.2,1.3,0.4c0.4-0.2,0.9-0.4,1.3-0.4
					s1,0.2,1.3,0.4c0.4-0.2,0.9-0.4,1.3-0.4c0.6,0,1,0.2,1.5,0.6c0.7-0.4,1.5-0.6,2.3-0.6c0.5,0,0.9,0.1,1.3,0.2
					c0.6-0.2,1.1-0.1,1.6,0.1c0.3-0.2,0.6-0.2,1-0.2c0.8,0,1.5,0.4,2,1.1c0.4-0.7,1.2-1.1,2-1.1c1.3,0,2.3,1,2.3,2.3v2.5
					C118.9,705.7,117,707.7,114.6,707.7"/>
			</g>
			<g>
				<path class="st1" d="M103.6,725.4c-6.4,0-11.7-5.2-11.7-11.7c0-6.4,5.2-11.7,11.7-11.7c6.4,0,11.7,5.2,11.7,11.7
					S110.1,725.4,103.6,725.4"/>
			</g>
			<g>
				<path class="st2" d="M103.6,724.9c6.2,0,11.2-5,11.2-11.2c0-6.2-5-11.2-11.2-11.2c-6.2,0-11.2,5-11.2,11.2
					C92.4,719.9,97.4,724.9,103.6,724.9"/>
			</g>
			<g>
				<path class="st3" d="M103,723.2c-0.8-0.6-1.5-1.3-2.1-2.2c-1.3-1.6-2.1-3.5-2.7-5.4c0-0.2-0.2-0.2-0.3-0.2c-0.1,0-0.2,0-0.2,0.1
					c-1.1,0.2-2.4,0.6-3.3,1.3c-0.1,0.1-0.1,0.2-0.1,0.2c1.3,3.7,4.6,6.3,8.6,6.6c0.1,0,0.2-0.1,0.2-0.2
					C103.1,723.3,103.1,723.3,103,723.2 M103.2,715.1c-1.2,0-2.4,0-3.6,0.1c-0.1,0-0.2,0.1-0.2,0.1c-0.1,0.1-0.1,0.2,0,0.2
					c0.6,1.7,1.3,3.3,2.4,4.7c1,1.3,2.4,2.5,3.9,3.2c0.1,0,0.1,0,0.2,0c1-0.2,2.1-0.6,2.9-1.3c0.1-0.1,0.1-0.2,0.1-0.2
					s-0.1-0.2-0.2-0.2c-1-0.6-1.9-1.3-2.6-2.1c-1.2-1.3-2.1-2.8-2.7-4.4C103.5,715.1,103.4,715.1,103.2,715.1 M110.1,706.3
					c-1-0.8-2-1.4-3.1-1.8c-0.1,0-0.2,0-0.2,0.1c-0.1,0.1-0.1,0.2-0.1,0.2c0.2,1.5,0.2,3,0,4.4c-0.3,1.8-1,3.6-2,5.2
					c-0.1,0.1-0.1,0.2,0,0.2c0.5,1.1,1,2.2,1.8,3.2c0.1,0.1,0.1,0.1,0.2,0.1s0.2,0,0.2-0.1c1.6-1.4,2.5-3.2,3.1-5.2
					c0.5-2,0.5-4.1,0.3-6.2C110.1,706.4,110.1,706.3,110.1,706.3 M105,704c-0.5-0.1-1-0.1-1.3-0.1c-3.7,0-7.1,2.1-8.8,5.4
					c-0.1,0.1,0,0.2,0,0.2c0.1,0.1,0.2,0.1,0.2,0.1c1.3-0.5,2.6-0.8,4-1c1-0.2,2.1-0.2,3.1-0.2c1,0,1.9,0.1,2.9,0.3
					c0.1,0,0.2,0,0.2-0.1c0.1,0,0.1-0.1,0.1-0.2c0.2-1.4,0.2-2.9-0.2-4.4C105.2,704.1,105.1,704,105,704 M104.8,710
					c-0.9-0.2-1.7-0.2-2.7-0.2s-1.9,0-2.9,0.2c-1.7,0.2-3.8,0.8-5.2,1.7c-0.1,0-0.1,0.1-0.1,0.2c-0.2,1.1-0.2,2.2-0.2,3.3
					c0,0.1,0.1,0.2,0.2,0.2s0.2,0,0.2,0c1-0.6,2.1-0.9,3.2-1.1c1.5-0.3,3-0.4,4.5-0.4c0.5,0,1,0,1.4,0c0.1,0,0.2-0.1,0.2-0.1
					c0.7-1,1.2-2.1,1.5-3.4c0-0.1,0-0.2,0-0.2C105,710,104.9,710,104.8,710 M110.4,720.9c2-1.8,3-4.4,3-7.1c0-1.8-0.5-3.7-1.5-5.2
					c-0.1-0.1-0.2-0.2-0.2-0.1c-0.1,0-0.2,0.2-0.2,0.2c0,1.4-0.2,2.9-0.5,4.2c-0.6,2.3-1.7,4.3-3.5,5.9c-0.1,0.1-0.1,0.1-0.1,0.2
					c0,0.1,0,0.2,0.1,0.2c0.7,0.7,1.6,1.3,2.5,1.8C110.3,721,110.4,721,110.4,720.9"/>
			</g>
			<g>
				<path class="st4" d="M110.3,709.1c0-0.9,0-1.7-0.2-2.6c0-0.1,0-0.2-0.1-0.2c-1-0.8-2-1.4-3.1-1.8c-0.1,0-0.2,0-0.2,0.1
					c-0.1,0.1-0.1,0.2-0.1,0.2c0.2,0.8,0.2,1.7,0.2,2.5C108.1,707.6,109.3,708.3,110.3,709.1 M113.5,713.7c0-1.8-0.6-3.6-1.4-5.1
					c-0.1-0.1-0.2-0.2-0.2-0.1c-0.1,0-0.2,0.2-0.2,0.2c0,0.5,0,1-0.1,1.5C112.4,711.2,113.1,712.4,113.5,713.7 M105,704
					c-0.5-0.1-1-0.1-1.3-0.1c-3.7,0-7.1,2.1-8.8,5.4c-0.1,0.1,0,0.2,0,0.2c0.1,0.1,0.2,0.1,0.2,0.1c2-1.8,4.8-3,7.9-3
					c0.9,0,1.7,0.1,2.5,0.2c0-0.9-0.1-1.8-0.2-2.7C105.2,704.1,105.1,704,105,704"/>
			</g>
			<g>
				<path class="st1" d="M111.6,710.2L111.6,710.2c-0.3,0.9-1.3,1.6-2.2,2.1c0.6,0.9,0.8,1.8,0.8,2.4c0.8,1.8,0.8,3.6,0.8,3.7
					c0.2,2.6-0.4,4.7-1.8,6.1c-0.9,1-2.1,1.7-3.5,2c-0.1,0.1-0.2,0.2-0.2,0.3l0.3,0.8c0.1,0.2,0.2,0.6,0,0.9
					c-0.1,0.2-0.3,0.5-0.6,0.6c-0.1,0-0.2,0.1-0.4,0c-0.1,0.6-0.6,0.9-1.1,0.9l0,0c-0.2,0-0.6,0-0.8-0.2c-0.2-0.2-0.2-0.3-0.3-0.6
					c-0.2,0-0.2,0-0.4,0c-0.3-0.1-0.6-0.3-0.6-0.6c-0.2-0.3-0.1-0.7,0-0.9l0.2-0.8c-0.1-0.1-0.2-0.2-0.2-0.2l-0.1-0.1
					c-1.4-0.4-2.6-1-3.5-2c-1.3-1.4-2-3.5-1.8-6.1c0-0.2,0-2.1,0.9-3.9c0-0.6,0.2-2.1,1.6-3.1c-0.8-1.2-1.6-3.3-1.6-5.6
					c0-0.2-0.1-1.3,0.4-1.8c0.2-0.2,0.4-0.3,0.6-0.3l0,0c0.2,0,0.5,0.2,0.6,0.4l0,0l0,0c0.1,0,0.2,0,0.3,0.1
					c0.1-0.2,0.2-0.2,0.3-0.3c0.1-0.1,1-0.5,2.9-0.5l0,0c0.3-0.4,0.8-0.7,1.3-0.7c0.6,0,1,0.2,1.3,0.7l0,0c0.6,0,1.1,0,1.5,0.1
					c0.3-0.1,0.7-0.2,1.1-0.2c2.1,0,3.8,1.7,3.8,3.8c0,0.4-0.1,0.9-0.2,1.3C112,709.2,111.7,710,111.6,710.2"/>
			</g>
			<g>
				<path class="st5" d="M96.3,726.4c0,0.1-0.1,0.1-0.2,0.1h-1.7l-0.6,1.6c0,0.1-0.1,0.1-0.2,0.1l0,0c-0.1,0-0.1,0-0.2-0.1l-0.6-1.6
					h-1.7c-0.1,0-0.1,0-0.2-0.1c0-0.1,0-0.1,0.1-0.2l1.3-1l-0.5-1.6c0-0.1,0-0.1,0.1-0.2h0.1h0.1l1.4,1l1.4-1h0.1
					c0.1,0,0.2,0.1,0.2,0.2l0,0l-0.5,1.6l1.3,1C96.3,726.3,96.3,726.4,96.3,726.4"/>
			</g>
			<g>
				<path class="st5" d="M115.9,726.4c0,0.1-0.1,0.1-0.2,0.1h-1.7l-0.6,1.6c0,0.1-0.1,0.1-0.2,0.1l0,0c-0.1,0-0.1,0-0.2-0.1
					l-0.6-1.6H111c-0.1,0-0.1,0-0.2-0.1c0-0.1,0-0.1,0.1-0.2l1.3-1l-0.5-1.6c0-0.1,0-0.1,0.1-0.2h0.1h0.1l1.4,1l1.4-1h0.1
					c0.1,0,0.2,0.1,0.2,0.2l0,0l-0.5,1.6l1.3,1C115.9,726.3,115.9,726.4,115.9,726.4"/>
			</g>
			<g>
				<path class="st6" d="M108.1,712.4c0,0,2.9-1,3.3-2.4c0,0,0.5-0.9-0.7-1.8l-4.3,1.7l0.9,2.2L108.1,712.4z"/>
			</g>
			<g>
				<path class="st7" d="M97.4,705.9c0,0-0.2-1.7,0.7-1.8c0.4,0,0.5,0.6,0.5,0.6c0-0.3,0.4-0.3,0.4,0v1L97.4,705.9z"/>
			</g>
			<g>
				<path class="st6" d="M99,705.7c0.2,2.1,1.3,4.6,1.3,4.6l-0.1,1.9c0,0-2.5-0.6-2.8-6.3L99,705.7z"/>
			</g>
			<g>
				<path class="st8" d="M97.5,706.6c0,0,0.5,0.2,1.7-0.2l-0.2-0.8l-1.6,0.2L97.5,706.6z"/>
			</g>
			<g>
				<path class="st1" d="M100.2,712c-0.2,0-0.5-0.1-0.9-0.5c-0.9-1-1.8-3.4-1.8-5.6c0,0-0.1-1.1,0.2-1.6c0.1-0.1,0.2-0.2,0.3-0.2
					c0.4,0,0.4,0.6,0.4,0.6c0,0.1,0.1,0.1,0.1,0.1c0.1,0,0.1,0,0.1-0.1s0.1-0.2,0.1-0.2l0,0c0.1,0,0.1,0.1,0.1,0.2v0.9
					c0.2,2.2,1.5,5.3,1.7,5.7L100.2,712L100.2,712z M98.1,704L98.1,704c-0.2,0-0.3,0.1-0.5,0.2c-0.4,0.5-0.3,1.7-0.3,1.7
					c0,2.3,1,4.8,1.8,5.8c0.6,0.6,1,0.5,1.1,0.5h0.1l0.5-0.7v-0.1c0,0-1.5-3.3-1.7-5.7v-0.9c0-0.2-0.2-0.3-0.2-0.3
					c-0.1,0-0.2,0-0.2,0.1C98.6,704.2,98.5,704,98.1,704"/>
			</g>
			<g>
				<path class="st1" d="M98.9,705.7L98.9,705.7c-0.9,0.2-1.4,0.2-1.4,0.2c-0.1,0-0.1,0-0.1,0.1s0,0.1,0.1,0.1c0,0,0.6,0.1,1.5-0.2
					C99,705.7,99,705.7,98.9,705.7C99,705.7,99,705.7,98.9,705.7"/>
			</g>
			<g>
				<path class="st8" d="M100.4,712.4l3.3-0.3l3.3,0.3l0.4-1.2l-1.1-6.7l-2.5-1.1l-2.5,1.1l-1.1,6.7
					C100.1,711.2,100.4,712.4,100.4,712.4"/>
			</g>
			<g>
				<path class="st6" d="M100.1,712.1c0.1-0.1,0.2-0.2,0.3-0.2l0,0c0,0,0.1-0.2,0.2-0.6c0.2-1,0.7-3.3,0.7-6.4
					c-1,0.2-1.7,0.4-1.7,0.4c-0.1,1,0.2,4,0.2,4.4L100.1,712.1z"/>
			</g>
			<g>
				<path class="st6" d="M107.2,712.1c-0.1-0.1-0.2-0.2-0.3-0.2l0,0c0,0-0.1-0.2-0.2-0.6c-0.2-1-0.7-3.3-0.7-6.4
					c1,0.2,1.7,0.4,1.7,0.4c0.1,1-0.2,4-0.2,4.4L107.2,712.1z"/>
			</g>
			<g>
				<path class="st6" d="M102.2,708h2.9c0.2,0,0.3,0.2,0.3,0.3s-0.2,0.3-0.3,0.3h-2.9c-0.2,0-0.3-0.2-0.3-0.3S102,708,102.2,708"/>
			</g>
			<g>
				<path class="st6" d="M103.1,710.1c0-0.3,0.2-0.6,0.6-0.6s0.6,0.2,0.6,0.6s-0.2,0.6-0.6,0.6C103.4,710.7,103.1,710.4,103.1,710.1
					 M102.4,710.1c0,0.6,0.6,1.2,1.2,1.2c0.6,0,1.2-0.6,1.2-1.2s-0.6-1.2-1.2-1.2S102.4,709.5,102.4,710.1"/>
			</g>
			<g>
				<path class="st6" d="M104.6,706.3c0.2,0,0.3,0.2,0.3,0.3c0,0.1,0,0.2-0.1,0.2l-0.9,0.9c-0.2,0.2-0.3,0.2-0.5,0l0,0l-0.9-0.9
					c-0.2-0.2-0.2-0.3,0-0.5c0.2-0.2,0.3-0.2,0.5,0l0.6,0.6l0.6-0.6C104.4,706.4,104.5,706.3,104.6,706.3"/>
			</g>
			<g>
				<path class="st6" d="M106,704.9L106,704.9L106,704.9L106,704.9z"/>
			</g>
			<g>
				<path class="st6" d="M105.1,704.9c0.4,0,0.9,0.1,1,0.1C105.7,704.9,105.4,704.9,105.1,704.9"/>
			</g>
			<g>
				<path class="st6" d="M104.9,704.9c0.1,0,0.2,0,0.2,0C105,704.9,105,704.9,104.9,704.9"/>
			</g>
			<g>
				<path class="st6" d="M104.9,704.9c0,0-0.2,0.8-1.2,0.9C104.7,705.7,104.9,704.9,104.9,704.9"/>
			</g>
			<g>
				<path class="st6" d="M102.3,704.9c0.1,0,0.2,0,0.2,0C102.4,704.9,102.4,704.9,102.3,704.9"/>
			</g>
			<g>
				<path class="st6" d="M101.3,704.9c0.1,0,0.6-0.1,1-0.1C102,704.9,101.6,704.9,101.3,704.9"/>
			</g>
			<g>
				<path class="st6" d="M101.3,704.9L101.3,704.9L101.3,704.9L101.3,704.9z"/>
			</g>
			<g>
				<path class="st6" d="M103.7,705.7c-1-0.1-1.2-0.9-1.2-0.9S102.7,705.7,103.7,705.7"/>
			</g>
			<g>
				<path class="st9" d="M102.4,704.6c0-0.5,0.6-0.9,1.3-0.9s1.3,0.4,1.3,0.9c0,0.5-0.6,0.9-1.3,0.9S102.4,705.1,102.4,704.6"/>
			</g>
			<g>
				<path class="st8" d="M107.7,705.4c0,0,0.2,0,0.2-0.2v-0.6c0,0,0-0.2-0.2-0.2c0,0-0.8-0.5-2.7-0.5c0,0-0.3,0-0.4,0.1l0.1,1
					C104.7,704.9,106.5,704.9,107.7,705.4"/>
			</g>
			<g>
				<path class="st1" d="M107.7,705.6L107.7,705.6c-1-0.4-2.5-0.5-2.9-0.5c-0.1,0-0.2,0-0.2,0l0,0c-0.1,0-0.2-0.1-0.2-0.2l-0.1-1
					c0-0.1,0-0.2,0.1-0.2c0.1-0.1,0.4-0.1,0.5-0.1h0.1c1.9,0,2.7,0.5,2.8,0.5c0.2,0.1,0.2,0.3,0.2,0.4v0.6
					C108,705.3,107.9,705.5,107.7,705.6C107.7,705.6,107.7,705.6,107.7,705.6 M107.7,705.4c0,0,0.2,0,0.2-0.2v-0.6
					c0,0,0-0.2-0.2-0.2c0,0-0.8-0.5-2.7-0.5h-0.1c0,0-0.3,0-0.4,0.1l0.1,1c0,0,0.1,0,0.2,0C105.3,704.9,106.7,704.9,107.7,705.4"/>
			</g>
			<g>
				<path class="st8" d="M99.7,705.4c0,0-0.2,0-0.2-0.2v-0.6c0,0,0-0.2,0.2-0.2c0,0,0.8-0.5,2.7-0.5c0,0,0.3,0,0.4,0.1l-0.1,1
					C102.7,704.9,100.8,704.9,99.7,705.4"/>
			</g>
			<g>
				<path class="st1" d="M99.7,705.6C99.6,705.6,99.6,705.6,99.7,705.6c-0.2-0.1-0.3-0.2-0.3-0.4v-0.6c0-0.1,0-0.3,0.2-0.4
					c0,0,0.9-0.5,2.8-0.5h0.1c0.1,0,0.3,0,0.5,0.1c0.1,0,0.1,0.1,0.1,0.2l-0.1,1c0,0.1-0.1,0.2-0.2,0.2l0,0c0,0-0.1,0-0.2,0
					C102.1,705.1,100.7,705.1,99.7,705.6L99.7,705.6 M99.7,705.4c1-0.4,2.4-0.5,2.9-0.5c0.1,0,0.2,0,0.2,0l0.1-1
					c-0.1-0.1-0.4-0.1-0.4-0.1h-0.1c-1.8,0-2.7,0.5-2.7,0.5c-0.2,0.1-0.2,0.2-0.2,0.2v0.6C99.5,705.3,99.6,705.3,99.7,705.4"/>
			</g>
			<g>
				<path class="st8" d="M102.4,704.5c0-0.7,0.6-1.3,1.3-1.3s1.3,0.6,1.3,1.3l0,0c0,0.7-0.6,1.3-1.3,1.3
					C102.9,705.7,102.4,705.2,102.4,704.5"/>
			</g>
			<g>
				<path class="st1" d="M103.7,706c-0.8,0-1.5-0.6-1.5-1.5c0-0.8,0.6-1.5,1.5-1.5c0.8,0,1.5,0.6,1.5,1.5
					C105.1,705.3,104.5,706,103.7,706 M103.7,705.7c0.7,0,1.3-0.6,1.3-1.3s-0.6-1.3-1.3-1.3l0,0c-0.7,0-1.3,0.6-1.3,1.3
					C102.4,705.2,103,705.7,103.7,705.7"/>
			</g>
			<g>
				<path class="st10" d="M102.8,704.5c0-0.5,0.4-1,1-1c0.5,0,1,0.4,1,1s-0.4,1-1,1C103.1,705.4,102.8,704.9,102.8,704.5"/>
			</g>
			<g>
				<path class="st8" d="M103.1,704.5c0-0.3,0.2-0.6,0.6-0.6c0.3,0,0.6,0.2,0.6,0.6s-0.2,0.6-0.6,0.6
					C103.3,705.1,103.1,704.8,103.1,704.5"/>
			</g>
			<g>
				<path class="st1" d="M99.7,705.4C99.6,705.4,99.6,705.4,99.7,705.4c-0.1,0.4-0.1,1.7,0.2,4.4c0,0.1,0.1,0.1,0.1,0.1
					c0.1,0,0.1-0.1,0.1-0.1l0,0c-0.2-2.5-0.2-3.9-0.2-4.2C99.7,705.5,99.7,705.4,99.7,705.4L99.7,705.4L99.7,705.4z"/>
			</g>
			<g>
				<path class="st6" d="M107.9,712.2c0,0-0.2,0-0.3,0c0,0,0.1,0,0.1,0.1l0,0l0,0l0,0c0,0,0,0,0.1,0
					C107.7,712.3,107.7,712.3,107.9,712.2C107.8,712.2,107.8,712.2,107.9,712.2L107.9,712.2"/>
			</g>
			<g>
				<path class="st6" d="M99.7,712.2c-0.2,0-0.3,0-0.3,0l0,0h0.1c0,0,0,0,0.1,0C99.5,712.2,99.5,712.2,99.7,712.2L99.7,712.2
					L99.7,712.2L99.7,712.2L99.7,712.2"/>
			</g>
			<g>
				<path class="st11" d="M104.2,707.2c0-1.9,1.6-3.5,3.5-3.5c1.9,0,3.5,1.6,3.5,3.5s-1.6,3.5-3.5,3.5
					C105.8,710.7,104.2,709.1,104.2,707.2"/>
			</g>
			<g>
				<g>
					<g>
						<g>
							<defs>
								<rect id="SVGID_1_" x="21.8" y="622.2" width="170.8" height="170.8"/>
							</defs>
							<clipPath id="SVGID_2_">
								<use xlink:href="#SVGID_1_"  style="overflow:visible;"/>
							</clipPath>
							<g class="st12">
								<g>
									<g>
										<defs>
											<rect id="SVGID_3_" x="21.8" y="622.2" width="170.8" height="170.8"/>
										</defs>
										<clipPath id="SVGID_4_">
											<use xlink:href="#SVGID_3_"  style="overflow:visible;"/>
										</clipPath>
										<g class="st13">
											<path class="st6" d="M108.1,710.3c0.9,0,1.7-0.3,2.3-0.9c-0.6,0.8-1.7,1.2-2.6,1.2c-1.9,0-3.5-1.6-3.5-3.5
												c0-1,0.5-2,1.2-2.6c-0.6,0.6-0.9,1.4-0.9,2.3C104.5,708.7,106.1,710.3,108.1,710.3"/>
										</g>
									</g>
								</g>
							</g>
						</g>
					</g>
				</g>
			</g>
			<g>
				<path class="st1" d="M108.5,704.2L108.5,704.2c-1,0.8-3.6,3.1-3.6,3.1s0,0,0,0.1c0.2,2.9,3,3.3,3,3.3s0.1,0,0.1-0.1
					c0,0,0-0.1-0.1-0.1c0,0-2.8-0.5-2.9-3.3C105.3,707.1,107.6,704.9,108.5,704.2C108.6,704.3,108.6,704.3,108.5,704.2L108.5,704.2"
					/>
			</g>
			<g>
				<path class="st1" d="M108,703.7C107.9,703.7,107.9,703.7,108,703.7C107.9,703.7,108,703.7,108,703.7c0.2,0.1,0.5,0.5,0.6,0.6
					l0,0c1.6,0.3,2.2,1.4,2.3,1.6c-0.6,3.3-4.1,4.3-4.1,4.3s-0.1,0,0,0.1c0,0,0,0.1,0.1,0c0,0,3.7-1,4.2-4.4l0,0
					c0,0-0.7-1.3-2.4-1.7C108.5,704.1,108.2,703.7,108,703.7L108,703.7z"/>
			</g>
			<g>
				<path class="st1" d="M110.1,704.9C110.1,704.9,110.1,704.9,110.1,704.9c-1.9,2.5-4.5,4.2-4.5,4.2v0.1l0,0h0.1l0,0
					C105.7,709.2,108.3,707.5,110.1,704.9C110.1,705,110.1,704.9,110.1,704.9L110.1,704.9"/>
			</g>
			<g>
				<path class="st1" d="M104.2,706.8L104.2,706.8C104.1,706.8,104.1,706.9,104.2,706.8L104.2,706.8c0.2,0.3,0.8,0.6,0.8,0.6h0.1
					v-0.1l0,0C105,707.3,104.4,707,104.2,706.8C104.3,706.8,104.2,706.8,104.2,706.8"/>
			</g>
			<g>
				<path class="st1" d="M104.8,705.2C104.8,705.2,104.7,705.2,104.8,705.2C104.7,705.3,104.7,705.3,104.8,705.2
					c0.7,0.5,1.4,1,1.4,1h0.1v-0.1C106.3,706.1,105.6,705.5,104.8,705.2L104.8,705.2"/>
			</g>
			<g>
				<path class="st1" d="M106.3,703.9C106.3,703.9,106.3,704,106.3,703.9C106.2,704,106.2,704,106.3,703.9c0.5,0.4,1,1.3,1,1.3h0.1
					v-0.1C107.4,705.1,106.9,704.3,106.3,703.9C106.4,703.9,106.3,703.9,106.3,703.9"/>
			</g>
			<g>
				<path class="st1" d="M107.7,710.6c-1.9,0-3.4-1.5-3.4-3.4c0-1.9,1.5-3.4,3.4-3.4c1.9,0,3.4,1.5,3.4,3.4
					C111.1,709.1,109.6,710.6,107.7,710.6 M107.7,703.6c-2,0-3.6,1.6-3.6,3.6c0,2,1.6,3.6,3.6,3.6c2,0,3.6-1.6,3.6-3.6
					C111.2,705.3,109.7,703.6,107.7,703.6"/>
			</g>
			<g>
				<path class="st8" d="M109.9,709.9c0,0,0.4,0.1,0.8-0.4c0.4-0.6,0.2-1,0.2-1l-0.4-0.2l-1,1.5L109.9,709.9z"/>
			</g>
			<g>
				<path class="st7" d="M109.3,708c0,0-0.2-0.2-0.4,0.1c-0.2,0.2,0.2,0.6,0.2,0.6l-0.2-0.3c-0.2,0-0.3,0.2-0.3,0.2
					c-0.2,0.3,0.6,0.9,0.6,0.9l-0.3-0.2c0,0-0.3-0.1-0.3,0.2c0,0.2,0.3,0.2,0.3,0.2h0.6c0,0,0.5,0.2,1-0.6c0.5-0.7,0.2-1,0.2-1
					s-0.6-0.8-1-0.6c0,0-0.2,0.1,0.1,0.5l-0.2-0.3c-0.1,0-0.2-0.1-0.3,0.1c-0.2,0.2,0.2,0.6,0.2,0.6L109.3,708z"/>
			</g>
			<g>
				<path class="st1" d="M110.2,710.3C110.3,710.3,110.3,710.3,110.2,710.3l0.1-0.2c-0.2-0.2-0.6-0.5-0.6-0.5l-0.1,0.2
					C109.6,709.8,110,710.1,110.2,710.3L110.2,710.3"/>
			</g>
			<g>
				<path class="st1" d="M109.7,707.5c-0.1,0-0.2,0-0.2,0.1c0,0-0.2,0.2,0.1,0.6c0,0,0.1,0.1,0.1,0s0.1-0.1,0-0.1l0,0
					c-0.2-0.2-0.1-0.3-0.1-0.3c0.2-0.1,0.6,0.2,0.8,0.6l0,0c0,0,0.2,0.2-0.2,0.8c-0.4,0.6-0.8,0.5-0.9,0.5l0,0h-0.6
					c0,0-0.2,0-0.2-0.1v-0.1c0,0,0-0.1,0.1-0.1c0.1-0.1,0.2-0.1,0.2-0.1c0.1,0,0.1,0,0.1-0.1c0-0.1,0-0.1-0.1-0.1l0,0
					c0,0-0.2,0-0.3,0.1c-0.1,0.1-0.1,0.2-0.1,0.2c0,0.2,0,0.2,0.1,0.2s0.2,0.1,0.3,0.1h0.6c0.1,0,0.6,0.1,1-0.6c0.5-0.7,0.2-1,0.2-1
					C110.5,708,110.1,707.5,109.7,707.5"/>
			</g>
			<g>
				<path class="st1" d="M108.8,708.4c-0.2,0-0.3,0.2-0.3,0.2c-0.2,0.3,0.6,0.9,0.7,1h0.1v-0.1l0,0c-0.3-0.2-0.7-0.6-0.6-0.7l0,0
					c0,0,0-0.1,0.2-0.1c0.1,0,0.1,0,0.1-0.1C108.9,708.4,108.9,708.4,108.8,708.4L108.8,708.4"/>
			</g>
			<g>
				<path class="st1" d="M109.4,707.6c-0.1,0-0.2,0.1-0.2,0.2c-0.2,0.2,0.2,0.6,0.2,0.7h0.1v-0.1c-0.1-0.1-0.2-0.3-0.2-0.5
					c0,0,0.1-0.1,0.2,0c0.1,0,0.1,0,0.1-0.1s0-0.1-0.1-0.1C109.6,707.7,109.5,707.6,109.4,707.6"/>
			</g>
			<g>
				<path class="st1" d="M109.1,708c-0.1,0-0.2,0-0.3,0.2c-0.2,0.2,0.2,0.7,0.2,0.7h0.1v-0.1l0,0c-0.1-0.1-0.3-0.4-0.2-0.5
					c0.1-0.1,0.2-0.1,0.2-0.1c0.1,0,0.1,0,0.1,0v-0.1l0,0C109.2,708,109.2,708,109.1,708"/>
			</g>
			<g>
				<path class="st1" d="M110.6,708.2C110.5,708.2,110.5,708.2,110.6,708.2l-0.1,0.2c1,0.8,0.7,1.7,0.7,1.7
					c-0.5,1.3-3.3,2.3-3.3,2.3c-0.1,0-0.1,0.1-0.1,0.1c0,0.1,0.1,0.1,0.1,0.1c0.1-0.1,2.9-1,3.3-2.4
					C111.5,710.1,111.8,709.1,110.6,708.2C110.7,708.2,110.7,708.2,110.6,708.2"/>
			</g>
			<g>
				<path class="st14" d="M103.6,726.3c0,0,7.5,0.2,6.9-7.9c0,0,0.1-2.2-1.1-4.4c0,0,0.3,1.9,0.2,2.8l0.1,1c0,0,0,0.7-0.6,1.3
					c-0.1,0.2-1.7,1.9-1.7,1.9s-0.2,0.2-0.6,0l-2.9-1.2c0,0-0.3-0.1-0.4-0.1s-0.4,0.1-0.4,0.1l-2.9,1.2c-0.4,0.2-0.6,0-0.6,0
					s-1.7-1.7-1.7-1.9c-0.6-0.6-0.6-1.3-0.6-1.3l0.1-1c0-0.9,0.2-2.8,0.2-2.8c-1.2,2-1.1,4.4-1.1,4.4
					C96.2,726.5,103.6,726.3,103.6,726.3"/>
			</g>
			<g>
				<path class="st1" d="M107.4,721.2C107.4,721.2,107.3,721.2,107.4,721.2c-0.1,0-0.1,0.1-0.1,0.2c0.1,0.8,0.3,3.3-0.5,4.3
					c0,0.1,0,0.1,0,0.2c0.1,0,0.1,0,0.2,0c0.9-1,0.6-3.7,0.6-4.4l0,0C107.4,721.3,107.4,721.2,107.4,721.2"/>
			</g>
			<g>
				<path class="st1" d="M100,721.2C99.9,721.2,99.9,721.3,100,721.2L100,721.2c-0.2,0.9-0.4,3.5,0.5,4.5c0,0.1,0.1,0.1,0.2,0
					c0.1,0,0.1-0.1,0-0.2C99.7,724.6,100,722.1,100,721.2C100.1,721.4,100.1,721.2,100,721.2L100,721.2"/>
			</g>
			<g>
				<path class="st15" d="M104.2,726.6l0.2,2.2c0,0.6-0.8,0.6-0.8,0.6v-2.9"/>
			</g>
			<g>
				<path class="st15" d="M105,726.4l0.4,1.1c0.1,0.2,0.2,0.5,0,0.7c-0.2,0.4-0.7,0.5-1,0.2l-0.2-1.8
					C104.2,726.7,104.9,726.6,105,726.4"/>
			</g>
			<g>
				<path class="st15" d="M103.1,726.6l-0.2,2.2c0,0.6,0.8,0.6,0.8,0.6v-2.9"/>
			</g>
			<g>
				<path class="st15" d="M102.3,726.4l-0.4,1.2c-0.1,0.2-0.1,0.5,0,0.7c0.2,0.4,0.7,0.5,1,0.2l0.2-1.8
					C103.1,726.7,102.4,726.6,102.3,726.4"/>
			</g>
			<g>
				<path class="st1" d="M105,726.4C104.9,726.4,104.9,726.4,105,726.4L105,726.4l0.3,1.2c0.1,0.2,0.1,0.5,0.1,0.6
					c-0.1,0.2-0.2,0.2-0.3,0.3c-0.2,0.1-0.4,0-0.6-0.1c-0.1,0-0.1,0-0.2,0v0.1v0.4c0,0.5-0.6,0.5-0.7,0.5l0,0c-0.1,0-0.6,0-0.7-0.5
					v-0.3c0-0.1,0-0.1-0.1-0.1h-0.1c-0.2,0.1-0.3,0.2-0.6,0.1c-0.2-0.1-0.3-0.2-0.3-0.3c-0.1-0.2-0.1-0.3,0-0.6l0.4-1.1
					c0-0.1,0-0.1-0.1-0.2c-0.1,0-0.1,0-0.2,0.1l0,0l-0.4,1.1c-0.1,0.2-0.2,0.5,0,0.7c0.1,0.2,0.2,0.3,0.5,0.4c0.2,0.1,0.4,0,0.6,0
					v0.2c0,0.2,0.1,0.4,0.2,0.5c0.2,0.2,0.6,0.2,0.6,0.2l0,0c0.3,0,0.9-0.2,0.9-0.7v-0.2c0.2,0.1,0.4,0.1,0.6,0
					c0.2-0.1,0.4-0.2,0.5-0.4c0.1-0.2,0-0.6,0-0.7L105,726.4C105.1,726.4,105.1,726.4,105,726.4"/>
			</g>
			<g>
				<path class="st1" d="M103.1,726.5C103,726.5,103,726.6,103.1,726.5l-0.3,2.3c0,0.1,0,0.1,0.1,0.1s0.1,0,0.1-0.1L103.1,726.5
					C103.1,726.6,103.1,726.5,103.1,726.5L103.1,726.5L103.1,726.5z"/>
			</g>
			<g>
				<path class="st1" d="M104.2,726.5L104.2,726.5C104.1,726.5,104.1,726.6,104.2,726.5L104.2,726.5l0.2,2.3c0,0.1,0.1,0.1,0.1,0.1
					c0.1,0,0.1-0.1,0.1-0.1L104.2,726.5C104.3,726.6,104.3,726.5,104.2,726.5"/>
			</g>
			<g>
				<path class="st14" d="M101.9,726.3c0.2,0.2,0.3,0.3,0.5,0.4c0.3,0.2,0.6,0.2,1,0.3c0.1,0,0.2,0,0.2,0c0.3,0,0.6-0.1,1-0.2
					c0.2-0.1,0.5-0.2,0.6-0.4c0.1-0.1,0.2-0.2,0.2-0.3l0,0l-3.8,0.1C101.8,726.2,101.8,726.3,101.9,726.3"/>
			</g>
			<g>
				<path class="st1" d="M101.7,726C101.6,726,101.6,726.1,101.7,726c-0.1,0.1-0.1,0.1-0.1,0.2s0.1,0.1,0.1,0.2
					c0.2,0.2,0.3,0.3,0.6,0.4c0.3,0.2,0.6,0.2,1,0.3c0.1,0,0.2,0,0.2,0l0,0c0.3,0,0.7-0.1,1-0.2c0.2-0.1,0.5-0.2,0.7-0.4
					c0.1-0.1,0.2-0.2,0.2-0.2c0-0.1,0-0.1,0-0.2c0-0.1-0.1,0-0.2,0l0,0c-0.1,0.1-0.2,0.2-0.2,0.2c-0.2,0.2-0.4,0.3-0.6,0.4
					c-0.3,0.1-0.6,0.2-1,0.2l0,0c-0.1,0-0.2,0-0.2,0c-0.4,0-0.7-0.2-1-0.2c-0.2-0.1-0.3-0.2-0.5-0.4c0-0.1-0.1-0.1-0.1-0.2
					C101.8,726,101.8,726,101.7,726"/>
			</g>
			<g>
				<path class="st1" d="M103.5,726.5c-0.6,0-3.4-0.1-5.3-2.1c-1.3-1.4-1.9-3.4-1.7-6c0-0.2,0-3.7,2.2-5.9c1.2-1.2,2.9-1.8,4.8-1.8
					l0,0c2,0,3.7,0.6,4.9,1.8c2.2,2.2,2.3,5.6,2.3,5.9c0.2,2.5-0.4,4.5-1.7,6c-1.9,2.1-4.8,2.1-5.3,2.1H103.5L103.5,726.5z
					 M103.5,726.3C103.6,726.3,103.6,726.3,103.5,726.3L103.5,726.3c0.7,0,7.5-0.2,7-7.9c0,0,0-7.5-7-7.5l0,0c-7,0-6.9,7.5-6.9,7.5
					C96.2,726,102.8,726.3,103.5,726.3"/>
			</g>
			<g>
				<path class="st7" d="M110,717.8L110,717.8L110,717.8C110,717.8,110,717.8,110,717.8z M110,717.9C110,717.9,110,717.8,110,717.9
					L110,717.9L110,717.9z"/>
				<path class="st7" d="M110,717.8L110,717.8l-0.1-2.9c0,0,0.3-2.4-2-3.6c-0.9-0.5-1.7-0.9-4.2-1c-2.4,0.1-3.3,0.5-4.2,1
					c-2.3,1.2-2,3.6-2,3.6l-0.1,2.9c0,0,0,0.7,0.6,1.3c0.1,0.2,1.8,2,1.8,2s0.2,0.2,0.6,0l2.9-1.2c0,0,0.3-0.2,0.4-0.1
					c0.1,0,0.4,0.1,0.4,0.1l2.9,1.2c0.4,0.2,0.6,0,0.6,0s1.7-1.7,1.7-2C109.9,718.7,110,718.1,110,717.8
					C110,717.9,110,717.8,110,717.8z"/>
			</g>
			<g>
				<path class="st16" d="M106.9,715.3c0-0.5,0.5-0.8,1.1-0.9c0.6,0,1.1,0.4,1.1,0.8c0,0.5-0.5,0.8-1.1,0.9
					C107.4,716.1,106.9,715.7,106.9,715.3"/>
			</g>
			<g>
				<path class="st17" d="M103.6,715.1c0,0,0.3,0,0.4-0.4h-0.4V715.1z"/>
			</g>
			<g>
				<path class="st16" d="M100.4,715.3c0-0.5-0.5-0.8-1.1-0.8s-1.1,0.4-1.1,0.9s0.5,0.8,1.1,0.8C100,716.1,100.4,715.8,100.4,715.3"
					/>
			</g>
			<g>
				<path class="st17" d="M103.6,715.1c0,0-0.3,0-0.4-0.4h0.4V715.1z"/>
			</g>
			<g>
				<path class="st1" d="M97.5,717.9l0.1-2.9l0,0c0-0.1-0.3-2.3,1.9-3.5c0.9-0.5,1.7-0.8,4.2-1c2.4,0.1,3.3,0.5,4.2,0.9
					c2.2,1.1,1.9,3.3,1.9,3.5l0,0l0.1,2.9c0,0.1,0,0.7-0.6,1.3l0,0c-0.1,0.2-1.1,1.3-1.7,1.9l0,0c0,0-0.1,0.2-0.4,0l-2.9-1.2
					c-0.1,0-0.3-0.2-0.4-0.1c-0.2,0-0.4,0.1-0.4,0.1l-2.9,1.2c-0.3,0.2-0.4,0-0.4,0l0,0c-0.6-0.6-1.7-1.8-1.7-1.9l0,0
					C97.6,718.6,97.5,718,97.5,717.9 M103.7,710.3c-2.5,0.1-3.4,0.5-4.3,1c-2.3,1.2-2,3.5-2,3.7l-0.1,2.9l0,0c0,0,0,0.8,0.6,1.4
					c0.2,0.2,1.5,1.7,1.8,2c0.1,0.1,0.2,0.2,0.6,0.1l2.9-1.2c0.2-0.1,0.3-0.1,0.3-0.1l0,0c0.1,0,0.2,0,0.3,0.1l3,1.2
					c0.4,0.2,0.6,0,0.6-0.1c0.3-0.3,1.7-1.7,1.8-2c0.6-0.6,0.6-1.4,0.6-1.4l0,0l-0.1-2.9c0-0.2,0.2-2.5-2-3.7
					C107.1,710.8,106.1,710.4,103.7,710.3"/>
			</g>
			<g>
				<path class="st18" d="M103.7,710.7c1.4,0.1,2.1,0.6,2.5,1.1c0.5,0.6,0.5,1.2,0.5,1.3c0,0.2-0.1,0.6-0.3,0.7
					c-0.2,0.2-0.4,0.2-0.7,0.2c-0.7-0.2-2-0.3-2-0.3s-1.3,0.1-2,0.3c-0.3,0.1-0.6,0-0.7-0.2c-0.2-0.2-0.3-0.4-0.3-0.7
					c0-0.2,0-0.8,0.5-1.3C101.5,711.3,102.3,710.8,103.7,710.7"/>
			</g>
			<g>
				<path class="st1" d="M101.4,713.9c-0.2,0-0.3-0.1-0.4-0.2c-0.2-0.2-0.2-0.3-0.2-0.6c0-0.1,0-0.7,0.5-1.3c0.5-0.6,1.3-1,2.5-1
					c1.2,0.1,2,0.4,2.5,1c0.5,0.6,0.5,1.2,0.5,1.3c0,0.2-0.1,0.5-0.2,0.6c-0.2,0.2-0.4,0.2-0.6,0.1c-0.7-0.2-2-0.3-2.1-0.3
					s-1.3,0.1-2.1,0.3C101.6,713.9,101.5,713.9,101.4,713.9 M103.7,710.7L103.7,710.7L103.7,710.7c-1.3,0.1-2.1,0.4-2.6,1.1
					c-0.5,0.6-0.5,1.3-0.5,1.4c0,0.3,0.2,0.6,0.3,0.8c0.2,0.2,0.4,0.2,0.8,0.2c0.7-0.2,2-0.3,2-0.3c0.1,0,1.3,0.1,2,0.3
					c0.4,0.2,0.6,0,0.8-0.2c0.2-0.2,0.3-0.5,0.3-0.8c0-0.1,0-0.8-0.5-1.4C105.8,711,104.9,710.7,103.7,710.7L103.7,710.7z"/>
			</g>
			<g>
				<path class="st19" d="M103.7,711.2c0.3,0,0.7,0.1,0.7,0.1c0.5,0.1,0.8,0.2,1,0.4l0,0c-0.6,0.4-1.7,0.4-1.7,0.4s-1.2,0.1-1.7-0.4
					l0,0c0.2-0.2,0.5-0.3,1-0.4C103,711.3,103.4,711.2,103.7,711.2"/>
			</g>
			<g>
				<path class="st6" d="M105.6,711.9c0,0-0.1-0.1-0.2-0.2c-0.2-0.2-0.5-0.3-1-0.4c0,0-0.4-0.1-0.7-0.1c-0.3,0-0.7,0.1-0.7,0.1
					c-0.5,0.1-0.8,0.2-1,0.4c-0.2,0.1-0.2,0.2-0.2,0.2c-0.4,0.4-0.6,0-0.6,0c0.4-0.6,1.2-1,2.5-1.1c1.4,0.1,2.1,0.6,2.5,1.1
					C106.2,711.9,106,712.4,105.6,711.9"/>
			</g>
			<g>
				<path class="st6" d="M108,717.6c0-0.5-0.2-1.3-0.7-1.6h-1.8c0,0-0.4,0.2-0.7,0.7L108,717.6z"/>
			</g>
			<g>
				<path class="st1" d="M104.7,716.6C104.6,716.6,104.6,716.7,104.7,716.6c-0.1,0.2-0.1,0.2,0,0.2l3.3,0.9c0.1,0,0.1,0,0.2-0.1
					c0-0.1,0-0.1-0.1-0.2L104.7,716.6C104.7,716.6,104.7,716.6,104.7,716.6"/>
			</g>
			<g>
				<path class="st20" d="M107.4,715.8L107.4,715.8h-1.9c-0.1,0-0.1,0.1-0.1,0.1c0,0.1,0.1,0.1,0.1,0.1h1.9
					C107.4,716,107.4,715.9,107.4,715.8C107.4,715.9,107.4,715.8,107.4,715.8L107.4,715.8"/>
			</g>
			<g>
				<path class="st6" d="M99.3,717.6c0-0.5,0.2-1.3,0.7-1.6h1.8c0,0,0.4,0.2,0.7,0.7L99.3,717.6z"/>
			</g>
			<g>
				<path class="st1" d="M102.6,716.6L102.6,716.6l-3.4,1c-0.1,0-0.1,0.1-0.1,0.2l0,0c0,0.1,0.1,0.1,0.2,0.1l3.3-0.9
					c0.1,0,0.1-0.1,0.1-0.2C102.7,716.6,102.7,716.6,102.6,716.6"/>
			</g>
			<g>
				<path class="st20" d="M101.9,715.8L101.9,715.8H100c-0.1,0-0.1,0.1-0.1,0.1c0,0.1,0.1,0.1,0.1,0.1h1.9
					C102,716,102,715.9,101.9,715.8C102,715.9,102,715.8,101.9,715.8L101.9,715.8"/>
			</g>
			<g>
				<path class="st1" d="M105.4,716.8c0.1-0.2,0.3-0.3,0.6-0.2c0.2,0.1,0.3,0.2,0.3,0.4v0.1L105.4,716.8z"/>
			</g>
			<g>
				<path class="st1" d="M101.9,716.8c-0.1-0.2-0.3-0.3-0.6-0.2c-0.2,0.1-0.3,0.2-0.2,0.5L101.9,716.8z"/>
			</g>
			<g>
				<path class="st1" d="M104.3,717.6c0.1,0,0.1,0,0.2,0l2.6,1.7c0.1,0.1,0.1,0.2,0,0.2s-0.2,0.2-0.2,0.1l-2.4-1.6
					c0,0-0.2,0.2-0.2,0.2c-0.2,0-0.2-0.2-0.2-0.4s0.1-0.2,0.2-0.3C104.3,717.6,104.3,717.6,104.3,717.6"/>
			</g>
			<g>
				<path class="st1" d="M103,717.6c-0.1,0-0.1,0-0.2,0l-2.6,1.7c-0.1,0.1-0.1,0.2,0,0.2s0.2,0.2,0.2,0.1l2.4-1.6
					c0,0,0.2,0.2,0.2,0.2c0.2,0,0.1-0.2,0.2-0.4C103.2,717.6,103.1,717.6,103,717.6C103,717.6,103,717.6,103,717.6"/>
			</g>
			<g>
				<path class="st1" d="M114.6,707.2c-0.4,0-0.8-0.1-1.2-0.2c-0.2,0.2-0.6,0.2-0.8,0.2c-0.3,0-0.6-0.1-1-0.2
					c-0.3,0.2-0.6,0.2-1,0.2c-0.2,0-0.6-0.1-0.8-0.2c-0.4,0.2-0.8,0.2-1.2,0.2c-1,0-2-0.4-2.7-1.1c-0.9,1.1-2.5,1.4-3.7,0.8
					c-0.6,0.3-1.3,0.4-2.1,0.2c-0.7,0.2-1.4,0-1.9-0.5c-0.3,0.3-0.7,0.5-1.1,0.6c0.2,0.6,0.3,1.3,0.3,2.2c0,2.3-1.9,4.2-4.2,4.2
					s-4.2-1.9-4.2-4.2c0-1,0.1-1.6,0.3-2.2c-1-0.2-1.7-1-1.7-2.1v-0.6c0-1,0.8-1.9,1.7-2.1c-0.2-0.3-0.3-0.7-0.3-1
					c0-0.1,0-0.7,0-0.9c0-0.6,0.2-1,0.6-1.4c0.4-0.4,1-0.6,1.5-0.6s1.1,0.2,1.5,0.6l0.6,0.6l0.6-0.6c0.4-0.4,1-0.6,1.5-0.6
					c0.6,0,1.1,0.2,1.5,0.6c0.4,0.4,0.6,1,0.6,1.5c0,0.2,0,0.8,0,0.8l0,0c0,0.4-0.2,0.7-0.3,1c0.2,0.1,0.4,0.1,0.6,0.2V701
					c0-1,0.8-1.8,1.8-1.8c0.5,0,1,0.2,1.3,0.6c0.3-0.3,0.8-0.6,1.3-0.6c0.5,0,1,0.2,1.3,0.6c0.3-0.3,0.8-0.6,1.3-0.6
					c0.6,0,1.1,0.2,1.4,0.7c0.6-0.6,1.5-0.8,2.3-0.8c0.5,0,0.9,0.1,1.3,0.2c0.2-0.1,0.4-0.1,0.6-0.1c0.3,0,0.6,0.1,1,0.2
					c0.3-0.2,0.6-0.2,1-0.2c1,0,1.8,0.8,1.8,1.8c0,0.1,0.1,0.2,0.2,0.2s0.2-0.1,0.2-0.2c0-1,0.8-1.8,1.8-1.8c1,0,1.8,0.8,1.8,1.8
					v2.5C118.4,705.5,116.7,707.2,114.6,707.2"/>
			</g>
			<g>
				<path class="st14" d="M114.6,706.8c-0.4,0-0.8-0.1-1.2-0.2c-0.2,0.2-0.5,0.2-0.8,0.2c-0.3,0-0.7-0.2-1-0.4
					c-0.2,0.2-0.6,0.4-1,0.4c-0.2,0-0.6-0.1-0.8-0.2c-0.4,0.2-0.8,0.2-1.2,0.2c-1.1,0-2.1-0.6-2.7-1.4c-0.5,0.9-1.3,1.4-2.4,1.4
					c-0.5,0-0.9-0.1-1.3-0.3c-0.4,0.2-0.9,0.3-1.3,0.3c-0.2,0-0.6,0-0.8-0.1c-0.2,0.1-0.3,0.1-0.6,0.1c-0.6,0-1.2-0.4-1.3-1
					c-0.2,0.6-0.9,1-1.5,1h-0.3c0.3,0.6,0.6,1.3,0.6,2.6c0,2.1-1.7,3.7-3.7,3.7c-2.1,0-3.7-1.7-3.7-3.7c0-1.3,0.2-2.1,0.6-2.6h-0.3
					c-1,0-1.7-0.7-1.7-1.7v-0.6c0-1,0.7-1.7,1.7-1.7h0.6l-0.5-0.5c-0.3-0.3-0.5-0.6-0.5-1c0,0,0-0.7,0-0.9c0-0.4,0.2-0.8,0.5-1.1
					c0.3-0.3,0.7-0.5,1.2-0.5l0,0c0.5,0,0.9,0.2,1.2,0.5l1,1l1-1c0.6-0.6,1.7-0.6,2.4,0c0.3,0.3,0.5,0.7,0.5,1.2c0,0.2,0,0.8,0,0.8
					c0,0.4-0.2,0.8-0.5,1l-0.5,0.5h0.6c0.6,0,1.2,0.3,1.5,1V701c0-0.7,0.6-1.3,1.3-1.3c0.6,0,1.1,0.4,1.3,1c0.2-0.6,0.7-1,1.3-1
					c0.6,0,1.1,0.4,1.3,1c0.2-0.6,0.7-1,1.3-1c0.6,0,1.1,0.4,1.3,1c0.6-0.7,1.5-1.1,2.5-1.1c0.5,0,0.9,0.1,1.3,0.2
					c0.6-0.2,1.2-0.2,1.6,0.2c0.2-0.2,0.6-0.4,1-0.4c0.7,0,1.3,0.6,1.3,1.3c0,0.3,0.2,0.6,0.6,0.6c0.3,0,0.6-0.2,0.6-0.6
					c0-0.7,0.6-1.3,1.3-1.3c0.7,0,1.3,0.6,1.3,1.3v2.5C117.9,705.3,116.4,706.8,114.6,706.8"/>
			</g>
			<g>
				<path class="st6" d="M103.7,704.9c0.6,0.1,1-0.3,0.9-0.9v-2.5c0-0.2,0.2-0.4,0.4-0.4c0.2,0,0.4,0.2,0.4,0.4v2.5
					c0,1-0.8,1.7-1.7,1.7c-0.5,0-0.9-0.2-1.2-0.6c-0.1-0.1-0.2-0.1-0.2,0c-0.3,0.3-0.8,0.6-1.2,0.6c-0.3,0-0.6-0.1-0.8-0.2
					c-0.1,0-0.2,0-0.2,0c-0.2,0.2-0.4,0.2-0.6,0.1c-0.1-0.1-0.2-0.2-0.2-0.3v-3.8c0-0.2,0.2-0.4,0.4-0.4c0.2,0,0.4,0.2,0.4,0.4v2.5
					c0,0.5,0.4,0.9,0.9,0.9c0.5,0,0.9-0.4,0.9-0.9v-2.5c0-0.2,0.2-0.4,0.4-0.4c0.2,0,0.4,0.2,0.4,0.4v2.5
					C102.8,704.5,103.2,704.9,103.7,704.9 M105.1,700.9c-0.3,0-0.6,0.3-0.6,0.6v2.5c0,0.4-0.3,0.6-0.6,0.6c-0.4,0-0.6-0.3-0.6-0.6
					v-2.5c0-0.3-0.3-0.6-0.6-0.6c-0.3,0-0.6,0.3-0.6,0.6v2.5c0,0.4-0.3,0.6-0.6,0.6c-0.4,0-0.6-0.3-0.6-0.6v-2.5
					c0-0.3-0.3-0.6-0.6-0.6c-0.3,0-0.6,0.3-0.6,0.6v3.8c0,0.3,0.3,0.6,0.6,0.6c0.2,0,0.3-0.1,0.5-0.2c0.2,0.2,0.6,0.2,0.9,0.2
					c0.5,0,1-0.2,1.3-0.5c0.4,0.3,0.8,0.5,1.3,0.5c1.1,0,2-0.9,2-2v-2.5C105.7,701.2,105.4,700.9,105.1,700.9"/>
			</g>
			<g>
				<path class="st6" d="M97,705.9h-7.1c-0.5,0-0.8-0.4-0.8-0.8c0-0.5,0.4-0.8,0.8-0.8H97c0.5,0,0.9,0.3,0.9,0.8
					S97.4,705.9,97,705.9L97,705.9"/>
			</g>
			<g>
				<path class="st6" d="M89.9,705.8c-0.4,0-0.7-0.3-0.7-0.7c0-0.4,0.3-0.7,0.7-0.7H97c0.4,0,0.7,0.3,0.7,0.7c0,0.4-0.3,0.7-0.7,0.7
					H89.9z M97,704.1h-7.1c-0.6,0-1,0.4-1,1s0.4,1,1,1H97c0.6,0,1-0.4,1-1S97.4,704.1,97,704.1"/>
			</g>
			<g>
				<path class="st6" d="M93.4,710.6c0.7,0,1.3-0.6,1.3-1.3s-0.6-1.3-1.3-1.3s-1.3,0.6-1.3,1.3S92.7,710.6,93.4,710.6 M93.4,706.4
					c1.6,0,2.9,1.3,2.9,2.9c0,1.6-1.3,2.9-2.9,2.9s-2.9-1.3-2.9-2.9C90.4,707.7,91.8,706.4,93.4,706.4"/>
			</g>
			<g>
				<path class="st6" d="M93.4,710.5c-0.6,0-1.1-0.5-1.1-1.1c0-0.6,0.5-1.1,1.1-1.1s1.1,0.5,1.1,1.1C94.5,709.9,94,710.5,93.4,710.5
					 M93.4,708c-0.7,0-1.3,0.6-1.3,1.3c0,0.7,0.6,1.3,1.3,1.3c0.7,0,1.3-0.6,1.3-1.3C94.7,708.6,94.2,708,93.4,708 M93.4,712.2
					c-1.5,0-2.8-1.3-2.8-2.8c0-1.5,1.3-2.8,2.8-2.8s2.8,1.3,2.8,2.8C96.2,710.9,94.9,712.2,93.4,712.2 M93.4,706.4c-1.7,0-3,1.3-3,3
					c0,1.7,1.3,3,3,3c1.7,0,3-1.3,3-3C96.4,707.7,95.1,706.4,93.4,706.4"/>
			</g>
			<g>
				<path class="st6" d="M93.9,703.8c-0.3,0.3-0.9,0.3-1.2,0l0,0l-2.1-2.1c-0.3-0.3-0.3-0.9,0-1.2c0.3-0.3,0.9-0.3,1.2,0l1.6,1.6
					l1.6-1.6c0.3-0.3,0.9-0.3,1.2,0c0.3,0.3,0.3,0.9,0,1.2L93.9,703.8z"/>
			</g>
			<g>
				<path class="st6" d="M93.4,704c-0.2,0-0.4-0.1-0.5-0.2l-2.1-2.1c-0.2-0.2-0.2-0.3-0.2-0.5s0.1-0.4,0.2-0.5
					c0.2-0.2,0.3-0.2,0.5-0.2l0,0c0.2,0,0.4,0.1,0.5,0.2l1.6,1.6c0.1,0.1,0.2,0.1,0.2,0l1.6-1.6c0.3-0.2,0.7-0.2,1,0
					c0.2,0.3,0.2,0.7,0,1l-2.1,2.1C93.8,703.9,93.5,704,93.4,704 M91.2,700.2c-0.2,0-0.5,0.1-0.6,0.3c-0.2,0.2-0.3,0.4-0.3,0.6
					c0,0.2,0.1,0.5,0.3,0.6l2.1,2.1c0.4,0.4,1,0.4,1.3,0l2.1-2.1c0.4-0.4,0.4-1,0-1.3c-0.4-0.4-1-0.4-1.3,0l-1.5,1.5l-1.5-1.5
					C91.7,700.3,91.5,700.2,91.2,700.2L91.2,700.2z"/>
			</g>
			<g>
				<path class="st6" d="M114.6,705.9c-0.6,0-1-0.2-1.4-0.5c0,0.3-0.3,0.5-0.6,0.5c-0.2,0-0.5-0.2-0.5-0.6v-3.8
					c0-0.3,0.2-0.6,0.6-0.6c0.3,0,0.6,0.2,0.6,0.6v1.8c0,0.8,0.6,1.4,1.4,1.4s1.4-0.6,1.4-1.4v-1.8c0-0.3,0.2-0.6,0.6-0.6
					s0.6,0.2,0.6,0.6v1.8C117.1,704.8,116,705.9,114.6,705.9"/>
			</g>
			<g>
				<path class="st6" d="M114.6,704.9c0.9,0,1.6-0.7,1.6-1.6v-1.8c0-0.2,0.2-0.4,0.4-0.4c0.2,0,0.4,0.2,0.4,0.4v1.8
					c0,1.3-1,2.4-2.4,2.4c-0.5,0-1-0.2-1.3-0.5c-0.1,0-0.2,0-0.2,0s0,0,0,0.1c0,0.2-0.2,0.4-0.4,0.4c-0.2,0-0.4-0.2-0.4-0.4v-3.8
					c0-0.2,0.2-0.4,0.4-0.4c0.2,0,0.4,0.2,0.4,0.4v1.8C113.1,704.3,113.8,704.9,114.6,704.9 M116.6,700.9c-0.3,0-0.6,0.3-0.6,0.6
					v1.8c0,0.7-0.6,1.3-1.3,1.3c-0.7,0-1.3-0.6-1.3-1.3v-1.8c0-0.3-0.3-0.6-0.6-0.6c-0.3,0-0.6,0.3-0.6,0.6v3.8
					c0,0.3,0.3,0.6,0.6,0.6c0.2,0,0.5-0.2,0.6-0.4c0.4,0.2,0.9,0.4,1.3,0.4c1.4,0,2.6-1.2,2.6-2.6v-1.8
					C117.2,701.2,117,700.9,116.6,700.9"/>
			</g>
			<g>
				<path class="st6" d="M108.8,702c-0.8,0-1.4,0.6-1.4,1.4c0,0.8,0.6,1.4,1.4,1.4s1.4-0.6,1.4-1.4C110.2,702.6,109.6,702,108.8,702
					 M110.8,705.9c-0.2,0-0.5-0.2-0.6-0.5c-0.4,0.3-1,0.5-1.4,0.5c-1.3,0-2.5-1.1-2.5-2.5c0-1.3,1.1-2.5,2.5-2.5
					c0.6,0,1,0.2,1.5,0.5c0.1-0.2,0.4-0.4,0.6-0.3c0.2,0.1,0.4,0.2,0.4,0.5v3.8C111.2,705.7,111,705.9,110.8,705.9"/>
			</g>
			<g>
				<path class="st6" d="M108.8,704.7c-0.7,0-1.3-0.6-1.3-1.3c0-0.7,0.6-1.3,1.3-1.3c0.7,0,1.3,0.6,1.3,1.3
					C110.1,704.1,109.5,704.7,108.8,704.7 M108.8,701.8c-0.9,0-1.6,0.7-1.6,1.6c0,0.9,0.7,1.6,1.6,1.6s1.6-0.7,1.6-1.6
					C110.4,702.6,109.7,701.8,108.8,701.8 M108.8,705.8c-1.3,0-2.4-1-2.4-2.4c0-1.3,1-2.4,2.4-2.4c0.5,0,1,0.2,1.4,0.5
					c0.1,0,0.2,0,0.2,0l0,0c0.1-0.2,0.2-0.3,0.4-0.3c0.2,0,0.4,0.2,0.4,0.4v3.8c0,0.2-0.2,0.4-0.4,0.4s-0.4-0.2-0.4-0.4
					c0-0.1-0.1-0.1-0.2-0.1c0,0,0,0-0.1,0C109.7,705.7,109.3,705.8,108.8,705.8 M108.8,700.8c-1.4,0-2.6,1.2-2.6,2.6
					c0,1.4,1.2,2.6,2.6,2.6c0.5,0,1-0.2,1.3-0.4c0.2,0.3,0.6,0.5,0.9,0.3c0.2-0.1,0.4-0.3,0.4-0.6v-3.8c0-0.3-0.3-0.6-0.6-0.6
					c-0.2,0-0.4,0.1-0.6,0.3C109.8,701,109.3,700.8,108.8,700.8"/>
			</g>
		</g>
		<g>
			
				<linearGradient id="SVGID_5_" gradientUnits="userSpaceOnUse" x1="5.078" y1="-1.4548" x2="5.361" y2="-1.4548" gradientTransform="matrix(0 -47.2811 -47.2811 0 8.3007 364.1999)">
				<stop  offset="0" style="stop-color:#FFFFFF"/>
				<stop  offset="1" style="stop-color:#AF964E"/>
			</linearGradient>
			<path class="st21" d="M54.3,168.9c0.6,1.9,2.2,3.2,4.2,3.3h37.2c2,0,3.7-1.3,4.2-3.3H54.3z"/>
		</g>
		<g>
			
				<linearGradient id="SVGID_6_" gradientUnits="userSpaceOnUse" x1="5.078" y1="-1.4539" x2="5.361" y2="-1.4539" gradientTransform="matrix(0 -47.2808 -47.2808 0 8.3045 364.1995)">
				<stop  offset="0" style="stop-color:#FFFFFF"/>
				<stop  offset="1" style="stop-color:#AF964E"/>
			</linearGradient>
			<path class="st22" d="M74,174.2l-11.3,11.3c-1.7,1.7-1.7,4.4,0,6.2l0,0c0.8,0.8,1.9,1.3,3.1,1.3c1.1,0,2.2-0.4,3.1-1.3l8.2-8.2
				l8.2,8.2c1.7,1.7,4.4,1.7,6.2,0c1.7-1.7,1.7-4.4,0-6.2l0,0l-11.3-11.3C78.5,172.5,75.7,172.5,74,174.2"/>
		</g>
		<g>
			
				<linearGradient id="SVGID_7_" gradientUnits="userSpaceOnUse" x1="5.0779" y1="-1.1034" x2="5.3609" y2="-1.1034" gradientTransform="matrix(2.895134e-15 -47.2811 -47.2811 -2.895134e-15 58.5653 364.1944)">
				<stop  offset="0" style="stop-color:#FFFFFF"/>
				<stop  offset="1" style="stop-color:#AF964E"/>
			</linearGradient>
			<path class="st23" d="M107.9,172.1v14.1c0,1.5,1.3,2.8,2.8,2.8s2.8-1.3,2.8-2.8v-13.2c0-0.3,0.1-0.6,0.1-1H107.9z"/>
		</g>
		<g>
			
				<linearGradient id="SVGID_8_" gradientUnits="userSpaceOnUse" x1="5.078" y1="-0.9601" x2="5.361" y2="-0.9601" gradientTransform="matrix(2.895134e-15 -47.2811 -47.2811 -2.895134e-15 79.1083 364.1999)">
				<stop  offset="0" style="stop-color:#FFFFFF"/>
				<stop  offset="1" style="stop-color:#AF964E"/>
			</linearGradient>
			<path class="st24" d="M121.6,172.1c0.1,0.3,0.1,0.6,0.1,1v13.2c0,1.5,1.3,2.8,2.8,2.8s2.8-1.3,2.8-2.8v-13.2c0-0.3,0.1-0.6,0.1-1
				H121.6z"/>
		</g>
		<g>
			
				<linearGradient id="SVGID_9_" gradientUnits="userSpaceOnUse" x1="5.078" y1="-0.8167" x2="5.361" y2="-0.8167" gradientTransform="matrix(2.895134e-15 -47.2811 -47.2811 -2.895134e-15 99.6562 364.1995)">
				<stop  offset="0" style="stop-color:#FFFFFF"/>
				<stop  offset="1" style="stop-color:#AF964E"/>
			</linearGradient>
			<path class="st25" d="M135.5,172.1c0.1,0.3,0.1,0.6,0.1,1v13.2c0.1,1.5,1.3,2.7,2.9,2.7c1.4-0.1,2.6-1.2,2.7-2.7v-13.2
				c0-0.3,0-0.6-0.1-1H135.5z"/>
		</g>
		<g>
			
				<linearGradient id="SVGID_10_" gradientUnits="userSpaceOnUse" x1="5.078" y1="-0.188" x2="5.361" y2="-0.188" gradientTransform="matrix(2.895134e-15 -47.2811 -47.2811 -2.895134e-15 189.5009 364.1999)">
				<stop  offset="0" style="stop-color:#FFFFFF"/>
				<stop  offset="1" style="stop-color:#AF964E"/>
			</linearGradient>
			<path class="st26" d="M194.9,172.1c0.9,1.3,1.4,2.8,1.4,4.4v9.8c0,1.5,1.3,2.8,2.8,2.8c1.5,0,2.8-1.3,2.8-2.8v-9.8
				c0-1.5-0.2-2.9-0.8-4.4H194.9z"/>
		</g>
		<g>
			
				<linearGradient id="SVGID_11_" gradientUnits="userSpaceOnUse" x1="5.078" y1="-0.3899" x2="5.361" y2="-0.3899" gradientTransform="matrix(2.895134e-15 -47.2811 -47.2811 -2.895134e-15 160.6689 364.1995)">
				<stop  offset="0" style="stop-color:#FFFFFF"/>
				<stop  offset="1" style="stop-color:#AF964E"/>
			</linearGradient>
			<path class="st27" d="M175.6,172.1v14.1c0,1.5,1.3,2.8,2.8,2.8c1.5,0,2.8-1.3,2.8-2.8v-9.8c0-1.7,0.6-3.2,1.4-4.4H175.6z"/>
		</g>
		<g>
			
				<linearGradient id="SVGID_12_" gradientUnits="userSpaceOnUse" x1="5.0779" y1="-0.6065" x2="5.3609" y2="-0.6065" gradientTransform="matrix(2.895118e-15 -47.2809 -47.2809 -2.895118e-15 129.3195 364.1941)">
				<stop  offset="0" style="stop-color:#FFFFFF"/>
				<stop  offset="1" style="stop-color:#AF964E"/>
			</linearGradient>
			<path class="st28" d="M164.3,172.1c0.9,1.3,1.4,2.8,1.4,4.4c0,4.2-3.4,7.6-7.6,7.6s-7.6-3.4-7.6-7.6c0-1.7,0.6-3.2,1.4-4.4h-6.2
				c-0.5,1.4-0.8,2.9-0.8,4.4c0,7.2,5.9,13.1,13.1,13.1c2.9,0,5.6-1,7.7-2.5c0.5,1.4,2.1,2.2,3.5,1.7c1.1-0.4,1.9-1.4,1.9-2.6v-14.1
				L164.3,172.1z"/>
		</g>
		<g transform="matrix(5.26333 0 0 -5.26333 -414.454 3878.772)">
			<g>
				<polygon class="st6" points="104.5,701.5 104.5,701.5 104.5,701.5 				"/>
				<path class="st6" d="M105.9,704v-2.5c-0.3-0.2-0.6-0.5-0.9-0.5c-0.3,0-0.5,0.2-0.6,0.5c0-0.2,0.3-0.4,0.5-0.4c0,0,0,0,0.1,0
					c-0.3,0-0.5,0.3-0.5,0.5v2.5c0,0.5-0.4,0.8-0.8,0.8c-0.2,0-0.4-0.1-0.5-0.2c0.1,0.1,0.3,0.1,0.4,0.1c0.4,0,0.7-0.3,0.8-0.6
					c-0.1,0.3-0.4,0.6-0.7,0.6c-0.4,0-0.7-0.3-0.7-0.7v-2.5c0-0.3-0.2-0.6-0.6-0.6c-0.1,0-0.2,0-0.3,0.1c0,0,0,0,0.1,0s0,0,0.1,0
					c-0.1,0-0.2,0.1-0.3,0.1c0,0,0.1-0.1,0.1-0.1c-0.2,0-0.4,0.3-0.4,0.5v2.5c0,0.3-0.2,0.6-0.4,0.7c0.2,0,0.3-0.1,0.4-0.2
					c-0.1,0.2-0.4,0.4-0.7,0.4c-0.3,0-0.5-0.1-0.6-0.3c0.1,0.1,0.3,0.2,0.5,0.2c0.1,0,0.3,0,0.4-0.1c0,0-0.1,0-0.1,0
					c-0.4,0-0.7-0.3-0.7-0.7v-2.5c0-0.3-0.2-0.6-0.6-0.6c-0.1,0-0.2,0-0.3,0.1c-0.3,0-0.5,0.3-0.5,0.5v3.8c0,0.2,0.1,0.3,0.2,0.4
					c0.1,0.1,0.3,0.1,0.4,0.1c0,0,0.1,0,0.1,0c0.1,0,0.2,0,0.4-0.1c0.1,0,0.2,0.1,0.4,0.1c0.1,0,0.2,0,0.4,0c0,0,0.1,0,0.1,0
					c0,0-0.1,0-0.1,0c0.4,0,0.9-0.2,1.2-0.4c-0.3,0.2-0.7,0.4-1,0.4c0,0,0.1,0,0.1,0c0.4,0,0.8-0.1,1.2-0.4c-0.1,0-0.1-0.1-0.1-0.2
					c0.1,0,0.1,0.1,0.2,0.1c0,0,0,0,0,0c0.3,0.3,0.7,0.4,1.1,0.4c0,0,0,0,0,0s0,0,0,0c0.1,0,0.1,0,0.2,0c0,0,0.1,0,0.2,0
					C105.1,705.9,105.9,705,105.9,704z"/>
				<path class="st6" d="M104.5,704.1C104.5,704.1,104.5,704.1,104.5,704.1C104.5,704.1,104.5,704.1,104.5,704.1L104.5,704.1z"/>
			</g>
			<g>
				<path class="st6" d="M89.9,705.9c-0.4,0-0.8-0.3-0.8-0.8c0-0.4,0.3-0.8,0.8-0.8H97c0.4,0,0.8,0.3,0.8,0.8c0,0.4-0.3,0.8-0.8,0.8
					H89.9z M97,704.2h-7.1c-0.5,0-0.9,0.4-0.9,0.9s0.4,0.9,0.9,0.9H97c0.5,0,0.9-0.4,0.9-0.9S97.4,704.2,97,704.2"/>
			</g>
			<g>
				<path class="st6" d="M93.4,710.6c-0.6,0-1.2-0.6-1.2-1.2s0.6-1.2,1.2-1.2s1.2,0.6,1.2,1.2S94,710.6,93.4,710.6 M93.4,708
					c-0.7,0-1.3,0.6-1.3,1.3s0.6,1.3,1.3,1.3s1.3-0.6,1.3-1.3C94.7,708.7,94.1,708,93.4,708 M93.4,712.2c-1.6,0-2.9-1.3-2.9-2.9
					c0-1.6,1.3-2.9,2.9-2.9s2.9,1.3,2.9,2.9C96.2,711,95,712.2,93.4,712.2 M93.4,706.4c-1.6,0-2.9,1.3-2.9,2.9
					c0,1.6,1.3,2.9,2.9,2.9s2.9-1.3,2.9-2.9C96.3,707.7,95.1,706.4,93.4,706.4"/>
			</g>
			<g>
				<path class="st6" d="M93.4,704.1c-0.2,0-0.4-0.1-0.6-0.2l-2.1-2.1c-0.2-0.2-0.2-0.3-0.2-0.6c0-0.2,0.1-0.4,0.2-0.6
					c0.2-0.2,0.3-0.2,0.6-0.2c0.2,0,0.4,0.1,0.6,0.2l1.6,1.6h0.1l1.6-1.6c0.3-0.3,0.8-0.3,1.1,0c0.3,0.3,0.3,0.8,0,1.1l-2.2,2.1
					C93.8,704,93.6,704.1,93.4,704.1 M91.2,700.3c-0.2,0-0.5,0.1-0.6,0.2c-0.2,0.2-0.2,0.4-0.2,0.6c0,0.2,0.1,0.5,0.2,0.6l2.1,2.1
					c0.3,0.3,0.9,0.3,1.3,0l2.1-2.1c0.2-0.2,0.2-0.4,0.2-0.6c0-0.5-0.4-0.9-0.9-0.9c-0.2,0-0.5,0.1-0.6,0.2l-1.5,1.5l-1.5-1.5
					C91.7,700.3,91.5,700.3,91.2,700.3"/>
			</g>
			<g>
				<path class="st6" d="M114.6,704.9c0.8,0,1.5-0.6,1.5-1.5v-1.8c0-0.2,0.2-0.5,0.5-0.5s0.5,0.2,0.5,0.5v1.8c0,1.3-1.1,2.5-2.5,2.5
					c-0.5,0-1-0.2-1.4-0.5c0,0,0,0-0.1,0l0,0c0,0.2-0.2,0.5-0.6,0.4c-0.2,0-0.4-0.2-0.4-0.5v-3.8c0-0.2,0.2-0.5,0.5-0.5
					s0.5,0.2,0.5,0.5v1.8C113.1,704.2,113.8,704.9,114.6,704.9 M116.6,701c-0.3,0-0.6,0.2-0.6,0.6v1.8c0,0.8-0.6,1.4-1.4,1.4
					s-1.4-0.6-1.4-1.4v-1.8c0-0.3-0.2-0.6-0.6-0.6c-0.3,0-0.6,0.2-0.6,0.6v3.8c0,0.3,0.2,0.6,0.6,0.6c0.2,0,0.5-0.2,0.6-0.4
					c0.4,0.3,0.9,0.4,1.4,0.4c1.4,0,2.5-1.1,2.5-2.5v-1.8C117.1,701.2,116.9,701,116.6,701"/>
			</g>
			<g>
				<path class="st6" d="M108.8,704.8c-0.8,0-1.4-0.6-1.4-1.4c0-0.8,0.6-1.4,1.4-1.4s1.4,0.6,1.4,1.4
					C110.2,704.1,109.6,704.8,108.8,704.8 M108.8,701.9c-0.8,0-1.5,0.6-1.5,1.5c0,0.8,0.6,1.5,1.5,1.5c0.8,0,1.5-0.6,1.5-1.5
					S109.6,701.9,108.8,701.9 M108.8,705.9c-1.3,0-2.5-1.1-2.5-2.5c0-1.3,1.1-2.5,2.5-2.5c0.6,0,1,0.2,1.4,0.5c0,0,0,0,0.1,0l0,0
					c0.1-0.2,0.2-0.3,0.5-0.3c0.2,0,0.5,0.2,0.5,0.5v3.8c0,0.2-0.2,0.5-0.5,0.5c-0.2,0-0.5-0.2-0.5-0.4l0,0c0,0,0,0-0.1,0
					C109.8,705.7,109.3,705.9,108.8,705.9 M108.8,700.9c-1.4,0-2.5,1.1-2.5,2.5c0,1.4,1.1,2.5,2.5,2.5c0.5,0,1-0.2,1.4-0.4
					c0.1,0.2,0.3,0.4,0.6,0.4c0.3,0,0.6-0.2,0.6-0.6v-3.8c0-0.3-0.2-0.6-0.6-0.6c-0.2,0-0.4,0.2-0.6,0.3
					C109.8,701,109.3,700.9,108.8,700.9"/>
			</g>
			<g>
				<path class="st1" d="M94.3,695.6C94.3,695.6,94.2,695.6,94.3,695.6C94.2,695.6,94.2,695.6,94.3,695.6l-0.6,1.4c0,0,0,0,0,0.1
					c0,0,0,0,0.1,0h0.2l0,0l0,0l0.4-1l0.4,1l0,0l0,0H95c0,0,0,0,0.1,0c0,0,0,0,0-0.1l-0.6-1.3l0,0l0,0L94.3,695.6L94.3,695.6z"/>
			</g>
			<g>
				<path class="st1" d="M95.9,695.8c0.1,0,0.2,0,0.2,0c0.1,0,0.1,0.1,0.2,0.1c0.1,0.1,0.1,0.1,0.1,0.2s0,0.2,0,0.2
					c0,0.1,0,0.2,0,0.2c0,0.1-0.1,0.1-0.1,0.2c-0.1,0.1-0.1,0.1-0.2,0.1c-0.1,0-0.2,0-0.2,0c-0.1,0-0.2,0-0.2,0
					c-0.1,0-0.1-0.1-0.2-0.1c-0.1-0.1-0.1-0.1-0.1-0.2s0-0.2,0-0.2c0-0.1,0-0.2,0-0.2c0-0.1,0.1-0.1,0.1-0.2
					c0.1-0.1,0.1-0.1,0.2-0.1C95.8,695.8,95.8,695.8,95.9,695.8 M95.9,697.1c0.2,0,0.2,0,0.3-0.1c0.1,0,0.2-0.1,0.2-0.2
					c0.1-0.1,0.2-0.2,0.2-0.2c0.1-0.1,0.1-0.2,0.1-0.3c0-0.1,0-0.2-0.1-0.3c0-0.1-0.1-0.2-0.2-0.2s-0.2-0.2-0.2-0.2
					c-0.1,0-0.2-0.1-0.3-0.1c-0.2,0-0.2,0-0.3,0.1c-0.1,0-0.2,0.1-0.2,0.2c-0.1,0.1-0.2,0.2-0.2,0.2c-0.1,0.1-0.1,0.2-0.1,0.3
					c0,0.1,0,0.2,0.1,0.3s0.1,0.2,0.2,0.2s0.2,0.2,0.2,0.2C95.7,697.1,95.8,697.1,95.9,697.1"/>
			</g>
			<g>
				<path class="st1" d="M97,697C97,697,97,697.1,97,697l0.2,0.1c0,0,0.1,0,0.1-0.1v-1.1H98c0,0,0.1,0,0.1-0.1v-0.2
					c0,0,0-0.1-0.1-0.1h-0.9H97v0.1V697z"/>
			</g>
			<g>
				<path class="st1" d="M98.2,697C98.2,697,98.2,697.1,98.2,697l0.2,0.1c0,0,0.1,0,0.1-0.1v-1.1h0.6c0,0,0.1,0,0.1-0.1v-0.2
					c0,0,0-0.1-0.1-0.1h-0.9h-0.1v0.1L98.2,697L98.2,697z"/>
			</g>
			<g>
				<path class="st1" d="M100.4,697.1C100.4,697.1,100.4,697,100.4,697.1l0.1-0.2c0,0,0-0.1-0.1-0.1h-0.7v-0.3h0.6
					c0,0,0.1,0,0.1-0.1v-0.2c0,0,0-0.1-0.1-0.1h-0.6v-0.2h0.7c0,0,0.1,0,0.1-0.1v-0.2c0,0,0-0.1-0.1-0.1h-0.9h-0.1v0.1v1.3v0.1
					c0,0,0,0,0.1,0L100.4,697.1L100.4,697.1z"/>
			</g>
			<g>
				<path class="st1" d="M101.4,696.1v-0.5v-0.1c0,0,0,0-0.1,0h-0.2h-0.1c0,0,0,0,0,0.1v0.5l-0.5,0.8c0,0,0,0,0,0.1c0,0,0,0,0.1,0
					h0.2l0,0l0,0l0.3-0.6l0.3,0.6l0,0l0,0h0.2c0,0,0,0,0.1,0c0,0,0,0,0-0.1L101.4,696.1z"/>
			</g>
			<g>
				<path class="st1" d="M102.9,695.9c0.1,0,0.2,0,0.2,0s0.1,0.1,0.1,0.2s0,0.1-0.1,0.2c0,0-0.1,0-0.2,0h-0.4v-0.3H102.9z
					 M103.1,696.6c0,0.1-0.1,0.2-0.2,0.2h-0.4v-0.3h0.4C103,696.4,103.1,696.5,103.1,696.6 M102.2,695.6L102.2,695.6
					C102.1,695.6,102.1,695.7,102.2,695.6l-0.1,1.3v0.1c0,0,0,0,0.1,0h0.6c0.2,0,0.2,0,0.3-0.1s0.2-0.2,0.2-0.3c0-0.1,0-0.2-0.1-0.2
					c0-0.1-0.1-0.1-0.2-0.2c0.1,0,0.2-0.1,0.2-0.2c0.1-0.1,0.1-0.2,0.1-0.2c0-0.2-0.1-0.2-0.2-0.3s-0.2-0.1-0.4-0.1L102.2,695.6
					L102.2,695.6z"/>
			</g>
			<g>
				<path class="st1" d="M104,696.1h0.4l-0.2,0.5L104,696.1z M104.3,697.1L104.3,697.1C104.3,697,104.4,697,104.3,697.1l0.6-1.4
					c0,0,0,0,0-0.1c0,0,0,0-0.1,0h-0.2l0,0l0,0l-0.1,0.2h-0.6l-0.1-0.2l0,0l0,0h-0.2c0,0,0,0-0.1,0c0,0,0,0,0,0.1l0.6,1.3l0,0l0,0
					L104.3,697.1L104.3,697.1z"/>
			</g>
			<g>
				<path class="st1" d="M105.1,697C105.1,697,105.1,697.1,105.1,697l0.2,0.1c0,0,0.1,0,0.1-0.1v-1.1h0.6c0,0,0.1,0,0.1-0.1v-0.2
					c0,0,0-0.1-0.1-0.1h-0.9h-0.1v0.1L105.1,697L105.1,697z"/>
			</g>
			<g>
				<path class="st1" d="M106.3,697C106.3,697,106.3,697.1,106.3,697l0.2,0.1c0,0,0.1,0,0.1-0.1v-1.1h0.6c0,0,0.1,0,0.1-0.1v-0.2
					c0,0,0-0.1-0.1-0.1h-0.9h-0.1v0.1L106.3,697L106.3,697z"/>
			</g>
			<g>
				<path class="st1" d="M108.1,696.3c0,0.1,0,0.2,0.1,0.3s0.1,0.2,0.2,0.2s0.2,0.1,0.2,0.2c0.1,0,0.2,0.1,0.3,0.1
					c0.1,0,0.1,0,0.2,0s0.1,0,0.2,0s0.1,0,0.2-0.1c0.1,0,0.1-0.1,0.1-0.1l0,0l0,0l-0.1-0.2l0,0c0,0,0,0-0.1,0s-0.1,0.1-0.2,0.1
					s-0.2,0-0.2,0c-0.1,0-0.1,0-0.2,0c-0.1-0.1-0.2-0.2-0.2-0.2s-0.1-0.2-0.1-0.2s0-0.2,0-0.2s0.1-0.1,0.1-0.2
					c0.1-0.1,0.1-0.1,0.2-0.1s0.1,0,0.2,0c0.1,0,0.2,0,0.2,0c0.1,0,0.2,0.1,0.2,0.1s0,0,0.1,0l0,0l0.1-0.2v-0.1
					c-0.1-0.1-0.2-0.1-0.2-0.2c-0.1,0-0.2-0.1-0.3-0.1s-0.2,0-0.3,0.1c-0.1,0-0.2,0.1-0.2,0.2c-0.1,0.1-0.2,0.2-0.2,0.2
					C108.1,696,108.1,696.2,108.1,696.3"/>
			</g>
			<g>
				<path class="st1" d="M109.6,697C109.6,697,109.6,697.1,109.6,697l0.2,0.1c0,0,0.1,0,0.1-0.1v-1.1h0.6c0,0,0.1,0,0.1-0.1v-0.2
					c0,0,0-0.1-0.1-0.1h-0.9h-0.1v0.1L109.6,697L109.6,697z"/>
			</g>
			<g>
				<path class="st1" d="M112,696.1c0-0.1,0-0.2-0.1-0.2c0-0.1-0.1-0.2-0.2-0.2c-0.1-0.1-0.2-0.1-0.2-0.1c-0.1,0-0.2,0-0.2,0
					c-0.1,0-0.2,0-0.2,0c-0.1,0-0.2,0.1-0.2,0.1c-0.1,0.1-0.1,0.1-0.2,0.2c0,0.1-0.1,0.2-0.1,0.2v0.9c0,0,0,0.1,0.1,0.1h0.2
					c0,0,0.1,0,0.1-0.1v-0.9c0-0.1,0-0.1,0-0.2c0,0,0-0.1,0.1-0.1l0.1-0.1h0.1c0,0,0.1,0,0.2,0c0,0,0.1,0,0.1,0.1l0.1,0.1
					c0,0.1,0,0.1,0,0.2v0.9c0,0,0,0.1,0.1,0.1h0.2c0,0,0.1,0,0.1-0.1L112,696.1L112,696.1z"/>
			</g>
			<g>
				<path class="st1" d="M113.1,695.9c0.1,0,0.2,0,0.2,0s0.1,0.1,0.1,0.2s0,0.1-0.1,0.2c0,0-0.1,0-0.2,0h-0.4v-0.3H113.1z
					 M113.2,696.6c0,0.1-0.1,0.2-0.2,0.2h-0.4v-0.3h0.4C113.1,696.4,113.2,696.5,113.2,696.6 M112.4,695.6L112.4,695.6
					C112.3,695.6,112.3,695.7,112.4,695.6l-0.1,1.3v0.1c0,0,0,0,0.1,0h0.6c0.2,0,0.2,0,0.3-0.1s0.2-0.2,0.2-0.3c0-0.1,0-0.2-0.1-0.2
					c0-0.1-0.1-0.1-0.2-0.2c0.1,0,0.2-0.1,0.2-0.2c0.1-0.1,0.1-0.2,0.1-0.2c0-0.2-0.1-0.2-0.2-0.3s-0.2-0.1-0.4-0.1L112.4,695.6
					L112.4,695.6z"/>
			</g>
		</g>
	</g>
</g>
<g id="_1">
	<rect x="8" y="8" class="st29" width="234" height="234"/>
</g>
<rect x="8" y="34.8" class="st29" width="234" height="180.4"/>
<polygon class="st1" points="163.9,114.7 164.8,117.3 163.8,122.9 163.3,122.8 163.7,120.2 "/>
</svg>
