<?xml version="1.0" encoding="utf-8"?>
<!-- Generator: Adobe Illustrator 25.1.0, SVG Export Plug-In . SVG Version: 6.00 Build 0)  -->
<svg version="1.1" xmlns="http://www.w3.org/2000/svg" xmlns:xlink="http://www.w3.org/1999/xlink" x="0px" y="0px"
	 viewBox="0 0 250 250" style="enable-background:new 0 0 250 250;" xml:space="preserve">
<style type="text/css">
	.st0{fill:#E9E9E9;}
	.st1{fill:#37292A;}
	.st2{fill-rule:evenodd;clip-rule:evenodd;fill:#EF381F;}
	.st3{fill-rule:evenodd;clip-rule:evenodd;fill:#FFFFFF;}
	.st4{fill-rule:evenodd;clip-rule:evenodd;fill:#D3D2D2;}
	.st5{fill:#AD964F;}
	.st6{fill:#FFFFFF;}
	.st7{fill:#F7D8CA;}
	.st8{fill:#DD3A22;}
	.st9{fill:#CE3A24;}
	.st10{fill:#F3B231;}
	.st11{fill:#ECEEEE;}
	.st12{opacity:0.78;clip-path:url(#SVGID_2_);}
	.st13{clip-path:url(#SVGID_4_);}
	.st14{fill:#EF381F;}
	.st15{fill:#59C13E;}
	.st16{fill:#F68498;}
	.st17{fill:#C88E7E;}
	.st18{fill:#74180D;}
	.st19{fill:#C62D19;}
	.st20{fill:#A07A6F;}
	.st21{fill:url(#SVGID_5_);}
	.st22{fill:url(#SVGID_6_);}
	.st23{fill:url(#SVGID_7_);}
	.st24{fill:url(#SVGID_8_);}
	.st25{fill:url(#SVGID_9_);}
	.st26{fill:url(#SVGID_10_);}
	.st27{fill:url(#SVGID_11_);}
	.st28{fill:url(#SVGID_12_);}
	.st29{fill:none;}
</style>
<g id="Layer_1">
	<g>
		<g transform="matrix(5.26333 0 0 -5.26333 -414.454 3878.772)">
			<g>
				<path class="st0" d="M109.8,692.5L109.8,692.5C109.8,692.5,109.8,692.5,109.8,692.5 M93.5,692.5L93.5,692.5
					C93.5,692.5,93.5,692.5,93.5,692.5L93.5,692.5C93.5,692.5,93.5,692.5,93.5,692.5L93.5,692.5z M116.2,692.6
					c0,0.1,0.1,0.2,0.1,0.3c0,0.3-0.1,0.6-0.4,0.8l0,0c-0.2,0.2-0.5,0.3-0.8,0.3h-0.8c-0.1,0-0.2,0-0.3-0.1c-0.1,0-0.2,0.1-0.3,0.1
					h-0.3c-0.2,0-0.3-0.1-0.4-0.2c-0.1,0.1-0.3,0.2-0.4,0.2h-0.3c-0.3,0-0.5-0.2-0.6-0.4c-0.1,0.2-0.3,0.4-0.6,0.4h-0.3
					c-0.1,0-0.2,0-0.3-0.1c-0.1,0-0.1,0-0.2,0.1c-0.1,0-0.2,0-0.2,0.1c0,0,0,0,0,0c-0.3,0-0.6,0-0.9-0.1c-0.2-0.1-0.4-0.2-0.5-0.3
					c-0.1-0.1-0.3-0.3-0.3-0.5c-0.1-0.2-0.1-0.4-0.1-0.6c0,0,0-0.1,0-0.1c-0.1,0.1-0.2,0.1-0.4,0.1h-0.2v0.8c0,0.4-0.3,0.7-0.6,0.7
					c0,0,0,0,0,0h-0.3c-0.3,0-0.5-0.2-0.6-0.4c-0.1,0.3-0.3,0.4-0.6,0.4h-0.3c-0.2,0-0.4-0.1-0.5-0.2c0,0,0,0-0.1,0.1
					c0,0-0.1,0.1-0.2,0.1c-0.1,0-0.2,0.1-0.3,0.1h-0.3c-0.1,0-0.3,0-0.4-0.1l0,0c-0.1-0.1-0.2-0.2-0.2-0.3c0,0-0.1,0.1-0.1,0.1l0,0
					c-0.2,0.2-0.5,0.3-0.8,0.3h-0.8c-0.1,0-0.1,0-0.2,0c-0.1,0-0.2,0-0.2,0h-0.3c-0.1,0-0.2,0-0.2,0c-0.1,0-0.2-0.1-0.3-0.2
					c0,0-0.1,0.1-0.1,0.1c-0.1,0-0.1,0.1-0.2,0.1c-0.1,0-0.1,0-0.2,0h-0.3c-0.1,0-0.1,0-0.2,0c0,0-0.1,0-0.1,0H98
					c-0.3,0-0.4-0.1-0.5-0.2c-0.1-0.1-0.1-0.2-0.2-0.2c-0.1,0.3-0.3,0.5-0.6,0.4h-0.3c-0.3,0-0.5-0.2-0.6-0.4
					c-0.1,0.3-0.3,0.4-0.6,0.4h-0.3c-0.2,0-0.4-0.1-0.5-0.2c-0.1,0.1-0.2,0.1-0.3,0.2c-0.4,0.1-0.8,0.1-1.3,0c-0.1,0-0.1,0-0.2-0.1
					c-0.1,0.1-0.3,0.1-0.4,0.1h-0.3c-0.1,0-0.2,0-0.2,0c0,0-0.1,0-0.1,0c-0.1,0-0.2-0.1-0.2-0.2c0,0.1-0.1,0.1-0.2,0.2
					c-0.1,0-0.1,0.1-0.2,0.1c-0.1,0-0.1,0-0.2,0h-0.3c-0.3,0-0.5-0.2-0.6-0.4c-0.1-0.2-0.1-0.3,0-0.5l0.7-1.7c0-0.1,0.1-0.2,0.2-0.3
					c0.1-0.1,0.2-0.1,0.4-0.1h0.3c0.1,0,0.2,0,0.3,0.1c0.1,0,0.1,0.1,0.2,0.1c0.1,0.1,0.1,0.1,0.2,0.2l0,0c0,0,0-0.1,0.1-0.1
					c0.2-0.1,0.3-0.3,0.5-0.3c0.2-0.1,0.4-0.1,0.6-0.1c0.2,0,0.4,0,0.6,0.1c0.1,0,0.2,0.1,0.3,0.2c0,0,0,0,0,0
					c0.1-0.1,0.3-0.2,0.5-0.2h1.1c0.1,0,0.1,0,0.2,0c0.1,0,0.1,0,0.2,0h1.1c0.1,0,0.1,0,0.2,0c0.1,0,0.1,0,0.2,0h1.1
					c0.2,0,0.4,0.1,0.5,0.2l0,0c0.1-0.1,0.3-0.2,0.5-0.2h0.2c0.2,0,0.4,0.1,0.5,0.2c0,0,0,0,0,0c0,0,0,0,0,0c0,0,0,0,0-0.1
					c0.1-0.1,0.3-0.2,0.5-0.2h0.8c0.2,0,0.4,0,0.5,0.1c0.1-0.1,0.2-0.1,0.3-0.1h0.3c0.1,0,0.1,0,0.2,0c0.1,0,0.1,0,0.2,0.1
					c0.1,0,0.1,0.1,0.2,0.2c0.1-0.1,0.2-0.2,0.3-0.2c0.1,0,0.2,0,0.2,0h0.3c0.1,0,0.1,0,0.2,0c0.1,0,0.1,0,0.2,0h1.1
					c0.1,0,0.1,0,0.2,0c0.1,0,0.1,0,0.2,0h1.1c0.3,0,0.6,0.3,0.7,0.6c0.1-0.1,0.1-0.2,0.2-0.2c0.2-0.1,0.3-0.2,0.5-0.3
					c0.2-0.1,0.4-0.1,0.6-0.1c0.2,0,0.4,0,0.5,0.1l0,0c0.1,0,0.1,0,0.2,0.1c0.1-0.1,0.2-0.1,0.4-0.1h1.1c0.1,0,0.3,0,0.4,0.1
					c0.1,0,0.1-0.1,0.2-0.1c0.2-0.1,0.3-0.1,0.5-0.1c0.2,0,0.3,0,0.5,0.1c0.1,0,0.2,0.1,0.3,0.1c0.1-0.1,0.2-0.2,0.5-0.2h0.8
					c0.4,0,0.6,0.1,0.9,0.2c0.3,0.2,0.4,0.5,0.4,0.9C116.3,692.3,116.3,692.5,116.2,692.6"/>
			</g>
			<g>
				<path class="st0" d="M117,706.9c-0.2,0-0.4,0-0.6,0c1.4,2.3,2.1,5,2.1,7.7c0,5.2-2.6,10-6.9,12.8c-0.3,0.4-0.6,0.8-0.9,1.1
					c-1.1,1.2-2.7,2.1-4.5,2.6l0.2,0.6c0.1,0.2,0.3,0.9,0,1.5c-0.2,0.5-0.6,0.9-1.2,1.1c-0.1,0-0.1,0-0.2,0
					c-0.3,0.6-0.9,1.1-1.9,1.1h0c-0.6,0-1-0.2-1.4-0.5c-0.2-0.2-0.3-0.4-0.4-0.6c-0.1,0-0.1,0-0.2,0c-0.6-0.2-1-0.5-1.2-1.1
					c-0.2-0.6-0.1-1.2,0-1.6l0.2-0.6l0,0c-1.8-0.5-3.3-1.4-4.5-2.6c-0.3-0.3-0.6-0.7-0.9-1.1c-4.4-2.8-7-7.6-7-12.9l0-0.1
					c-2.1-0.9-3.5-3.1-3.5-5.4c0-1,0.1-1.7,0.2-2.3c-1.2-0.5-2.1-1.7-2.1-3.1v-0.8c0-1.3,0.8-2.5,1.9-3c-0.1-0.3-0.2-0.6-0.2-0.9
					c0,0,0,0,0-0.1c0-0.2,0-0.9,0-1.2c0-0.8,0.4-1.6,1-2.2c0.6-0.6,1.5-1,2.3-1c0.9,0,1.7,0.3,2.3,1l0.4,0.4l0.4-0.4
					c0.6-0.6,1.5-1,2.3-1c0.9,0,1.7,0.3,2.3,1c0.3,0.3,0.6,0.7,0.7,1.1c0.6-0.7,1.4-1.1,2.3-1.1c0.6,0,1.2,0.2,1.7,0.5
					c0.5-0.3,1.1-0.5,1.7-0.5c0.6,0,1.2,0.2,1.7,0.5c0.5-0.3,1.1-0.5,1.7-0.5c0.7,0,1.3,0.2,1.9,0.7c0.9-0.5,1.9-0.8,2.9-0.8
					c0.6,0,1.1,0.1,1.7,0.3c0.7-0.2,1.4-0.1,2,0.1c0.4-0.2,0.8-0.3,1.2-0.3c1,0,1.9,0.5,2.5,1.4c0.5-0.9,1.5-1.4,2.5-1.4
					c1.6,0,2.9,1.3,2.9,2.9v3.2C122.4,704.4,120,706.9,117,706.9"/>
			</g>
			<g>
				<path class="st1" d="M103.2,729.2c-8.1,0-14.7-6.6-14.7-14.7c0-8.1,6.6-14.7,14.7-14.7s14.7,6.6,14.7,14.7
					S111.3,729.2,103.2,729.2"/>
			</g>
			<g>
				<path class="st2" d="M103.2,728.6c7.8,0,14.1-6.3,14.1-14.1s-6.3-14.1-14.1-14.1s-14.1,6.3-14.1,14.1S95.4,728.6,103.2,728.6"/>
			</g>
			<g>
				<path class="st3" d="M102.4,726.4c-1-0.8-1.9-1.7-2.7-2.8c-1.6-2-2.7-4.4-3.4-6.8c0-0.2-0.2-0.2-0.4-0.2c-0.1,0-0.2,0-0.3,0.1
					c-1.4,0.3-3,0.7-4.1,1.6c-0.1,0.1-0.1,0.2-0.1,0.3c1.6,4.7,5.8,7.9,10.8,8.3c0.1,0,0.3-0.1,0.3-0.2
					C102.6,726.6,102.5,726.5,102.4,726.4 M102.7,716.2c-1.5,0-3,0-4.5,0.1c-0.1,0-0.2,0.1-0.2,0.1c-0.1,0.1-0.1,0.2,0,0.3
					c0.7,2.1,1.7,4.1,3,5.9c1.3,1.7,3,3.1,4.9,4c0.1,0,0.1,0,0.2,0c1.3-0.3,2.6-0.8,3.7-1.6c0.1-0.1,0.1-0.2,0.1-0.3
					c0-0.1-0.1-0.2-0.2-0.3c-1.2-0.7-2.4-1.6-3.3-2.7c-1.5-1.6-2.6-3.5-3.4-5.5C103,716.2,102.9,716.2,102.7,716.2 M111.3,705.1
					c-1.2-1-2.5-1.8-3.9-2.3c-0.1,0-0.2,0-0.3,0.1c-0.1,0.1-0.1,0.2-0.1,0.3c0.3,1.9,0.3,3.8,0,5.6c-0.4,2.3-1.2,4.5-2.5,6.5
					c-0.1,0.1-0.1,0.2,0,0.3c0.6,1.4,1.3,2.8,2.3,4c0.1,0.1,0.1,0.1,0.2,0.1c0.1,0,0.2,0,0.2-0.1c2-1.8,3.2-4,3.9-6.5
					c0.6-2.5,0.6-5.2,0.4-7.8C111.4,705.2,111.4,705.1,111.3,705.1 M104.9,702.2c-0.6-0.1-1.2-0.1-1.7-0.1c-4.7,0-8.9,2.6-11.1,6.8
					c-0.1,0.1,0,0.3,0,0.3c0.1,0.1,0.2,0.1,0.3,0.1c1.6-0.6,3.3-1,5.1-1.3c1.3-0.2,2.6-0.2,3.9-0.2c1.2,0,2.4,0.1,3.6,0.4
					c0.1,0,0.2,0,0.2-0.1c0.1,0,0.1-0.1,0.1-0.2c0.2-1.8,0.2-3.7-0.2-5.5C105.2,702.3,105.1,702.2,104.9,702.2 M104.7,709.8
					c-1.1-0.2-2.2-0.3-3.4-0.3c-1.2,0-2.4,0-3.6,0.2c-2.2,0.3-4.8,1-6.6,2.1c-0.1,0-0.1,0.1-0.1,0.2c-0.3,1.4-0.3,2.8-0.2,4.2
					c0,0.1,0.1,0.2,0.2,0.2c0.1,0,0.2,0,0.3,0c1.2-0.7,2.6-1.1,4-1.4c1.9-0.4,3.8-0.5,5.7-0.5c0.6,0,1.2,0,1.8,0
					c0.1,0,0.2-0.1,0.3-0.1c0.9-1.3,1.5-2.7,1.9-4.3c0-0.1,0-0.2,0-0.2C104.9,709.8,104.8,709.8,104.7,709.8 M111.8,723.5
					c2.5-2.3,3.8-5.6,3.8-9c0-2.3-0.6-4.6-1.9-6.5c-0.1-0.1-0.2-0.2-0.3-0.1c-0.1,0-0.2,0.2-0.2,0.3c0,1.8-0.2,3.6-0.6,5.3
					c-0.7,2.9-2.2,5.4-4.4,7.4c-0.1,0.1-0.1,0.1-0.1,0.2c0,0.1,0,0.2,0.1,0.2c0.9,0.9,2,1.7,3.2,2.3
					C111.6,723.6,111.7,723.6,111.8,723.5"/>
			</g>
			<g>
				<path class="st4" d="M111.6,708.6c0-1.1,0-2.2-0.2-3.3c0-0.1,0-0.2-0.1-0.2c-1.2-1-2.5-1.8-3.9-2.3c-0.1,0-0.2,0-0.3,0.1
					c-0.1,0.1-0.1,0.2-0.1,0.3c0.2,1,0.2,2.1,0.2,3.1C108.8,706.8,110.3,707.6,111.6,708.6 M115.6,714.4c0-2.3-0.7-4.5-1.8-6.4
					c-0.1-0.1-0.2-0.2-0.3-0.1c-0.1,0-0.2,0.2-0.2,0.3c0,0.6,0,1.3-0.1,1.9C114.3,711.3,115.2,712.8,115.6,714.4 M104.9,702.2
					c-0.6-0.1-1.2-0.1-1.7-0.1c-4.7,0-8.9,2.6-11.1,6.8c-0.1,0.1,0,0.3,0,0.3c0.1,0.1,0.2,0.1,0.3,0.1c2.5-2.3,6-3.8,10-3.8
					c1.1,0,2.1,0.1,3.1,0.3c0-1.1-0.1-2.3-0.3-3.4C105.2,702.3,105.1,702.2,104.9,702.2"/>
			</g>
			<g>
				<path class="st1" d="M113.3,710L113.3,710c-0.4,1.1-1.7,2-2.8,2.6c0.8,1.1,1,2.3,1,3c1,2.3,1,4.5,1,4.7c0.2,3.3-0.5,5.9-2.3,7.7
					c-1.1,1.2-2.6,2.1-4.4,2.5c-0.1,0.1-0.2,0.2-0.3,0.4l0.4,1c0.1,0.3,0.2,0.7,0,1.1c-0.1,0.3-0.4,0.6-0.8,0.7
					c-0.1,0-0.3,0.1-0.5,0c-0.1,0.7-0.8,1.1-1.4,1.1l0,0c-0.2,0-0.7,0-1-0.3c-0.2-0.2-0.3-0.4-0.4-0.7c-0.2,0-0.3,0-0.5,0
					c-0.4-0.1-0.7-0.4-0.8-0.7c-0.2-0.4-0.1-0.9,0-1.1l0.3-1c-0.1-0.1-0.2-0.2-0.3-0.3c0,0-0.1-0.1-0.1-0.1
					c-1.8-0.5-3.3-1.3-4.4-2.5c-1.7-1.8-2.5-4.4-2.3-7.7c0-0.3,0-2.6,1.1-4.9c0-0.8,0.3-2.7,2-3.9c-1-1.5-2-4.2-2-7
					c0-0.2-0.1-1.6,0.5-2.3c0.2-0.2,0.5-0.4,0.8-0.4l0,0c0.3,0,0.6,0.2,0.8,0.5l0,0l0,0c0.1,0,0.3,0,0.4,0.1
					c0.1-0.2,0.2-0.3,0.4-0.4c0.1-0.1,1.2-0.6,3.6-0.6h0c0.4-0.5,1-0.9,1.7-0.9c0.7,0,1.3,0.3,1.7,0.9h0c0.7,0,1.4,0,1.9,0.1
					c0.4-0.1,0.9-0.2,1.4-0.2c2.6,0,4.8,2.2,4.8,4.8c0,0.5-0.1,1.1-0.3,1.6C113.7,708.8,113.4,709.8,113.3,710"/>
			</g>
			<g>
				<path class="st5" d="M94,730.5c0,0.1-0.1,0.1-0.2,0.1l-2.1,0l-0.7,2c0,0.1-0.1,0.1-0.2,0.1h0c-0.1,0-0.1,0-0.2-0.1l-0.7-2
					l-2.1,0c-0.1,0-0.1,0-0.2-0.1c0-0.1,0-0.1,0.1-0.2l1.7-1.3l-0.6-2c0-0.1,0-0.1,0.1-0.2c0,0,0.1,0,0.1,0c0,0,0.1,0,0.1,0l1.8,1.2
					l1.8-1.2c0,0,0.1,0,0.1,0c0.1,0,0.2,0.1,0.2,0.2c0,0,0,0,0,0l-0.6,2l1.7,1.3C94,730.3,94,730.4,94,730.5"/>
			</g>
			<g>
				<path class="st5" d="M118.7,730.5c0,0.1-0.1,0.1-0.2,0.1l-2.1,0l-0.7,2c0,0.1-0.1,0.1-0.2,0.1h0c-0.1,0-0.1,0-0.2-0.1l-0.7-2
					l-2.1,0c-0.1,0-0.1,0-0.2-0.1c0-0.1,0-0.1,0.1-0.2l1.7-1.3l-0.6-2c0-0.1,0-0.1,0.1-0.2c0,0,0.1,0,0.1,0c0,0,0.1,0,0.1,0l1.8,1.2
					l1.8-1.2c0,0,0.1,0,0.1,0c0.1,0,0.2,0.1,0.2,0.2c0,0,0,0,0,0l-0.6,2l1.7,1.3C118.7,730.3,118.7,730.4,118.7,730.5"/>
			</g>
			<g>
				<path class="st6" d="M108.8,712.8c0,0,3.6-1.2,4.2-3c0,0,0.6-1.1-0.9-2.3l-5.4,2.2l1.1,2.8L108.8,712.8z"/>
			</g>
			<g>
				<path class="st7" d="M95.4,704.6c0,0-0.3-2.2,0.9-2.3c0.5,0,0.6,0.8,0.6,0.8c0-0.4,0.5-0.4,0.5,0v1.3L95.4,704.6z"/>
			</g>
			<g>
				<path class="st6" d="M97.4,704.4c0.3,2.6,1.6,5.8,1.6,5.8l-0.1,2.4c0,0-3.1-0.8-3.5-8L97.4,704.4z"/>
			</g>
			<g>
				<path class="st8" d="M95.5,705.5c0,0,0.6,0.3,2.1-0.2l-0.2-1l-2,0.3L95.5,705.5z"/>
			</g>
			<g>
				<path class="st1" d="M98.9,712.3c-0.2,0-0.6-0.1-1.1-0.6c-1.1-1.2-2.3-4.3-2.3-7.1c0,0-0.1-1.4,0.3-2c0.1-0.1,0.3-0.2,0.4-0.2
					c0.5,0,0.5,0.7,0.5,0.7c0,0.1,0.1,0.1,0.1,0.1c0.1,0,0.1,0,0.1-0.1c0-0.1,0.1-0.2,0.1-0.2h0c0.1,0,0.1,0.1,0.1,0.2v1.1
					c0.3,2.8,1.9,6.7,2.2,7.2L98.9,712.3L98.9,712.3z M96.3,702.2L96.3,702.2c-0.2,0-0.4,0.1-0.6,0.3c-0.5,0.6-0.4,2.1-0.4,2.1
					c0,2.9,1.2,6,2.3,7.3c0.7,0.7,1.3,0.6,1.4,0.6c0,0,0.1,0,0.1,0l0.6-0.9c0,0,0-0.1,0-0.1c0,0-1.9-4.2-2.2-7.2l0-1.1
					c0-0.3-0.2-0.4-0.3-0.4c-0.1,0-0.2,0-0.2,0.1C96.9,702.5,96.7,702.2,96.3,702.2"/>
			</g>
			<g>
				<path class="st1" d="M97.3,704.3C97.3,704.3,97.3,704.3,97.3,704.3c-1.1,0.3-1.8,0.2-1.8,0.2c-0.1,0-0.1,0-0.1,0.1
					c0,0.1,0,0.1,0.1,0.1c0,0,0.8,0.1,1.9-0.2C97.4,704.4,97.4,704.4,97.3,704.3C97.4,704.3,97.4,704.3,97.3,704.3"/>
			</g>
			<g>
				<path class="st8" d="M99.2,712.8l4.1-0.4l4.1,0.4c0,0,0.5-1.5,0.5-1.5l-1.4-8.4l-3.1-1.4l-3.1,1.4l-1.4,8.4
					C98.7,711.3,99.2,712.8,99.2,712.8"/>
			</g>
			<g>
				<path class="st6" d="M98.8,712.4c0.1-0.1,0.3-0.2,0.4-0.2l0,0c0,0,0.1-0.2,0.2-0.7c0.3-1.2,0.9-4.1,0.9-8.1
					c-1.2,0.2-2.1,0.5-2.1,0.5c-0.1,1.3,0.2,5,0.3,5.6L98.8,712.4z"/>
			</g>
			<g>
				<path class="st6" d="M107.7,712.4c-0.1-0.1-0.3-0.2-0.4-0.2l0,0c0,0-0.1-0.2-0.2-0.7c-0.3-1.2-0.9-4.1-0.9-8.1
					c1.2,0.2,2.1,0.5,2.1,0.5c0.1,1.3-0.2,5-0.3,5.6L107.7,712.4z"/>
			</g>
			<g>
				<path class="st6" d="M101.4,707.2h3.7c0.2,0,0.4,0.2,0.4,0.4s-0.2,0.4-0.4,0.4h-3.7c-0.2,0-0.4-0.2-0.4-0.4
					S101.2,707.2,101.4,707.2"/>
			</g>
			<g>
				<path class="st6" d="M102.6,709.9c0-0.4,0.3-0.7,0.7-0.7c0.4,0,0.7,0.3,0.7,0.7s-0.3,0.7-0.7,0.7
					C102.9,710.6,102.6,710.3,102.6,709.9 M101.7,709.9c0,0.8,0.7,1.5,1.5,1.5c0.8,0,1.5-0.7,1.5-1.5c0-0.8-0.7-1.5-1.5-1.5
					C102.4,708.4,101.7,709.1,101.7,709.9"/>
			</g>
			<g>
				<path class="st6" d="M104.4,705.1c0.2,0,0.4,0.2,0.4,0.4c0,0.1,0,0.2-0.1,0.3l-1.1,1.1c-0.2,0.2-0.4,0.2-0.6,0c0,0,0,0,0,0
					l-1.1-1.1c-0.2-0.2-0.2-0.4,0-0.6s0.4-0.2,0.6,0l0.8,0.8l0.8-0.8C104.2,705.2,104.3,705.1,104.4,705.1"/>
			</g>
			<g>
				<path class="st6" d="M106.2,703.4L106.2,703.4L106.2,703.4L106.2,703.4z"/>
			</g>
			<g>
				<path class="st6" d="M105,703.3c0.5,0,1.1,0.1,1.2,0.1C105.8,703.4,105.4,703.3,105,703.3"/>
			</g>
			<g>
				<path class="st6" d="M104.8,703.3c0.1,0,0.2,0,0.3,0C104.9,703.3,104.9,703.3,104.8,703.3"/>
			</g>
			<g>
				<path class="st6" d="M104.8,703.3c0,0-0.2,1-1.5,1.1C104.5,704.3,104.8,703.3,104.8,703.3"/>
			</g>
			<g>
				<path class="st6" d="M101.5,703.3c0.1,0,0.2,0,0.3,0C101.7,703.3,101.6,703.3,101.5,703.3"/>
			</g>
			<g>
				<path class="st6" d="M100.3,703.4c0.1,0,0.7-0.1,1.2-0.1C101.1,703.3,100.7,703.4,100.3,703.4"/>
			</g>
			<g>
				<path class="st6" d="M100.3,703.4L100.3,703.4L100.3,703.4L100.3,703.4z"/>
			</g>
			<g>
				<path class="st6" d="M103.3,704.4c-1.3-0.1-1.5-1.1-1.5-1.1S102,704.3,103.3,704.4"/>
			</g>
			<g>
				<path class="st9" d="M101.6,703c0-0.6,0.7-1.1,1.6-1.1c0.9,0,1.6,0.5,1.6,1.1s-0.7,1.1-1.6,1.1
					C102.3,704.1,101.6,703.6,101.6,703"/>
			</g>
			<g>
				<path class="st8" d="M108.3,704c0,0,0.2,0,0.2-0.2l0-0.8c0,0,0-0.2-0.2-0.3c0,0-1-0.6-3.4-0.6c0,0-0.4,0-0.5,0.1l0.1,1.3
					C104.5,703.4,106.8,703.3,108.3,704"/>
			</g>
			<g>
				<path class="st1" d="M108.3,704.2C108.3,704.2,108.3,704.2,108.3,704.2c-1.3-0.5-3.1-0.6-3.6-0.6c-0.1,0-0.2,0-0.2,0l0,0
					c-0.1,0-0.2-0.1-0.2-0.2l-0.1-1.3c0-0.1,0-0.2,0.1-0.2c0.1-0.1,0.5-0.1,0.6-0.1h0.1c2.4,0,3.4,0.6,3.5,0.6
					c0.2,0.1,0.3,0.4,0.3,0.5l0,0.8C108.7,703.9,108.6,704.1,108.3,704.2C108.4,704.2,108.4,704.2,108.3,704.2 M108.3,704
					c0,0,0.2,0,0.2-0.2l0-0.8c0,0,0-0.2-0.2-0.3c0,0-1-0.6-3.4-0.6h-0.1c0,0-0.4,0-0.5,0.1l0.1,1.3c0,0,0.1,0,0.2,0
					C105.3,703.4,107.1,703.4,108.3,704"/>
			</g>
			<g>
				<path class="st8" d="M98.2,704c0,0-0.2,0-0.2-0.2l0-0.8c0,0,0-0.2,0.2-0.3c0,0,1-0.6,3.4-0.6c0,0,0.4,0,0.5,0.1l-0.1,1.3
					C102,703.4,99.7,703.3,98.2,704"/>
			</g>
			<g>
				<path class="st1" d="M98.2,704.2C98.1,704.2,98.1,704.2,98.2,704.2c-0.3-0.1-0.4-0.3-0.4-0.5l0-0.8c0-0.1,0-0.4,0.3-0.5
					c0,0,1.1-0.6,3.5-0.6h0.1c0.1,0,0.4,0,0.6,0.1c0.1,0,0.1,0.1,0.1,0.2l-0.1,1.3c0,0.1-0.1,0.2-0.2,0.2l0,0c0,0-0.1,0-0.2,0
					C101.3,703.6,99.5,703.6,98.2,704.2C98.2,704.2,98.2,704.2,98.2,704.2 M98.2,704c1.2-0.5,3-0.6,3.6-0.6c0.1,0,0.2,0,0.2,0
					l0.1-1.3c-0.1-0.1-0.5-0.1-0.5-0.1h-0.1c-2.3,0-3.4,0.6-3.4,0.6c-0.2,0.1-0.2,0.3-0.2,0.3l0,0.8C98,703.8,98.1,703.9,98.2,704"
					/>
			</g>
			<g>
				<path class="st8" d="M101.6,702.8c0-0.9,0.7-1.6,1.6-1.6c0.9,0,1.6,0.7,1.6,1.6c0,0,0,0,0,0c0,0.9-0.7,1.6-1.6,1.6
					C102.3,704.4,101.6,703.7,101.6,702.8"/>
			</g>
			<g>
				<path class="st1" d="M103.3,704.7c-1,0-1.9-0.8-1.9-1.9c0-1,0.8-1.9,1.9-1.9c1,0,1.9,0.8,1.9,1.9
					C105.1,703.8,104.3,704.7,103.3,704.7 M103.3,704.4c0.9,0,1.7-0.7,1.7-1.6s-0.7-1.7-1.6-1.7c0,0,0,0,0,0c-0.9,0-1.6,0.8-1.6,1.7
					C101.6,703.7,102.4,704.4,103.3,704.4"/>
			</g>
			<g>
				<path class="st10" d="M102.1,702.8c0-0.6,0.5-1.2,1.2-1.2c0.6,0,1.2,0.5,1.2,1.2s-0.5,1.2-1.2,1.2
					C102.6,704,102.1,703.4,102.1,702.8"/>
			</g>
			<g>
				<path class="st8" d="M102.5,702.8c0-0.4,0.3-0.8,0.8-0.8c0.4,0,0.8,0.3,0.8,0.8s-0.3,0.8-0.8,0.8
					C102.8,703.6,102.5,703.2,102.5,702.8"/>
			</g>
			<g>
				<path class="st1" d="M98.2,704c-0.1,0-0.1,0-0.1,0.1c0,0.4,0,2.1,0.3,5.4c0,0.1,0.1,0.1,0.1,0.1c0.1,0,0.1-0.1,0.1-0.1
					c0,0,0,0,0,0c-0.3-3.2-0.3-4.9-0.3-5.3C98.3,704.1,98.2,704,98.2,704C98.2,704,98.2,704,98.2,704L98.2,704z"/>
			</g>
			<g>
				<path class="st6" d="M108.6,712.6c0,0-0.2,0-0.4,0c0,0,0.1,0,0.1,0.1l0,0c0,0,0,0,0,0c0,0,0,0,0,0c0,0,0,0,0.1,0c0,0,0,0,0.1,0
					C108.5,712.6,108.5,712.6,108.6,712.6C108.6,712.6,108.6,712.6,108.6,712.6"/>
			</g>
			<g>
				<path class="st6" d="M98.2,712.6c-0.2,0-0.4,0-0.4,0c0,0,0,0,0,0c0,0,0.1,0,0.1,0c0,0,0,0,0.1,0c0,0,0,0,0.1,0c0,0,0,0,0,0
					c0,0,0,0,0,0L98.2,712.6C98.2,712.6,98.2,712.6,98.2,712.6"/>
			</g>
			<g>
				<path class="st11" d="M103.9,706.2c0-2.4,2-4.4,4.4-4.4s4.4,2,4.4,4.4s-2,4.4-4.4,4.4S103.9,708.7,103.9,706.2"/>
			</g>
			<g>
				<g>
					<g>
						<defs>
							<rect id="SVGID_1_" x="87.3" y="686.3" width="40.9" height="40.9"/>
						</defs>
						<clipPath id="SVGID_2_">
							<use xlink:href="#SVGID_1_"  style="overflow:visible;"/>
						</clipPath>
						<g class="st12">
							<g>
								<defs>
									<rect id="SVGID_3_" x="87.3" y="686.3" width="40.9" height="40.9"/>
								</defs>
								<clipPath id="SVGID_4_">
									<use xlink:href="#SVGID_3_"  style="overflow:visible;"/>
								</clipPath>
								<g class="st13">
									<path class="st6" d="M108.8,710.2c1.1,0,2.1-0.4,2.9-1.1c-0.8,1-2.1,1.5-3.3,1.5c-2.4,0-4.4-2-4.4-4.4
										c0-1.3,0.6-2.5,1.5-3.3c-0.7,0.8-1.1,1.8-1.1,2.9C104.3,708.2,106.3,710.2,108.8,710.2"/>
								</g>
							</g>
						</g>
					</g>
				</g>
			</g>
			<g>
				<path class="st1" d="M109.4,702.5C109.4,702.5,109.4,702.5,109.4,702.5c-1.3,1-4.5,3.9-4.5,3.9c0,0,0,0,0,0.1
					c0.2,3.6,3.8,4.2,3.8,4.2c0,0,0.1,0,0.1-0.1c0,0,0-0.1-0.1-0.1c0,0-3.5-0.6-3.7-4.1c0.3-0.3,3.2-3,4.5-3.9
					C109.5,702.6,109.5,702.6,109.4,702.5C109.4,702.5,109.4,702.5,109.4,702.5"/>
			</g>
			<g>
				<path class="st1" d="M108.7,701.8C108.6,701.8,108.6,701.8,108.7,701.8c-0.1,0.1,0,0.1,0,0.1c0.3,0,0.6,0.5,0.7,0.7c0,0,0,0,0,0
					c2,0.4,2.8,1.8,2.9,2c-0.7,4.1-5.2,5.4-5.2,5.4c0,0-0.1,0,0,0.1c0,0,0,0.1,0.1,0c0,0,4.6-1.3,5.3-5.5c0,0,0,0,0,0
					c0,0-0.9-1.6-3-2.1C109.4,702.4,109,701.8,108.7,701.8L108.7,701.8z"/>
			</g>
			<g>
				<path class="st1" d="M111.4,703.4C111.3,703.4,111.3,703.4,111.4,703.4c-2.4,3.2-5.7,5.3-5.7,5.3c0,0,0,0.1,0,0.1c0,0,0,0,0,0
					c0,0,0.1,0,0.1,0c0,0,0,0,0,0c0,0,3.3-2.2,5.7-5.3C111.4,703.5,111.4,703.4,111.4,703.4C111.4,703.4,111.4,703.4,111.4,703.4"/>
			</g>
			<g>
				<path class="st1" d="M103.9,705.8C103.9,705.8,103.9,705.8,103.9,705.8c-0.1,0-0.1,0.1,0,0.1c0,0,0,0,0,0c0.2,0.3,1,0.6,1,0.7
					c0,0,0.1,0,0.1,0c0,0,0-0.1,0-0.1c0,0,0,0,0,0C104.9,706.4,104.2,706,103.9,705.8C104,705.8,103.9,705.8,103.9,705.8"/>
			</g>
			<g>
				<path class="st1" d="M104.7,703.7C104.7,703.7,104.6,703.7,104.7,703.7c-0.1,0.1-0.1,0.1,0,0.1c0.9,0.5,1.8,1.2,1.8,1.2
					c0,0,0.1,0,0.1,0c0,0,0-0.1,0-0.1C106.6,704.9,105.7,704.1,104.7,703.7C104.7,703.7,104.7,703.7,104.7,703.7"/>
			</g>
			<g>
				<path class="st1" d="M106.6,702.1C106.6,702.1,106.6,702.2,106.6,702.1c-0.1,0.1-0.1,0.1,0,0.1c0.6,0.4,1.3,1.5,1.3,1.5
					c0,0,0.1,0,0.1,0c0,0,0-0.1,0-0.1C108,703.6,107.3,702.6,106.6,702.1C106.7,702.1,106.6,702.1,106.6,702.1"/>
			</g>
			<g>
				<path class="st1" d="M108.3,710.5c-2.4,0-4.3-1.9-4.3-4.3c0-2.4,1.9-4.3,4.3-4.3s4.3,1.9,4.3,4.3
					C112.6,708.6,110.7,710.5,108.3,710.5 M108.3,701.7c-2.5,0-4.5,2-4.5,4.5c0,2.5,2,4.5,4.5,4.5c2.5,0,4.5-2,4.5-4.5
					C112.8,703.8,110.8,701.7,108.3,701.7"/>
			</g>
			<g>
				<path class="st8" d="M111.1,709.7c0,0,0.5,0.1,1-0.5c0.5-0.7,0.3-1.2,0.3-1.2l-0.5-0.3l-1.3,1.9L111.1,709.7z"/>
			</g>
			<g>
				<path class="st7" d="M110.3,707.3c0,0-0.3-0.2-0.5,0.1c-0.2,0.2,0.2,0.8,0.3,0.8l-0.3-0.4c-0.3,0-0.4,0.2-0.4,0.2
					c-0.2,0.4,0.8,1.1,0.8,1.1l-0.4-0.2c0,0-0.4-0.1-0.4,0.3c0,0.3,0.4,0.3,0.4,0.3h0.8c0,0,0.6,0.2,1.2-0.7s0.2-1.2,0.2-1.2
					s-0.8-1-1.2-0.8c0,0-0.2,0.1,0.1,0.6l-0.2-0.4c-0.1,0-0.3-0.1-0.4,0.1c-0.2,0.3,0.2,0.7,0.2,0.7L110.3,707.3z"/>
			</g>
			<g>
				<path class="st1" d="M111.5,710.1c0.1,0,0.1,0,0.1-0.1c0,0,0-0.1,0-0.1c-0.3-0.2-0.8-0.6-0.8-0.6l-0.1,0.2
					C110.7,709.5,111.2,709.9,111.5,710.1C111.5,710.1,111.5,710.1,111.5,710.1"/>
			</g>
			<g>
				<path class="st1" d="M110.9,706.6c-0.1,0-0.2,0-0.2,0.1c0,0-0.3,0.2,0.1,0.7c0,0,0.1,0.1,0.1,0s0.1-0.1,0-0.1c0,0,0,0,0,0
					c-0.2-0.3-0.1-0.4-0.1-0.4c0.2-0.1,0.7,0.3,1,0.7c0,0,0,0,0,0c0,0,0.3,0.2-0.2,1c-0.5,0.8-1,0.6-1.1,0.6c0,0,0,0,0,0h-0.8
					c0,0-0.2,0-0.2-0.1c0,0,0-0.1,0-0.1c0,0,0-0.1,0.1-0.1c0.1-0.1,0.2-0.1,0.3-0.1c0.1,0,0.1,0,0.1-0.1c0-0.1,0-0.1-0.1-0.1
					c0,0,0,0,0,0c0,0-0.3,0-0.4,0.1c-0.1,0.1-0.1,0.2-0.1,0.3c0,0.2,0,0.2,0.1,0.3c0.1,0.1,0.3,0.1,0.4,0.1h0.8
					c0.1,0,0.7,0.1,1.3-0.7c0.6-0.9,0.3-1.2,0.2-1.3C111.9,707.3,111.4,706.6,110.9,706.6"/>
			</g>
			<g>
				<path class="st1" d="M109.7,707.7c-0.3,0-0.4,0.2-0.4,0.2c-0.2,0.4,0.7,1.1,0.9,1.2c0,0,0.1,0,0.1,0c0,0,0-0.1,0-0.1l0,0
					c-0.4-0.3-0.9-0.8-0.8-0.9c0,0,0,0,0,0c0,0,0-0.1,0.3-0.1c0.1,0,0.1,0,0.1-0.1C109.9,707.7,109.8,707.7,109.7,707.7
					C109.7,707.7,109.7,707.7,109.7,707.7"/>
			</g>
			<g>
				<path class="st1" d="M110.5,706.8c-0.1,0-0.2,0.1-0.3,0.2c-0.2,0.3,0.2,0.8,0.2,0.9c0,0,0.1,0,0.1,0c0,0,0-0.1,0-0.1
					c-0.1-0.1-0.3-0.4-0.2-0.6c0,0,0.1-0.1,0.3,0c0.1,0,0.1,0,0.1-0.1c0-0.1,0-0.1-0.1-0.1C110.7,706.9,110.6,706.8,110.5,706.8"/>
			</g>
			<g>
				<path class="st1" d="M110.1,707.2c-0.1,0-0.2,0-0.4,0.2c-0.3,0.3,0.3,0.9,0.3,0.9c0,0,0.1,0,0.1,0c0,0,0-0.1,0-0.1c0,0,0,0,0,0
					c-0.1-0.1-0.4-0.5-0.2-0.6c0.1-0.1,0.2-0.1,0.3-0.1c0.1,0,0.1,0,0.1,0c0,0,0-0.1,0-0.1c0,0,0,0,0,0
					C110.2,707.2,110.2,707.2,110.1,707.2"/>
			</g>
			<g>
				<path class="st1" d="M112,707.5c-0.1,0-0.1,0-0.1,0.1c0,0,0,0.1,0,0.1c1.3,1,0.9,2.1,0.9,2.1c-0.6,1.7-4.1,2.9-4.1,2.9
					c-0.1,0-0.1,0.1-0.1,0.1c0,0.1,0.1,0.1,0.1,0.1c0.1-0.1,3.6-1.3,4.2-3C113.1,709.9,113.5,708.6,112,707.5
					C112.1,707.5,112.1,707.5,112,707.5"/>
			</g>
			<g>
				<path class="st14" d="M103.2,730.3c0,0,9.4,0.3,8.7-10c0,0,0.1-2.8-1.4-5.5c0,0,0.4,2.4,0.3,3.5l0.1,1.3c0,0,0,0.9-0.8,1.7
					c-0.1,0.2-2.2,2.4-2.2,2.4s-0.2,0.3-0.7,0l-3.6-1.5c0,0-0.4-0.1-0.5-0.1c-0.1,0-0.5,0.1-0.5,0.1l-3.6,1.5c-0.5,0.2-0.7,0-0.7,0
					s-2.1-2.2-2.2-2.4c-0.8-0.8-0.8-1.7-0.8-1.7l0.1-1.3c0-1.1,0.3-3.5,0.3-3.5c-1.5,2.5-1.4,5.5-1.4,5.5
					C93.8,730.6,103.2,730.3,103.2,730.3"/>
			</g>
			<g>
				<path class="st1" d="M107.9,723.9C107.9,723.9,107.8,723.9,107.9,723.9c-0.1,0-0.1,0.1-0.1,0.2c0.1,1,0.4,4.2-0.6,5.4
					c0,0.1,0,0.1,0,0.2c0.1,0,0.1,0,0.2,0c1.1-1.3,0.8-4.6,0.7-5.6l0,0C108,724,107.9,723.9,107.9,723.9"/>
			</g>
			<g>
				<path class="st1" d="M98.6,723.9c-0.1,0-0.1,0.1-0.1,0.1l0,0c-0.1,1-0.4,4.3,0.7,5.6c0,0.1,0.1,0.1,0.2,0c0.1,0,0.1-0.1,0-0.2
					c-1.1-1.2-0.8-4.4-0.7-5.4C98.7,724.1,98.7,723.9,98.6,723.9C98.6,723.9,98.6,723.9,98.6,723.9"/>
			</g>
			<g>
				<path class="st15" d="M103.9,730.7l0.3,2.8c0,0.8-1,0.8-1,0.8l0-3.6"/>
			</g>
			<g>
				<path class="st15" d="M104.9,730.5l0.5,1.4c0.1,0.3,0.2,0.6,0,0.9c-0.2,0.5-0.9,0.6-1.3,0.3l-0.2-2.3
					C103.9,730.8,104.8,730.7,104.9,730.5"/>
			</g>
			<g>
				<path class="st15" d="M102.5,730.7l-0.3,2.8c0,0.8,1,0.8,1,0.8l0-3.6"/>
			</g>
			<g>
				<path class="st15" d="M101.5,730.5L101,732c-0.1,0.3-0.1,0.6,0,0.9c0.2,0.5,0.9,0.6,1.3,0.3l0.2-2.3
					C102.5,730.8,101.7,730.7,101.5,730.5"/>
			</g>
			<g>
				<path class="st1" d="M104.9,730.4c-0.1,0-0.1,0.1-0.1,0.1c0,0,0,0,0,0l0.5,1.4c0.1,0.3,0.1,0.6,0.1,0.8
					c-0.1,0.2-0.2,0.3-0.4,0.4c-0.2,0.1-0.5,0-0.7-0.1c-0.1,0-0.1,0-0.2,0c0,0,0,0.1,0,0.1l0,0.5c0,0.6-0.8,0.6-0.9,0.6h0
					c-0.1,0-0.8,0-0.9-0.6l0-0.4c0-0.1,0-0.1-0.1-0.1c0,0-0.1,0-0.1,0c-0.2,0.1-0.4,0.2-0.7,0.1c-0.2-0.1-0.4-0.2-0.4-0.4
					c-0.1-0.2-0.1-0.4,0-0.8l0.5-1.4c0-0.1,0-0.1-0.1-0.2c-0.1,0-0.1,0-0.2,0.1c0,0,0,0,0,0l-0.5,1.4c-0.1,0.2-0.2,0.6,0,0.9
					c0.1,0.3,0.3,0.4,0.6,0.5c0.2,0.1,0.5,0,0.7,0l0,0.2c0,0.3,0.1,0.5,0.3,0.6c0.3,0.3,0.7,0.3,0.8,0.3h0c0.4,0,1.1-0.2,1.1-0.9
					l0-0.2c0.2,0.1,0.5,0.1,0.7,0c0.3-0.1,0.5-0.3,0.6-0.5c0.1-0.3,0-0.7,0-0.9l-0.5-1.4C105,730.5,105,730.4,104.9,730.4"/>
			</g>
			<g>
				<path class="st1" d="M102.5,730.6c-0.1,0-0.1,0.1-0.1,0.1l-0.3,2.8c0,0.1,0,0.1,0.1,0.1c0.1,0,0.1,0,0.1-0.1l0.3-2.8
					C102.6,730.7,102.6,730.6,102.5,730.6C102.5,730.6,102.5,730.6,102.5,730.6L102.5,730.6z"/>
			</g>
			<g>
				<path class="st1" d="M103.9,730.6L103.9,730.6c-0.1,0-0.1,0.1-0.1,0.1c0,0,0,0,0,0l0.3,2.8c0,0.1,0.1,0.1,0.1,0.1
					c0.1,0,0.1-0.1,0.1-0.1l-0.3-2.8C104.1,730.7,104,730.6,103.9,730.6"/>
			</g>
			<g>
				<path class="st14" d="M101,730.3c0.2,0.2,0.4,0.4,0.6,0.5c0.4,0.2,0.8,0.3,1.3,0.4c0.1,0,0.2,0,0.3,0c0.4,0,0.8-0.1,1.2-0.2
					c0.3-0.1,0.6-0.3,0.8-0.5c0.1-0.1,0.2-0.2,0.3-0.4c0,0,0,0,0,0l-4.8,0.1C100.9,730.2,100.9,730.3,101,730.3"/>
			</g>
			<g>
				<path class="st1" d="M100.8,730c-0.1,0-0.1,0.1-0.1,0.1c0,0,0,0,0,0.1c0,0.1,0.1,0.1,0.1,0.2c0.2,0.2,0.4,0.4,0.7,0.5
					c0.4,0.2,0.8,0.3,1.3,0.4c0.1,0,0.2,0,0.3,0h0c0.4,0,0.9-0.1,1.3-0.2c0.3-0.1,0.6-0.3,0.9-0.5c0.1-0.1,0.2-0.2,0.3-0.3
					c0-0.1,0-0.1,0-0.2s-0.1,0-0.2,0l0,0c-0.1,0.1-0.2,0.2-0.2,0.3c-0.2,0.2-0.5,0.4-0.8,0.5c-0.4,0.1-0.8,0.2-1.2,0.2h0
					c-0.1,0-0.2,0-0.3,0c-0.5,0-0.9-0.2-1.2-0.3c-0.2-0.1-0.4-0.3-0.6-0.5c0-0.1-0.1-0.1-0.1-0.2C100.9,730,100.9,730,100.8,730"/>
			</g>
			<g>
				<path class="st1" d="M103.1,730.6c-0.7,0-4.3-0.1-6.7-2.7c-1.7-1.8-2.4-4.3-2.2-7.5c0-0.3,0-4.6,2.8-7.4
					c1.5-1.5,3.6-2.3,6.1-2.3h0c2.5,0,4.6,0.8,6.2,2.3c2.8,2.8,2.9,7.1,2.9,7.4c0.2,3.2-0.5,5.7-2.2,7.5c-2.4,2.6-6,2.7-6.7,2.7
					L103.1,730.6L103.1,730.6z M103.1,730.3C103.2,730.3,103.2,730.3,103.1,730.3l0.1,0c0.8,0,9.3-0.2,8.7-10c0,0,0-9.5-8.8-9.5h0
					c-8.8,0-8.7,9.5-8.7,9.5C93.8,730,102.2,730.3,103.1,730.3"/>
			</g>
			<g>
				<path class="st7" d="M95.4,719.7l0.1-3.7c0,0-0.4-3,2.5-4.5c1.1-0.6,2.3-1.1,5.3-1.2c3.1,0.1,4.2,0.6,5.3,1.2
					c2.9,1.5,2.5,4.5,2.5,4.5l0.1,3.7 M95.4,719.7c0,0,0,0.9,0.8,1.7c0.1,0.2,2.3,2.5,2.3,2.5s0.2,0.3,0.7,0l3.6-1.5
					c0,0,0.4-0.2,0.5-0.1c0.1,0,0.5,0.1,0.5,0.1l3.7,1.5c0.5,0.2,0.7,0,0.7,0s2.1-2.2,2.2-2.5c0.8-0.8,0.8-1.8,0.8-1.8"/>
			</g>
			<g>
				<path class="st16" d="M107.3,716.5c0-0.6,0.6-1,1.4-1.1c0.8,0,1.4,0.5,1.4,1c0,0.6-0.6,1-1.4,1.1
					C107.9,717.5,107.3,717,107.3,716.5"/>
			</g>
			<g>
				<path class="st17" d="M103.2,716.2c0,0,0.4,0,0.5-0.5l-0.5,0L103.2,716.2z"/>
			</g>
			<g>
				<path class="st16" d="M99.2,716.5c0-0.6-0.6-1-1.4-1c-0.8,0-1.4,0.5-1.4,1.1c0,0.6,0.6,1,1.4,1
					C98.6,717.5,99.2,717.1,99.2,716.5"/>
			</g>
			<g>
				<path class="st17" d="M103.2,716.2c0,0-0.4,0-0.5-0.5l0.5,0L103.2,716.2z"/>
			</g>
			<g>
				<path class="st1" d="M95.5,719.7l0.1-3.7c0,0,0,0,0,0c0-0.1-0.4-2.9,2.4-4.4c1.1-0.6,2.2-1,5.3-1.2c3,0.1,4.1,0.6,5.3,1.1
					c2.8,1.4,2.4,4.2,2.4,4.4c0,0,0,0,0,0l0.1,3.7c0,0.1,0,0.9-0.8,1.7c0,0,0,0,0,0c-0.1,0.2-1.4,1.6-2.2,2.4c0,0,0,0,0,0
					c0,0-0.1,0.2-0.5,0l-3.7-1.5c-0.1,0-0.4-0.2-0.5-0.1c-0.2,0-0.5,0.1-0.5,0.1l-3.6,1.5c-0.4,0.2-0.5,0-0.5,0c0,0,0,0,0,0
					c-0.8-0.8-2.2-2.3-2.2-2.4c0,0,0,0,0,0C95.6,720.6,95.5,719.8,95.5,719.7 M103.2,710.2c-3.1,0.1-4.2,0.6-5.4,1.2
					c-2.9,1.5-2.5,4.4-2.5,4.6l-0.1,3.7v0c0,0,0,1,0.8,1.8c0.2,0.3,1.9,2.1,2.3,2.5c0.1,0.1,0.3,0.3,0.8,0.1l3.6-1.5
					c0.2-0.1,0.4-0.1,0.4-0.1c0,0,0,0,0,0c0.1,0,0.2,0,0.4,0.1l3.7,1.5c0.5,0.3,0.8,0,0.8-0.1c0.4-0.4,2.1-2.2,2.3-2.5
					c0.8-0.8,0.8-1.8,0.8-1.8v0l-0.1-3.7c0-0.2,0.3-3.2-2.5-4.6C107.5,710.8,106.3,710.3,103.2,710.2"/>
			</g>
			<g>
				<path class="st18" d="M103.3,710.7c1.8,0.1,2.7,0.7,3.2,1.4c0.6,0.7,0.6,1.5,0.6,1.7c0,0.3-0.1,0.7-0.4,0.9
					c-0.2,0.2-0.5,0.3-0.9,0.2c-0.9-0.3-2.5-0.4-2.5-0.4s-1.6,0.1-2.5,0.4c-0.4,0.1-0.7,0-0.9-0.2c-0.3-0.2-0.4-0.5-0.4-0.9
					c0-0.2,0-1,0.6-1.7C100.5,711.4,101.5,710.8,103.3,710.7"/>
			</g>
			<g>
				<path class="st1" d="M100.4,714.7c-0.2,0-0.4-0.1-0.5-0.2c-0.2-0.2-0.3-0.4-0.3-0.8c0-0.1,0-0.9,0.6-1.6
					c0.6-0.8,1.7-1.2,3.1-1.3c1.5,0.1,2.5,0.5,3.1,1.3c0.6,0.8,0.6,1.5,0.6,1.6c0,0.3-0.1,0.6-0.3,0.8c-0.2,0.2-0.5,0.2-0.8,0.1
					c-0.9-0.3-2.5-0.4-2.6-0.4c-0.1,0-1.6,0.1-2.6,0.4C100.6,714.7,100.5,714.7,100.4,714.7 M103.3,710.6L103.3,710.6
					C103.3,710.6,103.3,710.6,103.3,710.6c-1.6,0.1-2.7,0.5-3.3,1.4c-0.6,0.8-0.6,1.7-0.6,1.8c0,0.4,0.2,0.7,0.4,1
					c0.2,0.2,0.5,0.3,1,0.2c0.9-0.3,2.5-0.4,2.5-0.4c0.1,0,1.6,0.1,2.5,0.4c0.5,0.2,0.8,0,1-0.2c0.3-0.2,0.4-0.6,0.4-1
					c0-0.1,0-1-0.6-1.8C105.9,711.1,104.8,710.6,103.3,710.6L103.3,710.6z"/>
			</g>
			<g>
				<path class="st19" d="M103.3,711.3c0.4,0,0.9,0.1,0.9,0.1c0.6,0.1,1,0.3,1.2,0.5l0,0c-0.7,0.5-2.1,0.5-2.2,0.5s-1.5,0.1-2.2-0.5
					l0,0c0.2-0.2,0.6-0.4,1.2-0.5C102.4,711.4,102.9,711.3,103.3,711.3"/>
			</g>
			<g>
				<path class="st6" d="M105.7,712.2c0,0-0.1-0.1-0.3-0.2c-0.2-0.2-0.6-0.4-1.2-0.5c0,0-0.5-0.1-0.9-0.1c-0.4,0-0.9,0.1-0.9,0.1
					c-0.6,0.1-1,0.3-1.2,0.5c-0.2,0.1-0.3,0.2-0.3,0.2c-0.5,0.5-0.8,0-0.8,0c0.5-0.7,1.5-1.3,3.2-1.4c1.8,0.1,2.7,0.7,3.2,1.4
					C106.5,712.2,106.2,712.8,105.7,712.2"/>
			</g>
			<g>
				<path class="st6" d="M108.7,719.3c0-0.6-0.2-1.6-0.9-2l-2.3,0c0,0-0.5,0.2-0.9,0.9L108.7,719.3z"/>
			</g>
			<g>
				<path class="st1" d="M104.5,718.1c-0.1,0-0.1,0.1-0.1,0.1c0,0.1,0,0.1,0.1,0.1l4.2,1.1c0.1,0,0.1,0,0.2-0.1c0-0.1,0-0.1-0.1-0.2
					L104.5,718.1C104.6,718.1,104.6,718.1,104.5,718.1"/>
			</g>
			<g>
				<path class="st20" d="M107.9,717.1L107.9,717.1l-2.4,0c-0.1,0-0.1,0.1-0.1,0.1c0,0.1,0.1,0.1,0.1,0.1l2.4,0
					c0.1,0,0.1-0.1,0.1-0.1S108,717.1,107.9,717.1C107.9,717.1,107.9,717.1,107.9,717.1"/>
			</g>
			<g>
				<path class="st6" d="M97.7,719.3c0-0.6,0.2-1.6,0.9-2l2.3,0c0,0,0.5,0.2,0.9,0.9L97.7,719.3z"/>
			</g>
			<g>
				<path class="st1" d="M101.9,718.1C101.9,718.1,101.9,718.1,101.9,718.1l-4.3,1.2c-0.1,0-0.1,0.1-0.1,0.2c0,0,0,0,0,0
					c0,0.1,0.1,0.1,0.2,0.1l4.2-1.1c0.1,0,0.1-0.1,0.1-0.2C102,718.1,102,718.1,101.9,718.1"/>
			</g>
			<g>
				<path class="st20" d="M101,717.1L101,717.1l-2.4,0c-0.1,0-0.1,0.1-0.1,0.1c0,0.1,0.1,0.1,0.1,0.1l2.4,0c0.1,0,0.1-0.1,0.1-0.1
					S101.1,717.1,101,717.1C101,717.1,101,717.1,101,717.1"/>
			</g>
			<g>
				<path class="st1" d="M105.5,718.4c0.1-0.3,0.4-0.4,0.7-0.3c0.2,0.1,0.4,0.3,0.4,0.5c0,0,0,0.1,0,0.1L105.5,718.4z"/>
			</g>
			<g>
				<path class="st1" d="M101,718.4c-0.1-0.3-0.4-0.4-0.7-0.3c-0.2,0.1-0.4,0.3-0.3,0.6L101,718.4z"/>
			</g>
			<g>
				<path class="st1" d="M104.1,719.3c0.1,0,0.1,0,0.2,0l3.3,2.1c0.1,0.1,0.1,0.2,0,0.3c-0.1,0.1-0.2,0.2-0.3,0.1l-3-2
					c0,0-0.2,0.2-0.3,0.2c-0.2,0-0.2-0.3-0.2-0.5c0-0.2,0.1-0.3,0.2-0.4C104,719.3,104.1,719.3,104.1,719.3"/>
			</g>
			<g>
				<path class="st1" d="M102.4,719.3c-0.1,0-0.1,0-0.2,0l-3.3,2.2c-0.1,0.1-0.1,0.2,0,0.3c0.1,0.1,0.2,0.2,0.3,0.1l3-2
					c0,0,0.2,0.2,0.3,0.2c0.2,0,0.1-0.3,0.2-0.5c0-0.2-0.1-0.3-0.2-0.4C102.4,719.3,102.4,719.3,102.4,719.3"/>
			</g>
			<g>
				<path class="st1" d="M117,706.3c-0.5,0-1-0.1-1.5-0.2c-0.3,0.2-0.7,0.2-1,0.2c-0.4,0-0.8-0.1-1.2-0.3c-0.4,0.2-0.8,0.3-1.2,0.3
					c-0.3,0-0.7-0.1-1-0.2c-0.5,0.2-1,0.2-1.5,0.2c-1.3,0-2.5-0.5-3.4-1.4c-1.1,1.4-3.1,1.8-4.7,1c-0.8,0.4-1.7,0.5-2.6,0.2
					c-0.9,0.3-1.8,0-2.4-0.6c-0.4,0.4-0.9,0.6-1.4,0.7c0.3,0.7,0.4,1.6,0.4,2.8c0,2.9-2.4,5.3-5.3,5.3c-2.9,0-5.3-2.4-5.3-5.3
					c0-1.2,0.1-2,0.4-2.8c-1.3-0.2-2.2-1.3-2.2-2.6v-0.8c0-1.3,1-2.4,2.2-2.6c-0.3-0.4-0.4-0.9-0.4-1.3c0-0.1,0-0.9,0-1.1
					c0-0.7,0.3-1.3,0.8-1.8c0.5-0.5,1.2-0.8,1.9-0.8c0.7,0,1.4,0.3,1.9,0.8l0.8,0.8l0.8-0.8c0.5-0.5,1.2-0.8,1.9-0.8
					c0.7,0,1.4,0.3,1.9,0.8c0.5,0.5,0.8,1.2,0.8,1.9c0,0.2,0,1,0,1l0,0c0,0.5-0.2,0.9-0.4,1.3c0.3,0.1,0.5,0.1,0.8,0.3v-2.1
					c0-1.3,1-2.3,2.3-2.3c0.6,0,1.2,0.3,1.7,0.7c0.4-0.4,1-0.7,1.7-0.7c0.6,0,1.2,0.3,1.7,0.7c0.4-0.4,1-0.7,1.7-0.7
					c0.7,0,1.4,0.3,1.8,0.9c0.8-0.7,1.9-1,2.9-1c0.6,0,1.1,0.1,1.7,0.3c0.3-0.1,0.5-0.1,0.8-0.1c0.4,0,0.8,0.1,1.2,0.3
					c0.4-0.2,0.8-0.3,1.2-0.3c1.3,0,2.3,1,2.3,2.3c0,0.1,0.1,0.2,0.2,0.2c0.1,0,0.2-0.1,0.2-0.2c0-1.3,1-2.3,2.3-2.3
					c1.3,0,2.3,1,2.3,2.3v3.2C121.8,704.1,119.7,706.3,117,706.3"/>
			</g>
			<g>
				<path class="st14" d="M117,705.7c-0.5,0-1-0.1-1.5-0.3c-0.3,0.2-0.6,0.3-1,0.3c-0.4,0-0.9-0.2-1.2-0.5c-0.3,0.3-0.7,0.5-1.2,0.5
					c-0.3,0-0.7-0.1-1-0.3c-0.5,0.2-1,0.3-1.5,0.3c-1.4,0-2.7-0.7-3.4-1.8c-0.6,1.1-1.7,1.8-3,1.8c-0.6,0-1.1-0.1-1.7-0.4
					c-0.5,0.3-1.1,0.4-1.7,0.4c-0.3,0-0.7,0-1-0.1c-0.2,0.1-0.4,0.1-0.7,0.1c-0.8,0-1.5-0.5-1.7-1.3c-0.3,0.8-1.1,1.3-1.9,1.3h-0.4
					c0.4,0.7,0.7,1.6,0.7,3.3c0,2.6-2.1,4.7-4.7,4.7c-2.6,0-4.7-2.1-4.7-4.7c0-1.7,0.3-2.6,0.7-3.3h-0.4c-1.2,0-2.1-0.9-2.1-2.1
					v-0.8c0-1.2,0.9-2.1,2.1-2.1h0.8l-0.6-0.6c-0.4-0.4-0.6-0.8-0.6-1.3c0,0,0-0.9,0-1.1c0-0.5,0.2-1,0.6-1.4
					c0.4-0.4,0.9-0.6,1.5-0.6h0c0.6,0,1.1,0.2,1.5,0.6l1.2,1.2l1.2-1.2c0.8-0.8,2.1-0.8,3,0c0.4,0.4,0.6,0.9,0.6,1.5c0,0.2,0,1,0,1
					c0,0.5-0.3,1-0.6,1.3l-0.6,0.6h0.8c0.8,0,1.5,0.4,1.9,1.2v-3.5c0-0.9,0.8-1.7,1.7-1.7c0.8,0,1.4,0.5,1.7,1.3
					c0.2-0.7,0.9-1.3,1.7-1.3c0.8,0,1.4,0.5,1.7,1.3c0.2-0.7,0.9-1.3,1.7-1.3c0.8,0,1.4,0.5,1.6,1.2c0.8-0.9,1.9-1.4,3.1-1.4
					c0.6,0,1.1,0.1,1.7,0.3c0.7-0.3,1.5-0.2,2,0.3c0.3-0.3,0.7-0.5,1.2-0.5c0.9,0,1.7,0.8,1.7,1.7c0,0.4,0.3,0.8,0.8,0.8
					c0.4,0,0.8-0.3,0.8-0.8c0-0.9,0.8-1.7,1.7-1.7c0.9,0,1.7,0.8,1.7,1.7v3.2C121.2,703.8,119.3,705.7,117,705.7"/>
			</g>
			<g>
				<path class="st6" d="M103.3,704.6c-0.6,0-1.2-0.3-1.7-0.7c-0.7,0.7-1.9,0.9-2.8,0.4c-0.2,0.3-0.6,0.4-0.9,0.2
					c-0.2-0.1-0.3-0.3-0.3-0.5v-4.8c0-0.4,0.3-0.7,0.7-0.7s0.7,0.3,0.7,0.7v3.2c0,0.5,0.4,1,1,1c0.5,0,1-0.4,1-1v-3.2
					c0-0.4,0.3-0.7,0.7-0.7c0.4,0,0.7,0.3,0.7,0.7l0,0v3.2c0,0.5,0.4,1,1,1c0.5,0,1-0.4,1-1v-3.2c0-0.4,0.3-0.7,0.7-0.7
					s0.7,0.3,0.7,0.7l0,0v3.2C105.6,703.6,104.6,704.6,103.3,704.6"/>
			</g>
			<g>
				<path class="st6" d="M103.3,703.4c0.6,0,1.1-0.5,1.1-1.1v-3.2c0-0.3,0.2-0.5,0.5-0.5c0.3,0,0.5,0.2,0.5,0.5v3.2
					c0,1.2-1,2.2-2.2,2.2c-0.6,0-1.1-0.2-1.5-0.7c-0.1-0.1-0.2-0.1-0.2,0c-0.4,0.4-1,0.7-1.5,0.7c-0.4,0-0.7-0.1-1-0.3
					c-0.1,0-0.2,0-0.2,0c-0.2,0.2-0.5,0.3-0.7,0.1c-0.1-0.1-0.2-0.3-0.2-0.4v-4.8c0-0.3,0.2-0.5,0.5-0.5c0.3,0,0.5,0.2,0.5,0.5v3.2
					c0,0.6,0.5,1.1,1.1,1.1c0.6,0,1.1-0.5,1.1-1.1v-3.2c0-0.3,0.2-0.5,0.5-0.5c0.3,0,0.5,0.2,0.5,0.5v3.2
					C102.2,702.9,102.7,703.4,103.3,703.4 M105,698.3c-0.4,0-0.8,0.4-0.8,0.8v3.2c0,0.5-0.4,0.8-0.8,0.8c-0.5,0-0.8-0.4-0.8-0.8
					v-3.2c0-0.4-0.4-0.8-0.8-0.8c-0.4,0-0.8,0.4-0.8,0.8v3.2c0,0.5-0.4,0.8-0.8,0.8c-0.5,0-0.8-0.4-0.8-0.8v-3.2
					c0-0.4-0.4-0.8-0.8-0.8c-0.4,0-0.8,0.4-0.8,0.8v4.8c0,0.4,0.4,0.8,0.8,0.8c0.2,0,0.4-0.1,0.6-0.2c0.3,0.2,0.7,0.2,1.1,0.2
					c0.6,0,1.2-0.2,1.7-0.6c0.5,0.4,1,0.6,1.7,0.6c1.4,0,2.5-1.1,2.5-2.5v-3.2C105.8,698.7,105.4,698.3,105,698.3"/>
			</g>
			<g>
				<path class="st6" d="M94.8,704.6h-8.9c-0.6,0-1-0.5-1-1c0-0.6,0.5-1,1-1h8.9c0.6,0,1.1,0.4,1.1,1S95.4,704.6,94.8,704.6
					C94.8,704.6,94.8,704.6,94.8,704.6"/>
			</g>
			<g>
				<path class="st6" d="M85.9,704.5c-0.5,0-0.9-0.4-0.9-0.9c0-0.5,0.4-0.9,0.9-0.9h8.9c0.5,0,0.9,0.4,0.9,0.9
					c0,0.5-0.4,0.9-0.9,0.9H85.9z M94.8,702.4h-8.9c-0.7,0-1.2,0.5-1.2,1.2c0,0.7,0.5,1.2,1.2,1.2h8.9c0.7,0,1.2-0.5,1.2-1.2
					C96,702.9,95.4,702.4,94.8,702.4"/>
			</g>
			<g>
				<path class="st6" d="M90.3,710.5c0.9,0,1.6-0.7,1.6-1.6c0-0.9-0.7-1.6-1.6-1.6c-0.9,0-1.6,0.7-1.6,1.6
					C88.7,709.8,89.4,710.5,90.3,710.5 M90.3,705.3c2,0,3.7,1.6,3.7,3.7c0,2-1.6,3.7-3.7,3.7s-3.7-1.6-3.7-3.7
					C86.6,706.9,88.3,705.3,90.3,705.3"/>
			</g>
			<g>
				<path class="st6" d="M90.3,710.4c-0.8,0-1.4-0.6-1.4-1.4c0-0.8,0.6-1.4,1.4-1.4c0.8,0,1.4,0.6,1.4,1.4
					C91.7,709.7,91.1,710.4,90.3,710.4 M90.3,707.3c-0.9,0-1.7,0.8-1.7,1.7c0,0.9,0.8,1.7,1.7,1.7c0.9,0,1.7-0.8,1.7-1.7
					C92,708,91.3,707.3,90.3,707.3 M90.3,712.5c-1.9,0-3.5-1.6-3.5-3.5c0-1.9,1.6-3.5,3.5-3.5c1.9,0,3.5,1.6,3.5,3.5
					C93.8,710.9,92.2,712.5,90.3,712.5 M90.3,705.2c-2.1,0-3.8,1.7-3.8,3.8c0,2.1,1.7,3.8,3.8,3.8c2.1,0,3.8-1.7,3.8-3.8
					C94.1,706.9,92.4,705.2,90.3,705.2"/>
			</g>
			<g>
				<path class="st6" d="M91,702c-0.4,0.4-1.1,0.4-1.5,0c0,0,0,0,0,0l-2.7-2.7c-0.4-0.4-0.4-1.1,0-1.5c0.4-0.4,1.1-0.4,1.5,0l2,2
					l2-2c0.4-0.4,1.1-0.4,1.5,0s0.4,1.1,0,1.5L91,702z"/>
			</g>
			<g>
				<path class="st6" d="M90.3,702.2c-0.2,0-0.5-0.1-0.6-0.3l-2.7-2.7c-0.2-0.2-0.3-0.4-0.3-0.6c0-0.2,0.1-0.5,0.3-0.6
					c0.2-0.2,0.4-0.3,0.6-0.3h0c0.2,0,0.5,0.1,0.6,0.3l2,2c0.1,0.1,0.2,0.1,0.2,0l2-2c0.4-0.3,0.9-0.3,1.3,0c0.3,0.4,0.3,0.9,0,1.3
					l-2.7,2.7C90.8,702.1,90.5,702.2,90.3,702.2 M87.6,697.4c-0.3,0-0.6,0.1-0.8,0.4c-0.2,0.2-0.4,0.5-0.4,0.8
					c0,0.3,0.1,0.6,0.4,0.8l2.7,2.7c0.5,0.5,1.2,0.5,1.7,0l2.7-2.7c0.5-0.5,0.5-1.2,0-1.7c-0.5-0.5-1.2-0.5-1.7,0l-1.9,1.9l-1.9-1.9
					C88.2,697.5,87.9,697.4,87.6,697.4L87.6,697.4z"/>
			</g>
			<g>
				<path class="st6" d="M117,704.6c-0.7,0-1.3-0.2-1.8-0.6c0,0.4-0.4,0.6-0.7,0.6c-0.3,0-0.6-0.3-0.6-0.7v-4.8
					c0-0.4,0.3-0.7,0.7-0.7s0.7,0.3,0.7,0.7v2.3c0,1,0.8,1.8,1.8,1.8c1,0,1.8-0.8,1.8-1.8v-2.3c0-0.4,0.3-0.7,0.7-0.7
					c0.4,0,0.7,0.3,0.7,0.7v2.3C120.2,703.2,118.8,704.6,117,704.6"/>
			</g>
			<g>
				<path class="st6" d="M117,703.4c1.1,0,2-0.9,2-2v-2.3c0-0.3,0.2-0.5,0.5-0.5c0.3,0,0.5,0.2,0.5,0.5v2.3c0,1.6-1.3,3-3,3
					c-0.6,0-1.2-0.2-1.7-0.6c-0.1,0-0.2,0-0.2,0c0,0,0,0,0,0.1c0,0.3-0.2,0.5-0.5,0.5c-0.3,0-0.5-0.2-0.5-0.5v-4.8
					c0-0.3,0.2-0.5,0.5-0.5c0.3,0,0.5,0.2,0.5,0.5v2.3C115.1,702.6,116,703.4,117,703.4 M119.5,698.3c-0.4,0-0.8,0.4-0.8,0.8v2.3
					c0,0.9-0.7,1.7-1.7,1.7c-0.9,0-1.7-0.7-1.7-1.7v-2.3c0-0.4-0.4-0.8-0.8-0.8c-0.4,0-0.8,0.4-0.8,0.8v4.8c0,0.4,0.4,0.8,0.8,0.8
					c0.3,0,0.6-0.2,0.7-0.5c0.5,0.3,1.1,0.5,1.7,0.5c1.8,0,3.3-1.5,3.3-3.3v-2.3C120.3,698.7,120,698.3,119.5,698.3"/>
			</g>
			<g>
				<path class="st6" d="M109.7,699.7c-1,0-1.8,0.8-1.8,1.8c0,1,0.8,1.8,1.8,1.8c1,0,1.8-0.8,1.8-1.8
					C111.5,700.5,110.7,699.7,109.7,699.7 M112.2,704.6c-0.3,0-0.6-0.3-0.7-0.6c-0.5,0.4-1.2,0.6-1.8,0.6c-1.7,0-3.1-1.4-3.1-3.1
					c0-1.7,1.4-3.1,3.1-3.1c0.7,0,1.3,0.2,1.9,0.6c0.1-0.3,0.5-0.5,0.8-0.4c0.3,0.1,0.5,0.3,0.5,0.6v4.8
					C112.8,704.3,112.5,704.6,112.2,704.6"/>
			</g>
			<g>
				<path class="st6" d="M109.7,703.1c-0.9,0-1.7-0.7-1.7-1.7c0-0.9,0.7-1.7,1.7-1.7c0.9,0,1.7,0.7,1.7,1.7
					C111.4,702.4,110.6,703.1,109.7,703.1 M109.7,699.5c-1.1,0-2,0.9-2,2c0,1.1,0.9,2,2,2c1.1,0,2-0.9,2-2
					C111.7,700.4,110.8,699.5,109.7,699.5 M109.7,704.5c-1.6,0-3-1.3-3-3c0-1.6,1.3-3,3-3c0.6,0,1.2,0.2,1.8,0.6c0.1,0,0.2,0,0.2,0
					c0,0,0,0,0,0c0.1-0.2,0.3-0.4,0.5-0.4c0.3,0,0.5,0.2,0.5,0.5v4.8c0,0.3-0.2,0.5-0.5,0.5c-0.3,0-0.5-0.2-0.5-0.5
					c0-0.1-0.1-0.1-0.2-0.1c0,0,0,0-0.1,0C110.9,704.3,110.3,704.5,109.7,704.5 M109.7,698.2c-1.8,0-3.3,1.5-3.3,3.3
					s1.5,3.3,3.3,3.3c0.6,0,1.2-0.2,1.7-0.5c0.2,0.4,0.7,0.6,1.1,0.4c0.3-0.1,0.5-0.4,0.5-0.7v-4.8c0-0.4-0.4-0.8-0.8-0.8
					c-0.3,0-0.5,0.1-0.7,0.4C111,698.4,110.3,698.2,109.7,698.2"/>
			</g>
		</g>
		<g>
			
				<linearGradient id="SVGID_5_" gradientUnits="userSpaceOnUse" x1="5.1507" y1="251.1115" x2="5.5073" y2="251.1115" gradientTransform="matrix(0 -47.2811 47.2811 0 -11811.9746 364.1999)">
				<stop  offset="0" style="stop-color:#FFFFFF"/>
				<stop  offset="1" style="stop-color:#AF964E"/>
			</linearGradient>
			<path class="st21" d="M32.1,177.1c0.7,2.4,2.8,4,5.3,4.1h46.9c2.5,0,4.6-1.7,5.3-4.1H32.1z"/>
		</g>
		<g>
			
				<linearGradient id="SVGID_6_" gradientUnits="userSpaceOnUse" x1="5.1507" y1="251.1115" x2="5.5074" y2="251.1115" gradientTransform="matrix(0 -47.2808 47.2808 0 -11811.8955 364.1995)">
				<stop  offset="0" style="stop-color:#FFFFFF"/>
				<stop  offset="1" style="stop-color:#AF964E"/>
			</linearGradient>
			<path class="st22" d="M57,183.8L42.7,198c-2.2,2.2-2.2,5.6,0,7.8c0,0,0,0,0,0c1,1,2.4,1.6,3.9,1.6c1.4,0,2.8-0.5,3.9-1.6
				l10.3-10.3l10.3,10.3c2.2,2.2,5.6,2.2,7.8,0c2.2-2.1,2.2-5.6,0-7.8c0,0,0,0,0,0l-14.2-14.2C62.6,181.6,59.1,181.6,57,183.8"/>
		</g>
		<g>
			
				<linearGradient id="SVGID_7_" gradientUnits="userSpaceOnUse" x1="5.1506" y1="250.9452" x2="5.5072" y2="250.9452" gradientTransform="matrix(2.895134e-15 -47.2811 47.2811 2.895134e-15 -11761.71 364.1944)">
				<stop  offset="0" style="stop-color:#FFFFFF"/>
				<stop  offset="1" style="stop-color:#AF964E"/>
			</linearGradient>
			<path class="st23" d="M99.7,181.2V199c0,1.9,1.6,3.5,3.5,3.5s3.5-1.6,3.5-3.5v-16.6c0-0.4,0.1-0.8,0.1-1.2H99.7z"/>
		</g>
		<g>
			
				<linearGradient id="SVGID_8_" gradientUnits="userSpaceOnUse" x1="5.1507" y1="250.8772" x2="5.5073" y2="250.8772" gradientTransform="matrix(2.895134e-15 -47.2811 47.2811 2.895134e-15 -11741.167 364.1999)">
				<stop  offset="0" style="stop-color:#FFFFFF"/>
				<stop  offset="1" style="stop-color:#AF964E"/>
			</linearGradient>
			<path class="st24" d="M117,181.2c0.1,0.4,0.1,0.8,0.1,1.2V199c0,1.9,1.6,3.5,3.5,3.5c1.9,0,3.5-1.6,3.5-3.5v-16.6
				c0-0.4,0.1-0.8,0.1-1.2H117z"/>
		</g>
		<g>
			
				<linearGradient id="SVGID_9_" gradientUnits="userSpaceOnUse" x1="5.1507" y1="250.8092" x2="5.5073" y2="250.8092" gradientTransform="matrix(2.895134e-15 -47.2811 47.2811 2.895134e-15 -11720.6191 364.1995)">
				<stop  offset="0" style="stop-color:#FFFFFF"/>
				<stop  offset="1" style="stop-color:#AF964E"/>
			</linearGradient>
			<path class="st25" d="M134.4,181.2c0.1,0.4,0.1,0.8,0.1,1.2V199c0.1,1.9,1.7,3.4,3.6,3.4c1.8-0.1,3.3-1.5,3.4-3.4v-16.6
				c0-0.4,0-0.8-0.1-1.2H134.4z"/>
		</g>
		<g>
			
				<linearGradient id="SVGID_10_" gradientUnits="userSpaceOnUse" x1="5.1507" y1="250.5119" x2="5.5073" y2="250.5119" gradientTransform="matrix(2.895134e-15 -47.2811 47.2811 2.895134e-15 -11630.7744 364.1999)">
				<stop  offset="0" style="stop-color:#FFFFFF"/>
				<stop  offset="1" style="stop-color:#AF964E"/>
			</linearGradient>
			<path class="st26" d="M209.3,181.2c1.1,1.6,1.8,3.5,1.8,5.5V199c0,1.9,1.6,3.5,3.5,3.5s3.5-1.6,3.5-3.5v-12.3
				c0-1.9-0.3-3.7-1-5.5H209.3z"/>
		</g>
		<g>
			
				<linearGradient id="SVGID_11_" gradientUnits="userSpaceOnUse" x1="5.1507" y1="250.6073" x2="5.5073" y2="250.6073" gradientTransform="matrix(2.895134e-15 -47.2811 47.2811 2.895134e-15 -11659.6064 364.1995)">
				<stop  offset="0" style="stop-color:#FFFFFF"/>
				<stop  offset="1" style="stop-color:#AF964E"/>
			</linearGradient>
			<path class="st27" d="M185,181.2V199c0,1.9,1.6,3.5,3.5,3.5c1.9,0,3.5-1.6,3.5-3.5v-12.3c0-2.1,0.7-4,1.8-5.5H185z"/>
		</g>
		<g>
			
				<linearGradient id="SVGID_12_" gradientUnits="userSpaceOnUse" x1="5.1506" y1="250.7111" x2="5.5073" y2="250.7111" gradientTransform="matrix(2.895118e-15 -47.2809 47.2809 2.895118e-15 -11690.9053 364.1941)">
				<stop  offset="0" style="stop-color:#FFFFFF"/>
				<stop  offset="1" style="stop-color:#AF964E"/>
			</linearGradient>
			<path class="st28" d="M170.7,181.2c1.1,1.6,1.8,3.5,1.8,5.5c0,5.3-4.3,9.6-9.6,9.6c-5.3,0-9.6-4.3-9.6-9.6c0-2.1,0.7-4,1.8-5.5
				h-7.8c-0.6,1.8-1,3.6-1,5.5c0,9.1,7.4,16.5,16.5,16.5c3.6,0,7-1.2,9.7-3.2c0.6,1.8,2.6,2.8,4.4,2.2c1.4-0.5,2.4-1.8,2.4-3.3
				v-17.8L170.7,181.2z"/>
		</g>
		<g transform="matrix(5.26333 0 0 -5.26333 -414.454 3878.772)">
			<g>
				<path class="st6" d="M103.3,703.3c0.6,0,1-0.5,1-1v-3.2c0-0.3,0.3-0.6,0.6-0.6c0.3,0,0.6,0.3,0.6,0.6v3.2c0,1.2-1,2.3-2.3,2.3
					c-0.6,0-1.2-0.2-1.6-0.7c0,0,0,0,0,0c0,0,0,0,0,0c-0.4,0.4-1,0.7-1.6,0.7c-0.4,0-0.8-0.1-1.1-0.3c0,0-0.1,0-0.1,0
					c-0.2,0.3-0.6,0.3-0.8,0.1c-0.2-0.1-0.3-0.3-0.3-0.5v-4.8c0-0.3,0.3-0.6,0.6-0.6c0.3,0,0.6,0.3,0.6,0.6v3.2c0,0.6,0.5,1,1,1
					c0.6,0,1-0.5,1-1v-3.2c0-0.3,0.3-0.6,0.6-0.6c0.3,0,0.6,0.3,0.6,0.6v3.2C102.3,702.9,102.7,703.3,103.3,703.3 M105,698.4
					c-0.4,0-0.7,0.3-0.7,0.7v3.2c0,0.5-0.4,0.9-0.9,0.9c-0.5,0-0.9-0.4-0.9-0.9v-3.2c0-0.4-0.3-0.7-0.7-0.7c-0.4,0-0.7,0.3-0.7,0.7
					v3.2c0,0.5-0.4,0.9-0.9,0.9c-0.5,0-0.9-0.4-0.9-0.9v-3.2c0-0.4-0.3-0.7-0.7-0.7c-0.4,0-0.7,0.3-0.7,0.7v4.8
					c0,0.4,0.3,0.7,0.7,0.7c0.2,0,0.4-0.1,0.6-0.3c0.3,0.2,0.7,0.3,1.1,0.3c0.6,0,1.2-0.2,1.7-0.7c0.4,0.4,1,0.7,1.7,0.7
					c1.3,0,2.4-1.1,2.4-2.4v-3.2C105.7,698.7,105.4,698.4,105,698.4"/>
			</g>
			<g>
				<path class="st6" d="M85.9,704.6c-0.5,0-1-0.4-1-1c0-0.5,0.4-1,1-1h8.9c0.5,0,1,0.4,1,1c0,0.5-0.4,1-1,1H85.9z M94.8,702.5h-8.9
					c-0.6,0-1.1,0.5-1.1,1.1c0,0.6,0.5,1.1,1.1,1.1h8.9c0.6,0,1.1-0.5,1.1-1.1C95.9,703,95.4,702.5,94.8,702.5"/>
			</g>
			<g>
				<path class="st6" d="M90.3,710.5c-0.8,0-1.5-0.7-1.5-1.5c0-0.8,0.7-1.5,1.5-1.5c0.8,0,1.5,0.7,1.5,1.5
					C91.8,709.8,91.1,710.5,90.3,710.5 M90.3,707.3c-0.9,0-1.6,0.7-1.6,1.6c0,0.9,0.7,1.6,1.6,1.6c0.9,0,1.6-0.7,1.6-1.6
					C91.9,708.1,91.2,707.3,90.3,707.3 M90.3,712.6c-2,0-3.6-1.6-3.6-3.6c0-2,1.6-3.6,3.6-3.6c2,0,3.6,1.6,3.6,3.6
					C93.9,711,92.3,712.6,90.3,712.6 M90.3,705.3c-2,0-3.7,1.7-3.7,3.7c0,2,1.7,3.7,3.7,3.7c2,0,3.7-1.7,3.7-3.7
					C94,706.9,92.4,705.3,90.3,705.3"/>
			</g>
			<g>
				<path class="st6" d="M90.3,702.3c-0.3,0-0.5-0.1-0.7-0.3l-2.7-2.7c-0.2-0.2-0.3-0.4-0.3-0.7c0-0.3,0.1-0.5,0.3-0.7
					c0.2-0.2,0.4-0.3,0.7-0.3c0.3,0,0.5,0.1,0.7,0.3l2,2c0,0,0.1,0,0.1,0l2-2c0.4-0.4,1-0.4,1.4,0c0.4,0.4,0.4,1,0,1.4L91,702
					C90.8,702.2,90.6,702.3,90.3,702.3 M87.6,697.5c-0.3,0-0.6,0.1-0.8,0.3c-0.2,0.2-0.3,0.5-0.3,0.8c0,0.3,0.1,0.6,0.3,0.8l2.7,2.7
					c0.4,0.4,1.1,0.4,1.6,0l2.7-2.7c0.2-0.2,0.3-0.5,0.3-0.8c0-0.6-0.5-1.1-1.1-1.1c-0.3,0-0.6,0.1-0.8,0.3l-1.9,1.9l-1.9-1.9
					C88.2,697.6,87.9,697.5,87.6,697.5"/>
			</g>
			<g>
				<path class="st6" d="M117,703.3c1,0,1.9-0.8,1.9-1.9v-2.3c0-0.3,0.3-0.6,0.6-0.6c0.3,0,0.6,0.3,0.6,0.6v2.3
					c0,1.7-1.4,3.1-3.1,3.1c-0.6,0-1.3-0.2-1.8-0.6c0,0,0,0-0.1,0c0,0,0,0,0,0c0,0.3-0.3,0.6-0.7,0.5c-0.3,0-0.5-0.3-0.5-0.6v-4.8
					c0-0.3,0.3-0.6,0.6-0.6c0.3,0,0.6,0.3,0.6,0.6v2.3C115.2,702.5,116,703.3,117,703.3 M119.5,698.4c-0.4,0-0.7,0.3-0.7,0.7v2.3
					c0,1-0.8,1.8-1.8,1.8c-1,0-1.8-0.8-1.8-1.8v-2.3c0-0.4-0.3-0.7-0.7-0.7c-0.4,0-0.7,0.3-0.7,0.7v4.8c0,0.4,0.3,0.7,0.7,0.7
					c0.3,0,0.6-0.2,0.7-0.5c0.5,0.4,1.1,0.5,1.8,0.5c1.8,0,3.2-1.4,3.2-3.2v-2.3C120.2,698.7,119.9,698.4,119.5,698.4"/>
			</g>
			<g>
				<path class="st6" d="M109.7,703.2c-1,0-1.8-0.8-1.8-1.8c0-1,0.8-1.8,1.8-1.8c1,0,1.8,0.8,1.8,1.8
					C111.5,702.4,110.7,703.2,109.7,703.2 M109.7,699.6c-1,0-1.9,0.8-1.9,1.9c0,1,0.8,1.9,1.9,1.9c1,0,1.9-0.8,1.9-1.9
					C111.6,700.4,110.7,699.6,109.7,699.6 M109.7,704.6c-1.7,0-3.1-1.4-3.1-3.1s1.4-3.1,3.1-3.1c0.7,0,1.3,0.2,1.8,0.6
					c0,0,0,0,0.1,0c0,0,0,0,0,0c0.1-0.2,0.3-0.4,0.6-0.4c0.3,0,0.6,0.3,0.6,0.6v4.8c0,0.3-0.3,0.6-0.6,0.6c-0.3,0-0.6-0.2-0.6-0.5
					c0,0,0,0,0,0c0,0,0,0-0.1,0C111,704.4,110.3,704.6,109.7,704.6 M109.7,698.3c-1.8,0-3.2,1.4-3.2,3.2s1.4,3.2,3.2,3.2
					c0.6,0,1.3-0.2,1.8-0.5c0.1,0.3,0.4,0.5,0.7,0.5c0.4,0,0.7-0.3,0.7-0.7v-4.8c0-0.4-0.3-0.7-0.7-0.7c-0.3,0-0.5,0.2-0.7,0.4
					C111,698.5,110.4,698.3,109.7,698.3"/>
			</g>
			<g>
				<path class="st1" d="M91.4,691.6C91.4,691.6,91.3,691.6,91.4,691.6C91.3,691.6,91.3,691.6,91.4,691.6l-0.7,1.8c0,0,0,0,0,0.1
					c0,0,0,0,0.1,0H91c0,0,0,0,0,0c0,0,0,0,0,0l0.5-1.3l0.5,1.3c0,0,0,0,0,0c0,0,0,0,0,0h0.3c0,0,0,0,0.1,0c0,0,0,0,0-0.1l-0.7-1.7
					c0,0,0,0,0,0c0,0,0,0,0,0H91.4z"/>
			</g>
			<g>
				<path class="st1" d="M93.5,691.9c0.1,0,0.2,0,0.3,0c0.1,0,0.1,0.1,0.2,0.1c0.1,0.1,0.1,0.1,0.1,0.2c0,0.1,0,0.2,0,0.2
					c0,0.1,0,0.2,0,0.2c0,0.1-0.1,0.1-0.1,0.2c-0.1,0.1-0.1,0.1-0.2,0.1c-0.1,0-0.2,0-0.3,0c-0.1,0-0.2,0-0.3,0
					c-0.1,0-0.1-0.1-0.2-0.1c-0.1-0.1-0.1-0.1-0.1-0.2c0-0.1,0-0.2,0-0.2c0-0.1,0-0.2,0-0.2c0-0.1,0.1-0.1,0.1-0.2
					c0.1-0.1,0.1-0.1,0.2-0.1C93.3,691.9,93.4,691.9,93.5,691.9 M93.5,693.5c0.2,0,0.3,0,0.4-0.1c0.1,0,0.2-0.1,0.3-0.2
					c0.1-0.1,0.2-0.2,0.2-0.3c0.1-0.1,0.1-0.3,0.1-0.4c0-0.1,0-0.3-0.1-0.4c0-0.1-0.1-0.2-0.2-0.3c-0.1-0.1-0.2-0.2-0.3-0.2
					c-0.1,0-0.3-0.1-0.4-0.1c-0.2,0-0.3,0-0.4,0.1c-0.1,0-0.2,0.1-0.3,0.2c-0.1,0.1-0.2,0.2-0.2,0.3c-0.1,0.1-0.1,0.3-0.1,0.4
					c0,0.1,0,0.3,0.1,0.4c0.1,0.1,0.1,0.2,0.2,0.3c0.1,0.1,0.2,0.2,0.3,0.2C93.2,693.5,93.4,693.5,93.5,693.5"/>
			</g>
			<g>
				<path class="st1" d="M94.9,693.4C94.9,693.4,94.9,693.5,94.9,693.4l0.3,0.1c0,0,0.1,0,0.1-0.1V692h0.8c0,0,0.1,0,0.1-0.1v-0.2
					c0,0,0-0.1-0.1-0.1H95c0,0-0.1,0-0.1,0c0,0,0,0.1,0,0.1V693.4z"/>
			</g>
			<g>
				<path class="st1" d="M96.4,693.4C96.4,693.4,96.4,693.5,96.4,693.4l0.3,0.1c0,0,0.1,0,0.1-0.1V692h0.8c0,0,0.1,0,0.1-0.1v-0.2
					c0,0,0-0.1-0.1-0.1h-1.1c0,0-0.1,0-0.1,0c0,0,0,0.1,0,0.1V693.4z"/>
			</g>
			<g>
				<path class="st1" d="M99.1,693.5C99.2,693.5,99.2,693.4,99.1,693.5l0.1-0.3c0,0,0-0.1-0.1-0.1h-0.9v-0.4h0.8c0,0,0.1,0,0.1-0.1
					v-0.2c0,0,0-0.1-0.1-0.1h-0.8V692h0.9c0,0,0.1,0,0.1-0.1v-0.2c0,0,0-0.1-0.1-0.1H98c0,0-0.1,0-0.1,0c0,0,0,0.1,0,0.1v1.6
					c0,0,0,0.1,0,0.1c0,0,0,0,0.1,0H99.1z"/>
			</g>
			<g>
				<path class="st1" d="M100.4,692.3v-0.6c0,0,0-0.1,0-0.1c0,0,0,0-0.1,0h-0.2c0,0-0.1,0-0.1,0c0,0,0,0,0,0.1v0.6l-0.6,1
					c0,0,0,0,0,0.1c0,0,0,0,0.1,0h0.3c0,0,0,0,0,0c0,0,0,0,0,0l0.4-0.7l0.4,0.7c0,0,0,0,0,0c0,0,0,0,0,0h0.3c0,0,0,0,0.1,0
					c0,0,0,0,0-0.1L100.4,692.3z"/>
			</g>
			<g>
				<path class="st1" d="M102.3,692c0.1,0,0.2,0,0.2,0c0,0,0.1,0.1,0.1,0.2c0,0.1,0,0.1-0.1,0.2c0,0-0.1,0-0.2,0h-0.5V692H102.3z
					 M102.5,692.9c0,0.1-0.1,0.2-0.2,0.2h-0.5v-0.4h0.5C102.4,692.7,102.5,692.8,102.5,692.9 M101.4,691.6
					C101.4,691.6,101.4,691.6,101.4,691.6c-0.1,0-0.1,0.1-0.1,0.1v1.6c0,0,0,0.1,0,0.1c0,0,0,0,0.1,0h0.8c0.2,0,0.3,0,0.4-0.1
					c0.1-0.1,0.2-0.2,0.2-0.4c0-0.1,0-0.2-0.1-0.2c0-0.1-0.1-0.1-0.2-0.2c0.1,0,0.2-0.1,0.2-0.2c0.1-0.1,0.1-0.2,0.1-0.3
					c0-0.2-0.1-0.3-0.2-0.4c-0.1-0.1-0.3-0.1-0.5-0.1H101.4z"/>
			</g>
			<g>
				<path class="st1" d="M103.7,692.3h0.5l-0.2,0.6L103.7,692.3z M104.1,693.5C104.1,693.5,104.1,693.5,104.1,693.5
					C104.1,693.4,104.2,693.4,104.1,693.5l0.7-1.8c0,0,0,0,0-0.1c0,0,0,0-0.1,0h-0.3c0,0,0,0,0,0c0,0,0,0,0,0l-0.1,0.3h-0.7
					l-0.1-0.3c0,0,0,0,0,0c0,0,0,0,0,0h-0.3c0,0,0,0-0.1,0c0,0,0,0,0,0.1l0.7,1.7c0,0,0,0,0,0c0,0,0,0,0,0H104.1z"/>
			</g>
			<g>
				<path class="st1" d="M105.1,693.4C105.1,693.4,105.1,693.5,105.1,693.4l0.3,0.1c0,0,0.1,0,0.1-0.1V692h0.8c0,0,0.1,0,0.1-0.1
					v-0.2c0,0,0-0.1-0.1-0.1h-1.1c0,0-0.1,0-0.1,0c0,0,0,0.1,0,0.1V693.4z"/>
			</g>
			<g>
				<path class="st1" d="M106.6,693.4C106.6,693.4,106.6,693.5,106.6,693.4l0.3,0.1c0,0,0.1,0,0.1-0.1V692h0.8c0,0,0.1,0,0.1-0.1
					v-0.2c0,0,0-0.1-0.1-0.1h-1.1c0,0-0.1,0-0.1,0c0,0,0,0.1,0,0.1V693.4z"/>
			</g>
			<g>
				<path class="st1" d="M108.8,692.5c0,0.1,0,0.3,0.1,0.4c0.1,0.1,0.1,0.2,0.2,0.3c0.1,0.1,0.2,0.1,0.3,0.2c0.1,0,0.2,0.1,0.4,0.1
					c0.1,0,0.1,0,0.2,0c0.1,0,0.1,0,0.2,0c0.1,0,0.1,0,0.2-0.1c0.1,0,0.1-0.1,0.1-0.1c0,0,0,0,0,0c0,0,0,0,0,0l-0.1-0.2c0,0,0,0,0,0
					c0,0,0,0-0.1,0c-0.1,0-0.1,0.1-0.2,0.1c-0.1,0-0.2,0-0.3,0c-0.1,0-0.1,0-0.2,0c-0.1-0.1-0.3-0.2-0.3-0.3c0-0.1-0.1-0.2-0.1-0.3
					c0-0.1,0-0.2,0-0.3c0-0.1,0.1-0.1,0.1-0.2c0.1-0.1,0.1-0.1,0.2-0.1c0.1,0,0.1,0,0.2,0c0.1,0,0.2,0,0.3,0c0.1,0,0.2,0.1,0.2,0.1
					c0,0,0,0,0.1,0c0,0,0,0,0,0l0.1-0.2c0,0,0-0.1,0-0.1c-0.1-0.1-0.2-0.1-0.3-0.2c-0.1,0-0.3-0.1-0.4-0.1c-0.1,0-0.3,0-0.4,0.1
					c-0.1,0-0.2,0.1-0.3,0.2c-0.1,0.1-0.2,0.2-0.2,0.3C108.8,692.2,108.8,692.4,108.8,692.5"/>
			</g>
			<g>
				<path class="st1" d="M110.7,693.4C110.7,693.4,110.7,693.5,110.7,693.4l0.3,0.1c0,0,0.1,0,0.1-0.1V692h0.8c0,0,0.1,0,0.1-0.1
					v-0.2c0,0,0-0.1-0.1-0.1h-1.1c0,0-0.1,0-0.1,0c0,0,0,0.1,0,0.1V693.4z"/>
			</g>
			<g>
				<path class="st1" d="M113.7,692.3c0-0.1,0-0.2-0.1-0.3c0-0.1-0.1-0.2-0.2-0.2c-0.1-0.1-0.2-0.1-0.2-0.1c-0.1,0-0.2,0-0.3,0
					c-0.1,0-0.2,0-0.3,0c-0.1,0-0.2,0.1-0.2,0.1c-0.1,0.1-0.1,0.1-0.2,0.2c0,0.1-0.1,0.2-0.1,0.3v1.1c0,0,0,0.1,0.1,0.1h0.3
					c0,0,0.1,0,0.1-0.1v-1.1c0-0.1,0-0.1,0-0.2c0,0,0-0.1,0.1-0.1c0,0,0.1-0.1,0.1-0.1c0,0,0.1,0,0.1,0s0.1,0,0.2,0
					c0,0,0.1,0,0.1,0.1c0,0,0.1,0.1,0.1,0.1c0,0.1,0,0.1,0,0.2v1.1c0,0,0,0.1,0.1,0.1h0.3c0,0,0.1,0,0.1-0.1V692.3z"/>
			</g>
			<g>
				<path class="st1" d="M115.1,692c0.1,0,0.2,0,0.2,0c0,0,0.1,0.1,0.1,0.2c0,0.1,0,0.1-0.1,0.2c0,0-0.1,0-0.2,0h-0.5V692H115.1z
					 M115.3,692.9c0,0.1-0.1,0.2-0.2,0.2h-0.5v-0.4h0.5C115.2,692.7,115.3,692.8,115.3,692.9 M114.2,691.6
					C114.2,691.6,114.2,691.6,114.2,691.6c-0.1,0-0.1,0.1-0.1,0.1v1.6c0,0,0,0.1,0,0.1c0,0,0,0,0.1,0h0.8c0.2,0,0.3,0,0.4-0.1
					c0.1-0.1,0.2-0.2,0.2-0.4c0-0.1,0-0.2-0.1-0.2c0-0.1-0.1-0.1-0.2-0.2c0.1,0,0.2-0.1,0.2-0.2c0.1-0.1,0.1-0.2,0.1-0.3
					c0-0.2-0.1-0.3-0.2-0.4c-0.1-0.1-0.3-0.1-0.5-0.1H114.2z"/>
			</g>
		</g>
	</g>
</g>
<g id="_1">
	<rect x="8" y="8" class="st29" width="234" height="234"/>
</g>
</svg>
