<?xml version="1.0" encoding="utf-8"?>
<!-- Generator: Adobe Illustrator 25.1.0, SVG Export Plug-In . SVG Version: 6.00 Build 0)  -->
<svg version="1.1" id="Layer_1" xmlns="http://www.w3.org/2000/svg" xmlns:xlink="http://www.w3.org/1999/xlink" x="0px" y="0px"
	 viewBox="0 0 250 250" style="enable-background:new 0 0 250 250;" xml:space="preserve">
<style type="text/css">
	.st0{fill:#231916;}
	.st1{fill:#D8002A;}
	.st2{fill:none;}
</style>
<g id="Layer_1_1_">
	<g transform="matrix(3.13606 0 0 -3.13606 -1269.772 1091.995)">
		<path class="st0" d="M433,335.5c0-0.2,0-0.2-0.1-0.2c0-0.1-0.1-0.1-0.2-0.1s-0.3,0-0.5,0.1v-0.5c0,0,0.1,0,0.2,0s0.1,0,0.2,0h0.1
			c0.1,0,0.1,0,0.2,0c0.3,0,0.5,0.1,0.6,0.2c0.2,0.2,0.2,0.3,0.2,0.5v1.6H433L433,335.5L433,335.5z"/>
		<path class="st0" d="M435,335.3c0-0.1,0-0.2-0.1-0.2c-0.1,0-0.2-0.1-0.2-0.1s-0.2,0-0.2,0.1c-0.1,0-0.1,0.1-0.1,0.2v1.6h-0.5v-1.6
			c0-0.2,0.1-0.4,0.2-0.5c0.2-0.2,0.4-0.2,0.7-0.2s0.5,0.1,0.7,0.2s0.2,0.3,0.2,0.5v1.6h-0.5v-1.6H435z"/>
		<path class="st0" d="M439.3,335.1c-0.1,0-0.2,0-0.3,0c-0.2,0-0.3,0.1-0.3,0.3v0.8c0,0.1,0,0.2,0.1,0.2c0.1,0.1,0.2,0.1,0.2,0.1
			c0.2,0,0.4,0,0.7-0.1v0.5c-0.2,0.1-0.5,0.1-0.7,0.1c-0.3,0-0.5-0.1-0.6-0.2c-0.2-0.2-0.2-0.3-0.2-0.5v-0.9c0-0.2,0.1-0.4,0.2-0.5
			c0.2-0.2,0.4-0.2,0.6-0.2c0.3,0,0.5,0,0.8,0.1v1.1h-0.5V335.1z"/>
		<path class="st0" d="M437.2,335.7l-0.7,1.2H436v-2.3h0.5v1.2l0.7-1.2h0.5v2.3h-0.5V335.7z"/>
		<path class="st0" d="M450.8,335.5c0-0.2,0-0.2-0.1-0.2c0-0.1-0.1-0.1-0.2-0.1s-0.3,0-0.5,0.1v-0.5c0,0,0.1,0,0.2,0s0.1,0,0.2,0
			h0.1c0.1,0,0.1,0,0.2,0c0.3,0,0.5,0.1,0.6,0.2c0.2,0.2,0.2,0.3,0.2,0.5v1.6h-0.5L450.8,335.5L450.8,335.5z"/>
		<path class="st0" d="M456.8,335.8v-0.7c-0.1,0-0.2,0-0.3,0c-0.2,0-0.3,0.1-0.3,0.3v0.8c0,0.1,0,0.2,0.1,0.2
			c0.1,0.1,0.2,0.1,0.2,0.1c0.2,0,0.4,0,0.7-0.1v0.5c-0.2,0.1-0.5,0.1-0.7,0.1c-0.3,0-0.5-0.1-0.6-0.2c-0.2-0.2-0.2-0.3-0.2-0.5
			v-0.9c0-0.2,0.1-0.4,0.2-0.5c0.2-0.2,0.4-0.2,0.6-0.2c0.3,0,0.5,0,0.8,0.1v1.1L456.8,335.8L456.8,335.8z"/>
		<path class="st0" d="M454.8,335.7l-0.7,1.2h-0.5v-2.3h0.5v1.2l0.7-1.2h0.5v2.3h-0.5V335.7z"/>
		<path class="st0" d="M452.2,335.6l0.2,0.8l0.2-0.8H452.2z M452.2,336.9l-0.7-2.3h0.5l0.1,0.4h0.6l0.1-0.4h0.5l-0.7,2.3H452.2z"/>
		<path class="st0" d="M442.5,336.9h-0.6l-0.5-1.2l0.5-1.2h0.7l-0.6,1.2L442.5,336.9z"/>
		<path class="st0" d="M440.7,334.6h0.5v2.3h-0.5V334.6z"/>
		<path class="st0" d="M448.7,335.7l-0.7,1.2h-0.5v-2.3h0.5v1.2l0.7-1.2h0.5v2.3h-0.5V335.7z"/>
		<path class="st0" d="M446.2,335.6l0.2,0.8l0.2-0.8H446.2z M446.1,336.9l-0.7-2.3h0.5l0.1,0.4h0.6l0.1-0.4h0.5l-0.7,2.3H446.1z"/>
		<path class="st0" d="M445,336.9l-0.4-1.6l-0.4,1.6h-0.6l0.2-0.4l-0.3-1.2l-0.4,1.6h-0.5l0.7-2.3h0.5l0.3,0.9l0.3-0.9h0.5l0.7,2.3
			H445z"/>
		<path class="st0" d="M444.9,331.9h0.7v-2h-0.7V331.9z M445.4,333h-1.8v-6.3h1.3v1.9h0.5c0.8,0,1.5,0.6,1.5,1.5v1.5
			C446.9,332.4,446.2,333,445.4,333"/>
		<path class="st0" d="M448.2,328.6l0.3,2.4l0.3-2.4H448.2z M449.1,326.7h1.3l-1.2,6.3h-1.3l-1.2-6.3h1.3l0.1,0.8h0.8L449.1,326.7z"
			/>
		<path class="st0" d="M457.8,333h-1.2l-0.7-2.6h-0.2v2.6h-1.3v-6.3h1.3v2.6h0.2l0.7-2.6h1.2l-0.8,3.1L457.8,333z"/>
		<path class="st0" d="M437.4,331.9h-0.7V328h0.7V331.9z M437.2,326.7h-1.8v6.3h1.8c0.4,0,0.8-0.2,1-0.5c0.3-0.3,0.5-0.6,0.5-1v-3.4
			C438.6,327.4,438,326.7,437.2,326.7L437.2,326.7"/>
		<path class="st0" d="M435,331.9l-0.2,1.2h-2.5v-6.3h2.5l0.2,1.2h-1.4v1.5h1.1v1.1h-1.1v1.5L435,331.9L435,331.9z"/>
		<path class="st0" d="M429.8,331.9h0.7v-2.1h-0.7V331.9z M430.7,326.7h1.3l-0.6,2.3c0.3,0.3,0.5,0.7,0.5,1.2v1.4
			c0,0.4-0.2,0.8-0.5,1c-0.3,0.3-0.6,0.5-1,0.5h-1.8v-6.3h1.3v1.9h0.3L430.7,326.7z"/>
		<path class="st0" d="M451.9,331.9h0.7v-2.1h-0.7V331.9z M452.8,326.7h1.3l-0.6,2.3c0.3,0.3,0.5,0.7,0.5,1.2v1.4
			c0,0.4-0.2,0.8-0.5,1c-0.3,0.3-0.6,0.5-1,0.5h-1.8v-6.3h1.3v1.9h0.3L452.8,326.7z"/>
		<path class="st0" d="M443.1,331.9l-0.2,1.2h-1.2c-0.8,0-1.5-0.6-1.5-1.5v-1.2c0-0.6,0.5-1.1,1.1-1.1h0.5v-1.5h-1.5l0.2-1.2h1.2
			c0.4,0,0.8,0.2,1,0.5c0.3,0.3,0.5,0.6,0.5,1v1.2c0,0.3-0.1,0.5-0.3,0.8c-0.2,0.2-0.5,0.3-0.8,0.3h-0.5v1.5H443.1z"/>
		<path class="st0" d="M461,331.9l-0.2,1.2h-1.2c-0.4,0-0.8-0.2-1-0.5c-0.3-0.3-0.5-0.6-0.5-1v-1.2c0-0.6,0.5-1.1,1.1-1.1h0.5v-1.5
			h-1.5l0.2-1.2h1.2c0.4,0,0.8,0.2,1,0.5c0.3,0.3,0.5,0.6,0.5,1v1.2c0,0.3-0.1,0.5-0.3,0.8c-0.2,0.2-0.5,0.3-0.8,0.3h-0.5v1.5H461z"
			/>
		<path class="st1" d="M428.6,325.1v-4.8H440c0.5,2.1,2.5,3.8,4.8,3.8c2.3,0,4.3-1.6,4.8-3.8H461v4.8H428.6z"/>
		<path class="st1" d="M448.2,321.7c-0.6,0.8-1.5,1.5-2.6,1.7c-0.2-0.2-0.4-0.4-0.6-0.6C445.7,322.7,447.1,322.5,448.2,321.7"/>
		<path class="st1" d="M443.2,317.8c-0.4,0.6-1.5,2.8-0.4,5.1c-0.5-0.2-0.8-0.5-1.2-0.9c-1-2.1,0.1-4.1,0.4-4.6
			C442.5,317.5,442.9,317.6,443.2,317.8"/>
		<path class="st1" d="M444.7,322.3c-0.2-0.4-0.3-0.8-0.3-1.2c0.8,0,3.2-0.2,4.7-2.2c0,0.1,0,0.2,0,0.2c0,0.5-0.1,0.8-0.2,1.2
			C447.6,322.3,445.2,322.3,444.7,322.3"/>
		<path class="st1" d="M443.6,318c0.5,0.4,0.8,0.8,0.9,1.1c-0.3,0.5-1.3,2.5,0.5,4.3c-0.1,0-0.2,0-0.3,0c-0.5,0-0.9-0.1-1.4-0.2
			C442,320.9,443.2,318.6,443.6,318"/>
		<path class="st1" d="M444.4,320.7c0.1-0.6,0.3-1.2,0.5-1.4c0.5,0,2.8-0.2,3.5-2.7c0.3,0.5,0.5,1,0.7,1.5
			C447.7,320.5,445.2,320.7,444.4,320.7"/>
		<path class="st1" d="M447.6,317.5c-0.2,0.4-0.5,0.7-0.9,0.9c-0.4-0.7-1.7-2.8-4.3-2.9c0.4-0.3,0.9-0.5,1.4-0.6
			C446.1,315.1,447.3,317,447.6,317.5"/>
		<path class="st1" d="M445.2,314.8c1.1,0.2,2.1,0.7,2.8,1.5c-0.1,0.3-0.2,0.5-0.2,0.8C447.4,316.5,446.6,315.3,445.2,314.8"/>
		<path class="st1" d="M440.8,320.8c-0.2-0.5-0.4-1.2-0.4-1.8c0-0.5,0.1-0.9,0.2-1.4c0.3-0.1,0.5-0.2,0.8-0.2
			C441.1,318.1,440.6,319.4,440.8,320.8"/>
		<path class="st1" d="M446.2,318.6c-0.6,0.2-1.2,0.3-1.4,0.3c-0.2-0.4-1.2-1.8-3-1.8c-0.3,0-0.7,0.1-1.1,0.2c0.2-0.5,0.6-0.9,1-1.3
			C444.6,315.8,445.9,317.9,446.2,318.6"/>
		<path class="st1" d="M434.5,312.3h4v-4.4l-4-0.7V312.3z M441.7,300.9l-7.2,1.3l7.2,1.3c0.8,0.2,1.5,0.9,1.6,1.8l0.8,8.8
			c-1.9,0.2-3.5,1.5-4.1,3.4h-11.5v-20.8c0-4.4,2.2-8.4,6-10.7v11.2l4-0.7v-13l6-3.8l-1.2,19.3C443.3,300,442.6,300.7,441.7,300.9"
			/>
		<path class="st0" d="M461,308.6v9h-11.5c-0.6-1.8-2.2-3.1-4.1-3.4l0.8-8.8c0.1-0.9,0.8-1.6,1.6-1.8l7.2-1.3v-9.1l-4-2.5v10.9
			l-3.2-0.6c-0.9-0.2-1.6-0.9-1.6-1.8l-1.2-19.3l9.9,6.2c3.7,2.3,6,6.4,6,10.7v9.4l-9.9,1.8v4.4h4v-2.7L461,308.6z"/>
	</g>
</g>
<g id="레이어_1">
	<rect x="8" y="8" class="st2" width="234" height="234"/>
</g>
<rect x="8" y="34.8" class="st2" width="234" height="180.4"/>
</svg>
