<?xml version="1.0" encoding="utf-8"?>
<!-- Generator: Adobe Illustrator 25.1.0, SVG Export Plug-In . SVG Version: 6.00 Build 0)  -->
<svg version="1.1" xmlns="http://www.w3.org/2000/svg" xmlns:xlink="http://www.w3.org/1999/xlink" x="0px" y="0px"
	 viewBox="0 0 250 250" style="enable-background:new 0 0 250 250;" xml:space="preserve">
<style type="text/css">
	.st0{fill:#231916;}
	.st1{fill:#D8002A;}
	.st2{fill:none;}
</style>
<g id="Layer_1">
	<g transform="matrix(3.13606 0 0 -3.13606 -1269.772 1091.995)">
		<path class="st0" d="M429.4,343.7c0-0.2,0-0.3-0.1-0.3c0-0.1-0.1-0.1-0.3-0.1c-0.2,0-0.4,0-0.6,0.1v-0.6c0,0,0.1,0,0.2,0
			c0.1,0,0.1,0,0.2,0c0,0,0.1,0,0.1,0c0.1,0,0.1,0,0.2,0c0.4,0,0.6,0.1,0.8,0.2c0.2,0.2,0.3,0.4,0.3,0.7v2.1h-0.7V343.7z"/>
		<path class="st0" d="M432.1,343.5c0-0.1,0-0.2-0.1-0.2c-0.1,0-0.2-0.1-0.3-0.1s-0.2,0-0.3,0.1c-0.1,0-0.1,0.1-0.1,0.2v2.1h-0.7
			v-2.1c0-0.2,0.1-0.5,0.3-0.6c0.2-0.2,0.5-0.3,0.9-0.3c0.4,0,0.7,0.1,0.9,0.3c0.2,0.2,0.3,0.4,0.3,0.6v2.1h-0.7V343.5z"/>
		<path class="st0" d="M437.6,343.2c-0.1,0-0.3,0-0.4,0c-0.3,0-0.4,0.1-0.4,0.4v1c0,0.1,0,0.2,0.1,0.3c0.1,0.1,0.2,0.1,0.3,0.1
			c0.2,0,0.5,0,0.9-0.1v0.6c-0.3,0.1-0.6,0.1-0.9,0.1c-0.4,0-0.6-0.1-0.8-0.2c-0.2-0.2-0.3-0.4-0.3-0.7v-1.2c0-0.3,0.1-0.5,0.3-0.7
			c0.2-0.2,0.5-0.2,0.8-0.2c0.4,0,0.7,0,1,0.1v1.4h-0.6V343.2z"/>
		<path class="st0" d="M434.9,344l-0.9,1.6h-0.6v-3h0.7v1.6l0.9-1.6h0.6v3h-0.7V344z"/>
		<path class="st0" d="M452.6,343.7c0-0.2,0-0.3-0.1-0.3c0-0.1-0.1-0.1-0.3-0.1c-0.2,0-0.4,0-0.6,0.1v-0.6c0,0,0.1,0,0.2,0
			c0.1,0,0.1,0,0.2,0c0,0,0.1,0,0.1,0c0.1,0,0.1,0,0.2,0c0.4,0,0.6,0.1,0.8,0.2c0.2,0.2,0.3,0.4,0.3,0.7v2.1h-0.7V343.7z"/>
		<path class="st0" d="M460.5,344.1v-0.9c-0.1,0-0.3,0-0.4,0c-0.3,0-0.4,0.1-0.4,0.4v1c0,0.1,0,0.2,0.1,0.3c0.1,0.1,0.2,0.1,0.3,0.1
			c0.2,0,0.5,0,0.9-0.1v0.6c-0.3,0.1-0.6,0.1-0.9,0.1c-0.4,0-0.6-0.1-0.8-0.2c-0.2-0.2-0.3-0.4-0.3-0.7v-1.2c0-0.3,0.1-0.5,0.3-0.7
			c0.2-0.2,0.5-0.2,0.8-0.2c0.4,0,0.7,0,1,0.1v1.4H460.5z"/>
		<path class="st0" d="M457.8,344l-0.9,1.6h-0.6v-3h0.7v1.6l0.9-1.6h0.6v3h-0.7V344z"/>
		<path class="st0" d="M454.5,343.8l0.2,1l0.2-1H454.5z M454.4,345.6l-0.9-3h0.7l0.1,0.5h0.8l0.1-0.5h0.7l-0.9,3H454.4z"/>
		<path class="st0" d="M441.8,345.6H441l-0.7-1.5l0.7-1.5h0.9l-0.8,1.5L441.8,345.6z"/>
		<path class="st0" d="M439.5,342.6h0.7v3h-0.7V342.6z"/>
		<path class="st0" d="M449.9,344l-0.9,1.6h-0.6v-3h0.7v1.6l0.9-1.6h0.6v3h-0.7V344z"/>
		<path class="st0" d="M446.6,343.8l0.2,1l0.2-1H446.6z M446.5,345.6l-0.9-3h0.7l0.1,0.5h0.8l0.1-0.5h0.7l-0.9,3H446.5z"/>
		<path class="st0" d="M445.1,345.6l-0.5-2.1l-0.5,2.1h-0.8l0.2-0.5l-0.4-1.6l-0.5,2.1H442l0.9-3h0.7l0.4,1.2l0.4-1.2h0.7l0.9,3
			H445.1z"/>
		<path class="st0" d="M444.9,339h0.9v-2.6h-0.9V339z M445.6,340.5h-2.3v-8.2h1.7v2.5h0.7c1,0,1.9,0.8,1.9,1.9v1.9
			C447.5,339.7,446.6,340.5,445.6,340.5"/>
		<path class="st0" d="M449.3,334.7l0.4,3.1l0.4-3.1H449.3z M450.4,332.3h1.7l-1.5,8.2h-1.7l-1.5-8.2h1.7l0.1,1h1.1L450.4,332.3z"/>
		<path class="st0" d="M461.8,340.5h-1.6l-0.9-3.4H459v3.4h-1.7v-8.2h1.7v3.4h0.3l0.9-3.4h1.6l-1,4.1L461.8,340.5z"/>
		<path class="st0" d="M435.2,339h-0.9v-5.1h0.9V339z M434.9,332.3h-2.3v8.2h2.3c0.5,0,1-0.2,1.3-0.6c0.4-0.4,0.6-0.8,0.6-1.3v-4.4
			C436.8,333.2,436,332.3,434.9,332.3C434.9,332.3,434.9,332.3,434.9,332.3"/>
		<path class="st0" d="M432,339l-0.3,1.5h-3.2v-8.2h3.2l0.3,1.5h-1.8v1.9h1.4v1.4h-1.4v1.9H432z"/>
		<path class="st0" d="M425.3,339h0.9v-2.7h-0.9V339z M426.5,332.3h1.7l-0.8,3c0.4,0.4,0.6,0.9,0.6,1.5v1.8c0,0.5-0.2,1-0.6,1.3
			c-0.4,0.4-0.8,0.6-1.3,0.6h-2.3v-8.2h1.7v2.5h0.4L426.5,332.3z"/>
		<path class="st0" d="M454.1,339h0.9v-2.7h-0.9V339z M455.3,332.3h1.7l-0.8,3c0.4,0.4,0.6,0.9,0.6,1.5v1.8c0,0.5-0.2,1-0.6,1.3
			c-0.4,0.4-0.8,0.6-1.3,0.6h-2.3v-8.2h1.7v2.5h0.4L455.3,332.3z"/>
		<path class="st0" d="M442.6,339l-0.3,1.5h-1.5c-1,0-1.9-0.8-1.9-1.9v-1.5c0-0.8,0.6-1.4,1.4-1.4h0.7v-1.9h-2l0.3-1.5h1.5
			c0.5,0,1,0.2,1.3,0.6c0.4,0.4,0.6,0.8,0.6,1.3v1.5c0,0.4-0.1,0.7-0.4,1c-0.3,0.3-0.6,0.4-1,0.4h-0.7v1.9H442.6z"/>
		<path class="st0" d="M465.9,339l-0.3,1.5h-1.5c-0.5,0-1-0.2-1.3-0.6c-0.4-0.4-0.6-0.8-0.6-1.3v-1.5c0-0.8,0.6-1.4,1.4-1.4h0.7
			v-1.9h-2l0.3-1.5h1.5c0.5,0,1,0.2,1.3,0.6c0.4,0.4,0.6,0.8,0.6,1.3v1.5c0,0.4-0.1,0.7-0.4,1c-0.3,0.3-0.6,0.4-1,0.4h-0.7v1.9
			H465.9z"/>
		<path class="st1" d="M423.7,330.1v-6.2h14.8c0.7,2.8,3.2,4.9,6.3,4.9c3,0,5.6-2.1,6.3-4.9h14.8v6.2H423.7z"/>
		<path class="st1" d="M449.3,325.7c-0.8,1.1-2,1.9-3.4,2.2c-0.3-0.2-0.5-0.5-0.8-0.8C446,327,447.8,326.8,449.3,325.7"/>
		<path class="st1" d="M442.7,320.6c-0.5,0.8-2,3.7-0.5,6.7c-0.6-0.3-1.1-0.7-1.6-1.2c-1.3-2.8,0.1-5.4,0.5-6
			C441.8,320.2,442.3,320.4,442.7,320.6"/>
		<path class="st1" d="M444.7,326.5c-0.3-0.5-0.4-1-0.4-1.6c1,0,4.2-0.2,6.1-2.9c0,0.1,0,0.2,0,0.3c0,0.6-0.1,1.1-0.2,1.6
			C448.4,326.5,445.4,326.5,444.7,326.5"/>
		<path class="st1" d="M443.2,320.9c0.7,0.5,1.1,1.1,1.2,1.4c-0.4,0.6-1.7,3.3,0.7,5.6c-0.1,0-0.3,0-0.4,0c-0.6,0-1.2-0.1-1.8-0.3
			C441.2,324.7,442.7,321.7,443.2,320.9"/>
		<path class="st1" d="M444.3,324.4c0.1-0.8,0.4-1.5,0.6-1.8c0.7,0,3.7-0.2,4.5-3.5c0.4,0.6,0.7,1.3,0.9,2
			C448.6,324.2,445.3,324.4,444.3,324.4"/>
		<path class="st1" d="M448.4,320.2c-0.3,0.5-0.7,0.9-1.2,1.2c-0.5-0.9-2.2-3.6-5.6-3.8c0.5-0.4,1.2-0.6,1.8-0.8
			C446.5,317.1,448.1,319.6,448.4,320.2"/>
		<path class="st1" d="M445.3,316.7c1.4,0.2,2.7,0.9,3.6,1.9c-0.1,0.4-0.2,0.7-0.3,1.1C448.2,318.9,447.2,317.4,445.3,316.7"/>
		<path class="st1" d="M439.6,324.6c-0.3-0.7-0.5-1.5-0.5-2.3c0-0.6,0.1-1.2,0.3-1.8c0.4-0.1,0.7-0.2,1.1-0.3
			C440,321,439.3,322.7,439.6,324.6"/>
		<path class="st1" d="M446.7,321.7c-0.8,0.3-1.5,0.4-1.8,0.4c-0.3-0.5-1.6-2.4-3.9-2.4c-0.4,0-0.9,0.1-1.4,0.2
			c0.3-0.7,0.8-1.2,1.3-1.7C444.5,318,446.3,320.8,446.7,321.7"/>
		<path class="st1" d="M431.4,313.5h5.2v-5.7l-5.2-0.9V313.5z M440.8,298.6l-9.4,1.7l9.4,1.7c1.1,0.2,2,1.2,2.1,2.3l1,11.5
			c-2.5,0.3-4.6,2-5.4,4.4h-15v-27.1c0-5.7,2.9-11,7.8-14v14.6l5.2-0.9v-16.9l7.8-4.9l-1.5,25.2C442.8,297.4,442,298.4,440.8,298.6"
			/>
		<path class="st0" d="M465.9,308.6v11.7h-15c-0.8-2.3-2.9-4.1-5.4-4.4l1-11.5c0.1-1.2,1-2.1,2.1-2.3l9.4-1.7v-11.9l-5.2-3.2v14.2
			l-4.2-0.8c-1.2-0.2-2.1-1.2-2.1-2.4l-1.5-25.2l12.9,8.1c4.8,3,7.8,8.3,7.8,14v12.3l-12.9,2.3v5.7h5.2V310L465.9,308.6z"/>
	</g>
</g>
<g id="레이어_1">
	<rect x="8" y="8" class="st2" width="234" height="234"/>
</g>
</svg>
