<?xml version="1.0" encoding="utf-8"?>
<!-- Generator: Adobe Illustrator 25.1.0, SVG Export Plug-In . SVG Version: 6.00 Build 0)  -->
<svg version="1.1" id="Layer_1" xmlns="http://www.w3.org/2000/svg" xmlns:xlink="http://www.w3.org/1999/xlink" x="0px" y="0px"
	 viewBox="0 0 250 250" style="enable-background:new 0 0 250 250;" xml:space="preserve">
<style type="text/css">
	.st0{fill:#26358A;}
	.st1{fill:#FFFFFF;}
	.st2{fill:#ED192F;}
	.st3{fill:none;}
</style>
<g id="Layer_1_1_">
	<g transform="matrix(4.81164 0 0 -4.81164 -1774.917 5987.774)">
		<g>
			<path class="st0" d="M405.9,1214.5c-0.1,0.5-0.2,1-0.5,1.5c-0.1,0.2-0.5,1.1-0.5,1.3c-0.2,0.5-0.4,1-0.5,1.5l-0.4-0.5
				c-0.2,0.2-0.5,0.2-0.7,0.2c-0.3,0-0.5-0.2-0.5-0.5c0-0.1,0-0.2,0.1-0.2c0.1-0.1,0.2-0.1,0.2-0.1h0.5c0.3,0,0.5-0.1,0.7-0.2
				c0.2-0.2,0.3-0.5,0.3-0.9c0-0.9-0.6-1.5-1.5-1.9c-0.5-0.2-1-0.2-1.4,0.2l0.6,0.9c0.2-0.2,0.5-0.2,0.9-0.2
				c0.4,0.1,0.5,0.3,0.5,0.5c0,0.1,0,0.2-0.1,0.2c-0.1,0.1-0.2,0.1-0.2,0.1H403c-0.3,0-0.5,0.1-0.8,0.3c-0.2,0.2-0.2,0.5-0.2,1
				c0,0.9,0.4,1.5,1,1.6h-15.1v-5.3l-0.9,0.3v1.9l-1,0.2v-1.9l-0.9,0.3v2.9c-0.1-0.2-0.2-0.5-0.3-0.7c-0.1-0.2-0.5-1.1-0.5-1.3
				c-0.2-0.5-0.3-1-0.5-1.5c-0.2-1-0.3-2.2-0.1-3.2c0.2-0.9,0.6-1.8,1.2-2.6c0.4-0.5,0.9-0.9,1.4-1.2c0.8-0.5,1.5-0.8,2.4-1.1
				c0.5-0.2,1.1-0.2,1.5-0.5c0.5-0.2,1-0.4,1.4-0.6c0.5-0.2,0.9-0.5,1.2-0.9c0.5-0.5,0.9-0.9,1.2-1.5c0.1-0.2,0.2-0.3,0.2-0.5
				c0.2-0.3,0.2-0.6,0.3-1l0,0l0,0c0.1,0.3,0.2,0.7,0.3,1c0.1,0.2,0.2,0.3,0.2,0.5c0.3,0.5,0.8,1.1,1.2,1.5c0.4,0.3,0.8,0.6,1.2,0.9
				c0.5,0.2,0.9,0.5,1.4,0.6c0.5,0.2,1.1,0.3,1.5,0.5c0.9,0.2,1.7,0.6,2.4,1.1c0.5,0.3,1,0.7,1.4,1.2c0.6,0.7,1.1,1.6,1.2,2.6
				C406.2,1212.5,406.1,1213.5,405.9,1214.5"/>
		</g>
		<g>
			<path class="st0" d="M404.3,1219.6h-0.5c0.2,0,0.4-0.1,0.5-0.2C404.3,1219.4,404.3,1219.5,404.3,1219.6"/>
		</g>
		<g>
			<path class="st0" d="M387,1217.6v1.9h-1v-1.8L387,1217.6z"/>
		</g>
		<path class="st1" d="M387,1219.6h0.9l0,0H387z"/>
		<g>
			<path class="st1" d="M386.1,1214.9v1.9l1-0.2v-1.9l0.9-0.3v5.3h-0.9v-1.9l-1,0.2v1.8h-0.5c-0.1-0.5-0.2-1-0.4-1.5v-2.9
				L386.1,1214.9z"/>
		</g>
		<g>
			<path class="st0" d="M406.9,1211.8c0-0.2-0.1-0.5-0.1-0.7c-0.1-0.5-0.2-0.9-0.5-1.3c-0.2-0.5-0.6-1.1-1-1.5
				c-0.5-0.5-0.9-0.9-1.5-1.2c-0.3-0.2-0.6-0.4-1-0.5c-0.2-0.1-0.4-0.2-0.6-0.2c-0.2-0.1-0.2-0.1-0.4-0.2l-0.3-0.1
				c-0.2-0.1-0.5-0.2-0.7-0.2s-0.5-0.2-0.7-0.2c-0.5-0.2-0.9-0.3-1.4-0.5c-0.1,0-0.2-0.1-0.2-0.1c-0.2-0.1-0.5-0.2-0.6-0.4
				c-0.2-0.2-0.5-0.3-0.8-0.5c-0.4-0.3-0.7-0.6-1-1c-0.2-0.3-0.5-0.6-0.6-0.9c-0.2-0.2-0.2-0.5-0.3-0.7c-0.1-0.2-0.2-0.5-0.2-0.7
				l0,0l0,0c-0.1,0.2-0.2,0.5-0.2,0.7c-0.1,0.2-0.2,0.5-0.3,0.7c-0.2,0.3-0.4,0.6-0.6,0.9c-0.3,0.4-0.7,0.7-1,1
				c-0.2,0.2-0.5,0.4-0.8,0.5c-0.2,0.2-0.5,0.2-0.6,0.4c-0.1,0-0.2,0.1-0.2,0.1c-0.5,0.2-0.9,0.4-1.4,0.5c-0.2,0.1-0.5,0.2-0.7,0.2
				c-0.2,0.1-0.5,0.2-0.7,0.2l-0.3,0.1c-0.2,0.1-0.2,0.1-0.4,0.2c-0.4,0.2-0.9,0.3-1.2,0.5c-0.2,0.1-0.2,0.2-0.4,0.2
				c-0.5,0.3-1,0.7-1.5,1.2c-0.2,0.2-0.2,0.2-0.3,0.4c-0.3,0.4-0.5,0.7-0.7,1.2c-0.2,0.4-0.4,0.9-0.5,1.3c-0.1,0.2-0.1,0.5-0.1,0.7
				c-0.1,0.6-0.1,1.2,0.1,1.9c0.1,0.8,0.3,1.5,0.6,2.3c0.1,0.2,0.2,0.5,0.2,0.6c0.3,0.7,0.6,1.4,0.9,2.1c0.2,0.5,0.2,1.2,0.2,1.8
				c0,0.5,0,1-0.2,1.5c0,0.2-0.1,0.3-0.1,0.4c-0.3,1.4-1,2.7-1.8,3.6c-0.2,0.2-0.4,0.5-0.6,0.8c0,0,0.4,0.5,1,1.2l0,0
				c0,0,0.2,0.3,0.5,0.6s0.9,1.5,0.9,1.5l0,0c0.8-0.2,4.4-2.1,10.1-2.1h0.2c5.7,0,9.4,1.9,10.1,2.1l0,0c0,0,0.7-1.2,0.9-1.5
				s0.5-0.6,0.5-0.6l0,0c0.6-0.8,1-1.2,1-1.2c-0.2-0.2-0.5-0.5-0.6-0.8c-0.8-0.9-1.4-2.2-1.8-3.6c0-0.2-0.1-0.2-0.1-0.4
				c-0.1-0.5-0.2-1-0.2-1.5c0-0.6,0.1-1.2,0.2-1.8c0.2-0.7,0.5-1.4,0.9-2.1c0.1-0.2,0.2-0.4,0.2-0.6c0.2-0.8,0.5-1.5,0.6-2.3
				C407,1213,407,1212.4,406.9,1211.8 M407.4,1218c-0.5,1-0.8,1.9-0.9,2.8c-0.1,0.5-0.1,1.1,0,1.5c0,0.3,0.1,0.6,0.2,0.9
				c0.1,0.5,0.3,0.9,0.5,1.3c0.5,0.9,1.1,1.6,1.8,2.3c0.2,0.2,0.2,0.3,0.4,0.4c-0.1,0-0.1,0.1-0.2,0.1c-0.3,0.2-0.6,0.5-0.9,0.8
				c-0.2,0.2-0.3,0.3-0.5,0.5c-0.6,0.6-1.1,1.2-1.5,1.9c-0.3,0.5-0.5,0.9-0.7,1.3c-0.1,0.1-0.1,0.2-0.1,0.3
				c-0.4-0.2-0.9-0.4-1.3-0.5c-0.4-0.1-0.7-0.2-1.1-0.3c0.1,0.1,0.2,0.2,0.3,0.3c0.7,0.7,0.8,1.2,0.5,1.6c-0.1,0.2-0.2,0.2-0.3,0.1
				c-0.7-0.8-1.9-1.5-2.8-2c1.1,0.9,2.2,1.8,2.7,2.9c0.4,0.9,0.2,1.5-0.4,1.9c-0.2,0.2-0.3,0.2-0.3,0c-0.6-1.6-2.1-3.6-3.8-4.7
				c-0.2-0.1-0.2-0.2-0.4-0.2c0,0,0,0,0.1,0c-0.6,0.1-1.3,0.2-1.9,0.5c-0.5,0.2-1,0.4-1.5,0.6c-0.1,0.1-0.2,0.1-0.2,0.2l0,0l0,0
				c-0.1-0.1-0.2-0.1-0.2-0.2c-0.5-0.2-0.9-0.5-1.5-0.6c-0.6-0.2-1.2-0.3-1.9-0.5c0,0,0,0,0.1,0c-0.2,0.1-0.3,0.2-0.4,0.2
				c-1.7,1.2-3.2,3.2-3.8,4.7c-0.1,0.2-0.2,0.1-0.3,0c-0.6-0.5-0.8-1.2-0.4-1.9c0.5-1.1,1.6-2.1,2.7-2.9c-0.9,0.4-2.1,1.2-2.8,2
				c-0.1,0.1-0.2,0.1-0.3-0.1c-0.3-0.4-0.2-0.9,0.5-1.6c0.1-0.1,0.2-0.2,0.3-0.3c-0.4,0.1-0.7,0.2-1.1,0.3c-0.5,0.2-0.9,0.3-1.3,0.5
				c0-0.1-0.1-0.2-0.1-0.3c-0.2-0.4-0.4-0.9-0.7-1.3c-0.5-0.7-1-1.3-1.5-1.9c-0.2-0.2-0.3-0.3-0.5-0.5c-0.3-0.3-0.6-0.5-0.9-0.8
				c-0.1,0-0.1-0.1-0.2-0.1c0.2-0.2,0.2-0.2,0.4-0.4c0.7-0.7,1.2-1.5,1.8-2.3c0.2-0.4,0.5-0.9,0.5-1.3c0.1-0.3,0.2-0.6,0.2-0.9
				c0.1-0.5,0.1-1.1,0-1.5c-0.1-0.9-0.4-1.7-0.9-2.8c-0.9-1.9-1.4-3.6-1.6-5c-0.1-0.9-0.1-1.9,0.1-2.7c0.2-1,0.5-1.9,1.1-2.7
				c0.2-0.2,0.4-0.5,0.6-0.8s0.5-0.5,0.7-0.7s0.5-0.4,0.8-0.6c0.3-0.2,0.6-0.4,0.9-0.5c0.3-0.2,0.6-0.3,1-0.5
				c0.5-0.2,1.1-0.4,1.6-0.5c0.2-0.1,0.3-0.1,0.5-0.2c0.4-0.1,0.8-0.2,1.1-0.3c0.3-0.1,0.5-0.2,0.9-0.2c0.3-0.1,0.5-0.2,0.9-0.3
				c0.4-0.2,0.9-0.4,1.2-0.5c0.4-0.2,0.9-0.5,1.2-0.8c0.1-0.1,0.2-0.2,0.3-0.2c0.2-0.2,0.3-0.2,0.5-0.4c0.2-0.2,0.4-0.5,0.6-0.7
				c0.1-0.1,0.1-0.2,0.2-0.2c0.1-0.2,0.2-0.2,0.2-0.4l0,0l0,0l0,0l0,0l0,0l0,0l0,0l0,0c0.1,0.2,0.1,0.2,0.2,0.4
				c0.1,0.1,0.1,0.2,0.2,0.2c0.2,0.2,0.4,0.5,0.6,0.7c0.2,0.2,0.3,0.3,0.5,0.4c0.1,0.1,0.2,0.2,0.3,0.2c0.4,0.3,0.8,0.5,1.2,0.8
				c0.4,0.2,0.8,0.4,1.2,0.5c0.2,0.1,0.5,0.2,0.9,0.3c0.3,0.1,0.5,0.2,0.9,0.2c0.4,0.1,0.8,0.2,1.1,0.3c0.2,0.1,0.3,0.1,0.5,0.2
				c0.5,0.2,1.1,0.3,1.6,0.5c0.3,0.2,0.7,0.3,1,0.5c0.3,0.2,0.6,0.3,0.9,0.5c0.3,0.2,0.5,0.4,0.8,0.6c0.2,0.2,0.5,0.5,0.7,0.7
				s0.4,0.5,0.6,0.8c0.5,0.8,0.9,1.7,1.1,2.7c0.2,0.9,0.2,1.7,0.1,2.7C408.8,1214.5,408.3,1216.2,407.4,1218"/>
		</g>
		<g>
			<path class="st1" d="M394.8,1225.7c3.2-0.1,5.8,2.5,5.9,5.6c0.1,3.2-2.5,5.8-5.6,5.9c-3.2,0.1-5.8-2.5-5.9-5.6
				C389,1228.4,391.6,1225.8,394.8,1225.7"/>
		</g>
		<g>
			<path class="st2" d="M396.9,1235.2c-0.5-0.1-1-0.2-1.5-0.3c-0.9-0.3-1.7-0.9-2.6-1.5l0,0c0.5-0.5,1.2-0.9,1.9-1.2l0.1,0.2
				c0.2,0.2,0.2,0.3,0.4,0.4c0.5,0.5,1.2,0.9,1.9,1.2c0.6,0.2,1.2,0.4,1.9,0.4h0.1c-0.2,0.3-0.5,0.6-0.7,0.9
				C397.9,1235.3,397.4,1235.3,396.9,1235.2"/>
		</g>
		<g>
			<path class="st2" d="M393.6,1234.9c1,0.6,2.1,1,3.2,1.2c0.2,0,0.4,0,0.5,0c-1.9,1-4.2,0.7-5.7-0.7c0.2-0.5,0.5-1,0.8-1.4
				C392.7,1234.3,393.1,1234.6,393.6,1234.9"/>
		</g>
		<g>
			<path class="st2" d="M391.8,1230.4c0.5-0.5,1.2-0.9,1.9-1.2c0.3-0.2,0.6-0.2,0.9-0.3c0.1,0.4,0.2,0.9,0.1,1.2
				c0,0.4-0.1,0.8-0.2,1.2c-0.8,0.2-1.4,0.6-2,1.2c-0.7,0.6-1.3,1.4-1.7,2.2c-0.5-0.5-0.8-1.2-0.9-1.9
				C390.4,1231.9,391,1231.1,391.8,1230.4"/>
		</g>
		<g>
			<path class="st2" d="M406.7,1226.7c0,0-0.6,0.8-0.9,1.3c-0.4,0.5-0.8,1.2-0.8,1.2c-2.2-0.5-4.3-0.7-6.4-0.9
				c0.1,0.1,0.2,0.2,0.2,0.3c1.1,1.4,1.3,3.2,0.8,4.8c-0.6,0.1-1.2,0-1.9-0.2c0.2-0.7,0.4-1.3,0.5-2c0.1-0.5,0.1-1,0.1-1.5
				c0-0.5-0.1-0.9-0.2-1.4c-0.2,0-0.5,0-0.8,0c0.2,0.9,0.3,1.8,0.2,2.7c-0.1,0.7-0.2,1.3-0.4,2c-0.3-0.2-0.5-0.3-0.8-0.5
				c-0.3-0.2-0.6-0.5-0.9-0.9l0,0l0,0c0.1-0.3,0.2-0.6,0.2-1c0-0.3,0.1-0.7,0-1c0-0.5-0.2-1-0.3-1.5c-0.2,0-0.2,0-0.4,0l0,0
				c-0.2,0-0.3,0-0.5,0c-1.2,0.4-2.2,0.9-3.2,1.6c-0.5,0.4-1,0.9-1.3,1.5c0.1-1.2,0.5-2.2,1.3-3c-2.2,0.1-4.2,0.4-6.4,0.9
				c0,0-0.4-0.6-0.8-1.2c-0.4-0.5-0.9-1.3-0.9-1.3c1.6-1.9,2.6-4.7,2.4-7.1h18.6C404,1222,405.1,1224.8,406.7,1226.7"/>
		</g>
		<g>
			<path class="st1" d="M385.5,1213.2l-0.2,0.4l-0.1-0.1v-0.2l-0.1,0.1v0.7l0.1-0.1v-0.3l0.2,0.2l0.2-0.1l-0.2-0.2l0.2-0.5
				L385.5,1213.2z"/>
		</g>
		<g>
			<path class="st1" d="M386,1213c-0.1,0-0.1,0-0.2,0c-0.1,0-0.2,0.1-0.2,0.2c-0.1,0.1-0.1,0.2-0.1,0.3s0,0.2,0.1,0.2s0.1,0.1,0.2,0
				c0.1,0,0.2-0.1,0.2-0.2c0.1-0.1,0.1-0.2,0.1-0.3C386.1,1213.2,386.1,1213.1,386,1213 M386,1213.5
				C386,1213.5,386,1213.6,386,1213.5c-0.1,0.1-0.2,0.1-0.2,0.1s0-0.1,0-0.2c0-0.2,0-0.2,0-0.2l0.1-0.1h0.1c0,0,0,0.1,0,0.2
				C386,1213.5,386,1213.5,386,1213.5"/>
		</g>
		<g>
			<path class="st1" d="M386.5,1212.7l-0.1,0.3h-0.1v-0.3l-0.1,0.1v0.7l0.2-0.1c0.2-0.1,0.2-0.2,0.2-0.3c0-0.1-0.1-0.2-0.1-0.2
				l0.2-0.4L386.5,1212.7z M386.4,1213.4L386.4,1213.4l-0.1-0.2l0.1-0.1c0.1,0,0.1,0,0.1,0.1
				C386.5,1213.3,386.5,1213.4,386.4,1213.4"/>
		</g>
		<g>
			<path class="st1" d="M386.7,1212.6v0.8l0.4-0.2v-0.2l-0.2,0.1v-0.2l0.2-0.1v-0.2l-0.2,0.1v-0.2l0.2-0.2v-0.2L386.7,1212.6z"/>
		</g>
		<g>
			<path class="st1" d="M387.6,1212.2v0.2l-0.2,0.1v-0.2l-0.2,0.1l0.2,0.7h0.1l0.2-0.9L387.6,1212.2z M387.4,1212.8l-0.1-0.2
				l0.2-0.1L387.4,1212.8z"/>
		</g>
		<g>
			<path class="st1" d="M388,1212.1v0.9l0.4-0.2v-0.2l-0.3,0.1v-0.2l0.2-0.1v-0.2l-0.2,0.1L388,1212.1l0.4-0.2v-0.2L388,1212.1z"/>
		</g>
		<g>
			<path class="st1" d="M388.8,1211.7l-0.1,0.4l-0.1-0.2l-0.2,0.1l0.2,0.4l-0.2,0.5l0.2-0.1l0.1-0.3l0.1,0.2l0.2-0.1l-0.2-0.4
				l0.2-0.5L388.8,1211.7z"/>
		</g>
		<g>
			<path class="st1" d="M389.2,1211.8L389.2,1211.8l-0.1-0.2l-0.1,0.1v0.9l0.2-0.1c0.2-0.1,0.2-0.2,0.2-0.4
				C389.4,1211.9,389.4,1211.8,389.2,1211.8 M389.2,1212.2L389.2,1212.2l-0.1-0.2l0.1-0.1c0.1,0,0.1,0,0.1,0.1
				S389.3,1212.2,389.2,1212.2"/>
		</g>
		<g>
			<path class="st1" d="M389.8,1211.2l-0.1,0.4h-0.1v-0.4l-0.1,0.1v0.9l0.2-0.1c0.2-0.1,0.2-0.2,0.2-0.4c0-0.2-0.1-0.2-0.1-0.2
				l0.2-0.5L389.8,1211.2z M389.7,1212L389.7,1212l-0.1-0.2l0.1-0.1c0.1,0,0.1,0,0.1,0.1C389.8,1211.9,389.8,1212,389.7,1212"/>
		</g>
		<g>
			<path class="st1" d="M390.1,1211.1v0.9l0.4-0.2v-0.2l-0.3,0.1v-0.2l0.2-0.1v-0.2l-0.2,0.1L390.1,1211.1l0.4-0.1v-0.2
				L390.1,1211.1z"/>
		</g>
		<g>
			<path class="st1" d="M390.7,1210.8c-0.1,0.1-0.2,0.1-0.2,0.2l0.1,0.1c0-0.1,0.1-0.1,0.2-0.2c0.1,0,0.1,0,0.1,0.1v0.1
				c0,0,0,0.1-0.1,0.1l-0.1,0.1c-0.1,0-0.1,0.1-0.1,0.2c0,0.1-0.1,0.2-0.1,0.2c0,0.2,0.1,0.2,0.2,0.2c0.1,0,0.2-0.1,0.2-0.2
				l-0.1-0.1c0,0.1-0.1,0.1-0.2,0.1c-0.1,0-0.1,0-0.1-0.1v-0.1c0,0,0-0.1,0.1-0.1l0.1-0.1c0.1,0,0.1-0.1,0.1-0.2s0.1-0.2,0.1-0.2
				C390.9,1210.8,390.8,1210.8,390.7,1210.8"/>
		</g>
		<g>
			<path class="st1" d="M391.2,1210.6c-0.1,0.1-0.2,0.1-0.2,0.2l0.1,0.1c0-0.1,0.1-0.2,0.2-0.2s0.1,0,0.1,0.1v0.1c0,0,0,0.1-0.1,0.1
				l-0.1,0.1c-0.1,0-0.1,0.1-0.1,0.2c0,0.1-0.1,0.2-0.1,0.2c0,0.2,0.1,0.2,0.2,0.2c0.1,0,0.2-0.1,0.2-0.2l-0.1-0.1
				c0,0.1-0.1,0.1-0.2,0.2c-0.1,0-0.1,0-0.1-0.1s0-0.1,0.1-0.2l0.1-0.1c0.1,0,0.1-0.1,0.1-0.2c0-0.1,0.1-0.2,0.1-0.2
				C391.4,1210.6,391.3,1210.5,391.2,1210.6"/>
		</g>
		<g>
			<path class="st1" d="M392,1210.2L392,1210.2l-0.2,0.8l-0.1-0.5l-0.1,0.1l-0.2,1.1l0.2-0.1l0.1-0.7l0.1,0.6h0.1l0.1-0.7l0.1,0.6
				l0.2-0.1L392,1210.2z"/>
		</g>
		<g>
			<path class="st1" d="M392.5,1210v0.2l-0.2,0.1v-0.2l-0.2,0.1l0.2,0.9h0.1l0.2-1.2H392.5z M392.4,1210.8l-0.1-0.4l0.2-0.1
				L392.4,1210.8z"/>
		</g>
		<g>
			<path class="st1" d="M392.9,1210.3v-0.5l-0.1,0.1L392.9,1210.3l-0.2,0.8l0.2-0.1l0.1-0.5l0.1,0.4l0.2-0.1L392.9,1210.3z"/>
		</g>
		<g>
			<path class="st1" d="M393.9,1209.4L393.9,1209.4l-0.2,0.9l-0.1-0.6l-0.1,0.1l-0.2,1.2l0.2-0.1l0.1-0.8l0.1,0.7h0.1l0.1-0.8
				l0.1,0.7l0.2-0.1L393.9,1209.4z"/>
		</g>
		<g>
			<path class="st1" d="M394.5,1209.2c-0.1-0.1-0.1-0.1-0.2-0.1c-0.1,0-0.2,0.1-0.2,0.2c-0.1,0.2-0.1,0.3-0.1,0.5
				c0,0.2,0,0.3,0.1,0.5c0.1,0.1,0.1,0.1,0.2,0.1c0.1,0,0.2-0.1,0.2-0.2c0.1-0.2,0.1-0.3,0.1-0.5
				C394.5,1209.4,394.5,1209.3,394.5,1209.2 M394.4,1210.1C394.4,1210.1,394.3,1210.1,394.4,1210.1l-0.2,0.1c0-0.1,0-0.1,0-0.3
				c0-0.2,0-0.3,0-0.3c0-0.1,0.1-0.1,0.1-0.1h0.1c0,0.1,0,0.1,0,0.3S394.5,1210,394.4,1210.1"/>
		</g>
		<g>
			<path class="st1" d="M398,1210.6c0-0.1,0.1-0.1,0.2-0.1s0.1,0.1,0.2,0.2c0.1,0.2,0.1,0.2,0.1,0.4c0,0.2,0,0.3-0.1,0.4
				c0,0.1-0.1,0.1-0.2,0.1s-0.1-0.1-0.2-0.2c-0.1-0.2-0.1-0.2-0.1-0.5S398,1210.7,398,1210.6 M398.1,1211.3
				C398.1,1211.3,398.1,1211.4,398.1,1211.3l0.2,0.1c0,0,0-0.1,0-0.3s0-0.2,0-0.3c0-0.1,0-0.1-0.1-0.1h-0.1c0,0,0,0.1,0,0.3
				S398.1,1211.2,398.1,1211.3"/>
		</g>
		<g>
			<path class="st1" d="M395.2,1209.3v0.7l-0.1-0.5h-0.1l-0.1,0.4v-0.7l-0.1-0.1v1.2l0.1,0.1l0.2-0.5l0.2,0.7l0.1,0.1v-1.2
				L395.2,1209.3z"/>
		</g>
		<g>
			<path class="st1" d="M395.5,1209.4v1.2l0.4,0.2v-0.2l-0.3-0.1v-0.2l0.2,0.1v-0.2l-0.2-0.1v-0.3l0.3,0.2v-0.2L395.5,1209.4z"/>
		</g>
		<g>
			<path class="st1" d="M396.3,1209.8l-0.2,0.5v-0.7l-0.1-0.1v1.1l0.1,0.1l0.2-0.6v0.7l0.1,0.1L396.3,1209.8L396.3,1209.8z"/>
		</g>
		<g>
			<path class="st1" d="M396.5,1210.9v-0.3V1210.9L396.5,1210.9L396.5,1210.9z"/>
		</g>
		<g>
			<path class="st1" d="M396.9,1210c-0.1-0.1-0.2,0-0.2,0.1l0.1,0.2c0-0.1,0.1-0.1,0.2,0c0.1,0,0.1,0.1,0.1,0.2v0.1c0,0,0,0-0.1,0
				h-0.1c-0.1,0-0.1,0-0.1,0.1c0,0.1-0.1,0.1-0.1,0.2s0.1,0.4,0.2,0.4c0.1,0,0.2,0,0.2-0.1l-0.1-0.2c0,0.1-0.1,0.1-0.2,0
				c-0.1,0-0.1-0.1-0.1-0.2v-0.1c0,0,0,0,0.1,0h0.1c0.1,0,0.1,0,0.1,0c0-0.1,0.1-0.1,0.1-0.2C397.2,1210.2,397.1,1210.1,396.9,1210"
				/>
		</g>
		<g>
			<path class="st1" d="M397.7,1210.4L397.7,1210.4l-0.2,0.9l0.2,0.1l0.2-0.6l0.2,0.7l0.2,0.1L397.7,1210.4z"/>
		</g>
		<g>
			<path class="st1" d="M398.5,1210.7v1l0.1,0.1v-0.8l0.2,0.1v-0.2L398.5,1210.7z"/>
		</g>
		<g>
			<path class="st1" d="M398.9,1210.9v0.9l0.1,0.1v-0.8l0.2,0.1v-0.2L398.9,1210.9z"/>
		</g>
		<g>
			<path class="st1" d="M399.4,1211.1v0.9l0.4,0.2v-0.2l-0.2-0.1v-0.2l0.2,0.1v-0.2l-0.2-0.1v-0.2l0.2,0.2v-0.2L399.4,1211.1z"/>
		</g>
		<g>
			<path class="st1" d="M400.2,1211.8v-0.4l-0.1-0.1L400.2,1211.8l-0.2,0.4l0.2,0.1l0.1-0.3l0.1,0.4l0.2,0.1L400.2,1211.8z"/>
		</g>
		<g>
			<path class="st1" d="M400.6,1211.6l-0.2-0.1v0.9l0.2,0.1c0.1,0.1,0.2,0,0.2-0.2c0-0.1,0-0.2-0.1-0.2c0,0,0.1-0.1,0.1-0.2
				C400.8,1211.8,400.7,1211.7,400.6,1211.6 M400.6,1212.4L400.6,1212.4l-0.1-0.3l0.1,0.1C400.6,1212.1,400.7,1212.2,400.6,1212.4
				C400.7,1212.3,400.6,1212.4,400.6,1212.4 M400.6,1212l-0.2-0.1v-0.2l0.2,0.1C400.6,1211.8,400.7,1211.8,400.6,1212
				C400.7,1212,400.6,1212,400.6,1212"/>
		</g>
		<g>
			<path class="st1" d="M401.3,1211.9v0.2l-0.2-0.1v-0.2l-0.2-0.1l0.2,0.9h0.1l0.2-0.8H401.3z M401.1,1212.5l-0.1-0.3l0.2,0.1
				L401.1,1212.5z"/>
		</g>
		<g>
			<path class="st1" d="M401.4,1212v0.9l0.1,0.1v-0.7l0.2,0.1v-0.2L401.4,1212z"/>
		</g>
		<g>
			<path class="st1" d="M402,1212.2v0.8l0.1,0.1v-0.7l0.2,0.1v-0.2L402,1212.2z"/>
		</g>
		<g>
			<path class="st1" d="M402.8,1212.6c-0.1,0-0.2,0-0.2,0c-0.1,0.1-0.1,0.2-0.1,0.3c0,0.2,0,0.2,0.1,0.3c0.1,0.1,0.1,0.2,0.2,0.2
				c0.1,0.1,0.2,0,0.2-0.2l-0.1-0.1c0,0.1-0.1,0.1-0.1,0.1s-0.1,0-0.1-0.1c0-0.1,0-0.1,0-0.2S402.8,1212.8,402.8,1212.6
				L402.8,1212.6c0.2,0.1,0.2,0.2,0.2,0.2l0.1,0.1C403,1212.8,403,1212.6,402.8,1212.6"/>
		</g>
		<g>
			<path class="st1" d="M403.1,1212.8v0.8l0.1,0.1v-0.6l0.2,0.1v-0.2L403.1,1212.8z"/>
		</g>
		<g>
			<path class="st1" d="M403.8,1213c-0.2-0.1-0.2,0-0.2,0.2v0.5l0.1,0.1v-0.5c0-0.1,0.1-0.1,0.1-0.1c0.1,0,0.1,0.1,0.1,0.2v0.5
				l0.1,0.1v-0.5C404,1213.2,404,1213.1,403.8,1213"/>
		</g>
		<g>
			<path class="st1" d="M404.4,1213.3l-0.2-0.1v0.7l0.2,0.1c0.1,0.1,0.2,0,0.2-0.2c0-0.1-0.1-0.2-0.1-0.2s0.1,0,0.1-0.2
				C404.6,1213.5,404.5,1213.3,404.4,1213.3 M404.4,1213.8L404.4,1213.8l-0.1-0.2l0.1,0.1C404.4,1213.7,404.4,1213.8,404.4,1213.8
				C404.4,1213.8,404.4,1213.8,404.4,1213.8 M404.4,1213.5l-0.2-0.1v-0.2l0.2,0.1C404.4,1213.4,404.4,1213.5,404.4,1213.5
				C404.4,1213.5,404.4,1213.6,404.4,1213.5"/>
		</g>
		<g>
			<path class="st1" d="M400.3,1221.3H400c-0.5,0-0.9,0.1-1.2,0.4l-0.7,0.7l0.6,0.7c0.3,0.3,0.7,0.4,1.2,0.4h0.3
				c0.3,0,0.5,0.2,0.5,0.5s-0.2,0.5-0.5,0.5H400c-0.5,0-1.3-0.1-1.9-0.7l-0.6-0.6l-0.7,0.7c-0.3,0.3-0.6,0.5-1,0.5
				c-0.2,0.1-0.5-0.1-0.6-0.3c-0.1-0.2,0.1-0.5,0.3-0.5c0.2-0.1,0.4-0.2,0.5-0.3l0.7-0.7l-0.7-0.7c-0.3-0.3-0.7-0.4-1.2-0.4H391
				c-0.3,0-0.6,0.2-0.7,0.5h3.2c0.7,0,1.2,0.5,1.2,1.2c0,0.7-0.5,1.2-1.2,1.2H391c-0.9,0-1.5-0.6-1.8-1.5H388
				c-0.3,0-0.5-0.2-0.5-0.5c0-0.2,0.2-0.5,0.5-0.5h1.3c0.2-0.8,0.9-1.5,1.8-1.5h3.9c0.5,0,1.3,0.1,1.9,0.7l0.6,0.6l0,0l0,0l0.6-0.6
				c0.6-0.6,1.3-0.7,1.9-0.7h0.3c0.3,0,0.5,0.2,0.5,0.5C400.8,1221,400.6,1221.3,400.3,1221.3z M390.5,1223.2
				c0.1,0.1,0.3,0.2,0.4,0.2h2.6c0.1,0,0.2-0.2,0.2-0.3c0-0.2-0.2-0.3-0.2-0.3h-3.3C390.3,1222.9,390.4,1223.1,390.5,1223.2z"/>
		</g>
		<g>
			<path class="st1" d="M388.6,1214.1v5.5h0.9v-5.8L388.6,1214.1z"/>
		</g>
		<g>
			<path class="st1" d="M390.1,1215.4v1.3l1.3-0.2v-1.4L390.1,1215.4z"/>
		</g>
		<g>
			<path class="st1" d="M393.5,1215l-0.5,0.2v-2.5l-0.9,0.3v6.7h1.5c0.9,0,1.2-1.2,1.2-2.4C394.8,1215.9,394.3,1214.8,393.5,1215
				 M393.5,1218l-0.5,0.1v-1.4l0.5-0.1c0.2,0,0.4,0.3,0.4,0.7S393.7,1217.9,393.5,1218"/>
		</g>
		<g>
			<path class="st1" d="M397.2,1212.8l-0.2,0.9l-1.2-0.3l-0.2-1.1l-0.9-0.3l1.3,7.5h0.7l1.3-6.3L397.2,1212.8z M396.5,1216.9
				l-0.3-1.9l0.6,0.2L396.5,1216.9z"/>
		</g>
		<g>
			<path class="st1" d="M399.9,1213.7c-0.5-0.2-1-0.2-1.4,0.4l0.6,1.2c0.2-0.2,0.5-0.3,0.9-0.2c0.4,0.1,0.5,0.3,0.5,0.6
				c0,0.2,0,0.2-0.1,0.3c-0.1,0.1-0.2,0.1-0.2,0.1h-0.5c-0.3,0-0.5,0.2-0.8,0.4c-0.2,0.2-0.2,0.7-0.2,1.2c0,1.2,0.5,1.9,1.4,1.9
				c0.5,0,0.9-0.2,1.2-0.6l-0.5-0.9c-0.2,0.3-0.5,0.3-0.7,0.3c-0.3,0-0.5-0.3-0.5-0.6c0-0.1,0-0.2,0.1-0.2c0.1-0.1,0.2-0.2,0.2-0.2
				l0.5-0.1c0.3,0,0.5-0.2,0.7-0.4c0.2-0.2,0.3-0.6,0.3-1.2C401.4,1214.8,400.7,1213.9,399.9,1213.7"/>
		</g>
		<g>
			<path class="st1" d="M397.9,1226.5l-0.6-0.5l0.2-0.8l-0.7,0.5l-0.6-0.5l0.2,0.8l-0.6,0.5h0.8l0.2,0.7l0.2-0.7H397.9z"/>
		</g>
		<g>
			<path class="st1" d="M393.9,1226.5l-0.6-0.5l0.2-0.8l-0.6,0.5l-0.6-0.5l0.2,0.8l-0.6,0.5h0.8l0.2,0.7l0.2-0.7H393.9z"/>
		</g>
		<g>
			<path class="st1" d="M404.4,1217.5c-0.2,0.2-0.4,0.2-0.7,0.2h-0.5c-0.2,0-0.2,0.1-0.2,0.1c-0.1,0.1-0.1,0.2-0.1,0.2
				c0,0.2,0.2,0.5,0.5,0.5c0.2,0,0.5,0.1,0.7-0.2l0.4,0.5c0,0.2-0.1,0.3-0.1,0.5c-0.2,0.2-0.4,0.2-0.5,0.2c-0.2,0-0.3,0-0.4,0
				s-0.2,0-0.3,0c-0.6-0.2-1-0.8-1-1.6c0-0.5,0.1-0.8,0.2-1c0.2-0.2,0.4-0.3,0.8-0.3h0.5c0.2,0,0.2,0,0.2-0.1
				c0.1-0.1,0.1-0.2,0.1-0.2c0-0.2-0.2-0.5-0.5-0.5c-0.3-0.1-0.6-0.1-0.9,0.2l-0.6-0.9c0.4-0.4,0.9-0.4,1.4-0.2
				c0.8,0.2,1.5,0.9,1.5,1.9C404.7,1217,404.6,1217.3,404.4,1217.5"/>
		</g>
	</g>
</g>
<g id="레이어_1">
	<rect x="8" y="8" class="st3" width="234" height="234"/>
</g>
<rect x="8" y="34.8" class="st3" width="234" height="180.4"/>
</svg>
