<?xml version="1.0" encoding="utf-8"?>
<!-- Generator: Adobe Illustrator 25.1.0, SVG Export Plug-In . SVG Version: 6.00 Build 0)  -->
<svg version="1.1" id="Layer_1" xmlns="http://www.w3.org/2000/svg" xmlns:xlink="http://www.w3.org/1999/xlink" x="0px" y="0px"
	 viewBox="0 0 250 250" style="enable-background:new 0 0 250 250;" xml:space="preserve">
<style type="text/css">
	.st0{fill:none;}
	.st1{fill:#A01916;}
	.st2{fill:#B71817;}
	.st3{fill:url(#SVGID_1_);}
	.st4{fill:url(#SVGID_2_);}
	.st5{fill:url(#SVGID_3_);}
	.st6{fill:#E63621;}
	.st7{fill:#FFFFFF;}
	.st8{fill:#CE2517;}
	.st9{fill:#D1534A;}
	.st10{fill:url(#SVGID_4_);}
	.st11{fill:#F6B5A9;}
	.st12{fill:#F28F89;}
	.st13{fill:#E6311C;}
	.st14{fill:#E41713;}
	.st15{fill:#FBD5CE;}
	.st16{fill:#EC6437;}
	.st17{fill:url(#SVGID_5_);}
	.st18{fill:url(#SVGID_6_);}
	.st19{fill:url(#SVGID_7_);}
	.st20{fill:#A0453F;}
	.st21{fill:#F08279;}
	.st22{fill:url(#SVGID_8_);}
	.st23{fill:url(#SVGID_9_);}
	.st24{fill:url(#SVGID_10_);}
	.st25{fill:url(#SVGID_11_);}
	.st26{fill:url(#SVGID_12_);}
	.st27{fill:url(#SVGID_13_);}
	.st28{fill:#F18651;}
	.st29{fill:#B71817;fill-opacity:0.9882;}
	.st30{fill:url(#SVGID_14_);}
	.st31{fill:url(#SVGID_15_);}
	.st32{fill:url(#SVGID_16_);}
	.st33{fill:url(#SVGID_17_);}
	.st34{fill:url(#SVGID_18_);}
	.st35{fill:url(#SVGID_19_);}
	.st36{fill:url(#SVGID_20_);}
	.st37{fill:url(#SVGID_21_);}
	.st38{fill:url(#SVGID_22_);}
	.st39{fill:url(#SVGID_23_);}
	.st40{fill:url(#SVGID_24_);}
	.st41{fill:url(#SVGID_25_);}
	.st42{fill:url(#SVGID_26_);}
	.st43{fill:url(#SVGID_27_);}
	.st44{fill:url(#SVGID_28_);}
</style>
<g id="레이어_1">
	<rect x="8" y="8" class="st0" width="234" height="234"/>
</g>
<g>
	<path class="st1" d="M92,37c1.7-1,3.9-1.5,5.8-2c11.4-3.4,22.9-4.4,34.8-3.8l0.5,0.1c5,0.3,10,1.2,14.9,2.4c1.9,0.5,5.5,1.9,7.1,2
		l0.7,0.4c2.9,0.9,5.8,2.1,8.5,3.4c14.3,6.6,26.7,16.6,36.2,29.3c1.9,2.5,3.8,5.2,5.3,7.9c1,1.5,2.3,3.5,2.9,5.2
		c4,7.3,8.2,19.1,9,27.4c4.8-2.6,11.4-3.1,16.6-1.6c2.7,0.8,5.1,2.4,6.4,5c1,1.8,1.8,5,1.1,7c-0.3,1.1-1.1,1.8-2.1,2.4
		c2.4,2.3,3,5.4,3.1,8.5c0,3.3-0.7,6.6-3.1,9.1c-3,3.1-7.5,3.6-11.6,3.6c-3.5,0-7.3-0.3-10.2-2.4c-0.5,1.2-0.6,2.6-0.9,3.8
		c-0.5,2.5-1.4,7.3-2.5,9.5c-0.9,2.1-1.5,4.2-2.4,6.3c-2,4.9-4.4,9.5-7.1,14c-2.4,3.8-5,7.5-7.9,10.9c-0.5,0.6-2.7,2.9-2.8,3.4
		l-0.5,0.4c-6.3,6.6-13.4,12.4-21.3,17l-0.7,0.4c-12.7,7.2-26.8,11.4-41.4,12.2l-6.5,0c-7.4,0.4-16.6-1.2-23.8-3.2
		c-2.3-0.6-4.6-1.5-6.9-2.1l-0.8-0.3c-1-0.7-2.5-1.1-3.7-1.6c-2.1-0.9-4.3-1.8-6.3-2.9c-2-1.1-4-2.2-6-3.4c-1.2-0.7-2.3-1.6-3.6-2.1
		l-0.5-0.5c-0.9-0.6-1.8-1.2-2.6-1.9c-2.5-1.5-5.2-3.8-7.2-5.9c-5.5-3.9-15.4-16.3-18.5-22.4l-0.2-0.1c-0.6-1.8-2.5-4.8-3.5-6.8
		c-1.5-3-2.7-6.1-3.9-9.2l-0.3-0.1c-0.5-1-0.6-2.5-1.2-3.4c-0.3-0.5-2.3-1.4-2.9-1.9c-3.2-2.5-6-6.3-7.7-10
		c-0.3-0.7-1.4-3.2-1.3-3.9c0-0.2,0.1-0.4,0.2-0.6l-0.1,0c-1.2,0.5-1.6,4.2-2.8,5.3c-0.3,0.3-0.4,0.4-0.8,0.4
		c-0.1,0-0.2,0.1-0.2,0.1c-2,0.9-8,1.1-10.1,0.3c-0.9-0.4-1.6-1-1.9-1.9c-0.3-0.8-0.2-1.5,0-2.3c0.8-3.3,2.7-7.6,3.9-10.9
		c2.3-6.2,4.4-12.5,6.8-18.7l-0.1-0.1c0,0,0-0.1,0-0.1c0.1-0.6,1-1.1,1.5-1.4c0.4-0.2,0.8-0.5,1.2-0.5c1.5-0.3,6.8-0.3,8.2,0.1
		c0,0,0.1,0,0.1,0c1-1.4,3.9-3.1,4.2-3.6c0.7-1.2,0.9-3.2,1.2-4.5c0.4-1.6,2.8-9.3,3.8-10c0.8-1.1,2.4-5.6,3.5-7.4
		c0.9-1.8,1.9-3.6,3-5.4c1-1.7,2-3.3,3.2-4.9l0.2-0.3c1.2-1.4,2.2-3,3.4-4.4c1.3-1.6,2.7-3.1,3.9-4.7l0.2-0.3c1-1.2,2.3-2.4,3.5-3.5
		c7.3-7.2,15.6-13,24.8-17.6c0.9-0.5,1.9-1,2.9-1.4l0.8-0.4C88.9,38.1,90.4,37.5,92,37z M34.7,118.2l0.6,0.1
		c-0.4-0.5-0.7-0.9-0.9-1.4l-0.2,0.4L34.7,118.2z"/>
	<path class="st2" d="M92,37c1.7-1,3.9-1.5,5.8-2c11.4-3.4,22.9-4.4,34.8-3.8l0.5,0.1c5,0.3,10,1.2,14.9,2.4c1.9,0.5,5.5,1.9,7.1,2
		l0.7,0.4c2.9,0.9,5.8,2.1,8.5,3.4c14.3,6.6,26.7,16.6,36.2,29.3c1.9,2.5,3.8,5.2,5.3,7.9c-2.3,1.9-4.6,4.2-7.2,5.7
		c0.5,0.7,0.9,1.4,1.4,2.2c-1.2-0.1-2.5-0.2-3.6-0.4l-0.4,0.5c-0.6,0.5-1.8,1.6-2.5,1.7l-0.2-0.1c-0.5,1.3-1,2.6-1.5,3.9
		c-0.4-0.7-0.9-1.4-1.3-2.1c0,0.4-0.2,0.6-0.6,0.9c-0.4,0.3-0.9,0.6-1.3,0.9l-0.2,0c-0.4,0.3-0.8,0.5-1.2,0.7c-0.2-1-0.2-2-0.5-3
		c-0.6-0.9-1.2-2-2-2.8c-2.7-2.7-7-2.4-10.4-2.3l-5.9,0c-0.2,0.6-0.5,1.1-0.8,1.7l-0.2-0.1l-0.9,0.7c-0.3,0.1-0.7,0-1.1,0
		c-1.1-0.6-1.5-1.1-2.1-2.2l-0.2-0.1c-1.4,0-3.4-0.2-4.7,0.1l-0.5-0.2c-0.6,0.3-1.3,0.2-2,0.1c-0.5,4,0.3,8.7-0.2,12.5l-0.3-0.2
		l-0.5,0.5c-0.7,0.2-1.3,0.5-1.7,1.2c-0.3,0.5-0.3,1-0.1,1.5c0.4,1.1,1.1,1.5,2,2.1c-0.2,1.2-0.3,5.9,0,7c-3.3,0.1-6.7-0.1-10-0.1
		c-1.5,0-3.1-0.1-4.5,0.1c-0.7,0.1-1.4,0.3-1.9,0.8c-1.1,1-1.3,2.2-1.3,3.6c-0.2-0.3-0.5-0.6-0.8-0.8c-4.2-4.3-9.9-3.7-15.4-3.7
		c-2.3,0-4.9-0.2-7.2,0.1c-0.8,0.1-1.5,0.6-2.2,0.7c-0.6,0.1-1.5-0.5-2.2-0.7c-0.4-0.1-0.9-0.1-1.4-0.1c-3.2,0-6.5,0.1-9.7-0.1
		c-2.4-1.8-4.9-3.4-7.4-5.1c-1.5-1-3.1-1.8-4.4-3l-0.7-0.2l-1.5-0.9l-0.6-0.3c-0.8,0.1-1.6,0.1-2.4,0.1l-0.1,0.1
		c-0.5-0.2-1.1-0.1-1.7-0.1c0-3,0-5.9,0-8.9l-0.1-0.5l-0.5,0.1L79,88.1c-4.2-2-8.3-3.9-12.6-5.7c-0.6-0.3-1.5-0.5-2-1
		c-0.3,0.3-0.6,0.8-0.9,1.2c-1.6-1.3-3.3-2.6-5-3.8c-0.4,0.3-0.6,0.4-1.1,0.3c-0.3,0-0.5-0.2-0.8-0.3c-0.5,0.4-0.9,0.4-1.5,0.4
		c-0.5,0.1-1,0.1-1.4,0.3l-1,1l-1.7,3c0,0,0,0-0.1,0c-2.5-1.4-6.3-1.6-9.1-2c0.9-1.8,1.9-3.6,3-5.4c1-1.7,2-3.3,3.2-4.9l0.2-0.3
		c1.2-1.4,2.2-3,3.4-4.4c1.3-1.6,2.7-3.1,3.9-4.7l0.2-0.3c1-1.2,2.3-2.4,3.5-3.5c7.3-7.2,15.6-13,24.8-17.6c0.9-0.5,1.9-1,2.9-1.4
		l0.8-0.4C88.9,38.1,90.4,37.5,92,37z"/>
	
		<linearGradient id="SVGID_1_" gradientUnits="userSpaceOnUse" x1="52.478" y1="228.8759" x2="56.9948" y2="235.1809" gradientTransform="matrix(3.0769 0 0 -3.0795 4.882810e-04 769.8777)">
		<stop  offset="0" style="stop-color:#B41918"/>
		<stop  offset="1" style="stop-color:#76160E"/>
	</linearGradient>
	<path class="st3" d="M133.1,31.3c5,0.3,10,1.2,14.9,2.4c1.9,0.5,5.5,1.9,7.1,2l0.7,0.4c2.9,0.9,5.8,2.1,8.5,3.4
		c14.3,6.6,26.7,16.6,36.2,29.3c1.9,2.5,3.8,5.2,5.3,7.9c-2.3,1.9-4.6,4.2-7.2,5.7c0.5,0.7,0.9,1.4,1.4,2.2
		c-1.2-0.1-2.5-0.2-3.6-0.4l-0.4,0.5c-0.6,0.5-1.8,1.6-2.5,1.7l-0.2-0.1c-0.5,1.3-1,2.6-1.5,3.9c-0.4-0.7-0.9-1.4-1.3-2.1
		c0,0.4-0.2,0.6-0.6,0.9c-0.4,0.3-0.9,0.6-1.3,0.9l-0.2,0c-0.4,0.3-0.8,0.5-1.2,0.7c-0.2-1-0.2-2-0.5-3c-0.6-0.9-1.2-2-2-2.8
		c-2.7-2.7-7-2.4-10.4-2.3l-5.9,0c-0.2,0.6-0.5,1.1-0.8,1.7l-0.2-0.1l-0.9,0.7c-0.3,0.1-0.7,0-1.1,0c-1.1-0.6-1.5-1.1-2.1-2.2
		l-0.2-0.1c-1.4,0-3.4-0.2-4.7,0.1l-0.5-0.2l-0.2-0.3c-0.8-0.6-1.4-1.3-2.1-2l-0.8-0.9l-4.9-4.3c0.2,0.1,0.6,0.2,0.8,0.1
		c0.5-0.2,0.9-0.6,1.1-1.1c0.6-1.2,0.9-3.1,0.5-4.4c-0.6-0.5-1.2-1.1-1.8-1.6c-0.9-0.7-1.8-1.5-2.7-2.2l-0.5-0.5c-2-1.3-4-2.8-6-4.2
		c-2.5-1.9-5.3-3.7-8-5.2l-0.2-0.2l-0.2-0.1l-0.4-0.3c0-1.4,0.1-2.8,0.2-4.1l0.4-0.3c0.1,0.1,0.1,0.1,0.2,0.3c0.3-0.3,0.6-0.3,1-0.3
		c-0.2,0-0.4-0.1-0.6-0.2c-0.5-0.9,0.3-3.4,0.5-4.4c-0.1-0.1-0.2-0.1-0.2-0.2l-0.1-0.1c0,0-0.1,0-0.1-0.1
		C132.8,44.8,133.1,33.4,133.1,31.3z"/>
	
		<linearGradient id="SVGID_2_" gradientUnits="userSpaceOnUse" x1="46.4943" y1="232.5997" x2="47.6178" y2="239.1485" gradientTransform="matrix(3.0769 0 0 -3.0795 4.882810e-04 769.8777)">
		<stop  offset="0" style="stop-color:#C91517"/>
		<stop  offset="1" style="stop-color:#75160D"/>
	</linearGradient>
	<path class="st4" d="M133.1,31.3c5,0.3,10,1.2,14.9,2.4c1.9,0.5,5.5,1.9,7.1,2l0.7,0.4c-0.1,2.4-0.4,9.3,0,11.4
		c0.1,0.3,0.2,0.6,0.4,0.9c-0.4,0.7-0.6,1.4-0.8,2.1c-0.2,0.4-0.2,0.5-0.6,0.7c0,0.6,0,1.1-0.2,1.6c-0.4,0.1-0.5,0.1-0.7,0.4
		c-0.3,0.6-0.3,1.5-0.3,2.1c0.4,0.6,0.8,1.1,1.4,1.6c-0.3,2.6,0,5.4-0.1,8c-1.7,0-6.5-0.4-7.8,0.2c-2-1.3-4-2.8-6-4.2
		c-2.5-1.9-5.3-3.7-8-5.2l-0.2-0.2l-0.2-0.1l-0.4-0.3c0-1.4,0.1-2.8,0.2-4.1l0.4-0.3c0.1,0.1,0.1,0.1,0.2,0.3c0.3-0.3,0.6-0.3,1-0.3
		c-0.2,0-0.4-0.1-0.6-0.2c-0.5-0.9,0.3-3.4,0.5-4.4c-0.1-0.1-0.2-0.1-0.2-0.2l-0.1-0.1c0,0-0.1,0-0.1-0.1
		C132.8,44.8,133.1,33.4,133.1,31.3z"/>
	
		<linearGradient id="SVGID_3_" gradientUnits="userSpaceOnUse" x1="47.682" y1="233.8583" x2="46.1565" y2="229.6441" gradientTransform="matrix(3.0769 0 0 -3.0795 4.882810e-04 769.8777)">
		<stop  offset="0" style="stop-color:#C61617"/>
		<stop  offset="1" style="stop-color:#E63421"/>
	</linearGradient>
	<path class="st5" d="M134.2,50.7c0.4,0.1,0.8,0.2,1.2,0c0.6-2,0.8-4.2,1.1-6.3c1.1,2.4,2,4.8,3,7.2c0.7,0.1,1.6,0.3,2.3,0.2
		c0.2-0.3,0.3-0.6,0.4-0.9c0.3-0.1,1-0.4,1.3-0.4c0.1,0,0.2,0.1,0.4,0.1c0-0.6,0-1.1,0.1-1.7l0.2,0c-0.1,1.3-0.3,2.6,0.6,3.7
		c1.3,1.5,3.1,1,4.7,1.4c0.6,0.2,1.1,0.7,1.8,0.8c0.8,0,1.4,0.4,2.1,0.3l0.1,0.1c0.4,0.6,0.8,1.1,1.4,1.6c-0.3,2.6,0,5.4-0.1,8
		c-1.7,0-6.5-0.4-7.8,0.2c-2-1.3-4-2.8-6-4.2c-2.5-1.9-5.3-3.7-8-5.2l-0.2-0.2l-0.2-0.1l-0.4-0.3c0-1.4,0.1-2.8,0.2-4.1l0.4-0.3
		c0.1,0.1,0.1,0.1,0.2,0.3C133.5,50.7,133.8,50.7,134.2,50.7z"/>
	<path class="st6" d="M132.6,51l0.4-0.3c0.1,0.1,0.1,0.1,0.2,0.3c-0.1,1.4,0.1,3.2-0.2,4.5l-0.2-0.1l-0.4-0.3
		C132.4,53.7,132.5,52.3,132.6,51z"/>
	<path class="st7" d="M144.2,49c0.8-1.7,0.9-4.1,2.6-5.2c0.8-0.5,1.8-0.5,2.7-0.3c1.2,0.3,2.9,0.9,3.5,2c0.3,0.5,0.6,1.6,0.4,2.2
		c-0.1,0.3-0.2,0.3-0.5,0.4c-0.2,0.4-0.3,0.5-0.4,0.9l0.3,0.1c0.3,0.8-1.2,4.9-1.5,5.8c-0.7-0.2-1.2-0.6-1.8-0.8
		c-1.6-0.5-3.4,0-4.7-1.4C143.9,51.6,144.1,50.2,144.2,49z"/>
	<path class="st2" d="M148,50.1c0.6,0.1,1.4,0.1,2,0.3c0.3,0.1,0.3,0.2,0.4,0.4c-0.1,0.2-0.1,0.3-0.2,0.5c-0.4,0.5-1.2,0.8-1.8,0.8
		c-0.5,0-1.1-0.1-1.5-0.5c-0.5-0.5-0.5-1.2-0.5-1.8c0.1-1.3,0.7-3.5,1.8-4.4c0.4-0.3,0.8-0.5,1.2-0.5c1.4,0.2,1.3,1.9,2,2.6
		c0.2,0.2,1.2,0.3,1.5,0.3c-0.2,0.4-0.3,0.5-0.4,0.9c-1.3-0.1-2.8-0.4-4.1-0.6L148,50.1z"/>
	<path class="st7" d="M135,40.6l2.2,0.4c0.8,1.8,1.5,3.6,2.2,5.4c0.5,0,0.7-0.1,1.1-0.4c0.2-1.5,0.4-2.9,0.7-4.3
		c0.7,0.1,1.4,0.2,2.1,0.3c-0.3,2.2-1.6,8.3-1.5,9.9c-0.7,0.1-1.6-0.1-2.3-0.2c-1-2.4-1.9-4.8-3-7.2c-0.2,2-0.5,4.3-1.1,6.3
		c-0.4,0.2-0.8,0.1-1.2,0c-0.2,0-0.4-0.1-0.6-0.2c-0.5-0.9,0.3-3.4,0.5-4.4C134.3,44.3,134.6,42.4,135,40.6z"/>
	<path class="st2" d="M139.4,46.4c0.5,0,0.7-0.1,1.1-0.4l-0.4,2.5C139.9,47.7,139.7,47,139.4,46.4z"/>
	<path class="st8" d="M155.1,35.7l0.7,0.4c-0.1,2.4-0.4,9.3,0,11.4c0.1,0.3,0.2,0.6,0.4,0.9c-0.4,0.7-0.6,1.4-0.8,2.1
		c-0.2,0.4-0.2,0.5-0.6,0.7c-0.2-1.1,0.1-2.7,0.1-3.9c0-3.6-0.1-7.2,0-10.8C154.9,36.2,154.9,36,155.1,35.7z"/>
	<path class="st2" d="M160.9,56.3c0.2,0.2,0.3,0.2,0.4,0.4c0.5,0.3,1.1,1.6,1.5,2.1c1.1,1.5,2.9,3.4,3.7,4.9
		c0.6,1.2,0.7,2.7,1.2,3.9c1.5,3.4,4.6,5.9,8.3,6.4c0.5,0.1,1.2,0.2,1.7,0.2c0.2,0,0.5-0.2,0.7-0.3c0.6-0.3,1.4-0.3,2-0.3
		c0.4,0.4-0.2,1.7,0.6,1.9l0.1-0.1c0.3,0.3,0.6,0.7,1,0.8c1.8-1.2,3.3-2.7,5.1-3.9c-1.1,2.4-1.8,4.9-2.8,7.3l1.4,1.7
		c1.5-1.2,4.6-4,6-4.8c1.4,0.1,1.5,1.2,2.6,1.8l1.2-0.7c0.4,0.6,0.7,1.3,1.1,1.9c-0.9,0.6-1.8,1.1-2.7,1.6c0.3,0.3,0.5,0.5,0.8,0.8
		c1.1,0.1,2.5,0.1,3.5,0.4c0.5,0.7,0.9,1.4,1.4,2.2c-1.2-0.1-2.5-0.2-3.6-0.4l-0.4,0.5c-0.6,0.5-1.8,1.6-2.5,1.7l-0.2-0.1
		c-0.5,1.3-1,2.6-1.5,3.9c-0.4-0.7-0.9-1.4-1.3-2.1c0,0.4-0.2,0.6-0.6,0.9c-0.4,0.3-0.9,0.6-1.3,0.9l-0.2,0
		c-0.4,0.3-0.8,0.5-1.2,0.7c-0.2-1-0.2-2-0.5-3c-0.6-0.9-1.2-2-2-2.8c-2.7-2.7-7-2.4-10.4-2.3l-5.9,0c-0.2,0.6-0.5,1.1-0.8,1.7
		l-0.2-0.1l-0.9,0.7c-0.3,0.1-0.7,0-1.1,0c-1.1-0.6-1.5-1.1-2.1-2.2l-0.2-0.1c-1.4,0-3.4-0.2-4.7,0.1l-0.5-0.2l-0.2-0.3
		c-0.8-0.6-1.4-1.3-2.1-2l-0.8-0.9l-4.9-4.3c0.2,0.1,0.6,0.2,0.8,0.1c0.5-0.2,0.9-0.6,1.1-1.1c0.6-1.2,0.9-3.1,0.5-4.4
		c-0.6-0.5-1.2-1.1-1.8-1.6c-0.9-0.7-1.8-1.5-2.7-2.2l-0.5-0.5c1.3-0.7,6.1-0.2,7.8-0.2c0.1-2.6-0.3-5.4,0.1-8l1.1,0.6
		c0.8,0.3,1.8,0.8,2.7,0.6C159.8,57.9,160.3,57.1,160.9,56.3z"/>
	<path class="st2" d="M155.8,66c3,0.5,5.6,1.6,7.4,4.2c2.8,3.8,1.5,5.7,2.2,9.5c-0.4,0.3-1,0.5-1.4,0.8c0.2,0.2,0.4,0.4,0.4,0.7
		c-0.5,0.2-1,0.4-1.5,0.7c0,0.2,0,0.5,0,0.7c-1.4,0-3.4-0.2-4.7,0.1l-0.5-0.2l-0.2-0.3c-0.8-0.6-1.4-1.3-2.1-2l-0.8-0.9l-4.9-4.3
		c0.2,0.1,0.6,0.2,0.8,0.1c0.5-0.2,0.9-0.6,1.1-1.1c0.6-1.2,0.9-3.1,0.5-4.4c0.8,0.7,1.7,1.5,2.6,2.2l0.2,0.2l0.7,0.6
		C156.1,70.4,155.6,68.1,155.8,66z"/>
	<path class="st9" d="M152.1,69.4c0.8,0.7,1.7,1.5,2.6,2.2l0.2,0.2l0.7,0.6l0.2,0.3c3,2.3,5.4,5.2,8.2,7.8c0.2,0.2,0.4,0.4,0.4,0.7
		c-0.5,0.2-1,0.4-1.5,0.7c0,0.2,0,0.5,0,0.7c-1.4,0-3.4-0.2-4.7,0.1l-0.5-0.2l-0.2-0.3c-0.8-0.6-1.4-1.3-2.1-2l-0.8-0.9l-4.9-4.3
		c0.2,0.1,0.6,0.2,0.8,0.1c0.5-0.2,0.9-0.6,1.1-1.1C152.2,72.6,152.5,70.7,152.1,69.4z"/>
	
		<linearGradient id="SVGID_4_" gradientUnits="userSpaceOnUse" x1="50.597" y1="225.5688" x2="49.0901" y2="226.1773" gradientTransform="matrix(3.0769 0 0 -3.0795 4.882810e-04 769.8777)">
		<stop  offset="0" style="stop-color:#E97263"/>
		<stop  offset="1" style="stop-color:#F19B8E"/>
	</linearGradient>
	<path class="st10" d="M152.1,69.4c0.8,0.7,1.7,1.5,2.6,2.2l0.2,0.2c-0.5,1.8,0.4,6.3-0.3,7.3l-4.9-4.3c0.2,0.1,0.6,0.2,0.8,0.1
		c0.5-0.2,0.9-0.6,1.1-1.1C152.2,72.6,152.5,70.7,152.1,69.4z"/>
	<path class="st11" d="M154.9,71.8l0.7,0.6l0.2,0.3c-0.1,1.4,0.2,6.4-0.2,7.2l-0.2,0.1l-0.8-0.9C155.3,78.1,154.4,73.6,154.9,71.8z"
		/>
	<path class="st12" d="M157.5,82.1c0.8-0.6,4.3-0.3,5.4-0.3c0,0.2,0,0.5,0,0.7c-1.4,0-3.4-0.2-4.7,0.1l-0.5-0.2L157.5,82.1z"/>
	<path class="st13" d="M155,56.9l1.1,0.6c-0.8,1.3-0.4,5.7-0.3,7.3c3.1,0.3,6,1.8,8,4.2c2.6,3.2,2.7,6.8,2.6,10.7
		c1,0.4,1.6,0.8,2.1,1.8c0,0.1,0.1,0.1,0.1,0.2c-0.5,0-1.4,0.1-1.8-0.3c-0.4-0.3-0.4-0.8-0.5-1.3c0-0.2-0.1-0.3-0.2-0.5l-0.5-0.1
		c-0.7-3.8,0.7-5.7-2.2-9.5c-1.9-2.5-4.4-3.7-7.4-4.2c-0.2,2.1,0.3,4.4-0.1,6.4l-0.7-0.6l-0.2-0.2c-0.9-0.6-1.8-1.5-2.6-2.2
		c-0.6-0.5-1.2-1.1-1.8-1.6c-0.9-0.7-1.8-1.5-2.7-2.2l-0.5-0.5c1.3-0.7,6.1-0.2,7.8-0.2C155,62.3,154.6,59.5,155,56.9z"/>
	<path class="st14" d="M150.3,67.8c0,0,0-0.1,0-0.1c-0.2-0.6-0.7-1-1.2-1.4c1.5-0.7,4.1-0.4,5.8-0.4c0,1,0.3,4.9-0.2,5.7
		c-0.9-0.6-1.8-1.5-2.6-2.2C151.5,68.9,150.9,68.4,150.3,67.8z"/>
	<path class="st7" d="M194.5,78.3l1.2-0.7c0.4,0.6,0.7,1.3,1.1,1.9c-0.9,0.6-1.8,1.1-2.7,1.6c0.3,0.3,0.5,0.5,0.8,0.8
		c1.1,0.1,2.5,0.1,3.5,0.4c0.5,0.7,0.9,1.4,1.4,2.2c-1.2-0.1-2.5-0.2-3.6-0.4l-0.4,0.5c-0.6,0.5-1.8,1.6-2.5,1.7l-0.2-0.1
		c-0.5,1.3-1,2.6-1.5,3.9c-0.4-0.7-0.9-1.4-1.3-2.1c0.3-1.2,1.6-3.2,1.4-4.4c0-0.2-0.1-0.2-0.3-0.4c-1.1,0.1-2.1,0.9-3,1.5
		c-0.2-0.3-0.4-0.7-0.7-0.9c-0.1-0.3-0.2-0.5-0.3-0.8C187.7,82.2,193.3,79.1,194.5,78.3z"/>
	<path class="st14" d="M194,83.8c0.7,0.1,1.5,0.2,2.2,0.3l-0.4,0.5c-0.6,0.5-1.8,1.6-2.5,1.7l-0.2-0.1L194,83.8z"/>
	<path class="st8" d="M192.9,81.5l1.3-0.5c0.3,0.3,0.5,0.5,0.8,0.8C194.3,81.8,193.6,81.7,192.9,81.5z"/>
	<path class="st6" d="M165.4,79.7l0.5,0.1c0.1,0.2,0.2,0.2,0.2,0.5c0,0.5,0,1,0.5,1.3c0.4,0.4,1.3,0.3,1.8,0.3
		c3.5,0,10.1-0.4,13.2,0.5c1.4,0.4,2.7,1.2,3.7,2.3c0.5,0.5,1,1,1.3,1.6c0.5,0.9,0.8,2.6,1.9,3c1.3-0.6,2-3.1,2.4-4.3
		c0.1-0.4,0.3-0.8,0.3-1.2l-0.1-0.1c-1.2,0.2-2.4,1.7-3.4,1c-0.2-0.2-0.4-0.4-0.6-0.6l0.3-0.1c0.3,0.2,0.5,0.6,0.7,0.9
		c0.9-0.6,1.9-1.4,3-1.5c0.2,0.1,0.3,0.1,0.3,0.4c0.2,1.2-1.1,3.2-1.4,4.4c0,0.4-0.2,0.6-0.6,0.9c-0.4,0.3-0.9,0.6-1.3,0.9l-0.2,0
		c-0.4,0.3-0.8,0.5-1.2,0.7c-0.2-1-0.2-2-0.5-3c-0.6-0.9-1.2-2-2-2.8c-2.7-2.7-7-2.4-10.4-2.3l-5.9,0c-0.2,0.6-0.5,1.1-0.8,1.7
		l-0.2-0.1l-0.9,0.7c-0.3,0.1-0.7,0-1.1,0c-1.1-0.6-1.5-1.1-2.1-2.2l-0.2-0.1c0-0.2,0-0.5,0-0.7c0.5-0.3,1-0.4,1.5-0.7
		c-0.1-0.3-0.3-0.4-0.4-0.7C164.4,80.1,165,80,165.4,79.7z"/>
	<path class="st15" d="M163,81.8c0.5-0.3,1-0.4,1.5-0.7c1.2,0.9,1.8,1.9,2.7,2.9l-0.9,0.7c-0.3,0.1-0.7,0-1.1,0
		c-1.1-0.6-1.5-1.1-2.1-2.2l-0.2-0.1C162.9,82.3,163,82.1,163,81.8z"/>
	<path class="st12" d="M163.1,82.6c0.7,0,1.4,0,2.1-0.1c0,0.7-0.1,1.5,0,2.3C164.1,84.2,163.7,83.7,163.1,82.6z"/>
	<path class="st16" d="M186.5,87.6l0.4-0.1c0.6,0.6,0.4,2.2,1.3,2.3c-0.4,0.3-0.8,0.5-1.2,0.7C186.8,89.6,186.8,88.6,186.5,87.6z"/>
	<path class="st7" d="M156.2,48.4c0.6-0.7,1-1.1,1.9-1.2c1.4-0.1,3,0.6,4,1.6c0.5,0.5,0.9,1.5,0.9,2.2c0,0.4-0.1,0.5-0.3,0.8
		c-0.4,0.1-0.7,0.2-1.1,0c-1-0.5-1.5-3-2.8-2.7c-0.4,0.1-0.8,0.5-1,0.9c0,0.4,0,0.6,0.2,0.9c1,1.3,3.3,1.9,3.3,3.9
		c0,0.5-0.3,1.1-0.5,1.6c-0.5,0.8-1.1,1.6-2.1,1.8c-0.9,0.2-1.9-0.3-2.7-0.6l-1.1-0.6c-0.6-0.4-1-0.9-1.4-1.6c0-0.6-0.1-1.6,0.3-2.1
		c0.2-0.3,0.3-0.3,0.7-0.4c0.2-0.5,0.2-1,0.2-1.6c0.4-0.2,0.5-0.3,0.6-0.7C155.5,49.7,155.8,49.1,156.2,48.4z"/>
	<path class="st2" d="M156.1,52.2c0.8,0.6,2.7,1.5,2.9,2.5c-0.1,0.4-0.2,0.7-0.5,0.9c-0.4,0.3-0.9,0.4-1.3,0.3
		c-0.5-0.1-0.9-0.4-1.1-0.8c-0.4-0.6-0.2-1.3-0.2-1.9C156.1,52.9,156.1,52.6,156.1,52.2z"/>
	<path class="st14" d="M154.7,51.2c0.4-0.2,0.5-0.3,0.6-0.7c0.1,0.7,0.3,1.1,0.8,1.7c0,0.4,0,0.7-0.2,1.1c-0.5-0.1-0.9-0.2-1.4-0.4
		C154.8,52.3,154.7,51.8,154.7,51.2z"/>
	<path class="st7" d="M188.5,68.3L190,70l-2.8,7.6c1.7-1.5,3.5-2.9,5.3-4.4l1.4,1.7c-0.7,0.5-1.4,1-2,1.6c-1.4,0.7-4.5,3.6-6,4.8
		l-1.4-1.7c0.9-2.4,1.7-5,2.8-7.3c-1.8,1.2-3.3,2.8-5.1,3.9c-0.4-0.1-0.7-0.5-1-0.8l-0.3-0.5C181.1,73.9,187.2,69.4,188.5,68.3z"/>
	<path class="st7" d="M171.3,53.6c1.2,0.6,2.4,1.5,3.4,2.3c0.8,0.6,1.6,1.4,1.7,2.5c0.2,2-1.3,1.9-2.1,2.9c-0.6,0.8-0.3,2.1-1,3
		c-0.6,0.7-1.4,1-2.3,1c-2.1-0.7-3.8-2.5-5.6-3.6C167.4,59,169.3,56.3,171.3,53.6z"/>
	<path class="st1" d="M169.4,59.9c0.6,0.1,1.8,0.6,2.2,1c0.3,0.3,0.5,0.6,0.5,1c0,0.5-0.5,1-0.8,1.3c-1.1-0.2-2.2-1.1-2.9-1.9
		L169.4,59.9z"/>
	<path class="st1" d="M172,56.3C172,56.3,172.1,56.3,172,56.3c0.8,0.3,1.9,1.2,2.2,1.9c0.1,0.3,0,0.5-0.1,0.8
		c-0.3,0.3-0.6,0.4-1,0.5c-0.7-0.3-1.9-0.6-2.3-1.2C170.7,57.7,171.6,56.8,172,56.3z"/>
	<path class="st7" d="M182.3,62.1c0.6,0.3,1.2,0.9,1.7,1.4c-1.2,3.4-2.7,6.7-4.1,10c-0.5-0.5-1.1-1-1.6-1.5c0.3-0.8,0.8-1.7,0.9-2.6
		l-0.2-0.2c-0.8-0.7-1.7-1.3-2.6-1.9l-1.9,1.1c-0.5-0.5-1.1-1-1.7-1.5C175.8,65.1,179.1,63.7,182.3,62.1z"/>
	<path class="st2" d="M180.8,65.2c0.1,0,0.1,0.1,0.2,0.2c-0.3,0.8-0.4,1.6-1,2.2c-0.4,0.1-0.6-0.2-1-0.4c-0.3-0.2-0.6-0.3-0.7-0.6
		C178.8,65.9,180.1,65.6,180.8,65.2z"/>
	<path class="st14" d="M79.6,82.5c0.8,0,1.7-0.1,2.5,0c9.6,0.3,19.2,0,28.8,0l11.3,0c2,0,4.2,0.1,6.2-0.1c0.3,1.3,0.7,2.5,2,3.3
		c0.7,0.4,1.7,0.5,2.1,1.1l0.4,0.1l0.2-0.5l0.2-0.1c1.3-0.4,2.7-1.1,3.3-2.4c0.3-0.5,0.4-1.1,0.5-1.6c2.4,0.4,5.1,0.2,7.5,0.1
		c3.4,0,6.8,0,10.2,0c0,4-0.2,8.1,0.4,12.1c0,0,0,0,0,0.1l-0.5,0.5c-0.7,0.2-1.3,0.5-1.7,1.2c-0.3,0.5-0.3,1-0.1,1.5
		c0.4,1.1,1.1,1.5,2,2.1c-0.2,1.2-0.3,5.9,0,7c-3.3,0.1-6.7-0.1-10-0.1c-1.5,0-3.1-0.1-4.5,0.1c-0.7,0.1-1.4,0.3-1.9,0.8
		c-1.1,1-1.3,2.2-1.3,3.6c-0.2-0.3-0.5-0.6-0.8-0.8c-4.2-4.3-9.9-3.7-15.4-3.7c-2.3,0-4.9-0.2-7.2,0.1c-0.8,0.1-1.5,0.6-2.2,0.7
		c-0.6,0.1-1.5-0.5-2.2-0.7c-0.4-0.1-0.9-0.1-1.4-0.1c-3.2,0-6.5,0.1-9.7-0.1c-2.4-1.8-4.9-3.4-7.4-5.1c-1.5-1-3.1-1.8-4.4-3
		l-0.7-0.2l-1.5-0.9l-0.6-0.3c-0.8,0.1-1.6,0.1-2.4,0.1l-0.1,0.1c-0.5-0.2-1.1-0.1-1.7-0.1c0-3,0-5.9,0-8.9l-0.1-0.5l-0.5,0.1
		L79,88.1c-0.2-1-0.1-2.2-0.1-3.2l0.1-0.2c0.2,0,0.3,0,0.5,0C79.8,84.3,79.7,83.1,79.6,82.5z"/>
	
		<linearGradient id="SVGID_5_" gradientUnits="userSpaceOnUse" x1="37.0077" y1="215.2693" x2="31.524" y2="225.6693" gradientTransform="matrix(3.0769 0 0 -3.0795 4.882810e-04 769.8777)">
		<stop  offset="0" style="stop-color:#E5231C"/>
		<stop  offset="1" style="stop-color:#B71817"/>
	</linearGradient>
	<path class="st17" d="M79.6,82.5c0.8,0,1.7-0.1,2.5,0c9.6,0.3,19.2,0,28.8,0l11.3,0c2,0,4.2,0.1,6.2-0.1c0.3,1.3,0.7,2.5,2,3.3
		c0.7,0.4,1.7,0.5,2.1,1.1c-0.4,1.9,0,3.7,0.1,5.6c0,1.8-0.1,3.6-0.1,5.4c-2.3,0-4.7,0-7,0c-1.2,0-2.5,0.2-3.6,0
		c-2.5-0.3-25.2-0.5-26.1-0.1c-0.1,0-0.1,0.1-0.2,0.1c0,0-0.1,0-0.1,0.1l0.8,0.6c-1.5,0.9-7.7-0.4-9.8,0.3l-0.7-0.2l-1.5-0.9
		l-0.6-0.3c-0.8,0.1-1.6,0.1-2.4,0.1l-0.1,0.1c-0.5-0.2-1.1-0.1-1.7-0.1c0-3,0-5.9,0-8.9l-0.1-0.5l-0.5,0.1L79,88.1
		c-0.2-1-0.1-2.2-0.1-3.2l0.1-0.2c0.2,0,0.3,0,0.5,0C79.8,84.3,79.7,83.1,79.6,82.5z"/>
	<path class="st9" d="M79.7,88.7c2,0.4,13.1,7.2,14.9,8.8l1,0.5l0.8,0.6c-1.5,0.9-7.7-0.4-9.8,0.3l-0.7-0.2l-1.5-0.9l-0.6-0.3
		c-0.8,0.1-1.6,0.1-2.4,0.1l-0.1,0.1c-0.5-0.2-1.1-0.1-1.7-0.1C79.7,94.6,79.7,91.7,79.7,88.7z"/>
	<path class="st12" d="M84.5,97.8c2.4-0.9,8.2,0.6,10.1-0.3l1,0.5l0.8,0.6c-1.5,0.9-7.7-0.4-9.8,0.3l-0.7-0.2L84.5,97.8z"/>
	<path class="st8" d="M81.5,97.6c0.2-0.4,0.3-0.8,0.8-1c0.6,0,1.2,0.6,1.6,0.9C83.1,97.6,82.3,97.6,81.5,97.6z"/>
	<path class="st13" d="M79.6,82.5c0.8,0,1.7-0.1,2.5,0c-0.6,1.6-2,1.9-2.3,2.5c-0.5,1,0.1,2.2-0.3,3.2l-0.5,0.1L79,88.1
		c-0.2-1-0.1-2.2-0.1-3.2l0.1-0.2c0.2,0,0.3,0,0.5,0C79.8,84.3,79.7,83.1,79.6,82.5z"/>
	
		<linearGradient id="SVGID_6_" gradientUnits="userSpaceOnUse" x1="28.7121" y1="218.3537" x2="34.5284" y2="214.953" gradientTransform="matrix(3.0769 0 0 -3.0795 4.882810e-04 769.8777)">
		<stop  offset="0" style="stop-color:#D94946"/>
		<stop  offset="1" style="stop-color:#EE7269"/>
	</linearGradient>
	<path class="st18" d="M96.4,98.6l0.4,0.2c3.8,2.7,7.6,5.4,11.2,8.3c-3.2,0-6.5,0.1-9.7-0.1c-2.4-1.8-4.9-3.4-7.4-5.1
		c-1.5-1-3.1-1.8-4.4-3C88.6,98.2,94.9,99.4,96.4,98.6z"/>
	<path class="st13" d="M95.6,98C95.6,98,95.6,97.9,95.6,98c0.1-0.1,0.2-0.1,0.2-0.1c0.9-0.5,23.6-0.3,26.1,0.1c-1,0.2-3.3-0.2-4,0.4
		c1.3,0.1,3.4-0.3,4.5,0.1c-0.8,0.5-22.4,0.1-25.6,0.4l-0.4-0.2L95.6,98z"/>
	
		<linearGradient id="SVGID_7_" gradientUnits="userSpaceOnUse" x1="35.9922" y1="231.3802" x2="34.8133" y2="239.3686" gradientTransform="matrix(3.0769 0 0 -3.0795 4.882810e-04 769.8777)">
		<stop  offset="0" style="stop-color:#BF1818"/>
		<stop  offset="1" style="stop-color:#72160D"/>
	</linearGradient>
	<path class="st19" d="M92,37c1.7-1,3.9-1.5,5.8-2c11.4-3.4,22.9-4.4,34.8-3.8l0.5,0.1c0,2.1-0.3,13.6,0.6,14.5c0,0,0.1,0,0.1,0.1
		l0.1,0.1c0.1,0.1,0.2,0.1,0.2,0.2c-0.2,1-0.9,3.5-0.5,4.4c0.2,0.1,0.4,0.1,0.6,0.2c-0.4,0-0.7,0-1,0.3c0-0.2,0-0.2-0.2-0.3
		l-0.4,0.3c-0.1,1.4-0.2,2.8-0.2,4.1l0.4,0.3l-0.3,0.1c-0.5,2-0.2,4.3-0.3,6.4c-1.6-1-3.2-2.1-4.8-3l-1.2-0.8
		c-3.1-1.3-6.5-4.2-9.7-5.1c-0.3-0.1-0.5-0.1-0.8-0.2c-0.4-0.1-0.7-0.1-1,0.1c-0.9,0.5-1.5,1.3-2.4,1.9c-3.2,2-7,3.5-10.6,4.5
		c-1.9,0.5-3.8,0.3-5.6,1.2c-0.9,0.4-2.1,1.1-2.3,2.1c-0.1,0.5,0.2,0.8,0,1.1c-1.9-0.9-3.4-2.3-4.8-3.9l-0.5,0.2
		c-0.9-2.5-3.5-6.8-4.9-9.2c1-0.6,2.1-1.2,3.1-1.8l1.1-0.6c-0.6-2-0.2-4.7-0.2-6.7l-0.9-0.2c-0.1-0.8-0.1-1.7-0.1-2.5l0.8-0.4
		C88.9,38.1,90.4,37.5,92,37z"/>
	<path class="st1" d="M92,37c0.8,0.7,4,1.5,5.2,1.9c2.3,0.8,4.7,1.6,7,2.5c1.7,0.7,3.4,1.6,5.2,2c-0.4,2.2-0.8,4.3-1.1,6.5l-0.4,2.2
		c0.7-0.1,1.7-0.1,2.2-0.6c0.2-0.4,0.2-0.7,0.2-1.2c1.3,0.2,5,2.1,6.2,2.8c-0.3-0.1-0.5-0.1-0.8-0.2c-0.4-0.1-0.7-0.1-1,0.1
		c-0.9,0.5-1.5,1.3-2.4,1.9c-3.2,2-7,3.5-10.6,4.5c-1.9,0.5-3.8,0.3-5.6,1.2c-0.9,0.4-2.1,1.1-2.3,2.1c-0.1,0.5,0.2,0.8,0,1.1
		c-1.9-0.9-3.4-2.3-4.8-3.9l-0.5,0.2c-0.9-2.5-3.5-6.8-4.9-9.2c1-0.6,2.1-1.2,3.1-1.8l1.1-0.6c-0.6-2-0.2-4.7-0.2-6.7l-0.9-0.2
		c-0.1-0.8-0.1-1.7-0.1-2.5l0.8-0.4C88.9,38.1,90.4,37.5,92,37z"/>
	<path class="st20" d="M92,37c0.8,0.7,4,1.5,5.2,1.9c2.3,0.8,4.7,1.6,7,2.5c1.7,0.7,3.4,1.6,5.2,2c-0.4,2.2-0.8,4.3-1.1,6.5
		c0-0.3,0-0.4-0.2-0.6c-0.3-0.2-0.6-0.4-1-0.5c-0.5-0.1-1-0.2-1.5,0c-0.1-0.2-0.3-0.3-0.4-0.4c-0.7-0.8-1.3-0.8-2.3-0.8l0.3-0.2
		l-0.1-0.1c0.1-0.3,0.1-0.5,0-0.8l-0.5-0.1c0.7-0.3,1.3-0.6,2-1c-0.3-0.4-0.5-0.9-0.9-1.3c-0.6-0.5-1.4-0.7-2.2-0.7
		c-1.5,0.1-3,0.8-4,1.9c-0.5-0.8-8.5-3.1-9.9-3.4l-0.9-0.2c-0.1-0.8-0.1-1.7-0.1-2.5l0.8-0.4C88.9,38.1,90.4,37.5,92,37z"/>
	<path class="st21" d="M87.4,38.7c0.3,0.3,0.3,0.8,0.3,1.2c0,0.6,0,1.3-0.1,1.9l-0.9-0.2c-0.1-0.8-0.1-1.7-0.1-2.5L87.4,38.7z"/>
	<path class="st7" d="M87.8,48.6c0.9-0.3,1.8-0.4,2.7,0c0.6,0.3,1,1.1,1.2,1.7c0.2,0.7,0,2.1,0.2,2.6c0.3,0.9,2.7,2.8,3.4,3.6
		l-1.9,0.9c-1-1-2-2-2.9-3.1c-0.6,0.5-1.3,1-1.9,1.4c0.6,1.1,1.2,2.3,1.9,3.2c-0.5,0.3-1.1,0.6-1.6,1l-0.5,0.2
		c-0.9-2.5-3.5-6.8-4.9-9.2c1-0.6,2.1-1.2,3.1-1.8L87.8,48.6z"/>
	<path class="st1" d="M87.6,50.8c0.5-0.3,0.9-0.5,1.4-0.3c0.3,0.1,0.6,0.3,0.7,0.6c0.2,0.4,0.2,0.9,0,1.3c-0.4,0.9-1.3,1.2-2,1.8
		L87.7,54c-0.3-0.9-0.9-1.7-1.4-2.5L87.6,50.8z"/>
	<path class="st14" d="M86.3,51.5l1.4-0.7c0.3,0.9,0.2,2.3,0.1,3.2C87.4,53.1,86.8,52.3,86.3,51.5z"/>
	<path class="st7" d="M97.5,45.2c1-1.1,2.5-1.9,4-1.9c0.8,0,1.6,0.2,2.2,0.7c0.4,0.3,0.7,0.8,0.9,1.3c-0.6,0.4-1.3,0.8-2,1l0.5,0.1
		c0.1,0.3,0.1,0.5,0,0.8l0.1,0.1l-0.3,0.2c1,0,1.6,0,2.3,0.8c0.1,0.1,0.3,0.3,0.4,0.4c0.4,0.9,0.7,1.9,0.5,2.8
		c-0.2,0.7-0.6,1.3-1.2,1.7c-1.2,0.7-2.9,1.1-4.3,0.7c-0.6-0.2-1.4-0.5-1.7-1.1c-0.2-0.3-0.1-0.6,0-0.9c0.2-0.6,1-0.9,1.6-1.1
		c0.3,0.5,0.7,1.1,1.2,1.3c0.5,0.2,1.2,0,1.7-0.3c0.3-0.1,0.5-0.3,0.6-0.7c0.1-0.3,0-0.7-0.1-1c-0.7-1.1-3.3-0.2-4.5-0.5
		c-0.7-0.2-1.3-0.6-1.6-1.2C97.2,47.5,97.2,46.1,97.5,45.2z"/>
	<path class="st2" d="M100.5,45.4c0.4-0.1,0.9-0.2,1.3,0c0.3,0.2,0.5,0.7,0.9,0.9l0.5,0.1c0.1,0.3,0.1,0.5,0,0.8l0.1,0.1l-0.3,0.2
		l-0.3,0c-0.7,0.1-1.4,0.2-2,0.2c-0.4,0-0.7-0.1-1-0.4c-0.2-0.4-0.3-0.6-0.2-1.1C99.8,45.7,100,45.6,100.5,45.4z"/>
	<path class="st8" d="M100.5,45.4c0.4-0.1,0.9-0.2,1.3,0c0.3,0.2,0.5,0.7,0.9,0.9l0.5,0.1c0.1,0.3,0.1,0.5,0,0.8l0.1,0.1l-0.3,0.2
		l-0.3,0C102.7,45.7,101.8,47.2,100.5,45.4z"/>
	
		<linearGradient id="SVGID_8_" gradientUnits="userSpaceOnUse" x1="37.1574" y1="234.8785" x2="40.7485" y2="230.6062" gradientTransform="matrix(3.0769 0 0 -3.0795 4.882810e-04 769.8777)">
		<stop  offset="0" style="stop-color:#AA3C38"/>
		<stop  offset="1" style="stop-color:#DA685E"/>
	</linearGradient>
	<path class="st22" d="M109.7,41.4l2.1-0.4c1,1.7,2,3.4,3.1,5.1c1.3,0,2.4,1.5,3.6,1c0.5,1.1,0.9,2.2,1.3,3.3c0.7,0,1.5,0.1,2.1-0.3
		c0.1-0.2,0.2-0.4,0.2-0.6c0.1,0.1,0.2,0.3,0.4,0.3c2.3,0.8,4.3,2.6,6.6,3.4c0.4,0.2,0.8,0.5,1.1,0.8c0.7,0.4,1.5,0.9,2.2,1.1
		l0.4,0.3l-0.3,0.1c-0.5,2-0.2,4.3-0.3,6.4c-1.6-1-3.2-2.1-4.8-3l-1.2-0.8c-3.1-1.3-6.5-4.2-9.7-5.1c-1.2-0.8-4.9-2.7-6.2-2.8
		c0,0.4,0,0.8-0.2,1.2c-0.5,0.5-1.5,0.5-2.2,0.6l0.4-2.2c0.4-2.2,0.7-4.3,1.1-6.5L109.7,41.4z"/>
	<path class="st7" d="M109.7,41.4l2.1-0.4c1,1.7,2,3.4,3.1,5.1c0.8,1.4,1.6,2.8,2.5,4.2l-2.3,0.4c-0.5-0.8-0.9-1.5-1.3-2.3
		c-0.8,0.2-3,0.6-3.4,1.3c-0.1,0.2-0.2,0.4-0.2,0.6c0,0.4,0,0.8-0.2,1.2c-0.5,0.5-1.5,0.5-2.2,0.6l0.4-2.2c0.4-2.2,0.7-4.3,1.1-6.5
		L109.7,41.4z"/>
	<path class="st8" d="M111.3,44.4c0.1,0,0.1,0.1,0.2,0.1c0.6,0.5,1.1,1.4,1,2.2c-0.3,0.3-0.6,0.3-1,0.5c-0.3,0.1-0.4,0.2-0.7,0.1
		C110.8,46.4,111.1,45.3,111.3,44.4z"/>
	
		<linearGradient id="SVGID_9_" gradientUnits="userSpaceOnUse" x1="41.8456" y1="231.7855" x2="43.1694" y2="230.5941" gradientTransform="matrix(3.0769 0 0 -3.0795 4.882810e-04 769.8777)">
		<stop  offset="0" style="stop-color:#DE786F"/>
		<stop  offset="1" style="stop-color:#F6B3A0"/>
	</linearGradient>
	<path class="st23" d="M130.2,54c0.7,0.4,1.5,0.9,2.2,1.1l0.4,0.3l-0.3,0.1c-0.5,2-0.2,4.3-0.3,6.4c-1.6-1-3.2-2.1-4.8-3l-1.2-0.8
		c0.3-0.2,0.6,0.1,1,0.1c0.7-0.9,1.4-2.1,2.3-2.7c0.4-0.3,0.9-0.5,1.4-0.8c-0.2-0.2-0.4-0.3-0.5-0.6C130.2,54.1,130.2,54,130.2,54z"
		/>
	<path class="st7" d="M122.6,40c0.7-0.1,1.5-0.1,2.2-0.2c-0.7,3.2-1.7,6.4-2.6,9.6c0,0.2-0.1,0.4-0.2,0.6c-0.6,0.3-1.4,0.3-2.1,0.3
		c-0.5-1.1-0.8-2.2-1.3-3.3l-2.7-6.7c0.8,0,1.6,0,2.3-0.1c0.9,2.3,1.8,4.7,2.7,7C121.1,44.9,121.9,42.4,122.6,40z"/>
	<path class="st14" d="M132.6,31.2l0.5,0.1c0,2.1-0.3,13.6,0.6,14.5c0,0,0.1,0,0.1,0.1l0.1,0.1c0.1,0.1,0.2,0.1,0.2,0.2
		c-0.2,1-0.9,3.5-0.5,4.4c0.2,0.1,0.4,0.1,0.6,0.2c-0.4,0-0.7,0-1,0.3c0-0.2,0-0.2-0.2-0.3l-0.4,0.3c-0.3-1.2,0-2.6-0.3-3.9
		c-0.1-0.9,0-1.8,0.1-2.8l0-5.2C132.4,36.5,132.2,33.8,132.6,31.2z"/>
	<path class="st8" d="M132.3,47.1c0.3,1.3,0,2.6,0.3,3.9c-0.1,1.4-0.2,2.8-0.2,4.1c-0.7-0.2-1.5-0.7-2.2-1.1
		c-0.3-0.3-0.7-0.5-1.1-0.8c0.8,0.1,1.4,0.7,2.2,0.9c0.2-0.2,0.3-0.3,0.5-0.4l0.3,0.1l0.2,0.5c0-0.1,0.1-0.2,0-0.3
		c-0.1-0.9-0.2-4.9-0.1-5.8L132.3,47.1z"/>
	<path class="st7" d="M126.7,40c1.6,0,3.3,0.1,4.9,0.2c0,0.2,0,0.4,0,0.6c0,1.4-0.8,0.7-1.4,1.3c-0.2,0.7-0.7,5.8-0.5,6.3
		c0.5,0,0.8,0.1,1.3,0.3c0.3,0.5,0.2,0.8,0.2,1.3c-0.1,0.2-0.1,0.1-0.3,0.2c-0.5,0.2-4.1-0.1-4.6-0.3c-0.2-0.4-0.3-0.6-0.3-1
		c0.3-0.4,0.9-0.4,1.3-0.7c0.3-0.2,0.4-0.5,0.5-0.9c0.1-0.8,0.4-5,0-5.5c-0.4,0-0.6,0-0.9-0.2C126.6,41.1,126.7,40.5,126.7,40z"/>
	<path class="st13" d="M93.8,63.8c0.1-0.3-0.2-0.6,0-1.1c0.3-1,1.4-1.7,2.3-2.1c1.8-0.8,3.7-0.6,5.6-1.2c3.6-1,7.4-2.6,10.6-4.5
		c0.9-0.5,1.5-1.4,2.4-1.9c0.3-0.2,0.6-0.2,1-0.1c0.3,0.1,0.5,0.1,0.8,0.2c3.2,0.9,6.6,3.8,9.7,5.1l1.2,0.8c1.6,0.9,3.2,2,4.8,3
		c0.1-2.1-0.2-4.4,0.3-6.4l0.3-0.1l0.2,0.1l0.2,0.2c2.7,1.5,5.5,3.3,8,5.2c2,1.4,3.9,2.9,6,4.2l0.5,0.5c0.9,0.7,1.7,1.6,2.7,2.2
		c0.6,0.5,1.2,1,1.8,1.6c0.4,1.3,0.1,3.2-0.5,4.4c-0.2,0.5-0.6,0.9-1.1,1.1c-0.2,0.1-0.6-0.1-0.8-0.1l4.9,4.3l0.8,0.9
		c0.7,0.7,1.4,1.4,2.1,2l0.2,0.3c-0.6,0.3-1.3,0.2-2,0.1c-0.5,4,0.3,8.7-0.2,12.5l-0.3-0.2c0,0,0,0,0-0.1c-0.5-4-0.3-8.1-0.4-12.1
		c-3.4,0-6.8,0-10.2,0c-2.4,0-5.1,0.3-7.5-0.1c-0.1,0.6-0.3,1.1-0.5,1.6c-0.7,1.3-2,2-3.3,2.4l-0.2,0.1l-0.2,0.5l-0.4-0.1
		c-0.4-0.6-1.5-0.7-2.1-1.1c-1.3-0.7-1.7-1.9-2-3.3c-2,0.2-4.2,0.1-6.2,0.1l-11.3,0c-9.6,0-19.2,0.3-28.8,0l0-0.6l0.2-0.1
		c1.4-0.2,3,0,4.5,0l9.3,0l24.9-0.3c1,0,6.7,0.3,7.2,0c0,0,0.9-2.3,1.7-2.9c0.5-0.4,1.2-0.6,1.8-0.9c0.3-0.1,0.4-0.3,0.5-0.6
		c0.2-0.9,0.1-2.5-0.1-3.4c-0.1-0.7-0.7-1.2-0.9-1.9c-0.5-1.7-0.5-3.9-1.4-5.4c-0.1-0.1-0.2-0.2-0.4-0.2c-1.8-0.3-3.8,0-5.6-0.1
		c-5-0.2-10-0.3-15.1-0.3c-1.9,0-4-0.2-5.9,0.1c-0.4,0.1-0.7,0.2-1,0.5l-0.1,0.1l0.1-0.9c0.1-0.3,0-0.4-0.1-0.7l0.2-0.3
		c-0.5-0.7-1-1-1.7-1.4c-0.7,0-1.4-0.1-2.1,0.1c-0.7,0.2-1,0.6-1.4,1.2c0,0-0.1,0-0.1,0C95.9,64.8,94.6,64.3,93.8,63.8z"/>
	<path class="st2" d="M93.8,63.8c0.1-0.3-0.2-0.6,0-1.1c0.3-1,1.4-1.7,2.3-2.1c1.8-0.8,3.7-0.6,5.6-1.2c3.6-1,7.4-2.6,10.6-4.5
		c0.9-0.5,1.5-1.4,2.4-1.9c0.3-0.2,0.6-0.2,1-0.1c0.3,0.1,0.5,0.1,0.8,0.2c3.2,0.9,6.6,3.8,9.7,5.1l1.2,0.8c0,0,0,0.1,0,0.1
		c0.9,1.6,5.3,2.4,4.6,4.9c-0.1,0.3-0.2,0.5-0.5,0.7c-0.3,0.2-0.7,0.2-1.1,0.2c-1.5,0.1-3.1,0-4.6,0c-5.7,0.1-11.4,0.2-17.1,0.2
		c-1.5,0-5.1,0.2-6.4-0.2c-0.1,0-0.2-0.1-0.3-0.1c-0.5-0.7-1-1-1.7-1.4c-0.7,0-1.4-0.1-2.1,0.1c-0.7,0.2-1,0.6-1.4,1.2
		c0,0-0.1,0-0.1,0C95.9,64.8,94.6,64.3,93.8,63.8z"/>
	
		<linearGradient id="SVGID_10_" gradientUnits="userSpaceOnUse" x1="48.0798" y1="228.6743" x2="43.5691" y2="229.0312" gradientTransform="matrix(3.0769 0 0 -3.0795 4.882810e-04 769.8777)">
		<stop  offset="0" style="stop-color:#FCE2E1"/>
		<stop  offset="1" style="stop-color:#FFFFFF"/>
	</linearGradient>
	<path class="st24" d="M132.8,55.4l0.2,0.1l0.2,0.2c2.7,1.5,5.5,3.3,8,5.2c2,1.4,3.9,2.9,6,4.2l0.5,0.5c0.9,0.7,1.7,1.6,2.7,2.2
		c0.6,0.5,1.2,1,1.8,1.6c0.4,1.3,0.1,3.2-0.5,4.4c-0.2,0.5-0.6,0.9-1.1,1.1c-0.2,0.1-0.6-0.1-0.8-0.1c-1.6-1.3-3.2-2.8-5-4l-0.6-0.7
		c-0.6-0.1-7.4-5.2-8.4-6l-0.9-0.7c-0.5-0.3-1-0.6-1.5-0.9l-0.5-0.3l-0.2,0l-0.3-0.3c0.1-2.1-0.2-4.4,0.3-6.4L132.8,55.4z"/>
	
		<linearGradient id="SVGID_11_" gradientUnits="userSpaceOnUse" x1="49.4862" y1="226.7965" x2="47.7241" y2="227.3949" gradientTransform="matrix(3.0769 0 0 -3.0795 4.882810e-04 769.8777)">
		<stop  offset="0" style="stop-color:#F19A8B"/>
		<stop  offset="1" style="stop-color:#F9CDC9"/>
	</linearGradient>
	<path class="st25" d="M147.6,65.6c0.9,0.7,1.7,1.6,2.7,2.2c0.6,0.5,1.2,1,1.8,1.6c0.4,1.3,0.1,3.2-0.5,4.4
		c-0.2,0.5-0.6,0.9-1.1,1.1c-0.2,0.1-0.6-0.1-0.8-0.1c-1.6-1.3-3.2-2.8-5-4l-0.6-0.7c0.7,0,1.9,1.2,2.4,1.7c0.5-1.2,1.8-4.1,1.4-5.4
		c-0.6-0.2-1.1-0.2-1.7-0.3C146.6,66.1,147.1,66,147.6,65.6C147.5,65.7,147.5,65.6,147.6,65.6z"/>
	
		<linearGradient id="SVGID_12_" gradientUnits="userSpaceOnUse" x1="43.5213" y1="231.6483" x2="44.2713" y2="230.3241" gradientTransform="matrix(3.0769 0 0 -3.0795 4.882810e-04 769.8777)">
		<stop  offset="0" style="stop-color:#ED9E90"/>
		<stop  offset="1" style="stop-color:#FCD9C5"/>
	</linearGradient>
	<path class="st26" d="M132.8,55.4l0.2,0.1l0.2,0.2c2.7,1.5,5.5,3.3,8,5.2c-0.4,0-0.5,0-0.8-0.3c-0.1-0.1-0.2-0.2-0.4-0.2
		c-0.3-0.1-0.7,0.3-0.9,0.5l-0.2-0.1l0.1-0.3c-0.2-0.1-0.5-0.2-0.6-0.4l0.9-0.1c-0.3-0.2-0.7-0.7-1.1-0.7c0.1,0.3,0.2,0.3,0.1,0.6
		c-0.5,0.1-0.8-0.3-1.2-0.3c-0.7,0.1-2.1,1-2.6,1.6c0,0,0.2,0,0.2,0.1c0.1,0.1,0.2,0.1,0.2,0.3c0,0,0,0.1,0,0.1
		c0.7-0.4,1.4-0.9,2.2-1c-0.8,0.5-2.2,1.2-2.4,2.2c0,0.2-0.1,0.4,0,0.6c-0.5-0.3-1-0.6-1.5-0.9l-0.5-0.3l-0.2,0l-0.3-0.3
		c0.1-2.1-0.2-4.4,0.3-6.4L132.8,55.4z"/>
	<path class="st15" d="M132.8,55.4l0.2,0.1l0.2,0.2c0,1.1,0.3,5.9-0.1,6.5l-0.2,0.1l-0.2,0l-0.3-0.3c0.1-2.1-0.2-4.4,0.3-6.4
		L132.8,55.4z"/>
	<path class="st7" d="M137.1,60.6c0.7-0.1,1.2,0.2,1.7,0.6c-0.4,0.9-2.9,0.3-3.2,3l-0.9-0.7c0-0.2,0-0.4,0-0.6
		C135,61.9,136.3,61.2,137.1,60.6z"/>
	<path class="st16" d="M133,64.9c0-0.8-0.1-1.7,0.3-2.4c0.5,0.3,1,0.6,1.5,0.9l0.9,0.7c1,0.8,7.8,5.8,8.4,6l0.6,0.7
		c-1,0-4.6-3.3-5.8-4c-0.3-0.2-0.7-0.3-1-0.4c-1-0.2-2,0-3-0.1c-0.6-0.1-1.1-0.5-1.8-0.3c-0.4,0.6,0,10.7-0.4,11.4
		c-0.1-0.3-0.4-10.3-0.4-11.5c-0.7,0-1.6,0-2.3-0.3c0.6,0,1.6,0.1,2.1-0.2l-0.2-0.3c-0.7-0.3-1.5,0-2.2-0.1c0.6-0.4,1.9-0.1,2.6-0.3
		c0.1,0,0.1,0,0.2,0C132.7,65,132.7,65,133,64.9z"/>
	<path class="st13" d="M133,64.9c0-0.8-0.1-1.7,0.3-2.4c0.5,0.3,1,0.6,1.5,0.9l0.9,0.7c-0.2,0.4-0.2,0.4-0.6,0.5
		C134.6,64.9,133.4,65.1,133,64.9z"/>
	<path class="st16" d="M132.5,62.2l0.2,0l0.5,0.3c-0.4,0.7-0.3,1.6-0.3,2.4c-0.3,0-0.3,0-0.5-0.1C132.3,64,132.1,63,132.5,62.2z"/>
	<path class="st14" d="M130.3,82.6c0.2-0.1,0.4-0.1,0.6-0.2c0.4-0.1,0.9,0,1.2,0.2c0.2,0.1,0.3,0.3,0.4,0.5c0.1,0.4,0.1,0.8-0.1,1.2
		c-0.1,0.1-0.2,0.2-0.3,0.4c0.2,0.2,0.4,0.4,0.7,0.6l0.3-0.1c0.3-0.8-0.3-1.8,0.2-2.7c0.5-0.2,0.9,0.1,1.4,0.1c0.5,0,1-0.2,1.5-0.1
		l0.2,0.3c0,0.2,0,0.4-0.1,0.6c-0.4,1-1.7,2.1-2.7,2.5c-0.7,0.3-1.7,0-2.4-0.3c-0.9-0.4-1.9-1.3-2.1-2.3c-0.1-0.4-0.1-0.5,0.1-0.8
		C129.7,82.3,129.9,82.4,130.3,82.6z"/>
	<path class="st14" d="M130.3,82.6c0.2-0.1,0.4-0.1,0.6-0.2c0.4-0.1,0.9,0,1.2,0.2c0.2,0.1,0.3,0.3,0.4,0.5c0.1,0.4,0.1,0.8-0.1,1.2
		c-0.1,0.1-0.2,0.2-0.3,0.4c-0.4,0-0.6-0.1-0.9-0.4C130.6,83.8,130.4,83.3,130.3,82.6z"/>
	<path class="st14" d="M131.7,78.6c0.4,0,0.5,0,0.8,0.2c0,0.9,0,2-0.1,2.8c-0.5,0.3-1.3,0.2-1.9,0.1c-0.2,0.1-0.4,0.1-0.6,0.2
		c-0.4,0.1-0.5,0-0.7-0.2c0-0.2,0-0.4,0.1-0.6C129.7,80,130.6,79.1,131.7,78.6z"/>
	<path class="st14" d="M133.1,78.5c0.8,0.2,1.5,0.5,2.1,1c0.7,0.6,1.2,1.5,1.2,2.4c-1.1-0.2-2.2-0.2-3.3-0.1
		C133.1,80.9,132.9,79.3,133.1,78.5z"/>
	<path class="st1" d="M55.6,61.6l0.5,0.1c0.1,2.4,1.1,4.9,2.9,6.5c0.9,0.8,2.1,1.4,3.3,1.4c-0.3-0.3-0.6-0.5-0.7-0.9
		c0.8-1.4,2.9-3.7,4.5-4.1c0.8-0.2,1.5-0.1,2.2,0.4c1,0.6,1.6,1.7,1.9,2.8c-0.3,0.9-0.6,1.7-1.2,2.5c3.2,0.2,6.1,0.7,8.4,3.3
		c0.8,0.9,1.3,1.9,1.7,3c0.2,0.7,0.3,2.6,0.7,3c0.9,0.9,1.7,0.5,2.2,2.1l0.3,0.2l-0.2,0.1l0,0.6c-0.8-0.1-1.7,0.1-2.5,0
		c0,0.6,0.2,1.8-0.2,2.3c-0.2,0-0.3,0-0.5,0l-0.1,0.2c0,1-0.1,2.3,0.1,3.2c-4.2-2-8.3-3.9-12.6-5.7c-0.6-0.3-1.5-0.5-2-1
		c-0.3,0.3-0.6,0.8-0.9,1.2c-1.6-1.3-3.3-2.6-5-3.8c-0.4,0.3-0.6,0.4-1.1,0.3c-0.3,0-0.5-0.2-0.8-0.3c-0.5,0.4-0.9,0.4-1.5,0.4
		c-0.5,0.1-1,0.1-1.4,0.3l-1,1l-1.7,3c0,0,0,0-0.1,0c-2.5-1.4-6.3-1.6-9.1-2c0.9-1.8,1.9-3.6,3-5.4c1-1.7,2-3.3,3.2-4.9l0.2-0.3
		c1.2-1.4,2.2-3,3.4-4.4c1.3-1.6,2.7-3.1,3.9-4.7L55.6,61.6z"/>
	<path class="st20" d="M44.7,76.2c2.6,0.5,5.2,1,7.8,1.6l0,0.1l0.6,0.1l0.2,0.3c0.1,0.4,0.1,0.9,0.2,1.3l-1,1l-1.7,3c0,0,0,0-0.1,0
		c-2.5-1.4-6.3-1.6-9.1-2C42.6,79.7,43.6,77.9,44.7,76.2z"/>
	<path class="st9" d="M52.5,77.8l0.6,0.1l0.2,0.3c0.1,0.4,0.1,0.9,0.2,1.3l-1,1C52.3,79.8,52.4,78.7,52.5,77.8z"/>
	<path class="st7" d="M62.3,69.6c-0.3-0.3-0.6-0.5-0.7-0.9c0.8-1.4,2.9-3.7,4.5-4.1c0.8-0.2,1.5-0.1,2.2,0.4c1,0.6,1.6,1.7,1.9,2.8
		c-0.3,0.9-0.6,1.7-1.2,2.5L68.5,71c0,0-0.1,0.1-0.1,0.1c-0.2,0.2-0.5,0.5-0.4,0.7c0.1,0.8,1.9,2,2.5,2.5L69,76
		c-1.8-1.7-3.5-3.4-5.3-5.1C63.2,70.5,62.7,70.1,62.3,69.6z"/>
	<path class="st1" d="M65.9,66.5c1,0.2,1.5,0.9,2,1.6c-0.4,0.9-1.2,1.8-1.7,2.7c-0.6-0.9-1.4-1.6-2.2-2.4
		C64.6,67.7,65.2,67.1,65.9,66.5z"/>
	<path class="st7" d="M59.1,71.5l1.5,1c-0.8,1.1-1.8,2.3-2.5,3.5c0.5,0.3,1.3,1.2,1.8,1.3c0.8-0.5,1.6-2.5,2.1-3.3l1.5,1.1
		c-0.7,1.2-1.5,2.3-2.1,3.5c0.7,0.4,1.2,0.8,1.8,1.3c0.8-1.1,1.7-2.3,2.6-3.4l1.5,1.1c-1,1.3-2.1,2.6-2.9,3.9
		c-0.3,0.3-0.6,0.8-0.9,1.2c-1.6-1.3-3.3-2.6-5-3.8c-1-0.7-2-1.5-3.1-2.2C56.6,74.9,57.8,73.2,59.1,71.5z"/>
	<path class="st1" d="M47.9,71.3c0.8,1.4,4.6,0,4.6,6.5c-2.6-0.6-5.2-1.1-7.8-1.6C45.7,74.5,46.8,72.8,47.9,71.3z"/>
	<path class="st14" d="M69,70.3c3.2,0.2,6.1,0.7,8.4,3.3c0.8,0.9,1.3,1.9,1.7,3c0.2,0.7,0.3,2.6,0.7,3c0.9,0.9,1.7,0.5,2.2,2.1
		l0.3,0.2l-0.2,0.1c-0.8-0.1-1.7-0.1-2.5-0.1c0-0.6,0.1-1.3-0.1-1.9c-0.1-0.3-0.1-0.3-0.4-0.5c-1-1.9-0.2-2.6-2.1-5
		c-2.4-3-5.1-2.9-8.5-3.3L69,70.3z"/>
	<path class="st14" d="M78.9,84.9c-0.7-0.4-1.4-0.9-1.8-1.6c-0.3-0.5-0.4-1-0.2-1.5c0.2-0.8,0.8-1.6,1.5-1.9
		c0.3-0.1,0.5-0.3,0.7-0.5l0.1-0.1c0.3,0.2,0.3,0.2,0.4,0.5c0.2,0.6,0.1,1.3,0.1,1.9c0.8,0,1.7,0.1,2.5,0.1l0,0.6
		c-0.8-0.1-1.7,0.1-2.5,0c0,0.6,0.2,1.8-0.2,2.3c-0.2,0-0.3,0-0.5,0L78.9,84.9z"/>
	<path class="st6" d="M79.1,79.4c0.3,0.2,0.3,0.2,0.4,0.5c0.2,0.6,0.1,1.3,0.1,1.9c0.8,0,1.7,0.1,2.5,0.1l0,0.6
		c-0.8-0.1-1.7,0.1-2.5,0c0,0.6,0.2,1.8-0.2,2.3c-0.2,0-0.3,0-0.5,0C78.9,83,78.8,81.1,79.1,79.4z"/>
	<path class="st14" d="M55.6,61.6l0.5,0.1c0.1,2.4,1.1,4.9,2.9,6.5c0.9,0.8,2.1,1.4,3.3,1.4c0.5,0.4,1,0.9,1.4,1.3c0,0-0.1,0-0.1,0
		c-1.3,0.2-3.2-0.8-4.2-1.6c-2.6-1.9-3.5-4.5-4-7.5L55.6,61.6z"/>
	<path class="st2" d="M48.1,71c1.7,0.4,3.2,1.1,4.2,2.6c0.7,1.2,1,2.9,0.9,4.3l-0.6-0.1l0-0.1c0.1-6.5-3.7-5.1-4.6-6.5L48.1,71z"/>
	<path class="st8" d="M53.4,78.3c1.2,0,2.1,0.5,3.2,0.6c-0.5,0.4-0.9,0.4-1.5,0.4c-0.5,0.1-1,0.1-1.4,0.3
		C53.4,79.2,53.4,78.7,53.4,78.3z"/>
	<path class="st6" d="M96.9,64.5c0.3-0.6,0.7-1,1.4-1.2c0.7-0.2,1.4-0.1,2.1-0.1c0.7,0.4,1.2,0.7,1.7,1.4l-0.2,0.3
		c0.1,0.3,0.1,0.4,0.1,0.7l-0.1,0.9l-0.7,1c-0.1,0.1-0.2,0.2-0.3,0.2c-0.6,0.4-1.3,0.5-1.9,0.3c-0.9-0.2-1.5-0.9-1.9-1.7l0-0.1
		C96.8,65.7,96.8,65.2,96.9,64.5z"/>
	<path class="st13" d="M98,64.9c1.3-0.1,2.6,0,3.9,0.1c0.1,0.3,0.1,0.4,0.1,0.7l-0.1,0.9l-0.7,1c-0.8,0-1.4-0.2-2.1-0.4
		c-0.5-0.5-1-0.9-1.5-1.4C97.1,65.5,97,65.4,97,65C97.4,64.8,97.5,64.9,98,64.9z"/>
	<path class="st16" d="M98,64.9c1.3-0.1,2.6,0,3.9,0.1c0.1,0.3,0.1,0.4,0.1,0.7c-1.2,0.1-2.8,0.7-3.9,0.1
		C97.8,65.4,97.9,65.3,98,64.9z"/>
	<path class="st14" d="M89,59.9c1.4,1.5,2.9,3,4.8,3.9c0.8,0.5,2.1,0.9,3,0.7c0,0,0.1,0,0.1,0c-0.1,0.6-0.1,1.1,0,1.8l0,0.1
		c-0.8-0.9-2.7-1.2-3.8-1.7c-1-0.4-1.9-1-2.7-1.7c-0.8-0.6-1.7-1.8-1.8-2.8L89,59.9z"/>
	<path class="st14" d="M86.7,41.6l0.9,0.2c0,2.1-0.3,4.8,0.2,6.7l-1.1,0.6C86.4,46.9,86.7,43.9,86.7,41.6z"/>
	<path class="st20" d="M83.8,40.5c0.9-0.5,1.9-1,2.9-1.4c0,0.8,0,1.7,0.1,2.5C85.7,41.2,84.7,41.1,83.8,40.5z"/>
	<path class="st7" d="M73,58.1c1.2,0,2,0.3,2.8,1.1c0.7,0.6,1.1,1.4,1.1,2.4c0,1.6-1.7,3-2.7,4c0.8,1,1.6,1.9,2.4,2.8
		c-0.4,0.4-1.2,1.2-1.7,1.4c-2.4-2.5-4.5-5.3-6.8-7.9C69.7,60.5,71.2,59,73,58.1z"/>
	<path class="st1" d="M73.1,60.1c0.5,0.1,1,0.4,1.3,0.7c0.2,0.2,0.4,0.5,0.3,0.8c0,1.1-1.1,2-1.8,2.8l-0.2,0c-0.2-1-1.1-1.8-1.8-2.5
		C71.7,61.2,72.4,60.6,73.1,60.1z"/>
	<path class="st7" d="M81.1,52.4C81.1,52.4,81.1,52.4,81.1,52.4c0.6,0.1,1,1,1.2,1.4c-1.1,0.8-2.3,1.5-3.5,2.3
		c0.4,0.6,0.7,1.5,1.2,1.9c0.5-0.1,2.5-1.9,3.2-2.4c0.3,0.5,0.6,1,0.9,1.4c-1,0.8-2.1,1.6-3.2,2.4c0.4,0.7,0.8,1.4,1.2,2
		c1.1-0.7,2.2-1.4,3.2-2.1l0.2,0c0.4,0.1,0.8,1,1.1,1.4c-1.8,1.1-3.6,2.3-5.4,3.5l-5.5-8.5C77.7,54.6,79.4,53.5,81.1,52.4z"/>
	<path class="st1" d="M58.5,78.8c1.7,1.2,3.4,2.5,5,3.8c0.3-0.4,0.6-0.9,0.9-1.2c0.5,0.5,1.4,0.7,2,1c4.3,1.8,8.4,3.7,12.6,5.7
		l0.1,0.2l0.5-0.1l0.1,0.5c0,3,0,5.9,0,8.9c0.6,0,1.2-0.1,1.7,0.1l-0.5,1c-0.3,0.2-0.6,0.5-1,0.7c0,0.7-0.2,1.2-0.5,1.8l-0.3,0.4
		l-0.3,0.4c0.1,1.7,0.1,3.4,0,5.2c-0.9,0-1.7-0.1-2.6-0.1c-2.1,0.1-4.2,0-6.3,0c-2.3-0.2-6.6-0.7-8.4,0.9c-0.8,0.7-1.1,1.6-1.2,2.7
		c-0.3,4.8,0,10,0,14.9l0,8.8c0,2.2-0.2,4.5,0.3,6.7c0.8,1.1,1.7,1.9,3.1,2.1c0.8,0.1,1.6,0.1,2.4,0.1c-0.8,5.7-1.1,11.5-1,17.2
		l0,0.6c0,3.4-0.1,6.9,0.3,10.3l0,0.1c-1.1-0.4-4.3-0.1-5.6-0.1l0,0.6l0,0.1c-0.8,0-2.7-0.2-3.4,0.2l-0.5-0.2c-1-0.2-2.4,0-3.4,0
		c0,0-0.1,0-0.1,0c-0.7-0.1-3.3-0.3-3.9,0.1c-1.4,0.1-3,0.2-4.3,0.8l-0.2-0.1c-0.6-1.8-2.5-4.8-3.5-6.8c-1.5-3-2.7-6.1-3.9-9.2
		l-0.3-0.1c-0.5-1-0.6-2.5-1.2-3.4c-0.3-0.5-2.3-1.4-2.9-1.9c-3.2-2.5-6-6.3-7.7-10c-0.3-0.7-1.4-3.2-1.3-3.9c0-0.2,0.1-0.4,0.2-0.6
		l-0.1,0c-1.2,0.5-1.6,4.2-2.8,5.3c-0.3,0.3-0.4,0.4-0.8,0.4c-0.1,0-0.2,0.1-0.2,0.1c-2,0.9-8,1.1-10.1,0.3c-0.9-0.4-1.6-1-1.9-1.9
		c-0.3-0.8-0.2-1.5,0-2.3c0.8-3.3,2.7-7.6,3.9-10.9c2.3-6.2,4.4-12.5,6.8-18.7l-0.1-0.1c0,0,0-0.1,0-0.1c0.1-0.6,1-1.1,1.5-1.4
		c0.4-0.2,0.8-0.5,1.2-0.5c1.5-0.3,6.8-0.3,8.2,0.1c0,0,0.1,0,0.1,0c1-1.4,3.9-3.1,4.2-3.6c0.7-1.2,0.9-3.2,1.2-4.5
		c0.4-1.6,2.8-9.3,3.8-10c0.8-1.1,2.4-5.6,3.5-7.4c2.8,0.4,6.6,0.6,9.1,2c0,0,0,0,0.1,0l1.7-3l1-1c0.5-0.2,0.9-0.2,1.4-0.3
		c0.6,0,1,0,1.5-0.4c0.3,0.1,0.5,0.2,0.8,0.3C57.9,79.3,58,79.1,58.5,78.8z M34.7,118.2l0.6,0.1c-0.4-0.5-0.7-0.9-0.9-1.4l-0.2,0.4
		L34.7,118.2z"/>
	<path class="st1" d="M58.5,78.8c1.7,1.2,3.4,2.5,5,3.8c0.3-0.4,0.6-0.9,0.9-1.2c0.5,0.5,1.4,0.7,2,1c4.3,1.8,8.4,3.7,12.6,5.7
		l0.1,0.2l0.5-0.1l0.1,0.5c0,3,0,5.9,0,8.9c0.6,0,1.2-0.1,1.7,0.1l-0.5,1c-0.3,0.2-0.6,0.5-1,0.7c0,0.7-0.2,1.2-0.5,1.8l-0.3,0.4
		c-0.2-0.9-0.1-1.9-0.2-2.8c-1.4,0-3.5,0.3-4.7-0.1l-0.1,0.1c-7-0.3-14.1-0.2-21.1-0.1c-0.4-0.1-0.8,0-1.3,0c-1.8,0-3.5,0-5.3,0.1
		c-0.4,0.4-0.7,0.6-1.2,0.9c0.1-0.4,0.3-0.7,0.5-1l-0.1-1c-0.1-0.3-0.2-0.6-0.3-1c-0.7-0.6-1.3-1.1-2.3-1c-0.7,0-1.3,0.4-1.7,0.9
		c-0.2,0.2-0.3,0.4-0.4,0.6c-0.3,0.3-0.4,0.5-0.8,0.5c-0.3,0-0.7,0-1,0c-1.2,0-2.6,0.2-3.9,0c0.5-0.9,0.8-2.2,1.1-3.2
		c0.7-1.9,1.4-3.7,2-5.5c0.8-1.1,2.4-5.6,3.5-7.4c2.8,0.4,6.6,0.6,9.1,2c0,0,0,0,0.1,0l1.7-3l1-1c0.5-0.2,0.9-0.2,1.4-0.3
		c0.6,0,1,0,1.5-0.4c0.3,0.1,0.5,0.2,0.8,0.3C57.9,79.3,58,79.1,58.5,78.8z"/>
	<path class="st1" d="M41.7,81.5c2.8,0.4,6.6,0.6,9.1,2c0,0,0,0,0.1,0c-0.3,0.5-0.5,0.8-0.4,1.4c0.4,0.5,1.1,0.7,1.7,1.1
		c0.1,1,0.1,2.1,0.2,3.1c0,2.8,0.1,5.6,0,8.4l-3.2,0c-0.5,0-1.1,0-1.6,0.1c-0.3,0-0.5,0-0.8,0c-0.8-0.1-1.1-0.3-1.6-0.9
		c-0.7-0.6-1.3-1.1-2.3-1c-0.7,0-1.3,0.4-1.7,0.9c-0.2,0.2-0.3,0.4-0.4,0.6c-0.3,0.3-0.4,0.5-0.8,0.5c-0.3,0-0.7,0-1,0
		c-1.2,0-2.6,0.2-3.9,0c0.5-0.9,0.8-2.2,1.1-3.2c0.7-1.9,1.4-3.7,2-5.5C39.1,87.8,40.6,83.3,41.7,81.5z"/>
	<path class="st2" d="M38.9,97.6c0.6-1.5,1.4-2.9,3-3.5c1-0.4,2-0.3,3,0.1c2,0.8,2.6,3,4.3,3.4c-0.5,0-1.1,0-1.6,0.1
		c-0.3,0-0.5,0-0.8,0c-0.8-0.1-1.1-0.3-1.6-0.9c-0.7-0.6-1.3-1.1-2.3-1c-0.7,0-1.3,0.4-1.7,0.9c-0.2,0.2-0.3,0.4-0.4,0.6
		c-0.3,0.3-0.4,0.5-0.8,0.5C39.6,97.7,39.3,97.6,38.9,97.6z"/>
	<path class="st8" d="M58.5,78.8c1.7,1.2,3.4,2.5,5,3.8c0.3-0.4,0.6-0.9,0.9-1.2c0.5,0.5,1.4,0.7,2,1c4.3,1.8,8.4,3.7,12.6,5.7
		l0.1,0.2l0.5-0.1l0.1,0.5c0,3,0,5.9,0,8.9c0.6,0,1.2-0.1,1.7,0.1l-0.5,1c-0.3,0.2-0.6,0.5-1,0.7c0,0.7-0.2,1.2-0.5,1.8l-0.3,0.4
		c-0.2-0.9-0.1-1.9-0.2-2.8c-1.4,0-3.5,0.3-4.7-0.1l0.7-1.1c0.5-1.3,1.5-2.6,2.3-3.8c-4.3-2.3-15.1-7.6-19.7-8.2
		c0.3-0.7,0.6-1.3,0.7-2c0.2-0.8,0.1-1.8-0.3-2.5c-0.6-0.9-1.9-1.5-2.9-1.7c0.6,0,1,0,1.5-0.4c0.3,0.1,0.5,0.2,0.8,0.3
		C57.9,79.3,58,79.1,58.5,78.8z"/>
	<path class="st12" d="M79.1,88.3l0.5-0.1l0.1,0.5c0,3,0,5.9,0,8.9c0.6,0,1.2-0.1,1.7,0.1l-0.5,1c-0.3,0.2-0.6,0.5-1,0.7
		c0,0.7-0.2,1.2-0.5,1.8l-0.3,0.4c-0.2-0.9-0.1-1.9-0.2-2.8c-1.4,0-3.5,0.3-4.7-0.1l0.7-1.1c1.1,0.3,2.8,0.1,4,0
		C79,94.6,78.6,91.3,79.1,88.3z"/>
	<path class="st21" d="M79.7,97.6c0.6,0,1.2-0.1,1.7,0.1l-0.5,1c-0.3,0.2-0.6,0.5-1,0.7l-0.3-0.3C79.6,98.6,79.7,98.1,79.7,97.6z"/>
	<path class="st7" d="M55.1,79.3c1.1,0.2,2.3,0.7,2.9,1.7c0.5,0.7,0.6,1.7,0.3,2.5c-0.2,0.7-0.5,1.4-0.7,2l-0.3,0.6
		c0.4,1,2.2,1.5,3.1,2l-1.1,2c-2.3-1.5-4.8-2.8-7.1-4.1c-0.6-0.4-1.2-0.5-1.7-1.1c-0.1-0.6,0.2-0.8,0.4-1.4l1.7-3l1-1
		C54.1,79.4,54.6,79.3,55.1,79.3z"/>
	<path class="st8" d="M54.4,81.4c1,0.2,1.5,0.6,2.2,1.2c-0.3,0.9-0.6,2.3-1.2,3.1c-0.6-0.9-1.7-1.3-2.6-1.8
		C53.3,83,53.7,82.2,54.4,81.4z"/>
	<path class="st14" d="M45.2,96.7c0.5,0.6,0.8,0.9,1.6,0.9c0.3,0,0.5,0,0.8,0c1.9,0.2,3.7,0.1,5.6,0.1c2.3-0.3,4.8,0,7.1,0
		c4.9,0,9.8,0,14.6-0.1l-0.7,1.1l-0.1,0.1c-7-0.3-14.1-0.2-21.1-0.1c-0.4-0.1-0.8,0-1.3,0c-1.8,0-3.5,0-5.3,0.1
		c-0.4,0.4-0.7,0.6-1.2,0.9c0.1-0.4,0.3-0.7,0.5-1l-0.1-1C45.4,97.3,45.3,97,45.2,96.7z"/>
	<path class="st2" d="M52.4,89.1c0-0.7,0-1.5,0.3-2.2l0.2,0c0.8,1.3,0.2,8.8,0.4,10.7c-1.9,0-3.7,0.1-5.6-0.1c0.5,0,1.1,0,1.6-0.1
		l3.2,0C52.5,94.7,52.4,91.9,52.4,89.1z"/>
	<path class="st2" d="M74.2,98.6c1.3,0.4,3.4,0.1,4.7,0.1c0,0.9,0,1.9,0.2,2.8l-0.3,0.4c0.1,1.7,0.1,3.4,0,5.2
		c-0.9,0-1.7-0.1-2.6-0.1c-2.1,0.1-4.2,0-6.3,0c-2.3-0.2-6.6-0.7-8.4,0.9c-0.8,0.7-1.1,1.6-1.2,2.7c-0.3,4.8,0,10,0,14.9l0,8.8
		c0,2.2-0.2,4.5,0.3,6.7c0.8,1.1,1.7,1.9,3.1,2.1c0.8,0.1,1.6,0.1,2.4,0.1c-0.8,5.7-1.1,11.5-1,17.2l0,0.6c-1.9,0.1-3.8,0-5.7,0
		l-0.1-0.3l0.1-0.1c-1.2-0.4-2.6-0.3-3.8-0.9c-1.1-0.6-1.9-1.6-2.3-2.9c-0.4-1.3-0.2-11.4,0.2-12.7c0.2-0.8,1.9-1.2,2.4-2.1
		c0.1-0.3,0.1-0.3,0-0.6c-0.4,0.2-0.7,0.8-1,1.1c-0.3,0.4-0.5,0.6-1,0.6l-0.1-0.1c0.5-0.7,1.2-1.2,1.6-1.8c0.5-0.7,0.4-1.6,0.3-2.3
		l0-0.2c-0.4-1.7,0.1-3.6-0.3-5.4l0.1-0.1c-0.3-1.2-1.6-1.6-1.7-2.3c-0.4-2.3,0.4-11.1-0.1-12.3c0.4-0.4,0.9-0.8,1.3-1.3
		c0.9-1.4,0.9-5.6,0.5-7.2c-0.3-1.4-0.9-2.1-2.1-2.8c-0.3-2.8-0.2-5.8-0.2-8.7c7,0,14.1-0.1,21.1,0.1L74.2,98.6z"/>
	
		<linearGradient id="SVGID_13_" gradientUnits="userSpaceOnUse" x1="21.294" y1="198.1938" x2="19.203" y2="203.7881" gradientTransform="matrix(3.0769 0 0 -3.0795 4.882810e-04 769.8777)">
		<stop  offset="0" style="stop-color:#B7403C"/>
		<stop  offset="1" style="stop-color:#D85A52"/>
	</linearGradient>
	<path class="st27" d="M60.6,140.9c0.8,1.1,1.7,1.9,3.1,2.1c0.8,0.1,1.6,0.1,2.4,0.1c-0.8,5.7-1.1,11.5-1,17.2l0,0.6
		c-1.9,0.1-3.8,0-5.7,0l-0.1-0.3l0.1-0.1l0.1-0.3c-0.1-1.5,0-3.2,0.1-4.8C59.7,150.6,60,145.7,60.6,140.9z"/>
	<path class="st9" d="M59.4,160.2c1.4,0,4.4-0.4,5.7,0.1l0,0.6c-1.9,0.1-3.8,0-5.7,0l-0.1-0.3l0.1-0.1L59.4,160.2z"/>
	<path class="st9" d="M74.2,98.6c1.3,0.4,3.4,0.1,4.7,0.1c0,0.9,0,1.9,0.2,2.8l-0.3,0.4c0.1,1.7,0.1,3.4,0,5.2
		c-0.9,0-1.7-0.1-2.6-0.1c-2.1,0.1-4.2,0-6.3,0c1.5-2.7,2.7-5.5,4.2-8.2L74.2,98.6z"/>
	<path class="st2" d="M76.3,107c0.5-1.7,1.7-3.5,2.6-5c0.1,1.7,0.1,3.4,0,5.2C78,107.1,77.1,107.1,76.3,107z"/>
	<path class="st8" d="M59.4,161c1.9-0.1,3.8,0.1,5.7,0c0,3.4-0.1,6.9,0.3,10.3l0,0.1c-1.1-0.4-4.3-0.1-5.6-0.1l-0.1-0.1
		C59.5,167.8,59.2,164.4,59.4,161z"/>
	<path class="st6" d="M53.6,118.6c0.5,1.2-0.3,10,0.1,12.3c0.1,0.7,1.5,1,1.7,2.3l-0.1,0.1c-0.1-0.3-0.4-0.7-0.6-1
		c-0.8-1-2.1-1.3-3.4-1.4l0-11.6C52.1,119.1,52.8,118.9,53.6,118.6z"/>
	<path class="st14" d="M55.6,138.8l0,0.2c0.1,0.8,0.2,1.7-0.3,2.3c-0.5,0.7-1.2,1.2-1.6,1.8l0.1,0.1c0.5-0.1,0.7-0.2,1-0.6
		c0.3-0.4,0.6-0.9,1-1.1c0.1,0.3,0.1,0.3,0,0.6c-0.4,0.9-2.1,1.3-2.4,2.1c-0.4,1.3-0.6,11.3-0.2,12.7c0.3,1.2,1.1,2.3,2.3,2.9
		c1.2,0.6,2.6,0.5,3.8,0.9l-0.1,0.1c-0.8,0.2-1.9,0.1-2.7-0.1c-4.2-0.8-4.1-5.6-4.2-9c0-1.5-0.2-3.1-0.1-4.7c0-0.9,0.3-2.6-0.2-3.4
		c-1.9-0.8-12.5,0.1-15.7-0.3l-0.1,0c3.4,0,6.7-0.1,10.1-0.1c2,0,4.2,0.2,6.1-0.2c0.7-0.1,1.3-0.3,1.9-0.8
		C55.3,141.3,55.5,140.1,55.6,138.8z"/>
	<path class="st14" d="M56.3,171c0.6,0.5,2.5,0.2,3.3,0.2l0.1,0.1l0,0.6l0,0.1c-0.8,0-2.7-0.2-3.4,0.2l-0.5-0.2c-1-0.2-2.4,0-3.4,0
		c0,0-0.1,0-0.1,0c-0.7-0.1-3.3-0.3-3.9,0.1c-1.4,0.1-3,0.2-4.3,0.8l-0.2-0.1c1.6-2,5.1-1.1,7.3-1.5l0.1,0l0.4,0
		c1.2,0.1,2.9,0.2,4.1,0L56.3,171z"/>
	<path class="st6" d="M40.7,97.1c0.1-0.2,0.2-0.4,0.4-0.6c0.4-0.5,1-0.9,1.7-0.9c1,0,1.6,0.4,2.3,1c0.1,0.3,0.2,0.7,0.3,1
		c-1.6-0.1-3.1,0-4.8,0.2L40.7,97.1z"/>
	<path class="st14" d="M38.9,97.6c0.3,0,0.7,0.1,1,0c0.5,0,0.6-0.2,0.8-0.5l0,0.7l0,0.6l0.1,0.3l0.1,0.7c-0.1-0.1-0.2-0.3-0.4-0.4
		c-0.7-0.6-2.7-0.4-3.5-0.4c-0.6,0-1.6,0.1-2.1-0.4l0.2-0.7C36.3,97.8,37.7,97.6,38.9,97.6z"/>
	<path class="st8" d="M51.7,98.6c0.4-0.1,0.8-0.1,1.3,0c0.1,2.9,0,5.8,0.2,8.7l-0.8-0.1c0-1.9,0.4-6.9,0.1-8.3
		C52.2,98.7,52,98.7,51.7,98.6z"/>
	<path class="st28" d="M40.7,97.8c1.6-0.2,3.1-0.2,4.8-0.2l0.1,1c-0.8-0.1-1.7,0.1-2.5,0.1c-0.8,0-1.6-0.2-2.3-0.3L40.7,97.8z"/>
	<path class="st16" d="M40.7,98.4c0.8,0.2,1.5,0.4,2.3,0.3c0.8,0,1.8-0.3,2.5-0.1c-0.2,0.3-0.4,0.7-0.5,1l-0.6,0.7
		c-2.4-0.3-2.1-1.3-3.7-1.6L40.7,98.4z"/>
	<path class="st1" d="M51.8,171.1c0.3-0.6,0.7-1.2,1.4-1.4c0.5-0.2,1-0.1,1.4,0.1c0.5,0.3,1,0.8,1.3,1.3
		C54.6,171.3,53,171.2,51.8,171.1z"/>
	<path class="st2" d="M51.4,171.1c0-0.2,0.1-0.5,0.2-0.7c0.2-0.5,0.8-1.1,1.3-1.3c0.6-0.2,1.3-0.2,1.8,0.1c0.8,0.4,1.2,1,1.6,1.8
		l-0.4,0.1c-0.3-0.5-0.8-1-1.3-1.3c-0.4-0.2-0.9-0.3-1.4-0.1c-0.7,0.2-1,0.8-1.4,1.4L51.4,171.1z"/>
	<path class="st13" d="M40.8,98.7c1.6,0.3,1.4,1.3,3.7,1.6c-0.6,0.4-1.3,0.6-2,0.5c-0.8-0.2-1.2-0.7-1.7-1.3L40.8,98.7z"/>
	<path class="st7" d="M21,110.1c2-0.2,5.6-0.5,7.4,0.2c1,0.7,8,20.8,8.9,23.7l3.7,0l0-17.9c-1.3,0-2.6,0-4-0.1l-0.1-2.6
		c1.9,0,5.5-0.4,7.1,0.3l0.2,0.6l1-0.2l0.1-0.3c2.2-0.7,4.9-0.4,7.2-0.4c-0.1,0.9-0.1,1.8-0.2,2.6c-1.3,0.1-2.6,0.1-4,0l0,16.2
		c-1.1,0.6-2.1,1.2-3.1,1.8c1.6-0.2,5.6-0.5,7,0.1c0.3,0.4,0.3,0.9,0.3,1.4c0,0.4,0,0.8-0.1,1.3c0,0.2,0,0.4,0.1,0.5
		c0,0.8,0.2,2-0.4,2.6c-1.7,0.4-18.4,0.3-20.5,0.1c-1.1-1.9-1.7-4.2-2.4-6.3c-3,0-6,0-8.9,0c-0.6,1.6-1.4,5-2.5,6.2
		c-1,0.4-2.4,0.3-3.5,0.2l-0.2-0.2l-0.4,0.1c-0.9,0.4-2.6,0.1-3.6,0c0.4-1.8,1.1-3.6,1.8-5.3l3.1-8.4l3.7-10.2
		C19.4,114.2,20,112.1,21,110.1z"/>
	<path class="st7" d="M18.2,130.4c2,0.3,4.2,0.1,6.2,0.1c2.2,0,4.4,0.1,6.6,0l0.3,1c0.2,0.3,0.4,0.4,0.7,0.5l1-0.3
		c0.2,1.7,1,3.4,1.6,5c2.9,0,6.3,0.3,9.2-0.2l0.6-0.5c0.3,0,0.7,0,1,0l0.7,0.5c2.1,0.1,4.4-0.1,6.4,0.2c0,0.2,0,0.4,0.1,0.5
		c0,0.8,0.2,2-0.4,2.6c-1.7,0.4-18.4,0.3-20.5,0.1c-1.1-1.9-1.7-4.2-2.4-6.3c-3,0-6,0-8.9,0c-0.6,1.6-1.4,5-2.5,6.2
		c-1,0.4-2.4,0.3-3.5,0.2c0.7-2.1,2-6.7,3.2-8.3c0.4-0.1,0.6-0.3,0.9-0.5C18.2,131,18.2,130.8,18.2,130.4z"/>
	<path class="st8" d="M32,132l1-0.3c0.2,1.7,1,3.4,1.6,5c2.9,0,6.3,0.3,9.2-0.2l0,0.9c-1.1-0.4-7.9-0.1-9.5-0.1
		C33.5,135.6,33.1,133.6,32,132z"/>
	<path class="st2" d="M18.2,130.4c2,0.3,4.2,0.1,6.2,0.1c2.2,0,4.4,0.1,6.6,0l0.3,1c0,0-0.1,0-0.1-0.1c-1.1-0.5-11.7-0.4-12.9,0
		C18.2,131,18.2,130.8,18.2,130.4z"/>
	<path class="st8" d="M46,136.6c2.1,0.1,4.4-0.1,6.4,0.2c0,0.2,0,0.4,0.1,0.5c-2.2,0-4.5-0.1-6.6,0.1L46,136.6z"/>
	<path class="st2" d="M45.3,136.1l0.7,0.5l-0.1,0.8c-0.1,0.1-0.2,0.2-0.2,0.3c-0.3,0.4-0.6,0.4-1,0.5c-0.4-0.2-0.7-0.4-1-0.8l0-0.9
		l0.6-0.5C44.6,136.1,45,136.1,45.3,136.1z"/>
	<path class="st7" d="M23.4,114.5c0.9,0,1.7,0,2.6,0.1l3.4,9.5c0.7,2,1.6,4,2,6.1l-0.4,0.3c-2.2,0.1-4.4,0-6.6,0
		c-2,0-4.2,0.2-6.2-0.1l-0.2-0.2C19.1,125.1,22,119.5,23.4,114.5z"/>
	<path class="st1" d="M23.2,125.8l1.6-5c0.5,2.3,1.4,4.6,2.1,6.8c-1.2,0-2.6,0.1-3.8,0l-2.9,0l1.8-1
		C22.4,126.3,22.9,126.1,23.2,125.8z"/>
	<path class="st2" d="M22,126.6c0.4,0.7,0.4,0.7,1.1,1l-2.9,0L22,126.6z"/>
	<path class="st7" d="M45.4,113.7c2.2-0.7,4.9-0.4,7.2-0.4c-0.1,0.9-0.1,1.8-0.2,2.6c-1.3,0.1-2.6,0.1-4,0l0,16.2
		c-1.1,0.6-2.1,1.2-3.1,1.8c1.6-0.2,5.6-0.5,7,0.1c0.3,0.4,0.3,0.9,0.3,1.4c0,0.4,0,0.8-0.1,1.3c-2-0.3-4.3-0.1-6.4-0.2l-0.7-0.5
		c-0.3,0-0.7,0-1,0c0.4-2.9,0.2-6,0.2-8.9c0-4.3,0.2-8.6-0.1-12.9l1-0.2L45.4,113.7z"/>
	<path class="st8" d="M44.3,114.3l1-0.2c-0.4,3.6-0.2,7.4-0.2,11c0,3.6-0.2,7.4,0.1,11c-0.3,0-0.7,0-1,0c0.4-2.9,0.2-6,0.2-8.9
		C44.5,122.9,44.7,118.5,44.3,114.3z"/>
	<path class="st2" d="M23.1,113.8l3.3,0c0.8,2.2,5.1,15.2,6.1,16c-0.4,0.2-0.7,0.3-1.1,0.3c-0.4-2.1-1.3-4.1-2-6.1l-3.4-9.5
		c-0.9-0.1-1.7-0.1-2.6-0.1c-1.4,5.1-4.3,10.6-5.4,15.7l-1.3-0.3c0,0,0.1,0,0.1,0c0.1,0,0.3-0.2,0.3-0.2
		C17.8,129,22.3,115.9,23.1,113.8z"/>
	<path class="st2" d="M16.5,131.6c0.3,0.1,0.6,0.2,0.9,0.3c-1.2,1.6-2.5,6.2-3.2,8.3l-0.2-0.2l-0.4,0.1
		C14,137.8,15.9,134.2,16.5,131.6z"/>
	<path class="st2" d="M32.5,129.9c0.3,0,0.4,0.1,0.7,0.3c0.1,0.3,0.2,0.6,0.1,1c-0.1,0.2-0.2,0.4-0.3,0.5l-1,0.3
		c-0.3-0.1-0.5-0.2-0.7-0.5l-0.3-1l0.4-0.3C31.8,130.1,32.1,130,32.5,129.9z"/>
	<path class="st2" d="M16.5,131.6c-0.3-0.4-0.3-0.6-0.4-1c0.1-0.4,0.3-0.6,0.6-0.8l1.3,0.3l0.2,0.2c0,0.4,0,0.6,0.1,1
		c-0.3,0.3-0.5,0.4-0.9,0.5C17.1,131.8,16.8,131.7,16.5,131.6z"/>
	<path class="st7" d="M37,111.6c0-0.5,0-1,0.3-1.4c1.5-0.4,13-0.3,15.1,0l0.1,2.2c0.1,0.4,0.1,0.6,0,1c-2.3,0-5-0.3-7.2,0.4
		l-0.1,0.3l-1,0.2l-0.2-0.6c-1.6-0.8-5.2-0.4-7.1-0.3C36.9,112.9,36.7,112.1,37,111.6z"/>
	<path class="st2" d="M37,113.4c-0.1-0.5-0.2-1.3,0-1.8c0,0.4,0,0.8,0.2,1.1c1.9,0.2,4.6,0.2,6.5,0c0.1-0.1,0.1-0.2,0.2-0.3
		c0.3-0.4,0.6-0.5,1.1-0.6c0.4,0.2,0.5,0.3,0.8,0.7c0,0,0,0,0.1,0c0.7,0.4,5.6,0.4,6.6,0.2l0.1-0.4c0.1,0.4,0.1,0.6,0,1
		c-2.3,0-5-0.3-7.2,0.4l-0.1,0.3l-1,0.2l-0.2-0.6C42.5,112.9,38.9,113.4,37,113.4z"/>
	<path class="st14" d="M34.7,118.2l0.6,0.1c0.9,0.6,1.7,0.8,2.8,1c0,2.8,0,5.5,0.1,8.3C37,124.4,36.1,121.1,34.7,118.2z"/>
	<path class="st29" d="M34.2,117.2l0.2-0.4c0.3,0.5,0.6,1,0.9,1.4l-0.6-0.1L34.2,117.2z"/>
	<path class="st1" d="M59.7,171.3c1.3,0,4.5-0.4,5.6,0.1l0.1,0.5c2.3,0.2,4.6,0.1,6.9,0c0.2-0.1,0.4-0.2,0.6-0.3
		c0.1,0,0.4,0.1,0.5,0.2c0.9,0.1,1.8,0.1,2.7,0.1c1.9-0.2,3.8-0.1,5.7-0.1l9.8,0c2.6,0,5.2,0,7.8,0.1c0.9,0,2-0.1,2.9,0.1
		c2.5,0.1,5,0.1,7.5,0.3c0,1.2-0.1,4.1,0.5,5c0.4,1.8,0.5,3.7,0.8,5.5c0.3,2,0.8,4,1.1,6l0,0.1c0.1,0.4,0.2,0.8,0.3,1.3
		c1.9-0.2,4-0.1,5.9,0c0.6,2.2,2.5,10.6,4.1,11.6c0,0,0.1,0,0.1,0.1c0.2,2.9,0.2,5.7,0.3,8.6c0.6,0,1.5,0.1,2-0.3
		c0.3-0.4,0.2-0.7,0.2-1.2c0,0.3,0,0.6,0.2,0.8c0.1,0.3,0.5,0.6,0.7,0.9c0.5,0.8,4.8,7.8,4.8,8.2l-0.2,0.1l-6.5,0
		c-7.4,0.4-16.6-1.2-23.8-3.2c-2.3-0.6-4.6-1.5-6.9-2.1l-0.8-0.3c-1-0.7-2.5-1.1-3.7-1.6c-2.1-0.9-4.3-1.8-6.3-2.9
		c-2-1.1-4-2.2-6-3.4c-1.2-0.7-2.3-1.6-3.6-2.1l-0.5-0.5c-0.9-0.6-1.8-1.2-2.6-1.9c-2.5-1.5-5.2-3.8-7.2-5.9
		c-5.5-3.9-15.4-16.3-18.5-22.4c1.3-0.6,2.9-0.8,4.3-0.8c0.5-0.3,3.2-0.2,3.9-0.1c0,0,0.1,0,0.1,0c1,0,2.4-0.2,3.4,0l0.5,0.2
		c0.7-0.4,2.5-0.2,3.4-0.2l0-0.1L59.7,171.3z"/>
	
		<linearGradient id="SVGID_14_" gradientUnits="userSpaceOnUse" x1="36.9412" y1="188.1006" x2="35.2081" y2="179.4534" gradientTransform="matrix(3.0769 0 0 -3.0795 4.882810e-04 769.8777)">
		<stop  offset="0" style="stop-color:#B31917"/>
		<stop  offset="1" style="stop-color:#77160E"/>
	</linearGradient>
	<path class="st30" d="M112,188.7l0,0.1c0.1,0.4,0.2,0.8,0.3,1.3c1.9-0.2,4-0.1,5.9,0c0.6,2.2,2.5,10.6,4.1,11.6c0,0,0.1,0,0.1,0.1
		c0.2,2.9,0.2,5.7,0.3,8.6c0.6,0,1.5,0.1,2-0.3c0.3-0.4,0.2-0.7,0.2-1.2c0,0.3,0,0.6,0.2,0.8c0.1,0.3,0.5,0.6,0.7,0.9
		c0.5,0.8,4.8,7.8,4.8,8.2l-0.2,0.1l-6.5,0c-7.4,0.4-16.6-1.2-23.8-3.2c-2.3-0.6-4.6-1.5-6.9-2.1l-0.8-0.3c0-3.3-0.1-6.7-0.2-10
		c-0.8-0.3-1.6-0.6-2.1-1.2c-0.6-0.7-0.9-1.6-0.9-2.5c0.1-2,1.4-4.7,2.9-6c0.8-0.7,1.5-0.8,2.5-0.7l0.3,0c1.5-1.6,4.1-3.3,6.2-3.7
		C104.1,188.8,110,189.2,112,188.7z"/>
	<path class="st8" d="M112.4,190.1c1.9-0.2,4-0.1,5.9,0c0.6,2.2,2.5,10.6,4.1,11.6c0,0,0.1,0,0.1,0.1c0.2,2.9,0.2,5.7,0.3,8.6
		c0.6,0,1.5,0.1,2-0.3c0.3-0.4,0.2-0.7,0.2-1.2c0,0.3,0,0.6,0.2,0.8c0.1,0.3,0.5,0.6,0.7,0.9c0.5,0.8,4.8,7.8,4.8,8.2l-0.2,0.1
		l-6.5,0c-0.7-2.4-4-6.2-4.7-9c0.3,0,0.7,0,1,0c0.3,0,0.4,0,0.5-0.2c-0.4-3.1-1.7-7.1-2.5-10.1c-0.6-0.1-1.4-0.3-2-0.1
		c-0.4,0.1-0.6,0.5-0.8,0.9c0,0,0,0-0.1-0.1c0,0-0.1-0.1-0.1-0.1C114.5,199.1,112.6,191.8,112.4,190.1z"/>
	<path class="st7" d="M92.3,203.3c-0.8-0.3-1.6-0.6-2.1-1.2c-0.6-0.7-0.9-1.6-0.9-2.5c0.1-2,1.4-4.7,2.9-6c0.8-0.7,1.5-0.8,2.5-0.7
		l1.5,0.5c1.1,0.6,2.3,1.3,2.6,2.6c0.2,0.7,0.1,1.6-0.2,2.2c-0.2,0.4-0.2,0.7-0.3,1.1c-0.8,1.9-1.6,3.8-2.4,5.6
		c-0.7-0.4-1.6-1.2-2.3-1.3C93.2,203.6,92.8,203.4,92.3,203.3z"/>
	<path class="st14" d="M93.7,201.9c-0.6-0.2-1.3-0.4-1.7-0.8c-0.3-0.3-0.5-0.7-0.5-1.1c0-1.4,1.1-3.7,2.1-4.7
		c0.5-0.4,0.8-0.4,1.4-0.4c-0.6,0.9-1.1,1.9-1.1,3c-0.2,0.6-0.5,1.2-0.5,1.8C93.5,200.4,93.6,201.2,93.7,201.9z"/>
	<path class="st1" d="M95,194.9c0.7,0.3,1.4,0.5,1.6,1.3c0.1,0.3,0.1,0.6,0.1,0.9l0,0.6c0.6,0.1,1.3,0.3,1.9,0.4
		c-0.2,0.4-0.2,0.7-0.3,1.1c-1.5-0.5-3-0.9-4.6-1.3C93.9,196.8,94.4,195.9,95,194.9z"/>
	<path class="st2" d="M93.4,199.7l2.4,0.6c-0.7,0.9-1,1.4-2.1,1.6C93.6,201.2,93.5,200.4,93.4,199.7z"/>
	<path class="st7" d="M115.7,200.3c0.2-0.4,0.3-0.8,0.8-0.9c0.6-0.2,1.4,0,2,0.1c0.8,3.1,2.1,7.1,2.5,10.1c-0.2,0.2-0.2,0.2-0.5,0.2
		c-0.3,0-0.7,0-1,0c-0.1,0-0.2-0.1-0.2-0.1c-0.7-0.5-0.8-1.9-0.9-2.7l-3.5,0.1l-0.9,2c-0.8-0.1-1.5-0.2-2.3-0.2
		C112.8,206.1,114.4,203.2,115.7,200.3z"/>
	<path class="st2" d="M116.9,202.7c0,0,0.1,0.1,0.1,0.1c0.4,0.4,0.5,2,0.5,2.5c-0.3,0.2-1.2,0.1-1.6,0.1c-0.1,0-0.3,0-0.4,0
		C115.6,204.9,116.6,203.3,116.9,202.7z"/>
	<path class="st14" d="M112,188.7l0,0.1c0.1,0.4,0.2,0.8,0.3,1.3c-1.6-0.1-3.2-0.1-4.8-0.1c-3.7,0-7.3-0.2-10.3,2.4
		c-0.4,0.3-0.7,0.7-1,1.1l-1.5-0.5l0.3,0c1.5-1.6,4.1-3.3,6.2-3.7C104.1,188.8,110,189.2,112,188.7z"/>
	<path class="st14" d="M92.3,203.3c0.5,0.1,0.9,0.2,1.4,0.2c-0.7,1.6-0.1,7.8-0.3,10.1l-0.8-0.3C92.5,210,92.4,206.7,92.3,203.3z"/>
	<path class="st7" d="M100.8,195.9c0.7,0.2,1.4,0.4,2.1,0.5c0,2.3-0.1,4.6-0.1,6.9c1-2,2.1-4,3.2-6l2.1,0.5c0.1,2.3,0,4.6-0.1,6.9
		l3.2-6.1l2.2,0.6l-1.5,2.5c-1.2,2.2-2.5,4.3-3.7,6.6l-2.2-0.5c0-2.3,0-4.7,0.2-7c-1.1,2.1-2.2,4.1-3.2,6.2l-2.2-0.5
		C100.8,202.9,100.8,199.4,100.8,195.9z"/>
	<path class="st1" d="M59.7,171.3c1.3,0,4.5-0.4,5.6,0.1l0.1,0.5c2.3,0.2,4.6,0.1,6.9,0c0.2-0.1,0.4-0.2,0.6-0.3
		c0.1,0,0.4,0.1,0.5,0.2c-0.1,1.9-0.5,11.8,0.1,12.8c0.2,0.1,0.4,0.3,0.6,0.4c0.7,0.3,1.2,0.5,1.5,1.2c0.3,0.6,0.2,1.7,0,2.3
		c-0.6,1.3-1.9,1.7-2.3,3.4c-0.3,1.7,0.4,10.8-0.4,11.6l-0.5-0.5c-0.9-0.6-1.8-1.2-2.6-1.9c-2.5-1.5-5.2-3.8-7.2-5.9
		c-5.5-3.9-15.4-16.3-18.5-22.4c1.3-0.6,2.9-0.8,4.3-0.8c0.5-0.3,3.2-0.2,3.9-0.1c0,0,0.1,0,0.1,0c1,0,2.4-0.2,3.4,0l0.5,0.2
		c0.7-0.4,2.5-0.2,3.4-0.2l0-0.1L59.7,171.3z"/>
	<path class="st1" d="M48.4,171.9c0.5-0.3,3.2-0.2,3.9-0.1c0,0,0.1,0,0.1,0c1,0,2.4-0.2,3.4,0l0.5,0.2c0.7-0.4,2.5-0.2,3.4-0.2
		c0.3,5,0.8,10,1.6,15c0.3,2.2,1.3,6.3,1.3,8.2c-5.5-3.9-15.4-16.3-18.5-22.4C45.4,172.1,47,172,48.4,171.9z"/>
	<path class="st1" d="M52.4,171.9c1,0,2.4-0.2,3.4,0c-0.1,0.2-0.3,0.4-0.4,0.6c-0.4,0.5-0.9,0.9-1.5,1c-0.5,0-1.1-0.2-1.5-0.6
		c-0.3-0.3-0.4-0.5-0.4-0.9L52.4,171.9z"/>
	<path class="st2" d="M48.4,171.9c0.5-0.3,3.2-0.2,3.9-0.1c0,0,0.1,0,0.1,0L52,172c0,0.4,0.1,0.6,0.4,0.9c0.4,0.4,1,0.6,1.5,0.6
		c0.6-0.1,1.1-0.5,1.5-1c0.2-0.2,0.3-0.4,0.4-0.6l0.5,0.2c-0.2,0.7-0.7,1.4-1.2,1.8c-0.3,0.3-0.8,0.4-1.2,0.3
		c-1.2-0.2-2.1-1.2-2.7-2.1C50.4,171.8,49.2,171.9,48.4,171.9z"/>
	<path class="st20" d="M59.7,171.3c1.3,0,4.5-0.4,5.6,0.1l0.1,0.5c0.4,6.8,1.2,13.5,2.5,20.2c0.6,3,1.6,6,1.9,9
		c-2.5-1.5-5.2-3.8-7.2-5.9c0-2-1-6.1-1.3-8.2c-0.7-5-1.3-10-1.6-15l0-0.1L59.7,171.3z"/>
	<path class="st21" d="M59.7,171.3c1.3,0,4.5-0.4,5.6,0.1l0.1,0.5c-1.9,0-3.8,0-5.7,0L59.7,171.3z"/>
	<path class="st8" d="M72.5,184.8c0.6-0.1,0.9,0.1,1.5,0.4c0.6,0.4,1.2,1.1,1.5,1.8c-0.1-0.9-0.8-1.5-1.4-2.1
		c0.7,0.3,1.2,0.5,1.5,1.2c0.3,0.6,0.2,1.7,0,2.3c-0.6,1.3-1.9,1.7-2.3,3.4c-0.3,1.7,0.4,10.8-0.4,11.6l-0.5-0.5
		c0.5-2.6,0.1-9.3,0-12.2c-0.8-0.4-1.6-1.2-2.1-1.9c-0.3-0.6-0.6-1.2-0.4-1.9c0.2-0.6,0.5-1.1,1-1.3c0.2-0.1,0.5-0.3,0.7-0.5
		C71.9,185,72.2,184.9,72.5,184.8z"/>
	<path class="st13" d="M72.5,184.8c0.6-0.1,0.9,0.1,1.5,0.4c0.6,0.4,1.2,1.1,1.5,1.8c-0.1,1-0.3,1.7-1.2,2.3
		c-0.4,0.3-0.7,0.3-1.2,0.4l-0.7,0l-0.1-0.6c-0.1-1,0-1.9,0-2.9l0.2-1L72.5,184.8z"/>
	<path class="st16" d="M72.6,185.2c0.3,0.1,0.4,0.1,0.6,0.4c0.6,1.2,0.2,3,0,4.2l-0.7,0l-0.1-0.6c-0.1-1,0-1.9,0-2.9L72.6,185.2z"/>
	<path class="st6" d="M72.5,184.8l0,0.4l-0.2,1c0,1-0.1,1.9,0,2.9l0.1,0.6c-0.1,0-0.3,0-0.4,0c-0.7-0.2-1.1-0.9-1.5-1.5
		c-0.1-1.1,0-1.7,0.4-2.7c0.2-0.1,0.5-0.3,0.7-0.5C71.9,185,72.2,184.9,72.5,184.8z"/>
	<path class="st13" d="M72.4,186.2c0,1-0.1,1.9,0,2.9c0,0-0.1,0-0.1,0c-0.5-0.2-0.9-0.6-1.1-1.2c-0.1-0.3-0.1-0.7,0.1-1
		C71.5,186.4,71.9,186.3,72.4,186.2z"/>
	<path class="st14" d="M72.3,171.9c0.2-0.1,0.4-0.2,0.6-0.3c0.1,0,0.4,0.1,0.5,0.2c-0.1,1.9-0.5,11.8,0.1,12.8
		c0.2,0.1,0.4,0.3,0.6,0.4c0.6,0.6,1.3,1.2,1.4,2.1c-0.3-0.7-0.9-1.4-1.5-1.8c-0.5-0.3-0.9-0.6-1.5-0.4c-0.3,0.1-0.6,0.2-0.9,0.2
		c0.2-0.1,0.4-0.2,0.6-0.4c0.3-0.3,0.3-0.5,0.3-0.9c0.1-1,0.1-11.4,0-11.7C72.4,172,72.3,171.9,72.3,171.9z"/>
	<path class="st8" d="M102.1,171.9c2.5,0.1,5,0.1,7.5,0.3c0,1.2-0.1,4.1,0.5,5c0.4,1.8,0.5,3.7,0.8,5.5c0.3,2,0.8,4,1.1,6
		c-2,0.5-8,0.1-10.8,0.4l0.2-0.5l0.3,0C101.9,188.3,102,174,102.1,171.9z"/>
	<path class="st8" d="M76,171.8c1.9-0.2,3.8-0.1,5.7-0.1l9.8,0c2.6,0,5.2,0,7.8,0.1c0.9,0,2-0.1,2.9,0.1c-0.1,2.1-0.2,16.4-0.4,16.8
		l-0.3,0c-0.1-1.2-0.2-2.3-0.2-3.5l-0.1-0.1c-0.4-0.7-0.2-6.3-0.3-7.5l-0.2-0.1l0.2,0.1l-0.1-0.1l-0.5,0.1c-2-0.9-3.1-3.9-4.8-5.4
		c-1.9,0-7.7,0.4-9.2-0.2C83.4,172.1,78.9,172.1,76,171.8z"/>
	<path class="st14" d="M76,171.8c1.9-0.2,3.8-0.1,5.7-0.1l9.8,0c2.6,0,5.2,0,7.8,0.1c0.9,0,2-0.1,2.9,0.1
		c-0.1,2.1-0.2,16.4-0.4,16.8l-0.3,0c-0.1-1.2-0.2-2.3-0.2-3.5c0.4-1.3-0.1-10.9-0.1-13.1c-3.1-0.1-6.3-0.1-9.4-0.1
		c-1.8,0-3.6-0.1-5.4,0.1C83.4,172.1,78.9,172.1,76,171.8z"/>
	
		<linearGradient id="SVGID_15_" gradientUnits="userSpaceOnUse" x1="46.2361" y1="190.9833" x2="50.0266" y2="180.4433" gradientTransform="matrix(3.0769 0 0 -3.0795 4.882810e-04 769.8777)">
		<stop  offset="0" style="stop-color:#B51917"/>
		<stop  offset="1" style="stop-color:#78170E"/>
	</linearGradient>
	<path class="st31" d="M170,169L170,169c1,0.8,1.5,2,1.5,3.2c0.1,1.3-0.2,2.4-0.7,3.6l0.1,0.5c0.8,0.9,1.2,2.7,1.3,3.9
		c0.3,2.5,0.1,5.1,0.1,7.6l0,13c0,1.7-0.3,3.9,0.2,5.5l-0.7,0.4c-12.7,7.2-26.8,11.4-41.4,12.2l0.2-0.1c0-0.4-4.4-7.4-4.8-8.2
		c-0.2-0.3-0.5-0.6-0.7-0.9c-0.1-0.2-0.1-0.6-0.2-0.8c0,0.5,0,0.8-0.2,1.2c-0.5,0.3-1.4,0.3-2,0.3c-0.1-2.9-0.1-5.7-0.3-8.6
		c0,0-0.1,0-0.1-0.1c-1.6-1-3.5-9.3-4.1-11.6c-1.9-0.1-4-0.1-5.9,0c-0.1-0.4-0.2-0.8-0.3-1.3l0-0.1c-0.3-2-0.7-4-1.1-6
		c-0.3-1.8-0.4-3.7-0.8-5.5l0-1.2c1,0.9,3.6,1.8,4.9,1.7c0.2,0,0.3-0.1,0.4-0.1l0.2-0.4c1.5,0.6,20.3-3.3,22.8-3.9
		c2.1-0.5,4.1-1.3,6.2-1.7c1.2,0.9,14.1-0.3,15.2,0.4c0.1,0,0.1,0,0.2,0c0.5,0,0.5,0,0.8-0.3l0-0.3c0.7-0.1,1.9-0.3,2.5,0.2
		c0.7,0,1.3-0.3,1.9-0.6l0.8-0.4l0.1,0c1-0.4,1.9-0.8,2.9-1.2l0.3,0L170,169z"/>
	<path class="st2" d="M170,169L170,169c1,0.8,1.5,2,1.5,3.2c0.1,1.3-0.2,2.4-0.7,3.6l0.1,0.5c-0.3,0.3-0.3,0.3-0.7,0.4l-0.1,0
		c-1.1,0.9-2.3,1.6-3.7,1.8c-0.5,3.6-1.6,6.8-4.6,9.1c-1.5,1.2-3.5,1.9-5.4,2.2c-3.7,0.6-8.2,0.2-12,0.2l-15.5,0
		c-3.6,0-7.1-0.1-10.7,0.1c-1.9-0.1-4-0.1-5.9,0c-0.1-0.4-0.2-0.8-0.3-1.3l0-0.1c-0.3-2-0.7-4-1.1-6c-0.3-1.8-0.4-3.7-0.8-5.5l0-1.2
		c1,0.9,3.6,1.8,4.9,1.7c0.2,0,0.3-0.1,0.4-0.1l0.2-0.4c1.5,0.6,20.3-3.3,22.8-3.9c2.1-0.5,4.1-1.3,6.2-1.7
		c1.2,0.9,14.1-0.3,15.2,0.4c0.1,0,0.1,0,0.2,0c0.5,0,0.5,0,0.8-0.3l0-0.3c0.7-0.1,1.9-0.3,2.5,0.2c0.7,0,1.3-0.3,1.9-0.6l0.8-0.4
		l0.1,0c1-0.4,1.9-0.8,2.9-1.2l0.3,0L170,169z"/>
	
		<linearGradient id="SVGID_16_" gradientUnits="userSpaceOnUse" x1="44.8062" y1="190.2061" x2="41.7865" y2="195.8846" gradientTransform="matrix(3.0769 0 0 -3.0795 4.882810e-04 769.8777)">
		<stop  offset="0" style="stop-color:#C3443E"/>
		<stop  offset="1" style="stop-color:#F18B86"/>
	</linearGradient>
	<path class="st32" d="M115.8,177.2c1.5,0.6,20.3-3.3,22.8-3.9c2.1-0.5,4.1-1.3,6.2-1.7c1.2,0.9,14.1-0.3,15.2,0.4
		c0,0.3-0.1,0.6-0.1,0.8c-10.2,3.9-21.1,6.4-31.8,8.4c-3.8,0.7-7.7,1.1-11.4,1.8c0.4,1.9,0.6,3.9,1.3,5.7l0,0.1l0.3,1.2
		c-1.9-0.1-4-0.1-5.9,0c-0.1-0.4-0.2-0.8-0.3-1.3l0-0.1c-0.3-2-0.7-4-1.1-6c-0.3-1.8-0.4-3.7-0.8-5.5l0-1.2c1,0.9,3.6,1.8,4.9,1.7
		c0.2,0,0.3-0.1,0.4-0.1L115.8,177.2z"/>
	<path class="st12" d="M112.1,188.8c1.7,0,4.3-0.3,5.9,0.1l0.3,1.2c-1.9-0.1-4-0.1-5.9,0C112.3,189.7,112.2,189.2,112.1,188.8z"/>
	<path class="st14" d="M170,169L170,169c1,0.8,1.5,2,1.5,3.2c0.1,1.3-0.2,2.4-0.7,3.6l0.1,0.5c-0.3,0.3-0.3,0.3-0.7,0.4l-0.1,0
		c-1.1,0.9-2.3,1.6-3.7,1.8c-0.5,3.6-1.6,6.8-4.6,9.1c-1.5,1.2-3.5,1.9-5.4,2.2c-3.7,0.6-8.2,0.2-12,0.2l-15.5,0
		c-3.6,0-7.1-0.1-10.7,0.1l-0.3-1.2l0-0.1c2.4-0.2,6.5,0,9.1,0.1l20.3,0c2.9,0,6.2,0.3,9-0.2c1.6-0.3,3-0.8,4.3-1.7
		c3-2.1,4-5,4.6-8.4c-1.5-0.4-2.8-0.9-3.9-2.1c-0.9-1-1.4-2.3-1.4-3.7l-0.1-0.1c0-0.3,0.1-0.6,0.1-0.8c0.1,0,0.1,0,0.2,0
		c0.5,0,0.5,0,0.8-0.3l0-0.3c0.7-0.1,1.9-0.3,2.5,0.2c0.7,0,1.3-0.3,1.9-0.6l0.8-0.4l0.1,0c1-0.4,1.9-0.8,2.9-1.2l0.3,0L170,169z"/>
	<path class="st2" d="M161,171.4c0.7-0.1,1.9-0.3,2.5,0.2l-0.3,0.2c0,0,0,0,0.1,0.1c0.9,0.8,1.8-0.1,1.9,1.6
		c0.1,1.4,0.1,2.9,0.1,4.4c-1.5-0.3-2.7-0.8-3.6-2.1c-0.6-0.9-0.9-2-1.1-3.1c-0.2,0.1-0.3,0.2-0.5,0.3l-0.1-0.1
		c0-0.3,0.1-0.6,0.1-0.8c0.1,0,0.1,0,0.2,0c0.5,0,0.5,0,0.8-0.3L161,171.4z"/>
	<path class="st21" d="M161,171.4c0.7-0.1,1.9-0.3,2.5,0.2l-0.3,0.2c-0.6,0.1-2.2,0.2-2.6,0.7c0,0-0.1,0.1-0.1,0.1
		c-0.2,0.1-0.3,0.2-0.5,0.3l-0.1-0.1c0-0.3,0.1-0.6,0.1-0.8c0.1,0,0.1,0,0.2,0c0.5,0,0.5,0,0.8-0.3L161,171.4z"/>
	<path class="st2" d="M169.2,169.2l0.3,0c0.9,1.6,1.5,3,1,4.8c-0.1,0.3-0.2,0.6-0.3,0.9c-0.9-0.9-3.4-2.4-3.8-3.3
		c-0.1-0.2-0.1-0.5-0.1-0.8c0-0.2,0-0.3,0-0.5C167.3,170.1,168.3,169.7,169.2,169.2z"/>
	<path class="st13" d="M170.2,176.6c-0.2-0.2-0.3-0.4-0.4-0.6c0-0.4,0-0.4,0.2-0.7c0.4,0.1,0.4,0.1,0.7,0.5l0.1,0.5
		C170.6,176.5,170.6,176.5,170.2,176.6z"/>
	<path class="st6" d="M165.3,177.6c0.4,0,0.7,0,1.1,0.2c0.1,0.3,0.1,0.3,0,0.6c-0.4,0-0.7,0.1-1.1-0.1
		C165.2,178.1,165.2,177.9,165.3,177.6z"/>
	<path class="st2" d="M166.4,173c1.4,0.8,2.4,1.7,3.5,2.9l-1.1,0.9c-0.8,0.5-1.6,0.8-2.4,1C166.3,176.2,166.3,174.6,166.4,173z"/>
	<path class="st7" d="M128.7,199.8l2.2,0c0.1,3.4,0.3,6.8,0.4,10.1l-2.2,0c-1.4-2.1-3-4.3-4.2-6.5c0,1.7-0.2,3.7,0.2,5.4
		c0,0.5,0,0.8-0.2,1.2c-0.5,0.3-1.4,0.3-2,0.3c-0.1-2.9-0.1-5.7-0.3-8.6c0-0.5-0.1-0.9,0.1-1.4c0.6-0.4,1.4-0.2,2-0.3
		c1.5,2.2,2.9,4.4,4.4,6.7C128.9,204.4,128.7,202.1,128.7,199.8z"/>
	<path class="st14" d="M170.9,176.2c0.8,0.9,1.2,2.7,1.3,3.9c0.3,2.5,0.1,5.1,0.1,7.6l0,13c0,1.7-0.3,3.9,0.2,5.5l-0.7,0.4
		c-1-1,0.4-24.2-0.8-28.2c-0.2-0.7-0.4-1.4-1-1.7l0.1,0C170.6,176.5,170.6,176.5,170.9,176.2z"/>
	<path class="st7" d="M142.8,208.2c-0.6,0.1-1.1,0.2-1.7,0.3l-0.4-0.3c-0.5,0-1,0.5-1.4,0.7c-1.1,0.6-2.3,0.6-3.6,0.2
		c-0.8-0.3-1.3-1-1.6-1.7c-0.8-1.7-1.4-5-0.7-6.8c0.3-0.7,0.9-1.2,1.6-1.5c1.4-0.6,3.1-0.9,4.5-0.2c0.7,0.3,1.4,0.9,1.6,1.6
		c0.1,0.4,0.1,0.5-0.1,0.8c0.1,0.3,0.2,0.4,0.4,0.6c0.1,0.1,0.1,0.1,0.2,0.2L142.8,208.2z"/>
	<path class="st1" d="M140.2,204.7c-0.1,0.6-0.2,1.3-0.5,1.8c-0.3,0.4-0.7,0.7-1.2,0.8c-0.5,0.2-1.1,0.1-1.6-0.1
		c-0.7-0.4-1.1-1.3-1.3-2.1c-0.3-1.2-0.6-2.8,0.1-3.9c0.3-0.4,0.7-0.7,1.2-0.8c2-0.4,1.6,0.9,2.5,1.4c0.1,0,0.1,0,0.2,0.1l0.1,0.9
		c-1.1,0.3-1.9,0.4-2.5,1.5c-0.1,0.2,0,0.3,0,0.5c0,0,0.1,0.1,0.1,0.1C138.2,205.4,139.3,204.9,140.2,204.7z"/>
	<path class="st1" d="M139.6,201.9c0.5-0.2,1-0.4,1.5-0.6c0.1,0.3,0.2,0.4,0.4,0.6c0.1,0.1,0.1,0.1,0.2,0.2c-0.7,0.2-1.3,0.5-2,0.7
		L139.6,201.9z"/>
	<path class="st7" d="M157.6,192.7c0.2,0.1,0.3,0.2,0.4,0.5c0.7,1.6,3.3,6.9,2.7,8.3c-0.4,1-1.3,1.8-2.3,2.2c-1,0.5-2.4,0.8-3.5,0.3
		c-1.9-0.8-3.2-5.2-4-7.1l-0.5-1.2c0.7-0.3,1.4-0.5,2.1-0.8c0.6,1.5,2.2,6.6,3.6,7.3c0.4,0.2,0.8,0.2,1.2,0.1c0.5-0.2,0.8-0.4,1-0.9
		c0.6-1.5-1.9-6.3-2.6-7.9L157.6,192.7z"/>
	<path class="st7" d="M148.2,196.3c0.3,0,0.3,0,0.6,0.1c0.8,2.3,2.3,6.1,2.1,8.5c0,0.6-0.2,0.9-0.6,1.3c-0.8,0.7-2.4,1.2-3.4,1.1
		c-1-0.1-1.5-0.6-2.1-1.4c-0.3-0.5-0.6-0.9-0.5-1.5c0.4-0.5,1.1-0.7,1.6-0.9c0.2,0.4,0.4,0.7,0.6,1.1c0.3,0.4,0.7,0.7,1.2,0.8
		c0.4,0.1,0.5-0.1,0.7-0.3c0.7-1.7-1.2-6.5-1.8-8.4L148.2,196.3z"/>
	<path class="st14" d="M150.7,133.2c5.2-0.6,9.3-0.9,13.1-5c-0.2,3.4-0.3,7-0.1,10.4c0.1,1.7,0.5,2.8,1.8,4c-0.6,0.8-0.2,7.9,0,9.2
		c0.2,0,0.5,0,0.7,0.2l0.6,0.2c0.5,0.1,0.9,0.4,1.2,0.9c0.2,0.3,0.3,0.5,0.4,0.8l-0.1,0.1c0,0.5-0.3,1-0.4,1.5
		c-0.2,0.3-0.4,0.7-0.7,0.8c-0.4,0.2-0.8,0.4-1.2,0.6l-0.6-0.1l-0.6-0.1c0.7,1.3,0.7,6.3,0.5,8c0,0.7,0,1.4,0.1,2.1h0.8l0.2,0.2
		c0,0.2,0.1,0.5,0,0.7c-0.1,0.9-0.2,1.8-0.2,2.7l-0.8,0.4c-0.6,0.3-1.2,0.6-1.9,0.6c-0.6-0.4-1.8-0.2-2.5-0.2l0,0.3
		c-0.3,0.3-0.4,0.3-0.8,0.3c-0.1,0-0.1,0-0.2,0c-1.1-0.8-14,0.5-15.2-0.4c-2.1,0.4-4.2,1.2-6.2,1.7c-2.5,0.6-21.3,4.5-22.8,3.9
		l-0.2,0.4c-0.2,0.1-0.3,0.1-0.4,0.1c-1.3,0.1-3.9-0.8-4.9-1.7c-0.2-1.4-0.1-2.8-0.4-4.2c0.1-2.4,0-4.7,0-7.1
		c0.1-3.6,0.4-7.1,0.7-10.7c0.3-3.7,0.9-7.8,1.8-11.4c1.7,0.7,3.8,0.6,5.6,0.6c1.7-0.3,3.6,0.3,5-1.1c1.7-1.8,1.1-6.4,1.1-8.8
		c5.4-0.6,9-1,13.1-4.9c0,0.9-0.1,1.7-0.1,2.6c-0.1,2.7-0.7,9.2,1.2,11.2c1,1,2.3,1,3.6,1c2.2,0,6,0.5,7.7-1.2
		C151.3,140.3,150.7,135.5,150.7,133.2z"/>
	<path class="st12" d="M112.3,142.6c1.7,0.7,3.8,0.6,5.6,0.6c-1.1,5.4-2.1,11.2-2.3,16.7c-0.2,2-0.6,9.6,0,11.3c0,0.4-0.1,0.9,0,1.3
		c0.1,1.5,0.3,3.3,0.1,4.7l-0.2,0.4c-0.2,0.1-0.3,0.1-0.4,0.1c-1.3,0.1-3.9-0.8-4.9-1.7c-0.2-1.4-0.1-2.8-0.4-4.2
		c0.1-2.4,0-4.7,0-7.1c0.1-3.6,0.4-7.1,0.7-10.7C110.8,150.3,111.4,146.2,112.3,142.6z"/>
	<path class="st12" d="M109.8,171.8l0.2-0.5c1.3-0.5,4.3-0.3,5.8-0.2c0,0.4-0.1,0.9,0,1.3c0.1,1.5,0.3,3.3,0.1,4.7l-0.2,0.4
		c-0.2,0.1-0.3,0.1-0.4,0.1c-1.3,0.1-3.9-0.8-4.9-1.7C110,174.6,110.1,173.2,109.8,171.8z"/>
	<path class="st7" d="M109.8,171.8l0.2-0.5c1.3-0.5,4.3-0.3,5.8-0.2c-0.1,0.2-0.1,0.5-0.3,0.7C114.7,172.2,110.6,172,109.8,171.8z"
		/>
	<path class="st9" d="M165.3,164.8c0,0.7,0,1.4,0.1,2.1h0.8l0.2,0.2c0,0.2,0.1,0.5,0,0.7c-0.1,0.9-0.2,1.8-0.2,2.7l-0.8,0.4
		c-0.6,0.3-1.2,0.6-1.9,0.6c-0.6-0.4-1.8-0.2-2.5-0.2l0,0.3c-0.3,0.3-0.4,0.3-0.8,0.3c-0.1,0-0.1,0-0.2,0c-1.1-0.8-14,0.5-15.2-0.4
		c1.1-0.3,2.3-0.5,3.4-0.7c2-1.1,4.4-1.6,6.5-2.3C158.4,167.4,161.9,166.2,165.3,164.8z"/>
	<path class="st9" d="M166.2,166.9l0.2,0.2c0,0.2,0.1,0.5,0,0.7c-0.1,0.9-0.2,1.8-0.2,2.7l-0.8,0.4c-0.6,0.3-1.2,0.6-1.9,0.6
		c-0.6-0.4-1.8-0.2-2.5-0.2c0-0.6,0.4-1.3,0.8-1.8c0.8-1,2.1-1.7,3.4-1.8l0.1,0c-0.1-0.3-0.1-0.4-0.1-0.7l0.2-0.2H166.2z"/>
	<path class="st21" d="M166.2,166.9l0.2,0.2c0,0.2,0.1,0.5,0,0.7c-0.1,0.9-0.2,1.8-0.2,2.7l-0.8,0.4c-0.4-1-0.1-2.1-0.2-3.1l0.1,0
		c-0.1-0.3-0.1-0.4-0.1-0.7l0.2-0.2H166.2z"/>
	<path class="st11" d="M166.2,166.9l0.2,0.2c0,0.2,0.1,0.5,0,0.7l-1.1,0c-0.1-0.3-0.1-0.4-0.1-0.7l0.2-0.2H166.2z"/>
	<path class="st12" d="M160.2,171.2c0.2-0.7,0.5-1.4,1-2c1-1.3,2.3-1.9,4-2.1c-0.1,0.3-0.1,0.4,0.1,0.7l-0.1,0
		c-1.3,0.1-2.5,0.8-3.4,1.8c-0.4,0.5-0.8,1.2-0.8,1.8l0,0.3c-0.3,0.3-0.4,0.3-0.8,0.3c-0.1,0-0.1,0-0.2,0c-1.1-0.8-14,0.5-15.2-0.4
		c1.1-0.3,2.3-0.5,3.4-0.7C149.9,171.5,158.2,171.4,160.2,171.2z"/>
	<path class="st6" d="M115.7,159.8c0.4,2.1-0.4,10.1,0.5,11c1.7,0.4,3.6,0.2,5.4,0.2c2.8,0.1,5.5,0.2,8.3,0.3c3.3,0.1,6.6-0.1,9.8,0
		c0.6,0,1.3,0.2,1.9,0.2c0.7,0,1.5-0.1,2.1,0.1l0,0.1c-5.6,0.1-11.2,0.2-16.8,0.3c-3,0-6.2-0.1-9.2,0.1c-0.7,0-1.4,0.1-2,0.4
		c0-0.4,0-0.9,0-1.3C115.1,169.4,115.5,161.8,115.7,159.8z"/>
	<path class="st16" d="M165.5,151.8c0.2,0,0.5,0,0.7,0.2l0.6,0.2c0.5,0.1,0.9,0.4,1.2,0.9c0.2,0.3,0.3,0.5,0.4,0.8l-0.1,0.1
		c0,0.5-0.3,1-0.4,1.5c-0.2,0.3-0.4,0.7-0.7,0.8c-0.4,0.2-0.8,0.4-1.2,0.6l-0.6-0.1l-0.6-0.1c-0.6-0.6-1.6-1.7-1.9-2.6
		c0.1-0.2,0.1-0.3,0.2-0.4C163.7,153,164.5,152,165.5,151.8L165.5,151.8z"/>
	<path class="st6" d="M164.8,156.8c-0.6-0.6-1.6-1.7-1.9-2.6c0.1-0.2,0.1-0.3,0.2-0.4c0.5-0.7,1.4-1.7,2.3-1.8
		c-0.1,0.6,0,1.4-0.4,1.9c-0.4,0.1-0.9,0.1-1.2,0.4c0.2,0.2,0.4,0.2,0.7,0.3c0.1,0,0.4,0.1,0.5,0.1c0.3,0.4,0.3,1.7,0.4,2.2
		L164.8,156.8z"/>
	<path class="st13" d="M168.3,154c0,0.5-0.3,1-0.4,1.5c-0.2,0.3-0.4,0.7-0.7,0.8c-0.4,0.2-0.8,0.4-1.2,0.6c0.1-0.7,0.2-1.7,0.7-2.2
		c0.3-0.3,0.8-0.3,1.2-0.3l0.2-0.3L168.3,154z"/>
	<path class="st6" d="M166.2,152l0.6,0.2c0.5,0.1,0.9,0.4,1.2,0.9c0.2,0.3,0.3,0.5,0.4,0.8l-0.1,0.1l-0.1,0.1
		c-0.6-0.1-1.2-0.2-1.8-0.3L166.2,152z"/>
	
		<linearGradient id="SVGID_17_" gradientUnits="userSpaceOnUse" x1="60.645" y1="197.5783" x2="64.768" y2="186.4247" gradientTransform="matrix(3.0769 0 0 -3.0795 4.882810e-04 769.8777)">
		<stop  offset="0" style="stop-color:#B81818"/>
		<stop  offset="1" style="stop-color:#71160C"/>
	</linearGradient>
	<path class="st33" d="M199,153.3c0.3,0.3,0.4,0.4,0.8,0.5c2.2,0.5,10.5,0.4,13.3,0.3c0.3,0,0.6,0,0.8,0l0.3-0.2l0.3,0.3
		c-0.9,2.1-1.5,4.2-2.4,6.3c-2,4.9-4.4,9.5-7.1,14c-2.4,3.8-5,7.5-7.9,10.9c-0.5,0.6-2.7,2.9-2.8,3.4l-0.5,0.4
		c-6.3,6.6-13.4,12.4-21.3,17c-0.5-1.6-0.2-3.8-0.2-5.5l0-13c0-2.5,0.2-5.1-0.1-7.6c-0.1-1.2-0.5-3-1.3-3.9l-0.1-0.5
		c0.5-1.1,0.8-2.3,0.7-3.6c-0.1-1.2-0.6-2.4-1.5-3.2l-0.1,0l-0.4,0.3l-0.3,0c-0.9,0.5-1.9,0.9-2.9,1.2l-0.1,0c0-0.9,0-1.8,0.2-2.7
		c0.1-0.2,0-0.4,0-0.7l-0.2-0.2h-0.8c-0.1-0.7-0.1-1.4-0.1-2.1c0.2-1.7,0.2-6.7-0.5-8l0.6,0.1l0.6,0.1c0.4-0.2,0.8-0.4,1.2-0.6
		c0.3-0.2,0.5-0.6,0.7-0.8c0.5-0.1,0.7-0.2,1.1-0.5c0.1-0.1,0.2-0.2,0.3-0.3c0.9-0.4,14.2-0.3,15.3,0.1c0.3,0.1,0.2,0.2,0.4,0.4
		c0.6-0.3,1.2-0.8,1.9-1.1l0.9-0.4c1.6,0.4,3.3,0.2,4.9,0.2c0.3-0.1,0.6-0.2,1,0c0,0,0.1,0,0.1,0c0.9,0,3.1-0.2,3.7,0.3
		c0,0,0,0,0.1,0.1C198,154,198.5,153.6,199,153.3z"/>
	<path class="st1" d="M199,153.3c0.3,0.3,0.4,0.4,0.8,0.5c2.2,0.5,10.5,0.4,13.3,0.3c0.3,0,0.6,0,0.8,0l0.3-0.2l0.3,0.3
		c-0.9,2.1-1.5,4.2-2.4,6.3c-2,4.9-4.4,9.5-7.1,14c-2.4,3.8-5,7.5-7.9,10.9c-0.5,0.6-2.7,2.9-2.8,3.4l-0.5,0.4
		c-1.5-3.3-1-7.6-0.9-11.1c-0.5-0.2-1-0.5-1.4-0.8c-0.4-0.4-0.9-0.9-0.8-1.6c0-1.1,1.1-1.8,1.8-2.6c0.7-0.7,0.4-2.9,0.3-3.8
		c0-1.5,0.1-3,0.1-4.4c0.1-1.6,0.1-6.2-0.2-7.6l0.3-0.2l0.8-0.6c-0.2-0.6-0.1-1.4-0.1-2c1,0,1.9,0,2.9,0.2l0.9-0.4
		C198,154,198.5,153.6,199,153.3z"/>
	<path class="st13" d="M199,153.3c0.3,0.3,0.4,0.4,0.8,0.5c2.2,0.5,10.5,0.4,13.3,0.3c0.3,0,0.6,0,0.8,0l-0.1,0.2
		c-3.8,0.1-7.6,0.1-11.4,0.3c-1.1,0.1-2.5,0-3.5,0.3c-0.5,1.3-0.5,2.9-1.3,4.1c-1.1,1.7-3.5,2-3.8,2.6c-0.2,0.4,0.2,1.4-0.1,1.8
		c0,0,0,0.1,0,0.1c-0.5,1.6-0.1,8.6-0.5,9.2c-0.3-2.6,0.1-5.2-0.4-7.8c0.1-1.6,0.1-6.2-0.2-7.6l0.3-0.2l0.8-0.6
		c-0.2-0.6-0.1-1.4-0.1-2c1,0,1.9,0,2.9,0.2l0.9-0.4C198,154,198.5,153.6,199,153.3z"/>
	<path class="st12" d="M193.8,154.5c1,0,1.9,0,2.9,0.2c-0.9,0.7-1.8,1.3-2.8,1.8C193.7,155.9,193.8,155.2,193.8,154.5z"/>
	<path class="st8" d="M192.9,164.9c0.5,2.5,0.2,5.2,0.4,7.8c0.4-0.6-0.1-7.6,0.5-9.2c0,0,0-0.1,0-0.1c0.6,1.7-0.5,6.4-0.1,8.7
		c0.4,2.6,2,0.1,1.9,4.6l-0.1,0.1c-0.4,0.4-1.2,0.8-1.5,1.2c-0.7,0.9-0.4,5.4-0.3,6.6c0.1,1.5,0.1,2.8,0.7,4.2l-0.5,0.4
		c-1.5-3.3-1-7.6-0.9-11.1c-0.5-0.2-1-0.5-1.4-0.8c-0.4-0.4-0.9-0.9-0.8-1.6c0-1.1,1.1-1.8,1.8-2.6c0.7-0.7,0.4-2.9,0.3-3.8
		C192.9,167.9,192.9,166.4,192.9,164.9z"/>
	<path class="st1" d="M193.9,173.6c0.5,0.3,0.8,0.5,1,1.1c0.3,0.8,0,1.6-0.4,2.4l-0.3,0.1l-0.2-0.1
		C193.7,176.1,193.9,174.7,193.9,173.6z"/>
	<path class="st1" d="M192.5,173.7l0.2,0.2c0,1.1,0.2,2.2,0,3.3l-0.3,0.2c-0.1,0-0.1-0.1-0.2-0.1c-0.4-0.4-0.6-1.1-0.6-1.7
		C191.6,174.8,191.9,174.2,192.5,173.7z"/>
	<path class="st2" d="M168,155.5c0.5-0.1,0.7-0.2,1.1-0.5c0.1-0.1,0.2-0.2,0.3-0.3c0.9-0.4,14.2-0.3,15.3,0.1
		c0.3,0.1,0.2,0.2,0.4,0.4c-1.9,1.2-4,2.3-6,3.3c-4.1,2.1-8.4,4.2-12.7,5.8l-0.1,0.1l-0.8,0.3c0.2-1.7,0.2-6.7-0.5-8l0.6,0.1
		l0.6,0.1c0.4-0.2,0.8-0.4,1.2-0.6C167.5,156.2,167.8,155.8,168,155.5z"/>
	<path class="st13" d="M166,156.9c0.4-0.2,0.8-0.4,1.2-0.6c-0.3,0.4-0.5,0.9-0.8,1.3c-0.2,2.2,0,4.5-0.1,6.7l-0.1,0.1l-0.8,0.3
		c0.2-1.7,0.2-6.7-0.5-8l0.6,0.1L166,156.9z"/>
	<path class="st9" d="M166.2,164.3c4.4-1.6,8.6-3.7,12.7-5.8c0.8,1.7,1.2,3.5,2.2,5.2c-3,1.6-7.9,4.1-11.1,5.2l-0.1,0l-0.4,0.3
		l-0.3,0c-0.9,0.5-1.9,0.9-2.9,1.2l-0.1,0c0-0.9,0-1.8,0.2-2.7c0.1-0.2,0-0.4,0-0.7l-0.2-0.2h-0.8c-0.1-0.7-0.1-1.4-0.1-2.1l0.8-0.3
		L166.2,164.3z"/>
	<path class="st9" d="M166.4,167.7c0.8,0.2,1.5,0.5,2.3,0.9c0.2,0.2,0.4,0.4,0.5,0.6c-0.9,0.5-1.9,0.9-2.9,1.2l-0.1,0
		C166.2,169.6,166.3,168.6,166.4,167.7z"/>
	<path class="st12" d="M166.1,164.4c0.2,0.8,0.1,1.7,0.1,2.5h-0.8c-0.1-0.7-0.1-1.4-0.1-2.1L166.1,164.4z"/>
	<path class="st12" d="M166.4,167.1c1,0.2,1.8,0.4,2.6,0.9l-0.4,0.6c-0.7-0.4-1.4-0.7-2.3-0.9C166.5,167.5,166.5,167.3,166.4,167.1z
		"/>
	<path class="st21" d="M169.1,168c0.4,0.3,0.7,0.5,0.9,1l-0.4,0.3l-0.3,0c-0.2-0.2-0.3-0.4-0.5-0.6L169.1,168z"/>
	
		<linearGradient id="SVGID_18_" gradientUnits="userSpaceOnUse" x1="58.3389" y1="198.014" x2="62.6773" y2="199.2108" gradientTransform="matrix(3.0769 0 0 -3.0795 4.882810e-04 769.8777)">
		<stop  offset="0" style="stop-color:#CB5246"/>
		<stop  offset="1" style="stop-color:#F39993"/>
	</linearGradient>
	<path class="st34" d="M187.8,153.7c1.6,0.4,3.3,0.2,4.9,0.2c0.3-0.1,0.6-0.2,1,0c0,0,0.1,0,0.1,0c0.9,0,3.1-0.2,3.7,0.3
		c0,0,0,0,0.1,0.1l-0.9,0.4c-1-0.2-1.9-0.2-2.9-0.2c0,0.7-0.1,1.4,0.1,2l-0.8,0.6l-0.3,0.2c-2.1,1.3-4.3,2.5-6.5,3.7
		c-1.1,0.6-2.3,1.1-3.3,1.8c-0.6,0.3-1.2,0.6-1.7,0.9c-0.9-1.7-1.4-3.5-2.2-5.2c2.1-1,4.1-2.1,6-3.3c0.6-0.3,1.2-0.8,1.9-1.1
		L187.8,153.7z"/>
	<path class="st15" d="M187.8,153.7c1.6,0.4,3.3,0.2,4.9,0.2c0.3-0.1,0.6-0.2,1,0c0,0,0.1,0,0.1,0c0.9,0,3.1-0.2,3.7,0.3
		c0,0,0,0,0.1,0.1l-0.9,0.4c-1-0.2-1.9-0.2-2.9-0.2l-1,0c-1.2,0-5.1,0.2-5.9-0.4L187.8,153.7z"/>
	<path class="st15" d="M192.8,154.5l1,0c0,0.7-0.1,1.4,0.1,2l-0.8,0.6C192.6,156.4,192.7,155.3,192.8,154.5z"/>
	
		<linearGradient id="SVGID_19_" gradientUnits="userSpaceOnUse" x1="61.2579" y1="196.4673" x2="62.4458" y2="198.8072" gradientTransform="matrix(3.0769 0 0 -3.0795 4.882810e-04 769.8777)">
		<stop  offset="0" style="stop-color:#C61617"/>
		<stop  offset="1" style="stop-color:#E63522"/>
	</linearGradient>
	<path class="st35" d="M182.9,162.9c1-0.7,2.3-1.2,3.3-1.8c2.2-1.2,4.3-2.4,6.5-3.7c0.3,1.4,0.3,6,0.2,7.6c0,1.5,0,3-0.1,4.4
		c-0.4-0.4-0.2-3-0.2-3.7c-2.3,0-4.2-0.5-6.2-1.9c-0.4-0.3-1.5-1.3-1.9-1.4c-0.4-0.1-1.1,0.4-1.5,0.5
		C182.9,162.9,182.9,162.9,182.9,162.9z"/>
	<path class="st8" d="M73.4,143.5l0.4-0.2c0.1-0.3,0.4-0.5,0.6-0.8c0.9-1,0.3-1.6,0.3-2.8c0-1.5,1.2-3.2,2.2-4.2
		c2.6-2.8,6.3-4.2,10.1-4.3c0,2.6-0.7,9.1,1.2,10.9c0.5,0.5,1.2,0.8,1.9,1c2.4,0.4,5.1,0.1,7.6,0.1c3.7,0,7.4,0.1,11,0
		c1.1,0,2.6-1,3.6-0.8l0.2,0.2c-0.9,3.6-1.5,7.7-1.8,11.4c-0.4,3.5-0.7,7.1-0.7,10.7c0,2.4,0.1,4.7,0,7.1c0.3,1.4,0.2,2.8,0.4,4.2
		l0,1.2c-0.7-0.9-0.5-3.8-0.5-5c-2.5-0.2-5-0.1-7.5-0.3c-0.9-0.2-2-0.1-2.9-0.1c-2.6,0-5.2-0.1-7.8-0.1l-9.8,0
		c-1.9,0-3.8-0.1-5.7,0.1c-0.9,0-1.8,0-2.7-0.1c-0.1-0.1-0.3-0.1-0.5-0.2c-0.2,0.1-0.5,0.2-0.6,0.3c-2.3,0.1-4.6,0.1-6.9,0l-0.1-0.5
		l0-0.1c-0.4-3.4-0.3-6.9-0.3-10.3l0-0.6c0-5.7,0.3-11.5,1-17.2c1.5-0.1,3.3-0.3,4.8-0.1c0.5-0.1,1-0.4,1.5-0.5
		c0.1,0.5,0.1,0.8,0.5,1.1L73.4,143.5z"/>
	<path class="st2" d="M73.2,160.8c2.1,0.1,4.3,0,6.4,0l11.1,0.3c2.3,0,4.9-0.1,7.1,0.3c0.9,0.2,1.5,0.4,2.1,1.1
		c1.2,1.4,0.9,3.2,1.1,4.9c0,0.3-0.1,3.3-0.2,3.5c-1.7,0.1-4-0.3-5.6,0.2l-22.1,0.1C73.3,167.8,73.3,164.3,73.2,160.8z"/>
	<path class="st2" d="M66.1,143.1c1.5-0.1,3.3-0.3,4.8-0.1c0.4,0,0.8,0,1.1,0.3c0.9,1.1,0.5,14.6,0.5,16.9c-2.4,0-5.1-0.3-7.5,0
		C65,154.6,65.3,148.8,66.1,143.1z"/>
	<path class="st1" d="M72.5,160.3l0,0.6c0,3.4,0,6.8,0,10.2c-2.4,0-4.8-0.1-7.2,0c-0.4-3.4-0.3-6.9-0.3-10.3l0-0.6
		C67.5,160,70.1,160.3,72.5,160.3z"/>
	<path class="st2" d="M72.5,160.3l0,0.6c-2.4,0.1-5.1,0.2-7.5,0l0-0.6C67.5,160,70.1,160.3,72.5,160.3z"/>
	<path class="st14" d="M72.4,142.5c0.1,0.5,0.1,0.8,0.5,1.1l0.5-0.1c-0.4,5.7-0.3,11.6-0.2,17.3c0,3.5,0,6.9,0,10.4l22.1-0.1
		c1.5,0,3.1-0.1,4.6,0c-2.8,0.4-26.8-0.1-27.2,0.3l0.1,0.1c-0.2,0.1-0.5,0.2-0.6,0.3c-2.3,0.1-4.6,0.1-6.9,0l-0.1-0.5l0-0.1
		c2.4-0.1,4.8,0,7.2,0c0-3.4,0-6.8,0-10.2l0-0.6c0-2.3,0.4-15.8-0.5-16.9c-0.3-0.4-0.7-0.3-1.1-0.3
		C71.4,142.9,71.9,142.7,72.4,142.5z"/>
	<path class="st13" d="M102.1,171.2c2-0.1,4.1-0.1,6.1-0.2c0.2,0,1.2-0.1,1.3-0.2c0.1-0.1-0.2-15.5,1-16.8
		c-0.4,3.5-0.7,7.1-0.7,10.7c0,2.4,0.1,4.7,0,7.1c0.3,1.4,0.2,2.8,0.4,4.2l0,1.2c-0.7-0.9-0.5-3.8-0.5-5c-2.5-0.2-5-0.1-7.5-0.3
		c-0.9-0.2-2-0.1-2.9-0.1c-2.6,0-5.2-0.1-7.8-0.1l-9.8,0c-1.9,0-3.8-0.1-5.7,0.1c-0.9,0-1.8,0-2.7-0.1c-0.1-0.1-0.3-0.1-0.5-0.2
		l-0.1-0.1c0.3-0.4,24.3,0.1,27.2-0.3c0.7,0,1,0,1.5-0.5l0.2,0.4l0.2,0c0.5-1.5-0.1-4.2-0.1-5.9
		C102.3,167.1,101.9,169.2,102.1,171.2z"/>
	
		<linearGradient id="SVGID_20_" gradientUnits="userSpaceOnUse" x1="56.3032" y1="219.2738" x2="61.2801" y2="216.4752" gradientTransform="matrix(3.0769 0 0 -3.0795 4.882810e-04 769.8777)">
		<stop  offset="0" style="stop-color:#F3B2A6"/>
		<stop  offset="1" style="stop-color:#FFFDFE"/>
	</linearGradient>
	<path class="st36" d="M157.7,82.4l0.5,0.2c1.4-0.3,3.3-0.1,4.7-0.1l0.2,0.1c0.6,1.1,1,1.6,2.1,2.2c0.4,0,0.7,0,1.1,0l0.9-0.7
		l0.2,0.1c0.3-0.6,0.6-1.1,0.8-1.7l5.9,0c3.5,0,7.8-0.4,10.4,2.3c0.8,0.8,1.3,1.9,2,2.8c0.3,1,0.3,2,0.5,3c0.4-0.2,0.8-0.5,1.2-0.7
		l0.2,0c0.4-0.3,0.9-0.6,1.3-0.9c0.3-0.3,0.5-0.4,0.6-0.9c0.5,0.7,0.9,1.4,1.3,2.1c0.5-1.3,1-2.6,1.5-3.9l0.2,0.1
		c0.7-0.1,1.9-1.2,2.5-1.7c1.9,1.2,2.8,3.6,3.7,4.3c-1.9,1.4-5.7,4.6-7.7,5.5c-1.3,0.9-2.9,1.8-4.2,2.9l-1.6,0.9
		c-3.1,2-6.4,3.9-9.7,5.6c-1.8,1-3.7,1.9-5.5,2.9c-1.4,0.4-2.8,0.2-4.3,0.4c-0.4-1.2-0.3-2.6-0.2-3.9c-0.1-0.4-0.1-0.4-0.4-0.6
		l-0.7,0.3l-0.2,0.2c-1.5,0.7-6.9,3.5-8,3.5l-0.8,0.5l-1.4-0.1c-0.3-1-0.2-5.8,0-7c-0.9-0.6-1.6-1-2-2.1c-0.2-0.5-0.2-1,0.1-1.5
		c0.4-0.7,1-1,1.7-1.2l0.5-0.5l0.3,0.2c0.5-3.8-0.3-8.5,0.2-12.5C156.4,82.5,157.2,82.7,157.7,82.4z"/>
	<path class="st14" d="M157.7,82.4l0.5,0.2c1.4-0.3,3.3-0.1,4.7-0.1l0.2,0.1c0.6,1.1,1,1.6,2.1,2.2c0.2,1.3,0.1,3.9-0.1,5.1l0.3,0.6
		l0.9,0.9l0.1,0.2c-0.4,3.6-0.2,7.3-0.1,10.9l-0.2,0.1l-0.7,0.3l-0.2,0.2c-1.5,0.7-6.9,3.5-8,3.5l-0.8,0.5l-1.4-0.1
		c-0.3-1-0.2-5.8,0-7c-0.9-0.6-1.6-1-2-2.1c-0.2-0.5-0.2-1,0.1-1.5c0.4-0.7,1-1,1.7-1.2l0.5-0.5l0.3,0.2c0.5-3.8-0.3-8.5,0.2-12.5
		C156.4,82.5,157.2,82.7,157.7,82.4z"/>
	<path class="st9" d="M158.2,82.6c1.4-0.3,3.3-0.1,4.7-0.1l0.2,0.1c0.6,1.1,1,1.6,2.1,2.2c0.2,1.3,0.1,3.9-0.1,5.1
		c-1.1-0.9-2.1-2.2-3.1-3.3C160.7,85.3,159.3,84.1,158.2,82.6z"/>
	<path class="st13" d="M155.2,94.8l0.3,0.2c1,0.6,1.8,1.1,2.1,2.3c0.1,0.5,0.1,0.9-0.2,1.3c-0.4,0.6-1.1,1-1.7,1.1l-0.1,0.1l-0.1,0
		c-0.2,0.1-0.2,0.1-0.5,0.1c-0.9-0.6-1.6-1-2-2.1c-0.2-0.5-0.2-1,0.1-1.5c0.4-0.7,1-1,1.7-1.2L155.2,94.8z"/>
	<path class="st16" d="M154.9,95.9l0.4-0.1c0.3,0.2,0.4,0.4,0.5,0.8c0.2,1.1-0.1,2.2,0,3.3l-0.1,0.1l-0.1,0c-0.1,0-0.2-0.1-0.2-0.2
		C154.6,98.9,154.8,97,154.9,95.9z"/>
	<path class="st6" d="M165.4,90.5l0.9,0.9l0.1,0.2c-0.4,3.6-0.2,7.3-0.1,10.9l-0.2,0.1l-0.7,0.3C165.1,101.4,164.9,91.6,165.4,90.5z
		"/>
	<path class="st13" d="M155.5,100l0.1,0c0.4,1.8-0.4,5.4,0.5,6.9c0.2,0,0.3,0,0.5-0.1c0.2-0.1,0.4,0,0.6,0l-0.8,0.5l-1.4-0.1
		c-0.3-1-0.2-5.8,0-7C155.2,100.1,155.3,100.1,155.5,100z"/>
	
		<linearGradient id="SVGID_21_" gradientUnits="userSpaceOnUse" x1="56.1477" y1="224.1216" x2="59.2037" y2="219.6568" gradientTransform="matrix(3.0769 0 0 -3.0795 4.882810e-04 769.8777)">
		<stop  offset="0" style="stop-color:#BD1818"/>
		<stop  offset="1" style="stop-color:#E63121"/>
	</linearGradient>
	<path class="st37" d="M168.2,82.5l5.9,0c3.5,0,7.8-0.4,10.4,2.3c0.8,0.8,1.3,1.9,2,2.8c0.3,1,0.3,2,0.5,3c-2.9,2.2-6.4,3.6-9.2,6
		c-2-2.2-3.6-4.9-5.7-6.9c-1.2-1.9-3.1-3.7-4.7-5.4C167.8,83.7,168,83.1,168.2,82.5z"/>
	
		<linearGradient id="SVGID_22_" gradientUnits="userSpaceOnUse" x1="54.4255" y1="218.988" x2="56.373" y2="217.5004" gradientTransform="matrix(3.0769 0 0 -3.0795 4.882810e-04 769.8777)">
		<stop  offset="0" style="stop-color:#E6756A"/>
		<stop  offset="1" style="stop-color:#F3B3A7"/>
	</linearGradient>
	<path class="st38" d="M167.2,84.1l0.2,0.1c1.5,1.7,3.4,3.5,4.7,5.4c2.2,2,3.7,4.8,5.7,6.9l-0.3,0.3c-0.3-0.2-1.3-1.6-1.6-2
		c-1.2,1.3-1.8,3.6-2.6,5.2c-1,2-3.6,6-6.1,6.2c-0.2,0-0.4,0-0.6,0c-0.2-0.9,0-2-0.3-2.9c-0.1-0.4-0.1-0.4-0.4-0.6l0.2-0.1
		c0-3.6-0.2-7.3,0.1-10.9l-0.1-0.2l-0.9-0.9l-0.3-0.6c0.3-1.3,0.3-3.8,0.1-5.1c0.4,0,0.7,0,1.1,0L167.2,84.1z"/>
	<path class="st9" d="M167.2,84.1l0.2,0.1c1.5,1.7,3.4,3.5,4.7,5.4l-0.1,0.2l0.2,0.3c-1.6,1-2.3,2.3-3.1,4c-0.3-0.2-0.6-0.5-0.9-0.5
		c-0.6-0.5-1.2-1.3-1.7-2l-0.1-0.2l-0.9-0.9l-0.3-0.6c0.3-1.3,0.3-3.8,0.1-5.1c0.4,0,0.7,0,1.1,0L167.2,84.1z"/>
	<path class="st12" d="M165.2,84.8c0.4,0,0.7,0,1.1,0c0.1,2,0.3,4.6,0,6.7l-0.9-0.9l-0.3-0.6C165.3,88.7,165.4,86.1,165.2,84.8z"/>
	<path class="st14" d="M166.4,91.6c0.5,0.6,1.1,1.5,1.7,2c1.5,1.9,3.1,3.8,4.6,5.7c-2.1,1.1-4.2,2.3-6.5,3.2
		C166.3,99,166,95.2,166.4,91.6z"/>
	
		<linearGradient id="SVGID_23_" gradientUnits="userSpaceOnUse" x1="64.1631" y1="222.03" x2="62.8878" y2="220.873" gradientTransform="matrix(3.0769 0 0 -3.0795 4.882810e-04 769.8777)">
		<stop  offset="0" style="stop-color:#D8766B"/>
		<stop  offset="1" style="stop-color:#F3AFA2"/>
	</linearGradient>
	<path class="st39" d="M193.1,86.2l0.2,0.1c0.7-0.1,1.9-1.2,2.5-1.7c1.9,1.2,2.8,3.6,3.7,4.3c-1.9,1.4-5.7,4.6-7.7,5.5
		c-0.6-0.8-1.1-1.7-1.7-2.5l0.1-0.1c0.6,0.3,1,0.9,1.5,1.3c0.3,0.3,0.4,0.5,0.8,0.4c0.1-0.6,1.1-0.6,1.5-1c0.2-0.2,0.4-0.6,0.5-0.8
		l0.4-0.1c-0.1-0.8-1.7-2.4-2.3-3.1c-0.4,0.1-0.8,0.9-1,1.4c-0.6,0.1-1.3-0.3-1.9-0.6c-0.5,0.1-0.7,0.4-1.1,0.8l-0.5-0.2
		c0.4-0.3,0.9-0.6,1.3-0.9c0.3-0.3,0.5-0.4,0.6-0.9c0.5,0.7,0.9,1.4,1.3,2.1C192,88.8,192.5,87.5,193.1,86.2z"/>
	<path class="st8" d="M188.5,142.4c1.5,0.7,2.8,0.8,4.4,0.7c-0.1,1.6-0.1,3.3-0.1,4.9c0,0.8-0.1,1.6,0,2.4l-0.1,0.2
		c0.1,1.1,0.1,2.1,0,3.2c-1.6,0-3.3,0.2-4.9-0.2l-0.9,0.4c-0.7,0.3-1.2,0.8-1.9,1.1c-0.1-0.3-0.1-0.3-0.4-0.4
		c-1.1-0.4-14.4-0.5-15.3-0.1c-0.1,0.1-0.2,0.2-0.3,0.3c-0.4,0.3-0.6,0.4-1.1,0.5c0.1-0.5,0.4-1,0.4-1.5l0.1-0.1
		c-0.1-0.3-0.3-0.6-0.4-0.8c-0.3-0.5-0.7-0.8-1.2-0.9l-0.6-0.2c-0.2-0.1-0.4-0.1-0.7-0.2c-0.2-1.3-0.6-8.4,0-9.2
		c0.3,0.1,0.7,0.3,1,0.4c3.5,0.4,7.2,0.2,10.7,0.2c2.7,0,5.5,0.2,8.2-0.1C186.5,143,187.5,142.8,188.5,142.4z"/>
	<path class="st14" d="M168.4,153.9c1.3-0.2,2.7,0,4,0.1c3.5,0.1,7.1,0,10.6-0.1c1.1,0,2.3,0,3.4-0.1c0.4,0,0.8-0.3,1.2-0.5
		c0.8-0.4,4.6-2.6,4.9-3.1c0.3-0.5,0.1-1.5,0.3-2.1c0,0,0-0.1,0-0.1c0,0.8-0.1,1.6,0,2.4l-0.1,0.2c0.1,1.1,0.1,2.1,0,3.2
		c-1.6,0-3.3,0.2-4.9-0.2l-0.9,0.4c-0.7,0.3-1.2,0.8-1.9,1.1c-0.1-0.3-0.1-0.3-0.4-0.4c-1.1-0.4-14.4-0.5-15.3-0.1
		c-0.1,0.1-0.2,0.2-0.3,0.3c-0.4,0.3-0.6,0.4-1.1,0.5C168,155,168.3,154.5,168.4,153.9L168.4,153.9z"/>
	<path class="st21" d="M187.8,153.7c1.5-1.1,3.2-2.2,4.9-3c0.1,1.1,0.1,2.1,0,3.2C191.1,153.9,189.4,154.1,187.8,153.7z"/>
	<path class="st13" d="M165.5,142.6c0.3,0.1,0.7,0.3,1,0.4c-0.4,1.3-0.4,7.4,0,8.8l0.3,0.4l-0.6-0.2c-0.2-0.1-0.4-0.1-0.7-0.2
		C165.3,150.5,164.9,143.4,165.5,142.6z"/>
	<path class="st8" d="M83.9,97.5l0.6,0.3l1.5,0.9l0.7,0.2c1.3,1.1,2.9,2,4.4,3c2.5,1.6,5,3.3,7.4,5.1c0,0-0.1,0-0.1,0
		c-3.1,0.9-8.8-1.6-10.7,1.9c-0.5,0.9-0.5,1.7-0.6,2.7c-1.8-2-4.3-4-7.1-4.2c-0.1,0-0.2,0-0.3,0l-0.7-0.2c0.1-1.7,0-3.4,0-5.2
		l0.3-0.4l0.3-0.4c0.2-0.6,0.5-1.2,0.5-1.8c0.3-0.2,0.7-0.4,1-0.7l0.5-1l0.1-0.1C82.3,97.6,83.1,97.6,83.9,97.5z"/>
	<path class="st14" d="M83.9,97.5l0.6,0.3l1.5,0.9c-0.7,0.3-4.3,0.2-5.1,0l0.5-1l0.1-0.1C82.3,97.6,83.1,97.6,83.9,97.5z"/>
	<path class="st13" d="M79.4,101.1c0.6,1.1,0.2,4.8,0.2,6.2l-0.7-0.2c0.1-1.7,0-3.4,0-5.2l0.3-0.4L79.4,101.1z"/>
	
		<linearGradient id="SVGID_24_" gradientUnits="userSpaceOnUse" x1="64.7321" y1="201.967" x2="70.7119" y2="202.2365" gradientTransform="matrix(3.0769 0 0 -3.0795 4.882810e-04 769.8777)">
		<stop  offset="0" style="stop-color:#D11317"/>
		<stop  offset="1" style="stop-color:#6E150C"/>
	</linearGradient>
	<path class="st40" d="M212.3,143.3c1.2-0.3,2.9-0.6,3.6-1.7c0.3-0.5,0.5-0.9,0.9-1.4c0.4,0,0.7,0.4,1,0.6l0.1,0
		c-0.5,1.2-0.6,2.6-0.9,3.8c-0.5,2.5-1.4,7.3-2.5,9.5l-0.3-0.3l-0.3,0.2c-0.3,0-0.6,0-0.8,0c-2.8,0-11.1,0.2-13.3-0.3
		c-0.4-0.1-0.5-0.2-0.8-0.5l5.5-4C207.1,147.4,209.6,145.2,212.3,143.3z"/>
	
		<linearGradient id="SVGID_25_" gradientUnits="userSpaceOnUse" x1="64.4876" y1="218.0375" x2="61.3956" y2="219.1516" gradientTransform="matrix(3.0769 0 0 -3.0795 4.882810e-04 769.8777)">
		<stop  offset="0" style="stop-color:#E41F14"/>
		<stop  offset="1" style="stop-color:#EB5D38"/>
	</linearGradient>
	<path class="st41" d="M199.6,88.9l1-0.7c0,0,0,0.1-0.1,0.1c-0.6,1.1-3.5,2.2-3.6,3.3c0,0.2,0.1,0.7,0.1,0.9c1,4.5,2,6.8-0.6,11.1
		c-0.6,1-1.5,2.1-1.9,3.2c1.6,0,3.2-0.1,4.8,0.1c-2.5,0.1-5.3,0.3-7.8,0.1c-1.9-0.5-1.8-2.1-2.7-2.5l-0.2-0.1
		c-1.3-2.2-0.4-4.8-0.9-7.1c1.2-1.1,2.8-2,4.2-2.9C193.8,93.4,197.7,90.3,199.6,88.9z"/>
	<path class="st6" d="M187.7,97.3c0.6,2.3-0.4,4.9,0.9,7.1l0.2,0.1c1,0.4,0.8,2,2.7,2.5c-1.2,0.1-2,0.7-3.1,0.9
		c-0.6,0.1-1.8-0.8-2.5-0.9c-2.1-0.2-5.8,0-8,0c-1.3,0-6.2,0.4-7-0.2c1.8-1.1,3.7-2,5.5-2.9c3.3-1.8,6.6-3.6,9.7-5.6L187.7,97.3z"/>
	<path class="st28" d="M187.7,97.3c0.6,2.3-0.4,4.9,0.9,7.1l-0.5,0.3c-1-2-1-5.6-1.5-6.3c-0.1-0.2-0.3-0.2-0.6-0.3L187.7,97.3z"/>
	<path class="st16" d="M188.6,104.4l0.2,0.1c0,0,0,0.1,0.1,0.1c0.3,0.7,1.1,1.4,1.2,2.1l-0.1,0.2c-0.7-0.4-1.6-1.3-1.9-2.1
		c0,0,0-0.1,0-0.1L188.6,104.4z"/>
	
		<linearGradient id="SVGID_26_" gradientUnits="userSpaceOnUse" x1="67.352" y1="224.3068" x2="64.2253" y2="221.826" gradientTransform="matrix(3.0769 0 0 -3.0795 4.882810e-04 769.8777)">
		<stop  offset="0" style="stop-color:#A2463F"/>
		<stop  offset="1" style="stop-color:#D76D63"/>
	</linearGradient>
	<path class="st42" d="M205.7,76.6c1,1.5,2.3,3.5,2.9,5.2c-1.1,0.8-7.7,5.8-8.1,6.4l-1,0.7c-1-0.7-1.8-3.1-3.7-4.3l0.4-0.5
		c1.2,0.2,2.4,0.3,3.6,0.4c-0.4-0.8-0.8-1.5-1.4-2.2C201.1,80.9,203.5,78.5,205.7,76.6z"/>
	
		<linearGradient id="SVGID_27_" gradientUnits="userSpaceOnUse" x1="65.6204" y1="202.4573" x2="63.2919" y2="199.9985" gradientTransform="matrix(3.0769 0 0 -3.0795 4.882810e-04 769.8777)">
		<stop  offset="0" style="stop-color:#C5574D"/>
		<stop  offset="1" style="stop-color:#F29089"/>
	</linearGradient>
	<path class="st43" d="M200.8,145l-0.1,0.5c0.4,0.3,0.9,0.6,1.3,0.9c0.6,0.6,1.5,2.4,2,2.8c0.1,0.1,0.4,0.1,0.5,0.1l-5.5,4
		c-0.5,0.3-1,0.8-1.5,1c0,0,0,0-0.1-0.1c-0.6-0.5-2.8-0.3-3.7-0.3c0,0-0.1,0-0.1,0c-0.3-0.1-0.6-0.1-1,0c0-1.1,0-2.1,0-3.2l0.1-0.2
		l0.8-0.5c1.1-0.9,2.4-1.5,3.6-2.4C198.4,147,199.7,145.8,200.8,145z"/>
	<path class="st15" d="M193.6,150c0.3,1.2,0.2,2.7,0.2,3.9c0,0-0.1,0-0.1,0c-0.3-0.1-0.6-0.1-1,0c0-1.1,0-2.1,0-3.2l0.1-0.2
		L193.6,150z"/>
	<path class="st8" d="M204.5,142.1c2.1,1.8,5.2,0.8,7.7,1.2c-2.7,1.9-5.1,4.1-7.8,6c-0.1,0-0.4-0.1-0.5-0.1c-0.5-0.4-1.4-2.1-2-2.8
		c-0.4-0.4-0.9-0.6-1.3-0.9l0.1-0.5C201.7,144.1,203.5,142.9,204.5,142.1z"/>
	
		<linearGradient id="SVGID_28_" gradientUnits="userSpaceOnUse" x1="52.3917" y1="215.9878" x2="52.9515" y2="214.222" gradientTransform="matrix(3.0769 0 0 -3.0795 4.882810e-04 769.8777)">
		<stop  offset="0" style="stop-color:#F3998D"/>
		<stop  offset="1" style="stop-color:#F7BBB4"/>
	</linearGradient>
	<path class="st44" d="M166,102.7c0.3,0.2,0.3,0.2,0.4,0.6c-0.1,1.3-0.2,2.6,0.2,3.9l-1.1,0.5c-0.1,0.1-0.2,0.1-0.2,0.2
		c-0.9,0.8-1.3,1.9-1.9,2.9c-2.8-1.7-3.6-2.6-7-3.5l0.8-0.5c1.2,0,6.6-2.9,8-3.5l0.2-0.2L166,102.7z"/>
	<path class="st15" d="M166,102.7c0.3,0.2,0.3,0.2,0.4,0.6c-0.1,1.3-0.2,2.6,0.2,3.9l-1.1,0.5c-0.7-1-0.3-3.2-0.3-4.4l0.2-0.2
		L166,102.7z"/>
	<path class="st13" d="M85,130.4c0.6,0.1,1.5,0,2,0.2l0,0.7c-3.8,0.1-7.5,1.5-10.1,4.3c-1,1-2.2,2.7-2.2,4.2c0,1.2,0.6,1.8-0.3,2.8
		c-0.2,0.2-0.5,0.4-0.6,0.8l-0.4,0.2l-0.5,0.1c-0.4-0.3-0.4-0.6-0.5-1.1c0.6-0.7,1.1-1.4,1.4-2.3c0.1-0.8,0.2-1.6,0.4-2.3
		c0.7-1.9,2.9-3.6,4.4-5C80.7,131.9,82.9,131.5,85,130.4z"/>
	<path class="st6" d="M73.8,140.3c0.3,0.3,0.5,0.5,0.5,1c-0.1,0.8-0.7,1.4-0.9,2.3l-0.5,0.1c-0.4-0.3-0.4-0.6-0.5-1.1
		C73,141.9,73.5,141.1,73.8,140.3z"/>
	<path class="st2" d="M74,133.2c1.4-0.2,3.1-0.6,4.5-0.3c-1.4,1.4-3.6,3.1-4.4,5c0-0.1,0-0.3-0.1-0.4C73.9,136.1,74,134.6,74,133.2z
		"/>
	<path class="st13" d="M192.9,143.1c0.4,0.1,0.5,0,0.8,0.3c0.2,1.5-0.3,4.7,0.4,5.7c0.2,0,0.2,0,0.3-0.1c0.4-0.5,1.8-1.5,2.5-1.5
		c0.1,0,0.1,0,0.2,0c-1.1,0.9-2.4,1.5-3.6,2.4l-0.8,0.5c-0.1-0.8,0-1.6,0-2.4C192.8,146.4,192.8,144.7,192.9,143.1z"/>
	<path class="st14" d="M85,130.4l2.1-2.1c-0.1,0.7-0.2,1.6-0.1,2.3C86.5,130.3,85.6,130.5,85,130.4z"/>
	<path class="st7" d="M190.4,110.1c2.5-0.2,5.1-0.1,7.6-0.1c2.3,0,4.8-0.1,7.1,0.1c2.4,0.2,4.8,1.1,6.4,3c1.6,2,2.1,5,1.8,7.5
		c-0.3,2.6-1.4,4.7-3.5,6.4c0.8,2.6,1.6,5.3,2.4,7.9c0.5,1.7,1.2,3.4,1.5,5.2c-2,0.2-5.3,0.4-7.1-0.1c-1.2-3-2.5-7.4-3.1-10.5
		c-1.8,0.3-3.6,0.4-5.4,0.7c0,2,0.4,8.2-0.3,9.7c-1.2,0.6-5.8,0.2-7.2,0.2c-0.2-2.3-0.1-4.6-0.2-6.8l0-9.6l0-7.9
		C190.2,113.8,190.1,111.9,190.4,110.1z"/>
	<path class="st1" d="M197.9,116.4c1.8,0.2,4.9-0.5,6.5,0.5c0.6,0.4,1,1,1.1,1.7c0.2,1,0,2.2-0.6,3c-0.8,1.1-1.7,1.2-2.9,1.4
		c-2.5,0.3-5,0.6-7.4,1c1.1-0.8,2.3-1.5,3.3-2.4L197.9,116.4z"/>
	<path class="st7" d="M225.7,109.9c2.9-0.3,6.9,0,9.5,1.3c1.7,0.9,2.8,2.3,3.4,4.2c0.3,0.9,0.7,2.7,0.2,3.6c-1.4,0.9-5.3,0.9-7.1,1
		c-0.4-1-0.4-2.2-1.2-3c-0.7-0.7-1.8-1-2.9-1c-1,0-2.1,0.2-2.8,0.9c-0.4,0.5-0.6,1.1-0.5,1.7c0,0.6,0.3,1.5,0.8,1.8
		c1.9,1.3,9,0.4,12.4,3.4c1.7,1.6,2.3,3.9,2.5,6.2c0.1,2.6-0.3,5.4-2.1,7.4c-2.3,2.5-5.9,2.7-9,2.9c-3.1,0-6.8-0.1-9.3-2
		c-2.1-1.6-2.8-4.2-3.1-6.7c-0.1-0.6-0.1-1,0.3-1.5c1.8-0.8,5.3-0.9,7.3-1c0.2,1.5,0.4,3.1,1.6,4.2c0.8,0.7,2,1,3.1,0.9
		c1.1-0.1,2.3-0.5,3-1.3c0.5-0.6,0.8-1.4,0.7-2.1c-0.1-0.9-0.6-1.6-1.4-2c-0.9-0.4-1.8-0.5-2.8-0.6c-2.8-0.3-6.3-0.4-8.6-2.2
		c-1.7-1.4-2.6-3.5-2.8-5.7c-0.3-2.5,0.1-5.3,1.7-7.3C220.2,110.5,223,110.1,225.7,109.9z"/>
	<path class="st7" d="M113.5,110.1c2.3-0.2,4.8-0.1,7.1-0.1c2.7,0,5.6-0.2,8.2,0.2c1.4,0.2,2.9,0.6,4.1,1.5c1.9,1.4,3,3.5,3.3,5.8
		c0.5,2.9,0.2,6.4-1.6,8.8c-2,2.7-5.6,3.2-8.7,3.6l-4.9,0.6c0,3.2,0.1,6.3-0.1,9.5c-2.5,0.2-5,0.1-7.5,0c-0.2-1.9-0.1-3.8-0.1-5.6
		l0-8.9C113.4,120.7,113.1,114.9,113.5,110.1z"/>
	<path class="st1" d="M121.2,116.4c1.7,0.1,5.1-0.5,6.5,0.5c0.6,0.4,1,1.2,1.1,1.9c0.2,1.1,0.2,2.5-0.5,3.5c-0.7,1-1.6,1.1-2.7,1.3
		c-2.4,0.3-4.9,0.5-7.3,1c1-0.7,2-1.3,3-1.9C121.2,120.5,121.2,118.4,121.2,116.4z"/>
	<path class="st7" d="M63.4,110.1c2.7-0.2,5.4-0.1,8.1-0.1c2.5,0,5.1-0.2,7.5,0.3c1.4,0.2,2.8,0.7,3.9,1.5c1.9,1.4,2.9,3.6,3.2,5.9
		c0.4,2.9,0.1,6.4-1.7,8.7c-2.1,2.7-5.6,3.1-8.8,3.5c-1.5,0.3-3.1,0.4-4.7,0.6c0,3.1,0.2,6.4-0.2,9.5c-2.5,0.1-5,0.1-7.4,0
		c-0.3-1.9-0.1-4-0.1-5.9l0-10.3l0-8.6C63.3,113.5,63.1,111.7,63.4,110.1z"/>
	<path class="st1" d="M71,116.4c1.6,0.1,5.3-0.4,6.5,0.5c0.6,0.4,1,1.4,1.1,2.1c0.2,1.1,0.2,2.4-0.5,3.3c-0.8,1.1-1.9,1.1-3.1,1.3
		c-2.3,0.2-4.5,0.5-6.8,0.8c0.9-0.7,1.9-1.3,2.8-1.9L71,116.4z"/>
	<path class="st7" d="M140.2,110.1c2.5-0.2,5.1-0.1,7.7-0.1c2.6,0,5.3-0.2,7.8,0.2c1.5,0.2,3,0.7,4.2,1.6c1.9,1.4,2.8,3.6,3.2,5.9
		c0.4,2.8,0.1,6.3-1.7,8.7c-2,2.7-5.5,3.1-8.6,3.5l-4.8,0.6c0,3.1,0.1,6.4-0.1,9.5c-2.5,0.1-5,0.1-7.5,0c-0.4-4.3-0.1-9.7-0.1-14
		C140.1,120.7,139.8,115.3,140.2,110.1z"/>
	<path class="st1" d="M147.9,116.4c1.7,0.1,5-0.4,6.4,0.4c0.6,0.4,0.9,1.2,1.1,1.8c0.3,1.1,0.3,2.6-0.4,3.5
		c-0.7,1.1-1.7,1.2-2.9,1.4c-2.4,0.3-4.9,0.5-7.2,0.9c1-0.7,2-1.4,3-2C147.8,120.5,147.8,118.4,147.9,116.4z"/>
	<path class="st7" d="M90.1,110.1c3.2-0.2,6.5-0.1,9.8-0.1c3.2,0,6.5-0.1,9.7,0.1c0.2,2,0.2,4.1,0,6.2c-1.5,0.2-3.1,0.1-4.7,0.1
		l-7.2,0c0,1.2,0,2.3,0,3.5c-1.1,0.8-2.1,1.5-3.1,2.3c2.2-0.4,4.5-0.5,6.7-0.7c2.5-0.2,5.1-0.6,7.7-0.6c0.2,2,0.2,4.1,0,6.2
		c-2.7,0.4-5.5,0.6-8.3,0.8c-1,0.1-2,0.2-3,0.2l0,5.6c3.9-0.1,8-0.2,11.9,0.1c0.3,1.9,0.3,4.3,0,6.2c-2.9,0.4-6.1,0.1-9.1,0.1
		c-3.4,0-7.1,0.3-10.4-0.1c-0.2-1.6-0.1-3.3-0.1-4.9l0-8.6l0-10.6C89.9,114.1,89.7,111.9,90.1,110.1z"/>
	<path class="st7" d="M166.9,110.1c3.3-0.2,6.7-0.1,10-0.1c3.1,0,6.3-0.1,9.5,0.1c0.1,1.6,0.5,4.6-0.3,6.1
		c-1.4,0.6-9.6,0.2-11.6,0.2c0,1.2,0,2.3,0,3.5c-1.1,0.7-2.1,1.5-3.2,2.3c2.2-0.4,4.6-0.5,6.8-0.7c2.5-0.2,5-0.6,7.5-0.6
		c0.2,1.5,0.5,4.7-0.1,6c-1.1,0.7-6.3,0.8-7.9,1l-3.2,0.2c0,1.9,0,3.7,0,5.6c3.6-0.1,8.4-0.3,11.9,0.1c0.1,2.1,0.1,4.1,0,6.2
		c-3,0.4-6.3,0.1-9.3,0.1c-3.4,0-7,0.3-10.3-0.1c-0.2-2.1-0.1-4.3-0.1-6.4l0-11.5C166.8,119.7,166.5,112.2,166.9,110.1z"/>
	<path class="st8" d="M210.8,108.8c2.2,0,4.4-0.1,6.6,0.1l0.3,0.4c-0.6,0.3-1.4,0.3-2,0.4C214.2,109.7,212,109.8,210.8,108.8z"/>
</g>
</svg>
