<?xml version="1.0" encoding="utf-8"?>
<!-- Generator: Adobe Illustrator 25.1.0, SVG Export Plug-In . SVG Version: 6.00 Build 0)  -->
<svg version="1.1" id="Layer_1" xmlns="http://www.w3.org/2000/svg" xmlns:xlink="http://www.w3.org/1999/xlink" x="0px" y="0px"
	 viewBox="0 0 250 250" style="enable-background:new 0 0 250 250;" xml:space="preserve">
<style type="text/css">
	.st0{fill:none;}
	.st1{fill:#A01916;}
	.st2{fill:#B71817;}
	.st3{fill:url(#SVGID_1_);}
	.st4{fill:url(#SVGID_2_);}
	.st5{fill:url(#SVGID_3_);}
	.st6{fill:#E63621;}
	.st7{fill:#FFFFFF;}
	.st8{fill:#CE2517;}
	.st9{fill:#D1534A;}
	.st10{fill:url(#SVGID_4_);}
	.st11{fill:#F6B5A9;}
	.st12{fill:#F28F89;}
	.st13{fill:#E6311C;}
	.st14{fill:#E41713;}
	.st15{fill:#FBD5CE;}
	.st16{fill:#EC6437;}
	.st17{fill:url(#SVGID_5_);}
	.st18{fill:url(#SVGID_6_);}
	.st19{fill:url(#SVGID_7_);}
	.st20{fill:#A0453F;}
	.st21{fill:#F08279;}
	.st22{fill:url(#SVGID_8_);}
	.st23{fill:url(#SVGID_9_);}
	.st24{fill:url(#SVGID_10_);}
	.st25{fill:url(#SVGID_11_);}
	.st26{fill:url(#SVGID_12_);}
	.st27{fill:url(#SVGID_13_);}
	.st28{fill:#F18651;}
	.st29{fill:#B71817;fill-opacity:0.9882;}
	.st30{fill:url(#SVGID_14_);}
	.st31{fill:url(#SVGID_15_);}
	.st32{fill:url(#SVGID_16_);}
	.st33{fill:url(#SVGID_17_);}
	.st34{fill:url(#SVGID_18_);}
	.st35{fill:url(#SVGID_19_);}
	.st36{fill:url(#SVGID_20_);}
	.st37{fill:url(#SVGID_21_);}
	.st38{fill:url(#SVGID_22_);}
	.st39{fill:url(#SVGID_23_);}
	.st40{fill:url(#SVGID_24_);}
	.st41{fill:url(#SVGID_25_);}
	.st42{fill:url(#SVGID_26_);}
	.st43{fill:url(#SVGID_27_);}
	.st44{fill:url(#SVGID_28_);}
</style>
<g id="레이어_1">
	<rect x="8" y="8" class="st0" width="234" height="234"/>
</g>
<g>
	<path class="st1" d="M94.1,42.6c1.6-0.9,3.7-1.4,5.4-1.9c10.7-3.2,21.4-4.1,32.6-3.6l0.5,0.1c4.7,0.3,9.4,1.1,14,2.2
		c1.8,0.5,5.2,1.8,6.6,1.9l0.7,0.4c2.7,0.8,5.4,2,8,3.2c13.4,6.2,25,15.5,33.9,27.4c1.8,2.3,3.6,4.9,5,7.4c0.9,1.4,2.2,3.3,2.7,4.9
		c3.7,6.8,7.7,17.9,8.4,25.7c4.5-2.4,10.7-2.9,15.5-1.5c2.5,0.7,4.8,2.2,6,4.7c0.9,1.7,1.7,4.7,1,6.6c-0.3,1-1,1.7-2,2.2
		c2.2,2.2,2.8,5.1,2.9,8c0,3.1-0.7,6.2-2.9,8.5c-2.8,2.9-7,3.4-10.9,3.4c-3.3,0-6.8-0.3-9.6-2.2c-0.5,1.1-0.6,2.4-0.8,3.6
		c-0.5,2.3-1.3,6.8-2.3,8.9c-0.8,2-1.4,3.9-2.2,5.9c-1.9,4.6-4.1,8.9-6.6,13.1c-2.2,3.6-4.7,7-7.4,10.2c-0.5,0.6-2.5,2.7-2.6,3.2
		l-0.5,0.4c-5.9,6.2-12.5,11.6-19.9,15.9l-0.7,0.4c-11.9,6.7-25.1,10.7-38.8,11.4H124c-6.9,0.4-15.5-1.1-22.3-3
		c-2.2-0.6-4.3-1.4-6.5-2l-0.7-0.3c-0.9-0.7-2.3-1-3.5-1.5c-2-0.8-4-1.7-5.9-2.7c-1.9-1-3.7-2.1-5.6-3.2c-1.1-0.7-2.2-1.5-3.4-2
		l-0.5-0.5c-0.8-0.6-1.7-1.1-2.4-1.8c-2.3-1.4-4.9-3.6-6.7-5.5c-5.2-3.7-14.4-15.3-17.3-21l-0.2-0.1c-0.6-1.7-2.3-4.5-3.3-6.4
		c-1.4-2.8-2.5-5.7-3.7-8.6l-0.3-0.1c-0.5-0.9-0.6-2.3-1.1-3.2c-0.3-0.5-2.2-1.3-2.7-1.8c-3-2.3-5.6-5.9-7.2-9.4
		c-0.3-0.7-1.3-3-1.2-3.7c0-0.2,0.1-0.4,0.2-0.6h-0.1c-1.1,0.5-1.5,3.9-2.6,5c-0.3,0.3-0.4,0.4-0.7,0.4c-0.1,0-0.2,0.1-0.2,0.1
		c-1.9,0.8-7.5,1-9.5,0.3c-0.8-0.4-1.5-0.9-1.8-1.8c-0.3-0.7-0.2-1.4,0-2.2c0.7-3.1,2.5-7.1,3.7-10.2c2.2-5.8,4.1-11.7,6.4-17.5
		l-0.1-0.1v-0.1c0.1-0.6,0.9-1,1.4-1.3c0.4-0.2,0.7-0.5,1.1-0.5c1.4-0.3,6.4-0.3,7.7,0.1H35c0.9-1.3,3.7-2.9,3.9-3.4
		c0.7-1.1,0.8-3,1.1-4.2c0.4-1.5,2.6-8.7,3.6-9.4c0.7-1,2.2-5.2,3.3-6.9c0.8-1.7,1.8-3.4,2.8-5.1c0.9-1.6,1.9-3.1,3-4.6l0.2-0.3
		c1.1-1.3,2.1-2.8,3.2-4.1c1.2-1.5,2.5-2.9,3.7-4.4l0.2-0.3c0.9-1.1,2.2-2.2,3.3-3.3c6.8-6.7,14.6-12.2,23.2-16.5
		c0.8-0.5,1.8-0.9,2.7-1.3l0.7-0.4C91.2,43.6,92.6,43.1,94.1,42.6z M40.4,118.6l0.6,0.1c-0.4-0.5-0.7-0.8-0.8-1.3l-0.2,0.4
		L40.4,118.6z"/>
	<path class="st2" d="M94.1,42.6c1.6-0.9,3.7-1.4,5.4-1.9c10.7-3.2,21.4-4.1,32.6-3.6l0.5,0.1c4.7,0.3,9.4,1.1,14,2.2
		c1.8,0.5,5.2,1.8,6.6,1.9l0.7,0.4c2.7,0.8,5.4,2,8,3.2c13.4,6.2,25,15.5,33.9,27.4c1.8,2.3,3.6,4.9,5,7.4c-2.2,1.8-4.3,3.9-6.7,5.3
		c0.5,0.7,0.8,1.3,1.3,2.1c-1.1-0.1-2.3-0.2-3.4-0.4l-0.4,0.5c-0.6,0.5-1.7,1.5-2.3,1.6l-0.2-0.1c-0.5,1.2-0.9,2.4-1.4,3.7
		c-0.4-0.7-0.8-1.3-1.2-2c0,0.4-0.2,0.6-0.6,0.8c-0.4,0.3-0.8,0.6-1.2,0.8h-0.2c-0.4,0.3-0.7,0.5-1.1,0.7c-0.2-0.9-0.2-1.9-0.5-2.8
		c-0.6-0.8-1.1-1.9-1.9-2.6c-2.5-2.5-6.6-2.2-9.7-2.2h-5.5c-0.2,0.6-0.5,1-0.7,1.6l-0.2-0.1l-0.8,0.7c-0.3,0.1-0.7,0-1,0
		c-1-0.6-1.4-1-2-2.1l-0.2-0.1c-1.3,0-3.2-0.2-4.4,0.1l-0.5-0.2c-0.6,0.3-1.2,0.2-1.9,0.1c-0.5,3.7,0.3,8.1-0.2,11.7l-0.3-0.2
		l-0.5,0.5c-0.7,0.2-1.2,0.5-1.6,1.1c-0.3,0.5-0.3,0.9-0.1,1.4c0.4,1,1,1.4,1.9,2c-0.2,1.1-0.3,5.5,0,6.6c-3.1,0.1-6.3-0.1-9.4-0.1
		c-1.4,0-2.9-0.1-4.2,0.1c-0.7,0.1-1.3,0.3-1.8,0.7c-1,0.9-1.2,2.1-1.2,3.4c-0.2-0.3-0.5-0.6-0.7-0.7c-3.9-4-9.3-3.5-14.4-3.5
		c-2.2,0-4.6-0.2-6.7,0.1c-0.7,0.1-1.4,0.6-2.1,0.7c-0.6,0.1-1.4-0.5-2.1-0.7c-0.4-0.1-0.8-0.1-1.3-0.1c-3,0-6.1,0.1-9.1-0.1
		c-2.2-1.7-4.6-3.2-6.9-4.8c-1.4-0.9-2.9-1.7-4.1-2.8l-0.7-0.2l-1.4-0.8l-0.6-0.3c-0.7,0.1-1.5,0.1-2.2,0.1l-0.1,0.1
		c-0.5-0.2-1-0.1-1.6-0.1c0-2.8,0-5.5,0-8.3l-0.1-0.5L82,90.5l-0.1-0.1c-3.9-1.9-7.8-3.7-11.8-5.3c-0.6-0.3-1.4-0.5-1.9-0.9
		c-0.3,0.3-0.6,0.7-0.8,1.1c-1.5-1.2-3.1-2.4-4.7-3.6c-0.4,0.3-0.6,0.4-1,0.3c-0.3,0-0.5-0.2-0.7-0.3c-0.5,0.4-0.8,0.4-1.4,0.4
		c-0.5,0.1-0.9,0.1-1.3,0.3l-0.9,0.9l-1.6,2.8c0,0,0,0-0.1,0c-2.3-1.3-5.9-1.5-8.5-1.9c0.8-1.7,1.8-3.4,2.8-5.1
		c0.9-1.6,1.9-3.1,3-4.6l0.2-0.3c1.1-1.3,2.1-2.8,3.2-4.1c1.2-1.5,2.5-2.9,3.7-4.4l0.2-0.3c0.9-1.1,2.2-2.2,3.3-3.3
		c6.8-6.7,14.6-12.2,23.2-16.5c0.8-0.5,1.8-0.9,2.7-1.3l0.7-0.4C91.2,43.6,92.6,43.1,94.1,42.6z"/>
	
		<linearGradient id="SVGID_1_" gradientUnits="userSpaceOnUse" x1="51.7388" y1="22.3697" x2="55.969" y2="16.4647" gradientTransform="matrix(3.0769 0 0 3.0795 4.882810e-04 2.695560e-03)">
		<stop  offset="0" style="stop-color:#B41918"/>
		<stop  offset="1" style="stop-color:#76160E"/>
	</linearGradient>
	<path class="st3" d="M132.6,37.2c4.7,0.3,9.4,1.1,14,2.2c1.8,0.5,5.2,1.8,6.6,1.9l0.7,0.4c2.7,0.8,5.4,2,8,3.2
		c13.4,6.2,25,15.5,33.9,27.4c1.8,2.3,3.6,4.9,5,7.4c-2.2,1.8-4.3,3.9-6.7,5.3c0.5,0.7,0.8,1.3,1.3,2.1c-1.1-0.1-2.3-0.2-3.4-0.4
		l-0.4,0.5c-0.6,0.5-1.7,1.5-2.3,1.6l-0.2-0.1c-0.5,1.2-0.9,2.4-1.4,3.7c-0.4-0.7-0.8-1.3-1.2-2c0,0.4-0.2,0.6-0.6,0.8
		c-0.4,0.3-0.8,0.6-1.2,0.8h-0.2c-0.4,0.3-0.7,0.5-1.1,0.7c-0.2-0.9-0.2-1.9-0.5-2.8c-0.6-0.8-1.1-1.9-1.9-2.6
		c-2.5-2.5-6.6-2.2-9.7-2.2h-5.5c-0.2,0.6-0.5,1-0.7,1.6l-0.2-0.1l-0.8,0.7c-0.3,0.1-0.7,0-1,0c-1-0.6-1.4-1-2-2.1l-0.2-0.1
		c-1.3,0-3.2-0.2-4.4,0.1l-0.5-0.2l-0.2-0.3c-0.7-0.6-1.3-1.2-2-1.9l-0.7-0.8l-4.6-4c0.2,0.1,0.6,0.2,0.7,0.1c0.5-0.2,0.8-0.6,1-1
		c0.6-1.1,0.8-2.9,0.5-4.1c-0.6-0.5-1.1-1-1.7-1.5c-0.8-0.7-1.7-1.4-2.5-2.1l-0.5-0.5c-1.9-1.2-3.7-2.6-5.6-3.9
		c-2.3-1.8-5-3.5-7.5-4.9l-0.2-0.2l-0.2-0.1l-0.4-0.3c0-1.3,0.1-2.6,0.2-3.8l0.4-0.3c0.1,0.1,0.1,0.1,0.2,0.3
		c0.3-0.3,0.6-0.3,0.9-0.3c-0.2,0-0.4-0.1-0.6-0.2c-0.5-0.8,0.3-3.2,0.5-4.1c-0.1-0.1-0.2-0.1-0.2-0.2l-0.1-0.1c0,0-0.1,0-0.1-0.1
		C132.3,49.9,132.6,39.2,132.6,37.2z"/>
	
		<linearGradient id="SVGID_2_" gradientUnits="userSpaceOnUse" x1="46.1213" y1="18.8724" x2="47.1735" y2="12.739" gradientTransform="matrix(3.0769 0 0 3.0795 4.882810e-04 2.695560e-03)">
		<stop  offset="0" style="stop-color:#C91517"/>
		<stop  offset="1" style="stop-color:#75160D"/>
	</linearGradient>
	<path class="st4" d="M132.6,37.2c4.7,0.3,9.4,1.1,14,2.2c1.8,0.5,5.2,1.8,6.6,1.9l0.7,0.4c-0.1,2.2-0.4,8.7,0,10.7
		c0.1,0.3,0.2,0.6,0.4,0.8c-0.4,0.7-0.6,1.3-0.7,2c-0.2,0.4-0.2,0.5-0.6,0.7c0,0.6,0,1-0.2,1.5c-0.4,0.1-0.5,0.1-0.7,0.4
		c-0.3,0.6-0.3,1.4-0.3,2c0.4,0.6,0.7,1,1.3,1.5c-0.3,2.4,0,5.1-0.1,7.5c-1.6,0-6.1-0.4-7.3,0.2c-1.9-1.2-3.7-2.6-5.6-3.9
		c-2.3-1.8-5-3.5-7.5-4.9l-0.2-0.2l-0.2-0.1l-0.4-0.3c0-1.3,0.1-2.6,0.2-3.8l0.4-0.3c0.1,0.1,0.1,0.1,0.2,0.3
		c0.3-0.3,0.6-0.3,0.9-0.3c-0.2,0-0.4-0.1-0.6-0.2c-0.5-0.8,0.3-3.2,0.5-4.1c-0.1-0.1-0.2-0.1-0.2-0.2l-0.1-0.1c0,0-0.1,0-0.1-0.1
		C132.3,49.9,132.6,39.2,132.6,37.2z"/>
	
		<linearGradient id="SVGID_3_" gradientUnits="userSpaceOnUse" x1="47.1878" y1="17.6771" x2="45.7591" y2="21.624" gradientTransform="matrix(3.0769 0 0 3.0795 4.882810e-04 2.695560e-03)">
		<stop  offset="0" style="stop-color:#C61617"/>
		<stop  offset="1" style="stop-color:#E63421"/>
	</linearGradient>
	<path class="st5" d="M133.6,55.4c0.4,0.1,0.7,0.2,1.1,0c0.6-1.9,0.7-3.9,1-5.9c1,2.2,1.9,4.5,2.8,6.7c0.7,0.1,1.5,0.3,2.2,0.2
		c0.2-0.3,0.3-0.6,0.4-0.8c0.3-0.1,0.9-0.4,1.2-0.4c0.1,0,0.2,0.1,0.4,0.1c0-0.6,0-1,0.1-1.6h0.2c-0.1,1.2-0.3,2.4,0.6,3.5
		c1.2,1.4,2.9,0.9,4.4,1.3c0.6,0.2,1,0.7,1.7,0.7c0.7,0,1.3,0.4,2,0.3l0.1,0.1c0.4,0.6,0.7,1,1.3,1.5c-0.3,2.4,0,5.1-0.1,7.5
		c-1.6,0-6.1-0.4-7.3,0.2c-1.9-1.2-3.7-2.6-5.6-3.9c-2.3-1.8-5-3.5-7.5-4.9l-0.2-0.2l-0.2-0.1l-0.4-0.3c0-1.3,0.1-2.6,0.2-3.8
		l0.4-0.3c0.1,0.1,0.1,0.1,0.2,0.3C133,55.4,133.2,55.4,133.6,55.4z"/>
	<path class="st6" d="M132.1,55.7l0.4-0.3c0.1,0.1,0.1,0.1,0.2,0.3c-0.1,1.3,0.1,3-0.2,4.2l-0.2-0.1l-0.4-0.3
		C131.9,58.2,132,56.9,132.1,55.7z"/>
	<path class="st7" d="M143,53.8c0.7-1.6,0.8-3.8,2.4-4.9c0.7-0.5,1.7-0.5,2.5-0.3c1.1,0.3,2.7,0.8,3.3,1.9c0.3,0.5,0.6,1.5,0.4,2.1
		c-0.1,0.3-0.2,0.3-0.5,0.4c-0.2,0.4-0.3,0.5-0.4,0.8l0.3,0.1c0.3,0.7-1.1,4.6-1.4,5.4c-0.7-0.2-1.1-0.6-1.7-0.7
		c-1.5-0.5-3.2,0-4.4-1.3C142.7,56.3,142.9,54.9,143,53.8z"/>
	<path class="st2" d="M146.5,54.9c0.6,0.1,1.3,0.1,1.9,0.3c0.3,0.1,0.3,0.2,0.4,0.4c-0.1,0.2-0.1,0.3-0.2,0.5
		c-0.4,0.5-1.1,0.7-1.7,0.7c-0.5,0-1-0.1-1.4-0.5c-0.5-0.5-0.5-1.1-0.5-1.7c0.1-1.2,0.7-3.3,1.7-4.1c0.4-0.3,0.7-0.5,1.1-0.5
		c1.3,0.2,1.2,1.8,1.9,2.4c0.2,0.2,1.1,0.3,1.4,0.3c-0.2,0.4-0.3,0.5-0.4,0.8c-1.2-0.1-2.6-0.4-3.8-0.6L146.5,54.9z"/>
	<path class="st7" d="M134.4,46l2.1,0.4c0.7,1.7,1.4,3.4,2.1,5.1c0.5,0,0.7-0.1,1-0.4c0.2-1.4,0.4-2.7,0.7-4c0.7,0.1,1.3,0.2,2,0.3
		c-0.3,2.1-1.5,7.8-1.4,9.3c-0.7,0.1-1.5-0.1-2.2-0.2c-0.9-2.2-1.8-4.5-2.8-6.7c-0.2,1.9-0.5,4-1,5.9c-0.4,0.2-0.7,0.1-1.1,0
		c-0.2,0-0.4-0.1-0.6-0.2c-0.5-0.8,0.3-3.2,0.5-4.1C133.7,49.4,134,47.6,134.4,46z"/>
	<path class="st2" d="M138.5,51.4c0.5,0,0.7-0.1,1-0.4l-0.4,2.3C139,52.6,138.8,52,138.5,51.4z"/>
	<path class="st8" d="M153.2,41.4l0.7,0.4c-0.1,2.2-0.4,8.7,0,10.7c0.1,0.3,0.2,0.6,0.4,0.8c-0.4,0.7-0.6,1.3-0.7,2
		c-0.2,0.4-0.2,0.5-0.6,0.7c-0.2-1,0.1-2.5,0.1-3.7c0-3.4-0.1-6.7,0-10.1C153,41.8,153,41.6,153.2,41.4z"/>
	<path class="st2" d="M158.6,60.7c0.2,0.2,0.3,0.2,0.4,0.4c0.5,0.3,1,1.5,1.4,2c1,1.4,2.7,3.2,3.5,4.6c0.6,1.1,0.7,2.5,1.1,3.7
		c1.4,3.2,4.3,5.5,7.8,6c0.5,0.1,1.1,0.2,1.6,0.2c0.2,0,0.5-0.2,0.7-0.3c0.6-0.3,1.3-0.3,1.9-0.3c0.4,0.4-0.2,1.6,0.6,1.8l0.1-0.1
		c0.3,0.3,0.6,0.7,0.9,0.7c1.7-1.1,3.1-2.5,4.8-3.7c-1,2.2-1.7,4.6-2.6,6.8l1.3,1.6c1.4-1.1,4.3-3.7,5.6-4.5
		c1.3,0.1,1.4,1.1,2.4,1.7l1.1-0.7c0.4,0.6,0.7,1.2,1,1.8c-0.8,0.6-1.7,1-2.5,1.5c0.3,0.3,0.5,0.5,0.7,0.7c1,0.1,2.3,0.1,3.3,0.4
		c0.5,0.7,0.8,1.3,1.3,2.1c-1.1-0.1-2.3-0.2-3.4-0.4l-0.4,0.5c-0.6,0.5-1.7,1.5-2.3,1.6l-0.2-0.1c-0.5,1.2-0.9,2.4-1.4,3.7
		c-0.4-0.7-0.8-1.3-1.2-2c0,0.4-0.2,0.6-0.6,0.8c-0.4,0.3-0.8,0.6-1.2,0.8h-0.2c-0.4,0.3-0.7,0.5-1.1,0.7c-0.2-0.9-0.2-1.9-0.5-2.8
		c-0.6-0.8-1.1-1.9-1.9-2.6c-2.5-2.5-6.6-2.2-9.7-2.2h-5.5c-0.2,0.6-0.5,1-0.7,1.6l-0.2-0.1l-0.8,0.7c-0.3,0.1-0.7,0-1,0
		c-1-0.6-1.4-1-2-2.1l-0.2-0.1c-1.3,0-3.2-0.2-4.4,0.1l-0.5-0.2l-0.2-0.3c-0.7-0.6-1.3-1.2-2-1.9l-0.7-0.8l-4.6-4
		c0.2,0.1,0.6,0.2,0.7,0.1c0.5-0.2,0.8-0.6,1-1c0.6-1.1,0.8-2.9,0.5-4.1c-0.6-0.5-1.1-1-1.7-1.5c-0.8-0.7-1.7-1.4-2.5-2.1l-0.5-0.5
		c1.2-0.7,5.7-0.2,7.3-0.2c0.1-2.4-0.3-5.1,0.1-7.5l1,0.6c0.7,0.3,1.7,0.7,2.5,0.6C157.6,62.2,158.1,61.4,158.6,60.7z"/>
	<path class="st2" d="M153.8,69.7c2.8,0.5,5.2,1.5,6.9,3.9c2.6,3.6,1.4,5.3,2.1,8.9c-0.4,0.3-0.9,0.5-1.3,0.7
		c0.2,0.2,0.4,0.4,0.4,0.7c-0.5,0.2-0.9,0.4-1.4,0.7c0,0.2,0,0.5,0,0.7c-1.3,0-3.2-0.2-4.4,0.1l-0.5-0.2l-0.2-0.3
		c-0.7-0.6-1.3-1.2-2-1.9l-0.7-0.8l-4.6-4c0.2,0.1,0.6,0.2,0.7,0.1c0.5-0.2,0.8-0.6,1-1c0.6-1.1,0.8-2.9,0.5-4.1
		c0.7,0.7,1.6,1.4,2.4,2.1l0.2,0.2l0.7,0.6C154.1,73.9,153.7,71.7,153.8,69.7z"/>
	<path class="st9" d="M150.4,72.9c0.7,0.7,1.6,1.4,2.4,2.1l0.2,0.2l0.7,0.6l0.2,0.3c2.8,2.2,5.1,4.9,7.7,7.3
		c0.2,0.2,0.4,0.4,0.4,0.7c-0.5,0.2-0.9,0.4-1.4,0.7c0,0.2,0,0.5,0,0.7c-1.3,0-3.2-0.2-4.4,0.1l-0.5-0.2l-0.2-0.3
		c-0.7-0.6-1.3-1.2-2-1.9l-0.7-0.8l-4.6-4c0.2,0.1,0.6,0.2,0.7,0.1c0.5-0.2,0.8-0.6,1-1C150.5,75.9,150.8,74.1,150.4,72.9z"/>
	
		<linearGradient id="SVGID_4_" gradientUnits="userSpaceOnUse" x1="49.9684" y1="25.4453" x2="48.557" y2="24.8754" gradientTransform="matrix(3.0769 0 0 3.0795 4.882810e-04 2.695560e-03)">
		<stop  offset="0" style="stop-color:#E97263"/>
		<stop  offset="1" style="stop-color:#F19B8E"/>
	</linearGradient>
	<path class="st10" d="M150.4,72.9c0.7,0.7,1.6,1.4,2.4,2.1l0.2,0.2c-0.5,1.7,0.4,5.9-0.3,6.8l-4.6-4c0.2,0.1,0.6,0.2,0.7,0.1
		c0.5-0.2,0.8-0.6,1-1C150.5,75.9,150.8,74.1,150.4,72.9z"/>
	<path class="st11" d="M153,75.2l0.7,0.6l0.2,0.3c-0.1,1.3,0.2,6-0.2,6.7l-0.2,0.1l-0.7-0.8C153.4,81.1,152.5,76.9,153,75.2z"/>
	<path class="st12" d="M155.4,84.8c0.7-0.6,4-0.3,5.1-0.3c0,0.2,0,0.5,0,0.7c-1.3,0-3.2-0.2-4.4,0.1l-0.5-0.2L155.4,84.8z"/>
	<path class="st13" d="M153.1,61.2l1,0.6c-0.7,1.2-0.4,5.3-0.3,6.8c2.9,0.3,5.6,1.7,7.5,3.9c2.4,3,2.5,6.4,2.4,10
		c0.9,0.4,1.5,0.7,2,1.7c0,0.1,0.1,0.1,0.1,0.2c-0.5,0-1.3,0.1-1.7-0.3c-0.4-0.3-0.4-0.7-0.5-1.2c0-0.2-0.1-0.3-0.2-0.5l-0.5-0.1
		c-0.7-3.6,0.7-5.3-2.1-8.9c-1.8-2.3-4.1-3.5-6.9-3.9c-0.2,2,0.3,4.1-0.1,6l-0.7-0.6l-0.2-0.2c-0.8-0.6-1.7-1.4-2.4-2.1
		c-0.6-0.5-1.1-1-1.7-1.5c-0.8-0.7-1.7-1.4-2.5-2.1l-0.5-0.5c1.2-0.7,5.7-0.2,7.3-0.2C153.1,66.3,152.7,63.7,153.1,61.2z"/>
	<path class="st14" d="M148.7,71.4L148.7,71.4c-0.2-0.7-0.7-1-1.1-1.4c1.4-0.7,3.8-0.4,5.4-0.4c0,0.9,0.3,4.6-0.2,5.3
		c-0.8-0.6-1.7-1.4-2.4-2.1C149.8,72.5,149.3,72,148.7,71.4z"/>
	<path class="st7" d="M190.1,81.3l1.1-0.7c0.4,0.6,0.7,1.2,1,1.8c-0.8,0.6-1.7,1-2.5,1.5c0.3,0.3,0.5,0.5,0.7,0.7
		c1,0.1,2.3,0.1,3.3,0.4c0.5,0.7,0.8,1.3,1.3,2.1c-1.1-0.1-2.3-0.2-3.4-0.4l-0.4,0.5c-0.6,0.5-1.7,1.5-2.3,1.6l-0.2-0.1
		c-0.5,1.2-0.9,2.4-1.4,3.7c-0.4-0.7-0.8-1.3-1.2-2c0.3-1.1,1.5-3,1.3-4.1c0-0.2-0.1-0.2-0.3-0.4c-1,0.1-2,0.8-2.8,1.4
		c-0.2-0.3-0.4-0.7-0.7-0.8c-0.1-0.3-0.2-0.5-0.3-0.7C183.7,84.9,189,82,190.1,81.3z"/>
	<path class="st14" d="M189.6,86.4c0.7,0.1,1.4,0.2,2.1,0.3l-0.4,0.5c-0.6,0.5-1.7,1.5-2.3,1.6l-0.2-0.1L189.6,86.4z"/>
	<path class="st8" d="M188.6,84.3l1.2-0.5c0.3,0.3,0.5,0.5,0.7,0.7C189.9,84.5,189.2,84.4,188.6,84.3z"/>
	<path class="st6" d="M162.8,82.6l0.5,0.1c0.1,0.2,0.2,0.2,0.2,0.5c0,0.5,0,0.9,0.5,1.2c0.4,0.4,1.2,0.3,1.7,0.3
		c3.3,0,9.5-0.4,12.4,0.5c1.3,0.4,2.5,1.1,3.5,2.2c0.5,0.5,0.9,0.9,1.2,1.5c0.5,0.8,0.7,2.4,1.8,2.8c1.2-0.6,1.9-2.9,2.2-4
		c0.1-0.4,0.3-0.7,0.3-1.1l-0.1-0.1c-1.1,0.2-2.2,1.6-3.2,0.9c-0.2-0.2-0.4-0.4-0.6-0.6l0.3-0.1c0.3,0.2,0.5,0.6,0.7,0.8
		c0.8-0.6,1.8-1.3,2.8-1.4c0.2,0.1,0.3,0.1,0.3,0.4c0.2,1.1-1,3-1.3,4.1c0,0.4-0.2,0.6-0.6,0.8c-0.4,0.3-0.8,0.6-1.2,0.8h-0.2
		c-0.4,0.3-0.7,0.5-1.1,0.7c-0.2-0.9-0.2-1.9-0.5-2.8c-0.6-0.8-1.1-1.9-1.9-2.6c-2.5-2.5-6.6-2.2-9.7-2.2h-5.5
		c-0.2,0.6-0.5,1-0.7,1.6l-0.2-0.1l-0.8,0.7c-0.3,0.1-0.7,0-1,0c-1-0.6-1.4-1-2-2.1l-0.2-0.1c0-0.2,0-0.5,0-0.7
		c0.5-0.3,0.9-0.4,1.4-0.7c-0.1-0.3-0.3-0.4-0.4-0.7C161.9,83,162.5,82.9,162.8,82.6z"/>
	<path class="st15" d="M160.6,84.5c0.5-0.3,0.9-0.4,1.4-0.7c1.1,0.8,1.7,1.8,2.5,2.7l-0.8,0.7c-0.3,0.1-0.7,0-1,0
		c-1-0.6-1.4-1-2-2.1l-0.2-0.1C160.5,85,160.6,84.8,160.6,84.5z"/>
	<path class="st12" d="M160.7,85.3c0.7,0,1.3,0,2-0.1c0,0.7-0.1,1.4,0,2.2C161.6,86.8,161.2,86.3,160.7,85.3z"/>
	<path class="st16" d="M182.6,90l0.4-0.1c0.6,0.6,0.4,2.1,1.2,2.2c-0.4,0.3-0.7,0.5-1.1,0.7C182.9,91.8,182.9,90.9,182.6,90z"/>
	<path class="st7" d="M154.2,53.3c0.6-0.7,0.9-1,1.8-1.1c1.3-0.1,2.8,0.6,3.7,1.5c0.5,0.5,0.8,1.4,0.8,2.1c0,0.4-0.1,0.5-0.3,0.7
		c-0.4,0.1-0.7,0.2-1,0c-0.9-0.5-1.4-2.8-2.6-2.5c-0.4,0.1-0.7,0.5-0.9,0.8c0,0.4,0,0.6,0.2,0.8c0.9,1.2,3.1,1.8,3.1,3.7
		c0,0.5-0.3,1-0.5,1.5c-0.5,0.7-1,1.5-2,1.7c-0.8,0.2-1.8-0.3-2.5-0.6l-1-0.6c-0.6-0.4-0.9-0.8-1.3-1.5c0-0.6-0.1-1.5,0.3-2
		c0.2-0.3,0.3-0.3,0.7-0.4c0.2-0.5,0.2-0.9,0.2-1.5c0.4-0.2,0.5-0.3,0.6-0.7C153.6,54.5,153.8,53.9,154.2,53.3z"/>
	<path class="st2" d="M154.1,56.8c0.7,0.6,2.5,1.4,2.7,2.3c-0.1,0.4-0.2,0.7-0.5,0.8c-0.4,0.3-0.8,0.4-1.2,0.3
		c-0.5-0.1-0.8-0.4-1-0.7c-0.4-0.6-0.2-1.2-0.2-1.8C154.1,57.5,154.1,57.2,154.1,56.8z"/>
	<path class="st14" d="M152.8,55.9c0.4-0.2,0.5-0.3,0.6-0.7c0.1,0.7,0.3,1,0.7,1.6c0,0.4,0,0.7-0.2,1c-0.5-0.1-0.8-0.2-1.3-0.4
		C152.9,56.9,152.8,56.4,152.8,55.9z"/>
	<path class="st7" d="M184.5,71.9l1.4,1.6l-2.6,7.1c1.6-1.4,3.3-2.7,5-4.1l1.3,1.6c-0.7,0.5-1.3,0.9-1.9,1.5
		c-1.3,0.7-4.2,3.4-5.6,4.5l-1.3-1.6c0.8-2.2,1.6-4.7,2.6-6.8c-1.7,1.1-3.1,2.6-4.8,3.7c-0.4-0.1-0.7-0.5-0.9-0.7l-0.3-0.5
		C177.5,77.1,183.3,72.9,184.5,71.9z"/>
	<path class="st7" d="M168.4,58.1c1.1,0.6,2.2,1.4,3.2,2.2c0.7,0.6,1.5,1.3,1.6,2.3c0.2,1.9-1.2,1.8-2,2.7c-0.6,0.7-0.3,2-0.9,2.8
		c-0.6,0.7-1.3,0.9-2.2,0.9c-2-0.7-3.6-2.3-5.2-3.4C164.7,63.2,166.5,60.7,168.4,58.1z"/>
	<path class="st1" d="M166.6,64c0.6,0.1,1.7,0.6,2.1,0.9c0.3,0.3,0.5,0.6,0.5,0.9c0,0.5-0.5,0.9-0.7,1.2c-1-0.2-2.1-1-2.7-1.8
		L166.6,64z"/>
	<path class="st1" d="M169,60.7C169,60.7,169.1,60.7,169,60.7c0.7,0.3,1.8,1.1,2.1,1.8c0.1,0.3,0,0.5-0.1,0.7
		c-0.3,0.3-0.6,0.4-0.9,0.5c-0.7-0.3-1.8-0.6-2.2-1.1C167.8,62,168.6,61.1,169,60.7z"/>
	<path class="st7" d="M178.7,66.1c0.6,0.3,1.1,0.8,1.6,1.3c-1.1,3.2-2.5,6.3-3.8,9.4c-0.5-0.5-1-0.9-1.5-1.4
		c0.3-0.7,0.7-1.6,0.8-2.4l-0.2-0.2c-0.7-0.7-1.6-1.2-2.4-1.8l-1.8,1c-0.5-0.5-1-0.9-1.6-1.4C172.6,68.9,175.7,67.6,178.7,66.1z"/>
	<path class="st2" d="M177.3,69c0.1,0,0.1,0.1,0.2,0.2c-0.3,0.7-0.4,1.5-0.9,2.1c-0.4,0.1-0.6-0.2-0.9-0.4c-0.3-0.2-0.6-0.3-0.7-0.6
		C175.4,69.7,176.6,69.4,177.3,69z"/>
	<path class="st14" d="M82.5,85.2c0.7,0,1.6-0.1,2.3,0c9,0.3,18,0,27,0h10.6c1.9,0,3.9,0.1,5.8-0.1c0.3,1.2,0.7,2.3,1.9,3.1
		c0.7,0.4,1.6,0.5,2,1l0.4,0.1l0.2-0.5l0.2-0.1c1.2-0.4,2.5-1,3.1-2.2c0.3-0.5,0.4-1,0.5-1.5c2.2,0.4,4.8,0.2,7,0.1
		c3.2,0,6.4,0,9.6,0c0,3.7-0.2,7.6,0.4,11.3c0,0,0,0,0,0.1l-0.5,0.5c-0.7,0.2-1.2,0.5-1.6,1.1c-0.3,0.5-0.3,0.9-0.1,1.4
		c0.4,1,1,1.4,1.9,2c-0.2,1.1-0.3,5.5,0,6.6c-3.1,0.1-6.3-0.1-9.4-0.1c-1.4,0-2.9-0.1-4.2,0.1c-0.7,0.1-1.3,0.3-1.8,0.7
		c-1,0.9-1.2,2.1-1.2,3.4c-0.2-0.3-0.5-0.6-0.7-0.7c-3.9-4-9.3-3.5-14.4-3.5c-2.2,0-4.6-0.2-6.7,0.1c-0.7,0.1-1.4,0.6-2.1,0.7
		c-0.6,0.1-1.4-0.5-2.1-0.7c-0.4-0.1-0.8-0.1-1.3-0.1c-3,0-6.1,0.1-9.1-0.1c-2.2-1.7-4.6-3.2-6.9-4.8c-1.4-0.9-2.9-1.7-4.1-2.8
		l-0.7-0.2l-1.4-0.8L86.3,99c-0.7,0.1-1.5,0.1-2.2,0.1L84,99.2c-0.5-0.2-1-0.1-1.6-0.1c0-2.8,0-5.5,0-8.3l-0.1-0.5l-0.5,0.1l0.1,0.1
		c-0.2-0.9-0.1-2.1-0.1-3l0.1-0.2c0.2,0,0.3,0,0.5,0C82.7,86.9,82.6,85.8,82.5,85.2z"/>
	
		<linearGradient id="SVGID_5_" gradientUnits="userSpaceOnUse" x1="37.2198" y1="35.1121" x2="32.0839" y2="25.3718" gradientTransform="matrix(3.0769 0 0 3.0795 4.882810e-04 2.695560e-03)">
		<stop  offset="0" style="stop-color:#E5231C"/>
		<stop  offset="1" style="stop-color:#B71817"/>
	</linearGradient>
	<path class="st17" d="M82.5,85.2c0.7,0,1.6-0.1,2.3,0c9,0.3,18,0,27,0h10.6c1.9,0,3.9,0.1,5.8-0.1c0.3,1.2,0.7,2.3,1.9,3.1
		c0.7,0.4,1.6,0.5,2,1c-0.4,1.8,0,3.5,0.1,5.2c0,1.7-0.1,3.4-0.1,5.1c-2.2,0-4.4,0-6.6,0c-1.1,0-2.3,0.2-3.4,0
		c-2.3-0.3-23.6-0.5-24.4-0.1c-0.1,0-0.1,0.1-0.2,0.1c0,0-0.1,0-0.1,0.1l0.7,0.6c-1.4,0.8-7.2-0.4-9.2,0.3l-0.7-0.2l-1.4-0.8
		l-0.6-0.3c-0.7,0.1-1.5,0.1-2.2,0.1L84,99.3c-0.5-0.2-1-0.1-1.6-0.1c0-2.8,0-5.5,0-8.3l-0.1-0.5l-0.5,0.1l0.1-0.1
		c-0.2-0.9-0.1-2.1-0.1-3l0.1-0.2c0.2,0,0.3,0,0.5,0C82.7,86.9,82.6,85.8,82.5,85.2z"/>
	<path class="st9" d="M82.6,91c1.9,0.4,12.3,6.7,14,8.2l0.9,0.5l0.7,0.6c-1.4,0.8-7.2-0.4-9.2,0.3l-0.7-0.2L87,99.5l-0.6-0.3
		c-0.7,0.1-1.5,0.1-2.2,0.1l-0.1,0.1c-0.5-0.2-1-0.1-1.6-0.1C82.6,96.5,82.6,93.8,82.6,91z"/>
	<path class="st12" d="M87.1,99.5c2.2-0.8,7.7,0.6,9.5-0.3l0.9,0.5l0.7,0.6c-1.4,0.8-7.2-0.4-9.2,0.3l-0.7-0.2L87.1,99.5z"/>
	<path class="st8" d="M84.3,99.3c0.2-0.4,0.3-0.7,0.7-0.9c0.6,0,1.1,0.6,1.5,0.8C85.8,99.3,85,99.3,84.3,99.3z"/>
	<path class="st13" d="M82.5,85.2c0.7,0,1.6-0.1,2.3,0c-0.6,1.5-1.9,1.8-2.2,2.3c-0.5,0.9,0.1,2.1-0.3,3l-0.5,0.1l0-0.2
		c-0.2-0.9-0.1-2.1-0.1-3l0.1-0.2c0.2,0,0.3,0,0.5,0C82.7,86.9,82.6,85.8,82.5,85.2z"/>
	
		<linearGradient id="SVGID_6_" gradientUnits="userSpaceOnUse" x1="29.4595" y1="32.2273" x2="34.9068" y2="35.4123" gradientTransform="matrix(3.0769 0 0 3.0795 4.882810e-04 2.695560e-03)">
		<stop  offset="0" style="stop-color:#D94946"/>
		<stop  offset="1" style="stop-color:#EE7269"/>
	</linearGradient>
	<path class="st18" d="M98.2,100.3l0.4,0.2c3.6,2.5,7.1,5.1,10.5,7.8c-3,0-6.1,0.1-9.1-0.1c-2.2-1.7-4.6-3.2-6.9-4.8
		c-1.4-0.9-2.9-1.7-4.1-2.8C90.9,99.9,96.8,101,98.2,100.3z"/>
	<path class="st13" d="M97.5,99.7C97.5,99.7,97.5,99.6,97.5,99.7c0.1-0.1,0.2-0.1,0.2-0.1c0.8-0.5,22.1-0.3,24.4,0.1
		c-0.9,0.2-3.1-0.2-3.7,0.4c1.2,0.1,3.2-0.3,4.2,0.1c-0.7,0.5-21,0.1-24,0.4l-0.4-0.2L97.5,99.7z"/>
	
		<linearGradient id="SVGID_7_" gradientUnits="userSpaceOnUse" x1="36.2852" y1="20.0145" x2="35.1811" y2="12.5329" gradientTransform="matrix(3.0769 0 0 3.0795 4.882810e-04 2.695560e-03)">
		<stop  offset="0" style="stop-color:#BF1818"/>
		<stop  offset="1" style="stop-color:#72160D"/>
	</linearGradient>
	<path class="st19" d="M94.1,42.6c1.6-0.9,3.7-1.4,5.4-1.9c10.7-3.2,21.4-4.1,32.6-3.6l0.5,0.1c0,2-0.3,12.7,0.6,13.6
		c0,0,0.1,0,0.1,0.1l0.1,0.1c0.1,0.1,0.2,0.1,0.2,0.2c-0.2,0.9-0.8,3.3-0.5,4.1c0.2,0.1,0.4,0.1,0.6,0.2c-0.4,0-0.7,0-0.9,0.3
		c0-0.2,0-0.2-0.2-0.3l-0.4,0.3c-0.1,1.3-0.2,2.6-0.2,3.8l0.4,0.3L132,60c-0.5,1.9-0.2,4-0.3,6c-1.5-0.9-3-2-4.5-2.8l-1.1-0.7
		c-2.9-1.2-6.1-3.9-9.1-4.8c-0.3-0.1-0.5-0.1-0.7-0.2c-0.4-0.1-0.7-0.1-0.9,0.1c-0.8,0.5-1.4,1.2-2.2,1.8c-3,1.9-6.6,3.3-9.9,4.2
		c-1.8,0.5-3.6,0.3-5.2,1.1c-0.8,0.4-2,1-2.2,2c-0.1,0.5,0.2,0.7,0,1c-1.8-0.8-3.2-2.2-4.5-3.7l-0.5,0.2c-0.8-2.3-3.3-6.4-4.6-8.6
		c0.9-0.6,2-1.1,2.9-1.7l1-0.6C89.6,51.5,90,49,90,47.1l-0.8-0.2C89,46.1,89,45.3,89,44.6l0.7-0.4C91.2,43.6,92.6,43.1,94.1,42.6z"
		/>
	<path class="st1" d="M94.1,42.6c0.7,0.7,3.7,1.4,4.9,1.8c2.2,0.7,4.4,1.5,6.6,2.3c1.6,0.7,3.2,1.5,4.9,1.9c-0.4,2.1-0.7,4-1,6.1
		l-0.4,2.1c0.7-0.1,1.6-0.1,2.1-0.6c0.2-0.4,0.2-0.7,0.2-1.1c1.2,0.2,4.7,2,5.8,2.6c-0.3-0.1-0.5-0.1-0.7-0.2
		c-0.4-0.1-0.7-0.1-0.9,0.1c-0.8,0.5-1.4,1.2-2.2,1.8c-3,1.9-6.6,3.3-9.9,4.2c-1.8,0.5-3.6,0.3-5.2,1.1c-0.8,0.4-2,1-2.2,2
		c-0.1,0.5,0.2,0.7,0,1c-1.8-0.8-3.2-2.2-4.5-3.7l-0.5,0.2c-0.8-2.3-3.3-6.4-4.6-8.6c0.9-0.6,2-1.1,2.9-1.7l1-0.6
		C89.6,51.5,90,49,90,47.1l-0.8-0.2C89,46.1,89,45.3,89,44.6l0.7-0.4C91.2,43.6,92.6,43.1,94.1,42.6z"/>
	<path class="st20" d="M94.1,42.6c0.7,0.7,3.7,1.4,4.9,1.8c2.2,0.7,4.4,1.5,6.6,2.3c1.6,0.7,3.2,1.5,4.9,1.9c-0.4,2.1-0.7,4-1,6.1
		c0-0.3,0-0.4-0.2-0.6c-0.3-0.2-0.6-0.4-0.9-0.5c-0.5-0.1-0.9-0.2-1.4,0c-0.1-0.2-0.3-0.3-0.4-0.4c-0.7-0.7-1.2-0.7-2.2-0.7l0.3-0.2
		l-0.1-0.1c0.1-0.3,0.1-0.5,0-0.7l-0.5-0.1c0.7-0.3,1.2-0.6,1.9-0.9c-0.3-0.4-0.5-0.8-0.8-1.2c-0.6-0.5-1.3-0.7-2.1-0.7
		c-1.4,0.1-2.8,0.7-3.7,1.8c-0.5-0.7-8-2.9-9.3-3.2L89.1,47C89,46.2,89,45.4,89,44.6l0.7-0.4C91.2,43.6,92.6,43.1,94.1,42.6z"/>
	<path class="st21" d="M89.8,44.2c0.3,0.3,0.3,0.7,0.3,1.1c0,0.6,0,1.2-0.1,1.8l-0.8-0.2C89,46.1,89,45.3,89,44.6L89.8,44.2z"/>
	<path class="st7" d="M90.2,53.4c0.8-0.3,1.7-0.4,2.5,0c0.6,0.3,0.9,1,1.1,1.6c0.2,0.7,0,2,0.2,2.4c0.3,0.8,2.5,2.6,3.2,3.4
		l-1.8,0.8c-0.9-0.9-1.9-1.9-2.7-2.9c-0.6,0.5-1.2,0.9-1.8,1.3c0.6,1,1.1,2.2,1.8,3c-0.5,0.3-1,0.6-1.5,0.9l-0.5,0.2
		c-0.8-2.3-3.3-6.4-4.6-8.6c0.9-0.6,2-1.1,2.9-1.7L90.2,53.4z"/>
	<path class="st1" d="M90,55.5c0.5-0.3,0.8-0.5,1.3-0.3c0.3,0.1,0.6,0.3,0.7,0.6c0.2,0.4,0.2,0.8,0,1.2c-0.4,0.8-1.2,1.1-1.9,1.7
		v-0.2c-0.3-0.8-0.8-1.6-1.3-2.3L90,55.5z"/>
	<path class="st14" d="M88.8,56.2l1.3-0.7c0.3,0.8,0.2,2.2,0.1,3C89.8,57.7,89.2,56.9,88.8,56.2z"/>
	<path class="st7" d="M99.2,50.3c0.9-1,2.3-1.8,3.7-1.8c0.7,0,1.5,0.2,2.1,0.7c0.4,0.3,0.7,0.7,0.8,1.2c-0.6,0.4-1.2,0.7-1.9,0.9
		l0.5,0.1c0.1,0.3,0.1,0.5,0,0.7l0.1,0.1l-0.3,0.2c0.9,0,1.5,0,2.2,0.7c0.1,0.1,0.3,0.3,0.4,0.4c0.4,0.8,0.7,1.8,0.5,2.6
		c-0.2,0.7-0.6,1.2-1.1,1.6c-1.1,0.7-2.7,1-4,0.7c-0.6-0.2-1.3-0.5-1.6-1c-0.2-0.3-0.1-0.6,0-0.8c0.2-0.6,0.9-0.8,1.5-1
		c0.3,0.5,0.7,1,1.1,1.2c0.5,0.2,1.1,0,1.6-0.3c0.3-0.1,0.5-0.3,0.6-0.7c0.1-0.3,0-0.7-0.1-0.9c-0.7-1-3.1-0.2-4.2-0.5
		c-0.7-0.2-1.2-0.6-1.5-1.1C99,52.4,99,51.1,99.2,50.3z"/>
	<path class="st2" d="M102.1,50.5c0.4-0.1,0.8-0.2,1.2,0c0.3,0.2,0.5,0.7,0.8,0.8l0.5,0.1c0.1,0.3,0.1,0.5,0,0.7l0.1,0.1l-0.3,0.2
		h-0.3c-0.7,0.1-1.3,0.2-1.9,0.2c-0.4,0-0.7-0.1-0.9-0.4c-0.2-0.4-0.3-0.6-0.2-1C101.4,50.7,101.6,50.6,102.1,50.5z"/>
	<path class="st8" d="M102.1,50.5c0.4-0.1,0.8-0.2,1.2,0c0.3,0.2,0.5,0.7,0.8,0.8l0.5,0.1c0.1,0.3,0.1,0.5,0,0.7l0.1,0.1l-0.3,0.2
		h-0.3C104.1,50.7,103.3,52.1,102.1,50.5z"/>
	
		<linearGradient id="SVGID_8_" gradientUnits="userSpaceOnUse" x1="37.382" y1="16.7335" x2="40.7453" y2="20.7347" gradientTransform="matrix(3.0769 0 0 3.0795 4.882810e-04 2.695560e-03)">
		<stop  offset="0" style="stop-color:#AA3C38"/>
		<stop  offset="1" style="stop-color:#DA685E"/>
	</linearGradient>
	<path class="st22" d="M110.7,46.7l2-0.4c0.9,1.6,1.9,3.2,2.9,4.8c1.2,0,2.2,1.4,3.4,0.9c0.5,1,0.8,2.1,1.2,3.1c0.7,0,1.4,0.1,2-0.3
		c0.1-0.2,0.2-0.4,0.2-0.6c0.1,0.1,0.2,0.3,0.4,0.3c2.2,0.7,4,2.4,6.2,3.2c0.4,0.2,0.7,0.5,1,0.7c0.7,0.4,1.4,0.8,2.1,1l0.4,0.3
		l-0.3,0.1c-0.5,1.9-0.2,4-0.3,6c-1.5-0.9-3-2-4.5-2.8l-1.1-0.7c-2.9-1.2-6.1-3.9-9.1-4.8c-1.1-0.7-4.6-2.5-5.8-2.6
		c0,0.4,0,0.7-0.2,1.1c-0.5,0.5-1.4,0.5-2.1,0.6l0.4-2.1c0.4-2.1,0.7-4,1-6.1L110.7,46.7z"/>
	<path class="st7" d="M110.7,46.7l2-0.4c0.9,1.6,1.9,3.2,2.9,4.8c0.7,1.3,1.5,2.6,2.3,3.9l-2.2,0.4c-0.5-0.7-0.8-1.4-1.2-2.2
		c-0.7,0.2-2.8,0.6-3.2,1.2c-0.1,0.2-0.2,0.4-0.2,0.6c0,0.4,0,0.7-0.2,1.1c-0.5,0.5-1.4,0.5-2.1,0.6l0.4-2.1c0.4-2.1,0.7-4,1-6.1
		L110.7,46.7z"/>
	<path class="st8" d="M112.2,49.5c0.1,0,0.1,0.1,0.2,0.1c0.6,0.5,1,1.3,0.9,2.1c-0.3,0.3-0.6,0.3-0.9,0.5c-0.3,0.1-0.4,0.2-0.7,0.1
		C111.7,51.4,112,50.4,112.2,49.5z"/>
	
		<linearGradient id="SVGID_9_" gradientUnits="userSpaceOnUse" x1="41.7695" y1="19.6324" x2="43.0094" y2="20.7482" gradientTransform="matrix(3.0769 0 0 3.0795 4.882810e-04 2.695560e-03)">
		<stop  offset="0" style="stop-color:#DE786F"/>
		<stop  offset="1" style="stop-color:#F6B3A0"/>
	</linearGradient>
	<path class="st23" d="M129.9,58.5c0.7,0.4,1.4,0.8,2.1,1l0.4,0.3l-0.3,0.1c-0.5,1.9-0.2,4-0.3,6c-1.5-0.9-3-2-4.5-2.8l-1.1-0.7
		c0.3-0.2,0.6,0.1,0.9,0.1c0.7-0.8,1.3-2,2.2-2.5c0.4-0.3,0.8-0.5,1.3-0.7c-0.2-0.2-0.4-0.3-0.5-0.6
		C129.9,58.6,129.9,58.5,129.9,58.5z"/>
	<path class="st7" d="M122.7,45.4c0.7-0.1,1.4-0.1,2.1-0.2c-0.7,3-1.6,6-2.4,9c0,0.2-0.1,0.4-0.2,0.6c-0.6,0.3-1.3,0.3-2,0.3
		c-0.5-1-0.7-2.1-1.2-3.1l-2.5-6.3c0.7,0,1.5,0,2.2-0.1c0.8,2.2,1.7,4.4,2.5,6.6C121.3,50,122.1,47.6,122.7,45.4z"/>
	<path class="st14" d="M132.1,37.2l0.5,0.1c0,2-0.3,12.7,0.6,13.6c0,0,0.1,0,0.1,0.1l0.1,0.1c0.1,0.1,0.2,0.1,0.2,0.2
		c-0.2,0.9-0.8,3.3-0.5,4.1c0.2,0.1,0.4,0.1,0.6,0.2c-0.4,0-0.7,0-0.9,0.3c0-0.2,0-0.2-0.2-0.3l-0.4,0.3c-0.3-1.1,0-2.4-0.3-3.7
		c-0.1-0.8,0-1.7,0.1-2.6v-4.9C131.9,42.1,131.7,39.6,132.1,37.2z"/>
	<path class="st8" d="M131.8,52c0.3,1.2,0,2.4,0.3,3.7c-0.1,1.3-0.2,2.6-0.2,3.8c-0.7-0.2-1.4-0.7-2.1-1c-0.3-0.3-0.7-0.5-1-0.7
		c0.7,0.1,1.3,0.7,2.1,0.8c0.2-0.2,0.3-0.3,0.5-0.4l0.3,0.1l0.2,0.5c0-0.1,0.1-0.2,0-0.3c-0.1-0.8-0.2-4.6-0.1-5.4L131.8,52z"/>
	<path class="st7" d="M126.6,45.4c1.5,0,3.1,0.1,4.6,0.2c0,0.2,0,0.4,0,0.6c0,1.3-0.7,0.7-1.3,1.2c-0.2,0.7-0.7,5.4-0.5,5.9
		c0.5,0,0.7,0.1,1.2,0.3c0.3,0.5,0.2,0.7,0.2,1.2c-0.1,0.2-0.1,0.1-0.3,0.2c-0.5,0.2-3.8-0.1-4.3-0.3c-0.2-0.4-0.3-0.6-0.3-0.9
		c0.3-0.4,0.8-0.4,1.2-0.7c0.3-0.2,0.4-0.5,0.5-0.8c0.1-0.7,0.4-4.7,0-5.2c-0.4,0-0.6,0-0.8-0.2C126.5,46.4,126.6,45.9,126.6,45.4z"
		/>
	<path class="st13" d="M95.8,67.7c0.1-0.3-0.2-0.6,0-1c0.3-0.9,1.3-1.6,2.2-2c1.7-0.7,3.5-0.6,5.2-1.1c3.4-0.9,6.9-2.4,9.9-4.2
		c0.8-0.5,1.4-1.3,2.2-1.8c0.3-0.2,0.6-0.2,0.9-0.1c0.3,0.1,0.5,0.1,0.7,0.2c3,0.8,6.2,3.6,9.1,4.8l1.1,0.7c1.5,0.8,3,1.9,4.5,2.8
		c0.1-2-0.2-4.1,0.3-6l0.3-0.1l0.2,0.1l0.2,0.2c2.5,1.4,5.2,3.1,7.5,4.9c1.9,1.3,3.7,2.7,5.6,3.9l0.5,0.5c0.8,0.7,1.6,1.5,2.5,2.1
		c0.6,0.5,1.1,0.9,1.7,1.5c0.4,1.2,0.1,3-0.5,4.1c-0.2,0.5-0.6,0.8-1,1c-0.2,0.1-0.6-0.1-0.7-0.1l4.6,4l0.7,0.8
		c0.7,0.7,1.3,1.3,2,1.9l0.2,0.3c-0.6,0.3-1.2,0.2-1.9,0.1c-0.5,3.7,0.3,8.1-0.2,11.7l-0.3-0.2c0,0,0,0,0-0.1
		c-0.5-3.7-0.3-7.6-0.4-11.3c-3.2,0-6.4,0-9.6,0c-2.2,0-4.8,0.3-7-0.1c-0.1,0.6-0.3,1-0.5,1.5c-0.7,1.2-1.9,1.9-3.1,2.2l-0.2,0.1
		l-0.2,0.5l-0.4-0.1c-0.4-0.6-1.4-0.7-2-1c-1.2-0.7-1.6-1.8-1.9-3.1c-1.9,0.2-3.9,0.1-5.8,0.1h-10.6c-9,0-18,0.3-27,0v-0.6l0.2-0.1
		c1.3-0.2,2.8,0,4.2,0H98l23.3-0.3c0.9,0,6.3,0.3,6.7,0c0,0,0.8-2.2,1.6-2.7c0.5-0.4,1.1-0.6,1.7-0.8c0.3-0.1,0.4-0.3,0.5-0.6
		c0.2-0.8,0.1-2.3-0.1-3.2c-0.1-0.7-0.7-1.1-0.8-1.8c-0.5-1.6-0.5-3.7-1.3-5.1c-0.1-0.1-0.2-0.2-0.4-0.2c-1.7-0.3-3.6,0-5.2-0.1
		c-4.7-0.2-9.4-0.3-14.1-0.3c-1.8,0-3.7-0.2-5.5,0.1c-0.4,0.1-0.7,0.2-0.9,0.5l-0.1,0.1l0.1-0.8c0.1-0.3,0-0.4-0.1-0.7l0.2-0.3
		c-0.5-0.7-0.9-0.9-1.6-1.3c-0.7,0-1.3-0.1-2,0.1c-0.7,0.2-0.9,0.6-1.3,1.1h-0.1C97.7,68.6,96.5,68.2,95.8,67.7z"/>
	<path class="st2" d="M95.8,67.7c0.1-0.3-0.2-0.6,0-1c0.3-0.9,1.3-1.6,2.2-2c1.7-0.7,3.5-0.6,5.2-1.1c3.4-0.9,6.9-2.4,9.9-4.2
		c0.8-0.5,1.4-1.3,2.2-1.8c0.3-0.2,0.6-0.2,0.9-0.1c0.3,0.1,0.5,0.1,0.7,0.2c3,0.8,6.2,3.6,9.1,4.8l1.1,0.7v0.1
		c0.8,1.5,5,2.2,4.3,4.6c-0.1,0.3-0.2,0.5-0.5,0.7c-0.3,0.2-0.7,0.2-1,0.2c-1.4,0.1-2.9,0-4.3,0c-5.3,0.1-10.7,0.2-16,0.2
		c-1.4,0-4.8,0.2-6-0.2c-0.1,0-0.2-0.1-0.3-0.1c-0.5-0.7-0.9-0.9-1.6-1.3c-0.7,0-1.3-0.1-2,0.1c-0.7,0.2-0.9,0.6-1.3,1.1h-0.1
		C97.7,68.6,96.5,68.2,95.8,67.7z"/>
	
		<linearGradient id="SVGID_10_" gradientUnits="userSpaceOnUse" x1="47.6062" y1="22.5455" x2="43.3817" y2="22.2113" gradientTransform="matrix(3.0769 0 0 3.0795 4.882810e-04 2.695560e-03)">
		<stop  offset="0" style="stop-color:#FCE2E1"/>
		<stop  offset="1" style="stop-color:#FFFFFF"/>
	</linearGradient>
	<path class="st24" d="M132.3,59.8l0.2,0.1l0.2,0.2c2.5,1.4,5.2,3.1,7.5,4.9c1.9,1.3,3.7,2.7,5.6,3.9l0.5,0.5
		c0.8,0.7,1.6,1.5,2.5,2.1c0.6,0.5,1.1,0.9,1.7,1.5c0.4,1.2,0.1,3-0.5,4.1c-0.2,0.5-0.6,0.8-1,1c-0.2,0.1-0.6-0.1-0.7-0.1
		c-1.5-1.2-3-2.6-4.7-3.7l-0.6-0.7c-0.6-0.1-6.9-4.9-7.9-5.6l-0.8-0.7c-0.5-0.3-0.9-0.6-1.4-0.8l-0.5-0.3h-0.2l-0.3-0.3
		C132,63.9,131.7,61.8,132.3,59.8L132.3,59.8z"/>
	
		<linearGradient id="SVGID_11_" gradientUnits="userSpaceOnUse" x1="48.9259" y1="24.2994" x2="47.2756" y2="23.739" gradientTransform="matrix(3.0769 0 0 3.0795 4.882810e-04 2.695560e-03)">
		<stop  offset="0" style="stop-color:#F19A8B"/>
		<stop  offset="1" style="stop-color:#F9CDC9"/>
	</linearGradient>
	<path class="st25" d="M146.2,69.4c0.8,0.7,1.6,1.5,2.5,2.1c0.6,0.5,1.1,0.9,1.7,1.5c0.4,1.2,0.1,3-0.5,4.1c-0.2,0.5-0.6,0.8-1,1
		c-0.2,0.1-0.6-0.1-0.7-0.1c-1.5-1.2-3-2.6-4.7-3.7l-0.6-0.7c0.7,0,1.8,1.1,2.2,1.6c0.5-1.1,1.7-3.8,1.3-5.1c-0.6-0.2-1-0.2-1.6-0.3
		C145.2,69.8,145.7,69.7,146.2,69.4C146.1,69.5,146.1,69.4,146.2,69.4z"/>
	
		<linearGradient id="SVGID_12_" gradientUnits="userSpaceOnUse" x1="43.336" y1="19.7638" x2="44.0384" y2="21.004" gradientTransform="matrix(3.0769 0 0 3.0795 4.882810e-04 2.695560e-03)">
		<stop  offset="0" style="stop-color:#ED9E90"/>
		<stop  offset="1" style="stop-color:#FCD9C5"/>
	</linearGradient>
	<path class="st26" d="M132.3,59.8l0.2,0.1l0.2,0.2c2.5,1.4,5.2,3.1,7.5,4.9c-0.4,0-0.5,0-0.7-0.3c-0.1-0.1-0.2-0.2-0.4-0.2
		c-0.3-0.1-0.7,0.3-0.8,0.5l-0.2-0.1l0.1-0.3c-0.2-0.1-0.5-0.2-0.6-0.4l0.8-0.1c-0.3-0.2-0.7-0.7-1-0.7c0.1,0.3,0.2,0.3,0.1,0.6
		c-0.5,0.1-0.7-0.3-1.1-0.3c-0.7,0.1-2,0.9-2.4,1.5c0,0,0.2,0,0.2,0.1c0.1,0.1,0.2,0.1,0.2,0.3v0.1c0.7-0.4,1.3-0.8,2.1-0.9
		c-0.7,0.5-2.1,1.1-2.2,2.1c0,0.2-0.1,0.4,0,0.6c-0.5-0.3-0.9-0.6-1.4-0.8l-0.5-0.3H132l-0.3-0.3c0.1-2-0.2-4.1,0.3-6L132.3,59.8z"
		/>
	<path class="st15" d="M132.3,59.8l0.2,0.1l0.2,0.2c0,1,0.3,5.5-0.1,6.1l-0.2,0.1h-0.2l-0.3-0.3c0.1-2-0.2-4.1,0.3-6L132.3,59.8z"/>
	<path class="st7" d="M136.3,64.7c0.7-0.1,1.1,0.2,1.6,0.6c-0.4,0.8-2.7,0.3-3,2.8l-0.8-0.7c0-0.2,0-0.4,0-0.6
		C134.4,65.9,135.6,65.3,136.3,64.7z"/>
	<path class="st16" d="M132.5,68.7c0-0.7-0.1-1.6,0.3-2.2c0.5,0.3,0.9,0.6,1.4,0.8L135,68c0.9,0.7,7.3,5.4,7.9,5.6l0.6,0.7
		c-0.9,0-4.3-3.1-5.4-3.7c-0.3-0.2-0.7-0.3-0.9-0.4c-0.9-0.2-1.9,0-2.8-0.1c-0.6-0.1-1-0.5-1.7-0.3c-0.4,0.6,0,10-0.4,10.7
		c-0.1-0.3-0.4-9.6-0.4-10.8c-0.7,0-1.5,0-2.2-0.3c0.6,0,1.5,0.1,2-0.2l-0.2-0.3c-0.7-0.3-1.4,0-2.1-0.1c0.6-0.4,1.8-0.1,2.4-0.3
		c0.1,0,0.1,0,0.2,0C132.2,68.8,132.2,68.8,132.5,68.7z"/>
	<path class="st13" d="M132.5,68.7c0-0.7-0.1-1.6,0.3-2.2c0.5,0.3,0.9,0.6,1.4,0.8L135,68c-0.2,0.4-0.2,0.4-0.6,0.5
		C134,68.7,132.9,68.9,132.5,68.7z"/>
	<path class="st16" d="M132,66.2h0.2l0.5,0.3c-0.4,0.7-0.3,1.5-0.3,2.2c-0.3,0-0.3,0-0.5-0.1C131.8,67.9,131.6,66.9,132,66.2z"/>
	<path class="st14" d="M130,85.3c0.2-0.1,0.4-0.1,0.6-0.2c0.4-0.1,0.8,0,1.1,0.2c0.2,0.1,0.3,0.3,0.4,0.5c0.1,0.4,0.1,0.7-0.1,1.1
		c-0.1,0.1-0.2,0.2-0.3,0.4c0.2,0.2,0.4,0.4,0.7,0.6l0.3-0.1c0.3-0.7-0.3-1.7,0.2-2.5c0.5-0.2,0.8,0.1,1.3,0.1s0.9-0.2,1.4-0.1
		l0.2,0.3c0,0.2,0,0.4-0.1,0.6c-0.4,0.9-1.6,2-2.5,2.3c-0.7,0.3-1.6,0-2.2-0.3c-0.8-0.4-1.8-1.2-2-2.2c-0.1-0.4-0.1-0.5,0.1-0.7
		C129.4,85,129.6,85.1,130,85.3z"/>
	<path class="st14" d="M130,85.3c0.2-0.1,0.4-0.1,0.6-0.2c0.4-0.1,0.8,0,1.1,0.2c0.2,0.1,0.3,0.3,0.4,0.5c0.1,0.4,0.1,0.7-0.1,1.1
		c-0.1,0.1-0.2,0.2-0.3,0.4c-0.4,0-0.6-0.1-0.8-0.4C130.2,86.4,130.1,85.9,130,85.3z"/>
	<path class="st14" d="M131.3,81.5c0.4,0,0.5,0,0.7,0.2c0,0.8,0,1.9-0.1,2.6c-0.5,0.3-1.2,0.2-1.8,0.1c-0.2,0.1-0.4,0.1-0.6,0.2
		c-0.4,0.1-0.5,0-0.7-0.2c0-0.2,0-0.4,0.1-0.6C129.4,82.9,130.2,82,131.3,81.5z"/>
	<path class="st14" d="M132.6,81.5c0.7,0.2,1.4,0.5,2,0.9c0.7,0.6,1.1,1.4,1.1,2.2c-1-0.2-2.1-0.2-3.1-0.1
		C132.6,83.7,132.4,82.2,132.6,81.5z"/>
	<path class="st1" d="M60,65.6l0.5,0.1c0.1,2.2,1,4.6,2.7,6.1c0.8,0.7,2,1.3,3.1,1.3c-0.3-0.3-0.6-0.5-0.7-0.8
		c0.7-1.3,2.7-3.5,4.2-3.8c0.7-0.2,1.4-0.1,2.1,0.4c0.9,0.6,1.5,1.6,1.8,2.6c-0.3,0.8-0.6,1.6-1.1,2.3c3,0.2,5.7,0.7,7.9,3.1
		c0.7,0.8,1.2,1.8,1.6,2.8c0.2,0.7,0.3,2.4,0.7,2.8c0.8,0.8,1.6,0.5,2.1,2l0.3,0.2l-0.2,0.1v0.6c-0.7-0.1-1.6,0.1-2.3,0
		c0,0.6,0.2,1.7-0.2,2.2c-0.2,0-0.3,0-0.5,0l-0.1,0.2c0,0.9-0.1,2.2,0.1,3C77.9,88.8,74,87,70,85.3c-0.6-0.3-1.4-0.5-1.9-0.9
		c-0.3,0.3-0.6,0.7-0.8,1.1c-1.5-1.2-3.1-2.4-4.7-3.6c-0.4,0.3-0.6,0.4-1,0.3c-0.3,0-0.5-0.2-0.7-0.3c-0.5,0.4-0.8,0.4-1.4,0.4
		c-0.5,0.1-0.9,0.1-1.3,0.3l-0.9,0.9l-1.6,2.8c0,0,0,0-0.1,0c-2.3-1.3-5.9-1.5-8.5-1.9c0.8-1.7,1.8-3.4,2.8-5.1
		c0.9-1.6,1.9-3.1,3-4.6l0.2-0.3c1.1-1.3,2.1-2.8,3.2-4.1c1.2-1.5,2.5-2.9,3.7-4.4L60,65.6z"/>
	<path class="st20" d="M49.8,79.3c2.4,0.5,4.9,0.9,7.3,1.5v0.1l0.6,0.1l0.2,0.3c0.1,0.4,0.1,0.8,0.2,1.2l-0.9,0.9l-1.6,2.8
		c0,0,0,0-0.1,0c-2.3-1.3-5.9-1.5-8.5-1.9C47.8,82.6,48.8,80.9,49.8,79.3z"/>
	<path class="st9" d="M57.1,80.8l0.6,0.1l0.2,0.3c0.1,0.4,0.1,0.8,0.2,1.2l-0.9,0.9C56.9,82.7,57,81.6,57.1,80.8z"/>
	<path class="st7" d="M66.3,73.1c-0.3-0.3-0.6-0.5-0.7-0.8c0.7-1.3,2.7-3.5,4.2-3.8c0.7-0.2,1.4-0.1,2.1,0.4
		c0.9,0.6,1.5,1.6,1.8,2.6c-0.3,0.8-0.6,1.6-1.1,2.3l-0.5,0.7L72,74.5c-0.2,0.2-0.5,0.5-0.4,0.7c0.1,0.7,1.8,1.9,2.3,2.3l-1.4,1.6
		c-1.7-1.6-3.3-3.2-5-4.8C67.1,74,66.6,73.6,66.3,73.1z"/>
	<path class="st1" d="M69.6,70.2c0.9,0.2,1.4,0.8,1.9,1.5c-0.4,0.8-1.1,1.7-1.6,2.5c-0.6-0.8-1.3-1.5-2.1-2.2
		C68.4,71.3,69,70.8,69.6,70.2z"/>
	<path class="st7" d="M63.3,74.9l1.4,0.9c-0.7,1-1.7,2.2-2.3,3.3c0.5,0.3,1.2,1.1,1.7,1.2c0.7-0.5,1.5-2.3,2-3.1l1.4,1
		c-0.7,1.1-1.4,2.2-2,3.3c0.7,0.4,1.1,0.7,1.7,1.2c0.7-1,1.6-2.2,2.4-3.2l1.4,1c-0.9,1.2-2,2.4-2.7,3.7c-0.3,0.3-0.6,0.7-0.8,1.1
		c-1.5-1.2-3.1-2.4-4.7-3.6c-0.9-0.7-1.9-1.4-2.9-2.1C60.9,78.1,62.1,76.5,63.3,74.9z"/>
	<path class="st1" d="M52.8,74.7c0.7,1.3,4.3,0,4.3,6.1c-2.4-0.6-4.9-1-7.3-1.5C50.7,77.7,51.8,76.1,52.8,74.7z"/>
	<path class="st14" d="M72.5,73.8c3,0.2,5.7,0.7,7.9,3.1c0.7,0.8,1.2,1.8,1.6,2.8c0.2,0.7,0.3,2.4,0.7,2.8c0.8,0.8,1.6,0.5,2.1,2
		l0.3,0.2l-0.2,0.1c-0.7-0.1-1.6-0.1-2.3-0.1c0-0.6,0.1-1.2-0.1-1.8c-0.1-0.3-0.1-0.3-0.4-0.5c-0.9-1.8-0.2-2.4-2-4.7
		c-2.2-2.8-4.8-2.7-8-3.1L72.5,73.8z"/>
	<path class="st14" d="M81.8,87.4c-0.7-0.4-1.3-0.8-1.7-1.5c-0.3-0.5-0.4-0.9-0.2-1.4c0.2-0.7,0.7-1.5,1.4-1.8
		c0.3-0.1,0.5-0.3,0.7-0.5l0.1-0.1c0.3,0.2,0.3,0.2,0.4,0.5c0.2,0.6,0.1,1.2,0.1,1.8c0.7,0,1.6,0.1,2.3,0.1v0.6
		c-0.7-0.1-1.6,0.1-2.3,0c0,0.6,0.2,1.7-0.2,2.2c-0.2,0-0.3,0-0.5,0L81.8,87.4z"/>
	<path class="st6" d="M82,82.3c0.3,0.2,0.3,0.2,0.4,0.5c0.2,0.6,0.1,1.2,0.1,1.8c0.7,0,1.6,0.1,2.3,0.1v0.6c-0.7-0.1-1.6,0.1-2.3,0
		c0,0.6,0.2,1.7-0.2,2.2c-0.2,0-0.3,0-0.5,0C81.8,85.7,81.7,83.9,82,82.3z"/>
	<path class="st14" d="M60,65.6l0.5,0.1c0.1,2.2,1,4.6,2.7,6.1c0.8,0.7,2,1.3,3.1,1.3c0.5,0.4,0.9,0.8,1.3,1.2h-0.1
		c-1.2,0.2-3-0.7-3.9-1.5c-2.4-1.8-3.3-4.2-3.7-7L60,65.6z"/>
	<path class="st2" d="M53,74.4c1.6,0.4,3,1,3.9,2.4c0.7,1.1,0.9,2.7,0.8,4l-0.6-0.1v-0.1c0.1-6.1-3.5-4.8-4.3-6.1L53,74.4z"/>
	<path class="st8" d="M57.9,81.3c1.1,0,2,0.5,3,0.6c-0.5,0.4-0.8,0.4-1.4,0.4c-0.5,0.1-0.9,0.1-1.3,0.3
		C57.9,82.1,57.9,81.6,57.9,81.3z"/>
	<path class="st6" d="M98.7,68.3c0.3-0.6,0.7-0.9,1.3-1.1c0.7-0.2,1.3-0.1,2-0.1c0.7,0.4,1.1,0.7,1.6,1.3l-0.2,0.3
		c0.1,0.3,0.1,0.4,0.1,0.7l-0.1,0.8l-0.7,0.9c-0.1,0.1-0.2,0.2-0.3,0.2c-0.6,0.4-1.2,0.5-1.8,0.3c-0.8-0.2-1.4-0.8-1.8-1.6v-0.1
		C98.6,69.5,98.6,69,98.7,68.3z"/>
	<path class="st13" d="M99.7,68.7c1.2-0.1,2.4,0,3.7,0.1c0.1,0.3,0.1,0.4,0.1,0.7l-0.1,0.8l-0.7,0.9c-0.7,0-1.3-0.2-2-0.4
		c-0.5-0.5-0.9-0.8-1.4-1.3c-0.5-0.3-0.6-0.4-0.6-0.7C99.1,68.6,99.2,68.7,99.7,68.7z"/>
	<path class="st16" d="M99.7,68.7c1.2-0.1,2.4,0,3.7,0.1c0.1,0.3,0.1,0.4,0.1,0.7c-1.1,0.1-2.6,0.7-3.7,0.1
		C99.5,69.2,99.6,69.1,99.7,68.7z"/>
	<path class="st14" d="M91.3,64c1.3,1.4,2.7,2.8,4.5,3.7c0.7,0.5,2,0.8,2.8,0.7h0.1c-0.1,0.6-0.1,1,0,1.7v0.1
		c-0.7-0.8-2.5-1.1-3.6-1.6c-0.9-0.4-1.8-0.9-2.5-1.6c-0.7-0.6-1.6-1.7-1.7-2.6L91.3,64z"/>
	<path class="st14" d="M89.1,46.9l0.8,0.2c0,2-0.3,4.5,0.2,6.3l-1,0.6C88.8,51.9,89.1,49,89.1,46.9z"/>
	<path class="st20" d="M86.4,45.9c0.8-0.5,1.8-0.9,2.7-1.3c0,0.7,0,1.6,0.1,2.3C88.2,46.5,87.3,46.4,86.4,45.9z"/>
	<path class="st7" d="M76.3,62.3c1.1,0,1.9,0.3,2.6,1c0.7,0.6,1,1.3,1,2.2c0,1.5-1.6,2.8-2.5,3.7c0.7,0.9,1.5,1.8,2.2,2.6
		c-0.4,0.4-1.1,1.1-1.6,1.3c-2.2-2.3-4.2-5-6.4-7.4C73.2,64.6,74.6,63.2,76.3,62.3z"/>
	<path class="st1" d="M76.4,64.2c0.5,0.1,0.9,0.4,1.2,0.7c0.2,0.2,0.4,0.5,0.3,0.7c0,1-1,1.9-1.7,2.6H76c-0.2-0.9-1-1.7-1.7-2.3
		C75.1,65.3,75.7,64.7,76.4,64.2z"/>
	<path class="st7" d="M83.9,57L83.9,57c0.6,0.1,0.9,0.9,1.1,1.3c-1,0.7-2.2,1.4-3.3,2.2c0.4,0.6,0.7,1.4,1.1,1.8
		c0.5-0.1,2.3-1.8,3-2.2c0.3,0.5,0.6,0.9,0.8,1.3c-0.9,0.7-2,1.5-3,2.2c0.4,0.7,0.7,1.3,1.1,1.9c1-0.7,2.1-1.3,3-2H88
		c0.4,0.1,0.7,0.9,1,1.3c-1.7,1-3.4,2.2-5.1,3.3l-5.2-8C80.7,59.1,82.3,58,83.9,57z"/>
	<path class="st1" d="M62.7,81.7c1.6,1.1,3.2,2.3,4.7,3.6c0.3-0.4,0.6-0.8,0.8-1.1c0.5,0.5,1.3,0.7,1.9,0.9c4,1.7,7.9,3.5,11.8,5.3
		l0.1,0.2l0.5-0.1l0.1,0.5c0,2.8,0,5.5,0,8.3c0.6,0,1.1-0.1,1.6,0.1l-0.5,0.9c-0.3,0.2-0.6,0.5-0.9,0.7c0,0.7-0.2,1.1-0.5,1.7
		l-0.3,0.4l-0.3,0.4c0.1,1.6,0.1,3.2,0,4.9c-0.8,0-1.6-0.1-2.4-0.1c-2,0.1-3.9,0-5.9,0c-2.2-0.2-6.2-0.7-7.9,0.8
		c-0.7,0.7-1,1.5-1.1,2.5c-0.3,4.5,0,9.4,0,14v8.2c0,2.1-0.2,4.2,0.3,6.3c0.7,1,1.6,1.8,2.9,2c0.7,0.1,1.5,0.1,2.2,0.1
		c-0.7,5.3-1,10.8-0.9,16.1v0.6c0,3.2-0.1,6.5,0.3,9.6v0.1c-1-0.4-4-0.1-5.2-0.1v0.6v0.1c-0.7,0-2.5-0.2-3.2,0.2l-0.5-0.2
		c-0.9-0.2-2.2,0-3.2,0H57c-0.7-0.1-3.1-0.3-3.7,0.1c-1.3,0.1-2.8,0.2-4,0.7l-0.2-0.1c-0.6-1.7-2.3-4.5-3.3-6.4
		c-1.4-2.8-2.5-5.7-3.7-8.6l-0.3-0.1c-0.5-0.9-0.6-2.3-1.1-3.2c-0.3-0.5-2.2-1.3-2.7-1.8c-3-2.3-5.6-5.9-7.2-9.4
		c-0.3-0.7-1.3-3-1.2-3.7c0-0.2,0.1-0.4,0.2-0.6h-0.1c-1.1,0.5-1.5,3.9-2.6,5c-0.3,0.3-0.4,0.4-0.7,0.4c-0.1,0-0.2,0.1-0.2,0.1
		c-1.9,0.8-7.5,1-9.5,0.3c-0.8-0.4-1.5-0.9-1.8-1.8c-0.3-0.7-0.2-1.4,0-2.2c0.7-3.1,2.5-7.1,3.7-10.2c2.2-5.8,4.1-11.7,6.4-17.5
		l-0.1-0.1v-0.1c0.1-0.6,0.9-1,1.4-1.3c0.4-0.2,0.7-0.5,1.1-0.5c1.4-0.3,6.4-0.3,7.7,0.1h0.1c0.9-1.3,3.7-2.9,3.9-3.4
		c0.7-1.1,0.8-3,1.1-4.2c0.4-1.5,2.6-8.7,3.6-9.4c0.7-1,2.2-5.2,3.3-6.9c2.6,0.4,6.2,0.6,8.5,1.9c0,0,0,0,0.1,0l1.6-2.8l0.9-0.9
		c0.5-0.2,0.8-0.2,1.3-0.3c0.6,0,0.9,0,1.4-0.4c0.3,0.1,0.5,0.2,0.7,0.3C62.2,82.2,62.2,82,62.7,81.7z M40.4,118.6l0.6,0.1
		c-0.4-0.5-0.7-0.8-0.8-1.3l-0.2,0.4L40.4,118.6z"/>
	<path class="st1" d="M62.7,81.7c1.6,1.1,3.2,2.3,4.7,3.6c0.3-0.4,0.6-0.8,0.8-1.1c0.5,0.5,1.3,0.7,1.9,0.9c4,1.7,7.9,3.5,11.8,5.3
		l0.1,0.2l0.5-0.1l0.1,0.5c0,2.8,0,5.5,0,8.3c0.6,0,1.1-0.1,1.6,0.1l-0.5,0.9c-0.3,0.2-0.6,0.5-0.9,0.7c0,0.7-0.2,1.1-0.5,1.7
		l-0.3,0.4c-0.2-0.8-0.1-1.8-0.2-2.6c-1.3,0-3.3,0.3-4.4-0.1l-0.1,0.1c-6.6-0.3-13.2-0.2-19.8-0.1c-0.4-0.1-0.7,0-1.2,0
		c-1.7,0-3.3,0-5,0.1c-0.4,0.4-0.7,0.6-1.1,0.8c0.1-0.4,0.3-0.7,0.5-0.9l-0.1-0.9c-0.1-0.3-0.2-0.6-0.3-0.9c-0.7-0.6-1.2-1-2.2-0.9
		c-0.7,0-1.2,0.4-1.6,0.8c-0.2,0.2-0.3,0.4-0.4,0.6c-0.3,0.3-0.4,0.5-0.7,0.5c-0.3,0-0.7,0-0.9,0c-1.1,0-2.4,0.2-3.7,0
		c0.5-0.8,0.7-2.1,1-3c0.7-1.8,1.3-3.5,1.9-5.2c0.7-1,2.2-5.2,3.3-6.9c2.6,0.4,6.2,0.6,8.5,1.9c0,0,0,0,0.1,0l1.6-2.8l0.9-0.9
		c0.5-0.2,0.8-0.2,1.3-0.3c0.6,0,0.9,0,1.4-0.4c0.3,0.1,0.5,0.2,0.7,0.3C62.2,82.2,62.2,82,62.7,81.7z"/>
	<path class="st1" d="M47,84.3c2.6,0.4,6.2,0.6,8.5,1.9c0,0,0,0,0.1,0c-0.3,0.5-0.5,0.7-0.4,1.3c0.4,0.5,1,0.7,1.6,1
		c0.1,0.9,0.1,2,0.2,2.9c0,2.6,0.1,5.2,0,7.9h-3c-0.5,0-1,0-1.5,0.1c-0.3,0-0.5,0-0.7,0c-0.7-0.1-1-0.3-1.5-0.8
		c-0.7-0.6-1.2-1-2.2-0.9c-0.7,0-1.2,0.4-1.6,0.8c-0.2,0.2-0.3,0.4-0.4,0.6c-0.3,0.3-0.4,0.5-0.7,0.5c-0.3,0-0.7,0-0.9,0
		c-1.1,0-2.4,0.2-3.7,0c0.5-0.8,0.7-2.1,1-3c0.7-1.8,1.3-3.5,1.9-5.2C44.5,90.2,46,85.9,47,84.3z"/>
	<path class="st2" d="M44.4,99.3c0.6-1.4,1.3-2.7,2.8-3.3c0.9-0.4,1.9-0.3,2.8,0.1c1.9,0.7,2.4,2.8,4,3.2c-0.5,0-1,0-1.5,0.1
		c-0.3,0-0.5,0-0.7,0c-0.7-0.1-1-0.3-1.5-0.8c-0.7-0.6-1.2-1-2.2-0.9c-0.7,0-1.2,0.4-1.6,0.8c-0.2,0.2-0.3,0.4-0.4,0.6
		c-0.3,0.3-0.4,0.5-0.7,0.5C45,99.4,44.7,99.3,44.4,99.3z"/>
	<path class="st8" d="M62.7,81.7c1.6,1.1,3.2,2.3,4.7,3.6c0.3-0.4,0.6-0.8,0.8-1.1c0.5,0.5,1.3,0.7,1.9,0.9c4,1.7,7.9,3.5,11.8,5.3
		l0.1,0.2l0.5-0.1l0.1,0.5c0,2.8,0,5.5,0,8.3c0.6,0,1.1-0.1,1.6,0.1l-0.5,0.9c-0.3,0.2-0.6,0.5-0.9,0.7c0,0.7-0.2,1.1-0.5,1.7
		l-0.3,0.4c-0.2-0.8-0.1-1.8-0.2-2.6c-1.3,0-3.3,0.3-4.4-0.1l0.7-1c0.5-1.2,1.4-2.4,2.2-3.6c-4-2.2-14.1-7.1-18.5-7.7
		c0.3-0.7,0.6-1.2,0.7-1.9c0.2-0.7,0.1-1.7-0.3-2.3c-0.6-0.8-1.8-1.4-2.7-1.6c0.6,0,0.9,0,1.4-0.4c0.3,0.1,0.5,0.2,0.7,0.3
		C62.2,82.2,62.2,82,62.7,81.7z"/>
	<path class="st12" d="M82,90.6l0.5-0.1l0.1,0.5c0,2.8,0,5.5,0,8.3c0.6,0,1.1-0.1,1.6,0.1l-0.5,0.9c-0.3,0.2-0.6,0.5-0.9,0.7
		c0,0.7-0.2,1.1-0.5,1.7l-0.3,0.4c-0.2-0.8-0.1-1.8-0.2-2.6c-1.3,0-3.3,0.3-4.4-0.1l0.7-1c1,0.3,2.6,0.1,3.7,0
		C81.9,96.5,81.5,93.4,82,90.6z"/>
	<path class="st21" d="M82.6,99.3c0.6,0,1.1-0.1,1.6,0.1l-0.5,0.9c-0.3,0.2-0.6,0.5-0.9,0.7l-0.3-0.3
		C82.5,100.3,82.6,99.8,82.6,99.3z"/>
	<path class="st7" d="M59.5,82.2c1,0.2,2.2,0.7,2.7,1.6c0.5,0.7,0.6,1.6,0.3,2.3c-0.2,0.7-0.5,1.3-0.7,1.9l-0.3,0.6
		c0.4,0.9,2.1,1.4,2.9,1.9l-1,1.9c-2.2-1.4-4.5-2.6-6.6-3.8c-0.6-0.4-1.1-0.5-1.6-1c-0.1-0.6,0.2-0.7,0.4-1.3l1.6-2.8l0.9-0.9
		C58.6,82.3,59.1,82.2,59.5,82.2z"/>
	<path class="st8" d="M58.9,84.2c0.9,0.2,1.4,0.6,2.1,1.1c-0.3,0.8-0.6,2.2-1.1,2.9c-0.6-0.8-1.6-1.2-2.4-1.7
		C57.8,85.7,58.2,84.9,58.9,84.2z"/>
	<path class="st14" d="M50.3,98.5c0.5,0.6,0.7,0.8,1.5,0.8c0.3,0,0.5,0,0.7,0c1.8,0.2,3.5,0.1,5.2,0.1c2.2-0.3,4.5,0,6.6,0
		c4.6,0,9.2,0,13.7-0.1l-0.7,1l-0.1,0.1c-6.6-0.3-13.2-0.2-19.8-0.1c-0.4-0.1-0.7,0-1.2,0c-1.7,0-3.3,0-5,0.1
		c-0.4,0.4-0.7,0.6-1.1,0.8c0.1-0.4,0.3-0.7,0.5-0.9l-0.1-0.9C50.4,99.1,50.4,98.8,50.3,98.5z"/>
	<path class="st2" d="M57,91.4c0-0.7,0-1.4,0.3-2.1h0.2c0.7,1.2,0.2,8.2,0.4,10c-1.8,0-3.5,0.1-5.2-0.1c0.5,0,1,0,1.5-0.1h3
		C57.1,96.6,57,94,57,91.4z"/>
	<path class="st2" d="M77.4,100.3c1.2,0.4,3.2,0.1,4.4,0.1c0,0.8,0,1.8,0.2,2.6l-0.3,0.4c0.1,1.6,0.1,3.2,0,4.9
		c-0.8,0-1.6-0.1-2.4-0.1c-2,0.1-3.9,0-5.9,0c-2.2-0.2-6.2-0.7-7.9,0.8c-0.7,0.7-1,1.5-1.1,2.5c-0.3,4.5,0,9.4,0,14v8.2
		c0,2.1-0.2,4.2,0.3,6.3c0.7,1,1.6,1.8,2.9,2c0.7,0.1,1.5,0.1,2.2,0.1c-0.7,5.3-1,10.8-0.9,16.1v0.6c-1.8,0.1-3.6,0-5.3,0l-0.1-0.3
		l0.1-0.1c-1.1-0.4-2.4-0.3-3.6-0.8c-1-0.6-1.8-1.5-2.2-2.7c-0.4-1.2-0.2-10.7,0.2-11.9c0.2-0.7,1.8-1.1,2.2-2
		c0.1-0.3,0.1-0.3,0-0.6c-0.4,0.2-0.7,0.7-0.9,1c-0.3,0.4-0.5,0.6-0.9,0.6l-0.1-0.1c0.5-0.7,1.1-1.1,1.5-1.7
		c0.5-0.7,0.4-1.5,0.3-2.2v-0.2c-0.4-1.6,0.1-3.4-0.3-5.1l0.1-0.1c-0.3-1.1-1.5-1.5-1.6-2.2c-0.4-2.2,0.4-10.4-0.1-11.5
		c0.4-0.4,0.8-0.7,1.2-1.2c0.8-1.3,0.8-5.2,0.5-6.7c-0.3-1.3-0.8-2-2-2.6c-0.3-2.6-0.2-5.4-0.2-8.1C64.3,100.3,71,100.2,77.4,100.3
		L77.4,100.3z"/>
	
		<linearGradient id="SVGID_13_" gradientUnits="userSpaceOnUse" x1="22.5316" y1="51.0911" x2="20.5733" y2="45.8517" gradientTransform="matrix(3.0769 0 0 3.0795 4.882810e-04 2.695560e-03)">
		<stop  offset="0" style="stop-color:#B7403C"/>
		<stop  offset="1" style="stop-color:#D85A52"/>
	</linearGradient>
	<path class="st27" d="M64.7,139.9c0.7,1,1.6,1.8,2.9,2c0.7,0.1,1.5,0.1,2.2,0.1c-0.7,5.3-1,10.8-0.9,16.1v0.6c-1.8,0.1-3.6,0-5.3,0
		l-0.1-0.3l0.1-0.1l0.1-0.3c-0.1-1.4,0-3,0.1-4.5C63.8,149,64.1,144.4,64.7,139.9z"/>
	<path class="st9" d="M63.6,158c1.3,0,4.1-0.4,5.3,0.1v0.6c-1.8,0.1-3.6,0-5.3,0l-0.1-0.3l0.1-0.1L63.6,158z"/>
	<path class="st9" d="M77.4,100.3c1.2,0.4,3.2,0.1,4.4,0.1c0,0.8,0,1.8,0.2,2.6l-0.3,0.4c0.1,1.6,0.1,3.2,0,4.9
		c-0.8,0-1.6-0.1-2.4-0.1c-2,0.1-3.9,0-5.9,0c1.4-2.5,2.5-5.2,3.9-7.7L77.4,100.3z"/>
	<path class="st2" d="M79.4,108.1c0.5-1.6,1.6-3.3,2.4-4.7c0.1,1.6,0.1,3.2,0,4.9C81,108.2,80.1,108.2,79.4,108.1z"/>
	<path class="st8" d="M63.6,158.7c1.8-0.1,3.6,0.1,5.3,0c0,3.2-0.1,6.5,0.3,9.6v0.1c-1-0.4-4-0.1-5.2-0.1l-0.1-0.1
		C63.7,165.1,63.4,161.9,63.6,158.7z"/>
	<path class="st6" d="M58.1,119c0.5,1.1-0.3,9.4,0.1,11.5c0.1,0.7,1.4,0.9,1.6,2.2l-0.1,0.1c-0.1-0.3-0.4-0.7-0.6-0.9
		c-0.7-0.9-2-1.2-3.2-1.3v-10.9C56.7,119.5,57.4,119.3,58.1,119z"/>
	<path class="st14" d="M60,137.9v0.2c0.1,0.7,0.2,1.6-0.3,2.2c-0.5,0.7-1.1,1.1-1.5,1.7l0.1,0.1c0.5-0.1,0.7-0.2,0.9-0.6
		c0.3-0.4,0.6-0.8,0.9-1c0.1,0.3,0.1,0.3,0,0.6c-0.4,0.8-2,1.2-2.2,2c-0.4,1.2-0.6,10.6-0.2,11.9c0.3,1.1,1,2.2,2.2,2.7
		s2.4,0.5,3.6,0.8l-0.1,0.1c-0.7,0.2-1.8,0.1-2.5-0.1c-3.9-0.7-3.8-5.2-3.9-8.4c0-1.4-0.2-2.9-0.1-4.4c0-0.8,0.3-2.4-0.2-3.2
		c-1.8-0.7-11.7,0.1-14.7-0.3h-0.1c3.2,0,6.3-0.1,9.5-0.1c1.9,0,3.9,0.2,5.7-0.2c0.7-0.1,1.2-0.3,1.8-0.7
		C59.7,140.3,59.9,139.1,60,137.9z"/>
	<path class="st14" d="M60.7,168.1c0.6,0.5,2.3,0.2,3.1,0.2l0.1,0.1v0.6v0.1c-0.7,0-2.5-0.2-3.2,0.2l-0.5-0.2c-0.9-0.2-2.2,0-3.2,0
		h-0.1c-0.7-0.1-3.1-0.3-3.7,0.1c-1.3,0.1-2.8,0.2-4,0.7l-0.2-0.1c1.5-1.9,4.8-1,6.8-1.4H56h0.4c1.1,0.1,2.7,0.2,3.8,0L60.7,168.1z"
		/>
	<path class="st6" d="M46,98.9c0.1-0.2,0.2-0.4,0.4-0.6c0.4-0.5,0.9-0.8,1.6-0.8c0.9,0,1.5,0.4,2.2,0.9c0.1,0.3,0.2,0.7,0.3,0.9
		c-1.5-0.1-2.9,0-4.5,0.2L46,98.9z"/>
	<path class="st14" d="M44.4,99.3c0.3,0,0.7,0.1,0.9,0c0.5,0,0.6-0.2,0.7-0.5v0.7v0.6l0.1,0.3l0.1,0.7c-0.1-0.1-0.2-0.3-0.4-0.4
		c-0.7-0.6-2.5-0.4-3.3-0.4c-0.6,0-1.5,0.1-2-0.4l0.2-0.7C41.9,99.5,43.2,99.3,44.4,99.3z"/>
	<path class="st8" d="M56.3,100.3c0.4-0.1,0.7-0.1,1.2,0c0.1,2.7,0,5.4,0.2,8.1l-0.7-0.1c0-1.8,0.4-6.5,0.1-7.8
		C56.8,100.4,56.6,100.4,56.3,100.3z"/>
	<path class="st28" d="M46,99.5c1.5-0.2,2.9-0.2,4.5-0.2l0.1,0.9c-0.7-0.1-1.6,0.1-2.3,0.1c-0.7,0-1.5-0.2-2.2-0.3L46,99.5z"/>
	<path class="st16" d="M46,100.1c0.7,0.2,1.4,0.4,2.2,0.3c0.7,0,1.7-0.3,2.3-0.1c-0.2,0.3-0.4,0.7-0.5,0.9l-0.6,0.7
		c-2.2-0.3-2-1.2-3.5-1.5V100.1z"/>
	<path class="st1" d="M56.4,168.2c0.3-0.6,0.7-1.1,1.3-1.3c0.5-0.2,0.9-0.1,1.3,0.1c0.5,0.3,0.9,0.7,1.2,1.2
		C59.1,168.4,57.6,168.3,56.4,168.2z"/>
	<path class="st2" d="M56.1,168.2c0-0.2,0.1-0.5,0.2-0.7c0.2-0.5,0.7-1,1.2-1.2c0.6-0.2,1.2-0.2,1.7,0.1c0.7,0.4,1.1,0.9,1.5,1.7
		l-0.4,0.1c-0.3-0.5-0.7-0.9-1.2-1.2c-0.4-0.2-0.8-0.3-1.3-0.1c-0.7,0.2-0.9,0.7-1.3,1.3H56.1z"/>
	<path class="st13" d="M46.1,100.4c1.5,0.3,1.3,1.2,3.5,1.5c-0.6,0.4-1.2,0.6-1.9,0.5c-0.7-0.2-1.1-0.7-1.6-1.2V100.4z"/>
	<path class="st7" d="M27.6,111c1.9-0.2,5.2-0.5,6.9,0.2c0.9,0.7,7.5,19.5,8.3,22.2h3.5v-16.8c-1.2,0-2.4,0-3.7-0.1l-0.1-2.4
		c1.8,0,5.2-0.4,6.6,0.3l0.2,0.6l0.9-0.2l0.1-0.3c2.1-0.7,4.6-0.4,6.7-0.4c-0.1,0.8-0.1,1.7-0.2,2.4c-1.2,0.1-2.4,0.1-3.7,0v15.2
		c-1,0.6-2,1.1-2.9,1.7c1.5-0.2,5.2-0.5,6.6,0.1c0.3,0.4,0.3,0.8,0.3,1.3c0,0.4,0,0.7-0.1,1.2c0,0.2,0,0.4,0.1,0.5
		c0,0.7,0.2,1.9-0.4,2.4c-1.6,0.4-17.2,0.3-19.2,0.1c-1-1.8-1.6-3.9-2.2-5.9c-2.8,0-5.6,0-8.3,0c-0.6,1.5-1.3,4.7-2.3,5.8
		c-0.9,0.4-2.2,0.3-3.3,0.2l-0.2-0.2l-0.4,0.1c-0.8,0.4-2.4,0.1-3.4,0c0.4-1.7,1-3.4,1.7-5l2.9-7.9l3.5-9.6
		C26.1,114.9,26.7,112.9,27.6,111z"/>
	<path class="st7" d="M25,130.1c1.9,0.3,3.9,0.1,5.8,0.1c2.1,0,4.1,0.1,6.2,0l0.3,0.9c0.2,0.3,0.4,0.4,0.7,0.5l0.9-0.3
		c0.2,1.6,0.9,3.2,1.5,4.7c2.7,0,5.9,0.3,8.6-0.2l0.6-0.5c0.3,0,0.7,0,0.9,0l0.7,0.5c2,0.1,4.1-0.1,6,0.2c0,0.2,0,0.4,0.1,0.5
		c0,0.7,0.2,1.9-0.4,2.4c-1.6,0.4-17.2,0.3-19.2,0.1c-1-1.8-1.6-3.9-2.2-5.9c-2.8,0-5.6,0-8.3,0c-0.6,1.5-1.3,4.7-2.3,5.8
		c-0.9,0.4-2.2,0.3-3.3,0.2c0.7-2,1.9-6.3,3-7.8c0.4-0.1,0.6-0.3,0.8-0.5C25,130.6,25,130.4,25,130.1z"/>
	<path class="st8" d="M37.9,131.6l0.9-0.3c0.2,1.6,0.9,3.2,1.5,4.7c2.7,0,5.9,0.3,8.6-0.2v0.8c-1-0.4-7.4-0.1-8.9-0.1
		C39.3,134.9,38.9,133.1,37.9,131.6z"/>
	<path class="st2" d="M25,130.1c1.9,0.3,3.9,0.1,5.8,0.1c2.1,0,4.1,0.1,6.2,0l0.3,0.9c0,0-0.1,0-0.1-0.1c-1-0.5-11-0.4-12.1,0
		C25,130.6,25,130.4,25,130.1z"/>
	<path class="st8" d="M51,135.9c2,0.1,4.1-0.1,6,0.2c0,0.2,0,0.4,0.1,0.5c-2.1,0-4.2-0.1-6.2,0.1L51,135.9z"/>
	<path class="st2" d="M50.4,135.4l0.7,0.5l-0.1,0.7c-0.1,0.1-0.2,0.2-0.2,0.3c-0.3,0.4-0.6,0.4-0.9,0.5c-0.4-0.2-0.7-0.4-0.9-0.7
		v-0.8l0.6-0.5C49.7,135.4,50.1,135.4,50.4,135.4z"/>
	<path class="st7" d="M29.8,115.2c0.8,0,1.6,0,2.4,0.1l3.2,8.9c0.7,1.9,1.5,3.7,1.9,5.7l-0.4,0.3c-2.1,0.1-4.1,0-6.2,0
		c-1.9,0-3.9,0.2-5.8-0.1l-0.2-0.2C25.8,125.1,28.5,119.9,29.8,115.2z"/>
	<path class="st1" d="M29.7,125.8l1.5-4.7c0.5,2.2,1.3,4.3,2,6.4c-1.1,0-2.4,0.1-3.6,0h-2.7l1.7-0.9C28.9,126.2,29.4,126,29.7,125.8
		z"/>
	<path class="st2" d="M28.5,126.5c0.4,0.7,0.4,0.7,1,0.9h-2.7L28.5,126.5z"/>
	<path class="st7" d="M50.4,114.4c2.1-0.7,4.6-0.4,6.7-0.4c-0.1,0.8-0.1,1.7-0.2,2.4c-1.2,0.1-2.4,0.1-3.7,0v15.2
		c-1,0.6-2,1.1-2.9,1.7c1.5-0.2,5.2-0.5,6.6,0.1c0.3,0.4,0.3,0.8,0.3,1.3c0,0.4,0,0.7-0.1,1.2c-1.9-0.3-4-0.1-6-0.2l-0.7-0.5
		c-0.3,0-0.7,0-0.9,0c0.4-2.7,0.2-5.6,0.2-8.3c0-4,0.2-8.1-0.1-12.1l0.9-0.2L50.4,114.4z"/>
	<path class="st8" d="M49.4,115l0.9-0.2c-0.4,3.4-0.2,6.9-0.2,10.3s-0.2,6.9,0.1,10.3c-0.3,0-0.7,0-0.9,0c0.4-2.7,0.2-5.6,0.2-8.3
		C49.6,123,49.8,118.9,49.4,115z"/>
	<path class="st2" d="M29.6,114.5h3.1c0.7,2.1,4.8,14.2,5.7,15c-0.4,0.2-0.7,0.3-1,0.3c-0.4-2-1.2-3.8-1.9-5.7l-3.2-8.9
		c-0.8-0.1-1.6-0.1-2.4-0.1c-1.3,4.8-4,9.9-5.1,14.7l-1.2-0.3h0.1c0.1,0,0.3-0.2,0.3-0.2C24.6,128.7,28.8,116.5,29.6,114.5z"/>
	<path class="st2" d="M23.4,131.2c0.3,0.1,0.6,0.2,0.8,0.3c-1.1,1.5-2.3,5.8-3,7.8l-0.2-0.2l-0.4,0.1C21,137,22.8,133.6,23.4,131.2z
		"/>
	<path class="st2" d="M38.4,129.6c0.3,0,0.4,0.1,0.7,0.3c0.1,0.3,0.2,0.6,0.1,0.9c-0.1,0.2-0.2,0.4-0.3,0.5l-0.9,0.3
		c-0.3-0.1-0.5-0.2-0.7-0.5l-0.3-0.9l0.4-0.3C37.7,129.8,38,129.7,38.4,129.6z"/>
	<path class="st2" d="M23.4,131.2c-0.3-0.4-0.3-0.6-0.4-0.9c0.1-0.4,0.3-0.6,0.6-0.7l1.2,0.3L25,130c0,0.4,0,0.6,0.1,0.9
		c-0.3,0.3-0.5,0.4-0.8,0.5C23.9,131.4,23.7,131.3,23.4,131.2z"/>
	<path class="st7" d="M42.6,112.5c0-0.5,0-0.9,0.3-1.3c1.4-0.4,12.2-0.3,14.1,0l0.1,2.1c0.1,0.4,0.1,0.6,0,0.9
		c-2.2,0-4.7-0.3-6.7,0.4l-0.1,0.3l-0.9,0.2l-0.2-0.6c-1.5-0.7-4.9-0.4-6.6-0.3C42.5,113.7,42.3,112.9,42.6,112.5z"/>
	<path class="st2" d="M42.6,114.1c-0.1-0.5-0.2-1.2,0-1.7c0,0.4,0,0.7,0.2,1c1.8,0.2,4.3,0.2,6.1,0c0.1-0.1,0.1-0.2,0.2-0.3
		c0.3-0.4,0.6-0.5,1-0.6c0.4,0.2,0.5,0.3,0.7,0.7c0,0,0,0,0.1,0c0.7,0.4,5.2,0.4,6.2,0.2l0.1-0.4c0.1,0.4,0.1,0.6,0,0.9
		c-2.2,0-4.7-0.3-6.7,0.4l-0.1,0.3l-0.9,0.2l-0.2-0.6C47.7,113.7,44.4,114.1,42.6,114.1z"/>
	<path class="st14" d="M40.4,118.6l0.6,0.1c0.8,0.6,1.6,0.7,2.6,0.9c0,2.6,0,5.2,0.1,7.8C42.6,124.4,41.7,121.4,40.4,118.6z"/>
	<path class="st29" d="M40,117.7l0.2-0.4c0.3,0.5,0.6,0.9,0.8,1.3l-0.6-0.1L40,117.7z"/>
	<path class="st1" d="M63.8,168.4c1.2,0,4.2-0.4,5.2,0.1l0.1,0.5c2.2,0.2,4.3,0.1,6.5,0c0.2-0.1,0.4-0.2,0.6-0.3
		c0.1,0,0.4,0.1,0.5,0.2c0.8,0.1,1.7,0.1,2.5,0.1c1.8-0.2,3.6-0.1,5.3-0.1h9.2c2.4,0,4.9,0,7.3,0.1c0.8,0,1.9-0.1,2.7,0.1
		c2.3,0.1,4.7,0.1,7,0.3c0,1.1-0.1,3.8,0.5,4.7c0.4,1.7,0.5,3.5,0.7,5.2c0.3,1.9,0.7,3.7,1,5.6v0.1c0.1,0.4,0.2,0.7,0.3,1.2
		c1.8-0.2,3.7-0.1,5.5,0c0.6,2.1,2.3,9.9,3.8,10.9c0,0,0.1,0,0.1,0.1c0.2,2.7,0.2,5.3,0.3,8.1c0.6,0,1.4,0.1,1.9-0.3
		c0.3-0.4,0.2-0.7,0.2-1.1c0,0.3,0,0.6,0.2,0.7c0.1,0.3,0.5,0.6,0.7,0.8c0.5,0.7,4.5,7.3,4.5,7.7l-0.2,0.1h-6.1
		c-6.9,0.4-15.5-1.1-22.3-3c-2.2-0.6-4.3-1.4-6.5-2l-0.7-0.3c-0.9-0.7-2.3-1-3.5-1.5c-2-0.8-4-1.7-5.9-2.7c-1.9-1-3.7-2.1-5.6-3.2
		c-1.1-0.7-2.2-1.5-3.4-2l-0.5-0.5c-0.8-0.6-1.7-1.1-2.4-1.8c-2.3-1.4-4.9-3.6-6.7-5.5c-5.2-3.7-14.4-15.3-17.3-21
		c1.2-0.6,2.7-0.7,4-0.7c0.5-0.3,3-0.2,3.7-0.1h0.1c0.9,0,2.2-0.2,3.2,0l0.5,0.2c0.7-0.4,2.3-0.2,3.2-0.2v-0.1L63.8,168.4z"/>
	
		<linearGradient id="SVGID_14_" gradientUnits="userSpaceOnUse" x1="37.1513" y1="60.5441" x2="35.5282" y2="68.6427" gradientTransform="matrix(3.0769 0 0 3.0795 4.882810e-04 2.695560e-03)">
		<stop  offset="0" style="stop-color:#B31917"/>
		<stop  offset="1" style="stop-color:#77160E"/>
	</linearGradient>
	<path class="st30" d="M112.8,184.7L112.8,184.7c0.1,0.5,0.2,0.8,0.3,1.3c1.8-0.2,3.7-0.1,5.5,0c0.6,2.1,2.3,9.9,3.8,10.9
		c0,0,0.1,0,0.1,0.1c0.2,2.7,0.2,5.3,0.3,8.1c0.6,0,1.4,0.1,1.9-0.3c0.3-0.4,0.2-0.7,0.2-1.1c0,0.3,0,0.6,0.2,0.7
		c0.1,0.3,0.5,0.6,0.7,0.8c0.5,0.7,4.5,7.3,4.5,7.7l-0.2,0.1H124c-6.9,0.4-15.5-1.1-22.3-3c-2.2-0.6-4.3-1.4-6.5-2l-0.7-0.3
		c0-3.1-0.1-6.3-0.2-9.4c-0.7-0.3-1.5-0.6-2-1.1c-0.6-0.7-0.8-1.5-0.8-2.3c0.1-1.9,1.3-4.4,2.7-5.6c0.7-0.7,1.4-0.7,2.3-0.7h0.3
		c1.4-1.5,3.8-3.1,5.8-3.5C105.4,184.8,110.9,185.1,112.8,184.7z"/>
	<path class="st8" d="M113.2,186c1.8-0.2,3.7-0.1,5.5,0c0.6,2.1,2.3,9.9,3.8,10.9c0,0,0.1,0,0.1,0.1c0.2,2.7,0.2,5.3,0.3,8.1
		c0.6,0,1.4,0.1,1.9-0.3c0.3-0.4,0.2-0.7,0.2-1.1c0,0.3,0,0.6,0.2,0.7c0.1,0.3,0.5,0.6,0.7,0.8c0.5,0.7,4.5,7.3,4.5,7.7l-0.2,0.1
		h-6.1c-0.7-2.2-3.7-5.8-4.4-8.4c0.3,0,0.7,0,0.9,0c0.3,0,0.4,0,0.5-0.2c-0.4-2.9-1.6-6.6-2.3-9.5c-0.6-0.1-1.3-0.3-1.9-0.1
		c-0.4,0.1-0.6,0.5-0.7,0.8c0,0,0,0-0.1-0.1l-0.1-0.1C115.2,194.4,113.4,187.6,113.2,186z"/>
	<path class="st7" d="M94.4,198.3c-0.7-0.3-1.5-0.6-2-1.1c-0.6-0.7-0.8-1.5-0.8-2.3c0.1-1.9,1.3-4.4,2.7-5.6
		c0.7-0.7,1.4-0.7,2.3-0.7l1.4,0.5c1,0.6,2.2,1.2,2.4,2.4c0.2,0.7,0.1,1.5-0.2,2.1c-0.2,0.4-0.2,0.7-0.3,1c-0.7,1.8-1.5,3.6-2.2,5.2
		c-0.7-0.4-1.5-1.1-2.2-1.2C95.2,198.6,94.8,198.4,94.4,198.3z"/>
	<path class="st14" d="M95.7,197c-0.6-0.2-1.2-0.4-1.6-0.7c-0.3-0.3-0.5-0.7-0.5-1c0-1.3,1-3.5,2-4.4c0.5-0.4,0.7-0.4,1.3-0.4
		c-0.6,0.8-1,1.8-1,2.8c-0.2,0.6-0.5,1.1-0.5,1.7C95.5,195.6,95.6,196.4,95.7,197z"/>
	<path class="st1" d="M96.9,190.5c0.7,0.3,1.3,0.5,1.5,1.2c0.1,0.3,0.1,0.6,0.1,0.8v0.6c0.6,0.1,1.2,0.3,1.8,0.4
		c-0.2,0.4-0.2,0.7-0.3,1c-1.4-0.5-2.8-0.8-4.3-1.2C95.9,192.2,96.3,191.4,96.9,190.5z"/>
	<path class="st2" d="M95.4,195l2.2,0.6c-0.7,0.8-0.9,1.3-2,1.5C95.6,196.4,95.5,195.6,95.4,195z"/>
	<path class="st7" d="M116.3,195.5c0.2-0.4,0.3-0.7,0.7-0.8c0.6-0.2,1.3,0,1.9,0.1c0.7,2.9,2,6.6,2.3,9.5c-0.2,0.2-0.2,0.2-0.5,0.2
		c-0.3,0-0.7,0-0.9,0c-0.1,0-0.2-0.1-0.2-0.1c-0.7-0.5-0.7-1.8-0.8-2.5l-3.3,0.1l-0.8,1.9c-0.7-0.1-1.4-0.2-2.2-0.2
		C113.6,201,115.1,198.2,116.3,195.5z"/>
	<path class="st2" d="M117.4,197.8L117.4,197.8c0.5,0.5,0.6,2,0.6,2.4c-0.3,0.2-1.1,0.1-1.5,0.1c-0.1,0-0.3,0-0.4,0
		C116.2,199.8,117.1,198.3,117.4,197.8z"/>
	<path class="st14" d="M112.8,184.7L112.8,184.7c0.1,0.5,0.2,0.8,0.3,1.3c-1.5-0.1-3-0.1-4.5-0.1c-3.5,0-6.8-0.2-9.6,2.2
		c-0.4,0.3-0.7,0.7-0.9,1l-1.4-0.5h0.3c1.4-1.5,3.8-3.1,5.8-3.5C105.4,184.8,110.9,185.1,112.8,184.7z"/>
	<path class="st14" d="M94.4,198.3c0.5,0.1,0.8,0.2,1.3,0.2c-0.7,1.5-0.1,7.3-0.3,9.5l-0.7-0.3C94.6,204.6,94.5,201.5,94.4,198.3z"
		/>
	<path class="st7" d="M102.3,191.4c0.7,0.2,1.3,0.4,2,0.5c0,2.2-0.1,4.3-0.1,6.5c0.9-1.9,2-3.7,3-5.6l2,0.5c0.1,2.2,0,4.3-0.1,6.5
		l3-5.7l2.1,0.6l-1.4,2.3c-1.1,2.1-2.3,4-3.5,6.2l-2.1-0.5c0-2.2,0-4.4,0.2-6.6c-1,2-2.1,3.8-3,5.8l-2.1-0.5
		C102.3,198,102.3,194.7,102.3,191.4z"/>
	<path class="st1" d="M63.8,168.4c1.2,0,4.2-0.4,5.2,0.1l0.1,0.5c2.2,0.2,4.3,0.1,6.5,0c0.2-0.1,0.4-0.2,0.6-0.3
		c0.1,0,0.4,0.1,0.5,0.2c-0.1,1.8-0.5,11.1,0.1,12c0.2,0.1,0.4,0.3,0.6,0.4c0.7,0.3,1.1,0.5,1.4,1.1c0.3,0.6,0.2,1.6,0,2.2
		c-0.6,1.2-1.8,1.6-2.2,3.2c-0.3,1.6,0.4,10.1-0.4,10.9l-0.5-0.5c-0.8-0.6-1.7-1.1-2.4-1.8c-2.3-1.4-4.9-3.6-6.7-5.5
		c-5.2-3.7-14.4-15.3-17.3-21c1.2-0.6,2.7-0.7,4-0.7c0.5-0.3,3-0.2,3.7-0.1H57c0.9,0,2.2-0.2,3.2,0l0.5,0.2c0.7-0.4,2.3-0.2,3.2-0.2
		v-0.1V168.4z"/>
	<path class="st1" d="M53.3,168.9c0.5-0.3,3-0.2,3.7-0.1H57c0.9,0,2.2-0.2,3.2,0l0.5,0.2c0.7-0.4,2.3-0.2,3.2-0.2
		c0.3,4.7,0.7,9.4,1.5,14c0.3,2.1,1.2,5.9,1.2,7.7c-5.2-3.7-14.4-15.3-17.3-21C50.4,169.1,51.9,169,53.3,168.9z"/>
	<path class="st1" d="M57,168.9c0.9,0,2.2-0.2,3.2,0c-0.1,0.2-0.3,0.4-0.4,0.6c-0.4,0.5-0.8,0.8-1.4,0.9c-0.5,0-1-0.2-1.4-0.6
		c-0.3-0.3-0.4-0.5-0.4-0.8L57,168.9z"/>
	<path class="st2" d="M53.3,168.9c0.5-0.3,3-0.2,3.7-0.1H57l-0.4,0.2c0,0.4,0.1,0.6,0.4,0.8c0.4,0.4,0.9,0.6,1.4,0.6
		c0.6-0.1,1-0.5,1.4-0.9c0.2-0.2,0.3-0.4,0.4-0.6l0.5,0.2c-0.2,0.7-0.7,1.3-1.1,1.7c-0.3,0.3-0.7,0.4-1.1,0.3c-1.1-0.2-2-1.1-2.5-2
		C55.1,168.8,54,168.9,53.3,168.9z"/>
	<path class="st20" d="M63.8,168.4c1.2,0,4.2-0.4,5.2,0.1l0.1,0.5c0.4,6.4,1.1,12.6,2.3,18.9c0.6,2.8,1.5,5.6,1.8,8.4
		c-2.3-1.4-4.9-3.6-6.7-5.5c0-1.9-0.9-5.7-1.2-7.7c-0.7-4.7-1.2-9.4-1.5-14v-0.1L63.8,168.4z"/>
	<path class="st21" d="M63.8,168.4c1.2,0,4.2-0.4,5.2,0.1l0.1,0.5c-1.8,0-3.6,0-5.3,0V168.4z"/>
	<path class="st8" d="M75.8,181c0.6-0.1,0.8,0.1,1.4,0.4c0.6,0.4,1.1,1,1.4,1.7c-0.1-0.8-0.7-1.4-1.3-2c0.7,0.3,1.1,0.5,1.4,1.1
		c0.3,0.6,0.2,1.6,0,2.2c-0.6,1.2-1.8,1.6-2.2,3.2c-0.3,1.6,0.4,10.1-0.4,10.9l-0.5-0.5c0.5-2.4,0.1-8.7,0-11.4
		c-0.7-0.4-1.5-1.1-2-1.8c-0.3-0.6-0.6-1.1-0.4-1.8c0.2-0.6,0.5-1,0.9-1.2c0.2-0.1,0.5-0.3,0.7-0.5C75.3,181.2,75.5,181.1,75.8,181z
		"/>
	<path class="st13" d="M75.8,181c0.6-0.1,0.8,0.1,1.4,0.4c0.6,0.4,1.1,1,1.4,1.7c-0.1,0.9-0.3,1.6-1.1,2.2c-0.4,0.3-0.7,0.3-1.1,0.4
		h-0.7l-0.1-0.6c-0.1-0.9,0-1.8,0-2.7l0.2-0.9L75.8,181z"/>
	<path class="st16" d="M75.9,181.4c0.3,0.1,0.4,0.1,0.6,0.4c0.6,1.1,0.2,2.8,0,3.9h-0.7l-0.1-0.6c-0.1-0.9,0-1.8,0-2.7L75.9,181.4z"
		/>
	<path class="st6" d="M75.8,181v0.4l-0.2,0.9c0,0.9-0.1,1.8,0,2.7l0.1,0.6c-0.1,0-0.3,0-0.4,0c-0.7-0.2-1-0.8-1.4-1.4
		c-0.1-1,0-1.6,0.4-2.5c0.2-0.1,0.5-0.3,0.7-0.5C75.3,181.2,75.5,181.1,75.8,181z"/>
	<path class="st13" d="M75.7,182.3c0,0.9-0.1,1.8,0,2.7h-0.1c-0.5-0.2-0.8-0.6-1-1.1c-0.1-0.3-0.1-0.7,0.1-0.9
		C74.9,182.5,75.3,182.4,75.7,182.3z"/>
	<path class="st14" d="M75.6,168.9c0.2-0.1,0.4-0.2,0.6-0.3c0.1,0,0.4,0.1,0.5,0.2c-0.1,1.8-0.5,11.1,0.1,12
		c0.2,0.1,0.4,0.3,0.6,0.4c0.6,0.6,1.2,1.1,1.3,2c-0.3-0.7-0.8-1.3-1.4-1.7c-0.5-0.3-0.8-0.6-1.4-0.4c-0.3,0.1-0.6,0.2-0.8,0.2
		c0.2-0.1,0.4-0.2,0.6-0.4c0.3-0.3,0.3-0.5,0.3-0.8c0.1-0.9,0.1-10.7,0-11C75.7,169,75.6,168.9,75.6,168.9z"/>
	<path class="st8" d="M103.5,168.9c2.3,0.1,4.7,0.1,7,0.3c0,1.1-0.1,3.8,0.5,4.7c0.4,1.7,0.5,3.5,0.7,5.2c0.3,1.9,0.7,3.7,1,5.6
		c-1.9,0.5-7.5,0.1-10.1,0.4l0.2-0.5h0.3C103.4,184.3,103.5,170.9,103.5,168.9z"/>
	<path class="st8" d="M79.1,168.8c1.8-0.2,3.6-0.1,5.3-0.1h9.2c2.4,0,4.9,0,7.3,0.1c0.8,0,1.9-0.1,2.7,0.1c-0.1,2-0.2,15.4-0.4,15.7
		H103c-0.1-1.1-0.2-2.2-0.2-3.3l-0.1-0.1c-0.4-0.7-0.2-5.9-0.3-7l-0.2-0.1l0.2,0.1l-0.1-0.1l-0.5,0.1c-1.9-0.8-2.9-3.7-4.5-5.1
		c-1.8,0-7.2,0.4-8.6-0.2C86,169.1,81.8,169.1,79.1,168.8z"/>
	<path class="st14" d="M79.1,168.8c1.8-0.2,3.6-0.1,5.3-0.1h9.2c2.4,0,4.9,0,7.3,0.1c0.8,0,1.9-0.1,2.7,0.1
		c-0.1,2-0.2,15.4-0.4,15.7H103c-0.1-1.1-0.2-2.2-0.2-3.3c0.4-1.2-0.1-10.2-0.1-12.3c-2.9-0.1-5.9-0.1-8.8-0.1
		c-1.7,0-3.4-0.1-5.1,0.1C86,169.1,81.8,169.1,79.1,168.8z"/>
	
		<linearGradient id="SVGID_15_" gradientUnits="userSpaceOnUse" x1="45.8748" y1="57.8504" x2="49.4248" y2="67.7218" gradientTransform="matrix(3.0769 0 0 3.0795 4.882810e-04 2.695560e-03)">
		<stop  offset="0" style="stop-color:#B51917"/>
		<stop  offset="1" style="stop-color:#78170E"/>
	</linearGradient>
	<path class="st31" d="M167.1,166.2L167.1,166.2c0.9,0.7,1.4,1.9,1.4,3c0.1,1.2-0.2,2.2-0.7,3.4l0.1,0.5c0.7,0.8,1.1,2.5,1.2,3.7
		c0.3,2.3,0.1,4.8,0.1,7.1V196c0,1.6-0.3,3.7,0.2,5.2l-0.7,0.4c-11.9,6.7-25.1,10.7-38.8,11.4l0.2-0.1c0-0.4-4.1-6.9-4.5-7.7
		c-0.2-0.3-0.5-0.6-0.7-0.8c-0.1-0.2-0.1-0.6-0.2-0.7c0,0.5,0,0.7-0.2,1.1c-0.5,0.3-1.3,0.3-1.9,0.3c-0.1-2.7-0.1-5.3-0.3-8.1
		c0,0-0.1,0-0.1-0.1c-1.5-0.9-3.3-8.7-3.8-10.9c-1.8-0.1-3.7-0.1-5.5,0c-0.1-0.4-0.2-0.7-0.3-1.2v-0.1c-0.3-1.9-0.7-3.7-1-5.6
		c-0.3-1.7-0.4-3.5-0.7-5.2v-1.1c0.9,0.8,3.4,1.7,4.6,1.6c0.2,0,0.3-0.1,0.4-0.1l0.2-0.4c1.4,0.6,19-3.1,21.4-3.7
		c2-0.5,3.8-1.2,5.8-1.6c1.1,0.8,13.2-0.3,14.2,0.4c0.1,0,0.1,0,0.2,0c0.5,0,0.5,0,0.7-0.3v-0.3c0.7-0.1,1.8-0.3,2.3,0.2
		c0.7,0,1.2-0.3,1.8-0.6l0.7-0.4h0.1c0.9-0.4,1.8-0.7,2.7-1.1h0.3L167.1,166.2z"/>
	<path class="st2" d="M167.1,166.2L167.1,166.2c0.9,0.7,1.4,1.9,1.4,3c0.1,1.2-0.2,2.2-0.7,3.4l0.1,0.5c-0.3,0.3-0.3,0.3-0.7,0.4
		h-0.1c-1,0.8-2.2,1.5-3.5,1.7c-0.5,3.4-1.5,6.4-4.3,8.5c-1.4,1.1-3.3,1.8-5.1,2.1c-3.5,0.6-7.7,0.2-11.2,0.2h-14.5
		c-3.4,0-6.6-0.1-10,0.1c-1.8-0.1-3.7-0.1-5.5,0c-0.1-0.4-0.2-0.7-0.3-1.2v-0.1c-0.3-1.9-0.7-3.7-1-5.6c-0.3-1.7-0.4-3.5-0.7-5.2
		v-1.1c0.9,0.8,3.4,1.7,4.6,1.6c0.2,0,0.3-0.1,0.4-0.1l0.2-0.4c1.4,0.6,19-3.1,21.4-3.7c2-0.5,3.8-1.2,5.8-1.6
		c1.1,0.8,13.2-0.3,14.2,0.4c0.1,0,0.1,0,0.2,0c0.5,0,0.5,0,0.7-0.3v-0.3c0.7-0.1,1.8-0.3,2.3,0.2c0.7,0,1.2-0.3,1.8-0.6l0.7-0.4
		h0.1c0.9-0.4,1.8-0.7,2.7-1.1h0.3L167.1,166.2z"/>
	
		<linearGradient id="SVGID_16_" gradientUnits="userSpaceOnUse" x1="44.5407" y1="58.5764" x2="41.7125" y2="53.2581" gradientTransform="matrix(3.0769 0 0 3.0795 4.882810e-04 2.695560e-03)">
		<stop  offset="0" style="stop-color:#C3443E"/>
		<stop  offset="1" style="stop-color:#F18B86"/>
	</linearGradient>
	<path class="st32" d="M116.4,173.9c1.4,0.6,19-3.1,21.4-3.7c2-0.5,3.8-1.2,5.8-1.6c1.1,0.8,13.2-0.3,14.2,0.4
		c0,0.3-0.1,0.6-0.1,0.7c-9.6,3.7-19.8,6-29.8,7.9c-3.6,0.7-7.2,1-10.7,1.7c0.4,1.8,0.6,3.7,1.2,5.3v0.1l0.3,1.1
		c-1.8-0.1-3.7-0.1-5.5,0c-0.1-0.4-0.2-0.7-0.3-1.2v-0.1c-0.3-1.9-0.7-3.7-1-5.6c-0.3-1.7-0.4-3.5-0.7-5.2v-1.1
		c0.9,0.8,3.4,1.7,4.6,1.6c0.2,0,0.3-0.1,0.4-0.1L116.4,173.9z"/>
	<path class="st12" d="M112.9,184.8c1.6,0,4-0.3,5.5,0.1l0.3,1.1c-1.8-0.1-3.7-0.1-5.5,0C113.1,185.6,113,185.1,112.9,184.8z"/>
	<path class="st14" d="M167.1,166.2L167.1,166.2c0.9,0.7,1.4,1.9,1.4,3c0.1,1.2-0.2,2.2-0.7,3.4l0.1,0.5c-0.3,0.3-0.3,0.3-0.7,0.4
		h-0.1c-1,0.8-2.2,1.5-3.5,1.7c-0.5,3.4-1.5,6.4-4.3,8.5c-1.4,1.1-3.3,1.8-5.1,2.1c-3.5,0.6-7.7,0.2-11.2,0.2h-14.5
		c-3.4,0-6.6-0.1-10,0.1l-0.3-1.1v-0.1c2.2-0.2,6.1,0,8.5,0.1h19c2.7,0,5.8,0.3,8.4-0.2c1.5-0.3,2.8-0.7,4-1.6
		c2.8-2,3.7-4.7,4.3-7.9c-1.4-0.4-2.6-0.8-3.7-2c-0.8-0.9-1.3-2.2-1.3-3.5l-0.1-0.1c0-0.3,0.1-0.6,0.1-0.7c0.1,0,0.1,0,0.2,0
		c0.5,0,0.5,0,0.7-0.3v-0.3c0.7-0.1,1.8-0.3,2.3,0.2c0.7,0,1.2-0.3,1.8-0.6l0.7-0.4h0.1c0.9-0.4,1.8-0.7,2.7-1.1h0.3L167.1,166.2z"
		/>
	<path class="st2" d="M158.7,168.5c0.7-0.1,1.8-0.3,2.3,0.2l-0.3,0.2c0,0,0,0,0.1,0.1c0.8,0.7,1.7-0.1,1.8,1.5
		c0.1,1.3,0.1,2.7,0.1,4.1c-1.4-0.3-2.5-0.7-3.4-2c-0.6-0.8-0.8-1.9-1-2.9c-0.2,0.1-0.3,0.2-0.5,0.3l-0.1-0.1c0-0.3,0.1-0.6,0.1-0.7
		c0.1,0,0.1,0,0.2,0c0.5,0,0.5,0,0.7-0.3L158.7,168.5z"/>
	<path class="st21" d="M158.7,168.5c0.7-0.1,1.8-0.3,2.3,0.2l-0.3,0.2c-0.6,0.1-2.1,0.2-2.4,0.7l-0.1,0.1c-0.2,0.1-0.3,0.2-0.5,0.3
		l-0.1-0.1c0-0.3,0.1-0.6,0.1-0.7c0.1,0,0.1,0,0.2,0c0.5,0,0.5,0,0.7-0.3V168.5z"/>
	<path class="st2" d="M166.4,166.4h0.3c0.8,1.5,1.4,2.8,0.9,4.5c-0.1,0.3-0.2,0.6-0.3,0.8c-0.8-0.8-3.2-2.2-3.6-3.1
		c-0.1-0.2-0.1-0.5-0.1-0.7c0-0.2,0-0.3,0-0.5C164.6,167.2,165.6,166.9,166.4,166.4z"/>
	<path class="st13" d="M167.3,173.3c-0.2-0.2-0.3-0.4-0.4-0.6c0-0.4,0-0.4,0.2-0.7c0.4,0.1,0.4,0.1,0.7,0.5l0.1,0.5
		C167.7,173.2,167.7,173.2,167.3,173.3z"/>
	<path class="st6" d="M162.7,174.3c0.4,0,0.7,0,1,0.2c0.1,0.3,0.1,0.3,0,0.6c-0.4,0-0.7,0.1-1-0.1
		C162.6,174.7,162.6,174.5,162.7,174.3z"/>
	<path class="st2" d="M163.8,170c1.3,0.7,2.2,1.6,3.3,2.7l-1,0.8c-0.7,0.5-1.5,0.7-2.2,0.9C163.7,173,163.7,171.5,163.8,170z"/>
	<path class="st7" d="M128.5,195.1h2.1c0.1,3.2,0.3,6.4,0.4,9.5h-2.1c-1.3-2-2.8-4-3.9-6.1c0,1.6-0.2,3.5,0.2,5.1
		c0,0.5,0,0.7-0.2,1.1c-0.5,0.3-1.3,0.3-1.9,0.3c-0.1-2.7-0.1-5.3-0.3-8.1c0-0.5-0.1-0.8,0.1-1.3c0.6-0.4,1.3-0.2,1.9-0.3
		c1.4,2.1,2.7,4.1,4.1,6.3C128.6,199.4,128.5,197.2,128.5,195.1z"/>
	<path class="st14" d="M168,173c0.7,0.8,1.1,2.5,1.2,3.7c0.3,2.3,0.1,4.8,0.1,7.1v12.2c0,1.6-0.3,3.7,0.2,5.2l-0.7,0.4
		c-0.9-0.9,0.4-22.7-0.7-26.4c-0.2-0.7-0.4-1.3-0.9-1.6h0.1C167.7,173.2,167.7,173.2,168,173z"/>
	<path class="st7" d="M141.7,202.9c-0.6,0.1-1,0.2-1.6,0.3l-0.4-0.3c-0.5,0-0.9,0.5-1.3,0.7c-1,0.6-2.2,0.6-3.4,0.2
		c-0.7-0.3-1.2-0.9-1.5-1.6c-0.7-1.6-1.3-4.7-0.7-6.4c0.3-0.7,0.8-1.1,1.5-1.4c1.3-0.6,2.9-0.8,4.2-0.2c0.7,0.3,1.3,0.8,1.5,1.5
		c0.1,0.4,0.1,0.5-0.1,0.7c0.1,0.3,0.2,0.4,0.4,0.6c0.1,0.1,0.1,0.1,0.2,0.2L141.7,202.9z"/>
	<path class="st1" d="M139.2,199.6c-0.1,0.6-0.2,1.2-0.5,1.7c-0.3,0.4-0.7,0.7-1.1,0.7c-0.5,0.2-1,0.1-1.5-0.1c-0.7-0.4-1-1.2-1.2-2
		c-0.3-1.1-0.6-2.6,0.1-3.7c0.3-0.4,0.7-0.7,1.1-0.7c1.9-0.4,1.5,0.8,2.3,1.3c0.1,0,0.1,0,0.2,0.1l0.1,0.8c-1,0.3-1.8,0.4-2.3,1.4
		c-0.1,0.2,0,0.3,0,0.5l0.1,0.1C137.4,200.3,138.4,199.8,139.2,199.6z"/>
	<path class="st1" d="M138.7,197c0.5-0.2,0.9-0.4,1.4-0.6c0.1,0.3,0.2,0.4,0.4,0.6c0.1,0.1,0.1,0.1,0.2,0.2
		c-0.7,0.2-1.2,0.5-1.9,0.7L138.7,197z"/>
	<path class="st7" d="M155.5,188.4c0.2,0.1,0.3,0.2,0.4,0.5c0.7,1.5,3.1,6.5,2.5,7.8c-0.4,0.9-1.2,1.7-2.2,2.1
		c-0.9,0.5-2.2,0.7-3.3,0.3c-1.8-0.7-3-4.9-3.7-6.6l-0.5-1.1c0.7-0.3,1.3-0.5,2-0.7c0.6,1.4,2.1,6.2,3.4,6.8
		c0.4,0.2,0.7,0.2,1.1,0.1c0.5-0.2,0.7-0.4,0.9-0.8c0.6-1.4-1.8-5.9-2.4-7.4L155.5,188.4z"/>
	<path class="st7" d="M146.7,191.8c0.3,0,0.3,0,0.6,0.1c0.7,2.2,2.2,5.7,2,8c0,0.6-0.2,0.8-0.6,1.2c-0.7,0.7-2.2,1.1-3.2,1
		c-0.9-0.1-1.4-0.6-2-1.3c-0.3-0.5-0.6-0.8-0.5-1.4c0.4-0.5,1-0.7,1.5-0.8c0.2,0.4,0.4,0.7,0.6,1c0.3,0.4,0.7,0.7,1.1,0.7
		c0.4,0.1,0.5-0.1,0.7-0.3c0.7-1.6-1.1-6.1-1.7-7.9L146.7,191.8z"/>
	<path class="st14" d="M149.1,132.7c4.9-0.6,8.7-0.8,12.3-4.7c-0.2,3.2-0.3,6.6-0.1,9.7c0.1,1.6,0.5,2.6,1.7,3.7
		c-0.6,0.7-0.2,7.4,0,8.6c0.2,0,0.5,0,0.7,0.2l0.6,0.2c0.5,0.1,0.8,0.4,1.1,0.8c0.2,0.3,0.3,0.5,0.4,0.7l-0.1,0.1
		c0,0.5-0.3,0.9-0.4,1.4c-0.2,0.3-0.4,0.7-0.7,0.7c-0.4,0.2-0.7,0.4-1.1,0.6l-0.6-0.1l-0.6-0.1c0.7,1.2,0.7,5.9,0.5,7.5
		c0,0.7,0,1.3,0.1,2h0.7l0.2,0.2c0,0.2,0.1,0.5,0,0.7c-0.1,0.8-0.2,1.7-0.2,2.5l-0.7,0.4c-0.6,0.3-1.1,0.6-1.8,0.6
		c-0.6-0.4-1.7-0.2-2.3-0.2v0.3c-0.3,0.3-0.4,0.3-0.7,0.3c-0.1,0-0.1,0-0.2,0c-1-0.7-13.1,0.5-14.2-0.4c-2,0.4-3.9,1.1-5.8,1.6
		c-2.3,0.6-19.9,4.2-21.4,3.7l-0.2,0.4c-0.2,0.1-0.3,0.1-0.4,0.1c-1.2,0.1-3.7-0.7-4.6-1.6c-0.2-1.3-0.1-2.6-0.4-3.9
		c0.1-2.2,0-4.4,0-6.6c0.1-3.4,0.4-6.6,0.7-10c0.3-3.5,0.8-7.3,1.7-10.7c1.6,0.7,3.6,0.6,5.2,0.6c1.6-0.3,3.4,0.3,4.7-1
		c1.6-1.7,1-6,1-8.2c5.1-0.6,8.4-0.9,12.3-4.6c0,0.8-0.1,1.6-0.1,2.4c-0.1,2.5-0.7,8.6,1.1,10.5c0.9,0.9,2.2,0.9,3.4,0.9
		c2.1,0,5.6,0.5,7.2-1.1C149.6,139.3,149.1,134.8,149.1,132.7z"/>
	<path class="st12" d="M113.1,141.5c1.6,0.7,3.6,0.6,5.2,0.6c-1,5.1-2,10.5-2.2,15.6c-0.2,1.9-0.6,9,0,10.6c0,0.4-0.1,0.8,0,1.2
		c0.1,1.4,0.3,3.1,0.1,4.4l-0.2,0.4c-0.2,0.1-0.3,0.1-0.4,0.1c-1.2,0.1-3.7-0.7-4.6-1.6c-0.2-1.3-0.1-2.6-0.4-3.9
		c0.1-2.2,0-4.4,0-6.6c0.1-3.4,0.4-6.6,0.7-10C111.7,148.7,112.3,144.9,113.1,141.5z"/>
	<path class="st12" d="M110.8,168.8l0.2-0.5c1.2-0.5,4-0.3,5.4-0.2c0,0.4-0.1,0.8,0,1.2c0.1,1.4,0.3,3.1,0.1,4.4l-0.2,0.4
		c-0.2,0.1-0.3,0.1-0.4,0.1c-1.2,0.1-3.7-0.7-4.6-1.6C110.9,171.5,111,170.1,110.8,168.8z"/>
	<path class="st7" d="M110.8,168.8l0.2-0.5c1.2-0.5,4-0.3,5.4-0.2c-0.1,0.2-0.1,0.5-0.3,0.7C115.4,169.2,111.5,169,110.8,168.8z"/>
	<path class="st9" d="M162.7,162.3c0,0.7,0,1.3,0.1,2h0.7l0.2,0.2c0,0.2,0.1,0.5,0,0.7c-0.1,0.8-0.2,1.7-0.2,2.5l-0.7,0.4
		c-0.6,0.3-1.1,0.6-1.8,0.6c-0.6-0.4-1.7-0.2-2.3-0.2v0.3c-0.3,0.3-0.4,0.3-0.7,0.3c-0.1,0-0.1,0-0.2,0c-1-0.7-13.1,0.5-14.2-0.4
		c1-0.3,2.2-0.5,3.2-0.7c1.9-1,4.1-1.5,6.1-2.2C156.3,164.7,159.6,163.6,162.7,162.3z"/>
	<path class="st9" d="M163.6,164.2l0.2,0.2c0,0.2,0.1,0.5,0,0.7c-0.1,0.8-0.2,1.7-0.2,2.5l-0.7,0.4c-0.6,0.3-1.1,0.6-1.8,0.6
		c-0.6-0.4-1.7-0.2-2.3-0.2c0-0.6,0.4-1.2,0.7-1.7c0.7-0.9,2-1.6,3.2-1.7h0.1c-0.1-0.3-0.1-0.4-0.1-0.7l0.2-0.2L163.6,164.2
		L163.6,164.2z"/>
	<path class="st21" d="M163.6,164.2l0.2,0.2c0,0.2,0.1,0.5,0,0.7c-0.1,0.8-0.2,1.7-0.2,2.5l-0.7,0.4c-0.4-0.9-0.1-2-0.2-2.9h0.1
		c-0.1-0.3-0.1-0.4-0.1-0.7l0.2-0.2L163.6,164.2L163.6,164.2z"/>
	<path class="st11" d="M163.6,164.2l0.2,0.2c0,0.2,0.1,0.5,0,0.7h-1c-0.1-0.3-0.1-0.4-0.1-0.7l0.2-0.2H163.6z"/>
	<path class="st12" d="M158,168.3c0.2-0.7,0.5-1.3,0.9-1.9c0.9-1.2,2.2-1.8,3.7-2c-0.1,0.3-0.1,0.4,0.1,0.7h-0.1
		c-1.2,0.1-2.3,0.7-3.2,1.7c-0.4,0.5-0.7,1.1-0.7,1.7v0.3c-0.3,0.3-0.4,0.3-0.7,0.3c-0.1,0-0.1,0-0.2,0c-1-0.7-13.1,0.5-14.2-0.4
		c1-0.3,2.2-0.5,3.2-0.7C148.3,168.6,156.1,168.5,158,168.3z"/>
	<path class="st6" d="M116.3,157.6c0.4,2-0.4,9.5,0.5,10.3c1.6,0.4,3.4,0.2,5.1,0.2c2.6,0.1,5.2,0.2,7.8,0.3c3.1,0.1,6.2-0.1,9.2,0
		c0.6,0,1.2,0.2,1.8,0.2c0.7,0,1.4-0.1,2,0.1v0.1c-5.2,0.1-10.5,0.2-15.7,0.3c-2.8,0-5.8-0.1-8.6,0.1c-0.7,0-1.3,0.1-1.9,0.4
		c0-0.4,0-0.8,0-1.2C115.7,166.6,116.1,159.5,116.3,157.6z"/>
	<path class="st16" d="M162.9,150.1c0.2,0,0.5,0,0.7,0.2l0.6,0.2c0.5,0.1,0.8,0.4,1.1,0.8c0.2,0.3,0.3,0.5,0.4,0.7l-0.1,0.1
		c0,0.5-0.3,0.9-0.4,1.4c-0.2,0.3-0.4,0.7-0.7,0.7c-0.4,0.2-0.7,0.4-1.1,0.6l-0.6-0.1l-0.6-0.1c-0.6-0.6-1.5-1.6-1.8-2.4
		c0.1-0.2,0.1-0.3,0.2-0.4C161.2,151.2,162,150.3,162.9,150.1L162.9,150.1z"/>
	<path class="st6" d="M162.3,154.8c-0.6-0.6-1.5-1.6-1.8-2.4c0.1-0.2,0.1-0.3,0.2-0.4c0.5-0.7,1.3-1.6,2.2-1.7
		c-0.1,0.6,0,1.3-0.4,1.8c-0.4,0.1-0.8,0.1-1.1,0.4c0.2,0.2,0.4,0.2,0.7,0.3c0.1,0,0.4,0.1,0.5,0.1c0.3,0.4,0.3,1.6,0.4,2.1
		L162.3,154.8z"/>
	<path class="st13" d="M165.6,152.2c0,0.5-0.3,0.9-0.4,1.4c-0.2,0.3-0.4,0.7-0.7,0.7c-0.4,0.2-0.7,0.4-1.1,0.6
		c0.1-0.7,0.2-1.6,0.7-2.1c0.3-0.3,0.7-0.3,1.1-0.3l0.2-0.3L165.6,152.2z"/>
	<path class="st6" d="M163.6,150.3l0.6,0.2c0.5,0.1,0.8,0.4,1.1,0.8c0.2,0.3,0.3,0.5,0.4,0.7l-0.1,0.1l-0.1,0.1
		c-0.6-0.1-1.1-0.2-1.7-0.3L163.6,150.3z"/>
	
		<linearGradient id="SVGID_17_" gradientUnits="userSpaceOnUse" x1="59.3661" y1="51.6751" x2="63.2276" y2="62.1212" gradientTransform="matrix(3.0769 0 0 3.0795 4.882810e-04 2.695560e-03)">
		<stop  offset="0" style="stop-color:#B81818"/>
		<stop  offset="1" style="stop-color:#71160C"/>
	</linearGradient>
	<path class="st33" d="M194.3,151.5c0.3,0.3,0.4,0.4,0.7,0.5c2.1,0.5,9.8,0.4,12.5,0.3c0.3,0,0.6,0,0.7,0l0.3-0.2l0.3,0.3
		c-0.8,2-1.4,3.9-2.2,5.9c-1.9,4.6-4.1,8.9-6.6,13.1c-2.2,3.6-4.7,7-7.4,10.2c-0.5,0.6-2.5,2.7-2.6,3.2l-0.5,0.4
		c-5.9,6.2-12.5,11.6-19.9,15.9c-0.5-1.5-0.2-3.6-0.2-5.2v-12.2c0-2.3,0.2-4.8-0.1-7.1c-0.1-1.1-0.5-2.8-1.2-3.7l-0.1-0.5
		c0.5-1,0.7-2.2,0.7-3.4c-0.1-1.1-0.6-2.2-1.4-3H167l-0.4,0.3h-0.3c-0.8,0.5-1.8,0.8-2.7,1.1h-0.1c0-0.8,0-1.7,0.2-2.5
		c0.1-0.2,0-0.4,0-0.7l-0.2-0.2h-0.7c-0.1-0.7-0.1-1.3-0.1-2c0.2-1.6,0.2-6.3-0.5-7.5l0.6,0.1l0.6,0.1c0.4-0.2,0.7-0.4,1.1-0.6
		c0.3-0.2,0.5-0.6,0.7-0.7c0.5-0.1,0.7-0.2,1-0.5c0.1-0.1,0.2-0.2,0.3-0.3c0.8-0.4,13.3-0.3,14.3,0.1c0.3,0.1,0.2,0.2,0.4,0.4
		c0.6-0.3,1.1-0.7,1.8-1l0.8-0.4c1.5,0.4,3.1,0.2,4.6,0.2c0.3-0.1,0.6-0.2,0.9,0h0.1c0.8,0,2.9-0.2,3.5,0.3c0,0,0,0,0.1,0.1
		C193.4,152.2,193.8,151.8,194.3,151.5z"/>
	<path class="st1" d="M194.3,151.5c0.3,0.3,0.4,0.4,0.7,0.5c2.1,0.5,9.8,0.4,12.5,0.3c0.3,0,0.6,0,0.7,0l0.3-0.2l0.3,0.3
		c-0.8,2-1.4,3.9-2.2,5.9c-1.9,4.6-4.1,8.9-6.6,13.1c-2.2,3.6-4.7,7-7.4,10.2c-0.5,0.6-2.5,2.7-2.6,3.2l-0.5,0.4
		c-1.4-3.1-0.9-7.1-0.8-10.4c-0.5-0.2-0.9-0.5-1.3-0.7c-0.4-0.4-0.8-0.8-0.7-1.5c0-1,1-1.7,1.7-2.4c0.7-0.7,0.4-2.7,0.3-3.6
		c0-1.4,0.1-2.8,0.1-4.1c0.1-1.5,0.1-5.8-0.2-7.1l0.3-0.2l0.7-0.6c-0.2-0.6-0.1-1.3-0.1-1.9c0.9,0,1.8,0,2.7,0.2l0.8-0.4
		C193.4,152.2,193.8,151.8,194.3,151.5z"/>
	<path class="st13" d="M194.3,151.5c0.3,0.3,0.4,0.4,0.7,0.5c2.1,0.5,9.8,0.4,12.5,0.3c0.3,0,0.6,0,0.7,0l-0.1,0.2
		c-3.6,0.1-7.1,0.1-10.7,0.3c-1,0.1-2.3,0-3.3,0.3c-0.5,1.2-0.5,2.7-1.2,3.8c-1,1.6-3.3,1.9-3.6,2.4c-0.2,0.4,0.2,1.3-0.1,1.7v0.1
		c-0.5,1.5-0.1,8.1-0.5,8.6c-0.3-2.4,0.1-4.9-0.4-7.3c0.1-1.5,0.1-5.8-0.2-7.1l0.3-0.2l0.7-0.6c-0.2-0.6-0.1-1.3-0.1-1.9
		c0.9,0,1.8,0,2.7,0.2l0.8-0.4C193.4,152.2,193.8,151.8,194.3,151.5z"/>
	<path class="st12" d="M189.4,152.6c0.9,0,1.8,0,2.7,0.2c-0.8,0.7-1.7,1.2-2.6,1.7C189.3,153.9,189.4,153.3,189.4,152.6z"/>
	<path class="st8" d="M188.6,162.4c0.5,2.3,0.2,4.9,0.4,7.3c0.4-0.6-0.1-7.1,0.5-8.6V161c0.6,1.6-0.5,6-0.1,8.1
		c0.4,2.4,1.9,0.1,1.8,4.3l-0.1,0.1c-0.4,0.4-1.1,0.7-1.4,1.1c-0.7,0.8-0.4,5.1-0.3,6.2c0.1,1.4,0.1,2.6,0.7,3.9l-0.5,0.4
		c-1.4-3.1-0.9-7.1-0.8-10.4c-0.5-0.2-0.9-0.5-1.3-0.7c-0.4-0.4-0.8-0.8-0.7-1.5c0-1,1-1.7,1.7-2.4c0.7-0.7,0.4-2.7,0.3-3.6
		C188.6,165.2,188.6,163.8,188.6,162.4z"/>
	<path class="st1" d="M189.5,170.5c0.5,0.3,0.7,0.5,0.9,1c0.3,0.7,0,1.5-0.4,2.2l-0.3,0.1l-0.2-0.1
		C189.3,172.9,189.5,171.6,189.5,170.5z"/>
	<path class="st1" d="M188.2,170.6l0.2,0.2c0,1,0.2,2.1,0,3.1l-0.3,0.2c-0.1,0-0.1-0.1-0.2-0.1c-0.4-0.4-0.6-1-0.6-1.6
		C187.4,171.6,187.7,171.1,188.2,170.6z"/>
	<path class="st2" d="M165.3,153.6c0.5-0.1,0.7-0.2,1-0.5c0.1-0.1,0.2-0.2,0.3-0.3c0.8-0.4,13.3-0.3,14.3,0.1
		c0.3,0.1,0.2,0.2,0.4,0.4c-1.8,1.1-3.7,2.2-5.6,3.1c-3.8,2-7.9,3.9-11.9,5.4l-0.1,0.1l-0.7,0.3c0.2-1.6,0.2-6.3-0.5-7.5l0.6,0.1
		l0.6,0.1c0.4-0.2,0.7-0.4,1.1-0.6C164.8,154.2,165.1,153.8,165.3,153.6z"/>
	<path class="st13" d="M163.4,154.9c0.4-0.2,0.7-0.4,1.1-0.6c-0.3,0.4-0.5,0.8-0.7,1.2c-0.2,2.1,0,4.2-0.1,6.3l-0.1,0.1l-0.7,0.3
		c0.2-1.6,0.2-6.3-0.5-7.5l0.6,0.1L163.4,154.9z"/>
	<path class="st9" d="M163.6,161.8c4.1-1.5,8.1-3.5,11.9-5.4c0.7,1.6,1.1,3.3,2.1,4.9c-2.8,1.5-7.4,3.8-10.4,4.9H167l-0.4,0.3h-0.3
		c-0.8,0.5-1.8,0.8-2.7,1.1h-0.1c0-0.8,0-1.7,0.2-2.5c0.1-0.2,0-0.4,0-0.7l-0.2-0.2h-0.7c-0.1-0.7-0.1-1.3-0.1-2L163.6,161.8
		L163.6,161.8z"/>
	<path class="st9" d="M163.8,165c0.7,0.2,1.4,0.5,2.2,0.8c0.2,0.2,0.4,0.4,0.5,0.6c-0.8,0.5-1.8,0.8-2.7,1.1h-0.1
		C163.6,166.8,163.7,165.8,163.8,165z"/>
	<path class="st12" d="M163.5,161.9c0.2,0.7,0.1,1.6,0.1,2.3h-0.7c-0.1-0.7-0.1-1.3-0.1-2L163.5,161.9z"/>
	<path class="st12" d="M163.8,164.4c0.9,0.2,1.7,0.4,2.4,0.8l-0.4,0.6c-0.7-0.4-1.3-0.7-2.2-0.8
		C163.9,164.8,163.9,164.6,163.8,164.4z"/>
	<path class="st21" d="M166.3,165.3c0.4,0.3,0.7,0.5,0.8,0.9l-0.4,0.3h-0.3c-0.2-0.2-0.3-0.4-0.5-0.6L166.3,165.3z"/>
	
		<linearGradient id="SVGID_18_" gradientUnits="userSpaceOnUse" x1="57.2143" y1="51.264" x2="61.2775" y2="50.1432" gradientTransform="matrix(3.0769 0 0 3.0795 4.882810e-04 2.695560e-03)">
		<stop  offset="0" style="stop-color:#CB5246"/>
		<stop  offset="1" style="stop-color:#F39993"/>
	</linearGradient>
	<path class="st34" d="M183.8,151.9c1.5,0.4,3.1,0.2,4.6,0.2c0.3-0.1,0.6-0.2,0.9,0h0.1c0.8,0,2.9-0.2,3.5,0.3c0,0,0,0,0.1,0.1
		l-0.8,0.4c-0.9-0.2-1.8-0.2-2.7-0.2c0,0.7-0.1,1.3,0.1,1.9l-0.7,0.6l-0.3,0.2c-2,1.2-4,2.3-6.1,3.5c-1,0.6-2.2,1-3.1,1.7
		c-0.6,0.3-1.1,0.6-1.6,0.8c-0.8-1.6-1.3-3.3-2.1-4.9c2-0.9,3.8-2,5.6-3.1c0.6-0.3,1.1-0.7,1.8-1L183.8,151.9z"/>
	<path class="st15" d="M183.8,151.9c1.5,0.4,3.1,0.2,4.6,0.2c0.3-0.1,0.6-0.2,0.9,0h0.1c0.8,0,2.9-0.2,3.5,0.3c0,0,0,0,0.1,0.1
		l-0.8,0.4c-0.9-0.2-1.8-0.2-2.7-0.2h-0.9c-1.1,0-4.8,0.2-5.5-0.4L183.8,151.9z"/>
	<path class="st15" d="M188.5,152.6h0.9c0,0.7-0.1,1.3,0.1,1.9l-0.7,0.6C188.3,154.4,188.4,153.4,188.5,152.6z"/>
	
		<linearGradient id="SVGID_19_" gradientUnits="userSpaceOnUse" x1="59.9532" y1="52.7153" x2="61.0658" y2="50.5238" gradientTransform="matrix(3.0769 0 0 3.0795 4.882810e-04 2.695560e-03)">
		<stop  offset="0" style="stop-color:#C61617"/>
		<stop  offset="1" style="stop-color:#E63522"/>
	</linearGradient>
	<path class="st35" d="M179.2,160.5c0.9-0.7,2.2-1.1,3.1-1.7c2.1-1.1,4-2.2,6.1-3.5c0.3,1.3,0.3,5.6,0.2,7.1c0,1.4,0,2.8-0.1,4.1
		c-0.4-0.4-0.2-2.8-0.2-3.5c-2.2,0-3.9-0.5-5.8-1.8c-0.4-0.3-1.4-1.2-1.8-1.3S179.7,160.4,179.2,160.5
		C179.2,160.5,179.2,160.5,179.2,160.5z"/>
	<path class="st8" d="M76.7,142.3l0.4-0.2c0.1-0.3,0.4-0.5,0.6-0.7c0.8-0.9,0.3-1.5,0.3-2.6c0-1.4,1.1-3,2.1-3.9
		c2.4-2.6,5.9-3.9,9.5-4c0,2.4-0.7,8.5,1.1,10.2c0.5,0.5,1.1,0.7,1.8,0.9c2.2,0.4,4.8,0.1,7.1,0.1c3.5,0,6.9,0.1,10.3,0
		c1,0,2.4-0.9,3.4-0.7l0.2,0.2c-0.8,3.4-1.4,7.2-1.7,10.7c-0.4,3.3-0.7,6.6-0.7,10c0,2.2,0.1,4.4,0,6.6c0.3,1.3,0.2,2.6,0.4,3.9v1.1
		c-0.7-0.8-0.5-3.6-0.5-4.7c-2.3-0.2-4.7-0.1-7-0.3c-0.8-0.2-1.9-0.1-2.7-0.1c-2.4,0-4.9-0.1-7.3-0.1h-9.2c-1.8,0-3.6-0.1-5.3,0.1
		c-0.8,0-1.7,0-2.5-0.1c-0.1-0.1-0.3-0.1-0.5-0.2c-0.2,0.1-0.5,0.2-0.6,0.3c-2.2,0.1-4.3,0.1-6.5,0l-0.1-0.5v-0.1
		c-0.4-3.2-0.3-6.5-0.3-9.6v-0.6c0-5.3,0.3-10.8,0.9-16.1c1.4-0.1,3.1-0.3,4.5-0.1c0.5-0.1,0.9-0.4,1.4-0.5c0.1,0.5,0.1,0.7,0.5,1
		L76.7,142.3z"/>
	<path class="st2" d="M76.5,158.5c2,0.1,4,0,6,0l10.4,0.3c2.2,0,4.6-0.1,6.6,0.3c0.8,0.2,1.4,0.4,2,1c1.1,1.3,0.8,3,1,4.6
		c0,0.3-0.1,3.1-0.2,3.3c-1.6,0.1-3.7-0.3-5.2,0.2l-20.7,0.1C76.6,165.1,76.6,161.8,76.5,158.5z"/>
	<path class="st2" d="M69.8,142c1.4-0.1,3.1-0.3,4.5-0.1c0.4,0,0.7,0,1,0.3c0.8,1,0.5,13.7,0.5,15.8c-2.2,0-4.8-0.3-7,0
		C68.8,152.7,69.1,147.3,69.8,142z"/>
	<path class="st1" d="M75.8,158.1v0.6c0,3.2,0,6.4,0,9.6c-2.2,0-4.5-0.1-6.7,0c-0.4-3.2-0.3-6.5-0.3-9.6V158
		C71.1,157.8,73.6,158.1,75.8,158.1z"/>
	<path class="st2" d="M75.8,158.1v0.6c-2.2,0.1-4.8,0.2-7,0v-0.6C71.1,157.8,73.6,158.1,75.8,158.1z"/>
	<path class="st14" d="M75.7,141.4c0.1,0.5,0.1,0.7,0.5,1l0.5-0.1c-0.4,5.3-0.3,10.9-0.2,16.2c0,3.3,0,6.5,0,9.7l20.7-0.1
		c1.4,0,2.9-0.1,4.3,0c-2.6,0.4-25.1-0.1-25.5,0.3l0.1,0.1c-0.2,0.1-0.5,0.2-0.6,0.3c-2.2,0.1-4.3,0.1-6.5,0l-0.1-0.5v-0.1
		c2.2-0.1,4.5,0,6.7,0c0-3.2,0-6.4,0-9.6v-0.6c0-2.2,0.4-14.8-0.5-15.8c-0.3-0.4-0.7-0.3-1-0.3C74.8,141.8,75.3,141.6,75.7,141.4z"
		/>
	<path class="st13" d="M103.5,168.3c1.9-0.1,3.8-0.1,5.7-0.2c0.2,0,1.1-0.1,1.2-0.2c0.1-0.1-0.2-14.5,0.9-15.7
		c-0.4,3.3-0.7,6.6-0.7,10c0,2.2,0.1,4.4,0,6.6c0.3,1.3,0.2,2.6,0.4,3.9v1.1c-0.7-0.8-0.5-3.6-0.5-4.7c-2.3-0.2-4.7-0.1-7-0.3
		c-0.8-0.2-1.9-0.1-2.7-0.1c-2.4,0-4.9-0.1-7.3-0.1h-9.2c-1.8,0-3.6-0.1-5.3,0.1c-0.8,0-1.7,0-2.5-0.1c-0.1-0.1-0.3-0.1-0.5-0.2
		l-0.1-0.1c0.3-0.4,22.8,0.1,25.5-0.3c0.7,0,0.9,0,1.4-0.5l0.2,0.4h0.2c0.5-1.4-0.1-3.9-0.1-5.5
		C103.7,164.4,103.4,166.4,103.5,168.3z"/>
	
		<linearGradient id="SVGID_20_" gradientUnits="userSpaceOnUse" x1="55.2926" y1="31.3799" x2="59.9538" y2="34.0009" gradientTransform="matrix(3.0769 0 0 3.0795 4.882810e-04 2.695560e-03)">
		<stop  offset="0" style="stop-color:#F3B2A6"/>
		<stop  offset="1" style="stop-color:#FFFDFE"/>
	</linearGradient>
	<path class="st36" d="M155.6,85.1l0.5,0.2c1.3-0.3,3.1-0.1,4.4-0.1l0.2,0.1c0.6,1,0.9,1.5,2,2.1c0.4,0,0.7,0,1,0l0.8-0.7l0.2,0.1
		c0.3-0.6,0.6-1,0.7-1.6h5.5c3.3,0,7.3-0.4,9.7,2.2c0.7,0.7,1.2,1.8,1.9,2.6c0.3,0.9,0.3,1.9,0.5,2.8c0.4-0.2,0.7-0.5,1.1-0.7h0.2
		c0.4-0.3,0.8-0.6,1.2-0.8c0.3-0.3,0.5-0.4,0.6-0.8c0.5,0.7,0.8,1.3,1.2,2c0.5-1.2,0.9-2.4,1.4-3.7l0.2,0.1c0.7-0.1,1.8-1.1,2.3-1.6
		c1.8,1.1,2.6,3.4,3.5,4c-1.8,1.3-5.3,4.3-7.2,5.2c-1.2,0.8-2.7,1.7-3.9,2.7l-1.5,0.8c-2.9,1.9-6,3.7-9.1,5.2
		c-1.7,0.9-3.5,1.8-5.2,2.7c-1.3,0.4-2.6,0.2-4,0.4c-0.4-1.1-0.3-2.4-0.2-3.7c-0.1-0.4-0.1-0.4-0.4-0.6l-0.7,0.3l-0.2,0.2
		c-1.4,0.7-6.5,3.3-7.5,3.3l-0.7,0.5l-1.3-0.1c-0.3-0.9-0.2-5.4,0-6.6c-0.8-0.6-1.5-0.9-1.9-2c-0.2-0.5-0.2-0.9,0.1-1.4
		c0.4-0.7,0.9-0.9,1.6-1.1l0.5-0.5l0.3,0.2c0.5-3.6-0.3-8,0.2-11.7C154.4,85.2,155.2,85.4,155.6,85.1z"/>
	<path class="st14" d="M155.6,85.1l0.5,0.2c1.3-0.3,3.1-0.1,4.4-0.1l0.2,0.1c0.6,1,0.9,1.5,2,2.1c0.2,1.2,0.1,3.7-0.1,4.8l0.3,0.6
		l0.8,0.8l0.1,0.2c-0.4,3.4-0.2,6.8-0.1,10.2l-0.2,0.1l-0.7,0.3l-0.2,0.2c-1.4,0.7-6.5,3.3-7.5,3.3l-0.7,0.5l-1.3-0.1
		c-0.3-0.9-0.2-5.4,0-6.6c-0.8-0.6-1.5-0.9-1.9-2c-0.2-0.5-0.2-0.9,0.1-1.4c0.4-0.7,0.9-0.9,1.6-1.1l0.5-0.5l0.3,0.2
		c0.5-3.6-0.3-8,0.2-11.7C154.4,85.2,155.2,85.4,155.6,85.1z"/>
	<path class="st9" d="M156.1,85.3c1.3-0.3,3.1-0.1,4.4-0.1l0.2,0.1c0.6,1,0.9,1.5,2,2.1c0.2,1.2,0.1,3.7-0.1,4.8
		c-1-0.8-2-2.1-2.9-3.1C158.4,87.8,157.1,86.7,156.1,85.3z"/>
	<path class="st13" d="M153.3,96.7l0.3,0.2c0.9,0.6,1.7,1,2,2.2c0.1,0.5,0.1,0.8-0.2,1.2c-0.4,0.6-1,0.9-1.6,1l-0.1,0.1h-0.1
		c-0.2,0.1-0.2,0.1-0.5,0.1c-0.8-0.6-1.5-0.9-1.9-2c-0.2-0.5-0.2-0.9,0.1-1.4c0.4-0.7,0.9-0.9,1.6-1.1L153.3,96.7z"/>
	<path class="st16" d="M153,97.7l0.4-0.1c0.3,0.2,0.4,0.4,0.5,0.7c0.2,1-0.1,2.1,0,3.1l-0.1,0.1h-0.1c-0.1,0-0.2-0.1-0.2-0.2
		C152.7,100.6,152.9,98.8,153,97.7z"/>
	<path class="st6" d="M162.8,92.7l0.8,0.8l0.1,0.2c-0.4,3.4-0.2,6.8-0.1,10.2l-0.2,0.1l-0.7,0.3C162.6,102.9,162.4,93.7,162.8,92.7z
		"/>
	<path class="st13" d="M153.6,101.6L153.6,101.6c0.5,1.7-0.3,5.1,0.6,6.5c0.2,0,0.3,0,0.5-0.1c0.2-0.1,0.4,0,0.6,0l-0.7,0.5
		l-1.3-0.1c-0.3-0.9-0.2-5.4,0-6.6C153.3,101.7,153.4,101.7,153.6,101.6z"/>
	
		<linearGradient id="SVGID_21_" gradientUnits="userSpaceOnUse" x1="55.1469" y1="26.8231" x2="58.009" y2="31.0047" gradientTransform="matrix(3.0769 0 0 3.0795 4.882810e-04 2.695560e-03)">
		<stop  offset="0" style="stop-color:#BD1818"/>
		<stop  offset="1" style="stop-color:#E63121"/>
	</linearGradient>
	<path class="st37" d="M165.5,85.2h5.5c3.3,0,7.3-0.4,9.7,2.2c0.7,0.7,1.2,1.8,1.9,2.6c0.3,0.9,0.3,1.9,0.5,2.8
		c-2.7,2.1-6,3.4-8.6,5.6c-1.9-2.1-3.4-4.6-5.3-6.5c-1.1-1.8-2.9-3.5-4.4-5.1C165.1,86.3,165.3,85.8,165.5,85.2z"/>
	
		<linearGradient id="SVGID_22_" gradientUnits="userSpaceOnUse" x1="53.5419" y1="31.6301" x2="55.3659" y2="33.0233" gradientTransform="matrix(3.0769 0 0 3.0795 4.882810e-04 2.695560e-03)">
		<stop  offset="0" style="stop-color:#E6756A"/>
		<stop  offset="1" style="stop-color:#F3B3A7"/>
	</linearGradient>
	<path class="st38" d="M164.5,86.7l0.2,0.1c1.4,1.6,3.2,3.3,4.4,5.1c2.1,1.9,3.5,4.5,5.3,6.5l-0.3,0.3c-0.3-0.2-1.2-1.5-1.5-1.9
		c-1.1,1.2-1.7,3.4-2.4,4.9c-0.9,1.9-3.4,5.6-5.7,5.8c-0.2,0-0.4,0-0.6,0c-0.2-0.8,0-1.9-0.3-2.7c-0.1-0.4-0.1-0.4-0.4-0.6l0.2-0.1
		c0-3.4-0.2-6.8,0.1-10.2l-0.1-0.2l-0.8-0.8l-0.3-0.6c0.3-1.2,0.3-3.6,0.1-4.8c0.4,0,0.7,0,1,0L164.5,86.7z"/>
	<path class="st9" d="M164.5,86.7l0.2,0.1c1.4,1.6,3.2,3.3,4.4,5.1L169,92l0.2,0.3c-1.5,0.9-2.2,2.2-2.9,3.7
		c-0.3-0.2-0.6-0.5-0.8-0.5c-0.6-0.5-1.1-1.2-1.6-1.9l-0.1-0.2l-0.8-0.8l-0.3-0.6c0.3-1.2,0.3-3.6,0.1-4.8c0.4,0,0.7,0,1,0
		L164.5,86.7z"/>
	<path class="st12" d="M162.6,87.4c0.4,0,0.7,0,1,0c0.1,1.9,0.3,4.3,0,6.3l-0.8-0.8l-0.3-0.6C162.7,91,162.8,88.6,162.6,87.4z"/>
	<path class="st14" d="M163.8,93.7c0.5,0.6,1,1.4,1.6,1.9c1.4,1.8,2.9,3.6,4.3,5.3c-2,1-3.9,2.2-6.1,3
		C163.7,100.7,163.4,97.1,163.8,93.7z"/>
	
		<linearGradient id="SVGID_23_" gradientUnits="userSpaceOnUse" x1="62.6593" y1="28.7609" x2="61.4649" y2="29.8445" gradientTransform="matrix(3.0769 0 0 3.0795 4.882810e-04 2.695560e-03)">
		<stop  offset="0" style="stop-color:#D8766B"/>
		<stop  offset="1" style="stop-color:#F3AFA2"/>
	</linearGradient>
	<path class="st39" d="M188.8,88.7l0.2,0.1c0.7-0.1,1.8-1.1,2.3-1.6c1.8,1.1,2.6,3.4,3.5,4c-1.8,1.3-5.3,4.3-7.2,5.2
		c-0.6-0.7-1-1.6-1.6-2.3l0.1-0.1c0.6,0.3,0.9,0.8,1.4,1.2c0.3,0.3,0.4,0.5,0.7,0.4c0.1-0.6,1-0.6,1.4-0.9c0.2-0.2,0.4-0.6,0.5-0.7
		l0.4-0.1c-0.1-0.7-1.6-2.2-2.2-2.9c-0.4,0.1-0.7,0.8-0.9,1.3c-0.6,0.1-1.2-0.3-1.8-0.6c-0.5,0.1-0.7,0.4-1,0.7l-0.5-0.2
		c0.4-0.3,0.8-0.6,1.2-0.8c0.3-0.3,0.5-0.4,0.6-0.8c0.5,0.7,0.8,1.3,1.2,2C187.7,91.1,188.2,89.9,188.8,88.7z"/>
	<path class="st8" d="M184.5,141.3c1.4,0.7,2.6,0.7,4.1,0.7c-0.1,1.5-0.1,3.1-0.1,4.6c0,0.7-0.1,1.5,0,2.2l-0.1,0.2c0.1,1,0.1,2,0,3
		c-1.5,0-3.1,0.2-4.6-0.2l-0.8,0.4c-0.7,0.3-1.1,0.7-1.8,1c-0.1-0.3-0.1-0.3-0.4-0.4c-1-0.4-13.5-0.5-14.3-0.1
		c-0.1,0.1-0.2,0.2-0.3,0.3c-0.4,0.3-0.6,0.4-1,0.5c0.1-0.5,0.4-0.9,0.4-1.4l0.1-0.1c-0.1-0.3-0.3-0.6-0.4-0.7
		c-0.3-0.5-0.7-0.7-1.1-0.8l-0.6-0.2c-0.2-0.1-0.4-0.1-0.7-0.2c-0.2-1.2-0.6-7.9,0-8.6c0.3,0.1,0.7,0.3,0.9,0.4
		c3.3,0.4,6.7,0.2,10,0.2c2.5,0,5.2,0.2,7.7-0.1C182.6,141.9,183.5,141.7,184.5,141.3z"/>
	<path class="st14" d="M165.6,152.1c1.2-0.2,2.5,0,3.7,0.1c3.3,0.1,6.6,0,9.9-0.1c1,0,2.2,0,3.2-0.1c0.4,0,0.7-0.3,1.1-0.5
		c0.7-0.4,4.3-2.4,4.6-2.9c0.3-0.5,0.1-1.4,0.3-2v-0.1c0,0.7-0.1,1.5,0,2.2l-0.1,0.2c0.1,1,0.1,2,0,3c-1.5,0-3.1,0.2-4.6-0.2
		l-0.8,0.4c-0.7,0.3-1.1,0.7-1.8,1c-0.1-0.3-0.1-0.3-0.4-0.4c-1-0.4-13.5-0.5-14.3-0.1c-0.1,0.1-0.2,0.2-0.3,0.3
		c-0.4,0.3-0.6,0.4-1,0.5C165.3,153.1,165.6,152.6,165.6,152.1L165.6,152.1z"/>
	<path class="st21" d="M183.8,151.9c1.4-1,3-2.1,4.6-2.8c0.1,1,0.1,2,0,3C186.9,152.1,185.3,152.3,183.8,151.9z"/>
	<path class="st13" d="M162.9,141.5c0.3,0.1,0.7,0.3,0.9,0.4c-0.4,1.2-0.4,6.9,0,8.2l0.3,0.4l-0.6-0.2c-0.2-0.1-0.4-0.1-0.7-0.2
		C162.7,148.9,162.4,142.2,162.9,141.5z"/>
	<path class="st8" d="M86.5,99.2l0.6,0.3l1.4,0.8l0.7,0.2c1.2,1,2.7,1.9,4.1,2.8c2.3,1.5,4.7,3.1,6.9,4.8h-0.1
		c-2.9,0.8-8.2-1.5-10,1.8c-0.5,0.8-0.5,1.6-0.6,2.5c-1.7-1.9-4-3.7-6.6-3.9c-0.1,0-0.2,0-0.3,0l-0.7-0.2c0.1-1.6,0-3.2,0-4.9
		l0.3-0.4l0.3-0.4c0.2-0.6,0.5-1.1,0.5-1.7c0.3-0.2,0.7-0.4,0.9-0.7l0.5-0.9l0.1-0.1C85,99.3,85.8,99.3,86.5,99.2z"/>
	<path class="st14" d="M86.5,99.2l0.6,0.3l1.4,0.8c-0.7,0.3-4,0.2-4.8,0l0.5-0.9l0.1-0.1C85,99.3,85.8,99.3,86.5,99.2z"/>
	<path class="st13" d="M82.3,102.6c0.6,1,0.2,4.5,0.2,5.8l-0.7-0.2c0.1-1.6,0-3.2,0-4.9l0.3-0.4L82.3,102.6z"/>
	
		<linearGradient id="SVGID_24_" gradientUnits="userSpaceOnUse" x1="63.2016" y1="47.5536" x2="68.802" y2="47.3012" gradientTransform="matrix(3.0769 0 0 3.0795 4.882810e-04 2.695560e-03)">
		<stop  offset="0" style="stop-color:#D11317"/>
		<stop  offset="1" style="stop-color:#6E150C"/>
	</linearGradient>
	<path class="st40" d="M206.8,142.1c1.1-0.3,2.7-0.6,3.4-1.6c0.3-0.5,0.5-0.8,0.8-1.3c0.4,0,0.7,0.4,0.9,0.6h0.1
		c-0.5,1.1-0.6,2.4-0.8,3.6c-0.5,2.3-1.3,6.8-2.3,8.9l-0.3-0.3l-0.3,0.2c-0.3,0-0.6,0-0.7,0c-2.6,0-10.4,0.2-12.5-0.3
		c-0.4-0.1-0.5-0.2-0.7-0.5l5.2-3.7C201.9,146,204.2,143.9,206.8,142.1z"/>
	
		<linearGradient id="SVGID_25_" gradientUnits="userSpaceOnUse" x1="62.9699" y1="32.5193" x2="60.074" y2="31.4759" gradientTransform="matrix(3.0769 0 0 3.0795 4.882810e-04 2.695560e-03)">
		<stop  offset="0" style="stop-color:#E41F14"/>
		<stop  offset="1" style="stop-color:#EB5D38"/>
	</linearGradient>
	<path class="st41" d="M194.9,91.2l0.9-0.7c0,0,0,0.1-0.1,0.1c-0.6,1-3.3,2.1-3.4,3.1c0,0.2,0.1,0.7,0.1,0.8
		c0.9,4.2,1.9,6.4-0.6,10.4c-0.6,0.9-1.4,2-1.8,3c1.5,0,3-0.1,4.5,0.1c-2.3,0.1-5,0.3-7.3,0.1c-1.8-0.5-1.7-2-2.5-2.3l-0.2-0.1
		c-1.2-2.1-0.4-4.5-0.8-6.6c1.1-1,2.6-1.9,3.9-2.7C189.4,95.4,193.1,92.5,194.9,91.2z"/>
	<path class="st6" d="M183.7,99.1c0.6,2.2-0.4,4.6,0.8,6.6l0.2,0.1c0.9,0.4,0.7,1.9,2.5,2.3c-1.1,0.1-1.9,0.7-2.9,0.8
		c-0.6,0.1-1.7-0.7-2.3-0.8c-2-0.2-5.4,0-7.5,0c-1.2,0-5.8,0.4-6.6-0.2c1.7-1,3.5-1.9,5.2-2.7c3.1-1.7,6.2-3.4,9.1-5.2L183.7,99.1z"
		/>
	<path class="st28" d="M183.7,99.1c0.6,2.2-0.4,4.6,0.8,6.6l-0.5,0.3c-0.9-1.9-0.9-5.2-1.4-5.9c-0.1-0.2-0.3-0.2-0.6-0.3L183.7,99.1
		z"/>
	<path class="st16" d="M184.6,105.7l0.2,0.1c0,0,0,0.1,0.1,0.1c0.3,0.7,1,1.3,1.1,2l-0.1,0.2c-0.7-0.4-1.5-1.2-1.8-2V106
		L184.6,105.7z"/>
	
		<linearGradient id="SVGID_26_" gradientUnits="userSpaceOnUse" x1="65.6495" y1="26.6315" x2="62.7211" y2="28.9549" gradientTransform="matrix(3.0769 0 0 3.0795 4.882810e-04 2.695560e-03)">
		<stop  offset="0" style="stop-color:#A2463F"/>
		<stop  offset="1" style="stop-color:#D76D63"/>
	</linearGradient>
	<path class="st42" d="M200.6,79.7c0.9,1.4,2.2,3.3,2.7,4.9c-1,0.7-7.2,5.4-7.6,6l-0.9,0.7c-0.9-0.7-1.7-2.9-3.5-4l0.4-0.5
		c1.1,0.2,2.2,0.3,3.4,0.4c-0.4-0.7-0.7-1.4-1.3-2.1C196.3,83.7,198.5,81.5,200.6,79.7z"/>
	
		<linearGradient id="SVGID_27_" gradientUnits="userSpaceOnUse" x1="64.0329" y1="47.1017" x2="61.8521" y2="49.4046" gradientTransform="matrix(3.0769 0 0 3.0795 4.882810e-04 2.695560e-03)">
		<stop  offset="0" style="stop-color:#C5574D"/>
		<stop  offset="1" style="stop-color:#F29089"/>
	</linearGradient>
	<path class="st43" d="M196,143.7l-0.1,0.5c0.4,0.3,0.8,0.6,1.2,0.8c0.6,0.6,1.4,2.2,1.9,2.6c0.1,0.1,0.4,0.1,0.5,0.1l-5.2,3.7
		c-0.5,0.3-0.9,0.7-1.4,0.9c0,0,0,0-0.1-0.1c-0.6-0.5-2.6-0.3-3.5-0.3h-0.1c-0.3-0.1-0.6-0.1-0.9,0c0-1,0-2,0-3l0.1-0.2l0.7-0.5
		c1-0.8,2.2-1.4,3.4-2.2C193.7,145.6,195,144.5,196,143.7z"/>
	<path class="st15" d="M189.2,148.4c0.3,1.1,0.2,2.5,0.2,3.7h-0.1c-0.3-0.1-0.6-0.1-0.9,0c0-1,0-2,0-3l0.1-0.2L189.2,148.4z"/>
	<path class="st8" d="M199.5,141c2,1.7,4.9,0.7,7.2,1.1c-2.5,1.8-4.8,3.8-7.3,5.6c-0.1,0-0.4-0.1-0.5-0.1c-0.5-0.4-1.3-2-1.9-2.6
		c-0.4-0.4-0.8-0.6-1.2-0.8l0.1-0.5C196.8,142.9,198.5,141.8,199.5,141z"/>
	
		<linearGradient id="SVGID_28_" gradientUnits="userSpaceOnUse" x1="51.6513" y1="34.4283" x2="52.1756" y2="36.0821" gradientTransform="matrix(3.0769 0 0 3.0795 4.882810e-04 2.695560e-03)">
		<stop  offset="0" style="stop-color:#F3998D"/>
		<stop  offset="1" style="stop-color:#F7BBB4"/>
	</linearGradient>
	<path class="st44" d="M163.4,104.1c0.3,0.2,0.3,0.2,0.4,0.6c-0.1,1.2-0.2,2.4,0.2,3.7l-1,0.5c-0.1,0.1-0.2,0.1-0.2,0.2
		c-0.8,0.7-1.2,1.8-1.8,2.7c-2.6-1.6-3.4-2.4-6.6-3.3l0.7-0.5c1.1,0,6.2-2.7,7.5-3.3l0.2-0.2L163.4,104.1z"/>
	<path class="st15" d="M163.4,104.1c0.3,0.2,0.3,0.2,0.4,0.6c-0.1,1.2-0.2,2.4,0.2,3.7l-1,0.5c-0.7-0.9-0.3-3-0.3-4.1l0.2-0.2
		L163.4,104.1z"/>
	<path class="st13" d="M87.5,130.1c0.6,0.1,1.4,0,1.9,0.2v0.7c-3.6,0.1-7,1.4-9.5,4c-0.9,0.9-2.1,2.5-2.1,3.9c0,1.1,0.6,1.7-0.3,2.6
		c-0.2,0.2-0.5,0.4-0.6,0.7l-0.4,0.2l-0.5,0.1c-0.4-0.3-0.4-0.6-0.5-1c0.6-0.7,1-1.3,1.3-2.2c0.1-0.7,0.2-1.5,0.4-2.2
		c0.7-1.8,2.7-3.4,4.1-4.7C83.5,131.5,85.6,131.1,87.5,130.1z"/>
	<path class="st6" d="M77,139.3c0.3,0.3,0.5,0.5,0.5,0.9c-0.1,0.7-0.7,1.3-0.8,2.2l-0.5,0.1c-0.4-0.3-0.4-0.6-0.5-1
		C76.3,140.8,76.8,140.1,77,139.3z"/>
	<path class="st2" d="M77.2,132.7c1.3-0.2,2.9-0.6,4.2-0.3c-1.3,1.3-3.4,2.9-4.1,4.7c0-0.1,0-0.3-0.1-0.4
		C77.1,135.4,77.2,134,77.2,132.7z"/>
	<path class="st13" d="M188.6,142c0.4,0.1,0.5,0,0.7,0.3c0.2,1.4-0.3,4.4,0.4,5.3c0.2,0,0.2,0,0.3-0.1c0.4-0.5,1.7-1.4,2.3-1.4
		c0.1,0,0.1,0,0.2,0c-1,0.8-2.2,1.4-3.4,2.2l-0.7,0.5c-0.1-0.7,0-1.5,0-2.2C188.5,145,188.5,143.5,188.6,142z"/>
	<path class="st14" d="M87.5,130.1l2-2c-0.1,0.7-0.2,1.5-0.1,2.2C88.9,130,88.1,130.2,87.5,130.1z"/>
	<path class="st7" d="M186.2,111c2.3-0.2,4.8-0.1,7.1-0.1c2.2,0,4.5-0.1,6.6,0.1c2.2,0.2,4.5,1,6,2.8c1.5,1.9,2,4.7,1.7,7
		c-0.3,2.4-1.3,4.4-3.3,6c0.7,2.4,1.5,5,2.2,7.4c0.5,1.6,1.1,3.2,1.4,4.9c-1.9,0.2-5,0.4-6.6-0.1c-1.1-2.8-2.3-6.9-2.9-9.8
		c-1.7,0.3-3.4,0.4-5.1,0.7c0,1.9,0.4,7.7-0.3,9.1c-1.1,0.6-5.4,0.2-6.7,0.2c-0.2-2.2-0.1-4.3-0.2-6.4v-9v-7.4
		C186.1,114.5,186,112.7,186.2,111z"/>
	<path class="st1" d="M193.3,116.9c1.7,0.2,4.6-0.5,6.1,0.5c0.6,0.4,0.9,0.9,1,1.6c0.2,0.9,0,2.1-0.6,2.8c-0.7,1-1.6,1.1-2.7,1.3
		c-2.3,0.3-4.7,0.6-6.9,0.9c1-0.7,2.2-1.4,3.1-2.2L193.3,116.9z"/>
	<path class="st7" d="M219.3,110.9c2.7-0.3,6.5,0,8.9,1.2c1.6,0.8,2.6,2.2,3.2,3.9c0.3,0.8,0.7,2.5,0.2,3.4c-1.3,0.8-5,0.8-6.6,0.9
		c-0.4-0.9-0.4-2.1-1.1-2.8c-0.7-0.7-1.7-0.9-2.7-0.9c-0.9,0-2,0.2-2.6,0.8c-0.4,0.5-0.6,1-0.5,1.6c0,0.6,0.3,1.4,0.7,1.7
		c1.8,1.2,8.4,0.4,11.6,3.2c1.6,1.5,2.2,3.7,2.3,5.8c0.1,2.4-0.3,5.1-2,6.9c-2.2,2.3-5.5,2.5-8.4,2.7c-2.9,0-6.4-0.1-8.7-1.9
		c-2-1.5-2.6-3.9-2.9-6.3c-0.1-0.6-0.1-0.9,0.3-1.4c1.7-0.7,5-0.8,6.8-0.9c0.2,1.4,0.4,2.9,1.5,3.9c0.7,0.7,1.9,0.9,2.9,0.8
		s2.2-0.5,2.8-1.2c0.5-0.6,0.7-1.3,0.7-2c-0.1-0.8-0.6-1.5-1.3-1.9c-0.8-0.4-1.7-0.5-2.6-0.6c-2.6-0.3-5.9-0.4-8.1-2.1
		c-1.6-1.3-2.4-3.3-2.6-5.3c-0.3-2.3,0.1-5,1.6-6.8C214.2,111.4,216.8,111,219.3,110.9z"/>
	<path class="st7" d="M114.2,111c2.2-0.2,4.5-0.1,6.6-0.1c2.5,0,5.2-0.2,7.7,0.2c1.3,0.2,2.7,0.6,3.8,1.4c1.8,1.3,2.8,3.3,3.1,5.4
		c0.5,2.7,0.2,6-1.5,8.2c-1.9,2.5-5.2,3-8.1,3.4l-4.6,0.6c0,3,0.1,5.9-0.1,8.9c-2.3,0.2-4.7,0.1-7,0c-0.2-1.8-0.1-3.6-0.1-5.2v-8.3
		C114.1,121,113.9,115.5,114.2,111z"/>
	<path class="st1" d="M121.4,116.9c1.6,0.1,4.8-0.5,6.1,0.5c0.6,0.4,0.9,1.1,1,1.8c0.2,1,0.2,2.3-0.5,3.3s-1.5,1-2.5,1.2
		c-2.2,0.3-4.6,0.5-6.8,0.9c0.9-0.7,1.9-1.2,2.8-1.8C121.4,120.8,121.4,118.8,121.4,116.9z"/>
	<path class="st7" d="M67.3,111c2.5-0.2,5.1-0.1,7.6-0.1c2.3,0,4.8-0.2,7,0.3c1.3,0.2,2.6,0.7,3.7,1.4c1.8,1.3,2.7,3.4,3,5.5
		c0.4,2.7,0.1,6-1.6,8.1c-2,2.5-5.2,2.9-8.2,3.3c-1.4,0.3-2.9,0.4-4.4,0.6c0,2.9,0.2,6-0.2,8.9c-2.3,0.1-4.7,0.1-6.9,0
		c-0.3-1.8-0.1-3.7-0.1-5.5v-9.6v-8.1C67.2,114.2,67,112.5,67.3,111z"/>
	<path class="st1" d="M74.4,116.9c1.5,0.1,5-0.4,6.1,0.5c0.6,0.4,0.9,1.3,1,2c0.2,1,0.2,2.2-0.5,3.1c-0.7,1-1.8,1-2.9,1.2
		c-2.2,0.2-4.2,0.5-6.4,0.7c0.8-0.7,1.8-1.2,2.6-1.8V116.9z"/>
	<path class="st7" d="M139.2,111c2.3-0.2,4.8-0.1,7.2-0.1c2.4,0,5-0.2,7.3,0.2c1.4,0.2,2.8,0.7,3.9,1.5c1.8,1.3,2.6,3.4,3,5.5
		c0.4,2.6,0.1,5.9-1.6,8.1c-1.9,2.5-5.2,2.9-8.1,3.3l-4.5,0.6c0,2.9,0.1,6-0.1,8.9c-2.3,0.1-4.7,0.1-7,0c-0.4-4-0.1-9.1-0.1-13.1
		C139.1,121,138.9,115.9,139.2,111z"/>
	<path class="st1" d="M146.4,116.9c1.6,0.1,4.7-0.4,6,0.4c0.6,0.4,0.8,1.1,1,1.7c0.3,1,0.3,2.4-0.4,3.3c-0.7,1-1.6,1.1-2.7,1.3
		c-2.2,0.3-4.6,0.5-6.7,0.8c0.9-0.7,1.9-1.3,2.8-1.9C146.4,120.8,146.4,118.8,146.4,116.9z"/>
	<path class="st7" d="M92.3,111c3-0.2,6.1-0.1,9.2-0.1c3,0,6.1-0.1,9.1,0.1c0.2,1.9,0.2,3.8,0,5.8c-1.4,0.2-2.9,0.1-4.4,0.1h-6.7
		c0,1.1,0,2.2,0,3.3c-1,0.7-2,1.4-2.9,2.2c2.1-0.4,4.2-0.5,6.3-0.7c2.3-0.2,4.8-0.6,7.2-0.6c0.2,1.9,0.2,3.8,0,5.8
		c-2.5,0.4-5.2,0.6-7.8,0.7c-0.9,0.1-1.9,0.2-2.8,0.2v5.2c3.7-0.1,7.5-0.2,11.1,0.1c0.3,1.8,0.3,4,0,5.8c-2.7,0.4-5.7,0.1-8.5,0.1
		c-3.2,0-6.6,0.3-9.7-0.1c-0.2-1.5-0.1-3.1-0.1-4.6v-8.1v-9.9C92.1,114.8,91.9,112.7,92.3,111z"/>
	<path class="st7" d="M164.2,111c3.1-0.2,6.3-0.1,9.4-0.1c2.9,0,5.9-0.1,8.9,0.1c0.1,1.5,0.5,4.3-0.3,5.7c-1.3,0.6-9,0.2-10.9,0.2
		c0,1.1,0,2.2,0,3.3c-1,0.7-2,1.4-3,2.2c2.1-0.4,4.3-0.5,6.4-0.7c2.3-0.2,4.7-0.6,7-0.6c0.2,1.4,0.5,4.4-0.1,5.6
		c-1,0.7-5.9,0.7-7.4,0.9l-3,0.2c0,1.8,0,3.5,0,5.2c3.4-0.1,7.9-0.3,11.1,0.1c0.1,2,0.1,3.8,0,5.8c-2.8,0.4-5.9,0.1-8.7,0.1
		c-3.2,0-6.6,0.3-9.6-0.1c-0.2-2-0.1-4-0.1-6v-10.8C164.1,120,163.9,113,164.2,111z"/>
	<path class="st8" d="M205.4,109.8c2.1,0,4.1-0.1,6.2,0.1l0.3,0.4c-0.6,0.3-1.3,0.3-1.9,0.4C208.5,110.7,206.5,110.8,205.4,109.8z"
		/>
</g>
<rect x="8" y="34.8" class="st0" width="234" height="180.4"/>
</svg>
