<?xml version="1.0" encoding="utf-8"?>
<!-- Generator: Adobe Illustrator 25.1.0, SVG Export Plug-In . SVG Version: 6.00 Build 0)  -->
<svg version="1.1" id="Layer_1" xmlns="http://www.w3.org/2000/svg" xmlns:xlink="http://www.w3.org/1999/xlink" x="0px" y="0px"
	 viewBox="0 0 250 250" style="enable-background:new 0 0 250 250;" xml:space="preserve">
<style type="text/css">
	.st0{fill:#FFFFFF;}
	.st1{fill:#0091D7;}
	.st2{fill:#004B9C;}
	.st3{fill:#EB6900;}
	.st4{fill:none;}
</style>
<g id="Layer_1_1_">
	<g>
		<path class="st0" d="M82.4,72.2l12.9-3l5.9-0.7l7.1-4.5l5.4-4.7l4.9-4.2l3.5-4.7l5.4-4.7l4.2-4.7l4.9-3.7l7.2-2.7h7.6l9.1,2.7
			l6.7,4.2l5.4,6.2l3.5,8.4l0.5,9.1l-2.4,8.9l7.4,4.5v73.8l-4.5,16l-7.1,10.8l-11.4,9.1l-14.7,11.3L125,214l-13.5-10.6l-16.2-13.3
			l-15.1-11.6l-10.4-18.3V75.7L82.4,72.2z"/>
		<path class="st1" d="M88.7,178.3v-26.5c-5.5,0.5-10.2,0.9-13.7,1.3C76.6,163.4,81.5,172.6,88.7,178.3 M103.2,189.2l14.4,10.9
			v-49.9c-4.8,0.1-9.7,0.2-14.4,0.5V189.2z M132.1,200.3l14.4-10.9v-38.7c-4.8-0.2-9.7-0.4-14.4-0.5V200.3z M160.9,178.5
			c7.4-5.7,12.5-15,13.9-25.4c-3.5-0.4-8.2-0.9-13.9-1.4V178.5z M74.7,81.1v8.6l13.6-12.1C83.6,78.6,79.1,79.7,74.7,81.1
			 M113.4,74.4c-0.9,0.1-1.8,0.2-2.8,0.2l-7.5,3.2l-14.4,6.4l-14.1,6.3v4.9c0.2,0,0.3,0,0.5,0.1c1,0.1,2,0.3,3,0.6l10.7-6.6
			l14.4-8.9L113.4,74.4L113.4,74.4z M104.2,97.4c0.3,0,0.6,0,0.9,0l12.5-7.4l11.5-6.8L117.6,88l-14.4,5.9L95.5,97c0.1,0,0.2,0,0.3,0
			c1.6,0.1,3.1,0.8,4.1,1.9c0.9-0.8,2-1.3,3.2-1.4C103.6,97.5,103.9,97.4,104.2,97.4 M129.2,83.4L129.2,83.4L129.2,83.4L129.2,83.4
			 M172.2,80.2c-0.9,1.3-2,2.4-3.2,3.5c-2.4,2.3-5.2,4-8.1,5.3c-2.6,1.2-5.4,1.9-8.2,2.2h0.1l-6.3,1l-14.4,2.4l-13.7,2.3l13.7-6.8
			l3.8-1.9c-0.1-0.1-0.2-0.1-0.2-0.2l-3.5,1.3l-14.4,5.2l-8.9,3.2c3,0.1,6,0.2,8.9,0.2c4.9,0.1,9.7,0.1,14.4,0c0.1,0,0.2,0,0.3,0
			c1.3,0,2.6,0.4,3.6,1.1c1.6-0.8,3.3-1.3,5.2-1.3c1.8-0.1,3.5-0.2,5.3-0.2c4.6-0.2,9.1-0.4,13.7-0.7c0.2,0,0.5,0,0.8,0
			c2.5,0,4.9,0.7,6.8,2.2c2-1.9,4.4-3.1,7.2-3.3c0.2,0,0.2,0,0.4,0V81.1C174.3,80.8,173.3,80.5,172.2,80.2"/>
		<path class="st2" d="M210.8,140.3c-1.3-0.7-4.5-2.8-4.5-6.5c0-0.2,0-0.4,0-0.6v-6.9c0-3.5-0.8-6.5-2.6-8.9
			c1.6-1.2,2.6-3.1,2.6-5.1v-2.6c0.2-3.5,3.2-5.5,4.5-6.2c2.2-1.2,3.5-3.5,3.4-6c-0.1-1.7-0.9-3.4-2.4-4.5c-1.4-1.1-3.1-1.6-4.9-1.3
			c-4.3,0.7-8.7,1.3-13,1.9c-0.9,0.1-1.7,0.2-2.6,0.3c-1.3,0.2-2.4,0.3-3.7,0.4c-1.2,0.2-2.3,0.2-3.5,0.4V74.8l-1.8-0.6
			c-1.9-0.7-3.8-1.3-5.7-2c0.4-1.1,0.7-2.2,1-3.3c2.1-9.1-0.2-19.1-6.9-26.5c-10.9-11.9-29.4-12.6-41.2-1.6L105,62.7l-4.4,3.9
			c-10.3,1.3-22.3,3.5-33,7.5l-1.8,0.6v19.8c-1.2-0.2-2.3-0.2-3.5-0.4c-1.3-0.2-2.4-0.3-3.7-0.4l-2.5-0.3c-4.4-0.5-8.8-1.2-13.1-1.9
			c-1.7-0.2-3.5,0.2-4.9,1.3s-2.2,2.7-2.4,4.6c-0.2,2.4,1.3,4.8,3.5,6c1.3,0.7,4.5,2.8,4.5,6.5l-0.1,24.6c-0.4,3.4-3.5,5.3-4.5,5.8
			c-2.2,1.2-3.6,3.6-3.4,6.1c0.2,1.7,1,3.4,2.4,4.5c0.3,0.2,0.7,0.5,1.1,0.7l0,0l0.2,0.1l1.1,0.4l23.3,8.2l3.8,1.3
			c1.4,5.1,3.6,9.9,6.5,14.1c0.9,1.2,1.7,2.4,2.7,3.5c2,2.4,4.3,4.6,6.8,6.5l5,3.8l2,1.6l12.6,9.3l2,1.5l19.8,14.9l19.8-14.9
			l1.7-1.3l10.9-8.2l3.5-2.7l5.3-4c2.3-1.7,4.3-3.6,6.2-5.8c1.1-1.2,2-2.5,3-3.8c3-4.3,5.3-9.2,6.8-14.5l3.8-1.3l23.3-8.2l1.1-0.4
			l0.2-0.1l0,0c0.4-0.2,0.8-0.5,1.2-0.7c1.4-1.1,2.2-2.7,2.4-4.6C214.3,143.8,212.9,141.5,210.8,140.3 M173.4,52.8
			c1.9,4.9,2.3,10.2,1.1,15.2c-0.2,1.1-0.5,2.2-0.9,3.3c-0.5,1.3-1,2.4-1.6,3.6c-0.2,0.3-0.4,0.7-0.6,1c-0.1,0.2-0.2,0.2-0.2,0.4
			c-0.5,0.7-0.9,1.4-1.5,2.1c-0.1,0-0.2,0-0.5,0.1c-0.7,0.1-1.9,0.2-3.5,0c-1.2-0.2-2.4-0.4-3.5-0.8c-0.2-0.1-0.5-0.2-0.6-0.2h-0.1
			l0.1-0.1c0.5-0.5,1-0.9,1.5-1.5c0.7-0.8,1.4-1.5,2-2.4c0.9-1.2,1.9-2.4,2.7-3.6c0,0,0.1-0.1,0.1-0.2c0.6-1,1.3-2,1.8-3.1
			c1.6-3.2,3.1-7.1,3.6-11.6C173.3,54.4,173.4,53.6,173.4,52.8 M126.1,73.9c-0.4-0.9-0.8-1.6-1.1-2.5l0,0c-0.1-0.1-0.1-0.2-0.2-0.3
			c0-0.1,0.1-0.2,0.2-0.2l0,0c0.1-0.1,0.2-0.2,0.3-0.4c0.2-0.2,0.3-0.4,0.5-0.6c0.4-0.5,0.8-0.9,1.2-1.3c0.5-0.6,1.2-1.2,1.7-1.7
			c0.2-0.2,0.5-0.5,0.8-0.7c0.1,0.8,0.2,1.6,0.2,2.3c0.1,0.5,0.2,0.9,0.3,1.4c0.1,0.2,0.1,0.5,0.2,0.8c0.3,1.2,0.8,2.4,1.3,3.5
			c0.2,0.4,0.3,0.8,0.5,1.1c1.4,2.7,3.5,5.4,6,7.9c1.8,1.8,3.7,3.3,5.2,4.4c-0.9-0.2-1.6-0.5-2.4-0.7c-3.2-1.1-6.1-2.8-8.7-5.1
			c-0.6-0.5-1.3-1.2-1.9-1.8C128.5,78,127.2,76,126.1,73.9 M129.2,83.4L129.2,83.4l-11.6,6.8l-12.5,7.4c-0.3,0-0.6,0-0.9,0
			s-0.7,0-1,0.1c-1.2,0.2-2.3,0.6-3.2,1.4c-1.1-1.1-2.5-1.8-4.1-1.9c-0.1,0-0.2,0-0.3,0l7.7-3.1l14.4-5.9L129.2,83.4L129.2,83.4
			L129.2,83.4 M139.2,81.9c-2-2-4.2-4.6-5.7-7.7c-0.5-1.1-1-2.2-1.4-3.4l-0.1-0.2c-0.1-0.3-0.2-0.5-0.2-0.9c-0.2-0.5-0.2-1-0.3-1.5
			c-0.2-0.9-0.2-1.8-0.3-2.7c0-0.2,0-0.2,0-0.4v-0.1c0-0.1,0-0.2,0-0.2c0,0,0,0,0-0.1l0,0l0,0c1.7-1.3,3.5-2.2,5.3-2.8
			c0.5-0.2,1.2-0.4,1.7-0.5c0,0.2,0.1,0.4,0.1,0.6c0.2,0.9,0.4,2,0.9,3.5c0.3,1,0.7,2.1,1.2,3.4c0.1,0.2,0.2,0.5,0.2,0.6
			c0.2,0.5,0.5,1.1,0.8,1.7c0.1,0.1,0.1,0.2,0.2,0.3c0.5,1.2,1.3,2.3,2,3.3c0.9,1.4,2,2.7,3.1,3.9c0.5,0.5,1,1.1,1.6,1.6
			c2.8,2.7,6.1,4.7,9.9,6.2c-0.4,0.2-0.8,0.2-1.2,0.3c-0.2,0.1-0.5,0.1-0.7,0.2c-2.8,0.8-5.8,1.1-8.8,0.9c-0.2-0.1-0.4-0.2-0.8-0.5
			C145.1,86.8,142.2,84.9,139.2,81.9 M149.2,79.3c-1-0.9-1.9-2-2.7-3c-0.3-0.4-0.5-0.7-0.9-1.1c-0.9-1.2-1.6-2.4-2.3-3.7
			c-0.1-0.2-0.2-0.4-0.3-0.5c-0.2-0.4-0.4-0.9-0.6-1.3c-0.1-0.1-0.1-0.2-0.2-0.3c-0.5-1.2-0.9-2.4-1.3-3.6c-0.5-1.4-0.7-2.6-0.9-3.5
			c-0.1-0.4-0.2-0.7-0.2-1.1c2.6-0.3,5.2,0,7.8,0.9c0.1,0.3,0.2,0.6,0.3,0.9c0.4,1.3,0.8,2.4,1.3,3.6c0.6,1.6,1.4,3.1,2.2,4.4
			c0.3,0.5,0.5,0.9,0.9,1.3c0.1,0.1,0.2,0.2,0.2,0.2c0.3,0.4,0.5,0.8,0.9,1.1c0.9,1.2,2,2.1,3.1,3c1.3,1,2.7,1.8,4.3,2.4
			c0,0,0,0,0.1,0c2.7,1,5.3,1.3,7,1.2c-0.3,0.4-0.7,0.7-1.1,1c-1.1,1-2.4,2-3.6,2.7c-0.8,0.5-1.5,0.9-2.4,1.3
			c-0.2,0.1-0.5,0.2-0.7,0.4C156.1,84.4,152.3,82.2,149.2,79.3 M168.4,44.7c1.2,1.3,2.3,2.7,3.2,4.2c0.9,7-1.2,13-3.6,17.4
			c-0.5,0.9-1,1.8-1.6,2.6c-0.1,0.2-0.2,0.3-0.3,0.5c-1.2,1.7-2.4,3.3-3.8,4.8c-0.4,0.5-0.9,0.9-1.3,1.3c-0.5,0.5-1,0.9-1.3,1.2
			c-0.1,0-0.1-0.1-0.2-0.1c-1.6-0.9-3.2-2.1-4.6-3.6c-0.1-0.2-0.2-0.2-0.3-0.4c-0.1-0.1-0.2-0.2-0.2-0.2c-0.2-0.2-0.4-0.5-0.5-0.7
			c0,0,0.1-0.1,0.2-0.2c0.6-0.6,2-1.9,3.5-3.7c0.7-0.9,1.5-2,2.4-3.1c0.5-0.8,1.1-1.6,1.6-2.5c2-3.5,3.4-7,4-10.4
			c0.5-3.1,0.4-6-0.2-8.9c-0.1-0.5-0.2-1-0.3-1.5C166.1,42.5,167.3,43.5,168.4,44.7 M162.5,40c0,0.1,0,0.1,0,0.2
			c1.5,3.6,1.9,7.5,1.3,11.5c-0.5,3.2-1.8,6.5-3.8,9.8c-0.6,1.1-1.3,2.1-2,3.1c-0.8,1-1.6,2-2.4,3.1c-1.1,1.3-2,2.2-2.6,2.7
			c0-0.1-0.1-0.1-0.1-0.2c-0.6-1-1.2-2-1.6-3.2c-0.5-1.1-0.9-2.4-1.3-3.6c-0.2-0.5-0.3-1-0.5-1.6c0.9-0.9,3.2-3.5,5.2-7.3
			c2.7-5.4,3.5-11,2.1-16.2c-0.1-0.3-0.2-0.5-0.2-0.9C158.6,37.9,160.6,38.8,162.5,40 M134.8,40.8c3.2-2.2,6.8-3.5,10.4-4.1
			c0.8-0.2,1.5-0.2,2.3-0.2l0,0c0.8-0.1,1.5-0.1,2.3-0.1c0.2,0,0.3,0,0.5,0c0.6,0,1.2,0.1,1.8,0.1c0.8,0.1,1.6,0.2,2.4,0.4
			c0.6,1.7,1,3.5,1.1,5.3c-0.3-0.1-0.6-0.2-0.9-0.2c-6-1.8-11-2-14.9-1.4l0,0c-1.6,0.2-3.1,0.5-4.3,0.9c-0.9,0.2-1.6,0.5-2.5,0.9
			C133.5,41.6,134.2,41.1,134.8,40.8 M124,56.3c0.9-3.6,2.4-7.1,4.9-10l0,0c0,0,0.1-0.1,0.3-0.2l0,0c0.7-0.5,3-2,6.7-3.1
			c0.5-0.2,1.2-0.3,1.8-0.4l0,0c0.5-0.1,1-0.2,1.6-0.3h0.1c0.5-0.1,1.1-0.2,1.6-0.2c0.1,0,0.2,0,0.2,0c0.5-0.1,1.2-0.1,1.8-0.1
			c0.1,0,0.2,0,0.2,0c0.6,0,1.3,0,2,0c0,0,0,0,0.1,0c0.7,0,1.4,0.1,2.1,0.2c0.1,0,0.2,0,0.3,0c0.7,0.1,1.4,0.2,2.2,0.3
			c0.9,0.2,1.8,0.4,2.7,0.6c0.2,0,0.2,0.1,0.4,0.1c0.9,0.2,1.6,0.5,2.6,0.8c-0.1,2.3-0.5,4.6-1.4,7c-0.2-0.1-0.4-0.1-0.5-0.2
			c-4.2-1.4-8.3-2-12.4-1.7c-3.1,0.2-6,1-8.9,2.2l0,0c-0.5,0.2-0.9,0.4-1.3,0.5c-0.8,0.4-1.5,0.8-2.2,1.2s-1.4,0.9-2,1.3
			c-0.9,0.6-1.9,1.3-2.7,2.1C124,56.4,124,56.4,124,56.3 M123.5,59.3c0.4-0.4,1.9-2,4.4-3.7c0.2-0.2,0.5-0.3,0.8-0.5
			c0.9-0.5,1.9-1.2,3-1.7c0.1,0,0.1-0.1,0.2-0.1c3.1-1.5,6.4-2.4,9.7-2.6c3.9-0.3,8,0.3,12.1,1.7c-0.2,0.4-0.3,0.8-0.5,1.1
			c-1.8,3.5-4,6-4.8,6.8c-0.1,0-0.2-0.1-0.2-0.1c-5.1-1.6-10.4-1.2-15.1,1.4c-0.7,0.4-1.3,0.8-2,1.2c0,0,0,0-0.1,0
			c-0.2,0.2-0.4,0.2-0.6,0.4c-0.1,0.1-0.2,0.1-0.2,0.2c-0.6,0.5-1.3,0.9-1.8,1.4l0,0c-1.1,0.9-2.1,2-3.1,3.1l-0.1,0.1
			c-0.1,0.2-0.2,0.2-0.3,0.4c-0.1,0.2-0.2,0.3-0.4,0.5c0-0.1-0.1-0.2-0.1-0.3v-0.1c0,0,0,0,0-0.1c-0.3-1.2-0.5-2.4-0.6-3.6
			c-0.2-1.1-0.2-2.3-0.2-3.5C123.3,60.9,123.4,60.1,123.5,59.3 M71.2,78.7c1-0.3,2-0.7,3.1-1c2-0.6,4-1.2,6-1.6
			c2.8-0.7,5.7-1.3,8.5-1.9c1.4-0.3,2.9-0.5,4.4-0.8l-4.4,3.9l-0.5,0.5l-13.5,12l-0.4,0.3l-1.5,1.3l1.5-0.7l0.4-0.2l14.1-6.3
			l14.4-6.4l7.5-3.3l7-3.1l1.7-0.8l-1.7,1.1l-4.2,2.6l-10.2,6.3l-14.4,8.9L78,96.2c-0.9-0.3-1.9-0.5-3-0.6c-0.2,0-0.3,0-0.5-0.1
			c-0.2,0-0.2,0-0.4,0c-1-0.1-2-0.2-3.1-0.3L71.2,78.7L71.2,78.7z M175.4,164.5c-2.4,6-6,11.3-10.7,15.3c-0.5,0.5-1.2,0.9-1.7,1.4
			l-2,1.5l-12.6,9.5l-1.8,1.3l-10.8,8.3l-3.6,2.7l-4.2,3.2l-2.8,2.1l-2.8-2.1l-4.6-3.5l-3.4-2.5l-11.1-8.4l-3.3-2.5l-11.1-8.4
			l-1.7-1.3c-0.9-0.6-1.7-1.4-2.5-2.1c-4.5-4.1-7.9-9.3-10.2-15.3c-1.3-3.2-2.1-6.8-2.6-10.3c0.8-0.1,1.6-0.2,2.6-0.3
			c0.2,0,0.5-0.1,0.8-0.1c3.5-0.4,8.1-0.9,13.7-1.3v26.5c0.1,0.1,0.2,0.2,0.3,0.3l14.1,10.7V151c4.8-0.2,9.7-0.5,14.4-0.5v49.9
			l7.4,5.6l7.1-5.3v-50.2c4.8,0.1,9.7,0.2,14.4,0.5v38.7l14.4-10.8l0.1-0.1V152c5.7,0.5,10.4,1,13.9,1.4c0.2,0,0.4,0.1,0.5,0.1
			c1.1,0.2,2,0.2,2.9,0.3C177.7,157.4,176.8,161.1,175.4,164.5 M178.8,95.2c-1.1,0.1-2.2,0.2-3.3,0.3h-0.1c-0.2,0-0.2,0-0.4,0
			c-2.8,0.2-5.3,1.4-7.2,3.3c-1.9-1.4-4.2-2.2-6.8-2.2c-0.2,0-0.5,0-0.8,0c-4.6,0.3-9.1,0.5-13.7,0.7c-1.8,0.1-3.6,0.2-5.3,0.2
			c-1.9,0.1-3.6,0.5-5.2,1.3c-1-0.7-2.3-1.1-3.6-1.1c-0.1,0-0.2,0-0.3,0c-4.8,0.1-9.7,0.1-14.4,0c-3-0.1-6-0.1-8.9-0.2l8.9-3.2
			l14.4-5.2l3.5-1.3c0.1,0.1,0.2,0.1,0.2,0.2l-3.8,1.9l-13.7,6.8l13.7-2.3l14.4-2.4l6.3-1h-0.1c2.8-0.3,5.6-1.1,8.2-2.2
			c2.9-1.3,5.7-3,8.1-5.3c1.2-1.1,2.3-2.3,3.2-3.5c0.8-0.9,1.4-2,2-3c0.4,0.1,0.7,0.2,1.1,0.3c1.1,0.3,2.2,0.7,3.3,1.1L178.8,95.2
			L178.8,95.2z M137.3,43L137.3,43L137.3,43 M131.6,53.6L131.6,53.6L131.6,53.6"/>
		<path class="st0" d="M110.5,158.4h2.6v14.5h-2.6V158.4z M121.4,173.3c-1.9,0-3.8-0.2-5.3-0.4v-14.4h6c3.1,0,4.1,2.1,4.1,4
			c0,1.2-0.5,2.4-1.7,3.1c1.3,0.5,2.2,2,2.2,3.4C126.6,171.8,124.5,173.3,121.4,173.3 M118.6,164.7h3.1c1.3,0,1.9-1,1.9-2.3
			c0-1.4-0.7-2.4-2-2.4h-3.1V164.7L118.6,164.7z M118.6,171.5c0.8,0.2,1.8,0.2,2.7,0.2c1.8,0,2.7-1.2,2.7-2.8c0-1.6-1.1-2.5-2.4-2.5
			h-3.1L118.6,171.5L118.6,171.5z M131.3,172.9h-2.6v-14.5h2.6v6.3l4.6-6.3h3l-5.1,6.8c0.9,0.4,1.6,1.1,2.3,2l3.5,5.7h-2.8l-3-4.9
			c-0.6-1-1.3-1.6-2.4-1.6h-0.1L131.3,172.9L131.3,172.9z"/>
		<path class="st3" d="M80.1,101.4c-0.2-0.2-0.4-0.4-0.6-0.6c-0.9-0.8-1.9-1.3-3.1-1.4c-0.1,0-0.1,0-0.2,0s-0.2,0-0.2,0
			c-0.4,0-0.8-0.1-1.2-0.2c-0.6-0.1-1.3-0.2-1.8-0.2c-1.8-0.2-3.6-0.4-5.5-0.5c-1.2-0.2-2.3-0.2-3.5-0.4c-1.5-0.2-3-0.3-4.5-0.5
			c-0.9-0.1-1.6-0.2-2.5-0.3c-4.4-0.5-8.9-1.2-13.3-1.9c0,0.1,7.9,3.7,7.9,12.1c0,8.2,0,16.6-0.1,24.8c-0.6,7.7-7.8,11.1-7.8,11.1
			l4.2,1.8l7.1,3l9.4,3.9l3.7,1.6l2,0.8l-2-1.4l-3.8-2.6l-4.3-3l-4.4-3.1l-3.3-2.3c2.4-0.3,4.9-0.6,7.3-0.9c1.1-0.2,2.3-0.3,3.4-0.4
			l0.1-13.4c0.3,0,0.7,0,1-0.1c1.2-0.1,2.3-0.1,3.5-0.2c0.9,0,1.8-0.1,2.7-0.1c0,4.3,0,8.6-0.1,13c0.9-0.1,1.9-0.2,2.8-0.2
			c1-0.1,2-0.2,3.1-0.3c0.2,0,0.2,0,0.4,0c1-0.1,2-0.2,3.1-0.3c0.6-0.1,1.3-0.2,2-0.2c0-11,0.1-22,0.1-33
			C81.5,104.2,81,102.6,80.1,101.4L80.1,101.4 M70.1,122c-0.9,0-1.8,0-2.7,0c-1.2,0-2.3,0-3.5,0.1c-0.3,0-0.7,0-1,0l0.1-18.8
			c0.3,0,0.6,0.1,0.9,0.1c1.2,0.1,2.3,0.2,3.5,0.3c0.9,0.1,1.8,0.2,2.7,0.2C70.1,110,70.1,116,70.1,122 M104.8,133.1
			c-2.6,0.1-5.2,0.2-7.8,0.2c0-8.3,0.1-16.6,0.1-25c0-2.5,0-4.9,0-7.5c-2.3-0.2-4.6-0.3-6.8-0.5c-1.3-0.1-2.5-0.2-3.7-0.2
			c-0.3,0-0.6,0-0.9-0.1v3.5l-0.1,34.9c0.7-0.1,1.3-0.1,2-0.2c0.9-0.1,1.8-0.1,2.7-0.2c4.8-0.3,9.7-0.5,14.4-0.8
			c0.9,0,2-0.1,2.9-0.2c0.7,0,1.4-0.1,2.1-0.1c0-1.5,0-3,0-4.5c-0.7,0-1.4,0.1-2.1,0.1C106.8,133,105.8,133.1,104.8,133.1
			 M132.6,101.7c-4.4,0.1-8.9,0.1-13.3,0c-4.6-0.1-9.1-0.2-13.7-0.3c0,1.5,0,3,0,4.5c2.8,0.1,5.7,0.2,8.6,0.2v0.2v1.6l-0.1,20.4v4.6
			v4.6c0.7,0,1.4,0,2.1,0c1,0,2,0,3.1,0c2,0,4.1-0.1,6.2-0.1c0-9.9,0.1-19.8,0.1-29.7v-1.3c2,0,3.9,0,5.8,0c0.8,0,1.6,0,2.4,0
			c0.2,0,0.2,0,0.4,0c0-1.5,0-3,0-4.4c-0.2,0-0.2,0-0.4,0C133.4,101.7,133,101.7,132.6,101.7 M166.1,102L166.1,102
			c-0.9-0.9-2.1-1.3-3.5-1.3c-0.2,0-0.2,0-0.4,0c-4.7,0.3-9.3,0.5-14.1,0.7c-1.7,0.1-3.5,0.2-5.2,0.2c-1,0-1.9,0.3-2.6,0.7
			c-0.5,0.2-0.9,0.5-1.3,0.9c-0.9,1-1.4,2.4-1.5,3.9c0,0.1,0,0.1,0,0.2v4.1c0,6.8,0,13.6-0.1,20.3c0,1.6,0.5,3.1,1.4,4.1
			s2.3,1.6,3.9,1.6c1.7,0.1,3.5,0.2,5.3,0.2c4.6,0.2,9.3,0.4,14,0.7c0.2,0,0.3,0,0.5,0c1.3,0,2.5-0.5,3.4-1.3l0,0
			c0.9-1,1.5-2.4,1.5-4.2l0.1-26.5c0-0.1,0-0.1,0-0.2C167.5,104.3,167.1,102.9,166.1,102 M156.1,133.3c-2.4-0.1-4.8-0.2-7.1-0.2
			l0.1-26.4v-0.9c2.4-0.1,4.8-0.2,7.1-0.2v0.9L156.1,133.3 M201.6,131.3L201.6,131.3c0-2.5,0-5.1,0-7.6c0-2.2-0.5-3.9-1.4-5.2
			s-2.3-1.9-3.8-1.9c-2.4,0-4.6,0.1-7,0.1c-1.2,0-2.3,0-3.5,0.1c-0.9,0-1.8,0-2.7,0.1c0-4.3,0-8.6,0.1-13c0.9-0.1,1.8-0.2,2.7-0.2
			c1.2-0.1,2.3-0.2,3.5-0.3c0.3,0,0.7-0.1,1-0.1v7.1c3.8-0.2,7.5-0.4,11.3-0.6c0-0.9,0-1.9,0-2.7c0.3-8.1,7.9-11.6,7.9-11.6
			c-4.4,0.7-8.8,1.3-13.2,1.9c-0.9,0.1-1.7,0.2-2.6,0.3c-1.5,0.2-3,0.3-4.5,0.5c-1.2,0.2-2.3,0.2-3.5,0.4c-0.9,0.1-1.8,0.2-2.7,0.3
			c-0.9,0.1-1.9,0.2-2.8,0.3c-1.1,0.1-2.1,0.2-3.2,0.3h-0.1h-0.1c-1.5,0.2-2.7,0.9-3.6,2c-0.1,0.1-0.2,0.2-0.2,0.2
			c-0.9,1.2-1.3,2.5-1.3,4.2v0.1v9.7c0,1.9,0.5,3.3,1.4,4.5c0.2,0.2,0.4,0.4,0.5,0.5c0.9,0.7,1.9,1.1,3.1,1.2h0.1c0,0,0,0,0.1,0
			c1.1,0,2.2,0,3.3,0.1c1.8,0,3.6,0.1,5.5,0.1c1.2,0,2.3,0,3.5,0.1c0.3,0,0.6,0,0.9,0l-0.1,13.4c-0.3,0-0.6-0.1-0.9-0.1
			c-1.2-0.1-2.3-0.2-3.5-0.3c-0.9-0.1-1.8-0.2-2.7-0.2c0-2.3,0-4.6,0-6.9c-0.9-0.1-1.8-0.1-2.7-0.1c-1.1-0.1-2.2-0.1-3.3-0.2h-0.1
			c-1-0.1-2.1-0.1-3.1-0.2c-0.7,0-1.4-0.1-2-0.1c0,1.7,0,3.5,0,5.3c0,1.7,0.5,3.1,1.3,4.3c0.1,0.1,0.1,0.2,0.2,0.3
			c0.9,1.2,2.2,1.8,3.8,2h0.1c1.1,0.1,2.2,0.2,3.3,0.3c1.8,0.2,3.6,0.4,5.5,0.5c1.2,0.2,2.3,0.2,3.5,0.4c1.5,0.2,3,0.3,4.5,0.5
			c0.9,0.1,1.6,0.2,2.5,0.3c1.6,0.2,3.2,0.4,4.8,0.6l-3.3,2.3l-4.4,3.1l-4.3,3l-3.8,2.6l-2,1.4l2-0.8l3.7-1.6l9.4-3.9l7.1-3l4.2-1.8
			l0,0l0,0C209.5,143.4,201.6,139.8,201.6,131.3"/>
	</g>
</g>
<g id="레이어_1">
	<rect x="8" y="8" class="st4" width="234" height="234"/>
</g>
<rect x="8" y="34.8" class="st4" width="234" height="180.4"/>
</svg>
