<?xml version="1.0" encoding="utf-8"?>
<!-- Generator: Adobe Illustrator 25.1.0, SVG Export Plug-In . SVG Version: 6.00 Build 0)  -->
<svg version="1.1" xmlns="http://www.w3.org/2000/svg" xmlns:xlink="http://www.w3.org/1999/xlink" x="0px" y="0px"
	 viewBox="0 0 250 250" style="enable-background:new 0 0 250 250;" xml:space="preserve">
<style type="text/css">
	.st0{fill:#FFFFFF;}
	.st1{fill:#4DB847;}
	.st2{fill:#092D74;}
	.st3{fill:none;}
</style>
<g id="Layer_1">
	<g>
		<path class="st0" d="M47.6,49.4c13.6,1.5,46.5-1.6,77.6-24.6c8.1,6.6,32.9,24.3,77.5,25c-5.2,10-6.7,23.3-7.4,33.5l46.7,0.2
			l-13.9,17.7l-7.7-0.1l-0.1,0.9l8.1,1.3V121l-7.9-1.1v1.2l9.7,2.3l0.3,19c-12.4-4.4-24-7.1-35.5-9.8c5,22.7-1.2,35.4-9.6,46.2
			c-13.2,14.6-35,24.8-50.7,36.6l-9.8,9.7l-7.1-7.2c-11.1-9.9-28.6-18.7-41.5-28.3c-0.5-2.1-29.9-15.9-21.2-57
			c-12.1,2.2-23.7,6.2-35.6,9.6l0.1-43.9L8,83.4l46.7,0.1L47.6,49.4z"/>
		<g>
			<path class="st1" d="M124.9,43.5c21.1,14.1,47.4,17.2,61.7,18.2c0,0-0.8,6.5-1,19h4.8c1-19.3,4.8-28.4,4.8-28.4
				c-29.3,0.3-61.7-16.4-70.2-23.9c-8.5,7.5-40.8,24.2-70.4,24.2c0,0,3.8,9.1,4.8,28.4H64c-0.2-12.8-1-19-1-19
				C77.5,60.4,103.6,57.5,124.9,43.5z"/>
			<path class="st2" d="M183.3,134.6c-19.3-4.2-38.8-6.5-58.4-6.5c-19.5,0-39.1,2.1-58.4,6.5c-4.3,24.5,9.3,33.6,34.1,48.7
				c3.3,2.1,19.8,9.4,24.3,13c4.5-3.6,21.1-10.9,24.3-13C174,168.2,187.6,159,183.3,134.6z"/>
			<path class="st2" d="M124.9,222.8c25.6-27.6,76.2-34.6,65.4-86.4c-1.3-0.3-2.8-0.8-4-1c8.5,42.7-38.6,52.1-61.7,71.8
				C101.6,187.4,54.7,178,63,135.4c-1.3,0.3-2.8,0.5-4,1C48.7,188.2,99.1,195.2,124.9,222.8z"/>
			<path class="st0" d="M124.9,138.2c-17,0-30.8,14.3-30.8,32c0,3.4,0.5,6.8,1.5,9.9c0.3,0,0.5,0.3,0.5,0.3
				c-0.8-2.7-1.2-5.5-1.3-8.3v-1c1.3-5.2,3.5-8.9,6.5-11.2c0.5-0.3,0.5,0,0.5,0.8c-0.8,4.7-1,15.1,6.5,24.2
				c-6.5-10.9-5.5-21.1-4.5-25.2c0.3-0.8,0.8-1.6,1.8-1.8c1.5-0.5,3-0.8,4.8-1c1.5,0,1.5,1.3,1.5,1.6c0,6.2,1,23.2,12,32.8
				c-9.3-10.4-10-27.1-9.8-32.8c0-0.8,0.5-1.6,1.8-1.6c4,0.3,7.8,1.6,9.5,2.3c-0.2,5.2,1.5,20,10.8,27.3c-3-3.1-5-7-6.3-10.9v-0.3
				c-0.3-1,0.5-1.8,1.5-2.1c5.5-1.8,15.8-6.8,19.8-15.6c2,3.6,3.3,7.5,3.5,11.7c-0.8,2.3-3.3,6.5-13.3,12c2.5-0.8,10.3-3.6,13.5-8.8
				v0.3c0,2.9-0.5,5.7-1,8.3c0.3,0,0.5-0.3,0.5-0.3c1-3.1,1.5-6.2,1.5-9.6C156,152.5,142,138.2,124.9,138.2z M124.9,141.1
				c6.3,0,12,2.1,16.8,5.2c-0.5,1-1.3,1.8-2,2.9c-0.8,0.5-1.8,0.5-2.3,0c-4.5-2.9-17.3-7.5-28.8-2.9
				C113.1,142.9,118.9,141.1,124.9,141.1z M95.6,165.8c1.3-7,5-13,10-17.4c12-5.7,25.1-1,30.1,2.1c0.5,0.3,0.8,1.6,0,2.1
				c-3.3,2.3-7,3.9-8.8,4.4C122.2,154.6,102.4,149.4,95.6,165.8z M130.4,170.8c-0.8,0.3-1.8-0.5-1.8-1c-0.8-4.7-0.8-8.9-0.8-10.9
				c2.8-1.3,11.5-4.7,14.8-11.7c3,2.3,5.5,4.9,7.5,8.1C146,164.5,135.9,169.2,130.4,170.8L130.4,170.8z"/>
			<path class="st2" d="M155.5,70.5v-2.1h-8.3v10.4h8.3v-2.1h-6v-2.1h5.3v-2.1h-5.3v-2.1L155.5,70.5z"/>
			<path class="st2" d="M175.8,78.9h-6c-1.5,0-2.3-0.8-2.3-2.3v-5.7c0-1.6,0.8-2.3,2.3-2.3h6v2.1h-5.3c-0.5,0-0.5,0.3-0.5,0.5v5.2
				c0,0.5,0.3,0.5,0.5,0.5h5.5v2.1L175.8,78.9z M164.5,76l1.5-1.8l-1.5-1.3l-1.5,1.6l-3-3.1v-0.8h1.3v1.3h2v-1.6
				c0-1.6-1-2.1-1.8-2.1h-2.3c-1,0-1.8,0.5-1.8,1.8v1c0,0.5,0.3,1.3,0.8,1.8l-1,0.8c-0.5,0.5-0.8,1.1-0.8,1.8v1c0,1.8,1,2.1,2,2.1
				h2.3c0.7,0,1.2-0.3,1.5-0.8l0.5-0.5l1.3,1.3h2.8L164.5,76z M161.8,76l-0.5,0.5l-0.2,0.3h-1.5c-0.3,0-0.3,0-0.3-0.3v-1
				c0-0.3,0-0.3,0.2-0.5l1-0.8L161.8,76z M80.8,72.4H76v-3.9h-2v10.4h2v-4.4h4.8v4.4h2.3V68.5h-2.3L80.8,72.4z M128.7,69
				c-0.5,0.5-0.5,1.3-0.5,1.6v8.3h2.3v-3.4h4.8v3.4h2.3V68.5h-7C129.9,68.5,129.2,68.5,128.7,69z M131.2,70.5h4v3.1h-4.8v-2.9
				C130.7,70.5,130.9,70.5,131.2,70.5L131.2,70.5z M113.1,68.5h-7v10.4h2.3v-8.3h4.8v8.3h2.3v-8.3c0-0.5,0-1-0.5-1.6
				C114.4,68.5,113.9,68.5,113.1,68.5z M102.4,76.8h-4.8v-8.3h-2.3v10.4h7c0.8,0,1.3,0,1.8-0.5c0.5-0.5,0.5-1.3,0.5-1.6v-8.3h-2.3
				C102.3,71.2,102.4,74.1,102.4,76.8z M126.4,70.5c0,0,0-1-0.5-1.6c-0.5-0.5-1-0.5-1.8-0.5h-7v10.4h6.8c0.7,0,1.6,0,2.1-0.6
				c0.5-0.5,0.4-1.5,0.4-1.5L126.4,70.5z M124.2,76.8h-4.8v-6.2h4.8v0.5V76.8z M89.1,72.9l-2.8-4.4h-2.5l4,6.5v3.9h2.5V75l4-6.5
				h-2.5L89.1,72.9z M142,68.5h-2.3v10.4h2.3V68.5z M80.6,87.7H68.3c0,0,3.3,1.8,3.3,6.2v31c5.3-0.8,10-1.6,15.3-2.1v-6
				c-2.3,0.3-4.3,0.5-6.5,0.8V87.7H80.6z M99.1,87.7H86.8c0,0,3.3,1.6,3.3,5.7v28.9c5.3-0.5,10.3-1,15.5-1.3v-5.7
				c-2.3,0-4.3,0.3-6.5,0.3L99.1,87.7z M57,94.5v33.3c3-0.5,6-1.3,9-1.8V87.7H53.7C53.7,87.7,57,89.6,57,94.5L57,94.5z M42.5,105.9
				c-3,0.3-6.5,0.8-9.8,1V87.7h-15l6.3,8.3v40.6c3-1,6-1.8,9-2.9v-19c3-0.5,6.5-1,9.8-1.6v18c3-0.8,6-1.6,9-2.1V87.7h-9.3
				L42.5,105.9z M124.2,87.7h-18.8c0,0,3.5,1.6,3.5,5.7v6.2c0,2.1,1,3.1,3.3,4.2c3.5,1.6,6,2.6,9.3,4.2c0.8,0.5,1,1,1,1.3v4.7
				c0,0.8-0.5,1-1.5,1.3h-1.8c-1,0-1.5-0.5-1.5-1v-3.6c-2.8,0-5.8,0-8.5,0.3v5.7c0,3.1,1.8,4.7,5.8,4.4c3.3,0,6.3-0.3,9.5-0.3
				c4,0,6.5-1.6,6.5-4.7v-7.5c0-1.3-0.5-3.1-3.3-4.7c-3.1-1.5-6.3-2.9-9.5-4.2c-0.8-0.3-1-0.5-1-1v-3.9c0-0.8,0.5-1.3,1.5-1.3h2.5
				c1,0,1.5,0.5,1.5,1v2.6h8v-4.7C130.4,89.6,128.2,87.7,124.2,87.7z"/>
			<path class="st2" d="M130.4,87.7c0,0,3.5,1.6,3.5,5.5h4.8v27.6c3,0.3,6,0.3,9,0.5V93.5h4.8v-5.7H130.4z M179.8,87.7
				c0,0,3.5,1.8,3.5,6.5c1.5,0,3.3,0,4.8,0.3c0.3,10.9,0,32.5,0,32.5c3,0.5,6,1.3,9,1.8V94.8c1.5,0,3.3,0,4.8,0.3v-7.3H179.8z
				 M173.5,87.7H154c0,0,3.5,1.6,3.5,5.7v28.9c2.8,0.3,5.8,0.5,8.5,1v-12.8c2,0.3,3.8,0.3,5.8,0.5v13c3,0.5,5.8,0.8,8.5,1.3V92.9
				C180.3,89.8,177.8,87.7,173.5,87.7L173.5,87.7z M171.8,104.9c-2-0.3-3.8-0.3-5.8-0.3V93.7h3.8c1.3,0,2,0.5,2,1.6L171.8,104.9
				L171.8,104.9z M225.9,96.1l6.3-8.3h-29.1c0,0,3.5,2.1,3.5,7.3v35.9c3.3,0.8,15.8,4.4,19.3,5.7v-8.3c-3.3-0.8-7-1.8-10.5-2.6
				v-11.2c2.8,0.5,5.5,1,8.3,1.3v-8.3c-2.8-0.3-5.5-0.8-8.3-1V95.3C219.1,95.8,222.7,95.8,225.9,96.1L225.9,96.1z"/>
		</g>
	</g>
</g>
<g id="레이어_1">
	<rect x="8" y="8" class="st3" width="234" height="234"/>
</g>
</svg>
