<?xml version="1.0" encoding="utf-8"?>
<!-- Generator: Adobe Illustrator 25.1.0, SVG Export Plug-In . SVG Version: 6.00 Build 0)  -->
<svg version="1.1" xmlns="http://www.w3.org/2000/svg" xmlns:xlink="http://www.w3.org/1999/xlink" x="0px" y="0px"
	 viewBox="0 0 250 250" style="enable-background:new 0 0 250 250;" xml:space="preserve">
<style type="text/css">
	.st0{fill:#030210;fill-opacity:0;}
	.st1{fill:#534E3F;}
	.st2{fill:url(#SVGID_1_);}
	.st3{fill:#FFFFFF;}
	.st4{fill:url(#SVGID_2_);}
	.st5{fill:url(#SVGID_3_);}
	.st6{fill:url(#SVGID_4_);}
	.st7{fill:url(#SVGID_5_);}
	.st8{fill:url(#SVGID_6_);}
	.st9{fill:url(#SVGID_7_);}
	.st10{fill:#F7B400;}
	.st11{fill:url(#SVGID_8_);}
	.st12{fill:url(#SVGID_9_);}
	.st13{fill:url(#SVGID_10_);}
	.st14{fill:url(#SVGID_11_);}
	.st15{fill:url(#SVGID_12_);}
	.st16{fill:url(#SVGID_13_);}
	.st17{fill:url(#SVGID_14_);}
	.st18{fill:none;}
</style>
<g id="Layer_1">
	<g>
		<path class="st0" d="M5.3,27.3h239.4v195.4H5.3L5.3,27.3z"/>
		<path class="st1" d="M187.1,95.5c0,28.7-23.2,51.9-51.9,51.9c-28.7,0-51.9-23.2-51.9-51.9c0-28.7,23.2-51.9,51.9-51.9
			C163.9,43.6,187.1,66.8,187.1,95.5"/>
		<path class="st1" d="M164.1,132.9c7.2-11.7,10-32.6-3.4-53.3c1.3-0.5,2.2-0.6,3.9-0.8c1-0.1,1.9-0.2,2.8-0.2
			c1.2,0,2.3,0.1,3.4,0.3c3.8,3.5,6.8,12.8,7.4,22.3c0.1,2.7,0.4,12.2-2.9,19.1C173.4,124.6,169.4,129.1,164.1,132.9"/>
		<path class="st1" d="M130.2,95.3c-3.8,0-6.9-1.1-9.6-2.2c2.1-7.5,9.1-17.9,22.8-23.8c4.8-2.1,10-3.2,14.9-3.2
			c9.4,0,16.8,4,20.3,10.9c0.2,0.5,0.4,0.9,0.6,1.4c-2.7-2.1-7-4.4-13.1-4.4c-0.8,0-1.7,0-2.5,0.1c-8.3,0.8-19.7,6.4-24.3,19.4
			C136,94.7,133,95.3,130.2,95.3 M122.1,139.1c-2.3,0-4.4-0.3-6.2-0.8c-5.8-1.7-10.5-5.3-14.2-9.4c6.8,5.5,15.2,8.9,24.6,9.9
			C124.9,139,123.5,139.1,122.1,139.1"/>
		<path class="st1" d="M135.5,142.6c-1.9,0-3.8-0.1-5.7-0.4c6.4-1.5,10.9-4,14.9-8.1c10-10.2,10.8-28.7,1.9-42.3
			c1.5-4.7,4.5-7.3,8.9-9.8c8.3,9.8,13,30.7,7,44.9c-2.2,5.2-6.4,12.4-17.3,14.7C142,142.2,138.8,142.6,135.5,142.6L135.5,142.6z
			 M104.4,73.9c-0.7-4.2,0.5-8.1,3.6-13.1c4.8-7.7,11.8-10,17.9-11.2c3.2-0.6,6.5-1,9.7-1c3,0,5.9,0.3,8.8,0.8
			C135.1,50.3,114,54.3,104.4,73.9"/>
		<path class="st1" d="M131,116.5c-15.7,0-24.9-7.1-29.8-13.1c-7.4-9-9.4-21.9-7-28.7c1.8-5.1,5.2-9.3,8.3-12.4
			c-4.3,9.6-2.1,17.3,0.7,22.3c5.5,9.6,17.8,16.4,30,16.4c3.6,0,7-0.6,10.1-1.8c3.6,5.1,4.2,10.4,4.3,15c-1.3,0.4-2.7,0.7-4,1
			C139.2,116,134.9,116.5,131,116.5"/>
		<path class="st1" d="M132.6,134.9c-12.3,0-22.9-4-30.8-11.6c-6.7-6.4-11.2-15.2-12.9-24.7c-0.6-4.5-0.3-9.3,0.6-13.8
			c0.6,7.7,3.6,15.6,8.4,21.2c11.1,13,24.8,15.7,34.4,15.7c3.5,0,8.8-0.4,14.8-2.1c-0.5,4.6-2.2,8.1-5.5,11.5
			c-1.3,1.3-2.7,2.5-4.3,3.5C135.8,134.8,134.2,134.9,132.6,134.9 M115.5,90.2c-4.1-2.4-6.4-5-8.3-8c1.7-6.2,6.9-17.2,22.5-24.9
			c5.2-2.6,12.6-4.2,18.8-4.2c5.1,0,9.5,1.1,12.6,3.1c3.9,2.5,7,5.1,9.5,8c-3.8-1.7-8.4-2.5-13.4-2.5
			C141.5,61.7,122.7,70.5,115.5,90.2"/>
		
			<radialGradient id="SVGID_1_" cx="-0.4998" cy="251.4758" r="0.234" gradientTransform="matrix(297.1613 0 0 -297.1613 296.746 74812.2656)" gradientUnits="userSpaceOnUse">
			<stop  offset="0" style="stop-color:#FFE100"/>
			<stop  offset="1" style="stop-color:#EA6000"/>
		</radialGradient>
		<path class="st2" d="M170.9,78.9c-1.1-0.2-2.3-0.3-3.4-0.3c-0.9,0-1.9,0-2.8,0.2c-1.8,0.2-2.6,0.3-3.9,0.8
			c13.4,20.7,10.6,41.6,3.4,53.3c5.2-3.8,9.2-8.3,11.3-12.6c3.3-6.9,3-16.3,2.9-19.1C177.8,91.7,174.7,82.4,170.9,78.9 M143.4,69.3
			c4.8-2.1,10-3.2,14.9-3.2c9.4,0,16.8,4,20.3,10.9c0.2,0.5,0.5,0.9,0.6,1.4c-2.7-2.1-7-4.4-13.1-4.4c-0.8,0-1.7,0-2.5,0.1
			c-8.3,0.8-19.7,6.4-24.3,19.4c-3.3,1.2-6.3,1.8-9.2,1.8c-3.8,0-6.9-1.1-9.6-2.2C122.6,85.6,129.7,75.2,143.4,69.3 M115.9,138.3
			c1.9,0.6,4,0.8,6.3,0.8c1.4,0,2.8-0.1,4.2-0.3c-9.4-1-17.8-4.4-24.6-9.9C105.4,132.9,110.1,136.6,115.9,138.3 M182.4,92.2
			c0.3,2.8,0.3,5.8-0.1,8.9c-0.2-5.4-1.1-12-3.7-18C180.4,85.1,181.8,87.5,182.4,92.2 M155.5,81.9c8.3,9.8,13,30.7,7,44.9
			c-2.2,5.2-6.4,12.4-17.3,14.7c-3.2,0.7-6.4,1-9.7,1h0c-1.9,0-3.8-0.1-5.7-0.4c6.4-1.5,10.9-4,14.9-8.1c10-10.2,10.8-28.7,1.9-42.3
			C148.1,87,151.1,84.5,155.5,81.9 M144.3,49.5c-2.9-0.5-5.8-0.8-8.8-0.8c-3.2,0-6.5,0.3-9.7,1c-6.2,1.2-13.1,3.5-17.9,11.2
			c-3.1,4.9-4.2,8.9-3.6,13.1C114,54.3,135.1,50.3,144.3,49.5 M131,116.5c4,0,8.2-0.5,12.5-1.4c1.3-0.3,2.7-0.6,4-1
			c-0.1-4.6-0.7-9.9-4.3-15c-3.1,1.2-6.5,1.8-10.1,1.8c-12.2,0-24.5-6.7-30-16.4c-2.8-5-5-12.7-0.7-22.3c-3.1,3.1-6.5,7.3-8.3,12.4
			c-2.4,6.8-0.4,19.7,7,28.7C106.1,109.3,115.3,116.5,131,116.5 M132.6,134.9c1.6,0,3.2-0.1,4.8-0.2c1.6-1,3-2.2,4.3-3.5
			c3.3-3.4,4.9-6.9,5.5-11.5c-4.8,1.4-9.8,2.1-14.8,2.1c-9.5,0-23.2-2.7-34.4-15.7c-4.8-5.6-7.8-13.5-8.4-21.2
			c-1,4.5-1.2,9.3-0.6,13.8c1.6,9.5,6.2,18.2,12.9,24.7C109.6,130.9,120.3,134.9,132.6,134.9 M107.2,82.2
			c1.7-6.2,6.9-17.1,22.5-24.9c5.2-2.6,12.6-4.2,18.8-4.2c5.1,0,9.5,1.1,12.6,3.1c3.9,2.5,7,5.1,9.5,8c-3.8-1.7-8.4-2.5-13.4-2.5
			c-15.7,0-34.5,8.8-41.7,28.6C111.4,87.8,109.1,85.2,107.2,82.2"/>
		<path class="st1" d="M57.7,84.1l-8,35.8l41-5.8c8.3-1.2,13.8-5.6,15.3-12.5c0.6-2.6,0.2-4.8-0.9-6.6c1.5-1.7,2.4-3.7,3-6
			c0.9-4.1-0.3-6.9-1.6-8.2c-1.4-1.6-4.3-3-9.6-2.3L57.7,84.1z"/>
		<path class="st3" d="M60.9,87.6l7-1l-2.5,11.3l0.1,0l10.4-12.4l8.4-1.2L71.6,98.6l7.1,13.3l-8.9,1.3l-5.3-11.4l-0.1,0l-2.8,12.6
			l-7,1L60.9,87.6z M85.3,84.1l12-1.7c4.9-0.7,8,1.1,6.9,5.8c-0.8,3.5-2.9,5.7-6,7.1l0,0.1c3.3,0.3,4.7,2,3.9,5.4
			c-1.5,6.6-7.3,8.8-12,9.5l-11,1.6L85.3,84.1z M89.8,94.1l1.9-0.3c2.3-0.3,4.8-1.3,5.3-3.6c0.6-2.5-1.6-2.5-3.9-2.1l-2,0.3
			L89.8,94.1z M87.2,105.6l2.1-0.3c2.5-0.4,5.3-1.1,5.9-3.9c0.7-3-2-2.9-4.4-2.6l-2.1,0.3L87.2,105.6z"/>
		
			<linearGradient id="SVGID_2_" gradientUnits="userSpaceOnUse" x1="18.4965" y1="233.4668" x2="18.8477" y2="230.9684" gradientTransform="matrix(5.3507 0 0 -5.3507 -26.7708 1354.7589)">
			<stop  offset="0" style="stop-color:#DBDCDC"/>
			<stop  offset="0.5" style="stop-color:#F7F7F7"/>
			<stop  offset="1" style="stop-color:#F7F7F7"/>
		</linearGradient>
		<path class="st4" d="M66.4,103.9l4.2,9.1l8.1-1.1l-4.8-9L66.4,103.9z"/>
		
			<linearGradient id="SVGID_3_" gradientUnits="userSpaceOnUse" x1="16.1414" y1="232.7765" x2="16.3937" y2="230.9819" gradientTransform="matrix(5.3507 0 0 -5.3507 -26.7708 1354.7589)">
			<stop  offset="0" style="stop-color:#DBDCDC"/>
			<stop  offset="0.5" style="stop-color:#F7F7F7"/>
			<stop  offset="1" style="stop-color:#F7F7F7"/>
		</linearGradient>
		<path class="st5" d="M57.7,105.2l-2.2,10l6.2-0.9l2.2-10L57.7,105.2z"/>
		
			<linearGradient id="SVGID_4_" gradientUnits="userSpaceOnUse" x1="21.6915" y1="235.8367" x2="22.5753" y2="229.5483" gradientTransform="matrix(5.3507 0 0 -5.3507 -26.7708 1354.7589)">
			<stop  offset="0" style="stop-color:#DBDCDC"/>
			<stop  offset="0.5" style="stop-color:#F7F7F7"/>
			<stop  offset="1" style="stop-color:#F7F7F7"/>
		</linearGradient>
		<path class="st6" d="M96,99.8c0.1,0.4,0.1,0.9,0,1.5c-0.6,2.8-3.4,3.6-5.9,4l-2.1,0.3l-0.8,0.1l1.1-4.8l-6.2,0.9l-2.2,10l10.2-1.4
			c4.7-0.7,10.5-2.8,12-9.5c0.2-0.6,0.2-1.3,0.2-1.9L96,99.8z"/>
		
			<linearGradient id="SVGID_5_" gradientUnits="userSpaceOnUse" x1="14.2017" y1="249.9658" x2="19.6213" y2="211.4037" gradientTransform="matrix(5.3507 0 0 -5.3507 -26.7708 1354.7589)">
			<stop  offset="0" style="stop-color:#DBDCDC"/>
			<stop  offset="0.5" style="stop-color:#F7F7F7"/>
			<stop  offset="1" style="stop-color:#F7F7F7"/>
		</linearGradient>
		<path class="st7" d="M55.2,115.2l6-27.2l5.6-0.8v0l-0.1,0.5l-5.1,0.7l-5.9,26.7L55.2,115.2z"/>
		
			<linearGradient id="SVGID_6_" gradientUnits="userSpaceOnUse" x1="13.26" y1="297.4515" x2="34.2627" y2="148.0106" gradientTransform="matrix(5.3507 0 0 -5.3507 -26.7708 1354.7589)">
			<stop  offset="0" style="stop-color:#DBDCDC"/>
			<stop  offset="0.5" style="stop-color:#F7F7F7"/>
			<stop  offset="1" style="stop-color:#F7F7F7"/>
		</linearGradient>
		<path class="st8" d="M97.5,82.9l-11.9,1.7l-6,27.2l0.5-0.1L86,85l11.5-1.6c0,0,3.4-0.6,4.9,1l0.3-0.3c-1-1-2.7-1.2-3.9-1.2
			C98.2,82.8,97.5,82.9,97.5,82.9"/>
		
			<linearGradient id="SVGID_7_" gradientUnits="userSpaceOnUse" x1="16.8802" y1="251.38" x2="23.9846" y2="200.8298" gradientTransform="matrix(5.3507 0 0 -5.3507 -26.7708 1354.7589)">
			<stop  offset="0" style="stop-color:#DBDCDC"/>
			<stop  offset="0.5" style="stop-color:#F7F7F7"/>
			<stop  offset="1" style="stop-color:#F7F7F7"/>
		</linearGradient>
		<path class="st9" d="M83.2,84.8L83.2,84.8l-0.5,0.5L77,86.1l-9.5,11.5l-0.7,0.1l9.9-12L83.2,84.8z"/>
		<path class="st1" d="M129.4,158L129.4,158l28-3.9l2.8-12.5l8.3,10.9l32.7-4.6c11.4-1.5,18.9-7.9,21.3-18
			c1.3-5.4,0.2-10.7-2.8-14.5c-0.1-0.2-0.3-0.3-0.4-0.5l9.4-1.3L242,89.5L202.8,95c-5.7,0.8-12.4,3.5-16.8,8.8
			c-4.3-4-10.3-4.4-12.8-4.4c-0.9,0-1.9,0.1-2.8,0.2L49.8,116.5c-8.2,1.1-18.7,6.4-21.2,17.7c-1.2,5.8-0.1,11.4,3,15.3c0,0,0,0,0,0
			l-9.2,1.3l-13,24L129.4,158z"/>
		<path class="st10" d="M126.4,111.6l-51.6,48.2l18-2.6l32.9-31.3l-2.1,8.5l-14.6,14l11.1-1.6l-1.6,6.9l11.8-1.7l9.3-42.2
			L126.4,111.6z M69.9,160.6l10.4-9.1l4.9-23.5l18.3-2.6l13.6-12.4l-66.6,9.4c-6.7,0.9-14.5,5.1-16.2,13.2
			c-1.6,7.5,2,14.4,10.1,13.2c0,0,3.8-1,3.2,2.3c-0.6,2.9-4.8,2.9-4.8,2.9l-16.6,2.3l-6.1,11.3l23.2-3.3c8.3-1.1,14.5-5.4,16.4-13.5
			c1.7-7.2-2.5-13.9-11-12.7c-2,0.3-2.9-0.6-2.4-2.8c0.5-2.2,3.9-2.4,3.9-2.4l22.4-3.1l-6.7,31.4L69.9,160.6z M196.3,142.7
			c8.3-1.1,14.5-5.4,16.4-13.5c1.7-7.2-2.5-13.9-11-12.7c-2,0.3-2.9-0.6-2.4-2.8c0.5-2.2,3.9-2.4,3.9-2.4l17.6-2.5l6.3-11.4
			l-23.6,3.3c-6.7,0.9-14.5,5.1-16.2,13.2c-1.6,7.5,2.1,14.4,10.1,13.2c0,0,3.8-1,3.2,2.3c-0.6,2.9-4.8,2.9-4.8,2.9l-20,2.8
			l-2.8-3.6c2-1,3.4-2.8,4.5-4.4c4-5.9,4.3-14.3,0.8-18.1c-2.7-2.9-7.8-3.6-11.2-3.1l-20.7,2.9l-9.5,42.3l11.5-1.6l7.2-31.5l7.8-1.1
			c3.9-0.6,5.9,0.7,5.5,3.9c-0.5,3.4-3.2,6-6.8,6.6l-4.7,0.7l13.7,18.2L196.3,142.7z"/>
		<path class="st3" d="M131.5,110.9l-51.6,48.2l17-2.5l31.9-30.6l-2.2,9.3l-12.9,12.4l10.5-1.5l-1.6,6.9l11.8-1.7l9.3-42.2
			L131.5,110.9z M85.1,147.2l4.3-19.9l18.4-2.6l13.6-12.4l-66.7,9.4c-6.7,0.9-14.5,5.1-16.2,13.2c-1.6,7.5,2,14.4,10.1,13.2
			c0,0,3.8-1,3.2,2.3c-0.6,2.9-4.8,2.9-4.8,2.9l-16.6,2.3l-6.1,11.3l23.2-3.3c8.3-1.1,14.5-5.4,16.4-13.5c1.7-7.2-2.5-13.9-11-12.7
			c-2,0.3-2.9-0.7-2.4-2.8c0.5-2.2,3.9-2.4,3.9-2.4l22.4-3.1l-6.8,31.5L85.1,147.2z M200.4,142.2c8.3-1.1,14.5-5.4,16.4-13.5
			c1.7-7.2-2.5-13.9-11-12.7c-2,0.3-2.9-0.7-2.4-2.8c0.5-2.2,3.9-2.4,3.9-2.4l17.6-2.5l6.3-11.4l-23.6,3.3
			c-6.7,0.9-14.5,5.1-16.2,13.2c-1.6,7.5,2,14.4,10.1,13.2c0,0,3.8-1,3.2,2.3c-0.6,2.9-4.8,2.9-4.8,2.9l-20,2.8L177,131
			c2-1,3.4-2.7,4.5-4.4c4-5.9,4.3-14.3,0.8-18.1c-2.7-2.9-7.8-3.6-11.2-3.1l-21.1,3l-9.5,42.3l11.9-1.7l7.2-31.5l7.8-1.1
			c3.9-0.6,5.9,0.7,5.5,3.9c-0.5,3.4-3.2,6-6.8,6.6l-5.3,0.8l13.7,18.2L200.4,142.2z"/>
		
			<linearGradient id="SVGID_8_" gradientUnits="userSpaceOnUse" x1="13.278" y1="225.1324" x2="13.6377" y2="222.2028" gradientTransform="matrix(5.3507 0 0 -5.3507 -26.7708 1354.7589)">
			<stop  offset="0" style="stop-color:#DBDCDC"/>
			<stop  offset="0.5" style="stop-color:#F7F7F7"/>
			<stop  offset="1" style="stop-color:#F7F7F7"/>
		</linearGradient>
		<path class="st11" d="M25.9,166.7l6.1-11.3l14.9-2.1c0,0,0.8,0,1.8-0.2c0.5,0,4.2-0.2,4.7-2.9c0.7-3.3-3.1-2.3-3.1-2.3
			c-4.1,0.6-7.1-0.9-8.8-3.6l21.1-3c1.5,2.4,1.9,5.5,1.2,8.8c-1.9,8.2-8,12.4-16.4,13.5L25.9,166.7z"/>
		
			<linearGradient id="SVGID_9_" gradientUnits="userSpaceOnUse" x1="23.4587" y1="230.6962" x2="24.8064" y2="219.7206" gradientTransform="matrix(5.3507 0 0 -5.3507 -26.7708 1354.7589)">
			<stop  offset="0" style="stop-color:#DBDCDC"/>
			<stop  offset="0.5" style="stop-color:#F7F7F7"/>
			<stop  offset="1" style="stop-color:#F7F7F7"/>
		</linearGradient>
		<path class="st12" d="M82.3,158.7l24.8-23.6l14.3-2l-24.6,23.5L82.3,158.7z"/>
		
			<linearGradient id="SVGID_10_" gradientUnits="userSpaceOnUse" x1="28.6757" y1="228.3237" x2="29.2869" y2="223.3457" gradientTransform="matrix(5.3507 0 0 -5.3507 -26.7708 1354.7589)">
			<stop  offset="0" style="stop-color:#DBDCDC"/>
			<stop  offset="0.5" style="stop-color:#F7F7F7"/>
			<stop  offset="1" style="stop-color:#F7F7F7"/>
		</linearGradient>
		<path class="st13" d="M129,132l-0.9,3.6l-12.3,11.8l8.3-1.2h0l1.7-0.2l-1.6,6.9l10.1-1.4l4.6-20.8L129,132z"/>
		
			<linearGradient id="SVGID_11_" gradientUnits="userSpaceOnUse" x1="19.6386" y1="227.3677" x2="20.3015" y2="221.9686" gradientTransform="matrix(5.3507 0 0 -5.3507 -26.7708 1354.7589)">
			<stop  offset="0" style="stop-color:#DBDCDC"/>
			<stop  offset="0.5" style="stop-color:#F7F7F7"/>
			<stop  offset="1" style="stop-color:#F7F7F7"/>
		</linearGradient>
		<path class="st14" d="M76.1,139.5L72,158.7v0l13.1-11.5l2-9.3L76.1,139.5z"/>
		
			<linearGradient id="SVGID_12_" gradientUnits="userSpaceOnUse" x1="39.9339" y1="234.1289" x2="41.5826" y2="220.7018" gradientTransform="matrix(5.3507 0 0 -5.3507 -26.7708 1354.7589)">
			<stop  offset="0" style="stop-color:#DBDCDC"/>
			<stop  offset="0.5" style="stop-color:#F7F7F7"/>
			<stop  offset="1" style="stop-color:#F7F7F7"/>
		</linearGradient>
		<path class="st15" d="M194.4,122.8c1.7,2.6,4.7,4.1,8.8,3.5c0,0,3.8-1,3.2,2.3c-0.5,2.7-4.2,2.9-4.8,2.9c-1,0.2-1.8,0.2-1.8,0.2
			l-18.3,2.6l-1.7,0.2L177,131c2-1,3.4-2.7,4.5-4.4c0.5-0.7,0.9-1.4,1.2-2.1l-14.9,2.1l-5.3,0.8l13.8,18.2l24.1-3.4
			c8.3-1.1,14.5-5.4,16.4-13.5c0.8-3.2,0.3-6.4-1.2-8.8L194.4,122.8z"/>
		
			<linearGradient id="SVGID_13_" gradientUnits="userSpaceOnUse" x1="32.89" y1="228.0621" x2="33.2972" y2="224.7457" gradientTransform="matrix(5.3507 0 0 -5.3507 -26.7708 1354.7589)">
			<stop  offset="0" style="stop-color:#DBDCDC"/>
			<stop  offset="0.5" style="stop-color:#F7F7F7"/>
			<stop  offset="1" style="stop-color:#F7F7F7"/>
		</linearGradient>
		<path class="st16" d="M157.3,128.1l-4.7,20.8l-10.2,1.4l4.7-20.8L157.3,128.1z"/>
		<path class="st1" d="M9.5,174.9l143-26l4.6-20.2l15.9,21l54.9-6.2l-35.9,27.7l24.6,35.5L167.7,190l-30,26.3l7.5-32.3
			c0,0-92.1-8.5-92.5-8.5c-0.6,0-0.5-0.4,0-0.4c0.3,0,100.6,0.6,100.6,0.6l-5.1,21.4l18.8-16.3l29.7,10.5L181.2,170l18.7-14.3
			l-26.9,2.9l-12.9-17l-4.3,18.8L9.5,174.9z"/>
		
			<linearGradient id="SVGID_14_" gradientUnits="userSpaceOnUse" x1="30.309" y1="336.5008" x2="30.309" y2="96.0947" gradientTransform="matrix(5.3507 0 0 -5.3507 -26.7708 1354.7589)">
			<stop  offset="0" style="stop-color:#DBDCDC"/>
			<stop  offset="0.5" style="stop-color:#F7F7F7"/>
			<stop  offset="1" style="stop-color:#F7F7F7"/>
		</linearGradient>
		<path class="st17" d="M138.8,212.1l7.2-31.2l-88.9-5.8l96.3,0.6l-5.1,21.4l18.8-16.3l32.1,11.3L187,175.7l8.3,0.2l18.4,26.7
			l-46-15.7L138.8,212.1z"/>
		<g>
			<path class="st1" d="M130.1,31.3c-0.3,0.7-0.6,1.5-0.9,2.3c-0.3,0.8-0.6,1.5-0.9,2.3l-2.8-4l-1.6,0.2c0.6,0.9,1.3,1.8,1.9,2.8
				c0.7,0.9,1.3,1.8,2,2.8l0.5,3.6l1.3-0.2l-0.4-3.6l2.5-6.3L130.1,31.3z M121.2,41c-0.8,0.2-1.6,0.4-2.4,0.7l-0.7-2.6l4.4-1.2
				c-0.1-0.3-0.1-0.5-0.2-0.7c-0.1-0.2-0.1-0.5-0.2-0.7c-0.7,0.2-1.5,0.4-2.2,0.6c-0.7,0.2-1.5,0.4-2.2,0.6l-0.6-2.4l4.7-1.3
				l-0.4-1.5l-6.3,1.7l2.5,9.3l6.4-1.7l-0.4-1.5C122.8,40.5,122,40.8,121.2,41 M86.8,52.9c0.7,1.2,1.4,2.4,2.1,3.6
				c0.7,1.2,1.5,2.3,2.2,3.5l-7.8-2.7l-1,1.2c1.6,0.6,3.2,1.1,4.9,1.7c1.6,0.6,3.2,1.1,4.8,1.7l1.1-1.4l-5.3-8.8L86.8,52.9z
				 M96.1,45.7c-1.2-0.2-2.3,0.1-3.2,0.9c-0.9,0.8-1.4,1.8-1.4,3c0,1.2,0.5,2.4,1.5,3.6c1,1.1,2,1.8,3.2,2.1l0,0
				c1.2,0.2,2.3-0.1,3.2-0.8c1-0.9,1.5-1.9,1.4-3c0-1.2-0.5-2.4-1.5-3.5C98.4,46.6,97.3,45.9,96.1,45.7 M98.4,53.2
				c-0.6,0.5-1.3,0.6-2,0.4c-0.8-0.2-1.5-0.7-2.1-1.5c-0.7-0.8-1.1-1.6-1.1-2.4c-0.1-0.8,0.1-1.4,0.7-1.9c0.6-0.5,1.3-0.6,2.1-0.4
				c0.8,0.2,1.6,0.7,2.2,1.5c0.6,0.8,1,1.6,1,2.4C99.3,52.1,99,52.7,98.4,53.2 M106.5,47.1c-0.7,0.4-1.3,0.8-2,1.2l-4.3-6.9
				l-1.3,0.8l5.1,8.2l5.2-3.3l-0.8-1.3C107.8,46.3,107.1,46.7,106.5,47.1 M113.5,43.5c-0.7,0.3-1.4,0.6-2.1,0.9l-3.3-7.4l-1.4,0.6
				l3.9,8.8l5.6-2.5l-0.6-1.4C114.9,42.9,114.2,43.2,113.5,43.5 M140.1,35.7L140.1,35.7c0.1-0.2,0.2-0.3,0.3-0.4
				c0.1-0.1,0.2-0.3,0.4-0.5c0.1-0.3,0.2-0.6,0.2-1c0-0.1,0-0.2,0-0.2c0-0.1,0-0.1,0-0.2v0c0-0.3-0.1-0.6-0.3-0.8
				c-0.1-0.3-0.3-0.5-0.5-0.7c-0.5-0.4-1.2-0.7-2-0.7l-4-0.1l-0.2,9.7l4,0.1c0.5,0,0.9,0,1.3-0.2c0.4-0.1,0.7-0.3,1-0.5
				c0.3-0.2,0.6-0.5,0.8-0.8c0.2-0.3,0.3-0.7,0.3-1c0-0.7-0.1-1.3-0.5-1.7C140.6,36.1,140.3,35.8,140.1,35.7 M135.9,32.6l2.2,0
				c0.4,0,0.7,0.1,1,0.3c0.2,0.2,0.4,0.5,0.3,0.8c0,0.4-0.1,0.7-0.4,0.9c-0.2,0.2-0.6,0.3-1,0.3l-2.2,0L135.9,32.6z M139.7,38.4
				c-0.1,0.2-0.2,0.3-0.4,0.5c-0.1,0.1-0.2,0.2-0.4,0.3c-0.2,0.1-0.5,0.1-0.8,0.1l-2.3,0l0.1-2.7l2.3,0c0.4,0,0.6,0,0.8,0.1
				c0.2,0.1,0.3,0.2,0.4,0.3c0.2,0.1,0.3,0.3,0.3,0.5c0.1,0.2,0.1,0.3,0.1,0.5C139.8,38.1,139.7,38.2,139.7,38.4 M149.8,32.7
				l-1.7-0.4c-1,1.4-1.9,2.9-2.9,4.3c-0.9,1.4-1.8,2.9-2.7,4.3c0.2,0.1,0.5,0.1,0.7,0.2c0.3,0.1,0.5,0.1,0.8,0.2l1.3-2l3.9,0.9
				l0.2,2.3l1.6,0.4c-0.1-1.7-0.3-3.4-0.5-5.1C150.2,36.1,150,34.4,149.8,32.7 M146.1,38l2.3-3.7l0.5,4.3L146.1,38z M195.6,72.6
				l-1.5-3.7l-9,3.6l1.5,3.7c0.2,0.5,0.4,0.8,0.6,1.1c0.2,0.3,0.5,0.5,0.9,0.7c0.4,0.2,0.7,0.4,1.1,0.4c0.4,0,0.7,0,1.1-0.1
				c0.7-0.2,1.1-0.6,1.3-1.1c0.3-0.5,0.4-0.8,0.5-1.1l0.1,0c0.1,0.1,0.3,0.1,0.4,0.2c0.2,0,0.4,0.1,0.6,0.2c0.3,0,0.7-0.1,1-0.2
				c0.1,0,0.1-0.1,0.2-0.1c0.1,0,0.1-0.1,0.2-0.1l0,0c0.3-0.2,0.5-0.3,0.6-0.6c0.2-0.2,0.3-0.5,0.5-0.7
				C195.9,74.1,195.9,73.4,195.6,72.6 M190.6,75.9c0,0.2-0.1,0.4-0.3,0.5c-0.1,0.1-0.3,0.2-0.4,0.3c-0.2,0.1-0.3,0.1-0.5,0.1
				c-0.2,0-0.4,0-0.6-0.2c-0.1,0-0.3-0.1-0.4-0.3c-0.2-0.2-0.3-0.5-0.4-0.7l-0.9-2.1l2.5-1l0.9,2.2c0.1,0.3,0.2,0.6,0.2,0.8
				C190.7,75.6,190.7,75.8,190.6,75.9 M193.5,74.7c-0.4,0.1-0.7,0.1-0.9,0c-0.3-0.1-0.5-0.4-0.7-0.8l-0.8-2.1l2.2-0.9l0.8,2.1
				c0.2,0.4,0.2,0.7,0.1,1C194,74.4,193.8,74.6,193.5,74.7 M177.9,58.8l6.3-5.1l-1-1.2l-7.5,6.1l3.9,4.8l1.2-1
				c-0.5-0.6-1-1.2-1.5-1.8C178.9,59.9,178.4,59.4,177.9,58.8 M186.8,69.1l5.7-3.4l-0.8-1.4c-0.9,0.5-1.8,1.1-2.6,1.6
				c-0.9,0.5-1.8,1.1-2.6,1.6c-0.5,0.3-1,0.4-1.5,0.4c-0.5,0.1-1-0.3-1.5-1.1c-0.5-0.8-0.5-1.3-0.2-1.7c0.3-0.4,0.7-0.8,1.2-1.1
				l5.3-3.2l-0.8-1.4c-0.9,0.6-1.9,1.1-2.8,1.7c-0.9,0.6-1.9,1.1-2.8,1.7c-0.9,0.5-1.4,1.2-1.5,2.1c-0.2,0.9,0,1.7,0.5,2.6
				c0.6,0.9,1.3,1.5,2.2,1.8C185.1,69.7,185.9,69.6,186.8,69.1 M154.4,42.5l2.9-7.6l-1.4-0.6l-3.5,9l5.8,2.2l0.6-1.4
				c-0.7-0.3-1.4-0.6-2.2-0.8C155.8,43,155.1,42.8,154.4,42.5 M175.4,53.6c-0.3,0.3-0.8,0.5-1.3,0.6c-0.6,0.1-1.1-0.1-1.7-0.6
				c-0.6-0.5-0.8-1.1-0.7-1.9c0.1-0.8,0.4-1.6,1.1-2.4c0.7-0.8,1.4-1.3,2.2-1.5c0.8-0.2,1.4-0.1,2,0.4c0.3,0.2,0.5,0.5,0.6,0.7
				c0.1,0.3,0.2,0.5,0.3,0.8c0,0.2-0.1,0.4-0.1,0.7c0,0.2-0.1,0.5-0.2,0.7c0.2,0.2,0.5,0.4,0.7,0.5c0.2,0.1,0.4,0.3,0.7,0.5
				c0.3-0.6,0.5-1.4,0.5-2.4c0-1-0.5-1.9-1.4-2.7c-1-0.8-2-1.1-3.2-0.9c-1.2,0.3-2.3,1-3.3,2.1c-0.9,1.1-1.4,2.3-1.5,3.5
				c0,1.2,0.4,2.2,1.4,3c0.9,0.8,1.9,1.1,2.9,0.9c0.5-0.1,0.9-0.2,1.3-0.4c0.4-0.2,0.7-0.4,1-0.6L175.4,53.6z M161.5,45.7l3.9-7.1
				l-1.3-0.8l-4.7,8.4l5.4,3l0.7-1.3c-0.7-0.4-1.3-0.7-2-1.1C162.9,46.4,162.2,46.1,161.5,45.7"/>
		</g>
	</g>
</g>
<g id="레이어_1">
	<rect x="8" y="8" class="st18" width="234" height="234"/>
</g>
<g id="_레이어_1">
</g>
</svg>
